<svg width="19" height="19" viewBox="0 0 19 19" fill="none" xmlns="http://www.w3.org/2000/svg">
<path d="M4.35547 9.2341H14.6471C14.397 8.11626 13.3963 7.28027 12.2056 7.28027H11.091C10.6223 7.54943 10.0776 7.70143 9.5013 7.70143C8.92497 7.70143 8.38348 7.54943 7.9148 7.28027H6.79381C5.60314 7.28027 4.60565 8.11626 4.35547 9.2341Z" fill="white"/>
<path d="M12.0847 4.48183C12.0847 3.05731 10.9272 1.8999 9.50275 1.8999C8.07826 1.8999 6.91797 3.05731 6.91797 4.48183C6.91797 5.9063 8.07826 7.06659 9.50275 7.06659C10.9272 7.06659 12.0847 5.9063 12.0847 4.48183Z" fill="white"/>
<path d="M15.6849 9.86743H3.31276C3.13543 9.86743 2.99609 10.0099 2.99609 10.1841V16.7834C2.99609 16.9576 3.13543 17.1001 3.31276 17.1001H15.6849C15.8591 17.1001 16.0016 16.9576 16.0016 16.7834V10.1841C16.0016 10.0099 15.8591 9.86743 15.6849 9.86743ZM9.19643 15.2001C9.16158 15.2128 9.12359 15.2191 9.08876 15.2191C8.95893 15.2191 8.8386 15.1399 8.79109 15.0101L8.64227 14.5953H7.49591L7.34709 15.0101C7.29009 15.1748 7.10642 15.2603 6.94492 15.2001C6.78026 15.1399 6.69476 14.9594 6.75176 14.7948L7.77143 11.9574C7.81575 11.8308 7.93609 11.7484 8.0691 11.7484C8.20209 11.7484 8.32243 11.8308 8.36675 11.9574L9.38642 14.7948C9.44659 14.9594 9.36109 15.1399 9.19643 15.2001ZM10.5264 15.2191H10.2287C10.0546 15.2191 9.91208 15.0766 9.91208 14.9024V12.0651C9.91208 11.8878 10.0546 11.7484 10.2287 11.7484H10.5264C11.4859 11.7484 12.2649 12.5274 12.2649 13.4838C12.2649 14.4401 11.4859 15.2191 10.5264 15.2191Z" fill="white"/>
<path d="M7.72656 13.962H8.41689L8.07174 13.0024L7.72656 13.962Z" fill="white"/>
<path d="M10.5469 12.3816V14.5856C11.1454 14.5761 11.6331 14.0853 11.6331 13.4836C11.6331 12.8819 11.1454 12.3911 10.5469 12.3816Z" fill="white"/>
</svg>
