<svg width="19" height="19" viewBox="0 0 19 19" fill="none" xmlns="http://www.w3.org/2000/svg">
<path d="M2.27344 2.86717V15.0091C2.27344 15.9379 3.02443 16.6889 3.95314 16.6889H11.6752C11.4745 16.4137 11.3541 16.0697 11.3541 15.6971C11.3541 14.8028 12.0363 14.0747 12.9077 13.9944C12.9937 13.1231 13.7218 12.4352 14.616 12.4352C14.9715 12.4352 15.2982 12.5441 15.5677 12.7333V2.86717C15.5677 1.93849 14.8167 1.1875 13.888 1.1875H3.95314C3.02443 1.1875 2.27344 1.93849 2.27344 2.86717ZM5.60991 5.05137H8.92341C9.23873 5.05137 9.49672 5.30936 9.49672 5.62464C9.49672 5.93993 9.23873 6.19792 8.92341 6.19792H5.60991C5.29459 6.19792 5.03664 5.93993 5.03664 5.62464C5.03664 5.30936 5.29459 5.05137 5.60991 5.05137ZM5.60991 8.36487H12.2313C12.5523 8.36487 12.8045 8.62286 12.8045 8.93814C12.8045 9.2535 12.5523 9.51141 12.2313 9.51141H5.60991C5.29459 9.51141 5.03664 9.2535 5.03664 8.93814C5.03664 8.62286 5.29459 8.36487 5.60991 8.36487ZM5.60991 11.6784H12.2313C12.5523 11.6784 12.8045 11.9307 12.8045 12.2517C12.8045 12.567 12.5523 12.825 12.2313 12.825H5.60991C5.29459 12.825 5.03664 12.567 5.03664 12.2517C5.03664 11.9307 5.29459 11.6784 5.60991 11.6784Z" fill="white"/>
<path d="M14.6115 17.8123C14.9281 17.8123 15.1847 17.5558 15.1847 17.239V16.2705H16.1535C16.4701 16.2705 16.7268 16.0141 16.7268 15.6972C16.7268 15.3803 16.4701 15.1239 16.1535 15.1239H15.1847V14.1548C15.1847 13.8379 14.9281 13.5815 14.6115 13.5815C14.2949 13.5815 14.0382 13.8379 14.0382 14.1548V15.1239H13.0694C12.7528 15.1239 12.4961 15.3803 12.4961 15.6972C12.4961 16.0141 12.7528 16.2705 13.0694 16.2705H14.0382V17.239C14.0382 17.5558 14.2949 17.8123 14.6115 17.8123Z" fill="white"/>
</svg>
