<svg width="19" height="19" viewBox="0 0 19 19" fill="none" xmlns="http://www.w3.org/2000/svg">
<g clip-path="url(#clip0_324_204)">
<path d="M15.0684 13.3965C15.9906 13.3965 16.7383 12.6488 16.7383 11.7266C16.7383 10.8043 15.9906 10.0566 15.0684 10.0566C14.1461 10.0566 13.3984 10.8043 13.3984 11.7266C13.3984 12.6488 14.1461 13.3965 15.0684 13.3965Z" fill="white"/>
<path d="M18.4284 18.5782L18.985 17.4278C19.0269 17.2615 18.9894 17.0853 18.8839 16.9505C18.7784 16.8151 18.6165 16.7363 18.4452 16.7363H11.7284C11.5572 16.7363 11.3952 16.8151 11.2898 16.9505C11.1843 17.0853 11.1468 17.2614 11.1886 17.4277L11.7453 18.5781C11.8073 18.8261 12.0296 19 12.2851 19H17.8886C18.1441 19 18.3664 18.8261 18.4284 18.5782Z" fill="white"/>
<path d="M15.0683 4.49024H10.8457L11.0088 4.32715C11.2262 4.10972 11.2262 3.75744 11.0088 3.54002C10.7914 3.3226 10.4391 3.3226 10.2217 3.54002L9.10838 4.6533C8.89096 4.87073 8.89096 5.22301 9.10838 5.44043L10.2217 6.55371C10.4391 6.77113 10.7914 6.77113 11.0088 6.55371C11.2262 6.33629 11.2262 5.98401 11.0088 5.76658L10.8457 5.60352H14.5117V8.38673C14.5117 8.6944 14.7607 8.94337 15.0683 8.94337C15.376 8.94337 15.625 8.6944 15.625 8.38673V5.04688C15.625 4.73921 15.376 4.49024 15.0683 4.49024Z" fill="white"/>
<path d="M6.87794 17.6865C7.09536 17.9039 7.44764 17.9039 7.66507 17.6865L8.77835 16.5732C8.99577 16.3558 8.99577 16.0035 8.77835 15.7861L7.66507 14.6728C7.44764 14.4554 7.09536 14.4554 6.87794 14.6728C6.66052 14.8902 6.66052 15.2425 6.87794 15.46L7.04103 15.623H4.48828V10.6133C4.48828 10.3056 4.23931 10.0566 3.93164 10.0566C3.62397 10.0566 3.375 10.3056 3.375 10.6133V16.1797C3.375 16.4874 3.62397 16.7363 3.93164 16.7363H7.041L6.8779 16.8994C6.66048 17.1168 6.66048 17.4691 6.87794 17.6865Z" fill="white"/>
<path d="M12.3398 15.623H17.8311C17.5732 14.3527 16.4134 13.3965 15.0669 13.3965C13.7204 13.3965 12.5978 14.3527 12.3398 15.623Z" fill="white"/>
<path d="M3.93555 3.33984C4.85782 3.33984 5.60547 2.59219 5.60547 1.66992C5.60547 0.747649 4.85782 0 3.93555 0C3.01327 0 2.26562 0.747649 2.26562 1.66992C2.26562 2.59219 3.01327 3.33984 3.93555 3.33984Z" fill="white"/>
<path d="M0.117895 6.93095C0.0124298 7.06577 -0.0250878 7.24189 0.0167716 7.40822L0.573412 8.5215C0.635385 8.76943 0.857707 8.94336 1.11321 8.94336H6.71672C6.97222 8.94336 7.19454 8.76939 7.25651 8.52154L7.81315 7.40826C7.85501 7.24193 7.8175 7.06577 7.71203 6.93099C7.60657 6.79562 7.44458 6.7168 7.27336 6.7168H0.556565C0.385342 6.7168 0.223359 6.79562 0.117895 6.93095Z" fill="white"/>
<path d="M1.16797 5.60352H6.65923C6.40128 4.33315 5.27865 3.33984 3.93213 3.33984C2.58562 3.33984 1.42592 4.33315 1.16797 5.60352Z" fill="white"/>
</g>
<defs>
<clipPath id="clip0_324_204">
<rect width="19" height="19" fill="white"/>
</clipPath>
</defs>
</svg>
