<svg width="19" height="19" viewBox="0 0 19 19" fill="none" xmlns="http://www.w3.org/2000/svg">
<path d="M11.8242 2.29544C11.1324 1.54852 10.1661 1.13721 9.09961 1.13721C8.02741 1.13721 7.05796 1.54604 6.36935 2.28833C5.67327 3.03879 5.33412 4.05873 5.41375 5.16008C5.5716 7.33291 7.22504 9.10047 9.09961 9.10047C10.9742 9.10047 12.6248 7.33327 12.7851 5.16079C12.8658 4.06939 12.5245 3.05159 11.8242 2.29544Z" fill="white"/>
<path d="M15.3585 17.063H2.84484C2.68105 17.0651 2.51884 17.0307 2.37002 16.9622C2.2212 16.8938 2.08951 16.793 1.98453 16.6673C1.75345 16.3911 1.66031 16.0139 1.72928 15.6324C2.02932 13.968 2.96571 12.5698 4.4375 11.5882C5.74504 10.7169 7.40132 10.2373 9.10169 10.2373C10.8021 10.2373 12.4584 10.7172 13.7659 11.5882C15.2377 12.5694 16.1741 13.9676 16.4741 15.6321C16.5431 16.0135 16.4499 16.3907 16.2189 16.6669C16.1139 16.7927 15.9822 16.8936 15.8334 16.9621C15.6846 17.0306 15.5224 17.065 15.3585 17.063Z" fill="white"/>
</svg>
