<svg width="19" height="19" viewBox="0 0 19 19" fill="none" xmlns="http://www.w3.org/2000/svg">
<g clip-path="url(#clip0_324_193)">
<path d="M9.30031 3.60086C9.24738 3.55023 9.17696 3.52197 9.10372 3.52197C9.03047 3.52197 8.96005 3.55023 8.90712 3.60086L2.36231 9.85309C2.33452 9.87968 2.31241 9.91163 2.29731 9.94701C2.28222 9.98239 2.27446 10.0205 2.2745 10.0589L2.27344 15.9269C2.27344 16.2286 2.39329 16.5179 2.60664 16.7313C2.81998 16.9446 3.10933 17.0645 3.41105 17.0645H6.82743C6.97829 17.0645 7.12296 17.0045 7.22964 16.8979C7.33631 16.7912 7.39623 16.6465 7.39623 16.4957V11.6608C7.39623 11.5854 7.4262 11.5131 7.47953 11.4597C7.53287 11.4064 7.60521 11.3764 7.68064 11.3764H10.5247C10.6001 11.3764 10.6724 11.4064 10.7258 11.4597C10.7791 11.5131 10.8091 11.5854 10.8091 11.6608V16.4957C10.8091 16.6465 10.869 16.7912 10.9757 16.8979C11.0823 17.0045 11.227 17.0645 11.3779 17.0645H14.7928C15.0945 17.0645 15.3839 16.9446 15.5972 16.7313C15.8106 16.5179 15.9304 16.2286 15.9304 15.9269V10.0589C15.9305 10.0205 15.9227 9.98239 15.9076 9.94701C15.8925 9.91163 15.8704 9.87968 15.8426 9.85309L9.30031 3.60086Z" fill="white"/>
<path d="M17.4535 8.68067L14.7944 6.13669V2.27628C14.7944 2.12542 14.7344 1.98075 14.6278 1.87408C14.5211 1.7674 14.3764 1.70748 14.2255 1.70748H12.5191C12.3683 1.70748 12.2236 1.7674 12.1169 1.87408C12.0103 1.98075 11.9503 2.12542 11.9503 2.27628V3.41389L9.89126 1.44512C9.69857 1.2503 9.41204 1.13867 9.1024 1.13867C8.79382 1.13867 8.508 1.2503 8.31531 1.44547L0.753765 8.67996C0.532643 8.89326 0.504913 9.24414 0.706128 9.47522C0.756656 9.53354 0.818524 9.58098 0.887967 9.61464C0.95741 9.64829 1.03298 9.66747 1.11006 9.67099C1.18715 9.67452 1.26415 9.66232 1.33638 9.63514C1.4086 9.60796 1.47454 9.56637 1.53018 9.5129L8.90687 2.46399C8.9598 2.41336 9.03022 2.3851 9.10346 2.3851C9.17671 2.3851 9.24713 2.41336 9.30006 2.46399L16.6775 9.5129C16.7861 9.61711 16.9317 9.67399 17.0822 9.67106C17.2328 9.66813 17.376 9.60563 17.4805 9.49726C17.6988 9.27116 17.6807 8.89788 17.4535 8.68067Z" fill="white"/>
</g>
<defs>
<clipPath id="clip0_324_193">
<rect width="18.2018" height="18.2018" fill="white"/>
</clipPath>
</defs>
</svg>
