<svg width="19" height="19" viewBox="0 0 19 19" fill="none" xmlns="http://www.w3.org/2000/svg">
<g clip-path="url(#clip0_324_217)">
<path d="M3.33984 3.33984H5.56641V4.82422H3.33984V3.33984Z" fill="white"/>
<path d="M16.959 0H2.04102C0.9156 0 0 0.9156 0 2.04102V10.2051C0 10.6177 0.123426 11.0018 0.334764 11.3232C1.2809 10.3373 2.61098 9.72266 4.08203 9.72266C5.9703 9.72266 7.62635 10.7354 8.53601 12.2461H16.959C18.0844 12.2461 19 11.3305 19 10.2051V2.04102C19 0.9156 18.0844 0 16.959 0ZM2.7832 5.9375C2.47579 5.9375 2.22656 5.68827 2.22656 5.38086V2.7832C2.22656 2.47579 2.47579 2.22656 2.7832 2.22656H6.12305C6.43046 2.22656 6.67969 2.47579 6.67969 2.7832V5.38086C6.67969 5.68827 6.43046 5.9375 6.12305 5.9375H2.7832ZM6.56836 8.90625H5.82617C5.51876 8.90625 5.26953 8.65702 5.26953 8.34961C5.26953 8.0422 5.51876 7.79297 5.82617 7.79297H6.56836C6.87577 7.79297 7.125 8.0422 7.125 8.34961C7.125 8.65702 6.87577 8.90625 6.56836 8.90625ZM9.53711 8.90625H8.79492C8.48751 8.90625 8.23828 8.65702 8.23828 8.34961C8.23828 8.0422 8.48751 7.79297 8.79492 7.79297H9.53711C9.84452 7.79297 10.0938 8.0422 10.0938 8.34961C10.0938 8.65702 9.84452 8.90625 9.53711 8.90625ZM12.5059 8.90625H11.7637C11.4563 8.90625 11.207 8.65702 11.207 8.34961C11.207 8.0422 11.4563 7.79297 11.7637 7.79297H12.5059C12.8133 7.79297 13.0625 8.0422 13.0625 8.34961C13.0625 8.65702 12.8133 8.90625 12.5059 8.90625ZM15.4746 8.90625H14.7324C14.425 8.90625 14.1758 8.65702 14.1758 8.34961C14.1758 8.0422 14.425 7.79297 14.7324 7.79297H15.4746C15.782 7.79297 16.0312 8.0422 16.0312 8.34961C16.0312 8.65702 15.782 8.90625 15.4746 8.90625ZM15.8457 5.56641H12.4316C12.1242 5.56641 11.875 5.31718 11.875 5.00977C11.875 4.70235 12.1242 4.45312 12.4316 4.45312H15.8457C16.1531 4.45312 16.4023 4.70235 16.4023 5.00977C16.4023 5.31718 16.1531 5.56641 15.8457 5.56641ZM15.8457 3.33984H10.9473C10.6399 3.33984 10.3906 3.09062 10.3906 2.7832C10.3906 2.47579 10.6399 2.22656 10.9473 2.22656H15.8457C16.1531 2.22656 16.4023 2.47579 16.4023 2.7832C16.4023 3.09062 16.1531 3.33984 15.8457 3.33984Z" fill="white"/>
<path d="M4.08203 10.8359C1.8276 10.8359 0 12.6635 0 14.918C0 17.1724 1.8276 19 4.08203 19C6.33646 19 8.16406 17.1724 8.16406 14.918C8.16406 12.6635 6.33646 10.8359 4.08203 10.8359ZM6.42389 14.1983L3.82624 16.796C3.60885 17.0133 3.25642 17.0133 3.03904 16.796L1.74021 15.4971C1.52282 15.2797 1.52282 14.9273 1.74021 14.7099C1.95759 14.4925 2.31002 14.4925 2.52741 14.7099L3.43262 15.6151L5.63665 13.4111C5.85404 13.1937 6.20647 13.1937 6.42386 13.4111C6.64124 13.6285 6.64128 13.9809 6.42389 14.1983Z" fill="white"/>
</g>
<defs>
<clipPath id="clip0_324_217">
<rect width="19" height="19" fill="white"/>
</clipPath>
</defs>
</svg>
