<svg width="10" height="2" viewBox="0 0 10 2" fill="none" xmlns="http://www.w3.org/2000/svg">
<path d="M9 2.78181e-08C8.44772 7.61004e-08 8 0.447715 8 1C8 1.55228 8.44772 2 9 2C9.55228 2 10 1.55228 10 1C10 0.447715 9.55228 -2.04641e-08 9 2.78181e-08Z" fill="white" fill-opacity="0.8"/>
<path d="M5 3.77509e-07C4.44771 4.25792e-07 4 0.447716 4 1C4 1.55229 4.44771 2 5 2C5.55228 2 6 1.55229 6 1C6 0.447716 5.55228 3.29227e-07 5 3.77509e-07Z" fill="white" fill-opacity="0.8"/>
<path d="M-3.85446e-07 1C-4.33728e-07 0.447716 0.447715 7.75483e-07 1 7.272e-07C1.55228 6.78918e-07 2 0.447716 2 1C2 1.55229 1.55228 2 1 2C0.447715 2 -3.37164e-07 1.55229 -3.85446e-07 1Z" fill="white" fill-opacity="0.8"/>
</svg>
