<svg width="16" height="16" viewBox="0 0 16 16" fill="none" xmlns="http://www.w3.org/2000/svg">
<path fill-rule="evenodd" clip-rule="evenodd" d="M15.3327 6.00033C15.3327 6.00033 15.3327 6.13234 15.3327 6.17931V12.0005C15.3327 13.4732 14.1388 14.6671 12.666 14.6671H3.33268C1.85992 14.6671 0.666016 13.4732 0.666016 12.0005V6.17931C0.666016 6.06228 0.671996 5.83933 0.671996 5.83933L2.68939 5.80306L7.23473 8.9848C7.69383 9.30617 8.30487 9.30617 8.76397 8.9848L13.3093 5.80306L15.3327 6.00033ZM13.9993 6.94757L9.52858 10.0771C8.6104 10.7198 7.3883 10.7198 6.47012 10.0771L1.99935 6.94757V12.0005C1.99935 12.7368 2.5963 13.3338 3.33268 13.3338H12.666C13.4024 13.3338 13.9993 12.7368 13.9993 12.0005V6.94757Z" fill="#8C8C8C" fill-opacity="0.6"/>
<path fill-rule="evenodd" clip-rule="evenodd" d="M8.37767 2.4042C8.14988 2.24721 7.84881 2.24721 7.62103 2.4042L2.68939 5.80306L0.671996 5.83933C0.671996 5.83933 0.720524 5.66212 0.783756 5.56543C0.837692 5.48296 0.954365 5.37951 0.954365 5.37951L6.8644 1.30635C7.54775 0.835384 8.45095 0.835386 9.1343 1.30635L15.0443 5.37951C15.3327 5.66699 15.3327 6.00033 15.3327 6.00033L13.3093 5.80306L8.37767 2.4042Z" fill="#8C8C8C" fill-opacity="0.6"/>
</svg>
