<svg width="16" height="13" viewBox="0 0 16 13" fill="none" xmlns="http://www.w3.org/2000/svg">
<path d="M2.25469 12C1.46381 10.8662 1 9.48725 1 8C1 6.51275 1.46381 5.13383 2.25469 4C3.51964 2.18652 5.62125 1 8 1C11.866 1 15 4.13401 15 8C15 9.48725 14.5362 10.8662 13.7453 12" stroke="#01BC8D" stroke-width="2"/>
<path d="M13.7445 12C14.5354 10.8662 14.9992 9.48725 14.9992 8C14.9992 4.13401 11.8652 1 7.99922 1C5.62047 1 3.51885 2.18652 2.25391 4" stroke="#F8B200" stroke-width="2"/>
<path d="M13.7461 12C14.537 10.8662 15.0008 9.48725 15.0008 8C15.0008 6.51275 14.537 5.13383 13.7461 4" stroke="#F65454" stroke-width="2"/>
<path d="M8 6C9.10457 6 10 6.89543 10 8C10 9.10457 9.10457 10 8 10C6.89543 10 6 9.10457 6 8C6 6.89543 6.89543 6 8 6ZM8 7C7.44772 7 7 7.44772 7 8C7 8.55228 7.44772 9 8 9C8.55228 9 9 8.55228 9 8C9 7.44772 8.55228 7 8 7Z" fill="#727D8A"/>
<path d="M1 7.99964C1 7.75436 1.16327 7.55036 1.37858 7.50805L1.46154 7.5L6.53846 7.50073C6.79336 7.50073 7 7.72442 7 8.00036C7 8.24564 6.83673 8.44964 6.62142 8.49195L6.53846 8.5L1.46154 8.49927C1.20664 8.49927 1 8.27558 1 7.99964Z" fill="#737E8D"/>
</svg>
