<svg width="14" height="14" viewBox="0 0 14 14" fill="none" xmlns="http://www.w3.org/2000/svg">
<path d="M7.99646 3.55067C7.76866 3.32286 7.39931 3.32286 7.17151 3.55067C6.9437 3.77847 6.9437 4.14782 7.17151 4.37563L8.21736 5.42148H4.37565C4.05349 5.42148 3.79232 5.68265 3.79232 6.00481C3.79232 6.32698 4.05349 6.58815 4.37565 6.58815H8.92151C9.70105 6.58815 10.0914 5.64565 9.54022 5.09443L7.99646 3.55067Z" fill="#01BC8D"/>
<path d="M5.0798 7.3326C4.30026 7.3326 3.90986 8.27509 4.46108 8.82632L6.00484 10.3701C6.23264 10.5979 6.60199 10.5979 6.8298 10.3701C7.0576 10.1423 7.0576 9.77292 6.8298 9.54512L5.78394 8.49926H9.62565C9.94782 8.49926 10.209 8.2381 10.209 7.91593C10.209 7.59376 9.94782 7.3326 9.62565 7.3326H5.0798Z" fill="#01BC8D"/>
<path fill-rule="evenodd" clip-rule="evenodd" d="M7.00065 0.583984C3.45682 0.583984 0.583984 3.45682 0.583984 7.00065C0.583984 10.5445 3.45682 13.4173 7.00065 13.4173C10.5445 13.4173 13.4173 10.5445 13.4173 7.00065C13.4173 3.45682 10.5445 0.583984 7.00065 0.583984ZM1.75065 7.00065C1.75065 4.10116 4.10116 1.75065 7.00065 1.75065C9.90015 1.75065 12.2507 4.10116 12.2507 7.00065C12.2507 9.90015 9.90015 12.2507 7.00065 12.2507C4.10116 12.2507 1.75065 9.90015 1.75065 7.00065Z" fill="#01BC8D"/>
</svg>
