<svg width="200" height="200" viewBox="0 0 200 200" fill="none" xmlns="http://www.w3.org/2000/svg">
<path fill-rule="evenodd" clip-rule="evenodd" d="M125.579 199.268H74.4755C69.6098 199.268 65.6722 195.33 65.6722 190.437V169.933C62.6065 168.414 59.5971 166.699 56.7283 164.758L38.9249 175.024C36.8717 176.177 34.5092 176.486 32.2029 175.924C29.8966 175.277 28.0122 173.843 26.8591 171.818L1.29306 127.492C0.111795 125.467 -0.197585 123.104 0.393049 120.798C1.01181 118.492 2.44621 116.607 4.47124 115.454L22.2465 105.16C22.134 103.529 22.0778 101.813 22.0778 100.013C22.0778 98.2132 22.134 96.4976 22.2465 94.8663L4.44311 84.6005C0.224297 82.1536 -1.2101 76.7254 1.23681 72.5066L26.8028 28.2371C27.9841 26.184 29.8685 24.7215 32.1748 24.0746C34.453 23.4558 36.8436 23.7652 38.8687 24.9746L56.6439 35.2404C59.4846 33.3279 62.494 31.6122 65.5878 30.0934V9.56186C65.5878 4.69616 69.5254 0.730469 74.3911 0.730469H125.495C130.389 0.730469 134.326 4.69616 134.326 9.56186V30.0934C137.505 31.6685 140.458 33.3841 143.27 35.2404L161.046 24.9746C163.071 23.8215 165.489 23.5121 167.739 24.1308C170.018 24.7496 171.93 26.184 173.083 28.2653L198.677 72.5347C201.096 76.7535 199.634 82.1817 195.415 84.6005L177.752 94.8663C177.865 96.6101 177.949 98.3539 177.949 100.013C177.949 101.701 177.865 103.388 177.752 105.16L195.555 115.454C197.581 116.579 199.015 118.492 199.634 120.742C200.281 123.048 199.943 125.439 198.79 127.492L173.224 171.818C170.749 176.036 165.321 177.471 161.158 175.052L143.383 164.786C140.542 166.699 137.533 168.471 134.439 169.989V190.465C134.439 195.33 130.473 199.268 125.579 199.268ZM56.8408 158.767C57.3752 158.767 57.9377 158.936 58.3877 159.274C61.9596 161.777 65.7003 163.971 69.5254 165.714C70.5098 166.164 71.1285 167.121 71.1285 168.217V190.437C71.1285 192.321 72.6473 193.783 74.4755 193.783H125.579C127.464 193.783 128.954 192.265 128.954 190.437V168.217C128.954 167.177 129.573 166.192 130.501 165.771C134.411 163.971 138.123 161.777 141.639 159.33C142.483 158.711 143.664 158.655 144.564 159.217L163.802 170.327C165.405 171.255 167.486 170.721 168.414 169.117L193.98 124.848C194.402 124.061 194.543 123.161 194.29 122.26C194.065 121.417 193.502 120.714 192.743 120.292L173.449 109.154C172.521 108.62 172.014 107.607 172.071 106.538C172.268 104.288 172.408 102.179 172.408 100.126C172.408 98.0726 172.268 95.9351 172.071 93.7413C172.014 92.6725 172.521 91.66 173.449 91.1256L192.743 79.988C194.346 79.0598 194.909 76.9785 193.98 75.3754L168.414 31.1059C167.936 30.3466 167.233 29.784 166.333 29.5028C165.489 29.2778 164.561 29.3903 163.774 29.8684L144.48 40.978C143.552 41.5405 142.398 41.4561 141.527 40.8373C138.151 38.4467 134.411 36.281 130.417 34.4247C129.461 34.0029 128.87 33.0185 128.87 31.9778V9.73061C128.87 7.87433 127.351 6.35556 125.495 6.35556H74.3911C72.5348 6.35556 71.0441 7.87433 71.0441 9.73061V31.9778C71.0441 33.0185 70.4254 34.0029 69.441 34.481C65.5316 36.281 61.7909 38.4186 58.3315 40.8655C57.4596 41.5124 56.2783 41.5405 55.3783 40.978L36.1124 29.8684C35.3248 29.3903 34.4248 29.2778 33.5811 29.5028C32.7092 29.7559 31.9779 30.2903 31.5279 31.0778L5.96189 75.3473C5.03375 76.9504 5.62438 79.0598 7.17128 79.9598L26.4653 91.0694C27.3935 91.6319 27.8997 92.6444 27.8154 93.685C27.6466 95.7382 27.5622 97.8476 27.5622 100.098C27.5622 102.376 27.6466 104.457 27.8154 106.51C27.8997 107.551 27.3935 108.563 26.4653 109.126L7.17128 120.235C6.38377 120.685 5.84938 121.417 5.62438 122.26C5.37125 123.132 5.48375 124.061 5.93376 124.82L31.4998 169.117C31.9217 169.905 32.6811 170.439 33.5248 170.692C34.3967 170.917 35.2967 170.805 36.0561 170.383L55.3502 159.245C55.8845 158.88 56.3627 158.767 56.8408 158.767Z" fill="black"/>
<path fill-rule="evenodd" clip-rule="evenodd" d="M100.014 156.912C68.6543 156.912 43.1445 131.374 43.1445 100.014C43.1445 68.6258 68.6543 43.0879 100.014 43.0879C131.402 43.0879 156.94 68.6258 156.94 100.014C156.94 131.402 131.402 156.912 100.014 156.912ZM100.014 48.5724C71.6637 48.5724 48.6009 71.6352 48.6009 100.014C48.6009 128.364 71.6637 151.427 100.014 151.427C128.393 151.427 151.484 128.364 151.484 100.014C151.484 71.6352 128.393 48.5724 100.014 48.5724Z" fill="black"/>
<path fill-rule="evenodd" clip-rule="evenodd" d="M105.413 121.529C103.866 121.529 102.656 120.319 102.656 118.801V103.529C102.656 102.01 103.866 100.8 105.413 100.8H115.031C119.447 100.8 122.569 99.9285 124.06 98.3816C125.635 96.6659 126.394 94.5846 126.394 92.0815C126.394 90.6752 126.085 89.3533 125.55 88.2002C124.988 87.047 124.285 86.2032 123.441 85.6126C123.441 85.6126 123.385 85.6126 123.385 85.5845C122.513 84.9376 121.332 84.5157 119.897 84.2345C118.997 84.0938 117.394 83.9251 114.666 83.9251H105.441C103.922 83.9251 102.713 82.7157 102.713 81.1969C102.713 79.6781 103.922 78.4688 105.441 78.4688H114.666C117.141 78.4688 119.25 78.5813 120.825 78.8625C123.075 79.2563 124.988 79.9875 126.563 81.0844C128.194 82.2094 129.516 83.7845 130.472 85.7814C131.4 87.6939 131.879 89.8314 131.879 92.0533C131.879 95.9346 130.585 99.2816 128.082 102.01C125.494 104.822 121.135 106.229 115.031 106.229H108.141V118.773C108.141 120.319 106.875 121.529 105.413 121.529Z" fill="black"/>
<path fill-rule="evenodd" clip-rule="evenodd" d="M61.2841 121.528C60.9747 121.528 60.6091 121.444 60.2997 121.331C58.8934 120.797 58.1903 119.222 58.7528 117.815L73.1811 80.268C73.5749 79.1992 74.5874 78.4961 75.7405 78.4961H81.0844C82.1813 78.4961 83.1938 79.1711 83.6157 80.1836L99.0003 117.731C99.5909 119.137 98.8878 120.741 97.5096 121.303C96.1034 121.894 94.5002 121.191 93.9658 119.812L79.2562 83.9806H77.5968L63.8154 119.812C63.4216 120.853 62.381 121.528 61.2841 121.528Z" fill="black"/>
<path fill-rule="evenodd" clip-rule="evenodd" d="M105.413 106.256C103.866 106.256 102.656 105.047 102.656 103.528V81.2524C102.656 79.7055 103.866 78.4961 105.413 78.4961C106.931 78.4961 108.141 79.7055 108.141 81.2524V103.528C108.141 105.047 106.875 106.256 105.413 106.256Z" fill="black"/>
<path fill-rule="evenodd" clip-rule="evenodd" d="M138.742 121.528C137.223 121.528 136.014 120.319 136.014 118.8V81.2524C136.014 79.7055 137.223 78.4961 138.742 78.4961C140.261 78.4961 141.47 79.7055 141.47 81.2524V118.8C141.47 120.319 140.261 121.528 138.742 121.528Z" fill="black"/>
<path fill-rule="evenodd" clip-rule="evenodd" d="M88.7617 102.741H68.5114C66.9926 102.741 65.7832 101.532 65.7832 100.013C65.7832 98.4946 66.9926 97.2852 68.5114 97.2852H88.7617C90.2805 97.2852 91.4899 98.4946 91.4899 100.013C91.4899 101.532 90.2805 102.741 88.7617 102.741Z" fill="black"/>
</svg>
