<svg width="36" height="36" viewBox="0 0 36 36" fill="none" xmlns="http://www.w3.org/2000/svg">
<g clip-path="url(#clip0_0_8556)">
<g clip-path="url(#clip1_0_8556)">
<path d="M26.809 18.6123C26.8427 15.9105 28.2453 13.3542 30.4704 11.9391C29.0667 9.86523 26.7155 8.55037 24.2693 8.47121C21.6602 8.18792 19.1308 10.0862 17.8013 10.0862C16.4461 10.0862 14.399 8.49933 12.1947 8.54625C9.32153 8.64227 6.64298 10.3321 5.2451 12.9305C2.24021 18.3122 4.48159 26.2214 7.36002 30.5715C8.80015 32.7016 10.4833 35.081 12.6856 34.9967C14.8407 34.9041 15.6456 33.5751 18.247 33.5751C20.8243 33.5751 21.5794 34.9966 23.8263 34.943C26.1388 34.9041 27.5959 32.8034 28.9855 30.6531C30.0202 29.1353 30.8164 27.4578 31.3447 25.6828C28.6271 24.4937 26.8121 21.6646 26.809 18.6123Z" fill="black"/>
<path d="M22.5648 5.61019C23.8257 4.04441 24.4468 2.03189 24.2964 0C22.3701 0.209293 20.5907 1.16167 19.3128 2.66735C18.0632 4.13848 17.4128 6.1156 17.5357 8.06984C19.4628 8.09036 21.3573 7.1638 22.5648 5.61019Z" fill="black"/>
</g>
</g>
<defs>
<clipPath id="clip0_0_8556">
<rect width="36" height="36" fill="white"/>
</clipPath>
<clipPath id="clip1_0_8556">
<rect width="28.3636" height="36" fill="white" transform="translate(3.81818)"/>
</clipPath>
</defs>
</svg>
