<svg width="36" height="36" viewBox="0 0 36 36" fill="none" xmlns="http://www.w3.org/2000/svg">
<g clip-path="url(#clip0_0_8563)">
<g clip-path="url(#clip1_0_8563)">
<path d="M3.08596 0.0241615C3.7535 -0.0625085 4.43041 0.0855655 5.0008 0.443033L24.4485 11.4983L19.5267 16.4798L3.08596 0.0241615ZM1.58999 1.52013C1.4962 1.84582 1.45084 2.18354 1.45535 2.52243V33.4292C1.45084 33.7681 1.4962 34.1058 1.58999 34.4315L18.0457 17.9758L1.58999 1.52013ZM19.5417 19.4718L3.08596 35.9275C3.75382 36.022 4.4334 35.8733 5.0008 35.5085L24.4485 24.4533L19.5417 19.4718ZM32.2873 15.9712L26.3932 12.6202L21.0077 17.9758L26.3782 23.3464L32.2724 19.9954C34.2171 18.8883 34.2171 17.0633 32.2724 15.9562L32.2873 15.9712Z" fill="black"/>
</g>
</g>
<defs>
<clipPath id="clip0_0_8563">
<rect width="36" height="36" fill="white"/>
</clipPath>
<clipPath id="clip1_0_8563">
<rect width="33.5172" height="36" fill="white" transform="translate(1.24139)"/>
</clipPath>
</defs>
</svg>
