<svg width="60" height="60" viewBox="0 0 60 60" fill="none" xmlns="http://www.w3.org/2000/svg">
<rect width="58" height="58" rx="29" fill="#8421F3"/>
<path d="M42.4341 37.9377C41.9494 39.0557 41.3756 40.0848 40.7108 41.031C39.8046 42.3208 39.0626 43.2136 38.4908 43.7094C37.6044 44.5232 36.6546 44.94 35.6376 44.9637C34.9075 44.9637 34.027 44.7563 33.0021 44.3355C31.9738 43.9168 31.0289 43.7094 30.1648 43.7094C29.2586 43.7094 28.2867 43.9168 27.2472 44.3355C26.206 44.7563 25.3673 44.9755 24.726 44.9973C23.7508 45.0387 22.7787 44.6101 21.8084 43.7094C21.1891 43.1702 20.4145 42.2457 19.4865 40.9361C18.4909 39.5377 17.6723 37.916 17.031 36.0672C16.3443 34.0702 16 32.1364 16 30.2643C16 28.1197 16.4642 26.2701 17.3939 24.7201C18.1246 23.4751 19.0967 22.493 20.3134 21.7721C21.53 21.0511 22.8446 20.6837 24.2603 20.6602C25.0349 20.6602 26.0507 20.8994 27.3131 21.3695C28.5718 21.8412 29.3801 22.0804 29.7345 22.0804C29.9994 22.0804 30.8973 21.8007 32.4194 21.2431C33.8589 20.726 35.0737 20.5119 36.069 20.5962C38.7658 20.8135 40.7919 21.8748 42.1393 23.7868C39.7274 25.2458 38.5343 27.2892 38.558 29.9105C38.5798 31.9523 39.3218 33.6514 40.78 35.0005C41.4409 35.6267 42.1789 36.1106 43 36.4543C42.8219 36.9698 42.634 37.4637 42.4341 37.9377ZM36.249 13.6402C36.249 15.2405 35.6633 16.7348 34.496 18.1179C33.0872 19.7621 31.3832 20.7122 29.5354 20.5622C29.5119 20.3702 29.4982 20.1682 29.4982 19.9558C29.4982 18.4195 30.1682 16.7753 31.3579 15.4309C31.9519 14.7503 32.7073 14.1843 33.6234 13.7328C34.5375 13.2881 35.4022 13.0421 36.2154 13C36.2391 13.2139 36.249 13.4279 36.249 13.6402Z" fill="white"/>
</svg>
