<svg width="27" height="32" viewBox="0 0 27 32" fill="none" xmlns="http://www.w3.org/2000/svg">
<path d="M26.4341 24.9377C25.9494 26.0557 25.3756 27.0848 24.7108 28.031C23.8046 29.3208 23.0626 30.2136 22.4908 30.7094C21.6044 31.5232 20.6546 31.94 19.6376 31.9637C18.9075 31.9637 18.027 31.7563 17.0021 31.3355C15.9738 30.9168 15.0289 30.7094 14.1648 30.7094C13.2586 30.7094 12.2867 30.9168 11.2472 31.3355C10.206 31.7563 9.36729 31.9755 8.72603 31.9973C7.75078 32.0387 6.77869 31.6101 5.80838 30.7094C5.18908 30.1702 4.41446 29.2457 3.48649 27.9361C2.49086 26.5377 1.67231 24.916 1.03105 23.0672C0.344277 21.0702 0 19.1364 0 17.2643C0 15.1197 0.46418 13.2701 1.39393 11.7201C2.12462 10.4751 3.09671 9.49305 4.31335 8.77208C5.52999 8.05112 6.84458 7.68372 8.26027 7.66022C9.03489 7.66022 10.0507 7.89942 11.3131 8.36953C12.5718 8.84122 13.3801 9.08042 13.7345 9.08042C13.9994 9.08042 14.8973 8.80072 16.4194 8.24311C17.8589 7.72599 19.0737 7.51188 20.069 7.59622C22.7658 7.8135 24.7919 8.8748 26.1393 10.7868C23.7274 12.2458 22.5343 14.2892 22.558 16.9105C22.5798 18.9523 23.3218 20.6514 24.78 22.0005C25.4409 22.6267 26.1789 23.1106 27 23.4543C26.8219 23.9698 26.634 24.4637 26.4341 24.9377ZM20.249 0.640182C20.249 2.24055 19.6633 3.7348 18.496 5.11787C17.0872 6.76207 15.3832 7.71216 13.5354 7.56224C13.5119 7.37025 13.4982 7.16818 13.4982 6.95584C13.4982 5.41949 14.1682 3.7753 15.3579 2.43094C15.9519 1.75027 16.7073 1.1843 17.6234 0.732821C18.5375 0.288073 19.4022 0.0421187 20.2154 0C20.2391 0.213944 20.249 0.427922 20.249 0.640182Z" fill="white"/>
</svg>
