<svg width="27" height="21" viewBox="0 0 27 21" fill="none" xmlns="http://www.w3.org/2000/svg">
<path d="M26.0294 10.0806C26.0298 10.2123 26.0042 10.3426 25.954 10.4643C25.9039 10.586 25.8303 10.6966 25.7373 10.7898L16.7108 19.7632C16.5219 19.951 16.2662 20.056 15.9999 20.0552C15.7336 20.0544 15.4786 19.9479 15.2908 19.759C15.1031 19.5702 14.998 19.3145 14.9988 19.0482C14.9996 18.7819 15.1061 18.5268 15.295 18.339L23.6194 10.0735L15.3439 1.7591C15.2509 1.66559 15.1773 1.55468 15.1272 1.43271C15.0771 1.31074 15.0515 1.1801 15.0519 1.04824C15.0523 0.916379 15.0786 0.785889 15.1294 0.664216C15.1803 0.542543 15.2546 0.432072 15.3481 0.339109C15.4416 0.246145 15.5525 0.17251 15.6745 0.122409C15.7964 0.0723083 15.9271 0.0467225 16.0589 0.0471113C16.1908 0.0475 16.3213 0.0738559 16.443 0.124675C16.5646 0.175494 16.6751 0.249783 16.7681 0.343296L25.7415 9.36979C25.8339 9.46351 25.9069 9.57454 25.9563 9.69652C26.0057 9.8185 26.0305 9.94904 26.0294 10.0806Z" fill="white"/>
<path d="M26.0294 10.0806C26.0287 10.3458 25.9226 10.5998 25.7345 10.7868C25.5464 10.9738 25.2917 11.0784 25.0265 11.0776L1.02661 11.0069C0.761392 11.0061 0.507349 10.9 0.320367 10.7119C0.133384 10.5238 0.0287779 10.2691 0.0295599 10.0039C0.0303419 9.7387 0.136448 9.48465 0.324537 9.29767C0.512625 9.11069 0.767289 9.00608 1.0325 9.00686L25.0324 9.07763C25.2976 9.07841 25.5517 9.18452 25.7386 9.37261C25.9256 9.56069 26.0302 9.81536 26.0294 10.0806Z" fill="white"/>
</svg>
