<svg width="120" height="120" viewBox="0 0 120 120" fill="none" xmlns="http://www.w3.org/2000/svg">
<path opacity="0.07" d="M60.0009 111.641C88.5217 111.641 111.642 88.5207 111.642 59.9999C111.642 31.4791 88.5217 8.3584 60.0009 8.3584C31.48 8.3584 8.35938 31.4791 8.35938 59.9999C8.35938 88.5207 31.48 111.641 60.0009 111.641Z" fill="#653DFF"/>
<path d="M60 0C26.8626 0 0 26.8626 0 60C0 93.1374 26.8626 120 60 120C93.1374 120 120 93.1374 120 60C120 26.8626 93.1374 0 60 0ZM60 115.983C29.0819 115.983 4.01728 90.9181 4.01728 60C4.01728 29.0819 29.0819 4.01728 60 4.01728C90.9181 4.01728 115.983 29.0819 115.983 60C115.983 90.9181 90.9181 115.983 60 115.983Z" fill="#454C5B"/>
<path opacity="0.07" d="M60.0009 111.641C88.5217 111.641 111.642 88.5207 111.642 59.9999C111.642 31.4791 88.5217 8.3584 60.0009 8.3584C31.48 8.3584 8.35938 31.4791 8.35938 59.9999C8.35938 88.5207 31.48 111.641 60.0009 111.641Z" fill="#C5C5C5"/>
<path d="M60.0009 111.641C88.5217 111.641 111.642 88.5207 111.642 59.9999C111.642 31.4791 88.5217 8.3584 60.0009 8.3584C31.48 8.3584 8.35938 31.4791 8.35938 59.9999C8.35938 88.5207 31.48 111.641 60.0009 111.641Z" fill="#454C5B"/>
<g clip-path="url(#clip0_356_139)">
<path d="M59.9971 97C39.561 96.9968 22.997 80.4277 23 59.9916C23.0014 50.1811 26.8987 40.7729 33.835 33.8351C48.287 19.3861 71.7159 19.3886 86.1648 33.8406C93.1011 40.7784 96.9984 50.1867 96.9999 59.9971C97.0137 65.4752 95.8003 70.8869 93.4485 75.8346C93.1001 76.5528 92.2355 76.8529 91.5172 76.5045C90.8077 76.1605 90.5049 75.3112 90.8366 74.5958C93.004 70.0351 94.1222 65.0467 94.109 59.9971C94.109 41.1878 78.8064 25.8852 59.9971 25.8852C41.1879 25.8852 25.8852 41.1878 25.8852 59.9971C25.8852 78.8063 41.1879 94.109 59.9971 94.109C66.4969 94.1172 72.8626 92.2612 78.3395 88.7609C79.0058 88.3213 79.9023 88.505 80.342 89.1713C80.7817 89.8376 80.598 90.7341 79.9316 91.1738C79.9199 91.1814 79.9081 91.1891 79.8962 91.1965C73.9547 94.9942 67.0487 97.0082 59.9971 97Z" fill="white"/>
<path d="M60.3359 90.3407C43.6037 90.3407 29.9922 76.7292 29.9922 59.997C29.9922 43.2648 43.6037 29.6533 60.3359 29.6533C77.0681 29.6533 90.6781 43.2648 90.6781 59.997C90.6777 64.9555 89.465 69.8387 87.1455 74.2214C86.7699 74.9263 85.8941 75.1933 85.1892 74.8176C84.4842 74.442 84.2173 73.5662 84.5929 72.8613C86.6902 68.8976 87.7869 64.4813 87.7873 59.997C87.7873 44.8591 75.4723 32.5442 60.3359 32.5442C45.1994 32.5442 32.883 44.8591 32.883 59.997C32.883 75.1349 45.198 87.4499 60.3359 87.4499C65.6714 87.4578 70.8927 85.9037 75.3552 82.9792C76.0226 82.5401 76.9195 82.7252 77.3586 83.3926C77.7977 84.0599 77.6126 84.9568 76.9452 85.3959C72.0108 88.6314 66.2365 90.3504 60.3359 90.3407Z" fill="white"/>
<path d="M63.1144 82.4869C53.712 82.4749 46.0928 74.8563 46.0801 65.454V51.4233C46.0801 43.7375 52.3107 37.5068 59.9966 37.5068C67.6825 37.5068 73.9131 43.7375 73.9131 51.4233V65.454C73.9126 71.418 69.0777 76.2525 63.1136 76.252C57.1501 76.2516 52.3159 71.4174 52.3156 65.454V51.4233C52.3156 47.1813 55.7546 43.7424 59.9966 43.7424C64.2386 43.7424 67.6775 47.1813 67.6775 51.4233V65.454C67.6775 67.9743 65.6346 70.0172 63.1144 70.0172C60.5941 70.0172 58.5512 67.9743 58.5512 65.454V52.9829C58.5522 52.1846 59.2002 51.5384 59.9983 51.5393C60.7952 51.5403 61.441 52.1859 61.442 52.9829V65.454C61.442 66.3777 62.1907 67.1264 63.1144 67.1264C64.038 67.1264 64.7867 66.3777 64.7867 65.454V51.4233C64.7867 48.7778 62.6421 46.6332 59.9966 46.6332C57.351 46.6332 55.2065 48.7778 55.2065 51.4233V65.454C55.2065 69.8215 58.747 73.3619 63.1144 73.3619C67.4818 73.3619 71.0222 69.8214 71.0222 65.454V51.4233C71.0222 45.3341 66.0858 40.3977 59.9966 40.3977C53.9073 40.3977 48.9709 45.3341 48.9709 51.4233V65.454C48.9836 73.2597 55.3087 79.584 63.1144 79.596C63.9127 79.596 64.5598 80.2431 64.5598 81.0414C64.5598 81.8397 63.9127 82.4869 63.1144 82.4869Z" fill="#F3BB2B"/>
<path d="M85.3943 96.9997C85.1407 96.9994 84.8915 96.9326 84.6716 96.806C81.5586 95.015 78.9291 92.4923 77.0109 89.4561C74.9106 86.1234 73.7938 82.2655 73.7891 78.3263V76.1249C73.7892 75.4703 74.2292 74.8975 74.8616 74.7287L85.0214 72.0185C85.2653 71.9535 85.522 71.9535 85.7658 72.0185L95.9257 74.7287C96.558 74.8975 96.998 75.4703 96.9982 76.1249V78.3263C96.9934 82.2655 95.8767 86.1234 93.7763 89.4561C91.8583 92.4924 89.2287 95.0153 86.1156 96.806C85.8963 96.9326 85.6476 96.9994 85.3943 96.9997ZM76.6813 77.235V78.3263C76.6864 81.7219 77.6499 85.0472 79.4609 87.9196C80.9724 90.3151 82.9964 92.3454 85.3871 93.8646C87.7812 92.3468 89.8082 90.3162 91.322 87.9196C93.1356 85.048 94.1015 81.7226 94.1088 78.3263V77.235L85.3943 74.9122L76.6813 77.235Z" fill="white"/>
<path d="M83.7958 88.5923C83.4125 88.5921 83.0449 88.4398 82.7739 88.1688L79.7906 85.184C79.2359 84.6099 79.2518 83.6948 79.826 83.1402C80.3861 82.5991 81.2743 82.5991 81.8344 83.1402L83.7958 85.103L88.956 79.9429C89.5301 79.3883 90.4452 79.4042 90.9998 79.9783C91.5408 80.5384 91.5408 81.4266 90.9998 81.9867L84.8177 88.1688C84.5467 88.4398 84.1791 88.5921 83.7958 88.5923Z" fill="#F3BB2B"/>
</g>
<defs>
<clipPath id="clip0_356_139">
<rect width="74" height="74" fill="white" transform="translate(23 23)"/>
</clipPath>
</defs>
</svg>
