<svg width="78" height="77" viewBox="0 0 78 77" fill="none" xmlns="http://www.w3.org/2000/svg">
<path d="M39.0025 76.0544C60.3909 76.0544 77.7296 66.0438 77.7296 53.6952C77.7296 41.3465 60.3909 31.3359 39.0025 31.3359C17.6141 31.3359 0.275391 41.3465 0.275391 53.6952C0.275391 66.0438 17.6141 76.0544 39.0025 76.0544Z" fill="#231533" fill-opacity="0.8"/>
<path opacity="0.5" d="M61.2444 61.4533C58.7048 59.9872 58.7048 57.61 61.2444 56.1438C63.7839 54.6776 67.9011 54.6776 70.4406 56.1438C72.9801 57.61 72.9801 59.9872 70.4406 61.4533C67.9011 62.9195 63.7839 62.9195 61.2444 61.4533Z" fill="#E0E0E0"/>
<path d="M9.59174 61.6568L2.9117 57.8C2.53513 57.5826 2.53513 57.23 2.9117 57.0125L41.7672 34.5794C42.1438 34.3619 42.7544 34.3619 43.131 34.5794L49.8113 38.436C50.1879 38.6535 50.1879 39.006 49.8113 39.2233L10.9555 61.6568C10.579 61.8743 9.96831 61.8743 9.59174 61.6568Z" fill="#E0E0E0"/>
<path d="M33.6031 54.7831L39.3457 51.4627C39.9376 51.121 40.2337 50.673 40.2337 50.2251C40.2337 49.7772 40.2361 49.4263 40.2361 49.4263L34.2778 46.0665C33.9621 45.8843 33.7062 45.4409 33.7062 45.0764V37.9961L23.6757 43.7921L23.6754 50.8723C23.6754 51.2368 23.9313 51.6801 24.2471 51.8624L29.3156 54.783C30.4996 55.4668 32.4191 55.4666 33.6031 54.7831Z" fill="#DADADA"/>
<g opacity="0.6">
<path d="M33.6031 54.7831L39.3457 51.4627C39.9376 51.121 40.2337 50.673 40.2337 50.2251C40.2337 49.7772 40.2361 49.4263 40.2361 49.4263L34.2778 46.0665C33.9621 45.8843 33.7062 45.4409 33.7062 45.0764V37.9961L23.6757 43.7921L23.6754 50.8723C23.6754 51.2368 23.9313 51.6801 24.2471 51.8624L29.3156 54.783C30.4996 55.4668 32.4191 55.4666 33.6031 54.7831Z" fill="black"/>
</g>
<path opacity="0.3" d="M26.084 52.1262V52.9216L24.2457 51.8622C23.9321 51.6808 23.6747 51.2385 23.6747 50.8721V43.7926L25.5857 42.6902C25.6253 43.1754 25.6682 43.6771 25.7078 44.1656L24.3678 44.9412V50.4728C24.3678 50.8392 24.622 51.2814 24.9389 51.463L26.084 52.1262Z" fill="black"/>
<path d="M24.3676 50.474C24.3676 50.8385 24.6235 51.2818 24.9392 51.4641L29.3151 53.9848C30.4991 54.6682 32.4188 54.6685 33.6027 53.9853L39.3483 50.6651C40.5325 49.9818 40.5326 48.8738 39.3487 48.1902L34.97 45.6679C34.6542 45.4856 34.3983 45.0423 34.3983 44.6777L34.3981 39.1455L24.3676 44.9416V50.474Z" fill="#DADADA"/>
<path opacity="0.3" d="M24.3676 50.474C24.3676 50.8385 24.6235 51.2818 24.9392 51.4641L29.3151 53.9848C30.4991 54.6682 32.4188 54.6685 33.6027 53.9853L39.3483 50.6651C40.5325 49.9818 40.5326 48.8738 39.3487 48.1902L34.97 45.6679C34.6542 45.4856 34.3983 45.0423 34.3983 44.6777L34.3981 39.1455L24.3676 44.9416V50.474Z" fill="black"/>
<path opacity="0.5" d="M36.1341 46.341V46.3402L34.9697 45.6679C34.654 45.4856 34.398 45.0423 34.398 44.6777V39.1455L24.3673 44.9416V50.4741C24.3673 50.8387 24.6232 51.282 24.939 51.4643L26.0832 52.1249L36.1341 46.341Z" fill="black"/>
<path d="M40.2353 49.427C40.2353 49.427 40.2353 49.7768 40.2353 50.2257C40.2353 50.6746 39.9382 51.12 39.3475 51.4634L33.6039 54.7819C33.0361 55.1119 32.3002 55.277 31.5576 55.2901V54.4947C32.3002 54.4849 33.0361 54.3133 33.6039 53.9865L39.3475 50.6645C39.9381 50.3246 40.2353 49.8759 40.2353 49.427Z" fill="#DADADA"/>
<path opacity="0.5" d="M40.2353 49.427C40.2353 49.427 40.2353 49.7768 40.2353 50.2257C40.2353 50.6746 39.9382 51.12 39.3475 51.4634L33.6039 54.7819C33.0361 55.1119 32.3002 55.277 31.5576 55.2901V54.4947C32.3002 54.4849 33.0361 54.3133 33.6039 53.9865L39.3475 50.6645C39.9381 50.3246 40.2353 49.8759 40.2353 49.427Z" fill="black"/>
<path d="M8.26235 57.3504C8.63251 57.5641 9.25268 57.5526 9.64734 57.3248C14.5786 54.4777 43.5078 37.7758 48.4384 34.9292C48.833 34.7014 49.1527 34.1473 49.1527 33.6917V2.31097C49.1527 1.85533 48.8526 1.31258 48.4824 1.09889C48.1123 0.885212 47.4923 0.896554 47.0976 1.12454L8.30706 23.5201C7.9124 23.7479 7.59253 24.302 7.59253 24.7578L7.59204 56.1384C7.59204 56.594 7.89202 57.1366 8.26235 57.3504Z" fill="#DADADA"/>
<path d="M9.64726 57.324L48.4382 34.9286C48.8328 34.7008 49.1527 34.1467 49.1527 33.6909V2.31019C49.1527 1.85455 48.8328 1.6698 48.4382 1.89761L9.64775 24.2932C9.2531 24.521 8.93323 25.0751 8.93323 25.5309L8.93274 56.9114C8.93274 57.3671 9.25277 57.5518 9.64726 57.324Z" fill="#DADADA"/>
<path opacity="0.5" d="M9.64726 57.324L48.4382 34.9286C48.8328 34.7008 49.1527 34.1467 49.1527 33.6909V2.31019C49.1527 1.85455 48.8328 1.6698 48.4382 1.89761L9.64775 24.2932C9.2531 24.521 8.93323 25.0751 8.93323 25.5309L8.93274 56.9114C8.93274 57.3671 9.25277 57.5518 9.64726 57.324Z" fill="black"/>
<path d="M9.5421 58.1395C9.14613 58.3144 8.59828 58.3078 8.26165 58.1131C7.89198 57.8986 7.59167 57.3573 7.59167 56.8985V54.0413L8.93163 54.8169V57.6742C8.93163 58.09 9.19561 58.2781 9.5421 58.1395Z" fill="#DADADA"/>
<path opacity="0.5" d="M9.5421 58.1395C9.14613 58.3144 8.59828 58.3078 8.26165 58.1131C7.89198 57.8986 7.59167 57.3573 7.59167 56.8985V54.0413L8.93163 54.8169V57.6742C8.93163 58.09 9.19561 58.2781 9.5421 58.1395Z" fill="black"/>
<path d="M8.93164 54.8169L8.93279 57.6732C8.93279 58.1289 9.25282 58.3136 9.64731 58.0858L48.4382 35.6904C48.8329 35.4626 49.1527 34.9085 49.1527 34.4527V31.5903L8.93164 54.8169Z" fill="#DADADA"/>
<path opacity="0.3" d="M8.93274 54.811V57.6732C8.93274 58.1289 9.25277 58.3136 9.64726 58.0858L48.4382 35.6904C48.8328 35.4626 49.1527 34.9085 49.1527 34.4527V31.5903L8.93274 54.811Z" fill="black"/>
<path d="M10.2731 51.2322L10.2734 25.9758C10.2734 25.7025 10.4654 25.3699 10.7021 25.2332L47.3826 4.05563C47.6195 3.91888 47.8113 4.02983 47.8113 4.30318L47.8124 29.5603C47.8124 29.8336 47.6205 30.1661 47.3838 30.3029L10.7019 51.4798C10.4651 51.6165 10.2731 51.5056 10.2731 51.2322Z" fill="#DADADA"/>
<path d="M10.2731 51.2322L10.2734 25.9758C10.2734 25.7025 10.4654 25.3699 10.7021 25.2332L47.3826 4.05563C47.6195 3.91888 47.8113 4.02983 47.8113 4.30318L47.8124 29.5603C47.8124 29.8336 47.6205 30.1661 47.3838 30.3029L10.7019 51.4798C10.4651 51.6165 10.2731 51.5056 10.2731 51.2322Z" fill="#9AD954"/>
<path d="M29.0423 44.1125C28.672 44.3264 28.3718 44.8463 28.3718 45.2738C28.3718 45.7013 28.6721 45.8746 29.0425 45.6607C29.4128 45.4469 29.7129 44.927 29.7129 44.4994C29.7128 44.0721 29.4126 43.8988 29.0423 44.1125Z" fill="#DADADA"/>
<path opacity="0.7" d="M9.14284 24.824C9.01414 25.0483 8.93491 25.3025 8.93163 25.5303V54.8171L7.59167 54.0414L7.5925 24.7579C7.5925 24.5302 7.67419 24.2761 7.80289 24.0518L9.14284 24.824Z" fill="black"/>
<path opacity="0.3" d="M49.1454 2.19272C49.0948 1.82437 48.7973 1.6909 48.4375 1.89702L9.64776 24.2939C9.45167 24.4071 9.27431 24.5998 9.14248 24.8245L7.80237 24.0506C7.93255 23.8292 8.10991 23.6333 8.30764 23.52L47.0974 1.12481C47.4929 0.896658 48.1112 0.884823 48.483 1.09949C48.821 1.29378 49.0998 1.76519 49.1454 2.19272Z" fill="black"/>
<path d="M51.239 6.0542C51.1456 5.99815 51.0182 6.00012 50.8745 6.08313L14.2711 27.2189C13.9945 27.3787 13.7703 27.7666 13.7703 28.086L13.7706 53.1886C13.7706 53.3832 13.8539 53.5551 13.9816 53.6237C14.0635 53.6677 14.4937 53.9179 14.6214 53.9866C14.7032 54.0306 14.8033 54.0321 14.9115 53.9698L51.5136 32.8256C51.7904 32.6664 52.0148 32.2784 52.0148 31.9591V6.73486C52.0148 6.57016 51.9551 6.45609 51.8596 6.40595C51.7697 6.35894 51.3312 6.10943 51.239 6.0542Z" fill="#DADADA"/>
<path d="M14.7461 53.9361C14.6063 53.9361 14.4927 53.7635 14.4927 53.5514V28.4489C14.4927 28.1612 14.7031 27.7966 14.9523 27.6526L51.5552 6.51684C51.6203 6.4792 51.6833 6.45947 51.7377 6.45947C51.8598 6.45947 51.9326 6.56237 51.9326 6.73479V31.9592C51.9326 32.2468 51.722 32.6111 51.4727 32.7544L14.8704 53.8986C14.8273 53.9234 14.7856 53.9361 14.7461 53.9361Z" fill="#FAFAFA"/>
<path d="M51.7379 6.54181C51.8358 6.54181 51.8504 6.66279 51.8504 6.73495V31.9593C51.8504 32.2212 51.6586 32.5527 51.4315 32.6835L14.8297 53.8276C14.7991 53.8451 14.771 53.854 14.7462 53.854C14.6548 53.854 14.5747 53.7127 14.5747 53.5516V28.449C14.5747 28.187 14.7664 27.8551 14.9932 27.7241L51.5963 6.58817C51.6627 6.54987 51.7099 6.54181 51.7379 6.54181ZM51.7379 6.37744C51.6706 6.37744 51.5945 6.39947 51.5141 6.44582L14.9112 27.5818C14.6347 27.7414 14.4105 28.1298 14.4105 28.449V53.5516C14.4105 53.8041 14.5507 54.0184 14.7463 54.0184C14.7981 54.0184 14.8538 54.0034 14.9117 53.9701L51.5138 32.8259C51.7906 32.6666 52.015 32.2787 52.015 31.9593V6.73495C52.015 6.50845 51.9021 6.37744 51.7379 6.37744Z" fill="#E0E0E0"/>
<path d="M13.9809 53.6234C14.0352 53.6521 14.4246 53.8742 14.5952 53.9713C14.4801 53.8893 14.4195 53.7485 14.4109 53.5509V30.0868L13.7699 29.7117V53.1886C13.7699 53.3824 13.8534 53.5556 13.9809 53.6234Z" fill="#F0F0F0"/>
<path d="M52.0147 6.73108C52.0127 6.41483 51.7896 6.28678 51.5143 6.44573L14.9112 27.5817C14.6347 27.7413 14.4105 28.1297 14.4105 28.4489L14.411 30.0869L52.0147 8.37446V6.73108Z" fill="#DADADA"/>
<g opacity="0.4">
<path d="M51.5139 6.44569L14.9116 27.5815C14.7745 27.6619 14.6486 27.7973 14.5589 27.9531L13.9226 27.5846C14.0124 27.4303 14.1356 27.2962 14.2709 27.2189L50.8745 6.08309C51.0178 5.99959 51.1454 5.99828 51.2384 6.0535C51.3282 6.10857 51.744 6.34493 51.8496 6.40148C51.7611 6.35907 51.6431 6.37173 51.5139 6.44569Z" fill="white"/>
</g>
<path opacity="0.15" d="M13.7699 29.7134L13.7702 28.0853C13.7702 27.9231 13.8297 27.7436 13.9226 27.5845L14.5604 27.9513C14.4675 28.1088 14.4108 28.2868 14.4108 28.4489V30.0865L13.7699 29.7134Z" fill="black"/>
<path d="M44.2955 25.6533L22.3727 38.3103C22.1707 38.427 22.0068 38.7108 22.0068 38.944V45.2289C22.0068 45.4621 22.1707 45.7457 22.3731 45.862L23.0136 46.2306C23.2158 46.3469 23.5435 46.3466 23.7456 46.2301L45.6654 33.5746C45.8674 33.4579 46.0313 33.1742 46.0315 32.941L46.0341 26.6543C46.0343 26.4211 45.8704 26.1375 45.668 26.0211L45.0277 25.6526C44.8253 25.5364 44.4976 25.5367 44.2955 25.6533Z" fill="#DADADA"/>
<path opacity="0.5" d="M46.0312 26.5951C46.0059 26.4059 45.852 26.3365 45.6679 26.443L23.746 39.0998C23.6445 39.1573 23.5533 39.2585 23.4874 39.3734L22.1152 38.5808C22.1811 38.4676 22.2724 38.368 22.3721 38.3105L44.2958 25.6537C44.497 25.5372 44.8247 25.5354 45.0276 25.6521L45.6679 26.0204C45.8537 26.1269 46.0075 26.3755 46.0312 26.5951Z" fill="white"/>
<path d="M23.6835 46.2592C23.4806 46.3454 23.1968 46.3353 23.0143 46.2305L22.3739 45.8621C22.1711 45.7456 22.0072 45.4617 22.0072 45.2285V38.9441C22.0072 38.8257 22.0494 38.6957 22.1154 38.5808L23.4875 39.3734C23.42 39.4883 23.3794 39.6167 23.3794 39.7334V46.0194C23.3792 46.2288 23.511 46.3251 23.6835 46.2592Z" fill="#263238"/>
<path d="M23.7454 39.1003L45.6682 26.443C45.8702 26.3263 46.0339 26.421 46.0339 26.6543L46.0313 32.941C46.0311 33.1742 45.8673 33.4579 45.6653 33.5746L23.7454 46.23C23.5434 46.3467 23.3795 46.252 23.3795 46.0188V39.7339C23.3797 39.5005 23.5434 39.2168 23.7454 39.1003Z" fill="#DADADA"/>
<path d="M38.484 29.0088L22.3719 38.3104C22.2723 38.3679 22.1811 38.4675 22.115 38.5808L23.4872 39.3734C23.5531 39.2585 23.6443 39.1571 23.7457 39.0997L39.8536 29.7997L38.484 29.0088Z" fill="#455A64"/>
<path d="M39.8538 29.8L23.7454 39.1002C23.5434 39.2169 23.3795 39.5006 23.3795 39.7338V46.0187C23.3795 46.2519 23.5432 46.3466 23.7454 46.2299L39.8538 36.9298V29.8Z" fill="#8A2AE3"/>
<path d="M27.4606 38.3345L35.7723 33.5355C36.117 33.3365 36.3963 33.4778 36.3963 33.8513C36.3963 34.2246 36.1168 34.6886 35.7722 34.8876L27.4611 39.6861C27.1164 39.8852 26.8368 39.7438 26.8368 39.3707C26.8366 38.9974 27.1159 38.5336 27.4606 38.3345Z" fill="#DADADA"/>
<path d="M29.1638 39.9229C29.1732 39.9175 29.1814 39.9189 29.1881 39.9272C29.195 39.9354 29.1985 39.9477 29.1985 39.9645V40.9006C29.1985 40.9949 29.1908 41.0843 29.1752 41.1695C29.16 41.2543 29.1369 41.3332 29.1058 41.4058C29.0751 41.4785 29.0364 41.5428 28.9904 41.5993C28.9441 41.6555 28.8906 41.7012 28.8298 41.7362C28.7682 41.7719 28.7143 41.788 28.6686 41.785C28.6227 41.7818 28.5844 41.7615 28.5537 41.7247C28.5228 41.6877 28.4999 41.6353 28.4848 41.5679C28.47 41.5005 28.4623 41.4196 28.4623 41.3253V40.3894C28.4623 40.3726 28.4657 40.3563 28.4726 40.3402C28.4794 40.3241 28.4874 40.3131 28.497 40.3078L28.6012 40.2477C28.6105 40.2421 28.6186 40.2436 28.6257 40.2518C28.6324 40.26 28.6359 40.2723 28.6359 40.2891V41.2137C28.6359 41.2761 28.6406 41.3266 28.65 41.3652C28.6592 41.4042 28.6727 41.4326 28.6896 41.4507C28.7067 41.4691 28.7274 41.4778 28.7514 41.477C28.7754 41.476 28.8015 41.4673 28.8298 41.451C28.8581 41.4348 28.8842 41.4131 28.9087 41.386C28.9332 41.3588 28.9539 41.3266 28.9712 41.2883C28.9883 41.2503 29.0017 41.2065 29.0116 41.1567C29.0215 41.1069 29.0262 41.0506 29.0262 40.9883V40.0639C29.0262 40.0471 29.0297 40.0309 29.0364 40.0148C29.0433 39.9987 29.0514 39.9876 29.0611 39.9822L29.1638 39.9229Z" fill="#FAFAFA"/>
<path d="M29.8085 40.8083C29.8085 40.7919 29.8055 40.7797 29.7995 40.7725C29.7935 40.7652 29.783 40.7615 29.7681 40.761C29.7531 40.7605 29.7331 40.7628 29.7084 40.768C29.6834 40.7733 29.6519 40.7794 29.6134 40.7864C29.5756 40.793 29.5445 40.7917 29.5197 40.7835C29.4947 40.7749 29.475 40.7597 29.46 40.738C29.4451 40.7161 29.4346 40.6878 29.4285 40.6522C29.4226 40.6168 29.4196 40.5764 29.4196 40.5309C29.4196 40.4852 29.4255 40.4368 29.4375 40.3855C29.4495 40.3346 29.4668 40.2854 29.4895 40.2381C29.5123 40.1908 29.5398 40.147 29.5723 40.1069C29.6048 40.067 29.6422 40.0348 29.6841 40.0106C29.726 39.9865 29.7635 39.973 29.7965 39.971C29.8295 39.9685 29.8575 39.9745 29.8807 39.9884C29.9037 40.0026 29.9216 40.0238 29.9344 40.0522C29.9472 40.0806 29.9545 40.1124 29.9563 40.1479C29.9571 40.1641 29.9538 40.1806 29.9466 40.1968C29.9393 40.2131 29.931 40.2241 29.9214 40.2294L29.8226 40.2864C29.81 40.2938 29.8001 40.2953 29.7937 40.2907C29.7873 40.2861 29.7804 40.2805 29.7727 40.2743C29.7649 40.2684 29.7548 40.2647 29.7418 40.2637C29.7291 40.2628 29.7097 40.2697 29.6841 40.2845C29.6583 40.2992 29.6358 40.3191 29.616 40.3441C29.5963 40.3693 29.5863 40.3994 29.5863 40.4344C29.5863 40.451 29.5887 40.4636 29.5935 40.4725C29.5981 40.481 29.607 40.4863 29.6203 40.4876C29.6336 40.4893 29.6522 40.4879 29.6757 40.4843C29.6992 40.4807 29.7296 40.4748 29.7674 40.4669C29.8435 40.4518 29.8973 40.4659 29.9285 40.5095C29.9597 40.553 29.9755 40.6208 29.9755 40.7118C29.9755 40.7577 29.9691 40.8057 29.9563 40.8565C29.9435 40.9073 29.9247 40.9567 29.9004 41.0052C29.8759 41.0535 29.8461 41.0983 29.8105 41.1394C29.775 41.1804 29.7349 41.2138 29.6905 41.2393C29.645 41.2656 29.6052 41.2791 29.5703 41.2801C29.5356 41.281 29.5062 41.2733 29.4826 41.2565C29.4584 41.2401 29.4402 41.2164 29.4273 41.1857C29.4145 41.1551 29.4076 41.1219 29.4066 41.0859C29.4058 41.0697 29.4091 41.0532 29.4163 41.0369C29.4235 41.0207 29.4318 41.0097 29.4413 41.0041L29.5403 40.947C29.5531 40.9398 29.5626 40.9395 29.5692 40.9464C29.5754 40.9534 29.5828 40.9612 29.5909 40.9704C29.5989 40.9794 29.6103 40.985 29.6249 40.9873C29.6394 40.9894 29.6612 40.9822 29.6905 40.9653C29.7033 40.9579 29.7166 40.9487 29.7303 40.9377C29.7439 40.9268 29.7567 40.9145 29.7682 40.901C29.7796 40.8875 29.7893 40.8727 29.7972 40.857C29.8046 40.8413 29.8085 40.8251 29.8085 40.8083Z" fill="#FAFAFA"/>
<path d="M30.1433 40.3614C30.1433 40.2762 30.1505 40.1919 30.1652 40.1081C30.1798 40.0244 30.2008 39.9468 30.2281 39.8753C30.2556 39.804 30.2886 39.7412 30.3276 39.6866C30.3665 39.6322 30.4099 39.5913 30.4579 39.5635C30.5057 39.5358 30.5491 39.5262 30.5883 39.5348C30.6271 39.5436 30.6603 39.5665 30.6877 39.6031C30.715 39.6398 30.7362 39.6893 30.7513 39.7512C30.7661 39.8135 30.7738 39.8834 30.7738 39.961V40.0635C30.7738 40.0803 30.7704 40.0969 30.7635 40.1127C30.7567 40.1288 30.7487 40.1398 30.739 40.1452L30.3101 40.3929C30.3101 40.428 30.3144 40.4562 30.3225 40.4781C30.3305 40.5003 30.3414 40.5164 30.3552 40.5266C30.3688 40.5369 30.3848 40.5415 30.4027 40.5402C30.4206 40.5391 30.4392 40.5328 30.4579 40.522C30.4852 40.5064 30.5074 40.4886 30.5247 40.4687C30.5417 40.449 30.5559 40.4284 30.5671 40.4066C30.5764 40.3892 30.5842 40.3762 30.5902 40.3681C30.5962 40.3601 30.6044 40.3533 30.6147 40.3474L30.7175 40.2881C30.7267 40.2828 30.735 40.284 30.7424 40.2917C30.7497 40.2997 30.753 40.3124 30.752 40.3297C30.7512 40.3515 30.7446 40.3826 30.7323 40.4234C30.7199 40.464 30.7012 40.5073 30.6764 40.5537C30.6515 40.6001 30.621 40.6451 30.5846 40.6888C30.5483 40.7325 30.5061 40.7684 30.4582 40.796C30.4102 40.8238 30.3669 40.834 30.3279 40.8271C30.2889 40.8198 30.2557 40.7966 30.2285 40.7577C30.201 40.7187 30.1801 40.6658 30.1655 40.5987C30.1507 40.532 30.1433 40.4528 30.1433 40.3614ZM30.4581 39.8372C30.4331 39.8517 30.4121 39.8706 30.3945 39.8934C30.3769 39.9168 30.3621 39.9417 30.3501 39.9692C30.3381 39.9968 30.3291 40.0248 30.3225 40.0537C30.3161 40.0826 30.312 40.1087 30.3101 40.1326L30.6004 39.9651C30.5988 39.9434 30.5955 39.9214 30.5909 39.8987C30.5863 39.8763 30.5786 39.8581 30.5677 39.8436C30.557 39.8295 30.5427 39.8209 30.5253 39.818C30.5077 39.8152 30.4854 39.8216 30.4581 39.8372Z" fill="#FAFAFA"/>
<path d="M31.2902 39.3797C31.2389 39.4095 31.2019 39.4511 31.1791 39.5043C31.1564 39.5579 31.145 39.6302 31.145 39.7215V40.315C31.145 40.3316 31.1416 40.3482 31.1348 40.3642C31.1279 40.3803 31.1199 40.3913 31.1102 40.3965L31.0129 40.4529C31.0035 40.4582 30.9953 40.4569 30.9884 40.4487C30.9815 40.4406 30.978 40.4281 30.978 40.4113V39.3475C30.978 39.3309 30.9815 39.3143 30.9884 39.2984C30.9951 39.2823 31.0033 39.2714 31.0129 39.2658L31.1102 39.2098C31.1197 39.2042 31.1278 39.2057 31.1348 39.2139C31.1416 39.2219 31.145 39.2344 31.145 39.2512V39.3038C31.1672 39.2543 31.1911 39.2126 31.2164 39.1781C31.2415 39.1437 31.2746 39.1148 31.3158 39.0909L31.3735 39.0576C31.3829 39.0523 31.3909 39.0536 31.398 39.0619C31.4047 39.0699 31.4082 39.0826 31.4082 39.0992V39.2499C31.4082 39.2667 31.4047 39.2831 31.398 39.2992C31.3911 39.3153 31.383 39.3263 31.3735 39.3316L31.2902 39.3797Z" fill="#FAFAFA"/>
<path d="M32.5164 39.2999C32.5257 39.2945 32.5338 39.296 32.5408 39.3042C32.5476 39.3123 32.551 39.3249 32.551 39.3415V39.5038C32.551 39.5204 32.5476 39.537 32.5408 39.5529C32.5339 39.569 32.5259 39.5799 32.5164 39.5853L31.9539 39.9101C31.9443 39.9155 31.9365 39.914 31.9294 39.9058C31.9226 39.8977 31.9192 39.8853 31.9192 39.8685V38.3938C31.9192 38.3772 31.9226 38.3607 31.9294 38.3446C31.9363 38.3285 31.9442 38.3176 31.9539 38.3122L32.0579 38.2522C32.0673 38.2468 32.0755 38.2483 32.0824 38.2565C32.0893 38.2647 32.0928 38.2769 32.0928 38.2938V39.5447L32.5164 39.2999Z" fill="#FAFAFA"/>
<path d="M33.0208 38.0841C33.068 38.0568 33.1106 38.0451 33.1487 38.0491C33.1869 38.0529 33.2199 38.0696 33.2475 38.0992C33.2755 38.1288 33.2976 38.1691 33.3142 38.2205C33.331 38.2716 33.3409 38.3316 33.3433 38.4C33.3442 38.4132 33.3447 38.4304 33.3447 38.4518C33.3447 38.4728 33.3447 38.4944 33.3447 38.5154C33.3447 38.5369 33.3447 38.5577 33.3447 38.5785C33.3447 38.5989 33.3442 38.6163 33.3433 38.6305C33.3399 38.7025 33.3302 38.7735 33.3138 38.8438C33.2975 38.9142 33.2755 38.9798 33.2475 39.0407C33.2197 39.1016 33.1867 39.1561 33.1487 39.204C33.1106 39.2518 33.068 39.2893 33.0208 39.3166C32.9738 39.3437 32.9313 39.3555 32.8931 39.3516C32.8552 39.3476 32.8221 39.3315 32.7945 39.3024C32.7666 39.2737 32.7445 39.2334 32.7283 39.1821C32.712 39.1306 32.702 39.0707 32.6985 39.0028C32.6977 38.9896 32.6972 38.9727 32.6967 38.9526C32.6964 38.9321 32.696 38.9117 32.696 38.8903C32.696 38.8688 32.6964 38.8474 32.6967 38.8259C32.6972 38.8044 32.6977 38.7866 32.6985 38.7725C32.7011 38.7008 32.7108 38.63 32.7274 38.5593C32.7442 38.4888 32.7666 38.4227 32.7945 38.3609C32.8223 38.2991 32.8552 38.2445 32.8931 38.1967C32.9313 38.1487 32.9738 38.1114 33.0208 38.0841ZM33.1765 38.508C33.1739 38.4623 33.1676 38.4268 33.1576 38.4012C33.1477 38.3757 33.1357 38.3579 33.1209 38.3481C33.1065 38.3382 33.0907 38.3349 33.0736 38.3379C33.0565 38.3408 33.0388 38.3476 33.0208 38.3579C33.0031 38.3681 32.9855 38.3819 32.9684 38.3987C32.9513 38.4153 32.9354 38.4372 32.9209 38.4638C32.9064 38.4906 32.8939 38.5223 32.8843 38.5591C32.8746 38.5959 32.8683 38.6388 32.8657 38.6873C32.8649 38.7002 32.8642 38.7158 32.8639 38.7342C32.8634 38.7526 32.863 38.7718 32.863 38.7916C32.863 38.8113 32.8634 38.8305 32.8639 38.8492C32.8642 38.8681 32.8649 38.8826 32.8657 38.8928C32.8683 38.9383 32.8746 38.974 32.8843 38.9993C32.8939 39.025 32.9064 39.0425 32.9209 39.0524C32.9354 39.0623 32.9513 39.0657 32.9684 39.0626C32.9855 39.0596 33.0031 39.0527 33.0208 39.0425C33.0388 39.0322 33.0565 39.0187 33.0736 39.0019C33.0907 38.9852 33.1065 38.9636 33.1209 38.9369C33.1356 38.9101 33.1477 38.8783 33.1576 38.8415C33.1675 38.8045 33.1737 38.7618 33.1765 38.7131C33.1772 38.7023 33.1777 38.687 33.1777 38.6679C33.1777 38.6489 33.1777 38.6293 33.1777 38.6096C33.1777 38.5902 33.1777 38.571 33.1777 38.5529C33.1777 38.5345 33.1772 38.5197 33.1765 38.508Z" fill="#FAFAFA"/>
<path d="M33.8465 39.0454C33.8647 39.0352 33.883 39.0195 33.9019 38.9987C33.9206 38.978 33.9377 38.9527 33.953 38.9223C33.9685 38.8922 33.9811 38.8579 33.991 38.8194C34.0008 38.781 34.0058 38.7397 34.0058 38.6955V38.611C33.9989 38.6286 33.99 38.6486 33.9787 38.671C33.9676 38.6935 33.954 38.7162 33.9382 38.739C33.9224 38.7619 33.9039 38.7839 33.8832 38.8051C33.8621 38.8266 33.8383 38.8447 33.8118 38.8599C33.7689 38.8847 33.7301 38.8922 33.6956 38.8827C33.6608 38.8732 33.6313 38.8503 33.607 38.815C33.5825 38.7796 33.5633 38.7338 33.5493 38.6772C33.5352 38.6207 33.5271 38.5579 33.5253 38.4889C33.5245 38.4663 33.5242 38.4402 33.5242 38.4096C33.5242 38.3792 33.5245 38.3526 33.5253 38.3291C33.5271 38.2581 33.535 38.1863 33.5493 38.1133C33.5633 38.0405 33.5827 37.9724 33.607 37.9088C33.6315 37.8452 33.6608 37.7885 33.6956 37.7388C33.7301 37.6892 33.7689 37.6522 33.8118 37.6274C33.8383 37.6121 33.8621 37.6026 33.8832 37.5998C33.9039 37.5968 33.9224 37.5976 33.9382 37.6021C33.954 37.6065 33.9676 37.6138 33.9787 37.6235C33.9898 37.633 33.9987 37.6427 34.0058 37.6524V37.5998C34.0058 37.5832 34.0091 37.5667 34.016 37.5506C34.0227 37.5345 34.0308 37.5237 34.0405 37.5183L34.1379 37.4619C34.1473 37.4566 34.1555 37.4579 34.1624 37.4661C34.1693 37.4742 34.1728 37.4869 34.1728 37.5035V38.5742C34.1728 38.7583 34.1437 38.9138 34.086 39.0408C34.0283 39.1679 33.9484 39.2606 33.8463 39.3194C33.8028 39.3447 33.7623 39.3577 33.725 39.3589C33.6879 39.3597 33.6555 39.351 33.6282 39.3326C33.6008 39.3142 33.5791 39.2879 33.5626 39.2538C33.5465 39.2198 33.5373 39.1804 33.5357 39.1358C33.5347 39.1197 33.538 39.1033 33.5454 39.087C33.5524 39.0706 33.5608 39.0596 33.5704 39.0541L33.6576 39.0038C33.6696 38.9969 33.6798 38.9983 33.6884 39.0078C33.6969 39.0172 33.7043 39.0262 33.7102 39.0352C33.7213 39.0546 33.7365 39.0673 33.7558 39.0727C33.7755 39.0785 33.8056 39.0693 33.8465 39.0454ZM33.6925 38.2487C33.6899 38.2929 33.6899 38.3355 33.6925 38.3768C33.6976 38.4724 33.7148 38.5339 33.7439 38.5602C33.7729 38.587 33.8085 38.588 33.8503 38.5638C33.8922 38.5395 33.9275 38.4971 33.9563 38.4364C33.9851 38.3759 34.0015 38.3031 34.0058 38.2185C34.0074 38.1946 34.0084 38.1654 34.0084 38.1302C34.0084 38.0952 34.0074 38.0669 34.0058 38.0451C34.0015 37.9683 33.9851 37.9155 33.9563 37.8863C33.9275 37.8572 33.8922 37.8547 33.8503 37.879C33.8084 37.903 33.7727 37.9456 33.7439 38.0058C33.7148 38.0659 33.6977 38.1471 33.6925 38.2487Z" fill="#FAFAFA"/>
<path d="M34.5527 36.7887C34.5621 36.7832 34.5703 36.7846 34.5771 36.7927C34.584 36.8009 34.5874 36.8136 34.5874 36.8302V37.0082C34.5874 37.0249 34.584 37.0414 34.5771 37.0575C34.5703 37.0736 34.5621 37.0845 34.5527 37.09L34.4424 37.1536C34.4331 37.1589 34.4249 37.1576 34.4179 37.1494C34.411 37.1412 34.4076 37.1287 34.4076 37.1119V36.9339C34.4076 36.9173 34.411 36.9007 34.4179 36.8846C34.4247 36.8686 34.4329 36.8576 34.4424 36.8524L34.5527 36.7887ZM34.5812 38.3314C34.5812 38.3481 34.5777 38.3647 34.5708 38.3805C34.5641 38.3966 34.5559 38.4076 34.5463 38.4131L34.449 38.4693C34.4396 38.4747 34.4314 38.4732 34.4245 38.465C34.4176 38.4571 34.4142 38.4445 34.4142 38.4277V37.364C34.4142 37.3473 34.4176 37.3307 34.4245 37.3149C34.4313 37.2988 34.4395 37.2878 34.449 37.2824L34.5463 37.2261C34.5557 37.2207 34.5639 37.2222 34.5708 37.2304C34.5777 37.2383 34.5812 37.2508 34.5812 37.2677V38.3314Z" fill="#FAFAFA"/>
<path d="M35.4491 37.8302C35.4491 37.8468 35.4456 37.8634 35.4391 37.8794C35.4322 37.8955 35.4241 37.9063 35.4146 37.9118L35.3169 37.9681C35.3076 37.9734 35.2995 37.9721 35.2924 37.9639C35.2855 37.9558 35.2823 37.9433 35.2823 37.9265V37.3466C35.2823 37.2554 35.2704 37.1892 35.2463 37.1483C35.2223 37.1073 35.1856 37.1011 35.1358 37.1298C35.0904 37.156 35.0548 37.2041 35.0286 37.2738C35.0025 37.3437 34.9895 37.4244 34.9895 37.5156V38.0955C34.9895 38.1121 34.9861 38.1287 34.9793 38.1447C34.9724 38.1608 34.9644 38.1718 34.9548 38.1771L34.8574 38.2334C34.848 38.2387 34.8396 38.2374 34.8329 38.2292C34.826 38.2211 34.8225 38.2084 34.8225 38.1918V37.128C34.8225 37.1114 34.826 37.0948 34.8329 37.0789C34.8396 37.0628 34.8478 37.0519 34.8574 37.0463L34.9548 36.9903C34.9642 36.9847 34.9723 36.9862 34.9793 36.9944C34.9861 37.0025 34.9895 37.0151 34.9895 37.0317V37.0843C35.0119 37.0319 35.0378 36.9842 35.0679 36.941C35.0978 36.8978 35.1333 36.8644 35.1746 36.8407C35.2267 36.8105 35.2704 36.7996 35.3054 36.8083C35.3406 36.817 35.3687 36.8396 35.3901 36.8759C35.4116 36.9122 35.4267 36.9604 35.4358 37.0197C35.4447 37.0792 35.4491 37.1448 35.4491 37.2163V37.8302Z" fill="#FAFAFA"/>
<path d="M43.7408 33.0465L42.1441 33.9683L42.3915 31.7289C42.2005 31.628 42.0789 31.3795 42.0789 31.0228C42.0789 30.3868 42.4655 29.6481 42.9425 29.3727C43.4193 29.0973 43.8059 29.3896 43.8059 30.0255C43.8059 30.3822 43.6843 30.7713 43.4933 31.0928L43.7408 33.0465Z" fill="#455A64"/>
<path d="M43.7409 33.0463L42.3357 32.2351L42.1442 33.9681L43.7409 33.0463Z" fill="#8A2AE3"/>
<path d="M42.9427 29.3726C42.6305 29.5528 42.358 29.9317 42.2063 30.35L43.4937 31.0933V31.0929C43.6847 30.7714 43.8063 30.3825 43.8063 30.0257C43.8061 29.3897 43.4195 29.0973 42.9427 29.3726Z" fill="#8A2AE3"/>
<path d="M35.1806 21.9189C34.6346 21.6028 33.8801 21.6477 33.0462 22.1292C31.3797 23.0916 30.0287 25.4317 30.0291 27.3562C30.0292 28.3218 30.3696 28.9989 30.9193 29.3125C31.0623 29.3942 31.8384 29.8457 31.9826 29.9291C32.5286 30.2447 33.2828 30.1996 34.1161 29.7185C35.7825 28.7563 37.1333 26.4161 37.1333 24.4915C37.1333 23.5298 36.7957 22.8544 36.2502 22.5391" fill="#DADADA"/>
<path d="M34.1156 22.7492C32.4492 23.7119 31.0981 26.0517 31.0984 27.976C31.0986 29.9005 32.4497 30.6806 34.1161 29.7184C35.7825 28.7561 37.1351 26.416 37.1333 24.4914C37.1316 22.5672 35.7805 21.7871 34.1156 22.7492Z" fill="#DADADA"/>
<path d="M35.7818 27.0187V27.2383C35.3522 27.9718 34.764 28.6104 34.1158 28.9836C33.4663 29.3581 32.8795 29.399 32.4497 29.16V28.705C32.4497 27.8265 33.0462 26.7929 33.8072 26.3524L34.2453 26.1002C34.6342 25.8757 35.0111 25.8469 35.3076 26.0185C35.6102 26.1929 35.7818 26.5567 35.7818 27.0187Z" fill="#DADADA"/>
<path opacity="0.4" d="M35.1806 21.9189L36.2502 22.5388C35.7038 22.2225 34.9493 22.2672 34.116 22.7488C33.0247 23.3795 32.0687 24.6008 31.5388 25.909L30.4692 25.2885C30.9992 23.9803 31.9547 22.759 33.0464 22.1288C33.8803 21.6479 34.6347 21.6028 35.1806 21.9189Z" fill="white"/>
<path opacity="0.2" d="M31.9423 29.9053C31.7539 29.7965 31.0511 29.3873 30.9189 29.312C30.3693 28.9985 30.0287 28.3215 30.0287 27.356L31.0982 27.9765C31.0989 28.9144 31.4204 29.5806 31.9423 29.9053Z" fill="black"/>
<path opacity="0.1" d="M30.4693 25.2886L31.5388 25.9091C31.2592 26.5988 31.0985 27.3123 31.0985 27.9759V27.9764L30.0289 27.3559C30.0289 26.6918 30.1902 25.9778 30.4693 25.2886Z" fill="black"/>
<path d="M33.7364 25.9981C33.6319 25.9981 33.5344 25.9729 33.4461 25.9225C33.2428 25.805 33.1309 25.5724 33.1309 25.2678C33.1309 24.7101 33.5092 24.0544 33.9927 23.7755V23.775C34.2555 23.6226 34.5122 23.6037 34.717 23.7211C34.9204 23.8386 35.0323 24.0712 35.0323 24.3757C35.0323 24.9335 34.6539 25.5891 34.171 25.8681C34.0211 25.9544 33.8735 25.9981 33.7364 25.9981Z" fill="white"/>
<path d="M35.3076 26.019C35.0111 25.8474 34.6342 25.8762 34.2453 26.1007L33.8072 26.3529C33.0462 26.7934 32.4497 27.8268 32.4497 28.7055V29.1605C32.8794 29.3993 33.4663 29.3586 34.1158 28.9841C34.7639 28.6108 35.352 27.9723 35.7818 27.2388V27.0192C35.7818 26.5569 35.6102 26.1931 35.3076 26.019Z" fill="white"/>
<path d="M69.0999 54.4551C69.0999 54.4551 69.3181 52.5354 70.273 51.0456C71.228 49.5557 72.54 48.6259 73.7642 48.529C74.9884 48.4322 75.9773 49.5585 74.6673 50.332C73.3574 51.1056 71.0301 51.8949 69.959 54.7878L69.0999 54.4551Z" fill="#9AD954"/>
<path opacity="0.1" d="M69.0999 54.4551C69.0999 54.4551 69.3181 52.5354 70.273 51.0456C71.228 49.5557 72.54 48.6259 73.7642 48.529C74.9884 48.4322 75.9773 49.5585 74.6673 50.332C73.3574 51.1056 71.0301 51.8949 69.959 54.7878L69.0999 54.4551Z" fill="black"/>
<path d="M69.4589 53.9563C69.4544 53.9555 69.4502 53.9544 69.4459 53.9526C69.4123 53.9391 69.3962 53.9009 69.4099 53.8674C70.7018 50.6857 73.1613 49.3571 74.2813 49.0992C74.3164 49.0908 74.3515 49.1131 74.3597 49.1482C74.3678 49.1835 74.3459 49.2185 74.3108 49.2266C73.2136 49.4792 70.8028 50.7848 69.531 53.9166C69.5192 53.9458 69.4886 53.9618 69.4589 53.9563Z" fill="white"/>
<path d="M75.9985 53.9941C75.8878 54.2439 75.6149 54.3741 75.3609 54.4764C75.1085 54.5776 74.8317 54.6884 74.6946 54.9246C74.4183 55.4019 74.8719 56.0729 74.5753 56.5377C74.4507 56.7325 74.2192 56.8353 73.9916 56.876C73.8024 56.9114 73.6099 56.9112 73.4181 56.9273C73.3259 56.9253 73.2345 56.9188 73.1454 56.9061C72.8822 56.868 72.5967 56.8556 72.3556 56.9903C71.9762 57.2034 71.8597 57.6824 71.6294 58.0518C71.3531 58.4939 70.8647 58.7835 70.3516 58.8532C70.1811 58.8758 69.8641 58.9065 69.6903 58.8097C69.6767 58.8021 69.6655 58.7951 69.6545 58.7868C69.6533 58.7867 69.6523 58.7852 69.6514 58.7837C69.6275 58.7568 69.5976 58.7226 69.5846 58.704C69.5813 58.7009 69.5797 58.6969 69.5779 58.6928C69.5107 58.4453 69.6205 58.1877 69.6247 57.9321C69.6252 57.916 69.6254 57.901 69.6244 57.8858C69.6139 57.5886 69.6055 57.293 69.5984 56.9967C69.5846 56.4513 69.5784 55.9048 69.5822 55.3587C69.5859 55.0042 69.5432 54.6159 69.6933 54.2819C69.8595 53.9146 70.2725 53.9065 70.4287 53.546C70.4913 53.4024 70.5245 53.2484 70.585 53.1031C70.7656 52.677 71.2034 52.3708 71.6665 52.3481C72.3876 52.3114 73.0349 52.8953 73.7552 52.8422C73.9418 52.8276 74.1236 52.7709 74.3073 52.737C74.8915 52.6277 75.5666 52.7939 75.895 53.2883C76.0326 53.4949 76.099 53.7673 75.9985 53.9941Z" fill="#9AD954"/>
<path d="M69.5191 57.5569C69.5174 57.5566 69.5158 57.5562 69.5141 57.5557C69.4814 57.547 69.4619 57.5133 69.4706 57.4805C70.467 53.742 74.406 53.2017 75.3276 53.2683C75.361 53.2709 75.3869 53.3002 75.3845 53.334C75.382 53.3679 75.3526 53.3934 75.3187 53.3909C74.4173 53.3258 70.5645 53.8544 69.5894 57.5122C69.5812 57.5434 69.5503 57.5627 69.5191 57.5569Z" fill="white"/>
<path d="M73.8956 55.6625C73.8836 55.6603 73.8722 55.6546 73.863 55.6452C73.8532 55.6352 72.8485 54.6449 71.1825 54.8901C71.1489 54.8945 71.1175 54.8719 71.1126 54.8382C71.1077 54.8045 71.131 54.7732 71.1645 54.7683C72.895 54.5138 73.9401 55.5481 73.9506 55.5586C73.9745 55.5828 73.9743 55.6217 73.9501 55.6455C73.9352 55.6603 73.9146 55.6659 73.8956 55.6625Z" fill="white"/>
<path d="M63.3821 33.3472C62.6918 34.5144 62.0275 35.5284 61.5612 36.0144C60.6758 36.4263 58.5952 37.0595 57.781 37.1655C57.6367 37.1842 57.4917 37.1474 57.3724 37.0694C57.0524 36.8596 56.8048 36.8256 56.4674 36.7087C56.2032 36.6173 56.0913 36.4911 56.0416 36.5391C55.9779 36.6007 55.9083 36.7761 56.0693 36.9577C56.1501 37.049 56.2976 37.1487 56.4874 37.2705C56.4874 37.2705 55.9054 37.4259 55.3855 37.2894C54.6808 37.1045 54.3481 37.4433 54.8246 38.2084C54.9953 38.4825 55.6672 38.9212 57.0289 38.8026C57.4212 38.7686 57.9873 38.7357 58.4757 38.6315C59.7817 38.3528 61.2335 38.0827 62.126 37.8161C62.3512 37.7489 62.7534 37.4883 62.9929 37.2153C64.4943 35.5039 64.9915 34.2846 65.6496 33.1764L65.5928 31.3655C64.5288 31.3325 63.9597 32.3703 63.3821 33.3472Z" fill="#FFA8A7"/>
<path d="M65.7764 31.3325C65.7764 31.3325 64.8472 31.135 64.1488 32.0285C63.418 32.9636 62.1259 35.2094 62.1259 35.2094C62.1259 35.2094 62.5498 36.3355 63.6903 36.5206L65.5227 34.0455C65.5227 34.0455 66.3905 32.3322 65.7764 31.3325Z" fill="#455A64"/>
<path d="M69.7381 56.5732H68.5436V58.7032H69.7381V56.5732Z" fill="#FFA8A7"/>
<path d="M65.5963 56.4598L64.4025 56.5026L64.3427 54.2485L65.5963 54.2058V56.4598Z" fill="#FFA8A7"/>
<path d="M69.9064 38.1328C69.9064 39.3208 69.7315 48.8823 69.7315 48.8823C69.7592 49.2242 70.0669 49.8546 70.0004 51.1676C69.9098 52.9513 69.7892 57.6385 69.7892 57.6385C69.7892 57.6385 69.2093 57.9914 68.4591 57.6658C68.4591 57.6658 67.4906 51.0974 67.2766 49.3299C67.0899 47.7873 66.6114 42.6696 66.6114 42.6696L65.9639 48.7087C65.9639 48.7087 66.1842 49.6287 66.112 50.6859C66.0561 51.5035 65.672 55.7616 65.672 55.7616C65.672 55.7616 65.1097 56.159 64.2928 55.8715C64.2928 55.8715 63.6132 49.4589 63.5994 48.7087C63.5837 47.8535 63.9967 38.1201 63.9967 38.1201L69.9064 38.1328Z" fill="#37474F"/>
<path d="M68.5435 58.0893V57.9115C68.4292 57.9633 68.1636 59.0187 67.6896 59.4689C67.3128 59.8269 66.7988 60.2403 66.668 60.6394C66.5321 61.0544 67.3838 61.2835 67.7358 61.2186C68.1447 61.1432 68.8538 60.8432 69.0317 60.5651C69.2097 60.287 69.293 59.8767 69.4375 59.673C69.5821 59.4692 69.9155 59.2417 69.9937 59.0059C70.0366 58.8763 69.9857 58.5925 69.9253 58.3528C69.8699 58.1329 69.81 57.8909 69.7378 57.9116C69.7376 57.9384 69.7378 58.0473 69.7378 58.0473C69.651 58.1474 69.4112 58.2466 69.1406 58.2575C68.9661 58.2642 68.542 58.2281 68.5435 58.0893Z" fill="#263238"/>
<path d="M64.3899 56.119C64.3277 56.1213 64.2773 56.2124 64.1405 56.3667C63.9752 56.5531 63.7048 56.7541 63.4378 56.8933C62.9906 57.1266 62.1209 57.4852 61.7274 57.67C61.4815 57.7854 61.493 58.0947 61.7471 58.2708C62.0012 58.4468 62.6148 58.5737 63.3517 58.4019C63.7531 58.3084 64.2756 57.9223 64.6063 57.9432C64.9371 57.9641 65.5559 57.9591 65.8 57.7837C66.0441 57.6085 65.9465 57.2342 65.8774 56.9126C65.8021 56.5615 65.708 56.0141 65.5964 56.0381V56.1591C65.4527 56.3856 64.7115 56.4778 64.3961 56.311L64.3899 56.119Z" fill="#263238"/>
<path d="M66.6116 42.6695C66.6116 42.6695 65.6567 42.3894 64.9481 41.676C64.9481 41.676 65.2691 42.3019 66.2236 42.8845L66.0195 48.2777L66.6116 42.6695Z" fill="#263238"/>
<path d="M69.2375 31.5106C69.2375 31.5106 70.2196 31.7379 70.1532 33.5187L69.9466 36.3555L69.9523 40.6125C69.0739 41.6078 65.1796 41.5349 63.8464 40.5328C63.8464 40.5328 63.9975 35.4948 64.0876 33.5562C64.1515 32.178 64.4687 31.4842 65.8232 31.3323L67.4889 31.4056L69.2375 31.5106Z" fill="#DADADA"/>
<path d="M67.9824 27.8084C67.9824 28.8314 67.1862 29.6606 66.2041 29.6606C65.222 29.6606 64.6406 28.8085 64.4257 27.8084C64.0326 25.9791 65.222 25.9561 66.2041 25.9561C67.1862 25.9561 67.9824 26.7853 67.9824 27.8084Z" fill="#263238"/>
<path d="M68.8896 28.5576C68.8896 28.5576 68.6169 29.8923 68.5075 30.1116C68.3982 30.3309 68.172 30.3931 68.172 30.3931L68.1911 29.4543L68.8896 28.5576Z" fill="#263238"/>
<path d="M68.5474 26.6455C68.5474 26.6455 68.743 26.5965 68.9508 26.9211C69.129 27.1994 69.1694 27.8245 68.8898 28.5576L68.376 28.6191L68.5474 26.6455Z" fill="#263238"/>
<path d="M68.7365 26.9158L69.3665 26.9275C69.3819 26.7467 69.2534 26.5976 69.0793 26.5943C68.9054 26.5912 68.7519 26.735 68.7365 26.9158Z" fill="#263238"/>
<path d="M68.8136 26.7667L69.2804 26.3178C69.1652 26.1843 68.9673 26.1766 68.8385 26.3005C68.7096 26.4243 68.6984 26.6331 68.8136 26.7667Z" fill="#263238"/>
<path d="M68.2218 28.6194C68.3249 28.6835 68.4718 28.4774 68.5989 28.3389C68.7259 28.2005 69.1249 28.0696 69.3318 28.5238C69.5427 28.9865 69.1862 29.4265 68.8897 29.5739C68.3596 29.8374 68.1911 29.4543 68.1911 29.4543L68.1482 31.5684C67.4011 32.7239 65.7089 32.6824 66.3173 31.5125L66.3189 30.869C66.3189 30.869 65.809 30.9496 65.5603 30.9096C65.1464 30.843 64.8861 30.503 64.7605 30.0363C64.5588 29.2869 64.4822 28.6817 64.6533 27.208C64.8409 25.5925 66.6448 25.5758 67.6189 26.2144C68.5933 26.8531 68.2218 28.6194 68.2218 28.6194Z" fill="#FFA8A7"/>
<path d="M65.9731 26.9558C66.4041 26.9128 66.8301 26.8252 67.2619 26.7933C67.3554 26.7864 67.4509 26.7823 67.5415 26.8068C67.8724 26.8962 67.8296 27.2808 67.8822 27.5496C67.9726 28.0123 68.0478 28.7966 68.2218 28.8001C68.2736 28.8011 68.4707 28.4607 68.5989 28.339C68.6819 28.2603 68.696 28.0905 68.714 27.9855C68.7468 27.7936 68.7646 27.5992 68.7792 27.4054C68.7917 27.2414 68.8081 27.0744 68.8075 26.9097C68.8067 26.7249 68.8103 26.5369 68.7644 26.3564C68.7227 26.1925 68.6461 26.0699 68.534 25.9422C68.5231 25.9298 68.5121 25.9177 68.5011 25.9057C68.2886 25.6765 68.0175 25.5048 67.7297 25.3861C67.3166 25.2158 66.8691 25.1479 66.4246 25.1024C65.9801 25.0569 65.5322 25.0322 65.0945 24.9421C65.069 24.9369 65.0417 24.9316 65.0174 24.9408C64.9793 24.9554 64.9627 24.9997 64.955 25.0396C64.9163 25.2424 65.0076 25.4643 65.178 25.5812C64.8802 25.6049 64.5383 25.4497 64.2513 25.372C64.203 25.3588 64.1481 25.3465 64.1052 25.3725C64.0756 25.3904 64.0582 25.4232 64.0476 25.4561C64.0233 25.5324 64.0287 25.6147 64.0396 25.6941C64.0716 25.9287 64.1515 26.1605 64.2962 26.3478C64.5043 26.6176 64.8468 26.8608 65.1846 26.9286C65.4514 26.9823 65.7004 26.983 65.9731 26.9558Z" fill="#263238"/>
<path d="M66.319 30.8693C66.319 30.8693 67.2427 30.6755 67.5657 30.4967C67.7819 30.377 67.9599 30.1696 68.0122 30.0366C68.0122 30.0366 67.9517 30.3221 67.7585 30.5792C67.5223 30.8937 66.319 31.1253 66.319 31.1253V30.8693Z" fill="#F28F8F"/>
<path d="M66.541 28.3791C66.541 28.4897 66.624 28.5791 66.7261 28.579C66.8283 28.5786 66.9112 28.4887 66.9112 28.3781C66.9112 28.2675 66.8283 28.1781 66.7261 28.1782C66.624 28.1786 66.541 28.2685 66.541 28.3791Z" fill="#263238"/>
<path d="M66.8384 27.5808L67.2345 27.8084C67.2929 27.6899 67.2516 27.5428 67.1421 27.48C67.0327 27.4172 66.8967 27.4622 66.8384 27.5808Z" fill="#263238"/>
<path d="M66.4026 29.7109L65.98 29.8761C66.0217 30.0024 66.1503 30.0676 66.267 30.0219C66.3838 29.9764 66.4445 29.8372 66.4026 29.7109Z" fill="#F28F8F"/>
<path d="M64.8427 27.7505L65.2038 27.4609C65.1302 27.3532 64.9897 27.3307 64.8899 27.4107C64.7903 27.4906 64.7691 27.6428 64.8427 27.7505Z" fill="#263238"/>
<path d="M65.0013 28.3241C65.0013 28.4347 65.0842 28.5241 65.1864 28.5238C65.2887 28.5235 65.3715 28.4335 65.3715 28.3229C65.3715 28.2123 65.2887 28.1229 65.1864 28.123C65.0842 28.1235 65.0013 28.2135 65.0013 28.3241Z" fill="#263238"/>
<path d="M65.992 28.1692L65.9704 29.3385L65.3069 29.1863L65.992 28.1692Z" fill="#F28F8F"/>
<path d="M50.2235 37.9568L51.2531 37.3624L51.6613 36.8682L50.6316 37.4627L50.2235 37.9568Z" fill="#DADADA"/>
<path opacity="0.4" d="M50.2235 37.9568L51.2531 37.3624L51.6613 36.8682L50.6316 37.4627L50.2235 37.9568Z" fill="black"/>
<path d="M53.0255 39.5746L54.0551 38.9802L54.9158 38.2185L53.886 38.8129L53.0255 39.5746Z" fill="#DADADA"/>
<path opacity="0.4" d="M53.0255 39.5746L54.0551 38.9802L54.9158 38.2185L53.886 38.8129L53.0255 39.5746Z" fill="black"/>
<path d="M61.7803 41.6287C62.0059 41.9158 62.1706 42.3378 62.206 42.7492C61.9801 42.462 61.8156 42.0401 61.7803 41.6287ZM64.174 41.6598C63.8277 39.3007 62.5602 36.9671 61.0495 36.0951C60.3246 35.676 59.6536 35.6609 59.1163 35.9751C58.9592 36.0664 58.3761 36.4027 58.1464 36.5345C58.1278 36.5447 58.1092 36.5547 58.0923 36.5666C58.05 36.5902 58.0078 36.6172 57.9672 36.6459C57.8894 36.7 57.8151 36.7608 57.7441 36.8302C57.7339 36.8386 57.7238 36.8504 57.7121 36.8606C57.6817 36.891 57.6513 36.9249 57.6225 36.9586C57.587 36.9992 57.5515 37.0414 57.5194 37.0853C57.4519 37.1749 57.3876 37.2712 57.3302 37.3759C57.3015 37.4265 57.2727 37.4806 57.2458 37.5365L48.778 32.6479L47.7489 33.241V33.8967L47.8367 33.9473L47.9179 33.9946V34.1332L47.7489 34.2312V34.613L48.9925 37.2457L50.2227 37.9571L50.6316 37.462L51.7165 38.111L52.3399 39.1789L53.026 39.5744L53.8862 38.8124L54.9423 39.4223L55.2971 40.8857L57.0664 41.9065C57.156 42.2816 57.2693 42.6483 57.4011 43.0066C57.4129 43.0438 57.4264 43.0809 57.4417 43.1215C58.0298 44.6677 58.9659 45.9908 60.0203 46.6007C60.1556 46.6785 60.2873 46.7428 60.4175 46.7917C60.4919 46.8222 60.5662 46.8458 60.6389 46.866C60.7048 46.8846 60.7707 46.8999 60.8366 46.9099C61.0546 46.9487 61.2658 46.9471 61.4635 46.9083C61.4923 46.9015 61.5211 46.8948 61.5497 46.8881C61.5903 46.8797 61.6307 46.8678 61.6696 46.8526C61.7001 46.8407 61.7305 46.8289 61.7609 46.8171C61.7929 46.8052 61.8251 46.7899 61.8555 46.7732C61.886 46.7597 61.9147 46.7444 61.9435 46.7275C61.9586 46.7191 61.9739 46.7105 61.9874 46.7022C61.9941 46.7005 62.0008 46.6954 62.0078 46.6903C62.2426 46.5552 62.8222 46.2206 62.9794 46.131C63.7618 45.6781 64.2687 44.5307 64.2687 42.9085C64.2685 42.4962 64.2365 42.0773 64.174 41.6598Z" fill="#DADADA"/>
<path d="M61.4783 43.6186C61.0721 43.3841 60.7427 42.6869 60.7427 42.0615C60.7427 41.4361 61.0721 41.1192 61.4783 41.3537C61.8844 41.5883 62.2138 42.2854 62.2138 42.9108C62.2137 43.5363 61.8844 43.8532 61.4783 43.6186ZM63.1448 42.253C62.7985 39.8958 61.531 37.562 60.0203 36.6902C59.3207 36.2863 58.6736 36.2559 58.1463 36.5347C58.1277 36.5449 58.1092 36.5549 58.0922 36.5668C58.05 36.5904 58.0077 36.6174 57.9671 36.6462C57.8894 36.7002 57.8151 36.7611 57.7441 36.8304C57.7339 36.8388 57.7237 36.8506 57.712 36.8608C57.6816 36.8912 57.6512 36.9251 57.6225 36.9588C57.587 36.9994 57.5514 37.0416 57.5194 37.0855C57.4518 37.1751 57.3876 37.2714 57.3302 37.3761C57.3014 37.4268 57.2727 37.4808 57.2457 37.5367C57.1055 37.824 56.9939 38.1585 56.9196 38.5371L47.749 33.2412V33.8969L47.8368 33.9475L47.918 33.9949V34.1334L47.749 34.2314V34.6132L48.9927 37.2459L50.2228 37.9573L50.6318 37.4623L51.7166 38.1112L52.3401 39.1791L53.0262 39.5746L53.8863 38.8126L54.9424 39.4225L55.2973 40.8859L57.0666 41.9067C57.1561 42.2818 57.2694 42.6485 57.4012 43.0068C57.413 43.044 57.4265 43.0811 57.4418 43.1217C58.0299 44.668 58.966 45.991 60.0205 46.601C60.1557 46.6787 60.2874 46.743 60.4176 46.792C60.492 46.8224 60.5663 46.846 60.639 46.8662C60.7049 46.8848 60.7708 46.9001 60.8367 46.9101C61.0547 46.9489 61.2659 46.9473 61.4636 46.9085C61.4924 46.9018 61.5212 46.895 61.5498 46.8883C61.5904 46.8799 61.6308 46.8681 61.6698 46.8528C61.7002 46.8409 61.7306 46.8291 61.761 46.8173C61.793 46.8054 61.8253 46.7901 61.8557 46.7734C61.8861 46.7599 61.9148 46.7446 61.9436 46.7277C61.9587 46.7193 61.974 46.7108 61.9875 46.7024C61.9942 46.7007 62.001 46.6956 62.0079 46.6905C62.7581 46.2175 63.2398 45.0869 63.2398 43.5035C63.2395 43.0911 63.2056 42.672 63.1448 42.253Z" fill="#DADADA"/>
<path opacity="0.4" d="M62.2137 42.9104C62.2137 43.5356 61.8842 43.8534 61.4787 43.6185C61.0713 43.3836 60.7419 42.6873 60.7419 42.0622C60.7419 41.4371 61.0715 41.1194 61.4787 41.3543C61.5868 41.4167 61.6899 41.5114 61.7795 41.6298C61.815 42.0404 61.9805 42.4628 62.2053 42.7501C62.2121 42.8039 62.2137 42.8579 62.2137 42.9104Z" fill="black"/>
<path opacity="0.4" d="M64.2685 42.9088C64.2685 44.531 63.7616 45.6785 62.9792 46.1313C62.8221 46.2209 62.2425 46.5554 62.0076 46.6907C62.7578 46.2176 63.2396 45.0871 63.2396 43.5037C63.2396 43.0915 63.2057 42.6723 63.1449 42.2533C62.7985 39.8961 61.5311 37.5624 60.0204 36.6905C59.3208 36.2867 58.6737 36.2563 58.1464 36.535C58.3762 36.4032 58.9592 36.0669 59.1163 35.9757C59.6536 35.6614 60.3246 35.6765 61.0495 36.0957C62.5602 36.9677 63.8275 39.3012 64.174 41.6603C64.2365 42.0775 64.2685 42.4964 64.2685 42.9088Z" fill="white"/>
<path d="M63.2395 43.5032C63.2395 45.0866 62.7579 46.2171 62.0076 46.6902C62.2425 46.5551 62.822 46.2204 62.9792 46.1308C63.7616 45.678 64.2685 44.5305 64.2685 42.9083C64.2685 42.8485 64.2664 42.7882 64.265 42.728C63.9115 42.9322 63.554 43.1385 63.2357 43.3222C63.2372 43.3827 63.2395 43.4432 63.2395 43.5032Z" fill="#DADADA"/>
<path opacity="0.1" d="M63.2395 43.5032C63.2395 45.0866 62.7579 46.2171 62.0076 46.6902C62.2425 46.5551 62.822 46.2204 62.9792 46.1308C63.7616 45.678 64.2685 44.5305 64.2685 42.9083C64.2685 42.8485 64.2664 42.7882 64.265 42.728C63.9115 42.9322 63.554 43.1385 63.2357 43.3222C63.2372 43.3827 63.2395 43.4432 63.2395 43.5032Z" fill="black"/>
<path opacity="0.15" d="M56.9568 39.213V39.5477L47.749 34.2314L47.918 34.1334V33.9949L56.9568 39.213Z" fill="black"/>
<path opacity="0.15" d="M56.9568 39.3514V39.5475L47.749 34.2312L47.918 34.1332V34.1316L56.9568 39.3514Z" fill="black"/>
<path opacity="0.15" d="M61.3547 45.9967C62.6383 45.6028 63.0813 43.3362 62.3441 40.9341C61.6069 38.5321 59.9687 36.9042 58.6851 37.2982C57.4014 37.6921 56.9585 39.9587 57.6957 42.3608C58.4328 44.7628 60.0711 46.3907 61.3547 45.9967Z" stroke="black" stroke-miterlimit="10"/>
<path opacity="0.4" d="M57.2457 37.5367C57.1055 37.8241 56.9939 38.1586 56.9196 38.5371L47.749 33.2412L48.7781 32.6482L57.2457 37.5367Z" fill="white"/>
<path d="M69.1578 38.0516C69.6387 37.1421 70.1869 35.1006 70.4599 34.0704C70.8477 32.607 70.2201 31.6862 69.5077 31.6492C69.061 31.7172 67.5941 37.0552 67.5941 37.0552C67.4316 37.1852 65.1989 38.3166 64.4816 38.6009C64.3545 38.6514 64.213 38.6492 64.0845 38.6024C63.74 38.4766 63.5054 38.5005 63.1683 38.4666C62.9043 38.4402 62.7707 38.3463 62.7373 38.4028C62.6946 38.4755 62.6747 38.6568 62.8668 38.7919C62.9635 38.86 63.1231 38.9206 63.3267 38.9928C63.3267 38.9928 62.9454 39.1249 62.4367 39.1137C61.7471 39.0985 61.4989 39.3981 62.0338 40.097C62.3689 40.5349 62.9078 40.673 64.1213 40.2533C64.4709 40.1324 64.9446 39.8973 65.3855 39.7372C66.2971 39.406 66.5311 39.3702 67.2309 39.1346C68.2406 38.7945 68.9443 38.4551 69.1578 38.0516Z" fill="#FFA8A7"/>
<path d="M69.2375 31.5107C69.657 31.5681 70.0637 31.6629 70.3076 32.0019C70.5515 32.3408 70.7549 32.8188 70.5109 34.1318C70.267 35.4448 69.7652 36.8396 69.7652 36.8396C69.7652 36.8396 68.7895 37.2567 67.7515 36.1988L68.4642 33.4408C68.4642 33.4408 68.5861 31.6491 69.2375 31.5107Z" fill="#455A64"/>
</svg>
