<svg width="18" height="15" viewBox="0 0 18 15" fill="none" xmlns="http://www.w3.org/2000/svg">
<path d="M8.04221 14.2926C8.22846 14.1053 8.333 13.8518 8.333 13.5876C8.333 13.3234 8.22846 13.07 8.04221 12.8826L3.44221 8.29263H16.9922C17.2574 8.29263 17.5118 8.18728 17.6993 7.99974C17.8869 7.8122 17.9922 7.55785 17.9922 7.29263C17.9922 7.02742 17.8869 6.77306 17.6993 6.58553C17.5118 6.39799 17.2574 6.29263 16.9922 6.29263H3.47221L8.04221 1.72263C8.23184 1.53433 8.3389 1.27841 8.33984 1.01117C8.34078 0.74393 8.23551 0.487263 8.04721 0.297634C7.85891 0.108004 7.60299 0.000943897 7.33575 6.21148e-06C7.06851 -0.000931474 6.81184 0.10433 6.62221 0.292634L0.262211 6.66263C0.0942805 6.8313 0 7.05962 0 7.29763C0 7.53564 0.0942805 7.76396 0.262211 7.93263L6.62221 14.2926C6.71517 14.3864 6.82578 14.4608 6.94763 14.5115C7.06949 14.5623 7.2002 14.5884 7.33221 14.5884C7.46422 14.5884 7.59493 14.5623 7.71679 14.5115C7.83865 14.4608 7.94925 14.3864 8.04221 14.2926Z" fill="white"/>
</svg>
