<svg width="23" height="22" viewBox="0 0 23 22" fill="none" xmlns="http://www.w3.org/2000/svg">
<g clip-path="url(#clip0_115_12977)">
<path d="M11.925 21.9496C17.9862 21.9496 22.8998 17.036 22.8998 10.9748C22.8998 4.91358 17.9862 0 11.925 0C5.86378 0 0.950195 4.91358 0.950195 10.9748C0.950195 17.036 5.86378 21.9496 11.925 21.9496Z" fill="#3370FF"/>
<path d="M22.9002 10.9749C22.9002 10.6566 22.8867 10.3416 22.8601 10.0303L16.5115 3.68164L13.5313 6.51854L15.6707 8.63925L5.85577 5.19998L11.2918 10.636L11.0634 10.8909L8.04284 7.87037L5.31934 17.2996L9.75474 21.735C10.4564 21.8758 11.1823 21.9497 11.9254 21.9497C17.9867 21.9497 22.9002 17.0361 22.9002 10.9749Z" fill="#2C4F9F"/>
<path d="M15.8066 14.1162H18.5301V17.2995H15.8066V14.1162Z" fill="#FA5D0F"/>
<path d="M12.3105 11.8911H15.0341V17.2995H12.3105V11.8911Z" fill="#FA5D0F"/>
<path d="M8.81543 9.75317H11.5389V17.2995H8.81543V9.75317Z" fill="#FE8205"/>
<path d="M5.31934 7.87036H8.04284V17.2996H5.31934V7.87036Z" fill="#FE8205"/>
<path d="M19.1124 7.39707L17.8956 7.81334L18.4749 9.50706L6.38637 4.02832L5.85547 5.19975L17.9616 10.6864L16.1901 11.2924L16.6064 12.5093L20.4155 11.2062L19.1124 7.39707Z" fill="white"/>
<path d="M14.9923 3.01221C13.8559 3.01221 12.9346 3.93349 12.9346 5.06998C12.9346 6.20647 13.8559 7.12776 14.9923 7.12776C14.9992 7.12776 15.006 7.12729 15.0129 7.12724L15.4416 5.02981L15.0129 3.01276C15.0061 3.01264 14.9992 3.01221 14.9923 3.01221Z" fill="#FFCE00"/>
<path d="M14.9922 3.01221C16.1287 3.01221 17.05 3.93349 17.05 5.06998C17.05 6.20647 16.1287 7.12776 14.9922 7.12776V3.01221Z" fill="#FDBA12"/>
<path d="M14.9935 3.78662C14.2846 3.78662 13.71 4.36125 13.71 5.07012C13.71 5.77898 14.2846 6.35361 14.9935 6.35361C15.0004 6.35361 15.0072 6.35318 15.014 6.35309L15.4427 5.032L15.014 3.78718C15.0072 3.78701 15.0004 3.78662 14.9935 3.78662Z" fill="#FDBA12"/>
<path d="M14.9922 3.78662C15.701 3.78662 16.2757 4.36125 16.2757 5.07012C16.2757 5.77898 15.701 6.35361 14.9922 6.35361V3.78662Z" fill="#FF9500"/>
</g>
<defs>
<clipPath id="clip0_115_12977">
<rect width="21.9496" height="21.9496" fill="white" transform="translate(0.950195)"/>
</clipPath>
</defs>
</svg>
