<svg width="96" height="79" viewBox="0 0 96 79" fill="none" xmlns="http://www.w3.org/2000/svg">
<g opacity="0.3">
<mask id="mask0_172_979" style="mask-type:alpha" maskUnits="userSpaceOnUse" x="22" y="0" width="52" height="79">
<g opacity="0.3">
<path d="M47.8167 0.00729994L40.5367 0.0573925V1.65516C29.851 6.53511 22.114 21.703 22.194 39.6197C22.2854 57.5363 30.1826 72.5905 40.9254 77.3133L40.9369 78.9111L48.2169 78.861C62.4569 78.7608 73.931 61.0175 73.8167 39.2419C73.7025 17.4663 62.0569 -0.110508 47.8054 0.000523147L47.8167 0.00729994Z" fill="#EBE9E9"/>
</g>
</mask>
<g mask="url(#mask0_172_979)">
<path d="M47.8167 0.00729994L40.5367 0.0573925V1.65516C29.851 6.53511 22.114 21.703 22.194 39.6197C22.2854 57.5363 30.1826 72.5905 40.9254 77.3133L40.9369 78.9111L48.2169 78.861C62.4569 78.7608 73.931 61.0175 73.8167 39.2419C73.7025 17.4663 62.0569 -0.110508 47.8054 0.000523147L47.8167 0.00729994Z" fill="#F3F3F3"/>
<path d="M25.3022 58.0441C28.5707 67.3057 34.1822 74.3413 40.9251 77.3147L40.9365 78.9125L48.2051 78.8624C57.8051 78.792 66.1136 70.7192 70.4908 58.8294L25.2793 58.0508L25.3022 58.0441Z" fill="#181A20" stroke="#181A20" stroke-width="0.592" stroke-miterlimit="10"/>
<path d="M71.909 53.7328L64.1719 53.0666L64.7662 48.1704L72.869 48.8786L71.909 53.7328Z" fill="#181A20"/>
<path d="M47.8165 0.359396L48.2622 0.356689C62.0793 0.622081 73.4052 17.8116 73.5194 39.246C73.6337 60.9174 62.228 78.4142 48.2051 78.5131L41.2223 78.5605V77.3148V77.071L41.028 76.9871C30.4337 72.3278 22.5823 57.4348 22.4909 39.6211C22.4109 21.806 30.1023 6.7992 40.6509 1.9856L40.8336 1.89894V1.65656V0.408146L47.8165 0.359396Z" stroke="#181A20" stroke-width="0.592" stroke-miterlimit="10"/>
</g>
<path d="M40.4911 78.964C54.7425 78.8624 66.2054 61.1259 66.0911 39.3489C65.9882 17.5706 54.3425 -0.00211582 40.0911 0.099437C25.8397 0.20099 14.3768 17.9375 14.4911 39.7145C14.5939 61.4928 26.2397 79.0655 40.4911 78.964Z" fill="#D7F3EC"/>
<mask id="mask1_172_979" style="mask-type:alpha" maskUnits="userSpaceOnUse" x="14" y="0" width="53" height="79">
<g opacity="0.3">
<path d="M40.4911 78.9653C54.7425 78.8638 66.2054 61.1272 66.0911 39.3503C65.9882 17.5719 54.3425 -0.000773057 40.0911 0.10078C25.8397 0.202333 14.3768 17.9389 14.4911 39.7158C14.5939 61.4942 26.2397 79.0669 40.4911 78.9653Z" fill="url(#paint0_linear_172_979)"/>
</g>
</mask>
<g mask="url(#mask1_172_979)">
<path d="M30.0684 -15.9297L89.874 16.119L67.4512 65.93L13.2227 29.1516L30.0684 -15.9297Z" fill="white"/>
</g>
<path d="M60.1141 39.3109C60.2055 56.7212 51.0512 70.7409 39.8169 70.8207C28.5827 70.9006 19.2913 57.0123 19.1999 39.6007C19.1085 22.1891 28.2628 8.16944 39.4971 8.09091C50.7313 8.01237 60.0227 21.8994 60.1141 39.3109Z" stroke="#1D1D1D" stroke-opacity="0.21" stroke-width="0.592"/>
<path d="M65.7937 39.3501C65.908 61.0229 54.5137 78.513 40.4908 78.6132C26.4679 78.7134 14.8908 61.3844 14.788 39.713C14.6737 18.0403 26.068 0.548851 40.0908 0.450006C54.1137 0.351161 65.6908 17.6774 65.7937 39.3501Z" stroke="#181A20" stroke-width="0.592"/>
<path fill-rule="evenodd" clip-rule="evenodd" d="M46.4118 37.8324C44.9261 40.6908 41.2462 37.5914 40.0233 36.7112L42.6405 31.658C43.8748 32.5381 47.9661 34.8508 46.4118 37.8324ZM43.3491 46.4183C41.7148 49.5611 37.2805 45.8889 35.7948 44.8327L38.6975 39.2622C40.1718 40.3197 45.0519 43.1416 43.3491 46.4183ZM51.0633 39.6102C52.3662 36.435 50.6633 33.8353 48.0004 31.5347L50.1604 27.3765L47.989 25.818L45.8862 29.8666L44.1376 28.6479L46.2518 24.5723L44.0805 23.0138L41.9205 27.1693L40.5262 26.1985V26.185L37.5318 24.0334L36.1261 26.736L37.7033 27.868C38.5833 28.5004 38.5719 29.3006 38.3777 29.8747L32.469 41.2649C32.2633 41.56 31.8291 41.9554 31.2119 41.5167C31.2233 41.5655 29.6348 40.382 29.6348 40.382L27.6348 43.0955L30.469 45.1266L32.0119 46.2545L29.829 50.4601L32.0004 52.0186L34.1604 47.8577L35.8862 49.1237L33.7376 53.2643L35.909 54.8228L38.0919 50.6267C41.8748 53.0044 44.9948 53.768 47.3834 50.0011C49.3148 46.9681 48.7547 44.5999 46.9833 42.5295C48.629 42.6866 50.1033 41.9351 51.0633 39.6102Z" fill="url(#paint1_linear_172_979)"/>
<path d="M8.50293 12.4658C6.5715 14.7013 6.05722 18.1392 7.22294 21.0219C5.32579 18.7404 2.43429 18.1297 0 19.504C0.936707 18.4115 1.56319 17.0007 1.79255 15.4673C2.02191 13.9339 1.84278 12.3539 1.27999 10.9465C2.20013 12.06 3.39104 12.805 4.68611 13.0771C5.98117 13.3493 7.31569 13.1364 8.50293 12.4658ZM92.2401 59.2098C91.642 61.532 91.6706 64.0175 92.3221 66.3194C92.9737 68.6213 94.2155 70.6247 95.8743 72.0502C93.9143 71.3381 91.8154 71.3691 89.871 72.1388C87.9265 72.9086 86.2336 74.3787 85.0286 76.3438C85.6314 74.0233 85.6062 71.5375 84.9565 69.2348C84.3068 66.9321 83.0652 64.928 81.4057 63.5035C85.4171 64.9632 89.783 63.2381 92.2401 59.2098Z" fill="#F3BB2B"/>
</g>
<defs>
<linearGradient id="paint0_linear_172_979" x1="55563.2" y1="7107.22" x2="52887.1" y2="9879.35" gradientUnits="userSpaceOnUse">
<stop stop-color="#DBFDF1"/>
<stop offset="1" stop-color="#91EFCD"/>
</linearGradient>
<linearGradient id="paint1_linear_172_979" x1="25438" y1="3256.78" x2="25147.1" y2="3953.86" gradientUnits="userSpaceOnUse">
<stop stop-color="#000D1D"/>
<stop offset="1" stop-color="#2F3032"/>
</linearGradient>
</defs>
</svg>
