<svg width="20" height="20" viewBox="0 0 20 20" fill="none" xmlns="http://www.w3.org/2000/svg">
<path d="M10.0011 18.0071C14.4233 18.0071 18.0081 14.4223 18.0081 10.0002C18.0081 5.57802 14.4233 1.99316 10.0011 1.99316C5.57899 1.99316 1.99414 5.57802 1.99414 10.0002C1.99414 14.4223 5.57899 18.0071 10.0011 18.0071Z" fill="#E45561"/>
<path d="M10 20C8.6503 20 7.34062 19.7355 6.10738 19.2139C4.91652 18.7102 3.84716 17.9893 2.92895 17.071C2.01074 16.1528 1.28982 15.0835 0.786109 13.8926C0.264497 12.6594 0 11.3497 0 9.99998C0 8.65026 0.26446 7.34058 0.786109 6.10735C1.28978 4.91648 2.01074 3.84709 2.92895 2.92892C3.84716 2.01071 4.91652 1.28975 6.10738 0.786072C7.34062 0.26446 8.6503 0 10 0C11.3497 0 12.6594 0.264497 13.8927 0.786072C15.0835 1.28975 16.1529 2.01071 17.0711 2.92892C17.9893 3.84709 18.7102 4.91648 19.2139 6.10735C19.7356 7.34058 20 8.65022 20 9.99998C20 11.3497 19.7356 12.6594 19.2139 13.8926C18.7103 15.0835 17.9893 16.1528 17.0711 17.071C16.1529 17.9893 15.0835 18.7102 13.8927 19.2139C12.6595 19.7355 11.3497 20 10 20ZM10 1.16551C8.80713 1.16551 7.65018 1.399 6.56141 1.85952C5.50948 2.30444 4.56462 2.94154 3.75312 3.75308C2.94158 4.56462 2.30451 5.50948 1.85956 6.56141C1.39904 7.65018 1.16554 8.80713 1.16554 10C1.16554 11.1929 1.39904 12.3499 1.85956 13.4386C2.30451 14.4906 2.94158 15.4354 3.75312 16.2469C4.56466 17.0585 5.50948 17.6955 6.56141 18.1405C7.65018 18.601 8.80713 18.8345 10 18.8345C11.1929 18.8345 12.3499 18.601 13.4386 18.1405C14.4906 17.6955 15.4354 17.0585 16.2469 16.2469C17.0585 15.4354 17.6955 14.4906 18.1405 13.4386C18.601 12.3499 18.8345 11.1929 18.8345 10C18.8345 8.80713 18.601 7.65022 18.1405 6.56141C17.6955 5.50948 17.0585 4.56462 16.2469 3.75308C15.4354 2.94154 14.4906 2.30447 13.4386 1.85952C12.3499 1.39904 11.1929 1.16551 10 1.16551Z" fill="#E45561"/>
<path d="M10.8255 9.99986L13.6445 7.18082C13.872 6.95323 13.872 6.58428 13.6445 6.3567C13.4169 6.12915 13.0479 6.12915 12.8204 6.3567L10.0013 9.17573L7.18229 6.3567C6.9547 6.12915 6.58575 6.12915 6.35816 6.3567C6.13061 6.58428 6.13061 6.95323 6.35816 7.18082L9.1772 9.99986L6.35816 12.8189C6.13061 13.0465 6.13061 13.4154 6.35816 13.643C6.47196 13.7568 6.62107 13.8137 6.77022 13.8137C6.91938 13.8137 7.06849 13.7568 7.18229 13.643L10.0013 10.824L12.8204 13.643C12.9342 13.7568 13.0833 13.8137 13.2324 13.8137C13.3816 13.8137 13.5307 13.7568 13.6445 13.643C13.872 13.4154 13.872 13.0464 13.6445 12.8189L10.8255 9.99986Z" fill="black"/>
</svg>
