<svg width="2000" height="2000" viewBox="0 0 2000 2000" fill="none" xmlns="http://www.w3.org/2000/svg">
<g clip-path="url(#clip0_1_2)">
<path d="M2000 0H0V2000H2000V0Z" fill="black"/>
<path d="M1637.55 1132.27L1347.91 1367.05L1502.6 1136.66L1637.55 1132.27Z" fill="white"/>
<path d="M354.673 900.416C340.433 900.415 326.811 895.104 316.315 885.462C305.802 875.804 299.358 862.65 298.168 848.424L278.909 618.114C277.591 602.35 282.975 586.632 293.683 574.991C304.394 563.347 319.602 556.669 335.407 556.669C335.817 556.669 336.233 556.673 336.644 556.682L1372.03 578.884C1387.69 579.219 1402.66 586.109 1413.1 597.785C1423.54 609.461 1428.72 625.104 1427.31 640.703L1410.49 826.378C1407.89 855.141 1384.15 877.32 1355.28 877.968L355.961 900.402C355.53 900.411 355.103 900.416 354.673 900.416Z" fill="black"/>
<path d="M354.673 903.416C339.679 903.415 325.336 897.823 314.286 887.671C303.218 877.503 296.432 863.653 295.179 848.674L275.92 618.363C274.532 601.764 280.202 585.216 291.476 572.959C302.753 560.7 318.766 553.668 335.409 553.668C335.842 553.668 336.279 553.672 336.714 553.682L1372.1 575.884C1388.59 576.238 1404.35 583.491 1415.34 595.785C1426.33 608.078 1431.78 624.549 1430.3 640.973L1413.48 826.648C1410.74 856.933 1385.75 880.285 1355.35 880.967L356.03 903.4C355.575 903.411 355.125 903.416 354.673 903.416ZM335.408 559.669C320.439 559.669 306.035 565.994 295.891 577.022C285.749 588.047 280.649 602.933 281.898 617.864L301.157 848.175C302.284 861.65 308.387 874.107 318.344 883.254C328.284 892.386 341.187 897.416 354.672 897.418C355.079 897.418 355.485 897.414 355.894 897.404L1355.21 874.97C1382.56 874.357 1405.04 853.351 1407.51 826.109L1424.32 640.434C1425.66 625.66 1420.75 610.845 1410.87 599.786C1400.98 588.727 1386.8 582.203 1371.97 581.885L336.58 559.683C336.188 559.673 335.796 559.669 335.408 559.669Z" fill="#FBAE17"/>
<path d="M1371.71 594.239L336.316 572.038C311.767 571.512 292.168 592.365 294.214 616.834L313.473 847.144C315.295 868.931 333.759 885.537 355.616 885.046L1354.94 862.612C1375.97 862.14 1393.3 845.949 1395.2 824.993L1412.01 639.318C1414.17 615.453 1395.66 594.753 1371.71 594.239Z" fill="#FFBB09"/>
<path d="M1636.52 1133.86L705.39 1156.87C681.37 1157.46 662.58 1134.23 665.9 1108.04L676.5 1024.35V1024.34L694.59 881.56C697.32 859.99 714.3 844.1 734.07 844.58L990.72 850.84L1565.94 864.88C1584.82 865.34 1600.69 880.64 1603.6 901.18L1636.52 1133.86Z" fill="white"/>
<path d="M570.31 756.621L569.326 759.801C561.902 783.616 555.347 809.042 511.084 808.926C472.299 808.824 464.016 788.129 471.857 759L493.265 678.935C501.84 647.393 512.839 628.384 549.351 628.48C596.176 628.603 596.075 656.546 589.517 677.663L588.783 680.045L555.689 679.959L557.502 673.176C561.272 659.039 559.652 651.475 547.458 651.443C536.615 651.415 532.591 658.524 528.455 673.942L505.022 762.199C501.226 776.943 501.485 786.165 514.488 786.199C525.656 786.228 529.889 778.763 534.43 763.01L536.319 756.533L570.31 756.621Z" fill="#001C47"/>
<path d="M725.633 679.47L703.855 761.647C696.013 791.512 684.339 809.381 644.317 809.276C605.585 809.174 594.633 788.851 602.36 758.638L624.72 672.376C632.446 642.425 651.876 628.75 682.283 628.829C717.426 628.92 734.184 647.599 725.633 679.47ZM658.464 672.664L634.661 763.315C631.235 775.896 632.505 786.508 647.928 786.549C660.658 786.582 666.103 777.942 669.818 764.332L693.621 673.87C697.009 660.984 694.057 651.828 679.454 651.789C668.571 651.76 662.025 658.631 658.464 672.664Z" fill="#001C47"/>
<path d="M860.077 742.021C868.114 712.233 877.673 677.446 883.786 657.356L883.461 657.355C870.623 687.764 840.652 756.43 818.074 807.168L787.362 807.087C792.503 761.533 800.121 688.86 803.874 656.915L803.224 656.914C798.332 677.353 787.947 714.699 780.351 744.847L764.934 807.029L734.377 806.949L781.006 631.651L830.829 631.781C825.466 682.825 821.107 727.769 817.374 752.74L817.699 752.741C827.896 727.881 854.483 669.283 872.681 631.89L921.436 632.018L874.807 807.316L842.742 807.232L860.077 742.021Z" fill="#001C47"/>
<path d="M999.5 632.223L952.871 807.521L920.024 807.435L966.653 632.137L999.5 632.223Z" fill="#001C47"/>
<path d="M998.055 807.64L1044.68 632.342L1083.44 632.444C1085.08 685.427 1087.04 746.149 1086.73 754.403L1087.09 754.404C1091.86 731.455 1097.24 706.859 1104.8 678.054L1116.85 632.531L1148.02 632.613L1101.39 807.912L1063.82 807.813C1062.48 763.099 1059.99 690.586 1060.21 683.27L1059.89 683.269C1055.57 704.748 1050.36 728.262 1042.11 759.785L1029.51 807.724L998.055 807.64Z" fill="#001C47"/>
<path d="M1243.88 808.285L1217.23 808.215C1217.28 805.127 1218.35 799.111 1219.66 795.145C1211.18 806.792 1197.65 810.727 1185.96 810.696C1152.8 810.609 1148.62 788.001 1156.25 759.051L1177.83 678.207C1185.5 649.069 1197.53 629.717 1235.94 630.28C1281.33 630.862 1282.66 658.798 1277.9 677.156L1276.92 681.03L1243.54 680.943L1244.78 675.084C1247.39 663.024 1247.07 653.278 1233.1 653.241C1222.86 653.214 1217.02 657.934 1212.07 676.805L1189.7 761.988C1185.44 777.74 1186.05 787.929 1199.92 787.966C1214.36 788.004 1219.73 777.875 1225.46 756.141L1231.08 734.297L1211.76 734.246L1217.82 711.063L1269.95 711.2L1243.88 808.285Z" fill="#001C47"/>
<path d="M900.271 1034.72L899.375 1039.41C896.702 1053.54 899.028 1062.1 911.715 1062.1C922.504 1062.1 928.042 1054.87 931.133 1041.02C934.558 1025.27 932.255 1015.57 913.513 996.947C892.229 975.853 886.38 964.604 891.489 940.244C896.49 916.094 912.01 903.594 937.281 903.594C976.57 903.594 980.699 928.786 976.677 949.552L976.009 952.986H945.67L946.338 949.521C948.833 936.602 948.761 925.869 936.649 925.869C927.699 925.869 923.044 931.182 921.075 941.789C918.772 954.161 921.111 961.785 935.243 976.091C961.924 1002.86 967.212 1018.18 961.28 1043.46C954.965 1069.95 939.827 1084.14 908.945 1084.14C873.992 1084.14 863.032 1065.13 869.263 1037.47L869.895 1034.72H900.271V1034.72Z" fill="#FFBB09"/>
<path d="M1109.14 954.121L1089.35 1036.35C1082.22 1066.24 1071.55 1084.14 1034.82 1084.14C999.266 1084.14 989.167 1063.84 996.185 1033.61L1016.5 947.291C1023.52 917.32 1041.32 903.593 1069.23 903.593C1101.48 903.594 1116.91 922.228 1109.14 954.121ZM1047.47 947.491L1025.84 1038.2C1022.73 1050.79 1023.92 1061.4 1038.07 1061.4C1049.76 1061.4 1054.74 1052.75 1058.11 1039.13L1079.74 948.605C1082.82 935.71 1080.09 926.562 1066.68 926.562C1056.7 926.561 1050.7 933.45 1047.47 947.491Z" fill="#FFBB09"/>
<path d="M1241.63 954.121L1221.84 1036.35C1214.71 1066.24 1204.04 1084.14 1167.31 1084.14C1131.76 1084.14 1121.66 1063.84 1128.68 1033.61L1148.99 947.291C1156.01 917.32 1173.81 903.593 1201.72 903.593C1233.98 903.594 1249.4 922.228 1241.63 954.121ZM1179.96 947.491L1158.34 1038.2C1155.22 1050.79 1156.41 1061.4 1170.57 1061.4C1182.25 1061.4 1187.23 1052.75 1190.61 1039.13L1212.23 948.605C1215.31 935.71 1212.58 926.562 1199.18 926.562C1189.19 926.561 1183.2 933.45 1179.96 947.491Z" fill="#FFBB09"/>
<path d="M1252.05 1081.58L1294.43 906.157H1329.99C1331.63 959.136 1333.57 1019.85 1333.31 1028.11H1333.64C1337.96 1005.15 1342.84 980.536 1349.71 951.712L1360.66 906.157H1389.27L1346.9 1081.58H1312.41C1311.08 1036.87 1308.61 964.36 1308.8 957.043H1308.5C1304.59 978.534 1299.86 1002.06 1292.36 1033.6L1280.92 1081.58L1252.05 1081.58Z" fill="#FFBB09"/>
<path d="M1313.59 1443.48C1665.62 1443.48 1951 1425.31 1951 1402.89C1951 1380.47 1665.62 1362.3 1313.59 1362.3C961.555 1362.3 676.176 1380.47 676.176 1402.89C676.176 1425.31 961.555 1443.48 1313.59 1443.48Z" fill="url(#paint0_radial_1_2)"/>
<path d="M479.555 1098.76L470.636 1103.68L440.692 1048.13L449.611 1043.22C456.179 1039.6 464.406 1042.04 467.986 1048.69L484.964 1080.18C488.545 1086.82 486.123 1095.14 479.555 1098.76Z" fill="white"/>
<path d="M401.169 976.363L513.032 1180.66C513.032 1180.66 439.634 1137.52 351.723 1188.47L306.443 1104.37C306.443 1104.37 389.477 1079.33 401.169 976.363Z" fill="white"/>
<path d="M294.482 1113.79L343.248 1198.96L299.26 1218.88C289.075 1223.5 277.095 1219.42 271.737 1209.52L249.979 1169.32C244.776 1159.71 247.501 1147.68 256.325 1141.31L294.482 1113.79Z" fill="white"/>
<path d="M342.817 1198.36L346.483 1220.06C347.469 1225.9 349.486 1231.51 352.437 1236.63L371.843 1270.28C375.68 1276.93 373.374 1285.48 366.726 1289.24C360.222 1292.91 352.002 1290.62 348.282 1284.09L308.339 1213.98L342.817 1198.36Z" fill="white"/>
<path d="M275.108 1214.07L267.384 1218.33C261.696 1221.46 254.571 1219.34 251.47 1213.59L234.939 1182.93C231.838 1177.18 233.935 1169.97 239.623 1166.84L247.347 1162.58L275.108 1214.07Z" fill="white"/>
<path d="M493.994 935.642L464.52 1001.5L470.91 1004.36L500.383 938.501L493.994 935.642Z" fill="white"/>
<path d="M573.417 997.755L498.409 1036.98L501.652 1043.18L576.661 1003.96L573.417 997.755Z" fill="white"/>
<path d="M514.901 1091.73L513.518 1098.59L587.748 1113.56L589.131 1106.69L514.901 1091.73Z" fill="white"/>
</g>
<defs>
<radialGradient id="paint0_radial_1_2" cx="0" cy="0" r="1" gradientUnits="userSpaceOnUse" gradientTransform="translate(1313.62 1402.92) scale(461.83 38.8368)">
<stop stop-color="#B1B1B1"/>
<stop offset="1" stop-color="white" stop-opacity="0"/>
</radialGradient>
<clipPath id="clip0_1_2">
<rect width="2000" height="2000" fill="white"/>
</clipPath>
</defs>
</svg>
