<svg width="59" height="58" viewBox="0 0 59 58" fill="none" xmlns="http://www.w3.org/2000/svg">
<g clip-path="url(#clip0_0_5995)">
<g clip-path="url(#clip1_0_5995)">
<g clip-path="url(#clip2_0_5995)">
<path d="M27.7347 41.2598C27.4399 41.2598 27.1509 41.3795 26.9424 41.588C26.7342 41.7964 26.6142 42.0844 26.6142 42.3801C26.6142 42.6749 26.7341 42.9639 26.9424 43.1721C27.1509 43.3806 27.4399 43.5006 27.7347 43.5006C28.0293 43.5006 28.3184 43.3807 28.5268 43.1721C28.735 42.9626 28.8551 42.6749 28.8551 42.3801C28.8551 42.0842 28.7352 41.7964 28.5268 41.588C28.3184 41.3795 28.0293 41.2598 27.7347 41.2598Z" fill="white"/>
<path d="M49.1172 37.9131C48.8213 37.9131 48.5323 38.0329 48.324 38.2413C48.1156 38.4497 47.9967 38.7377 47.9967 39.0335C47.9967 39.3282 48.1156 39.6172 48.324 39.8256C48.5323 40.0339 48.8213 40.1539 49.1172 40.1539C49.4119 40.1539 49.6998 40.034 49.9093 39.8256C50.1177 39.616 50.2376 39.3282 50.2376 39.0335C50.2376 38.7388 50.1178 38.4497 49.9093 38.2413C49.6998 38.0329 49.4117 37.9131 49.1172 37.9131Z" fill="white"/>
<path d="M15.971 32.5215C15.6763 32.5215 15.3872 32.6413 15.1789 32.8499C14.9705 33.0582 14.8505 33.3473 14.8505 33.642C14.8505 33.9366 14.9704 34.2257 15.1789 34.434C15.3872 34.6424 15.6763 34.7625 15.971 34.7625C16.2656 34.7625 16.5548 34.6426 16.7631 34.434C16.9715 34.2257 17.0914 33.9366 17.0914 33.642C17.0914 33.3473 16.9716 33.0582 16.7631 32.8499C16.5547 32.6414 16.2656 32.5215 15.971 32.5215Z" fill="white"/>
<path d="M58.1063 12.5257C58.1063 11.9069 57.6046 11.4052 56.9858 11.4052H55.2605C55.0249 10.6184 54.7107 9.85937 54.321 9.13579L55.5408 7.91596C55.9782 7.47843 55.9782 6.76897 55.5408 6.33144L52.1397 2.93056C51.7021 2.49303 50.9928 2.49303 50.5551 2.93056L49.3354 4.15027C48.6117 3.76059 47.8529 3.44641 47.066 3.21067V1.48519C47.066 0.86648 46.5643 0.364746 45.9455 0.364746H41.1358C40.5171 0.364746 40.0154 0.866368 40.0154 1.48519V3.21481C39.23 3.451 38.4727 3.76539 37.7507 4.15498L36.5262 2.93045C36.0885 2.49291 35.3794 2.49291 34.9415 2.93045L31.5406 6.33144C31.2739 6.59822 31.1707 6.96583 31.2291 7.31138H5.22536C2.7521 7.31149 0.739899 9.32369 0.739899 11.7971V42.7137C0.739899 45.187 2.7521 47.1992 5.22536 47.1992H23.0286V51.0087H20.3436C18.1173 51.0087 16.306 52.82 16.306 55.0464V56.6109C16.306 57.2297 16.8077 57.7314 17.4264 57.7314H38.0424C38.6612 57.7314 39.1629 57.2297 39.1629 56.6109V55.0464C39.1629 52.82 37.3517 51.0087 35.1255 51.0087H32.4402V47.1992H50.2333C52.7067 47.1992 54.7189 45.187 54.7189 42.7137V24.3512L55.5408 23.5294C55.7508 23.3193 55.8689 23.0343 55.8689 22.7372C55.8689 22.44 55.7508 22.155 55.5408 21.9449L54.3162 20.7205C54.7058 19.9984 55.0202 19.2411 55.2564 18.4559H56.986C57.2832 18.4559 57.5683 18.3377 57.7784 18.1276C57.9885 17.9176 58.1065 17.6326 58.1065 17.3354L58.1063 12.5257ZM36.9221 55.0464V55.4905H18.5468V55.0464C18.5468 54.0556 19.3527 53.2497 20.3436 53.2497H35.1255C36.116 53.2497 36.9221 54.0556 36.9221 55.0464ZM30.1994 51.0087H25.2694V47.1992H30.1994V51.0087ZM52.4779 42.7137C52.4779 43.9515 51.471 44.9584 50.2333 44.9584H5.22536C3.98772 44.9584 2.98078 43.9515 2.98078 42.7137V40.1536H44.6355C45.2542 40.1536 45.756 39.6518 45.756 39.0331C45.756 38.4144 45.2542 37.9127 44.6355 37.9127H2.98078V34.7624H11.5334C12.1521 34.7624 12.6539 34.2606 12.6539 33.6419C12.6539 33.0231 12.1521 32.5214 11.5334 32.5214H2.98078V11.7971C2.98078 10.5593 3.98772 9.55237 5.22536 9.55237H32.5614C32.2691 10.1492 32.0257 10.7679 31.8348 11.4052H30.0956C29.7984 11.4052 29.5134 11.5233 29.3033 11.7334C29.0932 11.9435 28.975 12.2285 28.975 12.5257L28.9751 17.3353C28.9751 17.9542 29.4768 18.4558 30.0956 18.4558H31.8389C32.0742 19.2377 32.387 19.9918 32.7743 20.7113L31.5408 21.945C31.1033 22.3825 31.1033 23.092 31.5408 23.5295L34.9418 26.9304C35.3794 27.3679 36.0886 27.3679 36.5265 26.9304L37.76 25.6968C38.4795 26.0843 39.2337 26.3972 40.0156 26.6322L40.0155 28.3758C40.0155 28.9945 40.5172 29.4962 41.1359 29.4962L45.9456 29.4961C46.5644 29.4961 47.0661 28.9945 47.0661 28.3757V26.6363C47.8496 26.4017 48.6055 26.0891 49.3265 25.7016L50.5552 26.9304C50.7654 27.1405 51.0503 27.2586 51.3475 27.2586C51.6446 27.2586 51.9295 27.1405 52.1397 26.9304L52.4779 26.5922V42.7137ZM55.8656 16.2148H54.3914C53.866 16.2148 53.4111 16.58 53.2974 17.0931C53.045 18.2328 52.5977 19.3103 51.9681 20.2951C51.6845 20.7375 51.7463 21.3196 52.1192 21.6925L53.1639 22.7373L51.3475 24.5536L50.2995 23.5056C49.9584 23.1648 49.4373 23.08 49.0058 23.2957C48.971 23.313 48.9374 23.3322 48.9048 23.3528C47.9202 23.9802 46.8435 24.4252 45.7047 24.676C45.191 24.789 44.825 25.2442 44.825 25.7702V27.2554H42.2562V25.7673C42.2562 25.2418 41.8911 24.7869 41.3781 24.6733C40.241 24.4216 39.1658 23.9756 38.1825 23.348C38.0026 23.233 37.7932 23.172 37.5797 23.172C37.2826 23.172 36.9973 23.2902 36.7871 23.5003L35.7339 24.5536L33.9175 22.7372L34.9708 21.6839C35.3437 21.311 35.4055 20.7291 35.1219 20.2867C34.495 19.3039 34.0496 18.2295 33.7979 17.0931C33.6843 16.58 33.2294 16.2148 32.7039 16.2148H31.2158L31.2159 13.6462H32.7009C33.2269 13.6462 33.6821 13.2802 33.7952 12.7665C34.0456 11.6289 34.4902 10.5533 35.1166 9.56896C35.4001 9.1266 35.3384 8.54453 34.9655 8.17176L33.9174 7.12371L35.7339 5.30735L36.7787 6.35206C37.1628 6.73614 37.7566 6.78287 38.1918 6.49301C39.1722 5.8687 40.2441 5.42488 41.3781 5.17391C41.8909 5.0603 42.2562 4.60539 42.2562 4.08002L42.2564 2.60562H44.8251V4.07677C44.8251 4.60271 45.1911 5.05795 45.7048 5.17099C46.8467 5.42242 47.926 5.86914 48.9125 6.49894C48.9455 6.52 48.9795 6.53916 49.0144 6.55665C49.4454 6.77222 49.9671 6.68773 50.3081 6.34667L51.3475 5.30724L53.1638 7.12371L52.1245 8.16303C52.0722 8.21523 52.0254 8.27238 51.9846 8.33377C51.7372 8.70465 51.7337 9.18644 51.9736 9.56055C52.6027 10.5466 53.0491 11.6252 53.3001 12.7663C53.4131 13.2799 53.8683 13.6459 54.3945 13.6459H55.8657L55.8656 16.2148Z" fill="white"/>
<path d="M43.5408 7.98364C39.7104 7.98364 36.5941 11.0999 36.5941 14.9304C36.5941 18.7609 39.7104 21.8771 43.5408 21.8771C47.3713 21.8771 50.4876 18.7609 50.4876 14.9304C50.4876 11.0999 47.3713 7.98364 43.5408 7.98364ZM43.5408 19.6363C40.946 19.6363 38.8351 17.5252 38.8351 14.9304C38.8351 12.3356 40.946 10.2245 43.5408 10.2245C46.1356 10.2245 48.2467 12.3356 48.2467 14.9304C48.2467 17.5252 46.1356 19.6363 43.5408 19.6363Z" fill="white"/>
<path d="M19.0782 21.3416C18.7823 21.3416 18.4944 21.4614 18.286 21.6698C18.0765 21.8783 17.9577 22.1673 17.9577 22.4631C17.9577 22.7578 18.0765 23.0468 18.286 23.2553C18.4944 23.4637 18.7824 23.5824 19.0782 23.5824C19.3728 23.5824 19.662 23.4637 19.8703 23.2553C20.0785 23.0468 20.1986 22.7578 20.1986 22.4631C20.1986 22.1673 20.0787 21.8783 19.8703 21.6698C19.662 21.4614 19.3728 21.3416 19.0782 21.3416Z" fill="white"/>
<path d="M27.8231 20.5127C27.9 20.2257 27.8598 19.9199 27.7112 19.6626L25.8192 16.386C25.5099 15.8502 24.8247 15.6664 24.2888 15.9758L23.2111 16.598C22.8572 16.3478 22.4827 16.1312 22.0901 15.9498V14.7064C22.0901 14.0876 21.5883 13.5859 20.9696 13.5859H17.186C16.5673 13.5859 16.0655 14.0876 16.0655 14.7064V15.9498C15.6728 16.1313 15.2983 16.3478 14.9444 16.598L13.8668 15.9758C13.6094 15.8274 13.3036 15.7872 13.0166 15.864C12.7294 15.941 12.4848 16.1287 12.3362 16.386L10.4445 19.6626C10.135 20.1985 10.3187 20.8837 10.8546 21.1931L11.9327 21.8156C11.9134 22.0305 11.9036 22.2467 11.9036 22.4626C11.9036 22.6784 11.9134 22.8946 11.9327 23.1095L10.8546 23.732C10.3187 24.0414 10.135 24.7267 10.4445 25.2626L12.3362 28.5391C12.4848 28.7966 12.7295 28.9843 13.0166 29.0612C13.3036 29.138 13.6094 29.098 13.8668 28.9493L14.9444 28.3271C15.2983 28.5773 15.6728 28.7939 16.0655 28.9753V30.2187C16.0655 30.8375 16.5673 31.3392 17.186 31.3392H20.9696C21.5883 31.3392 22.0901 30.8375 22.0901 30.2187V28.9753C22.4827 28.7938 22.8572 28.5773 23.2111 28.3271L24.2888 28.9493C24.8248 29.2586 25.5098 29.075 25.8192 28.5391L27.7112 25.2626C27.8598 25.0052 27.9 24.6995 27.8231 24.4124C27.7461 24.1253 27.5585 23.8806 27.301 23.732L26.2229 23.1097C26.2423 22.8947 26.252 22.6786 26.252 22.4629C26.252 22.247 26.2423 22.0309 26.2229 21.8158L27.301 21.1932C27.5584 21.0445 27.7461 20.7998 27.8231 20.5127ZM23.9075 21.453C23.9762 21.7835 24.011 22.1232 24.011 22.4627C24.011 22.8022 23.9762 23.1418 23.9075 23.4724C23.8093 23.9458 24.0258 24.4288 24.4444 24.6705L25.2102 25.1126L24.4388 26.4487L23.6718 26.0058C23.2528 25.764 22.7256 25.8183 22.3646 26.1411C21.8537 26.598 21.2666 26.9374 20.6195 27.1502C20.1597 27.3013 19.849 27.7306 19.849 28.2145V29.0986H18.3063V28.2145C18.3063 27.7306 17.9956 27.3013 17.5357 27.1502C16.8887 26.9374 16.3015 26.598 15.7906 26.1411C15.4299 25.8183 14.9027 25.7638 14.4836 26.0058L13.7165 26.4487L12.9452 25.1126L13.7109 24.6705C14.1295 24.4288 14.346 23.9458 14.2477 23.4724C14.1793 23.1422 14.1444 22.8025 14.1444 22.4627C14.1444 22.1229 14.1793 21.7833 14.2477 21.453C14.346 20.9796 14.1296 20.4967 13.7109 20.2548L12.9452 19.8127L13.7165 18.4768L14.4836 18.9197C14.9025 19.1616 15.4298 19.1071 15.7906 18.7844C16.3016 18.3275 16.8887 17.988 17.5357 17.7753C17.9956 17.6242 18.3063 17.1949 18.3063 16.7109V15.8269H19.849V16.7109C19.849 17.1949 20.1597 17.6242 20.6195 17.7753C21.2666 17.988 21.8538 18.3276 22.3646 18.7844C22.7253 19.1069 23.2524 19.1615 23.6718 18.9197L24.4388 18.4767L25.2102 19.8127L24.4444 20.2548C24.0258 20.4967 23.8093 20.9797 23.9075 21.453Z" fill="white"/>
</g>
</g>
</g>
<defs>
<clipPath id="clip0_0_5995">
<rect width="57.3666" height="57.3666" fill="white" transform="translate(0.739899 0.364746)"/>
</clipPath>
<clipPath id="clip1_0_5995">
<rect width="57.3666" height="57.3666" fill="white" transform="translate(0.739899 0.364746)"/>
</clipPath>
<clipPath id="clip2_0_5995">
<rect width="57.3666" height="57.3666" fill="white" transform="translate(0.739899 0.364746)"/>
</clipPath>
</defs>
</svg>
