<svg width="80" height="77" viewBox="0 0 80 77" fill="none" xmlns="http://www.w3.org/2000/svg">
<path opacity="0.43" d="M47.5557 73.5613C60.8549 73.5613 71.6361 68.0269 71.6361 61.1997C71.6361 54.3726 60.8549 48.8381 47.5557 48.8381C34.2564 48.8381 23.4752 54.3726 23.4752 61.1997C23.4752 68.0269 34.2564 73.5613 47.5557 73.5613Z" fill="#8A2AE3"/>
<path opacity="0.43" d="M47.556 69.4035C59.3058 69.4035 68.8309 64.5141 68.8309 58.4827C68.8309 52.4514 59.3058 47.562 47.556 47.562C35.8062 47.562 26.2811 52.4514 26.2811 58.4827C26.2811 64.5141 35.8062 69.4035 47.556 69.4035Z" fill="#8A2AE3"/>
<path d="M47.556 67.5879C58.4208 67.5879 67.2285 63.0667 67.2285 57.4896C67.2285 51.9125 58.4208 47.3914 47.556 47.3914C36.6911 47.3914 27.8834 51.9125 27.8834 57.4896C27.8834 63.0667 36.6911 67.5879 47.556 67.5879Z" fill="#721BD5"/>
<path d="M47.5554 66.0558C57.7086 66.0558 65.9394 61.8307 65.9394 56.6186C65.9394 51.4066 57.7086 47.1814 47.5554 47.1814C37.4022 47.1814 29.1714 51.4066 29.1714 56.6186C29.1714 61.8307 37.4022 66.0558 47.5554 66.0558Z" fill="#410890"/>
<path d="M47.5556 62.2205C55.441 62.2205 61.8333 58.9391 61.8333 54.8912C61.8333 50.8434 55.441 47.562 47.5556 47.562C39.6703 47.562 33.278 50.8434 33.278 54.8912C33.278 58.9391 39.6703 62.2205 47.5556 62.2205Z" fill="#1A0034"/>
<mask id="mask0_43_552" style="mask-type:luminance" maskUnits="userSpaceOnUse" x="33" y="47" width="29" height="16">
<path d="M47.5549 62.2205C55.4402 62.2205 61.8326 58.9391 61.8326 54.8912C61.8326 50.8434 55.4402 47.562 47.5549 47.562C39.6696 47.562 33.2772 50.8434 33.2772 54.8912C33.2772 58.9391 39.6696 62.2205 47.5549 62.2205Z" fill="white"/>
</mask>
<g mask="url(#mask0_43_552)">
<path d="M47.5547 67.594C47.5273 67.594 47.506 67.5727 47.506 67.5453V58.4066L44.3379 55.2385C44.3287 55.2294 44.3226 55.2172 44.3226 55.205V52.5578H40.3229C40.3108 52.5578 40.2986 52.5517 40.2894 52.5426L38.3916 50.6418C38.3734 50.6235 38.3734 50.593 38.3916 50.5747C38.4099 50.5565 38.4404 50.5565 38.4587 50.5747L40.3443 52.4604H44.3714C44.3988 52.4604 44.4201 52.4817 44.4201 52.5091V55.1867L47.5882 58.3548C47.5973 58.364 47.6034 58.3761 47.6034 58.3883V67.5483C47.6034 67.5727 47.5821 67.594 47.5547 67.594Z" fill="#8A2AE3"/>
<path d="M45.0596 63.2141C45.0536 63.2141 45.0505 63.2141 45.0444 63.2111C45.0201 63.2019 45.0079 63.1775 45.014 63.1501C45.0383 63.0466 45.0261 61.429 45.0109 60.3537L42.9669 58.3097C42.9578 58.3005 42.9517 58.2883 42.9517 58.2762V56.2778L40.7797 54.1059C40.7614 54.0876 40.7614 54.0571 40.7797 54.0389C40.798 54.0206 40.8284 54.0206 40.8467 54.0389L43.0309 56.223C43.04 56.2321 43.0461 56.2443 43.0461 56.2565V58.2548L45.0901 60.2989C45.0993 60.308 45.1053 60.3202 45.1053 60.3324C45.1114 60.7863 45.1419 63.0648 45.1023 63.1776C45.0993 63.2019 45.081 63.2141 45.0596 63.2141Z" fill="#8A2AE3"/>
<path d="M43.8325 60.1223L42.4282 58.718V56.7196C42.4282 56.7075 42.4221 56.6953 42.4129 56.6861L40.2288 54.502C40.2105 54.4837 40.1801 54.4837 40.1618 54.502C40.1435 54.5203 40.1435 54.5507 40.1618 54.569L42.3337 56.741V58.7393C42.3337 58.7515 42.3398 58.7637 42.349 58.7728L43.7655 60.1893C43.8142 60.238 43.8812 60.1741 43.8325 60.1223Z" fill="#8A2AE3"/>
<path d="M43.8138 64.1313C43.8077 64.1313 43.8047 64.1313 43.7986 64.1283C43.7742 64.1192 43.759 64.0948 43.7681 64.0674C43.7925 63.9638 43.7803 62.3462 43.7651 61.2709L41.721 59.2269C41.7119 59.2178 41.7058 59.2056 41.7058 59.1934V57.1951L39.5338 55.0231C39.5156 55.0048 39.5156 54.9744 39.5338 54.9561C39.5521 54.9378 39.5826 54.9378 39.6009 54.9561L41.785 57.1402C41.7941 57.1494 41.8002 57.1616 41.8002 57.1737V59.1721L43.8443 61.2161C43.8534 61.2252 43.8595 61.2374 43.8595 61.2496C43.8656 61.7035 43.8961 63.979 43.8565 64.0948C43.8534 64.1161 43.8351 64.1313 43.8138 64.1313Z" fill="#8A2AE3"/>
<path d="M43.1929 64.5876C43.1869 64.5876 43.1838 64.5876 43.1777 64.5846C43.1534 64.5755 43.1412 64.5511 43.1473 64.5237C43.1716 64.4201 43.1594 62.8025 43.1442 61.7272L41.1002 59.6832C41.0911 59.6741 41.085 59.6619 41.085 59.6497V57.6514L38.913 55.4794C38.8947 55.4611 38.8947 55.4307 38.913 55.4124C38.9313 55.3941 38.9617 55.3941 38.98 55.4124L41.1642 57.5965C41.1733 57.6057 41.1794 57.6179 41.1794 57.63V59.6284L43.2234 61.6693C43.2326 61.6785 43.2387 61.6907 43.2387 61.7029C43.2447 62.1567 43.2752 64.4353 43.2356 64.548C43.2326 64.5755 43.2143 64.5876 43.1929 64.5876Z" fill="#8A2AE3"/>
<path d="M38.4403 55.9603C38.1326 55.9603 37.8828 55.7105 37.8828 55.4028C37.8828 55.0951 38.1326 54.8423 38.4403 54.8423C38.7479 54.8423 38.9977 55.0921 38.9977 55.4028C38.9977 55.7105 38.7479 55.9603 38.4403 55.9603Z" fill="#8A2AE3"/>
<path d="M39.3179 55.2936C39.1504 55.2936 39.0133 55.1565 39.0133 54.9889C39.0133 54.8214 39.1504 54.6843 39.3179 54.6843C39.4855 54.6843 39.6226 54.8214 39.6226 54.9889C39.6226 55.1595 39.4855 55.2936 39.3179 55.2936ZM39.3179 54.7818C39.2022 54.7818 39.1108 54.8762 39.1108 54.9889C39.1108 55.1047 39.2052 55.1961 39.3179 55.1961C39.4306 55.1961 39.5251 55.1017 39.5251 54.9889C39.5251 54.8762 39.4337 54.7818 39.3179 54.7818Z" fill="#8A2AE3"/>
<path d="M39.9393 54.8368C39.7717 54.8368 39.6346 54.6997 39.6346 54.5322C39.6346 54.3646 39.7717 54.2275 39.9393 54.2275C40.1068 54.2275 40.2439 54.3646 40.2439 54.5322C40.2439 54.6997 40.1068 54.8368 39.9393 54.8368Z" fill="#8A2AE3"/>
<path d="M40.5639 54.3793C40.3964 54.3793 40.2593 54.2422 40.2593 54.0746C40.2593 53.9071 40.3964 53.77 40.5639 53.77C40.7314 53.77 40.8685 53.9071 40.8685 54.0746C40.8655 54.2422 40.7314 54.3793 40.5639 54.3793ZM40.5639 53.8675C40.4481 53.8675 40.3567 53.9619 40.3567 54.0746C40.3567 54.1904 40.4512 54.2818 40.5639 54.2818C40.6797 54.2818 40.771 54.1874 40.771 54.0746C40.771 53.9589 40.6797 53.8675 40.5639 53.8675Z" fill="#8A2AE3"/>
<path d="M37.9289 58.6019C37.7613 58.6019 37.6243 58.4648 37.6243 58.2973C37.6243 58.1298 37.7613 57.9927 37.9289 57.9927C38.0964 57.9927 38.2335 58.1298 38.2335 58.2973C38.2305 58.4648 38.0964 58.6019 37.9289 58.6019ZM37.9289 58.0902C37.8131 58.0902 37.7217 58.1846 37.7217 58.2973C37.7217 58.4131 37.8162 58.5044 37.9289 58.5044C38.0446 58.5044 38.136 58.41 38.136 58.2973C38.136 58.1815 38.0446 58.0902 37.9289 58.0902Z" fill="#8A2AE3"/>
<path d="M38.572 59.1803C38.4044 59.1803 38.2673 59.0432 38.2673 58.8757C38.2673 58.7081 38.4044 58.571 38.572 58.571C38.7395 58.571 38.8766 58.7081 38.8766 58.8757C38.8735 59.0432 38.7395 59.1803 38.572 59.1803ZM38.572 58.6685C38.4562 58.6685 38.3648 58.763 38.3648 58.8757C38.3648 58.9914 38.4592 59.0828 38.572 59.0828C38.6877 59.0828 38.7791 58.9884 38.7791 58.8757C38.7791 58.7599 38.6847 58.6685 38.572 58.6685Z" fill="#8A2AE3"/>
<path d="M39.2176 59.827C39.05 59.827 38.913 59.6899 38.913 59.5224C38.913 59.3549 39.05 59.2178 39.2176 59.2178C39.3851 59.2178 39.5222 59.3549 39.5222 59.5224C39.5222 59.693 39.3851 59.827 39.2176 59.827ZM39.2176 59.3152C39.1018 59.3152 39.0104 59.4097 39.0104 59.5224C39.0104 59.6382 39.1049 59.7295 39.2176 59.7295C39.3303 59.7295 39.4247 59.6351 39.4247 59.5224C39.4278 59.4097 39.3333 59.3152 39.2176 59.3152Z" fill="#8A2AE3"/>
<path d="M52.2583 63.2051C52.2461 63.2051 52.2339 63.2021 52.2248 63.1899L49.7512 60.7163C49.7421 60.7072 49.736 60.695 49.736 60.6828V56.9969H47.9509C47.9387 56.9969 47.9265 56.9908 47.9174 56.9817L45.0418 54.106C45.0326 54.0969 45.0265 54.0847 45.0265 54.0725V51.5472H43.5491C43.5217 51.5472 43.5004 51.5259 43.5004 51.4984C43.5004 51.471 43.5217 51.4497 43.5491 51.4497H45.0753C45.1027 51.4497 45.124 51.471 45.124 51.4984V54.0512L47.9722 56.8994H49.7847C49.8122 56.8994 49.8335 56.9207 49.8335 56.9482V60.6615L52.2948 63.1198C52.3131 63.1381 52.3131 63.1686 52.2948 63.1868C52.2826 63.2021 52.2705 63.2051 52.2583 63.2051Z" fill="#8A2AE3"/>
<path d="M53.1596 62.3155C53.1475 62.3155 53.1353 62.3124 53.1261 62.3002L50.6526 59.8267C50.6435 59.8176 50.6374 59.8054 50.6374 59.7932V56.1072H48.8523C48.8401 56.1072 48.8279 56.1012 48.8188 56.092L45.9431 53.2164C45.934 53.2072 45.9279 53.195 45.9279 53.1829V50.6575H44.4505C44.4231 50.6575 44.4017 50.6362 44.4017 50.6088C44.4017 50.5814 44.4231 50.5601 44.4505 50.5601H45.9766C46.0041 50.5601 46.0254 50.5814 46.0254 50.6088V53.1615L48.8706 56.0098H50.6831C50.7105 56.0098 50.7318 56.0311 50.7318 56.0585V59.7719L53.1932 62.2302C53.2114 62.2484 53.2114 62.2789 53.1932 62.2972C53.184 62.3094 53.1718 62.3155 53.1596 62.3155Z" fill="#8A2AE3"/>
<path d="M50.1046 54.4162C50.0924 54.4162 50.0802 54.4131 50.0711 54.4009L48.7734 53.1032C48.7643 53.0941 48.7582 53.0819 48.7582 53.0697V50.3129C48.7582 50.2855 48.7795 50.2642 48.8069 50.2642C48.8343 50.2642 48.8557 50.2855 48.8557 50.3129V53.0484L50.1381 54.3309C50.1564 54.3492 50.1564 54.3796 50.1381 54.3979C50.129 54.4101 50.1168 54.4162 50.1046 54.4162Z" fill="#8A2AE3"/>
<path d="M50.753 54.1234C50.7409 54.1234 50.7287 54.1203 50.7195 54.1081L49.4218 52.8104C49.4127 52.8013 49.4066 52.7891 49.4066 52.7769V48.829C49.4066 48.8016 49.4279 48.7803 49.4554 48.7803C49.4828 48.7803 49.5041 48.8016 49.5041 48.829V52.7556L50.7866 54.0381C50.8048 54.0563 50.8048 54.0868 50.7866 54.1051C50.7774 54.1173 50.7652 54.1234 50.753 54.1234Z" fill="#8A2AE3"/>
<path d="M50.5401 52.9696C50.528 52.9696 50.5158 52.9665 50.5066 52.9543L50.071 52.5187C50.0619 52.5096 50.0558 52.4974 50.0558 52.4852V51.0443C50.0558 51.0169 50.0771 50.9956 50.1045 50.9956C50.1319 50.9956 50.1533 51.0169 50.1533 51.0443V52.4639L50.5736 52.8843C50.5919 52.9025 50.5919 52.933 50.5736 52.9513C50.5645 52.9665 50.5523 52.9696 50.5401 52.9696Z" fill="#8A2AE3"/>
<path d="M52.0478 53.5362C52.0357 53.5362 52.0235 53.5331 52.0143 53.5209L50.7166 52.2232C50.7075 52.2141 50.7014 52.2019 50.7014 52.1897V45.5307C50.7014 45.5033 50.7227 45.4819 50.7502 45.4819C50.7776 45.4819 50.7989 45.5033 50.7989 45.5307V52.1715L52.0814 53.4539C52.0996 53.4722 52.0996 53.5027 52.0814 53.5209C52.0722 53.5331 52.06 53.5362 52.0478 53.5362Z" fill="#8A2AE3"/>
<path d="M52.697 53.2437C52.6848 53.2437 52.6726 53.2406 52.6635 53.2285L51.3658 51.9308C51.3567 51.9216 51.3506 51.9094 51.3506 51.8973V45.2382C51.3506 45.2108 51.3719 45.1895 51.3993 45.1895C51.4267 45.1895 51.4481 45.2108 51.4481 45.2382V51.879L52.7305 53.1614C52.7488 53.1797 52.7488 53.2102 52.7305 53.2285C52.7214 53.2406 52.7092 53.2437 52.697 53.2437Z" fill="#8A2AE3"/>
<path d="M55.3048 62.2662C55.2774 62.2662 55.2561 62.2448 55.2561 62.2174V59.8261H53.5563C53.5289 59.8261 53.5076 59.8048 53.5076 59.7774V57.3861C53.5076 57.3739 53.5137 57.3617 53.5228 57.3526L55.2561 55.6193V47.0746C55.2561 47.0472 55.2774 47.0259 55.3048 47.0259C55.3323 47.0259 55.3536 47.0472 55.3536 47.0746V55.6376C55.3536 55.6498 55.3475 55.6619 55.3384 55.6711L53.605 57.4044V59.7287H55.3048C55.3323 59.7287 55.3536 59.75 55.3536 59.7774V62.2174C55.3505 62.2448 55.3292 62.2662 55.3048 62.2662Z" fill="#8A2AE3"/>
<path d="M55.7801 61.6356C55.7526 61.6356 55.7313 61.6142 55.7313 61.5868V59.1773H54.1625C54.1351 59.1773 54.1138 59.1559 54.1138 59.1285V57.8461C54.1138 57.8339 54.1199 57.8217 54.129 57.8125L56.5751 55.3664V51.7384C56.5751 51.7262 56.5812 51.714 56.5904 51.7049L59.0852 49.21C59.1035 49.1917 59.134 49.1917 59.1522 49.21C59.1705 49.2283 59.1705 49.2587 59.1522 49.277L56.6696 51.7597V55.3878C56.6696 55.3999 56.6635 55.4121 56.6543 55.4213L54.2082 57.8674V59.0828H55.777C55.8044 59.0828 55.8257 59.1042 55.8257 59.1316V61.5868C55.8288 61.6142 55.8075 61.6356 55.7801 61.6356Z" fill="#8A2AE3"/>
<path d="M57.4702 57.0113C57.4428 57.0113 57.4215 56.99 57.4215 56.9626V52.381C57.4215 52.3688 57.4276 52.3567 57.4367 52.3475L58.3384 51.4458C58.3567 51.4276 58.3872 51.4276 58.4054 51.4458C58.4237 51.4641 58.4237 51.4946 58.4054 51.5129L57.519 52.3993V56.9595C57.5159 56.99 57.4946 57.0113 57.4702 57.0113Z" fill="#8A2AE3"/>
<path d="M58.2654 57.7034C58.238 57.7034 58.2167 57.6821 58.2167 57.6547V53.0732C58.2167 53.061 58.2228 53.0488 58.2319 53.0397L60.809 50.4595C60.8273 50.4412 60.8578 50.4412 60.876 50.4595C60.8943 50.4778 60.8943 50.5082 60.876 50.5265L58.3111 53.0915V57.6517C58.3111 57.6821 58.2898 57.7034 58.2654 57.7034Z" fill="#8A2AE3"/>
<path d="M35.7384 55.9607C35.711 55.9607 35.6897 55.9394 35.6897 55.9119V47.9948C35.6897 47.9674 35.711 47.946 35.7384 47.946C35.7659 47.946 35.7872 47.9674 35.7872 47.9948V55.9119C35.7841 55.9394 35.7628 55.9607 35.7384 55.9607Z" fill="#8A2AE3"/>
<path d="M37.9868 58.0901C37.9594 58.0901 37.9381 58.0688 37.9381 58.0414V57.6149L37.3197 56.9965C37.3106 56.9874 37.3045 56.9752 37.3045 56.963V56.0004L36.3297 55.0256C36.3205 55.0164 36.3145 55.0043 36.3145 54.9921V48.3878C36.3145 48.3604 36.3358 48.3391 36.3632 48.3391C36.3906 48.3391 36.4119 48.3604 36.4119 48.3878V54.9738L37.3867 55.9486C37.3959 55.9577 37.402 55.9699 37.402 55.9821V56.9447L38.0203 57.5631C38.0295 57.5722 38.0356 57.5844 38.0356 57.5966V58.0414C38.0356 58.0688 38.0142 58.0901 37.9868 58.0901Z" fill="#8A2AE3"/>
</g>
<path opacity="0.46" d="M36.0651 10.8643L29.9513 13.2616V18.7845C30.6915 24.5936 36.0651 25.8152 36.0651 25.8152C36.0651 25.8152 41.4356 24.5936 42.1789 18.7845V13.2586L36.0651 10.8643Z" fill="#8A2AE3"/>
<path opacity="0.46" d="M36.0649 12.8171L31.5504 14.587V18.6659C32.0987 22.958 36.0649 23.8597 36.0649 23.8597C36.0649 23.8597 40.0342 22.958 40.5794 18.6659V14.587L36.0649 12.8171Z" fill="#8A2AE3"/>
<path opacity="0.46" d="M45.2013 0.945801L42.2526 2.10337V4.76882C42.609 7.57135 45.2013 8.16232 45.2013 8.16232C45.2013 8.16232 47.7937 7.5744 48.1501 4.76882V2.10337L45.2013 0.945801Z" fill="#9AD954"/>
<path opacity="0.67" d="M45.2011 1.72583L42.889 2.63361V4.72332C43.1693 6.91965 45.2011 7.38268 45.2011 7.38268C45.2011 7.38268 47.233 6.91965 47.5132 4.72332V2.63361L45.2011 1.72583Z" fill="#D8FFAD"/>
<path opacity="0.67" d="M45.2011 2.94751L43.8851 3.46232V4.65035C44.0435 5.89931 45.2011 6.16128 45.2011 6.16128C45.2011 6.16128 46.3556 5.89931 46.5171 4.65035V3.46232L45.2011 2.94751Z" fill="#9AD954"/>
<path d="M23.8802 54.1946C22.3449 54.1946 21.099 54.9196 21.099 55.8152C21.099 56.7108 22.3449 57.4358 23.8802 57.4358C25.4155 57.4358 26.6614 56.7108 26.6614 55.8152C26.6645 54.9196 25.4186 54.1946 23.8802 54.1946Z" fill="#8E6CDE"/>
<path d="M36.1323 19.9176C36.1262 19.9176 36.1232 19.9176 36.1171 19.9146L33.9116 18.6839C33.9025 18.6778 33.8964 18.6686 33.8964 18.6595C33.8964 18.6504 33.9025 18.6382 33.9116 18.6351L36.1171 17.4471C36.1262 17.4441 36.1353 17.4441 36.1445 17.4471L38.4048 18.6351C38.4139 18.6412 38.42 18.6504 38.42 18.6595C38.42 18.6686 38.4139 18.6808 38.4048 18.6839L36.1445 19.9146C36.1414 19.9146 36.1384 19.9176 36.1323 19.9176ZM33.9878 18.6595L36.1323 19.8536L38.3317 18.6595L36.1323 17.5019L33.9878 18.6595Z" fill="white"/>
<path d="M36.1323 19.4785C36.1262 19.4785 36.1231 19.4785 36.117 19.4754C36.1079 19.4693 36.1018 19.4602 36.1018 19.451V14.3912C36.1018 14.3791 36.1109 14.3669 36.1231 14.3638C36.1353 14.3608 36.1506 14.3669 36.1566 14.376L38.4169 18.263C38.42 18.2691 38.423 18.2782 38.42 18.2843C38.4169 18.2904 38.4139 18.2996 38.4048 18.3026L36.1445 19.4754C36.1414 19.4785 36.1384 19.4785 36.1323 19.4785ZM36.1627 14.5009V19.4023L38.353 18.2661L36.1627 14.5009Z" fill="white"/>
<path d="M36.1323 19.4788C36.1293 19.4788 36.1232 19.4788 36.1202 19.4758L33.9147 18.3395C33.9086 18.3365 33.9025 18.3304 33.8995 18.3212C33.8964 18.3121 33.8995 18.306 33.9025 18.2999L36.108 14.3764C36.1141 14.3642 36.1293 14.3581 36.1415 14.3611C36.1537 14.3642 36.1628 14.3764 36.1628 14.3885V19.4483C36.1628 19.4575 36.1567 19.4666 36.1476 19.4727C36.1445 19.4788 36.1384 19.4788 36.1323 19.4788ZM33.9665 18.303L36.1019 19.4026V14.5043L33.9665 18.303Z" fill="white"/>
<path d="M36.1323 22.2109C36.1231 22.2109 36.114 22.2048 36.1079 22.1987L33.9024 18.6742C33.8963 18.662 33.8963 18.6468 33.9055 18.6377C33.9146 18.6285 33.9299 18.6255 33.942 18.6316L36.1475 19.8623C36.1567 19.8684 36.1627 19.8775 36.1627 19.8866V22.1835C36.1627 22.1957 36.1536 22.2079 36.1414 22.2109C36.1384 22.2109 36.1353 22.2109 36.1323 22.2109ZM34.0121 18.7382L36.1049 22.0799V19.9019L34.0121 18.7382Z" fill="white"/>
<path d="M36.1323 22.2109C36.1292 22.2109 36.1262 22.2109 36.1231 22.2109C36.1109 22.2079 36.1018 22.1957 36.1018 22.1835V19.8866C36.1018 19.8744 36.1079 19.8653 36.117 19.8623L38.3773 18.6316C38.3895 18.6255 38.4048 18.6285 38.4139 18.6377C38.423 18.6468 38.423 18.662 38.4169 18.6742L36.1566 22.1987C36.1506 22.2079 36.1414 22.2109 36.1323 22.2109ZM36.1627 19.9049V22.083L38.3073 18.7382L36.1627 19.9049Z" fill="white"/>
<path d="M37.8381 24.8317C37.8381 31.8045 42.572 40.2639 48.4086 43.7244C50.2881 44.8393 52.0488 45.2962 53.578 45.1774L53.4805 45.875L55.5641 44.6322C55.7591 44.5316 55.948 44.4189 56.1307 44.294L56.1643 44.2757H56.1612C57.9097 43.0603 58.979 40.6812 58.979 37.3699C58.979 30.3971 54.2451 21.9377 48.4086 18.4772C45.606 16.814 43.0594 16.6099 41.1677 17.6121L41.1646 17.609L41.0854 17.6547C41.0032 17.7004 40.924 17.7461 40.8448 17.7979L38.7124 19.053L39.6202 18.8732C38.4931 20.2136 37.8381 22.2363 37.8381 24.8317ZM42.6207 27.6677C42.6207 23.8508 45.2131 22.2941 48.4086 24.1889C51.6041 26.0837 54.1964 30.717 54.1964 34.5339C54.1964 38.3508 51.6041 39.9074 48.4086 38.0127C45.2131 36.1179 42.6207 31.4877 42.6207 27.6677Z" fill="#8A2AE3"/>
<path d="M48.4079 18.4769C46.5071 17.3498 44.722 16.8929 43.1806 17.03L39.3424 19.2415C38.3889 20.5727 37.8345 22.4583 37.8345 24.8314C37.8345 25.6965 37.9076 26.586 38.0477 27.4846L43.8538 24.1429C44.1645 23.8535 44.527 23.6464 44.9322 23.5215L50.7444 20.1767C49.992 19.5279 49.2121 18.9552 48.4079 18.4769ZM42.1601 28.4411L42.7024 28.8402C42.6749 28.6148 42.6536 28.3893 42.6414 28.1639L42.1601 28.4411ZM52.8524 22.2817L48.941 24.5359C49.9158 25.2182 50.8206 26.1504 51.5943 27.2196L55.0548 25.2274C54.3816 24.1795 53.6444 23.1894 52.8524 22.2817ZM56.4744 27.7283C56.3007 27.3811 56.121 27.0399 55.9352 26.7017L52.5173 28.6696C52.7062 29.0077 52.8768 29.355 53.0382 29.7053L56.4744 27.7283ZM58.8687 35.4932L52.8067 38.9841L53.8241 39.7335L58.9631 36.7756C58.9509 36.3522 58.9174 35.9257 58.8687 35.4932Z" fill="#7433C1"/>
<path d="M35.4375 26.2477C35.4375 33.2205 40.2292 41.616 46.142 44.9973C52.0547 48.3816 56.8464 45.4725 56.8464 38.4997C56.8464 31.5268 52.0547 23.1314 46.142 19.7501C40.2292 16.3658 35.4375 19.2749 35.4375 26.2477Z" fill="#8A2AE3"/>
<path d="M36.3271 26.7752C36.3271 33.16 40.6619 40.9097 46.0111 44.0808C51.3572 47.2519 55.6951 44.6474 55.6951 38.2594C55.6951 31.8745 51.3603 24.1249 46.0111 20.9538C40.6619 17.7827 36.3271 20.3872 36.3271 26.7752Z" fill="#7943BA"/>
<path d="M37.1284 27.2507C37.1284 33.1086 41.1037 40.2154 46.0082 43.1246C50.9126 46.0337 54.8879 43.6425 54.8879 37.7876C54.8879 31.9297 50.9126 24.8228 46.0082 21.9137C41.1037 19.0015 37.1284 21.3928 37.1284 27.2507Z" fill="#8A2AE3"/>
<path opacity="0.5" d="M51.2295 27.7375L41.1556 37.8114C41.4236 38.1952 41.7039 38.5699 41.9933 38.9294L51.9636 28.9591C51.7321 28.5448 51.4853 28.1366 51.2295 27.7375ZM45.9808 22.4249C45.6213 22.2117 45.268 22.032 44.9207 21.8796C42.7548 24.0425 40.1595 26.6561 37.6859 29.154C37.9388 31.1828 38.6302 33.2939 39.6294 35.2617L49.4779 25.4133C48.4147 24.1978 47.2298 23.1651 45.9808 22.4249ZM52.6277 30.2629L42.9102 39.9803C43.2757 40.3672 43.6504 40.7328 44.0404 41.0709L53.2857 31.8256C53.0877 31.3016 52.8683 30.7777 52.6277 30.2629Z" fill="url(#paint0_linear_43_552)"/>
<path d="M48.3293 34.1135C49.1 33.9155 49.5904 33.221 49.5904 32.1183C49.5904 30.5129 48.5455 28.5359 47.1169 27.2473V26.306L45.8435 25.5536L45.545 25.6968L45.8435 26.3426L44.8748 25.7699V24.9809L43.6015 24.2285L43.303 24.3717L43.6015 25.0175L42.4592 24.3443L42.1606 24.4874L42.4592 26.2969L43.0562 26.6503V35.3533L42.4592 35L42.1606 35.1432L42.4592 36.9526L43.6015 37.6258V38.4453L44.5763 39.3409L44.8748 39.1977V38.3783L45.8435 38.9509V39.7704L46.8183 40.666L47.1169 40.5228V39.5511C48.5486 39.9532 49.5904 39.2099 49.5904 37.6045C49.5934 36.5018 49.1 35.2254 48.3293 34.1135ZM46.1055 28.4475C46.9737 28.9624 47.6804 30.1016 47.6804 30.9911C47.6804 31.8806 46.9737 32.1822 46.1055 31.6705L44.9662 31.0795V27.7743L46.1055 28.4475ZM46.1055 37.1506L44.9662 36.4774V33.3428L46.136 33.946C46.992 34.4669 47.6804 35.594 47.6804 36.4713C47.6804 37.3608 46.9737 37.6654 46.1055 37.1506Z" fill="#00C7DD"/>
<path d="M48.0307 34.2561C48.8014 34.0581 49.2919 33.3636 49.2919 32.2608C49.2919 30.6555 48.247 28.6785 46.8183 27.3899V26.4486L45.545 25.6962V26.4852L44.5763 25.9125V25.1235L43.303 24.3711V25.1601L42.1606 24.4869V26.4395L42.7577 26.7928V35.4959L42.1606 35.1426V37.0952L43.303 37.7684V38.5878L44.5763 39.3403V38.5208L45.545 39.0935V39.913L46.8183 40.6654V39.6936C48.2501 40.0957 49.2919 39.3525 49.2919 37.7471C49.2949 36.6444 48.8014 35.368 48.0307 34.2561ZM45.807 28.5901C46.6752 29.1049 47.3819 30.2442 47.3819 31.1337C47.3819 32.0232 46.6752 32.3248 45.807 31.813L44.6677 31.2221V27.9169L45.807 28.5901ZM45.807 37.2932L44.6677 36.62V33.4854L45.8374 34.0886C46.6934 34.6095 47.3819 35.7366 47.3819 36.6139C47.3819 37.5034 46.6752 37.808 45.807 37.2932Z" fill="white"/>
<path opacity="0.09" d="M19.1127 46.6482C19.1127 47.16 18.1805 47.5743 17.0352 47.5743C15.8867 47.5743 14.9576 47.16 14.9576 46.6482C14.9576 46.1365 15.8898 45.7222 17.0352 45.7222C18.1836 45.7252 19.1127 46.1395 19.1127 46.6482Z" fill="#017ABF"/>
<path d="M19.1796 45.4088L18.811 45.6281C18.4942 45.3326 17.8179 45.1316 17.032 45.1316C16.2491 45.1316 15.5729 45.3357 15.253 45.6281L14.8844 45.421L15.0733 46.606C15.186 47.0416 16.0206 47.3797 17.0289 47.3797C18.0403 47.3797 18.8719 47.0416 18.9846 46.606L19.1796 45.4088Z" fill="#B0E6FF"/>
<path d="M15.3928 46.2554V46.7154C15.3928 46.7154 15.6974 47.0017 16.4407 47.0443V46.5844C16.4438 46.5844 15.8345 46.5387 15.3928 46.2554Z" fill="#8A2AE3"/>
<path d="M18.3324 46.4041L18.2928 46.9098C18.5761 46.8032 18.7254 46.6478 18.7254 46.6478L18.7894 46.1665C18.6462 46.2762 18.4848 46.3493 18.3324 46.4041Z" fill="#8A2AE3"/>
<path d="M17.0347 46.362C18.2191 46.362 19.1792 45.9351 19.1792 45.4085C19.1792 44.882 18.2191 44.4551 17.0347 44.4551C15.8503 44.4551 14.8901 44.882 14.8901 45.4085C14.8901 45.9351 15.8503 46.362 17.0347 46.362Z" fill="#D4FAFF"/>
<path d="M18.8441 45.3113C18.8441 45.756 18.0338 46.1155 17.0347 46.1155C16.0355 46.1155 15.2252 45.756 15.2252 45.3113C15.2252 44.8665 16.0355 44.5071 17.0347 44.5071C18.0338 44.5071 18.8441 44.8665 18.8441 45.3113Z" fill="#A0D8FF"/>
<path d="M15.5973 43.2149C15.5973 43.2149 14.397 40.1596 14.8905 39.5473C15.384 38.935 16.4228 42.3589 16.4228 42.3589C16.4228 42.3589 16.2096 39.5869 16.7274 39.4742C17.2483 39.3645 17.4006 40.7993 17.4006 40.7993C17.4006 40.7993 17.9215 39.4193 18.348 39.4681C18.7745 39.5168 18.1348 41.7771 18.1348 41.7771C18.1348 41.7771 18.4577 41.0673 18.8476 40.979C19.2375 40.8906 18.2292 44.4517 18.2292 44.4517L16.9924 44.2781" fill="#8A2AE3"/>
<path d="M15.5945 45.408C15.5945 45.408 14.6715 44.9206 14.7599 44.4546C14.8482 43.9854 15.7042 44.616 15.7042 44.616C15.7042 44.616 14.0927 42.4623 16.417 41.1799C18.5159 40.0223 18.0985 44.3266 18.0985 44.3266C18.0985 44.3266 18.5707 43.7417 19.052 43.8666C19.6704 44.0311 18.4793 45.408 18.4793 45.408C18.4793 45.408 17.471 45.4994 15.5945 45.408Z" fill="#FFC400"/>
<path d="M16.0605 45.6793C16.0605 45.6793 15.2259 45.1736 15.4635 44.8933C15.7011 44.6131 16.1793 45.1279 16.1793 45.1279C16.1793 45.1279 15.4117 43.2575 15.957 42.7793C16.5022 42.301 17.0323 44.4547 17.0323 44.4547C17.0323 44.4547 17.0475 43.0351 17.544 43.0199C18.0375 43.0016 17.6964 45 17.6964 45C17.6964 45 18.0893 43.6535 18.4305 43.687C18.7717 43.7205 18.1411 45.2741 18.1411 45.2741C18.1411 45.2741 18.3117 44.9725 18.531 45.0182C18.7503 45.0639 18.2416 45.6823 18.2416 45.6823C18.2416 45.6823 17.3674 46.0661 16.0605 45.6793Z" fill="#FFB200"/>
<path opacity="0.54" d="M24.347 53.5085C27.2592 53.5085 29.62 52.4202 29.62 51.0776C29.62 49.7351 27.2592 48.6467 24.347 48.6467C21.4348 48.6467 19.074 49.7351 19.074 51.0776C19.074 52.4202 21.4348 53.5085 24.347 53.5085Z" fill="#8A2AE3"/>
<path opacity="0.58" d="M24.347 52.957C27.2592 52.957 29.62 51.8686 29.62 50.5261C29.62 49.1836 27.2592 48.0952 24.347 48.0952C21.4348 48.0952 19.074 49.1836 19.074 50.5261C19.074 51.8686 21.4348 52.957 24.347 52.957Z" fill="#8A2AE3"/>
<path d="M26.3367 49.8684V50.4594H28.7889L27.1256 49.8684H26.3367Z" fill="#000F1F"/>
<path d="M20.4791 49.8684V50.4594L21.9626 51.1387H22.6267L21.3839 49.8684H20.4791Z" fill="#000F1F"/>
<path d="M27.1257 34.0645V49.8713H26.3367C26.3367 49.8713 25.0208 46.1824 25.231 42.5482L24.3354 37.068L21.3836 49.8713H20.488C20.488 49.8713 19.7081 45.1436 20.8048 42.2832L21.2252 34.0645H27.1257Z" fill="#001F5E"/>
<path d="M27.1258 34.0644C27.1258 34.0644 25.6849 35.1915 21.1735 35.0544L21.2252 34.0644L24.6309 33.4338" fill="#00143E"/>
<path d="M24.3351 37.068L25.3434 35.0544L25.2307 42.5451L24.3351 37.068Z" fill="#00143E"/>
<path d="M25.2369 19.4212C25.1699 19.3085 25.115 19.1897 25.0693 19.0709C24.0275 18.8241 23.1167 19.3725 22.9309 20.2833C22.9309 20.2833 21.4321 21.7637 23.4244 23.162L24.0489 23.232L24.9505 22.4887L26.1812 20.7737C26.1812 20.7737 26.3274 20.7707 26.5041 20.7158C25.9863 20.3929 25.5476 19.9421 25.2369 19.4212Z" fill="#131637"/>
<path d="M26.2817 21.4927C26.2817 21.4927 26.699 21.7668 26.7782 22.4553H25.9314L26.2817 21.4927Z" fill="#FF907D"/>
<path d="M23.8637 23.1653C23.8637 23.1653 24.2293 22.6688 24.3206 22.1296C24.3206 22.1296 23.6596 21.9925 23.7723 21.5112C23.8668 21.1122 24.3694 21.2462 24.5278 21.5904V22.0504C24.5278 22.0504 24.7867 22.0443 24.8324 21.164L25.134 20.7771H26.1788C26.1788 20.7771 26.5627 21.6575 26.4439 22.7328H25.7341C25.7341 22.7328 25.8864 23.01 26.3799 23.1136C26.3342 23.3207 26.2733 23.5278 26.1788 23.738H25.137V24.4996L24.54 24.7707L24.0252 24.9352L23.5865 24.7342L23.425 24.1736V23.1684H23.8637V23.1653Z" fill="#FFCDA9"/>
<path d="M24.1219 20.0458L25.0663 19.074C25.0663 19.074 26.3213 18.681 26.7295 18.8882C27.2809 19.1684 26.4645 19.8569 26.4645 19.8569C26.4645 19.8569 26.83 20.3687 26.4645 20.8073C26.2178 21.1028 25.1302 20.7768 25.1302 20.7768L24.5088 20.1981L24.1219 20.0458Z" fill="#131637"/>
<path d="M26.2485 25.0144C26.2485 25.0144 27.1289 26.702 28.786 27.7316C31.0524 29.2669 33.5381 29.5837 33.5381 29.5837V30.5799C33.5381 30.5799 31.1133 30.7322 29.0389 30.0864C26.9004 29.5167 26.0992 28.0759 26.0992 28.0759L26.2485 25.0144Z" fill="#9AD954"/>
<path d="M26.5562 25.5199C26.547 25.5047 26.5379 25.4925 26.5288 25.4773L26.4313 25.9982L26.1206 27.6462L26.1084 27.8655L26.0992 28.0727C26.0992 28.0727 26.3734 28.49 26.8608 28.9439C27.0832 29.1389 27.3573 29.343 27.6924 29.5349L26.5562 25.5199Z" fill="#FFD432"/>
<path d="M21.2254 34.0645C21.2254 34.0645 24.4574 34.9418 27.1259 34.0645C27.1259 34.0645 26.7878 28.432 26.6324 25.8701C26.5898 25.1725 26.011 24.6272 25.3104 24.6272L23.0196 24.5815C22.9678 24.5815 22.584 24.7064 22.389 24.9349C22.0205 25.3614 21.7219 25.7665 21.6793 26.327L21.1157 34.168C21.2254 34.0645 21.2254 34.0645 21.2254 34.0645Z" fill="#9AD954"/>
<path d="M27.0467 32.7059C24.3173 31.1462 23.9304 28.6818 23.6075 26.6866C23.373 25.2305 22.587 25.0538 22.121 25.264C21.8864 25.5777 21.7128 25.9098 21.6823 26.3241L21.5757 27.7954C21.6275 28.0635 21.6884 28.3011 21.7371 28.4808C22.7729 32.3343 25.5937 33.5832 27.1229 33.9823C27.1107 33.8026 27.0833 33.3395 27.0467 32.7059Z" fill="#FF9B1C"/>
<path d="M24.7498 24.6244L25.4839 25.3646C25.4839 25.3646 25.6849 24.6792 25.1366 24.2131C25.1366 24.2131 25.0544 24.5482 24.7498 24.6244Z" fill="#9AD954"/>
<path d="M24.7496 24.6239C24.7496 24.6239 23.8175 24.569 23.4215 24.0603C23.4215 24.0603 23.1199 24.2705 22.928 24.6269C22.928 24.6269 23.2448 25.4738 24.1983 25.4098L24.7496 24.6239Z" fill="#9AD954"/>
<path d="M28.871 32.3644L30.2235 32.1451L29.9646 32.5533L30.6591 32.4802L31.308 31.9836L31.5151 32.2304C31.5151 32.2304 30.5159 33.5403 28.9745 33.2143L28.871 32.3644Z" fill="#FFCDA9"/>
<path d="M29.2087 32.3098L29.9977 32.1088L30.7867 31.9077C30.7867 31.9077 30.8567 32.121 30.61 32.255L29.9672 32.5535" fill="#FFCDA9"/>
<path d="M27.7917 35.5747C27.7917 40.7715 31.3193 47.0772 35.6724 49.6604C37.0736 50.4921 38.3865 50.8332 39.5258 50.7449L39.4558 51.2658L41.0093 50.3397C41.1556 50.2666 41.2957 50.1813 41.4328 50.0869L41.4571 50.0717H41.4541C42.7579 49.1669 43.5529 47.394 43.5529 44.9236C43.5529 39.7267 40.0254 33.421 35.6724 30.8378C33.5826 29.598 31.6848 29.4457 30.2744 30.195H30.2714L30.2135 30.2285C30.1526 30.262 30.0917 30.2986 30.0338 30.3352L28.4436 31.2703L29.1199 31.1363C28.2791 32.1324 27.7917 33.6403 27.7917 35.5747ZM31.3558 37.6888C31.3558 34.8436 33.2872 33.683 35.6693 35.0964C38.0515 36.5099 39.9828 39.9612 39.9828 42.8095C39.9828 45.6546 38.0515 46.8153 35.6693 45.4018C33.2872 43.9853 31.3558 40.5339 31.3558 37.6888Z" fill="#6D3DA7"/>
<path d="M33.5367 29.5864V29.9246L33.9815 30.2657C33.9815 30.2657 34.3531 30.7349 34.5268 30.8354C34.7004 30.939 34.8192 30.7349 34.8192 30.7349L34.539 30.2657L35.4894 30.7349C35.4894 30.7349 34.9654 30.0038 34.6578 29.8484C34.3531 29.69 33.5367 29.5864 33.5367 29.5864Z" fill="#FFCDA9"/>
<path d="M26.0005 36.6294C26.0005 41.8262 29.5737 48.0862 33.9816 50.6085C38.3895 53.1308 41.9627 50.9619 41.9627 45.765C41.9627 40.5681 38.3895 34.3081 33.9816 31.7859C29.5737 29.2636 26.0005 31.4325 26.0005 36.6294Z" fill="#885BBE"/>
<path d="M26.6646 37.0222C26.6646 41.7835 29.8966 47.5591 33.8841 49.923C37.8716 52.2869 41.1037 50.3464 41.1037 45.5852C41.1037 40.8239 37.8716 35.0483 33.8841 32.6844C29.8966 30.3175 26.6646 32.261 26.6646 37.0222Z" fill="#8A2AE3"/>
<path d="M27.2618 37.3758C27.2618 41.741 30.2258 47.0414 33.8813 49.2073C37.5368 51.3762 40.5008 49.5942 40.5008 45.2289C40.5008 40.8637 37.5368 35.5632 33.8813 33.3974C30.2258 31.2285 27.2618 33.0105 27.2618 37.3758Z" fill="#8A2AE3"/>
<path d="M28.9126 32.3462C28.9126 32.3462 29.3695 32.0355 29.5584 31.9868C29.5584 31.9868 30.4875 31.609 30.6337 31.5603C30.6337 31.5603 30.8134 31.7157 30.588 31.8923C30.3626 32.069 30.0427 32.2487 30.0427 32.2487C30.0427 32.2487 30.4662 32.2731 30.7403 32.2091C31.0145 32.1452 31.5567 32.0355 31.7121 32.1208C31.8674 32.2061 31.7273 32.3188 31.7273 32.3188C31.7273 32.3188 30.8926 32.4894 30.7129 32.526C30.5545 32.5595 30.6124 32.6143 30.6124 32.6143C30.6124 32.6143 31.5902 32.4955 31.7669 32.4985C31.9466 32.5016 32.0197 32.5656 31.968 32.7118C31.968 32.7118 31.2125 32.8275 31.0998 32.8458C30.9871 32.8641 30.6154 32.8641 30.6337 32.9859C30.6337 32.9859 31.4867 32.9311 31.6329 32.9311C31.7791 32.9311 31.8522 33.0164 31.7578 33.1322L30.5911 33.2692C30.5911 33.2692 30.5088 33.2814 30.5362 33.3302C30.5606 33.3728 31.0602 33.4794 31.1181 33.4855C31.179 33.4916 31.3648 33.5251 31.3161 33.6652C31.3161 33.6652 31.2917 33.7109 31.1181 33.6805C30.9414 33.65 30.1219 33.6135 30.1219 33.6135C30.1219 33.6135 29.5645 33.5891 29.0222 33.2845C28.477 32.9768 28.4922 32.7392 28.6141 33.0621L28.745 32.7636L28.9126 32.3462Z" fill="#FFCDA9"/>
<path d="M21.8608 25.48C22.1502 25.02 23.2468 24.7458 23.7403 26.4944C24.3648 28.6938 25.1355 31.2191 29.1047 32.2365V33.4002C29.1047 33.4002 24.1516 33.6804 22.0923 28.4897C21.8303 27.8378 21.2881 26.3878 21.8608 25.48Z" fill="#9AD954"/>
<path opacity="0.5" d="M37.7709 37.7413L30.2619 45.2503C30.463 45.5366 30.6701 45.8169 30.8864 46.085L38.3192 38.6522C38.1455 38.3414 37.9628 38.0368 37.7709 37.7413ZM33.8595 33.7812C33.5914 33.6228 33.3295 33.4888 33.0705 33.373C31.456 34.9845 29.5217 36.9341 27.6757 38.7953C27.8645 40.3063 28.3793 41.8812 29.1257 43.3495L36.4671 36.008C35.6751 35.1003 34.7916 34.3326 33.8595 33.7812ZM38.8157 39.6239L31.5718 46.8678C31.8429 47.1572 32.1232 47.4284 32.4125 47.6812L39.3031 40.7906C39.1569 40.3977 38.9954 40.0077 38.8157 39.6239Z" fill="url(#paint1_linear_43_552)"/>
<path d="M35.6117 42.4933C36.1874 42.3441 36.5529 41.8262 36.5529 41.0068C36.5529 39.8096 35.7731 38.3383 34.7069 37.3757V36.672L33.7565 36.1115L33.5341 36.2181L33.7565 36.6994L33.0345 36.2729V35.685L32.0841 35.1245L31.8617 35.2311L32.0841 35.7124L31.2342 35.2098L31.0118 35.3164L31.2342 36.6659L31.679 36.9279V43.4164L31.2342 43.1544L31.0118 43.261L31.2342 44.6105L32.0841 45.1131V45.7223L32.8122 46.3895L33.0345 46.2829V45.6736L33.7565 46.1001V46.7093L34.4845 47.3765L34.7069 47.2698V46.5448C35.7731 46.8434 36.5529 46.292 36.5529 45.0948C36.5529 44.2723 36.1874 43.3219 35.6117 42.4933ZM33.9545 38.2682C34.6033 38.652 35.1304 39.5019 35.1304 40.163C35.1304 40.824 34.6033 41.0525 33.9545 40.6687L33.1076 40.23V37.7656L33.9545 38.2682ZM33.9545 44.7567L33.1076 44.2541V41.9176L33.9789 42.3684C34.6155 42.7584 35.1304 43.5961 35.1304 44.251C35.1273 44.9151 34.6003 45.1405 33.9545 44.7567Z" fill="#00C7DD"/>
<path d="M35.3893 42.5998C35.965 42.4505 36.3306 41.9327 36.3306 41.1132C36.3306 39.9161 35.5507 38.4447 34.4845 37.4821V36.7784L33.5341 36.2179V36.8059L32.8122 36.3794V35.7915L31.8617 35.231V35.8189L31.0118 35.3163V36.7724L31.4566 37.0343V43.5228L31.0118 43.2608V44.7169L31.8617 45.2195V45.8288L32.8122 46.3893V45.7801L33.5341 46.2065V46.8158L34.4845 47.3763V46.6513C35.5507 46.9498 36.3306 46.3984 36.3306 45.2013C36.3306 44.3788 35.965 43.4284 35.3893 42.5998ZM33.7321 38.3747C34.381 38.7585 34.908 39.6084 34.908 40.2694C34.908 40.9305 34.381 41.1589 33.7321 40.7751L32.8853 40.3364V37.872L33.7321 38.3747ZM33.7321 44.8631L32.8853 44.3605V42.0241L33.7565 42.4749C34.3932 42.8648 34.908 43.7025 34.908 44.3575C34.9049 45.0215 34.3779 45.247 33.7321 44.8631Z" fill="white"/>
<g opacity="0.5">
<mask id="mask1_43_552" style="mask-type:luminance" maskUnits="userSpaceOnUse" x="31" y="9" width="34" height="54">
<path d="M61.8326 54.8918C61.8326 58.9403 55.4416 62.2211 47.5549 62.2211C39.6683 62.2211 33.2773 58.9403 33.2773 54.8918C33.2773 50.8434 27.1787 11.3186 35.0654 11.3186C37.9258 11.3186 56.9587 5.70436 61.2904 12.531C68.8907 24.5148 61.8326 52.3117 61.8326 54.8918Z" fill="white"/>
</mask>
<g mask="url(#mask1_43_552)">
<path d="M34.0728 0.760498V56.7807C34.0728 60.6311 40.0586 63.7504 47.4457 63.7504C54.8298 63.7504 60.8186 60.6311 60.8186 56.7807V0.760498H34.0728Z" fill="url(#paint2_linear_43_552)"/>
</g>
</g>
<path opacity="0.56" d="M57.1265 51.8759L50.9792 49.4664C50.9762 49.4664 50.9762 49.4664 50.9731 49.4664C50.9457 49.4572 50.9183 49.4511 50.8878 49.4451C50.8665 49.439 50.8421 49.4329 50.8208 49.4298C50.7964 49.4268 50.769 49.4298 50.7446 49.4298C50.7203 49.4298 50.6929 49.4268 50.6685 49.4298C50.6441 49.4329 50.6228 49.442 50.6015 49.4451C50.5741 49.4511 50.5466 49.4572 50.5192 49.4664C50.5162 49.4664 50.5162 49.4664 50.5131 49.4694L44.3658 51.879C44.1191 51.9765 43.9576 52.211 43.9576 52.4761V58.0293C43.9576 58.0567 43.9607 58.0842 43.9637 58.1116C44.7558 64.3259 50.5466 65.7089 50.6045 65.7241C50.6106 65.7241 50.6137 65.7241 50.6197 65.7272C50.6624 65.7363 50.705 65.7424 50.7477 65.7424C50.7903 65.7424 50.833 65.7363 50.8756 65.7272C50.8817 65.7272 50.8848 65.7272 50.8909 65.7241C50.9487 65.7119 56.7366 64.3259 57.5316 58.1116C57.5347 58.0842 57.5377 58.0567 57.5377 58.0293V52.4761C57.5316 52.208 57.3702 51.9734 57.1265 51.8759Z" fill="#721BD5"/>
<path d="M50.7752 50.4932L44.9721 52.7413L44.9508 57.9778C45.6332 63.4884 50.7204 64.6642 50.7204 64.6642C50.7204 64.6642 55.8167 63.528 56.5417 58.0234L56.563 52.787L50.7752 50.4932Z" fill="#6862C8"/>
<path d="M53.3157 57.5421C53.8427 57.0852 54.1748 56.412 54.1748 55.6626C54.1748 54.2887 53.0568 53.1738 51.686 53.1738H51.6708V52.6255H50.4187V53.1738H49.9435V52.6255H48.6915V53.1738H48.0914V54.4258H48.6915V56.8993H48.0914V56.9329V58.1544V58.1879H48.6915V60.6614H48.0914V61.9134H48.6915V62.4983H49.9435V61.9134H50.4187V62.4983H51.6708V61.9134H51.686C53.0598 61.9134 54.1748 60.7955 54.1748 59.4247C54.1748 58.6723 53.8427 57.999 53.3157 57.5421ZM49.9405 54.4289H51.686C52.3683 54.4289 52.9227 54.9833 52.9227 55.6656C52.9227 56.348 52.3683 56.9024 51.686 56.9024H49.9405V54.4289ZM51.686 60.6584H49.9405V58.1849H51.686C52.3683 58.1849 52.9227 58.7393 52.9227 59.4216C52.9227 60.104 52.3683 60.6584 51.686 60.6584Z" fill="white"/>
<path opacity="0.46" d="M56.4753 39.7637L49.3623 42.551V48.9755C50.2244 55.732 56.4753 57.1546 56.4753 57.1546C56.4753 57.1546 62.7231 55.7351 63.5882 48.9755V42.551L56.4753 39.7637Z" fill="#8A2AE3"/>
<path opacity="0.67" d="M56.475 41.0125L50.3856 43.4007V48.9022C51.1259 54.69 56.475 55.9055 56.475 55.9055C56.475 55.9055 61.8273 54.69 62.5645 48.9022V43.4007L56.475 41.0125Z" fill="#6F4AC8"/>
<path d="M55.032 52.5762L51.41 48.9573L53.0337 47.3336L55.032 49.3289L59.9151 44.4458L61.5388 46.0694L55.032 52.5762Z" fill="white"/>
<path d="M40.6866 75.4871C40.4186 75.4871 40.2023 75.612 40.2023 75.7673C40.2023 75.9227 40.4186 76.0476 40.6866 76.0476C40.9547 76.0476 41.171 75.9227 41.171 75.7673C41.171 75.615 40.9547 75.4871 40.6866 75.4871Z" fill="#D2EAFF"/>
<path opacity="0.82" d="M37.0889 69.3494L40.6865 67.4089L44.3724 69.3494L40.6865 71.3538L37.0889 69.3494Z" fill="#48088B"/>
<path opacity="0.82" d="M39.1907 69.3675L40.7107 68.5481L42.2735 69.3675L40.7107 70.2174L39.1907 69.3675Z" fill="#D308B8"/>
<path opacity="0.82" d="M40.1233 69.3766L40.7234 69.0537L41.3387 69.3766L40.7234 69.7086L40.1233 69.3766Z" fill="#FD08E7"/>
<path opacity="0.43" d="M40.6866 62.3884V70.8509L44.3726 68.7276L40.6866 62.3884Z" fill="#7C08B4"/>
<path opacity="0.82" d="M37.0889 68.7886L40.6865 70.8509V62.3884L37.0889 68.7886Z" fill="#721BD5"/>
<path opacity="0.43" d="M37.0889 69.3489L40.6865 71.3533V75.1002L37.0889 69.3489Z" fill="#721BD5"/>
<path opacity="0.43" d="M40.6866 71.3533L44.3726 69.3489L40.6866 75.1002V71.3533Z" fill="#9C08E7"/>
<path d="M75.1853 72.4105C77.8333 72.4105 79.98 71.3699 79.98 70.0862C79.98 68.8026 77.8333 67.762 75.1853 67.762C72.5372 67.762 70.3905 68.8026 70.3905 70.0862C70.3905 71.3699 72.5372 72.4105 75.1853 72.4105Z" fill="#8E6CDE"/>
<path d="M73.2659 69.4587V70.0863H70.9111L72.5074 69.4587H73.2659Z" fill="#000F1F"/>
<path d="M78.8863 69.4587V70.0863L77.4637 70.8052H76.824L78.0181 69.4587H78.8863Z" fill="#000F1F"/>
<path d="M72.5074 52.7319V69.4618H73.266C73.266 69.4618 74.5301 65.5596 74.3291 61.7122L75.1881 55.9122L78.0181 69.4618H78.8771C78.8771 69.4618 79.6234 64.4599 78.5725 61.432L78.1673 52.7319H72.5074Z" fill="#001F5E"/>
<path d="M72.5074 52.7318C72.5074 52.7318 73.8173 53.3837 78.1704 52.7318L78.0973 52.15L74.8561 52.1226" fill="#00143E"/>
<path d="M75.1849 55.9089L74.2162 53.7795L74.3258 61.7089L75.1849 55.9089Z" fill="#00143E"/>
<path d="M74.1286 42.0913C74.1286 42.0913 74.4332 43.0021 74.4758 45.0035C74.4758 45.0035 69.8364 45.8503 65.6753 40.5621L66.248 39.7122C66.248 39.7091 70.2964 43.8246 74.1286 42.0913Z" fill="white"/>
<path d="M73.7023 42.2588L71.3597 44.7445L73.355 45.0948L73.7023 42.2588Z" fill="#DBDBDB"/>
<path d="M72.6817 38.1775C72.6817 38.1775 72.4807 39.2954 72.7518 41.0836C72.7518 41.0836 73.0442 41.3791 74.1774 41.114L74.5216 42.5823L75.6853 41.4765L75.4477 40.456L75.1187 40.4743L75.2345 39.9961C75.2345 39.9961 75.6792 39.859 75.7279 39.3564C75.7767 38.8568 75.271 39.0944 75.1522 39.1797L75.0334 39.5178C75.0334 39.5178 74.9298 38.8446 75.2893 38.5796L74.9968 37.9612C74.9938 37.9673 74.0251 38.4333 72.6817 38.1775Z" fill="#FFCDA9"/>
<path d="M72.712 40.8058C73.5101 40.6809 73.7021 40.0991 73.7021 40.0991L72.642 40.154C72.6602 40.358 72.6816 40.5774 72.712 40.8058Z" fill="white"/>
<path d="M72.7971 38.8171L72.7575 39.8529L72.2671 39.8346L72.7971 38.8171Z" fill="#FF907D"/>
<path d="M76.4314 37.8086C76.4314 37.8086 76.4405 36.6358 75.5358 36.2703C75.5571 36.91 75.4048 37.5497 75.0575 38.0858L75.1763 38.3051C75.1763 38.3051 74.8869 38.7986 75.0271 39.5236L75.1459 39.1855C75.1459 39.1855 75.4109 38.957 75.6211 39.1368C75.8313 39.3165 75.612 39.813 75.2281 39.9989L75.1124 40.4771L75.4414 40.4588L75.5206 40.8C75.5206 40.8 75.7033 40.666 75.7582 40.3248C75.7643 40.3278 77.2508 39.5967 76.4314 37.8086Z" fill="#131C4C"/>
<path d="M75.0576 38.0859L73.5314 38.6037L73.6563 38.4149L72.8826 38.5946L72.9587 38.2686L71.9748 38.5002L72.8673 37.6807L71.4082 36.8521L72.7546 36.4622L72.4622 35.6245L75.5358 36.2703L76.072 37.3852L75.4445 38.0432L75.0576 38.0859Z" fill="#131C4C"/>
<path d="M78.0944 52.1472C78.0944 52.1472 77.6161 52.4183 75.4015 52.6864C73.9515 52.86 72.532 52.7382 72.532 52.7382L73.129 43.6878C73.2082 42.4998 74.1221 41.5189 75.304 41.4062C75.3223 41.4031 75.3376 41.4031 75.3558 41.4031C76.5104 41.3057 77.2384 41.8905 77.4334 45.0769C77.5674 47.1697 78.0944 52.1472 78.0944 52.1472Z" fill="#8A2AE3"/>
<path d="M72.5535 52.4121C77.2386 48.6774 76.8791 44.0289 76.8791 44.0289C76.6141 42.5362 75.6302 42.4174 75.0026 42.716C74.1741 43.1089 74.1863 44.3883 74.1863 44.3883C74.5609 46.5755 73.6653 48.5739 72.7119 49.9964L72.5535 52.4121Z" fill="#8A2AE3"/>
<path opacity="0.82" d="M73.8782 49.4839L67.6853 46.1453L61.34 49.4839L67.6853 52.9353L73.8782 49.4839Z" fill="#48088B"/>
<path opacity="0.82" d="M70.2621 49.5151L67.6393 48.1047L64.9556 49.5151L67.6393 50.9773L70.2621 49.5151Z" fill="#D308B8"/>
<path opacity="0.82" d="M68.6542 49.53L67.6215 48.9756L66.5645 49.53L67.6215 50.1057L68.6542 49.53Z" fill="#FD08E7"/>
<path opacity="0.43" d="M67.6853 37.5032V52.0733L61.34 48.4178L67.6853 37.5032Z" fill="#7C08B4"/>
<path opacity="0.82" d="M73.8783 48.5183L67.6853 52.0733V37.5032L73.8783 48.5183Z" fill="#721BD5"/>
<path opacity="0.43" d="M73.8783 49.4844L67.6853 52.9358V59.3816L73.8783 49.4844Z" fill="#721BD5"/>
<path opacity="0.43" d="M67.6853 52.9358L61.34 49.4844L67.6853 59.3816V52.9358Z" fill="#9C08E7"/>
<path d="M75.8518 41.4095L75.7299 40.6875C75.7299 40.6875 74.7277 40.587 74.0941 41.4064L74.1459 42.4909C74.1459 42.4878 74.7064 41.6958 75.8518 41.4095Z" fill="#FBFFFF"/>
<path d="M70.436 51.2689C70.436 51.2689 69.8877 51.1409 69.6897 51.1653C69.6897 51.1653 68.6692 51.147 68.5078 51.1531C68.5078 51.1531 68.392 51.3663 68.6723 51.4516C68.9525 51.5369 69.3242 51.5552 69.3242 51.5552C69.3242 51.5552 68.9282 51.7684 68.6449 51.808C68.3616 51.8476 67.801 51.9421 67.6883 52.0792C67.5756 52.2162 67.7462 52.2741 67.7462 52.2741C67.7462 52.2741 68.6053 52.1309 68.788 52.1005C68.9495 52.0731 68.916 52.1462 68.916 52.1462C68.916 52.1462 67.9442 52.3929 67.7736 52.4599C67.603 52.527 67.5573 52.6183 67.6609 52.7341C67.6609 52.7341 68.4225 52.5666 68.5352 52.5452C68.6479 52.5239 69.0043 52.3838 69.0287 52.5087C69.0287 52.5087 68.1971 52.7676 68.06 52.8224C67.9198 52.8773 67.8833 52.9839 68.0173 53.06L69.1779 52.7615C69.1779 52.7615 69.2602 52.7432 69.2511 52.7981C69.245 52.8499 68.8063 53.1301 68.7515 53.1606C68.6966 53.188 68.5321 53.2916 68.6296 53.4043C68.6296 53.4043 68.6692 53.4378 68.8246 53.3464C68.9799 53.252 69.7476 52.9169 69.7476 52.9169C69.7476 52.9169 70.2685 52.6914 70.6736 52.201C71.0788 51.7075 70.9783 51.4882 70.9783 51.8385L70.7437 51.6039L70.436 51.2689Z" fill="#FFCDA9"/>
<path d="M74.0914 43.8637C74.0914 43.8637 74.2285 42.5904 75.0966 42.298C75.7546 42.0756 76.7172 42.3071 76.8056 43.8211C76.8056 43.8211 76.6015 49.0058 70.6522 52.1495L69.8876 51.1991C69.8906 51.1991 74.3168 48.162 74.0914 43.8637Z" fill="white"/>
<path d="M66.4942 39.5477L66.2292 40.0046C66.2292 40.0046 66.086 40.4342 66.5948 41.1896C66.5948 41.1896 66.4577 41.3876 66.2109 41.5034C66.1531 41.4029 66.0769 41.345 65.9977 41.1896C65.7753 41.2841 65.5895 41.4364 65.2483 41.6983C65.2483 41.6983 65.0138 40.8819 65.5042 40.1509C65.7083 39.8401 66.0617 39.4319 66.4942 39.5477Z" fill="#FFCDA9"/>
<path d="M19.0823 72.5562C18.1166 72.5562 17.3337 73.0131 17.3337 73.5766C17.3337 74.1402 18.1166 74.5971 19.0823 74.5971C20.0479 74.5971 20.8308 74.1402 20.8308 73.5766C20.8308 73.0131 20.0479 72.5562 19.0823 72.5562Z" fill="#8E6CDE"/>
<path opacity="0.46" d="M19.0825 54.6477L11.9939 57.4259V63.829C12.8529 70.5643 19.0825 71.9777 19.0825 71.9777C19.0825 71.9777 25.309 70.5612 26.1711 63.829V57.4259L19.0825 54.6477Z" fill="#8A2AE3"/>
<path opacity="0.67" d="M19.0823 56.5212L13.526 58.6993V63.7195C14.1992 68.9986 19.0823 70.1074 19.0823 70.1074C19.0823 70.1074 23.9654 68.9986 24.6387 63.7195V58.6993L19.0823 56.5212Z" fill="#9AD954"/>
<path opacity="0.67" d="M19.0828 59.4514L15.9238 60.6882V63.5425C16.3077 66.543 19.0828 67.1736 19.0828 67.1736C19.0828 67.1736 21.8579 66.543 22.2417 63.5425V60.6882L19.0828 59.4514Z" fill="#9AD954"/>
<path d="M34.1043 54.3818C34.1012 54.3818 34.0982 54.3818 34.0982 54.3788L32.9132 53.7177C32.9071 53.7147 32.9041 53.7086 32.9041 53.7025C32.9041 53.6964 32.9071 53.6903 32.9132 53.6903L34.0982 53.0506C34.1012 53.0476 34.1073 53.0476 34.1134 53.0506L35.3289 53.6903C35.335 53.6934 35.338 53.6995 35.338 53.7025C35.338 53.7086 35.335 53.7147 35.3289 53.7177L34.1134 54.3788C34.1073 54.3818 34.1043 54.3818 34.1043 54.3818ZM32.9498 53.7056L34.1043 54.3483L35.2862 53.7056L34.1043 53.0841L32.9498 53.7056Z" fill="#8A2AE3"/>
<path d="M34.1046 54.1477C34.1015 54.1477 34.0985 54.1477 34.0954 54.1446C34.0894 54.1416 34.0894 54.1355 34.0894 54.1325V51.4122C34.0894 51.4061 34.0955 51.4 34.1015 51.3969C34.1076 51.3939 34.1168 51.3969 34.1198 51.403L35.3353 53.4928C35.3383 53.4958 35.3383 53.5019 35.3353 53.5049C35.3353 53.508 35.3322 53.511 35.3261 53.5141L34.1107 54.1446C34.1076 54.1477 34.1046 54.1477 34.1046 54.1477ZM34.1198 51.4701V54.105L35.2957 53.4958L34.1198 51.4701Z" fill="#8A2AE3"/>
<path d="M34.1043 54.1478C34.1012 54.1478 34.0982 54.1478 34.0982 54.1448L32.9132 53.5355C32.9101 53.5325 32.9071 53.5294 32.9041 53.5264C32.9041 53.5233 32.9041 53.5173 32.9041 53.5142L34.089 51.4062C34.0921 51.4001 34.1012 51.3971 34.1073 51.4001C34.1134 51.4032 34.1195 51.4093 34.1195 51.4154V54.1356C34.1195 54.1417 34.1165 54.1448 34.1134 54.1478C34.1073 54.1478 34.1073 54.1478 34.1043 54.1478ZM32.9406 53.5142L34.089 54.1052V51.4732L32.9406 53.5142Z" fill="#8A2AE3"/>
<path d="M34.1041 55.6161C34.098 55.6161 34.0949 55.613 34.0919 55.61L32.9069 53.7152C32.9039 53.7091 32.9039 53.7 32.91 53.6969C32.916 53.6909 32.9221 53.6908 32.9282 53.6939L34.1132 54.3549C34.1193 54.358 34.1223 54.3641 34.1223 54.3671V55.6008C34.1223 55.6069 34.1163 55.613 34.1102 55.6161C34.1071 55.6161 34.1041 55.6161 34.1041 55.6161ZM32.9617 53.7487L34.0858 55.546V54.3763L32.9617 53.7487Z" fill="#8A2AE3"/>
<path d="M34.1046 55.6161H34.1015C34.0955 55.613 34.0894 55.6069 34.0894 55.6008V54.3671C34.0894 54.361 34.0924 54.3549 34.0985 54.3549L35.3139 53.6939C35.32 53.6908 35.3292 53.6909 35.3322 53.6969C35.3383 53.703 35.3383 53.7091 35.3353 53.7152L34.1198 55.61C34.1137 55.613 34.1076 55.6161 34.1046 55.6161ZM34.1198 54.3763V55.546L35.2713 53.7487L34.1198 54.3763Z" fill="#8A2AE3"/>
<path d="M36.1686 57.6389H36.1656L35.5106 57.2734C35.5076 57.2703 35.5076 57.2703 35.5076 57.2642C35.5076 57.2612 35.5106 57.2581 35.5106 57.2581L36.1656 56.9048C36.1686 56.9048 36.1716 56.9048 36.1747 56.9048L36.8449 57.2581C36.8479 57.2612 36.851 57.2612 36.851 57.2642C36.851 57.2673 36.8479 57.2703 36.8479 57.2734L36.1777 57.6389C36.1716 57.6359 36.1686 57.6389 36.1686 57.6389ZM35.5319 57.2642L36.1686 57.6176L36.8205 57.2642L36.1686 56.92L35.5319 57.2642Z" fill="#8A2AE3"/>
<path d="M36.1688 57.5077C36.1658 57.5077 36.1658 57.5077 36.1658 57.5077C36.1627 57.5047 36.1627 57.5047 36.1627 57.5017V55.9999C36.1627 55.9968 36.1658 55.9938 36.1688 55.9907C36.1719 55.9907 36.1779 55.9907 36.1779 55.9938L36.8481 57.1483C36.8481 57.1513 36.8481 57.1513 36.8481 57.1544C36.8481 57.1574 36.8451 57.1574 36.8451 57.1605L36.1749 57.5077C36.1719 57.5077 36.1688 57.5077 36.1688 57.5077ZM36.1779 56.0303V57.4864L36.8268 57.1483L36.1779 56.0303Z" fill="#8A2AE3"/>
<path d="M36.1685 57.508H36.1654L35.5105 57.1699C35.5074 57.1699 35.5074 57.1669 35.5074 57.1638C35.5074 57.1608 35.5074 57.1577 35.5074 57.1577L36.1624 55.9941C36.1654 55.991 36.1685 55.988 36.1715 55.991C36.1746 55.991 36.1776 55.9941 36.1776 56.0001V57.5019C36.1776 57.505 36.1746 57.508 36.1746 57.508C36.1715 57.508 36.1685 57.508 36.1685 57.508ZM35.5257 57.1577L36.1593 57.4837V56.0306L35.5257 57.1577Z" fill="#8A2AE3"/>
<path d="M36.1687 58.3185C36.1656 58.3185 36.1626 58.3185 36.1626 58.3155L35.5077 57.2675C35.5046 57.2645 35.5046 57.2584 35.5077 57.2584C35.5107 57.2554 35.5137 57.2554 35.5168 57.2554L36.1717 57.6209C36.1748 57.624 36.1748 57.624 36.1748 57.627V58.3094C36.1778 58.3155 36.1748 58.3185 36.1687 58.3185ZM35.5381 57.2889L36.1595 58.2819V57.6361L35.5381 57.2889Z" fill="#8A2AE3"/>
<path d="M36.1689 58.3185C36.1628 58.3185 36.1598 58.3125 36.1598 58.3094V57.6271C36.1598 57.624 36.1628 57.621 36.1628 57.621L36.833 57.2554C36.8361 57.2524 36.8422 57.2554 36.8422 57.2585C36.8452 57.2615 36.8452 57.2645 36.8422 57.2676L36.172 58.3155C36.175 58.3185 36.172 58.3185 36.1689 58.3185ZM36.1781 57.6331V58.2789L36.8147 57.2859L36.1781 57.6331Z" fill="#8A2AE3"/>
<path d="M10.5193 74.1657C10.5193 75.1618 8.45086 75.969 5.90117 75.969C3.35147 75.969 1.28308 75.1618 1.28308 74.1657C1.28308 73.1696 3.35147 72.3623 5.90117 72.3623C8.45086 72.3623 10.5193 73.1696 10.5193 74.1657Z" fill="#8E6CDE"/>
<path d="M7.67696 56.8323H8.67003L8.11257 74.077H7.36929C7.36929 74.077 6.03199 68.7034 6.3884 65.1607C6.69607 61.0787 6.03809 59.3119 6.03809 59.3119" fill="#00216C"/>
<path d="M8.13108 56.8323L6.69936 64.9474L1.69135 72.6361L0.923706 72.3163C0.923706 72.3163 2.77886 66.7904 4.75282 64.1432L3.75365 60.1313C3.75365 60.1313 3.2297 58.5839 3.42771 56.8353H8.13108V56.8323Z" fill="#002A88"/>
<path opacity="0.44" d="M8.63671 57.9807L3.38806 57.8375L3.43375 56.8323" fill="#00216C"/>
<path d="M0.923687 72.3162L0.814023 72.4715C0.768329 72.5355 0.780513 72.6269 0.841438 72.6726L3.07737 74.415C3.07737 74.415 3.19313 73.5712 2.13609 72.6878C1.48724 72.3619 0.923687 72.3162 0.923687 72.3162Z" fill="#000F1F"/>
<path d="M7.25671 73.8241V74.0191C7.25671 74.0983 7.31764 74.1653 7.39379 74.1653H10.178C10.178 74.1653 9.79118 73.4159 8.4417 73.3672C7.73193 73.5104 7.25671 73.8241 7.25671 73.8241Z" fill="#000F1F"/>
<path d="M9.05103 53.0433L11.1834 53.086L13.5442 45.6318L9.56584 45.7476L9.05103 53.0433Z" fill="#131637"/>
<path d="M8.69482 49.8567C9.09083 49.3967 10.3763 49.0159 11.0861 50.9107C11.933 53.1801 13.1484 54.758 16.545 55.4373L16.4993 56.0314C16.4993 56.0314 12.6884 56.6437 9.67571 52.4977C8.69482 51.1483 8.03988 50.6182 8.69482 49.8567Z" fill="#FFCDA9"/>
<path d="M16.3503 55.3974L17.051 54.7942L18.2877 54.7211C18.2877 54.7211 18.6959 54.6845 18.638 54.8247C18.5802 54.9648 17.846 55.1354 17.846 55.1354L17.3556 55.6075C17.3556 55.6075 17.8643 55.5101 18.0471 55.4248C18.2298 55.3395 18.3029 55.5101 18.2542 55.6075C18.2055 55.705 17.5383 55.9579 17.3068 56.0066C17.0753 56.0553 16.4996 56.034 16.4996 56.034L16.201 55.7812L16.3503 55.3974Z" fill="#FFCDA9"/>
<path d="M10.1292 50.7581L10.4186 53.1433L11.7072 51.934C11.5274 51.5806 11.3416 51.3064 11.1192 50.8465C10.7598 50.1032 10.4125 49.7468 10.0287 49.5823L10.1292 50.7581Z" fill="#CAFD92"/>
<path d="M11.4672 44.8664C11.2265 45.43 11.4885 46.0819 12.0521 46.3195C12.6156 46.5601 13.2675 46.2981 13.5051 45.7346C13.7458 45.171 13.4838 44.5191 12.9202 44.2815C12.3597 44.0409 11.7079 44.3029 11.4672 44.8664Z" fill="#131637"/>
<path d="M13.356 44.8025C13.3194 44.9487 13.1702 45.0401 13.0239 45.0036C12.8777 44.967 12.7863 44.8177 12.8229 44.6715C12.8594 44.5253 13.0087 44.4339 13.1549 44.4705C13.3011 44.507 13.3925 44.6563 13.356 44.8025Z" fill="#131637"/>
<path d="M13.2736 45.1343C13.237 45.2805 13.0878 45.3719 12.9415 45.3353C12.7953 45.2988 12.7039 45.1495 12.7405 45.0033C12.777 44.8571 12.9263 44.7657 13.0725 44.8023C13.2187 44.8388 13.3101 44.9881 13.2736 45.1343Z" fill="#131637"/>
<path d="M13.1548 44.4704C13.1548 44.4704 13.2249 43.066 11.6226 42.801C11.6226 42.801 11.1291 43.3402 9.81006 43.855C9.87403 44.3546 9.43842 44.6044 9.2526 45.0705C8.41793 47.1663 7.29996 49.3474 5.46613 50.7425C5.43567 50.7639 5.40521 50.7852 5.37475 50.8065C5.17674 51.0502 4.97264 51.2848 4.76245 51.5163C5.0092 51.9549 5.48746 52.3845 6.41656 52.5947C8.14682 50.7517 9.44451 48.5584 9.44451 48.5584L10.9067 47.2638L12.2379 46.7154C12.2318 46.7185 13.8859 44.909 13.1548 44.4704Z" fill="#131637"/>
<path d="M13.1029 45.7468C13.0968 45.7681 13.3162 46.7033 13.042 47.4984L12.3079 47.206L13.1029 45.7468Z" fill="#FF907D"/>
<path d="M13.1576 45.0708C13.1576 45.0708 13.7334 46.5513 11.8264 48.5588L10.812 47.9617L10.2698 49.232L8.88074 48.638L9.5113 47.1606C9.5113 47.1606 10.279 46.9991 10.6049 46.2315C10.6049 46.2315 9.91036 45.8842 10.2485 45.2628C10.4648 44.8667 11.0801 45.0373 11.0801 45.5278L10.9034 45.9451C10.9034 45.9451 11.272 45.9238 11.5492 45.3633C11.5492 45.3633 11.8782 45.4729 12.3413 45.3907C12.9353 45.2841 13.1576 45.0708 13.1576 45.0708Z" fill="#FFCDA9"/>
<path d="M12.0371 47.1023L12.6737 47.48C12.558 47.6689 12.4239 47.8608 12.2625 48.0619C11.6746 47.6719 12.0371 47.1023 12.0371 47.1023Z" fill="white"/>
<path d="M9.43551 48.2172C8.72269 47.9126 7.81797 48.2264 7.61082 48.9758C6.36187 50.5111 6.11817 53.009 5.23172 54.4011C4.34222 55.7993 3.4314 56.832 3.4314 56.832L8.63436 57.9804C8.63436 57.9804 9.34718 54.4255 9.55736 54.1726C9.7706 53.9167 11.047 53.9046 11.443 52.7775L10.4377 49.4175C10.3128 48.8783 9.94119 48.4335 9.43551 48.2172Z" fill="#9AD954"/>
<path opacity="0.51" d="M9.56007 54.1731C9.62404 54.0969 9.7794 54.0451 9.97436 53.9751C9.97436 53.3902 10.0414 52.7931 10.151 52.1687C10.5318 50.0028 9.11532 49.6525 8.49085 49.8657C7.45817 50.2191 7.00733 51.3614 7.22361 53.1617C7.44903 55.0291 8.07961 56.4821 8.72541 57.5392C9.02698 56.2963 9.4169 54.3437 9.56007 54.1731Z" fill="#9AD954"/>
<path d="M8.9176 48.1291L8.99681 47.989C8.79271 48.0042 10.0447 47.9707 10.5839 49.0095L10.4712 49.5639C10.4742 49.5639 9.95941 48.6836 8.9176 48.1291Z" fill="#FFAF00"/>
<path d="M8.02817 47.6419C7.95506 47.9434 8.13783 48.2481 8.44245 48.3242C8.74403 48.3973 9.04865 48.2146 9.12481 47.9099C9.19792 47.6084 9.01515 47.3037 8.71052 47.2276C8.4059 47.1545 8.10128 47.3403 8.02817 47.6419Z" fill="#131637"/>
<path d="M11.6228 42.8014C11.6228 42.8014 9.56655 42.71 9.05174 44.7388C7.75404 49.8412 5.15561 49.0705 3.7909 51.3918C2.87094 52.9575 3.18775 54.8553 4.65603 55.2574C4.65603 55.2574 5.91108 53.9323 6.46854 51.9492C6.69396 51.1542 7.16917 49.5671 8.00079 49.0157C8.00079 49.0157 9.54827 49.1741 9.51172 47.1636C9.26497 45.5918 10.8521 44.3184 10.8521 44.3184L12.2107 43.9681L11.6228 42.8014Z" fill="#131637"/>
<path d="M8.69749 49.3937C9.26105 49.1866 10.2023 49.6618 9.9038 51.6419C9.54739 54.0088 10.1384 56.1046 12.7459 58.3192L12.2585 58.9863C12.2585 58.9863 8.82848 57.3261 7.9664 52.3212C7.68615 50.6945 7.76839 49.7349 8.69749 49.3937Z" fill="#FFCDA9"/>
<path d="M12.5538 58.155C12.5538 58.155 13.096 58.0423 13.2879 58.0758C13.2879 58.0758 14.281 58.091 14.4363 58.1032C14.4363 58.1032 14.5308 58.3195 14.2536 58.3957C13.9763 58.4718 13.6138 58.4779 13.6138 58.4779C13.6138 58.4779 13.9824 58.7033 14.2536 58.7521C14.5247 58.8008 15.0608 58.9105 15.1613 59.0536C15.2619 59.1938 15.0882 59.2456 15.0882 59.2456C15.0882 59.2456 14.2657 59.075 14.0891 59.0384C13.9337 59.0079 13.9611 59.0811 13.9611 59.0811C13.9611 59.0811 14.8506 59.4892 15.009 59.5624C15.1674 59.6355 15.1887 59.7512 15.076 59.867C15.076 59.867 14.6008 59.6507 14.2962 59.5441C14.1896 59.5075 13.8545 59.3156 13.8179 59.4375C13.8179 59.4375 14.5429 59.867 14.6739 59.9249C14.8049 59.9827 14.8171 60.1198 14.6831 60.1929L13.6534 59.6873C13.6534 59.6873 13.5742 59.6659 13.5773 59.7208C13.5803 59.7726 13.9611 60.1503 14.0099 60.1777C14.0616 60.2082 14.214 60.3148 14.1104 60.4244C14.1104 60.4244 14.0708 60.458 13.9246 60.3605C13.7814 60.263 13.0838 59.8213 13.0838 59.8213C13.0838 59.8213 12.5934 59.5776 12.243 59.078C11.8866 58.5754 12.0054 58.3561 11.975 58.7064L12.2217 58.4779L12.5538 58.155Z" fill="#FFCDA9"/>
<path d="M10.1877 51.8273C10.209 51.5897 10.2364 51.3491 10.273 51.1023C10.5715 49.1253 9.27685 48.8359 8.7133 49.0431C7.7842 49.3873 7.39732 50.4352 7.63188 52.068C7.64407 52.1533 7.6593 52.2325 7.67149 52.3147L10.1877 51.8273Z" fill="#CAFD92"/>
<defs>
<linearGradient id="paint0_linear_43_552" x1="51.8189" y1="24.1373" x2="38.2477" y2="37.7085" gradientUnits="userSpaceOnUse">
<stop stop-color="#81FFFF"/>
<stop offset="0.0108" stop-color="#87FFFF" stop-opacity="0.9892"/>
<stop offset="0.0734" stop-color="#A7FFFF" stop-opacity="0.9266"/>
<stop offset="0.1441" stop-color="#C3FFFF" stop-opacity="0.8559"/>
<stop offset="0.2236" stop-color="#D9FFFF" stop-opacity="0.7764"/>
<stop offset="0.316" stop-color="#EAFFFF" stop-opacity="0.684"/>
<stop offset="0.4293" stop-color="#F6FFFF" stop-opacity="0.5707"/>
<stop offset="0.5862" stop-color="#FDFFFF" stop-opacity="0.4138"/>
<stop offset="1" stop-color="white" stop-opacity="0"/>
</linearGradient>
<linearGradient id="paint1_linear_43_552" x1="38.2122" y1="35.0565" x2="28.0955" y2="45.1732" gradientUnits="userSpaceOnUse">
<stop stop-color="#81FFFF"/>
<stop offset="0.0108" stop-color="#87FFFF" stop-opacity="0.9892"/>
<stop offset="0.0734" stop-color="#A7FFFF" stop-opacity="0.9266"/>
<stop offset="0.1441" stop-color="#C3FFFF" stop-opacity="0.8559"/>
<stop offset="0.2236" stop-color="#D9FFFF" stop-opacity="0.7764"/>
<stop offset="0.316" stop-color="#EAFFFF" stop-opacity="0.684"/>
<stop offset="0.4293" stop-color="#F6FFFF" stop-opacity="0.5707"/>
<stop offset="0.5862" stop-color="#FDFFFF" stop-opacity="0.4138"/>
<stop offset="1" stop-color="white" stop-opacity="0"/>
</linearGradient>
<linearGradient id="paint2_linear_43_552" x1="47.4455" y1="64.6614" x2="47.4455" y2="1.67111" gradientUnits="userSpaceOnUse">
<stop stop-color="#AD68FF"/>
<stop offset="0.1957" stop-color="#AD68FF" stop-opacity="0.8043"/>
<stop offset="0.5877" stop-color="#AD68FF" stop-opacity="0.4123"/>
<stop offset="1" stop-color="#AD68FF" stop-opacity="0"/>
</linearGradient>
</defs>
</svg>
