<svg width="481" height="385" viewBox="0 0 481 385" fill="none" xmlns="http://www.w3.org/2000/svg">
<path d="M56.7373 138.13C57.8138 139.061 64.0368 134.537 62.2187 136.854C55.8069 140.297 62.5234 137.829 64.2179 136.17C65.3052 132.607 66.7908 139.878 68.7142 136.675C68.701 138.15 70.6461 137.455 70.5054 136.596C73.5051 136.565 77.0228 138.508 80.0943 138.392C83.1138 139.834 78.7957 139.946 79.5487 140.469C81.2668 141.173 84.8899 140.664 86.5017 140.421C87.4136 140.064 88.8116 143.297 89.4167 143.282C89.5087 140.997 87.2655 137.812 91.3147 137.887C98.4601 144.311 103.154 134.095 102.692 140.027C104.893 142.202 103.649 140.623 104.029 138.998C107.762 138.618 103.856 135.719 106.537 135.385C100.657 134.76 104.519 128.167 104.204 123.61C103.524 122.707 111.114 120.406 108.769 122.547C108.729 124.402 106.832 126.317 105.239 125.654C105.855 128.141 104.827 128.145 106.909 130.2C108.832 132.411 106.242 135.066 109.699 134.696C109.538 138.776 110.446 138.136 111.734 134.909C114.429 135.643 111.777 137.988 112.702 139.244C113.785 140.122 116.25 140.78 115.019 138.606C116.666 138.828 115.231 136.855 115.985 136.48C117.544 135.572 116.651 136.066 116.232 134.353C115.763 132.276 121.587 134.307 121.024 135.923C119.004 137.413 122.662 141.975 117.637 141.99C116.351 142.161 115.013 141.265 114.458 142.382C117.923 144.466 109.873 143.657 108.961 143.543C117.723 146.1 113.48 148.562 107.099 148.287C112.547 149.399 103.783 151.602 104.275 157.755C108.23 158.234 107.542 162.739 111.93 161.776C114.125 163.889 118.439 164.25 119.991 165.766C119.734 167.393 119.805 169.959 122.477 169.909C123.49 171.355 123.529 172.753 124.661 170.803C123.083 163.122 125.15 166.599 126.786 161.565C127.407 159.323 124.416 157.939 125.452 156.119C126.333 154.738 125.235 155.108 125.242 153.536C125.324 152.853 125.442 150.877 124.784 150.46C126.064 150.542 130.139 149.832 131.474 151.099C132.96 153.059 136.014 151.98 135.11 154.336C134.248 157.513 138.434 159.209 139.938 156.773C141.422 152.05 142.835 155.509 144.556 159.013C145.951 160.134 143.811 161.198 144.994 161.907C146.2 162.339 146.193 163.362 146.277 164.05C150.048 163.933 150.34 165.356 147.206 167.14C148.988 167.392 154.381 164.638 151.263 170.723C144.787 174.396 137.128 172.395 133.126 180.158C135.09 179.087 138.116 175.488 140.551 175.267C142.862 176.04 140.858 178.037 139.533 177.704C141.057 178.94 140.358 179.237 141.691 181.041C144.208 182.793 145.225 182.23 145.995 179.879C148.23 180.198 144.113 184.527 142.361 184.31C140.26 185.561 138.107 186.966 140.797 183.705C141.724 183.538 143.817 182.802 141.728 182.675C140.853 181.123 138.033 185.04 136.233 184.604C133.12 187.1 135.039 190.5 130.226 191.211C129.574 191.888 129.384 195.937 128.698 193.435C127.953 192.342 128.299 192.569 128.366 193.778C129.548 197.349 127.066 197.615 127.715 193.696C126.654 192.319 126.725 199.681 127.54 199.747C127.665 200.315 126.158 200.227 127.259 200.893C126.154 201.407 125.139 202.469 124.082 203.198C117.179 205.053 125.588 216.188 120.922 214.53C119.646 208.238 117.574 207.67 111.401 208.104C109.28 208.603 112.201 208.998 111.809 209.755C111.34 209.875 110.738 209.232 109.911 209.706C100.972 204.616 97.3221 222.163 105.802 224.129C109.568 223.78 109.125 223.228 110.718 220.105C117.64 218.525 112.394 222.435 112.754 225.503C109.761 228.264 115.775 226.753 117.83 227.613C120.692 229.802 115.708 233.55 119.446 235.167C121.223 237.356 125.339 233.999 126.469 236.966C126.891 234.465 129.042 232.83 131.843 232.322C142.266 231.544 151.001 239.085 158.392 244.453C161.238 250.074 169.902 250.043 174.689 253.808C180.455 254.155 174.621 262.053 172.3 263.096C172.151 265.051 171.452 269.963 171.563 272.091C168.156 273.122 164.048 277.438 161.376 280.003C160.287 284.557 154.213 293.107 150.293 292.664C152.397 297.001 145.747 294.932 145.048 297.6C140.957 297.821 145.881 302.592 143.737 301.698C141.384 299.961 138.358 306.868 139.639 310.095C135.244 314.053 133.58 322.458 142.591 323.045C135.759 326.572 125.804 318.907 128.472 309.603C128.946 296.437 135.672 282.901 134.125 270.325C129.125 265.699 125.909 262.736 122.924 255.868C118.643 251.213 123.057 246.504 125.873 242.493C126.625 239.803 124.693 233.478 122.115 237.817C117.468 236.427 116.996 234.268 113.513 230.848C107.426 227.427 101.658 225.714 95.245 223.623C89.7504 219.441 86.2579 209.664 80.2174 205.274C80.0163 207.413 89.2344 219.473 83.8675 215.054C84.4655 213.288 79.3966 211.251 79.8279 210.41C82.6344 212.22 76.879 201.813 74.3856 202.036C68.8359 197.239 69.2631 187.603 69.9272 180.778C68.1857 177.843 68.5771 177.185 71.6109 178.619C71.1587 175.915 66.9638 175.08 65.1142 173.781C62.7274 169.879 60.7384 166.825 56.8605 164.819C54.1187 158.679 46.9518 159.213 42.1475 156.579C40.172 156.3 38.235 162.081 35.8574 160.894C36.0863 159.962 36.1238 158.217 37.6848 157.754C38.6714 157.263 38.6326 157.23 38.2482 157.263C36.8506 157.291 39.9185 156.082 39.4058 155.824C35.0166 156.361 33.1537 163.81 29.2217 165.799C27.5273 167.295 15.9674 172.504 21.9866 168.447C24.082 167.813 31.4359 163.478 29.0122 161.841C24.9929 163.069 15.9711 159.047 21.2124 154.746C24.6388 153.288 26.1842 153.698 24.3387 150.46C18.3986 154.426 15.5073 146.853 22.5135 148.955C28.7961 146.932 20.151 146.635 19.9507 143.494C23.3311 139.361 31.0518 133.698 35.8245 137.77C41.7962 136.996 52.5056 141.092 56.7373 138.13ZM141.184 100.193C138.875 106.157 123.216 105.211 135.672 112.033C145.557 112.269 154.372 114.848 152.564 126.588C153.462 127.62 153.469 129.645 153.968 130.806C156.786 127.7 161.225 133.009 155.163 135.645C153.001 141.684 160.713 156.34 167.874 153.438C169.212 151.985 169.686 143.293 171.984 142.284C177.083 140.992 177.448 140.168 180.167 136.363C184.824 133.892 195.683 133.109 192.04 125.867C191.703 121.96 195.659 119.037 196.712 116.318C195.967 113.155 193.46 107.742 197.237 106.047C190.763 101.23 200.756 95.3804 204.576 93.0305C205.87 89.977 192.977 93.0802 191.16 94.013C191.372 93.0273 191.602 90.0535 193.517 89.3999C188.579 87.5288 176.179 84.1797 171.74 88.8449C166.549 88.4815 157.562 87.674 165.699 93.1283C160.785 87.7726 132.917 97.4309 141.184 100.193ZM89.1374 127.23C89.7766 132.269 88.232 127.064 86.5146 127.773C83.9845 128.806 85.1704 128.018 83.9377 127.098C81.3611 127.338 81.0207 129.279 81.13 126.204C77.6468 126.482 73.7049 130.315 77.7342 132.156C74.3211 133.129 77.1392 133.875 78.9521 133.574C90.9325 134.161 79.761 134.22 76.9847 135.709C80.8063 138.517 86.1734 140.023 90.3075 135.907C91.427 136.79 96.8036 138.918 96.1857 135.885C96.2782 135.45 95.2454 135.972 94.8731 136.191C93.6585 134.414 99.9981 135.91 96.4877 133.641C93.2531 133.912 90.1757 120.962 89.1374 127.23ZM69.7034 125.377C70.1649 127.009 67.6565 129.476 67.5723 130.849C69.3913 132.558 73.1154 133.902 74.0577 130.629C73.3715 128.443 81.5974 126.239 78.8357 124.46C77.2803 123.527 66.981 121.418 69.7034 125.377ZM100.187 135.82C96.9667 137.021 103.661 138.634 104.495 136.846C103.88 136.213 100.527 132.671 100.187 135.82ZM95.7609 125.616C94.18 126.511 99.0271 129.763 100.444 129.499C104.234 128.47 102.684 124.966 99.9295 125.659C105.249 122.558 97.5178 122.11 96.0436 124.175C96.3958 124.755 99.2727 124.486 97.7758 126.226C96.5633 127.675 96.8778 124.895 95.7609 125.616ZM91.2679 123.611C88.1262 123.73 92.9915 126.694 92.9986 125.05C93.2568 123.938 92.883 123.456 91.2679 123.611ZM74.3615 115.171C72.7611 116.42 69.499 119.927 73.2857 118.618C74.3513 118.914 77.8025 113.969 77.0554 116.654C80.6285 117.418 81.2782 109.163 74.3615 115.171ZM81.5025 116.655C76.4911 116.434 77.1418 123.846 81.48 119.687C82.476 118.494 81.3656 121.708 83.1434 120.207C87.9169 118.983 81.4078 121.879 80.4961 121.734C82.4908 123.454 89.7077 120.138 91.7379 118.88C93.1574 115.089 90.0161 116.992 90.0972 118.226C89.6338 117.689 88.3699 115.55 87.7788 114.779C84.3161 115.539 87.855 117.362 87.8508 118.725C85.3022 119.993 83.5846 116.56 81.5025 116.655ZM77.1716 117.79C77.3199 117.537 75.3947 118.923 75.1012 119.369C75.4214 120.585 76.8746 119.118 77.1716 117.79ZM80.8724 114.9C79.5961 115.514 82.8686 115.542 82.2526 114.779C82.0907 114.452 81.2585 114.725 80.8724 114.9ZM84.8636 110.759C83.5729 111.104 82.0482 111.384 82.9909 112.916C83.2083 113.959 89.0742 111.956 85.3105 111.565C85.184 111.263 89.7752 110.148 84.8636 110.759ZM80.4277 111.444C79.2429 111.784 82.6348 112.442 82.194 111.946C82.0907 111.704 81.4684 110.963 80.4277 111.444ZM83.4463 109.297C80.48 111.374 85.3744 109.369 86.7967 109.666C89.2321 108.043 86.0716 108 83.4463 109.297ZM91.3839 111.27C90.6577 111.907 93.086 113.653 93.2689 112.883C93.3861 112.448 91.9591 110.873 91.3839 111.27ZM94.0888 114.693C92.4178 114.288 92.7103 116.383 94.0995 116.502C96.0128 116.75 95.4103 114.881 94.0888 114.693ZM97.5428 115.718C96.9865 114.98 95.4784 114.957 96.0665 115.882C96.5169 115.868 97.4777 116.748 96.1608 116.797C93.5137 116.677 95.7648 117.834 97.237 117.681C101.412 116.207 95.3397 120.486 99.9547 119.206C102.684 119.463 100.176 116.348 101.756 117.538C102.036 114.3 99.0281 113.248 97.6695 114.835C99.0922 115.903 99.0486 117.332 97.5428 115.718ZM93.2691 118.824C92.8934 118.976 92.751 119.404 92.7301 119.686C92.943 120.423 96.0026 118.439 93.2691 118.824ZM104.321 117.342C100.856 118.651 104.486 120.729 106.169 119.641C106.626 119.13 105.959 116.447 104.321 117.342ZM108.838 113.538C102.242 112.508 99.821 113.169 107.435 115.45C106.563 122.469 118.622 120.761 122.995 118.084C124.285 112.579 114.889 117.828 112.228 116.923C107.362 115.33 114.03 114.712 108.838 113.538ZM93.9484 107.454C96.2322 107.897 91.6235 108.688 93.3863 108.86C95.1864 107.884 99.9431 112.007 99.745 109.481C98.3707 104.736 86.8344 105.93 93.9484 107.454ZM104.064 99.4415C100.293 102.524 108.271 101.607 103.29 102.467C99.2885 105.293 111.131 103.488 108.629 105.082C101.714 106.53 110.645 109.027 112.632 107.797C113.48 106.647 113.618 105.267 115.354 104.952C117.16 104.927 106.321 94.0773 104.064 99.4415ZM102.27 109.008C99.7071 110.693 104.975 109.837 105.117 108.695C104.204 108.114 97.7808 104.084 102.27 109.008ZM145.234 91.9963C137.4 89.2655 108.649 91.2523 123.18 95.7016C120.785 94.3685 110.378 93.9493 108.804 96.8361C114.743 101.612 118.659 99.2083 125.755 96.8799C121.852 102.361 109.707 97.8608 119.06 105.904C117.144 103.945 109.833 108.108 116.623 109.218C118.979 109.242 120.621 108.258 116.999 110.136C116.52 109.725 111.625 108.577 113.441 110.484C115.896 111.967 107.432 113.786 114.282 113.93C115.281 113.971 119.596 113.861 120.511 113.144C123.052 113.348 119.957 115.441 123.977 113.581C127.574 111.022 121.809 111.256 124.726 107.783C125.044 107.664 131.427 104.998 128.096 103.201C128.066 103.037 132.699 102.327 133.435 100.891C134.09 100.062 134.325 99.7564 132.735 99.9324C131.005 100.481 146.093 93.9025 140.083 94.9614C130.388 95.0093 144.235 94.1777 145.234 91.9963ZM119.013 122.258C111.616 119.172 106.682 133.268 115.5 132.898C122.722 133.137 124.253 128.799 129.221 136.17C137.608 141.479 128.329 144.473 124.819 145.456C124.758 148.505 130.342 145.095 131.187 146.416C132.135 147.938 135.354 147.861 132.452 148.685C131.365 148.596 141.716 152.451 139.24 150.473C135.038 147.193 137.278 147.038 140.178 149.469C144.32 147.612 136.784 144.066 136.665 142.012C137.375 139.662 139.163 140.031 140.741 142.448C143.126 147.062 147.666 137.76 140.742 137.74C129.578 133.546 143.259 136.893 137.087 131.241C125.905 120.578 123.05 130.047 119.013 122.258ZM121.119 122.258C119.283 124.074 125.705 125.236 126.41 123.871C126.741 123.784 122.946 122.039 121.119 122.258ZM115.863 143.886C113.79 150.062 115.133 148.944 120.041 148.072C125.415 149.798 116.326 142.794 115.863 143.886ZM124.699 220.297C124.145 215.777 111.469 219.411 121.552 218.702C119.572 219.072 125.753 221.207 123.913 222.996C128.31 226.127 126.915 222.954 124.699 220.297ZM128.101 225.087C130.702 228.762 124.133 225.091 126.649 226.866C129.734 229.066 128.021 227.238 131.881 227.883C138.739 228.98 127.673 223.338 128.101 225.087ZM122.93 225.54C122.246 224.784 121.392 224.674 121.385 225.318C121.054 226.231 123.735 226.512 122.93 225.54ZM136.12 228.821C135.378 228.566 135.225 229.125 135.719 229.592C137.003 230.342 139.537 229.826 136.12 228.821ZM127.576 137.559C124.996 137.673 128.083 141.735 128.575 140.405C128.91 139.588 129.243 136.855 127.576 137.559ZM119.692 149.665C117.016 149.551 117.621 152.234 119.597 150.973C120.605 150.473 121.307 149.404 119.692 149.665ZM122.782 150.93C122.529 151.007 122.455 151.584 122.782 152.106C123.564 152.909 125.181 149.876 122.782 150.93ZM106.58 110.682C101.496 111.154 105.531 111.5 108.267 111.401C112.154 110.758 110.674 109.511 106.58 110.682ZM97.8005 102.985C96.3676 103.429 96.7227 103.726 98.4072 104.467C101.417 106.09 99.9044 101.171 97.8005 102.985ZM197.884 139.479C192.977 139.459 193.036 146.552 191.06 140.296C187.453 138.02 190.343 141.511 187.578 142.21C187.922 142.354 192.022 142.373 189.734 144.33C195.991 150.474 212.966 137.688 197.884 139.479ZM316.423 235.545C316.245 236.641 315.456 240.534 317.711 239.655C319.682 239.217 317.268 235.061 316.423 235.545ZM315.994 234.736C316.361 235.708 316.431 234.266 315.98 234.779ZM366.55 269.54C358.801 271.706 354.33 275.656 358.685 283.409C361.334 286.607 356.441 292.311 362.51 291.125C369.237 289.115 377.886 281 383.864 288.345C389.283 284.025 383.935 290.605 386.78 288.346C387.785 293.875 395.094 295.154 399.108 292.857C402.74 291.105 405.662 281.832 404.868 277.323C404.946 274.651 402.515 275.332 401.951 273.53C401.931 271.234 401.055 273.011 400.196 271.764C400.188 269.241 395.922 270 396.541 267.676C396.985 265.519 395.074 266.175 395.384 264.35C395.623 262.016 393.985 263.587 393.301 261.842C389.904 254.361 391.92 265.026 389.719 267.076C377.044 263.745 390.161 259.713 381.664 259.662C378.787 259.167 380.729 261.064 379.606 260.994C376.81 259.914 376.761 262.747 376.14 264.066C372.258 261.774 368.261 265.144 366.55 269.54ZM335.306 240.063C333.74 240.352 337.316 242.388 337.741 242.786C340.118 246.126 341.127 249.358 344.248 252.25C349.611 257.544 348.077 249.246 345.019 247.257C344.749 245.357 337.984 240.762 335.306 240.063ZM348.931 254.125C342.699 255.195 359.948 258.407 357.385 256.176C354.7 254.346 351.563 255.048 348.931 254.125ZM360.826 256.523C356.953 257.854 366.428 256.959 363.025 256.478C362.734 256.405 360.941 256.913 360.826 256.523ZM365.182 256.435C363.696 257.87 369.968 256.319 371.011 256.348C368.996 255.944 367.274 256.955 365.182 256.435ZM369.865 257.504C367.362 260.605 372.922 256.74 373.487 256.262C371.723 256.253 371.73 256.491 369.865 257.504ZM364.97 257.848C364.125 257.135 362.883 257.893 364.056 258.314C365.692 259.182 366.194 258.598 364.97 257.848ZM359.375 239.669C359.373 241.852 353.422 242.642 354.458 244.858C353.41 245.365 352.441 242.993 351.791 244.858C351.676 246.426 351.169 247.846 352.843 248.26C352.833 251.409 355.673 249.929 357.643 250.636C361.577 253.231 360.454 245.576 363.005 245.468C363.763 244.273 361.818 244.616 362.138 242.7C361.605 241.442 362.846 240.912 363.566 240.018C362.782 238.847 360.683 236.667 359.375 239.669ZM428.559 285.957C428.961 287.189 432.544 289.727 430.27 292.478C432.951 293.588 429.284 295.325 432.215 294.527C436.715 287.523 436.331 290.968 432.166 289.097C430.04 288.596 431.203 286.421 428.559 285.957ZM428.7 293.873C426.963 296.83 422.703 299.289 420.812 302.158C424.876 304.747 426.018 300.045 428.49 297.774C432.034 294.509 429.714 295.563 428.7 293.873ZM423.179 302.248C422.356 301.812 422.196 302.623 422.063 303.455C421.637 304.584 424.479 302.536 423.179 302.248ZM395.337 296.532C392.354 300.219 400.089 301.418 399.622 296.074C398.76 296.267 396.593 298.053 395.337 296.532ZM383.678 249.72C381.91 249.985 382.036 245.425 379.323 247.104C376.434 247.703 380.271 248.154 380.352 248.456C383.27 248.885 377.887 249.465 383.679 251.29C387.379 252.2 388.661 254.195 386.207 255.608C388.052 255.36 392.141 258.333 393.558 255.476C394.548 253.397 402.562 259.984 401.285 257.744C397.227 253.73 389.563 244.132 383.678 249.72ZM371.359 245.36C369.813 246.013 364.158 243.314 365.146 247.425C365.191 248.84 361.892 251.858 364.505 252.448C365.063 253.167 363.2 256.18 365.526 255.462C366.256 255.299 365.614 255.246 365.614 254.649C366.235 252.358 365.613 249.089 367.393 253.292C367.854 254.759 369.196 253.335 369.491 253.046C367.921 252.678 369.158 252.301 368.267 250.738C366.696 248.997 368.935 249.778 369.404 248.401C372.959 247.017 365.983 249.332 365.963 248.539C365.05 245.687 367.538 246.329 370.135 246.338C372.911 246.656 374.517 242.045 371.359 245.36ZM375.296 242.984C373.67 243.188 373.392 246.786 374.992 247.409C375.48 246.153 374.928 244.45 375.296 242.984ZM372.604 250.142C370.906 249.262 370.363 251.538 372.152 251.405C373.298 251.405 374.592 250.9 372.604 250.142ZM374.744 249.778C373.455 251.586 375.116 251.634 376.55 250.618C377.979 250.567 380.366 252.14 378 250.003C376.792 249.243 376.247 249.3 374.744 249.778ZM353.322 222.042C349.522 221.382 351.89 226.214 353.524 222.882C354.029 222.37 353.978 221.506 353.322 222.042ZM366.002 223.556C365.048 223.426 365.058 226.267 365.299 226.806C364.487 225.598 364.036 227.909 365.041 228.31C368.64 231.76 367.194 228.463 369.769 230.861C369.482 229.782 369.184 228.761 367.593 228.942C364.467 228.093 370.367 223.222 366.002 223.556ZM371.572 235.273C371.247 235.415 369.674 235.965 369.371 236.524C369.972 234.411 366.187 237.516 367.456 238.012C369.388 235.265 369.348 237.666 370.324 239.182C372.627 239.613 370.71 238.122 371.81 237.456C371.913 237.202 372.316 239.127 372.47 238.273C373.412 237.269 371.299 232.781 371.572 235.273ZM368.878 232.604C367.314 228.367 363.545 233.881 367.993 232.749C367.85 232.959 366.162 234.208 367.218 234.69C368.435 236.996 371.164 229.064 368.878 232.604ZM370.204 231.006C371.86 233.956 369.431 230.964 370.652 233.875C371.065 234.686 370.764 233.26 370.845 233.001C371.259 232.734 372.592 230.739 370.204 231.006ZM364.147 232.517C363.803 233.579 362.357 235.322 361.573 236.067C362.456 235.983 365.747 233.351 364.147 232.517ZM402.913 250.373C403.171 252.056 401.051 252.317 399.833 252.032C396.888 254.377 407.826 252.086 402.913 250.373ZM405.955 251.683C406.3 252.455 407.109 253.359 407.981 253.427C408.687 253.639 405.352 249.885 405.955 251.683ZM366.411 215.02C364.91 215.974 364.234 215.903 364.831 217.113C366.043 222.464 368.461 214.251 366.411 215.02ZM392.107 167.98C391.467 171.056 391.391 173.534 391.476 176.941C391.311 179.534 390.003 183.373 392.761 182.762C394.44 184.416 391.468 179.349 392.201 178.904C392.367 174.637 395.756 180.238 394.284 177.051C392.733 175.197 393.304 166.567 392.107 167.98ZM391.405 184.682C391.607 186.839 390.405 187.661 389.414 188.627C387.85 189.237 388.983 192.03 390.397 190.569C387.337 188.341 392.187 189.242 393.115 189.937C392.652 188.272 395.876 188.77 395.995 187.865C395.742 185.524 395.025 187.123 393.441 186.361C392.83 186.252 391.818 183.626 391.405 184.682ZM389.308 191.832C387.64 202.954 384.953 194.777 384.094 199.78C383.879 201.29 382.79 199.48 381.336 200.254C379.897 200.504 379.759 202.108 378.176 202.183C377.429 202.826 375.236 206.235 377.404 204.376C376.781 207.255 378.36 208.257 379.442 204.473C379.654 203.106 377.526 203.787 378.578 202.804C379.626 202.416 382.536 201.687 383.584 201.823C383.917 202.962 383.568 203.716 385.093 202.739C385.414 201.413 384.463 201.747 386.569 201.645C388.62 200.375 388.549 201.979 390.379 200.778C389.628 198.202 391.022 196.267 391.416 193.631C390.406 191.495 391.673 190.432 389.308 191.832ZM382.754 201.66C379.843 200.955 378.498 205.362 381.14 204.466C382.062 202.891 382.088 203.816 383.331 203.002C384.197 201.942 383.415 201.031 382.754 201.66ZM448.369 153.23C444.261 152.571 449.203 154.858 450.37 154.669C452.387 154.372 449.333 153.648 448.369 153.23ZM435.687 135.76C432.476 138.269 440.278 137.212 440.864 136.855C440.75 135.263 436.584 136.222 435.687 135.76ZM396.123 121.026C397.491 125.07 407.482 121.177 399.092 121.386C399.144 120.59 396.282 119.766 396.123 121.026ZM389.238 123.266C388.176 124.307 391.829 127.255 393.541 126.946C393.037 125.815 390.647 122.813 389.238 123.266ZM395.507 120.063C393.092 118.352 391.65 117.36 389.377 118.428C385.106 114.595 383.403 122.552 388.167 121.697C390.881 119.738 393.515 123.315 395.507 120.063ZM334.696 96.7056C323.693 99.9864 336.141 105.223 340.761 104.163C339.614 103.324 341.38 101.655 340.363 101.087C338.666 100.24 338.536 101.436 339.309 100.412C338.317 100.823 335.855 98.7532 337.949 98.339C338.484 98.0486 334.119 95.0559 334.696 96.7056ZM343.5 103.311C340.939 104.733 338.24 108.978 343.219 106.843C348.898 108.755 347.55 104.541 343.454 104.14C345.454 103.526 345.141 103.27 343.5 103.311ZM289.37 92.5615C288.144 93.0013 288.573 93.2163 287.776 93.8492C286.727 96.1043 297.513 91.3174 289.37 92.5615ZM292.084 95.6371C289.82 96.9142 293.06 98.18 294.309 96.9C295.675 95.9358 294.315 94.2284 292.084 95.6371ZM285.687 95.3205C283.929 96.0749 288.253 96.692 288.934 95.9737C290.897 95.1303 286.035 94.9991 285.687 95.3205ZM274.835 96.6437C276.263 96.3002 280.785 96.6634 276.836 97.66C275.15 97.8387 276.995 98.1011 278.188 98.0518C279.533 96.8053 280.218 96.3549 282.438 96.1228C283.834 93.9641 268.308 96.449 274.835 96.6437ZM283.789 96.9556C282.785 96.9556 280.365 97.5114 282.402 97.7075C285.121 98.296 286.748 97.2247 283.789 96.9556ZM290.886 97.3816C288.238 96.0325 285.357 98.7533 289.304 98.2652C289.899 98.1658 289.865 97.9867 289.479 97.8385C289.092 97.6921 291.728 97.6596 290.886 97.3816ZM296.89 95.6154C292.329 96.9937 301.988 96.8337 299.243 94.1258C298.184 94.1347 298.276 95.3479 296.89 95.6154ZM210.895 158.341C208.324 162.87 212.5 157.839 212.609 159.537C212.553 160.663 211.503 160.499 211.834 161.602C212.165 162.705 211.917 162.611 213.713 163.01C214.873 163.043 214.943 165.537 214.762 166.014C213.067 165.627 212.205 165.032 213.353 167.281C213.685 168.03 213.132 168.453 212.084 168.946C210.102 170.466 215.862 168.914 215.23 169.979C211.747 172.155 207.573 174.403 216.421 172.161C219.636 171.899 223.546 170.253 220.562 170.542C219.468 170.468 222.99 166.523 219.29 166.577C217.686 164.206 223.493 167.321 218.738 164.019C216.763 162.367 216.124 160.099 214.1 160.617C216.538 157.994 217.582 156.277 213.299 156.653C216.653 153.206 210.033 154.73 210.895 158.341ZM208.105 161.93C204.603 163.683 209.37 162.843 206.283 164.09C202.507 166.973 207.461 165.16 205.29 167.562C201.77 172.51 210.751 168.966 210.039 166.576C209.676 164.443 211.81 161.685 208.105 161.93ZM230.789 186.557C230.92 187.511 229.222 188.367 230.764 189.238C231.129 190.165 231.593 184.569 230.789 186.557ZM230.438 190.176C228.249 190.772 229.146 194.7 230.929 193.469C231.919 192.79 232.583 188.837 230.438 190.176ZM248.793 199.812C245.906 200.23 252.146 201.145 252.339 200.63C252.983 200.154 249.958 199.553 248.793 199.812ZM258.765 200.368C257.323 200.057 257.714 201.808 259.188 201.547C261.32 200.957 261.753 199.867 258.765 200.368ZM222.897 192.246C221.726 192.396 221.634 192.793 222.547 193.032C223.8 193.405 224.654 191.895 222.897 192.246ZM151.966 170.901C151.173 172.835 143.238 178.495 150.069 178.161C153.125 178.751 152.878 179.209 153.583 179.013C154.902 178.625 154.112 181.948 155.408 179.308C155.864 172.573 149.954 176.968 151.966 170.901ZM58.4895 168.809C58.1379 169.773 61.6766 174.281 60.5494 171.075C60.4908 169.416 59.9084 167.871 58.4895 168.809ZM63.6171 174.129C63.6706 175.044 69.9502 178.953 68.8841 176.309C68.058 175.401 63.8793 174.255 63.6171 174.129ZM35.0691 163.281C33.2561 162.09 31.6776 166.132 33.7508 164.591C34.1276 163.948 37.2353 163.181 35.0691 163.281ZM34.7712 162.154C33.2123 163.248 35.9531 162.129 36.1406 162.154C36.1406 162.154 35.3686 161.793 34.7712 162.154ZM18.5624 159.553C15.5057 159.616 19.8525 160.781 19.8272 159.962C19.334 159.313 19.8771 158.862 18.5624 159.553ZM277.756 266.116C276.679 268.447 270.272 267.747 273.353 271.568C274.477 273.573 272.418 273.355 271.9 275.71C271.671 277.574 273.262 281.858 275.132 280.768C279.301 280.073 278.386 267.599 280.471 266.814C280.279 263.878 278.591 260.409 277.756 266.116ZM279.068 131.982C276.299 132.832 278.535 134.122 280.436 132.914C281.912 132.391 280.278 131.704 279.068 131.982ZM302.01 109.699C300.275 110.278 291.812 113.049 288.619 115.236C283.119 119.359 286.686 119.157 283.701 122.781C278.745 126.454 287.586 130.357 289.137 128.67C279.635 117.534 304.974 113.075 302.01 109.699ZM290.4 129.3C288.794 129.073 292.915 132.803 292.037 130.696C291.732 129.475 290.867 129.235 290.4 129.3ZM305.781 120.427C303.719 119.194 304.577 121.565 306.25 121.691C307.163 121.866 306.437 120.733 305.781 120.427ZM144.578 175.306C143.538 174.784 142.52 174.369 141.841 174.369C140.338 174.654 145.679 176.982 144.578 175.306ZM142.099 179.689C140.438 181.762 145.708 181.425 143.374 180.811C142.696 180.691 142.052 180.409 142.099 179.689ZM448.873 149.644C446.094 149.276 446.37 149.839 446.096 151.934C443.49 150.98 439.91 148.876 438.302 147.811C435.343 152.565 432.699 148.079 436.617 154.321C428.766 154.632 427.154 159.416 419.406 157.916C411.4 161.984 416.921 161.77 416.668 162.593C414.473 170.2 408.403 179.737 407.851 166.518C408.666 159.071 411.614 163.098 416.559 157.229C419.654 155.011 416.725 153.886 419.548 153.567C417.833 153.661 417.315 152.924 415.891 154.713C412.901 157.675 415.464 153.269 413.753 153.895C412.377 154.245 404.549 156.338 406.799 159.03C403.784 160.96 403.09 156.261 399.213 158.538C392.703 155.335 389.486 161.898 384.11 165.376C382.812 166.616 382.601 166.551 383.653 166.749C385.835 166.688 384.381 169.434 386.816 169.134C393.21 163.946 389.46 179.285 386.673 182.969C383.555 190.094 378.441 185.793 376.559 190.849C371.56 194.362 377.663 197.438 375.016 201.711C371.428 204.81 373.192 197.915 372.837 196.77C371.103 196.338 371.047 195.278 371.223 194.089C369.798 192.656 367.571 194.58 367.464 191.963C365.304 192.361 359.217 195.165 363.775 197.391C364.627 197.648 367.448 196.316 367.219 197.653C367.519 197.614 362.634 201.015 364.302 201.547C366.896 203.39 365.045 206.155 366.585 208.514C367.023 216.134 357.425 218.185 353.521 221.199C353.017 217.861 346.715 221.245 347.796 223.851C353.207 226.661 351.497 235.718 346.811 235.461C347.478 232.148 341.764 231.818 341.648 230.228C338.423 232.267 339.884 237.018 343.054 239.32C348.229 246.035 342.48 246.755 341.334 239.451C336.364 237.314 340.109 226.875 336.399 225.909C334.442 228.364 333.349 226.834 334.119 224.553C333.481 223.267 330.676 217.651 329.166 219.074C324.97 219.125 321.375 224.988 317.605 227.385C315.566 228.634 316.775 238.519 312.851 236.443C307.833 231.475 307.998 216.978 306.906 219.891C305.714 222.36 301.011 219.413 304.961 218.063C302.82 218.614 300.802 216.87 300.292 214.868C294.041 216.553 287.538 214.323 282.25 211.465C280.975 209.853 279.687 206.002 277.485 209.264C277.868 210.446 281.995 218.533 281.232 213.788C281.261 217.385 284.761 217.786 286.968 215.26C288.018 213.547 287.707 214.271 288.021 215.903C289.367 216.876 290.961 217.526 291.919 218.837C292.656 219.223 290.338 222.894 289.988 221.159C289.416 221.293 290.122 223.973 288.735 223.915C283.546 226.962 278.82 229.809 272.838 231.274C271.149 229.67 271.873 225.815 269.805 223.818C266.86 219.377 264.026 214.399 261.798 209.286C261.623 208.73 261.166 210.19 260.805 210.474C260.069 211.393 259.633 207.877 259.2 208.557C258.51 211.38 262.059 214.208 262.559 217.212C264.604 220.843 265.108 223.582 267.057 227.143C268.232 229.343 272.108 229.816 271.445 232.998C278.07 237.818 287.568 224.92 277.674 241.622C261.686 258.773 269.619 250.155 268.065 268.08C261.793 271.499 262.009 271.96 262.48 278.774C256.968 281.785 260.645 282.826 256.295 287.888C253.724 291.869 244.902 295.59 241.711 291.475C241.407 286.185 236.881 283.152 237.085 277.509C235.261 273.489 233.005 270.071 234.686 265.549C237.447 261.219 234.657 254.369 231.701 250.8C229.303 249.095 232.108 245.168 231.046 243.135C230.262 240.774 227.494 243.096 226.293 241.195C224.661 239.424 225.637 239.373 222.454 239.603C218.548 241.184 215.007 240.691 211.318 241.849C204.982 241.599 201.92 233.478 198.652 229.084C201.513 226.044 198.446 222.088 199.272 219.055C201.676 215.644 203.352 210.496 207.515 208.851C207.911 206.585 207.823 203.126 210.876 202.462C212.089 202.045 211.889 197.823 213.461 199.747C216.75 201.586 220.907 197.573 224.383 197.274C226.671 198.388 226.523 196.562 228.844 197.273C230.48 197.587 231.789 195.849 232.941 197.468C232.926 197.727 231.772 198.716 232.508 199.3C234.118 200.976 230.025 201.698 232.461 202.812C251.929 213.484 238.019 203.005 247.504 204.575C250.08 206.665 254.452 207.315 257.421 206.288C262.259 209.415 263.197 201.065 263.356 197.959C263.392 197.269 262.268 198.216 261.87 197.631C260.751 197.302 261.478 199.009 259.936 198.691C256.336 196.468 257.496 199.001 254.505 198.048C252.105 197.622 252.047 193.589 251.802 192.934C249.416 192.047 254.487 191.257 255.277 190.907C256.751 190.571 253.747 190.211 255.5 189.99C258.207 190.496 258.073 188.12 260.804 188.441C265.568 191.272 275.012 190.94 266.821 184.572C263.763 183.185 263.542 182.707 266.259 180.887C266.855 180.669 265.569 180.211 265.391 179.962C265.126 179.629 267.365 179.728 267.113 178.968C266.705 177.719 259.384 180.171 262.535 181.716C264.979 182.527 261.752 183.342 260.629 183.854C259.575 184.109 260.46 182.385 259.339 182.698C258.297 182.188 258.803 182.474 259.61 181.923C260.431 181.482 261.022 180.341 259.492 180.648C258.896 180.618 257.067 179.901 258.626 180.07C260.326 179.038 255.804 179.652 255.688 181.269C255.492 184.286 251.284 187.229 254.692 189.902C253.918 190.088 252.336 190.293 251.872 191.376C251.503 190.298 246.494 188.876 246.791 191.554C247.374 192.335 247.047 194.49 248.283 195.037C247.914 195.411 247.747 199.158 246.563 197.588C244.811 196.367 245.631 193.59 243.613 191.718C242.984 189.152 243.583 187.479 240.169 185.913C237.664 185.709 235.254 177.746 234.619 183.625C235.548 184.89 236.491 187.667 238.362 188.449C240.522 188.686 237.808 188.752 239.96 189.837C240.941 190.09 243.015 192.85 241.54 191.848C240.591 190.85 240.576 191.31 240.312 191.996C240.979 194.565 239.072 194.936 237.994 196.018C238.568 199.83 236.975 196.655 235.008 196.279C235.216 195.446 241.128 195.537 238.835 192.468C235.621 189.722 232.969 186.749 230.286 183.851C227.642 185.419 227.212 185.81 224.277 185.878C223.32 189.476 221.703 188.445 219.644 192.323C219.216 195.428 218.606 197.361 214.867 197.688C210.319 199.378 213.472 195.848 208.368 197.295C209.116 194.103 208.62 189.498 208.897 185.978C210.376 183.009 221.599 190.582 218.06 180.32C215.971 178.182 210.742 174.636 216.343 176.069C219.379 175.185 215.242 173.657 218.905 174.761C221.007 174.65 219.258 173.514 221.576 173.027C220.915 170.463 223.804 171.421 224.738 170.347C224.285 166.804 226.171 167.122 228.213 166.096C233.797 166.785 226.126 158.428 231.022 157.492C235.372 155.896 225.375 168.82 238.119 165.013C249.717 166.209 242.234 154.791 247.738 159.289C249.324 160.433 249.666 156.661 249.284 156.674C248.839 157.203 246.841 154.562 247.389 154.679C249.976 154.648 260.887 153.13 252.762 152.816C241.863 155.541 245.571 146.57 250.164 142.775C243.698 136.792 247.094 145.442 243.033 146.994C238.74 149.221 242.373 152.506 242.65 154.285C239.19 154.662 236.941 167.608 235.129 159.878C229.694 148.696 234.262 157.562 226.702 157.231C224.012 153.366 226.766 148.077 230.813 146.275C234.774 143.379 236.014 138.287 239.45 134.238C240.274 132.019 253.414 123.994 250.794 127.663C247.846 131.569 251.644 126.868 253.287 127.207C253.901 126.797 258.174 128.612 256.486 129.102C254.307 129.808 253.207 129.394 256.097 130.74C263.829 129.045 253.35 132.033 262.454 132.864C275.536 137.187 267.01 142.808 258.944 137.704C262.27 139.223 260.257 144.009 262.595 145.752C264.485 146.61 265.025 146.358 265.755 145.652C265.628 144.969 263.508 144.235 264.773 143.461C268.12 144.575 267.066 141.929 269.76 140.352C274.936 140.682 273.277 138.501 272.181 135.97C273.025 133.825 276.187 136.024 274.257 136.299C272.78 136.168 273.798 138.491 275.133 138.359C280.147 134.802 284.759 134.624 290.552 133.815C292.097 133.553 290.446 134.37 291.147 134.597C291.993 135.157 294.573 133.984 293.89 133.127C289.688 127.702 302.902 134.344 302.948 136.528C303.659 130.697 297.161 129.125 304.004 122.106C310.614 120.897 303.733 130.618 308.465 136.69C308.861 140.711 298.245 138.564 306.141 140.942C311.662 140.672 308.303 128.662 314.011 137.541C312.358 130.814 306.082 134.965 310.536 123.281C310.199 126.068 311.319 129.104 313.17 127.207C311.73 126.781 311.308 126.389 312.747 125.605C314.464 123.994 323.283 129.451 318.648 124.459C313.011 120.385 320.032 120.619 324.724 120.634C327.152 117.705 321.265 114.16 331.151 114.258C332.36 113.284 343.178 114.531 342.142 111.051C342.455 109.321 346.892 109.47 346.885 110.069C346.428 110.233 345.058 110.919 347.2 111.379C351.531 111.747 343.392 112.826 349.658 113.307C351.835 113.307 350.536 113.111 350.184 112.391C350.792 111.015 357.196 113.396 357.278 115.695C357.285 118.878 349.363 120.126 348.291 123.512C347.49 124.101 356.123 121.844 358.053 123.184C367.257 122.91 359.172 125.158 364.163 125.377C368.322 126.177 375.725 120.336 376.28 127.239C374.17 130.196 377.95 134.614 379.826 130.149C382.292 130.958 385.328 131.599 388.431 131.393C390.164 129.589 387.229 126.105 393.384 128.449C402.946 131.088 400.464 134.097 411.049 134.727C415.852 138.191 408.95 138.609 419.9 139.011C422.707 139.046 421.761 138.686 422.604 139.274C429.682 144.601 420.676 135.593 431.136 139.112C434.529 139.942 452.656 150.126 448.873 149.644ZM285.014 182.883C287.231 181.004 284.654 184.136 283.562 179.339C282.174 179.81 279.503 178.722 278.539 180.811C277.664 182.883 274.462 183.254 276.678 184.865C276.934 186.602 278.45 189.495 280.297 189.707C278.961 191.16 276.889 197.032 280.681 197.294C285.884 199.556 285.774 195.531 283.737 191.866C283.717 190.144 286.73 191.039 284.472 188.627C283.914 188.3 283.666 189.708 283.666 189.708C283.224 190.288 283.887 186.528 283.283 187.024C282.402 187.23 280.055 182.988 281.735 183.819C280.768 181.373 283.594 182.768 285.014 182.883ZM153.988 132.492C153.54 133.779 155.785 133.658 156.371 133.28C157.282 131.595 154.656 130.575 153.988 132.492ZM327.603 96.4322C324.952 95.8808 327.193 98.3864 328.69 97.7406C330.376 96.9215 330.026 96.8566 331.185 96.3657C333.077 95.4499 328.296 95.9159 327.603 96.4322Z" fill="#F4F4F4" fill-opacity="0.3"/>
<path d="M252.696 254.339C252.465 254.339 252.257 254.179 252.207 253.945C252.147 253.674 252.318 253.408 252.589 253.348C254.742 252.875 256.889 252.284 258.974 251.591C259.235 251.494 259.521 251.646 259.606 251.908C259.694 252.17 259.552 252.453 259.29 252.541C257.172 253.245 254.991 253.845 252.803 254.327C252.768 254.335 252.731 254.339 252.696 254.339ZM213.454 250.594C213.387 250.594 213.319 250.581 213.255 250.553C196.561 243.337 183.611 229.344 177.725 212.162C177.635 211.901 177.774 211.616 178.037 211.527C178.298 211.434 178.583 211.577 178.672 211.839C184.467 228.753 197.217 242.529 213.652 249.634C213.906 249.744 214.024 250.039 213.913 250.292C213.832 250.481 213.647 250.594 213.454 250.594ZM282.012 239.156C281.877 239.156 281.741 239.102 281.642 238.992C281.455 238.789 281.471 238.472 281.676 238.285C294.911 226.246 302.502 209.085 302.502 191.205C302.502 183.747 301.223 176.445 298.703 169.498C298.609 169.238 298.743 168.95 299.003 168.856C299.259 168.76 299.55 168.895 299.645 169.156C302.206 176.213 303.504 183.631 303.504 191.205C303.504 209.366 295.793 226.796 282.349 239.026C282.254 239.113 282.132 239.156 282.012 239.156ZM174.988 186.178C174.974 186.178 174.959 186.178 174.945 186.176C174.67 186.152 174.465 185.91 174.488 185.634C174.679 183.409 174.988 181.168 175.408 178.971C175.46 178.699 175.715 178.509 175.994 178.573C176.265 178.625 176.444 178.888 176.392 179.159C175.98 181.322 175.674 183.53 175.488 185.72C175.464 185.981 175.246 186.178 174.988 186.178ZM194.904 145.031C194.771 145.031 194.638 144.979 194.54 144.873C194.35 144.672 194.359 144.355 194.561 144.166C206.596 132.823 222.334 126.578 238.877 126.578C240.539 126.578 242.221 126.642 243.873 126.769C244.149 126.79 244.355 127.031 244.335 127.306C244.313 127.581 244.095 127.789 243.797 127.768C242.17 127.643 240.515 127.58 238.877 127.58C222.59 127.58 207.097 133.729 195.248 144.894C195.151 144.985 195.028 145.031 194.904 145.031ZM274.984 138.703C274.886 138.703 274.789 138.675 274.701 138.616C272.882 137.374 270.979 136.216 269.044 135.172C268.8 135.04 268.709 134.736 268.841 134.493C268.972 134.248 269.278 134.159 269.519 134.29C271.485 135.349 273.419 136.526 275.267 137.789C275.496 137.944 275.554 138.256 275.398 138.486C275.301 138.626 275.143 138.703 274.984 138.703Z" fill="#B57AF8"/>
<path d="M245.592 288.258C245.331 288.258 245.11 288.056 245.092 287.792C245.072 287.515 245.281 287.277 245.556 287.257C274.368 285.236 300.501 270.607 317.255 247.121L317.722 247.331L318.129 247.622C318.128 247.626 318.067 247.71 318.064 247.712C301.143 271.434 274.737 286.214 245.627 288.256C245.615 288.258 245.603 288.258 245.592 288.258ZM203.744 281.912C203.683 281.912 203.622 281.902 203.562 281.878C200.25 280.585 196.969 279.09 193.811 277.435C193.565 277.307 193.47 277.004 193.599 276.759C193.727 276.515 194.033 276.419 194.275 276.547C197.401 278.185 200.649 279.664 203.927 280.944C204.184 281.044 204.312 281.335 204.211 281.594C204.133 281.791 203.944 281.912 203.744 281.912ZM150.807 231.878C150.617 231.878 150.435 231.77 150.351 231.585C144.617 218.982 141.586 204.991 141.586 191.124C141.586 176.432 144.988 161.712 151.426 148.553C151.547 148.304 151.844 148.197 152.096 148.324C152.344 148.445 152.447 148.745 152.326 148.994C145.955 162.016 142.588 176.585 142.588 191.124C142.588 204.849 145.587 218.696 151.264 231.17C151.377 231.421 151.267 231.719 151.015 231.834C150.947 231.864 150.876 231.878 150.807 231.878ZM335.574 187.579C335.306 187.579 335.084 187.369 335.073 187.1C334.921 183.582 334.571 180.031 334.033 176.545C333.991 176.271 334.179 176.015 334.452 175.972C334.737 175.924 334.981 176.119 335.024 176.391C335.567 179.914 335.921 183.502 336.075 187.056C336.086 187.333 335.871 187.566 335.596 187.579C335.588 187.579 335.58 187.579 335.574 187.579ZM319.117 137.546C318.957 137.546 318.799 137.469 318.702 137.326C312.277 127.802 304.232 119.558 294.792 112.825C280.991 102.978 264.828 96.933 248.048 95.344C247.773 95.3178 247.571 95.0739 247.597 94.7987C247.623 94.5233 247.86 94.312 248.142 94.3473C265.098 95.9521 281.431 102.06 295.374 112.008C304.912 118.813 313.04 127.142 319.532 136.765C319.687 136.995 319.627 137.306 319.397 137.46C319.311 137.519 319.213 137.546 319.117 137.546ZM178.296 116.196C178.15 116.196 178.004 116.132 177.906 116.008C177.732 115.793 177.766 115.477 177.983 115.305C180.758 113.075 183.69 110.976 186.7 109.066C186.931 108.915 187.243 108.985 187.392 109.22C187.54 109.454 187.471 109.764 187.238 109.911C184.258 111.803 181.355 113.88 178.609 116.085C178.517 116.159 178.407 116.196 178.296 116.196Z" fill="#B57AF8"/>
<path d="M249.942 321.879C249.684 321.879 249.465 321.683 249.443 321.42C249.42 321.145 249.625 320.902 249.9 320.879C254.654 320.481 259.429 319.813 264.095 318.896C264.371 318.836 264.63 319.021 264.683 319.291C264.737 319.563 264.559 319.826 264.288 319.88C259.587 320.803 254.774 321.477 249.984 321.878C249.97 321.879 249.955 321.879 249.942 321.879ZM167.673 301.245C167.579 301.245 167.484 301.219 167.399 301.164C134.378 279.655 112.932 244.957 108.562 205.966C108.532 205.691 108.729 205.443 109.004 205.412C109.284 205.391 109.528 205.58 109.558 205.854C113.894 244.547 135.176 278.979 167.947 300.324C168.178 300.475 168.245 300.786 168.093 301.018C167.997 301.166 167.836 301.245 167.673 301.245ZM316.442 296.815C316.29 296.815 316.137 296.744 316.039 296.611C315.875 296.389 315.922 296.075 316.145 295.911C347.533 272.721 366.731 237.094 368.817 198.163L368.829 197.917C368.843 197.64 369.092 197.426 369.353 197.44C369.63 197.453 369.844 197.687 369.831 197.964L369.816 198.222C367.716 237.448 348.37 273.349 316.74 296.717C316.651 296.783 316.546 296.815 316.442 296.815ZM115.183 149.618C115.129 149.618 115.074 149.61 115.021 149.592C114.76 149.502 114.619 149.217 114.708 148.955C116.248 144.42 118.066 139.91 120.106 135.552C120.226 135.301 120.524 135.198 120.773 135.31C121.023 135.428 121.132 135.726 121.014 135.977C118.988 140.303 117.185 144.778 115.657 149.279C115.586 149.486 115.391 149.618 115.183 149.618ZM345.983 116.917C345.825 116.917 345.67 116.843 345.572 116.703C342.847 112.805 339.871 109.01 336.727 105.425C336.544 105.217 336.565 104.9 336.774 104.718C336.981 104.535 337.298 104.555 337.481 104.765C340.648 108.377 343.648 112.201 346.394 116.129C346.552 116.356 346.497 116.668 346.27 116.827C346.183 116.888 346.082 116.917 345.983 116.917ZM179.549 75.3059C179.368 75.3059 179.192 75.2067 179.103 75.0332C178.978 74.7866 179.074 74.4852 179.321 74.3587C197.613 65.0137 218.168 60.0743 238.764 60.0743C241.135 60.0743 243.533 60.1384 245.891 60.2661C261.628 61.1089 276.867 64.6941 291.186 70.9236C291.44 71.0331 291.556 71.3293 291.445 71.5824C291.334 71.8367 291.042 71.9555 290.786 71.842C276.578 65.6606 261.454 62.1029 245.836 61.2652C243.496 61.1401 241.116 61.0761 238.764 61.0761C218.326 61.0761 197.928 65.9775 179.777 75.251C179.705 75.2891 179.626 75.3059 179.549 75.3059Z" fill="#B57AF8"/>
<path d="M178.319 165.099C169.533 165.099 162.41 172.221 162.41 181.007C162.41 189.793 169.533 196.915 178.319 196.915C187.105 196.915 194.227 189.793 194.227 181.007C194.227 172.221 187.105 165.099 178.319 165.099Z" fill="#B57AF8"/>
<path d="M289.647 138.766C282.058 138.766 275.906 144.918 275.906 152.507C275.906 160.096 282.058 166.248 289.647 166.248C297.236 166.248 303.388 160.096 303.388 152.507C303.388 144.918 297.236 138.766 289.647 138.766Z" fill="#9AD954"/>
<path d="M296.284 158.532H283.012C283.373 155.188 286.213 152.576 289.653 152.576C293.092 152.576 295.933 155.188 296.284 158.532Z" fill="white"/>
<path d="M289.647 144.59C291.602 144.59 293.2 146.178 293.2 148.143C293.2 150.088 291.622 151.676 289.677 151.696C289.667 151.696 289.657 151.696 289.647 151.696C287.682 151.696 286.094 150.098 286.094 148.143C286.094 146.178 287.682 144.59 289.647 144.59Z" fill="white"/>
<path d="M328.827 208.967C322.764 208.967 317.848 213.883 317.848 219.947C317.848 226.011 322.764 230.927 328.827 230.927C334.892 230.927 339.807 226.011 339.807 219.947C339.807 213.883 334.891 208.967 328.827 208.967Z" fill="#B57AF8"/>
<path d="M334.131 224.761H323.525C323.814 222.089 326.084 220.002 328.832 220.002C331.58 220.002 333.85 222.089 334.131 224.761Z" fill="white"/>
<path d="M328.827 213.62C330.39 213.62 331.667 214.889 331.667 216.46C331.667 218.014 330.406 219.283 328.851 219.299C328.843 219.299 328.836 219.299 328.828 219.299C327.257 219.299 325.988 218.022 325.988 216.46C325.988 214.889 327.257 213.62 328.827 213.62Z" fill="white"/>
<path d="M291.124 291.691C282.214 291.691 274.992 298.913 274.992 307.822C274.992 316.731 282.214 323.954 291.124 323.954C300.033 323.954 307.255 316.732 307.255 307.823C307.255 298.914 300.033 291.691 291.124 291.691Z" fill="#9AD954"/>
<path d="M298.913 314.896H283.332C283.756 310.97 287.091 307.903 291.128 307.903C295.166 307.903 298.501 310.97 298.913 314.896Z" fill="white"/>
<path d="M291.123 298.527C293.418 298.527 295.294 300.392 295.294 302.699C295.294 304.983 293.442 306.847 291.158 306.87C291.146 306.87 291.134 306.87 291.123 306.87C288.816 306.87 286.951 304.994 286.951 302.699C286.951 300.392 288.816 298.527 291.123 298.527Z" fill="white"/>
<path d="M108.482 165.93C102.418 165.93 97.502 170.846 97.502 176.91C97.502 182.974 102.418 187.89 108.482 187.89C114.546 187.89 119.462 182.974 119.462 176.91C119.462 170.846 114.546 165.93 108.482 165.93Z" fill="#B57AF8"/>
<path d="M113.785 181.725H103.18C103.468 179.052 105.738 176.965 108.486 176.965C111.234 176.965 113.504 179.052 113.785 181.725Z" fill="white"/>
<path d="M108.482 170.583C110.044 170.583 111.321 171.852 111.321 173.423C111.321 174.977 110.06 176.246 108.506 176.262C108.498 176.262 108.49 176.262 108.482 176.262C106.912 176.262 105.643 174.985 105.643 173.423C105.643 171.852 106.911 170.583 108.482 170.583Z" fill="white"/>
<path d="M315.169 74.4814C309.106 74.4814 304.189 79.3973 304.189 85.4613C304.189 91.5253 309.105 96.4411 315.169 96.4411C321.233 96.4411 326.149 91.5253 326.149 85.4613C326.149 79.3973 321.233 74.4814 315.169 74.4814Z" fill="#B57AF8"/>
<path d="M320.472 90.2758H309.867C310.156 87.6037 312.425 85.5158 315.174 85.5158C317.922 85.516 320.192 87.6037 320.472 90.2758Z" fill="white"/>
<path d="M315.169 79.1346C316.732 79.1346 318.009 80.4036 318.009 81.974C318.009 83.5285 316.747 84.7975 315.193 84.8133C315.185 84.8133 315.177 84.8133 315.169 84.8133C313.599 84.8133 312.33 83.5364 312.33 81.974C312.33 80.4036 313.599 79.1346 315.169 79.1346Z" fill="white"/>
<path d="M216.905 79.959C207.144 79.959 199.23 87.8722 199.23 97.6335C199.23 107.395 207.144 115.308 216.905 115.308C226.666 115.308 234.579 107.395 234.579 97.6335C234.579 87.8722 226.666 79.959 216.905 79.959Z" fill="#B57AF8"/>
<path d="M225.441 105.384H208.369C208.834 101.082 212.487 97.7217 216.911 97.7217C221.335 97.7217 224.989 101.082 225.441 105.384Z" fill="white"/>
<path d="M216.904 87.4496C219.42 87.4496 221.475 89.4922 221.475 92.0201C221.475 94.5224 219.445 96.565 216.943 96.5904C216.93 96.5904 216.917 96.5904 216.904 96.5904C214.377 96.5904 212.334 94.535 212.334 92.0201C212.334 89.4924 214.377 87.4496 216.904 87.4496Z" fill="white"/>
<path d="M171.482 246.967C165.418 246.967 160.502 251.883 160.502 257.947C160.502 264.011 165.418 268.927 171.482 268.927C177.546 268.927 182.462 264.011 182.462 257.947C182.462 251.883 177.546 246.967 171.482 246.967Z" fill="#9AD954"/>
<path d="M176.785 262.762H166.18C166.468 260.09 168.738 258.002 171.486 258.002C174.234 258.002 176.504 260.09 176.785 262.762Z" fill="white"/>
<path d="M171.482 251.621C173.044 251.621 174.321 252.89 174.321 254.46C174.321 256.015 173.06 257.284 171.506 257.299C171.498 257.299 171.49 257.299 171.482 257.299C169.912 257.299 168.643 256.022 168.643 254.46C168.642 252.89 169.911 251.621 171.482 251.621Z" fill="white"/>
<path d="M226.702 278.222C222.323 278.222 218.773 281.772 218.773 286.15C218.773 290.529 222.323 294.079 226.702 294.079C231.08 294.079 234.63 290.529 234.63 286.15C234.63 281.772 231.08 278.222 226.702 278.222Z" fill="#B57AF8"/>
<path d="M230.531 289.627H222.873C223.082 287.698 224.72 286.19 226.705 286.19C228.689 286.19 230.328 287.698 230.531 289.627Z" fill="white"/>
<path d="M226.702 281.583C227.831 281.583 228.753 282.499 228.753 283.633C228.753 284.755 227.842 285.671 226.72 285.683C226.714 285.683 226.708 285.683 226.702 285.683C225.569 285.683 224.652 284.761 224.652 283.633C224.652 282.499 225.569 281.583 226.702 281.583Z" fill="white"/>
<path d="M164.654 121.685C158.59 121.685 153.674 126.601 153.674 132.665C153.674 138.729 158.59 143.645 164.654 143.645C170.718 143.645 175.633 138.729 175.633 132.665C175.633 126.601 170.718 121.685 164.654 121.685Z" fill="#B57AF8"/>
<path d="M169.957 137.48H159.352C159.64 134.807 161.91 132.72 164.658 132.72C167.406 132.72 169.676 134.807 169.957 137.48Z" fill="white"/>
<path d="M164.654 126.338C166.216 126.338 167.493 127.607 167.493 129.178C167.493 130.732 166.232 132.001 164.678 132.017C164.669 132.017 164.662 132.017 164.654 132.017C163.083 132.017 161.814 130.74 161.814 129.178C161.814 127.607 163.083 126.338 164.654 126.338Z" fill="white"/>
<path d="M147.141 81.5471C138.032 81.5471 130.648 88.9311 130.648 98.0394V98.0396C130.648 107.148 138.032 114.532 147.141 114.532C156.249 114.532 163.633 107.148 163.633 98.0396V98.0394C163.633 88.9311 156.249 81.5471 147.141 81.5471Z" fill="#9AD954"/>
<path d="M155.106 105.271H139.176C139.609 101.257 143.019 98.1217 147.147 98.1217C151.274 98.1217 154.684 101.258 155.106 105.271Z" fill="white"/>
<path d="M147.142 88.5366C149.488 88.5366 151.406 90.4428 151.406 92.8015C151.406 95.1364 149.512 97.0423 147.177 97.0663C147.165 97.0663 147.153 97.0663 147.142 97.0663C144.783 97.0663 142.877 95.1483 142.877 92.8015C142.877 90.4428 144.783 88.5366 147.142 88.5366Z" fill="white"/>
<path d="M361.784 138.851C352.023 138.851 344.111 146.764 344.111 156.524C344.111 166.284 352.024 174.196 361.784 174.196C371.544 174.196 379.456 166.284 379.456 156.524C379.456 146.764 371.544 138.851 361.784 138.851Z" fill="#9AD954"/>
<path d="M201.467 300.498C193.159 300.498 186.424 307.233 186.424 315.541C186.424 323.85 193.159 330.585 201.467 330.585C209.776 330.585 216.511 323.85 216.511 315.541C216.511 307.233 209.776 300.498 201.467 300.498Z" fill="#B57AF8"/>
<path d="M271.926 239.253C268.05 239.253 264.908 242.394 264.908 246.27C264.908 250.146 268.05 253.288 271.926 253.288C275.801 253.288 278.943 250.146 278.943 246.27C278.944 242.394 275.802 239.253 271.926 239.253Z" fill="#9AD954"/>
<path d="M275.316 249.347H268.537C268.721 247.639 270.172 246.305 271.929 246.305C273.685 246.305 275.136 247.639 275.316 249.347Z" fill="white"/>
<path d="M271.926 242.227C272.924 242.227 273.741 243.038 273.741 244.041C273.741 245.035 272.934 245.846 271.941 245.856C271.936 245.856 271.931 245.856 271.926 245.856C270.922 245.856 270.111 245.04 270.111 244.041C270.111 243.038 270.922 242.227 271.926 242.227Z" fill="white"/>
<path d="M238.877 158.355C220.735 158.355 206.027 173.062 206.027 191.204C206.027 209.347 220.735 224.054 238.877 224.054C257.019 224.054 271.727 209.347 271.727 191.204C271.727 173.062 257.019 158.355 238.877 158.355Z" fill="#B57AF8"/>
<path d="M254.741 205.609H223.012C223.875 197.614 230.666 191.368 238.888 191.368C247.11 191.368 253.901 197.614 254.741 205.609Z" fill="white"/>
<path d="M238.877 172.277C243.552 172.277 247.372 176.073 247.372 180.771C247.372 185.422 243.599 189.218 238.949 189.266C238.925 189.266 238.901 189.266 238.877 189.266C234.179 189.266 230.383 185.446 230.383 180.771C230.383 176.073 234.179 172.277 238.877 172.277Z" fill="white"/>
<path d="M184.966 179.236C185.236 177.345 183.86 176.328 181.977 175.65L182.588 173.088L181.097 172.7L180.502 175.194C180.111 175.092 179.708 174.995 179.308 174.9L179.907 172.389L178.416 172L177.805 174.561C177.481 174.484 177.162 174.408 176.853 174.327L176.855 174.319L174.799 173.782L174.402 175.448C174.402 175.448 175.508 175.713 175.485 175.729C176.089 175.887 176.199 176.305 176.18 176.636L175.482 179.566L174.507 183.655C174.433 183.846 174.246 184.134 173.824 184.025C173.839 184.048 172.74 183.742 172.74 183.742L172 185.528L173.94 186.034C174.301 186.129 174.655 186.228 175.003 186.321L174.386 188.912L175.875 189.301L176.486 186.738C176.893 186.853 177.288 186.96 177.674 187.06L177.065 189.611L178.556 190L179.173 187.414C181.715 187.917 183.627 187.714 184.431 185.309C185.079 183.373 184.399 182.256 183.062 181.527C184.036 181.291 184.769 180.621 184.965 179.236L184.966 179.236ZM181.56 184.232C181.098 186.169 177.982 185.123 176.971 184.86L177.789 181.427C178.8 181.691 182.04 182.213 181.56 184.233L181.56 184.232ZM182.02 179.208C181.6 180.97 179.005 180.075 178.163 179.856L178.905 176.742C179.748 176.961 182.459 177.371 182.02 179.208Z" fill="white"/>
<path d="M197.144 313.423L199.424 311.151L199.905 310.669L201.045 309.53L204.926 313.423L207.185 311.151L201.045 305L194.885 311.151L197.144 313.423Z" fill="white"/>
<path d="M201.048 312.768L198.779 315.036L201.048 317.305L203.316 315.036L201.048 312.768Z" fill="white"/>
<path d="M204.926 316.664L201.044 320.546L199.68 319.183L199.43 318.932L197.144 316.664L194.885 318.923L201.045 325.073L207.185 318.923L204.926 316.664Z" fill="white"/>
<path d="M193.268 312.774L191 315.042L193.268 317.311L195.537 315.042L193.268 312.774Z" fill="white"/>
<path d="M208.813 312.774L206.545 315.042L208.813 317.311L211.082 315.042L208.813 312.774Z" fill="white"/>
<path d="M362.006 147V154.105L368.011 156.788L362.006 147Z" fill="white" fill-opacity="0.602"/>
<path d="M362.006 147L356 156.788L362.006 154.105V147Z" fill="white"/>
<path d="M362.006 161.392V166.22L368.015 157.907L362.006 161.392Z" fill="white" fill-opacity="0.602"/>
<path d="M362.006 166.22V161.392L356 157.906L362.006 166.22Z" fill="white"/>
<path d="M362.006 160.275L368.011 156.788L362.006 154.106V160.275Z" fill="white" fill-opacity="0.2"/>
<path d="M356 156.788L362.006 160.275V154.107L356 156.788Z" fill="white" fill-opacity="0.602"/>
</svg>
