<svg width="21" height="21" viewBox="0 0 21 21" fill="none" xmlns="http://www.w3.org/2000/svg">
<path fill-rule="evenodd" clip-rule="evenodd" d="M2.5123 0.62793C1.47159 0.62793 0.62793 1.47159 0.62793 2.5123V9.42168C0.62793 10.4624 1.47159 11.3061 2.5123 11.3061H7.5373C8.57801 11.3061 9.42168 10.4624 9.42168 9.42168V2.5123C9.42168 1.47159 8.57801 0.62793 7.5373 0.62793H2.5123ZM1.88418 2.5123C1.88418 2.1654 2.1654 1.88418 2.5123 1.88418H7.5373C7.88422 1.88418 8.16543 2.1654 8.16543 2.5123V9.42168C8.16543 9.76859 7.88422 10.0498 7.5373 10.0498H2.5123C2.1654 10.0498 1.88418 9.76859 1.88418 9.42168V2.5123Z" fill="#F3BB2B"/>
<path fill-rule="evenodd" clip-rule="evenodd" d="M12.5621 19.4721C11.5214 19.4721 10.6777 18.6284 10.6777 17.5877V10.6783C10.6777 9.63761 11.5214 8.79395 12.5621 8.79395H17.5871C18.6278 8.79395 19.4715 9.63761 19.4715 10.6783V17.5877C19.4715 18.6284 18.6278 19.4721 17.5871 19.4721H12.5621ZM11.934 17.5877C11.934 17.9346 12.2152 18.2158 12.5621 18.2158H17.5871C17.934 18.2158 18.2152 17.9346 18.2152 17.5877V10.6783C18.2152 10.3314 17.934 10.0502 17.5871 10.0502H12.5621C12.2152 10.0502 11.934 10.3314 11.934 10.6783V17.5877Z" fill="#F3BB2B"/>
<path fill-rule="evenodd" clip-rule="evenodd" d="M0.62793 14.4469C0.62793 13.4062 1.47159 12.5625 2.5123 12.5625H7.5373C8.57801 12.5625 9.42168 13.4062 9.42168 14.4469V17.5875C9.42168 18.6282 8.57801 19.4719 7.5373 19.4719H2.5123C1.47159 19.4719 0.62793 18.6282 0.62793 17.5875V14.4469ZM2.5123 13.8188C2.1654 13.8188 1.88418 14.1 1.88418 14.4469V17.5875C1.88418 17.9344 2.1654 18.2156 2.5123 18.2156H7.5373C7.88422 18.2156 8.16543 17.9344 8.16543 17.5875V14.4469C8.16543 14.1 7.88422 13.8188 7.5373 13.8188H2.5123Z" fill="#F3BB2B"/>
<path fill-rule="evenodd" clip-rule="evenodd" d="M12.5621 7.5373C11.5214 7.5373 10.6777 6.69364 10.6777 5.65293V2.5123C10.6777 1.47159 11.5214 0.62793 12.5621 0.62793H17.5871C18.6278 0.62793 19.4715 1.47159 19.4715 2.5123V5.65293C19.4715 6.69364 18.6278 7.5373 17.5871 7.5373H12.5621ZM11.934 5.65293C11.934 5.99984 12.2152 6.28105 12.5621 6.28105H17.5871C17.934 6.28105 18.2152 5.99984 18.2152 5.65293V2.5123C18.2152 2.1654 17.934 1.88418 17.5871 1.88418H12.5621C12.2152 1.88418 11.934 2.1654 11.934 2.5123V5.65293Z" fill="#F3BB2B"/>
</svg>
