<svg width="21" height="21" viewBox="0 0 21 21" fill="none" xmlns="http://www.w3.org/2000/svg">
<path fill-rule="evenodd" clip-rule="evenodd" d="M9.31481 2.40762C7.58032 2.40762 6.17422 3.81372 6.17422 5.54824C6.17422 7.28276 7.58032 8.68887 9.31481 8.68887C11.0494 8.68887 12.4554 7.28276 12.4554 5.54824C12.4554 3.81372 11.0494 2.40762 9.31481 2.40762ZM4.91797 5.54824C4.91797 3.11992 6.88651 1.15137 9.31481 1.15137C11.7431 1.15137 13.7117 3.11992 13.7117 5.54824C13.7117 7.97657 11.7431 9.94512 9.31481 9.94512C6.88651 9.94512 4.91797 7.97657 4.91797 5.54824Z" fill="#F3BB2B"/>
<path fill-rule="evenodd" clip-rule="evenodd" d="M10.017 12.6065C7.41324 12.4693 4.78125 13.0308 2.4103 14.2907C2.36719 14.3136 2.34023 14.3585 2.34023 14.4073V17.4824C2.34023 17.5981 2.43398 17.6918 2.54961 17.6918H10.0501C10.397 17.6918 10.6782 17.973 10.6782 18.3199C10.6782 18.6669 10.397 18.9481 10.0501 18.9481H2.54961C1.74017 18.9481 1.08398 18.2919 1.08398 17.4824V14.4073C1.08398 13.8938 1.36739 13.4223 1.82079 13.1814C4.39614 11.8128 7.25518 11.203 10.0832 11.352C10.4295 11.3703 10.6956 11.6659 10.6774 12.0123C10.6591 12.3588 10.3635 12.6248 10.017 12.6065Z" fill="#F3BB2B"/>
<path fill-rule="evenodd" clip-rule="evenodd" d="M12.353 12.9807C12.353 12.6338 12.6343 12.3525 12.9812 12.3525H18.0062C18.353 12.3525 18.6343 12.6338 18.6343 12.9807C18.6343 13.3276 18.353 13.6088 18.0062 13.6088H12.9812C12.6343 13.6088 12.353 13.3276 12.353 12.9807Z" fill="#F3BB2B"/>
<path fill-rule="evenodd" clip-rule="evenodd" d="M12.353 15.4934C12.353 15.1465 12.6343 14.8652 12.9812 14.8652H16.3312C16.678 14.8652 16.9593 15.1465 16.9593 15.4934C16.9593 15.8403 16.678 16.1215 16.3312 16.1215H12.9812C12.6343 16.1215 12.353 15.8403 12.353 15.4934Z" fill="#F3BB2B"/>
<path fill-rule="evenodd" clip-rule="evenodd" d="M12.353 18.0061C12.353 17.6592 12.6343 17.3779 12.9812 17.3779H14.6562C15.003 17.3779 15.2843 17.6592 15.2843 18.0061C15.2843 18.3529 15.003 18.6342 14.6562 18.6342H12.9812C12.6343 18.6342 12.353 18.3529 12.353 18.0061Z" fill="#F3BB2B"/>
</svg>
