<svg width="30" height="30" viewBox="0 0 30 30" fill="none" xmlns="http://www.w3.org/2000/svg">
<path d="M5.03996 14.605C4.97493 14.6043 4.91249 14.5794 4.86496 14.535C4.84043 14.5101 4.82149 14.4803 4.80942 14.4475C4.79734 14.4148 4.79242 14.3798 4.79496 14.345L5.17496 7.52496C5.18445 7.32419 5.25246 7.13059 5.37062 6.968C5.48878 6.80542 5.65193 6.68096 5.83996 6.60996C6.02637 6.53318 6.23164 6.51453 6.42883 6.55647C6.62602 6.59841 6.80593 6.69897 6.94496 6.84496L7.83996 7.73496L7.89996 7.67496C11.4 4.17496 17.73 4.74996 21.975 8.99496C22.3603 9.38174 22.7225 9.79077 23.06 10.22C23.0965 10.2653 23.1164 10.3217 23.1164 10.38C23.1164 10.4382 23.0965 10.4946 23.06 10.54C23.0215 10.5837 22.969 10.6126 22.9115 10.6217C22.854 10.6308 22.7951 10.6196 22.745 10.59C18.91 8.38496 14.58 8.65496 11.975 11.26C11.875 11.36 11.775 11.465 11.685 11.57L12.565 12.45C12.7074 12.592 12.8056 12.7724 12.8477 12.9691C12.8897 13.1658 12.8738 13.3706 12.8018 13.5584C12.7298 13.7463 12.6049 13.9093 12.4422 14.0276C12.2794 14.1459 12.0859 14.2144 11.885 14.225L5.06496 14.605H5.03996ZM6.21996 7.03996C6.15169 7.03899 6.08385 7.05087 6.01996 7.07496C5.91554 7.10886 5.82518 7.17619 5.76283 7.26656C5.70047 7.35692 5.6696 7.4653 5.67496 7.57496L5.30996 14.115L11.85 13.75C11.9545 13.7488 12.0561 13.7149 12.1405 13.6531C12.2248 13.5912 12.2875 13.5044 12.32 13.405C12.3632 13.3087 12.3749 13.2013 12.3533 13.098C12.3317 12.9947 12.2781 12.9009 12.2 12.83L11.155 11.785C11.1135 11.739 11.0906 11.6793 11.0906 11.6175C11.0906 11.5556 11.1135 11.4959 11.155 11.45C11.305 11.27 11.46 11.1 11.625 10.95C14.125 8.44996 18.125 7.94996 21.855 9.61496L21.635 9.38996C17.585 5.33996 11.59 4.74496 8.26496 8.06996L8.03996 8.30496C8.01789 8.32964 7.99095 8.3495 7.96083 8.36326C7.93072 8.37703 7.89807 8.38442 7.86496 8.38496C7.83142 8.38544 7.79814 8.37904 7.76718 8.36614C7.73622 8.35324 7.70824 8.33412 7.68496 8.30996L6.59496 7.19996C6.54612 7.14985 6.48783 7.10992 6.42346 7.08246C6.3591 7.05499 6.28994 7.04055 6.21996 7.03996Z" fill="#D39C01"/>
<path d="M6.71506 12.9301C6.68091 12.931 6.64696 12.9246 6.61548 12.9113C6.584 12.898 6.55572 12.8782 6.53252 12.8531C6.50933 12.828 6.49176 12.7982 6.48099 12.7658C6.47022 12.7334 6.46649 12.699 6.47006 12.6651L6.65006 9.37506C6.65367 9.32646 6.67112 9.2799 6.70037 9.24091C6.72961 9.20192 6.76941 9.17213 6.81506 9.15506C6.85986 9.13783 6.90866 9.13385 6.95565 9.1436C7.00264 9.15335 7.04583 9.17643 7.08006 9.21006L7.88006 10.0101L8.81506 9.01006L9.01506 8.80006C9.6384 8.19454 10.3768 7.72016 11.1867 7.40497C11.9966 7.08979 12.8614 6.94021 13.7301 6.96506C14.4034 6.96421 15.0745 7.04139 15.7301 7.19506C15.7869 7.20879 15.8372 7.24161 15.8727 7.28803C15.9082 7.33445 15.9267 7.39165 15.9251 7.45006C15.9226 7.50667 15.9009 7.56075 15.8637 7.60344C15.8265 7.64614 15.7758 7.67492 15.7201 7.68506C13.8819 7.98516 12.1821 8.84817 10.8551 10.1551C10.6801 10.3351 10.5001 10.5301 10.3201 10.7451L9.54506 11.6751L10.2001 12.3301C10.2337 12.3643 10.2568 12.4075 10.2665 12.4545C10.2763 12.5015 10.2723 12.5503 10.2551 12.5951C10.2383 12.6405 10.2085 12.6799 10.1693 12.7084C10.1302 12.7369 10.0834 12.7531 10.0351 12.7551L6.74006 12.9401L6.71506 12.9301ZM7.12006 9.96006L7.00006 12.4151L9.46006 12.2801L9.00006 11.8601C8.95243 11.8123 8.92569 11.7475 8.92569 11.6801C8.92569 11.6126 8.95243 11.5479 9.00006 11.5001L9.92006 10.3951C10.1101 10.1701 10.3001 9.96006 10.4901 9.77006C11.5801 8.70729 12.914 7.92789 14.3751 7.50006C14.1601 7.50006 13.9451 7.47506 13.7301 7.47506C12.9272 7.45057 12.1276 7.58754 11.3787 7.87784C10.6297 8.16814 9.94668 8.60587 9.37006 9.16506C9.30506 9.22506 9.24507 9.29506 9.18507 9.36006L8.07006 10.5601C8.04743 10.5854 8.01968 10.6056 7.98865 10.6194C7.95762 10.6332 7.92402 10.6402 7.89006 10.6401C7.85668 10.6432 7.82302 10.6386 7.79176 10.6264C7.76051 10.6143 7.73253 10.595 7.71006 10.5701L7.12006 9.96006Z" fill="#D39C01"/>
<path d="M16.27 24.6203C13.1532 24.5417 10.1921 23.2417 8.02499 21.0003C7.6397 20.6135 7.27741 20.2044 6.93999 19.7753C6.90346 19.7299 6.88354 19.6735 6.88354 19.6153C6.88354 19.557 6.90346 19.5006 6.93999 19.4553C6.97845 19.4115 7.03097 19.3826 7.08848 19.3735C7.14599 19.3644 7.20488 19.3756 7.25499 19.4053C11.09 21.6103 15.42 21.3403 18.025 18.7353C18.125 18.6353 18.225 18.5303 18.315 18.4253L17.445 17.5503C17.3025 17.4082 17.2043 17.2279 17.1623 17.0311C17.1203 16.8344 17.1362 16.6297 17.2082 16.4418C17.2801 16.2539 17.4051 16.0909 17.5678 15.9726C17.7305 15.8543 17.9241 15.7858 18.125 15.7753L24.945 15.3953C24.9799 15.3917 25.0152 15.3961 25.0481 15.4082C25.081 15.4204 25.1108 15.4399 25.135 15.4653C25.1595 15.4901 25.1785 15.5199 25.1905 15.5527C25.2026 15.5855 25.2075 15.6204 25.205 15.6553L24.825 22.5003C24.8155 22.701 24.7475 22.8946 24.6293 23.0572C24.5112 23.2198 24.348 23.3443 24.16 23.4153C23.9736 23.492 23.7683 23.5107 23.5711 23.4687C23.3739 23.4268 23.194 23.3262 23.055 23.1803L22.16 22.2903L22.1 22.3503C21.3269 23.0958 20.4135 23.6804 19.4127 24.0701C18.4119 24.4597 17.3437 24.6468 16.27 24.6203ZM8.15999 20.4253L8.37999 20.6503C12.43 24.7003 18.425 25.2953 21.75 21.9703L21.975 21.7353C21.9971 21.7106 22.024 21.6907 22.0541 21.677C22.0842 21.6632 22.1169 21.6558 22.15 21.6553C22.1846 21.6519 22.2195 21.6569 22.2517 21.67C22.2839 21.683 22.3125 21.7037 22.335 21.7303L23.405 22.8003C23.4781 22.875 23.5716 22.9267 23.6738 22.9489C23.776 22.9711 23.8824 22.9629 23.98 22.9253C24.0844 22.8914 24.1748 22.824 24.2371 22.7337C24.2995 22.6433 24.3304 22.5349 24.325 22.4253L24.69 15.8853L18.15 16.2503C18.0454 16.2514 17.9438 16.2853 17.8595 16.3472C17.7752 16.4091 17.7124 16.4958 17.68 16.5953C17.6368 16.6915 17.6251 16.799 17.6467 16.9022C17.6682 17.0055 17.7219 17.0993 17.8 17.1703L18.845 18.2153C18.8864 18.2612 18.9094 18.3209 18.9094 18.3828C18.9094 18.4446 18.8864 18.5043 18.845 18.5503C18.695 18.7303 18.54 18.9003 18.375 19.0503C15.88 21.6053 11.89 22.0853 8.15999 20.4253Z" fill="#D39C01"/>
<path d="M16.27 23.0451C15.5967 23.0453 14.9256 22.9682 14.27 22.8151C14.214 22.8015 14.1643 22.7694 14.1289 22.7241C14.0935 22.6787 14.0745 22.6226 14.075 22.5651C14.0765 22.5069 14.0984 22.451 14.1367 22.4072C14.1751 22.3634 14.2275 22.3344 14.285 22.3251C16.1214 22.024 17.8193 21.161 19.145 19.8551C19.32 19.6751 19.5 19.4801 19.68 19.2651L20.455 18.3351L19.8 17.6801C19.7663 17.6458 19.7433 17.6026 19.7335 17.5556C19.7237 17.5087 19.7277 17.4599 19.745 17.4151C19.7617 17.3696 19.7916 17.3302 19.8307 17.3017C19.8699 17.2732 19.9166 17.257 19.965 17.2551L23.26 17.0701C23.2949 17.0665 23.3301 17.0709 23.3631 17.083C23.396 17.0952 23.4257 17.1147 23.45 17.1401C23.4749 17.1657 23.494 17.1963 23.5061 17.23C23.5182 17.2636 23.5229 17.2994 23.52 17.3351L23.34 20.6251C23.3362 20.6729 23.3193 20.7188 23.291 20.7577C23.2628 20.7965 23.2243 20.8267 23.18 20.8451C23.1344 20.8627 23.0848 20.8669 23.0369 20.8572C22.989 20.8474 22.945 20.8241 22.91 20.7901L22.12 20.0001L21.185 21.0001L20.985 21.2101C20.3616 21.8156 19.6232 22.29 18.8133 22.6051C18.0035 22.9203 17.1386 23.0699 16.27 23.0451ZM15.625 22.5001C15.84 22.5001 16.055 22.5251 16.27 22.5251C17.0728 22.5496 17.8724 22.4126 18.6214 22.1223C19.3703 21.832 20.0533 21.3943 20.63 20.8351C20.695 20.7751 20.755 20.7051 20.815 20.6401L21.93 19.4401C21.9526 19.4148 21.9803 19.3945 22.0114 19.3807C22.0424 19.367 22.076 19.3599 22.11 19.3601C22.1433 19.3569 22.177 19.3616 22.2083 19.3737C22.2395 19.3859 22.2675 19.4052 22.29 19.4301L22.88 20.0201L23 17.5851L20.54 17.7201L20.96 18.1401C20.9863 18.161 21.0083 18.1869 21.0246 18.2164C21.041 18.2459 21.0513 18.2783 21.055 18.3117C21.0587 18.3452 21.0558 18.3791 21.0463 18.4114C21.0369 18.4437 21.0211 18.4739 21 18.5001L20.08 19.6051C19.89 19.8301 19.7 20.0401 19.51 20.2301C18.4199 21.2928 17.086 22.0722 15.625 22.5001Z" fill="#D39C01"/>
<path d="M23.73 29.25H6.27002C4.81133 29.25 3.41238 28.6706 2.38093 27.6391C1.34948 26.6077 0.77002 25.2087 0.77002 23.75V6.27002C0.77002 4.81133 1.34948 3.41238 2.38093 2.38093C3.41238 1.34948 4.81133 0.77002 6.27002 0.77002H23.73C25.1887 0.77002 26.5877 1.34948 27.6191 2.38093C28.6506 3.41238 29.23 4.81133 29.23 6.27002V23.73C29.2327 24.454 29.0923 25.1713 28.8171 25.8409C28.5419 26.5105 28.1372 27.1192 27.6262 27.632C27.1152 28.1449 26.508 28.5518 25.8394 28.8295C25.1708 29.1071 24.454 29.25 23.73 29.25ZM6.27002 1.25002C4.94394 1.25002 3.67217 1.7768 2.73449 2.71449C1.7968 3.65217 1.27002 4.92394 1.27002 6.25002V23.73C1.27002 25.0561 1.7968 26.3279 2.73449 27.2656C3.67217 28.2032 4.94394 28.73 6.27002 28.73H23.73C25.0561 28.73 26.3279 28.2032 27.2656 27.2656C28.2032 26.3279 28.73 25.0561 28.73 23.73V6.27002C28.73 4.94394 28.2032 3.67217 27.2656 2.73449C26.3279 1.7968 25.0561 1.27002 23.73 1.27002L6.27002 1.25002Z" fill="#D39C01"/>
</svg>
