<svg width="21" height="21" viewBox="0 0 21 21" fill="none" xmlns="http://www.w3.org/2000/svg">
<g clip-path="url(#clip0_207_19048)">
<path d="M18.0091 16.5754L17.1115 5.26455C17.0555 4.53585 16.4393 3.965 15.7084 3.965H13.9354V3.88531C13.9354 1.74293 12.1925 0 10.0501 0C7.90775 0 6.16482 1.74293 6.16482 3.88531V3.965H4.39186C3.661 3.965 3.04469 4.53581 2.98895 5.26302L2.09104 16.5769C2.02155 17.4828 2.33581 18.3846 2.95318 19.0511C3.57055 19.7177 4.44572 20.1 5.35427 20.1H14.746C15.6545 20.1 16.5297 19.7177 17.1471 19.0511C17.7644 18.3846 18.0787 17.4828 18.0091 16.5754ZM7.34217 3.88531C7.34217 2.39214 8.557 1.17734 10.0501 1.17734C11.5433 1.17734 12.7581 2.39217 12.7581 3.88531V3.965H7.34217V3.88531ZM16.2833 18.2512C15.8822 18.6842 15.3362 18.9227 14.746 18.9227H5.35431C4.76403 18.9227 4.21811 18.6842 3.81697 18.2512C3.41587 17.8181 3.21982 17.2555 3.26489 16.6685L4.16271 5.35457C4.17182 5.23554 4.27248 5.14234 4.39186 5.14234H6.16482V6.59233C6.16482 6.91742 6.4284 7.181 6.75349 7.181C7.07859 7.181 7.34217 6.91742 7.34217 6.59233V5.14234H12.7581V6.59233C12.7581 6.91742 13.0217 7.181 13.3468 7.181C13.6719 7.181 13.9354 6.91742 13.9354 6.59233V5.14234H15.7084C15.8278 5.14234 15.9284 5.23558 15.9377 5.35614L16.8353 16.6669C16.8805 17.2555 16.6844 17.8181 16.2833 18.2512Z" fill="#F3BB2B"/>
<path d="M12.7022 9.98297C12.4724 9.75307 12.0996 9.75307 11.8698 9.98297L9.24124 12.6115L8.23051 11.6008C8.00065 11.3709 7.6279 11.3709 7.39801 11.6008C7.16811 11.8307 7.16811 12.2034 7.39801 12.4333L8.82499 13.8603C8.93994 13.9752 9.09061 14.0327 9.2412 14.0327C9.39179 14.0327 9.5425 13.9753 9.65741 13.8603L12.7022 10.8155C12.9321 10.5856 12.9321 10.2129 12.7022 9.98297Z" fill="#F3BB2B"/>
</g>
<defs>
<clipPath id="clip0_207_19048">
<rect width="20.1" height="20.1" fill="white"/>
</clipPath>
</defs>
</svg>
