<svg width="21" height="21" viewBox="0 0 21 21" fill="none" xmlns="http://www.w3.org/2000/svg">
<g clip-path="url(#clip0_207_19092)">
<path d="M16.1348 10.3194V8.44043C16.1348 5.69937 14.3128 3.37613 11.8165 2.61732V1.7666C11.8165 0.792498 11.024 0 10.0499 0C9.07575 0 8.28325 0.792498 8.28325 1.7666V2.61732C5.78684 3.37613 3.96489 5.69933 3.96489 8.44043V10.3194C3.96489 12.7271 3.04712 15.0102 1.38067 16.7481C1.21735 16.9184 1.17146 17.1697 1.26403 17.3867C1.3566 17.6037 1.56977 17.7445 1.80571 17.7445H7.16475C7.4383 19.0868 8.62797 20.1 10.0499 20.1C11.4718 20.1 12.6614 19.0868 12.9349 17.7445H18.294C18.5299 17.7445 18.7431 17.6037 18.8356 17.3867C18.9282 17.1697 18.8823 16.9184 18.719 16.7481C17.0526 15.0102 16.1348 12.7271 16.1348 10.3194ZM9.46098 1.7666C9.46098 1.4419 9.72515 1.17773 10.0499 1.17773C10.3746 1.17773 10.6387 1.4419 10.6387 1.7666V2.38405C10.4449 2.36536 10.2485 2.35547 10.0499 2.35547C9.85121 2.35547 9.6548 2.36536 9.46098 2.38405V1.7666ZM10.0499 18.9223C9.28216 18.9223 8.62762 18.4299 8.38453 17.7445H11.7152C11.4721 18.4299 10.8175 18.9223 10.0499 18.9223ZM3.07491 16.5668C4.416 14.7691 5.14262 12.5936 5.14262 10.3194V8.44043C5.14262 5.73458 7.34401 3.5332 10.0499 3.5332C12.7557 3.5332 14.9571 5.73458 14.9571 8.44043V10.3194C14.9571 12.5936 15.6837 14.7691 17.0248 16.5668H3.07491Z" fill="#F3BB2B"/>
<path d="M17.7052 8.44084C17.7052 8.76606 17.9688 9.02971 18.294 9.02971C18.6193 9.02971 18.8829 8.76606 18.8829 8.44084C18.8829 6.08145 17.9641 3.86326 16.2958 2.19493C16.0659 1.96499 15.693 1.96495 15.463 2.19493C15.233 2.4249 15.233 2.79773 15.463 3.0277C16.9089 4.47361 17.7052 6.39602 17.7052 8.44084Z" fill="#F3BB2B"/>
<path d="M1.80566 9.02969C2.13088 9.02969 2.39453 8.76603 2.39453 8.44082C2.39453 6.39604 3.19084 4.47362 4.6367 3.02772C4.86667 2.79774 4.86667 2.42491 4.6367 2.19494C4.40677 1.96497 4.0339 1.96497 3.80393 2.19494C2.13559 3.86328 1.2168 6.08142 1.2168 8.44082C1.2168 8.76603 1.48045 9.02969 1.80566 9.02969Z" fill="#F3BB2B"/>
</g>
<defs>
<clipPath id="clip0_207_19092">
<rect width="20.1" height="20.1" fill="white"/>
</clipPath>
</defs>
</svg>
