<svg width="21" height="21" viewBox="0 0 21 21" fill="none" xmlns="http://www.w3.org/2000/svg">
<g clip-path="url(#clip0_207_19056)">
<path d="M13.5971 9.45898H12.4148V10.743C11.7267 10.9871 11.2324 11.6442 11.2324 12.4149C11.2324 13.3928 12.028 14.1884 13.006 14.1884C13.332 14.1884 13.5971 14.4536 13.5971 14.7796C13.5971 15.1056 13.332 15.3707 13.006 15.3707H11.2324V16.5531H12.4148V17.7355H13.5971V16.4514C14.2852 16.2074 14.7795 15.5503 14.7795 14.7796C14.7795 13.8016 13.9839 13.006 13.006 13.006C12.6799 13.006 12.4148 12.7409 12.4148 12.4149C12.4148 12.0889 12.6799 11.8237 13.006 11.8237H14.7795V10.6413H13.5971V9.45898Z" fill="#F3BB2B"/>
<path d="M13.006 7.09412C12.1722 7.09412 11.3746 7.25204 10.6413 7.53927C10.6413 6.94408 10.6413 5.31349 10.6413 4.72941H13.006V0H2.95601V3.54706H0.591309V15.3706H6.74892C7.52277 18.0971 10.0349 20.1 13.006 20.1C16.5917 20.1 19.509 17.1828 19.509 13.5971C19.509 10.0113 16.5917 7.09412 13.006 7.09412ZM4.13837 1.18235H11.8237V3.54706C11.4589 3.54706 4.53635 3.54706 4.13837 3.54706V1.18235ZM1.77366 4.72941H9.45896V7.09412H1.77366V4.72941ZM1.77366 8.27647H9.27144C8.4084 8.88404 7.69898 9.69577 7.21454 10.6412H1.77366V8.27647ZM1.77366 14.1882V11.8235H6.74892C6.53736 12.5688 6.45578 13.3674 6.53023 14.1882H1.77366ZM13.006 18.9176C10.0722 18.9176 7.68543 16.5309 7.68543 13.5971C7.68543 10.6632 10.0722 8.27647 13.006 8.27647C15.9398 8.27647 18.3266 10.6632 18.3266 13.5971C18.3266 16.5309 15.9398 18.9176 13.006 18.9176Z" fill="#F3BB2B"/>
</g>
<defs>
<clipPath id="clip0_207_19056">
<rect width="20.1" height="20.1" fill="white"/>
</clipPath>
</defs>
</svg>
