<svg width="49" height="49" viewBox="0 0 49 49" fill="none" xmlns="http://www.w3.org/2000/svg">
<g clip-path="url(#clip0_399_9131)">
<path d="M38.1504 41.494V34.8838C38.1504 34.6866 38.2631 34.4988 38.4321 34.4049C38.6011 34.311 38.8171 34.311 38.9955 34.4143L42.4133 36.4988C42.5353 36.5739 42.6292 36.696 42.6668 36.8462C42.7044 36.9871 42.6762 37.1373 42.6011 37.2687C42.526 37.3908 42.4039 37.4847 42.263 37.5223C42.1222 37.5598 41.972 37.5316 41.8405 37.4565L39.2584 35.8885V41.5034C39.2584 41.8133 39.0049 42.0574 38.7044 42.0574C38.3945 42.048 38.1504 41.7945 38.1504 41.494ZM34.2537 23.1938V18.8183C34.2537 18.5084 34.4979 18.2643 34.8077 18.2643H39.1833C39.4931 18.2643 39.7373 18.5084 39.7373 18.8183V23.1938C39.7373 23.5037 39.4837 23.7478 39.1833 23.7478H34.8077C34.4979 23.7478 34.2537 23.5037 34.2537 23.1938ZM38.6293 22.6398V19.3722H35.3617V22.6398H38.6293ZM48.9202 34.8838C48.9202 40.5175 44.3381 45.0996 38.7044 45.0996C36.6105 45.0996 34.5918 44.4705 32.8735 43.2687H3.93487C2.22597 43.2781 0.845703 41.8884 0.845703 40.1889V9.72917C0.845703 8.02966 2.22597 6.64001 3.92548 6.64001H7.75642V5.69166C7.76581 4.54613 8.69537 3.60718 9.85029 3.60718C11.0052 3.60718 11.9348 4.54613 11.9348 5.69166V6.64001H16.6671V5.69166C16.6671 4.54613 17.6061 3.60718 18.7516 3.60718C19.8971 3.60718 20.8361 4.54613 20.8361 5.69166V6.64001H25.5684V5.69166C25.5684 4.54613 26.5074 3.60718 27.6529 3.60718C28.7984 3.60718 29.7374 4.54613 29.7374 5.69166V6.64001H34.4697V5.69166C34.4697 4.54613 35.4087 3.60718 36.5542 3.60718C37.7091 3.60718 38.6387 4.54613 38.6387 5.69166V6.64001H42.4696C44.1691 6.64001 45.5494 8.02027 45.5494 9.72917V27.3158C47.6996 29.2594 48.9202 32.0106 48.9202 34.8838ZM29.5965 34.8838C29.5965 39.9072 33.681 43.9917 38.7044 43.9917C43.7278 43.9917 47.8123 39.9072 47.8123 34.8838C47.8123 29.8604 43.7278 25.7759 38.7044 25.7759C33.681 25.7759 29.5965 29.8604 29.5965 34.8838ZM28.4886 34.8838C28.4886 34.8744 28.4886 34.865 28.4886 34.8462H26.1693V38.1138H29.0144C28.6576 37.081 28.4886 35.9918 28.4886 34.8838ZM26.1693 27.1092V30.3768H29.4369V27.1092H26.1693ZM44.4508 15.3253H1.95367V40.1889C1.95367 41.2781 2.83629 42.1607 3.93487 42.1607H31.5402C30.6857 41.3156 29.9627 40.3016 29.4557 39.2218H25.6154C25.3055 39.2218 25.0614 38.9683 25.0614 38.6678V34.2923C25.0614 33.9824 25.3055 33.7383 25.6154 33.7383H28.5449C28.6294 32.9683 28.8078 32.2172 29.0613 31.4848H25.606C25.2961 31.4848 25.052 31.2406 25.052 30.9308V26.5553C25.052 26.2454 25.2961 26.0013 25.606 26.0013H29.9815C30.2914 26.0013 30.5355 26.2548 30.5355 26.5553V28.7336C32.4603 26.1797 35.4838 24.6586 38.695 24.6586C40.7607 24.6586 42.7513 25.2689 44.4508 26.4332V15.3253ZM7.76581 8.70571V7.75736H3.93487C2.84568 7.75736 1.95367 8.63998 1.95367 9.73856V14.2174H44.4508V9.72917C44.4508 8.63998 43.5682 7.74797 42.479 7.74797H38.6481V8.69632C38.6481 9.84184 37.7091 10.7808 36.5636 10.7808C35.4181 10.7808 34.4791 9.84184 34.4791 8.69632V7.75736H29.7468V8.70571C29.7468 9.85123 28.8078 10.7902 27.6623 10.7902C26.5168 10.7902 25.5778 9.85123 25.5778 8.70571V7.75736H20.8455V8.70571C20.8455 9.85123 19.9065 10.7902 18.761 10.7902C17.6155 10.7902 16.6765 9.85123 16.6765 8.70571V7.75736H11.9442V8.70571C11.9442 9.85123 11.0052 10.7902 9.85968 10.7902C8.69537 10.7902 7.76581 9.85123 7.76581 8.70571ZM37.5401 5.69166C37.5401 5.15645 37.0988 4.71515 36.5636 4.71515C36.0284 4.71515 35.5871 5.15645 35.5871 5.69166V8.70571C35.5871 9.24091 36.0284 9.68222 36.5636 9.68222C37.0988 9.68222 37.5401 9.24091 37.5401 8.70571V5.69166ZM28.6294 5.69166C28.6294 5.15645 28.1881 4.71515 27.6529 4.71515C27.1177 4.71515 26.6764 5.15645 26.6764 5.69166V8.70571C26.6764 9.24091 27.1177 9.68222 27.6529 9.68222C28.1881 9.68222 28.6294 9.24091 28.6294 8.70571V5.69166ZM19.7281 5.69166C19.7281 5.15645 19.2868 4.71515 18.7516 4.71515C18.2164 4.71515 17.7751 5.15645 17.7751 5.69166V8.70571C17.7751 9.24091 18.2164 9.68222 18.7516 9.68222C19.2868 9.68222 19.7281 9.24091 19.7281 8.70571V5.69166ZM10.8268 5.69166C10.8268 5.15645 10.3855 4.71515 9.85029 4.71515C9.31508 4.71515 8.87377 5.15645 8.87377 5.69166V8.70571C8.87377 9.24091 9.31508 9.68222 9.85029 9.68222C10.3855 9.68222 10.8268 9.24091 10.8268 8.70571V5.69166ZM6.67662 30.9402V26.5646C6.67662 26.2548 6.92075 26.0107 7.2306 26.0107H11.6061C11.916 26.0107 12.1601 26.2642 12.1601 26.5646V30.9402C12.1601 31.25 11.916 31.4942 11.6061 31.4942H7.2306C6.92075 31.4942 6.67662 31.2406 6.67662 30.9402ZM11.0522 30.3862V27.1186H7.78459V30.3862H11.0522ZM6.67662 23.1938V18.8183C6.67662 18.5084 6.92075 18.2643 7.2306 18.2643H11.6061C11.916 18.2643 12.1601 18.5084 12.1601 18.8183V23.1938C12.1601 23.5037 11.916 23.7478 11.6061 23.7478H7.2306C6.92075 23.7478 6.67662 23.5037 6.67662 23.1938ZM11.0522 22.6398V19.3722H7.78459V22.6398H11.0522ZM6.67662 38.6772V34.3016C6.67662 33.9918 6.92075 33.7477 7.2306 33.7477H11.6061C11.916 33.7477 12.1601 34.0012 12.1601 34.3016V38.6772C12.1601 38.987 11.916 39.2312 11.6061 39.2312H7.2306C6.92075 39.2312 6.67662 38.9776 6.67662 38.6772ZM11.0522 38.1232V34.8556H7.78459V38.1232H11.0522ZM15.869 38.6772V34.3016C15.869 33.9918 16.1131 33.7477 16.423 33.7477H20.7985C21.1084 33.7477 21.3525 34.0012 21.3525 34.3016V38.6772C21.3525 38.987 21.1084 39.2312 20.7985 39.2312H16.423C16.1131 39.2312 15.869 38.9776 15.869 38.6772ZM16.977 34.8556V38.1232H20.2445V34.8556H16.977ZM20.376 26.0013C20.2258 26.0013 20.0849 26.0576 19.9816 26.1609L17.7751 28.3674L17.2399 27.8322C17.1366 27.729 16.9957 27.6726 16.8455 27.6726C16.6953 27.6726 16.5544 27.729 16.4511 27.8322C16.3479 27.9355 16.2915 28.0764 16.2915 28.2266C16.2915 28.3768 16.3479 28.5177 16.4511 28.621L17.3807 29.5505C17.484 29.6538 17.6248 29.7101 17.7751 29.7101C17.9253 29.7101 18.0662 29.6538 18.1694 29.5505L20.7703 26.9496C20.8736 26.8463 20.93 26.7055 20.93 26.5553C20.93 26.405 20.8736 26.2642 20.7703 26.1609C20.6577 26.0576 20.5168 26.0013 20.376 26.0013ZM15.869 23.1938V18.8183C15.869 18.5084 16.1131 18.2643 16.423 18.2643H20.7985C21.1084 18.2643 21.3525 18.5084 21.3525 18.8183V23.1938C21.3525 23.5037 21.1084 23.7478 20.7985 23.7478H16.423C16.1131 23.7478 15.869 23.5037 15.869 23.1938ZM16.977 19.3722V22.6398H20.2445V19.3722H16.977ZM16.423 31.4942H20.7985C21.1084 31.4942 21.3525 31.25 21.3525 30.9402C21.3525 30.6303 21.1084 30.3862 20.7985 30.3862H16.423C16.1131 30.3862 15.869 30.6397 15.869 30.9402C15.869 31.2406 16.1131 31.4942 16.423 31.4942ZM25.0614 23.1938V18.8183C25.0614 18.5084 25.3055 18.2643 25.6154 18.2643H29.9909C30.3007 18.2643 30.5449 18.5084 30.5449 18.8183V23.1938C30.5449 23.5037 30.3007 23.7478 29.9909 23.7478H25.6154C25.3055 23.7478 25.0614 23.5037 25.0614 23.1938ZM29.4369 22.6398V19.3722H26.1693V22.6398H29.4369Z" fill="#fea903"/>
</g>
<defs>
<clipPath id="clip0_399_9131">
<rect width="48.0745" height="48.0745" fill="white" transform="translate(0.844727 0.320557)"/>
</clipPath>
</defs>
</svg>
