<svg width="50" height="50" viewBox="0 0 50 50" fill="none" xmlns="http://www.w3.org/2000/svg">
<path d="M44.9172 30.6954V12.4834L23.2952 0L1.67334 12.4834V37.4502L23.2952 49.9336L29.0472 46.6127C31.0901 48.7013 33.9376 50 37.083 50C43.2837 50 48.3284 44.9553 48.3284 38.7546C48.3284 35.5971 47.0198 32.7399 44.9172 30.6954ZM23.2952 3.3873L40.5168 13.3302L33.3729 17.4548L16.1513 7.51191L23.2952 3.3873ZM21.8284 45.6993L4.60693 35.7564V15.8708L21.8284 25.8137V45.6993ZM6.07373 13.3302L13.2177 9.20557L30.4393 19.1484L23.2952 23.273L6.07373 13.3302ZM24.762 45.6993V25.8136L41.9835 15.8707V28.6345C40.5015 27.9139 38.8387 27.5093 37.083 27.5093C30.8823 27.5093 25.8376 32.554 25.8376 38.7547C25.8376 40.7489 26.3601 42.6232 27.2743 44.2489L24.762 45.6993ZM37.083 47.0664C32.4999 47.0664 28.7712 43.3377 28.7712 38.7546C28.7712 34.1715 32.4999 30.4428 37.083 30.4428C41.6661 30.4428 45.3948 34.1715 45.3948 38.7546C45.3948 43.3377 41.6662 47.0664 37.083 47.0664Z" fill="white"/>
<path d="M40.5518 34.4951L35.7488 39.3247L33.5973 37.195L31.5336 39.2798L35.765 43.4686L42.6319 36.5637L40.5518 34.4951Z" fill="white"/>
</svg>
