<svg width="20" height="18" viewBox="0 0 20 18" fill="none" xmlns="http://www.w3.org/2000/svg">
<path d="M18.75 10.25C18.5858 10.2499 18.4232 10.2822 18.2715 10.345C18.1198 10.4077 17.982 10.4998 17.8659 10.6159C17.7498 10.732 17.6577 10.8698 17.595 11.0215C17.5322 11.1732 17.4999 11.3358 17.5 11.5V15.25H2.5V11.5C2.5 11.1685 2.3683 10.8505 2.13388 10.6161C1.89946 10.3817 1.58152 10.25 1.25 10.25C0.91848 10.25 0.600537 10.3817 0.366117 10.6161C0.131696 10.8505 2.00941e-07 11.1685 2.00941e-07 11.5V16.5C-9.29127e-05 16.6642 0.0321757 16.8268 0.0949611 16.9785C0.157747 17.1302 0.249817 17.268 0.365909 17.3841C0.482001 17.5002 0.619837 17.5923 0.771536 17.655C0.923235 17.7178 1.08582 17.7501 1.25 17.75H18.75C18.9142 17.7501 19.0768 17.7178 19.2285 17.655C19.3802 17.5923 19.518 17.5002 19.6341 17.3841C19.7502 17.268 19.8423 17.1302 19.905 16.9785C19.9678 16.8268 20.0001 16.6642 20 16.5V11.5C20.0001 11.3358 19.9678 11.1732 19.905 11.0215C19.8423 10.8698 19.7502 10.732 19.6341 10.6159C19.518 10.4998 19.3802 10.4077 19.2285 10.345C19.0768 10.2822 18.9142 10.2499 18.75 10.25Z" fill="white"/>
<path d="M9.11558 12.3838C9.23162 12.4999 9.3694 12.592 9.52104 12.6548C9.67268 12.7177 9.83522 12.75 9.99937 12.75C10.1635 12.75 10.3261 12.7177 10.4777 12.6548C10.6293 12.592 10.7671 12.4999 10.8832 12.3838L14.6332 8.63379C14.8665 8.39917 14.9972 8.0816 14.9968 7.75072C14.9963 7.41984 14.8647 7.10264 14.6307 6.86866C14.3967 6.63469 14.0795 6.50305 13.7486 6.50259C13.4178 6.50212 13.1002 6.63289 12.8656 6.86621L11.2494 8.48242V1.5C11.2494 1.16848 11.1177 0.850537 10.8833 0.616117C10.6488 0.381696 10.3309 0.25 9.99937 0.25C9.66785 0.25 9.34991 0.381696 9.11549 0.616117C8.88106 0.850537 8.74937 1.16848 8.74937 1.5V8.48242L7.13316 6.86621C6.89854 6.63289 6.58097 6.50212 6.25009 6.50259C5.9192 6.50305 5.602 6.63469 5.36803 6.86866C5.13406 7.10264 5.00241 7.41984 5.00195 7.75072C5.00149 8.0816 5.13226 8.39917 5.36558 8.63379L9.11558 12.3838Z" fill="white"/>
</svg>
