<svg width="33" height="23" viewBox="0 0 33 23" fill="none" xmlns="http://www.w3.org/2000/svg">
<path d="M32.2448 19.8315H31.2983V1.3087C31.2983 1.13541 31.1584 0.98877 30.9784 0.98877H4.49059C4.3173 0.98877 4.17066 1.12874 4.17066 1.3087V11.3066C2.8776 12.4597 2.05777 14.126 2.05777 15.9923C2.05777 17.4387 2.55766 18.7651 3.37749 19.8315H0.891344C0.711382 19.8315 0.571411 19.9715 0.571411 20.1514C0.571411 20.3247 0.711382 20.4714 0.891344 20.4714H3.95071C5.0838 21.5845 6.63681 22.2777 8.34979 22.2777C10.0628 22.2777 11.6158 21.5845 12.7489 20.4714H32.2515C32.4248 20.4714 32.5714 20.3314 32.5714 20.1514C32.5647 19.9715 32.4248 19.8315 32.2448 19.8315ZM30.6585 4.72132H19.8674V3.54824H30.6585V4.72132ZM19.8674 8.60718C20.7339 9.52033 21.3004 10.9667 21.3004 12.5997C21.3004 14.2327 20.7339 15.6724 19.8674 16.5855V8.60718ZM19.8674 17.4387C21.1005 16.4589 21.9336 14.6593 21.9336 12.5997C21.9336 10.5334 21.1005 8.73382 19.8674 7.75403V7.59406H26.9659C27.0992 8.33391 27.6858 8.92712 28.4256 9.05376V16.1389C27.6858 16.2723 27.0926 16.8588 26.9659 17.5986H19.8674V17.4387ZM19.8674 18.2385H27.2525C27.4258 18.2385 27.5725 18.0985 27.5725 17.9186C27.5725 17.272 28.099 16.7455 28.7455 16.7455C28.9188 16.7455 29.0655 16.6055 29.0655 16.4256V8.76048C29.0655 8.58719 28.9255 8.44055 28.7455 8.44055C28.099 8.44055 27.5725 7.91399 27.5725 7.26746C27.5725 7.09416 27.4325 6.94753 27.2525 6.94753H19.8674V5.34786H30.6585V19.8315H19.8674V18.2385ZM30.6585 2.90837H19.8674V1.62864H30.6585V2.90837ZM19.2342 1.62864V19.8315H16.2415V1.62864H19.2342ZM15.6016 4.72132H4.81053V3.54824H15.6016V4.72132ZM14.4419 14.4926C14.4285 14.426 14.4085 14.3593 14.3885 14.2927C14.2552 13.7661 14.1752 13.1929 14.1752 12.5997C14.1752 10.96 14.7418 9.51366 15.6083 8.60052V16.5922C15.0951 16.0523 14.6885 15.3324 14.4419 14.4926ZM15.6016 7.75403C14.3952 8.71383 13.5754 10.4601 13.542 12.4664C12.4089 10.8067 10.5027 9.70695 8.34313 9.70695C7.89655 9.70695 7.46331 9.75361 7.0434 9.84692V9.05376C7.78324 8.92045 8.37645 8.33391 8.50309 7.59406H15.5949V7.75403H15.6016ZM15.6016 17.4387V17.5986H14.4085C14.5152 17.1921 14.5818 16.7788 14.6085 16.3456C14.9018 16.7721 15.235 17.1454 15.6016 17.4387ZM14.2086 18.2385H15.6016V19.8315H13.3088C13.682 19.3516 13.9886 18.8117 14.2086 18.2385ZM15.6016 1.62864V2.90837H4.81053V1.62864H15.6016ZM4.81053 5.35453H15.6016V6.95419H8.21649C8.04319 6.95419 7.89655 7.09416 7.89655 7.27413C7.89655 7.92066 7.36999 8.44722 6.72346 8.44722C6.55017 8.44722 6.40353 8.58719 6.40353 8.76715V10.0202C5.83032 10.2068 5.29043 10.4735 4.80386 10.8067V5.35453H4.81053ZM2.69763 15.9923C2.69763 12.8796 5.23044 10.3468 8.34313 10.3468C11.4558 10.3468 13.9886 12.8796 13.9886 15.9923C13.9886 19.105 11.4558 21.6311 8.34313 21.6311C5.23044 21.6311 2.69763 19.105 2.69763 15.9923Z" fill="white"/>
<path d="M25.1329 10.4136C23.9332 10.4136 22.9534 11.3934 22.9534 12.5931C22.9534 13.7929 23.9332 14.7727 25.1329 14.7727C26.3327 14.7727 27.3058 13.7929 27.3058 12.5931C27.3058 11.3934 26.3327 10.4136 25.1329 10.4136ZM25.1329 14.1395C24.2798 14.1395 23.5866 13.4463 23.5866 12.5931C23.5866 11.74 24.2798 11.0468 25.1329 11.0468C25.9794 11.0468 26.6726 11.74 26.6726 12.5931C26.6726 13.4463 25.9794 14.1395 25.1329 14.1395Z" fill="white"/>
<path d="M8.34308 11.4131C5.81694 11.4131 3.76404 13.466 3.76404 15.9921C3.76404 18.5183 5.81694 20.5712 8.34308 20.5712C10.8692 20.5712 12.9221 18.5183 12.9221 15.9921C12.9288 13.466 10.8692 11.4131 8.34308 11.4131ZM8.34308 19.938C6.1702 19.938 4.39724 18.1717 4.39724 15.9988C4.39724 13.8259 6.16354 12.053 8.34308 12.053C10.516 12.053 12.2889 13.8193 12.2889 15.9988C12.2889 18.165 10.5226 19.938 8.34308 19.938Z" fill="white"/>
<path d="M9.83618 14.2527C10.0095 14.2527 10.1561 14.1127 10.1561 13.9327C10.1561 13.7528 10.0161 13.6128 9.83618 13.6128H7.80327C7.62997 13.6128 7.48333 13.7528 7.48333 13.9327V16.5788H6.8568C6.6835 16.5788 6.53687 16.7188 6.53687 16.8988C6.53687 17.0721 6.67684 17.2187 6.8568 17.2187H7.48333V18.0519C7.48333 18.2252 7.62331 18.3718 7.80327 18.3718C7.97657 18.3718 8.1232 18.2318 8.1232 18.0519V17.2187H9.22964C9.40293 17.2187 9.54957 17.0787 9.54957 16.8988C9.54957 16.7255 9.4096 16.5788 9.22964 16.5788H8.1232V15.919H9.83618C10.0095 15.919 10.1561 15.779 10.1561 15.599C10.1561 15.4191 10.0161 15.2791 9.83618 15.2791H8.1232V14.246H9.83618V14.2527Z" fill="white"/>
</svg>
