<svg width="20" height="18" viewBox="0 0 20 18" fill="none" xmlns="http://www.w3.org/2000/svg">
<path d="M18.75 10.25C18.5858 10.2499 18.4232 10.2822 18.2715 10.345C18.1198 10.4077 17.982 10.4998 17.8659 10.6159C17.7498 10.732 17.6577 10.8698 17.595 11.0215C17.5322 11.1732 17.4999 11.3358 17.5 11.5V15.25H2.5V11.5C2.5 11.1685 2.3683 10.8505 2.13388 10.6161C1.89946 10.3817 1.58152 10.25 1.25 10.25C0.91848 10.25 0.600537 10.3817 0.366117 10.6161C0.131696 10.8505 2.00941e-07 11.1685 2.00941e-07 11.5V16.5C-9.29127e-05 16.6642 0.0321757 16.8268 0.0949611 16.9785C0.157747 17.1302 0.249817 17.268 0.365909 17.3841C0.482001 17.5002 0.619837 17.5923 0.771536 17.655C0.923235 17.7178 1.08582 17.7501 1.25 17.75H18.75C18.9142 17.7501 19.0768 17.7178 19.2285 17.655C19.3802 17.5923 19.518 17.5002 19.6341 17.3841C19.7502 17.268 19.8423 17.1302 19.905 16.9785C19.9678 16.8268 20.0001 16.6642 20 16.5V11.5C20.0001 11.3358 19.9678 11.1732 19.905 11.0215C19.8423 10.8698 19.7502 10.732 19.6341 10.6159C19.518 10.4998 19.3802 10.4077 19.2285 10.345C19.0768 10.2822 18.9142 10.2499 18.75 10.25Z" fill="white"/>
<path d="M7.13316 6.13379L8.74937 4.51758V11.5C8.74937 11.8315 8.88106 12.1495 9.11549 12.3839C9.34991 12.6183 9.66785 12.75 9.99937 12.75C10.3309 12.75 10.6488 12.6183 10.8833 12.3839C11.1177 12.1495 11.2494 11.8315 11.2494 11.5V4.51758L12.8656 6.13379C13.1002 6.36711 13.4178 6.49787 13.7486 6.49741C14.0795 6.49695 14.3967 6.3653 14.6307 6.13133C14.8647 5.89736 14.9963 5.58016 14.9968 5.24928C14.9972 4.91839 14.8665 4.60083 14.6332 4.36621L10.8832 0.616206C10.7671 0.500108 10.6293 0.408011 10.4777 0.345176C10.3261 0.282341 10.1635 0.25 9.99937 0.25C9.83522 0.25 9.67268 0.282341 9.52104 0.345176C9.3694 0.408011 9.23162 0.500108 9.11558 0.616206L5.36558 4.36621C5.13226 4.60083 5.00149 4.91839 5.00195 5.24928C5.00241 5.58016 5.13406 5.89736 5.36803 6.13133C5.602 6.3653 5.9192 6.49695 6.25009 6.49741C6.58097 6.49787 6.89854 6.36711 7.13316 6.13379Z" fill="white"/>
</svg>
