<svg width="62" height="59" viewBox="0 0 62 59" fill="none" xmlns="http://www.w3.org/2000/svg">
<g clip-path="url(#clip0_0_6015)">
<g clip-path="url(#clip1_0_6015)">
<g clip-path="url(#clip2_0_6015)">
<path d="M56.5219 25.465H52.682V5.18024C52.682 2.85091 50.7875 0.955811 48.4588 0.955811H22.1663C21.5172 0.955811 20.9912 1.48194 20.9912 2.13099C20.9912 2.78005 21.5172 3.30618 22.1663 3.30618H48.4587C49.4914 3.30618 50.3316 4.1469 50.3316 5.18024V19.9419L44.0861 15.4902C43.6675 15.1918 43.1037 15.2003 42.694 15.5105L35.7832 20.7484L24.7992 11.5944C24.3678 11.2349 23.7427 11.2308 23.3067 11.5843L9.9605 22.4039V5.18024C9.9605 4.14984 10.7988 3.30935 11.8292 3.30641C12.4782 3.30453 13.0029 2.77699 13.001 2.12794C12.9992 1.48006 12.4734 0.956046 11.8259 0.956046H11.8225C9.49972 0.962627 7.61003 2.85761 7.61003 5.18024V27.7154C7.61003 30.0441 9.50512 31.9388 11.8344 31.9388H25.3874V35.3248H4.80086C2.47189 35.3247 0.577026 37.2196 0.577026 39.5486V54.0985C0.577026 56.4276 2.47189 58.3224 4.80086 58.3224H27.1598C29.4889 58.3224 31.3836 56.4276 31.3836 54.0985V49.9395H46.0166C46.6657 49.9395 47.1918 49.4133 47.1918 48.7642C47.1918 48.1152 46.6657 47.589 46.0166 47.589H31.3841V39.5482C31.3841 37.4693 29.7971 35.6472 27.7378 35.3643V29.6895C27.7378 28.6561 28.578 27.8154 29.6109 27.8154H56.5219C57.5553 27.8154 58.3959 28.6561 58.3959 29.6895V45.7149C58.3959 46.7482 57.5553 47.5889 56.5219 47.5889H56.349C55.6999 47.5889 55.1738 48.1151 55.1738 48.7641C55.1738 49.4132 55.6999 49.9392 56.349 49.9392H56.5219C58.8512 49.9392 60.7464 48.0443 60.7464 45.7149V29.6895C60.7464 27.3602 58.8512 25.465 56.5219 25.465ZM29.0334 54.0984C29.0334 55.1315 28.1929 55.972 27.1599 55.972H4.80086C3.76776 55.972 2.92739 55.1315 2.92739 54.0984V39.5486C2.92739 38.5156 3.76788 37.6752 4.80086 37.6752H26.5593C27.0365 37.6752 27.5117 37.6441 27.9569 37.8535C28.6065 38.159 29.0333 38.8311 29.0333 39.5488L29.0334 54.0984ZM29.6109 25.465C27.352 25.465 25.4424 27.3295 25.3888 29.5883H11.8346C10.8012 29.5883 9.9605 28.7481 9.9605 27.7153V25.4296L24.0367 14.0184L37.7714 25.4649L29.6109 25.465ZM41.4431 25.465L37.6368 22.293L43.4254 17.9057L50.3317 22.8282V25.465H41.4431Z" fill="white"/>
<path d="M16.6639 3.2163C17.1392 3.41431 17.7086 3.26918 18.0303 2.86656C18.3349 2.48533 18.3701 1.94663 18.1212 1.52732C17.5841 0.622784 16.167 0.871923 15.9612 1.90127C15.8523 2.44502 16.153 3.00324 16.6639 3.2163Z" fill="white"/>
<path d="M39.6768 45.4225H43.0287C43.5392 45.4225 43.9911 45.0931 44.1474 44.6072L45.339 40.9045L50.4992 41.7264C50.5608 41.7362 50.6227 41.7411 50.6842 41.7411C50.9617 41.7411 51.2327 41.6426 51.4469 41.4599C51.7086 41.2366 51.8593 40.9098 51.8593 40.5659V36.7622H52.0847C52.7338 36.7622 53.2599 36.2361 53.2599 35.587C53.2599 34.938 52.7338 34.4118 52.0847 34.4118H51.8593V31.1569C51.8593 30.813 51.7086 30.4863 51.4469 30.2629C51.1852 30.0397 50.8392 29.9423 50.4992 29.9963L39.5837 31.7349H36.6091C35.2041 31.7349 34.061 32.8779 34.061 34.2831V37.4397C34.061 38.8448 35.2041 39.9878 36.6091 39.9878H38.5016V44.2473C38.5016 44.8964 39.0277 45.4225 39.6768 45.4225ZM42.1724 43.0721H40.852V40.1899L42.9904 40.5304L42.1724 43.0721ZM49.509 39.1887L40.8519 37.8099V33.9129L49.509 32.5341V39.1887ZM36.4116 37.4397V34.2831C36.4116 34.174 36.5003 34.0853 36.6093 34.0853H38.5017V37.6375H36.6091C36.5003 37.6375 36.4116 37.5487 36.4116 37.4397Z" fill="white"/>
<path d="M51.8019 47.7873C51.3841 47.5089 50.8234 47.531 50.427 47.838C50.0388 48.139 49.8807 48.667 50.0341 49.1325C50.3764 50.1708 51.8878 50.1887 52.2552 49.1598C52.4333 48.6608 52.2477 48.0792 51.8019 47.7873Z" fill="white"/>
<path d="M20.6848 45.4881L13.5152 41.6419C12.7457 41.2291 11.7845 41.806 11.7845 42.6774V50.8874C11.7845 51.7852 12.8002 52.3604 13.5707 51.8913L20.7402 47.5275C21.1003 47.3083 21.3155 46.9131 21.3039 46.4916C21.2927 46.0702 21.0563 45.6874 20.6848 45.4881ZM14.1349 48.7964V44.6413L17.7634 46.5879L14.1349 48.7964Z" fill="white"/>
<path d="M39.781 9.87962C39.781 7.65511 37.9713 5.84546 35.7467 5.84546C33.5223 5.84546 31.7126 7.65511 31.7126 9.87962C31.7126 12.104 33.5223 13.9137 35.7467 13.9137C37.9713 13.9137 39.781 12.1041 39.781 9.87962ZM34.0629 9.87962C34.0629 8.95123 34.8182 8.19582 35.7467 8.19582C36.6753 8.19582 37.4305 8.95123 37.4305 9.87962C37.4305 10.808 36.6753 11.5634 35.7467 11.5634C34.8182 11.5634 34.0629 10.8081 34.0629 9.87962Z" fill="white"/>
</g>
</g>
</g>
<defs>
<clipPath id="clip0_0_6015">
<rect width="60.8086" height="57.3666" fill="white" transform="translate(0.577026 0.955811)"/>
</clipPath>
<clipPath id="clip1_0_6015">
<rect width="60.8086" height="57.3666" fill="white" transform="translate(0.577026 0.955811)"/>
</clipPath>
<clipPath id="clip2_0_6015">
<rect width="60.8086" height="57.3666" fill="white" transform="translate(0.577026 0.955811)"/>
</clipPath>
</defs>
</svg>
