<svg width="20" height="20" viewBox="0 0 20 20" fill="none" xmlns="http://www.w3.org/2000/svg">
<g clip-path="url(#clip0_217_1239)">
<path d="M15.5565 1.68516C13.9099 0.582695 11.9885 0 10 0C7.32891 0 4.8177 1.0402 2.92891 2.92891C1.04016 4.8177 0 7.32891 0 10C0 11.9885 0.582695 13.9099 1.68512 15.5565L2.01078 16.0429L4.93672 14.0879L4.60996 13.6004C3.89406 12.5325 3.51562 11.2875 3.51562 10C3.51562 6.42449 6.42449 3.51562 10 3.51562C11.2875 3.51562 12.5325 3.89406 13.6004 4.60996L14.0879 4.93672L16.0429 2.01082L15.5565 1.68516ZM13.7531 3.3284C12.6099 2.68262 11.3239 2.34375 10 2.34375C5.77832 2.34375 2.34375 5.77832 2.34375 10C2.34375 11.3239 2.68262 12.6099 3.32844 13.7531L2.3493 14.4073C1.57727 13.0707 1.17188 11.5589 1.17188 10C1.17188 7.64191 2.09016 5.425 3.75758 3.75758C5.425 2.09016 7.64191 1.17188 10 1.17188C11.5589 1.17188 13.0708 1.5773 14.4073 2.34934L13.7531 3.3284Z" fill="#949AA4"/>
<path d="M10.295 9.41461H9.71344C9.17035 9.41461 8.72852 8.97277 8.72852 8.42969C8.72852 7.8866 9.17035 7.44477 9.71344 7.44477H10.295C10.8381 7.44477 11.28 7.8866 11.28 8.42969H12.4518C12.4518 7.34059 11.6402 6.43801 10.5902 6.29359V5.09961H9.41832V6.29359C8.36828 6.43797 7.55664 7.34055 7.55664 8.42969C7.55664 9.61895 8.52418 10.5865 9.71344 10.5865H10.295C10.8381 10.5865 11.28 11.0283 11.28 11.5714C11.28 12.1145 10.8381 12.5563 10.295 12.5563H9.71344C9.17035 12.5563 8.72852 12.1145 8.72852 11.5714H7.55664C7.55664 12.6605 8.36824 13.5631 9.41832 13.7075V14.9015H10.5902V13.7075C11.6403 13.5631 12.4518 12.6605 12.4518 11.5714C12.4518 10.3821 11.4843 9.41461 10.295 9.41461Z" fill="#949AA4"/>
<path d="M14.0937 15.063L13.6063 15.3897C12.5383 16.1057 11.2933 16.4841 10.0058 16.4841C8.71836 16.4841 7.47332 16.1056 6.40539 15.3897L5.91793 15.063L3.96289 17.9889L4.44934 18.3146C6.0959 19.417 8.01731 19.9997 10.0058 19.9997C11.9943 19.9997 13.9157 19.417 15.5623 18.3146L16.0487 17.9889L14.0937 15.063ZM10.0058 18.8278C8.44688 18.8278 6.93504 18.4224 5.59848 17.6504L6.2527 16.6713C7.3959 17.3171 8.68191 17.656 10.0058 17.656C11.3298 17.656 12.6157 17.3171 13.7589 16.6713L14.4131 17.6504C13.0766 18.4224 11.5648 18.8278 10.0058 18.8278Z" fill="#949AA4"/>
<path d="M18.3141 4.44348L17.9884 3.95703L15.0625 5.91207L15.3893 6.39953C16.1052 7.46742 16.4836 8.71242 16.4836 9.99992C16.4836 11.2874 16.1052 12.5324 15.3893 13.6004L15.0625 14.0878L17.9884 16.0429L18.3141 15.5564C19.4165 13.9098 19.9992 11.9884 19.9992 9.99992C19.9992 8.01141 19.4165 6.09 18.3141 4.44348ZM17.6499 14.4072L16.6708 13.753C17.3166 12.6098 17.6555 11.3239 17.6555 9.99992C17.6555 8.67598 17.3166 7.39 16.6708 6.24684L17.6499 5.59262C18.4219 6.92914 18.8273 8.44098 18.8273 9.99992C18.8273 11.5589 18.4219 13.0707 17.6499 14.4072Z" fill="#949AA4"/>
</g>
<defs>
<clipPath id="clip0_217_1239">
<rect width="20" height="20" fill="white"/>
</clipPath>
</defs>
</svg>
