<svg width="14" height="19" viewBox="0 0 14 19" fill="none" xmlns="http://www.w3.org/2000/svg">
<path d="M13 19C13.5523 19 14 18.5523 14 18V15.875C14 15.3918 13.6082 15 13.125 15C12.6418 15 12.25 15.3918 12.25 15.875V16.4C12.25 16.9523 11.8023 17.4 11.25 17.4H2.75C2.19772 17.4 1.75 16.9523 1.75 16.4V15.875C1.75 15.3918 1.35825 15 0.875 15C0.391751 15 0 15.3918 0 15.875V18C0 18.5523 0.447715 19 1 19H13Z" fill="#F2F4F6"/>
<path d="M7.8 4V9.97658H11L7 15L3 9.97658H6.2V4H7.8Z" fill="#F2F4F6"/>
<path d="M1 -5.96046e-08C0.447716 -5.96046e-08 0 0.447715 0 1V3.125C0 3.60825 0.391751 4 0.875 4C1.35825 4 1.75 3.60825 1.75 3.125V2.6C1.75 2.04771 2.19772 1.6 2.75 1.6H11.25C11.8023 1.6 12.25 2.04772 12.25 2.6V3.125C12.25 3.60825 12.6418 4 13.125 4C13.6082 4 14 3.60825 14 3.125V1C14 0.447715 13.5523 -5.96046e-08 13 -5.96046e-08H1Z" fill="#F2F4F6"/>
</svg>
