<svg width="909" height="1171" viewBox="0 0 909 1171" fill="none" xmlns="http://www.w3.org/2000/svg">
<path d="M740.119 913.704L736.546 915.662C615.659 981.694 474.892 991.859 473.489 991.953L471.638 992.083L454.01 1003.65L436.417 992.095L434.566 991.977C433.151 991.883 292.396 981.718 171.497 915.674L167.936 913.728L96.067 957.097V1051.82L99.545 1053.87C101.208 1054.84 140.815 1077.98 202.921 1101.13C258.707 1121.93 343.37 1146.32 433.504 1146.32C435.414 1146.32 437.336 1146.3 439.246 1146.28L453.455 1154.07L468.808 1146.26C470.718 1146.28 472.64 1146.29 474.55 1146.29C564.684 1146.29 649.336 1121.91 705.133 1101.12C767.239 1077.97 806.847 1054.82 808.498 1053.85L811.988 1051.79V957.073L740.119 913.704ZM797.838 1043.64C786.837 1049.74 750.625 1069.08 699.898 1087.97C643.747 1108.87 557.763 1133.46 467.122 1132.08L465.224 1132.06L454.01 1138.31L442.832 1132.07L440.934 1132.11C350.281 1133.49 264.309 1108.89 208.157 1087.98C157.418 1069.11 121.206 1049.77 110.217 1043.65V965.08L155.308 937.865C155.308 937.865 154.601 940.164 154.601 943.372C154.601 946.78 155.403 951.213 158.657 955.01C164.989 962.38 172.512 969.608 190.199 976.966C207.886 984.347 223.357 989.064 231.764 985.526C237.895 982.944 246.22 971.636 250.159 965.811C338.584 997.082 418.53 1004.84 431.725 1005.94L454.035 1020.16L476.333 1005.93C489.41 1004.83 568.059 997.189 655.552 966.613C657.097 971.141 660.516 979.242 665.787 981.824C673.263 985.468 675.892 992.66 705.1 983.31C734.296 973.959 750.886 961.791 751.771 953.395C752.29 948.454 753.115 942.606 753.162 938.101L797.84 965.068V1043.64H797.838Z" fill="#B68B29"/>
<path d="M797.838 965.068V1043.64C786.837 1049.74 750.625 1069.08 699.898 1087.97C643.747 1108.87 557.763 1133.46 467.122 1132.08L465.224 1132.06L454.01 1138.31L442.832 1132.07L440.934 1132.11C350.281 1133.49 264.309 1108.89 208.157 1087.98C157.418 1069.11 121.206 1049.77 110.217 1043.65V965.08L155.308 937.865C155.308 937.865 154.601 940.164 154.601 943.372C154.601 946.78 155.403 951.213 158.657 955.01C164.989 962.38 172.512 969.608 190.199 976.966C207.886 984.347 223.357 989.064 231.764 985.526C237.895 982.944 246.22 971.636 250.159 965.811C338.584 997.082 418.53 1004.84 431.725 1005.94L454.035 1020.16L476.333 1005.93C489.41 1004.83 568.059 997.189 655.552 966.613C657.097 971.141 660.516 979.242 665.787 981.824C673.263 985.468 675.892 992.66 705.1 983.31C734.296 973.959 750.886 961.791 751.771 953.395C752.29 948.454 753.115 942.606 753.162 938.101L797.838 965.068Z" fill="#C7982E"/>
<path d="M742.814 900.119L739.145 902.423C630.258 970.801 471.496 978.803 469.905 978.876L467.739 978.976L454.011 989.209L440.308 978.995L438.142 978.895C436.551 978.822 277.789 970.821 168.902 902.442L165.233 900.138L82.7061 949.392V1058.53L85.976 1060.61C87.435 1061.54 122.407 1083.67 183.44 1107.09C239.35 1128.55 328.397 1155 435.776 1159.52L453.54 1170.21L472.269 1159.5C579.648 1154.98 668.696 1128.53 724.605 1107.07C785.638 1083.65 820.61 1061.53 822.069 1060.59L825.339 1058.51V949.373L742.814 900.119ZM811.192 1050.66C801.176 1056.61 768.579 1075.08 719.132 1094.02C663.991 1115.15 575.999 1141.21 469.948 1145.43L468.191 1145.5L454.008 1153.75L439.857 1145.52L438.1 1145.45C332.049 1141.23 244.057 1115.16 188.916 1094.04C139.469 1075.1 106.873 1056.63 96.856 1050.67V957.425L165.073 916.713C223.01 952.051 293.02 970.859 342.017 980.452C389.641 989.776 426.121 992.372 435.304 992.912L453.516 1006.6L472.743 992.894C481.926 992.354 518.406 989.757 566.03 980.433C615.026 970.84 685.036 952.032 742.974 916.694L811.191 957.406V1050.66H811.192Z" fill="black"/>
<path d="M146.176 958.793C146.225 958.646 146.176 951.423 146.176 951.423H150.893L154.676 954.027C154.676 954.027 156.101 954.715 154.676 957.319C153.251 959.923 148.78 961.087 148.78 961.087C148.78 961.087 150.008 960.807 150.107 963.509C150.205 966.211 152.465 967.734 148.977 968.815C145.489 969.896 142.59 971.665 142 969.994C141.41 968.324 140.379 962.87 142 961.593C143.621 960.316 146.176 958.793 146.176 958.793Z" fill="white"/>
<path d="M155.309 967.013L157.673 970.681L140.182 1001.59C140.182 1001.59 132.616 999.031 124.656 1001C116.697 1002.96 109.425 1016.82 109.425 1016.82L140.28 1031.26L172.707 961.087L155.309 967.013ZM135.17 1017.8C135.17 1017.8 128.586 1017.5 128.193 1017.11C127.8 1016.72 128.193 1008.76 128.193 1008.76C128.586 1008.76 138.609 1008.76 138.609 1008.76L135.17 1017.8Z" fill="white"/>
<path d="M330.418 1024.09C330.418 1024.09 331.597 1028.02 331.794 1030.38C331.99 1032.74 322.656 1080.69 322.656 1080.69L315.188 1079.41C315.188 1079.41 315.385 1072.83 314.304 1070.67C313.223 1068.5 304.576 1057.5 304.576 1057.5L286.889 1065.85C286.889 1065.85 285.513 1069.78 285.12 1071.85C284.727 1073.91 275.687 1071.75 275.883 1071.45C276.079 1071.16 281.582 1042.17 281.582 1042.17L267.924 1049.34C267.924 1049.34 268.022 1055.73 267.334 1059.17C266.646 1062.61 264.976 1067.23 264.976 1067.23L253.184 1063.98C253.184 1063.98 257.901 1038.73 256.23 1034.16C254.56 1029.59 248.173 1018.78 248.173 1018.78L234.613 1022.32C234.613 1022.32 247.485 1033.03 248.173 1037.06C248.861 1041.09 247.092 1061.72 247.092 1061.72L236.185 1059.46C236.185 1059.46 239.722 1044.63 231.763 1040.11C223.804 1035.59 170.545 1016.33 170.545 1016.33C170.545 1016.33 168.678 1009.55 177.718 1004.93L170.447 989.402L156.395 1020.85L225.572 1048.65L220.659 1064.77C220.659 1064.77 216.925 1067.52 215.549 1066.44C214.173 1065.36 213.682 1055.24 214.567 1053.37C215.451 1051.5 215.058 1052.29 215.058 1052.29L151.384 1028.05V1035.98C151.384 1035.98 201.596 1055.83 201.596 1056.42C201.596 1057.01 201.301 1061.13 201.301 1061.13L209.85 1077.35C209.85 1077.35 228.52 1075.38 233.236 1068.41C233.236 1068.41 254.166 1076.56 254.657 1076.56C255.148 1076.56 267.038 1077.35 267.038 1077.35L330.909 1090.81L344.961 1016.13L330.418 1024.09ZM304.207 1076.02C304.207 1076.02 300.029 1080.69 294.037 1073C293.835 1072.74 297.648 1069.02 301.259 1069.61C304.87 1070.2 304.207 1076.02 304.207 1076.02Z" fill="white"/>
<path d="M352.331 1019.47L341.522 1092.58L352.331 1095.33L360.585 1033.89L364.712 1031.26L356.851 1019.47H352.331Z" fill="white"/>
<path d="M428.681 1075.58L431.531 1079.31V1093.07L423.277 1092.28V1063.89L408.734 1074.3L413.254 1079.51C413.254 1079.51 411.584 1092.38 411.289 1092.28C410.994 1092.19 397.237 1089.83 397.237 1089.83L402.15 1022.91L390.358 1031.85L390.948 1035.16L388.59 1069.55C382.891 1070.19 375.587 1070.53 369.822 1079.21C364.359 1087.44 364.712 1097.49 364.712 1097.49L441.75 1101.91L442.438 1064.38L428.681 1075.58ZM386.674 1089.58C386.674 1089.58 379.157 1090.1 379.157 1089.58C379.157 1089.07 379.599 1081.7 379.599 1081.7H388.148L386.674 1089.58Z" fill="white"/>
<path d="M388.148 1109.48C388.148 1109.77 388.664 1116.11 388.664 1116.11L399.424 1114.93C399.424 1114.93 402.298 1117.44 405.541 1117.51C408.784 1117.59 411.437 1115.82 410.921 1112.94C410.405 1110.07 407.973 1107.56 407.973 1107.56C407.973 1107.56 401.561 1109.48 400.382 1110.73C399.203 1111.99 399.567 1111.47 399.567 1111.47C399.567 1111.47 395.666 1106.53 394.487 1106.31C393.306 1106.09 388.148 1109.48 388.148 1109.48Z" fill="white"/>
<path d="M420.022 1111.91C420.317 1111.87 426.986 1108.48 426.986 1108.48L430.966 1115.12L424.628 1118.43L420.022 1111.91Z" fill="white"/>
<path d="M527.877 1022.91L516.38 1033.89L519.917 1040.06L524.486 1090.91L500.018 1092.38L512.399 1065.56L504.734 1065.7C504.734 1065.7 494.564 1057.45 491.174 1057.89C487.784 1058.33 484.173 1064.67 484.173 1064.67L473.34 1065.26C473.34 1065.26 472.161 1074.84 485.721 1091.5L461.991 1092.09L461.696 1067.03L447.988 1080.15L451.82 1084.42L450.936 1108.48C450.936 1108.48 449.536 1112.94 445.851 1113.46C442.166 1113.97 433.691 1113.46 433.691 1113.46C433.691 1113.46 434.87 1119.06 446.735 1118.43C458.6 1117.81 461.769 1111.91 461.769 1111.91V1101.91L534.655 1099.46L527.877 1022.91ZM493.928 1081.87C493.633 1081.87 488.523 1081.08 488.523 1081.08V1073.71L491.176 1069.29L495.991 1072.73C495.991 1072.73 494.222 1081.87 493.928 1081.87Z" fill="white"/>
<path d="M536.868 1021.24C536.868 1021.83 544.532 1094.54 544.532 1094.54C544.532 1094.54 544.729 1098.47 547.873 1098.08C551.017 1097.69 556.324 1096.51 556.127 1095.92C555.93 1095.33 548.659 1035.22 548.659 1035.22L551.214 1032.24L536.868 1021.24Z" fill="white"/>
<path d="M586.393 1049.12C586.393 1049.12 581.382 1072.63 561.532 1077.15C561.532 1077.15 570.965 1089.33 585.606 1090.71C600.247 1092.09 646.529 1078.23 646.529 1078.23L636.998 1037.06L625.698 1050.62C625.698 1050.62 630.021 1053.37 631.397 1056.32C632.773 1059.27 635.328 1071.74 635.328 1071.74L586.59 1082.46L579.024 1077.25C579.024 1077.25 590.028 1058.04 586.393 1049.12Z" fill="white"/>
<path d="M607.544 1042.93C607.839 1042.71 611.376 1039.54 611.376 1039.54H617.345V1045.29L615.945 1047.43C615.945 1047.43 611.523 1047.72 608.944 1046.69C608.944 1046.69 606.365 1048.68 604.891 1048.9C603.417 1049.12 596.195 1048.9 596.342 1048.9C596.489 1048.9 596.34 1044.7 596.34 1044.7C596.34 1044.7 598.774 1041.9 600.985 1041.6C603.196 1041.31 607.544 1042.93 607.544 1042.93Z" fill="white"/>
<path d="M637.686 1002.57L651.05 1007.87V1018.49L667.755 1072.53C667.755 1072.53 658.518 1077.44 656.946 1075.48C655.373 1073.51 636.31 1007.48 637.686 1002.57Z" fill="white"/>
<path d="M676.291 1034.16L665.985 1049C665.985 1049 674.805 1056.02 676.291 1068.6C677.777 1081.18 674.436 1083.14 672.765 1083.83C671.095 1084.52 661.072 1083.83 661.072 1083.83C661.072 1083.83 666.182 1089.04 670.554 1089.29C674.926 1089.53 685.883 1087.52 687.504 1077.79C689.126 1068.06 676.291 1034.16 676.291 1034.16Z" fill="white"/>
<path d="M737.324 1031.8L718.163 1025.76L708.73 1044.27L710.793 1051.41L701.949 1051.11L685.644 1004.09L687.646 997.607L670.434 991.563L695.611 1064.82L744.825 1046.54L737.324 1031.8ZM719.784 1044.63C719.244 1043.15 723.518 1037.65 723.518 1037.65L729.021 1038.78L729.217 1042.95C729.217 1042.95 720.325 1046.1 719.784 1044.63Z" fill="white"/>
<path d="M773.485 1015.93L766.017 1013.85L768.768 1004.34L756.387 978.004L756.78 969.946L738.958 964.837L756.584 1002.57C756.584 1002.57 758.28 1008.12 754.422 1010.04C748.305 1013.08 732.804 969.947 732.804 969.947H729.217L722.977 986.259L727.89 988.617L741.843 1017.51L750.49 1019.67L747.345 1023.99V1034.16L753.044 1042.86L780.558 1030.08L773.485 1015.93ZM765.477 1028.19L757.813 1030.18L759.582 1021.78L766.952 1023.55L765.477 1028.19Z" fill="white"/>
<path d="M756.338 955.894C756.338 955.894 767.835 959.874 772.257 960.169V968.422L798.935 1020.01L790.091 1026.94C790.091 1026.94 754.127 960.316 756.338 955.894Z" fill="white"/>
<path d="M275.819 1032.13C275.819 1034.58 273.839 1036.56 271.397 1036.56C268.955 1036.56 266.975 1034.58 266.975 1032.13C266.975 1029.69 268.955 1027.71 271.397 1027.71C273.839 1027.71 275.819 1029.69 275.819 1032.13Z" fill="white"/>
<path d="M287.333 1035.22C287.333 1037.66 285.353 1039.64 282.911 1039.64C280.469 1039.64 278.489 1037.66 278.489 1035.22C278.489 1032.78 280.469 1030.8 282.911 1030.8C285.353 1030.8 287.333 1032.78 287.333 1035.22Z" fill="white"/>
<path d="M379.157 1039.58C381.599 1039.58 383.579 1037.6 383.579 1035.16C383.579 1032.72 381.599 1030.74 379.157 1030.74C376.715 1030.74 374.735 1032.72 374.735 1035.16C374.735 1037.6 376.715 1039.58 379.157 1039.58Z" fill="white"/>
<path d="M379.157 1050.48C381.599 1050.48 383.579 1048.5 383.579 1046.06C383.579 1043.62 381.599 1041.64 379.157 1041.64C376.715 1041.64 374.735 1043.62 374.735 1046.06C374.735 1048.5 376.715 1050.48 379.157 1050.48Z" fill="white"/>
<path d="M672.159 812.314V822.337C672.159 822.337 692.647 888.959 697.069 891.023C701.491 893.087 708.271 896.477 712.545 893.087C716.819 889.697 720.209 884.686 728.611 884.686C737.013 884.686 741.729 893.087 742.024 896.035C742.319 898.983 739.223 912.396 739.076 917.112C738.929 921.829 744.677 933.178 744.824 939.074C744.971 944.97 736.717 962.362 720.946 967.079L720.651 958.53C720.651 958.53 704.143 974.743 700.605 975.923C700.605 975.923 702.079 966.048 700.605 966.048C699.131 966.048 695.299 966.195 690.435 971.207C685.571 976.218 682.918 981.967 680.56 981.819L679.086 975.186C679.086 975.186 671.421 973.417 669.505 967.816C667.589 962.215 664.199 940.843 664.199 940.843C664.199 940.843 655.945 947.328 650.049 948.36C644.153 949.392 631.772 948.213 631.772 948.213C631.772 948.213 653.783 922.567 652.014 903.504C650.245 884.441 624.697 845.922 624.697 845.922L631.575 812.316L661.25 800.917L672.159 812.314Z" fill="black"/>
<path d="M651.819 808.333C651.819 808.333 661.252 817.423 662.235 822.533C663.218 827.643 666.952 844.937 669.703 848.278C672.454 851.619 675.992 862.624 676.287 866.948C676.582 871.271 681.888 873.826 683.264 877.364C684.64 880.902 689.356 894.658 688.374 897.017C687.391 899.375 682.405 896.108 682.405 896.108C682.405 896.108 679.089 893.16 676.288 893.823C673.487 894.486 666.486 899.35 664.054 901.709C661.622 904.067 661.401 898.171 661.401 898.171C661.401 898.171 658.207 890.826 656.537 888.369C654.867 885.912 654.572 880.213 653.786 876.184C653 872.155 643.075 865.965 640.422 859.578C637.769 853.191 629.81 830.492 629.81 830.492V825.186L640.717 812.805L650.543 806.418L651.819 808.333Z" fill="#C7982E"/>
<path d="M710.58 907.334L712.84 915.785L716.672 912.641C716.672 912.641 714.314 930.033 714.707 937.403C715.1 944.773 716.77 951.553 722.077 953.027C727.383 954.501 736.522 951.553 738.585 943.201C740.648 934.849 733.475 923.45 733.868 917.26C734.261 911.07 736.914 893.972 734.359 892.006C731.804 890.041 729.151 889.549 725.515 892.006C721.88 894.461 710.58 907.334 710.58 907.334Z" fill="#C7982E"/>
<path d="M703.112 896.427C703.112 896.427 709.597 907.531 709.106 912.739C708.615 917.947 709.597 934.16 710.58 936.912C711.563 939.663 715.886 947.426 714.511 952.732C713.135 958.038 709.598 961.674 703.113 960.986C696.628 960.298 694.466 949.882 694.466 944.969C694.466 940.056 695.842 925.415 694.466 924.53C693.09 923.646 687.784 928.748 687.784 928.748C687.784 928.748 684.738 929.05 685.917 916.571C687.096 904.092 698.985 895.739 703.112 896.427Z" fill="#C7982E"/>
<path d="M673.338 902.265C673.338 902.265 677.956 899.473 680.511 903.895C683.066 908.317 682.476 921.484 683.066 924.235C683.656 926.986 690.632 942.512 690.829 946.442C691.026 950.373 693.384 958.302 691.91 961.068C690.436 963.834 684.442 969.336 676.286 965.898C671.373 963.441 674.222 924.213 668.621 921.865C663.02 919.517 653.882 939.465 651.425 940.939C648.968 942.413 648.477 940.644 648.477 940.644C648.477 940.644 664.2 904.861 673.338 902.265Z" fill="#C7982E"/>
<path d="M235.89 812.333V822.356C235.89 822.356 215.402 888.978 210.98 891.042C206.558 893.106 199.778 896.496 195.504 893.106C191.23 889.716 187.84 884.705 179.438 884.705C171.036 884.705 166.32 893.106 166.025 896.054C165.73 899.002 168.825 912.415 168.973 917.131C169.12 921.848 163.372 933.198 163.225 939.094C163.078 944.99 171.332 962.382 187.103 967.099L187.398 958.55C187.398 958.55 203.906 974.764 207.444 975.943C207.444 975.943 205.97 966.068 207.444 966.068C208.918 966.068 212.75 966.215 217.614 971.227C222.478 976.238 225.131 981.987 227.489 981.839L228.963 975.205C228.963 975.205 236.628 973.436 238.544 967.835C240.46 962.234 243.85 940.863 243.85 940.863C243.85 940.863 252.104 947.348 258 948.38C263.896 949.412 276.277 948.233 276.277 948.233C276.277 948.233 254.266 922.586 256.035 903.522C257.804 884.459 283.352 845.941 283.352 845.941L276.474 812.334L246.799 800.936L235.89 812.333Z" fill="black"/>
<path d="M256.23 808.353C256.23 808.353 246.797 817.442 245.814 822.552C244.831 827.662 241.097 844.956 238.346 848.297C235.595 851.638 232.057 862.644 231.762 866.968C231.467 871.291 226.161 873.846 224.785 877.384C223.409 880.921 218.693 894.677 219.675 897.036C220.657 899.395 225.644 896.128 225.644 896.128C225.644 896.128 228.96 893.18 231.761 893.843C234.561 894.506 241.563 899.37 243.995 901.729C246.427 904.088 246.648 898.192 246.648 898.192C246.648 898.192 249.841 890.847 251.512 888.39C253.182 885.933 253.477 880.233 254.263 876.204C255.049 872.175 264.974 865.986 267.627 859.599C270.28 853.212 278.239 830.512 278.239 830.512V825.207L267.332 812.826L257.506 806.438L256.23 808.353Z" fill="#C7982E"/>
<path d="M197.469 907.354L195.209 915.805L191.377 912.66C191.377 912.66 193.735 930.053 193.342 937.422C192.949 944.792 191.279 951.572 185.972 953.046C180.666 954.52 171.527 951.572 169.464 943.22C167.4 934.868 174.574 923.469 174.181 917.279C173.788 911.088 171.135 893.991 173.69 892.025C176.245 890.06 178.898 889.568 182.534 892.025C186.169 894.481 197.469 907.354 197.469 907.354Z" fill="#C7982E"/>
<path d="M204.937 896.446C204.937 896.446 198.452 907.55 198.943 912.758C199.434 917.966 198.452 934.179 197.469 936.931C196.486 939.682 192.163 947.445 193.538 952.751C194.914 958.057 198.451 961.693 204.936 961.005C211.421 960.317 213.583 949.901 213.583 944.988C213.583 940.075 212.207 925.434 213.583 924.549C214.959 923.665 220.265 928.767 220.265 928.767C220.265 928.767 223.311 929.069 222.132 916.59C220.954 904.111 209.064 895.759 204.937 896.446Z" fill="#C7982E"/>
<path d="M234.71 902.285C234.71 902.285 230.092 899.493 227.537 903.915C224.982 908.337 225.572 921.504 224.982 924.255C224.392 927.006 217.416 942.532 217.219 946.462C217.022 950.393 214.664 958.322 216.138 961.088C217.612 963.854 223.606 969.356 231.762 965.918C236.675 963.461 233.825 924.233 239.426 921.885C245.027 919.537 254.165 939.485 256.622 940.959C259.078 942.433 259.57 940.663 259.57 940.663C259.57 940.663 243.849 904.881 234.71 902.285Z" fill="#C7982E"/>
<path d="M619.195 918.634C619.195 918.634 619.195 918.634 609.664 902.265C596.693 881.966 559.55 743.628 559.55 743.628L552.966 723.484L536.605 708.548L512.875 705.403L485.361 708.154L454.015 727.119V727.127L422.686 708.173L395.173 705.422L371.442 708.567L355.081 723.503L348.497 743.647C348.497 743.647 311.354 881.984 298.383 902.284C288.852 918.653 288.852 918.653 288.852 918.653C288.852 918.653 302.118 928.185 331.007 922.092C331.007 922.092 326.389 943.612 350.168 947.346C369.231 950.49 376.597 939.834 376.597 939.834C376.597 939.834 385.105 956.703 397.351 958.422C397.799 958.485 398.252 958.528 398.709 958.548C411.68 959.138 419.344 958.155 429.17 946.56C429.17 946.56 445.285 969.16 454.031 969.946V969.925C462.78 969.112 478.874 946.541 478.874 946.541C488.7 958.136 496.365 959.119 509.335 958.529C509.793 958.508 510.245 958.466 510.693 958.403C522.939 956.684 531.447 939.815 531.447 939.815C531.447 939.815 538.813 950.472 557.876 947.327C581.656 943.593 577.037 922.073 577.037 922.073C605.93 928.166 619.195 918.634 619.195 918.634Z" fill="black"/>
<path d="M359.701 727.728L315.188 896.406C315.188 896.406 309.882 909.809 307.523 911.185C307.523 911.185 319.315 913.347 327.372 911.185C335.43 909.023 342.701 901.263 344.273 891.387C345.845 881.51 382.202 714.765 382.202 714.765L359.701 727.728Z" fill="#C7982E"/>
<path d="M391.636 710.925L344.863 921.884C344.863 921.884 344.175 931.623 356.753 931.426C369.331 931.23 371.984 926.316 374.44 918.75C376.896 911.184 408.341 710.924 408.341 710.924L391.636 710.925Z" fill="#C7982E"/>
<path d="M416.005 714.765C416.005 714.765 382.596 911.163 385.74 921.885C388.884 932.607 393.699 941.45 408.34 939.583C422.981 937.716 427.01 914.231 427.01 914.231L437.819 721.243L416.005 714.765Z" fill="#C7982E"/>
<path d="M548.348 727.71L592.861 896.388C592.861 896.388 598.167 909.791 600.526 911.167C600.526 911.167 588.734 913.329 580.677 911.167C572.62 909.005 565.348 901.245 563.776 891.368C562.204 881.491 525.847 714.746 525.847 714.746L548.348 727.71Z" fill="#C7982E"/>
<path d="M516.412 710.907L563.185 921.866C563.185 921.866 563.873 931.605 551.295 931.408C538.717 931.211 536.064 926.298 533.608 918.732C531.151 911.166 499.707 710.906 499.707 710.906L516.412 710.907Z" fill="#C7982E"/>
<path d="M492.043 714.746C492.043 714.746 525.452 911.144 522.308 921.866C519.164 932.588 514.349 941.431 499.708 939.564C485.067 937.697 481.038 914.212 481.038 914.212L470.229 721.224L492.043 714.746Z" fill="#C7982E"/>
<path d="M462.859 731.247L454.015 738.322V738.327L445.189 731.266C445.189 731.266 435.756 922.851 441.062 934.214C446.368 945.577 454.033 949.115 454.033 949.115V949.088C454.218 949.001 461.746 945.419 466.986 934.196C472.293 922.832 462.859 731.247 462.859 731.247Z" fill="#C7982E"/>
<path d="M685.229 817.226C684.003 818.594 678.472 817.721 672.164 816.141C665.738 814.526 658.486 812.179 654.147 810.705C651.907 809.95 650.433 809.431 650.256 809.372C652.001 812.379 647.108 841.787 647.108 841.787C645.528 837.271 630.789 828.427 630.789 828.427C631.06 830.066 631.084 831.823 630.919 833.627C630.459 838.556 628.549 843.909 626.426 848.578C623.183 855.712 619.398 861.242 619.398 861.242C619.398 861.242 611.333 826.068 594.636 796.978C580.003 772.522 569.19 759.387 561.926 752.324C557.846 748.374 554.886 746.334 553 745.296C551.267 744.341 550.418 744.211 550.418 744.211C550.418 744.211 546.668 725.073 526.894 719.567V719.555C524.241 718.812 521.281 718.329 518.015 718.152C515.893 718.046 513.617 718.081 511.211 718.27C507.615 718.588 504.242 719.048 501.082 719.626C498.287 720.133 495.658 720.734 493.182 721.418C483.643 724 476.367 727.715 470.825 731.677C467.783 733.858 465.271 736.111 463.208 738.292C456.192 745.697 454.199 752.395 454.034 752.996V753.079C454.034 753.079 454.022 753.055 454.022 753.044V753.02C453.845 752.419 451.864 745.721 444.848 738.316C442.785 736.135 440.273 733.882 437.231 731.701C431.689 727.739 424.414 724.036 414.886 721.442C412.41 720.758 409.769 720.169 406.974 719.65C403.814 719.072 400.442 718.613 396.845 718.294C394.428 718.105 392.164 718.07 390.029 718.176C386.763 718.353 383.803 718.848 381.15 719.591C361.387 725.098 357.638 744.235 357.638 744.235C357.638 744.235 356.789 744.365 355.056 745.32C353.169 746.358 350.21 748.398 346.13 752.348C338.867 759.411 328.065 772.547 313.42 797.003C296.711 826.093 288.658 861.267 288.658 861.267C288.658 861.267 284.873 855.737 281.63 848.603C279.496 843.945 277.597 838.604 277.126 833.675C276.961 831.859 276.985 830.102 277.256 828.451C277.256 828.451 262.517 837.295 260.948 841.811C260.948 841.811 256.043 812.403 257.788 809.396C257.611 809.455 256.137 809.974 253.897 810.729C249.558 812.203 242.318 814.549 235.891 816.165C229.583 817.745 224.04 818.618 222.826 817.25C222.826 817.25 261.537 649.221 254.852 625.237C254.852 625.237 236.445 646.191 231.281 651.001C230.703 651.544 230.29 651.885 230.09 651.968L227.732 625.237C227.732 625.237 228.852 624.353 230.633 622.619C237.047 616.322 251.976 598.883 252.895 571.786C253.673 547.814 228.133 511.26 255.253 359.928C255.253 359.928 261.538 369.762 261.538 374.078C261.538 378.405 257.211 469.99 263.507 486.498C269.792 503.006 281.583 607.161 271.761 660.612C261.927 714.075 249.157 763.399 249.157 763.399L251.221 779.612L259.18 785.508L271.856 778.433L270.087 789.045L277.457 796.415L290.722 781.086C290.722 781.086 286.595 812.334 289.838 816.166C289.838 816.166 325.212 711.811 377.39 698.84C428.872 686.046 453.375 720.029 454.023 720.925C454.106 720.807 478.573 685.869 530.668 698.816C582.845 711.787 618.22 816.142 618.22 816.142C621.463 812.31 617.336 781.062 617.336 781.062L630.602 796.391L637.972 789.021L636.203 778.409L648.879 785.484L656.838 779.588L658.902 763.375C658.902 763.375 646.12 714.051 636.298 660.6C626.476 607.137 638.267 502.982 644.552 486.474C650.837 469.966 646.521 378.381 646.521 374.066C646.521 369.738 652.806 359.916 652.806 359.916C679.926 511.236 654.374 547.79 655.164 571.762C656.084 598.871 671.012 616.322 677.426 622.607C679.195 624.341 680.315 625.225 680.315 625.225L677.957 651.944C677.757 651.861 677.356 651.531 676.778 651.001C671.649 646.214 653.195 625.225 653.195 625.225C646.518 649.197 685.229 817.226 685.229 817.226Z" fill="black"/>
<path d="M231.763 640.766C231.763 640.766 231.598 644.822 231.28 651.001C230.667 663.04 229.488 683.133 227.931 696.776C225.573 717.411 201.105 734.509 201.105 734.509C202.284 784.328 162.488 802.9 162.488 802.9C164.551 834.737 120.628 861.268 120.628 861.268C109.721 900.77 79.652 908.729 79.652 908.729C79.652 908.729 78.473 939.387 76.115 966.213C73.757 993.039 30.718 1012.5 26.296 1013.67C21.874 1014.85 15.094 1010.43 15.094 1010.43C15.094 1010.43 19.811 995.691 20.695 980.363C21.485 966.673 18.278 822.415 17.582 791.793C17.5 788.138 17.452 786.098 17.452 786.098L21.874 778.728L59.9839 750.134L107.869 712.696L183.983 639.294L197.909 619.119L207.118 605.759L227.718 575.915L227.73 576.056L230.631 622.621L231.763 640.766Z" fill="black"/>
<path d="M73.756 748.953C73.756 748.953 77.569 862.693 76.267 870.994C75.678 874.753 71.698 889.566 71.698 889.566C71.698 889.566 104.429 879.856 106.778 845.502C109.791 801.424 105.594 727.139 105.594 727.139L73.756 748.953Z" fill="#C7982E"/>
<path d="M31.012 779.61C31.012 779.61 34.035 963.916 32.733 972.217C32.144 975.976 28.1641 990.789 28.1641 990.789C28.1641 990.789 60.895 981.079 63.244 946.725C66.257 902.647 59.9821 756.027 59.9821 756.027L31.012 779.61Z" fill="#C7982E"/>
<path d="M117.073 710.777C117.073 710.777 120.694 808.285 120.065 819.407C119.823 823.686 120.065 837.755 120.065 837.755C120.065 837.755 144.379 829.115 147.587 799.186C150.696 770.178 145.39 690.732 145.39 690.732L117.073 710.777Z" fill="#C7982E"/>
<path d="M162.487 672.603V778.727C162.487 778.727 183.359 766.641 183.977 743.353C184.596 720.065 183.977 650.803 183.977 650.803L162.487 672.603Z" fill="#C7982E"/>
<path d="M197.908 616.004V714.765C197.908 714.765 220.387 699.134 221.506 685.869C222.624 672.603 221.506 589.768 221.506 589.768L197.908 616.004Z" fill="#C7982E"/>
<path d="M227.93 585.499C227.293 589.06 224.841 593.34 221.598 597.691C212.872 609.424 198.451 621.699 198.451 621.699C198.286 622.607 198.109 623.491 197.909 624.376C195.173 636.981 189.785 647.546 184.018 655.895C173.842 670.646 162.487 678.499 162.487 678.499C159.303 684.501 152.806 690.986 145.779 696.835C133.256 707.259 119.059 715.642 119.059 715.642C118.611 717.081 118.057 718.495 117.408 719.875C114.849 725.405 110.805 730.511 106.006 735.133C96.419 744.354 83.826 751.629 74.004 756.464C67.873 759.494 62.826 761.558 60.255 762.56C59.076 763.02 58.427 763.256 58.427 763.256C54.418 769.836 42.52 778.066 31.094 784.646C26.295 787.405 21.59 789.87 17.581 791.792C11.461 794.752 6.99202 796.426 6.39102 795.966C4.48102 794.504 13.325 780.201 14.362 772.383C15.282 765.414 13.725 672.804 13.383 653.088C13.348 650.73 13.324 649.409 13.324 649.409L192.638 528.251L200.538 522.909L226.208 505.564L227.717 575.912L227.729 576.053L227.93 585.499Z" fill="black"/>
<path d="M28.5731 640.275C28.5731 640.275 29.433 738.884 28.131 747.185C27.541 750.943 23.562 765.757 23.562 765.757C23.562 765.757 56.293 756.047 58.642 721.693C61.655 677.615 58.642 621.703 58.642 621.703L28.5731 640.275Z" fill="#C7982E"/>
<path d="M73.662 612.243C73.662 612.243 74.436 712.891 73.807 724.012C73.565 728.291 71.698 737.429 71.698 737.429C71.698 737.429 93.489 728.41 99.22 698.86C104.95 669.31 100.685 598.514 100.685 598.514L73.662 612.243Z" fill="#C7982E"/>
<path d="M117.073 590.799C117.073 590.799 119.811 674.483 119.182 685.604C118.94 689.883 117.073 699.022 117.073 699.022C117.073 699.022 138.864 690.003 144.595 660.453C150.325 630.903 145.557 575.913 145.557 575.913L117.073 590.799Z" fill="#C7982E"/>
<path d="M159.245 560.584C159.245 560.584 162.467 632.799 159.835 643.518C157.203 654.236 157.813 658.338 157.813 658.338C157.813 658.338 178.924 648.291 182.662 618.526C186.4 588.761 180.988 546.14 180.988 546.14L159.245 560.584Z" fill="#C7982E"/>
<path d="M195.504 537.885L197.908 603.328C197.908 603.328 220.131 588.589 221.083 573.26C222.035 557.931 221.083 516.366 221.083 516.366L195.504 537.885Z" fill="#C7982E"/>
<path d="M226.209 505.564C226.197 513.311 226.162 518.051 226.162 518.051C224.747 519.737 223.084 521.506 221.21 523.345C214.937 529.547 206.176 536.634 195.74 544.251C191.389 547.435 186.731 550.701 181.85 554.038C174.846 558.837 167.37 563.766 159.576 568.742C155.036 571.643 150.402 574.567 145.685 577.503C136.37 583.281 126.783 589.082 117.209 594.766C111.785 597.985 106.361 601.169 100.996 604.282C91.669 609.706 82.495 614.953 73.722 619.906C68.64 622.783 63.699 625.554 58.935 628.207C47.544 634.563 37.215 640.223 28.607 644.892C22.617 648.135 17.464 650.906 13.384 653.087C6.73397 656.648 2.91296 658.653 2.91296 658.653C2.91296 658.653 8.40795 649.998 12.3459 633.891C15.5529 620.732 13.525 558.98 12.676 536.729C12.476 531.718 12.3459 528.711 12.3459 528.711L215.16 396.481L222.824 379.195C223.531 382.226 224.097 388.357 224.545 396.411C224.569 396.776 224.58 397.142 224.604 397.507C224.639 398.156 224.675 398.816 224.71 399.488C226.185 429.509 226.256 481.745 226.209 505.564Z" fill="black"/>
<path d="M26.885 525.209C26.885 525.209 27.7451 602.691 26.4431 610.992C25.8541 614.751 21.874 629.564 21.874 629.564C21.874 629.564 54.605 619.854 56.954 585.5C59.967 541.422 56.954 506.637 56.954 506.637L26.885 525.209Z" fill="#C7982E"/>
<path d="M69.566 500.741C69.566 500.741 72.028 577.235 69.566 589.767C68.523 595.073 67.05 603.327 67.05 603.327C67.05 603.327 92.855 594.792 99.635 561.032C106.415 527.272 99.635 482.169 99.635 482.169L69.566 500.741Z" fill="#C7982E"/>
<path d="M116.304 473.916C116.304 473.916 115.996 551.374 115.367 562.495C115.125 566.774 113.258 575.913 113.258 575.913C113.258 575.913 135.049 566.894 140.78 537.344C146.51 507.794 143.327 460.188 143.327 460.188L116.304 473.916Z" fill="#C7982E"/>
<path d="M157.574 448.76C157.574 448.76 159.835 528.973 157.202 539.691C154.57 550.409 154.033 553.277 154.033 553.277C154.033 553.277 175.143 543.23 178.882 513.465C182.621 483.7 180.241 433.628 180.241 433.628L157.574 448.76Z" fill="#C7982E"/>
<path d="M196.083 424.19C196.083 424.19 198.344 504.403 195.711 515.121C193.079 525.839 192.542 528.707 192.542 528.707C192.542 528.707 216.925 514.204 219.496 493.453C223.185 463.682 219.283 400.416 219.283 400.416L196.083 424.19Z" fill="#C7982E"/>
<path d="M892.961 1010.41C892.961 1010.41 886.181 1014.83 881.759 1013.65C877.337 1012.47 834.298 993.014 831.94 966.188C829.582 939.362 828.403 908.704 828.403 908.704C828.403 908.704 798.335 900.745 787.427 861.243C787.427 861.243 743.504 834.712 745.567 802.875C745.567 802.875 705.771 784.303 706.95 734.484C706.95 734.484 682.483 717.386 680.124 696.751C678.568 683.12 677.388 663.039 676.775 651C676.457 644.81 676.291 640.741 676.291 640.741L677.423 622.606L680.324 575.9L700.924 605.721L710.145 619.092L724.071 639.267L800.185 712.669L848.07 750.107L886.18 778.701L890.602 786.071C890.602 786.071 890.555 788.111 890.472 791.778C889.776 822.436 886.569 966.646 887.359 980.336C888.244 995.666 892.961 1010.41 892.961 1010.41Z" fill="black"/>
<path d="M834.292 748.933C834.292 748.933 830.479 862.673 831.781 870.974C832.371 874.733 836.35 889.546 836.35 889.546C836.35 889.546 803.619 879.836 801.27 845.482C798.257 801.404 802.454 727.119 802.454 727.119L834.292 748.933Z" fill="#C7982E"/>
<path d="M877.037 779.591C877.037 779.591 874.014 963.897 875.316 972.198C875.906 975.957 879.885 990.77 879.885 990.77C879.885 990.77 847.154 981.06 844.805 946.706C841.792 902.628 848.067 756.008 848.067 756.008L877.037 779.591Z" fill="#C7982E"/>
<path d="M790.975 710.758C790.975 710.758 787.354 808.266 787.983 819.387C788.225 823.666 787.983 837.735 787.983 837.735C787.983 837.735 763.669 829.095 760.461 799.166C757.352 770.158 762.658 690.712 762.658 690.712L790.975 710.758Z" fill="#C7982E"/>
<path d="M745.561 672.583V778.707C745.561 778.707 724.689 766.621 724.071 743.332C723.453 720.043 724.071 650.783 724.071 650.783L745.561 672.583Z" fill="#C7982E"/>
<path d="M710.141 615.984V714.745C710.141 714.745 687.662 699.114 686.543 685.849C685.425 672.583 686.543 589.748 686.543 589.748L710.141 615.984Z" fill="#C7982E"/>
<path d="M901.651 795.954C901.062 796.414 896.593 794.728 890.473 791.78C886.476 789.858 881.759 787.382 876.96 784.622C865.534 778.054 853.625 769.812 849.627 763.232C849.627 763.232 848.978 762.996 847.799 762.536C845.229 761.534 840.182 759.47 834.05 756.44C824.228 751.605 811.634 744.33 802.048 735.109C797.249 730.487 793.204 725.381 790.646 719.851C789.997 718.471 789.443 717.056 788.995 715.618C788.995 715.618 774.798 707.234 762.275 696.811C755.247 690.962 748.75 684.477 745.566 678.475C745.566 678.475 734.211 670.634 724.023 655.883C718.257 647.534 712.868 636.969 710.144 624.364C709.943 623.48 709.767 622.595 709.602 621.687C709.602 621.687 695.169 609.412 686.443 597.668C683.212 593.305 680.76 589.025 680.123 585.476L680.324 575.901L681.833 505.541L681.845 505.553L707.562 522.934L715.415 528.228L894.729 649.398C894.729 649.398 894.706 650.707 894.658 653.065C894.328 672.769 892.771 765.391 893.691 772.372C894.729 780.177 903.573 794.48 901.651 795.954Z" fill="black"/>
<path d="M879.475 640.256C879.475 640.256 878.615 738.865 879.917 747.166C880.507 750.924 884.486 765.738 884.486 765.738C884.486 765.738 851.755 756.028 849.406 721.674C846.393 677.596 849.406 621.684 849.406 621.684L879.475 640.256Z" fill="#C7982E"/>
<path d="M834.387 612.223C834.387 612.223 833.613 712.871 834.242 723.992C834.484 728.271 836.351 737.409 836.351 737.409C836.351 737.409 814.56 728.39 808.829 698.84C803.099 669.29 807.364 598.494 807.364 598.494L834.387 612.223Z" fill="#C7982E"/>
<path d="M790.975 590.781C790.975 590.781 788.237 674.464 788.866 685.586C789.108 689.865 790.975 699.003 790.975 699.003C790.975 699.003 769.184 689.984 763.453 660.434C757.723 630.884 762.491 575.894 762.491 575.894L790.975 590.781Z" fill="#C7982E"/>
<path d="M748.804 560.565C748.804 560.565 745.582 632.78 748.214 643.499C750.846 654.217 750.236 658.319 750.236 658.319C750.236 658.319 729.126 648.272 725.387 618.507C721.649 588.742 727.061 546.121 727.061 546.121L748.804 560.565Z" fill="#C7982E"/>
<path d="M712.545 537.866L710.141 603.309C710.141 603.309 687.918 588.57 686.966 573.241C686.014 557.912 686.966 516.347 686.966 516.347L712.545 537.866Z" fill="#C7982E"/>
<path d="M905.141 658.63C905.141 658.63 901.321 656.625 894.658 653.065C890.578 650.884 885.425 648.113 879.423 644.858C870.827 640.189 860.486 634.529 849.107 628.173C844.343 625.532 839.403 622.761 834.332 619.884C825.559 614.932 816.385 609.684 807.058 604.26C801.693 601.147 796.269 597.963 790.845 594.744C781.258 589.06 771.672 583.259 762.357 577.47C757.652 574.546 753.006 571.621 748.478 568.72C740.684 563.744 733.208 558.815 726.204 554.016C721.322 550.679 716.665 547.413 712.314 544.229C701.867 536.6 693.106 529.513 686.821 523.311C684.946 521.471 683.295 519.703 681.892 518.028C681.892 518.028 681.857 513.288 681.845 505.553C681.786 481.734 681.857 429.486 683.342 399.465C683.377 398.793 683.413 398.133 683.436 397.484C683.46 397.107 683.483 396.718 683.507 396.352C683.955 388.31 684.521 382.202 685.229 379.172L692.894 396.47L895.708 528.688C895.708 528.688 895.578 531.695 895.378 536.706C894.529 558.957 892.501 620.709 895.708 633.868C899.635 649.987 905.141 658.63 905.141 658.63Z" fill="black"/>
<path d="M881.164 525.189C881.164 525.189 880.304 602.671 881.606 610.972C882.196 614.73 886.175 629.544 886.175 629.544C886.175 629.544 853.444 619.834 851.095 585.48C848.082 541.402 851.095 506.617 851.095 506.617L881.164 525.189Z" fill="#C7982E"/>
<path d="M838.482 500.722C838.482 500.722 836.02 577.216 838.482 589.748C839.524 595.054 840.998 603.308 840.998 603.308C840.998 603.308 815.193 594.773 808.413 561.012C801.633 527.252 808.413 482.149 808.413 482.149L838.482 500.722Z" fill="#C7982E"/>
<path d="M791.745 473.897C791.745 473.897 792.053 551.355 792.682 562.476C792.924 566.755 794.791 575.893 794.791 575.893C794.791 575.893 773 566.874 767.269 537.324C761.539 507.774 764.722 460.168 764.722 460.168L791.745 473.897Z" fill="#C7982E"/>
<path d="M750.474 448.741C750.474 448.741 748.213 528.954 750.846 539.672C753.478 550.39 754.015 553.258 754.015 553.258C754.015 553.258 732.904 543.211 729.166 513.446C725.428 483.681 727.807 433.609 727.807 433.609L750.474 448.741Z" fill="#C7982E"/>
<path d="M711.966 424.171C711.966 424.171 709.705 504.384 712.338 515.102C714.97 525.82 715.507 528.688 715.507 528.688C715.507 528.688 691.124 514.184 688.553 493.434C684.863 463.663 688.766 400.396 688.766 400.396L711.966 424.171Z" fill="#C7982E"/>
<path d="M895.378 536.706C888.645 533.487 881.759 529.313 881.759 529.313C881.759 529.313 881.547 529.195 881.122 528.971C878.363 527.462 866.76 521.106 850.712 512.121C846.832 509.952 842.694 507.617 838.354 505.176C828.862 499.811 818.426 493.856 807.696 487.642C802.425 484.6 797.084 481.487 791.754 478.35C782.568 472.949 773.383 467.466 764.61 462.113C759.705 459.118 754.929 456.158 750.354 453.269C742.006 448.022 734.294 443.01 727.62 438.423C721.335 434.119 715.982 430.193 711.89 426.832C711.843 426.797 711.807 426.761 711.76 426.726C699.721 416.798 692.599 410.241 688.46 405.902C685.382 402.695 683.944 400.702 683.342 399.464C682.599 397.931 683.142 397.566 683.436 397.483C683.542 397.448 683.636 397.448 683.66 397.448C683.66 397.448 683.601 397.059 683.507 396.352C682.41 388.57 676.102 341.628 681.691 330.826L685.228 331.215C685.228 331.215 684.638 378.971 714.117 406.681C714.117 406.681 710.19 353.619 716.676 342.028C716.676 342.028 716.275 406.091 754.208 431.844C754.208 431.844 750.281 352.05 752.828 347.535C752.828 347.535 769.147 449.331 796.268 454.637C796.268 454.637 791.74 361.095 795.478 359.916C799.216 358.737 803.932 377.202 803.932 377.202C803.932 377.202 807.859 393.71 809.038 434.981C810.017 469.377 841.465 481.758 841.465 481.758C841.465 481.758 842.444 377.993 840.875 374.455C839.307 370.918 854.824 389.194 854.435 398.828C854.046 408.45 852.867 456.406 855.815 466.04C858.763 475.662 863.668 498.266 887.652 508.289C887.652 508.289 882.346 490.401 884.409 454.142C886.472 417.883 890.305 323.846 886.472 312.349C882.64 300.852 863.184 258.108 840.19 233.935C817.196 209.762 801.49 187.972 775.844 185.024C775.679 185.012 775.502 185.012 775.325 185.012C766.564 185.012 750.138 197.228 729.208 208.277C728.111 208.878 726.673 209.621 724.987 210.447C712.099 216.932 697.678 222.651 682.384 224.762C671.371 227.026 659.19 228.453 646.526 228.064C607.909 226.885 589.632 200.354 580.788 189.447C571.944 178.54 561.922 152.598 538.315 105.432C514.708 58.266 462.873 36.746 462.873 36.746C475.089 33.102 498.778 44.682 499.415 44.988C469.193 3.883 414.964 11.547 393.303 16.11C371.642 20.673 346.625 39.937 346.625 39.937L347.411 27.996C347.411 27.996 368.541 11.394 384.366 6.97201C413.149 -0.98699 441.06 -5.70399 482.625 13.162C524.19 32.029 547.184 84.796 577.252 147.291C607.32 209.786 627.366 215.682 650.206 213.182C695.32 208.748 719.835 188.856 719.835 188.856C761.884 168.421 765.904 163.481 779.17 165.544C792.436 167.608 816.019 172.914 846.087 207.699C876.155 242.484 899.149 293.188 899.738 308.517C900.328 323.846 897.38 500.719 897.38 500.719C897.38 500.719 900.328 523.418 907.108 536.094C910.754 542.896 903.172 540.443 895.378 536.706Z" fill="black"/>
<path d="M393.035 182.064H393.023C383 198.938 351.151 220.245 329.042 225.704C303.985 231.895 255.345 223.051 255.345 223.051C209.063 220.398 148.632 177.948 133.597 178.833C107.95 181.781 90.8529 209.786 67.8589 233.958C44.8659 258.131 25.4099 300.875 21.5769 312.372C17.7449 323.869 21.577 417.906 23.641 454.165C25.705 490.424 20.3979 508.312 20.3979 508.312C44.3699 498.289 49.287 475.685 52.235 466.051C55.183 456.429 54.004 408.473 53.615 398.839C53.214 389.217 68.743 370.94 67.175 374.478C65.595 378.016 66.5849 481.781 66.5849 481.781C66.5849 481.781 98.0209 469.4 99.0119 435.004C100.191 393.734 104.118 377.225 104.118 377.225C104.118 377.225 108.835 358.748 112.573 359.927C116.299 361.106 111.783 454.66 111.783 454.66C138.903 449.354 155.211 347.546 155.211 347.546C157.77 352.074 153.843 431.855 153.843 431.855C191.765 406.114 191.375 342.051 191.375 342.051C197.86 353.642 193.934 406.704 193.934 406.704C223.413 378.994 222.823 331.238 222.823 331.238L226.36 330.849C231.949 341.674 225.617 388.734 224.544 396.41C224.45 397.094 224.391 397.471 224.391 397.471C224.415 397.471 224.497 397.471 224.603 397.506C224.898 397.577 225.464 397.942 224.709 399.487C224.108 400.725 222.669 402.718 219.603 405.925C215.452 410.264 208.33 416.82 196.291 426.749C196.244 426.784 196.197 426.82 196.15 426.867C192.07 430.216 186.717 434.142 180.432 438.446C173.758 443.033 166.046 448.044 157.686 453.303C153.111 456.18 148.335 459.14 143.442 462.135C134.657 467.488 125.472 472.971 116.274 478.384C110.944 481.52 105.615 484.622 100.355 487.664C89.613 493.878 79.1779 499.833 69.6969 505.198C65.3579 507.639 61.219 509.974 57.339 512.143C41.267 521.14 29.664 527.496 26.917 528.993C26.504 529.217 26.292 529.335 26.292 529.335C26.292 529.335 19.406 533.509 12.673 536.728C4.87895 540.466 -2.70304 542.919 0.94096 536.115C7.72096 523.439 10.669 500.74 10.669 500.74C10.669 500.74 7.72096 323.867 8.31096 308.538C8.89996 293.209 31.894 242.506 61.962 207.72C92.03 172.935 115.614 167.629 128.879 165.565C142.145 163.502 147.156 164.586 189.216 185.021C231.265 205.456 244.636 210.172 299.656 213.321C340.36 215.644 361.915 194.431 370.382 183.229C371.384 181.743 387.291 157.818 379.155 141.534C372.056 127.349 355.619 110.44 350.667 105.511C349.759 104.603 349.24 104.108 349.24 104.108L357.895 98.5193L359.841 97.2693L371.066 90.0293C371.066 90.0293 371.078 90.0293 371.113 90.0533C371.113 90.0533 371.113 90.0653 371.125 90.0533C372.375 90.5013 392.491 98.0593 399.201 116.336C406.124 135.204 406.336 166.888 393.035 182.064Z" fill="black"/>
<path d="M884.412 454.141C886.475 417.882 890.308 323.845 886.475 312.348C882.643 300.851 863.187 258.107 840.193 233.934C817.199 209.761 801.493 187.971 775.847 185.023C775.682 185.011 775.505 185.011 775.328 185.011C766.567 185.011 750.141 197.227 729.211 208.276C728.114 208.877 726.676 209.62 724.99 210.446C712.102 216.931 697.681 222.65 682.387 224.761C671.374 227.025 659.193 228.452 646.529 228.063C607.912 226.884 589.635 200.353 580.791 189.446C571.947 178.539 561.925 152.597 538.318 105.431C514.711 58.2654 462.876 36.7454 462.876 36.7454C475.092 33.1014 498.781 44.6814 499.418 44.9874C469.196 3.88242 414.967 11.5464 393.306 16.1094C371.645 20.6724 348.593 38.3124 348.593 38.3124L347.451 39.3174C347.451 39.3174 343.994 74.4184 371.067 90.0304C371.079 90.0424 371.091 90.0544 371.114 90.0544C371.114 90.0544 371.114 90.0664 371.126 90.0544C372.376 90.5024 392.492 98.0604 399.202 116.337C406.124 135.203 406.336 166.887 393.035 182.063H393.023C383 198.937 351.151 220.244 329.042 225.703C303.985 231.894 255.345 223.05 255.345 223.05C209.063 220.397 148.632 177.947 133.597 178.832C107.95 181.78 90.8529 209.785 67.8589 233.957C44.8659 258.13 25.4099 300.874 21.5769 312.371C17.7449 323.868 21.5769 417.905 23.6409 454.164C25.7049 490.423 20.3979 508.311 20.3979 508.311C44.3699 498.288 49.2869 475.684 52.2349 466.05C55.1829 456.428 54.0039 408.472 53.6149 398.838C53.2139 389.216 68.7429 370.939 67.1749 374.477C65.5949 378.015 66.5849 481.78 66.5849 481.78C66.5849 481.78 98.0209 469.399 99.0119 435.003C100.191 393.733 104.118 377.224 104.118 377.224C104.118 377.224 108.835 358.747 112.573 359.926C116.299 361.105 111.783 454.659 111.783 454.659C138.903 449.353 155.211 347.545 155.211 347.545C157.77 352.073 153.843 431.854 153.843 431.854C191.765 406.113 191.375 342.05 191.375 342.05C197.86 353.641 193.934 406.703 193.934 406.703C223.413 378.993 222.823 331.237 222.823 331.237L226.36 330.848C231.949 341.673 225.617 388.733 224.544 396.409C224.568 396.774 224.579 397.14 224.603 397.505C224.898 397.576 225.464 397.941 224.709 399.486C226.183 429.507 226.254 481.744 226.206 505.562L227.715 575.91L227.727 576.051L230.628 622.616C237.042 616.319 251.971 598.88 252.89 571.783C253.668 547.811 228.128 511.257 255.248 359.925C255.248 359.925 261.533 369.759 261.533 374.075C261.533 378.402 257.206 469.987 263.502 486.495C269.787 503.003 281.578 607.158 271.756 660.609C261.922 714.072 249.152 763.396 249.152 763.396L251.216 779.609L259.175 785.505L271.851 778.43L270.082 789.042L277.452 796.412L290.717 781.083C290.717 781.083 286.59 812.331 289.833 816.163C289.833 816.163 325.207 711.808 377.385 698.837C428.867 686.043 453.37 720.026 454.018 720.922C454.101 720.804 478.568 685.866 530.663 698.813C582.84 711.784 618.215 816.139 618.215 816.139C621.458 812.307 617.331 781.059 617.331 781.059L630.597 796.388L637.967 789.018L636.198 778.406L648.874 785.481L656.833 779.585L658.897 763.372C658.897 763.372 646.115 714.048 636.293 660.597C626.471 607.134 638.262 502.979 644.547 486.471C650.832 469.963 646.516 378.378 646.516 374.063C646.516 369.735 652.801 359.913 652.801 359.913C679.921 511.233 654.369 547.787 655.159 571.759C656.079 598.868 671.007 616.319 677.421 622.604L680.322 575.898L681.831 505.538L681.843 505.55C681.784 481.731 681.855 429.483 683.34 399.462C682.597 397.929 683.14 397.564 683.434 397.481C683.458 397.104 683.481 396.715 683.505 396.349C682.408 388.567 676.1 341.625 681.689 330.823L685.226 331.212C685.226 331.212 684.636 378.968 714.115 406.678C714.115 406.678 710.188 353.616 716.674 342.025C716.674 342.025 716.273 406.088 754.206 431.841C754.206 431.841 750.279 352.047 752.826 347.532C752.826 347.532 769.145 449.328 796.266 454.634C796.266 454.634 791.738 361.092 795.476 359.913C799.214 358.734 803.93 377.199 803.93 377.199C803.93 377.199 807.857 393.707 809.036 434.978C810.015 469.374 841.463 481.755 841.463 481.755C841.463 481.755 842.442 377.99 840.873 374.452C839.305 370.915 854.822 389.191 854.433 398.825C854.044 408.447 852.865 456.403 855.813 466.037C858.761 475.659 863.666 498.263 887.65 508.286C887.654 508.288 882.348 490.4 884.412 454.141ZM408.199 38.1954C407.456 40.1294 406.572 52.9584 405.393 55.4584C404.827 56.6614 397.363 60.9174 386.715 62.3214C385.394 62.4864 395.594 63.3594 394.533 64.0424C391.774 65.8464 389.368 67.2734 388.59 67.5564C386.527 68.2874 376.952 68.2874 374.735 43.3834C374.735 43.3834 365.644 42.4874 360.68 44.7044C360.68 44.7044 361.47 38.2194 367.802 35.5664C374.146 32.9134 409.969 30.1064 417.633 32.7714C421.606 34.0924 408.93 36.2614 408.199 38.1954Z" fill="#C7982E"/>
<path d="M408.199 38.1957C407.456 40.1297 406.572 52.9587 405.393 55.4587C404.827 56.6617 397.363 60.9177 386.715 62.3217C385.394 62.4867 395.594 63.3597 394.533 64.0427C391.774 65.8467 389.368 67.2737 388.59 67.5567C386.527 68.2877 376.952 68.2877 374.735 43.3837C374.735 43.3837 365.644 42.4877 360.68 44.7047C360.68 44.7047 361.47 38.2197 367.802 35.5667C374.146 32.9137 409.969 30.1067 417.633 32.7717C421.606 34.0927 408.93 36.2617 408.199 38.1957Z" fill="#050505"/>
<path d="M384.371 45.1879C383.87 45.1879 383.372 44.9769 383.024 44.5669C382.396 43.8279 382.474 42.7269 383.206 42.0919C383.409 41.9149 388.265 37.8139 395.337 41.4089C396.207 41.8509 396.555 42.9149 396.113 43.7869C395.67 44.6579 394.604 45.0069 393.735 44.5619C388.844 42.0769 385.645 44.6649 385.511 44.7749C385.178 45.0519 384.773 45.1879 384.371 45.1879Z" fill="white"/>
<path d="M374.735 91.8701C374.735 91.8701 372.931 100.89 350.669 105.513C347.473 106.185 343.842 106.751 339.75 107.199C323.737 109.357 317.547 105.925 317.547 105.925C317.547 105.925 312.925 114.368 315.483 118.79C315.483 118.79 300.543 111.326 302.807 86.4691C304.187 67.6971 319.516 58.3581 324.032 55.5161C328.548 52.6631 342.698 29.5751 347.415 27.9951C347.415 27.9951 343.995 74.4181 371.069 90.0301C371.081 90.0421 371.093 90.0541 371.116 90.0541C371.116 90.0541 371.116 90.0661 371.128 90.0541C372.27 90.7261 373.473 91.3281 374.735 91.8701Z" fill="black"/>
<path d="M344.47 41.1667C344.47 41.1667 345.649 78.4087 360.88 88.6277C360.88 88.6277 364.614 93.0497 350.366 86.7607C338.655 81.3567 316.563 94.6467 314.205 91.3787C312.377 88.8457 310.275 78.9977 314.107 72.4137C317.939 65.8297 326.39 61.5067 332.187 55.4137C337.985 49.3217 341.329 40.6137 344.47 41.1667Z" fill="white"/>
<path d="M339.311 61.8516H330.271L329.632 70.3516L339.311 66.1016V61.8516Z" fill="black"/>
<path d="M348.243 90.0064C345.08 88.9324 341.618 89.0984 338.556 90.4324C332.964 92.8674 324.25 97.0034 324.719 98.9464C325.407 101.796 348.793 96.4894 360.683 98.9464C360.683 98.9464 359.688 93.8944 348.243 90.0064Z" fill="white"/>
<path d="M454.027 266.175C348.603 266.175 263.139 351.638 263.139 457.063C263.139 562.487 348.602 647.951 454.027 647.951C559.451 647.951 644.915 562.488 644.915 457.063C644.915 351.638 559.452 266.175 454.027 266.175ZM454.027 636.886C354.713 636.886 274.203 556.376 274.203 457.062C274.203 357.748 354.713 277.238 454.027 277.238C553.341 277.238 633.851 357.748 633.851 457.062C633.851 556.376 553.341 636.886 454.027 636.886Z" fill="black"/>
<path d="M454.027 640.828C555.518 640.828 637.793 558.553 637.793 457.062C637.793 355.571 555.518 273.296 454.027 273.296C352.536 273.296 270.261 355.571 270.261 457.062C270.261 558.553 352.536 640.828 454.027 640.828Z" fill="white"/>
<path d="M446.355 270.136L433.944 261.118H449.286L454.027 246.527L458.768 261.118H474.111L461.699 270.136L466.439 284.728L454.027 275.709L441.614 284.729L446.355 270.136Z" fill="white"/>
<path d="M479.554 259.35H460.052L454.027 240.804L448.001 259.351H428.499L444.277 270.813L438.25 289.36L454.027 277.897L469.804 289.359L463.778 270.812L479.554 259.35ZM456.107 275.036L454.027 273.525L451.948 275.036L444.979 280.099L447.641 271.906L448.435 269.462L446.356 267.951L439.387 262.888H448.001H450.571L451.365 260.444L454.026 252.251L456.688 260.444L457.482 262.888H460.052H468.666L461.697 267.951L459.618 269.462L460.412 271.906L463.074 280.099L456.107 275.036Z" fill="#231F20"/>
<path d="M303.099 346.513L288.31 350.595L297.876 338.6L289.425 325.795L303.788 331.186L313.354 319.191L312.665 334.517L327.03 339.909L312.24 343.99L311.553 359.318L303.099 346.513Z" fill="white"/>
<path d="M273.495 506.137L267.465 520.244L264.051 505.286L248.771 503.911L261.941 496.042L258.527 481.084L270.081 491.178L283.252 483.309L277.221 497.417L288.777 507.512L273.495 506.137Z" fill="white"/>
<path d="M379.835 628.805L387.105 642.314L373.282 635.658L362.68 646.746L364.739 631.543L350.916 624.886L366.011 622.147L368.071 606.944L375.341 620.455L390.438 617.714L379.835 628.805Z" fill="white"/>
<path d="M542.043 622.147L557.138 624.886L543.316 631.543L545.375 646.746L534.772 635.657L520.949 642.314L528.22 628.805L517.617 617.715L532.713 620.455L539.983 606.942L542.043 622.147Z" fill="white"/>
<path d="M637.974 491.178L649.527 481.084L646.113 496.041L659.283 503.911L644.003 505.286L640.589 520.244L634.559 506.137L619.278 507.511L630.833 497.417L624.801 483.309L637.974 491.178Z" fill="white"/>
<path d="M595.388 334.518L594.7 319.192L604.266 331.187L618.63 325.796L610.178 338.6L619.744 350.596L604.955 346.514L596.502 359.318L595.814 343.991L581.023 339.91L595.388 334.518Z" fill="white"/>
<path d="M315.366 313.833L303.207 329.08L284.949 322.228L295.693 338.503L283.534 353.75L302.333 348.562L313.076 364.837L313.951 345.355L332.749 340.167L314.492 333.314L315.366 313.833ZM321.312 339.653L313.008 341.945L310.531 342.628L310.416 345.196L310.03 353.802L305.285 346.613L303.869 344.468L301.392 345.151L293.088 347.443L298.459 340.708L300.061 338.699L298.644 336.554L293.899 329.365L301.964 332.391L304.37 333.294L305.972 331.285L311.343 324.551L310.957 333.156L310.842 335.724L313.248 336.627L321.312 339.653Z" fill="#231F20"/>
<path d="M287.018 478.999L270.278 489.001L255.592 476.171L259.931 495.183L243.19 505.185L262.613 506.933L266.952 525.945L274.617 508.013L294.039 509.761L279.354 496.93L287.018 478.999ZM283.513 505.262L274.934 504.489L272.374 504.259L271.364 506.622L267.979 514.543L266.062 506.144L265.49 503.639L262.93 503.409L254.35 502.636L261.745 498.218L263.951 496.9L263.379 494.394L261.462 485.996L267.949 491.663L269.884 493.354L272.09 492.036L279.484 487.617L276.099 495.538L275.089 497.901L277.025 499.592L283.513 505.262Z" fill="#231F20"/>
<path d="M376.29 618.485L367.049 601.312L364.431 620.636L345.243 624.119L362.813 632.581L360.195 651.906L373.671 637.81L391.241 646.271L382 629.097L395.476 615.003L376.29 618.485ZM378.887 630.774L382.969 638.36L375.208 634.623L372.892 633.508L371.116 635.367L365.163 641.593L366.319 633.057L366.664 630.51L364.348 629.393L356.587 625.656L365.063 624.119L367.592 623.659L367.937 621.112L369.093 612.576L373.175 620.162L374.393 622.425L376.922 621.966L385.397 620.429L379.444 626.654L377.668 628.513L378.887 630.774Z" fill="#231F20"/>
<path d="M543.623 620.637L541.005 601.312L531.763 618.484L512.575 615.003L526.052 629.099L516.811 646.272L534.381 637.811L547.857 651.906L545.239 632.582L562.809 624.12L543.623 620.637ZM543.706 629.393L541.39 630.508L541.735 633.055L542.891 641.591L536.938 635.365L535.162 633.508L532.846 634.622L525.085 638.359L529.167 630.773L530.385 628.51L528.609 626.653L522.656 620.427L531.131 621.965L533.66 622.424L534.878 620.161L538.96 612.575L540.116 621.111L540.461 623.658L542.99 624.117L551.466 625.655L543.706 629.393Z" fill="#231F20"/>
<path d="M648.123 495.182L652.462 476.17L637.776 489.001L621.035 478.999L628.7 496.931L614.014 509.762L633.437 508.014L641.101 525.946L645.44 506.934L664.863 505.186L648.123 495.182ZM645.124 503.409L642.564 503.639L641.992 506.145L640.075 514.543L636.689 506.622L635.679 504.258L633.119 504.489L624.54 505.261L631.026 499.593L632.962 497.902L631.952 495.539L628.566 487.618L635.961 492.036L638.168 493.354L640.104 491.664L646.591 485.996L644.674 494.394L644.102 496.9L646.308 498.218L653.703 502.637L645.124 503.409Z" fill="#231F20"/>
<path d="M612.362 338.502L623.105 322.227L604.847 329.08L592.688 313.833L593.563 333.315L575.306 340.167L594.104 345.355L594.979 364.837L605.722 348.561L624.52 353.749L612.362 338.502ZM604.186 344.467L602.77 346.612L598.024 353.801L597.638 345.196L597.523 342.628L595.046 341.944L586.742 339.653L594.807 336.626L597.213 335.723L597.097 333.156L596.711 324.55L602.082 331.285L603.685 333.294L606.091 332.391L614.156 329.364L609.41 336.553L607.994 338.698L609.596 340.707L614.967 347.442L606.663 345.151L604.186 344.467Z" fill="#231F20"/>
<mask id="mask0_384_1135" style="mask-type:luminance" maskUnits="userSpaceOnUse" x="293" y="295" width="322" height="322">
<path d="M454.027 616.439C542.554 616.439 614.32 544.673 614.32 456.146C614.32 367.618 542.554 295.853 454.027 295.853C365.5 295.853 293.734 367.618 293.734 456.146C293.734 544.673 365.5 616.439 454.027 616.439Z" fill="white"/>
</mask>
<g mask="url(#mask0_384_1135)">
<path d="M395.862 384.242L625.167 402.323L619.438 528.675L381.858 533.602L395.862 384.242Z" fill="white"/>
</g>
<mask id="mask1_384_1135" style="mask-type:luminance" maskUnits="userSpaceOnUse" x="293" y="295" width="322" height="322">
<path d="M454.027 616.439C542.554 616.439 614.32 544.673 614.32 456.146C614.32 367.618 542.554 295.853 454.027 295.853C365.5 295.853 293.734 367.618 293.734 456.146C293.734 544.673 365.5 616.439 454.027 616.439Z" fill="white"/>
</mask>
<g mask="url(#mask1_384_1135)">
<path d="M404.262 394.07C404.262 394.07 556.373 391.712 613.365 413.723L619.438 403.86L562.562 316.564L490.734 296.987L408.586 292.091L404.262 394.07Z" fill="#269344"/>
</g>
<mask id="mask2_384_1135" style="mask-type:luminance" maskUnits="userSpaceOnUse" x="293" y="295" width="322" height="322">
<path d="M454.027 616.439C542.554 616.439 614.32 544.673 614.32 456.146C614.32 367.618 542.554 295.853 454.027 295.853C365.5 295.853 293.734 367.618 293.734 456.146C293.734 544.673 365.5 616.439 454.027 616.439Z" fill="white"/>
</mask>
<g mask="url(#mask2_384_1135)">
<path d="M404.262 517.274C404.262 517.274 523.356 533.603 612.186 513.557L600.394 554.827L562.561 586.271L508.223 619.68L424.896 625.969L409.763 620.466L404.262 517.274Z" fill="#1E1A17"/>
</g>
<mask id="mask3_384_1135" style="mask-type:luminance" maskUnits="userSpaceOnUse" x="293" y="295" width="322" height="322">
<path d="M454.027 616.439C542.554 616.439 614.32 544.673 614.32 456.146C614.32 367.618 542.554 295.853 454.027 295.853C365.5 295.853 293.734 367.618 293.734 456.146C293.734 544.673 365.5 616.439 454.027 616.439Z" fill="white"/>
</mask>
<g mask="url(#mask3_384_1135)">
<path d="M418.805 296.985C418.805 296.985 388.344 511.095 424.897 615.305L344.715 589.373L303.445 528.674L293.734 435.339L308.162 382.867L362.012 316.563L418.805 296.985Z" fill="#D22010"/>
</g>
</svg>
