<svg width="21" height="21" viewBox="0 0 21 21" fill="none" xmlns="http://www.w3.org/2000/svg">
<path d="M7.93451 1.29785C10.978 1.29785 15.628 2.9008 15.628 6.55871C15.628 9.72829 11.9939 11.4146 9.2794 11.7398V13.1519C11.0056 12.9555 12.604 12.3763 13.6115 11.4141C14.0685 10.9792 14.7299 11.674 14.2727 12.1092C12.6935 13.6177 10.1122 14.1893 7.93474 14.1893C5.6381 14.1893 2.74297 13.5429 1.20958 11.6952C1.36104 14.1677 4.10519 15.2508 6.20882 15.5648C6.8339 15.6562 6.69502 16.607 6.0697 16.5156C4.32123 16.2545 2.37404 15.5577 1.20934 14.1578C1.26584 15.0988 1.70504 15.868 2.41132 16.4805C2.88755 16.8926 2.26009 17.6181 1.78362 17.2058C0.806231 16.358 0.241211 15.2531 0.241211 13.9486C0.241211 12.3065 0.241211 10.6641 0.241211 9.02201V6.55871C0.241211 2.9008 4.89123 1.29785 7.93451 1.29785ZM18.2383 15.0929C18.871 15.0929 18.871 16.0548 18.2383 16.0548H17.3651V16.9283C17.3651 17.5609 16.4032 17.5609 16.4032 16.9283V16.0548H15.5298C14.8971 16.0548 14.8971 15.0929 15.5298 15.0929H16.4032V14.2195C16.4032 13.5868 17.3651 13.5868 17.3651 14.2195V15.0929H18.2383ZM19.3845 6.02906C20.0169 6.02906 20.0169 6.99102 19.3845 6.99102H18.5111V7.86419C18.5111 8.49687 17.5491 8.49687 17.5491 7.86419V6.99102H16.6757C16.043 6.99102 16.043 6.02906 16.6757 6.02906H17.5491V5.15566C17.5491 4.52298 18.5111 4.52298 18.5111 5.15566V6.02906H19.3845ZM14.984 10.7187C14.3662 10.8498 14.1668 9.91037 14.7848 9.77933L17.6875 9.15899C17.9598 9.08872 18.2347 9.26701 18.2813 9.54548L18.9016 12.4475C19.0324 13.0652 18.093 13.2644 17.9622 12.6467L17.5985 10.9455C14.3382 15.8474 7.31251 18.8847 1.53791 18.8014C0.90784 18.794 0.91876 17.8358 1.54907 17.8432C7.01077 17.922 13.8333 15.0067 16.8625 10.3173L14.984 10.7187ZM8.41549 9.66395V9.86218C8.41549 10.4949 7.45353 10.4949 7.45353 9.86218V9.66395C6.52101 9.54264 5.36058 8.96408 5.36058 7.88627C5.36058 7.25359 6.32254 7.25359 6.32254 7.88627C6.32254 8.5021 7.48059 8.73285 7.93451 8.73285C10.0505 8.73285 10.0505 7.03969 7.93451 7.03969C4.80862 7.03969 4.41571 3.84828 7.45353 3.45324V3.25501C7.45353 2.62256 8.41549 2.62256 8.41549 3.25501V3.45324C9.34825 3.57455 10.5087 4.1531 10.5087 5.23115C10.5087 5.86359 9.54671 5.86359 9.54671 5.23115C9.54671 4.61509 8.38866 4.38433 7.93451 4.38433C5.81877 4.38433 5.81901 6.07773 7.93451 6.07773C11.0611 6.07773 11.4533 9.26938 8.41549 9.66395ZM8.31744 11.8132C5.83871 11.8958 2.83461 11.128 1.20459 9.12148C1.29789 12.3903 5.7314 13.3033 8.31744 13.2214V11.8132ZM14.6661 6.55871C14.6661 3.5038 10.3762 2.25981 7.93451 2.25981C5.49305 2.25981 1.20317 3.5038 1.20317 6.55871C1.20317 9.72377 5.74517 10.9276 8.25382 10.8526C10.6385 10.7814 14.6661 9.49729 14.6661 6.55871Z" fill="#F3BB2B"/>
</svg>
