<svg width="24" height="24" viewBox="0 0 24 24" fill="none" xmlns="http://www.w3.org/2000/svg">
<path d="M23.3636 7.04353C23.3636 6.63967 23.2902 6.2358 23.1433 5.86865L15.2129 12.0001L23.1433 18.1315C23.2902 17.7643 23.4003 17.3604 23.4003 16.9566V7.04353H23.3636Z" fill="#F2F4F6"/>
<path d="M11.9815 11.2291L21.1602 4.1431C20.9032 4.06967 20.6095 4.03296 20.3525 4.03296H3.61046C3.31674 4.03296 3.05974 4.06967 2.80273 4.1431L11.9815 11.2291Z" fill="#F2F4F6"/>
<path d="M0.819899 5.90527C0.673039 6.27242 0.599609 6.67629 0.599609 7.08015V16.9565C0.599609 17.3971 0.673039 17.8009 0.856614 18.1314L8.75033 12L0.819899 5.90527Z" fill="#F2F4F6"/>
<path d="M13.0833 13.6521L12.7529 13.9091C12.5326 14.0927 12.2389 14.1661 11.9452 14.1661C11.6514 14.1661 11.3944 14.0927 11.1374 13.9091L10.8804 13.6521L2.83984 19.8569C3.09685 19.9304 3.35385 19.9671 3.64757 19.9671H20.3529C20.6099 19.9671 20.9036 19.9304 21.1606 19.8569L13.0833 13.6521Z" fill="#F2F4F6"/>
</svg>
