<svg width="28" height="28" viewBox="0 0 28 28" fill="none" xmlns="http://www.w3.org/2000/svg">
<g clip-path="url(#clip0_131_1255)">
<path d="M12.2497 6.06823L12.8841 9.15261C12.9397 9.40825 13.0812 9.63716 13.2849 9.8013C13.4887 9.96545 13.7424 10.055 14.0041 10.055C14.2657 10.055 14.5195 9.96545 14.7232 9.8013C14.9269 9.63716 15.0684 9.40825 15.1241 9.15261L15.7497 6.06823C15.8266 5.72158 15.7962 5.35973 15.6626 5.03075C15.5289 4.70177 15.2984 4.42122 15.0016 4.22636C14.7011 4.03855 14.354 3.93896 13.9997 3.93896C13.6454 3.93896 13.2982 4.03855 12.9978 4.22636C12.705 4.42499 12.4776 4.706 12.3444 5.03384C12.2113 5.36169 12.1783 5.72165 12.2497 6.06823ZM13.4703 4.96136C13.6315 4.86456 13.816 4.81343 14.0041 4.81343C14.1921 4.81343 14.3766 4.86456 14.5378 4.96136C14.6812 5.06885 14.7897 5.21629 14.8496 5.38518C14.9095 5.55407 14.9183 5.7369 14.8747 5.91073L14.2447 8.97323C14.2372 9.03277 14.2081 9.08748 14.1629 9.127C14.1178 9.16651 14.0597 9.18808 13.9997 9.18761C13.9378 9.19387 13.876 9.17597 13.827 9.13764C13.7781 9.09931 13.7459 9.04353 13.7372 8.98198L13.1072 5.91948C13.0653 5.74221 13.077 5.55647 13.1409 5.38587C13.2047 5.21526 13.3179 5.0675 13.4659 4.96136H13.4703Z" fill="black"/>
<path d="M14 10.9375C13.6971 10.9375 13.4011 11.0273 13.1493 11.1956C12.8975 11.3638 12.7012 11.603 12.5853 11.8828C12.4694 12.1626 12.4391 12.4704 12.4982 12.7675C12.5573 13.0645 12.7031 13.3374 12.9172 13.5515C13.1314 13.7657 13.4042 13.9115 13.7013 13.9706C13.9983 14.0297 14.3062 13.9993 14.586 13.8834C14.8658 13.7675 15.1049 13.5713 15.2732 13.3195C15.4414 13.0677 15.5313 12.7716 15.5313 12.4688C15.5313 12.0626 15.3699 11.6732 15.0828 11.386C14.7956 11.0988 14.4061 10.9375 14 10.9375ZM14 13.125C13.8702 13.125 13.7433 13.0865 13.6354 13.0144C13.5275 12.9423 13.4434 12.8398 13.3937 12.7199C13.344 12.6 13.331 12.468 13.3564 12.3407C13.3817 12.2134 13.4442 12.0965 13.536 12.0047C13.6277 11.9129 13.7447 11.8504 13.872 11.8251C13.9993 11.7998 14.1312 11.8128 14.2511 11.8625C14.3711 11.9121 14.4735 11.9962 14.5457 12.1042C14.6178 12.2121 14.6563 12.339 14.6563 12.4688C14.6563 12.6428 14.5871 12.8097 14.464 12.9328C14.341 13.0559 14.174 13.125 14 13.125Z" fill="black"/>
<path d="M25.55 9.55062L23.1875 8.00625V2.1875C23.1875 1.8394 23.0492 1.50556 22.8031 1.25942C22.5569 1.01328 22.2231 0.875 21.875 0.875H15.75C15.634 0.875 15.5227 0.921094 15.4406 1.00314C15.3586 1.08519 15.3125 1.19647 15.3125 1.3125C15.3125 1.42853 15.3586 1.53981 15.4406 1.62186C15.5227 1.70391 15.634 1.75 15.75 1.75H21.875C21.991 1.75 22.1023 1.79609 22.1844 1.87814C22.2664 1.96019 22.3125 2.07147 22.3125 2.1875V14.0919L17.8194 18.095L16.5288 16.9925C15.8312 16.3749 14.9317 16.034 14 16.034C13.0683 16.034 12.1689 16.3749 11.4713 16.9925L10.2025 18.1125L5.68751 14.0919V2.1875C5.68751 2.07147 5.7336 1.96019 5.81565 1.87814C5.89769 1.79609 6.00897 1.75 6.12501 1.75H12.25C12.366 1.75 12.4773 1.70391 12.5594 1.62186C12.6414 1.53981 12.6875 1.42853 12.6875 1.3125C12.6875 1.19647 12.6414 1.08519 12.5594 1.00314C12.4773 0.921094 12.366 0.875 12.25 0.875H6.12501C5.77691 0.875 5.44307 1.01328 5.19693 1.25942C4.95079 1.50556 4.81251 1.8394 4.81251 2.1875V8.00625L2.42376 9.5725C1.94133 9.94066 1.55053 10.4153 1.28187 10.9595C1.01322 11.5036 0.873968 12.1025 0.875006 12.7094V23.1875C0.881932 24.2334 1.302 25.2342 2.04365 25.9718C2.7853 26.7094 3.78842 27.1239 4.83438 27.125H23.1875C24.2297 27.1181 25.2272 26.7011 25.9641 25.9641C26.7011 25.2272 27.1181 24.2297 27.125 23.1875V12.7094C27.1264 12.0966 26.9847 11.492 26.7113 10.9436C26.4378 10.3953 26.0402 9.91828 25.55 9.55062ZM23.1875 9.05188L25.0425 10.2637C25.3204 10.477 25.5601 10.7359 25.7513 11.0294L23.1875 13.3131V9.05188ZM2.93126 10.2856L4.81251 9.05188V13.3131L2.24438 11.0294C2.42833 10.7434 2.66077 10.4917 2.93126 10.2856ZM1.75001 23.1875V12.7094C1.75083 12.4235 1.79208 12.1393 1.87251 11.865L4.93501 14.5994L9.53751 18.6944L2.38001 25.025C1.97617 24.4971 1.75505 23.8521 1.75001 23.1875ZM4.83438 26.25C4.17524 26.2494 3.53389 26.0361 3.00563 25.6419L12.0488 17.6488C12.5878 17.172 13.2826 16.9089 14.0022 16.9089C14.7218 16.9089 15.4166 17.172 15.9556 17.6488L25.1431 25.5238C24.5963 25.9872 23.9043 26.2442 23.1875 26.25H4.83438ZM26.2719 23.1875C26.2724 23.7914 26.0943 24.382 25.76 24.885L18.4888 18.6681L23.0606 14.5994L26.1231 11.865C26.205 12.1391 26.2478 12.4233 26.25 12.7094L26.2719 23.1875Z" fill="black"/>
<path d="M14 1.75C14.2416 1.75 14.4375 1.55412 14.4375 1.3125C14.4375 1.07088 14.2416 0.875 14 0.875C13.7584 0.875 13.5625 1.07088 13.5625 1.3125C13.5625 1.55412 13.7584 1.75 14 1.75Z" fill="black"/>
</g>
<defs>
<clipPath id="clip0_131_1255">
<rect width="28" height="28" fill="white"/>
</clipPath>
</defs>
</svg>
