<svg width="20" height="20" viewBox="0 0 20 20" fill="none" xmlns="http://www.w3.org/2000/svg">
<path d="M10.0013 17.2207C6.02012 17.2207 2.78125 13.9818 2.78125 10.0008C2.78125 6.01964 6.02012 2.78076 10.0013 2.78076C13.9823 2.78076 17.2212 6.01964 17.2212 10.0008C17.2212 13.9818 13.9823 17.2207 10.0013 17.2207ZM10.0013 3.07845C6.18423 3.07845 3.07891 6.1838 3.07891 10.0008C3.07891 13.8177 6.18423 16.9231 10.0013 16.9231C13.8182 16.9231 16.9235 13.8177 16.9235 10.0008C16.9235 6.1838 13.8182 3.07845 10.0013 3.07845Z" fill="#F2F4F6"/>
<path d="M18.1859 7.84816C17.8068 6.40159 17.0456 5.07608 15.9847 4.01504C14.3863 2.41665 12.261 1.5364 10.0006 1.5364C7.74006 1.5364 5.61483 2.41665 4.01643 4.01504C2.95557 5.07591 2.19443 6.40134 1.81528 7.848L1.52734 7.7726C1.91983 6.27487 2.70784 4.90282 3.80602 3.80464C5.46058 2.14999 7.66058 1.23877 10.0006 1.23877C12.3406 1.23877 14.5405 2.14999 16.1951 3.80464C17.2934 4.90298 18.0813 6.27509 18.4738 7.77273L18.1859 7.84816Z" fill="#F2F4F6"/>
<path d="M18.8639 7.65549C18.935 7.95618 18.7488 8.25764 18.4481 8.32871C18.1475 8.39981 17.846 8.21363 17.7749 7.91296C17.7038 7.6123 17.89 7.31081 18.1907 7.23974C18.4914 7.16866 18.7928 7.35482 18.8639 7.65549Z" fill="#F2F4F6"/>
<path d="M1.13622 7.65573C1.06515 7.95642 1.25131 8.25788 1.55197 8.32896C1.85266 8.40006 2.15412 8.21387 2.2252 7.91321C2.2963 7.61254 2.11011 7.31105 1.80945 7.23998C1.50879 7.16891 1.2073 7.35507 1.13622 7.65573Z" fill="#F2F4F6"/>
<path d="M10.0002 18.7607C7.66015 18.7607 5.46015 17.8495 3.80559 16.1948C2.73232 15.1216 1.95324 13.7835 1.55273 12.3252L1.8397 12.2463C2.2266 13.655 2.97916 14.9476 4.016 15.9844C5.6144 17.5828 7.73963 18.4631 10.0002 18.4631C12.2606 18.4631 14.3859 17.5828 15.9842 15.9844C17.0211 14.9474 17.7736 13.6549 18.1605 12.2465L18.4475 12.3253C18.047 13.7834 17.268 15.1215 16.1947 16.1948C14.5401 17.8495 12.3402 18.7607 10.0002 18.7607Z" fill="#F2F4F6"/>
<path d="M1.16308 12.4473C1.08867 12.1474 1.27155 11.8439 1.57144 11.7695C1.8713 11.6951 2.1748 11.878 2.24918 12.1779C2.32357 12.4777 2.14069 12.7812 1.84079 12.8556C1.54093 12.93 1.23746 12.7471 1.16308 12.4473Z" fill="#F2F4F6"/>
<path d="M18.8371 12.4475C18.9114 12.1476 18.7286 11.8441 18.4287 11.7698C18.1288 11.6954 17.8253 11.8782 17.7509 12.1781C17.6766 12.478 17.8594 12.7815 18.1593 12.8559C18.4592 12.9302 18.7627 12.7474 18.8371 12.4475Z" fill="#F2F4F6"/>
<path d="M13.2337 7.93981L12.061 6.76709L10.0007 8.82742L7.9403 6.76709L6.76758 7.93981L8.82791 10.0002L6.76758 12.0605L7.9403 13.2333L10.0007 11.1729L12.061 13.2333L13.2337 12.0605L11.1734 10.0002L13.2337 7.93981Z" fill="#F2F4F6"/>
</svg>
