<svg width="23" height="23" viewBox="0 0 23 23" fill="none" xmlns="http://www.w3.org/2000/svg">
<g clip-path="url(#clip0_0_6708)">
<path d="M11.4527 0.0244141C14.5027 0.0244141 17.4278 1.23602 19.5844 3.39269C21.7411 5.54935 22.9527 8.47442 22.9527 11.5244C22.9527 14.5744 21.7411 17.4995 19.5844 19.6561C17.4278 21.8128 14.5027 23.0244 11.4527 23.0244C8.40271 23.0244 5.47764 21.8128 3.32097 19.6561C1.1643 17.4995 -0.0473022 14.5744 -0.0473022 11.5244C-0.0473022 8.47442 1.1643 5.54935 3.32097 3.39269C5.47764 1.23602 8.40271 0.0244141 11.4527 0.0244141ZM11.4527 2.32441C10.2445 2.32441 9.04821 2.56238 7.93201 3.02472C6.81581 3.48707 5.80161 4.16473 4.94732 5.01903C3.22198 6.74437 2.2527 9.08442 2.2527 11.5244C2.2527 15.811 5.18376 19.412 9.15126 20.434L9.1527 13.8244H8.0027C7.6977 13.8244 7.40519 13.7033 7.18953 13.4876C6.97386 13.2719 6.8527 12.9794 6.8527 12.6744C6.8527 12.3694 6.97386 12.0769 7.18953 11.8612C7.40519 11.6456 7.6977 11.5244 8.0027 11.5244H9.1527V9.22441C9.1527 8.30942 9.51618 7.4319 10.1632 6.78489C10.8102 6.13789 11.6877 5.77441 12.6027 5.77441H13.7527C13.9037 5.77441 14.0533 5.80416 14.1928 5.86195C14.3323 5.91975 14.4591 6.00445 14.5659 6.11124C14.6727 6.21803 14.7574 6.3448 14.8152 6.48433C14.873 6.62385 14.9027 6.77339 14.9027 6.92441C14.9027 7.07543 14.873 7.22498 14.8152 7.3645C14.7574 7.50402 14.6727 7.6308 14.5659 7.73759C14.4591 7.84437 14.3323 7.92908 14.1928 7.98688C14.0533 8.04467 13.9037 8.07441 13.7527 8.07441H12.6027C12.2977 8.07441 12.0052 8.19557 11.7895 8.41124C11.5739 8.62691 11.4527 8.91941 11.4527 9.22441V11.5244H13.7527C14.0577 11.5244 14.3502 11.6456 14.5659 11.8612C14.7815 12.0769 14.9027 12.3694 14.9027 12.6744C14.9027 12.9794 14.7815 13.2719 14.5659 13.4876C14.3502 13.7033 14.0577 13.8244 13.7527 13.8244H11.4527V20.7244C13.8927 20.7244 16.2327 19.7551 17.9581 18.0298C19.6834 16.3045 20.6527 13.9644 20.6527 11.5244C20.6527 9.08442 19.6834 6.74437 17.9581 5.01903C16.2327 3.2937 13.8927 2.32441 11.4527 2.32441Z" fill="white" fill-opacity="0.5"/>
</g>
<defs>
<clipPath id="clip0_0_6708">
<rect width="23" height="23" fill="white"/>
</clipPath>
</defs>
</svg>
