<svg width="43" height="52" viewBox="0 0 43 52" fill="none" xmlns="http://www.w3.org/2000/svg">
<path d="M3.14954 30.4027L18.3286 15.2013C20.297 13.2738 21.5219 10.5577 21.5219 7.57877C21.5219 4.64364 20.3408 1.92755 18.4161 0L3.23703 15.2013C1.26857 17.1289 0.0437436 19.845 0.0437436 22.8239C0.0437436 25.8029 1.22482 28.4751 3.14954 30.4027ZM39.8942 21.5097L24.7152 36.711C22.7467 38.6386 21.5219 41.3547 21.5219 44.3336C21.5219 47.2687 22.7029 49.9848 24.6277 51.9124L39.8067 36.711C41.7752 34.7835 43 32.0674 43 29.0885C43 26.1095 41.8189 23.4372 39.8942 21.5097ZM39.8067 15.2452C41.7752 13.3176 43 10.6015 43 7.62258C43 4.68745 41.8189 1.97136 39.8942 0.0438105L3.19329 36.7548C1.22482 38.7262 0 41.3985 0 44.4212C0 47.3564 1.18108 50.0725 3.1058 52L39.8067 15.2452Z" fill="#F3BB2B"/>
</svg>
