<svg width="250" height="67" viewBox="0 0 250 67" fill="none" xmlns="http://www.w3.org/2000/svg">
<path d="M61.4542 20.8852L64.5844 23.9432C70.1255 29.3564 70.1255 38.133 64.5844 43.5482L47.7248 60.0188C44.1336 63.5271 38.312 63.5271 34.7188 60.0168L30.4543 55.8507C32.6827 58.0278 36.2959 58.0278 38.5264 55.8507L61.386 33.5186C64.9552 30.0318 64.9792 24.3955 61.4562 20.8832L61.4542 20.8852Z" fill="url(#paint0_linear_384_1323)"/>
<path style="mix-blend-mode:color-dodge" d="M41.0972 61.3407C38.9153 61.3407 36.8625 60.5105 35.3184 59.0035L34.3705 58.0783H34.4202C36.1849 58.0783 37.8462 57.4071 39.0941 56.1891L61.7622 34.0657C64.0932 31.7885 65.0391 28.6463 64.592 25.669C66.4362 27.9267 67.4357 30.7043 67.4357 33.6331C67.4357 37.0527 66.0705 40.2705 63.5925 42.6892L46.8721 59.0093C45.33 60.5144 43.2792 61.3446 41.0972 61.3446V61.3407Z" fill="url(#paint1_radial_384_1323)"/>
<path style="mix-blend-mode:screen" d="M47.4224 59.884L44.2278 62.9791C38.6926 68.3377 29.7247 68.3416 24.1916 62.9829L12.6952 51.8451C9.1084 48.3702 9.11241 42.7363 12.6952 39.2653L16.67 35.4164C16.73 35.3544 16.792 35.2962 16.848 35.24C16.788 35.302 16.73 35.3602 16.68 35.4261C15.2797 36.9804 14.9336 39.1141 15.6378 40.9553C15.9158 41.682 16.3519 42.3603 16.954 42.9437L34.4377 59.884C38.0245 63.3589 43.8357 63.3589 47.4224 59.884Z" fill="url(#paint2_linear_384_1323)"/>
<path style="mix-blend-mode:color-dodge" d="M34.3541 66.1301C30.7918 66.1301 27.4416 64.7836 24.9219 62.3361L13.3094 51.0564C11.7394 49.5314 10.8766 47.5059 10.8766 45.3488C10.8766 43.1938 11.7415 41.1663 13.3094 39.6432L14.2591 38.7208C14.251 40.3989 14.9138 42.077 16.2454 43.3704L33.9056 60.5245C35.8413 62.4029 38.4115 63.4392 41.1474 63.4392C41.6505 63.4392 42.1476 63.4038 42.6366 63.3352C40.2887 65.1467 37.3992 66.1301 34.3541 66.1301Z" fill="url(#paint3_radial_384_1323)"/>
<path d="M28.7145 0L28.7105 17.9119C28.7145 21.4714 27.2652 24.8789 24.6859 27.3946L16.8983 34.9847C16.8663 35.0197 16.8284 35.0528 16.7965 35.0898L12.6501 39.1341C9.07474 42.6214 9.07075 48.2818 12.6501 51.7731L4.13984 43.4723C-1.37995 38.0846 -1.37995 29.3535 4.13984 23.9696L28.7145 0Z" fill="url(#paint4_linear_384_1323)"/>
<path style="mix-blend-mode:color-dodge" d="M4.75538 42.7649C2.2502 40.3352 0.870041 37.1027 0.870041 33.6657C0.870041 30.2287 2.2502 26.9962 4.75538 24.5665L27.8443 2.17511V17.8483C27.8443 21.1821 26.5063 24.3191 24.0734 26.6767L16.2366 34.2736C16.1964 34.3106 16.1562 34.3535 16.116 34.3944L11.9615 38.4238C10.0389 40.2884 8.98022 42.7668 8.98022 45.405C8.98022 45.9408 9.02441 46.4688 9.10879 46.9871L4.75538 42.7649Z" fill="url(#paint5_radial_384_1323)"/>
<path style="mix-blend-mode:screen" d="M61.238 33.3817L51.5501 42.6848C53.2193 41.0819 53.6457 38.7474 52.8374 36.766C52.5605 36.0733 52.1281 35.427 51.5461 34.8662L44.4933 28.0936L39.5908 44.3769V0L51.3884 11.331L57.9521 17.6378L61.3087 20.8611C64.8613 24.3406 64.8351 29.9294 61.238 33.3836V33.3817Z" fill="url(#paint6_linear_384_1323)"/>
<path style="mix-blend-mode:color-dodge" d="M54.2267 39.1029C54.2267 37.3592 53.5212 35.7214 52.2386 34.4877L43.9558 26.5204L40.4608 38.1438V2.17511L50.7011 12.0254L60.709 21.6561C63.9022 24.7904 63.8736 29.8764 60.6376 32.9892L54.2267 39.1559V39.1049V39.1029Z" fill="url(#paint7_radial_384_1323)"/>
<path style="mix-blend-mode:screen" d="M28.7142 44.3772L28.6338 44.1944C27.5732 41.8012 25.5677 39.9112 23.0583 38.9388C25.5677 37.9665 27.5732 36.0765 28.6338 33.6833L28.7142 33.5005" fill="url(#paint8_linear_384_1323)"/>
<path style="mix-blend-mode:color-dodge" d="M28.7143 0L28.7104 17.9119C28.7143 21.4714 27.274 24.8789 24.7108 27.3946L16.9717 34.9847C16.9399 35.0197 16.9022 35.0528 16.8705 35.0898L12.7499 39.1341C9.19676 42.6214 9.19279 48.2818 12.7499 51.7731C-7.67632 31.7232 28.7143 29.151 28.7143 0Z" fill="url(#paint9_radial_384_1323)"/>
<path style="mix-blend-mode:color-dodge" d="M51.4194 42.6848C53.642 40.5269 53.642 37.028 51.4154 34.8662L44.4398 28.0936L39.5908 44.3769V0C39.5908 24.556 64.5952 29.8906 51.4174 42.6848H51.4194Z" fill="url(#paint10_radial_384_1323)"/>
<path style="mix-blend-mode:multiply" d="M15.7442 54.8181L12.6358 51.7275C9.12824 48.2402 9.13215 42.5862 12.6358 39.1027L16.5228 35.24L16.5326 35.2497C15.1632 36.8096 14.8248 38.951 15.5134 40.7987C12.6827 43.9321 8.63918 47.754 15.7442 54.8181Z" fill="url(#paint11_linear_384_1323)"/>
<path style="mix-blend-mode:multiply" d="M50.9025 56.9122L47.6745 60.0206C44.0322 63.5282 38.1269 63.5243 34.4886 60.0206L30.4543 56.1336L30.4644 56.1238C32.0936 57.4932 34.3302 57.8316 36.26 57.143C39.5326 59.9737 43.5244 64.0172 50.9025 56.9122Z" fill="url(#paint12_linear_384_1323)"/>
<path style="mix-blend-mode:multiply" d="M61.2871 33.4254L51.773 42.6364C53.4123 41.0494 53.831 38.738 53.0372 36.7763C57.7684 32.2381 67.3579 26.8391 58.0602 17.8375L61.3565 21.0289C64.8454 24.4739 64.8196 30.0074 61.2871 33.4274V33.4254Z" fill="url(#paint13_linear_384_1323)"/>
<path d="M96.4584 46.9874C94.3617 46.9874 92.422 46.652 90.6395 45.9811C88.8571 45.3104 87.3076 44.3617 85.9803 43.1407C84.6529 41.9196 83.6235 40.4888 82.8922 38.8538C82.1608 37.2186 81.7923 35.4315 81.7923 33.5029C81.7923 31.5743 82.1769 29.7506 82.9463 28.1154C83.7156 26.4804 84.7884 25.0548 86.1645 23.8443C87.5407 22.6335 89.1389 21.6956 90.9592 21.0195C92.7797 20.3486 94.7248 20.0132 96.7943 20.0132C99.2974 20.0132 101.535 20.4272 103.518 21.2605C105.501 22.0938 107.11 23.2154 108.351 24.6304L103.236 29.5776C102.299 28.5295 101.329 27.7434 100.316 27.2297C99.3028 26.7162 98.0945 26.4594 96.6805 26.4594C95.3422 26.4594 94.1286 26.7476 93.0451 27.3189C91.9615 27.8954 91.0947 28.7077 90.4499 29.7558C89.8054 30.8039 89.4857 32.0407 89.4857 33.4557C89.4857 34.8709 89.7837 36.1128 90.3742 37.1768C90.9646 38.2405 91.7936 39.0634 92.8554 39.6503C93.9175 40.2373 95.1526 40.5308 96.5668 40.5308C97.9808 40.5308 99.0807 40.274 100.012 39.7605C100.944 39.2468 101.659 38.5131 102.152 37.5592C102.646 36.6055 102.889 35.4839 102.889 34.1894L108.08 37.3758L95.5374 37.0089V31.1446H110.507V32.2451C110.507 35.3739 109.922 38.0363 108.746 40.2373C107.57 42.4384 105.929 44.1102 103.821 45.258C101.714 46.4057 99.254 46.9822 96.4529 46.9822L96.4584 46.9874Z" fill="white"/>
<path d="M110.513 46.5523L120.825 20.4482H128.59L138.787 46.5523H130.87L123.295 24.3743H126.038L118.273 46.5523H110.508H110.513ZM117.211 42.1545V36.4356H132.361V42.1545H117.211Z" fill="white"/>
<path d="M136.611 26.6806V20.4482H160.54V26.6806H136.611ZM144.742 46.5523V20.4482H152.376V46.5523H144.742Z" fill="white"/>
<path d="M165.326 46.5523V20.4482H172.739V46.5523H165.326ZM171.452 46.5523V41.2738H176.405C177.362 41.2738 178.13 41.0223 178.714 40.5243C179.292 40.0212 179.584 39.3344 179.584 38.4539C179.584 37.8667 179.454 37.3583 179.19 36.9338C178.925 36.5038 178.557 36.1841 178.092 35.9639C177.627 35.7438 177.064 35.6337 176.41 35.6337H171.458V30.5753H176.07C176.875 30.5753 177.546 30.3814 178.076 29.9883C178.606 29.5952 178.87 28.9872 178.87 28.1537C178.87 27.3202 178.606 26.7122 178.076 26.3191C177.546 25.926 176.881 25.7319 176.07 25.7319H171.458V20.4534H178.189C179.828 20.4534 181.261 20.7523 182.483 21.3499C183.704 21.9473 184.656 22.7704 185.338 23.8083C186.02 24.846 186.36 26.0412 186.36 27.3831C186.36 29.2387 185.678 30.7536 184.316 31.9277C182.952 33.1019 180.962 33.7729 178.341 33.9458L178.265 31.414C181.114 31.587 183.294 32.3419 184.807 33.6889C186.322 35.0309 187.079 36.7555 187.079 38.8574C187.079 40.3723 186.69 41.7089 185.904 42.8727C185.121 44.0311 184.034 44.938 182.634 45.5826C181.233 46.2326 179.6 46.5523 177.735 46.5523H171.458H171.452Z" fill="#F3BB2B"/>
<path d="M190.56 46.5523V20.4482H197.956V46.5523H190.56Z" fill="#F3BB2B"/>
<path d="M202.306 26.6806V20.4482H226.235V26.6806H202.306ZM210.437 46.5523V20.4482H218.072V46.5523H210.437Z" fill="#F3BB2B"/>
<path d="M238.587 46.9874C236.313 46.9874 234.329 46.6625 232.646 46.0177C230.957 45.3677 229.402 44.3351 227.975 42.9199L232.662 38.3384C233.637 39.2453 234.662 39.9319 235.739 40.4091C236.812 40.886 237.965 41.1219 239.187 41.1219C240.211 41.1219 240.989 40.9698 241.514 40.6657C242.04 40.3618 242.302 39.9373 242.302 39.4025C242.302 38.8679 242.077 38.417 241.627 38.0659C241.176 37.7148 240.581 37.3949 239.847 37.1118C239.107 36.8289 238.297 36.5458 237.407 36.2523C236.517 35.9586 235.638 35.6023 234.764 35.1881C233.89 34.774 233.08 34.2656 232.345 33.6681C231.605 33.0705 231.016 32.326 230.565 31.4297C230.115 30.5386 229.89 29.4431 229.89 28.1484C229.89 26.4605 230.302 25.0086 231.128 23.7872C231.954 22.5658 233.117 21.6275 234.613 20.9829C236.115 20.3329 237.874 20.0132 239.9 20.0132C241.927 20.0132 243.756 20.3223 245.471 20.9461C247.182 21.5699 248.603 22.4558 249.729 23.6038L245.005 28.1851C244.179 27.404 243.354 26.8222 242.528 26.4449C241.702 26.0674 240.801 25.8787 239.825 25.8787C239.048 25.8787 238.431 25.9993 237.97 26.2456C237.509 26.4919 237.278 26.8588 237.278 27.3464C237.278 27.8602 237.504 28.2795 237.954 28.6096C238.404 28.9399 239 29.2386 239.734 29.5061C240.469 29.7734 241.284 30.0565 242.174 30.35C243.059 30.6435 243.943 30.9894 244.817 31.3931C245.691 31.7966 246.501 32.3104 247.236 32.9342C247.975 33.558 248.565 34.3337 249.016 35.2616C249.466 36.1893 249.691 37.3162 249.691 38.6321C249.691 41.2949 248.721 43.3548 246.785 44.8069C244.85 46.2588 242.115 46.9874 238.592 46.9874H238.587Z" fill="#F3BB2B"/>
<path d="M141.191 54.1682V62H139.772V54.1682H141.191ZM142.383 55.3575V54.1682H148.632V55.3575H146.211V62H144.804V55.3575H142.383ZM153.926 54.1682V62H152.508V54.1682H153.926ZM161.899 54.1682V62H160.637L156.946 56.6654H156.881V62H155.463V54.1682H156.732L160.419 59.5067H160.488V54.1682H161.899ZM163.445 62V54.1682H168.462V55.3575H164.863V57.4837H168.118V58.673H164.863V62H163.445ZM169.754 62V54.1682H172.691C173.293 54.1682 173.798 54.2728 174.206 54.4818C174.616 54.6909 174.926 54.9841 175.135 55.3614C175.346 55.7361 175.452 56.1734 175.452 56.673C175.452 57.1753 175.345 57.6112 175.131 57.9809C174.919 58.348 174.607 58.6322 174.194 58.8336C173.781 59.0325 173.274 59.1319 172.672 59.1319H170.58V57.9541H172.481C172.833 57.9541 173.121 57.9057 173.345 57.8088C173.57 57.7094 173.735 57.5653 173.842 57.3767C173.952 57.1855 174.007 56.9509 174.007 56.673C174.007 56.3951 173.952 56.1581 173.842 55.9618C173.733 55.7629 173.566 55.6125 173.341 55.5105C173.117 55.406 172.828 55.3537 172.473 55.3537H171.173V62H169.754ZM173.8 58.4512L175.739 62H174.156L172.251 58.4512H173.8ZM177.764 62H176.25L179.007 54.1682H180.758L183.519 62H182.005L179.913 55.7744H179.852L177.764 62ZM177.814 58.9293H181.944V60.0688H177.814V58.9293ZM188.681 56.3212C188.645 55.9872 188.495 55.7272 188.23 55.5411C187.967 55.355 187.625 55.2619 187.205 55.2619C186.909 55.2619 186.655 55.3066 186.444 55.3958C186.232 55.485 186.07 55.6061 185.958 55.7591C185.846 55.912 185.788 56.0867 185.786 56.283C185.786 56.4461 185.823 56.5876 185.897 56.7074C185.973 56.8273 186.077 56.9292 186.207 57.0134C186.337 57.095 186.481 57.1638 186.639 57.2199C186.797 57.276 186.956 57.3231 187.117 57.3614L187.851 57.5449C188.147 57.6138 188.431 57.7068 188.704 57.8241C188.979 57.9414 189.225 58.0892 189.442 58.2677C189.661 58.4461 189.834 58.6616 189.962 58.914C190.089 59.1663 190.153 59.4621 190.153 59.8011C190.153 60.26 190.036 60.6641 189.801 61.0134C189.567 61.3601 189.228 61.6316 188.784 61.8279C188.343 62.0217 187.809 62.1185 187.182 62.1185C186.572 62.1185 186.043 62.0242 185.595 61.8356C185.149 61.6469 184.799 61.3716 184.547 61.0096C184.297 60.6475 184.162 60.2065 184.142 59.6864H185.537C185.558 59.9592 185.642 60.1861 185.79 60.3671C185.938 60.5481 186.13 60.6832 186.367 60.7725C186.607 60.8617 186.875 60.9063 187.17 60.9063C187.479 60.9063 187.749 60.8604 187.981 60.7686C188.215 60.6743 188.399 60.5443 188.532 60.3786C188.664 60.2103 188.732 60.014 188.734 59.7897C188.732 59.5857 188.672 59.4175 188.555 59.2849C188.437 59.1498 188.273 59.0376 188.061 58.9484C187.852 58.8566 187.607 58.775 187.327 58.7036L186.436 58.4742C185.791 58.3085 185.281 58.0574 184.906 57.7208C184.534 57.3818 184.348 56.9318 184.348 56.3709C184.348 55.9095 184.473 55.5054 184.723 55.1587C184.975 54.812 185.318 54.543 185.751 54.3518C186.185 54.1581 186.676 54.0612 187.224 54.0612C187.78 54.0612 188.266 54.1581 188.685 54.3518C189.105 54.543 189.435 54.8094 189.675 55.151C189.915 55.4901 190.038 55.8802 190.046 56.3212H188.681ZM191.074 55.3575V54.1682H197.322V55.3575H194.902V62H193.494V55.3575H191.074ZM198.527 62V54.1682H201.464C202.065 54.1682 202.57 54.2728 202.978 54.4818C203.389 54.6909 203.698 54.9841 203.907 55.3614C204.119 55.7361 204.225 56.1734 204.225 56.673C204.225 57.1753 204.118 57.6112 203.904 57.9809C203.692 58.348 203.38 58.6322 202.967 58.8336C202.554 59.0325 202.046 59.1319 201.445 59.1319H199.353V57.9541H201.253C201.605 57.9541 201.893 57.9057 202.118 57.8088C202.342 57.7094 202.508 57.5653 202.615 57.3767C202.724 57.1855 202.779 56.9509 202.779 56.673C202.779 56.3951 202.724 56.1581 202.615 55.9618C202.505 55.7629 202.338 55.6125 202.114 55.5105C201.89 55.406 201.6 55.3537 201.246 55.3537H199.946V62H198.527ZM202.573 58.4512L204.512 62H202.928L201.024 58.4512H202.573ZM210.468 54.1682H211.886V59.2849C211.886 59.8458 211.754 60.3391 211.489 60.7648C211.226 61.1906 210.856 61.5233 210.38 61.7629C209.903 62 209.346 62.1185 208.709 62.1185C208.069 62.1185 207.51 62 207.034 61.7629C206.557 61.5233 206.187 61.1906 205.925 60.7648C205.662 60.3391 205.531 59.8458 205.531 59.2849V54.1682H206.949V59.1663C206.949 59.4927 207.021 59.7833 207.164 60.0382C207.309 60.2932 207.513 60.4933 207.775 60.6386C208.038 60.7814 208.349 60.8528 208.709 60.8528C209.068 60.8528 209.379 60.7814 209.642 60.6386C209.907 60.4933 210.111 60.2932 210.253 60.0382C210.396 59.7833 210.468 59.4927 210.468 59.1663V54.1682ZM220.132 56.8107H218.702C218.661 56.5762 218.586 56.3684 218.476 56.1874C218.367 56.0038 218.23 55.8483 218.067 55.7208C217.904 55.5934 217.718 55.4978 217.509 55.434C217.302 55.3677 217.079 55.3346 216.839 55.3346C216.414 55.3346 216.036 55.4417 215.708 55.6558C215.379 55.8674 215.121 56.1784 214.935 56.5889C214.749 56.9968 214.656 57.4952 214.656 58.0841C214.656 58.6832 214.749 59.188 214.935 59.5985C215.124 60.0064 215.381 60.3148 215.708 60.5239C216.036 60.7304 216.412 60.8337 216.836 60.8337C217.07 60.8337 217.289 60.8031 217.493 60.7419C217.7 60.6781 217.885 60.5851 218.048 60.4627C218.214 60.3403 218.353 60.1899 218.465 60.0115C218.579 59.833 218.658 59.6291 218.702 59.3996L220.132 59.4073C220.079 59.7795 219.963 60.1287 219.784 60.4551C219.608 60.7814 219.377 61.0695 219.092 61.3193C218.806 61.5666 218.472 61.7604 218.09 61.9006C217.708 62.0382 217.283 62.1071 216.817 62.1071C216.128 62.1071 215.514 61.9477 214.973 61.6291C214.433 61.3104 214.007 60.8502 213.696 60.2486C213.385 59.6469 213.23 58.9254 213.23 58.0841C213.23 57.2403 213.386 56.5188 213.7 55.9197C214.013 55.318 214.441 54.8579 214.981 54.5392C215.521 54.2205 216.133 54.0612 216.817 54.0612C217.252 54.0612 217.658 54.1224 218.033 54.2447C218.407 54.3671 218.741 54.5468 219.035 54.7839C219.328 55.0185 219.569 55.3066 219.757 55.6482C219.948 55.9872 220.073 56.3748 220.132 56.8107ZM221.087 55.3575V54.1682H227.336V55.3575H224.915V62H223.508V55.3575H221.087ZM233.477 54.1682H234.896V59.2849C234.896 59.8458 234.763 60.3391 234.498 60.7648C234.236 61.1906 233.866 61.5233 233.389 61.7629C232.912 62 232.355 62.1185 231.718 62.1185C231.078 62.1185 230.52 62 230.043 61.7629C229.566 61.5233 229.197 61.1906 228.934 60.7648C228.672 60.3391 228.54 59.8458 228.54 59.2849V54.1682H229.959V59.1663C229.959 59.4927 230.03 59.7833 230.173 60.0382C230.318 60.2932 230.522 60.4933 230.785 60.6386C231.048 60.7814 231.359 60.8528 231.718 60.8528C232.078 60.8528 232.389 60.7814 232.651 60.6386C232.916 60.4933 233.12 60.2932 233.263 60.0382C233.406 59.7833 233.477 59.4927 233.477 59.1663V54.1682ZM236.438 62V54.1682H239.375C239.977 54.1682 240.481 54.2728 240.889 54.4818C241.3 54.6909 241.609 54.9841 241.818 55.3614C242.03 55.7361 242.136 56.1734 242.136 56.673C242.136 57.1753 242.029 57.6112 241.815 57.9809C241.603 58.348 241.291 58.6322 240.878 58.8336C240.465 59.0325 239.957 59.1319 239.356 59.1319H237.264V57.9541H239.165C239.516 57.9541 239.804 57.9057 240.029 57.8088C240.253 57.7094 240.419 57.5653 240.526 57.3767C240.636 57.1855 240.69 56.9509 240.69 56.673C240.69 56.3951 240.636 56.1581 240.526 55.9618C240.416 55.7629 240.249 55.6125 240.025 55.5105C239.801 55.406 239.511 55.3537 239.157 55.3537H237.857V62H236.438ZM240.484 58.4512L242.423 62H240.84L238.935 58.4512H240.484ZM243.442 62V54.1682H248.536V55.3575H244.861V57.4837H248.272V58.673H244.861V60.8107H248.566V62H243.442Z" fill="white"/>
<defs>
<linearGradient id="paint0_linear_384_1323" x1="38.8651" y1="49.1043" x2="61.446" y2="36.3917" gradientUnits="userSpaceOnUse">
<stop offset="0.04" stop-color="#FFBB00"/>
<stop offset="0.28" stop-color="#FF9300"/>
<stop offset="1" stop-color="#FF9E00"/>
</linearGradient>
<radialGradient id="paint1_radial_384_1323" cx="0" cy="0" r="1" gradientUnits="userSpaceOnUse" gradientTransform="translate(82.3358 33.026) scale(27.7593 27.0947)">
<stop stop-color="white"/>
<stop offset="0.14" stop-color="#BEBDBD"/>
<stop offset="0.31" stop-color="#7D7B7B"/>
<stop offset="0.46" stop-color="#484646"/>
<stop offset="0.58" stop-color="#231F1F"/>
<stop offset="0.69" stop-color="#0C0808"/>
<stop offset="0.75" stop-color="#040000"/>
</radialGradient>
<linearGradient id="paint2_linear_384_1323" x1="38.4266" y1="63.7271" x2="11.8536" y2="39.0753" gradientUnits="userSpaceOnUse">
<stop stop-color="#2D2D2D"/>
<stop offset="0.72"/>
<stop offset="0.98"/>
</linearGradient>
<radialGradient id="paint3_radial_384_1323" cx="0" cy="0" r="1" gradientUnits="userSpaceOnUse" gradientTransform="translate(31.9375 75.0781) scale(21.8751 21.2483)">
<stop stop-color="white"/>
<stop offset="0.14" stop-color="#BEBDBD"/>
<stop offset="0.31" stop-color="#7D7B7B"/>
<stop offset="0.46" stop-color="#484646"/>
<stop offset="0.58" stop-color="#231F1F"/>
<stop offset="0.69" stop-color="#0C0808"/>
<stop offset="0.75" stop-color="#040000"/>
</radialGradient>
<linearGradient id="paint4_linear_384_1323" x1="23.1368" y1="10.2421" x2="5.32427" y2="44.5205" gradientUnits="userSpaceOnUse">
<stop offset="0.04" stop-color="#FFBB00"/>
<stop offset="0.28" stop-color="#FF9300"/>
<stop offset="1" stop-color="#FF9E00"/>
</linearGradient>
<radialGradient id="paint5_radial_384_1323" cx="0" cy="0" r="1" gradientUnits="userSpaceOnUse" gradientTransform="translate(-23.2757 35.4388) scale(44.2453 42.9122)">
<stop stop-color="white"/>
<stop offset="0.14" stop-color="#BEBDBD"/>
<stop offset="0.31" stop-color="#7D7B7B"/>
<stop offset="0.46" stop-color="#484646"/>
<stop offset="0.58" stop-color="#231F1F"/>
<stop offset="0.69" stop-color="#0C0808"/>
<stop offset="0.75" stop-color="#040000"/>
</radialGradient>
<linearGradient id="paint6_linear_384_1323" x1="44.0326" y1="6.05845" x2="53.683" y2="45.4106" gradientUnits="userSpaceOnUse">
<stop stop-color="#2D2D2D"/>
<stop offset="0.72"/>
<stop offset="0.98"/>
</linearGradient>
<radialGradient id="paint7_radial_384_1323" cx="0" cy="0" r="1" gradientUnits="userSpaceOnUse" gradientTransform="translate(57.218 3.33824) scale(24.6464 23.7077)">
<stop stop-color="white"/>
<stop offset="0.14" stop-color="#BEBDBD"/>
<stop offset="0.31" stop-color="#7D7B7B"/>
<stop offset="0.46" stop-color="#484646"/>
<stop offset="0.58" stop-color="#231F1F"/>
<stop offset="0.69" stop-color="#0C0808"/>
<stop offset="0.75" stop-color="#040000"/>
</radialGradient>
<linearGradient id="paint8_linear_384_1323" x1="28.9024" y1="32.4377" x2="24.7479" y2="46.1805" gradientUnits="userSpaceOnUse">
<stop stop-color="#2D2D2D"/>
<stop offset="0.72"/>
<stop offset="0.98"/>
</linearGradient>
<radialGradient id="paint9_radial_384_1323" cx="0" cy="0" r="1" gradientUnits="userSpaceOnUse" gradientTransform="translate(-17.3082 45.7914) scale(42.7015 41.9107)">
<stop stop-color="white"/>
<stop offset="0.14" stop-color="#BEBDBD"/>
<stop offset="0.31" stop-color="#7D7B7B"/>
<stop offset="0.46" stop-color="#484646"/>
<stop offset="0.58" stop-color="#231F1F"/>
<stop offset="0.69" stop-color="#0C0808"/>
<stop offset="0.75" stop-color="#040000"/>
</radialGradient>
<radialGradient id="paint10_radial_384_1323" cx="0" cy="0" r="1" gradientUnits="userSpaceOnUse" gradientTransform="translate(13.6249 5.57525) scale(53.7465 52.1819)">
<stop stop-color="white"/>
<stop offset="0.14" stop-color="#BEBDBD"/>
<stop offset="0.31" stop-color="#7D7B7B"/>
<stop offset="0.46" stop-color="#484646"/>
<stop offset="0.58" stop-color="#231F1F"/>
<stop offset="0.69" stop-color="#0C0808"/>
<stop offset="0.75" stop-color="#040000"/>
</radialGradient>
<linearGradient id="paint11_linear_384_1323" x1="13.1718" y1="31.3345" x2="13.4851" y2="60.5636" gradientUnits="userSpaceOnUse">
<stop stop-color="#A4A4A4"/>
<stop offset="1" stop-color="white" stop-opacity="0"/>
</linearGradient>
<linearGradient id="paint12_linear_384_1323" x1="26.3772" y1="59.4827" x2="56.905" y2="59.1409" gradientUnits="userSpaceOnUse">
<stop stop-color="#A4A4A4"/>
<stop offset="1" stop-color="white" stop-opacity="0"/>
</linearGradient>
<linearGradient id="paint13_linear_384_1323" x1="46.5497" y1="46.4887" x2="64.957" y2="15.624" gradientUnits="userSpaceOnUse">
<stop stop-color="#A4A4A4"/>
<stop offset="1" stop-color="white" stop-opacity="0"/>
</linearGradient>
</defs>
</svg>
