<svg width="20" height="21" viewBox="0 0 20 21" fill="none" xmlns="http://www.w3.org/2000/svg">
<g clip-path="url(#clip0_111_11996)">
<path d="M1.65625 6.08926C2.26172 4.82754 3.11719 3.76114 4.19531 2.87442C5.65625 1.66739 7.33203 0.940825 9.21094 0.718168C11.418 0.45645 13.4922 0.874418 15.4102 2.02286C15.8867 2.30801 16.332 2.63223 16.7578 2.98379C16.8633 3.06973 16.8516 3.12051 16.7617 3.20645C15.8906 4.07364 15.0195 4.94082 14.1562 5.81582C14.0547 5.91739 14 5.90958 13.8906 5.82754C11.3594 3.87832 7.66797 4.40567 5.78125 6.98379C5.44922 7.43692 5.17969 7.9252 4.99219 8.45645C4.97656 8.50333 4.94531 8.54629 4.92188 8.59317C4.41797 8.21036 3.91016 7.82754 3.41016 7.44083C2.82422 6.99161 2.23828 6.54239 1.65625 6.08926Z" fill="#E94335"/>
<path d="M4.92188 12.2572C5.08984 12.6283 5.23047 13.015 5.44141 13.3627C6.32812 14.8158 7.59375 15.7494 9.26172 16.0814C10.7656 16.3822 12.2109 16.1791 13.5586 15.4252C13.6055 15.4017 13.6523 15.3783 13.6953 15.3549C13.7188 15.3783 13.7383 15.4056 13.7617 15.4252C14.7695 16.2064 15.7812 16.9877 16.7891 17.7689C16.3047 18.2494 15.7539 18.6361 15.168 18.972C13.4688 19.9408 11.6289 20.3314 9.69141 20.183C7.27734 19.9955 5.19531 19.0424 3.47656 17.3236C2.72266 16.5697 2.10156 15.7181 1.65234 14.7455C2.07031 14.4252 2.48828 14.1088 2.90625 13.7885C3.57813 13.2767 4.25 12.7689 4.92188 12.2572Z" fill="#34A853"/>
<path d="M16.7932 17.7689C15.7854 16.9877 14.7737 16.2064 13.7659 15.4252C13.7424 15.4056 13.719 15.3783 13.6995 15.3549C14.0471 15.0853 14.4026 14.8236 14.6878 14.4799C15.1643 13.9095 15.4807 13.265 15.6448 12.5424C15.6643 12.4525 15.6487 12.4213 15.5589 12.4252C15.512 12.4291 15.469 12.4252 15.4221 12.4252C13.8284 12.4252 12.2307 12.4213 10.637 12.4291C10.4612 12.4291 10.4221 12.3822 10.426 12.2142C10.4339 11.0814 10.4339 9.94861 10.426 8.8158C10.426 8.67126 10.4651 8.6322 10.6096 8.6322C13.5315 8.63611 16.4534 8.63611 19.3792 8.6322C19.5042 8.6322 19.5549 8.66345 19.5862 8.79626C19.8245 9.87048 19.8089 10.9486 19.6643 12.0345C19.5471 12.9017 19.3362 13.7416 19.012 14.5541C18.5315 15.7533 17.8245 16.8002 16.8948 17.6986C16.8596 17.726 16.8245 17.7455 16.7932 17.7689Z" fill="#4285F3"/>
<path d="M4.92178 12.2572C4.24991 12.7689 3.57803 13.2767 2.90616 13.7885C2.48819 14.1049 2.07022 14.4252 1.65225 14.7455C1.32803 14.1439 1.1171 13.5072 0.945221 12.851C0.617096 11.5814 0.566315 10.2924 0.746002 8.99939C0.886627 7.98376 1.1796 7.0072 1.65225 6.09314C2.23819 6.54236 2.82022 6.99548 3.40616 7.4447C3.91006 7.83142 4.41397 8.21423 4.91788 8.59705C4.83194 9.01501 4.71085 9.42517 4.67178 9.85486C4.60147 10.6361 4.67569 11.3978 4.89835 12.1478C4.91397 12.1791 4.91788 12.2181 4.92178 12.2572Z" fill="#FABB06"/>
</g>
<defs>
<clipPath id="clip0_111_11996">
<rect width="20" height="20" fill="white" transform="translate(0 0.390015)"/>
</clipPath>
</defs>
</svg>
