<svg width="215" height="48" viewBox="0 0 215 48" fill="none" xmlns="http://www.w3.org/2000/svg">
<path d="M11.6198 18.4885C7.80905 16.1565 2.45642 10.0763 0 6.98567V48H215V27.8796C213.171 21.9099 208.887 8.74815 206.379 3.85869C203.871 -1.03077 201.503 1.44239 200.632 3.29015C200.109 5.46956 198.49 12.0457 196.191 20.915C193.892 29.7842 190.356 31.1487 188.876 30.7223L184.435 28.7324C180.464 27.0268 178.252 27.4532 177.643 27.8796C171.791 33.4513 167.542 33.8019 166.148 33.2807C165.452 32.9017 163.327 31.2908 160.401 27.8796C157.475 24.4683 155.699 24.2788 155.176 24.6105C154.654 24.3736 152.616 25.1506 148.645 30.1538C144.674 35.1569 141.766 33.565 140.808 32.1437C140.46 31.7646 139.084 29.5284 136.367 23.6155C132.971 16.2245 131.142 17.788 123.044 23.047C116.565 27.2542 107.282 24.9895 103.451 23.3313C102.406 22.9522 99.4799 21.5403 96.1361 18.9251C92.7922 16.3098 89.3439 10.16 88.0377 7.41208C87.6894 6.22762 86.5225 3.85869 84.6415 3.85869C82.7606 3.85869 81.7679 5.28005 81.5067 5.99073C80.6359 8.59654 78.4241 15.4854 76.5431 22.1942C75.339 26.489 73.8565 28.7606 72.6714 29.8517C71.783 30.6696 70.3725 30.7007 69.4648 29.9043C68.7293 29.259 67.7139 28.1836 66.3548 26.4582C64.1804 23.6978 62.1317 22.5101 60.8189 21.994C60.0064 21.6747 59.1234 21.6256 58.2505 21.6256C57.5586 21.6256 56.867 21.6691 56.187 21.7961C52.5138 22.4824 45.8525 24.4492 42.0595 28.1639C37.8797 32.2574 34.2224 30.3433 32.9162 28.8745C29.7813 23.644 25.8627 20.0148 24.2953 18.7829C23.6857 18.546 22.2053 17.9947 19.593 18.6408C18.0213 19.0295 16.1159 19.1746 14.6782 19.2123C13.6071 19.2405 12.5337 19.0478 11.6198 18.4885Z" fill="url(#paint0_linear_43_1097)"/>
<path d="M0.5 7C2.94269 10.1285 8.4864 16.3308 12.3334 18.7132C13.2592 19.2865 14.3492 19.4877 15.4377 19.4574C16.8652 19.4177 18.745 19.2699 20.2976 18.879C22.8987 18.2242 24.3726 18.783 24.9795 19.0231C26.5402 20.2716 30.4417 23.9498 33.563 29.251C34.8635 30.7396 38.505 32.6795 42.6667 28.5307C46.4433 24.7658 53.076 22.7724 56.7332 22.0769C57.4099 21.9483 58.0985 21.9042 58.7874 21.9042V21.9042C59.6565 21.9042 60.5357 21.9542 61.3427 22.2768C62.6497 22.7995 64.6905 24.003 66.8565 26.8021C68.1995 28.5376 69.2054 29.6242 69.9364 30.2798C70.846 31.0957 72.2745 31.0643 73.1627 30.2252C74.3398 29.1132 75.8074 26.8122 77.0005 22.4804C78.8733 15.681 81.0755 8.69914 81.9426 6.05813C82.2027 5.33785 83.191 3.8973 85.0638 3.8973C86.9366 3.8973 88.0984 6.29822 88.4452 7.49868C89.7457 10.2837 93.1791 16.5165 96.5084 19.1672C99.8378 21.8178 102.751 23.2487 103.791 23.6329C107.606 25.3135 116.849 27.6088 123.299 23.3448C131.363 18.0147 133.183 16.4301 136.565 23.921C139.27 29.9137 140.64 32.1801 140.986 32.5643C141.94 34.0048 144.836 35.6183 148.79 30.5475C152.743 25.4768 154.772 24.6893 155.292 24.9294C155.812 24.5932 157.581 24.7853 160.494 28.2426C163.407 31.7 165.523 33.3326 166.217 33.7167C167.604 34.2449 171.835 33.8896 177.661 28.2426C178.268 27.8105 180.47 27.3783 184.424 29.107L188.846 31.1237C190.32 31.5559 193.84 30.173 196.129 21.1839C198.418 12.1949 200.03 5.52993 200.55 3.32108C201.417 1.44836 203.776 -1.0582 206.273 3.8973C208.77 8.8528 212.179 20.2019 214 26.2522" stroke="#AD68FF" stroke-width="1.0377"/>
<defs>
<linearGradient id="paint0_linear_43_1097" x1="107.5" y1="1" x2="107.5" y2="48" gradientUnits="userSpaceOnUse">
<stop stop-color="#9154DA"/>
<stop offset="1" stop-color="#9154DA" stop-opacity="0"/>
</linearGradient>
</defs>
</svg>
