<svg width="118" height="27" viewBox="0 0 118 27" fill="none" xmlns="http://www.w3.org/2000/svg">
<path d="M0.929932 2.5525L5.79085 2.67383L10.6523 0.75L15.5133 0.866083L20.3742 3.75883L25.2357 8.36308L30.0966 8.20383L34.9575 9.297L39.819 15.3065L44.6799 21.7774L49.5408 18.6251L54.4023 18.5457L59.2633 17.4497L64.1242 17.9338L68.9857 18.9926L73.8466 22.5667L78.7075 19.7322L83.569 19.3356L88.4299 19.8361L93.2908 18.7062L98.1523 17.0052L103.013 17.6165L107.874 16.2608L112.736 16.1162L117.597 26.4167H0.929932V2.5525Z" fill="url(#paint0_linear_0_6893)"/>
<path d="M0.929932 2.5525L5.79085 2.67383L10.6523 0.75L15.5133 0.866083L20.3742 3.75883L25.2357 8.36308L30.0966 8.20383L34.9575 9.297L39.819 15.3065L44.6799 21.7774L49.5408 18.6251L54.4023 18.5457L59.2633 17.4497L64.1242 17.9338L68.9857 18.9926L73.8466 22.5667L78.7075 19.7322L83.569 19.3356L88.4299 19.8361L93.2908 18.7062L98.1523 17.0052L103.013 17.6165L107.874 16.2608L112.736 16.1162" stroke="#40C9A6" stroke-opacity="0.8" stroke-width="1.16667" stroke-linecap="round" stroke-linejoin="round"/>
<defs>
<linearGradient id="paint0_linear_0_6893" x1="0.929932" y1="0.75" x2="0.929932" y2="26.4167" gradientUnits="userSpaceOnUse">
<stop stop-color="#40C9A6" stop-opacity="0.47"/>
<stop offset="0.9" stop-color="#40C9A6" stop-opacity="0.1"/>
<stop offset="1" stop-color="white" stop-opacity="0.05"/>
</linearGradient>
</defs>
</svg>
