<svg width="375" height="250" viewBox="0 0 375 250" fill="none" xmlns="http://www.w3.org/2000/svg">
<path d="M333.474 75.1374L328.689 98.3094L325.611 95.3069L320.37 99.0429L316.366 94.0724L307.383 100.602L299.712 87.7669L291.15 92.7809L287.756 88.0994L276.885 94.2244L273.614 87.2229L281.233 50.3174L322.086 58.7519L333.474 75.1374Z" fill="#EBEBEB"/>
<path d="M322.085 58.7524L333.475 75.1359L319.307 72.2109L322.085 58.7524Z" fill="#DBDBDB"/>
<path d="M327.671 102.941L320.653 136.938L265.631 125.581L272.596 91.8545L275.867 98.8555L286.738 92.7305L290.132 97.4125L298.694 92.3985L306.365 105.233L315.348 98.7035L319.352 103.674L324.593 99.9385L327.671 102.941Z" fill="#EBEBEB"/>
<path d="M248.916 98.9567L192.841 102.427L188.387 30.4437L230.022 27.8672L245.311 40.6897L248.916 98.9567Z" fill="#EBEBEB"/>
<path d="M230.022 27.8672L245.311 40.6897L230.871 41.5832L230.022 27.8672Z" fill="#DBDBDB"/>
<path d="M214.478 76.2985L214.261 74.675C213.695 71.3095 214.617 67.546 217.541 63.608C220.177 60.126 221.608 57.592 221.45 54.7705C221.271 51.572 219.145 49.552 215.19 49.7105C212.932 49.837 210.466 50.73 208.965 52.0095L207.238 48.1425C209.224 46.5215 212.742 45.318 216.066 45.1315C223.278 44.7275 226.788 48.998 227.055 53.7635C227.294 58.0285 225.083 61.2345 222.273 64.978C219.696 68.3935 218.847 71.2095 219.215 74.397L219.369 76.024L214.478 76.2985ZM213.59 85.1555C213.46 82.835 214.936 81.1165 217.131 80.9935C219.326 80.8705 220.922 82.417 221.052 84.7375C221.175 86.9325 219.828 88.7065 217.507 88.8365C215.313 88.9595 213.713 87.3505 213.59 85.1555Z" fill="#DBDBDB"/>
<path d="M74.2405 64.057L68.5975 61.498L67.815 63.226C67.585 63.734 67.0865 64.0585 66.529 64.083C66.221 64.0965 65.913 64.127 65.6065 64.1735C65.0565 64.2575 64.5055 64.036 64.1815 63.584L63.077 62.042L58.0385 65.652L59.143 67.1935C59.467 67.646 59.4995 68.2385 59.2435 68.7325C59.1005 69.0075 58.973 69.2895 58.861 69.577C58.6585 70.097 58.191 70.4645 57.636 70.519L55.748 70.704L56.3565 76.87L58.251 76.6815C58.8065 76.626 59.332 76.9025 59.6335 77.3725C59.7155 77.5 59.801 77.626 59.8895 77.75C59.9785 77.874 60.07 77.9955 60.1645 78.114C60.5105 78.5485 60.6035 79.132 60.3745 79.638L59.5865 81.3785L65.2295 83.9375L66.0155 82.206C66.246 81.698 66.7455 81.374 67.303 81.35C67.61 81.337 67.9165 81.307 68.222 81.261C68.7715 81.178 69.3215 81.399 69.6455 81.851L70.7505 83.3935L75.789 79.7835L74.684 78.241C74.3605 77.789 74.3275 77.197 74.583 76.7035C74.725 76.4295 74.8515 76.1485 74.9625 75.862C75.1645 75.342 75.6315 74.9735 76.187 74.9185L78.079 74.731L77.4705 68.565L75.5775 68.752C75.024 68.8065 74.5 68.531 74.1995 68.0625C74.117 67.9345 74.031 67.8075 73.9415 67.682C73.8525 67.558 73.761 67.4365 73.6665 67.318C73.3185 66.8815 73.2255 66.295 73.456 65.7865L74.2405 64.057ZM71.0395 69.7615C72.672 72.04 72.1485 75.2075 69.8705 76.84C67.592 78.4725 64.4205 77.952 62.788 75.6735C61.1555 73.395 61.68 70.2205 63.9585 68.588C66.2365 66.956 69.407 67.4835 71.0395 69.7615Z" fill="#EBEBEB"/>
<path d="M329.192 145.856L325.432 148.026L326.097 149.176C326.292 149.515 326.274 149.931 326.06 150.258C325.942 150.439 325.834 150.627 325.735 150.82C325.559 151.168 325.208 151.391 324.818 151.391H323.489V155.733H324.818C325.208 155.733 325.559 155.957 325.735 156.304C325.834 156.498 325.942 156.685 326.06 156.866C326.274 157.194 326.293 157.61 326.097 157.948L325.432 159.099L329.192 161.268L329.857 160.112C330.052 159.773 330.424 159.587 330.815 159.607C330.921 159.612 331.027 159.615 331.134 159.615C331.241 159.615 331.348 159.612 331.454 159.607C331.843 159.587 332.213 159.772 332.407 160.109L333.077 161.268L336.836 159.098L336.171 157.944C335.975 157.606 335.995 157.189 336.209 156.862C336.326 156.682 336.435 156.495 336.533 156.303C336.71 155.956 337.06 155.733 337.45 155.733H338.779V151.391H337.45C337.06 151.391 336.71 151.168 336.533 150.821C336.435 150.628 336.326 150.441 336.209 150.261C335.995 149.934 335.976 149.518 336.171 149.179L336.836 148.025L333.077 145.855L332.411 147.01C332.216 147.347 331.845 147.533 331.456 147.513C331.349 147.508 331.242 147.505 331.134 147.505C331.027 147.505 330.92 147.508 330.814 147.513C330.424 147.533 330.052 147.347 329.856 147.008L329.192 145.856ZM331.135 150.007C333.098 150.007 334.689 151.597 334.689 153.561C334.689 155.524 333.098 157.118 331.135 157.118C329.171 157.118 327.577 155.524 327.577 153.561C327.577 151.597 329.171 150.007 331.135 150.007Z" fill="#EBEBEB"/>
<path d="M85.6519 45.5816L82.2039 48.2181L83.0114 49.2731C83.2489 49.5836 83.2839 49.9986 83.1149 50.3506C83.0209 50.5451 82.9379 50.7451 82.8654 50.9501C82.7354 51.3171 82.4159 51.5841 82.0294 51.6346L80.7119 51.8061L81.2724 56.1121L82.5899 55.9406C82.9764 55.8901 83.3534 56.0666 83.5729 56.3881C83.6954 56.5676 83.8269 56.7396 83.9674 56.9036C84.2214 57.2006 84.2934 57.6111 84.1434 57.9716L83.6329 59.1986L87.6409 60.8646L88.1514 59.6326C88.3014 59.2716 88.6459 59.0386 89.0359 59.0076C89.1419 58.9991 89.2479 58.9881 89.3539 58.9746C89.4599 58.9606 89.5654 58.9446 89.6694 58.9251C90.0524 58.8551 90.4434 58.9911 90.6799 59.3001L91.4934 60.3631L94.9419 57.7266L94.1334 56.6681C93.8959 56.3576 93.8614 55.9421 94.0314 55.5901C94.1249 55.3961 94.2079 55.1971 94.2804 54.9931C94.4109 54.6266 94.7299 54.3601 95.1159 54.3096L96.4339 54.1381L95.8734 49.8321L94.5554 50.0036C94.1694 50.0541 93.7929 49.8781 93.5729 49.5566C93.4509 49.3781 93.3194 49.2071 93.1794 49.0436C92.9249 48.7466 92.8519 48.3361 93.0019 47.9751L93.5129 46.7451L89.5044 45.0791L88.9929 46.3096C88.8434 46.6696 88.4994 46.9016 88.1109 46.9321C88.0049 46.9406 87.8979 46.9516 87.7904 46.9656C87.6844 46.9796 87.5789 46.9956 87.4744 47.0146C87.0894 47.0851 86.6969 46.9481 86.4589 46.6371L85.6519 45.5816ZM88.1139 49.4466C90.0609 49.1931 91.8434 50.5651 92.0969 52.5121C92.3504 54.4591 90.9789 56.2451 89.0319 56.4986C87.0849 56.7521 85.2984 55.3771 85.0449 53.4301C84.7914 51.4831 86.1669 49.7001 88.1139 49.4466Z" fill="#EBEBEB"/>
<path d="M59.9092 158.392C60.1062 153.553 60.0272 148.706 59.7102 143.874C59.0562 133.909 57.4157 124.021 55.1627 114.297C53.8947 108.824 52.3327 103.443 50.7057 98.0681C50.6567 97.9056 50.3977 97.9516 50.4427 98.1206C55.4747 117.069 59.6032 136.623 59.3192 156.319C59.2397 161.831 58.6017 167.245 58.0782 172.723C58.0642 172.869 58.3052 172.928 58.3387 172.777C59.3767 168.09 59.7142 163.179 59.9092 158.392Z" fill="#EBEBEB"/>
<path d="M50.4419 98.1211C50.4419 98.1211 42.8189 117.47 44.5254 122.018C46.2324 126.566 49.7509 127.536 49.7509 127.536C49.7509 127.536 45.0869 134.195 48.3459 140.441C51.6054 146.686 58.8469 146.391 59.3279 153.473C59.3279 153.473 59.7314 123.863 50.4419 98.1211Z" fill="#EBEBEB"/>
<path d="M58.4995 141.246C58.509 141.213 58.5065 141.179 58.4915 141.144C57.421 127.988 55.087 114.872 51.0975 102.221C51.086 102.183 51.0245 102.195 51.0345 102.234C52.545 107.894 53.889 113.585 55.0375 119.306C54.0475 118.287 52.7525 117.701 51.3985 117.277C51.373 117.269 51.3605 117.306 51.3845 117.316C52.7945 117.926 54.145 118.632 55.1415 119.827C55.364 120.948 55.582 122.07 55.789 123.194C54.0855 121.29 51.723 120.345 49.359 119.447C49.3255 119.435 49.308 119.486 49.3405 119.499C51.8025 120.502 54.255 121.793 55.923 123.915C56.5045 127.126 57.0135 130.348 57.454 133.58C56.2085 132.279 54.6715 131.405 52.9085 130.975C52.8555 130.962 52.826 131.041 52.8795 131.056C54.691 131.578 56.249 132.592 57.4895 134.009C57.4985 134.019 57.508 134.024 57.518 134.031C57.6705 135.168 57.8145 136.306 57.9495 137.446C56.9905 136.628 55.9305 136.006 54.7635 135.524C54.7325 135.512 54.716 135.56 54.746 135.573C55.9315 136.077 56.998 136.805 57.937 137.685C57.9505 137.697 57.964 137.696 57.9775 137.701C58.1045 138.784 58.231 139.868 58.3405 140.954C56.593 138.848 54.432 137.324 51.875 136.338C51.825 136.318 51.7995 136.395 51.8475 136.416C54.3335 137.497 56.525 139.209 58.2195 141.319C58.266 141.377 58.3265 141.386 58.38 141.369C58.545 143.034 58.6925 144.702 58.8145 146.373C58.816 146.396 58.8535 146.398 58.8525 146.375C58.757 144.664 58.6375 142.955 58.4995 141.246Z" fill="white"/>
<path d="M52.3748 115.354C51.0528 114.445 49.3728 114.057 47.7948 113.926C47.7568 113.923 47.7538 113.979 47.7908 113.984C49.4323 114.228 50.8113 114.822 52.3193 115.463C52.3848 115.491 52.4318 115.393 52.3748 115.354Z" fill="white"/>
<path d="M53.2996 135.84C52.2536 135.212 51.0601 134.857 49.8616 134.664C49.8196 134.657 49.8161 134.722 49.8571 134.729C51.0741 134.949 52.1521 135.382 53.2581 135.921C53.3051 135.945 53.3441 135.867 53.2996 135.84Z" fill="white"/>
<path d="M79.9496 122.333C76.7706 124.568 73.7196 127.146 71.1266 130.046C68.3626 133.137 66.3466 136.646 64.9386 140.54C62.0541 148.517 60.4731 157.159 60.3291 165.638C60.2481 170.391 60.6711 175.107 61.6881 179.752C61.7251 179.921 61.9776 179.873 61.9521 179.703C60.7091 171.529 60.7546 163.189 62.0901 155.031C63.4006 147.026 65.4571 138.318 70.5451 131.813C73.3156 128.271 76.7701 125.484 80.1851 122.604C80.3636 122.452 80.1341 122.203 79.9496 122.333Z" fill="#EBEBEB"/>
<path d="M61.4502 159.874C61.4502 159.874 64.0682 155.465 67.8817 151.653C71.6952 147.84 74.9072 145.131 75.4027 142.609C75.8987 140.088 71.5827 138.231 71.5827 138.231C71.5827 138.231 76.8602 139.178 78.3042 136.963C79.7482 134.749 80.4452 121.921 80.4452 121.921C80.4452 121.921 70.8447 128.775 66.3712 138.384C61.8982 147.992 61.4502 159.874 61.4502 159.874Z" fill="#EBEBEB"/>
<path d="M77.1236 125.21C73.0841 129.177 69.0186 133.405 66.6396 138.618C65.8241 140.405 65.1301 142.258 64.5191 144.146C64.5176 144.149 64.5176 144.152 64.5161 144.155C64.3936 144.534 64.2691 144.912 64.1536 145.294C64.1421 145.313 64.1361 145.334 64.1341 145.356C62.9581 149.249 62.1266 153.275 61.4066 157.207C61.4021 157.233 61.4406 157.246 61.4456 157.22C61.8591 155.218 62.3156 153.197 62.8251 151.182C62.8431 151.183 62.8626 151.179 62.8826 151.171C63.6991 150.828 64.5206 150.613 65.4021 150.531C65.4596 150.526 65.4551 150.426 65.3966 150.429C64.5461 150.47 63.7131 150.619 62.9046 150.884C63.3696 149.067 63.8751 147.255 64.4436 145.469C66.2971 145.015 68.2316 144.77 70.1376 144.725C70.1571 144.724 70.1606 144.695 70.1401 144.694C68.2186 144.604 66.4126 144.77 64.5411 145.169C64.6401 144.863 64.7431 144.558 64.8456 144.253C66.0971 143.968 67.3541 143.728 68.6346 143.611C68.6576 143.609 68.6556 143.569 68.6326 143.57C67.3786 143.604 66.1426 143.735 64.9226 144.021C65.4451 142.475 66.0096 140.951 66.6356 139.467C67.1536 138.239 67.7696 137.073 68.4481 135.947C69.4746 135.715 70.4696 135.494 71.5216 135.399C71.5506 135.397 71.5476 135.35 71.5191 135.348C70.5641 135.286 69.5696 135.358 68.6456 135.632C69.1506 134.817 69.6811 134.018 70.2491 133.244C72.4021 132.767 74.5846 132.324 76.7871 132.738C76.8251 132.745 76.8391 132.681 76.8016 132.671C74.7051 132.12 72.6241 132.438 70.5381 132.851C70.7656 132.548 70.9986 132.249 71.2336 131.951C72.5551 131.543 73.8696 131.345 75.2561 131.319C75.2846 131.319 75.2891 131.278 75.2596 131.275C73.9941 131.154 72.7321 131.276 71.5091 131.608C73.2891 129.396 75.2551 127.319 77.1986 125.265C77.2896 125.171 77.2196 125.116 77.1236 125.21Z" fill="white"/>
<path d="M77.0168 133.954C76.3848 133.886 75.7423 133.816 75.1073 133.887C75.0303 133.896 75.0368 134.021 75.1143 134.023C75.7463 134.042 76.3783 133.995 77.0103 134.029C77.0588 134.032 77.0648 133.959 77.0168 133.954Z" fill="white"/>
<path d="M70.1061 146.398C69.0971 146.385 68.0896 146.657 67.1471 146.992C67.1236 147 67.1366 147.04 67.1611 147.034C68.1381 146.801 69.1266 146.707 70.1136 146.544C70.1946 146.531 70.1906 146.399 70.1061 146.398Z" fill="white"/>
<path d="M68.0348 142.099C67.6253 142.078 67.1823 142.15 66.7788 142.213C66.7373 142.219 66.7398 142.287 66.7828 142.288C67.1908 142.295 67.6398 142.306 68.0418 142.229C68.1128 142.215 68.1098 142.103 68.0348 142.099Z" fill="white"/>
<path d="M33.3063 135.947C36.3958 137.021 39.4603 138.402 42.2293 140.149C45.1808 142.012 47.6233 144.386 49.6628 147.211C53.8408 153.001 57.1178 159.629 59.1943 166.457C60.3583 170.285 61.1063 174.199 61.3568 178.194C61.3658 178.339 61.1503 178.359 61.1318 178.214C60.2483 171.312 58.2838 164.573 55.3173 158.279C52.4068 152.104 48.7298 145.532 43.1083 141.444C40.0473 139.218 36.6078 137.761 33.1783 136.219C32.9988 136.139 33.1268 135.885 33.3063 135.947Z" fill="#EBEBEB"/>
<path d="M56.9541 162.052C56.9541 162.052 53.8161 159.089 49.8491 156.885C45.8816 154.681 42.6561 153.231 41.6721 151.305C40.6881 149.379 43.7516 146.878 43.7516 146.878C43.7516 146.878 39.6996 148.865 38.0191 147.406C36.3386 145.948 32.8096 135.728 32.8096 135.728C32.8096 135.728 42.1636 139.056 48.0041 145.798C53.8451 152.54 56.9541 162.052 56.9541 162.052Z" fill="#EBEBEB"/>
<path d="M56.4668 159.944C51.7883 151.163 45.5458 143.219 36.9918 137.975C36.9878 137.973 36.9843 137.979 36.9878 137.981C39.2398 139.416 41.3148 141.071 43.2488 142.88C41.5173 142.832 39.7548 143.108 38.2198 143.942C38.1858 143.96 38.2103 144.006 38.2453 143.994C39.9563 143.415 41.5998 143.035 43.4198 143.12C43.4448 143.121 43.4608 143.108 43.4783 143.098C43.7818 143.386 44.0813 143.678 44.3778 143.973C43.4778 144.012 42.5673 144.139 41.6903 144.33C41.6668 144.335 41.6733 144.371 41.6973 144.367C42.6463 144.183 43.5728 144.119 44.5358 144.133C46.1033 145.708 47.5638 147.393 48.9478 149.142C48.3228 149.051 47.6678 149.104 47.0688 149.279C47.0243 149.292 47.0358 149.356 47.0823 149.35C47.7638 149.264 48.4118 149.275 49.0883 149.322C49.3443 149.648 49.6033 149.972 49.8543 150.302C47.9308 150.186 46.0463 150.371 44.1773 150.854C44.1498 150.861 44.1573 150.904 44.1858 150.898C46.1138 150.52 48.0578 150.399 50.0168 150.519C50.2553 150.836 50.4813 151.161 50.7153 151.481C49.5678 151.446 48.4548 151.59 47.3358 151.868C47.2933 151.879 47.3053 151.946 47.3488 151.936C48.4998 151.674 49.6703 151.607 50.8468 151.663C51.8533 153.05 52.8173 154.467 53.7438 155.902C53.2533 155.801 52.7383 155.856 52.2603 155.991C52.2348 155.998 52.2418 156.034 52.2683 156.031C52.8188 155.967 53.3328 156.038 53.8733 156.107C54.7063 157.404 55.5118 158.714 56.2833 160.032C56.3493 160.144 56.5288 160.061 56.4668 159.944Z" fill="white"/>
<path d="M49.1894 152.66C48.2749 152.582 47.3454 152.725 46.4719 152.993C46.4469 153 46.4529 153.038 46.4799 153.033C47.3794 152.868 48.2709 152.805 49.1824 152.756C49.2419 152.753 49.2534 152.666 49.1894 152.66Z" fill="white"/>
<path d="M41.0303 141.959C40.6168 141.912 40.1853 141.966 39.7768 142.032C39.7283 142.04 39.7433 142.111 39.7913 142.106C40.2033 142.062 40.6098 142.078 41.0223 142.065C41.0893 142.063 41.1003 141.967 41.0303 141.959Z" fill="white"/>
<path d="M69.0188 191.09H47.9043L50.9148 169.036L51.6843 163.382H65.2388L66.0078 169.036L69.0188 191.09Z" fill="#DBDBDB"/>
<path d="M66.008 169.036H50.915L51.6845 163.382H65.239L66.008 169.036Z" fill="#C7C7C7"/>
<path d="M67.1771 161.42H49.7461V166.209H67.1771V161.42Z" fill="#DBDBDB"/>
<path d="M34.4824 191.09L72.4869 190.968L110.491 190.924L186.5 190.84L262.509 190.924L300.514 190.968L338.518 191.09L300.514 191.212L262.509 191.256L186.5 191.339L110.491 191.256L72.4869 191.211L34.4824 191.09Z" fill="#263238"/>
<path d="M187.5 228.357C266.682 228.357 330.871 221.323 330.871 212.647C330.871 203.971 266.682 196.937 187.5 196.937C108.318 196.937 44.1289 203.971 44.1289 212.647C44.1289 221.323 108.318 228.357 187.5 228.357Z" fill="#EBEBEB"/>
<path d="M154.125 210.043C152.959 210.438 119.552 210.555 118.275 209.755C117.789 209.454 117.489 204.589 117.292 198.701C117.249 197.43 117.213 196.117 117.184 194.783L114.475 176.965L136.807 176.822L138.915 194.644L138.83 198.564C138.83 198.564 151.64 204.24 152.946 205.268C154.246 206.296 155.291 209.649 154.125 210.043Z" fill="#EB9481"/>
<path d="M154.125 210.043C152.959 210.438 119.552 210.555 118.275 209.755C117.685 209.385 117.363 202.281 117.184 194.783L138.915 194.643L138.83 198.563C138.83 198.563 151.64 204.239 152.946 205.268C154.246 206.296 155.291 209.649 154.125 210.043Z" fill="white"/>
<path d="M154.125 210.043C152.959 210.437 119.552 210.555 118.275 209.754C117.789 209.453 117.489 204.589 117.292 198.701L138.83 198.563C138.83 198.563 151.64 204.239 152.946 205.267C154.246 206.296 155.291 209.648 154.125 210.043Z" fill="#A6A6A6"/>
<path d="M153.641 208.709C148.041 208.591 125.441 208.644 119.896 208.953C119.851 208.956 119.851 208.986 119.896 208.988C125.445 209.226 148.043 208.99 153.642 208.8C153.76 208.797 153.759 208.711 153.641 208.709Z" fill="#263238"/>
<path d="M150.794 204.074C149.466 204.024 148.17 204.66 147.448 205.453C146.755 206.216 146.164 207.286 146.207 208.448C146.209 208.481 146.27 208.482 146.275 208.447C146.587 206.255 148.573 204.323 150.794 204.144C150.839 204.14 150.839 204.076 150.794 204.074Z" fill="#263238"/>
<path d="M141.005 199.113C138.763 199.09 136.167 199.89 134.781 201.728C134.727 201.799 134.829 201.874 134.895 201.84C136.918 200.788 138.841 200.003 141.044 199.388C141.2 199.345 141.165 199.114 141.005 199.113Z" fill="#263238"/>
<path d="M142.737 199.781C140.496 199.758 137.9 200.558 136.513 202.396C136.46 202.468 136.562 202.543 136.628 202.508C138.65 201.457 140.574 200.672 142.776 200.057C142.932 200.014 142.898 199.783 142.737 199.781Z" fill="#263238"/>
<path d="M144.47 200.45C142.228 200.427 139.632 201.227 138.246 203.065C138.192 203.136 138.294 203.211 138.36 203.177C140.383 202.125 142.306 201.34 144.509 200.726C144.665 200.682 144.63 200.451 144.47 200.45Z" fill="#263238"/>
<path d="M146.203 201.118C143.961 201.095 141.366 201.895 139.979 203.733C139.925 203.804 140.027 203.88 140.094 203.845C142.116 202.794 144.04 202.009 146.242 201.394C146.398 201.35 146.363 201.12 146.203 201.118Z" fill="#263238"/>
<path d="M121.304 203.629C118.789 203.645 118.81 207.554 121.329 207.537C123.843 207.521 123.823 203.613 121.304 203.629Z" fill="#263238"/>
<path d="M143.406 193.123C142.268 192.186 140.842 193.111 140.146 194.09C139.018 195.676 138.248 197.897 138.129 199.829C138.127 199.877 138.163 199.896 138.199 199.893C138.248 200.054 138.438 200.188 138.603 200.073C140.195 198.963 142.034 197.975 143.238 196.41C143.941 195.495 144.482 194.009 143.406 193.123ZM140.672 197.897C139.903 198.461 139.11 198.985 138.361 199.578C138.758 198.459 139.104 197.33 139.613 196.252C139.856 195.738 140.115 195.214 140.426 194.737C140.911 193.995 143.104 192.114 143.336 194.552C143.463 195.896 141.59 197.223 140.672 197.897Z" fill="#263238"/>
<path d="M132.563 200.679C134.515 200.972 136.527 200.409 138.443 200.105C138.642 200.074 138.686 199.845 138.609 199.696C138.638 199.672 138.651 199.633 138.616 199.601C137.191 198.291 135.096 197.225 133.184 196.864C132.003 196.641 130.335 196.963 130.164 198.427C130.003 199.812 131.423 200.508 132.563 200.679ZM131.205 199.408C129.681 197.491 132.566 197.326 133.43 197.525C133.985 197.653 134.535 197.85 135.066 198.052C136.18 198.476 137.213 199.05 138.274 199.581C137.323 199.673 136.389 199.845 135.443 199.972C134.315 200.123 132.045 200.466 131.205 199.408Z" fill="#263238"/>
<path d="M81.6582 94.6011C81.6582 94.6011 107.593 138.721 108.288 141.819C109.355 146.579 115.011 193.586 115.011 193.586L141.997 193.1C141.997 193.1 137.346 151.655 132.941 138C129.768 128.165 106.88 95.5456 106.88 95.5456L81.6582 94.6011Z" fill="#37474F"/>
<path d="M139.542 188.963C135.667 188.935 121.934 188.78 116.775 189.261C116.736 189.265 116.737 189.33 116.776 189.336C118.552 189.591 135.67 189.194 139.544 189.069C139.617 189.067 139.615 188.963 139.542 188.963Z" fill="#263238"/>
<path d="M86.0849 98.6497C87.7844 101.315 89.5774 103.925 91.3149 106.568C93.0534 109.211 94.7854 111.859 96.4949 114.521C99.9114 119.841 103.239 125.217 106.505 130.627C108.037 133.164 109.496 135.724 110.548 138.492C111.59 141.233 112.3 144.085 112.825 146.96C113.354 149.856 113.702 152.78 114.031 155.703C114.381 158.816 114.726 161.929 115.073 165.042C115.784 171.411 116.495 177.781 117.206 184.15C117.293 184.931 117.379 185.712 117.457 186.495C117.469 186.609 117.264 186.632 117.249 186.517C116.455 180.188 115.796 173.84 115.074 167.503C114.715 164.348 114.356 161.193 113.997 158.038C113.663 155.104 113.346 152.167 112.891 149.249C112.443 146.382 111.863 143.527 110.99 140.753C110.079 137.854 108.788 135.132 107.259 132.496C104.132 127.103 100.823 121.801 97.5124 116.514C94.1734 111.181 90.8064 105.862 87.3144 100.623C86.8834 99.9757 86.4484 99.3327 86.0014 98.6957C85.9664 98.6457 86.0519 98.5982 86.0849 98.6497Z" fill="#263238"/>
<path d="M90.1605 212.646C88.93 212.57 57.1625 199.699 56.277 198.479C56.2475 198.438 56.23 198.358 56.2285 198.244C56.2345 197.152 58.4345 193.328 60.273 188.311C60.388 187.99 61.208 186.502 62.346 184.494C65.474 178.979 71.009 169.533 71.009 169.533L91.7735 177.783L81.8345 192.661L80.2875 196.261C80.2875 196.261 90.033 206.333 90.856 207.774C91.674 209.215 91.3865 212.715 90.1605 212.646Z" fill="#EB9481"/>
<path d="M90.1605 212.646C88.93 212.57 57.1625 199.699 56.277 198.479C56.2475 198.438 56.23 198.358 56.2285 198.244C56.2345 197.152 58.4345 193.328 60.273 188.311C60.388 187.99 61.208 186.502 62.346 184.494L81.835 192.661L80.288 196.261C80.288 196.261 90.0335 206.333 90.8565 207.774C91.674 209.215 91.3865 212.715 90.1605 212.646Z" fill="white"/>
<path d="M90.1588 212.643C88.9303 212.572 57.1618 199.699 56.2783 198.478C55.9408 198.016 57.3613 193.678 60.2713 188.312L80.2883 196.264C80.2883 196.264 90.0338 206.331 90.8588 207.775C91.6768 209.215 91.3873 212.715 90.1588 212.643Z" fill="#A6A6A6"/>
<path d="M90.2108 211.225C85.0638 209.015 64.0943 200.586 58.8383 198.792C58.7958 198.778 58.7843 198.806 58.8253 198.825C63.8793 201.127 84.9163 209.385 90.1768 211.31C90.2878 211.351 90.3193 211.271 90.2108 211.225Z" fill="#263238"/>
<path d="M89.3105 205.859C88.098 205.315 86.6585 205.418 85.692 205.883C84.7635 206.329 83.8135 207.1 83.4185 208.193C83.407 208.224 83.464 208.248 83.4815 208.218C84.5935 206.302 87.1595 205.257 89.285 205.924C89.3275 205.938 89.3525 205.878 89.3105 205.859Z" fill="#263238"/>
<path d="M82.0969 197.588C80.0279 196.726 77.3214 196.494 75.3464 197.677C75.2699 197.723 75.3364 197.831 75.4109 197.824C77.6804 197.608 79.7574 197.602 82.0299 197.859C82.1904 197.877 82.2449 197.65 82.0969 197.588Z" fill="#263238"/>
<path d="M83.4524 198.858C81.3834 197.995 78.6769 197.763 76.7019 198.947C76.6254 198.993 76.6919 199.101 76.7664 199.093C79.0354 198.877 81.1129 198.871 83.3854 199.128C83.5459 199.146 83.6004 198.92 83.4524 198.858Z" fill="#263238"/>
<path d="M84.8079 200.128C82.7389 199.265 80.0324 199.033 78.0574 200.217C77.9809 200.263 78.0474 200.371 78.1219 200.364C80.3909 200.148 82.4684 200.141 84.7409 200.398C84.9009 200.416 84.9559 200.189 84.8079 200.128Z" fill="#263238"/>
<path d="M86.163 201.398C84.094 200.535 81.3875 200.303 79.413 201.487C79.3365 201.533 79.4025 201.641 79.4775 201.634C81.747 201.418 83.8239 201.412 86.0964 201.668C86.2564 201.686 86.3115 201.46 86.163 201.398Z" fill="#263238"/>
<path d="M62.1406 194.385C59.8036 193.456 58.3566 197.087 60.6976 198.017C63.0351 198.945 64.4821 195.315 62.1406 194.385Z" fill="#263238"/>
<path d="M86.5699 192.937C85.8664 191.642 84.1979 191.964 83.1854 192.611C81.5454 193.658 79.9979 195.427 79.1634 197.174C79.1429 197.217 79.1694 197.248 79.2044 197.259C79.1889 197.426 79.3149 197.622 79.5114 197.577C81.4034 197.146 83.4794 196.92 85.1824 195.921C86.1764 195.338 87.2349 194.163 86.5699 192.937ZM82.2454 196.337C81.3199 196.572 80.3889 196.76 79.4724 197.029C80.2594 196.141 81.0039 195.223 81.8799 194.415C82.2979 194.03 82.7349 193.642 83.2024 193.316C83.9299 192.81 86.6689 191.889 85.9689 194.236C85.5829 195.53 83.3484 196.057 82.2454 196.337Z" fill="#263238"/>
<path d="M73.6842 195.874C75.3842 196.878 77.4597 197.111 79.3502 197.548C79.5462 197.594 79.6727 197.399 79.6582 197.231C79.6932 197.22 79.7202 197.189 79.6997 197.146C78.8702 195.396 77.3282 193.623 75.6917 192.57C74.6807 191.921 73.0132 191.594 72.3062 192.887C71.6367 194.11 72.6917 195.288 73.6842 195.874ZM72.9027 194.187C72.2102 191.838 74.9462 192.767 75.6717 193.276C76.1382 193.602 76.5737 193.992 76.9907 194.379C77.8642 195.189 78.6062 196.109 79.3907 196.999C78.4752 196.728 77.5447 196.537 76.6197 196.299C75.5177 196.016 73.2842 195.482 72.9027 194.187Z" fill="#263238"/>
<path d="M83.4368 191.828L60.1943 182.443C60.1943 182.443 89.0123 140.07 89.2258 136.917C89.4143 134.123 76.7568 109.812 76.2578 102.727C75.7193 95.0812 79.4013 89.1632 83.4468 85.4907L107.424 95.6832C107.424 95.6832 104.894 99.7317 100.907 101.985C100.907 101.985 113.203 130.086 112.506 138.726C111.805 147.413 83.4368 191.828 83.4368 191.828Z" fill="#37474F"/>
<path d="M84.4695 187.408C81.1085 185.963 82.0935 186.33 78.716 184.922C77.0635 184.233 66.199 179.717 64.545 179.345C64.5085 179.337 64.485 179.395 64.517 179.414C65.963 180.3 76.904 184.626 78.5695 185.283C81.973 186.625 81.0105 186.203 84.429 187.507C84.4935 187.531 84.5325 187.435 84.4695 187.408Z" fill="#263238"/>
<path d="M104.855 101.471C102.357 102.008 99.9069 102.891 97.5529 103.839C97.4604 103.877 97.5039 104.014 97.6029 103.985C100.054 103.269 102.547 102.601 104.953 101.755C105.142 101.689 105.047 101.43 104.855 101.471Z" fill="#263238"/>
<path d="M102.011 100.484C101.774 100.896 101.574 101.33 101.395 101.769C101.256 102.109 101.078 102.474 101.08 102.846C101.081 102.918 101.178 102.935 101.222 102.891C101.501 102.617 101.649 102.217 101.825 101.876C102.029 101.48 102.242 101.088 102.434 100.687C102.562 100.421 102.156 100.23 102.011 100.484Z" fill="#263238"/>
<path d="M102.302 98.2303C102.449 97.8613 102.597 97.4928 102.752 97.1273C102.912 96.7488 103.099 96.3758 103.23 95.9863C103.251 95.9248 103.348 95.9663 103.324 96.0283C103.177 96.3978 103.081 96.7918 102.964 97.1718C102.846 97.5533 102.721 97.9323 102.595 98.3113C102.36 99.0168 102.073 99.7168 101.77 100.398C102.162 100.393 102.565 100.375 102.922 100.198C103.309 100.005 103.544 99.5938 103.734 99.2223C103.946 98.8098 104.14 98.3878 104.357 97.9783C104.598 97.5253 104.864 97.0773 105.022 96.5868C105.042 96.5248 105.138 96.5663 105.116 96.6283C104.755 97.6408 104.4 98.6518 103.839 99.5848C103.618 99.9513 103.439 100.333 103.033 100.476C102.596 100.63 102.119 100.6 101.664 100.567C101.608 100.583 101.536 100.547 101.555 100.479C101.77 99.7243 102.011 98.9593 102.302 98.2303Z" fill="#263238"/>
<path d="M101.282 102.9C102.134 104.707 102.884 106.507 103.68 108.307C104.459 110.066 105.188 111.845 105.895 113.633C107.325 117.247 108.606 120.926 109.73 124.646C110.286 126.487 110.798 128.341 111.261 130.208C111.725 132.079 112.178 133.97 112.371 135.892C112.564 137.82 112.426 139.726 111.889 141.591C111.344 143.482 110.626 145.134 109.773 146.904C109.252 147.985 109.073 147.839 109.325 147.293C110.041 145.745 111.915 141.051 111.779 137.104C111.713 135.2 111.322 133.325 110.892 131.475C110.453 129.587 109.958 127.712 109.417 125.85C108.352 122.181 107.087 118.585 105.786 114.995C105.057 112.984 104.274 110.993 103.534 108.986C102.789 106.964 102.02 105.144 101.193 102.936C101.171 102.878 101.256 102.844 101.282 102.9Z" fill="#263238"/>
<path d="M83.6344 96.933C84.0509 96.779 84.6284 97.034 85.0529 97.105C85.5974 97.1965 86.1479 97.252 86.6999 97.271C87.2439 97.2895 87.7924 97.2675 88.3339 97.2145C88.8754 97.162 89.4279 97.095 89.8984 96.801C90.6914 96.306 91.3554 95.434 91.8929 94.683C92.4834 93.8575 93.0964 92.9085 93.4484 91.9525C93.4699 91.894 93.5544 91.934 93.5359 91.9915C93.3609 92.549 93.2309 93.111 93.0084 93.6555C92.7989 94.168 92.5284 94.658 92.2414 95.13C91.7054 96.012 91.0904 96.9535 90.1714 97.478C89.2069 98.0285 87.9644 97.9955 86.8889 97.9335C86.2669 97.8975 85.6474 97.8155 85.0374 97.687C84.5974 97.594 83.8569 97.5235 83.5764 97.137C83.5259 97.069 83.5524 96.9635 83.6344 96.933Z" fill="#263238"/>
<path d="M66.8295 178.013C70.65 172.232 74.3995 166.403 78.0815 160.532C81.773 154.645 85.3965 148.716 88.9695 142.757C89.824 141.332 90.8115 139.907 91.362 138.329C91.9605 136.613 91.6205 134.95 91.0785 133.271C90.0845 130.192 88.8465 127.195 87.51 124.25C86.1695 121.296 84.7265 118.39 83.3065 115.474C81.8985 112.582 80.4 109.68 79.332 106.64C78.312 103.737 77.9235 100.726 78.7065 97.7141C79.4835 94.7261 81.164 92.0431 82.919 89.5391C83.382 88.8786 83.8535 88.2241 84.318 87.5646C84.3535 87.5146 84.4295 87.5751 84.3925 87.6251C82.4585 90.2356 80.5725 92.9986 79.4385 96.0636C78.878 97.5781 78.515 99.1726 78.4795 100.791C78.443 102.432 78.7515 104.061 79.235 105.624C80.1755 108.664 81.66 111.543 83.043 114.399C84.457 117.318 85.909 120.22 87.2725 123.164C88.6445 126.126 89.9275 129.133 90.982 132.224C91.4515 133.6 91.975 135.04 91.944 136.515C91.91 138.13 91.139 139.584 90.341 140.945C86.865 146.873 83.2565 152.727 79.6035 158.547C75.9365 164.389 72.197 170.186 68.3995 175.944C67.9205 176.67 67.4405 177.395 66.96 178.12C66.9005 178.209 66.7705 178.103 66.8295 178.013Z" fill="#263238"/>
<path d="M108.755 68.7343C110.919 73.4848 121.852 80.0308 126.972 80.7343C130.656 81.2403 141.842 81.4143 145.678 80.8288C150.17 80.1428 146.738 68.0138 144.082 68.3243C136.782 69.1778 130.584 70.1278 128.635 70.1278C126.256 70.1278 113.379 65.9948 111.828 65.4133C108.03 63.9898 107.528 66.0398 108.755 68.7343Z" fill="#EB9481"/>
<path d="M108.823 69.9918C111.563 74.0463 120.671 80.6743 120.671 80.6743L121.935 77.8738L126.118 68.6163C126.118 68.6163 117.754 65.9768 112.249 64.8008C111.506 64.6413 110.85 64.5458 110.28 64.5203C106.766 64.3308 106.461 66.5038 108.823 69.9918Z" fill="#fea903"/>
<path d="M108.823 69.9918C111.563 74.0463 120.671 80.6743 120.671 80.6743L121.935 77.8738C118.539 73.9313 113.296 67.9558 110.28 64.5203C106.766 64.3308 106.461 66.5038 108.823 69.9918Z" fill="#263238"/>
<path d="M119.029 78.8026C119.723 77.1011 122.816 70.2361 123.583 68.7956C123.637 68.6956 123.712 68.7036 123.67 68.8141C121.712 73.9596 119.862 77.1901 119.097 78.8256C119.078 78.8666 119.012 78.8456 119.029 78.8026Z" fill="#263238"/>
<path d="M142.742 68.4567C147.185 67.8737 152.681 66.8772 157.334 68.8527C158.247 69.2402 158.578 69.9207 158.578 69.9207C160.679 70.7692 160.91 72.0162 160.91 72.0162C162.625 73.4057 162.686 74.7137 162.686 74.7137C162.686 74.7137 165.142 75.7367 164.77 77.3242C164.359 79.1057 160.989 77.3202 158.536 77.4717C152.915 77.8182 145.023 79.8832 143.412 80.1442L142.742 68.4567Z" fill="#EB9481"/>
<path d="M152.39 73.695C154.046 73.626 155.671 73.5149 157.328 73.6704C159.146 73.8409 160.867 74.3105 162.631 74.7445C162.686 74.758 162.71 74.6829 162.658 74.6609C159.59 73.3699 155.656 73.0309 152.386 73.6199C152.307 73.6339 152.307 73.6985 152.39 73.695Z" fill="#263238"/>
<path d="M151.688 70.3332C153.303 70.3552 156.142 70.4127 160.892 72.0677C160.908 72.0732 160.922 72.0487 160.906 72.0402C157.964 70.5557 154.948 70.0277 151.689 70.2562C151.588 70.2632 151.581 70.3317 151.688 70.3332Z" fill="#263238"/>
<path d="M151.345 68.5194C154.09 68.6619 155.803 69.0989 158.564 69.9289C158.58 69.9334 158.592 69.9079 158.576 69.9009C155.537 68.6284 154.29 68.5109 151.337 68.4249C151.236 68.4214 151.238 68.5139 151.345 68.5194Z" fill="#263238"/>
<path d="M151.79 78.3184C151.076 78.6534 151.247 79.0304 152.613 79.3469C153.995 79.6699 159.655 79.7564 159.455 81.7334C159.258 83.7179 151.25 83.4639 149.016 82.7629C146.779 82.0669 143.412 80.1449 143.412 80.1449C144.98 79.8799 148.722 78.8764 151.79 78.3184Z" fill="#EB9481"/>
<path d="M114.701 76.3077C114.666 77.1617 114.582 78.0312 114.462 78.8932C114.474 78.8622 114.487 78.8317 114.499 78.8007C114.665 78.3507 114.827 77.8892 115.029 77.4542C115.04 77.4312 115.08 77.4377 115.075 77.4657C114.987 77.9377 114.822 78.4117 114.642 78.8572C114.556 79.0697 114.468 79.2822 114.376 79.4927C114.314 79.8767 114.245 80.2582 114.168 80.6337C114.02 81.3487 113.345 84.3902 113.191 84.9042C113.159 85.0122 113.03 84.9877 113.038 84.8667C113.075 84.3067 113.642 81.1392 113.756 80.4222C113.976 79.0452 114.279 77.6402 114.647 76.2947C114.656 76.2627 114.702 76.2777 114.701 76.3077Z" fill="#263238"/>
<path d="M109.488 99.0376C108.155 99.7251 106.435 100.79 98.6855 99.2646C98.201 99.1661 97.714 99.0471 97.226 98.9021C89.9585 96.7191 81.2425 88.1731 80.751 87.5706C80.751 87.5706 92.2925 68.8551 107.058 62.9721C108.883 62.2451 111.905 63.6471 113.577 65.3921C114.175 66.0156 115.471 70.6076 114.973 74.3291C114.471 78.0451 110.831 98.3566 109.488 99.0376Z" fill="#fea903"/>
<path d="M108.458 74.1587C108.5 74.5607 108.468 74.9522 108.419 75.3412C108.361 75.7292 108.284 76.1147 108.133 76.4897C108.09 76.0877 108.122 75.6962 108.172 75.3072C108.231 74.9192 108.307 74.5337 108.458 74.1587Z" fill="white"/>
<path d="M103.424 86.9033C103.466 87.3053 103.434 87.6968 103.385 88.0863C103.327 88.4743 103.25 88.8598 103.099 89.2348C103.056 88.8328 103.088 88.4413 103.138 88.0518C103.197 87.6638 103.273 87.2783 103.424 86.9033Z" fill="white"/>
<path d="M94.8671 77.2715C94.9096 77.6735 94.8776 78.065 94.8286 78.454C94.7701 78.842 94.6936 79.2275 94.5426 79.6025C94.4996 79.2005 94.5316 78.809 94.5811 78.4195C94.6406 78.032 94.7171 77.6465 94.8671 77.2715Z" fill="white"/>
<path d="M111.755 86.2568C111.797 86.6588 111.765 87.0503 111.716 87.4393C111.658 87.8273 111.581 88.2128 111.43 88.5878C111.387 88.1858 111.419 87.7943 111.469 87.4048C111.528 87.0173 111.604 86.6318 111.755 86.2568Z" fill="white"/>
<path d="M100.768 75.6179C101.17 75.5754 101.561 75.6075 101.951 75.6565C102.339 75.715 102.724 75.7914 103.099 75.9424C102.697 75.9854 102.306 75.9535 101.916 75.904C101.528 75.845 101.143 75.7684 100.768 75.6179Z" fill="white"/>
<path d="M91.0576 84.8264C91.4596 84.7839 91.8511 84.8159 92.2401 84.8649C92.6281 84.9234 93.0136 84.9999 93.3886 85.1509C92.9866 85.1939 92.5951 85.1619 92.2061 85.1124C91.8176 85.0534 91.4326 84.9769 91.0576 84.8264Z" fill="white"/>
<path d="M102.48 94.7918C102.882 94.7493 103.274 94.7813 103.663 94.8303C104.051 94.8888 104.436 94.9653 104.811 95.1163C104.409 95.1593 104.018 95.1273 103.629 95.0778C103.241 95.0188 102.855 94.9423 102.48 94.7918Z" fill="white"/>
<path d="M88.0635 91.1721C88.4655 91.1296 88.857 91.1617 89.2465 91.2107C89.6345 91.2692 90.02 91.3456 90.395 91.4966C89.993 91.5396 89.6015 91.5076 89.212 91.4581C88.824 91.3986 88.4385 91.3221 88.0635 91.1721Z" fill="white"/>
<path d="M108.384 65.201C108.786 65.1585 109.177 65.1905 109.567 65.2395C109.955 65.298 110.34 65.3745 110.715 65.5255C110.313 65.5685 109.921 65.5365 109.532 65.487C109.144 65.4275 108.759 65.351 108.384 65.201Z" fill="white"/>
<path d="M105.562 68.3906C105.308 68.7046 105.009 68.9591 104.699 69.1996C104.383 69.4326 104.057 69.6511 103.685 69.8091C103.939 69.4946 104.238 69.2401 104.548 69.0001C104.864 68.7676 105.191 68.5491 105.562 68.3906Z" fill="white"/>
<path d="M90.1636 77.4536C89.9091 77.7676 89.6101 78.0221 89.3001 78.2626C88.9846 78.4956 88.6581 78.7141 88.2861 78.8726C88.5401 78.5581 88.8396 78.3036 89.1496 78.0636C89.4656 77.8306 89.7921 77.6126 90.1636 77.4536Z" fill="white"/>
<path d="M109.387 81.5469C109.133 81.8609 108.834 82.1154 108.524 82.3559C108.208 82.5889 107.882 82.8074 107.51 82.9654C107.764 82.6509 108.063 82.3964 108.373 82.1564C108.689 81.9244 109.016 81.7059 109.387 81.5469Z" fill="white"/>
<path d="M96.938 89.3857C96.6835 89.6997 96.3845 89.9542 96.0745 90.1947C95.759 90.4277 95.4325 90.6462 95.0605 90.8042C95.3145 90.4897 95.614 90.2352 95.924 89.9952C96.2395 89.7632 96.566 89.5447 96.938 89.3857Z" fill="white"/>
<path d="M114.157 70.8345C113.903 71.1485 113.604 71.403 113.294 71.6435C112.978 71.8765 112.652 72.095 112.279 72.253C112.533 71.9385 112.833 71.684 113.143 71.444C113.459 71.2115 113.786 70.993 114.157 70.8345Z" fill="white"/>
<path d="M113.897 79.921C113.583 79.6665 113.329 79.3675 113.088 79.0575C112.855 78.742 112.637 78.4155 112.479 78.0435C112.793 78.2975 113.048 78.597 113.288 78.907C113.52 79.223 113.738 79.5495 113.897 79.921Z" fill="white"/>
<path d="M86.1499 86.1783C85.8359 85.9238 85.5814 85.6248 85.3409 85.3148C85.1079 84.9993 84.8894 84.6728 84.7314 84.3008C85.0459 84.5548 85.3004 84.8543 85.5404 85.1643C85.7729 85.4798 85.9914 85.8063 86.1499 86.1783Z" fill="white"/>
<path d="M110.524 93.6275C110.21 93.373 109.956 93.074 109.715 92.764C109.482 92.4485 109.264 92.122 109.105 91.75C109.42 92.004 109.674 92.3035 109.914 92.6135C110.147 92.929 110.365 93.256 110.524 93.6275Z" fill="white"/>
<path d="M98.3091 72.4014C97.9951 72.1469 97.7406 71.8479 97.5001 71.5379C97.2671 71.2224 97.0486 70.8959 96.8906 70.5239C97.2051 70.7779 97.4596 71.0774 97.6996 71.3874C97.9321 71.7029 98.1506 72.0294 98.3091 72.4014Z" fill="white"/>
<path d="M98.5249 97.8658C98.2109 97.6113 97.9564 97.3123 97.7159 97.0023C97.4829 96.6868 97.2644 96.3603 97.1064 95.9883C97.4209 96.2423 97.6754 96.5418 97.9154 96.8518C98.1474 97.1673 98.3659 97.4938 98.5249 97.8658Z" fill="white"/>
<path d="M100.601 82.8443C100.287 82.5898 100.033 82.2908 99.7921 81.9808C99.5591 81.6653 99.3406 81.3388 99.1826 80.9668C99.4971 81.2208 99.7516 81.5203 99.9916 81.8303C100.224 82.1458 100.443 82.4723 100.601 82.8443Z" fill="white"/>
<path d="M110.863 70.3741C108.981 70.0241 107.208 66.1296 106.985 63.5096C106.97 63.3301 107.866 61.9036 108.871 60.1186C109.477 59.0331 110.127 57.8101 110.639 56.6516C110.743 56.4131 111.359 57.2081 111.359 57.2081L112.699 58.2326L117.126 61.6276C117.126 61.6276 115.339 63.7411 114.459 65.7666C114.387 65.9366 114.334 66.1011 114.299 66.2641C114.292 66.2871 114.286 66.3161 114.275 66.3476C114.022 67.3161 112.681 70.7111 110.863 70.3741Z" fill="#EB9481"/>
<path d="M114.298 66.2644C114.291 66.2874 114.286 66.3164 114.274 66.3479C114.032 66.2799 113.779 66.1834 113.51 66.0574C108.664 63.7864 110.802 57.2944 110.802 57.2944L112.699 58.2329L117.126 61.6279C117.126 61.6279 115.339 63.7414 114.459 65.7669C114.387 65.9369 114.334 66.1014 114.298 66.2644Z" fill="#263238"/>
<path d="M122.209 47.7905C122.209 47.7905 124.422 49.1965 124.437 51.6955C124.451 54.195 123.456 56.64 123.225 56.7275C122.994 56.815 122.209 47.7905 122.209 47.7905Z" fill="#263238"/>
<path d="M111.221 49.0876C109.89 51.7151 109.957 59.9881 111.62 62.1201C114.029 65.2106 118.671 66.2756 121.473 63.2201C124.189 60.2581 123.91 49.4781 121.989 47.4691C119.159 44.5101 113.188 45.2066 111.221 49.0876Z" fill="#EB9481"/>
<path d="M118.28 55.7158C118.275 55.6943 118.237 55.7433 118.238 55.7668C118.269 56.3303 118.21 56.9808 117.704 57.1798C117.688 57.1858 117.69 57.2143 117.709 57.2113C118.329 57.1088 118.4 56.2443 118.28 55.7158Z" fill="#263238"/>
<path d="M117.762 55.1381C116.854 55.0901 116.825 56.9106 117.667 56.9551C118.495 56.9986 118.524 55.1781 117.762 55.1381Z" fill="#263238"/>
<path d="M121.366 55.6948C121.37 55.6733 121.409 55.7223 121.408 55.7453C121.381 56.3088 121.446 56.9588 121.953 57.1543C121.969 57.1603 121.966 57.1888 121.948 57.1858C121.327 57.0878 121.25 56.2243 121.366 55.6948Z" fill="#263238"/>
<path d="M121.879 55.114C122.787 55.0595 122.829 56.8795 121.988 56.93C121.16 56.98 121.117 55.1595 121.879 55.114Z" fill="#263238"/>
<path d="M117.193 53.7528C117.442 53.6943 117.662 53.5988 117.902 53.5158C118.173 53.4218 118.398 53.3748 118.579 53.1363C118.675 53.0083 118.64 52.7753 118.524 52.6693C118.255 52.4233 117.895 52.4558 117.564 52.5558C117.205 52.6643 116.956 52.8393 116.746 53.1493C116.542 53.4498 116.864 53.8298 117.193 53.7528Z" fill="#263238"/>
<path d="M122.509 54.5596C122.258 54.5146 122.033 54.4311 121.789 54.3606C121.513 54.2811 121.285 54.2461 121.093 54.0171C120.989 53.8941 121.013 53.6596 121.122 53.5481C121.378 53.2881 121.74 53.3016 122.075 53.3836C122.44 53.4726 122.698 53.6346 122.923 53.9331C123.142 54.2221 122.841 54.6191 122.509 54.5596Z" fill="#263238"/>
<path d="M116.997 61.0583C117.13 61.1923 117.262 61.3763 117.466 61.3968C117.662 61.4163 117.893 61.3313 118.074 61.2643C118.092 61.2578 118.11 61.2768 118.098 61.2938C117.948 61.5078 117.638 61.6383 117.378 61.5888C117.123 61.5403 117.001 61.3178 116.942 61.0833C116.934 61.0503 116.977 61.0388 116.997 61.0583Z" fill="#263238"/>
<path d="M120.271 58.6476C120.271 58.6476 120.295 59.4916 120.253 59.8836C120.249 59.9201 119.143 59.7036 117.951 59.9661C117.772 60.0056 117.79 59.8601 117.996 59.7651C118.408 59.5746 118.932 59.3961 119.952 59.5056C119.992 59.4001 119.891 58.2071 119.954 58.2091C120.17 58.2141 120.577 58.4061 120.822 58.5081C120.823 56.7486 120.542 55.0036 120.57 53.2516C120.572 53.1891 120.663 53.1801 120.675 53.2376C121.099 55.0461 121.142 57.0706 121.188 58.8876C121.196 59.1141 120.421 58.7316 120.271 58.6476Z" fill="#263238"/>
<path d="M119.146 59.5838C119.146 59.5838 118.753 60.5728 118.096 60.8383C117.34 61.1443 117.081 60.4598 117.852 59.8553C118.257 59.5383 119.146 59.5838 119.146 59.5838Z" fill="#263238"/>
<path d="M118.358 60.6844C118.273 60.7494 118.188 60.8044 118.093 60.8394C117.398 61.1194 117.123 60.5644 117.683 60.0044C118.064 60.0344 118.478 60.1744 118.358 60.6844Z" fill="#FF99BA"/>
<path d="M110.839 56.1654C111.753 56.4459 112.805 53.6964 113.102 52.6394C113.364 51.7079 113.667 48.7524 113.711 48.5509C113.756 48.3494 117.697 51.1659 120.002 50.4924C122.306 49.8189 123.846 47.7509 123.878 46.7854C123.91 45.8204 121.049 43.3699 118.573 43.2444C116.097 43.1189 112.745 46.2659 112.745 46.2659C112.745 46.2659 113.884 44.9064 113.845 44.7949C113.807 44.6834 112.207 45.3224 111.913 46.4619C111.913 46.4619 112.229 45.0314 112.108 45.0049C111.987 44.9784 110.744 46.2034 111.025 47.1319C111.025 47.1319 109.587 48.3774 109.454 49.7429C109.32 51.1089 109.765 55.8359 110.839 56.1654Z" fill="#263238"/>
<path d="M121.64 50.0115C120.939 50.334 120.237 50.6885 119.463 50.7905C118.626 50.901 117.757 50.691 116.978 50.392C116.181 50.087 115.457 49.644 114.799 49.1025C114.223 48.628 113.712 48.0555 113.096 47.633C112.942 47.5275 112.764 47.749 112.859 47.891C113.793 49.293 115.447 50.4635 117.04 50.969C118.717 51.5005 120.293 51.1265 121.649 50.03C121.657 50.023 121.651 50.006 121.64 50.0115Z" fill="#263238"/>
<path d="M111.795 55.9203C111.795 55.9203 110.376 53.0393 109.096 53.5063C107.816 53.9733 108.604 57.9543 109.91 58.6833C111.217 59.4123 111.915 58.2163 111.915 58.2163L111.795 55.9203Z" fill="#EB9481"/>
<path d="M109.351 54.6423C109.329 54.6368 109.32 54.6673 109.338 54.6783C110.249 55.2213 110.622 56.2008 110.836 57.1903C110.603 56.7863 110.239 56.5288 109.705 56.7988C109.677 56.8128 109.695 56.8563 109.723 56.8548C110.134 56.8308 110.411 56.9438 110.631 57.3038C110.786 57.5588 110.873 57.8643 110.969 58.1458C111.001 58.2398 111.165 58.2173 111.147 58.1123C111.146 58.1043 111.144 58.0963 111.143 58.0883C111.358 56.8528 110.662 54.9713 109.351 54.6423Z" fill="#263238"/>
<path d="M102.419 68.779C101.441 74.443 107.557 93.529 111.494 97.094C117.35 102.396 128.176 105.882 132.099 107.016C133.809 107.51 138.539 95.4785 136.81 94.686C133.105 92.989 121.595 89.399 120.511 88.477C119.428 87.555 112.814 78.039 109.873 72.551C105.929 65.1875 102.913 65.914 102.419 68.779Z" fill="#EB9481"/>
<path d="M133.897 93.6274C133.897 93.6274 139.003 94.9284 142.301 95.9364C144.142 96.4984 147.211 97.7439 148.374 98.7754C150.113 100.318 156.404 107.882 154.603 109.447C152.972 110.863 148.393 103.679 148.393 103.679C148.393 103.679 153.655 110.52 151.378 111.864C149.102 113.209 145.007 104.403 145.007 104.403C145.007 104.403 150.256 111.553 147.689 112.569C145.749 113.336 141.591 105.57 141.591 105.57C141.591 105.57 146.06 111.747 144.099 112.622C141.932 113.589 137.644 106.661 137.644 106.661C132.285 108.045 129.167 106.513 127.079 105.158C126.573 104.829 133.897 93.6274 133.897 93.6274Z" fill="#EB9481"/>
<path d="M146.724 101.196C147.371 101.977 148.032 102.764 148.607 103.6C149.183 104.436 149.73 105.293 150.225 106.179C151.439 108.352 151.86 109.902 151.823 109.809C150.962 107.611 148.948 104.586 148.373 103.75C147.798 102.915 147.266 102.052 146.692 101.217C146.677 101.196 146.709 101.178 146.724 101.196Z" fill="#263238"/>
<path d="M143.668 103.219C144.777 104.098 147.103 107.372 148.001 109.565C148.038 109.657 147.989 109.649 147.934 109.566C147.231 108.482 144.393 104.281 143.642 103.236C143.63 103.22 143.653 103.207 143.668 103.219Z" fill="#263238"/>
<path d="M140.732 104.484C142.016 105.755 143.094 107.49 143.942 109.496C143.981 109.586 143.908 109.572 143.855 109.487C142.82 107.801 142.019 106.471 140.679 104.529C140.658 104.498 140.702 104.455 140.732 104.484Z" fill="#263238"/>
<path d="M107.984 69.1954C103.418 62.7384 100.69 65.1319 101.606 72.1404C102.462 78.6949 104.759 86.5034 104.759 86.5034L116.28 80.9234C116.28 80.9234 110.905 73.3279 107.984 69.1954Z" fill="#fea903"/>
<path d="M110.774 71.7344C110.937 72.1044 111.027 72.4869 111.098 72.8724C111.161 73.2599 111.206 73.6499 111.176 74.0534C111.013 73.6834 110.923 73.3009 110.852 72.9154C110.79 72.5274 110.746 72.1374 110.774 71.7344Z" fill="white"/>
<path d="M103.958 75.6598C104.328 75.4968 104.711 75.4078 105.096 75.3358C105.484 75.2733 105.874 75.2283 106.277 75.2578C105.907 75.4213 105.525 75.5108 105.139 75.5818C104.752 75.6438 104.361 75.6883 103.958 75.6598Z" fill="white"/>
<path d="M104.255 65.6191C104.108 65.9961 103.901 66.3296 103.679 66.6531C103.45 66.9711 103.205 67.2791 102.899 67.5431C103.045 67.1661 103.253 66.8321 103.475 66.5091C103.705 66.1911 103.949 65.8836 104.255 65.6191Z" fill="white"/>
<path d="M113.975 78.6753C113.829 79.0518 113.622 79.3858 113.4 79.7093C113.17 80.0273 112.926 80.3353 112.62 80.5993C112.766 80.2223 112.973 79.8883 113.196 79.5653C113.426 79.2478 113.67 78.9398 113.975 78.6753Z" fill="white"/>
<path d="M106.005 82.5918C105.628 82.4453 105.295 82.2383 104.971 82.0163C104.653 81.7868 104.345 81.5423 104.081 81.2368C104.458 81.3828 104.792 81.5898 105.115 81.8123C105.433 82.0418 105.741 82.2863 106.005 82.5918Z" fill="white"/>
<path d="M109.516 71.1388C110.129 71.9823 110.764 72.8093 111.397 73.6378C111.237 73.2188 111.098 72.7953 110.974 72.3628C110.968 72.3428 110.997 72.3343 111.004 72.3533C111.132 72.6848 111.274 73.0118 111.397 73.3453C111.456 73.5058 111.516 73.6653 111.577 73.8248C111.591 73.8593 111.604 73.8933 111.618 73.9273C112.11 74.5738 112.601 75.2218 113.075 75.8813C113.64 76.6688 114.186 77.4698 114.735 78.2693C115.301 79.0953 115.839 80.0638 116.437 80.8668C116.489 80.9363 115.418 81.3693 115.318 81.4248C115.215 81.4818 115.146 81.3823 115.255 81.3493C115.355 81.3188 116.204 80.7973 116.214 80.7868C115.666 79.9808 115.029 79.2353 114.455 78.4473C113.884 77.6628 113.311 76.8803 112.757 76.0838C111.632 74.4658 110.599 72.7848 109.482 71.1598C109.468 71.1393 109.501 71.1183 109.516 71.1388Z" fill="#263238"/>
<path d="M101.89 76.7772C102.065 77.1182 102.253 77.4557 102.408 77.8062C102.472 77.9512 102.535 78.0962 102.599 78.2412C102.337 76.9932 102.079 75.7442 101.824 74.4942C101.821 74.4797 101.843 74.4722 101.847 74.4872C102.375 76.5107 102.908 78.5322 103.398 80.5652C103.866 82.5032 104.43 84.4652 104.698 86.4427C104.857 86.3902 105.754 86.0192 105.78 86.0772C105.806 86.1357 104.608 86.6997 104.592 86.6527C103.94 84.7202 103.536 82.5252 103.092 80.5362C102.967 79.9762 102.851 79.4147 102.731 78.8532C102.601 78.5152 102.444 78.1897 102.29 77.8612C102.128 77.5137 101.997 77.1497 101.854 76.7937C101.846 76.7732 101.879 76.7572 101.89 76.7772Z" fill="#263238"/>
<path d="M104.942 84.577C106.543 83.6745 113.23 80.213 114.726 79.5605C114.829 79.515 114.884 79.5685 114.782 79.629C110.052 82.447 106.596 83.83 104.98 84.6375C104.94 84.6575 104.902 84.6 104.942 84.577Z" fill="#263238"/>
<path d="M288.158 216.026H135.818L157.846 91.1001H310.185L288.158 216.026Z" fill="#fea903"/>
<path d="M209.985 78.1626H160.128L157.847 91.1001H211.202L209.985 78.1626Z" fill="#fea903"/>
<g opacity="0.1">
<path d="M288.158 216.026H135.818L157.846 91.1001H310.185L288.158 216.026Z" fill="black"/>
<path d="M209.985 78.1626H160.128L157.847 91.1001H211.202L209.985 78.1626Z" fill="black"/>
</g>
<path d="M154.748 83.4399C154.551 82.7149 154.507 81.9894 154.498 81.2644C154.505 80.5389 154.55 79.8139 154.748 79.0889C154.946 79.8139 154.991 80.5394 154.998 81.2644C154.99 81.9899 154.945 82.7149 154.748 83.4399Z" fill="#263238"/>
<path d="M150.317 84.7216C149.784 84.1921 149.383 83.5861 149.013 82.9626C148.657 82.3311 148.333 81.6806 148.142 80.9536C148.676 81.4826 149.077 82.0886 149.446 82.7126C149.801 83.3446 150.126 83.9951 150.317 84.7216Z" fill="#263238"/>
<path d="M147.122 88.0461C146.395 87.8541 145.745 87.5301 145.113 87.1746C144.488 86.8056 143.882 86.4046 143.354 85.8706C144.081 86.0616 144.731 86.3856 145.363 86.7421C145.986 87.1121 146.592 87.5126 147.122 88.0461Z" fill="#263238"/>
<path d="M146.016 92.5234C145.291 92.7204 144.566 92.7649 143.841 92.7734C143.116 92.7659 142.39 92.7219 141.665 92.5234C142.39 92.3254 143.116 92.2809 143.841 92.2734C144.566 92.2819 145.291 92.3264 146.016 92.5234Z" fill="#263238"/>
<path d="M147.297 96.9541C146.768 97.4876 146.162 97.8886 145.538 98.2581C144.907 98.6146 144.256 98.9386 143.529 99.1296C144.058 98.5956 144.664 98.1946 145.288 97.8256C145.92 97.4701 146.571 97.1456 147.297 96.9541Z" fill="#263238"/>
<path d="M150.622 100.15C150.43 100.876 150.106 101.527 149.75 102.159C149.381 102.783 148.98 103.389 148.446 103.918C148.637 103.191 148.961 102.54 149.318 101.909C149.687 101.285 150.088 100.679 150.622 100.15Z" fill="#263238"/>
<path d="M155.099 101.255C155.296 101.981 155.34 102.706 155.349 103.431C155.341 104.156 155.297 104.881 155.099 105.606C154.9 104.881 154.856 104.156 154.849 103.431C154.857 102.706 154.902 101.981 155.099 101.255Z" fill="#263238"/>
<path d="M159.529 99.9746C160.063 100.504 160.463 101.11 160.833 101.734C161.19 102.365 161.514 103.016 161.705 103.743C161.17 103.214 160.77 102.608 160.401 101.984C160.045 101.351 159.721 100.701 159.529 99.9746Z" fill="#263238"/>
<path d="M162.726 96.6494C163.452 96.8414 164.103 97.1654 164.735 97.5209C165.359 97.8899 165.965 98.2909 166.494 98.8249C165.767 98.6339 165.116 98.3099 164.485 97.9534C163.861 97.5839 163.255 97.1829 162.726 96.6494Z" fill="#263238"/>
<path d="M163.832 92.1719C164.557 91.9749 165.283 91.9304 166.008 91.9219C166.733 91.9294 167.458 91.9734 168.183 92.1719C167.458 92.3699 166.733 92.4144 166.008 92.4219C165.282 92.4134 164.557 92.3694 163.832 92.1719Z" fill="#263238"/>
<path d="M162.55 87.7419C163.079 87.2084 163.685 86.8074 164.309 86.4379C164.94 86.0819 165.591 85.7574 166.318 85.5664C165.789 86.1004 165.183 86.5014 164.559 86.8704C163.927 87.2259 163.276 87.5499 162.55 87.7419Z" fill="#263238"/>
<path d="M159.226 84.5458C159.418 83.8193 159.742 83.1688 160.097 82.5368C160.466 81.9123 160.867 81.3063 161.401 80.7778C161.21 81.5048 160.886 82.1553 160.53 82.7868C160.16 83.4103 159.759 84.0163 159.226 84.5458Z" fill="#263238"/>
<path d="M287.935 216.026H135.267L113.592 95.6353H266.259L287.935 216.026Z" fill="#fea903"/>
<path d="M166.494 169.231C169.998 169.231 172.839 166.39 172.839 162.886C172.839 159.381 169.998 156.54 166.494 156.54C162.989 156.54 160.148 159.381 160.148 162.886C160.148 166.39 162.989 169.231 166.494 169.231Z" fill="#263238"/>
<path d="M216.656 169.231C220.161 169.231 223.002 166.39 223.002 162.886C223.002 159.381 220.161 156.54 216.656 156.54C213.152 156.54 210.311 159.381 210.311 162.886C210.311 166.39 213.152 169.231 216.656 169.231Z" fill="#263238"/>
<path d="M200.69 170.244L200.342 169.579C200.31 169.519 197.032 163.46 190.436 163.46C184.421 163.46 182.954 169.165 182.895 169.408L182.717 170.135L181.262 169.783L181.437 169.056C181.454 168.985 183.224 161.96 190.436 161.96C197.955 161.96 201.522 168.6 201.67 168.883L202.019 169.547L200.69 170.244Z" fill="#263238"/>
<path d="M277.804 162.157C278.129 162.087 278.454 162.011 278.777 161.928" stroke="#263238" stroke-miterlimit="10"/>
<path d="M280.697 161.36C288.345 158.777 294.75 152.761 295.352 145.732C296.681 130.232 277.804 121.67 279.754 103.759C281.614 86.6734 299.535 85.4544 306.719 87.8159C314.653 90.4244 311.935 98.0509 304.751 97.0669C292.296 95.3609 284.467 81.8204 290.382 66.4604C294.802 54.9849 305.819 50.6569 310.294 49.3369" stroke="#263238" stroke-miterlimit="10" stroke-dasharray="4 4"/>
<path d="M311.258 49.0698C311.877 48.9103 312.23 48.8438 312.23 48.8438" stroke="#263238" stroke-miterlimit="10"/>
<path d="M320.16 46.0822C318.884 42.1302 310.344 43.5502 312.012 48.7132C313.679 53.8767 321.436 50.0342 320.16 46.0822Z" fill="#263238"/>
<path d="M307.367 44.4886C307.43 42.7556 309.842 41.4221 313.25 42.0371C316.658 42.6526 319.868 44.9481 319.868 44.9481C319.868 44.9481 316.498 47.0096 313.054 47.3731C309.609 47.7371 307.303 46.2301 307.367 44.4886Z" fill="#EBEBEB"/>
<path d="M319.868 44.9479C318.098 44.9599 316.331 44.9009 314.564 44.8469C312.797 44.7714 311.031 44.7014 309.267 44.5584C311.036 44.5454 312.803 44.6054 314.571 44.6594C316.337 44.7354 318.104 44.8059 319.868 44.9479Z" fill="#263238"/>
<path d="M310.792 42.9541C311.304 43.1831 311.777 43.4736 312.254 43.7586C312.719 44.0626 313.187 44.3616 313.617 44.7221C313.105 44.4936 312.631 44.2031 312.155 43.9171C311.689 43.6136 311.222 43.3146 310.792 42.9541Z" fill="#263238"/>
<path d="M315.425 44.7852C314.977 45.1657 314.49 45.4852 314.006 45.8097C313.51 46.1157 313.017 46.4272 312.485 46.6767C312.933 46.2962 313.42 45.9762 313.904 45.6522C314.4 45.3462 314.893 45.0357 315.425 44.7852Z" fill="#263238"/>
<path d="M315.939 43.8091C316.203 43.9226 316.422 44.0921 316.644 44.2576C316.853 44.4396 317.065 44.6171 317.232 44.8516C316.967 44.7386 316.749 44.5686 316.527 44.4031C316.318 44.2206 316.106 44.0426 315.939 43.8091Z" fill="#263238"/>
<path d="M310.614 54.7753C311.68 56.1438 314.415 55.8153 316.82 53.3233C319.225 50.8308 320.486 47.0918 320.486 47.0918C320.486 47.0918 316.547 47.3903 313.541 49.1098C310.534 50.8288 309.544 53.4003 310.614 54.7753Z" fill="#EBEBEB"/>
<path d="M320.485 47.0913C319.043 48.1163 317.644 49.1978 316.242 50.2753C314.854 51.3698 313.461 52.4598 312.114 53.6068C313.557 52.5823 314.956 51.5003 316.357 50.4228C317.746 49.3283 319.138 48.2383 320.485 47.0913Z" fill="#263238"/>
<path d="M314.29 54.0162C314.571 53.5307 314.786 53.0187 315.006 52.5082C315.205 51.9897 315.41 51.4732 315.548 50.9297C315.266 51.4147 315.052 51.9272 314.832 52.4377C314.633 52.9562 314.428 53.4727 314.29 54.0162Z" fill="#263238"/>
<path d="M316.977 49.8222C316.391 49.7757 315.809 49.8012 315.227 49.8207C314.646 49.8622 314.064 49.8982 313.486 50.0067C314.072 50.0537 314.654 50.0282 315.237 50.0082C315.818 49.9662 316.399 49.9297 316.977 49.8222Z" fill="#263238"/>
<path d="M317.965 50.3129C318.112 50.0664 318.191 49.8009 318.275 49.5369C318.337 49.2669 318.406 48.9989 318.404 48.7114C318.255 48.9579 318.177 49.2234 318.094 49.4874C318.031 49.7574 317.963 50.0259 317.965 50.3129Z" fill="#263238"/>
<path d="M320.16 46.0822C319.372 46.3362 318.528 45.9042 318.274 45.1167C318.02 44.3292 318.452 43.4852 319.239 43.2307C320.026 42.9762 320.871 43.4087 321.125 44.1962C321.379 44.9837 320.947 45.8282 320.16 46.0822Z" fill="#455A64"/>
<path d="M321.08 48.9336C320.293 49.1876 319.449 48.7556 319.194 47.9681C318.94 47.1806 319.372 46.3366 320.16 46.0821C320.947 45.8281 321.791 46.2601 322.046 47.0476C322.3 47.8346 321.868 48.6791 321.08 48.9336Z" fill="#455A64"/>
<path d="M157.157 47.6605C156.441 54.505 150.309 59.4755 143.465 58.7595C140.699 58.47 138.24 57.296 136.336 55.5425L130.102 56.4575L133.221 51.0675C132.464 49.226 132.146 47.1765 132.366 45.067C133.082 38.2225 139.214 33.252 146.058 33.968C152.902 34.684 157.873 40.816 157.157 47.6605Z" fill="white"/>
<path d="M157.157 47.6603C156.896 49.9353 156.065 52.1653 154.642 53.9773C154.315 54.4518 153.894 54.8483 153.512 55.2778C153.079 55.6548 152.675 56.0688 152.197 56.3913C151.286 57.0933 150.261 57.6438 149.191 58.0653C148.126 58.5138 146.979 58.7278 145.836 58.8653C145.26 58.8963 144.682 58.9488 144.105 58.8983C143.526 58.8853 142.95 58.8233 142.38 58.7188C140.1 58.3058 137.94 57.2383 136.215 55.6748L136.362 55.7203L130.134 56.6763L129.682 56.7458L129.911 56.3473L133.012 50.9468L132.997 51.1598C131.487 47.6028 131.827 43.3668 133.765 40.0523C134.731 38.3928 136.078 36.9628 137.668 35.8963C139.257 34.8268 141.1 34.1563 142.986 33.9008C144.875 33.6503 146.818 33.8223 148.622 34.4213C150.423 35.0278 152.074 36.0478 153.428 37.3683C156.178 39.9838 157.561 43.9078 157.157 47.6603ZM157.157 47.6603C157.536 43.9048 156.125 40.0048 153.373 37.4243C152.006 36.1338 150.352 35.1563 148.567 34.5888C146.779 34.0293 144.866 33.8958 143.024 34.1733C141.184 34.4558 139.401 35.1413 137.877 36.2063C136.357 37.2738 135.075 38.6698 134.149 40.2733C133.204 41.8733 132.715 43.7063 132.567 45.5463C132.451 47.3923 132.752 49.2608 133.444 50.9753L133.489 51.0868L133.43 51.1888L130.292 56.5678L130.069 56.2388L136.31 55.3648L136.396 55.3528L136.457 55.4103C138.107 56.9588 140.194 58.0398 142.425 58.4843C142.982 58.5968 143.547 58.6673 144.115 58.6898C144.683 58.7498 145.251 58.7078 145.821 58.6873C146.949 58.5713 148.087 58.3803 149.149 57.9543C150.216 57.5548 151.247 57.0313 152.155 56.3343C152.633 56.0168 153.037 55.6083 153.471 55.2358C153.854 54.8113 154.276 54.4193 154.605 53.9488C156.034 52.1528 156.881 49.9338 157.157 47.6603Z" fill="#263238"/>
<path d="M138.669 52.1743C138.669 51.4303 139.185 50.8928 139.888 50.8928C140.632 50.8928 141.107 51.4303 141.107 52.1743C141.107 52.8978 140.632 53.4553 139.888 53.4553C139.165 53.4553 138.669 52.8973 138.669 52.1743ZM139.185 49.2188L138.896 39.2993H140.88L140.59 49.2188H139.185Z" fill="#FFC727"/>
<path d="M143.423 52.1743C143.423 51.4303 143.939 50.8928 144.642 50.8928C145.386 50.8928 145.862 51.4303 145.862 52.1743C145.862 52.8978 145.386 53.4553 144.642 53.4553C143.919 53.4553 143.423 52.8973 143.423 52.1743ZM143.939 49.2188L143.65 39.2993H145.634L145.345 49.2188H143.939Z" fill="#FFC727"/>
<path d="M148.176 52.1743C148.176 51.4303 148.692 50.8928 149.395 50.8928C150.139 50.8928 150.614 51.4303 150.614 52.1743C150.614 52.8978 150.139 53.4553 149.395 53.4553C148.672 53.4553 148.176 52.8973 148.176 52.1743ZM148.693 49.2188L148.403 39.2993H150.387L150.098 49.2188H148.693Z" fill="#FFC727"/>
</svg>
