<svg width="582" height="365" viewBox="0 0 582 365" fill="none" xmlns="http://www.w3.org/2000/svg">
<path d="M522.464 14.9839C542.069 16.4954 559.54 57.5282 565.853 75.7106C571.054 90.5589 590.793 146.751 577.145 167.823C569.632 179.382 523.353 190.318 501.836 205.7C484.632 218.014 463.782 244.332 463.782 244.332L411.058 210.412L261.508 90.2477L257.329 52.6825L325.88 9.16016C325.88 9.16016 364.912 33.7887 416.037 37.4341C476.852 41.7463 503.57 13.5168 522.464 14.9839Z" fill="#FFC619"/>
<path d="M273.422 77.3109L285.825 68.8643C285.825 68.8643 291.827 79.8004 301.963 87.4468C310.143 93.6262 332.371 112.209 361.934 112.12C394.031 111.942 413.547 106.607 413.547 106.607C413.547 106.607 407.946 109.541 411.013 117.366C413.547 123.812 423.061 122.834 423.061 122.834C423.061 122.834 409.146 134.881 402.389 147.062C396.12 158.354 394.209 169.335 395.765 175.069C397.899 183.027 467.472 244.509 467.472 244.509L463.693 249.489L386.696 178.492L299.118 107.941L273.422 77.3109Z" fill="#F7AD20"/>
<path d="M365.312 115.943C348.997 115.498 335.438 111.631 325.169 107.274C303.208 98.0272 291.249 84.8238 290.715 84.2459C289.648 83.0456 289.737 81.1784 290.982 80.1115C292.183 79.0001 293.561 79.578 294.628 80.7783C294.85 81.0006 306.986 93.2704 327.703 101.984C355.532 113.631 385.718 112.964 417.415 99.8499C418.926 99.272 420.66 99.9833 421.282 101.45C421.905 102.962 421.194 104.696 419.682 105.318C399.321 113.72 381.05 116.388 365.312 115.943Z" fill="#F7AD20"/>
<path d="M391.186 175.959C391.126 175.959 391.067 175.959 391.008 175.959C389.407 175.826 388.163 174.403 388.296 172.803C388.429 171.336 391.497 136.883 421.816 122.39C423.283 121.723 425.017 122.346 425.728 123.813C426.439 125.28 425.817 127.013 424.35 127.725C397.054 140.75 394.209 172.936 394.164 173.248C394.075 174.803 392.742 176.004 391.186 175.959Z" fill="#F7AD20"/>
<path d="M577.145 167.823C590.793 146.751 571.054 90.5587 565.853 75.7104C559.54 57.5279 542.069 16.4951 522.464 14.9836C519.53 14.7614 516.373 15.2504 512.95 16.2284L512.861 16.2729C512.861 16.2729 512.847 16.2729 512.817 16.2729C512.95 16.2729 524.598 13.9167 532.244 21.6965C543.936 33.6107 557.406 65.4855 566.386 101.939C574.522 134.792 561.63 155.509 555.095 162.488C542.158 176.314 509.972 188.05 498.147 195.297C487.833 201.654 479.564 207.833 472.762 214.457C466.805 220.236 463.56 226.549 457.069 228.194C450.579 229.839 442.532 222.104 442.532 222.104L444.266 230.728L445.022 232.24L463.782 244.332C463.782 244.332 484.632 218.014 501.836 205.699C523.353 190.318 569.632 179.382 577.145 167.823Z" fill="#F7AD20"/>
<path opacity="0.5" d="M95.7763 4.31422C85.1958 3.91412 60.9674 21.6965 35.672 58.8171C7.44247 100.117 -2.69349 130.925 0.596249 134.081C10.2876 143.417 48.4752 164.311 71.8146 188.406C92.9311 210.189 89.1079 223.526 105.245 238.463C119.427 251.578 195.935 303.013 220.52 316.928C243.37 329.865 261.286 337.733 261.286 337.733L412.391 197.208C412.391 197.208 365.223 155.064 317.033 114.92C268.843 74.7324 243.192 29.4763 243.192 29.4763C243.192 29.4763 206.027 49.2591 157.259 35.3C121.961 25.2085 107.068 4.75878 95.7763 4.31422Z" fill="#FFC619"/>
<path d="M95.7763 4.31422C85.1958 3.91412 60.9674 21.6965 35.672 58.8171C7.44247 100.117 -2.69349 130.925 0.596249 134.081C10.2876 143.417 48.4752 164.311 71.8146 188.406C92.9311 210.189 89.1079 223.526 105.245 238.463C119.427 251.578 195.935 303.013 220.52 316.928C243.37 329.865 261.286 337.733 261.286 337.733L412.391 197.208C412.391 197.208 365.223 155.064 317.033 114.92C268.843 74.7324 243.192 29.4763 243.192 29.4763C243.192 29.4763 206.027 49.2591 157.259 35.3C121.961 25.2085 107.068 4.75878 95.7763 4.31422Z" fill="#FFC619"/>
<path d="M237.19 325.997C237.19 325.997 275.511 346.358 293.116 353.16C312.81 360.717 324.902 363.251 333.348 363.874C341.306 364.452 358.333 364.585 362.378 354.76C367.713 341.824 361.578 334.577 354.465 331.51C345.841 327.775 315.922 315.995 291.871 302.925C273.111 292.744 248.127 275.984 248.127 275.984L237.19 325.997Z" fill="#FFC619"/>
<path d="M239.413 270.338C239.413 270.338 282.669 302.746 325.836 321.729C346.685 330.887 358.955 335.866 367.98 337.378C376.515 338.845 394.787 340.712 400.166 330.576C407.234 317.15 401.366 308.748 394.031 304.747C385.14 299.857 354.154 284.119 329.57 267.537C310.498 254.69 281.78 231.039 281.78 231.039L239.413 270.338Z" fill="#FFC619"/>
<path opacity="0.5" d="M276.89 230.639C276.89 230.639 318.812 265.759 358.733 287.365C379.272 298.479 391.675 304.08 400.788 306.303C409.368 308.348 426.795 311.549 434.175 301.502C443.333 288.965 436.886 279.274 429.685 274.65C420.927 269.049 390.252 250.778 366.29 232.151C347.619 217.658 323.302 194.896 323.302 194.896L276.89 230.639Z" fill="#FFC619"/>
<path d="M345.218 358.85C305.964 359.028 239.502 318.529 233.767 314.972C228.033 311.416 228.566 303.592 219.897 297.279C213.095 292.3 204.115 292.7 202.604 291.055C201.092 289.41 202.737 272.161 193.757 265.004C184.777 257.891 177.531 262.381 174.552 259.847C170.996 256.824 170.418 244.465 162.505 237.619C153.48 229.795 142.366 233.885 139.965 231.884C137.52 229.839 138.276 215.169 124.717 207.256C114.803 201.477 104.401 208.501 98.7993 205.744C94.3982 203.655 84.6623 184.183 71.9924 170.18C59.3225 156.176 26.025 150.263 22.6019 124.39C19.1788 98.5167 33.8937 79.2229 47.4083 57.1283C57.7665 40.2351 80.8391 13.606 86.8851 6.75977C74.393 12.7613 55.3659 29.9213 35.672 58.8176C7.44247 100.117 -2.69349 130.925 0.596249 134.081C10.2876 143.417 48.4752 164.311 71.8146 188.407C92.9311 210.19 89.1079 223.527 105.245 238.464C119.427 251.578 195.935 303.014 220.52 316.929C226.477 320.307 232.123 323.33 237.19 325.997C237.19 325.997 275.511 346.358 293.116 353.16C312.81 360.718 324.902 363.252 333.349 363.874C341.306 364.452 358.333 364.585 362.378 354.76C364.023 350.759 364.557 347.336 364.334 344.358C364.334 344.402 361.8 358.806 345.218 358.85Z" fill="#F7AD20"/>
<path d="M400.166 330.576C401.499 327.997 402.389 325.597 402.878 323.419C402.655 324.263 400.699 331.109 391.808 333.643C382.65 336.177 367.58 331.198 355.754 327.064C343.974 322.93 296.539 299.59 296.539 299.59L239.991 269.716L239.413 270.338C239.413 270.338 282.669 302.747 325.836 321.729C346.685 330.887 358.955 335.866 367.98 337.378C376.515 338.845 394.787 340.712 400.166 330.576Z" fill="#F7AD20"/>
<path d="M277.201 233.352C277.201 233.352 318.945 267.716 361.178 288.655C381.583 298.746 393.631 304.259 402.611 306.215C411.013 308.082 429.195 310.794 435.019 300.88C442.71 287.81 437.242 279.141 430.129 274.829C421.46 269.539 391.186 252.379 367.446 234.73C348.952 220.949 321.345 196.009 321.345 196.009L277.201 233.352Z" fill="#FFC619"/>
<path d="M435.019 300.88C436.486 298.39 437.509 296.034 438.086 293.856C437.82 294.745 435.553 301.458 426.528 303.547C417.281 305.726 402.433 300.035 390.874 295.367C379.271 290.655 332.948 265.182 332.948 265.182L277.823 232.773L277.201 233.351C277.201 233.351 318.945 267.716 361.178 288.654C381.583 298.746 393.631 304.258 402.611 306.215C411.013 308.082 429.195 310.793 435.019 300.88Z" fill="#F7AD20"/>
<path d="M208.116 355.916C208.116 355.916 219.275 357.605 239.502 351.915C252.617 348.225 263.819 339.289 263.819 339.289L232.789 320.751L222.831 318.173L219.23 340.623L208.116 355.916Z" fill="#FFC619"/>
<path d="M279.868 78.7781C256.307 52.2824 243.77 30.4546 243.237 29.4766H243.192C242.792 29.6544 238.08 32.1439 229.989 34.6334C222.52 40.2349 207.45 51.7045 202.604 57.3059C197.714 62.9963 188.511 77.4889 196.78 91.0924C205.049 104.696 220.475 104.029 234.212 101.94C258.574 98.2054 275.289 83.3126 279.868 78.7781Z" fill="#F7AD20"/>
<path d="M297.161 59.9734C297.161 59.9734 279.957 75.5774 265.509 83.9795C254.395 90.3812 223.587 106.474 206.16 93.4486C188.156 79.9785 206.872 59.5288 212.562 54.8165C225.899 43.8359 239.458 32.8108 245.682 27.2983C251.95 21.7413 274.756 -0.264331 292.983 0.00240421C310.809 0.26914 325.88 9.1603 325.88 9.1603L297.161 59.9734Z" fill="#FFC619"/>
<path d="M198.558 78.9561C198.558 78.9561 210.65 83.1794 219.408 77.089C228.166 71.043 230.789 39.835 230.789 39.835C225.187 44.4584 218.83 49.6597 212.562 54.8166C208.694 58.0174 198.87 68.4201 198.558 78.9561Z" fill="url(#paint0_linear_391_1495)"/>
<path d="M90.1304 235.574C91.8642 229.928 103.645 207.433 122.228 216.147C140.41 224.638 130.274 248.51 126.806 254.334C123.828 259.269 114.181 278.652 95.7763 270.383C80.6613 263.625 88.2188 241.798 90.1304 235.574Z" fill="#FFC619"/>
<path d="M119.205 262.692C123.695 254.601 137.921 229.839 156.325 243.132C175.93 257.313 156.459 285.365 153.525 289.588C150.59 293.811 135.876 312.083 119.96 299.413C106.046 288.343 115.47 269.316 119.205 262.692Z" fill="#FFC619"/>
<path d="M185.933 272.472C170.151 261.581 156.281 283.275 153.213 287.854C150.546 291.811 135.075 311.771 151.035 324.486C164.327 335.111 181.887 320.129 186.289 312.394C190.645 304.658 201.315 283.097 185.933 272.472Z" fill="#FFC619"/>
<path d="M204.204 298.879C193.89 298.568 180.642 308.882 182.865 331.198C184.377 346.58 196.558 356.983 211.495 355.871C230.611 354.404 225.187 324.486 223.32 317.15C222.075 312.394 217.274 299.323 204.204 298.879Z" fill="#FFC619"/>
<path d="M96.8431 231.751C96.6652 228.817 106.001 211.479 120.76 219.659C137.076 228.684 124.895 245.755 122.005 246.466C119.115 247.222 113.247 244.644 108.179 241.576C103.067 238.464 97.0209 234.73 96.8431 231.751Z" fill="url(#paint1_linear_391_1495)"/>
<path d="M129.874 257.891C129.385 255.49 132.408 250.6 135.386 248.2C139.076 245.177 146.411 240.864 154.413 246.466C163.66 253.001 160.86 262.47 159.259 267.049C157.659 271.583 153.124 273.984 150.235 273.584C147.345 273.184 130.407 260.336 129.874 257.891Z" fill="url(#paint2_linear_391_1495)"/>
<path d="M162.015 284.742C161.26 282.519 163.838 278.652 166.506 276.384C169.929 273.45 177.486 269.805 183.932 273.539C192.646 278.563 192.112 287.498 191.134 291.944C190.112 296.389 187.044 298.879 184.243 298.835C181.487 298.79 162.771 286.965 162.015 284.742Z" fill="url(#paint3_linear_391_1495)"/>
<path d="M191.268 328.798C189 327.687 187.8 322.486 188.022 318.751C188.334 313.906 191.134 305.281 198.825 303.103C209.228 300.124 215.763 307.193 218.475 311.283C221.186 315.417 220.742 319.596 218.652 321.73C215.896 324.62 193.535 329.865 191.268 328.798Z" fill="url(#paint4_linear_391_1495)"/>
<path opacity="0.5" d="M120.316 263.981C117.649 265.093 105.957 269.583 97.9102 265.671C88.2632 261.047 86.3961 240.02 96.6209 226.327C106.935 212.502 118.938 214.902 119.249 214.991C102.4 209.834 91.7753 230.239 90.1304 235.574C88.2188 241.798 80.6613 263.626 95.7763 270.383C107.113 275.451 115.115 270.072 120.316 263.981Z" fill="#F7AD20"/>
<path opacity="0.5" d="M157.526 244.065C157.14 243.739 156.74 243.428 156.325 243.132C137.921 229.839 123.695 254.601 119.205 262.692C115.47 269.316 106.046 288.343 119.96 299.413C128.496 306.215 136.676 304.081 142.9 300.035C142.9 300.035 131.652 303.814 122.85 296.834C117.56 292.567 117.16 285.72 117.16 278.252C117.115 270.25 126.273 250.067 139.388 242.909C147.523 238.464 157.526 244.065 157.526 244.065Z" fill="#F7AD20"/>
<path opacity="0.5" d="M185.444 272.161C169.884 262.025 156.236 283.32 153.213 287.854C150.546 291.811 135.075 311.772 151.035 324.486C158.37 330.354 166.995 328.398 174.019 324.175C174.019 324.175 159.571 327.998 151.746 317.062C143.255 305.148 159.748 276.429 172.152 271.45C178.687 268.827 185.444 272.161 185.444 272.161Z" fill="#F7AD20"/>
<path d="M255.951 333.955C255.951 333.955 248.971 343.602 231.9 349.737C214.918 355.827 191.623 350.048 186.511 338.045C183.666 331.332 184.332 319.195 187.667 311.238C190.556 304.258 196.291 300.657 196.291 300.657C188.289 304.392 181.176 314.394 182.865 331.198C184.244 345.38 194.735 355.338 208.116 355.916C208.116 355.916 219.275 357.605 239.502 351.915C252.617 348.225 263.82 339.289 263.82 339.289L257.863 335.111L255.951 333.955Z" fill="#F7AD20"/>
<path d="M469.695 251.267C468.939 249.489 467.783 247.889 466.494 246.466C465.516 245.399 464.449 244.421 463.382 243.577C455.113 237.264 432.263 214.814 409.368 194.453C391.675 178.804 364.023 155.198 364.023 155.198L312.988 193.03C312.988 193.03 352.598 229.84 393.497 253.268C397.232 255.402 400.655 257.358 403.856 259.136C414.347 265.493 421.682 268.916 427.684 271.184C429.862 272.073 431.907 272.784 433.774 273.318C434.041 273.377 434.308 273.451 434.575 273.54C441.421 275.585 451.601 277.808 459.337 274.962C462.271 274.029 464.805 272.428 466.494 269.894C466.938 269.242 467.339 268.605 467.694 267.983C471.962 261.67 471.829 255.935 469.695 251.267Z" fill="#FFC619"/>
<path d="M466.494 269.894C468.094 267.493 469.25 265.226 469.962 263.092C469.65 263.937 466.983 270.516 457.869 272.072C448.489 273.673 433.997 267.137 422.705 261.758C411.458 256.379 366.69 228.15 366.69 228.15L313.61 192.496L312.988 193.03C312.988 193.03 352.598 229.839 393.497 253.267C413.28 264.604 424.972 270.827 433.774 273.317C442.088 275.673 460.092 279.452 466.494 269.894Z" fill="#F7AD20"/>
<path d="M220.608 310.038C220.608 310.038 223.32 319.418 223.32 325.865C223.32 332.266 221.231 338.801 221.231 338.801C221.231 338.801 230.478 330.888 231.011 320.708C231.411 314.173 228.699 308.749 228.699 308.749L220.608 310.038Z" fill="#F7AD20"/>
<path d="M318.322 118.344C344.596 141.372 346.73 157.376 338.194 169.113C327.169 184.361 310.009 181.249 305.297 189.029C301.118 195.875 306.275 201.521 297.695 214.546C288.226 228.861 277.067 223.615 273.155 230.506C269.688 236.508 276.312 242.998 265.553 255.535C252.039 271.228 239.591 264.07 236.568 268.294C233.278 272.961 240.925 278.118 235.234 289.543C232.034 295.901 224.565 298.835 223.187 297.99C220.875 296.523 218.563 294.434 214.251 292.7C210.428 291.188 205.049 291.099 203.671 289.766C203.093 289.188 202.959 280.074 200.87 273.45C197.625 263.137 192.512 261.848 189.845 260.736C184.466 258.558 178.909 260.736 175.663 258.736C172.418 256.691 172.329 245.754 162.771 236.019C156.681 229.839 144.633 232.773 141.61 230.995C139.521 229.75 137.298 213.657 128.807 207.167C118.182 198.987 106.001 206.455 99.3771 202.632C92.7532 198.853 85.2402 182.005 70.792 166.667C58.7889 153.953 33.0934 152.842 25.2692 127.546C13.0883 88.2473 106.935 14.3616 125.162 24.053C143.388 33.7443 144.855 36.9007 166.861 39.5236C189.445 42.2354 205.493 43.7914 204.649 47.3923C202.959 54.7275 175.975 81.7123 203.448 100.917C228.744 118.566 273.644 87.2692 279.023 85.9356C281.024 85.4465 300.718 102.873 318.322 118.344Z" fill="url(#paint5_linear_391_1495)"/>
<path d="M123.961 218.058C109.202 209.923 97.6435 225.482 95.065 230.461C91.7308 236.907 85.9071 258.557 98.6215 264.781C114.67 272.606 123.561 255.223 125.073 252.2C126.54 249.133 139.743 226.727 123.961 218.058Z" fill="url(#paint6_linear_391_1495)"/>
<path d="M157.57 248.289C144.233 237.397 130.363 252.735 127.073 257.803C122.761 264.338 113.692 287.188 125.339 295.723C140.01 306.482 151.524 288.744 153.436 285.676C155.347 282.565 171.885 259.936 157.57 248.289Z" fill="url(#paint7_linear_391_1495)"/>
<path d="M186.911 275.851C174.552 265.804 161.749 279.985 158.726 284.653C154.725 290.699 146.367 311.771 157.125 319.684C170.684 329.598 181.309 313.238 183.088 310.349C184.866 307.503 200.114 286.609 186.911 275.851Z" fill="url(#paint8_linear_391_1495)"/>
<path d="M207.138 301.369C191.801 300.168 187.044 316.75 186.511 321.685C185.799 327.998 188.111 347.38 201.092 347.78C217.452 348.27 219.275 331.154 219.497 328.22C219.764 325.241 223.587 302.613 207.138 301.369Z" fill="url(#paint9_linear_391_1495)"/>
<path d="M478.853 29.4766C463.071 34.9003 442.888 39.3458 416.036 37.4342C364.912 33.7889 325.88 9.1603 325.88 9.1603C325.88 9.1603 310.809 0.26914 292.983 0.00240421C274.756 -0.264331 251.95 21.7413 245.682 27.2983C242.392 30.1879 237.057 34.678 230.789 39.8349C230.789 39.8349 239.991 33.2999 251.416 24.0086C264.131 13.6948 273.689 0.491408 299.473 2.49192C325.258 4.44798 323.079 22.097 358.066 34.6335C393.053 47.1256 418.837 47.5257 440.798 42.7245C462.76 37.9233 478.853 29.4766 478.853 29.4766Z" fill="#FFBB19"/>
<path d="M202.959 87.892C195.847 80.29 202.693 68.2425 208.828 60.4183C214.963 52.5496 235.012 41.3911 245.682 33.8781C261.374 22.853 273.867 6.76003 293.027 6.8934C321.746 7.07123 323.079 28.7212 375.671 41.8802C420.615 53.083 442.532 44.4586 442.532 44.4586L419.326 96.9166C419.326 96.9166 380.561 117.677 339.661 104.563C297.25 91.0039 290.804 68.9093 287.648 67.7535C282.758 65.9753 270.443 83.9799 240.036 93.7602C217.585 101.006 210.072 95.494 202.959 87.892Z" fill="url(#paint10_linear_391_1495)"/>
<path d="M431.463 127.769C424.394 129.725 412.435 133.281 404.611 147.64C399.321 157.287 394.52 166.801 397.721 175.381C399.277 179.56 411.146 190.674 423.372 201.877C436.264 213.702 446.933 226.061 454.18 226.95C462.448 227.928 467.294 214.413 486.588 201.299C502.992 190.096 543.136 176.137 554.917 159.199C570.876 136.26 568.387 108.075 562.518 104.34C550.382 96.6051 508.638 108.386 487.077 114.387C465.471 120.389 441.287 125.057 431.463 127.769Z" fill="url(#paint11_linear_391_1495)"/>
<path d="M463.515 245.844C469.961 251.89 469.961 258.158 468.628 262.604C467.383 267.005 458.714 275.096 442.132 268.828C424.127 262.026 398.876 247.133 378.649 233.885C345.307 212.057 314.988 191.385 316.766 188.585C319.745 183.961 332.237 184.139 340.15 173.559C351.442 158.399 340.328 144.04 342.729 141.817C345.129 139.639 390.963 180.494 411.413 198.721C431.818 216.948 457.069 239.754 463.515 245.844Z" fill="url(#paint12_linear_391_1495)"/>
<path d="M430.529 277.451C437.153 282.475 438.264 288.388 436.975 292.522C434.575 300.346 427.417 305.058 411.413 300.88C393.986 296.301 369.98 283.408 351.575 273.273C318.9 255.312 280.624 234.24 282.002 231.484C284.269 226.905 291.916 229.439 300.762 217.303C311.165 203.032 304.852 194.363 306.853 192.096C308.853 189.784 336.105 218.947 370.514 241.576C391.941 255.668 423.95 272.428 430.529 277.451Z" fill="url(#paint13_linear_391_1495)"/>
<path d="M393.186 306.214C400.032 310.838 402.878 317.106 401.811 321.329C399.899 329.242 393.408 335.288 377.182 331.999C359.533 328.398 334.415 316.661 315.477 307.504C283.291 291.855 245.548 272.161 246.259 269.76C247.771 264.87 255.151 270.561 267.065 256.868C277.201 245.265 272.577 237.174 274.444 234.774C276.312 232.373 297.428 254.29 333.171 274.784C373.492 297.946 386.295 301.591 393.186 306.214Z" fill="#FCE053"/>
<path d="M239.102 273.45C240.569 272.517 280.135 299.59 299.562 309.726C318.989 319.818 350.464 333.466 354.243 334.399C358.021 335.288 362.689 338.712 363.089 343.691C363.401 347.781 359.133 357.65 345.974 357.872C322.679 358.183 291.649 343.78 276.178 336.756C262.308 330.487 236.168 315.328 232.745 313.016C231.767 312.394 230.3 309.371 228.699 306.303C227.054 303.191 225.232 300.035 225.454 299.413C225.943 298.123 232.122 298.301 236.524 290.21C240.436 283.008 237.635 274.384 239.102 273.45Z" fill="url(#paint14_linear_391_1495)"/>
<defs>
<linearGradient id="paint0_linear_391_1495" x1="199.694" y1="38.9623" x2="230.772" y2="39.8545" gradientUnits="userSpaceOnUse">
<stop stop-color="#FCE053"/>
<stop offset="1" stop-color="#FCE053"/>
</linearGradient>
<linearGradient id="paint1_linear_391_1495" x1="97.2538" y1="217.021" x2="129.495" y2="217.947" gradientUnits="userSpaceOnUse">
<stop stop-color="#FCE053"/>
<stop offset="1" stop-color="#FCE053"/>
</linearGradient>
<linearGradient id="paint2_linear_391_1495" x1="130.226" y1="243.265" x2="161.368" y2="244.16" gradientUnits="userSpaceOnUse">
<stop stop-color="#FCE053"/>
<stop offset="1" stop-color="#FCE053"/>
</linearGradient>
<linearGradient id="paint3_linear_391_1495" x1="160.95" y1="273.374" x2="190.297" y2="270.802" gradientUnits="userSpaceOnUse">
<stop stop-color="#FCE053"/>
<stop offset="1" stop-color="#FCE053"/>
</linearGradient>
<linearGradient id="paint4_linear_391_1495" x1="181.445" y1="320.919" x2="201.481" y2="296.137" gradientUnits="userSpaceOnUse">
<stop stop-color="#FCE053"/>
<stop offset="1" stop-color="#FCE053"/>
</linearGradient>
<linearGradient id="paint5_linear_391_1495" x1="27.0385" y1="20.5005" x2="346.305" y2="29.6669" gradientUnits="userSpaceOnUse">
<stop stop-color="#FCE053"/>
<stop offset="1" stop-color="#FCE053"/>
</linearGradient>
<linearGradient id="paint6_linear_391_1495" x1="157.496" y1="241.406" x2="133.079" y2="284.544" gradientUnits="userSpaceOnUse">
<stop stop-color="#FCE053"/>
<stop offset="1" stop-color="#FCE053"/>
</linearGradient>
<linearGradient id="paint7_linear_391_1495" x1="193.858" y1="281.514" x2="161.58" y2="323.57" gradientUnits="userSpaceOnUse">
<stop stop-color="#FCE053"/>
<stop offset="1" stop-color="#FCE053"/>
</linearGradient>
<linearGradient id="paint8_linear_391_1495" x1="220.406" y1="306.543" x2="190.594" y2="345.386" gradientUnits="userSpaceOnUse">
<stop stop-color="#FCE053"/>
<stop offset="1" stop-color="#FCE053"/>
</linearGradient>
<linearGradient id="paint9_linear_391_1495" x1="250.385" y1="306.979" x2="242.021" y2="349.823" gradientUnits="userSpaceOnUse">
<stop stop-color="#FCE053"/>
<stop offset="1" stop-color="#FCE053"/>
</linearGradient>
<linearGradient id="paint10_linear_391_1495" x1="199.928" y1="6.88895" x2="442.51" y2="6.88895" gradientUnits="userSpaceOnUse">
<stop stop-color="#FCE053"/>
<stop offset="1" stop-color="#FCE053"/>
</linearGradient>
<linearGradient id="paint11_linear_391_1495" x1="396.693" y1="101.787" x2="567.029" y2="101.787" gradientUnits="userSpaceOnUse">
<stop stop-color="#FCE053"/>
<stop offset="1" stop-color="#FCE053"/>
</linearGradient>
<linearGradient id="paint12_linear_391_1495" x1="316.702" y1="141.74" x2="469.324" y2="141.74" gradientUnits="userSpaceOnUse">
<stop stop-color="#FCE053"/>
<stop offset="1" stop-color="#FCE053"/>
</linearGradient>
<linearGradient id="paint13_linear_391_1495" x1="278.095" y1="195.007" x2="425.941" y2="179.457" gradientUnits="userSpaceOnUse">
<stop stop-color="#FCE053"/>
<stop offset="1" stop-color="#FCE053"/>
</linearGradient>
<linearGradient id="paint14_linear_391_1495" x1="225.454" y1="273.431" x2="363.094" y2="273.431" gradientUnits="userSpaceOnUse">
<stop stop-color="#FCE053"/>
<stop offset="1" stop-color="#FCE053"/>
</linearGradient>
</defs>
</svg>
