<svg width="1171" height="587" viewBox="0 0 1171 587" fill="none" xmlns="http://www.w3.org/2000/svg">
<path opacity="0.4" d="M21.8823 434.126C82.6729 409.195 93.9264 364.571 177.575 348.231C256.758 332.73 288.048 443.748 405.533 407.523C481.334 384.151 469.06 315.208 555.318 287.438C639.208 260.418 693.752 345.839 776.89 311.743C860.028 277.647 848.162 164.051 925.289 121.839C993.554 84.4749 1039.82 112.695 1076.64 120.48" stroke="url(#paint0_linear_1_163)" stroke-width="8" stroke-miterlimit="10"/>
<path opacity="0.4" d="M1157.74 115.188C1078.69 148.68 1043.85 121.736 970.212 136.472C907.914 148.939 862.149 170.202 823.976 193.231C756.034 234.22 761.104 285.889 685.83 320.154C608.069 355.564 576.726 302.393 497.683 335.884C418.639 369.376 395.174 329.366 316.13 362.858C237.087 396.35 260.552 436.36 181.509 469.851" stroke="url(#paint1_linear_1_163)" stroke-width="7" stroke-miterlimit="10"/>
<defs>
<linearGradient id="paint0_linear_1_163" x1="117.026" y1="565.419" x2="841.717" y2="-199.817" gradientUnits="userSpaceOnUse">
<stop offset="0.181413" stop-color="#CB9302" stop-opacity="0"/>
<stop offset="0.461957" stop-color="#F3BB2B"/>
<stop offset="0.742141" stop-color="#FCDE91"/>
<stop offset="0.89353" stop-color="#FECF56" stop-opacity="0"/>
</linearGradient>
<linearGradient id="paint1_linear_1_163" x1="59.6235" y1="568.707" x2="1014.54" y2="-220.58" gradientUnits="userSpaceOnUse">
<stop offset="0.113648" stop-color="#DCC386" stop-opacity="0"/>
<stop offset="0.428631" stop-color="#DCC386" stop-opacity="0.44"/>
<stop offset="0.544629" stop-color="#DCC386"/>
<stop offset="0.702365" stop-color="#DCC386" stop-opacity="0.55"/>
<stop offset="0.860994" stop-color="#DCC386" stop-opacity="0"/>
</linearGradient>
</defs>
</svg>
