<svg width="15" height="15" viewBox="0 0 15 15" fill="none" xmlns="http://www.w3.org/2000/svg">
<path d="M7.73731 0.5C6.35284 0.5 4.99946 0.910543 3.84832 1.67971C2.69717 2.44888 1.79996 3.54213 1.27015 4.82122C0.740338 6.1003 0.601714 7.50776 0.871811 8.86563C1.14191 10.2235 1.80859 11.4708 2.78756 12.4497C3.76653 13.4287 5.01381 14.0954 6.37167 14.3655C7.72954 14.6356 9.13701 14.497 10.4161 13.9672C11.6952 13.4373 12.7884 12.5401 13.5576 11.389C14.3268 10.2378 14.7373 8.88447 14.7373 7.5C14.7353 5.64409 13.9972 3.86475 12.6849 2.55242C11.3726 1.24009 9.59322 0.50196 7.73731 0.5ZM7.73731 13.4231C6.56583 13.4231 5.42067 13.0757 4.44662 12.4249C3.47258 11.774 2.7134 10.849 2.2651 9.76666C1.81679 8.68436 1.6995 7.49343 1.92804 6.34446C2.15658 5.1955 2.7207 4.14011 3.54906 3.31175C4.37742 2.48339 5.43281 1.91928 6.58177 1.69073C7.73074 1.46219 8.92167 1.57949 10.004 2.02779C11.0863 2.47609 12.0113 3.23527 12.6622 4.20931C13.313 5.18336 13.6604 6.32853 13.6604 7.5C13.6586 9.07035 13.034 10.5759 11.9236 11.6863C10.8132 12.7967 9.30766 13.4213 7.73731 13.4231ZM8.81423 10.7308C8.81423 10.8736 8.7575 11.0105 8.65652 11.1115C8.55554 11.2125 8.41858 11.2692 8.27577 11.2692C7.99015 11.2692 7.71623 11.1558 7.51427 10.9538C7.31231 10.7518 7.19885 10.4779 7.19885 10.1923V7.5C7.05604 7.5 6.91908 7.44327 6.8181 7.34229C6.71711 7.24131 6.66038 7.10435 6.66038 6.96154C6.66038 6.81873 6.71711 6.68177 6.8181 6.58079C6.91908 6.47981 7.05604 6.42308 7.19885 6.42308C7.48446 6.42308 7.75838 6.53654 7.96034 6.7385C8.16231 6.94046 8.27577 7.21438 8.27577 7.5V10.1923C8.41858 10.1923 8.55554 10.249 8.65652 10.35C8.7575 10.451 8.81423 10.588 8.81423 10.7308ZM6.66038 4.53846C6.66038 4.37871 6.70775 4.22256 6.7965 4.08973C6.88525 3.95691 7.0114 3.85338 7.15899 3.79225C7.30657 3.73112 7.46897 3.71512 7.62565 3.74629C7.78233 3.77745 7.92624 3.85438 8.0392 3.96734C8.15216 4.08029 8.22908 4.22421 8.26025 4.38089C8.29141 4.53756 8.27542 4.69996 8.21429 4.84755C8.15315 4.99514 8.04963 5.12128 7.91681 5.21003C7.78398 5.29878 7.62782 5.34615 7.46808 5.34615C7.25386 5.34615 7.04842 5.26106 6.89695 5.10959C6.74548 4.95811 6.66038 4.75267 6.66038 4.53846Z" fill="#9F9F9F"/>
</svg>
