<svg width="23" height="23" viewBox="0 0 23 23" fill="none" xmlns="http://www.w3.org/2000/svg">
<g clip-path="url(#clip0_0_6699)">
<g clip-path="url(#clip1_0_6699)">
<path d="M16.1 0C17.93 0 19.685 0.726962 20.979 2.02096C22.273 3.31496 23 5.07001 23 6.9V16.1C23 17.93 22.273 19.685 20.979 20.979C19.685 22.273 17.93 23 16.1 23H6.9C5.07001 23 3.31496 22.273 2.02096 20.979C0.726962 19.685 0 17.93 0 16.1L0 6.9C0 5.07001 0.726962 3.31496 2.02096 2.02096C3.31496 0.726962 5.07001 0 6.9 0L16.1 0ZM16.1 2.3H6.9C5.68 2.3 4.50998 2.78464 3.64731 3.64731C2.78464 4.50998 2.3 5.68 2.3 6.9V16.1C2.3 16.7041 2.41898 17.3022 2.65015 17.8603C2.88133 18.4184 3.22016 18.9255 3.64731 19.3527C4.50998 20.2154 5.68 20.7 6.9 20.7H16.1C17.32 20.7 18.49 20.2154 19.3527 19.3527C20.2154 18.49 20.7 17.32 20.7 16.1V6.9C20.7 5.68 20.2154 4.50998 19.3527 3.64731C18.49 2.78464 17.32 2.3 16.1 2.3ZM11.5 5.75C13.025 5.75 14.4875 6.3558 15.5659 7.43414C16.6442 8.51247 17.25 9.97501 17.25 11.5C17.25 13.025 16.6442 14.4875 15.5659 15.5659C14.4875 16.6442 13.025 17.25 11.5 17.25C9.97501 17.25 8.51247 16.6442 7.43414 15.5659C6.3558 14.4875 5.75 13.025 5.75 11.5C5.75 9.97501 6.3558 8.51247 7.43414 7.43414C8.51247 6.3558 9.97501 5.75 11.5 5.75ZM11.5 8.05C10.585 8.05 9.70748 8.41348 9.06048 9.06048C8.41348 9.70748 8.05 10.585 8.05 11.5C8.05 12.415 8.41348 13.2925 9.06048 13.9395C9.70748 14.5865 10.585 14.95 11.5 14.95C12.415 14.95 13.2925 14.5865 13.9395 13.9395C14.5865 13.2925 14.95 12.415 14.95 11.5C14.95 10.585 14.5865 9.70748 13.9395 9.06048C13.2925 8.41348 12.415 8.05 11.5 8.05ZM17.25 4.6C17.555 4.6 17.8475 4.72116 18.0632 4.93683C18.2788 5.15249 18.4 5.445 18.4 5.75C18.4 6.055 18.2788 6.34751 18.0632 6.56317C17.8475 6.77884 17.555 6.9 17.25 6.9C16.945 6.9 16.6525 6.77884 16.4368 6.56317C16.2212 6.34751 16.1 6.055 16.1 5.75C16.1 5.445 16.2212 5.15249 16.4368 4.93683C16.6525 4.72116 16.945 4.6 17.25 4.6Z" fill="white"/>
</g>
</g>
<defs>
<clipPath id="clip0_0_6699">
<rect width="23" height="23" fill="white"/>
</clipPath>
<clipPath id="clip1_0_6699">
<rect width="23" height="23" fill="white"/>
</clipPath>
</defs>
</svg>
