<svg width="40" height="40" viewBox="0 0 40 40" fill="none" xmlns="http://www.w3.org/2000/svg">
<g clip-path="url(#clip0_240_2403)">
<g clip-path="url(#clip1_240_2403)">
<path d="M28.2841 19.4424C32.3811 19.4426 35.702 22.7643 35.7021 26.8613C35.7021 30.9584 32.3812 34.28 28.2841 34.2803C24.1869 34.2803 20.8652 30.9586 20.8652 26.8613C20.8653 22.7642 24.1869 19.4424 28.2841 19.4424ZM20.625 20.6006C19.2293 22.3058 18.3916 24.4859 18.3916 26.8613C18.3916 29.3231 19.2912 31.5755 20.7792 33.3066H7.27735C5.91171 33.3065 4.80469 32.1987 4.80469 30.833V27.124C4.80469 23.7097 7.57292 20.9414 10.9873 20.9414H20.3574C20.4439 20.8257 20.5335 20.7123 20.625 20.6006ZM28.2832 21.915C27.6005 21.9153 27.0469 22.4687 27.0468 23.1514V25.624H24.5742C23.8913 25.6241 23.3378 26.1785 23.3378 26.8613C23.338 27.544 23.8914 28.0976 24.5742 28.0977H27.0468V30.5703C27.0468 31.2531 27.6005 31.8064 28.2832 31.8066C28.9661 31.8066 29.5205 31.2532 29.5205 30.5703V28.0977H31.9931C32.6758 28.0976 33.2292 27.544 33.2294 26.8613C33.2294 26.1785 32.676 25.6241 31.9931 25.624H29.5205V23.1514C29.5203 22.4686 28.966 21.915 28.2832 21.915ZM18.331 5C22.0129 5 24.998 7.9851 24.998 11.667C24.9978 15.3487 22.0128 18.333 18.331 18.333C14.6493 18.3329 11.6642 15.3487 11.664 11.667C11.664 7.98515 14.6492 5.00008 18.331 5Z" fill="#F2F4F6"/>
</g>
</g>
<defs>
<clipPath id="clip0_240_2403">
<rect width="40" height="40" fill="white"/>
</clipPath>
<clipPath id="clip1_240_2403">
<rect width="40" height="40" fill="white"/>
</clipPath>
</defs>
</svg>
