<svg width="40" height="40" viewBox="0 0 40 40" fill="none" xmlns="http://www.w3.org/2000/svg">
<g clip-path="url(#clip0_240_2411)">
<g clip-path="url(#clip1_240_2411)">
<path fill-rule="evenodd" clip-rule="evenodd" d="M18.5309 8.13143C22.9165 4.58017 29.3493 5.25641 32.8995 9.64105C33.7439 10.6837 34.3748 11.8825 34.7559 13.169C35.1369 14.4555 35.2609 15.8045 35.1206 17.1387C34.9804 18.4732 34.5787 19.7669 33.9383 20.946C33.298 22.1252 32.4317 23.1664 31.3888 24.0107L28.89 26.0343C28.2159 26.5799 27.2272 26.476 26.6815 25.8019C26.1359 25.128 26.2399 24.1393 26.9138 23.5938L29.4128 21.5701C30.135 20.9853 30.7349 20.264 31.1783 19.4475C31.6216 18.6307 31.8999 17.7348 31.997 16.8107C32.0942 15.8866 32.0082 14.9524 31.7443 14.0615C31.4803 13.1704 31.0436 12.3402 30.4589 11.6181C29.8741 10.8959 29.1528 10.2961 28.3361 9.85268C27.5196 9.4093 26.6237 9.1311 25.6995 9.03396C24.7754 8.93685 23.8411 9.02267 22.9501 9.28658C22.0593 9.5505 21.229 9.98732 20.5068 10.5721L18.2419 12.4062C17.5679 12.9519 16.5792 12.8479 16.0335 12.1739C15.4879 11.5 15.5918 10.5113 16.2657 9.9657L18.5309 8.13143ZM11.4231 13.8882C12.097 13.3425 13.0858 13.4465 13.6315 14.1205C14.177 14.7945 14.073 15.7831 13.3992 16.3288L10.8023 18.4314C10.0801 19.0162 9.48028 19.7375 9.03689 20.5541C8.5935 21.3707 8.31529 22.2666 8.21818 23.1908C8.12105 24.1148 8.20689 25.0492 8.47081 25.94C8.73472 26.831 9.17153 27.6614 9.75634 28.3833C10.3411 29.1056 11.0624 29.7055 11.879 30.1489C12.6956 30.5922 13.5916 30.8704 14.5157 30.9676C15.4398 31.0647 16.374 30.9788 17.265 30.7149C18.1559 30.4511 18.9861 30.0142 19.7083 29.4295L22.1146 27.481C22.7887 26.9351 23.7775 27.0392 24.3231 27.7132C24.8687 28.387 24.7647 29.3757 24.0909 29.9213L21.6843 31.8701C17.2997 35.4204 10.8659 34.7441 7.31564 30.3593C3.76541 25.9747 4.44167 19.5411 8.82633 15.9907L11.4231 13.8882Z" fill="#F2F4F6"/>
<path fill-rule="evenodd" clip-rule="evenodd" d="M23.9018 14.9612C24.5679 14.4061 25.5577 14.4959 26.1129 15.1618C26.6685 15.8279 26.5785 16.8182 25.9122 17.3734L16.7428 25.015C16.0768 25.57 15.0869 25.4799 14.5319 24.8139C13.9769 24.1478 14.0668 23.1582 14.7328 22.6032L23.9018 14.9612Z" fill="#F2F4F6"/>
</g>
</g>
<defs>
<clipPath id="clip0_240_2411">
<rect width="40" height="40" fill="white"/>
</clipPath>
<clipPath id="clip1_240_2411">
<rect width="40" height="40" fill="white"/>
</clipPath>
</defs>
</svg>
