<svg width="568" height="564" viewBox="0 0 568 564" fill="none" xmlns="http://www.w3.org/2000/svg">
<path d="M495.955 483.824C484.448 495.938 473.56 503.751 464.957 509.923C363.836 582.479 244.184 561.329 218.754 556.164C181.203 548.537 108.616 533.795 56.138 472.081C-23.2577 378.713 -10.8946 231.615 50.69 134.514C61.9548 116.752 121.459 18.1717 242.4 2.36233C315.593 -7.20518 400.911 12.0915 462.697 63.8555C592.391 172.513 583.158 392.02 495.955 483.824Z" fill="url(#paint0_linear_114_442)"/>
<path d="M28.9902 118.868C28.6715 118.717 28.4513 118.393 28.4541 118.025C28.4626 116.808 28.497 115.571 28.5563 114.348C28.5806 113.846 29.0137 113.466 29.5239 113.499C30.7609 113.572 30.3262 114.776 30.3032 118.069C30.3 118.573 29.8832 118.971 29.3725 118.958C29.2359 118.955 29.1066 118.923 28.9902 118.868Z" fill="#91B3FA"/>
<path d="M29.8542 102.974C30.2694 100.673 30.7834 98.3613 31.3814 96.1024C31.5099 95.6176 32.0144 95.3341 32.5088 95.4692C33.8538 95.8456 32.8997 96.5432 31.675 103.324C31.5857 103.818 31.1061 104.14 30.6032 104.043C30.0935 103.945 29.7659 103.462 29.8542 102.974ZM35.0046 85.2693C35.8902 83.0948 36.8789 80.9152 37.9106 78.8672C38.4635 77.7655 40.1017 78.6448 39.5699 79.6996C38.5432 81.7422 37.5893 83.8455 36.7226 85.9737C36.5336 86.4382 35.9957 86.6564 35.5214 86.4619C35.0418 86.2649 34.8176 85.7288 35.0046 85.2693ZM43.6888 69.0176C44.9984 67.0852 46.4037 65.181 47.8662 63.357C48.6208 62.4172 50.075 63.5669 49.325 64.5024C47.8919 66.2895 46.5149 68.1555 45.232 70.0483C44.557 71.0442 43.0154 70.0103 43.6888 69.0176ZM55.5898 56.201C55.2303 55.8375 55.2329 55.2606 55.5958 54.9127C57.2849 53.2927 59.0628 51.7184 60.8801 50.2341C61.8146 49.4714 63.0088 50.8831 62.0752 51.6458C60.2948 53.1 58.5523 54.6425 56.897 56.2296C56.5345 56.5783 55.9481 56.565 55.5898 56.201ZM69.9496 44.8132C69.6715 44.3863 69.7933 43.8241 70.2216 43.5575C72.2179 42.3154 74.2893 41.1367 76.3781 40.0543C77.4532 39.5001 78.3361 41.1133 77.2612 41.6711C75.2142 42.732 73.1845 43.8866 71.2284 45.1037C70.801 45.37 70.2279 45.2401 69.9496 44.8132ZM86.8765 37.0823C86.6672 36.9832 86.4943 36.8085 86.404 36.5784C86.2184 36.1065 86.4535 35.5819 86.9294 35.4073C89.1477 34.5936 91.4247 33.8572 93.6979 33.2178C94.1869 33.0805 94.7025 33.3612 94.8511 33.8458C94.9989 34.3302 94.7228 34.8339 94.2342 34.9714C92.0067 35.5974 89.7751 36.3196 87.601 37.1171C87.3569 37.2068 87.0969 37.1869 86.8765 37.0823ZM104.786 32.5134C104.518 32.3866 104.315 32.1376 104.262 31.8292C104.177 31.3313 104.516 30.867 105.019 30.7918C107.363 30.4419 109.752 30.1791 112.12 30.0116C112.628 29.9744 113.078 30.3524 113.123 30.8553C113.169 31.357 112.794 31.7934 112.285 31.8294C109.965 31.9939 107.624 32.2512 105.328 32.5943C105.137 32.623 104.949 32.5911 104.786 32.5134ZM122.793 30.7799C122.812 30.2772 123.242 29.893 123.752 29.9211C126.126 30.0522 128.528 30.2785 130.893 30.5931C132.111 30.7586 131.889 32.5603 130.677 32.3992C128.361 32.0908 126.007 31.8694 123.681 31.7409C123.172 31.7131 122.773 31.2834 122.793 30.7799ZM180.301 55.3119C175.119 50.6396 173.87 50.6064 174.722 49.524C175.032 49.1291 175.612 49.0646 176.018 49.3758C177.907 50.8315 179.764 52.3796 181.536 53.9769C182.445 54.7963 181.214 56.1333 180.301 55.3119ZM141.218 33.4983C141.341 33.0123 141.842 32.7238 142.338 32.8541C144.643 33.4605 146.956 34.1637 149.214 34.9451C150.375 35.347 149.788 37.0648 148.629 36.6637C146.417 35.8982 144.149 35.2085 141.891 34.6143C141.39 34.482 141.095 33.9795 141.218 33.4983ZM165.412 44.4C159.404 40.8656 158.161 41.0772 158.769 39.8377C159.154 39.0517 160.114 39.4358 160.002 39.4313C162.153 40.4846 164.285 41.6313 166.338 42.8386C166.781 43.0986 166.931 43.6588 166.675 44.0895C166.431 44.5013 165.883 44.669 165.412 44.4Z" fill="#91B3FA"/>
<path d="M190.653 66.3338C188.719 63.8971 187.466 63.0229 188.419 62.231C188.805 61.9095 189.389 61.9598 189.722 62.3494C191.824 64.7887 192.897 65.7806 191.952 66.5033C191.669 66.7203 190.97 66.7319 190.653 66.3338Z" fill="#91B3FA"/>
<path d="M209.937 134.46C209.579 134.29 209.355 133.907 209.41 133.503C209.571 132.316 209.709 131.113 209.821 129.927C209.868 129.426 210.318 129.066 210.827 129.121C211.334 129.177 211.709 129.626 211.663 130.127C211.549 131.338 211.407 132.565 211.243 133.776C211.175 134.274 210.71 134.616 210.204 134.541C210.109 134.527 210.019 134.499 209.937 134.46Z" fill="#91B3FA"/>
<path d="M79.2691 200.472C76.9744 199.307 74.7014 198.033 72.5139 196.685C72.0774 196.417 71.9382 195.854 72.2036 195.428C72.9515 194.23 73.3786 195.446 80.0928 198.855C80.5502 199.087 80.7364 199.637 80.5086 200.084C80.1113 200.864 79.1581 200.466 79.2691 200.472ZM90.2559 204.25C90.7167 202.917 91.439 204.023 98.6774 205.921C99.1747 206.049 99.4749 206.551 99.352 207.037C99.229 207.523 98.7273 207.812 98.232 207.682C95.7549 207.033 93.266 206.27 90.8347 205.415C90.3477 205.243 90.0932 204.72 90.2559 204.25ZM62.2768 189.388C60.293 187.761 58.3512 186.029 56.5069 184.242C56.1397 183.886 56.1293 183.309 56.4842 182.953C57.4843 181.95 57.6281 183.225 63.4447 187.995C63.8406 188.32 63.9001 188.894 63.5778 189.279C63.2553 189.664 62.6734 189.712 62.2768 189.388ZM110.273 209.963C109.924 209.797 109.7 209.428 109.743 209.03C109.797 208.53 110.252 208.176 110.76 208.238C113.259 208.544 115.796 208.749 118.299 208.845C118.811 208.865 119.215 209.289 119.204 209.791C119.193 210.295 118.77 210.686 118.26 210.667C115.704 210.568 113.115 210.359 110.565 210.046C110.461 210.034 110.363 210.005 110.273 209.963ZM130.266 210.218C129.983 210.085 129.774 209.815 129.735 209.487C129.676 208.986 130.04 208.54 130.547 208.491C133.037 208.25 135.547 207.901 138.008 207.453C138.508 207.361 138.996 207.689 139.097 208.184C139.198 208.679 138.875 209.154 138.375 209.245C135.863 209.703 133.301 210.059 130.76 210.305C130.585 210.322 130.415 210.289 130.266 210.218ZM149.755 206.145C149.536 206.041 149.357 205.854 149.271 205.61C149.103 205.132 149.358 204.617 149.84 204.46C152.208 203.686 154.571 202.804 156.864 201.837C157.33 201.641 157.876 201.856 158.085 202.319C158.293 202.783 158.083 203.318 157.617 203.514C155.277 204.501 152.866 205.402 150.449 206.191C150.213 206.268 149.966 206.245 149.755 206.145ZM167.806 197.965C167.648 197.89 167.509 197.77 167.41 197.612C167.141 197.179 167.274 196.62 167.709 196.362C169.841 195.097 171.943 193.725 173.958 192.285C174.368 191.992 174.947 192.085 175.252 192.495C175.556 192.905 175.471 193.474 175.061 193.767C173.005 195.236 170.859 196.637 168.683 197.928C168.408 198.091 168.079 198.094 167.806 197.965ZM183.277 185.874C182.271 184.846 183.561 184.762 188.455 179.239C189.252 178.339 190.655 179.552 189.857 180.452C188.187 182.336 186.413 184.173 184.584 185.909C184.221 186.253 183.637 186.242 183.277 185.874ZM196.078 170.936C194.87 170.148 196.098 169.793 199.623 163.316C200.194 162.266 201.831 163.143 201.256 164.199C200.053 166.409 198.741 168.592 197.356 170.686C197.075 171.11 196.495 171.212 196.078 170.936ZM205.11 153.51C204.678 153.305 204.464 152.806 204.633 152.36C205.504 150.044 206.284 147.672 206.95 145.311C207.086 144.829 207.596 144.553 208.088 144.696C208.581 144.842 208.869 145.346 208.733 145.829C208.053 148.238 207.257 150.658 206.367 153.021C206.191 153.49 205.66 153.722 205.18 153.54C205.156 153.531 205.133 153.521 205.11 153.51Z" fill="#91B3FA"/>
<path d="M48.0762 174.882C46.0863 172.348 45.0628 171.312 46.0417 170.634C47.0597 169.929 47.4945 171.187 49.5312 173.783C49.8465 174.185 49.7759 174.756 49.3741 175.06C48.9726 175.363 48.3913 175.283 48.0762 174.882Z" fill="#91B3FA"/>
<path d="M60.0386 152.777L73.2858 152.224C76.8976 157.25 81.3386 161.759 86.517 165.519C85.996 178.207 85.0602 179.059 86.3752 179.62L101.078 185.89C101.508 186.073 102.003 185.969 102.312 185.631L111.111 176.006C117.404 177.137 123.724 177.216 129.84 176.338L138.632 186.288C138.941 186.637 139.436 186.758 139.866 186.591L154.576 180.854C155.006 180.686 155.276 180.266 155.248 179.808L154.452 166.739C159.489 163.268 163.985 158.97 167.709 153.932L180.947 154.964C181.412 155 181.843 154.742 182.021 154.322L188.122 139.939C188.301 139.519 188.187 139.028 187.839 138.718L177.915 129.874C178.952 123.69 178.92 117.462 177.92 111.417C187.453 102.92 188.687 103.013 188.147 101.716C181.93 87.4968 182.442 86.3716 180.992 86.4317L167.745 86.9849C164.133 81.9583 159.692 77.4495 154.514 73.6896C155.034 61.0098 155.971 60.1498 154.656 59.5882C139.94 53.6105 139.665 52.5418 138.719 53.5771L129.92 63.2029C123.627 62.0713 117.306 61.9918 111.19 62.8704C102.506 53.4396 102.491 52.0998 101.165 52.6174C86.7078 58.551 85.6964 57.9888 85.7822 59.4003L86.5779 72.4688C81.5413 75.9402 77.0446 80.2383 73.321 85.2761C60.6638 84.5508 59.5659 83.573 59.0093 84.8866C53.2293 99.2233 52.1185 99.5331 53.1917 100.49L63.1153 109.334C62.0789 115.518 62.1103 121.747 63.1099 127.792C53.6099 136.26 52.3411 136.189 52.8832 137.493C59.1002 151.712 58.5878 152.837 60.0386 152.777Z" fill="#91B3FA"/>
<path d="M105.159 117.11C106.404 108.787 114.307 103.135 122.774 104.51C131.241 105.888 137.117 113.776 135.872 122.099C134.626 130.421 126.724 136.073 118.256 134.698C109.786 133.323 103.913 125.431 105.159 117.11ZM122.37 107.208C115.498 106.091 108.941 110.618 107.903 117.556C106.88 124.391 111.705 130.873 118.66 132.001C125.614 133.13 132.104 128.488 133.127 121.653C134.152 114.807 129.313 108.334 122.37 107.208Z" fill="#BDD0FB"/>
<path d="M104.072 154.744C101.991 153.758 99.9956 152.6 98.1237 151.29C97.5609 150.896 97.3755 150.172 97.6534 149.585C97.6866 149.515 97.7264 149.447 97.7729 149.382C98.209 148.769 99.075 148.631 99.7028 149.07C101.856 150.576 104.186 151.867 106.626 152.909C125.013 160.749 146.11 152.895 154.404 135.397C154.615 134.95 154.819 134.497 155.014 134.038C162.886 115.48 153.831 94.0368 135.007 86.0045C116.208 77.9888 94.4798 86.3695 86.6195 104.876C81.9468 115.894 84.602 123.76 84.0666 124.89C83.4879 126.111 81.6359 125.811 81.4355 124.47C80.3398 117.146 81.347 109.425 84.7134 102.322C99.2403 71.6759 144.397 73.4243 157.595 105.113C161.657 114.865 161.65 125.525 157.575 135.131C157.365 135.628 157.144 136.119 156.914 136.604C152.703 145.492 145.338 152.333 136.023 155.966C126.199 159.797 115.381 159.601 105.563 155.415C105.062 155.202 104.564 154.978 104.072 154.744Z" fill="#BDD0FB"/>
<path d="M219.983 98.1088C222.192 100.771 224.842 103.1 227.871 104.97L227.94 112.372C227.947 113.193 228.653 112.883 236.782 115.762C237.534 116.014 237.458 115.308 241.966 109.684C245.511 110.014 249.028 109.748 252.395 108.95L257.681 114.14C258.269 114.715 258.547 113.997 266.33 110.284C266.563 110.168 266.696 109.918 266.662 109.661L265.698 102.316C268.36 100.107 270.689 97.4575 272.559 94.4278C279.631 94.2147 280.276 94.7102 280.533 93.9436C283.177 85.551 283.779 85.3283 283.145 84.8415L277.273 80.3329C277.603 76.7883 277.337 73.2706 276.539 69.9044L281.729 64.618C282.304 64.0319 281.586 63.7524 277.873 55.969C277.522 55.2618 277.105 55.8084 269.905 56.6014C267.696 53.9392 265.046 51.6103 262.017 49.7406L261.948 42.3382C261.94 41.5157 261.235 41.8268 253.106 38.9482C252.358 38.6976 252.452 39.3745 247.922 45.0262C244.377 44.6964 240.859 44.9626 237.493 45.7601L232.207 40.5711C232.022 40.3891 231.741 40.3449 231.509 40.4607L223.558 44.4259C223.326 44.5418 223.192 44.7923 223.226 45.0499L224.19 52.3943C221.528 54.6033 219.199 57.2529 217.33 60.2826C210.257 60.4957 209.611 60.0003 209.356 60.767C206.712 69.1564 206.109 69.3814 206.744 69.869L212.615 74.3775C212.286 77.9222 212.552 81.4398 213.349 84.8061C208.498 89.9579 207.688 90.0645 208.049 90.7901L212.015 98.7416C212.369 99.452 212.82 98.8978 219.983 98.1088Z" fill="#91B3FA"/>
<path d="M235.7 76.6557C236.087 71.5461 240.534 67.7234 245.644 68.1105C250.752 68.4968 254.576 72.9444 254.19 78.0542C253.804 83.1517 249.343 86.9855 244.245 86.6C239.147 86.2135 235.314 81.7542 235.7 76.6557ZM238.455 76.8638C238.185 80.4428 240.877 83.5738 244.453 83.8448C250.199 84.279 253.649 77.5 249.881 73.1139C246.128 68.7475 238.892 71.0806 238.455 76.8638Z" fill="#BDD0FB"/>
<path d="M198.262 90.7208C197.919 89.5244 197.619 88.2974 197.369 87.0739C197.268 86.5752 197.589 86.0892 198.088 85.9875C199.342 85.7317 199.149 87.1272 200.033 90.2133C200.173 90.7025 199.89 91.2125 199.401 91.3524C198.915 91.4922 198.403 91.2121 198.262 90.7208Z" fill="#91B3FA"/>
<path d="M196.464 74.7933C196.594 72.351 196.913 69.8104 197.449 67.2701C197.701 66.0751 199.502 66.462 199.252 67.6506C197.862 74.2317 198.874 75.8449 197.335 75.7623C196.823 75.7343 196.437 75.2984 196.464 74.7933ZM201.917 56.8786C201.462 56.651 201.277 56.0978 201.505 55.6426C202.633 53.3859 203.951 51.1988 205.421 49.1419C206.131 48.1516 207.629 49.2216 206.92 50.2137C205.506 52.1921 204.238 54.2958 203.153 56.4666C202.753 57.2653 201.805 56.8746 201.917 56.8786ZM213.985 41.653C213.868 41.5977 213.761 41.5173 213.673 41.4123C213.347 41.022 213.398 40.4413 213.788 40.1143C215.725 38.4926 217.804 37.0113 219.967 35.7115C220.403 35.4501 220.97 35.5911 221.231 36.0264C221.493 36.4624 221.352 37.0286 220.916 37.2902C218.835 38.5411 216.835 39.9667 214.971 41.5271C214.686 41.7654 214.299 41.8022 213.985 41.653ZM231.1 32.4756C230.871 32.3672 230.688 32.1651 230.611 31.9033C230.467 31.4155 230.746 30.9031 231.234 30.7598C233.656 30.0462 236.154 29.5195 238.66 29.195C239.165 29.1302 239.626 29.4857 239.692 29.9907C239.757 30.495 239.401 30.9568 238.896 31.0222C236.487 31.3341 234.084 31.84 231.755 32.5265C231.529 32.593 231.297 32.5689 231.1 32.4756ZM249.94 29.9691C250.003 29.4644 250.463 29.1055 250.968 29.1683C253.482 29.4803 255.983 29.9909 258.404 30.6862C259.572 31.0161 259.069 32.7937 257.895 32.4569C255.567 31.7881 253.16 31.2967 250.741 30.9971C250.224 30.9307 249.879 30.4638 249.94 29.9691Z" fill="#91B3FA"/>
<path d="M271.836 39.1413C269.074 37.1939 267.85 36.9828 268.486 35.914C268.746 35.4769 269.301 35.3255 269.748 35.5931C270.815 36.2271 271.875 36.9144 272.898 37.6359C273.314 37.9288 273.413 38.5035 273.12 38.9196C272.831 39.329 272.261 39.4385 271.836 39.1413Z" fill="#91B3FA"/>
<path d="M291.35 71.8917C290.957 68.5224 290.299 67.4804 291.519 67.2416C292.019 67.1434 292.502 67.4692 292.601 67.9679C292.84 69.1862 293.035 70.4345 293.18 71.6777C293.239 72.1831 292.877 72.6407 292.372 72.6994C291.869 72.7589 291.41 72.3978 291.35 71.8917Z" fill="#91B3FA"/>
<path d="M228.58 122.101C229.076 120.654 230.149 122.162 236.701 123.328C237.897 123.539 237.58 125.356 236.377 125.142C233.928 124.706 231.497 124.076 229.152 123.272C228.678 123.11 228.412 122.589 228.58 122.101ZM247.482 124.926C247.446 124.419 247.828 123.978 248.336 123.942C255.029 123.465 256.193 122.074 256.538 123.571C256.652 124.067 256.343 124.561 255.847 124.675C253.429 125.231 250.946 125.603 248.466 125.78C247.958 125.815 247.519 125.434 247.482 124.926ZM265.969 120.109C265.265 118.746 267.081 119.025 272.47 115.091C273.455 114.374 274.542 115.861 273.557 116.58C271.548 118.045 269.413 119.366 267.211 120.504C266.759 120.737 266.203 120.561 265.969 120.109ZM281.078 108.407C279.894 107.426 281.68 106.974 285.097 101.245C285.719 100.199 287.304 101.14 286.679 102.188C285.408 104.32 283.96 106.371 282.375 108.285C282.05 108.678 281.469 108.731 281.078 108.407ZM289.76 90.5708C291.651 84.1375 290.758 82.5518 292.283 82.7551C292.788 82.8218 293.142 83.2851 293.075 83.7894C292.747 86.2593 292.226 88.7154 291.527 91.091C291.383 91.5788 290.872 91.8583 290.383 91.7147C289.896 91.5712 289.616 91.0596 289.76 90.5708Z" fill="#91B3FA"/>
<path d="M218.245 117.908C217.204 117.221 216.177 116.485 215.194 115.721C214.792 115.409 214.72 114.831 215.031 114.429C215.817 113.417 216.575 114.599 219.259 116.37C219.684 116.65 219.801 117.221 219.521 117.646C219.237 118.077 218.661 118.184 218.245 117.908Z" fill="#91B3FA"/>
<path d="M233.494 96.9093C232.74 96.4673 232.596 95.6079 232.964 94.9884C233.353 94.3319 234.207 94.1171 234.857 94.5046C236.075 95.227 237.382 95.8245 238.743 96.2797C239.041 96.3189 246.031 99.1961 254.057 95.2073C269.974 87.268 268.356 63.881 251.468 58.2347C241.752 54.9855 231.266 59.6181 226.984 68.655C222.67 77.7558 227.383 82.5664 224.46 83.2094C223.715 83.3743 222.978 82.9036 222.813 82.1582C221.925 78.1388 222.15 73.9411 223.463 70.0181C227.445 58.1044 240.393 51.617 252.345 55.6142C265.206 59.9145 271.634 74.5767 265.711 87.0745C260.934 97.1548 249.133 102.669 237.866 98.9003L237.866 98.9001C236.341 98.3896 234.869 97.72 233.494 96.9093Z" fill="#BDD0FB"/>
<path d="M248.162 449.046L237.965 540.499H356.27L340.86 449.046H248.162Z" fill="url(#paint1_linear_114_442)"/>
<path d="M0 178.405V429.985C0 450.681 16.492 467.605 37.181 468.138C129.07 470.508 450.454 476.253 537.926 474.964C552.961 474.742 565.14 462.711 565.573 447.682C567.26 389.236 569.999 248.695 559.862 183.447C557.727 169.706 546.129 159.431 532.231 158.987C455.239 156.524 114.551 148.703 27.1196 150.666C12.0406 151.005 0 163.323 0 178.405Z" fill="url(#paint2_linear_114_442)"/>
<path d="M15.7861 177.181V416.199C15.7861 428.282 25.4857 438.128 37.5677 438.308L525.342 444.335C537.321 444.514 547.139 434.877 547.184 422.897L548 186.014C548.032 177.449 541.208 170.43 532.644 170.222L33.2538 160.133C23.676 159.9 15.7861 167.6 15.7861 177.181Z" fill="#7D97F4"/>
<path d="M29.623 184.766V409.105C29.623 420.446 38.8588 429.687 50.3626 429.857L514.804 435.513C526.209 435.681 535.558 426.636 535.6 415.392L536.377 193.057C536.408 185.017 529.91 178.43 521.756 178.234L46.255 168.765C37.1355 168.546 29.623 175.774 29.623 184.766Z" fill="#91B3FA"/>
<path d="M550.856 454.202H550.844L15.7737 445.085C15.3603 445.077 15.0315 444.737 15.0382 444.324C15.0454 443.911 15.4092 443.562 15.7985 443.589L550.868 452.706C551.282 452.713 551.611 453.054 551.604 453.466C551.597 453.875 551.264 454.202 550.856 454.202Z" fill="#91B3FA"/>
<path d="M288.599 465.337C285.118 465.337 282.284 462.503 282.284 459.021C282.284 455.539 285.118 452.706 288.599 452.706C292.081 452.706 294.915 455.539 294.915 459.021C294.915 462.503 292.081 465.337 288.599 465.337ZM288.599 454.202C285.942 454.202 283.78 456.364 283.78 459.021C283.78 461.679 285.942 463.841 288.599 463.841C291.257 463.841 293.419 461.679 293.419 459.021C293.419 456.364 291.257 454.202 288.599 454.202Z" fill="#91B3FA"/>
<path d="M381.752 559.21H208.605C203.901 559.21 200.369 555.861 201.278 552.264L203.5 543.478C204.168 540.835 207.075 538.895 210.528 538.787L377.448 533.579C381.055 533.466 384.249 535.381 385.035 538.127L389.041 552.123C390.081 555.759 386.532 559.21 381.752 559.21Z" fill="url(#paint3_linear_114_442)"/>
<path d="M301.814 541.351C301.405 541.351 301.071 541.023 301.066 540.614C301.06 540.201 301.39 539.861 301.802 539.855L308.955 539.751C309.349 539.762 309.708 540.075 309.714 540.488C309.72 540.901 309.389 541.241 308.977 541.247L301.824 541.351H301.814Z" fill="#91B3FA"/>
<path d="M207.689 554.549C207.651 554.549 207.61 554.546 207.571 554.54C207.162 554.475 206.885 554.091 206.95 553.684L207.97 547.293C208.532 543.77 211.529 541.176 215.096 541.123L290.962 540.014C291.388 540.009 291.715 540.338 291.721 540.751C291.727 541.163 291.396 541.504 290.984 541.51L215.118 542.619C212.279 542.661 209.894 544.725 209.447 547.528L208.427 553.919C208.368 554.287 208.051 554.549 207.689 554.549Z" fill="#91B3FA"/>
<path d="M181.416 185.415L237.762 184.998C245.461 184.941 251.638 190.882 251.315 198.033L245.804 319.804C245.501 326.476 239.62 331.76 232.437 331.813L182.503 332.182C175.063 332.238 168.991 326.676 168.939 319.761L168.038 198.036C167.987 191.121 173.977 185.47 181.416 185.415Z" fill="#BDD0FB"/>
<path opacity="0.2" d="M225.099 356.444L46.8149 358.564C39.9491 358.646 34.5364 363.091 34.8722 368.373L37.8408 415.061C38.1577 420.043 43.4947 423.956 49.9708 423.956H225.286C231.994 423.956 237.431 419.769 237.431 414.604V365.795C237.431 360.574 231.879 356.363 225.099 356.444Z" fill="white"/>
<path d="M445.224 343.456L266.94 346.051C260.074 346.151 254.661 351.59 254.997 358.053L257.966 415.18C258.283 421.276 263.62 426.064 270.096 426.064H445.411C452.119 426.064 457.556 420.941 457.556 414.621V354.899C457.556 348.51 452.004 343.358 445.224 343.456Z" fill="#BDD0FB"/>
<path d="M145.827 179.767H53.7349C46.295 179.767 40.2637 185.846 40.2637 193.344V325.329C40.2637 332.827 46.295 338.906 53.7349 338.906H145.827C153.267 338.906 159.298 332.827 159.298 325.329V193.344C159.298 185.846 153.267 179.767 145.827 179.767Z" fill="#BDD0FB"/>
<path d="M373.131 230.929H281.039C273.599 230.929 267.567 234.186 267.567 238.205V308.935C267.567 312.954 273.599 316.211 281.039 316.211H373.131C380.571 316.211 386.602 312.954 386.602 308.935V238.205C386.602 234.186 380.571 230.929 373.131 230.929Z" fill="#BDD0FB"/>
<path d="M526.696 224.61H416.088C407.152 224.61 399.908 227.868 399.908 231.886V302.617C399.908 306.635 407.152 309.892 416.088 309.892H526.696C535.632 309.892 542.876 306.635 542.876 302.617V231.886C542.876 227.868 535.632 224.61 526.696 224.61Z" fill="#BDD0FB"/>
<path d="M494.614 108.103C458.354 107.085 278.993 101.097 242.181 99.8667C238.548 99.7452 235.57 105.326 235.57 112.253V144.269C235.57 151.111 238.48 156.657 242.068 156.657H494.515C498.103 156.657 501.012 151.111 501.012 144.269V120.49C501.012 113.719 498.165 108.203 494.614 108.103Z" fill="url(#paint4_linear_114_442)"/>
<path d="M255.471 148.932L265.285 143.792C266.048 143.392 266.96 143.393 267.721 143.795L277.52 148.966C279.439 149.978 281.686 148.351 281.322 146.212L279.466 135.29C279.322 134.44 279.605 133.574 280.222 132.974L288.168 125.253C289.724 123.741 288.87 121.101 286.724 120.786L275.763 119.176C274.91 119.051 274.174 118.514 273.794 117.741L268.906 107.799C267.948 105.852 265.174 105.847 264.211 107.791L259.293 117.719C258.91 118.491 258.172 119.025 257.32 119.148L246.354 120.724C244.206 121.033 243.345 123.67 244.896 125.187L252.818 132.932C253.434 133.535 253.714 134.402 253.567 135.25L251.678 146.167C251.307 148.305 253.549 149.939 255.471 148.932Z" fill="url(#paint5_linear_114_442)"/>
<path d="M306.11 150.377L315.924 145.237C316.687 144.837 317.598 144.838 318.36 145.24L328.158 150.411C330.077 151.423 332.324 149.796 331.961 147.657L330.105 136.735C329.96 135.885 330.243 135.019 330.861 134.419L338.806 126.698C340.362 125.186 339.509 122.546 337.362 122.231L326.401 120.621C325.549 120.496 324.812 119.959 324.432 119.186L319.544 109.244C318.587 107.297 315.813 107.293 314.85 109.237L309.931 119.164C309.549 119.936 308.811 120.47 307.958 120.593L296.992 122.169C294.845 122.478 293.983 125.115 295.535 126.632L303.456 134.377C304.072 134.979 304.353 135.846 304.206 136.695L302.316 147.612C301.946 149.75 304.188 151.384 306.11 150.377Z" fill="url(#paint6_linear_114_442)"/>
<path d="M357.19 150.662L367.004 145.521C367.767 145.121 368.678 145.123 369.44 145.525L379.239 150.695C381.158 151.708 383.405 150.08 383.041 147.941L381.185 137.019C381.041 136.17 381.323 135.304 381.941 134.703L389.886 126.982C391.442 125.47 390.589 122.831 388.442 122.515L377.481 120.905C376.629 120.78 375.893 120.243 375.512 119.47L370.624 109.528C369.667 107.581 366.893 107.577 365.93 109.521L361.012 119.448C360.629 120.22 359.891 120.755 359.038 120.877L348.072 122.454C345.925 122.762 345.063 125.4 346.615 126.917L354.536 134.662C355.153 135.264 355.433 136.131 355.286 136.98L353.396 147.897C353.026 150.034 355.268 151.668 357.19 150.662Z" fill="url(#paint7_linear_114_442)"/>
<path d="M406.773 151.243L416.587 146.103C417.35 145.703 418.261 145.704 419.023 146.107L428.821 151.277C430.74 152.29 432.987 150.662 432.624 148.523L430.768 137.601C430.623 136.752 430.906 135.886 431.524 135.285L439.469 127.564C441.025 126.052 440.172 123.412 438.025 123.097L427.064 121.487C426.212 121.362 425.475 120.825 425.095 120.052L420.207 110.11C419.25 108.163 416.476 108.159 415.513 110.103L410.595 120.03C410.212 120.802 409.474 121.336 408.621 121.459L397.655 123.035C395.508 123.344 394.646 125.981 396.198 127.498L404.119 135.243C404.736 135.846 405.016 136.713 404.869 137.562L402.979 148.478C402.609 150.616 404.851 152.25 406.773 151.243Z" fill="url(#paint8_linear_114_442)"/>
<path d="M457.234 151.243L467.048 146.103C467.811 145.703 468.722 145.704 469.484 146.107L479.283 151.277C481.202 152.29 483.449 150.662 483.085 148.523L481.229 137.601C481.084 136.752 481.367 135.886 481.985 135.285L489.93 127.564C491.486 126.052 490.633 123.412 488.486 123.097L477.525 121.487C476.673 121.362 475.936 120.825 475.556 120.052L470.668 110.11C469.711 108.163 466.937 108.159 465.974 110.103L461.055 120.03C460.673 120.802 459.935 121.336 459.082 121.459L448.116 123.035C445.969 123.344 445.107 125.981 446.659 127.498L454.58 135.243C455.196 135.846 455.477 136.713 455.33 137.562L453.44 148.478C453.07 150.616 455.312 152.25 457.234 151.243Z" fill="url(#paint9_linear_114_442)"/>
<path d="M60.1346 299.112L218.981 300.424C227.745 300.497 234.914 307.424 235.288 316.18L245.111 546.575C245.403 553.426 239.964 559.159 233.106 559.227L51.0205 561.032C44.5767 561.096 39.3338 555.862 39.3871 549.418L41.3012 317.637C41.3866 307.321 49.8184 299.027 60.1346 299.112Z" fill="url(#paint10_linear_114_442)"/>
<path d="M77.6559 557.421H77.6539L57.2849 556.989C50.4283 556.844 44.8961 551.146 44.9526 544.289L45.2065 513.531C45.209 513.245 45.4432 513.015 45.7297 513.017C46.0213 513.035 46.2471 513.254 46.2441 513.54L45.9901 544.297C45.9383 550.59 51.0151 555.819 57.3068 555.952L77.6758 556.383C77.9626 556.389 78.1894 556.626 78.1836 556.913C78.1777 557.199 77.9417 557.426 77.6559 557.421Z" fill="#BDD0FB"/>
<path d="M45.7951 504.528C45.5108 504.523 45.2828 504.289 45.2852 504.005L45.326 499.024C45.3284 498.737 45.5625 498.507 45.8492 498.509H45.8522C46.1379 498.514 46.366 498.747 46.3636 499.032L46.3227 504.013C46.3203 504.299 46.0863 504.53 45.7995 504.528C45.7981 504.528 45.7965 504.528 45.7951 504.528Z" fill="#BDD0FB"/>
<path d="M60.6386 297.25C82.3064 300.37 156.824 310.084 218.536 305.859C221.35 305.666 223.774 307.818 223.9 310.636L234.284 542.062C234.426 545.235 231.982 547.928 228.81 548.089C202.859 549.41 95.9876 554.462 57.9186 550.156C55.6018 549.894 53.8577 547.928 53.8633 545.596L54.4404 302.61C54.4478 299.31 57.3717 296.779 60.6386 297.25Z" fill="url(#paint11_linear_114_442)"/>
<path opacity="0.6" d="M62.9124 303.269C83.7642 306.273 155.476 315.621 214.864 311.555C217.572 311.37 219.904 313.44 220.026 316.152L230.019 538.863C230.156 541.917 227.804 544.508 224.751 544.663C199.777 545.934 96.9298 550.796 60.2945 546.653C58.0648 546.4 56.3862 544.508 56.3916 542.264L56.9472 308.428C56.9546 305.252 59.7683 302.817 62.9124 303.269Z" fill="white"/>
<g opacity="0.6">
<path d="M211.816 331.09C213.324 331.103 214.516 330.392 214.465 329.511C214.415 328.63 213.139 327.889 211.631 327.865L79.186 325.727C77.6781 325.702 77.205 326.654 78.1346 327.841C79.0642 329.029 81.0585 330.01 82.5663 330.023L211.816 331.09Z" fill="white"/>
</g>
<g opacity="0.6">
<path d="M79.1118 334.624C77.6039 334.6 77.1308 335.551 78.0604 336.739C78.9899 337.926 80.9842 338.908 82.4921 338.92L211.742 339.988C213.25 340 214.442 339.289 214.391 338.408C214.34 337.527 213.065 336.786 211.557 336.762L79.1118 334.624Z" fill="white"/>
</g>
<path d="M100.502 415.656C100.486 415.656 100.469 415.657 100.453 415.657L82.5767 415.916C80.0007 415.953 77.8319 414.232 77.5323 411.911L75.5991 396.953C75.4843 396.063 75.7401 395.175 76.3194 394.451C76.9663 393.643 77.962 393.122 79.0506 393.02C80.5559 392.882 82.628 392.654 84.908 392.405C89.8723 391.861 95.4986 391.244 98.81 391.123C98.8345 391.123 98.8586 391.121 98.883 391.121C101.252 391.064 103.326 392.459 103.941 394.534C104.958 397.96 105.033 404.481 105.023 411.43C105.019 413.709 102.996 415.596 100.502 415.656ZM79.1856 394.473C78.4884 394.538 77.8588 394.862 77.4581 395.363C77.1287 395.774 76.9821 396.273 77.0459 396.766L78.9792 411.724C79.1837 413.309 80.7214 414.484 82.5558 414.458L100.432 414.198C100.444 414.198 100.456 414.198 100.467 414.197C102.176 414.156 103.562 412.92 103.564 411.428C103.574 404.592 103.503 398.187 102.543 394.948C102.117 393.515 100.537 392.48 98.8635 392.581C95.605 392.7 89.7619 393.341 85.0665 393.854C82.7774 394.105 80.6969 394.333 79.1856 394.473Z" fill="white"/>
<path opacity="0.6" d="M81.1413 395.932C84.8896 395.584 93.0299 394.559 96.8988 394.417C98.5382 394.358 100.001 395.314 100.419 396.726C101.233 399.47 101.267 404.978 101.26 410.062C101.258 411.584 99.8895 412.833 98.1825 412.858L83.8969 413.065C82.1401 413.09 80.6531 411.928 80.452 410.372L78.9073 398.419C78.7475 397.183 79.7519 396.06 81.1413 395.932Z" fill="white"/>
<g opacity="0.6">
<path d="M117.09 399.716C115.582 399.716 114.692 400.902 115.112 402.35L116.157 405.957C116.577 407.406 118.153 408.561 119.661 408.525L207.103 406.416C208.611 406.379 209.788 405.117 209.718 403.611L209.664 402.425C209.594 400.919 208.304 399.687 206.796 399.687L117.09 399.716Z" fill="white"/>
</g>
<path d="M81.9592 398.265C83.2672 397.454 84.986 397.878 85.7678 399.203L89.4455 405.437C89.8137 406.061 90.7359 405.999 91.0166 405.331L99.2905 385.654C99.7033 384.673 101.157 384.966 101.167 386.031C101.221 391.987 99.9147 403.343 90.6295 413.046C90.6295 413.046 85.3377 411.135 80.8919 401.966C80.2494 400.641 80.7079 399.04 81.9592 398.265Z" fill="url(#paint12_linear_114_442)"/>
<path d="M101.196 375.509C101.179 375.51 101.163 375.51 101.147 375.511L83.2701 375.77C80.6941 375.807 78.5255 374.085 78.2259 371.765L76.2925 356.807C76.1777 355.917 76.4334 355.029 77.0127 354.305C77.6596 353.497 78.6554 352.976 79.744 352.874C81.2493 352.735 83.3214 352.508 85.6014 352.258C90.5656 351.715 96.192 351.098 99.5033 350.977C99.5279 350.976 99.552 350.975 99.5763 350.975C101.946 350.917 104.019 352.313 104.635 354.388C105.651 357.814 105.726 364.335 105.717 371.284C105.713 373.563 103.69 375.449 101.196 375.509ZM79.8789 354.327C79.1818 354.392 78.5524 354.716 78.1515 355.217C77.8219 355.628 77.6755 356.127 77.7392 356.62L79.6724 371.578C79.8769 373.163 81.4147 374.338 83.249 374.311L101.125 374.052C101.137 374.052 101.149 374.051 101.161 374.051C102.869 374.01 104.255 372.774 104.258 371.282C104.267 364.445 104.196 358.04 103.236 354.802C102.81 353.368 101.231 352.334 99.5568 352.435C96.2984 352.554 90.4552 353.194 85.7598 353.708C83.471 353.959 81.3904 354.187 79.8789 354.327Z" fill="white"/>
<path opacity="0.6" d="M81.8357 355.785C85.5838 355.438 93.7242 354.413 97.5934 354.271C99.2328 354.211 100.695 355.167 101.114 356.58C101.927 359.324 101.961 364.831 101.954 369.916C101.952 371.438 100.584 372.687 98.8769 372.712L84.5913 372.919C82.8344 372.944 81.3475 371.782 81.1464 370.226L79.6017 358.273C79.4417 357.037 80.4462 355.914 81.8357 355.785Z" fill="white"/>
<g opacity="0.6">
<path d="M117.784 359.57C116.276 359.57 115.385 360.756 115.805 362.204L116.85 365.811C117.27 367.26 118.847 368.415 120.354 368.379L207.796 366.269C209.304 366.233 210.481 364.971 210.412 363.464L210.357 362.279C210.288 360.772 208.997 359.54 207.489 359.541L117.784 359.57Z" fill="white"/>
</g>
<path d="M82.6525 358.119C83.9605 357.308 85.6793 357.732 86.4611 359.057L90.1386 365.291C90.5068 365.915 91.429 365.853 91.7099 365.185L99.9838 345.509C100.397 344.527 101.85 344.821 101.86 345.885C101.915 351.842 100.608 363.197 91.3226 372.901C91.3226 372.901 86.0306 370.989 81.585 361.82C80.9429 360.495 81.4014 358.894 82.6525 358.119Z" fill="url(#paint13_linear_114_442)"/>
<path d="M101.426 453.96C101.41 453.961 101.393 453.961 101.377 453.961L83.5006 454.221C80.9244 454.258 78.7558 452.536 78.4562 450.216L76.523 435.259C76.408 434.368 76.664 433.48 77.2429 432.756C77.89 431.947 78.8855 431.426 79.9743 431.325C81.4796 431.186 83.5517 430.959 85.8317 430.709C90.796 430.166 96.4223 429.549 99.7335 429.427C99.758 429.427 99.7823 429.426 99.8063 429.425C102.176 429.368 104.25 430.764 104.865 432.839C105.881 436.265 105.956 442.786 105.946 449.734C105.943 452.014 103.92 453.9 101.426 453.96ZM80.1093 432.778C79.4127 432.843 78.7829 433.167 78.382 433.668C78.0524 434.079 77.9058 434.578 77.9698 435.071L79.9031 450.029C80.1078 451.614 81.6455 452.789 83.4799 452.762L101.356 452.503C101.368 452.503 101.38 452.502 101.392 452.502C103.1 452.461 104.486 451.225 104.488 449.733C104.498 442.896 104.427 436.491 103.467 433.254C103.041 431.819 101.462 430.803 99.7876 430.886C96.5291 431.005 90.6858 431.645 85.9906 432.159C83.7011 432.41 81.6206 432.638 80.1093 432.778Z" fill="white"/>
<path opacity="0.6" d="M82.0661 434.237C85.8142 433.889 93.9549 432.864 97.8236 432.722C99.463 432.662 100.925 433.619 101.344 435.031C102.158 437.775 102.192 443.282 102.185 448.366C102.182 449.889 100.814 451.138 99.1073 451.162L84.8217 451.37C83.0649 451.395 81.5781 450.233 81.3768 448.677L79.8322 436.724C79.6723 435.488 80.6765 434.365 82.0661 434.237Z" fill="white"/>
<g opacity="0.6">
<path d="M118.014 438.021C116.506 438.021 115.616 439.207 116.036 440.655L117.081 444.262C117.5 445.711 119.077 446.866 120.585 446.83L208.027 444.721C209.535 444.684 210.712 443.422 210.642 441.916L210.588 440.73C210.518 439.223 209.228 437.991 207.72 437.992L118.014 438.021Z" fill="white"/>
</g>
<path d="M82.8831 436.57C84.1911 435.759 85.9099 436.183 86.6917 437.508L90.3692 443.742C90.7374 444.366 91.6596 444.304 91.9405 443.636L100.214 423.96C100.627 422.978 102.081 423.272 102.091 424.336C102.145 430.293 100.838 441.649 91.5532 451.352C91.5532 451.352 86.2616 449.44 81.8156 440.271C81.1733 438.946 81.6318 437.345 82.8831 436.57Z" fill="url(#paint14_linear_114_442)"/>
<path d="M100.64 490.783C100.625 490.783 100.609 490.784 100.593 490.784L82.7164 491.043C80.1406 491.081 77.9719 489.359 77.6719 487.038L75.7388 472.081C75.6239 471.191 75.8799 470.302 76.4588 469.579C77.1057 468.77 78.1014 468.249 79.1903 468.147C80.6943 468.008 82.764 467.782 85.0416 467.532C89.7624 467.015 95.6374 466.372 98.95 466.251C101.301 466.183 103.459 467.565 104.081 469.661C105.097 473.088 105.173 479.608 105.163 486.557C105.159 488.836 103.135 490.723 100.64 490.783ZM79.3248 469.6C78.6282 469.665 77.9985 469.989 77.5971 470.49C77.2678 470.902 77.1214 471.4 77.1853 471.893L79.1185 486.85C79.3232 488.436 80.8608 489.611 82.6947 489.584L100.572 489.325C102.256 489.255 103.701 488.057 103.704 486.555C103.713 479.718 103.642 473.314 102.682 470.075C102.256 468.642 100.678 467.644 99.0027 467.708C95.7428 467.827 89.8971 468.467 85.2001 468.982C82.9136 469.232 80.8351 469.46 79.3248 469.6Z" fill="white"/>
<path opacity="0.6" d="M81.2809 471.059C85.0292 470.712 93.1695 469.686 97.0386 469.545C98.678 469.485 100.14 470.44 100.559 471.853C101.373 474.597 101.407 480.105 101.4 485.189C101.397 486.712 100.029 487.96 98.3221 487.985L84.0365 488.192C82.2799 488.217 80.7929 487.055 80.5916 485.499L79.047 473.546C78.8873 472.31 79.8915 471.187 81.2809 471.059Z" fill="white"/>
<g opacity="0.6">
<path d="M117.229 474.843C115.721 474.843 114.831 476.029 115.25 477.477L116.295 481.084C116.715 482.532 118.292 483.688 119.799 483.651L207.242 481.543C208.749 481.506 209.926 480.244 209.857 478.738L209.802 477.552C209.733 476.045 208.442 474.813 206.934 474.813L117.229 474.843Z" fill="white"/>
</g>
<path d="M82.0978 473.392C83.4058 472.581 85.1246 473.005 85.9064 474.33L89.5842 480.564C89.9521 481.188 90.8743 481.126 91.1552 480.458L99.4292 460.782C99.8418 459.8 101.296 460.094 101.305 461.158C101.36 467.115 100.053 478.47 90.7679 488.173C90.7679 488.173 85.4761 486.262 81.0303 477.093C80.3882 475.768 80.8467 474.167 82.0978 473.392Z" fill="url(#paint15_linear_114_442)"/>
<path d="M99.5257 528.763C99.5094 528.763 99.4929 528.764 99.4766 528.764L81.6 529.024C79.0238 529.061 76.8551 527.339 76.5557 525.019L74.6226 510.061C74.5077 509.171 74.7635 508.283 75.3426 507.559C75.9897 506.75 76.9852 506.229 78.0741 506.128C79.5793 505.989 81.6512 505.762 83.9313 505.512C88.8955 504.968 94.5221 504.352 97.8332 504.231C100.262 504.204 102.343 505.545 102.965 507.642C103.981 511.068 104.056 517.589 104.046 524.538C104.043 526.817 102.02 528.703 99.5257 528.763ZM78.2088 507.581C77.5118 507.645 76.8823 507.969 76.4817 508.47C76.1522 508.882 76.0056 509.38 76.0695 509.873L78.0029 524.831C78.2076 526.417 79.7452 527.591 81.5795 527.565L99.4561 527.306C99.4676 527.305 99.4796 527.305 99.4913 527.305C101.2 527.264 102.586 526.028 102.588 524.536C102.598 517.699 102.527 511.294 101.567 508.056C101.141 506.622 99.5627 505.642 97.8873 505.688C94.6286 505.808 88.7855 506.448 84.0903 506.962C81.8008 507.213 79.7201 507.44 78.2088 507.581Z" fill="white"/>
<path opacity="0.6" d="M80.1654 509.039C83.9139 508.692 92.0541 507.667 95.9233 507.525C97.5627 507.465 99.0249 508.421 99.444 509.834C100.258 512.577 100.291 518.085 100.284 523.169C100.282 524.692 98.9139 525.94 97.207 525.965L82.9214 526.172C81.1645 526.198 79.6776 525.035 79.4763 523.479L77.9318 511.527C77.7717 510.29 78.7761 509.168 80.1654 509.039Z" fill="white"/>
<g opacity="0.6">
<path d="M116.114 512.823C114.606 512.823 113.715 514.009 114.135 515.457L115.18 519.065C115.6 520.513 117.177 521.668 118.684 521.632L206.127 519.523C207.634 519.486 208.811 518.224 208.742 516.718L208.687 515.532C208.618 514.026 207.327 512.794 205.82 512.794L116.114 512.823Z" fill="white"/>
</g>
<path d="M80.9827 511.372C82.2907 510.561 84.0095 510.985 84.7913 512.31L88.4688 518.545C88.837 519.168 89.7589 519.106 90.0398 518.438L98.3138 498.762C98.7266 497.78 100.18 498.074 100.19 499.139C100.245 505.095 98.9377 516.451 89.6528 526.154C89.6528 526.154 84.361 524.242 79.9151 515.073C79.2729 513.749 79.7316 512.147 80.9827 511.372Z" fill="url(#paint16_linear_114_442)"/>
<path d="M149.669 268.45C143.965 264.411 138.975 264.449 135.454 265.456C132.243 266.375 130.141 269.451 130.418 272.78L131.796 289.324L149.806 291.072C149.806 291.072 160.858 276.371 149.669 268.45ZM141.634 281.721C139.152 281.701 137.156 279.672 137.177 277.19C137.197 274.708 139.226 272.713 141.708 272.733C144.19 272.754 146.185 274.783 146.165 277.264C146.144 279.747 144.115 281.742 141.634 281.721Z" fill="url(#paint17_linear_114_442)"/>
<path d="M133.344 282.786C133.031 282.668 132.797 282.379 132.768 282.024L132.548 279.389C132.507 278.898 132.872 278.467 133.363 278.426C133.854 278.384 134.287 278.748 134.327 279.241L134.547 281.876C134.588 282.367 134.222 282.799 133.731 282.839C133.596 282.85 133.464 282.831 133.344 282.786ZM132.914 277.622C132.602 277.505 132.367 277.216 132.338 276.86L132.171 274.86C131.889 271.471 134.046 268.337 137.3 267.405C139.528 266.768 141.82 266.692 144.111 267.181C144.586 267.29 144.901 267.758 144.798 268.241C144.695 268.723 144.221 269.031 143.738 268.928C141.736 268.5 139.735 268.566 137.791 269.122C135.354 269.819 133.738 272.17 133.95 274.712L134.117 276.713C134.158 277.204 133.793 277.635 133.301 277.676C133.166 277.687 133.034 277.667 132.914 277.622Z" fill="#BDD0FB"/>
<path d="M107.109 299.804L107.178 291.493C107.202 288.623 109.599 286.345 112.465 286.467L169.755 288.904C172.297 289.012 174.34 291.036 174.472 293.578L174.885 301.568L107.109 299.804Z" fill="url(#paint18_linear_114_442)"/>
<path d="M126.092 289.796C125.808 289.791 125.579 289.558 125.582 289.273C125.584 288.986 125.819 288.756 126.105 288.758L128.57 288.779C128.868 288.784 129.087 289.015 129.084 289.302C129.082 289.588 128.848 289.819 128.561 289.816L126.096 289.796H126.092Z" fill="#BDD0FB"/>
<path d="M109.922 297.621C109.581 297.493 109.34 297.163 109.344 296.778L109.371 293.415C109.383 292.035 109.931 290.741 110.915 289.773C111.899 288.805 113.202 288.277 114.583 288.289L123.644 288.364C124.134 288.369 124.533 288.77 124.529 289.264C124.525 289.757 124.121 290.153 123.628 290.15L114.568 290.074C112.702 290.059 111.172 291.564 111.156 293.43L111.129 296.793C111.124 297.286 110.721 297.682 110.228 297.679C110.121 297.677 110.018 297.657 109.922 297.621Z" fill="#BDD0FB"/>
<path d="M89.1786 296.614L189.388 297.439C192.991 297.469 196.05 300.087 196.636 303.643L196.716 304.133C197.357 308.028 194.334 311.56 190.387 311.528L87.5784 310.678C85.2163 310.659 83.3503 308.669 83.4832 306.31L83.7424 301.711C83.9045 298.833 86.2969 296.591 89.1786 296.614Z" fill="url(#paint19_linear_114_442)"/>
<path d="M471.918 558.497C477.413 558.972 486.948 559.743 494.466 560.074C498.985 560.273 501.587 559.83 503.085 559.231C503.082 559.4 503.078 559.559 503.071 559.708C503.035 560.498 502.393 561.131 501.594 561.176C487.389 561.969 476.092 561.45 472.07 561.206C471.238 561.155 470.743 560.251 471.168 559.542C471.381 559.188 471.638 558.84 471.918 558.497Z" fill="url(#paint20_linear_114_442)"/>
<path d="M494.466 560.074C486.948 559.743 477.412 558.972 471.918 558.497C477.32 551.869 494.466 547.403 494.466 547.403H499.308C502.639 552.204 503.121 556.774 503.085 559.231C501.586 559.831 498.985 560.273 494.466 560.074Z" fill="url(#paint21_linear_114_442)"/>
<path d="M500.124 539.497L499.671 548.464C499.622 549.435 498.895 550.251 497.922 550.39C496.955 550.529 495.659 550.547 494.285 550.089C493.439 549.807 492.812 549.095 492.656 548.226L491.09 539.497L500.124 539.497Z" fill="url(#paint22_linear_114_442)"/>
<path d="M563.021 560.007C565.403 559.674 566.482 558.437 566.933 557.113C566.936 557.125 566.94 557.137 566.942 557.149C567.293 558.545 566.48 559.991 564.856 560.679C562.892 561.511 560.745 561.653 559.078 561.584C557.29 561.51 555.648 560.77 554.746 559.586L554.732 559.568C556.528 560.456 559.047 560.561 563.021 560.007Z" fill="url(#paint23_linear_114_442)"/>
<path d="M551.787 539.439H555.781C561.864 539.315 565.684 552.145 566.934 557.114C566.482 558.437 565.404 559.675 563.021 560.007C559.047 560.561 556.528 560.457 554.733 559.569C551.446 555.244 549.817 548.91 549.034 545.214C548.143 541.01 551.787 539.439 551.787 539.439Z" fill="url(#paint24_linear_114_442)"/>
<path d="M555.267 531.116L557.485 539.936C557.757 541.018 557.239 542.136 556.239 542.649C554.998 543.286 553.252 543.955 551.647 543.761C550.892 543.67 550.265 543.138 550.015 542.427L546.76 533.148L555.267 531.116Z" fill="url(#paint25_linear_114_442)"/>
<path d="M557.912 533.665C555.153 536.113 546.179 536.436 546.179 536.436C513.854 458.851 500.63 447.83 500.63 447.83C505.298 477.113 501.383 541.944 501.383 541.944C496.049 544.298 489.171 541.944 489.171 541.944C488.738 494.003 481.369 452.193 472.664 419.231C494.512 418.74 506.131 411.263 509.925 408.263C528.137 437.624 557.912 533.665 557.912 533.665Z" fill="url(#paint26_linear_114_442)"/>
<path d="M504.376 319.041C508.512 339.668 507.03 376.587 506.056 393.427C505.783 398.16 509.087 404.722 511.757 409.198C512.176 409.9 511.917 410.799 511.19 411.173C506.719 413.471 491.571 420.593 474.016 421.479C472.845 421.538 471.8 420.741 471.497 419.609C458.474 370.985 443.349 339.914 443.349 339.914C460.048 313.246 504.376 319.041 504.376 319.041Z" fill="url(#paint27_linear_114_442)"/>
<path d="M498.425 445.993C498.608 445.993 498.794 445.943 498.963 445.841C499.45 445.543 499.605 444.907 499.308 444.42C499.134 444.134 494.953 437.375 486.491 433.293C485.977 433.046 485.358 433.259 485.109 433.775C484.861 434.289 485.076 434.909 485.592 435.157C493.48 438.964 497.5 445.432 497.54 445.497C497.735 445.816 498.076 445.993 498.425 445.993Z" fill="#91B3FA"/>
<path d="M530.316 378.241C528.988 387.85 525.063 398.331 517.212 409.465L514.228 407.032C514.228 407.032 517.673 393.054 515.714 377.19C520.557 376.245 526.277 377.219 530.316 378.241Z" fill="url(#paint28_linear_114_442)"/>
<path d="M499.758 344.492L504.377 319.041C504.377 319.041 535.238 342.631 530.316 378.241C526.277 377.219 520.557 376.245 515.714 377.19C514.303 365.763 510.089 353.357 499.758 344.492Z" fill="url(#paint29_linear_114_442)"/>
<path d="M443.348 339.914L455.26 365.569C453.334 381.058 445.014 387.755 436.043 390.323C435.483 383.264 433.698 377.561 432.042 373.616C443.505 361.781 443.348 339.914 443.348 339.914Z" fill="url(#paint30_linear_114_442)"/>
<path d="M432.042 373.616C433.699 377.561 435.484 383.264 436.043 390.323C412.107 399.61 405.774 381.6 405.774 381.6L410.198 380.819C420.188 381.872 427.166 378.651 432.042 373.616Z" fill="url(#paint31_linear_114_442)"/>
<path d="M454.324 308.241L460.075 329.381C460.721 331.756 463.29 333.032 465.576 332.118C468.042 331.132 471.171 329.787 473.864 328.332C476.74 326.78 477.639 323.081 475.819 320.367L463.863 302.54L454.324 308.241Z" fill="url(#paint32_linear_114_442)"/>
<path d="M394.804 367.452L542.167 421.087C548.348 423.336 551.302 430.374 548.579 436.361L548.132 437.344C545.723 442.641 539.462 444.964 534.181 442.521L391.093 376.328L394.804 367.452Z" fill="url(#paint33_linear_114_442)"/>
<path opacity="0.23" d="M327.07 406.623C367.246 406.623 399.816 374.641 399.816 335.19C399.816 295.738 367.246 263.757 327.07 263.757C286.894 263.757 254.324 295.738 254.324 335.19C254.324 374.641 286.894 406.623 327.07 406.623Z" fill="white"/>
<path d="M246.124 335.19C246.124 379.089 282.365 414.676 327.07 414.676C371.776 414.676 408.016 379.089 408.016 335.19C408.016 291.291 371.776 255.704 327.07 255.704C282.365 255.704 246.124 291.291 246.124 335.19ZM258.015 335.19C258.015 297.739 288.932 267.38 327.07 267.38C365.208 267.38 396.126 297.739 396.126 335.19C396.126 372.64 365.208 403 327.07 403C288.932 403 258.015 372.64 258.015 335.19Z" fill="url(#paint34_linear_114_442)"/>
<path d="M401.862 344.835C401.847 344.835 401.833 344.834 401.818 344.832C401.63 344.808 401.497 344.637 401.521 344.449C401.758 342.594 401.925 340.699 402.019 338.818C402.029 338.63 402.197 338.483 402.378 338.493C402.567 338.502 402.713 338.663 402.703 338.853C402.61 340.751 402.44 342.663 402.201 344.536C402.179 344.709 402.031 344.835 401.862 344.835ZM401.306 322.609C401.143 322.609 400.999 322.493 400.969 322.327C400.063 317.277 398.612 312.31 396.656 307.563C385.123 279.588 357.809 261.511 327.07 261.511C312.735 261.511 298.8 265.493 286.772 273.027C286.612 273.127 286.4 273.079 286.299 272.918C286.199 272.758 286.248 272.546 286.408 272.446C298.546 264.844 312.606 260.826 327.07 260.826C358.088 260.826 385.651 279.069 397.289 307.302C399.265 312.094 400.729 317.108 401.644 322.206C401.677 322.392 401.554 322.571 401.367 322.604C401.347 322.608 401.326 322.609 401.306 322.609Z" fill="#BDD0FB"/>
<path d="M515.457 406.608L501.527 405.473L495.493 411.034C495.493 411.034 496.921 413.007 501.383 411.873C505.845 410.739 511.958 410.461 511.958 410.461C511.958 410.461 518.118 413.238 518.193 408.042L515.457 406.608Z" fill="url(#paint35_linear_114_442)"/>
<path d="M407.548 384.895C406.344 385.836 402.216 383.871 399.69 382.513C398.459 381.851 397.863 380.411 398.285 379.079C398.893 377.162 399.906 374.688 401.154 374.376C403.225 373.858 412.513 381.016 407.548 384.895Z" fill="url(#paint36_linear_114_442)"/>
<path d="M539.26 440.259C539.118 440.259 538.985 440.17 538.936 440.028C538.875 439.849 538.969 439.654 539.149 439.592C543.392 438.125 545.616 435.738 545.755 432.498C545.898 429.22 543.827 426.172 540.603 424.915L522.909 418.015C522.733 417.947 522.645 417.748 522.714 417.572C522.783 417.395 522.98 417.307 523.158 417.377L540.852 424.276C544.349 425.64 546.595 428.956 546.441 432.527C546.287 436.076 543.909 438.671 539.372 440.24C539.335 440.253 539.297 440.259 539.26 440.259Z" fill="#BDD0FB"/>
<path d="M517.581 415.913C517.54 415.913 517.498 415.905 517.457 415.889L515.164 414.995C514.988 414.926 514.9 414.728 514.969 414.551C515.037 414.374 515.235 414.287 515.413 414.356L517.706 415.251C517.882 415.319 517.97 415.518 517.901 415.695C517.848 415.83 517.719 415.913 517.581 415.913Z" fill="#BDD0FB"/>
<path d="M453.081 287.486C453.081 287.486 448.321 298.42 448.002 304.16C447.682 309.899 446.445 313.623 453.081 314.779C459.718 315.935 465.308 312.629 468.336 306.912C468.336 306.912 473.082 298.103 472.017 294.495C470.953 290.887 453.081 287.486 453.081 287.486Z" fill="url(#paint37_linear_114_442)"/>
<path d="M466.069 302.802H465.23C465.23 302.802 468.687 295.712 465.649 294.466C462.612 293.22 450.581 290.767 447.986 286.498C445.484 282.383 447.715 277.067 451.054 275.579C451.265 275.485 451.514 275.584 451.623 275.789L451.899 276.312C452.089 276.671 452.618 276.616 452.731 276.227C452.837 275.858 453.336 275.777 453.539 276.103C454.333 277.38 456.485 279.456 462.255 280.521C470.443 282.032 475.856 285.346 475.989 291.005C475.998 291.363 476.381 291.561 476.687 291.374C477.292 291.006 478.259 290.833 479.552 291.92C481.8 293.811 480.88 298.715 475.951 302.749C475.717 302.94 475.719 303.306 475.973 303.471C476.866 304.053 478.198 305.437 474.747 307.281C471.216 309.169 469.127 308.963 468.339 308.761C468.126 308.707 467.984 308.514 467.997 308.295L468.307 303.28C468.323 303.021 468.117 302.802 467.857 302.802L466.069 302.802Z" fill="url(#paint38_linear_114_442)"/>
<path d="M465.862 303.851C465.862 303.851 467.678 296.866 470.81 298.824C473.941 300.782 469.185 306.65 466.667 306.912L465.862 303.851Z" fill="url(#paint39_linear_114_442)"/>
<path d="M288.187 308.981C300.443 321.025 311.037 333.541 320.28 346.44C334.049 315.045 348.727 285.878 364.615 259.677L403.574 246.692C376.735 281.688 348.123 333.839 323.663 386.144C305.977 361.219 288.306 336.344 275.561 327.517L288.187 308.981Z" fill="url(#paint40_linear_114_442)"/>
<path d="M59.6662 232V189.818H68.5845V208.417H69.1406L84.3203 189.818H95.0099L79.3565 208.705L95.1953 232H84.5263L72.9716 214.658L68.5845 220.013V232H59.6662ZM97.1829 189.818H107.172L116.791 207.984H117.203L126.821 189.818H136.811L121.425 217.088V232H112.569V217.088L97.1829 189.818ZM176.351 204.586H167.33C167.165 203.419 166.829 202.382 166.32 201.476C165.812 200.556 165.16 199.773 164.364 199.128C163.567 198.482 162.647 197.988 161.604 197.645C160.574 197.302 159.455 197.13 158.247 197.13C156.063 197.13 154.162 197.672 152.541 198.757C150.921 199.828 149.665 201.393 148.772 203.453C147.88 205.499 147.433 207.984 147.433 210.909C147.433 213.916 147.88 216.443 148.772 218.489C149.678 220.535 150.942 222.079 152.562 223.123C154.182 224.166 156.057 224.688 158.185 224.688C159.379 224.688 160.485 224.53 161.501 224.214C162.531 223.899 163.444 223.439 164.24 222.835C165.037 222.217 165.696 221.468 166.218 220.589C166.753 219.711 167.124 218.708 167.33 217.582L176.351 217.624C176.118 219.56 175.534 221.427 174.6 223.226C173.68 225.011 172.438 226.611 170.872 228.025C169.321 229.425 167.467 230.538 165.311 231.362C163.169 232.172 160.746 232.577 158.041 232.577C154.278 232.577 150.914 231.725 147.948 230.023C144.996 228.32 142.662 225.855 140.945 222.629C139.243 219.402 138.392 215.495 138.392 210.909C138.392 206.309 139.257 202.396 140.987 199.169C142.717 195.942 145.065 193.484 148.031 191.795C150.997 190.093 154.333 189.241 158.041 189.241C160.485 189.241 162.75 189.585 164.838 190.271C166.938 190.958 168.799 191.96 170.419 193.278C172.039 194.583 173.358 196.183 174.374 198.077C175.404 199.972 176.063 202.142 176.351 204.586ZM203.441 232H193.884L208.446 189.818H219.939L234.48 232H224.923L214.357 199.457H214.027L203.441 232ZM202.843 215.42H225.417V222.381H202.843V215.42ZM239.557 232V189.818H256.199C259.398 189.818 262.124 190.429 264.376 191.651C266.628 192.86 268.344 194.542 269.525 196.697C270.719 198.839 271.317 201.311 271.317 204.112C271.317 206.913 270.713 209.385 269.504 211.527C268.296 213.669 266.545 215.337 264.252 216.532C261.973 217.727 259.213 218.324 255.972 218.324H245.365V211.177H254.531C256.247 211.177 257.661 210.882 258.773 210.291C259.899 209.687 260.737 208.856 261.286 207.799C261.849 206.728 262.131 205.499 262.131 204.112C262.131 202.712 261.849 201.49 261.286 200.446C260.737 199.389 259.899 198.572 258.773 197.995C257.647 197.405 256.219 197.109 254.489 197.109H248.475V232H239.557ZM277.11 232V189.818H293.752C296.951 189.818 299.677 190.429 301.928 191.651C304.18 192.86 305.897 194.542 307.078 196.697C308.272 198.839 308.869 201.311 308.869 204.112C308.869 206.913 308.265 209.385 307.057 211.527C305.849 213.669 304.098 215.337 301.805 216.532C299.526 217.727 296.766 218.324 293.525 218.324H282.918V211.177H292.083C293.8 211.177 295.214 210.882 296.326 210.291C297.452 209.687 298.29 208.856 298.839 207.799C299.402 206.728 299.683 205.499 299.683 204.112C299.683 202.712 299.402 201.49 298.839 200.446C298.29 199.389 297.452 198.572 296.326 197.995C295.2 197.405 293.772 197.109 292.042 197.109H286.028V232H277.11ZM314.662 232V189.818H331.304C334.49 189.818 337.209 190.388 339.461 191.528C341.726 192.654 343.449 194.253 344.63 196.327C345.825 198.386 346.422 200.81 346.422 203.597C346.422 206.398 345.818 208.808 344.61 210.827C343.401 212.831 341.651 214.369 339.358 215.44C337.078 216.511 334.318 217.047 331.078 217.047H319.935V209.879H329.636C331.339 209.879 332.753 209.646 333.879 209.179C335.005 208.712 335.842 208.012 336.392 207.078C336.955 206.144 337.236 204.984 337.236 203.597C337.236 202.197 336.955 201.016 336.392 200.055C335.842 199.094 334.998 198.366 333.858 197.871C332.732 197.363 331.311 197.109 329.595 197.109H323.581V232H314.662ZM337.442 212.804L347.926 232H338.081L327.824 212.804H337.442ZM391.488 210.909C391.488 215.509 390.616 219.422 388.872 222.649C387.142 225.876 384.78 228.341 381.787 230.043C378.807 231.732 375.457 232.577 371.735 232.577C367.987 232.577 364.623 231.725 361.643 230.023C358.663 228.32 356.309 225.855 354.578 222.629C352.848 219.402 351.983 215.495 351.983 210.909C351.983 206.309 352.848 202.396 354.578 199.169C356.309 195.942 358.663 193.484 361.643 191.795C364.623 190.093 367.987 189.241 371.735 189.241C375.457 189.241 378.807 190.093 381.787 191.795C384.78 193.484 387.142 195.942 388.872 199.169C390.616 202.396 391.488 206.309 391.488 210.909ZM382.446 210.909C382.446 207.929 381.999 205.417 381.107 203.371C380.228 201.325 378.985 199.773 377.379 198.716C375.772 197.659 373.891 197.13 371.735 197.13C369.58 197.13 367.699 197.659 366.092 198.716C364.485 199.773 363.236 201.325 362.343 203.371C361.465 205.417 361.025 207.929 361.025 210.909C361.025 213.889 361.465 216.402 362.343 218.447C363.236 220.493 364.485 222.045 366.092 223.102C367.699 224.16 369.58 224.688 371.735 224.688C373.891 224.688 375.772 224.16 377.379 223.102C378.985 222.045 380.228 220.493 381.107 218.447C381.999 216.402 382.446 213.889 382.446 210.909ZM403.336 189.818L413.531 221.866H413.922L424.138 189.818H434.025L419.483 232H407.991L393.429 189.818H403.336ZM439.102 232V189.818H467.525V197.171H448.02V207.222H466.063V214.575H448.02V224.647H467.607V232H439.102ZM489.569 232H474.615V189.818H489.692C493.935 189.818 497.587 190.663 500.65 192.352C503.712 194.027 506.066 196.437 507.714 199.581C509.376 202.725 510.206 206.488 510.206 210.868C510.206 215.262 509.376 219.038 507.714 222.196C506.066 225.354 503.698 227.778 500.608 229.467C497.533 231.156 493.853 232 489.569 232ZM483.534 224.359H489.198C491.834 224.359 494.052 223.892 495.85 222.958C497.663 222.011 499.022 220.548 499.929 218.571C500.849 216.58 501.309 214.012 501.309 210.868C501.309 207.751 500.849 205.204 499.929 203.227C499.022 201.249 497.67 199.794 495.871 198.86C494.072 197.926 491.855 197.46 489.218 197.46H483.534V224.359Z" fill="#484AF1"/>
<defs>
<linearGradient id="paint0_linear_114_442" x1="633.778" y1="729.192" x2="132.797" y2="107.005" gradientUnits="userSpaceOnUse">
<stop stop-color="#DAE3FE"/>
<stop offset="1" stop-color="#E9EFFD"/>
</linearGradient>
<linearGradient id="paint1_linear_114_442" x1="326.145" y1="434.496" x2="244.922" y2="639.096" gradientUnits="userSpaceOnUse">
<stop stop-color="#09005D"/>
<stop offset="1" stop-color="#1A0F91"/>
</linearGradient>
<linearGradient id="paint2_linear_114_442" x1="345.249" y1="125.295" x2="237.295" y2="449.159" gradientUnits="userSpaceOnUse">
<stop stop-color="#09005D"/>
<stop offset="1" stop-color="#1A0F91"/>
</linearGradient>
<linearGradient id="paint3_linear_114_442" x1="206.222" y1="644.231" x2="331.655" y2="511.601" gradientUnits="userSpaceOnUse">
<stop stop-color="#09005D"/>
<stop offset="1" stop-color="#1A0F91"/>
</linearGradient>
<linearGradient id="paint4_linear_114_442" x1="512.306" y1="-61.7583" x2="243.605" y2="292.777" gradientUnits="userSpaceOnUse">
<stop stop-color="#4042E2"/>
<stop offset="1" stop-color="#4F52FF"/>
</linearGradient>
<linearGradient id="paint5_linear_114_442" x1="194.538" y1="1.73736" x2="321.598" y2="225.229" gradientUnits="userSpaceOnUse">
<stop stop-color="#FE7062"/>
<stop offset="1" stop-color="#FF928E"/>
</linearGradient>
<linearGradient id="paint6_linear_114_442" x1="232.187" y1="-19.6657" x2="359.247" y2="203.825" gradientUnits="userSpaceOnUse">
<stop stop-color="#FE7062"/>
<stop offset="1" stop-color="#FF928E"/>
</linearGradient>
<linearGradient id="paint7_linear_114_442" x1="270.668" y1="-41.5421" x2="397.729" y2="181.949" gradientUnits="userSpaceOnUse">
<stop stop-color="#FE7062"/>
<stop offset="1" stop-color="#FF928E"/>
</linearGradient>
<linearGradient id="paint8_linear_114_442" x1="307.89" y1="-62.7024" x2="434.951" y2="160.789" gradientUnits="userSpaceOnUse">
<stop stop-color="#FE7062"/>
<stop offset="1" stop-color="#FF928E"/>
</linearGradient>
<linearGradient id="paint9_linear_114_442" x1="346.026" y1="-84.3827" x2="473.086" y2="139.108" gradientUnits="userSpaceOnUse">
<stop stop-color="#FE7062"/>
<stop offset="1" stop-color="#FF928E"/>
</linearGradient>
<linearGradient id="paint10_linear_114_442" x1="213.092" y1="324.063" x2="-7.48345" y2="663.088" gradientUnits="userSpaceOnUse">
<stop stop-color="#4F52FF"/>
<stop offset="1" stop-color="#4042E2"/>
</linearGradient>
<linearGradient id="paint11_linear_114_442" x1="165.675" y1="389.047" x2="-32.2241" y2="699.91" gradientUnits="userSpaceOnUse">
<stop stop-color="#FF928E"/>
<stop offset="1" stop-color="#FEB3B1"/>
</linearGradient>
<linearGradient id="paint12_linear_114_442" x1="1501.16" y1="-3264.14" x2="1586.34" y2="-3485.27" gradientUnits="userSpaceOnUse">
<stop stop-color="#FE7062"/>
<stop offset="1" stop-color="#FF928E"/>
</linearGradient>
<linearGradient id="paint13_linear_114_442" x1="1488.3" y1="-3269.1" x2="1573.48" y2="-3490.23" gradientUnits="userSpaceOnUse">
<stop stop-color="#FE7062"/>
<stop offset="1" stop-color="#FF928E"/>
</linearGradient>
<linearGradient id="paint14_linear_114_442" x1="1514.82" y1="-3258.88" x2="1600" y2="-3480.01" gradientUnits="userSpaceOnUse">
<stop stop-color="#FE7062"/>
<stop offset="1" stop-color="#FF928E"/>
</linearGradient>
<linearGradient id="paint15_linear_114_442" x1="1526.48" y1="-3254.39" x2="1611.66" y2="-3475.52" gradientUnits="userSpaceOnUse">
<stop stop-color="#FE7062"/>
<stop offset="1" stop-color="#FF928E"/>
</linearGradient>
<linearGradient id="paint16_linear_114_442" x1="1538.25" y1="-3249.85" x2="1623.43" y2="-3470.98" gradientUnits="userSpaceOnUse">
<stop stop-color="#FE7062"/>
<stop offset="1" stop-color="#FF928E"/>
</linearGradient>
<linearGradient id="paint17_linear_114_442" x1="179.885" y1="261.504" x2="73.1808" y2="309.395" gradientUnits="userSpaceOnUse">
<stop stop-color="#09005D"/>
<stop offset="1" stop-color="#1A0F91"/>
</linearGradient>
<linearGradient id="paint18_linear_114_442" x1="175.555" y1="251.043" x2="101.69" y2="346.555" gradientUnits="userSpaceOnUse">
<stop stop-color="#09005D"/>
<stop offset="1" stop-color="#1A0F91"/>
</linearGradient>
<linearGradient id="paint19_linear_114_442" x1="166.299" y1="256.845" x2="115.078" y2="349.067" gradientUnits="userSpaceOnUse">
<stop stop-color="#09005D"/>
<stop offset="1" stop-color="#1A0F91"/>
</linearGradient>
<linearGradient id="paint20_linear_114_442" x1="503.085" y1="560.048" x2="471.013" y2="560.048" gradientUnits="userSpaceOnUse">
<stop stop-color="#4F52FF"/>
<stop offset="1" stop-color="#4042E2"/>
</linearGradient>
<linearGradient id="paint21_linear_114_442" x1="503.087" y1="553.763" x2="471.918" y2="553.763" gradientUnits="userSpaceOnUse">
<stop stop-color="#09005D"/>
<stop offset="1" stop-color="#1A0F91"/>
</linearGradient>
<linearGradient id="paint22_linear_114_442" x1="500.124" y1="544.987" x2="491.09" y2="544.987" gradientUnits="userSpaceOnUse">
<stop stop-color="#FEBBBA"/>
<stop offset="1" stop-color="#FF928E"/>
</linearGradient>
<linearGradient id="paint23_linear_114_442" x1="567.023" y1="559.356" x2="554.732" y2="559.356" gradientUnits="userSpaceOnUse">
<stop stop-color="#4F52FF"/>
<stop offset="1" stop-color="#4042E2"/>
</linearGradient>
<linearGradient id="paint24_linear_114_442" x1="566.934" y1="549.893" x2="548.894" y2="549.893" gradientUnits="userSpaceOnUse">
<stop stop-color="#09005D"/>
<stop offset="1" stop-color="#1A0F91"/>
</linearGradient>
<linearGradient id="paint25_linear_114_442" x1="557.556" y1="537.456" x2="546.76" y2="537.456" gradientUnits="userSpaceOnUse">
<stop stop-color="#FEBBBA"/>
<stop offset="1" stop-color="#FF928E"/>
</linearGradient>
<linearGradient id="paint26_linear_114_442" x1="577.75" y1="229.576" x2="521.168" y2="453.209" gradientUnits="userSpaceOnUse">
<stop stop-color="#4F52FF"/>
<stop offset="1" stop-color="#4042E2"/>
</linearGradient>
<linearGradient id="paint27_linear_114_442" x1="505.108" y1="331.429" x2="409.491" y2="483.593" gradientUnits="userSpaceOnUse">
<stop stop-color="#FE7062"/>
<stop offset="1" stop-color="#FF928E"/>
</linearGradient>
<linearGradient id="paint28_linear_114_442" x1="508.093" y1="380.081" x2="546.527" y2="414.115" gradientUnits="userSpaceOnUse">
<stop stop-color="#FEBBBA"/>
<stop offset="1" stop-color="#FF928E"/>
</linearGradient>
<linearGradient id="paint29_linear_114_442" x1="521.636" y1="341.815" x2="426.019" y2="493.979" gradientUnits="userSpaceOnUse">
<stop stop-color="#FE7062"/>
<stop offset="1" stop-color="#FF928E"/>
</linearGradient>
<linearGradient id="paint30_linear_114_442" x1="476.212" y1="313.272" x2="380.595" y2="465.436" gradientUnits="userSpaceOnUse">
<stop stop-color="#FE7062"/>
<stop offset="1" stop-color="#FF928E"/>
</linearGradient>
<linearGradient id="paint31_linear_114_442" x1="436.043" y1="383.3" x2="405.774" y2="383.3" gradientUnits="userSpaceOnUse">
<stop stop-color="#FEBBBA"/>
<stop offset="1" stop-color="#FF928E"/>
</linearGradient>
<linearGradient id="paint32_linear_114_442" x1="465.465" y1="302.412" x2="465.796" y2="358.936" gradientUnits="userSpaceOnUse">
<stop stop-color="#FEBBBA"/>
<stop offset="1" stop-color="#FF928E"/>
</linearGradient>
<linearGradient id="paint33_linear_114_442" x1="549.596" y1="405.473" x2="391.093" y2="405.473" gradientUnits="userSpaceOnUse">
<stop stop-color="#09005D"/>
<stop offset="1" stop-color="#1A0F91"/>
</linearGradient>
<linearGradient id="paint34_linear_114_442" x1="408.016" y1="335.19" x2="246.124" y2="335.19" gradientUnits="userSpaceOnUse">
<stop stop-color="#09005D"/>
<stop offset="1" stop-color="#1A0F91"/>
</linearGradient>
<linearGradient id="paint35_linear_114_442" x1="492.914" y1="397.22" x2="531.349" y2="431.255" gradientUnits="userSpaceOnUse">
<stop stop-color="#FEBBBA"/>
<stop offset="1" stop-color="#FF928E"/>
</linearGradient>
<linearGradient id="paint36_linear_114_442" x1="408.99" y1="379.745" x2="398.151" y2="379.745" gradientUnits="userSpaceOnUse">
<stop stop-color="#FEBBBA"/>
<stop offset="1" stop-color="#FF928E"/>
</linearGradient>
<linearGradient id="paint37_linear_114_442" x1="452.084" y1="297.111" x2="479.296" y2="317.932" gradientUnits="userSpaceOnUse">
<stop stop-color="#FEBBBA"/>
<stop offset="1" stop-color="#FF928E"/>
</linearGradient>
<linearGradient id="paint38_linear_114_442" x1="471.201" y1="280.675" x2="446.56" y2="312.4" gradientUnits="userSpaceOnUse">
<stop stop-color="#09005D"/>
<stop offset="1" stop-color="#1A0F91"/>
</linearGradient>
<linearGradient id="paint39_linear_114_442" x1="455.459" y1="292.699" x2="482.67" y2="313.52" gradientUnits="userSpaceOnUse">
<stop stop-color="#FEBBBA"/>
<stop offset="1" stop-color="#FF928E"/>
</linearGradient>
<linearGradient id="paint40_linear_114_442" x1="290.951" y1="381.835" x2="430.778" y2="109.378" gradientUnits="userSpaceOnUse">
<stop stop-color="#FE7062"/>
<stop offset="1" stop-color="#FF928E"/>
</linearGradient>
</defs>
</svg>
