<svg width="108" height="121" viewBox="0 0 108 121" fill="none" xmlns="http://www.w3.org/2000/svg">
<path d="M93.8258 109.044C90.8717 112.198 87.4867 114.921 83.7708 117.134C83.6856 117.186 83.5989 117.235 83.5119 117.286L77.4961 111.976C77.5593 111.917 77.6293 111.852 77.7046 111.78C82.187 107.535 104.44 77.8571 105.923 70.6301C105.82 71.2322 107.26 94.8436 93.8258 109.044Z" fill="#9AD954"/>
<path d="M84.9311 118.158C84.8173 118.186 84.7016 118.211 84.5855 118.234L80.0723 114.25C80.1605 114.22 80.2636 114.183 80.3814 114.143C82.3179 113.459 88.0853 111.395 93.8249 109.043C99.9921 106.516 106.13 103.66 107.45 101.831C107.167 102.256 98.4443 115.145 84.9311 118.158Z" fill="#9AD954"/>
<path d="M28.8207 23.7091V44.6317C25.4871 45.5063 21.9967 45.6067 18.6181 44.925C15.2394 44.2433 12.0627 42.7978 9.33211 40.6997C6.60156 38.6016 4.39002 35.9067 2.86766 32.8225C1.3453 29.7383 0.552677 26.3469 0.550781 22.9093C0.550781 22.2957 0.575504 21.6885 0.62495 21.0876H12.9937C13.5867 21.0882 14.1708 20.9432 14.6943 20.6654C15.2178 20.3876 15.6648 19.9856 15.9957 19.4948C16.3266 19.0041 16.5313 18.4396 16.5917 17.8513C16.6521 17.2629 16.5664 16.6688 16.3421 16.1213H21.2094C22.2088 16.121 23.1985 16.317 24.1219 16.6981C25.0453 17.0793 25.8844 17.6381 26.5912 18.3428C27.298 19.0474 27.8587 19.884 28.2413 20.8048C28.6238 21.7255 28.8207 22.7125 28.8207 23.7091V23.7091Z" fill="#6218B4"/>
<path d="M85.5408 28.9182H84.8724V10.7567C84.8724 9.37635 84.5982 8.0095 84.0655 6.7342C83.5329 5.45891 82.7522 4.30014 81.7679 3.32407C80.7837 2.348 79.6153 1.57374 78.3293 1.04549C77.0434 0.517248 75.6651 0.245363 74.2732 0.245361H35.4742C32.6631 0.245355 29.9672 1.35279 27.9795 3.32405C25.9917 5.2953 24.875 7.9689 24.875 10.7567V110.392C24.875 113.18 25.9917 115.853 27.9794 117.824C29.9672 119.796 32.6631 120.903 35.4742 120.903H74.2731C77.0842 120.903 79.7802 119.796 81.7679 117.824C83.7556 115.853 84.8723 113.18 84.8723 110.392V41.8458H85.5408L85.5408 28.9182Z" fill="#111111"/>
<path d="M82.6153 10.8306V110.319C82.6153 112.401 81.7813 114.398 80.2969 115.87C78.8124 117.342 76.799 118.169 74.6996 118.169H35.7145C33.6152 118.169 31.6018 117.342 30.1173 115.87C28.6328 114.398 27.7989 112.401 27.7988 110.319V10.8306C27.7989 8.74862 28.6329 6.75193 30.1173 5.27976C31.6018 3.80758 33.6152 2.98051 35.7145 2.98047H40.4439C40.2115 3.5468 40.123 4.16109 40.1862 4.7693C40.2494 5.37751 40.4623 5.961 40.8062 6.46845C41.1502 6.9759 41.6146 7.39176 42.1586 7.67945C42.7026 7.96713 43.3096 8.11783 43.9261 8.11828H66.1537C66.7702 8.11782 67.3772 7.96712 67.9212 7.67944C68.4652 7.39175 68.9296 6.97589 69.2736 6.46844C69.6175 5.961 69.8304 5.3775 69.8936 4.76929C69.9568 4.16109 69.8683 3.5468 69.6359 2.98047H74.6996C76.799 2.98051 78.8124 3.80758 80.2968 5.27976C81.7813 6.75193 82.6153 8.74862 82.6153 10.8306V10.8306Z" fill="white"/>
<path d="M37.793 12.208C37.0904 12.208 36.3948 12.3452 35.7458 12.6118C35.0967 12.8784 34.507 13.2692 34.0102 13.7619C33.5135 14.2545 33.1194 14.8393 32.8506 15.483C32.5817 16.1267 32.4434 16.8165 32.4434 17.5132C32.4434 18.2099 32.5817 18.8998 32.8506 19.5435C33.1194 20.1871 33.5134 20.772 34.0102 21.2646C34.507 21.7573 35.0967 22.1481 35.7457 22.4147C36.3948 22.6813 37.0904 22.8185 37.7929 22.8185H37.793C39.2118 22.8185 40.5724 22.2596 41.5757 21.2646C42.5789 20.2697 43.1426 18.9203 43.1426 17.5133C43.1426 16.1062 42.5789 14.7568 41.5757 13.7619C40.5724 12.767 39.2118 12.208 37.793 12.208Z" fill="#F2F2F2"/>
<path d="M76.6356 21.9889H48.5503C48.1956 21.9889 47.8554 21.8492 47.6046 21.6005C47.3538 21.3517 47.2129 21.0144 47.2129 20.6626C47.2129 20.3109 47.3538 19.9735 47.6046 19.7248C47.8554 19.476 48.1956 19.3363 48.5503 19.3363H76.6356C76.9903 19.3363 77.3305 19.476 77.5813 19.7248C77.8321 19.9735 77.973 20.3109 77.973 20.6626C77.973 21.0144 77.8321 21.3517 77.5813 21.6005C77.3305 21.8492 76.9903 21.9889 76.6356 21.9889Z" fill="#F2F2F2"/>
<path d="M57.4105 16.3523H48.5503C48.1956 16.3523 47.8554 16.2126 47.6046 15.9639C47.3538 15.7151 47.2129 15.3778 47.2129 15.026C47.2129 14.6743 47.3538 14.3369 47.6046 14.0882C47.8554 13.8394 48.1956 13.6997 48.5503 13.6997H57.4105C57.7652 13.6997 58.1054 13.8394 58.3562 14.0882C58.607 14.3369 58.7479 14.6743 58.7479 15.026C58.7479 15.3778 58.607 15.7151 58.3562 15.9639C58.1054 16.2126 57.7652 16.3523 57.4105 16.3523Z" fill="#F2F2F2"/>
<path d="M37.793 34.4232C37.0904 34.4232 36.3948 34.5604 35.7458 34.8271C35.0967 35.0937 34.507 35.4844 34.0102 35.9771C33.5135 36.4697 33.1194 37.0546 32.8506 37.6982C32.5817 38.3419 32.4434 39.0318 32.4434 39.7285C32.4434 40.4252 32.5817 41.115 32.8506 41.7587C33.1194 42.4024 33.5134 42.9872 34.0102 43.4798C34.507 43.9725 35.0967 44.3633 35.7457 44.6299C36.3948 44.8965 37.0904 45.0337 37.7929 45.0337H37.793C39.2118 45.0337 40.5724 44.4748 41.5757 43.4799C42.5789 42.4849 43.1426 41.1355 43.1426 39.7285C43.1426 38.3214 42.5789 36.972 41.5757 35.9771C40.5724 34.9822 39.2118 34.4232 37.793 34.4232Z" fill="#F2F2F2"/>
<path d="M76.6356 44.2045H48.5503C48.1956 44.2045 47.8554 44.0648 47.6046 43.816C47.3538 43.5673 47.2129 43.23 47.2129 42.8782C47.2129 42.5264 47.3538 42.1891 47.6046 41.9403C47.8554 41.6916 48.1956 41.5519 48.5503 41.5519H76.6356C76.9903 41.5519 77.3305 41.6916 77.5813 41.9403C77.8321 42.1891 77.973 42.5264 77.973 42.8782C77.973 43.23 77.8321 43.5673 77.5813 43.816C77.3305 44.0648 76.9903 44.2045 76.6356 44.2045Z" fill="#F2F2F2"/>
<path d="M57.4105 38.5679H48.5503C48.1956 38.5679 47.8554 38.4282 47.6046 38.1794C47.3538 37.9307 47.2129 37.5934 47.2129 37.2416C47.2129 36.8898 47.3538 36.5525 47.6046 36.3038C47.8554 36.055 48.1956 35.9153 48.5503 35.9153H57.4105C57.7652 35.9153 58.1054 36.055 58.3562 36.3038C58.607 36.5525 58.7479 36.8898 58.7479 37.2416C58.7479 37.5934 58.607 37.9307 58.3562 38.1794C58.1054 38.4282 57.7652 38.5679 57.4105 38.5679Z" fill="#F2F2F2"/>
<path d="M37.793 78.8542C36.3742 78.8542 35.0135 79.4132 34.0102 80.4081C33.007 81.403 32.4434 82.7524 32.4434 84.1595C32.4434 85.5665 33.007 86.916 34.0102 87.9109C35.0134 88.9058 36.3741 89.4648 37.7929 89.4648H37.793C39.2118 89.4648 40.5724 88.9058 41.5757 87.9109C42.5789 86.916 43.1426 85.5666 43.1426 84.1595C43.1426 82.7525 42.5789 81.4031 41.5757 80.4081C40.5724 79.4132 39.2118 78.8542 37.793 78.8542Z" fill="#F2F2F2"/>
<path d="M76.6356 88.636H48.5503C48.1956 88.636 47.8554 88.4963 47.6046 88.2476C47.3538 87.9988 47.2129 87.6615 47.2129 87.3097C47.2129 86.958 47.3538 86.6206 47.6046 86.3719C47.8554 86.1231 48.1956 85.9834 48.5503 85.9834H76.6356C76.9903 85.9834 77.3305 86.1231 77.5813 86.3719C77.8321 86.6206 77.973 86.958 77.973 87.3097C77.973 87.6615 77.8321 87.9988 77.5813 88.2476C77.3305 88.4963 76.9903 88.636 76.6356 88.636Z" fill="#F2F2F2"/>
<path d="M57.4105 82.9987H48.5503C48.1956 82.9987 47.8554 82.859 47.6046 82.6102C47.3538 82.3615 47.2129 82.0241 47.2129 81.6724C47.2129 81.3206 47.3538 80.9833 47.6046 80.7345C47.8554 80.4858 48.1956 80.3461 48.5503 80.3461H57.4105C57.7652 80.3461 58.1054 80.4858 58.3562 80.7345C58.607 80.9833 58.7479 81.3206 58.7479 81.6724C58.7479 82.0241 58.607 82.3615 58.3562 82.6102C58.1054 82.859 57.7652 82.9987 57.4105 82.9987Z" fill="#F2F2F2"/>
<path d="M37.793 101.07C37.0904 101.07 36.3948 101.207 35.7458 101.474C35.0967 101.741 34.507 102.131 34.0102 102.624C33.5135 103.117 33.1194 103.702 32.8506 104.345C32.5817 104.989 32.4434 105.679 32.4434 106.375C32.4434 107.072 32.5817 107.762 32.8506 108.406C33.1194 109.049 33.5134 109.634 34.0102 110.127C34.507 110.619 35.0967 111.01 35.7457 111.277C36.3948 111.543 37.0904 111.681 37.7929 111.681H37.793C39.2118 111.681 40.5724 111.122 41.5757 110.127C42.5789 109.132 43.1426 107.782 43.1426 106.375C43.1426 104.968 42.5789 103.619 41.5757 102.624C40.5724 101.629 39.2118 101.07 37.793 101.07Z" fill="#F2F2F2"/>
<path d="M76.6356 110.852H48.5503C48.1956 110.852 47.8554 110.712 47.6046 110.463C47.3538 110.215 47.2129 109.877 47.2129 109.526C47.2129 109.174 47.3538 108.836 47.6046 108.588C47.8554 108.339 48.1956 108.199 48.5503 108.199H76.6356C76.9903 108.199 77.3305 108.339 77.5813 108.588C77.8321 108.836 77.973 109.174 77.973 109.526C77.973 109.877 77.8321 110.215 77.5813 110.463C77.3305 110.712 76.9903 110.852 76.6356 110.852Z" fill="#F2F2F2"/>
<path d="M57.4105 105.215H48.5503C48.1956 105.215 47.8554 105.075 47.6046 104.826C47.3538 104.577 47.2129 104.24 47.2129 103.888C47.2129 103.537 47.3538 103.199 47.6046 102.95C47.8554 102.702 48.1956 102.562 48.5503 102.562H57.4105C57.7652 102.562 58.1054 102.702 58.3562 102.95C58.607 103.199 58.7479 103.537 58.7479 103.888C58.7479 104.24 58.607 104.577 58.3562 104.826C58.1054 105.075 57.7652 105.215 57.4105 105.215Z" fill="#F2F2F2"/>
<path d="M87.4733 74.7098H22.9439C22.2126 74.709 21.5115 74.4205 20.9944 73.9077C20.4773 73.3949 20.1864 72.6996 20.1855 71.9743V51.4164C20.1864 50.6912 20.4773 49.9959 20.9944 49.483C21.5115 48.9702 22.2126 48.6817 22.9439 48.6809H87.4733C88.2046 48.6817 88.9057 48.9702 89.4229 49.483C89.94 49.9959 90.2309 50.6912 90.2317 51.4164V71.9743C90.2309 72.6996 89.94 73.3949 89.4229 73.9077C88.9057 74.4205 88.2046 74.709 87.4733 74.7098Z" fill="white"/>
<ellipse cx="5.33791" cy="5.30416" rx="5.33791" ry="5.30416" transform="matrix(1.00041 0 -0.00116196 0.999591 32.6738 56.6108)" fill="url(#paint0_linear_310_6937)"/>
<path d="M37.509 64.7036C36.6771 64.6303 35.8493 64.0242 35.8496 63.7069C35.85 63.3966 36.1039 63.2497 36.3534 63.0619C36.6028 62.8741 37.7404 64.0143 38.4211 63.7849C39.1019 63.5556 38.6929 62.9471 38.0808 62.5514C37.3598 62.0851 36.8395 61.7381 36.3557 60.9951C36.0947 60.6286 35.6781 59.5987 36.5425 59.1414C36.8129 58.9984 36.9156 58.9079 37.7119 58.9321L37.7293 58.3902C37.9136 58.1812 38.6819 58.1911 38.8946 58.4256L38.8773 58.9675C39.3659 59.0848 40.5301 59.4121 40.6444 59.7638C40.7807 59.9087 40.8828 60.3297 40.6434 60.6185C40.2463 61.0977 37.5168 59.4948 37.7319 60.6185C37.9082 61.5394 41.1472 62.4902 40.2284 63.8974C40.0343 64.3714 39.209 64.7782 38.6923 64.7396L38.6754 65.2683C38.4176 65.5698 37.6673 65.5245 37.5083 65.2848L37.509 64.7036Z" fill="white"/>
<path d="M76.6356 66.1715H48.5503C48.1956 66.1715 47.8554 66.0318 47.6046 65.7831C47.3538 65.5343 47.2129 65.197 47.2129 64.8452C47.2129 64.4935 47.3538 64.1561 47.6046 63.9074C47.8554 63.6587 48.1956 63.5189 48.5503 63.5189H76.6356C76.9903 63.5189 77.3305 63.6587 77.5813 63.9074C77.8321 64.1561 77.973 64.4935 77.973 64.8452C77.973 65.197 77.8321 65.5343 77.5813 65.7831C77.3305 66.0318 76.9903 66.1715 76.6356 66.1715Z" fill="#6218B4"/>
<path d="M57.4105 60.5347H48.5503C48.1956 60.5347 47.8554 60.395 47.6046 60.1462C47.3538 59.8975 47.2129 59.5602 47.2129 59.2084C47.2129 58.8566 47.3538 58.5193 47.6046 58.2706C47.8554 58.0218 48.1956 57.8821 48.5503 57.8821H57.4105C57.7652 57.8821 58.1054 58.0218 58.3562 58.2706C58.607 58.5193 58.7479 58.8566 58.7479 59.2084C58.7479 59.5602 58.607 59.8975 58.3562 60.1462C58.1054 60.395 57.7652 60.5347 57.4105 60.5347Z" fill="#6218B4"/>
<rect x="20.4997" y="48.7162" width="69.4179" height="25.8318" stroke="#2C3131" stroke-width="0.628217"/>
<ellipse cx="5.33791" cy="5.30416" rx="5.33791" ry="5.30416" transform="matrix(1.00041 0 -0.00116196 0.999591 32.6738 56.0813)" fill="url(#paint1_linear_310_6937)"/>
<path d="M37.509 64.1743C36.6771 64.101 35.8493 63.4949 35.8496 63.1776C35.85 62.8673 36.1039 62.7204 36.3534 62.5326C36.6028 62.3448 37.7404 63.485 38.4211 63.2556C39.1019 63.0263 38.6929 62.4178 38.0808 62.0221C37.3598 61.5558 36.8395 61.2088 36.3557 60.4658C36.0947 60.0993 35.6781 59.0695 36.5425 58.6121C36.8129 58.4691 36.9156 58.3786 37.7119 58.4028L37.7293 57.8609C37.9136 57.6519 38.6819 57.6618 38.8946 57.8963L38.8773 58.4382C39.3659 58.5555 40.5301 58.8828 40.6444 59.2345C40.7807 59.3794 40.8828 59.8004 40.6434 60.0892C40.2463 60.5684 37.5168 58.9655 37.7319 60.0892C37.9082 61.0102 41.1472 61.9609 40.2284 63.3681C40.0343 63.8421 39.209 64.2489 38.6923 64.2103L38.6754 64.739C38.4176 65.0405 37.6673 64.9952 37.5083 64.7555L37.509 64.1743Z" fill="white"/>
<path d="M101.527 30.1583L94.2246 24.5886L88.6397 31.8708L95.9419 37.4405L101.527 30.1583Z" fill="#9AD954"/>
<defs>
<linearGradient id="paint0_linear_310_6937" x1="5.33794" y1="-0.570216" x2="5.33794" y2="11.4972" gradientUnits="userSpaceOnUse">
<stop stop-color="#FBC039"/>
<stop offset="0.87" stop-color="#E08F0E"/>
</linearGradient>
<linearGradient id="paint1_linear_310_6937" x1="5.33794" y1="-0.570216" x2="5.33794" y2="11.4972" gradientUnits="userSpaceOnUse">
<stop stop-color="#FBC039"/>
<stop offset="0.87" stop-color="#E08F0E"/>
</linearGradient>
</defs>
</svg>
