<svg width="408" height="428" viewBox="0 0 408 428" fill="none" xmlns="http://www.w3.org/2000/svg">
<path d="M93.2537 143.141C97.6557 138.357 104.875 137.726 110.047 141.673L133.919 160.636L130.06 200.651L93.4377 160.276C88.8677 155.52 88.7867 147.994 93.2537 143.141Z" fill="url(#paint0_linear_119_809)"/>
<path d="M407.098 427.195H263.588L235.538 394.385L208.608 384.265C203.068 382.185 197.818 379.415 192.978 376.015C189.398 373.515 186.068 370.685 183.028 367.565C182.228 366.765 181.468 365.935 180.718 365.095L178.308 362.385L177.178 361.115L173.398 356.845L172.638 355.995L172.588 355.935L163.378 345.565L188.168 326.645L252.858 277.275L254.858 275.745L256.798 274.265L259.308 272.355L261.178 270.925L261.986 271.186L256.798 259.515L238.808 212.655C236.668 207.085 236.178 201.025 237.378 195.175L238.908 187.775C240.128 181.815 247.928 180.285 251.318 185.335L251.778 186.025L252.378 186.905L256.798 193.505L263.248 203.125L264.768 205.395L265.358 206.265L292.858 247.275C294.098 249.125 295.068 251.155 295.728 253.285L305.728 285.405L310.518 300.805L311.741 306.73C315.54 325.131 324.507 342.068 337.591 355.553L407.098 427.195Z" fill="url(#paint1_linear_119_809)"/>
<path opacity="0.43" d="M246.878 367.565C255.908 367.565 263.248 360.225 263.248 351.205V269.04L256.798 259.515V351.205C256.798 356.665 252.348 361.115 246.878 361.115L178.308 362.385L188.588 372.681" fill="#B56448"/>
<path d="M241.08 360.764H146.592C137.914 360.764 130.878 353.729 130.878 345.05V109.909C130.878 101.231 137.913 94.1951 146.592 94.1951H241.08C249.758 94.1951 256.794 101.23 256.794 109.909V345.051C256.793 353.729 249.758 360.764 241.08 360.764Z" fill="white"/>
<path d="M259.759 116.843C261.278 116.844 262.51 118.075 262.509 119.595L262.506 130.49C262.506 132.009 261.274 133.241 259.755 133.24L259.759 116.843Z" fill="url(#paint2_linear_119_809)"/>
<path d="M126.312 120.808C124.793 120.808 123.561 119.576 123.562 118.056L123.564 109.848C123.564 108.329 124.796 107.097 126.316 107.098L126.312 120.808Z" fill="url(#paint3_linear_119_809)"/>
<path d="M126.306 142.984C124.787 142.984 123.555 141.752 123.556 140.232L123.558 132.024C123.558 130.505 124.79 129.273 126.31 129.274L126.306 142.984Z" fill="url(#paint4_linear_119_809)"/>
<path d="M243.174 91.6111H142.894C133.748 91.6111 126.314 99.0451 126.314 108.191V347.449C126.314 356.585 133.748 364.019 142.894 364.019H243.173C248.521 364.019 253.271 361.487 256.299 357.547C256.451 357.365 256.583 357.182 256.714 356.99C258.628 354.296 259.752 351.004 259.752 347.449V108.191C259.754 99.0451 252.32 91.6111 243.174 91.6111ZM253.221 347.449C253.221 352.979 248.714 357.486 243.174 357.486H142.894C137.354 357.486 132.847 352.979 132.847 347.449V108.191C132.847 102.651 137.354 98.1441 142.894 98.1441H158.471V98.3361C158.471 103.38 162.563 107.462 167.607 107.462H218.471C223.505 107.462 227.596 103.38 227.596 98.3361V98.1441H243.173C248.713 98.1441 253.22 102.651 253.22 108.191V347.449H253.221Z" fill="url(#paint5_linear_119_809)"/>
<path opacity="0.69" d="M165.665 100.28H219.654" stroke="white" stroke-width="1.0128" stroke-miterlimit="10" stroke-linecap="round"/>
<g opacity="0.51">
<path opacity="0.29" d="M189.666 201.122H144.105C142.348 201.122 140.923 199.698 140.923 197.94V123.423C140.923 121.666 142.347 120.241 144.105 120.241H189.666C191.423 120.241 192.848 121.665 192.848 123.423V197.94C192.848 199.698 191.423 201.122 189.666 201.122Z" fill="#4A8BFF"/>
<path opacity="0.29" d="M242.496 126.55H202.846C201.196 126.55 199.859 125.213 199.859 123.563C199.859 121.913 201.196 120.576 202.846 120.576H242.496C244.146 120.576 245.483 121.913 245.483 123.563C245.483 125.213 244.146 126.55 242.496 126.55Z" fill="#4A8BFF"/>
<path opacity="0.29" d="M242.496 138.978H202.846C201.196 138.978 199.859 137.641 199.859 135.991C199.859 134.341 201.196 133.004 202.846 133.004H242.496C244.146 133.004 245.483 134.341 245.483 135.991C245.483 137.641 244.146 138.978 242.496 138.978Z" fill="#4A8BFF"/>
<path opacity="0.29" d="M242.496 151.407H202.846C201.196 151.407 199.859 150.07 199.859 148.42C199.859 146.77 201.196 145.433 202.846 145.433H242.496C244.146 145.433 245.483 146.77 245.483 148.42C245.483 150.07 244.146 151.407 242.496 151.407Z" fill="#4A8BFF"/>
<path opacity="0.29" d="M242.496 163.836H202.846C201.196 163.836 199.859 162.499 199.859 160.849C199.859 159.199 201.196 157.862 202.846 157.862H242.496C244.146 157.862 245.483 159.199 245.483 160.849C245.483 162.499 244.146 163.836 242.496 163.836Z" fill="#4A8BFF"/>
<path opacity="0.29" d="M242.496 176.265H202.846C201.196 176.265 199.859 174.928 199.859 173.278C199.859 171.628 201.196 170.291 202.846 170.291H242.496C244.146 170.291 245.483 171.628 245.483 173.278C245.483 174.928 244.146 176.265 242.496 176.265Z" fill="#4A8BFF"/>
<path opacity="0.29" d="M242.496 188.694H202.846C201.196 188.694 199.859 187.357 199.859 185.707C199.859 184.057 201.196 182.72 202.846 182.72H242.496C244.146 182.72 245.483 184.057 245.483 185.707C245.483 187.356 244.146 188.694 242.496 188.694Z" fill="#4A8BFF"/>
<path opacity="0.29" d="M242.496 201.122H202.846C201.196 201.122 199.859 199.785 199.859 198.135C199.859 196.485 201.196 195.148 202.846 195.148H242.496C244.146 195.148 245.483 196.485 245.483 198.135C245.483 199.785 244.146 201.122 242.496 201.122Z" fill="#4A8BFF"/>
<path opacity="0.29" d="M242.497 217.066H143.91C142.26 217.066 140.923 215.729 140.923 214.079C140.923 212.429 142.26 211.092 143.91 211.092H242.497C244.147 211.092 245.484 212.429 245.484 214.079C245.484 215.729 244.147 217.066 242.497 217.066Z" fill="#4A8BFF"/>
<path opacity="0.29" d="M242.497 228.595H143.91C142.26 228.595 140.923 227.258 140.923 225.608C140.923 223.958 142.26 222.621 143.91 222.621H242.497C244.147 222.621 245.484 223.958 245.484 225.608C245.484 227.258 244.147 228.595 242.497 228.595Z" fill="#4A8BFF"/>
<path opacity="0.29" d="M242.497 240.124H143.91C142.26 240.124 140.923 238.787 140.923 237.137C140.923 235.487 142.26 234.15 143.91 234.15H242.497C244.147 234.15 245.484 235.487 245.484 237.137C245.484 238.787 244.147 240.124 242.497 240.124Z" fill="#4A8BFF"/>
<path opacity="0.29" d="M243.429 265.066H176.993C175.858 265.066 174.937 264.146 174.937 263.01C174.937 261.875 175.857 260.954 176.993 260.954H243.429C244.564 260.954 245.485 261.874 245.485 263.01C245.485 264.146 244.565 265.066 243.429 265.066Z" fill="#4A8BFF"/>
<path opacity="0.29" d="M243.429 273.002H176.993C175.858 273.002 174.937 272.082 174.937 270.946C174.937 269.811 175.857 268.89 176.993 268.89H243.429C244.564 268.89 245.485 269.81 245.485 270.946C245.485 272.081 244.565 273.002 243.429 273.002Z" fill="#4A8BFF"/>
<path opacity="0.29" d="M157.835 274.482C161.981 270.939 162.469 264.706 158.926 260.56C155.382 256.414 149.149 255.925 145.003 259.468C140.857 263.012 140.369 269.245 143.912 273.391C147.455 277.537 153.689 278.026 157.835 274.482Z" fill="#4A8BFF"/>
<path opacity="0.29" d="M243.429 293.368H176.993C175.858 293.368 174.937 292.448 174.937 291.312C174.937 290.177 175.857 289.256 176.993 289.256H243.429C244.564 289.256 245.485 290.176 245.485 291.312C245.485 292.448 244.565 293.368 243.429 293.368Z" fill="#4A8BFF"/>
<path opacity="0.29" d="M243.429 301.303H176.993C175.858 301.303 174.937 300.383 174.937 299.247C174.937 298.112 175.857 297.191 176.993 297.191H243.429C244.564 297.191 245.485 298.111 245.485 299.247C245.485 300.383 244.565 301.303 243.429 301.303Z" fill="#4A8BFF"/>
<path opacity="0.29" d="M151.415 305.155C156.869 305.155 161.29 300.734 161.29 295.28C161.29 289.826 156.869 285.405 151.415 285.405C145.961 285.405 141.54 289.826 141.54 295.28C141.54 300.734 145.961 305.155 151.415 305.155Z" fill="#4A8BFF"/>
<path opacity="0.29" d="M242.194 321.669H175.757C174.622 321.669 173.701 320.749 173.701 319.613C173.701 318.478 174.621 317.557 175.757 317.557H242.194C243.329 317.557 244.25 318.477 244.25 319.613C244.25 320.749 243.329 321.669 242.194 321.669Z" fill="#4A8BFF"/>
<path opacity="0.29" d="M242.194 329.605H175.757C174.622 329.605 173.701 328.685 173.701 327.549C173.701 326.414 174.621 325.493 175.757 325.493H242.194C243.329 325.493 244.25 326.413 244.25 327.549C244.25 328.684 243.329 329.605 242.194 329.605Z" fill="#4A8BFF"/>
<path opacity="0.29" d="M155.17 332.701C160.213 330.626 162.62 324.856 160.546 319.812C158.471 314.768 152.7 312.362 147.657 314.436C142.613 316.511 140.206 322.281 142.281 327.325C144.355 332.369 150.126 334.776 155.17 332.701Z" fill="#4A8BFF"/>
</g>
<path d="M147.45 263.015L155.377 270.942" stroke="url(#paint6_linear_119_809)" stroke-width="2.3972" stroke-miterlimit="10" stroke-linecap="round"/>
<path d="M155.377 263.015L147.45 270.942" stroke="url(#paint7_linear_119_809)" stroke-width="2.3972" stroke-miterlimit="10" stroke-linecap="round"/>
<path d="M147.45 291.542L155.377 299.469" stroke="url(#paint8_linear_119_809)" stroke-width="2.3972" stroke-miterlimit="10" stroke-linecap="round"/>
<path d="M155.377 291.542L147.45 299.469" stroke="url(#paint9_linear_119_809)" stroke-width="2.3972" stroke-miterlimit="10" stroke-linecap="round"/>
<path d="M147.45 319.618L155.377 327.545" stroke="url(#paint10_linear_119_809)" stroke-width="2.3972" stroke-miterlimit="10" stroke-linecap="round"/>
<path d="M155.377 319.618L147.45 327.545" stroke="url(#paint11_linear_119_809)" stroke-width="2.3972" stroke-miterlimit="10" stroke-linecap="round"/>
<path d="M121.656 260.075L98.6149 234.29C93.3249 228.37 93.9919 219.244 100.087 214.157C106.182 209.069 115.28 210.043 120.159 216.306L141.412 243.583C145.678 249.059 144.836 256.931 139.506 261.38C134.178 265.829 126.281 265.252 121.656 260.075Z" fill="url(#paint12_linear_119_809)"/>
<path opacity="0.7" d="M123.359 252.823L127.735 258.102C130.175 261.046 134.541 261.455 137.485 259.014C140.429 256.573 140.838 252.208 138.397 249.264L134.021 243.985C131.581 241.041 127.215 240.632 124.271 243.073C121.328 245.514 120.919 249.879 123.359 252.823Z" fill="white"/>
<path d="M128.47 300.815L95.3166 274.646C89.0776 269.721 88.1436 260.614 93.2526 254.526C98.3616 248.437 107.493 247.776 113.426 253.066L144.952 281.173C150.128 285.788 150.699 293.681 146.242 298.993C141.786 304.304 133.913 305.111 128.47 300.815Z" fill="url(#paint13_linear_119_809)"/>
<path opacity="0.7" d="M128.834 293.408L134.071 297.834C136.992 300.303 141.361 299.936 143.829 297.015C146.298 294.094 145.931 289.725 143.01 287.257L137.773 282.831C134.852 280.362 130.483 280.729 128.015 283.65C125.547 286.57 125.914 290.939 128.834 293.408Z" fill="white"/>
<path d="M129.231 336.092L108.57 322.685C101.923 318.372 100.199 309.395 104.776 302.927C109.353 296.459 118.392 295.097 124.671 299.93L144.189 314.952C149.7 319.194 150.881 327.029 146.864 332.706C142.847 338.384 135.065 339.878 129.231 336.092Z" fill="url(#paint14_linear_119_809)"/>
<path opacity="0.7" d="M129.152 328.642L134.735 332.622C137.849 334.842 142.173 334.117 144.393 331.003C146.613 327.889 145.888 323.565 142.774 321.345L137.191 317.365C134.077 315.145 129.753 315.87 127.533 318.985C125.313 322.099 126.038 326.423 129.152 328.642Z" fill="white"/>
<path d="M72.1352 33.321H163.147C168.287 33.321 172.454 37.488 172.454 42.629V90.778C172.454 95.918 168.287 100.086 163.147 100.086H154.803L142.46 113.324C141.478 114.377 139.81 114.377 138.828 113.324L126.485 100.085H72.1342C66.9942 100.085 62.8271 95.918 62.8271 90.777V42.628C62.8281 37.488 66.9952 33.321 72.1352 33.321Z" fill="url(#paint15_linear_119_809)"/>
<path d="M90.3715 66.5513L89.8542 68.9716H92.0713V71.817H89.2445L88.6348 74.6438H85.6786L86.2883 71.817H83.2213L82.6116 74.6438H79.6554L80.2651 71.817H77.5307V68.9716H80.8748L81.3922 66.5513H78.7131V63.7059H81.9834L82.5746 60.9715H85.5308L84.9396 63.7059H88.0066L88.5978 60.9715H91.554L90.9628 63.7059H93.2538V66.5513H90.3715ZM87.4154 66.5513H84.3483L83.831 68.9716H86.898L87.4154 66.5513ZM104.825 70.8747C104.825 71.5521 104.647 72.1803 104.29 72.7592C103.945 73.3258 103.427 73.7939 102.738 74.1634C102.06 74.5206 101.253 74.7177 100.317 74.7547V76.2512H99.1347V74.7362C97.8291 74.6253 96.7759 74.2373 95.9753 73.5722C95.1747 72.8947 94.7497 71.9771 94.7004 70.8192H98.0631C98.137 71.5583 98.4942 72.0325 99.1347 72.2419V69.3227C98.1739 69.0763 97.4041 68.8361 96.8252 68.6021C96.2586 68.3681 95.7597 67.9924 95.3286 67.4751C94.8975 66.9577 94.682 66.2495 94.682 65.3503C94.682 64.2294 95.0946 63.3303 95.9199 62.6528C96.7574 61.9754 97.8291 61.5935 99.1347 61.5073V60.0107H100.317V61.5073C101.61 61.6058 102.633 61.9815 103.384 62.6343C104.136 63.2872 104.554 64.1925 104.641 65.3503H101.259C101.186 64.6852 100.871 64.2541 100.317 64.057V66.9208C101.34 67.2041 102.128 67.4566 102.682 67.6783C103.236 67.9 103.729 68.2695 104.16 68.7869C104.604 69.2919 104.825 69.9878 104.825 70.8747ZM98.0261 65.2025C98.0261 65.5104 98.1185 65.7691 98.3033 65.9785C98.5004 66.1879 98.7775 66.3727 99.1347 66.5328V63.9646C98.7898 64.0262 98.5188 64.1617 98.3218 64.3711C98.1247 64.5682 98.0261 64.8453 98.0261 65.2025ZM100.317 72.2973C100.687 72.2357 100.976 72.0879 101.186 71.8539C101.407 71.6199 101.518 71.3304 101.518 70.9855C101.518 70.6653 101.413 70.4066 101.204 70.2095C101.007 70.0001 100.711 69.8215 100.317 69.6737V72.2973ZM117.448 62.3018C118.902 62.3018 120.17 62.5789 121.254 63.1332C122.338 63.6752 123.17 64.445 123.749 65.4427C124.34 66.4281 124.635 67.5675 124.635 68.8608C124.635 69.9078 124.451 70.8808 124.081 71.78C123.724 72.6792 123.188 73.3997 122.474 73.9417C121.772 74.4714 120.934 74.7362 119.961 74.7362C119.308 74.7362 118.766 74.6068 118.335 74.3482C117.916 74.0895 117.633 73.7262 117.485 73.2581C117.14 73.7385 116.697 74.1142 116.155 74.3851C115.613 74.6438 115.022 74.7731 114.381 74.7731C113.47 74.7731 112.749 74.5021 112.22 73.9602C111.702 73.4059 111.444 72.6545 111.444 71.7061C111.444 70.8069 111.628 69.9632 111.998 69.1749C112.367 68.3742 112.879 67.7337 113.531 67.2534C114.184 66.773 114.917 66.5328 115.73 66.5328C116.765 66.5328 117.467 66.9023 117.836 67.6414L118.003 66.6621H120.552L119.739 71.2996C119.702 71.5213 119.684 71.7184 119.684 71.8909C119.684 72.4328 119.924 72.7038 120.404 72.7038C120.996 72.7038 121.445 72.3281 121.753 71.5768C122.073 70.8131 122.234 69.9386 122.234 68.9532C122.234 67.5367 121.784 66.4281 120.885 65.6275C119.998 64.8268 118.748 64.4265 117.134 64.4265C115.755 64.4265 114.498 64.7591 113.365 65.4242C112.244 66.0894 111.363 67.0009 110.723 68.1587C110.082 69.3042 109.762 70.5667 109.762 71.9463C109.762 73.4367 110.193 74.5945 111.056 75.4198C111.93 76.2451 113.149 76.6577 114.714 76.6577C115.933 76.6577 117.023 76.436 117.984 75.9926L118.483 78.0064C117.276 78.5361 115.921 78.8009 114.418 78.8009C113.014 78.8009 111.776 78.5299 110.704 77.988C109.645 77.446 108.826 76.6762 108.247 75.6785C107.668 74.6808 107.379 73.5168 107.379 72.1865C107.379 70.3265 107.816 68.6452 108.691 67.1425C109.565 65.6275 110.766 64.445 112.293 63.5951C113.833 62.7329 115.551 62.3018 117.448 62.3018ZM115.416 72.5006C115.761 72.5006 116.081 72.3959 116.377 72.1865C116.685 71.9771 116.925 71.6999 117.097 71.3551C117.282 70.9978 117.374 70.616 117.374 70.2095C117.374 69.7907 117.257 69.452 117.023 69.1933C116.789 68.9224 116.469 68.7869 116.063 68.7869C115.521 68.7869 115.071 69.0209 114.714 69.489C114.357 69.957 114.178 70.5113 114.178 71.1518C114.178 71.5583 114.283 71.8847 114.492 72.131C114.701 72.3774 115.009 72.5006 115.416 72.5006ZM137.053 74.6438L135.852 73.4798C134.657 74.3913 133.228 74.847 131.565 74.847C130.568 74.847 129.699 74.6869 128.96 74.3667C128.221 74.0341 127.649 73.5722 127.242 72.9809C126.848 72.3774 126.651 71.6753 126.651 70.8747C126.651 70.0617 126.866 69.3288 127.297 68.676C127.741 68.0109 128.4 67.4689 129.274 67.0501C128.954 66.656 128.726 66.2803 128.591 65.9231C128.455 65.5536 128.388 65.1532 128.388 64.7221C128.388 64.1063 128.548 63.5458 128.868 63.0408C129.188 62.5358 129.65 62.1416 130.254 61.8583C130.87 61.5627 131.596 61.4149 132.434 61.4149C133.284 61.4149 134.004 61.5689 134.596 61.8768C135.187 62.1847 135.63 62.5974 135.926 63.1147C136.221 63.632 136.357 64.1986 136.332 64.8145H133.358C133.37 64.4819 133.284 64.2294 133.099 64.057C132.927 63.8722 132.692 63.7799 132.397 63.7799C132.101 63.7799 131.855 63.8661 131.658 64.0385C131.461 64.211 131.362 64.4327 131.362 64.7037C131.362 64.9623 131.442 65.2333 131.602 65.5166C131.775 65.7999 132.04 66.1263 132.397 66.4958L135.556 69.5813C135.581 69.5198 135.612 69.4459 135.649 69.3596C135.698 69.2734 135.747 69.1749 135.796 69.064L136.48 67.9H139.64L138.753 69.5074C138.42 70.2342 138.038 70.9239 137.607 71.5768L140.73 74.6438H137.053ZM131.713 72.2973C132.539 72.2973 133.271 72.0633 133.912 71.5952L131.03 68.8054C130.143 69.2611 129.699 69.877 129.699 70.653C129.699 71.121 129.878 71.5152 130.235 71.8354C130.605 72.1434 131.097 72.2973 131.713 72.2973ZM146.03 61.2117L145.66 70.0617H142.981L142.611 61.2117H146.03ZM144.367 74.7916C143.812 74.7916 143.357 74.6315 142.999 74.3112C142.655 73.9787 142.482 73.5722 142.482 73.0918C142.482 72.5991 142.655 72.1865 142.999 71.8539C143.357 71.5213 143.812 71.3551 144.367 71.3551C144.909 71.3551 145.352 71.5213 145.697 71.8539C146.054 72.1865 146.233 72.5991 146.233 73.0918C146.233 73.5722 146.054 73.9787 145.697 74.3112C145.352 74.6315 144.909 74.7916 144.367 74.7916ZM153.265 61.2117L152.895 70.0617H150.216L149.847 61.2117H153.265ZM151.602 74.7916C151.048 74.7916 150.592 74.6315 150.235 74.3112C149.89 73.9787 149.717 73.5722 149.717 73.0918C149.717 72.5991 149.89 72.1865 150.235 71.8539C150.592 71.5213 151.048 71.3551 151.602 71.3551C152.144 71.3551 152.587 71.5213 152.932 71.8539C153.289 72.1865 153.468 72.5991 153.468 73.0918C153.468 73.5722 153.289 73.9787 152.932 74.3112C152.587 74.6315 152.144 74.7916 151.602 74.7916Z" fill="white"/>
<path d="M228.523 49.046C242.067 49.046 253.046 38.0667 253.046 24.523C253.046 10.9793 242.067 0 228.523 0C214.979 0 204 10.9793 204 24.523C204 38.0667 214.979 49.046 228.523 49.046Z" fill="url(#paint16_linear_119_809)"/>
<path d="M215.189 18.3281C215.189 15.9531 217.114 14.0271 219.49 14.0271C221.865 14.0271 223.791 15.9531 223.791 18.3281" stroke="white" stroke-width="2.5445" stroke-miterlimit="10" stroke-linecap="round"/>
<path d="M233.256 18.3281C233.256 15.9531 235.181 14.0271 237.557 14.0271C239.932 14.0271 241.858 15.9531 241.858 18.3281" stroke="white" stroke-width="2.5445" stroke-miterlimit="10" stroke-linecap="round"/>
<path d="M216.154 38.9142C216.154 32.0832 221.692 26.5452 228.523 26.5452C235.354 26.5452 240.892 32.0832 240.892 38.9142" stroke="white" stroke-width="2.5445" stroke-miterlimit="10" stroke-linecap="round"/>
<path d="M352.705 71.8181H218.938C214.183 71.8181 210.329 75.6731 210.329 80.4271V142.109C210.329 146.864 214.183 150.719 218.938 150.719H226.656L238.073 162.965C238.981 163.939 240.524 163.939 241.432 162.965L252.849 150.719H352.704C357.459 150.719 361.313 146.864 361.313 142.109V80.4271C361.314 75.6731 357.46 71.8181 352.705 71.8181Z" fill="url(#paint17_linear_119_809)"/>
<path opacity="0.59" d="M261.623 87.6602L263.553 91.5702C263.643 91.7532 263.817 91.8792 264.018 91.9082L268.333 92.5352C268.84 92.6092 269.042 93.2312 268.675 93.5892L265.553 96.6332C265.407 96.7752 265.341 96.9792 265.375 97.1802L266.112 101.478C266.198 101.983 265.669 102.368 265.216 102.129L261.356 100.1C261.176 100.005 260.961 100.005 260.781 100.1L256.922 102.129C256.469 102.367 255.939 101.982 256.025 101.478L256.762 97.1802C256.796 96.9802 256.73 96.7752 256.584 96.6332L253.462 93.5892C253.095 93.2312 253.298 92.6092 253.804 92.5352L258.119 91.9082C258.32 91.8792 258.494 91.7522 258.584 91.5702L260.514 87.6602C260.742 87.2012 261.396 87.2012 261.623 87.6602Z" fill="white"/>
<path opacity="0.59" d="M286.375 87.6602L288.305 91.5702C288.395 91.7532 288.569 91.8792 288.77 91.9082L293.085 92.5352C293.592 92.6092 293.794 93.2312 293.427 93.5892L290.305 96.6332C290.16 96.7752 290.093 96.9792 290.127 97.1802L290.864 101.478C290.951 101.983 290.421 102.368 289.967 102.129L286.108 100.1C285.928 100.005 285.713 100.005 285.533 100.1L281.674 102.129C281.221 102.367 280.691 101.982 280.777 101.478L281.514 97.1802C281.548 96.9802 281.482 96.7752 281.336 96.6332L278.214 93.5892C277.847 93.2312 278.05 92.6092 278.556 92.5352L282.871 91.9082C283.072 91.8792 283.246 91.7522 283.336 91.5702L285.266 87.6602C285.494 87.2012 286.149 87.2012 286.375 87.6602Z" fill="white"/>
<path opacity="0.59" d="M311.127 87.6602L313.057 91.5702C313.147 91.7532 313.321 91.8792 313.522 91.9082L317.837 92.5352C318.344 92.6092 318.546 93.2312 318.179 93.5892L315.057 96.6332C314.911 96.7752 314.845 96.9792 314.879 97.1802L315.616 101.478C315.703 101.983 315.173 102.368 314.719 102.129L310.86 100.1C310.68 100.005 310.465 100.005 310.285 100.1L306.426 102.129C305.973 102.367 305.443 101.982 305.529 101.478L306.266 97.1802C306.3 96.9802 306.234 96.7752 306.088 96.6332L302.966 93.5892C302.599 93.2312 302.802 92.6092 303.308 92.5352L307.623 91.9082C307.824 91.8792 307.998 91.7522 308.088 91.5702L310.018 87.6602C310.246 87.2012 310.901 87.2012 311.127 87.6602Z" fill="white"/>
<path d="M236.871 87.6602L238.801 91.5702C238.891 91.7532 239.065 91.8792 239.266 91.9082L243.581 92.5352C244.088 92.6092 244.29 93.2312 243.923 93.5892L240.801 96.6332C240.655 96.7752 240.589 96.9792 240.623 97.1802L241.36 101.478C241.446 101.983 240.917 102.368 240.463 102.129L236.603 100.1C236.423 100.005 236.208 100.005 236.028 100.1L232.169 102.129C231.716 102.367 231.186 101.982 231.273 101.478L232.01 97.1802C232.044 96.9802 231.978 96.7752 231.832 96.6332L228.71 93.5892C228.343 93.2312 228.546 92.6092 229.052 92.5352L233.367 91.9082C233.568 91.8792 233.742 91.7522 233.832 91.5702L235.762 87.6602C235.989 87.2012 236.644 87.2012 236.871 87.6602Z" fill="url(#paint18_linear_119_809)"/>
<path opacity="0.59" d="M335.88 87.6602L337.81 91.5702C337.9 91.7532 338.074 91.8792 338.275 91.9082L342.59 92.5352C343.097 92.6092 343.299 93.2312 342.932 93.5892L339.81 96.6332C339.664 96.7752 339.598 96.9792 339.632 97.1802L340.369 101.478C340.456 101.983 339.926 102.368 339.473 102.129L335.613 100.1C335.433 100.005 335.218 100.005 335.038 100.1L331.178 102.129C330.725 102.367 330.195 101.982 330.281 101.478L331.018 97.1802C331.052 96.9802 330.986 96.7752 330.84 96.6332L327.718 93.5892C327.351 93.2312 327.554 92.6092 328.06 92.5352L332.375 91.9082C332.576 91.8792 332.75 91.7522 332.84 91.5702L334.77 87.6602C334.998 87.2012 335.653 87.2012 335.88 87.6602Z" fill="white"/>
<path d="M228.522 121.458H273.163" stroke="url(#paint19_linear_119_809)" stroke-width="2.5598" stroke-miterlimit="10" stroke-linecap="round"/>
<path d="M279.686 121.458H314.804" stroke="url(#paint20_linear_119_809)" stroke-width="2.5598" stroke-miterlimit="10" stroke-linecap="round"/>
<path d="M320.991 121.458H343.118" stroke="url(#paint21_linear_119_809)" stroke-width="2.5598" stroke-miterlimit="10" stroke-linecap="round"/>
<path d="M228.522 128.076H258.488" stroke="url(#paint22_linear_119_809)" stroke-width="2.5598" stroke-miterlimit="10" stroke-linecap="round"/>
<path d="M264.008 128.076H297.245" stroke="url(#paint23_linear_119_809)" stroke-width="2.5598" stroke-miterlimit="10" stroke-linecap="round"/>
<path d="M305.146 128.076H343.118" stroke="url(#paint24_linear_119_809)" stroke-width="2.5598" stroke-miterlimit="10" stroke-linecap="round"/>
<path d="M228.522 114.84H267.135" stroke="url(#paint25_linear_119_809)" stroke-width="2.5598" stroke-miterlimit="10" stroke-linecap="round"/>
<path d="M273.566 114.84H306.171" stroke="url(#paint26_linear_119_809)" stroke-width="2.5598" stroke-miterlimit="10" stroke-linecap="round"/>
<path d="M312.452 114.84H343.118" stroke="url(#paint27_linear_119_809)" stroke-width="2.5598" stroke-miterlimit="10" stroke-linecap="round"/>
<path d="M228.522 134.693H268.021" stroke="url(#paint28_linear_119_809)" stroke-width="2.5598" stroke-miterlimit="10" stroke-linecap="round"/>
<path d="M320.506 234.563C338.975 234.563 353.947 219.591 353.947 201.122C353.947 182.653 338.975 167.681 320.506 167.681C302.037 167.681 287.065 182.653 287.065 201.122C287.065 219.591 302.037 234.563 320.506 234.563Z" fill="url(#paint29_linear_119_809)"/>
<path d="M331.908 183.703H338.764C339.857 183.703 340.744 184.589 340.744 185.683V202.896C340.744 203.989 339.858 204.876 338.764 204.876H331.908C330.815 204.876 329.928 203.99 329.928 202.896V185.683C329.928 184.59 330.815 183.703 331.908 183.703Z" fill="url(#paint30_linear_119_809)"/>
<path d="M301.846 203.292C300.854 203.917 300.208 205.042 300.272 206.315C300.363 208.133 301.967 209.512 303.787 209.512H314.459C309.972 215.847 311.475 221.228 312.212 223.048C312.375 223.449 312.624 223.806 312.944 224.098L312.968 224.12C313.951 225.019 315.434 225.234 316.561 224.522C317.431 223.973 317.925 223.036 317.925 222.058V218.96C317.925 218.617 318.074 218.292 318.326 218.06C323.862 212.958 325.945 207.357 326.515 205.507C326.634 205.12 326.692 204.721 326.692 204.316V187.594C326.692 186.53 325.83 185.668 324.767 185.668H303.788C301.967 185.668 300.364 187.047 300.273 188.865C300.209 190.139 300.855 191.264 301.847 191.888C300.9 192.484 300.268 193.537 300.268 194.739C300.268 195.941 300.9 196.993 301.847 197.59C300.9 198.186 300.268 199.239 300.268 200.441C300.267 201.643 300.899 202.695 301.846 203.292Z" fill="url(#paint31_linear_119_809)"/>
<path d="M150.784 145.802L180.546 175.563" stroke="url(#paint32_linear_119_809)" stroke-width="9" stroke-miterlimit="10" stroke-linecap="round"/>
<path d="M180.546 145.802L150.784 175.563" stroke="url(#paint33_linear_119_809)" stroke-width="9" stroke-miterlimit="10" stroke-linecap="round"/>
<path d="M7.339 166.283H79.102C83.155 166.283 86.441 169.569 86.441 173.622V211.588C86.441 215.641 83.155 218.927 79.102 218.927H72.523L62.79 229.366C62.016 230.196 60.701 230.196 59.927 229.366L50.195 218.927H7.339C3.286 218.927 0 215.641 0 211.588V173.622C0 169.569 3.286 166.283 7.339 166.283Z" fill="url(#paint34_linear_119_809)"/>
<path d="M23.6827 178.97C22.7127 178.97 21.9517 179.769 21.9697 180.74L22.4267 196.647H24.9387L25.3957 180.74V180.664C25.3947 179.731 24.6337 178.97 23.6827 178.97ZM23.6827 201.043C22.4267 201.043 21.5137 202.013 21.5137 203.326C21.5137 204.62 22.4077 205.609 23.6827 205.609C25.0147 205.609 25.8517 204.619 25.8517 203.326C25.8517 202.013 25.0147 201.043 23.6827 201.043Z" fill="white" stroke="white" stroke-width="2.0452" stroke-miterlimit="10"/>
<path d="M43.2198 178.383C42.2498 178.383 41.4878 179.182 41.5068 180.153L41.9638 196.061H44.4758L44.9328 180.153V180.077C44.9328 179.144 44.1718 178.383 43.2198 178.383ZM43.2198 200.456C41.9638 200.456 41.0508 201.426 41.0508 202.739C41.0508 204.033 41.9448 205.022 43.2198 205.022C44.5518 205.022 45.3888 204.032 45.3888 202.739C45.3898 201.426 44.5518 200.456 43.2198 200.456Z" fill="white" stroke="white" stroke-width="2.0452" stroke-miterlimit="10"/>
<path d="M62.7579 178.97C61.7879 178.97 61.0269 179.769 61.0449 180.74L61.5019 196.647H64.0139L64.4709 180.74V180.664C64.4709 179.731 63.7089 178.97 62.7579 178.97ZM62.7579 201.043C61.5019 201.043 60.5889 202.013 60.5889 203.326C60.5889 204.62 61.4829 205.609 62.7579 205.609C64.0899 205.609 64.9269 204.619 64.9269 203.326C64.9269 202.013 64.0899 201.043 62.7579 201.043Z" fill="white" stroke="white" stroke-width="2.0452" stroke-miterlimit="10"/>
<path d="M238.908 187.775C240.128 181.815 247.928 180.285 251.318 185.335L251.778 186.025L252.378 186.905L256.798 193.505L263.248 203.125L264.768 205.395L265.358 206.265L292.858 247.275C294.098 249.125 295.068 251.155 295.728 253.285L305.728 285.405L263.248 271.595V274.027L256.798 259.515L238.808 212.655L238.427 211.257C236.327 203.546 236.494 195.393 238.908 187.775Z" fill="#F9B19D"/>
<path opacity="0.7" d="M264.94 205.655C263.3 206.665 261.37 206.995 259.5 206.575C257.61 206.155 255.98 205.025 254.95 203.385L250.8 196.875C248.76 193.655 249.56 189.425 252.56 187.165L256.8 193.505L263.25 203.125L264.77 205.395L264.94 205.655Z" fill="white"/>
<defs>
<linearGradient id="paint0_linear_119_809" x1="111.937" y1="200.651" x2="111.937" y2="139.086" gradientUnits="userSpaceOnUse">
<stop stop-color="#EAA28E"/>
<stop offset="1" stop-color="#FFC0AC"/>
</linearGradient>
<linearGradient id="paint1_linear_119_809" x1="163.378" y1="304.744" x2="407.098" y2="304.744" gradientUnits="userSpaceOnUse">
<stop stop-color="#EAA28E"/>
<stop offset="1" stop-color="#FFC0AC"/>
</linearGradient>
<linearGradient id="paint2_linear_119_809" x1="264.709" y1="129.425" x2="255.943" y2="120.659" gradientUnits="userSpaceOnUse">
<stop stop-color="#C5DFFF"/>
<stop offset="1" stop-color="white"/>
</linearGradient>
<linearGradient id="paint3_linear_119_809" x1="129.455" y1="117.665" x2="122.032" y2="110.241" gradientUnits="userSpaceOnUse">
<stop stop-color="#C5DFFF"/>
<stop offset="1" stop-color="white"/>
</linearGradient>
<linearGradient id="paint4_linear_119_809" x1="129.449" y1="139.84" x2="122.026" y2="132.417" gradientUnits="userSpaceOnUse">
<stop stop-color="#C5DFFF"/>
<stop offset="1" stop-color="white"/>
</linearGradient>
<linearGradient id="paint5_linear_119_809" x1="89.6069" y1="155.394" x2="296.458" y2="300.233" gradientUnits="userSpaceOnUse">
<stop stop-color="#C5DFFF"/>
<stop offset="1" stop-color="white"/>
</linearGradient>
<linearGradient id="paint6_linear_119_809" x1="146.252" y1="266.978" x2="156.576" y2="266.978" gradientUnits="userSpaceOnUse">
<stop stop-color="#F01357"/>
<stop offset="1" stop-color="#FF3175"/>
</linearGradient>
<linearGradient id="paint7_linear_119_809" x1="151.414" y1="261.816" x2="151.414" y2="272.141" gradientUnits="userSpaceOnUse">
<stop stop-color="#F01357"/>
<stop offset="1" stop-color="#FF3175"/>
</linearGradient>
<linearGradient id="paint8_linear_119_809" x1="146.252" y1="295.506" x2="156.576" y2="295.506" gradientUnits="userSpaceOnUse">
<stop stop-color="#F01357"/>
<stop offset="1" stop-color="#FF3175"/>
</linearGradient>
<linearGradient id="paint9_linear_119_809" x1="151.414" y1="290.344" x2="151.414" y2="300.668" gradientUnits="userSpaceOnUse">
<stop stop-color="#F01357"/>
<stop offset="1" stop-color="#FF3175"/>
</linearGradient>
<linearGradient id="paint10_linear_119_809" x1="146.252" y1="323.581" x2="156.576" y2="323.581" gradientUnits="userSpaceOnUse">
<stop stop-color="#F01357"/>
<stop offset="1" stop-color="#FF3175"/>
</linearGradient>
<linearGradient id="paint11_linear_119_809" x1="151.414" y1="318.419" x2="151.414" y2="328.744" gradientUnits="userSpaceOnUse">
<stop stop-color="#F01357"/>
<stop offset="1" stop-color="#FF3175"/>
</linearGradient>
<linearGradient id="paint12_linear_119_809" x1="95.0441" y1="237.634" x2="144.132" y2="237.634" gradientUnits="userSpaceOnUse">
<stop stop-color="#EAA28E"/>
<stop offset="1" stop-color="#FFC0AC"/>
</linearGradient>
<linearGradient id="paint13_linear_119_809" x1="89.9559" y1="276.533" x2="149.245" y2="276.533" gradientUnits="userSpaceOnUse">
<stop stop-color="#EAA28E"/>
<stop offset="1" stop-color="#FFC0AC"/>
</linearGradient>
<linearGradient id="paint14_linear_119_809" x1="102.213" y1="317.608" x2="149.245" y2="317.608" gradientUnits="userSpaceOnUse">
<stop stop-color="#EAA28E"/>
<stop offset="1" stop-color="#FFC0AC"/>
</linearGradient>
<linearGradient id="paint15_linear_119_809" x1="172.455" y1="73.7174" x2="62.8281" y2="73.7174" gradientUnits="userSpaceOnUse">
<stop stop-color="#F01357"/>
<stop offset="1" stop-color="#FF3175"/>
</linearGradient>
<linearGradient id="paint16_linear_119_809" x1="245.863" y1="7.1829" x2="211.183" y2="41.8631" gradientUnits="userSpaceOnUse">
<stop stop-color="#F01357"/>
<stop offset="1" stop-color="#FF3175"/>
</linearGradient>
<linearGradient id="paint17_linear_119_809" x1="210.328" y1="117.757" x2="361.314" y2="117.757" gradientUnits="userSpaceOnUse">
<stop stop-color="#F01357"/>
<stop offset="1" stop-color="#FF3175"/>
</linearGradient>
<linearGradient id="paint18_linear_119_809" x1="241.765" y1="90.5452" x2="230.868" y2="101.442" gradientUnits="userSpaceOnUse">
<stop stop-color="#FFC57C"/>
<stop offset="0.4047" stop-color="#FFA96A"/>
<stop offset="0.688" stop-color="#FFC57C"/>
<stop offset="1" stop-color="#FFA96A"/>
</linearGradient>
<linearGradient id="paint19_linear_119_809" x1="-nan" y1="-nan" x2="-nan" y2="-nan" gradientUnits="userSpaceOnUse">
<stop stop-color="#E3E3FF"/>
<stop offset="0.995" stop-color="white"/>
</linearGradient>
<linearGradient id="paint20_linear_119_809" x1="-nan" y1="-nan" x2="-nan" y2="-nan" gradientUnits="userSpaceOnUse">
<stop stop-color="#E3E3FF"/>
<stop offset="0.995" stop-color="white"/>
</linearGradient>
<linearGradient id="paint21_linear_119_809" x1="-nan" y1="-nan" x2="-nan" y2="-nan" gradientUnits="userSpaceOnUse">
<stop stop-color="#E3E3FF"/>
<stop offset="0.995" stop-color="white"/>
</linearGradient>
<linearGradient id="paint22_linear_119_809" x1="-nan" y1="-nan" x2="-nan" y2="-nan" gradientUnits="userSpaceOnUse">
<stop stop-color="#E3E3FF"/>
<stop offset="0.995" stop-color="white"/>
</linearGradient>
<linearGradient id="paint23_linear_119_809" x1="-nan" y1="-nan" x2="-nan" y2="-nan" gradientUnits="userSpaceOnUse">
<stop stop-color="#E3E3FF"/>
<stop offset="0.995" stop-color="white"/>
</linearGradient>
<linearGradient id="paint24_linear_119_809" x1="-nan" y1="-nan" x2="-nan" y2="-nan" gradientUnits="userSpaceOnUse">
<stop stop-color="#E3E3FF"/>
<stop offset="0.995" stop-color="white"/>
</linearGradient>
<linearGradient id="paint25_linear_119_809" x1="-nan" y1="-nan" x2="-nan" y2="-nan" gradientUnits="userSpaceOnUse">
<stop stop-color="#E3E3FF"/>
<stop offset="0.995" stop-color="white"/>
</linearGradient>
<linearGradient id="paint26_linear_119_809" x1="-nan" y1="-nan" x2="-nan" y2="-nan" gradientUnits="userSpaceOnUse">
<stop stop-color="#E3E3FF"/>
<stop offset="0.995" stop-color="white"/>
</linearGradient>
<linearGradient id="paint27_linear_119_809" x1="-nan" y1="-nan" x2="-nan" y2="-nan" gradientUnits="userSpaceOnUse">
<stop stop-color="#E3E3FF"/>
<stop offset="0.995" stop-color="white"/>
</linearGradient>
<linearGradient id="paint28_linear_119_809" x1="-nan" y1="-nan" x2="-nan" y2="-nan" gradientUnits="userSpaceOnUse">
<stop stop-color="#E3E3FF"/>
<stop offset="0.995" stop-color="white"/>
</linearGradient>
<linearGradient id="paint29_linear_119_809" x1="296.86" y1="177.476" x2="344.152" y2="224.769" gradientUnits="userSpaceOnUse">
<stop stop-color="#F01357"/>
<stop offset="1" stop-color="#FF3175"/>
</linearGradient>
<linearGradient id="paint30_linear_119_809" x1="329.762" y1="184.635" x2="340.91" y2="203.944" gradientUnits="userSpaceOnUse">
<stop stop-color="#E3E3FF"/>
<stop offset="0.995" stop-color="white"/>
</linearGradient>
<linearGradient id="paint31_linear_119_809" x1="326.692" y1="205.308" x2="300.267" y2="205.308" gradientUnits="userSpaceOnUse">
<stop stop-color="#E3E3FF"/>
<stop offset="0.995" stop-color="white"/>
</linearGradient>
<linearGradient id="paint32_linear_119_809" x1="146.285" y1="160.682" x2="185.046" y2="160.682" gradientUnits="userSpaceOnUse">
<stop stop-color="#F01357"/>
<stop offset="1" stop-color="#FF3175"/>
</linearGradient>
<linearGradient id="paint33_linear_119_809" x1="165.665" y1="141.302" x2="165.665" y2="180.063" gradientUnits="userSpaceOnUse">
<stop stop-color="#F01357"/>
<stop offset="1" stop-color="#FF3175"/>
</linearGradient>
<linearGradient id="paint34_linear_119_809" x1="86.4411" y1="198.136" x2="-0.00020094" y2="198.136" gradientUnits="userSpaceOnUse">
<stop stop-color="#F01357"/>
<stop offset="1" stop-color="#FF3175"/>
</linearGradient>
</defs>
</svg>
