<svg width="23" height="23" viewBox="0 0 23 23" fill="none" xmlns="http://www.w3.org/2000/svg">
<g clip-path="url(#clip0_0_6703)">
<path d="M3.04902 13.2726C1.46345 13.2769 0.439954 15.0824 1.41745 16.4509C2.81614 18.4102 5.35189 19.9814 9.58389 19.9814C16.1432 19.9814 21.4088 14.6353 20.6728 8.31895L21.7523 6.15839C22.5013 4.66052 21.2003 2.95708 19.5573 3.28483L18.1298 3.56945C17.7518 3.36964 17.3608 3.2187 17.0258 3.10945C16.3732 2.8967 15.584 2.72852 14.8538 2.72852C13.5413 2.72852 12.4086 3.06489 11.5087 3.74052C10.6189 4.40752 10.1172 5.28583 9.84264 6.09083C9.71614 6.4617 9.63133 6.83545 9.5767 7.19195C9.06783 7.03239 8.54889 6.81677 8.04002 6.55227C6.88714 5.9557 5.9542 5.19814 5.42808 4.53402C4.54545 3.41995 2.67527 3.50333 2.01977 4.95089C1.09545 6.99214 1.34845 9.41002 2.17933 11.365C2.46559 12.0393 2.82932 12.678 3.2632 13.2683L3.04614 13.2697L3.04902 13.2726ZM9.58389 18.0638C5.88089 18.0638 3.96758 16.7226 2.97714 15.3354C2.93258 15.2736 2.97714 15.1888 3.05477 15.1873C4.06245 15.1845 6.12958 15.137 7.49233 14.3392C7.56277 14.2975 7.54695 14.194 7.46933 14.1681C4.29102 13.1001 2.48552 8.57483 3.76777 5.74439C3.79652 5.6797 3.8842 5.67108 3.92877 5.72714C5.39358 7.5772 8.59633 9.38845 11.3836 9.43877C11.444 9.4402 11.49 9.38558 11.48 9.3252C11.3678 8.59639 10.9395 4.64758 14.8538 4.64758C15.7881 4.64758 17.1796 5.10327 17.6914 5.57045C17.7031 5.58113 17.7171 5.58891 17.7323 5.59315C17.7475 5.5974 17.7636 5.598 17.7791 5.59489L19.9325 5.16364C20.0101 5.14783 20.0733 5.22977 20.0374 5.3002L18.702 7.97108C18.6933 7.98977 18.6905 8.01133 18.6933 8.03145C19.6291 13.2898 15.3224 18.0623 9.58389 18.0623V18.0638Z" fill="white" fill-opacity="0.5"/>
</g>
<defs>
<clipPath id="clip0_0_6703">
<rect width="23" height="23" fill="white"/>
</clipPath>
</defs>
</svg>
