<svg width="24" height="24" viewBox="0 0 24 24" fill="none" xmlns="http://www.w3.org/2000/svg">
<path d="M22.4151 11.0156H10.3456C9.88957 8.76873 7.9039 7.07739 5.52234 7.07739C2.80292 7.07739 0.599609 9.2807 0.599609 12.0001C0.599609 14.7195 2.80292 16.9228 5.52234 16.9228C7.9039 16.9228 9.88957 15.2315 10.3456 12.9847H16.7669V14.9538C16.7669 15.4968 17.2084 15.9383 17.7514 15.9383C18.2945 15.9383 18.736 15.4968 18.736 14.9538V12.9847H19.7205V14.9538C19.7205 15.4968 20.162 15.9383 20.7051 15.9383C21.2481 15.9383 21.6896 15.4968 21.6896 14.9538V12.9847H22.4151C22.9581 12.9847 23.3996 12.5432 23.3996 12.0001C23.3996 11.4571 22.9581 11.0156 22.4151 11.0156ZM3.831 14.4459C2.80084 14.4459 1.96554 13.3515 1.96554 12.0001C1.96554 10.6487 2.80084 9.5543 3.831 9.5543C4.86114 9.5543 5.69645 10.6487 5.69645 12.0001C5.69645 13.3515 4.86114 14.4459 3.831 14.4459Z" fill="#F2F4F6"/>
</svg>
