<svg width="143" height="90" viewBox="0 0 143 90" fill="none" xmlns="http://www.w3.org/2000/svg">
<path d="M60.2996 12.7694C61.4645 12.7685 62.6134 13.0396 63.6543 13.5611C64.6953 14.0826 65.5993 14.8399 66.294 15.7725L70.599 10.1587L57.682 0.305786L47.8027 13.1883L53.3699 17.4349C53.927 16.0569 54.8845 14.8764 56.1193 14.0451C57.3541 13.2137 58.8098 12.7695 60.2996 12.7694V12.7694Z" fill="#9AD954"/>
<path d="M120.848 60.6858H142.03C142.916 64.0426 143.017 67.5573 142.327 70.9593C141.637 74.3614 140.174 77.5603 138.049 80.3098C135.925 83.0593 133.197 85.2862 130.074 86.8191C126.952 88.3521 123.518 89.1502 120.038 89.1521C119.417 89.1521 118.802 89.1272 118.194 89.0774V76.6228C118.195 76.0256 118.048 75.4375 117.766 74.9104C117.485 74.3832 117.078 73.9331 116.581 73.5999C116.085 73.2667 115.513 73.0606 114.917 72.9998C114.322 72.9389 113.72 73.0252 113.166 73.2511V68.35C113.166 67.3437 113.364 66.3471 113.75 65.4173C114.136 64.4874 114.702 63.6425 115.415 62.9308C116.128 62.2191 116.975 61.6545 117.908 61.2693C118.84 60.8841 119.839 60.6858 120.848 60.6858Z" fill="#9AD954"/>
<path d="M13.1304 67.9125L5.75781 62.2888L0.11905 69.6417L7.49163 75.2654L13.1304 67.9125Z" fill="#9AD954"/>
<path d="M11.0424 33.0838L108.103 17.9398L114.72 67.4119L17.6591 82.5559L11.0424 33.0838Z" fill="#F1F1F1" stroke="#111111" stroke-width="0.563637"/>
<path d="M106.127 22.3429L14.0918 36.7028L19.6747 78.445L111.71 64.0851L106.127 22.3429Z" fill="white"/>
<path d="M10.6146 30.1994L107.676 15.0554L108.2 18.9759L11.139 34.1199L10.6146 30.1994Z" fill="#F5F5F5" stroke="#111111" stroke-width="0.563637"/>
<path d="M13.7338 32.9554C14.1627 32.9554 14.5105 32.5798 14.5105 32.1165C14.5105 31.6533 14.1627 31.2777 13.7338 31.2777C13.3048 31.2777 12.957 31.6533 12.957 32.1165C12.957 32.5798 13.3048 32.9554 13.7338 32.9554Z" fill="url(#paint0_linear_310_6881)"/>
<path d="M16.6498 32.5009C17.0787 32.5009 17.4265 32.1253 17.4265 31.6621C17.4265 31.1988 17.0787 30.8232 16.6498 30.8232C16.2208 30.8232 15.873 31.1988 15.873 31.6621C15.873 32.1253 16.2208 32.5009 16.6498 32.5009Z" fill="url(#paint1_linear_310_6881)"/>
<path d="M19.5677 32.0453C19.9967 32.0453 20.3445 31.6698 20.3445 31.2065C20.3445 30.7432 19.9967 30.3677 19.5677 30.3677C19.1388 30.3677 18.791 30.7432 18.791 31.2065C18.791 31.6698 19.1388 32.0453 19.5677 32.0453Z" fill="url(#paint2_linear_310_6881)"/>
<path d="M32.4205 39.4259H130.488V89.4123H32.4205V39.4259Z" fill="#E6E6E6" stroke="#111111" stroke-width="0.563637"/>
<path d="M32.3981 36.5262H130.424V40.447H32.3981V36.5262Z" fill="#F5F5F5" stroke="#111111" stroke-width="0.604864"/>
<path d="M35.2103 39.7239C35.6393 39.7239 35.987 39.3483 35.987 38.8851C35.987 38.4218 35.6393 38.0463 35.2103 38.0463C34.7813 38.0463 34.4336 38.4218 34.4336 38.8851C34.4336 39.3483 34.7813 39.7239 35.2103 39.7239Z" fill="url(#paint3_linear_310_6881)"/>
<path d="M38.1576 39.7239C38.5866 39.7239 38.9343 39.3483 38.9343 38.8851C38.9343 38.4218 38.5866 38.0463 38.1576 38.0463C37.7286 38.0463 37.3809 38.4218 37.3809 38.8851C37.3809 39.3483 37.7286 39.7239 38.1576 39.7239Z" fill="url(#paint4_linear_310_6881)"/>
<path d="M41.1049 39.7239C41.5338 39.7239 41.8816 39.3483 41.8816 38.8851C41.8816 38.4218 41.5338 38.0463 41.1049 38.0463C40.6759 38.0463 40.3281 38.4218 40.3281 38.8851C40.3281 39.3483 40.6759 39.7239 41.1049 39.7239Z" fill="url(#paint5_linear_310_6881)"/>
<path d="M35.2408 43.7608H127.668V85.3727H35.2408V43.7608Z" fill="white" stroke="#111111" stroke-width="0.563637"/>
<ellipse cx="107.924" cy="60.5764" rx="5.09016" ry="5.10655" fill="#6218B4"/>
<path d="M115.98 73.6868C115.98 72.7299 115.773 71.7824 115.37 70.8983C114.967 70.0143 114.376 69.211 113.632 68.5344C112.888 67.8577 112.004 67.321 111.031 66.9548C110.059 66.5886 109.016 66.4001 107.964 66.4001C106.911 66.4001 105.868 66.5886 104.896 66.9548C103.923 67.321 103.04 67.8577 102.295 68.5344C101.551 69.211 100.96 70.0143 100.557 70.8983C100.155 71.7824 99.9473 72.7299 99.9473 73.6868L107.964 73.6868H115.98Z" fill="#6218B4"/>
<path d="M60.2079 73.9773H47.1113V75.0405H60.2079V73.9773Z" fill="#E6E6E6"/>
<path d="M61.8414 76.7402H45.3594V77.8034H61.8414V76.7402Z" fill="#E6E6E6"/>
<path d="M59.764 57.8281H46.8008V67.8956H59.764V57.8281Z" fill="#6218B4"/>
<path d="M61.0609 67.1049H48.6162C48.4787 67.1047 48.3469 67.0441 48.2497 66.9362C48.1525 66.8284 48.0978 66.6821 48.0977 66.5296V57.0374C48.0978 56.8849 48.1525 56.7387 48.2497 56.6308C48.3469 56.523 48.4787 56.4623 48.6162 56.4622H61.0609C61.1983 56.4623 61.3301 56.523 61.4274 56.6308C61.5246 56.7387 61.5792 56.8849 61.5794 57.0374V66.5296C61.5792 66.6821 61.5246 66.8284 61.4274 66.9362C61.3301 67.0441 61.1983 67.1047 61.0609 67.1049V67.1049ZM48.6162 57.0374V66.5296H61.0612L61.0609 57.0374H48.6162Z" fill="#3F3D56"/>
<path d="M59.6338 56.6777H59.1153C59.1153 55.419 58.6646 54.2118 57.8623 53.3217C57.06 52.4316 55.972 51.9316 54.8374 51.9316C53.7028 51.9316 52.6148 52.4316 51.8125 53.3217C51.0102 54.2118 50.5595 55.419 50.5595 56.6777H50.041C50.041 55.2664 50.5463 53.9129 51.4458 52.9149C52.3453 51.917 53.5653 51.3563 54.8374 51.3563C56.1095 51.3563 57.3295 51.917 58.229 52.9149C59.1285 53.9129 59.6338 55.2664 59.6338 56.6777V56.6777Z" fill="#3F3D56"/>
<path d="M56.1341 60.6324C56.1343 60.382 56.0756 60.1358 55.9638 59.9182C55.8519 59.7007 55.6908 59.5193 55.4963 59.392C55.3019 59.2648 55.0809 59.196 54.8551 59.1926C54.6294 59.1892 54.4067 59.2513 54.2093 59.3727C54.0118 59.494 53.8463 59.6705 53.7291 59.8846C53.612 60.0987 53.5473 60.343 53.5415 60.5934C53.5356 60.8437 53.5888 61.0915 53.6957 61.312C53.8026 61.5326 53.9596 61.7183 54.1512 61.8509V63.3946C54.1512 63.4946 54.1689 63.5936 54.2034 63.686C54.2379 63.7784 54.2885 63.8623 54.3522 63.933C54.416 64.0037 54.4916 64.0598 54.5749 64.098C54.6582 64.1363 54.7474 64.156 54.8376 64.156V64.156C55.0196 64.156 55.1942 64.0758 55.3229 63.933C55.4516 63.7902 55.5239 63.5965 55.5239 63.3946V61.8509C55.7105 61.722 55.8645 61.5425 55.9712 61.3293C56.078 61.1161 56.134 60.8763 56.1341 60.6324V60.6324Z" fill="url(#paint6_linear_310_6881)"/>
<defs>
<linearGradient id="paint0_linear_310_6881" x1="12.957" y1="32.9554" x2="14.8724" y2="32.0143" gradientUnits="userSpaceOnUse">
<stop stop-color="#2600FC"/>
<stop offset="1" stop-color="#FF00EA"/>
</linearGradient>
<linearGradient id="paint1_linear_310_6881" x1="15.873" y1="32.5009" x2="17.7884" y2="31.5598" gradientUnits="userSpaceOnUse">
<stop stop-color="#2600FC"/>
<stop offset="1" stop-color="#FF00EA"/>
</linearGradient>
<linearGradient id="paint2_linear_310_6881" x1="18.791" y1="32.0453" x2="20.7064" y2="31.1043" gradientUnits="userSpaceOnUse">
<stop stop-color="#2600FC"/>
<stop offset="1" stop-color="#FF00EA"/>
</linearGradient>
<linearGradient id="paint3_linear_310_6881" x1="34.4336" y1="39.7239" x2="36.3489" y2="38.7828" gradientUnits="userSpaceOnUse">
<stop stop-color="#2600FC"/>
<stop offset="1" stop-color="#FF00EA"/>
</linearGradient>
<linearGradient id="paint4_linear_310_6881" x1="37.3809" y1="39.7239" x2="39.2962" y2="38.7828" gradientUnits="userSpaceOnUse">
<stop stop-color="#2600FC"/>
<stop offset="1" stop-color="#FF00EA"/>
</linearGradient>
<linearGradient id="paint5_linear_310_6881" x1="40.3281" y1="39.7239" x2="42.2435" y2="38.7828" gradientUnits="userSpaceOnUse">
<stop stop-color="#2600FC"/>
<stop offset="1" stop-color="#FF00EA"/>
</linearGradient>
<linearGradient id="paint6_linear_310_6881" x1="54.8375" y1="58.9257" x2="54.8375" y2="64.5719" gradientUnits="userSpaceOnUse">
<stop stop-color="#FBC039"/>
<stop offset="0.87" stop-color="#E08F0E"/>
</linearGradient>
</defs>
</svg>
