<svg width="276" height="52" viewBox="0 0 276 52" fill="none" xmlns="http://www.w3.org/2000/svg">
<path d="M3.14954 30.4027L18.3286 15.2013C20.297 13.2738 21.5219 10.5577 21.5219 7.57877C21.5219 4.64364 20.3408 1.92755 18.4161 0L3.23703 15.2013C1.26857 17.1289 0.0437436 19.845 0.0437436 22.8239C0.0437436 25.8029 1.22482 28.4751 3.14954 30.4027ZM39.8942 21.5097L24.7152 36.711C22.7467 38.6386 21.5219 41.3547 21.5219 44.3336C21.5219 47.2687 22.7029 49.9848 24.6277 51.9124L39.8067 36.711C41.7752 34.7835 43 32.0674 43 29.0885C43 26.1095 41.8189 23.4372 39.8942 21.5097ZM39.8067 15.2452C41.7752 13.3176 43 10.6015 43 7.62258C43 4.68745 41.8189 1.97136 39.8942 0.0438105L3.19329 36.7548C1.22482 38.7262 0 41.3985 0 44.4212C0 47.3564 1.18108 50.0725 3.1058 52L39.8067 15.2452Z" fill="#F3BB2B"/>
<path d="M68.778 13.928H73.13L75.884 21.918L78.672 13.928H82.99L78.842 24.91L81.902 32.594L88.736 13.86H93.836L84.18 38H80.134L75.884 27.868L71.668 38H67.622L58 13.86H63.032L69.9 32.594L72.892 24.91L68.778 13.928ZM96.309 38V13.86H106.985C108.096 13.86 109.116 14.0867 110.045 14.54C110.997 14.9933 111.813 15.6053 112.493 16.376C113.196 17.1467 113.728 18.008 114.091 18.96C114.476 19.912 114.669 20.8867 114.669 21.884C114.669 22.904 114.488 23.89 114.125 24.842C113.785 25.7713 113.286 26.5873 112.629 27.29C111.972 27.9927 111.201 28.5367 110.317 28.922L115.825 38H110.657L105.693 29.908H101.001V38H96.309ZM101.001 25.794H106.883C107.472 25.794 107.994 25.624 108.447 25.284C108.9 24.9213 109.263 24.4453 109.535 23.856C109.807 23.2667 109.943 22.6093 109.943 21.884C109.943 21.1133 109.784 20.4447 109.467 19.878C109.15 19.2887 108.742 18.824 108.243 18.484C107.767 18.144 107.246 17.974 106.679 17.974H101.001V25.794ZM125.482 13.86H130.242L139.116 38H134.288L132.044 31.982H123.612L121.402 38H116.574L125.482 13.86ZM131.194 28.684L127.862 18.722L124.394 28.684H131.194ZM157.56 17.974H149.842V38H145.184V17.974H137.466V13.86H157.56V17.974ZM180.855 13.86V38H176.197V27.698H165.249V38H160.557V13.86H165.249V23.618H176.197V13.86H180.855ZM184.429 25.76C184.429 24.2867 184.69 22.8473 185.211 21.442C185.755 20.014 186.537 18.722 187.557 17.566C188.577 16.3873 189.824 15.458 191.297 14.778C192.77 14.0753 194.448 13.724 196.329 13.724C198.55 13.724 200.466 14.2113 202.075 15.186C203.707 16.1607 204.92 17.43 205.713 18.994L202.109 21.476C201.701 20.5693 201.168 19.8553 200.511 19.334C199.854 18.79 199.151 18.416 198.403 18.212C197.655 17.9853 196.918 17.872 196.193 17.872C195.014 17.872 193.983 18.11 193.099 18.586C192.238 19.062 191.512 19.6853 190.923 20.456C190.334 21.2267 189.892 22.088 189.597 23.04C189.325 23.992 189.189 24.944 189.189 25.896C189.189 26.9613 189.359 27.9927 189.699 28.99C190.039 29.9647 190.515 30.8373 191.127 31.608C191.762 32.356 192.51 32.9567 193.371 33.41C194.255 33.8407 195.218 34.056 196.261 34.056C197.009 34.056 197.768 33.9313 198.539 33.682C199.31 33.4327 200.024 33.036 200.681 32.492C201.338 31.948 201.848 31.2453 202.211 30.384L206.053 32.594C205.577 33.7953 204.795 34.8153 203.707 35.654C202.642 36.4927 201.44 37.1273 200.103 37.558C198.766 37.9887 197.44 38.204 196.125 38.204C194.402 38.204 192.827 37.8527 191.399 37.15C189.971 36.4247 188.736 35.4727 187.693 34.294C186.673 33.0927 185.868 31.7553 185.279 30.282C184.712 28.786 184.429 27.2787 184.429 25.76ZM219.203 38.17C217.435 38.17 215.825 37.83 214.375 37.15C212.947 36.47 211.711 35.552 210.669 34.396C209.649 33.2173 208.855 31.9027 208.289 30.452C207.722 28.9787 207.439 27.4713 207.439 25.93C207.439 24.3207 207.733 22.7907 208.323 21.34C208.935 19.8667 209.762 18.5633 210.805 17.43C211.87 16.274 213.117 15.3673 214.545 14.71C215.995 14.03 217.582 13.69 219.305 13.69C221.05 13.69 222.637 14.0413 224.065 14.744C225.515 15.4467 226.751 16.3873 227.771 17.566C228.791 18.7447 229.584 20.0593 230.151 21.51C230.717 22.9607 231.001 24.4567 231.001 25.998C231.001 27.5847 230.706 29.1147 230.117 30.588C229.527 32.0387 228.7 33.342 227.635 34.498C226.592 35.6313 225.345 36.5267 223.895 37.184C222.467 37.8413 220.903 38.17 219.203 38.17ZM212.199 25.93C212.199 26.9727 212.357 27.9813 212.675 28.956C212.992 29.9307 213.445 30.8033 214.035 31.574C214.647 32.322 215.383 32.9227 216.245 33.376C217.129 33.8067 218.126 34.022 219.237 34.022C220.37 34.022 221.379 33.7953 222.263 33.342C223.147 32.866 223.883 32.2427 224.473 31.472C225.062 30.6787 225.504 29.806 225.799 28.854C226.116 27.8793 226.275 26.9047 226.275 25.93C226.275 24.8873 226.105 23.89 225.765 22.938C225.447 21.9633 224.983 21.102 224.371 20.354C223.781 19.5833 223.045 18.9827 222.161 18.552C221.299 18.0987 220.325 17.872 219.237 17.872C218.081 17.872 217.061 18.11 216.177 18.586C215.315 19.0393 214.59 19.6513 214.001 20.422C213.411 21.1927 212.958 22.054 212.641 23.006C212.346 23.958 212.199 24.9327 212.199 25.93ZM234.6 38V13.86H243.372C246.001 13.86 248.2 14.404 249.968 15.492C251.736 16.5573 253.062 18.008 253.946 19.844C254.83 21.6573 255.272 23.6747 255.272 25.896C255.272 28.344 254.785 30.4747 253.81 32.288C252.835 34.1013 251.453 35.5067 249.662 36.504C247.894 37.5013 245.797 38 243.372 38H234.6ZM250.546 25.896C250.546 24.332 250.263 22.9607 249.696 21.782C249.129 20.5807 248.313 19.6513 247.248 18.994C246.183 18.314 244.891 17.974 243.372 17.974H239.292V33.886H243.372C244.913 33.886 246.217 33.546 247.282 32.866C248.347 32.1633 249.152 31.2113 249.696 30.01C250.263 28.786 250.546 27.4147 250.546 25.896ZM275.7 33.886V38H258.938V13.86H275.394V17.974H263.63V23.788H273.796V27.596H263.63V33.886H275.7Z" fill="white"/>
</svg>
