<svg width="574" height="154" viewBox="0 0 574 154" fill="none" xmlns="http://www.w3.org/2000/svg">
<path d="M141.253 48.0045L148.448 55.0333C161.184 67.4755 161.184 87.6485 148.448 100.095L109.696 137.953C101.442 146.017 88.0608 146.017 79.802 137.948L70 128.372C75.1221 133.376 83.427 133.376 88.5537 128.372L141.096 77.0423C149.3 69.028 149.355 56.0728 141.258 48L141.253 48.0045Z" fill="url(#paint0_linear_85_16905)"/>
<path style="mix-blend-mode:color-dodge" d="M94.4613 140.991C89.4461 140.991 84.7278 139.083 81.1787 135.619L79 133.492H79.1142C83.1702 133.492 86.9887 131.95 89.8571 129.15L141.96 78.2996C147.317 73.0657 149.491 65.8434 148.464 59C152.703 64.1894 155 70.5735 155 77.3054C155 85.1653 151.862 92.5615 146.166 98.1209L107.735 135.632C104.19 139.092 99.4765 141 94.4613 141V140.991Z" fill="url(#paint1_radial_85_16905)"/>
<path style="mix-blend-mode:screen" d="M109 137.644L101.657 144.758C88.9346 157.075 68.322 157.084 55.6041 144.767L29.1796 119.167C20.9355 111.18 20.9447 98.2302 29.1796 90.2521L38.3157 81.4054C38.4537 81.2628 38.5962 81.1292 38.725 81C38.587 81.1425 38.4537 81.2762 38.3387 81.4276C35.1202 85.0002 34.3247 89.9046 35.9432 94.1365C36.5823 95.8069 37.5847 97.366 38.9687 98.7068L79.1548 137.644C87.3989 145.631 100.756 145.631 109 137.644Z" fill="url(#paint2_linear_85_16905)"/>
<path style="mix-blend-mode:color-dodge" d="M78.9628 152C70.7748 152 63.0745 148.905 57.283 143.28L30.5918 117.353C26.9831 113.848 25 109.192 25 104.235C25 99.2812 26.9878 94.6211 30.5918 91.1203L32.7746 89C32.7561 92.8571 34.2794 96.7143 37.34 99.6872L77.9318 139.116C82.381 143.433 88.2887 145.815 94.5771 145.815C95.7336 145.815 96.8761 145.734 98 145.576C92.6033 149.74 85.9618 152 78.9628 152Z" fill="url(#paint3_radial_85_16905)"/>
<path d="M66 0L65.9908 41.1704C66 49.3518 62.6687 57.1839 56.7404 62.9663L38.8405 80.412C38.7671 80.4925 38.6799 80.5686 38.6065 80.6536L29.0762 89.9493C20.8582 97.965 20.849 110.975 29.0762 119L9.51539 99.9208C-3.1718 87.537 -3.1718 67.4687 9.51539 55.0939L66 0Z" fill="url(#paint4_linear_85_16905)"/>
<path style="mix-blend-mode:color-dodge" d="M10.9304 98.2952C5.17229 92.7106 2 85.2808 2 77.3809C2 69.4809 5.17229 62.0511 10.9304 56.4665L64 5V41.0246C64 48.6874 60.9247 55.8977 55.3328 61.3167L37.3198 78.7781C37.2275 78.8632 37.1351 78.9617 37.0428 79.0558L27.4936 88.3172C23.0746 92.6031 20.6412 98.2997 20.6412 104.364C20.6412 105.595 20.7428 106.809 20.9367 108L10.9304 98.2952Z" fill="url(#paint5_radial_85_16905)"/>
<path style="mix-blend-mode:screen" d="M140.756 76.7275L118.488 98.1106C122.325 94.4263 123.305 89.0604 121.447 84.5064C120.811 82.914 119.817 81.4287 118.479 80.1397L102.268 64.573L91 102V0L118.117 26.0441L133.203 40.5404L140.918 47.9491C149.084 55.9466 149.024 68.7925 140.756 76.732V76.7275Z" fill="url(#paint6_linear_85_16905)"/>
<path style="mix-blend-mode:color-dodge" d="M124.641 89.8783C124.641 85.8704 123.019 82.1059 120.071 79.2702L101.033 60.9574L93 87.6737V5L116.537 27.6408L139.54 49.7768C146.88 56.9811 146.814 68.6711 139.376 75.8258L124.641 90V89.8828V89.8783Z" fill="url(#paint7_radial_85_16905)"/>
<path style="mix-blend-mode:screen" d="M66 102L65.8152 101.58C63.3775 96.0792 58.7678 91.7349 53 89.5C58.7678 87.2651 63.3775 82.9208 65.8152 77.4201L66 77" fill="url(#paint8_linear_85_16905)"/>
<path style="mix-blend-mode:color-dodge" d="M66 0L65.9909 41.1704C66 49.3518 62.6895 57.1839 56.798 62.9663L39.0096 80.412C38.9366 80.4925 38.85 80.5686 38.777 80.6536L29.3059 89.9493C21.139 97.965 21.1299 110.975 29.3059 119C-17.6436 72.9154 66 67.0033 66 0Z" fill="url(#paint9_radial_85_16905)"/>
<path style="mix-blend-mode:color-dodge" d="M118.188 98.1106C123.297 93.1506 123.297 85.1085 118.179 80.1397L102.145 64.573L91 102V0C91 56.4417 148.472 68.7033 118.183 98.1106H118.188Z" fill="url(#paint10_radial_85_16905)"/>
<path style="mix-blend-mode:multiply" d="M36.1879 126L29.0432 118.896C20.9811 110.881 20.9901 97.8851 29.0432 89.8784L37.9775 81L38 81.0224C34.8525 84.6077 34.0746 89.5297 35.6574 93.7767C29.1511 100.979 19.857 109.763 36.1879 126Z" fill="url(#paint11_linear_85_16905)"/>
<path style="mix-blend-mode:multiply" d="M117 130.812L109.581 137.957C101.209 146.019 87.6355 146.01 79.273 137.957L70 129.022L70.0233 129C73.768 132.147 78.9088 132.925 83.3445 131.343C90.8666 137.849 100.042 147.143 117 130.812Z" fill="url(#paint12_linear_85_16905)"/>
<path style="mix-blend-mode:multiply" d="M140.868 76.8287L119 98C122.768 94.3522 123.73 89.0395 121.906 84.5306C132.78 74.0995 154.822 61.6899 133.451 41L141.028 48.3353C149.047 56.2536 148.987 68.9723 140.868 76.8331V76.8287Z" fill="url(#paint13_linear_85_16905)"/>
<path d="M221.71 108C216.891 108 212.432 107.229 208.335 105.687C204.238 104.145 200.677 101.965 197.626 99.1584C194.575 96.3516 192.209 93.063 190.528 89.3049C188.847 85.5464 188 81.4389 188 77.006C188 72.573 188.884 68.3814 190.653 64.6229C192.421 60.8648 194.886 57.5882 198.05 54.8057C201.213 52.0228 204.886 49.867 209.07 48.313C213.255 46.771 217.725 46 222.482 46C228.235 46 233.378 46.9517 237.936 48.867C242.494 50.7824 246.192 53.3602 249.044 56.6126L237.288 67.9837C235.134 65.5746 232.905 63.7677 230.576 62.5871C228.248 61.4069 225.471 60.8166 222.221 60.8166C219.144 60.8166 216.355 61.4791 213.864 62.7921C211.374 64.1172 209.381 65.9842 207.9 68.3934C206.418 70.8025 205.683 73.6452 205.683 76.8975C205.683 80.1502 206.368 83.0049 207.726 85.4503C209.083 87.8953 210.988 89.7867 213.429 91.1357C215.87 92.4851 218.709 93.1595 221.959 93.1595C225.209 93.1595 227.737 92.5692 229.879 91.389C232.021 90.2083 233.665 88.522 234.798 86.3294C235.931 84.1373 236.492 81.5594 236.492 78.5839L248.421 85.9078L219.593 85.0646V71.5854H254V74.115C254 81.3065 252.655 87.4259 249.953 92.485C247.251 97.5442 243.478 101.387 238.633 104.025C233.789 106.663 228.136 107.988 221.697 107.988L221.71 108Z" fill="white"/>
<path d="M254.012 107L277.714 47H295.561L319 107H300.802L283.392 56.0241H289.695L271.848 107H254H254.012ZM269.409 96.8916V83.7469H304.229V96.8916H269.409Z" fill="white"/>
<path d="M314 61.3252V47H369V61.3252H314ZM332.689 107V47H350.236V107H332.689Z" fill="white"/>
<path d="M380 107V47H397.039V107H380ZM394.081 107V94.8674H405.465C407.665 94.8674 409.43 94.2893 410.772 93.1448C412.102 91.9883 412.773 90.4096 412.773 88.3858C412.773 87.0362 412.475 85.8677 411.866 84.8919C411.257 83.9037 410.412 83.1688 409.343 82.6626C408.274 82.1567 406.981 81.9038 405.478 81.9038H394.094V70.277H404.695C406.546 70.277 408.088 69.8314 409.306 68.9278C410.524 68.0242 411.132 66.6267 411.132 64.711C411.132 62.7953 410.524 61.3978 409.306 60.4942C408.088 59.5906 406.559 59.1446 404.695 59.1446H394.094V47.012H409.567C413.332 47.012 416.626 47.699 419.436 49.0725C422.242 50.4456 424.43 52.3374 425.997 54.7231C427.565 57.1084 428.346 59.8555 428.346 62.9397C428.346 67.2048 426.779 70.6867 423.649 73.3856C420.515 76.0844 415.941 77.6268 409.915 78.0241L409.741 72.2047C416.288 72.6025 421.3 74.3375 424.778 77.4336C428.259 80.5183 430 84.4822 430 89.3133C430 92.7953 429.104 95.8675 427.3 98.5425C425.499 101.205 423 103.289 419.783 104.771C416.562 106.265 412.81 107 408.523 107H394.094H394.081Z" fill="#F3BB2B"/>
<path d="M438 107V47H455V107H438Z" fill="#F3BB2B"/>
<path d="M465 61.3252V47H520V61.3252H465ZM483.688 107V47H501.238V107H483.688Z" fill="#F3BB2B"/>
<path d="M548.39 108C543.164 108 538.604 107.253 534.734 105.771C530.852 104.277 527.278 101.904 524 98.6508L534.771 88.1203C537.014 90.2048 539.369 91.783 541.846 92.8797C544.31 93.976 546.96 94.5182 549.77 94.5182C552.124 94.5182 553.911 94.1687 555.119 93.4697C556.327 92.7712 556.931 91.7954 556.931 90.5662C556.931 89.3375 556.413 88.301 555.378 87.494C554.342 86.6869 552.975 85.9516 551.286 85.301C549.585 84.6507 547.725 84 545.678 83.3254C543.633 82.6504 541.611 81.8314 539.603 80.8795C537.594 79.9276 535.733 78.7591 534.044 77.3856C532.343 76.012 530.988 74.3009 529.953 72.2408C528.917 70.1926 528.4 67.6745 528.4 64.6988C528.4 60.8191 529.349 57.482 531.247 54.6746C533.145 51.8672 535.819 49.7105 539.258 48.2289C542.708 46.7348 546.751 46 551.41 46C556.068 46 560.271 46.7105 564.215 48.1443C568.146 49.5781 571.412 51.6143 574 54.2529L563.142 64.783C561.244 62.9877 559.346 61.6505 557.448 60.7832C555.55 59.9155 553.48 59.4818 551.237 59.4818C549.45 59.4818 548.033 59.7591 546.972 60.3252C545.913 60.8913 545.383 61.7347 545.383 62.8553C545.383 64.0362 545.9 65 546.936 65.7588C547.971 66.518 549.339 67.2045 551.027 67.8194C552.716 68.4337 554.589 69.0844 556.635 69.759C558.669 70.4336 560.702 71.2287 562.711 72.1566C564.72 73.0842 566.581 74.2651 568.269 75.6989C569.97 77.1327 571.325 78.9155 572.361 81.0483C573.396 83.1806 573.914 85.7709 573.914 88.7953C573.914 94.9159 571.683 99.6505 567.234 102.988C562.785 106.325 556.499 108 548.402 108H548.39Z" fill="#F3BB2B"/>
<defs>
<linearGradient id="paint0_linear_85_16905" x1="89.3322" y1="112.866" x2="141.234" y2="83.6461" gradientUnits="userSpaceOnUse">
<stop offset="0.04" stop-color="#FFBB00"/>
<stop offset="0.28" stop-color="#FF9300"/>
<stop offset="1" stop-color="#FF9E00"/>
</linearGradient>
<radialGradient id="paint1_radial_85_16905" cx="0" cy="0" r="1" gradientUnits="userSpaceOnUse" gradientTransform="translate(189.248 75.91) scale(63.8046 62.2768)">
<stop stop-color="white"/>
<stop offset="0.14" stop-color="#BEBDBD"/>
<stop offset="0.31" stop-color="#7D7B7B"/>
<stop offset="0.46" stop-color="#484646"/>
<stop offset="0.58" stop-color="#231F1F"/>
<stop offset="0.69" stop-color="#0C0808"/>
<stop offset="0.75" stop-color="#040000"/>
</radialGradient>
<linearGradient id="paint2_linear_85_16905" x1="88.3231" y1="146.477" x2="27.2453" y2="89.8154" gradientUnits="userSpaceOnUse">
<stop stop-color="#2D2D2D"/>
<stop offset="0.72"/>
<stop offset="0.98"/>
</linearGradient>
<radialGradient id="paint3_radial_85_16905" cx="0" cy="0" r="1" gradientUnits="userSpaceOnUse" gradientTransform="translate(73.4082 172.567) scale(50.2797 48.8391)">
<stop stop-color="white"/>
<stop offset="0.14" stop-color="#BEBDBD"/>
<stop offset="0.31" stop-color="#7D7B7B"/>
<stop offset="0.46" stop-color="#484646"/>
<stop offset="0.58" stop-color="#231F1F"/>
<stop offset="0.69" stop-color="#0C0808"/>
<stop offset="0.75" stop-color="#040000"/>
</radialGradient>
<linearGradient id="paint4_linear_85_16905" x1="53.1797" y1="23.5413" x2="12.2378" y2="102.33" gradientUnits="userSpaceOnUse">
<stop offset="0.04" stop-color="#FFBB00"/>
<stop offset="0.28" stop-color="#FF9300"/>
<stop offset="1" stop-color="#FF9E00"/>
</linearGradient>
<radialGradient id="paint5_radial_85_16905" cx="0" cy="0" r="1" gradientUnits="userSpaceOnUse" gradientTransform="translate(-53.4988 81.4562) scale(101.697 98.6333)">
<stop stop-color="white"/>
<stop offset="0.14" stop-color="#BEBDBD"/>
<stop offset="0.31" stop-color="#7D7B7B"/>
<stop offset="0.46" stop-color="#484646"/>
<stop offset="0.58" stop-color="#231F1F"/>
<stop offset="0.69" stop-color="#0C0808"/>
<stop offset="0.75" stop-color="#040000"/>
</radialGradient>
<linearGradient id="paint6_linear_85_16905" x1="101.209" y1="13.9253" x2="123.391" y2="104.376" gradientUnits="userSpaceOnUse">
<stop stop-color="#2D2D2D"/>
<stop offset="0.72"/>
<stop offset="0.98"/>
</linearGradient>
<radialGradient id="paint7_radial_85_16905" cx="0" cy="0" r="1" gradientUnits="userSpaceOnUse" gradientTransform="translate(131.516 7.67343) scale(56.6496 54.492)">
<stop stop-color="white"/>
<stop offset="0.14" stop-color="#BEBDBD"/>
<stop offset="0.31" stop-color="#7D7B7B"/>
<stop offset="0.46" stop-color="#484646"/>
<stop offset="0.58" stop-color="#231F1F"/>
<stop offset="0.69" stop-color="#0C0808"/>
<stop offset="0.75" stop-color="#040000"/>
</radialGradient>
<linearGradient id="paint8_linear_85_16905" x1="66.4326" y1="74.5572" x2="56.8834" y2="106.145" gradientUnits="userSpaceOnUse">
<stop stop-color="#2D2D2D"/>
<stop offset="0.72"/>
<stop offset="0.98"/>
</linearGradient>
<radialGradient id="paint9_radial_85_16905" cx="0" cy="0" r="1" gradientUnits="userSpaceOnUse" gradientTransform="translate(-39.7823 105.251) scale(98.149 96.3313)">
<stop stop-color="white"/>
<stop offset="0.14" stop-color="#BEBDBD"/>
<stop offset="0.31" stop-color="#7D7B7B"/>
<stop offset="0.46" stop-color="#484646"/>
<stop offset="0.58" stop-color="#231F1F"/>
<stop offset="0.69" stop-color="#0C0808"/>
<stop offset="0.75" stop-color="#040000"/>
</radialGradient>
<radialGradient id="paint10_radial_85_16905" cx="0" cy="0" r="1" gradientUnits="userSpaceOnUse" gradientTransform="translate(31.3177 12.8147) scale(123.536 119.94)">
<stop stop-color="white"/>
<stop offset="0.14" stop-color="#BEBDBD"/>
<stop offset="0.31" stop-color="#7D7B7B"/>
<stop offset="0.46" stop-color="#484646"/>
<stop offset="0.58" stop-color="#231F1F"/>
<stop offset="0.69" stop-color="#0C0808"/>
<stop offset="0.75" stop-color="#040000"/>
</radialGradient>
<linearGradient id="paint11_linear_85_16905" x1="30.2752" y1="72.0232" x2="30.9952" y2="139.206" gradientUnits="userSpaceOnUse">
<stop stop-color="#A4A4A4"/>
<stop offset="1" stop-color="white" stop-opacity="0"/>
</linearGradient>
<linearGradient id="paint12_linear_85_16905" x1="60.6289" y1="136.72" x2="130.797" y2="135.935" gradientUnits="userSpaceOnUse">
<stop stop-color="#A4A4A4"/>
<stop offset="1" stop-color="white" stop-opacity="0"/>
</linearGradient>
<linearGradient id="paint13_linear_85_16905" x1="106.994" y1="106.854" x2="149.303" y2="35.9123" gradientUnits="userSpaceOnUse">
<stop stop-color="#A4A4A4"/>
<stop offset="1" stop-color="white" stop-opacity="0"/>
</linearGradient>
</defs>
</svg>
