<svg width="1222" height="345" viewBox="0 0 1222 345" fill="none" xmlns="http://www.w3.org/2000/svg">
<g clip-path="url(#clip0_104_120)">
<path d="M305.644 107.801L321.264 123.421C348.914 151.071 348.914 195.901 321.264 223.561L237.134 307.691C219.214 325.611 190.164 325.611 172.234 307.681L150.954 286.401C162.074 297.521 180.104 297.521 191.234 286.401L305.304 172.331C323.114 154.521 323.234 125.731 305.654 107.791L305.644 107.801Z" fill="url(#paint0_linear_104_120)"/>
<path style="mix-blend-mode:color-dodge" d="M204.684 316.351C193.704 316.351 183.374 312.071 175.604 304.301L170.834 299.531H171.084C179.964 299.531 188.324 296.071 194.604 289.791L308.674 175.731C320.404 163.991 325.164 147.791 322.914 132.441C332.194 144.081 337.224 158.401 337.224 173.501C337.224 191.131 330.354 207.721 317.884 220.191L233.744 304.331C225.984 312.091 215.664 316.371 204.684 316.371V316.351Z" fill="url(#paint1_radial_104_120)"/>
<g style="mix-blend-mode:plus-darker">
<path d="M237.134 307.681L221.164 323.651C193.494 351.301 148.664 351.321 121.004 323.671L63.5338 266.201C45.6038 248.271 45.6238 219.201 63.5338 201.291L83.4038 181.431C83.7038 181.111 84.0138 180.811 84.2938 180.521C83.9938 180.841 83.7038 181.141 83.4538 181.481C76.4538 189.501 74.7237 200.511 78.2437 210.011C79.6337 213.761 81.8138 217.261 84.8238 220.271L172.224 307.681C190.154 325.611 219.204 325.611 237.134 307.681Z" fill="url(#paint2_linear_104_120)" style="mix-blend-mode:screen"/>
</g>
<g style="mix-blend-mode:plus-darker">
<path d="M171.074 339.621C153.444 339.621 136.864 332.761 124.394 320.291L66.9238 262.821C59.1538 255.051 54.8838 244.731 54.8838 233.741C54.8838 222.761 59.1638 212.431 66.9238 204.671L71.6238 199.971C71.5838 208.521 74.8638 217.071 81.4538 223.661L168.854 311.061C178.434 320.631 191.154 325.911 204.694 325.911C207.184 325.911 209.644 325.731 212.064 325.381C200.444 334.611 186.144 339.621 171.074 339.621Z" fill="url(#paint3_radial_104_120)" style="mix-blend-mode:color-dodge"/>
</g>
<path d="M143.994 0.311035L143.974 92.301C143.994 110.581 136.734 128.081 123.814 141.001L84.8037 179.981C84.6437 180.161 84.4537 180.331 84.2937 180.521L63.5238 201.291C45.6138 219.201 45.5938 248.271 63.5238 266.201L20.8937 223.571C-6.75624 195.901 -6.75624 151.061 20.8937 123.411L143.994 0.311035Z" fill="url(#paint4_linear_104_120)"/>
<path style="mix-blend-mode:color-dodge" d="M24.2834 220.181C11.8134 207.711 4.94336 191.121 4.94336 173.481C4.94336 155.841 11.8134 139.251 24.2834 126.781L139.213 11.8608V92.3008C139.213 109.411 132.553 125.511 120.443 137.611L81.4334 176.601C81.2334 176.791 81.0334 177.011 80.8334 177.221L60.1534 197.901C50.5834 207.471 45.3134 220.191 45.3134 233.731C45.3134 236.481 45.5334 239.191 45.9534 241.851L24.2834 220.181Z" fill="url(#paint5_radial_104_120)"/>
<path style="mix-blend-mode:screen" d="M305.294 172.331L257.354 220.271C265.614 212.011 267.724 199.981 263.724 189.771C262.354 186.201 260.214 182.871 257.334 179.981L222.434 145.081L198.174 228.991V0.311035L256.554 58.701L289.034 91.201L305.644 107.811C323.224 125.741 323.094 154.541 305.294 172.341V172.331Z" fill="url(#paint6_linear_104_120)"/>
<g style="mix-blend-mode:multiply">
<path d="M270.474 200.131C270.474 191.241 267.014 182.891 260.724 176.601L220.104 135.981L202.964 195.241V11.8608L253.184 62.0808L302.264 111.181C317.924 127.161 317.784 153.091 301.914 168.961L270.474 200.401V200.141V200.131Z" fill="url(#paint7_radial_104_120)" style="mix-blend-mode:color-dodge"/>
</g>
<g style="mix-blend-mode:multiply">
<path d="M143.994 228.991L143.584 228.021C138.174 215.321 127.944 205.291 115.144 200.131C127.944 194.971 138.174 184.941 143.584 172.241L143.994 171.271" fill="url(#paint8_linear_104_120)" style="mix-blend-mode:screen"/>
</g>
<path style="mix-blend-mode:color-dodge" d="M143.994 0.311035L143.974 92.301C143.994 110.581 136.734 128.081 123.814 141.001L84.8042 179.981C84.6442 180.161 84.4542 180.331 84.2942 180.521L63.5242 201.291C45.6142 219.201 45.5942 248.271 63.5242 266.201C-39.4358 163.231 143.994 150.021 143.994 0.311035Z" fill="url(#paint9_radial_104_120)"/>
<g style="mix-blend-mode:multiply">
<path d="M257.354 220.271C268.474 209.151 268.474 191.121 257.334 179.981L222.434 145.081L198.174 228.991V0.311035C198.174 126.851 323.274 154.341 257.344 220.271H257.354Z" fill="url(#paint10_radial_104_120)" style="mix-blend-mode:color-dodge"/>
</g>
<path style="mix-blend-mode:multiply" d="M79.4237 282.091L63.5338 266.201C45.6038 248.271 45.6238 219.201 63.5338 201.291L83.4038 181.431L83.4538 181.481C76.4538 189.501 74.7237 200.511 78.2437 210.011C63.7737 226.121 43.1038 245.771 79.4237 282.091Z" fill="url(#paint11_linear_104_120)"/>
<path style="mix-blend-mode:multiply" d="M253.284 291.801L237.394 307.691C219.464 325.621 190.394 325.601 172.484 307.691L152.624 287.821L152.674 287.771C160.694 294.771 171.704 296.501 181.204 292.981C197.314 307.451 216.964 328.121 253.284 291.801Z" fill="url(#paint12_linear_104_120)"/>
<path style="mix-blend-mode:multiply" d="M305.294 172.331L257.354 220.271C265.614 212.011 267.724 199.981 263.724 189.771C287.564 166.151 335.884 138.051 289.034 91.2012L305.644 107.811C323.224 125.741 323.094 154.541 305.294 172.341V172.331Z" fill="url(#paint13_linear_104_120)"/>
<path d="M481.172 242.355C470.645 242.355 460.907 240.614 451.958 237.133C443.009 233.651 435.23 228.728 428.566 222.39C421.902 216.052 416.734 208.627 413.062 200.14C409.39 191.654 407.54 182.378 407.54 172.368C407.54 162.359 409.471 152.893 413.334 144.406C417.196 135.92 422.582 128.521 429.491 122.238C436.4 115.955 444.424 111.086 453.563 107.577C462.703 104.095 472.468 102.354 482.858 102.354C495.425 102.354 506.658 104.503 516.614 108.828C526.569 113.153 534.648 118.974 540.877 126.318L515.199 151.995C510.494 146.555 505.625 142.475 500.538 139.809C495.452 137.144 489.386 135.811 482.287 135.811C475.568 135.811 469.475 137.307 464.035 140.272C458.595 143.264 454.243 147.48 451.006 152.92C447.77 158.36 446.165 164.779 446.165 172.124C446.165 179.468 447.661 185.914 450.626 191.436C453.59 196.958 457.752 201.228 463.083 204.275C468.415 207.321 474.616 208.844 481.716 208.844C488.815 208.844 494.337 207.511 499.015 204.846C503.694 202.18 507.284 198.372 509.759 193.422C512.235 188.471 513.459 182.65 513.459 175.932L539.517 192.47L476.548 190.566V160.128H551.702V165.84C551.702 182.079 548.765 195.897 542.862 207.321C536.96 218.745 528.718 227.422 518.137 233.379C507.556 239.336 495.207 242.328 481.144 242.328L481.172 242.355Z" fill="black"/>
<path d="M550.614 240.07L602.159 104.612H640.974L691.948 240.07H652.371L614.508 124.985H628.217L589.402 240.07H550.587H550.614ZM584.098 217.249V187.574H659.824V217.249H584.098Z" fill="black"/>
<path d="M681.313 136.954V104.612H800.587V136.954H681.313ZM721.842 240.07V104.612H759.896V240.07H721.842Z" fill="black"/>
<path d="M852.131 242.354C840.598 242.354 830.534 240.668 821.993 237.322C813.425 233.949 805.537 228.591 798.302 221.247L822.075 197.474C827.025 202.179 832.221 205.743 837.688 208.218C843.128 210.693 848.976 211.917 855.178 211.917C860.373 211.917 864.317 211.128 866.983 209.551C869.649 207.973 870.981 205.77 870.981 202.995C870.981 200.221 869.839 197.882 867.554 196.059C865.269 194.237 862.25 192.578 858.524 191.109C854.77 189.64 850.663 188.171 846.147 186.648C841.632 185.125 837.171 183.275 832.738 181.126C828.304 178.977 824.197 176.339 820.47 173.238C816.716 170.137 813.724 166.275 811.44 161.623C809.155 156.999 808.012 151.315 808.012 144.596C808.012 135.837 810.107 128.303 814.296 121.965C818.485 115.628 824.387 110.759 831.976 107.413C839.592 104.04 848.514 102.381 858.796 102.381C869.077 102.381 878.353 103.986 887.057 107.223C895.734 110.459 902.942 115.056 908.654 121.013L884.69 144.786C880.502 140.733 876.313 137.714 872.124 135.756C867.935 133.797 863.365 132.818 858.415 132.818C854.471 132.818 851.343 133.444 849.003 134.722C846.664 136.001 845.495 137.905 845.495 140.434C845.495 143.1 846.637 145.276 848.922 146.99C851.207 148.703 854.226 150.254 857.952 151.641C861.679 153.028 865.813 154.497 870.329 156.02C874.817 157.543 879.305 159.339 883.738 161.433C888.172 163.528 892.279 166.193 896.006 169.43C899.759 172.667 902.751 176.692 905.036 181.507C907.321 186.321 908.464 192.17 908.464 198.997C908.464 212.815 903.54 223.504 893.721 231.039C883.902 238.574 870.029 242.354 852.159 242.354H852.131Z" fill="black"/>
<path d="M924.239 240.07V104.612H961.531V240.07H924.239ZM955.057 240.07V212.68H979.973C984.787 212.68 988.65 211.374 991.588 208.79C994.498 206.179 995.967 202.616 995.967 198.046C995.967 194.999 995.314 192.361 993.981 190.158C992.648 187.927 990.799 186.268 988.46 185.126C986.12 183.983 983.291 183.412 980 183.412H955.085V157.164H978.287C982.339 157.164 985.712 156.157 988.378 154.117C991.044 152.077 992.376 148.922 992.376 144.597C992.376 140.272 991.044 137.117 988.378 135.077C985.712 133.037 982.367 132.03 978.287 132.03H955.085V104.64H988.949C997.191 104.64 1004.4 106.19 1010.55 109.291C1016.69 112.392 1021.48 116.662 1024.91 122.048C1028.34 127.433 1030.05 133.635 1030.05 140.599C1030.05 150.227 1026.62 158.088 1019.77 164.181C1012.91 170.274 1002.9 173.756 989.711 174.653L989.33 161.516C1003.66 162.413 1014.63 166.33 1022.24 173.321C1029.86 180.284 1033.67 189.233 1033.67 200.14C1033.67 208.001 1031.71 214.937 1027.76 220.976C1023.82 226.987 1018.35 231.693 1011.31 235.038C1004.26 238.411 996.048 240.07 986.664 240.07H955.085H955.057Z" fill="#F3BB2B"/>
<path d="M1049.61 240.07V104.612H1087.66V240.07H1049.61Z" fill="#F3BB2B"/>
<path d="M1101.91 136.954V104.612H1221.19V136.954H1101.91ZM1142.44 240.07V104.612H1180.5V240.07H1142.44Z" fill="#F3BB2B"/>
</g>
<defs>
<linearGradient id="paint0_linear_104_120" x1="192.924" y1="251.941" x2="306.854" y2="189.281" gradientUnits="userSpaceOnUse">
<stop offset="0.04" stop-color="#FFBB00"/>
<stop offset="0.28" stop-color="#FF9300"/>
<stop offset="1" stop-color="#FF9E00"/>
</linearGradient>
<radialGradient id="paint1_radial_104_120" cx="0" cy="0" r="1" gradientUnits="userSpaceOnUse" gradientTransform="translate(412.204 170.371) scale(139.69 139.69)">
<stop stop-color="white"/>
<stop offset="0.14" stop-color="#BEBDBD"/>
<stop offset="0.31" stop-color="#7D7B7B"/>
<stop offset="0.46" stop-color="#484646"/>
<stop offset="0.58" stop-color="#231F1F"/>
<stop offset="0.69" stop-color="#0C0808"/>
<stop offset="0.75" stop-color="#040000"/>
</radialGradient>
<linearGradient id="paint2_linear_104_120" x1="192.164" y1="327.511" x2="55.4438" y2="204.631" gradientUnits="userSpaceOnUse">
<stop stop-color="#2D2D2D"/>
<stop offset="0.72"/>
<stop offset="0.98"/>
</linearGradient>
<radialGradient id="paint3_radial_104_120" cx="0" cy="0" r="1" gradientUnits="userSpaceOnUse" gradientTransform="translate(159.114 385.211) scale(108.26 108.26)">
<stop stop-color="white"/>
<stop offset="0.14" stop-color="#BEBDBD"/>
<stop offset="0.31" stop-color="#7D7B7B"/>
<stop offset="0.46" stop-color="#484646"/>
<stop offset="0.58" stop-color="#231F1F"/>
<stop offset="0.69" stop-color="#0C0808"/>
<stop offset="0.75" stop-color="#040000"/>
</radialGradient>
<linearGradient id="paint4_linear_104_120" x1="116.054" y1="52.911" x2="23.2738" y2="227.061" gradientUnits="userSpaceOnUse">
<stop offset="0.04" stop-color="#FFBB00"/>
<stop offset="0.28" stop-color="#FF9300"/>
<stop offset="1" stop-color="#FF9E00"/>
</linearGradient>
<radialGradient id="paint5_radial_104_120" cx="0" cy="0" r="1" gradientUnits="userSpaceOnUse" gradientTransform="translate(-115.247 182.581) scale(220.24 220.24)">
<stop stop-color="white"/>
<stop offset="0.14" stop-color="#BEBDBD"/>
<stop offset="0.31" stop-color="#7D7B7B"/>
<stop offset="0.46" stop-color="#484646"/>
<stop offset="0.58" stop-color="#231F1F"/>
<stop offset="0.69" stop-color="#0C0808"/>
<stop offset="0.75" stop-color="#040000"/>
</radialGradient>
<linearGradient id="paint6_linear_104_120" x1="220.154" y1="31.531" x2="271.694" y2="233.351" gradientUnits="userSpaceOnUse">
<stop stop-color="#2D2D2D"/>
<stop offset="0.72"/>
<stop offset="0.98"/>
</linearGradient>
<radialGradient id="paint7_radial_104_120" cx="0" cy="0" r="1" gradientUnits="userSpaceOnUse" gradientTransform="translate(285.144 17.7908) scale(120.87 120.87)">
<stop stop-color="white"/>
<stop offset="0.14" stop-color="#BEBDBD"/>
<stop offset="0.31" stop-color="#7D7B7B"/>
<stop offset="0.46" stop-color="#484646"/>
<stop offset="0.58" stop-color="#231F1F"/>
<stop offset="0.69" stop-color="#0C0808"/>
<stop offset="0.75" stop-color="#040000"/>
</radialGradient>
<linearGradient id="paint8_linear_104_120" x1="144.954" y1="165.631" x2="122.174" y2="238.061" gradientUnits="userSpaceOnUse">
<stop stop-color="#2D2D2D"/>
<stop offset="0.72"/>
<stop offset="0.98"/>
</linearGradient>
<radialGradient id="paint9_radial_104_120" cx="0" cy="0" r="1" gradientUnits="userSpaceOnUse" gradientTransform="translate(-87.9858 235.481) scale(215.24 215.24)">
<stop stop-color="white"/>
<stop offset="0.14" stop-color="#BEBDBD"/>
<stop offset="0.31" stop-color="#7D7B7B"/>
<stop offset="0.46" stop-color="#484646"/>
<stop offset="0.58" stop-color="#231F1F"/>
<stop offset="0.69" stop-color="#0C0808"/>
<stop offset="0.75" stop-color="#040000"/>
</radialGradient>
<radialGradient id="paint10_radial_104_120" cx="0" cy="0" r="1" gradientUnits="userSpaceOnUse" gradientTransform="translate(68.2638 29.041) scale(268.9 268.9)">
<stop stop-color="white"/>
<stop offset="0.14" stop-color="#BEBDBD"/>
<stop offset="0.31" stop-color="#7D7B7B"/>
<stop offset="0.46" stop-color="#484646"/>
<stop offset="0.58" stop-color="#231F1F"/>
<stop offset="0.69" stop-color="#0C0808"/>
<stop offset="0.75" stop-color="#040000"/>
</radialGradient>
<linearGradient id="paint11_linear_104_120" x1="66.2738" y1="161.351" x2="67.8938" y2="311.631" gradientUnits="userSpaceOnUse">
<stop stop-color="#A4A4A4"/>
<stop offset="1" stop-color="white" stop-opacity="0"/>
</linearGradient>
<linearGradient id="paint12_linear_104_120" x1="132.554" y1="304.941" x2="282.834" y2="303.321" gradientUnits="userSpaceOnUse">
<stop stop-color="#A4A4A4"/>
<stop offset="1" stop-color="white" stop-opacity="0"/>
</linearGradient>
<linearGradient id="paint13_linear_104_120" x1="231.034" y1="240.321" x2="328.284" y2="82.4512" gradientUnits="userSpaceOnUse">
<stop stop-color="#A4A4A4"/>
<stop offset="1" stop-color="white" stop-opacity="0"/>
</linearGradient>
<clipPath id="clip0_104_120">
<rect width="1222" height="345" fill="white"/>
</clipPath>
</defs>
</svg>
