<svg width="118" height="27" viewBox="0 0 118 27" fill="none" xmlns="http://www.w3.org/2000/svg">
<path d="M0.929932 4.77529L5.79085 5.54704L10.6523 1.08337L15.5133 2.05462L20.3742 8.35812L25.2357 14.8308L30.0966 13.3421L34.9575 17.2779L39.819 18.854L44.6799 22.9L49.5408 17.2802L54.4023 15.6854L59.2633 15.6148L64.1242 15.3523L68.9857 18.6965L73.8466 22.5477L78.7075 17.3683L83.569 16.169L88.4299 15.7274L93.2908 14.5269L98.1524 12.736L103.013 13.3649L107.874 12.0483L112.736 9.52071L117.597 26.75H0.929932V4.77529Z" fill="url(#paint0_linear_0_6871)"/>
<path d="M0.929932 4.77529L5.79085 5.54704L10.6523 1.08337L15.5133 2.05462L20.3742 8.35812L25.2357 14.8308L30.0966 13.3421L34.9575 17.2779L39.819 18.854L44.6799 22.9L49.5408 17.2802L54.4023 15.6854L59.2633 15.6148L64.1242 15.3523L68.9857 18.6965L73.8466 22.5477L78.7075 17.3683L83.569 16.169L88.4299 15.7274L93.2908 14.5269L98.1523 12.736L103.013 13.3649L107.874 12.0483L112.736 9.52071" stroke="#FD9491" stroke-opacity="0.8" stroke-width="1.16667" stroke-linecap="round" stroke-linejoin="round"/>
<defs>
<linearGradient id="paint0_linear_0_6871" x1="0.929932" y1="1.08337" x2="0.929932" y2="26.75" gradientUnits="userSpaceOnUse">
<stop stop-color="#FD9491" stop-opacity="0.47"/>
<stop offset="0.9" stop-color="#FD9491" stop-opacity="0.1"/>
<stop offset="1" stop-color="white" stop-opacity="0.05"/>
</linearGradient>
</defs>
</svg>
