<svg width="24" height="24" viewBox="0 0 24 24" fill="none" xmlns="http://www.w3.org/2000/svg">
<path d="M17.8947 0H6.10458C5.24569 0 4.54688 0.698719 4.54688 1.55766V22.4423C4.54688 23.3012 5.24564 24 6.10458 24H17.8947C18.7536 24 19.4524 23.3012 19.4524 22.4423V1.55766C19.4524 0.698719 18.7537 0 17.8947 0ZM11.9997 22.3891C11.3856 22.3891 10.8877 21.8913 10.8877 21.2772C10.8877 20.6631 11.3856 20.1652 11.9997 20.1652C12.6138 20.1652 13.1116 20.6631 13.1116 21.2772C13.1116 21.8913 12.6137 22.3891 11.9997 22.3891ZM17.3444 17.7844C17.3444 18.0971 17.091 18.3505 16.7783 18.3505H7.22105C6.90839 18.3505 6.65494 18.0971 6.65494 17.7844V2.4998C6.65494 2.18714 6.90839 1.93369 7.22105 1.93369H16.7783C17.091 1.93369 17.3444 2.18714 17.3444 2.4998V17.7844Z" fill="#F2F4F6"/>
</svg>
