<svg width="32" height="32" viewBox="0 0 32 32" fill="none" xmlns="http://www.w3.org/2000/svg">
<g clip-path="url(#clip0_0_6711)">
<path d="M9.15216 16.9802L11.6501 24.0398C11.6501 24.0398 11.9624 24.7003 12.2968 24.7003C12.6312 24.7003 17.6051 19.4168 17.6051 19.4168L23.1362 8.5083L9.24129 15.1578L9.15216 16.9802Z" fill="#A8A8A8" fill-opacity="0.15"/>
<path d="M12.5831 18.8125L12.1045 23.9948C12.1045 23.9948 11.9041 25.5827 13.4624 23.9948C15.0206 22.4069 16.5121 21.1824 16.5121 21.1824" fill="white" fill-opacity="0.5"/>
<path d="M9.42876 17.0254L4.44224 15.3841C4.44224 15.3841 3.8463 15.1398 4.03819 14.5859C4.0777 14.4717 4.15738 14.3745 4.39576 14.2075C5.50064 13.4295 24.8462 6.40501 24.8462 6.40501C24.8462 6.40501 25.3924 6.21906 25.7146 6.34274C25.7943 6.36766 25.866 6.41352 25.9224 6.47563C25.9788 6.53774 26.0178 6.61387 26.0355 6.69623C26.0703 6.84169 26.0849 6.99135 26.0788 7.14088C26.0772 7.27023 26.0617 7.39012 26.05 7.57813C25.9322 9.49865 22.4062 23.8321 22.4062 23.8321C22.4062 23.8321 22.1952 24.6708 21.4394 24.6996C21.2537 24.7056 21.0686 24.6738 20.8953 24.6061C20.722 24.5384 20.5639 24.4361 20.4306 24.3053C18.9474 23.0164 13.8209 19.5359 12.6881 18.7705C12.6625 18.7529 12.641 18.73 12.625 18.7032C12.6089 18.6765 12.5987 18.6467 12.5951 18.6157C12.5793 18.535 12.6661 18.435 12.6661 18.435C12.6661 18.435 21.5927 10.4193 21.8302 9.57778C21.8486 9.51258 21.7791 9.48042 21.6858 9.50897C21.0929 9.72932 10.8151 16.2863 9.68076 17.0099C9.59911 17.0349 9.51281 17.0402 9.42876 17.0254Z" fill="white" fill-opacity="0.5"/>
</g>
<defs>
<clipPath id="clip0_0_6711">
<rect width="23" height="23" fill="white" transform="translate(4.00018 4)"/>
</clipPath>
</defs>
</svg>
