<svg width="347" height="343" viewBox="0 0 347 343" fill="none" xmlns="http://www.w3.org/2000/svg">
<rect x="95" y="5" width="247" height="282" rx="19" fill="black"/>
<rect x="95" y="5" width="247" height="282" rx="19" stroke="white" stroke-width="10"/>
<rect x="5" y="42" width="247" height="282" rx="19" fill="black"/>
<rect x="5" y="42" width="247" height="282" rx="19" stroke="white" stroke-width="10"/>
<rect x="43" y="166" width="81" height="17" rx="8.5" fill="#828B98"/>
<rect x="43" y="86" width="107" height="17" rx="8.5" fill="#828B98"/>
<rect x="43" y="126" width="144" height="17" rx="8.5" fill="#828B98"/>
<path d="M257.428 342.293L213.174 298.037L215.133 296.075L215.486 295.721L215.133 295.368L209.275 289.51L208.949 289.184L208.598 289.482C205.584 292.039 202.276 294.25 198.776 296.161C198.721 296.189 198.656 296.221 198.591 296.258C196.989 297.123 195.346 297.917 193.657 298.633L193.65 298.637L193.643 298.64C193.61 298.655 193.579 298.668 193.539 298.685L193.537 298.686C186.572 301.631 178.942 303.314 170.904 303.314C138.649 303.314 112.5 277.164 112.5 244.907V244.894V244.894V244.894V244.894V244.894V244.894V244.894V244.894V244.893V244.893V244.893V244.893V244.893V244.893V244.893V244.893V244.893V244.893V244.893V244.893V244.893V244.893V244.893V244.893V244.893V244.893V244.893V244.893V244.893V244.893V244.893V244.893V244.893V244.893V244.892V244.892V244.892V244.892V244.892V244.892V244.892V244.892V244.892V244.892V244.892V244.892V244.892V244.892V244.892V244.892V244.892V244.892V244.892V244.892V244.892V244.892V244.892V244.892V244.891V244.891V244.891V244.891V244.891V244.891V244.891V244.891V244.891V244.891V244.891V244.891V244.891V244.891V244.891V244.891V244.891V244.891V244.891V244.891V244.891V244.891V244.891V244.891V244.89V244.89V244.89V244.89V244.89V244.89V244.89V244.89V244.89V244.89V244.89V244.89V244.89V244.89V244.89V244.89V244.89V244.89V244.89V244.89V244.89V244.89V244.89V244.889V244.889V244.889V244.889V244.889V244.889V244.889V244.889V244.889V244.889V244.889V244.889V244.889V244.889V244.889V244.889V244.889V244.889V244.889V244.889V244.889V244.889V244.889V244.888V244.888V244.888V244.888V244.888V244.888V244.888V244.888V244.888V244.888V244.888V244.888V244.888V244.888V244.888V244.888V244.888V244.888V244.888V244.888V244.888V244.888V244.888V244.888V244.887V244.887V244.887V244.887V244.887V244.887V244.887V244.887V244.887V244.887V244.887V244.887V244.887V244.887V244.887V244.887V244.887V244.887V244.887V244.887V244.887V244.887V244.887V244.886V244.886V244.886V244.886V244.886V244.886V244.886V244.886V244.886V244.886V244.886V244.886V244.886V244.886V244.886V244.886V244.886V244.886V244.886V244.886V244.886V244.886V244.886V244.886V244.885V244.885V244.885V244.885V244.885V244.885V244.885V244.885V244.885V244.885V244.885V244.885V244.885V244.885V244.885V244.885V244.885V244.885V244.885V244.885V244.885V244.885V244.885V244.885V244.884V244.884V244.884V244.884V244.884V244.884V244.884V244.884V244.884V244.884V244.884V244.884V244.884V244.884V244.884V244.884V244.884V244.884V244.884V244.884V244.884V244.884V244.884V244.884V244.884V244.883V244.883V244.883V244.883V244.883V244.883V244.883V244.883V244.883V244.883V244.883V244.883V244.883V244.883V244.883V244.883V244.883V244.883V244.883V244.883V244.883V244.883V244.883V244.883V244.883V244.883V244.882V244.882V244.882V244.882V244.882V244.882V244.882V244.882V244.882V244.882V244.882V244.882V244.882V244.882V244.882V244.882V244.882V244.882V244.882V244.882V244.882V244.882V244.882V244.882V244.882V244.882V244.882V244.882V244.882V244.881V244.881V244.881V244.881V244.881V244.881V244.881V244.881V244.881V244.881V244.881V244.881V244.881V244.881V244.881V244.881V244.881V244.881V244.881V244.881V244.881V244.881V244.881V244.881V244.881V244.881V244.881V244.881V244.881V244.881V244.88V244.88V244.88V244.88V244.88V244.88V244.88V244.88V244.88V244.88V244.88V244.88V244.88V244.88V244.88V244.88V244.88V244.88V244.88V244.88V244.88V244.88V244.88V244.88V244.879V244.879V244.879V244.879V244.879V244.879V244.879V244.879V244.879V244.879V244.879V244.879V244.879V244.879V244.879V244.879V244.879V244.879V244.879V244.879V244.879V244.879V244.878V244.878V244.878V244.878V244.878V244.878V244.878V244.878V244.878V244.878V244.878V244.878V244.878V244.878V244.878V244.878V244.878V244.878V244.878V244.878V244.878V244.878V244.878V244.878V244.878V244.878V244.878V244.878V244.878V244.877C112.5 212.637 138.636 186.5 170.875 186.5H170.875H170.875H170.875H170.875H170.875H170.875H170.875H170.875H170.875H170.875H170.875H170.875H170.875H170.875H170.876H170.876H170.876H170.876H170.876H170.876H170.876H170.876H170.876H170.876H170.876H170.876H170.876H170.876H170.876H170.876H170.876H170.876H170.876H170.876H170.876H170.876H170.876H170.876H170.876H170.876H170.877H170.877H170.877H170.877H170.877H170.877H170.877H170.877H170.877H170.877H170.877H170.877H170.877H170.877H170.877H170.877H170.877H170.877H170.877H170.877H170.877H170.878H170.878H170.878H170.878H170.878H170.878H170.878H170.878H170.878H170.878H170.878H170.878H170.878H170.878H170.878H170.878H170.878H170.878H170.878H170.878H170.878H170.878H170.878H170.878H170.878H170.878H170.878H170.878H170.878H170.879H170.879H170.879H170.879H170.879H170.879H170.879H170.879H170.879H170.879H170.879H170.879H170.879H170.879H170.879H170.879H170.879H170.879H170.879H170.879H170.879H170.879H170.879H170.879H170.879H170.879H170.879H170.879H170.879H170.88H170.88H170.88H170.88H170.88H170.88H170.88H170.88H170.88H170.88H170.88H170.88H170.88H170.88H170.88H170.88H170.88H170.88H170.88H170.88H170.88H170.88H170.88H170.88H170.88H170.88H170.88H170.88H170.881H170.881H170.881H170.881H170.881H170.881H170.881H170.881H170.881H170.881H170.881H170.881H170.881H170.881H170.881H170.881H170.881H170.881H170.881H170.881H170.881H170.881H170.881H170.881H170.881H170.882H170.882H170.882H170.882H170.882H170.882H170.882H170.882H170.882H170.882H170.882H170.882H170.882H170.882H170.882H170.882H170.882H170.882H170.882H170.882H170.882H170.882H170.882H170.882H170.882H170.883H170.883H170.883H170.883H170.883H170.883H170.883H170.883H170.883H170.883H170.883H170.883H170.883H170.883H170.883H170.883H170.883H170.883H170.883H170.883H170.883H170.883H170.883H170.883H170.884H170.884H170.884H170.884H170.884H170.884H170.884H170.884H170.884H170.884H170.884H170.884H170.884H170.884H170.884H170.884H170.884H170.884H170.884H170.884H170.884H170.884H170.884H170.884H170.885H170.885H170.885H170.885H170.885H170.885H170.885H170.885H170.885H170.885H170.885H170.885H170.885H170.885H170.885H170.885H170.885H170.885H170.885H170.885H170.885H170.885H170.885H170.886H170.886H170.886H170.886H170.886H170.886H170.886H170.886H170.886H170.886H170.886H170.886H170.886H170.886H170.886H170.886H170.886H170.886H170.886H170.886H170.886H170.886H170.886H170.887H170.887H170.887H170.887H170.887H170.887H170.887H170.887H170.887H170.887H170.887H170.887H170.887H170.887H170.887H170.887H170.887H170.887H170.887H170.887H170.887H170.887H170.887H170.887H170.888H170.888H170.888H170.888H170.888H170.888H170.888H170.888H170.888H170.888H170.888H170.888H170.888H170.888H170.888H170.888H170.888H170.888H170.888H170.888H170.888H170.888H170.888H170.889H170.889H170.889H170.889H170.889H170.889H170.889H170.889H170.889H170.889H170.889H170.889H170.889H170.889H170.889H170.889H170.889H170.889H170.889H170.889H170.889H170.889H170.889H170.889H170.89H170.89H170.89H170.89H170.89H170.89H170.89H170.89H170.89H170.89H170.89H170.89H170.89H170.89H170.89H170.89H170.89H170.89H170.89H170.89H170.89H170.89H170.89H170.89H170.89H170.891H170.891H170.891H170.891H170.891H170.891H170.891H170.891H170.891H170.891H170.891H170.891H170.891H170.891H170.891H170.891H170.891H170.891H170.891H170.891H170.891H170.891H170.904C203.16 186.5 229.312 212.65 229.312 244.91C229.312 252.948 227.63 260.576 224.684 267.544L224.681 267.551L224.678 267.559C224.668 267.585 224.658 267.608 224.638 267.65L224.635 267.657L224.632 267.664C223.915 269.351 223.124 270.998 222.255 272.603L222.251 272.61L222.248 272.617C222.221 272.67 222.198 272.715 222.172 272.758L222.168 272.764L222.164 272.771C220.252 276.275 218.037 279.586 215.48 282.606L215.183 282.957L215.508 283.282L221.367 289.14L221.72 289.494L222.074 289.14L224.033 287.181L268.293 331.443L257.428 342.293ZM170.875 292.535C196.441 292.535 217.167 271.809 217.167 246.241C217.167 220.674 196.441 199.948 170.875 199.948C145.309 199.948 124.583 220.674 124.583 246.241C124.583 271.809 145.309 292.535 170.875 292.535Z" fill="#828B98" stroke="#828B98"/>
</svg>
