<svg width="193" height="155" viewBox="0 0 193 155" fill="none" xmlns="http://www.w3.org/2000/svg">
<path d="M111.852 57.6534C100.051 57.7237 88.0666 57.1888 76.857 54.0623C65.6475 50.9361 55.7337 45.0777 46.7211 38.2198C40.8207 33.7558 35.4552 30.207 27.7944 30.742C20.3029 31.1417 13.1388 33.9412 7.36094 38.7267C-2.38389 47.176 -0.905422 63.0186 2.9813 74.1295C8.83941 90.8309 26.6676 102.449 41.8062 110.011C59.3105 118.742 78.5328 123.826 97.8114 126.741C114.71 129.318 136.397 131.177 151.042 120.15C164.491 110.011 168.18 86.8598 164.885 71.2426C164.087 66.6206 161.628 62.4493 157.971 59.5121C148.522 52.6118 134.44 57.2308 123.822 57.4561C119.879 57.5407 115.879 57.6394 111.852 57.6534Z" fill="#272933"/>
<path d="M54.3115 3V9.0694" stroke="#4A5059" stroke-width="5.1253" stroke-linecap="round" stroke-linejoin="round"/>
<path d="M51.2842 6.02734H57.3396" stroke="#4A5059" stroke-width="5.1253" stroke-linecap="round" stroke-linejoin="round"/>
<path d="M169.194 123.699V129.755" stroke="#4A5059" stroke-width="5.1253" stroke-linecap="round" stroke-linejoin="round"/>
<path d="M166.167 126.727H172.222" stroke="#4A5059" stroke-width="5.1253" stroke-linecap="round" stroke-linejoin="round"/>
<path d="M8.55784 97.5483C9.32002 97.5483 9.93795 96.9304 9.93795 96.1682C9.93795 95.406 9.32002 94.7881 8.55784 94.7881C7.79566 94.7881 7.17773 95.406 7.17773 96.1682C7.17773 96.9304 7.79566 97.5483 8.55784 97.5483Z" fill="#4A5059"/>
<path d="M126.061 9.26705C126.823 9.26705 127.441 8.64912 127.441 7.88694C127.441 7.12477 126.823 6.50684 126.061 6.50684C125.299 6.50684 124.681 7.12477 124.681 7.88694C124.681 8.64912 125.299 9.26705 126.061 9.26705Z" fill="#4A5059"/>
<path d="M87.8128 154.117C116.356 154.117 139.495 152.679 139.495 150.906C139.495 149.133 116.356 147.695 87.8128 147.695C59.2699 147.695 36.1309 149.133 36.1309 150.906C36.1309 152.679 59.2696 154.117 87.8128 154.117Z" fill="#272933"/>
<path d="M48.0031 19.4482H123.061C124.929 19.4482 126.72 20.1901 128.041 21.5106C129.36 22.8311 130.102 24.6219 130.102 26.4895V115.785C130.102 117.652 129.36 119.444 128.041 120.765C126.72 122.084 124.929 122.826 123.061 122.826H38.385C36.5174 122.826 34.7266 122.084 33.4061 120.765C32.0856 119.444 31.3438 117.652 31.3438 115.785V36.2766L48.0031 19.4482Z" fill="#4A5059" stroke="#4A5059" stroke-width="5.1253" stroke-miterlimit="10"/>
<path d="M129.764 62.9766H52.3682V123.699H129.764V62.9766Z" fill="#2D333E" stroke="#4A5059" stroke-width="5.1253" stroke-miterlimit="10"/>
<path d="M31.3438 36.2766H44.9896C45.3866 36.2766 45.7795 36.1983 46.146 36.0458C46.5126 35.8933 46.8453 35.6702 47.1256 35.3889C47.4055 35.1075 47.6273 34.7737 47.7778 34.4063C47.9284 34.039 48.0051 33.6458 48.0031 33.2488V19.4482L31.3438 36.2766Z" fill="#4A5059" stroke="#2D333E" stroke-width="5.1253" stroke-miterlimit="10"/>
<path d="M129.384 43.5713H52.8329C49.8543 43.5713 47.4395 45.9859 47.4395 48.9648V65.3425C47.4395 68.3212 49.8543 70.736 52.8329 70.736H129.384C132.363 70.736 134.778 68.3212 134.778 65.3425V48.9648C134.778 45.9859 132.363 43.5713 129.384 43.5713Z" fill="#2D333E" stroke="#4A5059" stroke-width="5.1253" stroke-miterlimit="10"/>
<path d="M62.31 61.8915C64.9076 61.8915 67.0136 59.7858 67.0136 57.1879C67.0136 54.5901 64.9079 52.4844 62.31 52.4844C59.7125 52.4844 57.6064 54.5901 57.6064 57.1879C57.6064 59.7858 59.7125 61.8915 62.31 61.8915Z" fill="#2D333E" stroke="#4A5059" stroke-width="5.1253" stroke-miterlimit="10"/>
<path d="M77.0962 61.8915C79.6937 61.8915 81.7997 59.7858 81.7997 57.1879C81.7997 54.5901 79.694 52.4844 77.0962 52.4844C74.4983 52.4844 72.3926 54.5901 72.3926 57.1879C72.3926 59.7858 74.4986 61.8915 77.0962 61.8915Z" fill="#2D333E" stroke="#4A5059" stroke-width="5.1253" stroke-miterlimit="10"/>
<path d="M91.8686 61.8915C94.4662 61.8915 96.5722 59.7858 96.5722 57.1879C96.5722 54.5901 94.4664 52.4844 91.8686 52.4844C89.2711 52.4844 87.165 54.5901 87.165 57.1879C87.165 59.7858 89.2711 61.8915 91.8686 61.8915Z" fill="#2D333E" stroke="#4A5059" stroke-width="5.1253" stroke-miterlimit="10"/>
<path d="M129.384 73.6934H52.8329C49.8543 73.6934 47.4395 76.1082 47.4395 79.0869V95.4646C47.4395 98.4435 49.8543 100.858 52.8329 100.858H129.384C132.363 100.858 134.778 98.4435 134.778 95.4646V79.0869C134.778 76.1082 132.363 73.6934 129.384 73.6934Z" fill="#2D333E" stroke="#4A5059" stroke-width="5.1253" stroke-miterlimit="10"/>
<path d="M62.31 92.0146C64.9076 92.0146 67.0136 89.9088 67.0136 87.311C67.0136 84.7134 64.9079 82.6074 62.31 82.6074C59.7125 82.6074 57.6064 84.7132 57.6064 87.311C57.6064 89.9086 59.7125 92.0146 62.31 92.0146Z" fill="#2D333E" stroke="#4A5059" stroke-width="5.1253" stroke-miterlimit="10"/>
<path d="M77.0962 92.0146C79.6937 92.0146 81.7997 89.9088 81.7997 87.311C81.7997 84.7134 79.694 82.6074 77.0962 82.6074C74.4983 82.6074 72.3926 84.7132 72.3926 87.311C72.3926 89.9086 74.4986 92.0146 77.0962 92.0146Z" fill="#2D333E" stroke="#4A5059" stroke-width="5.1253" stroke-miterlimit="10"/>
<path d="M91.8686 92.0146C94.4662 92.0146 96.5722 89.9088 96.5722 87.311C96.5722 84.7134 94.4664 82.6074 91.8686 82.6074C89.2711 82.6074 87.165 84.7132 87.165 87.311C87.165 89.9086 89.2711 92.0146 91.8686 92.0146Z" fill="#2D333E" stroke="#4A5059" stroke-width="5.1253" stroke-miterlimit="10"/>
<path d="M129.384 103.801H52.8329C49.8543 103.801 47.4395 106.216 47.4395 109.194V125.572C47.4395 128.55 49.8543 130.966 52.8329 130.966H129.384C132.363 130.966 134.778 128.55 134.778 125.572V109.194C134.778 106.216 132.363 103.801 129.384 103.801Z" fill="#2D333E" stroke="#4A5059" stroke-width="5.1253" stroke-miterlimit="10"/>
<path d="M62.31 122.122C64.9076 122.122 67.0136 120.017 67.0136 117.418C67.0136 114.821 64.9079 112.715 62.31 112.715C59.7125 112.715 57.6064 114.821 57.6064 117.418C57.6064 120.017 59.7125 122.122 62.31 122.122Z" fill="#2D333E" stroke="#4A5059" stroke-width="5.1253" stroke-miterlimit="10"/>
<path d="M77.0962 122.122C79.6937 122.122 81.7997 120.017 81.7997 117.418C81.7997 114.821 79.694 112.715 77.0962 112.715C74.4983 112.715 72.3926 114.821 72.3926 117.418C72.3926 120.017 74.4986 122.122 77.0962 122.122Z" fill="#2D333E" stroke="#4A5059" stroke-width="5.1253" stroke-miterlimit="10"/>
<path d="M91.8686 122.122C94.4662 122.122 96.5722 120.017 96.5722 117.418C96.5722 114.821 94.4664 112.715 91.8686 112.715C89.2711 112.715 87.165 114.821 87.165 117.418C87.165 120.017 89.2711 122.122 91.8686 122.122Z" fill="#2D333E" stroke="#4A5059" stroke-width="5.1253" stroke-miterlimit="10"/>
<path d="M136.313 77.8751C152.435 77.8751 165.505 64.8052 165.505 48.6827C165.505 32.5602 152.435 19.4902 136.313 19.4902C120.19 19.4902 107.12 32.5602 107.12 48.6827C107.12 64.8052 120.19 77.8751 136.313 77.8751Z" fill="#2D333E" stroke="#4A5059" stroke-width="5.1253" stroke-miterlimit="10"/>
<path d="M157.041 69.8623L164.814 77.6498" stroke="#4A5059" stroke-width="5.1253" stroke-miterlimit="10"/>
<path d="M163.934 73.8761L161.52 76.4005C160.434 77.5361 160.475 79.3369 161.61 80.4224L182.58 100.468C183.715 101.554 185.516 101.513 186.602 100.378L189.015 97.8531C190.101 96.7175 190.06 94.9167 188.924 93.8312L167.956 73.7854C166.819 72.6998 165.019 72.7405 163.934 73.8761Z" fill="#2D333E" stroke="#4A5059" stroke-width="5.1253" stroke-miterlimit="10"/>
</svg>
