<svg width="22" height="22" viewBox="0 0 22 22" fill="none" xmlns="http://www.w3.org/2000/svg">
<g clip-path="url(#clip0_161_178)">
<path d="M11 0C4.94334 0 0 4.94549 0 11C0 17.0567 4.94549 22 11 22C17.0567 22 22 17.0545 22 11C22 4.94549 17.0567 0 11 0ZM11 19.3789C6.38 19.3789 2.62109 15.62 2.62109 11C2.62109 9.15445 3.22811 7.45203 4.24304 6.06603L15.9339 17.757C14.5479 18.7718 12.8455 19.3789 11 19.3789ZM17.757 15.9339L6.06603 4.24304C7.45203 3.22811 9.15445 2.62109 11 2.62109C15.6308 2.62109 19.3789 6.36956 19.3789 11C19.3789 12.8455 18.7718 14.5479 17.757 15.9339Z" fill="white"/>
</g>
<defs>
<clipPath id="clip0_161_178">
<rect width="22" height="22" fill="white"/>
</clipPath>
</defs>
</svg>
