<svg width="11" height="10" viewBox="0 0 11 10" fill="none" xmlns="http://www.w3.org/2000/svg">
<path fill-rule="evenodd" clip-rule="evenodd" d="M10.79 0.679824C10.79 1.05528 10.4856 1.35965 10.1101 1.35965H0.679824C0.304362 1.35965 0 1.05528 0 0.679824C0 0.304371 0.304362 0 0.679824 0H10.1101C10.4856 0 10.79 0.304371 10.79 0.679824Z" fill="#E45561"/>
<path fill-rule="evenodd" clip-rule="evenodd" d="M8.47777 3.39917C8.47777 3.77463 8.17339 4.079 7.798 4.079H0.679824C0.304362 4.079 0 3.77463 0 3.39917C0 3.02372 0.304362 2.71936 0.679824 2.71936H7.798C8.17339 2.71936 8.47777 3.02372 8.47777 3.39917Z" fill="#E45561"/>
<path fill-rule="evenodd" clip-rule="evenodd" d="M8.47777 6.11858C8.47777 6.49397 8.17339 6.79835 7.798 6.79835H0.679824C0.304362 6.79835 0 6.49397 0 6.11858C0 5.7431 0.304362 5.43872 0.679824 5.43872H7.798C8.17339 5.43872 8.47777 5.7431 8.47777 6.11858Z" fill="#E45561"/>
<path fill-rule="evenodd" clip-rule="evenodd" d="M8.47777 8.83794C8.47777 9.21333 8.17339 9.51771 7.798 9.51771H0.679824C0.304362 9.51771 0 9.21333 0 8.83794C0 8.46246 0.304362 8.15808 0.679824 8.15808H7.798C8.17339 8.15808 8.47777 8.46246 8.47777 8.83794Z" fill="#E45561"/>
</svg>
