<svg width="22" height="11" viewBox="0 0 22 11" fill="none" xmlns="http://www.w3.org/2000/svg">
<g clip-path="url(#clip0_91_6536)">
<mask id="mask0_91_6536" style="mask-type:luminance" maskUnits="userSpaceOnUse" x="0" y="0" width="21" height="11">
<path d="M20.8439 0.385986H0.677246V10.4693H20.8439V0.385986Z" fill="white"/>
</mask>
<g mask="url(#mask0_91_6536)">
<path d="M7.55225 0.385986H2.96891C1.70326 0.385986 0.677246 1.412 0.677246 2.67765C0.677246 3.9433 1.70326 4.96932 2.96891 4.96932H7.55225C8.8179 4.96932 9.84387 3.9433 9.84387 2.67765C9.84387 1.412 8.8179 0.385986 7.55225 0.385986Z" fill="#FE535B"/>
<path d="M7.55225 5.88599H2.96891C1.70326 5.88599 0.677246 6.912 0.677246 8.17765C0.677246 9.44335 1.70326 10.4693 2.96891 10.4693H7.55225C8.8179 10.4693 9.84387 9.44335 9.84387 8.17765C9.84387 6.912 8.8179 5.88599 7.55225 5.88599Z" fill="#FE535B"/>
<path d="M15.3441 8.17765V2.67765C15.3441 1.412 14.3181 0.385986 13.0524 0.385986C11.7868 0.385986 10.7607 1.412 10.7607 2.67765V8.17765C10.7607 9.44335 11.7868 10.4693 13.0524 10.4693C14.3181 10.4693 15.3441 9.44335 15.3441 8.17765Z" fill="#FE535B"/>
<path d="M20.8441 8.17765V2.67765C20.8441 1.412 19.8181 0.385986 18.5524 0.385986C17.2868 0.385986 16.2607 1.412 16.2607 2.67765V8.17765C16.2607 9.44335 17.2868 10.4693 18.5524 10.4693C19.8181 10.4693 20.8441 9.44335 20.8441 8.17765Z" fill="#FE535B"/>
</g>
</g>
<defs>
<clipPath id="clip0_91_6536">
<rect width="21.0833" height="11" fill="white" transform="translate(0.648438)"/>
</clipPath>
</defs>
</svg>
