<svg width="11" height="10" viewBox="0 0 11 10" fill="none" xmlns="http://www.w3.org/2000/svg">
<path fill-rule="evenodd" clip-rule="evenodd" d="M10.79 0.679824C10.79 1.05528 10.4856 1.35965 10.1101 1.35965H0.679824C0.304362 1.35965 0 1.05528 0 0.679824C0 0.304371 0.304362 0 0.679824 0H10.1101C10.4856 0 10.79 0.304371 10.79 0.679824Z" fill="#E45561"/>
<path fill-rule="evenodd" clip-rule="evenodd" d="M10.79 8.83773C10.79 9.21321 10.4856 9.51759 10.1101 9.51759H0.679824C0.304362 9.51759 0 9.21321 0 8.83773C0 8.46225 0.304362 8.15796 0.679824 8.15796H10.1101C10.4856 8.15796 10.79 8.46225 10.79 8.83773Z" fill="#5EBA89"/>
<path fill-rule="evenodd" clip-rule="evenodd" d="M8.47777 3.39905C8.47777 3.77451 8.17339 4.07888 7.798 4.07888H0.679824C0.304362 4.07888 0 3.77451 0 3.39905C0 3.0236 0.304362 2.71924 0.679824 2.71924H7.798C8.17339 2.71924 8.47777 3.0236 8.47777 3.39905Z" fill="#E45561"/>
<path fill-rule="evenodd" clip-rule="evenodd" d="M8.47777 6.11837C8.47777 6.49385 8.17339 6.79823 7.798 6.79823H0.679824C0.304362 6.79823 0 6.49385 0 6.11837C0 5.74298 0.304362 5.4386 0.679824 5.4386H7.798C8.17339 5.4386 8.47777 5.74298 8.47777 6.11837Z" fill="#5EBA89"/>
</svg>
