<svg width="11" height="10" viewBox="0 0 11 10" fill="none" xmlns="http://www.w3.org/2000/svg">
<path fill-rule="evenodd" clip-rule="evenodd" d="M10.79 8.83773C10.79 8.46234 10.4856 8.15796 10.1101 8.15796H0.679824C0.304362 8.15796 0 8.46234 0 8.83773C0 9.21321 0.304362 9.51759 0.679824 9.51759H10.1101C10.4856 9.51759 10.79 9.21321 10.79 8.83773Z" fill="#5EBA89"/>
<path fill-rule="evenodd" clip-rule="evenodd" d="M8.47777 6.11846C8.47777 5.74298 8.17339 5.4386 7.798 5.4386H0.679824C0.304362 5.4386 0 5.74298 0 6.11846C0 6.49385 0.304362 6.79823 0.679824 6.79823H7.798C8.17339 6.79823 8.47777 6.49385 8.47777 6.11846Z" fill="#5EBA89"/>
<path fill-rule="evenodd" clip-rule="evenodd" d="M8.47777 3.39918C8.47777 3.02373 8.17339 2.71936 7.798 2.71936H0.679824C0.304362 2.71936 0 3.02373 0 3.39918C0 3.77464 0.304362 4.07901 0.679824 4.07901H7.798C8.17339 4.07901 8.47777 3.77464 8.47777 3.39918Z" fill="#5EBA89"/>
<path fill-rule="evenodd" clip-rule="evenodd" d="M8.47777 0.679824C8.47777 0.304371 8.17339 0 7.798 0H0.679824C0.304362 0 0 0.304371 0 0.679824C0 1.05528 0.304362 1.35964 0.679824 1.35964H7.798C8.17339 1.35964 8.47777 1.05528 8.47777 0.679824Z" fill="#5EBA89"/>
</svg>
