<svg width="27" height="32" viewBox="0 0 27 32" fill="none" xmlns="http://www.w3.org/2000/svg">
<g opacity="0.88">
<path d="M6.27856 3.05766L12.5023 10.1685C12.7861 10.4931 12.7533 10.9863 12.429 11.2706L9.26892 14.036L15.8937 21.6053L19.0537 18.8395C19.378 18.5556 19.8716 18.5885 20.1555 18.9132L26.3792 26.024C26.6631 26.3482 26.6302 26.8418 26.3055 27.1257L23.1738 29.867C23.1447 29.8961 23.1141 29.9233 23.0812 29.9475C20.7439 31.9442 16.6481 31.8274 14.7817 29.2989L1.45248 14.0693C-0.682956 11.6289 -0.434641 7.89507 2.00542 5.75964L5.17682 2.98433C5.50111 2.70011 5.99471 2.73299 6.27856 3.05766ZM23.5937 8.32216C24.2986 8.32216 24.8697 8.89362 24.8697 9.59813C24.8697 10.303 24.2986 10.8741 23.5937 10.8741C22.8892 10.8741 22.3177 10.303 22.3177 9.59813C22.3177 8.89362 22.8892 8.32216 23.5937 8.32216ZM23.5937 15.9273C24.2986 15.9273 24.8697 16.4988 24.8697 17.2033C24.8697 17.9082 24.2986 18.4796 23.5937 18.4796C22.8888 18.4796 22.3177 17.9082 22.3177 17.2033C22.3177 16.4988 22.8888 15.9273 23.5937 15.9273ZM23.5937 12.1247C24.2986 12.1247 24.8697 12.6962 24.8697 13.4007C24.8697 14.1056 24.2986 14.6767 23.5937 14.6767C22.8888 14.6767 22.3177 14.1056 22.3177 13.4007C22.3177 12.6962 22.8888 12.1247 23.5937 12.1247ZM18.4101 11.4607C18.4101 12.4914 16.8431 12.4914 16.8431 11.4607V2.2477L13.5194 4.46326C12.6629 5.03435 11.7936 3.73041 12.6501 3.15933L17.1844 0.136459C17.4278 -0.0302181 17.7487 -0.0457141 18.0072 0.0982859C19.4366 0.898034 21.1926 2.21936 22.6027 3.15933C23.4592 3.73041 22.5902 5.03435 21.7334 4.46326L18.4101 2.2477V11.4607ZM10.8129 10.6095L5.61752 4.67378L3.03421 6.93507C1.24611 8.4998 1.06319 11.2532 2.62791 13.0409L15.9583 28.2716C17.7075 29.9758 20.0897 30.4437 22.0615 28.7641L24.6894 26.4646L19.4944 20.5293L16.3344 23.2948C16.0101 23.579 15.5165 23.5461 15.2326 23.2214L7.57909 14.4771C7.29525 14.1525 7.32813 13.6592 7.65279 13.375L10.8129 10.6095Z" fill="black" fill-opacity="0.85"/>
</g>
</svg>
