<svg width="841" height="500" viewBox="0 0 841 500" fill="none" xmlns="http://www.w3.org/2000/svg">
<path d="M224.53 125.458C231.822 147.523 237.795 170.218 242.384 193.478C247.382 218.702 250.761 244.556 252.536 270.975C253.102 279.336 253.527 287.822 254.674 295.979C256.088 305.975 258.572 315.467 263.742 323.608C264.811 325.306 268.033 331.702 271.537 338.476C272.182 339.718 272.842 340.975 273.486 342.216C277.62 350.137 281.674 357.493 282.617 357.367C295.128 355.748 296.841 328.81 296.825 324.457C296.778 300.474 295.238 276.931 292.22 253.922C291.607 249.176 290.916 244.461 290.177 239.762C290.161 239.683 290.146 239.605 290.13 239.511C288.542 229.562 286.672 219.63 285.446 209.508C285.195 207.449 284.975 205.391 284.786 203.316C283.718 191.545 283.718 179.474 286.216 166.76C287.757 158.996 290.208 150.934 289.517 143.751C288.527 133.599 281.407 126.275 276.96 117.678C268.881 102.009 269.777 82.1592 265.66 64.557C263.208 54.09 258.964 44.4244 254.737 34.7904L239.728 0.623167C239.115 -0.775581 236.066 0.387423 235.924 2.06907C233.708 27.7966 231.037 53.697 224.043 80.3047C222.188 87.3927 220.004 94.5751 219.689 101.349C219.281 110.087 222 117.788 224.53 125.458Z" fill="#B57AF8"/>
<path d="M200.277 174.825C201.802 180.562 201.99 186.408 202.289 192.223C203.358 212.686 205.951 233.085 210.053 253.359C210.493 255.544 210.949 257.713 211.42 259.897C213.07 267.473 214.925 275.016 216.999 282.545C217.062 282.765 217.125 283 217.188 283.22C219.357 290.874 222.846 299.125 235.498 303.494C238.358 304.469 240.904 303.322 243.088 301.168C244.047 300.225 244.943 299.094 245.76 297.852C249.249 292.619 251.512 285.578 252.361 283.645C256.243 274.875 258.695 265.964 257.359 257.147C255.944 247.984 250.522 239.183 248.746 230.052C247.19 222.021 248.479 213.912 250.098 205.771C251.827 197.127 253.948 188.467 253.446 179.87C252.66 166.37 245.462 153.357 238.311 140.485C233.847 132.454 229.368 124.423 224.716 116.408C217.518 104.008 209.896 91.7018 201.189 79.5689C198.517 75.8598 194.054 71.5693 185.818 71.585C185.834 85.9811 185.834 100.362 185.85 114.742C185.85 116.549 185.85 118.357 185.85 120.164C185.85 129.122 185.866 138.112 188.632 146.882C191.618 156.311 197.747 165.364 200.277 174.825Z" fill="#D6B4FD"/>
<path d="M241.879 22.278C241.879 22.6395 242.476 59.0541 247.395 99.3506C254.012 153.65 264.95 188.808 279.865 203.848C281.39 205.373 282.71 207.274 283.81 209.522C287.189 216.327 288.745 226.385 288.493 239.524C288.053 262.627 282.003 295.27 270.435 336.525C270.263 337.169 270.074 337.814 269.885 338.458C270.53 339.7 271.19 340.957 271.834 342.199C272.306 340.517 272.793 338.851 273.264 337.154C282.726 303.411 288.493 275.609 290.584 253.904C292.988 228.947 290.521 212.021 283.15 203.314C282.788 202.889 282.411 202.465 282.034 202.088C247.332 167.135 244.818 23.6925 244.786 22.2466C244.771 21.5236 244.111 20.9421 243.309 20.9578C242.523 20.9735 241.879 21.555 241.879 22.278Z" fill="#9564CC"/>
<path d="M196.024 96.363C204.982 110.35 213.987 143.402 221.955 180.869C228.258 210.495 233.915 242.87 238.395 270.751C240.171 281.736 241.742 292.015 243.109 301.162C244.068 300.219 244.964 299.087 245.781 297.846C244.414 288.73 242.842 278.593 241.114 267.843C239.353 256.952 237.42 245.432 235.361 233.723C232.092 215.225 228.886 198.44 225.727 183.415C216.14 137.697 207.119 108.056 198.805 95.0743C198.444 94.5085 197.532 94.3356 196.762 94.6971C195.992 95.0586 195.662 95.7972 196.024 96.363Z" fill="#9564CC"/>
<path d="M488.94 72.4791C470.442 79.9129 453.186 90.2542 437.47 102.749C418.186 118.088 374.777 143.8 310.058 132.735C220.035 117.349 121.541 214.507 171.252 361.69C220.962 508.873 651.462 530.043 718.052 356.881C780.242 195.208 671.909 -1.10452 488.94 72.4791Z" fill="#E9D6FF" fill-opacity="0.5"/>
<path d="M489.222 473.652H353.119C336.193 473.652 322.473 459.932 322.473 443.005V117.443C322.473 100.516 336.193 86.7959 353.119 86.7959H489.222C506.149 86.7959 519.869 100.516 519.869 117.443V443.005C519.869 459.932 506.149 473.652 489.222 473.652Z" fill="white"/>
<path d="M505.332 481.478H337.011C324.689 481.478 314.646 471.451 314.646 459.114V101.333C314.646 89.011 324.673 78.9683 337.011 78.9683H505.332C517.654 78.9683 527.696 88.9953 527.696 101.333V459.129C527.696 471.451 517.669 481.478 505.332 481.478ZM337.011 94.6217C333.317 94.6217 330.3 97.6235 330.3 101.333V459.129C330.3 462.823 333.302 465.84 337.011 465.84H505.332C509.025 465.84 512.043 462.838 512.043 459.129V101.333C512.043 97.6392 509.041 94.6217 505.332 94.6217H337.011Z" fill="#9AD954"/>
<path d="M439.024 102.026H399.074C395.05 102.026 391.781 98.7569 391.781 94.7335V91.9203C391.781 87.8969 395.05 84.6279 399.074 84.6279H439.024C443.048 84.6279 446.317 87.8969 446.317 91.9203V94.7335C446.317 98.7569 443.048 102.026 439.024 102.026Z" fill="#9AD954"/>
<path d="M187.472 201.507C192.753 216.988 193.13 232.515 197.279 248.027C200.862 261.418 207.212 274.666 213.168 287.9C226.81 318.169 241.442 352.509 235.689 382.402C234.071 390.857 228.303 396.782 215.965 394.865C215.195 394.739 214.41 394.597 213.592 394.409C212.649 394.189 211.659 393.953 210.638 393.639C194.874 389.05 187.032 375.141 181.798 365.192C175.873 353.892 170.074 342.592 164.558 331.245C160.534 322.963 156.715 314.554 156.055 306.209C155.536 299.702 156.967 293.416 156.637 286.909C155.458 264.058 132.952 241.442 130.107 218.449C128.834 208.171 131.585 198.301 130.579 188.023C129.605 178.059 125.125 168.016 121.762 158.02C115.083 138.202 112.694 118.18 114.674 98.8956C114.847 97.2769 117.534 96.7111 119.42 97.8898C123.711 100.609 126.634 104.601 129.18 108.31C139.694 123.649 150.224 138.988 160.738 154.327C171.3 169.76 181.971 185.351 187.472 201.507Z" fill="#B57AF8"/>
<path d="M123.961 113.65C124.291 114.42 156.886 192.404 186.794 276.785C223.885 381.455 240.748 449.569 237.039 479.603C235.986 479.493 234.902 479.32 233.786 479.132C237.652 450.276 220.506 380.952 183.824 277.445C153.947 193.158 121.383 115.268 121.069 114.498C120.692 113.602 121.037 112.675 121.839 112.439C122.64 112.204 123.583 112.738 123.961 113.65Z" fill="#9564CC"/>
<path d="M558.673 370.19C562.696 351.928 572.299 336.604 575.033 317.713C577.595 299.907 573.965 279.523 575.803 261.386C578.915 230.582 597.633 207.228 597.24 174.994C597.083 161.714 593.641 147.333 593.626 134.1C593.61 118.117 598.623 104.239 606.262 92.2947C607.315 90.6445 611.102 92.4205 611.574 94.7779C614.167 107.948 615.613 120.836 617.043 133.691C619.322 154.107 621.585 174.522 623.864 194.938C625.75 211.848 627.636 228.932 625.027 244.098C623.251 254.44 619.4 263.791 618.693 274.604C617.514 292.583 625.09 313.879 621.994 330.994C619.479 344.871 610.128 354.977 607.157 368.634C602.757 388.892 612.611 415.987 602.914 433.134C596.47 444.512 580.298 440.489 569.454 425.59C555.812 406.887 555.372 385.168 558.673 370.19Z" fill="#B57AF8"/>
<path d="M606.545 372.246C613.633 364.12 623.236 357.441 626.615 347.21C629.648 338.047 627.605 326.338 627.181 315.463C625.782 280.101 641.404 253.148 657.419 226.823C675.414 197.245 694.053 167.997 718.131 142.081C719.294 140.824 724.889 143.935 724.684 145.727L720.677 181.67C717.785 207.649 714.893 233.66 707.774 257.485C694.996 300.265 668.672 335.784 660.012 380.701C657.136 395.631 656.067 411.521 651.227 425.445C647.565 435.959 641.294 460.037 619.055 457.931C592.479 455.4 592.401 428.981 591.85 419.536C590.782 400.739 595.685 384.677 606.545 372.246Z" fill="#D6B4FD"/>
<path d="M580.928 428.374C581.493 428.374 582.012 427.871 582.154 427.116C593.013 368.856 600.117 311.492 607.017 252.98C607.032 252.901 607.032 252.807 607.032 252.729V246.882L607.158 245.358C607.614 240.124 608.038 235.189 608.038 229.751C610.317 203.552 612.219 172.796 609.044 143.217C608.95 142.322 608.321 141.693 607.614 141.819C606.922 141.944 606.435 142.777 606.529 143.673C609.673 172.921 607.771 203.458 605.508 229.468C605.508 229.531 605.508 229.594 605.508 229.657C605.508 234.953 605.084 239.825 604.643 244.996L604.502 246.615C604.502 246.678 604.486 246.741 604.486 246.803V252.603C597.587 311.004 590.499 368.243 579.67 426.346C579.513 427.226 579.922 428.122 580.598 428.342C580.739 428.358 580.833 428.374 580.928 428.374Z" fill="#9564CC"/>
<path d="M611.117 450.36C611.746 450.36 612.296 449.826 612.374 449.118C613.019 442.863 614.622 436.86 616.178 431.045C617.529 426 618.928 420.798 619.651 415.533C631.501 378.584 646.117 334.83 664.584 290.305C664.599 290.29 664.599 290.258 664.615 290.243C665.134 288.797 665.527 287.508 665.904 286.251C666.281 284.993 666.643 283.783 667.13 282.447C670.336 274.809 673.511 267.187 676.685 259.596C689.274 229.436 702.287 198.255 715.677 167.86C715.976 167.168 715.724 166.32 715.096 165.99C714.467 165.644 713.713 165.942 713.398 166.634C699.993 197.045 686.979 228.242 674.375 258.417C671.2 266.024 668.01 273.646 664.819 281.3C664.804 281.316 664.804 281.347 664.788 281.363C664.269 282.809 663.877 284.097 663.499 285.355C663.122 286.628 662.761 287.822 662.273 289.158C643.744 333.824 629.096 377.704 617.231 414.715C617.199 414.794 617.183 414.888 617.168 414.983C616.476 420.09 615.156 425.025 613.757 430.243C612.17 436.168 610.535 442.298 609.86 448.788C609.781 449.558 610.284 450.25 610.975 450.344C611.023 450.36 611.07 450.36 611.117 450.36Z" fill="#9564CC"/>
<path d="M499.188 360.507C499.188 360.507 483.644 363.792 481.051 365.19C478.458 366.589 476.965 371.115 476.965 371.115L481.083 374.479L489.051 369.559C489.051 369.559 496.704 372.058 500.634 368.899C504.563 365.74 499.188 360.507 499.188 360.507Z" fill="#EC9F90"/>
<path d="M542.755 306.428C531.314 302.201 530.701 311.253 530.701 311.253C530.701 311.253 528.61 329.547 530.371 344.493L499.189 360.524L500.635 368.932C500.635 368.932 539.549 364.484 543.431 360.131C546.888 356.265 550.032 327.74 550.676 321.5C550.676 321.5 554.196 310.656 542.755 306.428Z" fill="#557037"/>
<ellipse cx="420.5" cy="481.5" rx="420.5" ry="18.5" fill="#D9D9D9"/>
<path d="M547.89 469.818H427.598V482.391H547.89V469.818Z" fill="#FCD17D"/>
<path d="M561.404 457.45H441.111V470.023H561.404V457.45Z" fill="#FCD17D"/>
<path d="M441.111 457.45L561.404 470.023H441.111V457.45Z" fill="#FFA600"/>
<path d="M561.404 457.45V470.023L441.111 457.45H561.404Z" fill="#FFD165"/>
<path d="M454.815 457.45H451.719V469.992H454.815V457.45Z" fill="#FFD165"/>
<path d="M471.459 457.45H468.363V469.992H471.459V457.45Z" fill="#FFD165"/>
<path d="M490.051 457.45H486.955V469.992H490.051V457.45Z" fill="#FFD165"/>
<path d="M507.651 457.45H504.555V469.992H507.651V457.45Z" fill="#FFD165"/>
<path d="M528.209 457.45H525.113V469.992H528.209V457.45Z" fill="#FFD165"/>
<path d="M548.266 457.45H545.17V469.992H548.266V457.45Z" fill="#FFD165"/>
<path d="M548.203 469.598H427.91V482.171H548.203V469.598Z" fill="#FCD17D"/>
<path d="M427.91 469.598L548.203 482.171H427.91V469.598Z" fill="#FFA600"/>
<path d="M548.203 469.598V482.171L427.91 469.598H548.203Z" fill="#FFD165"/>
<path d="M441.614 469.598H438.518V482.139H441.614V469.598Z" fill="#FFD165"/>
<path d="M458.243 469.598H455.146V482.139H458.243V469.598Z" fill="#FFD165"/>
<path d="M476.834 469.598H473.738V482.139H476.834V469.598Z" fill="#FFD165"/>
<path d="M494.45 469.598H491.354V482.139H494.45V469.598Z" fill="#FFD165"/>
<path d="M514.993 469.598H511.896V482.139H514.993V469.598Z" fill="#FFD165"/>
<path d="M535.065 469.598H531.969V482.139H535.065V469.598Z" fill="#FFD165"/>
<path d="M484.042 389.861C514.141 376.497 527.708 341.264 514.344 311.164C500.981 281.065 465.747 267.498 435.648 280.862C405.549 294.225 391.982 329.459 405.345 359.558C418.709 389.657 453.942 403.224 484.042 389.861Z" fill="#FFA600"/>
<path d="M451.772 396.228C484.703 396.228 511.4 369.532 511.4 336.601C511.4 303.669 484.703 276.973 451.772 276.973C418.841 276.973 392.145 303.669 392.145 336.601C392.145 369.532 418.841 396.228 451.772 396.228Z" fill="#FFD165"/>
<path d="M470.361 383.857C465.364 385.727 460.052 386.811 454.567 387.047C441.082 387.597 428.21 382.851 418.293 373.704C408.376 364.557 402.624 352.094 402.074 338.61C401.524 325.125 406.27 312.253 415.417 302.336C424.564 292.419 437.027 286.667 450.512 286.117C463.996 285.567 476.868 290.313 486.785 299.46C496.702 308.607 502.454 321.07 503.004 334.555C503.554 348.039 498.808 360.911 489.661 370.828C484.223 376.69 477.638 381.106 470.361 383.857ZM434.921 289.873C427.739 292.577 421.232 296.946 415.873 302.745C406.836 312.536 402.153 325.266 402.687 338.578C403.222 351.89 408.911 364.196 418.702 373.233C428.493 382.269 441.223 386.953 454.535 386.403C467.847 385.868 480.153 380.179 489.19 370.388C498.226 360.597 502.91 347.866 502.375 334.555C501.841 321.243 496.152 308.937 486.361 299.9C476.569 290.864 463.839 286.18 450.528 286.714C445.105 286.95 439.856 288.019 434.921 289.873Z" fill="#FFA600"/>
<path d="M469.687 357.41C457.586 361.952 447.229 358.714 440.612 349.473L468.1 339.132L465.648 332.594L437.17 343.296C436.887 342.652 436.605 342.023 436.353 341.348C436.275 341.127 436.212 340.923 436.133 340.703L465.648 329.607L463.197 323.07L434.389 333.898C432.393 321.105 438.695 311.141 451.001 306.52C456.171 304.571 460.933 304.053 464.532 304.383L463.998 297.09C461.452 296.776 455.936 296.965 448.172 299.872C431.434 306.159 423.041 320.649 425.855 337.088L419.27 339.572L421.721 346.11L427.646 343.878C427.756 344.192 427.835 344.491 427.945 344.805C428.165 345.387 428.416 345.921 428.652 346.487L421.721 349.096L424.173 355.634L431.858 352.742C440.659 366.714 455.527 370.407 470.552 364.765C478.127 361.92 483.486 358.211 485.891 355.618L481.836 349.866C479.196 352.679 474.591 355.571 469.687 357.41Z" fill="#FFA600"/>
<path d="M629.379 482.324H579.323C564.235 482.324 551.992 464.801 551.992 443.191V404.057H657.181L656.71 443.191C656.694 464.801 644.467 482.324 629.379 482.324Z" fill="#8755BE"/>
<path d="M402.658 431.674H282.365V444.247H402.658V431.674Z" fill="#FCD17D"/>
<path d="M389.865 444.025H269.572V456.598H389.865V444.025Z" fill="#FCD17D"/>
<path d="M384.63 456.397H264.338V468.97H384.63V456.397Z" fill="#FCD17D"/>
<path d="M393.29 468.749H272.998V481.322H393.29V468.749Z" fill="#FCD17D"/>
<path d="M402.593 431.232H282.301V443.805H402.593V431.232Z" fill="#FCD17D"/>
<path d="M282.301 431.232L402.593 443.805H282.301V431.232Z" fill="#FFA600"/>
<path d="M402.593 431.232V443.805L282.301 431.232H402.593Z" fill="#FFD165"/>
<path d="M295.991 431.232H292.895V443.774H295.991V431.232Z" fill="#FFD165"/>
<path d="M312.633 431.232H309.537V443.774H312.633V431.232Z" fill="#FFD165"/>
<path d="M331.225 431.232H328.129V443.774H331.225V431.232Z" fill="#FFD165"/>
<path d="M348.827 431.232H345.73V443.774H348.827V431.232Z" fill="#FFD165"/>
<path d="M369.383 431.232H366.287V443.774H369.383V431.232Z" fill="#FFD165"/>
<path d="M389.438 431.232H386.342V443.774H389.438V431.232Z" fill="#FFD165"/>
<path d="M389.865 444.029H269.572V456.602H389.865V444.029Z" fill="#FCD17D"/>
<path d="M269.572 444.029L389.865 456.602H269.572V444.029Z" fill="#FFA600"/>
<path d="M389.865 444.029V456.602L269.572 444.029H389.865Z" fill="#FFD165"/>
<path d="M283.276 444.029H280.18V456.571H283.276V444.029Z" fill="#FFD165"/>
<path d="M299.905 444.029H296.809V456.571H299.905V444.029Z" fill="#FFD165"/>
<path d="M318.496 444.029H315.4V456.571H318.496V444.029Z" fill="#FFD165"/>
<path d="M336.112 444.029H333.016V456.571H336.112V444.029Z" fill="#FFD165"/>
<path d="M356.67 444.029H353.574V456.571H356.67V444.029Z" fill="#FFD165"/>
<path d="M376.727 444.029H373.631V456.571H376.727V444.029Z" fill="#FFD165"/>
<path d="M384.63 456.822H264.338V469.395H384.63V456.822Z" fill="#FCD17D"/>
<path d="M264.338 456.822L384.63 469.395H264.338V456.822Z" fill="#FFA600"/>
<path d="M384.63 456.822V469.395L264.338 456.822H384.63Z" fill="#FFD165"/>
<path d="M278.041 456.822H274.945V469.363H278.041V456.822Z" fill="#FFD165"/>
<path d="M294.67 456.822H291.574V469.363H294.67V456.822Z" fill="#FFD165"/>
<path d="M313.262 456.822H310.166V469.363H313.262V456.822Z" fill="#FFD165"/>
<path d="M330.877 456.822H327.781V469.363H330.877V456.822Z" fill="#FFD165"/>
<path d="M351.42 456.822H348.324V469.363H351.42V456.822Z" fill="#FFD165"/>
<path d="M371.493 456.822H368.396V469.363H371.493V456.822Z" fill="#FFD165"/>
<path d="M393.29 469.458H272.998V482.032H393.29V469.458Z" fill="#FCD17D"/>
<path d="M272.998 469.458L393.29 482.032H272.998V469.458Z" fill="#FFA600"/>
<path d="M393.29 469.458V482.032L272.998 469.458H393.29Z" fill="#FFD165"/>
<path d="M286.702 469.458H283.605V482H286.702V469.458Z" fill="#FFD165"/>
<path d="M303.33 469.458H300.234V482H303.33V469.458Z" fill="#FFD165"/>
<path d="M321.922 469.458H318.826V482H321.922V469.458Z" fill="#FFD165"/>
<path d="M339.538 469.458H336.441V482H339.538V469.458Z" fill="#FFD165"/>
<path d="M360.08 469.458H356.984V482H360.08V469.458Z" fill="#FFD165"/>
<path d="M380.153 469.458H377.057V482H380.153V469.458Z" fill="#FFD165"/>
<path d="M545.205 483.878H521.222C520.232 483.878 519.745 482.778 520.452 482.149L532.286 471.478L531.249 466.512L540.6 465.364L542.062 471.274L545.205 483.878Z" fill="black"/>
<path d="M542.08 471.275L532.32 471.479L530.67 464.03L540.775 463.024L542.08 471.275Z" fill="#EC9F90"/>
<path d="M614.152 483.877H590.169C589.179 483.877 588.692 482.682 589.399 481.991L601.234 470.439L600.196 465.064L609.548 463.823L611.009 470.219L614.152 483.877Z" fill="black"/>
<path d="M611.008 470.238L601.233 470.442L600.18 465.067L609.531 463.841L611.008 470.238Z" fill="#EC9F90"/>
<path d="M580.927 344.708L581.54 345.227C581.54 345.227 592.761 365.124 592.18 382.318C591.598 399.511 594.474 412.666 594.474 412.666L614.135 460.962C614.135 460.962 606.875 468.788 599.252 466.494L575.583 421.435L563.168 384.974C563.168 384.974 547.326 406.741 537.581 414.756C537.581 414.756 541.668 425.254 545.22 463.445C545.22 463.445 531.279 466.698 527.853 465.158L517.166 412.854L548.473 361.305L544.371 350.869L580.927 344.708Z" fill="#050505"/>
<path d="M590.138 358.412C590.138 358.412 565.133 368.298 546.666 363.174L528.561 319.75C528.561 319.75 524.695 306.58 534.58 299.712C544.466 292.844 559.208 297.999 568.37 317.031C577.533 336.064 590.138 358.412 590.138 358.412Z" fill="#9AD954"/>
<path d="M495.699 344.76C495.699 344.76 479.826 344.053 476.965 344.76C474.105 345.467 471.527 349.475 471.527 349.475L474.671 353.766L483.613 350.999C483.613 350.999 490.403 355.337 494.992 353.263C499.581 351.204 495.699 344.76 495.699 344.76Z" fill="#EC9F90"/>
<path d="M523.061 276.457C523.061 276.457 517.843 277.022 516.585 271.302C515.328 265.581 518.754 262.139 523.061 263.852C523.061 263.852 521.127 257.267 527.823 257.55C534.518 257.833 537.095 262.988 537.095 262.988C537.095 262.988 544.828 258.697 548.269 266.995C551.711 275.294 544.262 288.464 544.262 288.464L538.478 292.629L523.061 276.457Z" fill="black"/>
<path d="M522.305 273.909L520.293 293.665L527.554 294.702L530.996 303.299C530.996 303.299 539.593 303.864 541.589 298.144L536.434 289.123C536.434 289.123 543.302 281.815 536.716 281.249L533.856 283.103C533.856 283.103 530.556 282.097 532.709 277.225C534.862 272.353 522.305 273.909 522.305 273.909Z" fill="#EC9F90"/>
<path d="M551.414 303.297C541.387 296.351 538.526 304.947 538.526 304.947C538.526 304.947 531.925 322.141 529.898 337.04L495.699 344.757L494.992 353.259C494.992 353.259 533.78 358.697 538.636 355.444C542.943 352.552 553.127 325.74 555.311 319.862C555.311 319.878 561.441 310.26 551.414 303.297Z" fill="#9AD954"/>
<path d="M300.564 158.839H294.356V152.631H290.993V158.839H284.785V162.202H290.993V168.41H294.356V162.202H300.564V158.839Z" fill="#B57AF8"/>
<path d="M666.376 137.779L663.83 135.233L657.182 141.881L650.534 135.233L647.973 137.779L654.621 144.443L647.973 151.091L650.534 153.637L657.182 146.989L663.83 153.637L666.376 151.091L659.728 144.443L666.376 137.779Z" fill="#B57AF8"/>
<path d="M575.614 91.2112H567.771V83.353H563.528V91.2112H555.686V95.4388H563.528V103.297H567.771V95.4388H575.614V91.2112Z" fill="white"/>
<path d="M206.047 350.574V359.344L202.668 365.929L202.008 352.24C202.008 352.24 198.535 349.254 200.012 345.592C201.505 341.915 206.047 350.574 206.047 350.574Z" fill="#EC9F90"/>
<path d="M194.842 280.391C183.684 281.051 192.453 292.524 192.453 292.524C192.453 292.524 201.946 306.48 212.115 315.815L200.029 345.598L206.064 350.58C206.064 350.58 230.44 324.208 230.534 318.864C230.613 314.102 211.879 290.685 208.61 285.955C208.594 285.955 202.7 279.92 194.842 280.391Z" fill="#7A4CAD"/>
<path d="M328.414 298.68C328.414 298.68 338.127 285.321 348.217 286.877L354.047 289.407C354.047 289.407 353.387 293.022 349.773 292.33C346.158 291.639 343.643 292.912 343.643 292.912L337.42 298.962L328.414 298.68Z" fill="#FFB0A3"/>
<path d="M193.287 469.387L202.214 469.56C202.575 469.827 203.047 469.371 203.581 469.418L214.897 480.247C215.604 480.891 215.117 481.991 214.127 481.991H192.658L193.287 469.387Z" fill="black"/>
<path d="M154.562 469.387L163.489 469.56C163.851 469.827 164.322 469.371 164.872 469.418L176.188 480.247C176.895 480.891 176.408 481.991 175.418 481.991H153.918L154.562 469.387Z" fill="black"/>
<path d="M201.285 337.452L207.698 469.39L191.683 470.648L186.402 406.918L183.746 370.645L177.711 403.398L167.291 470.208H153.162L158.207 399.893L161.9 343.094L201.285 337.452Z" fill="#0E0E0E"/>
<path d="M171.55 266.757L166.049 265.657L162.309 246.106C162.309 246.106 164.949 234.68 171.534 235.34C178.119 236 187.172 230.342 191.604 233.611C195.423 236.425 194.81 252.251 184.94 253.351L171.55 266.757Z" fill="black"/>
<path d="M152.723 285.946C152.723 285.946 173.154 276.532 201.286 281.232V331.979C201.286 331.979 203.486 338.8 202.386 340.906C202.386 340.906 180.415 352.191 158.648 346.784C158.648 346.784 157.107 342.321 159.748 337.622C159.748 337.622 159.968 299.132 152.723 285.946Z" fill="#9AD954"/>
<path d="M171.456 255.159C171.456 255.159 168.391 253.289 167.841 255.159C167.291 257.029 167.008 260.172 169.648 259.999L171.676 264.872L169.57 281.421C169.57 281.421 176.186 286.859 182.599 280.525L183.149 268.738L189.545 266.129L186.481 247.646C186.481 247.646 180.634 252.959 175.07 247.646L173.955 258.271L171.723 258.585L171.456 255.159Z" fill="#EC9F90"/>
<path d="M274.428 301.399L306.819 304.763L331.619 293.164L337.434 298.948C337.434 298.948 317.113 316.236 311.99 317.697C306.866 319.159 273.94 315.355 273.94 315.355C273.94 315.355 267.135 314.004 265.909 306.9C264.684 299.812 274.428 301.399 274.428 301.399Z" fill="#9AD954"/>
<path d="M374.272 367.336C406.789 362.116 428.917 331.525 423.698 299.008C418.478 266.492 387.887 244.364 355.37 249.583C322.854 254.803 300.725 285.394 305.945 317.91C311.165 350.427 341.756 372.555 374.272 367.336Z" fill="#FFA600"/>
<path d="M363.981 365.49C396.682 361.611 420.046 331.957 416.167 299.256C412.288 266.555 382.634 243.191 349.933 247.07C317.232 250.949 293.867 280.604 297.747 313.304C301.626 346.005 331.28 369.37 363.981 365.49Z" fill="#FFD165"/>
<path d="M337.831 353.026C312.748 342.339 300.583 313.421 310.705 287.93C315.687 275.388 325.242 265.534 337.627 260.19C350.011 254.847 363.731 254.643 376.273 259.609C388.814 264.575 398.669 274.146 404.012 286.531C409.356 298.915 409.56 312.636 404.594 325.177C394.315 351.062 364.91 363.761 339.025 353.482C338.617 353.356 338.224 353.199 337.831 353.026ZM377.232 260.693C376.839 260.52 376.446 260.363 376.053 260.206C363.668 255.287 350.105 255.491 337.878 260.772C325.651 266.053 316.205 275.781 311.286 288.165C301.291 313.343 313.298 341.884 338.082 352.445C338.475 352.602 338.852 352.775 339.245 352.932C364.816 363.085 393.859 350.543 404.012 324.973C408.931 312.588 408.727 299.025 403.446 286.798C398.339 274.964 389.05 265.738 377.232 260.693Z" fill="#FFA600"/>
<path d="M340.565 340.189L344.227 331.592C339.323 329.407 334.86 325.698 332.801 322.288L337.28 317.447C339.48 320.795 343.221 324.3 347.983 326.327C354.033 328.905 359.597 327.16 361.672 322.304C363.668 317.62 361.577 313.314 356.359 308.065C349.13 300.961 345.437 294.753 348.58 287.351C351.597 280.278 358.906 277.057 367.282 279.115L370.944 270.519L376.225 272.766L372.704 281.033C377.734 283.374 380.657 286.235 382.511 288.734L377.985 293.449C376.633 291.657 373.946 288.309 368.492 285.983C361.939 283.186 357.79 286.046 356.344 289.457C354.458 293.889 356.658 297.441 362.772 303.664C370.017 310.972 372.563 317.29 369.325 324.865C366.465 331.592 359.094 335.898 349.696 333.604L345.924 342.468L340.565 340.189Z" fill="#FFA600"/>
<path d="M240.606 482.196H261.053C261.053 482.196 260.016 478.094 255.615 477.23C253.839 476.884 252.393 475.925 251.277 474.92C249.627 473.427 248.763 471.792 248.763 471.792C248.763 471.792 260.188 429.39 264.888 414.962L254.845 403.678L248.826 409.351C248.826 409.351 244.472 449.051 239.396 471.651C238.877 473.961 238.343 476.098 237.824 478C237.211 480.075 238.626 482.196 240.606 482.196Z" fill="#FFB0A3"/>
<path d="M282.791 425.697L290.586 472.893L291.655 479.321C291.938 480.987 293.242 482.213 294.783 482.213H310.766C310.766 482.213 311.159 478.032 305.91 476.963C304.794 476.728 303.804 476.256 302.955 475.596C299.796 473.223 298.334 468.665 298.35 466.654C298.366 464.076 296.794 419.693 296.794 419.693L282.791 425.697Z" fill="#FFB0A3"/>
<path d="M265.91 251.388C265.91 251.388 283.009 251.482 283.323 261.761C283.638 272.055 275.308 284.754 277.021 289.076C278.734 293.398 278.483 317.239 255.081 319.455C231.68 321.671 228.395 305.829 235.231 293.916C242.068 282.003 254.845 253.808 265.91 251.388Z" fill="black"/>
<path d="M292.234 335.293L295.645 356.652L301.365 425.693C301.365 425.693 276.424 444.82 250.177 434.384C250.177 434.384 242.665 428.459 233.094 429.937L256.37 357.972C256.37 357.972 262.373 336.755 269.163 333.91C280.966 328.944 292.234 335.293 292.234 335.293Z" fill="#9AD954"/>
<path d="M260.002 314.192L269.165 333.806C269.165 333.806 282.838 338.882 292.236 335.11L294.515 314.789C294.515 314.789 290.727 309.257 286.452 303.143C283.671 299.167 274.932 298.476 271.271 301.65L260.002 314.192Z" fill="#7A4CAD"/>
<path d="M319.281 321.466C319.281 321.466 333.064 312.366 341.976 317.38L346.549 321.796C346.549 321.796 344.663 324.939 341.52 323.022C338.377 321.105 335.579 321.403 335.579 321.403L327.627 324.892L319.281 321.466Z" fill="#FFB0A3"/>
<path d="M289.658 469.575L298.584 469.748C298.946 470.015 299.417 469.559 299.967 469.606L311.283 480.435C311.99 481.079 311.503 482.179 310.513 482.179H288.416L289.658 469.575Z" fill="black"/>
<path d="M239.351 469.575L248.277 469.748C248.639 470.015 249.11 469.559 249.645 469.606L260.96 480.435C261.668 481.079 261.18 482.179 260.19 482.179H236.836L239.351 469.575Z" fill="black"/>
<path d="M283.326 261.763C283.326 261.763 285.196 265.629 285.966 276.599C286.736 287.569 285.353 286.752 285.353 286.752L279.916 288.48L277.244 301.148L263.523 303.112C263.523 303.112 271.004 298.303 271.272 288.48C271.539 278.673 266.054 283.388 267.217 276.316C268.38 269.244 271.79 276.583 271.79 276.583C271.79 276.583 280.969 274.194 283.326 261.763Z" fill="#EC9F90"/>
<path d="M273.407 302.166L296.934 319.58L324.218 317.427L327.628 324.892C327.628 324.892 302.529 333.944 297.217 333.52C291.905 333.096 262.421 317.961 262.421 317.961C262.421 317.961 258.005 314.425 257.879 307.227C257.754 300.862 262.359 299.62 266.131 299.667C268.739 299.683 271.285 300.595 273.407 302.166Z" fill="#9AD954"/>
<path d="M152.721 285.948C152.721 285.948 136.219 317.349 142.977 340.452C142.977 340.452 156.273 352.616 189.544 332.012L186.432 321.624L157.404 326.511C157.404 326.511 163.817 294.796 152.721 285.948Z" fill="#7A4CAD"/>
<path d="M186.447 321.63C186.447 321.63 190.926 318.926 196.113 318.046C201.299 317.166 196.113 319.838 196.113 319.838C196.113 319.838 200.671 318.313 206.061 317.873C211.436 317.433 199.649 328.702 199.649 328.702L189.166 330.729L186.447 321.63Z" fill="#EC9F90"/>
<path d="M465.508 150.951L465.319 151.139V161.889H375.391V176.977H465.319V187.727L465.508 187.915L485.247 169.433L465.508 150.951Z" fill="#B57AF8"/>
<path d="M376.536 229.314L376.741 229.141V218.391H466.669V203.303H376.741V192.553L376.536 192.365L356.812 210.847L376.536 229.314Z" fill="#9AD954"/>
</svg>
