<svg width="50" height="50" viewBox="0 0 50 50" fill="none" xmlns="http://www.w3.org/2000/svg">
<g clip-path="url(#clip0_82_49)">
<path d="M25.0002 1.46533C37.9984 1.46533 48.5354 12.0023 48.5354 25.0005C48.5354 37.9986 37.9984 48.5356 25.0002 48.5356C12.0021 48.5356 1.46509 37.9986 1.46509 25.0005" stroke="white" stroke-width="2.92969" stroke-miterlimit="10"/>
<path d="M0.852051 18.5298L3.68193 19.2881" stroke="white" stroke-width="2.92969" stroke-miterlimit="10"/>
<path d="M3.34955 12.5005L5.88676 13.9653" stroke="white" stroke-width="2.92969" stroke-miterlimit="10"/>
<path d="M7.32257 7.32275L9.39415 9.39434" stroke="white" stroke-width="2.92969" stroke-miterlimit="10"/>
<path d="M12.5002 3.34961L13.9651 5.88682" stroke="white" stroke-width="2.92969" stroke-miterlimit="10"/>
<path d="M18.5298 0.852539L19.2881 3.68242" stroke="white" stroke-width="2.92969" stroke-miterlimit="10"/>
<path d="M17.676 11.8169V17.6763C17.676 21.7213 20.9552 25.0005 25.0002 25.0005C29.0453 25.0005 32.3245 21.7213 32.3245 17.6763V11.8169" stroke="white" stroke-width="2.92969" stroke-miterlimit="10"/>
<path d="M13.2815 11.8169H36.719" stroke="white" stroke-width="2.92969" stroke-miterlimit="10"/>
<path d="M32.3245 38.1841V32.3247C32.3245 28.2797 29.0453 25.0005 25.0002 25.0005C20.9552 25.0005 17.676 28.2797 17.676 32.3247V38.1841" stroke="white" stroke-width="2.92969" stroke-miterlimit="10"/>
<path d="M36.719 38.1841H13.2815" stroke="white" stroke-width="2.92969" stroke-miterlimit="10"/>
<path d="M17.676 38.1841C17.676 38.1841 20.5364 32.3247 25.0002 32.3247C29.4641 32.3247 32.3245 38.1841 32.3245 38.1841" stroke="white" stroke-width="2.92969" stroke-miterlimit="10"/>
<path d="M25.0002 32.3247V25.0005" stroke="white" stroke-width="2.92969" stroke-miterlimit="10"/>
<path d="M17.676 17.6763H32.3245" stroke="white" stroke-width="2.92969" stroke-miterlimit="10"/>
</g>
<defs>
<clipPath id="clip0_82_49">
<rect width="50" height="50" fill="white"/>
</clipPath>
</defs>
</svg>
