<svg width="21" height="21" viewBox="0 0 21 21" fill="none" xmlns="http://www.w3.org/2000/svg">
<path d="M10.0498 0.62793C8.18634 0.62793 6.36472 1.18051 4.8153 2.2158C3.26588 3.25109 2.05825 4.72259 1.34513 6.44421C0.632012 8.16583 0.445427 10.0603 0.808973 11.8879C1.17252 13.7156 2.06986 15.3944 3.38754 16.7121C4.70521 18.0297 6.38403 18.9271 8.21169 19.2906C10.0394 19.6542 11.9338 19.4676 13.6554 18.7545C15.377 18.0414 16.8485 16.8337 17.8838 15.2843C18.9191 13.7349 19.4717 11.9133 19.4717 10.0498C19.4689 7.55182 18.4754 5.15693 16.709 3.39058C14.9427 1.62423 12.5478 0.63069 10.0498 0.62793ZM10.0498 18.2154C8.4348 18.2154 6.85606 17.7365 5.51323 16.8393C4.1704 15.942 3.12379 14.6667 2.50576 13.1747C1.88772 11.6826 1.72601 10.0407 2.04108 8.45677C2.35616 6.87279 3.13386 5.41782 4.27584 4.27584C5.41782 3.13385 6.8728 2.35615 8.45677 2.04108C10.0408 1.72601 11.6826 1.88771 13.1747 2.50575C14.6667 3.12379 15.942 4.1704 16.8393 5.51323C17.7365 6.85606 18.2154 8.4348 18.2154 10.0498C18.2129 12.2147 17.3518 14.2902 15.821 15.821C14.2902 17.3518 12.2147 18.2129 10.0498 18.2154Z" fill="#6F798C"/>
<path d="M13.1906 12.5627H8.16562C7.99913 12.5624 7.83956 12.4961 7.72184 12.3784C7.60411 12.2606 7.53783 12.1011 7.5375 11.9346V10.9384L7.72154 11.1224C7.84 11.2368 7.99867 11.3001 8.16336 11.2987C8.32805 11.2973 8.48559 11.2312 8.60205 11.1148C8.71851 10.9983 8.78457 10.8408 8.786 10.6761C8.78743 10.5114 8.72412 10.3527 8.60971 10.2342L7.35421 8.97875C7.2361 8.86103 7.07613 8.79492 6.90937 8.79492C6.74261 8.79492 6.58265 8.86103 6.46453 8.97875L5.20904 10.2342C5.09462 10.3527 5.03131 10.5114 5.03274 10.6761C5.03417 10.8408 5.10023 10.9983 5.21669 11.1148C5.33315 11.2312 5.49069 11.2973 5.65538 11.2987C5.82007 11.3001 5.97874 11.2368 6.09721 11.1224L6.28125 10.9384V11.9346C6.28181 12.4342 6.48053 12.9131 6.83379 13.2664C7.18706 13.6197 7.66603 13.8184 8.16562 13.819H13.1906C13.3572 13.819 13.517 13.7528 13.6348 13.635C13.7526 13.5172 13.8187 13.3574 13.8187 13.1908C13.8187 13.0242 13.7526 12.8645 13.6348 12.7467C13.517 12.6289 13.3572 12.5627 13.1906 12.5627Z" fill="#6F798C"/>
<path d="M14.0028 8.97779L13.8188 9.16183V8.16563C13.8182 7.66603 13.6195 7.18706 13.2662 6.8338C12.9129 6.48053 12.434 6.28182 11.9344 6.28125H6.90938C6.74279 6.28125 6.58302 6.34743 6.46522 6.46522C6.34743 6.58302 6.28125 6.74279 6.28125 6.90938C6.28125 7.07596 6.34743 7.23573 6.46522 7.35353C6.58302 7.47132 6.74279 7.5375 6.90938 7.5375H11.9344C12.1009 7.53783 12.2604 7.60412 12.3782 7.72184C12.4959 7.83956 12.5622 7.99914 12.5625 8.16563V9.16183L12.3785 8.97779C12.26 8.86337 12.1013 8.80006 11.9366 8.80149C11.7719 8.80292 11.6144 8.86898 11.4979 8.98544C11.3815 9.1019 11.3154 9.25944 11.314 9.42414C11.3126 9.58883 11.3759 9.74749 11.4903 9.86596L12.7458 11.1215C12.8639 11.2392 13.0239 11.3053 13.1906 11.3053C13.3574 11.3053 13.5174 11.2392 13.6355 11.1215L14.891 9.86596C15.0054 9.74749 15.0687 9.58883 15.0673 9.42414C15.0658 9.25944 14.9998 9.1019 14.8833 8.98544C14.7668 8.86898 14.6093 8.80292 14.4446 8.80149C14.2799 8.80006 14.1213 8.86337 14.0028 8.97779Z" fill="#6F798C"/>
</svg>
