<svg width="50" height="50" viewBox="0 0 50 50" fill="none" xmlns="http://www.w3.org/2000/svg">
<g clip-path="url(#clip0_82_87)">
<path d="M4.50671 3.54346L13.2303 4.61465L12.1592 13.3382" stroke="white" stroke-width="2.92969" stroke-miterlimit="10"/>
<path d="M25 48.5352C12.0019 48.5352 1.46484 37.9981 1.46484 25C1.46484 16.2896 6.19668 8.68438 13.2302 4.61475" stroke="white" stroke-width="2.92969" stroke-miterlimit="10"/>
<path d="M45.4935 46.4563L36.7699 45.3852L37.8411 36.6616" stroke="white" stroke-width="2.92969" stroke-miterlimit="10"/>
<path d="M25 1.46484C37.9981 1.46484 48.5352 12.0019 48.5352 25C48.5352 33.7104 43.8033 41.3156 36.7698 45.3853" stroke="white" stroke-width="2.92969" stroke-miterlimit="10"/>
<path d="M25 36.7188C31.4721 36.7188 36.7188 31.4721 36.7188 25C36.7188 18.5279 31.4721 13.2812 25 13.2812C18.5279 13.2812 13.2812 18.5279 13.2812 25C13.2812 31.4721 18.5279 36.7188 25 36.7188Z" stroke="white" stroke-width="2.92969" stroke-miterlimit="10"/>
<path d="M20.8569 20.8569L29.1432 29.1433" stroke="white" stroke-width="2.92969" stroke-miterlimit="10"/>
<path d="M29.1432 20.8569L20.8569 29.1433" stroke="white" stroke-width="2.92969" stroke-miterlimit="10"/>
</g>
<defs>
<clipPath id="clip0_82_87">
<rect width="50" height="50" fill="white"/>
</clipPath>
</defs>
</svg>
