<svg width="937" height="777" viewBox="0 0 937 777" fill="none" xmlns="http://www.w3.org/2000/svg">
<path d="M899.557 775.617H458.854C438.336 775.617 421.703 758.984 421.703 738.466V106.31C421.703 85.792 438.336 69.1587 458.854 69.1587H899.557C920.075 69.1587 936.708 85.7915 936.708 106.31V738.466C936.708 758.984 920.076 775.617 899.557 775.617Z" fill="#A9BAE6"/>
<path d="M892.138 97.6294H468.25V713.378H892.138V97.6294Z" fill="#F6F5F5"/>
<path d="M892.137 97.6328C892.27 337.741 900.021 627.325 873.051 691.44C754.254 703.014 615.153 706.729 468.244 707.421L524.087 99.4887L892.137 97.6328Z" fill="#E4E4E4"/>
<path d="M854.064 672.038C668.901 701.672 545.148 703.234 444.777 695.782C457.785 557.323 462.998 327.307 468.243 97.6611L691.367 98.1565L893.304 111.486C896.247 349.835 896.569 570.002 854.064 672.038Z" fill="white"/>
<path d="M788.624 159.627L565.639 154.385L564.84 188.35L787.826 193.592L788.624 159.627Z" fill="#708CD5"/>
<path d="M831.613 242.742L630.48 238.014L630.115 253.56L831.247 258.288L831.613 242.742Z" fill="#708CD5"/>
<path d="M766.397 275.124L629.684 271.911L629.318 287.457L766.031 290.671L766.397 275.124Z" fill="#D3DFFF"/>
<path d="M567.106 237.439L519.49 236.319L518.371 283.935L565.986 285.054L567.106 237.439Z" fill="white" stroke="#708CD5" stroke-width="6" stroke-miterlimit="10"/>
<path d="M527.26 248.881C528.73 254.509 531.446 278.084 543.251 271.492C545.974 269.972 548.279 265.953 550.316 263.641C553.977 259.484 557.637 255.328 561.299 251.171C568.62 242.858 575.943 234.545 583.264 226.232C585.141 224.102 576.855 218.758 574.5 221.432C567.991 228.822 561.483 236.211 554.975 243.6C551.721 247.295 548.466 250.99 545.212 254.685C542.953 257.249 537.732 265.519 534.381 266.252C536.203 266.84 538.025 267.429 539.847 268.017C541.135 269.074 538.742 261.584 538.689 261.381C537.781 257.904 536.873 254.427 535.965 250.95C535.214 248.078 526.149 244.624 527.26 248.881Z" fill="#EE6F57"/>
<path d="M794.074 328.474L628.445 324.58L628.08 340.127L793.709 344.02L794.074 328.474Z" fill="#708CD5"/>
<path d="M828.781 363.206L627.648 358.478L627.283 374.024L828.415 378.752L828.781 363.206Z" fill="#D3DFFF"/>
<path d="M565.07 324.006L517.455 322.886L516.336 370.502L563.951 371.621L565.07 324.006Z" fill="white" stroke="#708CD5" stroke-width="6" stroke-miterlimit="10"/>
<path d="M525.19 336.792C526.66 342.421 529.375 365.996 541.181 359.403C543.903 357.883 546.209 353.864 548.245 351.552C551.906 347.396 555.567 343.239 559.228 339.083C566.55 330.77 573.872 322.457 581.194 314.143C583.071 312.013 574.785 306.67 572.429 309.344C565.921 316.733 559.412 324.123 552.904 331.512C549.65 335.207 546.395 338.901 543.141 342.596C540.883 345.16 535.661 353.43 532.31 354.164C534.132 354.752 535.954 355.341 537.776 355.929C539.064 356.986 536.671 349.496 536.618 349.293C535.71 345.816 534.802 342.338 533.894 338.861C533.144 335.989 524.078 332.536 525.19 336.792Z" fill="#EE6F57"/>
<path d="M827.546 415.875L626.414 411.146L626.049 426.693L827.181 431.421L827.546 415.875Z" fill="#708CD5"/>
<path d="M715.565 447.159L625.615 445.044L625.25 460.591L715.199 462.705L715.565 447.159Z" fill="#D3DFFF"/>
<path d="M563.037 410.571L515.422 409.452L514.303 457.068L561.918 458.187L563.037 410.571Z" fill="white" stroke="#708CD5" stroke-width="6" stroke-miterlimit="10"/>
<path d="M523.801 423.975C525.271 429.603 527.987 453.178 539.792 446.586C542.515 445.066 544.82 441.047 546.857 438.735C550.518 434.578 554.178 430.422 557.84 426.265C565.162 417.952 572.484 409.64 579.805 401.326C581.682 399.196 573.396 393.852 571.041 396.527C564.532 403.916 558.024 411.305 551.516 418.695C548.262 422.39 545.007 426.084 541.753 429.779C539.494 432.343 534.273 440.613 530.922 441.346C532.744 441.934 534.566 442.523 536.388 443.112C537.676 444.168 535.283 436.679 535.23 436.475C534.322 432.998 533.414 429.521 532.506 426.044C531.755 423.172 522.69 419.718 523.801 423.975Z" fill="#EE6F57"/>
<path d="M825.509 502.441L624.377 497.713L624.012 513.259L825.144 517.987L825.509 502.441Z" fill="#708CD5"/>
<path d="M782.467 535.345L623.58 531.61L623.215 547.157L782.102 550.892L782.467 535.345Z" fill="#D3DFFF"/>
<path d="M561 497.138L513.385 496.019L512.265 543.634L559.881 544.754L561 497.138Z" fill="white" stroke="#708CD5" stroke-width="6" stroke-miterlimit="10"/>
<path d="M521.776 509.976C523.246 515.604 525.961 539.179 537.767 532.587C540.489 531.067 542.795 527.047 544.831 524.736C548.492 520.579 552.153 516.423 555.814 512.266C563.136 503.953 570.458 495.64 577.78 487.327C579.657 485.196 571.371 479.853 569.015 482.527C562.507 489.916 555.998 497.306 549.49 504.695C546.236 508.39 542.982 512.085 539.728 515.779C537.469 518.344 532.248 526.614 528.896 527.347C530.718 527.935 532.541 528.524 534.363 529.112C535.65 530.169 533.258 522.679 533.205 522.476C532.297 518.999 531.389 515.522 530.481 512.045C529.73 509.173 520.664 505.719 521.776 509.976Z" fill="#EE6F57"/>
<path d="M702.088 585.5L622.359 583.625L621.994 599.172L701.722 601.046L702.088 585.5Z" fill="#708CD5"/>
<path d="M822.7 622.299L621.563 617.566L621.197 633.113C699.015 634.939 798.097 638.584 818.314 635.482C821.383 631.993 823.038 627.708 822.7 622.299Z" fill="#D3DFFF"/>
<path d="M559.649 583.066L512.033 581.946L510.914 629.562L558.529 630.681L559.649 583.066Z" fill="white" stroke="#708CD5" stroke-width="6" stroke-miterlimit="10"/>
<path d="M519.768 595.224C521.238 600.852 523.953 624.426 535.759 617.835C538.481 616.314 540.787 612.295 542.823 609.984C546.484 605.827 550.145 601.671 553.807 597.514C561.128 589.201 568.451 580.888 575.772 572.575C577.649 570.444 569.363 565.101 567.007 567.775C560.499 575.164 553.99 582.554 547.482 589.943C544.229 593.638 540.974 597.332 537.72 601.027C535.461 603.591 530.24 611.861 526.888 612.595C528.71 613.183 530.533 613.772 532.355 614.36C533.642 615.417 531.25 607.927 531.197 607.724C530.289 604.247 529.381 600.769 528.473 597.292C527.722 594.421 518.657 590.967 519.768 595.224Z" fill="#EE6F57"/>
<path d="M774.675 73.4372V120.962H583.734V73.4372C583.734 65.8595 586.813 59.0016 591.772 54.0232C592.392 53.4034 593.031 52.8236 593.711 52.2837C598.45 48.345 604.548 45.9857 611.186 45.9857C616.164 45.9857 620.943 44.846 625.221 42.7867C627.081 41.887 628.84 40.8273 630.5 39.6077C635.958 35.5689 640.137 29.8307 642.216 22.9928C644.336 16.015 648.674 10.1768 654.292 6.1181C659.691 2.23931 666.269 0 673.247 0H685.163C692.141 0 698.719 2.23931 704.117 6.1181C709.735 10.1768 714.074 16.015 716.193 22.9928C718.273 29.8307 722.451 35.5689 727.909 39.6077C729.569 40.8273 731.328 41.887 733.188 42.7867C737.467 44.846 742.245 45.9857 747.224 45.9857C753.861 45.9857 759.96 48.345 764.698 52.2837C770.796 57.3022 774.675 64.9198 774.675 73.4372Z" fill="#EE6F57"/>
<path d="M790.169 97.6294V132.958H568.238V97.6294H583.733V120.962H774.674V97.6294H790.169Z" fill="#E4E4E4"/>
<path d="M679.208 44.5841C688.561 44.5841 696.144 37.3775 696.144 28.4876C696.144 19.5978 688.561 12.3911 679.208 12.3911C669.854 12.3911 662.271 19.5978 662.271 28.4876C662.271 37.3775 669.854 44.5841 679.208 44.5841Z" fill="white"/>
<path d="M367.278 250.776C360.506 249.495 354.176 238.179 351.976 233.841C351.436 232.775 351.268 231.571 351.489 230.397L354.185 216.112C354.185 216.112 360.404 217.169 359.923 225.451C359.873 226.311 360.049 227.168 360.356 227.973L362.737 234.201L369.776 228.752L365.916 217.853C365.916 217.853 360.751 219.272 358.082 218.421C352.606 216.673 359.785 212.404 362.056 211.95C364.327 211.496 369.322 209.679 371.593 213.54C373.863 217.399 375.226 219.67 375.226 219.67C375.226 219.67 377.723 211.042 376.02 191.742C375.944 190.874 378.12 190.892 378.73 191.514C380.559 193.374 383.471 199.039 383.627 216.264C383.627 216.264 383.931 196.191 387.373 194.126C390.211 192.423 391.645 202.248 389.646 218.909C389.646 218.909 393.351 204.483 396.002 204.457C400.476 204.414 396.061 242.985 384.814 254.482L367.278 250.776Z" fill="#F9B384"/>
<path d="M388.512 244.874C388.312 246.793 388.092 248.652 387.852 250.452V250.472C387.052 256.87 386.053 262.588 384.893 267.486C384.833 267.726 384.793 267.946 384.733 268.166C381.314 282.182 380.694 289.04 369.018 287.2L357.002 273.525L356.882 273.385L356.002 272.385L358.441 265.187L358.761 264.247L360.561 259.009L360.78 258.329L363.859 249.312L365.099 245.653L388.512 244.874Z" fill="#F9B384"/>
<path d="M165.277 742.845L162.218 752.404C141.245 759.294 129.012 767.188 128.229 776.397H188.876L193.738 744.39C181.455 747.386 171.612 745.301 165.277 742.845Z" fill="#1F3C88"/>
<path d="M172.881 719.081L165.277 742.845C171.612 745.301 181.455 747.386 193.738 744.389L196.874 723.746L172.881 719.081Z" fill="#F9B384"/>
<path d="M276.569 741.786L278.348 717.582L249.857 719.081L248.301 741.394C260.364 745.239 270.333 743.734 276.569 741.786Z" fill="#F9B384"/>
<path d="M310.839 776.397C310.055 767.188 299.343 754.57 275.85 751.571L276.57 741.785C270.334 743.734 260.364 745.239 248.302 741.394L245.859 776.397H310.839Z" fill="#1F3C88"/>
<path d="M253.475 256.99L219.105 257.229V205.246H252.435L252.455 208.425L252.615 224.899L252.855 251.351L253.475 256.99Z" fill="#F9B384"/>
<path d="M252.614 227.399C246.436 233.897 230.321 226.559 223.523 219.401L252.454 210.924L252.614 227.399Z" fill="#E28B6D"/>
<path d="M260.593 193.249C260.573 197.088 260.333 201.107 259.693 204.946C258.014 215.422 253.575 224.48 243.338 224.76C219.146 225.459 212.248 211.624 207.689 200.307C203.131 188.971 210.528 161.719 210.528 161.719L241.839 158.62L259.033 172.716C259.033 172.716 260.693 182.293 260.593 193.249Z" fill="#F9B384"/>
<path d="M208.664 193.826C208.664 193.826 215.566 193.508 216.745 175.693C229.087 179.823 238.106 176.057 245.251 167.838C251.349 175.891 268.417 178.413 274.181 161.925C278.347 150.013 266.85 132.268 250.105 143.015C233.695 134.724 208.804 135.293 201.641 155.63C201.641 155.63 176.741 167.111 203.107 192.389C203.635 192.896 208.664 193.826 208.664 193.826Z" fill="#102048"/>
<path d="M303.842 443.821L284.845 731.082H240.191L251.355 452.335L258.186 449.17L303.842 443.821Z" fill="#102048"/>
<path d="M187.543 404.517L156.219 731.082H204.871L251.189 459.833L303.84 443.838L306.172 385.856L188.876 383.19L187.543 404.517Z" fill="#1F3C88"/>
<path opacity="0.6" d="M194.527 405.23C221.101 414.769 283.447 403.867 296.393 390.58L287.195 372.183L184.646 385.811L194.527 405.23Z" fill="#102048"/>
<path d="M294.003 386.149C293.144 386.509 292.264 386.889 291.364 387.229C281.427 391.268 270.111 394.807 258.055 397.146C250.857 398.566 243.359 399.525 235.721 399.885C224.205 400.465 212.369 399.705 200.652 397.046L215.548 258.169L217.367 241.235C217.367 241.235 236.861 265.227 258.354 238.735L294.003 386.149Z" fill="white"/>
<path opacity="0.3" d="M235.721 399.885C224.205 400.465 212.369 399.705 200.652 397.046L215.548 258.169L220.866 250.481C234.002 282.432 247.458 353.18 235.721 399.885Z" fill="#1F3C88"/>
<path d="M219.116 235.736C233.925 298.618 240.02 363.323 218.199 435.174C202.018 441.33 184.401 441.26 165.549 435.841L170.214 305.215L60.4144 380.691L53.75 339.538C95.9579 299.179 168.934 238.21 219.116 235.736Z" fill="#708CD5"/>
<path opacity="0.3" d="M291.362 387.229C281.425 391.268 270.109 394.807 258.053 397.146C251.435 359.198 249.975 296.857 255.353 268.726L291.362 387.229Z" fill="#1F3C88"/>
<path opacity="0.6" d="M384.894 267.486C384.834 267.726 384.794 267.946 384.734 268.166C381.315 282.182 380.695 289.04 369.019 287.2L357.003 273.524L356.883 273.384L358.442 265.187L358.762 264.247L360.562 259.009L360.782 258.329L384.894 267.486Z" fill="#E28B6D"/>
<path d="M382.815 280.222C382.815 280.222 353.324 342.703 335.83 344.202C318.87 345.656 310.837 329.207 310.837 329.207L322.834 420.519C308.738 427.117 293.363 430.336 275.508 427.177C259.653 375.693 253.66 309.123 252.48 234.986C265.316 235.786 290.739 236.883 299.841 242.734C316.169 253.231 336.329 290.719 336.329 290.719L359.822 258.729L382.815 280.222Z" fill="#708CD5"/>
<path d="M23.2969 192.187C23.2969 192.187 25.0818 162.297 28.1239 163.708C31.1659 165.118 37.267 191.108 37.267 191.108L30.7436 201.635L23.2969 192.187Z" fill="#6F3428"/>
<path d="M113.047 731.915L113.931 741.752C115.491 759.117 102.677 774.461 85.3121 776.021L82.7834 776.248C65.4188 777.808 50.0751 764.994 48.5146 747.63L47.6309 737.792L113.047 731.915Z" fill="#EE6F57"/>
<path d="M70.2606 255.582L4.84375 261.46L47.6472 737.798L113.064 731.92L70.2606 255.582Z" fill="#FBC343"/>
<path opacity="0.3" d="M48.3052 247.925L25.0723 250.013L62.5909 667.539L85.8239 665.452L48.3052 247.925Z" stroke="#6F3428" stroke-width="8" stroke-miterlimit="10"/>
<path d="M113.037 731.922L47.6375 737.8L45.918 718.606L44.7184 705.27L41.0195 664.283L106.439 658.405L110.118 699.392L111.318 712.728L113.037 731.922Z" fill="#102048"/>
<path d="M110.107 699.411L44.707 705.288L45.9054 718.624L111.306 712.747L110.107 699.411Z" fill="#FBC343"/>
<path d="M4.82617 261.461L22.997 188.638C22.997 188.638 29.2691 191.42 36.8767 186.722L70.2473 255.584L4.82617 261.461Z" fill="#EE6F57"/>
<path d="M212.284 190.811C211.991 189.737 207.11 188.261 206.034 187.963C204.371 187.504 202.557 187.278 200.935 188.011C195.032 190.678 195.82 199.132 198.879 203.575C200.612 206.092 203.149 208.029 206.099 208.874C207.171 209.181 217.327 209.302 216.882 207.67C216.88 207.663 212.294 190.848 212.284 190.811Z" fill="#F9B384"/>
<path d="M26.4255 360.697C24.891 355.881 19.843 353.179 15.0655 354.828C7.62383 357.397 1.14234 361.757 0.138148 369.173C-0.776068 375.926 2.60138 397.498 17.6877 400.269L16.4561 389.185C16.4561 389.185 25.6927 387.03 27.5396 383.028C28.8327 380.225 28.9187 368.523 26.4255 360.697Z" fill="#F9B384"/>
<path d="M306.227 286.508C307.02 291.229 307.695 295.963 308.343 300.701C309.014 305.436 309.546 310.187 310.155 314.93L311.705 329.189C312.157 333.95 312.599 338.712 312.892 343.491L312.116 343.582C311.298 338.864 310.629 334.128 309.97 329.392L308.188 315.16C307.685 310.405 307.107 305.659 306.667 300.897C306.204 296.138 305.769 291.375 305.451 286.599L306.227 286.508Z" fill="#1F3C88"/>
<path d="M171.771 285.739C171.761 291.04 171.631 296.336 171.474 301.631C171.34 306.926 171.067 312.215 170.87 317.508L170.004 333.372C169.65 338.657 169.286 343.942 168.772 349.219L167.991 349.182C167.977 343.88 168.113 338.585 168.259 333.289L168.892 317.414C169.195 312.126 169.422 306.835 169.788 301.551C170.131 296.265 170.501 290.981 170.99 285.702L171.771 285.739Z" fill="#1F3C88"/>
<path d="M236.548 190.315C236.971 192.2 236.194 193.98 234.814 194.289C233.433 194.599 231.972 193.32 231.549 191.435C231.126 189.55 231.903 187.77 233.283 187.461C234.664 187.151 236.125 188.429 236.548 190.315Z" fill="#102048"/>
<path d="M256.477 187.985C256.395 189.915 255.183 191.432 253.769 191.372C252.356 191.312 251.276 189.699 251.358 187.768C251.439 185.837 252.652 184.32 254.066 184.38C255.479 184.44 256.559 186.054 256.477 187.985Z" fill="#102048"/>
<path d="M245.365 189.568C246.05 191.22 245.942 193.001 246.384 194.356C246.61 195.041 246.922 195.643 247.352 196.018C247.754 196.383 248.404 196.621 249.228 196.941C250.078 197.269 250.981 197.855 251.598 198.725C252.251 199.571 252.432 201.038 251.84 201.997C251.308 202.958 250.543 203.485 249.886 203.973C249.2 204.435 248.54 204.928 247.828 205.36L247.314 204.771C247.838 204.124 248.416 203.537 248.967 202.919C249.535 202.334 250.057 201.763 250.258 201.236C250.682 200.311 249.776 199.299 248.463 198.776C247.787 198.468 246.813 198.197 246.026 197.393C245.268 196.619 244.893 195.652 244.743 194.749C244.412 192.897 244.79 191.312 244.611 189.772L245.365 189.568Z" fill="#E28B6D"/>
<path d="M227.008 185.253C227.303 184.066 228.025 182.945 229.049 182.136C230.055 181.299 231.37 180.847 232.673 180.779C235.298 180.62 237.897 182.114 238.977 184.321L238.365 184.807C236.629 183.444 234.717 182.696 232.769 182.767C230.815 182.819 229.042 183.823 227.716 185.583L227.008 185.253Z" fill="#102048"/>
<path d="M247.645 182.804C247.939 181.878 248.46 181.001 249.214 180.278C249.952 179.537 250.982 179.049 252.052 178.874C254.2 178.518 256.507 179.611 257.354 181.518L256.728 181.987C255.322 181.044 253.791 180.643 252.346 180.842C251.622 180.939 250.936 181.21 250.257 181.605C249.59 182.021 248.983 182.59 248.318 183.201L247.645 182.804Z" fill="#102048"/>
<path d="M236.584 208.931C240.075 214.395 244.726 214.989 248.319 209.238L236.584 208.931Z" fill="white"/>
<path opacity="0.4" d="M260.686 191.917C260.666 195.755 260.332 201.107 259.692 204.946C257.273 204.166 255.514 201.907 255.514 199.208C255.514 196.189 257.826 192.376 260.686 191.917Z" fill="#FC8879"/>
<path opacity="0.4" d="M228.063 209.227C231.624 209.227 234.51 206.34 234.51 202.78C234.51 199.219 231.624 196.332 228.063 196.332C224.502 196.332 221.615 199.219 221.615 202.78C221.615 206.34 224.502 209.227 228.063 209.227Z" fill="#FC8879"/>
<path d="M208.058 197.235C206.785 196.37 205.616 195.423 204.453 194.862C203.876 194.578 203.341 194.408 202.862 194.449C202.38 194.483 201.824 194.767 201.199 195.211L200.543 194.787C200.815 193.989 201.389 193.093 202.442 192.744C203.489 192.382 204.55 192.674 205.335 193.079C206.927 193.948 208.017 195.23 208.68 196.762L208.058 197.235Z" fill="#E28B6D"/>
<path opacity="0.6" d="M27.5398 383.027L18.2601 411.224L16.3438 389.188C22.1105 387.933 25.2595 385.624 27.5398 383.027Z" fill="#6F3428"/>
<path d="M598.312 180.013L598.761 162.565L605.646 162.742C606.963 162.776 608.082 163.041 609.001 163.536C609.926 164.026 610.622 164.706 611.089 165.576C611.561 166.441 611.782 167.45 611.752 168.603C611.722 169.762 611.447 170.752 610.925 171.574C610.404 172.391 609.664 173.008 608.704 173.427C607.749 173.845 606.602 174.038 605.262 174.003L600.652 173.884L600.729 170.919L604.742 171.023C605.446 171.041 606.033 170.959 606.504 170.778C606.975 170.597 607.329 170.316 607.566 169.936C607.809 169.556 607.938 169.079 607.952 168.505C607.967 167.926 607.863 167.434 607.641 167.031C607.424 166.627 607.082 166.317 606.616 166.101C606.156 165.878 605.571 165.758 604.861 165.74L602.373 165.676L602.001 180.109L598.312 180.013ZM607.939 172.316L612.071 180.368L607.999 180.263L603.961 172.213L607.939 172.316ZM619.735 180.821C618.389 180.787 617.237 180.484 616.28 179.914C615.328 179.338 614.604 178.541 614.108 177.522C613.611 176.497 613.381 175.295 613.416 173.915C613.451 172.569 613.743 171.394 614.292 170.391C614.84 169.387 615.596 168.614 616.559 168.071C617.528 167.527 618.655 167.272 619.938 167.305C620.802 167.327 621.602 167.487 622.339 167.785C623.081 168.077 623.724 168.505 624.266 169.071C624.814 169.636 625.234 170.34 625.525 171.183C625.816 172.021 625.947 172.996 625.918 174.109L625.893 175.106L614.842 174.821L614.9 172.572L622.534 172.769C622.548 172.246 622.446 171.78 622.229 171.371C622.012 170.962 621.705 170.639 621.308 170.401C620.916 170.158 620.456 170.03 619.928 170.016C619.377 170.002 618.885 170.117 618.453 170.362C618.026 170.601 617.688 170.93 617.438 171.35C617.189 171.764 617.055 172.23 617.036 172.746L616.981 174.885C616.964 175.532 617.069 176.095 617.295 176.572C617.527 177.05 617.862 177.423 618.298 177.69C618.734 177.957 619.257 178.098 619.864 178.114C620.268 178.124 620.638 178.077 620.976 177.972C621.314 177.867 621.606 177.704 621.85 177.483C622.094 177.262 622.283 176.988 622.417 176.662L625.768 176.97C625.577 177.772 625.209 178.467 624.665 179.056C624.128 179.639 623.44 180.087 622.602 180.401C621.77 180.709 620.814 180.849 619.735 180.821ZM633.879 186.114C632.703 186.083 631.699 185.896 630.867 185.55C630.04 185.211 629.387 184.759 628.907 184.195C628.427 183.632 628.122 183.004 627.992 182.313L631.36 181.948C631.456 182.212 631.611 182.46 631.827 182.693C632.043 182.926 632.33 183.115 632.69 183.261C633.056 183.413 633.503 183.495 634.031 183.509C634.821 183.529 635.476 183.353 635.997 182.98C636.524 182.613 636.799 181.98 636.822 181.083L636.884 178.689L636.73 178.685C636.562 179.044 636.314 179.382 635.988 179.697C635.661 180.013 635.246 180.266 634.741 180.458C634.236 180.65 633.636 180.736 632.944 180.719C631.961 180.693 631.072 180.443 630.277 179.968C629.488 179.487 628.867 178.769 628.415 177.814C627.968 176.853 627.763 175.649 627.8 174.2C627.838 172.718 628.112 171.486 628.62 170.504C629.129 169.523 629.79 168.795 630.603 168.322C631.422 167.848 632.312 167.624 633.272 167.649C634.005 167.668 634.615 167.808 635.103 168.071C635.59 168.328 635.98 168.645 636.272 169.022C636.569 169.393 636.795 169.757 636.951 170.114L637.087 170.117L637.144 167.919L640.748 168.012L640.407 181.226C640.379 182.34 640.082 183.264 639.517 184C638.953 184.736 638.183 185.278 637.208 185.628C636.238 185.984 635.128 186.146 633.879 186.114ZM634.164 178.022C634.749 178.037 635.247 177.905 635.658 177.626C636.074 177.341 636.397 176.928 636.627 176.389C636.863 175.843 636.991 175.187 637.011 174.421C637.03 173.654 636.94 172.987 636.738 172.419C636.537 171.845 636.236 171.397 635.835 171.074C635.434 170.751 634.941 170.582 634.356 170.567C633.76 170.552 633.253 170.7 632.836 171.014C632.418 171.321 632.098 171.756 631.873 172.319C631.648 172.881 631.526 173.535 631.507 174.279C631.487 175.034 631.576 175.69 631.771 176.247C631.973 176.797 632.272 177.228 632.667 177.54C633.069 177.846 633.568 178.006 634.164 178.022ZM643.299 181.173L643.636 168.086L647.266 168.18L646.928 181.267L643.299 181.173ZM645.503 166.447C644.963 166.433 644.505 166.242 644.128 165.874C643.757 165.501 643.578 165.061 643.591 164.556C643.604 164.056 643.805 163.632 644.195 163.284C644.59 162.93 645.058 162.761 645.598 162.774C646.137 162.788 646.593 162.982 646.964 163.355C647.341 163.723 647.523 164.157 647.51 164.657C647.497 165.162 647.293 165.592 646.897 165.945C646.507 166.293 646.043 166.46 645.503 166.447ZM660.965 172.267L657.637 172.386C657.588 172.101 657.472 171.842 657.291 171.61C657.109 171.372 656.867 171.181 656.564 171.037C656.266 170.887 655.908 170.807 655.487 170.796C654.925 170.782 654.448 170.889 654.055 171.117C653.663 171.34 653.462 171.648 653.452 172.04C653.444 172.352 653.562 172.619 653.806 172.842C654.051 173.064 654.475 173.248 655.079 173.394L657.435 173.933C658.701 174.227 659.639 174.671 660.249 175.267C660.858 175.862 661.151 176.632 661.127 177.574C661.105 178.432 660.833 179.178 660.31 179.813C659.794 180.447 659.094 180.935 658.21 181.276C657.331 181.611 656.324 181.765 655.188 181.735C653.456 181.691 652.085 181.294 651.075 180.547C650.072 179.793 649.498 178.789 649.354 177.535L652.929 177.44C653.023 177.971 653.274 178.381 653.681 178.67C654.089 178.953 654.617 179.103 655.264 179.12C655.9 179.136 656.415 179.027 656.807 178.793C657.206 178.553 657.413 178.237 657.428 177.846C657.431 177.516 657.299 177.243 657.032 177.026C656.765 176.803 656.349 176.627 655.784 176.499L653.529 175.989C652.258 175.7 651.318 175.233 650.709 174.586C650.106 173.94 649.817 173.128 649.843 172.151C649.864 171.311 650.11 170.592 650.58 169.996C651.056 169.4 651.713 168.948 652.55 168.64C653.394 168.332 654.375 168.193 655.494 168.222C657.147 168.264 658.438 168.647 659.369 169.37C660.305 170.093 660.837 171.059 660.965 172.267ZM670.606 168.782L670.536 171.508L662.655 171.305L662.725 168.579L670.606 168.782ZM664.595 165.489L668.225 165.583L667.91 177.783C667.901 178.118 667.946 178.381 668.043 178.571C668.141 178.756 668.279 178.887 668.459 178.966C668.645 179.044 668.86 179.087 669.104 179.093C669.274 179.097 669.445 179.088 669.616 179.064C669.788 179.034 669.919 179.012 670.01 178.997L670.511 181.713C670.328 181.765 670.071 181.823 669.74 181.889C669.408 181.96 669.006 181.998 668.534 182.003C667.659 182.014 666.895 181.878 666.243 181.594C665.597 181.31 665.099 180.882 664.75 180.311C664.401 179.739 664.24 179.024 664.268 178.167L664.595 165.489ZM678.45 182.335C677.104 182.3 675.952 181.998 674.995 181.427C674.043 180.852 673.319 180.054 672.823 179.035C672.326 178.011 672.096 176.809 672.131 175.428C672.166 174.082 672.458 172.907 673.006 171.904C673.555 170.901 674.311 170.128 675.274 169.584C676.243 169.041 677.369 168.786 678.653 168.819C679.516 168.841 680.317 169.001 681.054 169.298C681.796 169.59 682.439 170.019 682.981 170.584C683.529 171.15 683.949 171.854 684.24 172.697C684.531 173.534 684.662 174.509 684.633 175.623L684.608 176.62L673.557 176.335L673.615 174.085L681.249 174.282C681.262 173.76 681.161 173.294 680.944 172.885C680.727 172.476 680.42 172.152 680.023 171.915C679.631 171.671 679.171 171.543 678.643 171.529C678.092 171.515 677.6 171.63 677.168 171.875C676.741 172.114 676.403 172.444 676.153 172.863C675.904 173.278 675.77 173.743 675.751 174.26L675.695 176.398C675.679 177.046 675.784 177.608 676.01 178.086C676.242 178.564 676.576 178.936 677.013 179.203C677.449 179.47 677.971 179.611 678.579 179.627C678.982 179.637 679.353 179.59 679.691 179.485C680.029 179.38 680.32 179.217 680.565 178.996C680.809 178.775 680.998 178.502 681.132 178.175L684.483 178.483C684.292 179.286 683.924 179.981 683.38 180.569C682.842 181.152 682.154 181.601 681.317 181.914C680.484 182.223 679.529 182.363 678.45 182.335ZM686.831 182.295L687.169 169.209L690.687 169.299L690.629 171.583L690.765 171.586C691.024 170.78 691.441 170.177 692.014 169.777C692.587 169.371 693.24 169.178 693.972 169.196C694.154 169.201 694.35 169.218 694.559 169.246C694.769 169.274 694.953 169.31 695.111 169.354L695.028 172.574C694.859 172.519 694.624 172.467 694.324 172.42C694.024 172.372 693.749 172.345 693.499 172.339C692.965 172.325 692.485 172.429 692.059 172.651C691.638 172.868 691.301 173.177 691.046 173.58C690.797 173.983 690.665 174.451 690.652 174.985L690.461 182.389L686.831 182.295ZM717.314 165.621L716.864 183.069L713.678 182.987L706.369 171.809L706.242 171.806L705.958 182.788L702.269 182.693L702.719 165.244L705.957 165.328L713.205 176.496L713.359 176.5L713.642 165.526L717.314 165.621ZM725.75 183.554C724.427 183.52 723.289 183.209 722.338 182.622C721.393 182.029 720.672 181.221 720.176 180.196C719.679 179.166 719.448 177.981 719.483 176.64C719.518 175.289 719.809 174.114 720.358 173.116C720.907 172.113 721.668 171.343 722.643 170.805C723.623 170.262 724.775 170.007 726.098 170.042C727.422 170.076 728.556 170.389 729.501 170.982C730.452 171.569 731.176 172.378 731.673 173.408C732.169 174.432 732.4 175.621 732.365 176.972C732.33 178.313 732.039 179.485 731.49 180.488C730.941 181.486 730.177 182.256 729.197 182.799C728.222 183.337 727.073 183.588 725.75 183.554ZM725.84 180.743C726.442 180.759 726.949 180.601 727.361 180.271C727.773 179.935 728.089 179.471 728.309 178.88C728.534 178.289 728.657 177.613 728.677 176.852C728.696 176.091 728.609 175.409 728.414 174.807C728.225 174.206 727.933 173.726 727.539 173.37C727.144 173.013 726.646 172.827 726.044 172.811C725.436 172.795 724.921 172.955 724.497 173.291C724.079 173.627 723.757 174.091 723.532 174.682C723.312 175.273 723.192 175.949 723.173 176.71C723.153 177.471 723.238 178.152 723.427 178.754C723.622 179.356 723.919 179.835 724.319 180.192C724.725 180.544 725.232 180.727 725.84 180.743ZM736.811 183.583L733.587 170.405L737.259 170.5L739.06 179.345L739.18 179.348L741.519 170.61L745.123 170.702L747.045 179.499L747.156 179.502L749.375 170.812L753.038 170.907L749.148 183.902L745.306 183.802L743.268 175.514L743.107 175.51L740.645 183.682L736.811 183.583Z" fill="white"/>
</svg>
