<svg width="40" height="40" viewBox="0 0 40 40" fill="none" xmlns="http://www.w3.org/2000/svg">
<g clip-path="url(#clip0_240_2420)">
<g clip-path="url(#clip1_240_2420)">
<path d="M13.9785 15.7495C19.0643 15.7496 23.1875 19.8726 23.1875 24.9585C23.1873 30.0442 19.0642 34.1674 13.9785 34.1675C8.89272 34.1675 4.76971 30.0442 4.76953 24.9585C4.76953 19.8726 8.8926 15.7495 13.9785 15.7495ZM35.2295 28.354L35.2217 28.3569C35.2243 28.4043 35.2295 28.4523 35.2295 28.5005C35.2289 32.0781 27.8873 33.3956 22.4746 32.4555C23.7332 31.0303 24.6388 29.2874 25.0547 27.3608C29.1937 27.5253 33.5579 26.6297 35.2295 24.6753V28.354ZM15.0283 19.4966L13.331 19.5093L13.1289 19.5112L13.1328 19.7134L13.1416 20.2495C13.1155 20.255 13.0894 20.2605 13.0644 20.2661C12.9809 20.2847 12.8979 20.3073 12.8213 20.3286C12.7396 20.3513 12.6669 20.3742 12.5869 20.4009C12.5047 20.4283 12.4308 20.4559 12.3535 20.4878L12.3525 20.4888C12.2188 20.5448 12.0787 20.6045 11.9463 20.6802C11.819 20.7529 11.7015 20.8301 11.5918 20.9048C11.4718 20.9864 11.3638 21.0809 11.2676 21.1684C11.1647 21.2619 11.0712 21.3637 10.9883 21.4692C10.8966 21.5802 10.8218 21.6991 10.7588 21.8071C10.691 21.9233 10.6333 22.0525 10.5908 22.1753C10.5496 22.2943 10.5121 22.4264 10.4883 22.5649C10.466 22.6938 10.4463 22.8323 10.4463 22.9829V23.2378C10.4555 23.3809 10.4744 23.5186 10.5078 23.6567C10.5419 23.7979 10.5911 23.9234 10.6465 24.0434C10.7053 24.1706 10.7788 24.289 10.8672 24.397C10.9514 24.4999 11.0459 24.5986 11.1543 24.6929L11.1562 24.6948C11.2782 24.798 11.4124 24.89 11.5488 24.978C11.6942 25.0718 11.851 25.1501 12.0078 25.2241C12.1741 25.3026 12.3517 25.3666 12.5293 25.4272C12.7138 25.4902 12.911 25.5429 13.1152 25.5874L14.1474 25.8257C14.2473 25.8505 14.3122 25.8621 14.3886 25.8833C14.4666 25.9049 14.5435 25.9267 14.6152 25.9477C14.6864 25.9687 14.7449 25.9883 14.8183 26.0112C14.8825 26.0313 14.9366 26.0512 14.9892 26.0737L15.001 26.0776C15.0509 26.0954 15.0994 26.118 15.1474 26.1421C15.1951 26.1659 15.2364 26.188 15.2763 26.2134C15.3225 26.2427 15.3498 26.2624 15.376 26.2856C15.4176 26.3227 15.4418 26.3437 15.4619 26.3667L15.4717 26.3764C15.4871 26.392 15.4995 26.4087 15.5166 26.436C15.5323 26.4612 15.5457 26.4875 15.5635 26.5229C15.5721 26.5403 15.5802 26.5636 15.5859 26.5893C15.5949 26.6299 15.5986 26.6487 15.5986 26.6665V26.7534C15.5986 26.7986 15.5946 26.8398 15.5879 26.8804C15.5814 26.9188 15.5716 26.9566 15.5566 27.0014C15.5449 27.0362 15.5295 27.0674 15.5058 27.1108C15.487 27.1452 15.4638 27.1787 15.4345 27.2153C15.4092 27.247 15.3791 27.2785 15.3408 27.313C15.3068 27.3436 15.2675 27.3722 15.2187 27.4077C15.1797 27.4361 15.1346 27.4636 15.0928 27.4829C15.0403 27.5071 14.9826 27.5314 14.9209 27.5561L14.916 27.5581C14.8684 27.5785 14.8101 27.5972 14.748 27.6128C14.6805 27.6297 14.6122 27.646 14.5459 27.6577C14.4803 27.6693 14.4085 27.6774 14.3261 27.686C14.2513 27.6939 14.176 27.6977 14.0967 27.6977C14.0163 27.6977 13.9348 27.6933 13.8525 27.6889C13.7773 27.685 13.7024 27.6771 13.6328 27.6655C13.5618 27.6537 13.489 27.6375 13.417 27.6206C13.3529 27.6055 13.2914 27.5872 13.2295 27.5639C13.1697 27.5415 13.1118 27.5144 13.0547 27.4858C13.0061 27.4615 12.9541 27.4279 12.9033 27.394C12.8507 27.359 12.8136 27.3321 12.789 27.3052C12.7289 27.239 12.7044 27.2209 12.6728 27.1792C12.6358 27.1239 12.612 27.0903 12.5888 27.0473C12.5626 26.9985 12.541 26.9511 12.5234 26.9018C12.5056 26.852 12.4908 26.7963 12.4795 26.7397L12.457 26.5639V26.3227L12.2558 26.3247L10.2998 26.3374L10.1006 26.3384V26.7964L10.1015 26.8091C10.1104 26.9514 10.1233 27.0888 10.1465 27.2231C10.1688 27.3528 10.1969 27.4856 10.2402 27.6157C10.2815 27.7394 10.3281 27.8553 10.3838 27.9712C10.4401 28.0885 10.506 28.2014 10.5761 28.3042L10.5791 28.3081C10.6603 28.4209 10.7483 28.5331 10.8515 28.6411C10.9526 28.7467 11.0609 28.8457 11.1845 28.936C11.3041 29.0234 11.4271 29.1009 11.5556 29.1763C11.6929 29.2567 11.8375 29.3211 11.9853 29.3794L11.9873 29.3804C12.0765 29.4143 12.1763 29.4521 12.2822 29.4809C12.3784 29.5072 12.479 29.5342 12.5781 29.56C12.6838 29.5876 12.7936 29.6103 12.9023 29.6284C12.9521 29.6367 13.0041 29.6429 13.0566 29.6509L13.0674 30.2251L13.0713 30.4214H13.3769L14.8418 30.4087H15.247L15.2422 30.2036L15.2285 29.6216C15.2729 29.6144 15.3188 29.6102 15.3633 29.6001C15.458 29.5786 15.5547 29.5565 15.6465 29.5346C15.7441 29.5114 15.8463 29.476 15.9209 29.4536C16.0148 29.4254 16.1039 29.3927 16.1914 29.3559L16.4082 29.2573C16.4779 29.2233 16.5459 29.1877 16.6103 29.1509C16.7356 29.0792 16.8605 29.0005 16.9775 28.9116C17.0888 28.827 17.1979 28.7379 17.2988 28.6323C17.3936 28.533 17.4828 28.4296 17.5635 28.3159L17.5625 28.3149C17.6468 28.2019 17.7183 28.0852 17.7783 27.9653C17.8406 27.8407 17.8873 27.7131 17.9277 27.5874C17.9696 27.4572 18.0033 27.3201 18.0224 27.1772C18.0403 27.0433 18.0536 26.8996 18.0537 26.7495V26.5161V26.5034C18.0489 26.4262 18.0388 26.3488 18.0244 26.272C18.0113 26.202 17.9977 26.1304 17.9785 26.0581C17.9588 25.9843 17.9342 25.9162 17.9131 25.8569C17.8889 25.7892 17.8603 25.7227 17.833 25.6636L17.832 25.6616L17.7763 25.5464C17.7554 25.5058 17.7315 25.4639 17.7051 25.4243C17.6625 25.3605 17.6145 25.2887 17.5566 25.2163C17.5023 25.1484 17.445 25.0813 17.3818 25.018C17.3223 24.9586 17.2565 24.8969 17.1845 24.8393C17.1207 24.7883 17.0496 24.7324 16.9736 24.6802C16.9015 24.6306 16.8243 24.5797 16.7461 24.5337C16.67 24.4889 16.5864 24.4422 16.497 24.3999C16.4159 24.3615 16.3282 24.3199 16.2353 24.2827C16.1466 24.2431 16.0558 24.2069 15.9609 24.1753C15.8811 24.1487 15.7757 24.1093 15.6738 24.0815C15.5791 24.0557 15.4831 24.0296 15.3828 24.0034C15.2788 23.9763 15.1753 23.9538 15.0713 23.9321L14.2304 23.7475C14.184 23.7359 14.1262 23.7207 14.0644 23.7104C14.0243 23.7037 13.9859 23.6934 13.9375 23.6802L13.7949 23.6411C13.7455 23.6276 13.7256 23.6182 13.6621 23.5991L13.6572 23.5981L13.5517 23.56C13.5303 23.5505 13.5073 23.5411 13.4873 23.5327C13.4667 23.524 13.4478 23.5159 13.4306 23.5083C13.4186 23.5029 13.4057 23.4968 13.3867 23.4868C13.3693 23.4776 13.3449 23.4644 13.3183 23.4526C13.3116 23.4496 13.3023 23.4444 13.2851 23.4341C13.2713 23.4257 13.2451 23.4091 13.2187 23.396C13.202 23.3876 13.1836 23.3737 13.1465 23.3471C13.1258 23.3324 13.1036 23.314 13.0849 23.2954C13.0756 23.286 13.0668 23.2755 13.0547 23.2622C13.0432 23.2497 13.0281 23.2337 13.0117 23.2173C12.994 23.1995 12.9852 23.1871 12.9795 23.1772L12.9717 23.1645L12.9619 23.1518L12.9638 23.1528C12.9629 23.1509 12.9613 23.1487 12.9599 23.146C12.9586 23.1433 12.9569 23.139 12.9551 23.1352C12.9513 23.1277 12.9454 23.1166 12.9385 23.105L12.9316 23.0932C12.9282 23.0748 12.9244 23.0575 12.9219 23.0473C12.9184 23.0336 12.9167 23.0276 12.916 23.0239C12.9116 22.9973 12.9102 22.9855 12.9101 22.9741V22.8891C12.9146 22.8395 12.9177 22.8026 12.9238 22.772C12.9306 22.7377 12.9416 22.6981 12.9521 22.6665C12.9591 22.6455 12.9736 22.6149 12.9931 22.5796C13.0091 22.5508 13.0294 22.5201 13.0537 22.4888C13.0738 22.4629 13.0994 22.4364 13.1328 22.4067C13.1649 22.3782 13.1979 22.3529 13.2353 22.3266C13.2703 22.3021 13.3056 22.2808 13.3486 22.2593C13.3922 22.2375 13.4375 22.218 13.4902 22.1977C13.5364 22.18 13.5885 22.1656 13.6504 22.1479C13.701 22.1335 13.7584 22.1218 13.8271 22.1089C13.8878 22.0975 13.9395 22.095 14.0293 22.0845C14.0889 22.0774 14.1547 22.0776 14.2392 22.0776C14.3512 22.0776 14.4555 22.0816 14.5527 22.0932C14.6539 22.1054 14.7462 22.1221 14.834 22.1421C14.9149 22.1605 14.9904 22.1861 15.0644 22.2173C15.1359 22.2474 15.1968 22.2803 15.2529 22.3188C15.3151 22.3616 15.3672 22.4037 15.4052 22.4448C15.4498 22.4931 15.4865 22.5416 15.5156 22.5932C15.5518 22.6575 15.5776 22.7107 15.5928 22.7651C15.6119 22.8341 15.6265 22.9048 15.6338 22.977L15.6523 23.1587L15.834 23.1577L17.7383 23.144L17.9375 23.143V22.6225L17.8896 22.5981C17.8806 22.5204 17.8694 22.4393 17.8496 22.3598C17.8237 22.2564 17.7948 22.1459 17.751 22.0337C17.7107 21.9307 17.6677 21.8314 17.6103 21.7261C17.5538 21.6225 17.4936 21.5289 17.4306 21.4389L17.4277 21.435L17.3047 21.2807C17.2621 21.2311 17.2176 21.183 17.1709 21.1362C17.0758 21.0411 16.9727 20.9572 16.872 20.8784C16.7627 20.7928 16.6449 20.7175 16.5215 20.6489C16.3967 20.5796 16.2688 20.5206 16.1367 20.4634C16.0551 20.4254 15.9665 20.393 15.8877 20.3667C15.8443 20.3522 15.7991 20.3394 15.7578 20.3276C15.7153 20.3155 15.6762 20.3043 15.6386 20.2925C15.5441 20.2626 15.4465 20.2432 15.3564 20.2261C15.3183 20.2188 15.2798 20.2135 15.2422 20.2075L15.2295 19.6919L15.2246 19.4956L15.0283 19.4966ZM35.2295 21.0405L35.2275 21.0386C35.154 23.7708 30.1036 25.0651 25.3115 24.9233C25.3064 23.2508 24.9375 21.6645 24.2822 20.2368C28.6376 20.5443 33.4531 19.6853 35.2295 17.6616V21.0405ZM16.8115 10.813C19.8919 14.2033 32.1457 14.204 35.2295 10.8149V14.1186C35.2279 14.1168 35.2262 14.1146 35.2246 14.1128C35.0577 17.3744 28.089 18.6076 22.7754 17.8139C21.2698 15.9624 19.1927 14.5937 16.8115 13.9809V10.813ZM17.1992 8.34524C19.5997 4.78538 32.4455 4.78686 34.8418 8.34817C32.4471 12.0751 19.5875 12.0744 17.1992 8.34524Z" fill="#F2F4F6"/>
</g>
</g>
<defs>
<clipPath id="clip0_240_2420">
<rect width="40" height="40" fill="white"/>
</clipPath>
<clipPath id="clip1_240_2420">
<rect width="40" height="40" fill="white"/>
</clipPath>
</defs>
</svg>
