<svg width="900" height="883" viewBox="0 0 900 883" fill="none" xmlns="http://www.w3.org/2000/svg">
<path d="M372.463 804.707C372.463 804.707 414.616 727.818 298.526 684.286C283.471 798.215 372.463 804.707 372.463 804.707Z" fill="#13304E"/>
<path d="M372.463 804.707C350.79 729.819 298.526 684.286 298.526 684.286C283.471 798.215 372.463 804.707 372.463 804.707Z" fill="#38516A"/>
<path d="M758.052 749.901C757.045 750.01 756.007 749.597 755.36 748.727C754.384 747.417 754.654 745.562 755.964 744.587C834.491 686.039 842.417 614.644 842.488 613.929C842.65 612.305 844.096 611.117 845.724 611.275C847.35 611.435 848.54 612.879 848.38 614.505C848.309 615.245 840.241 689.135 759.504 749.331C759.06 749.659 758.559 749.846 758.052 749.901Z" fill="#13304E"/>
<path d="M841.712 631.57C841.712 631.57 871.562 619.527 850.773 577.441C821.568 606.579 841.712 631.57 841.712 631.57Z" fill="#13304E"/>
<path d="M835.973 649.938C835.973 649.938 857.034 673.37 889.756 647.64C852.334 626.671 835.973 649.938 835.973 649.938Z" fill="#13304E"/>
<path d="M836.794 649.855C836.794 649.855 835.971 618.983 795.162 616.836C810.802 657.701 836.794 649.855 836.794 649.855Z" fill="#13304E"/>
<path d="M821.436 676.332C821.436 676.332 835.974 700.937 874.686 685.734C845.99 656.766 821.436 676.332 821.436 676.332Z" fill="#13304E"/>
<path d="M822.248 676.46C822.248 676.46 823.889 650.46 791.721 641.799C798.278 679.552 822.248 676.46 822.248 676.46Z" fill="#13304E"/>
<path d="M712.919 757.062C712.919 757.062 667.686 680.084 784.518 632.256C803.299 747.757 712.919 757.062 712.919 757.062Z" fill="#13304E"/>
<path d="M712.918 757.062C732.705 680.185 784.517 632.256 784.517 632.256C803.297 747.757 712.918 757.062 712.918 757.062Z" fill="#38516A"/>
<path d="M692.1 772.949C692.1 772.949 708.432 659.903 863.364 705.496C789.817 835.88 692.1 772.949 692.1 772.949Z" fill="#13304E"/>
<path d="M692.1 772.949C773.304 711.966 863.364 705.496 863.364 705.496C789.817 835.88 692.1 772.949 692.1 772.949Z" fill="#38516A"/>
<path d="M418.026 802.391C418.026 802.391 401.694 689.345 246.762 734.938C320.306 865.322 418.026 802.391 418.026 802.391Z" fill="#13304E"/>
<path d="M418.026 802.391C336.822 741.408 246.762 734.938 246.762 734.938C320.306 865.321 418.026 802.391 418.026 802.391Z" fill="#38516A"/>
<path d="M742.96 816.204H361.789V429.417C361.789 417.083 371.789 407.083 384.123 407.083H720.626C732.96 407.083 742.96 417.083 742.96 429.417V816.204Z" fill="#6340BC"/>
<path d="M742.96 816.205H361.789V779.747C361.789 767.412 371.789 757.412 384.123 757.412H720.626C732.96 757.412 742.96 767.412 742.96 779.747V816.205Z" fill="#13304E"/>
<path d="M742.96 480.007H361.789V429.417C361.789 417.083 371.789 407.083 384.123 407.083H720.626C732.96 407.083 742.96 417.083 742.96 429.417V480.007Z" fill="#13304E"/>
<path d="M420.861 455.022C427.914 447.969 427.914 436.534 420.861 429.481C413.808 422.428 402.372 422.428 395.319 429.481C388.266 436.534 388.266 447.969 395.319 455.022C402.372 462.075 413.808 462.075 420.861 455.022Z" fill="#FBB62D"/>
<path d="M419.029 442.252C419.029 436.214 414.135 431.321 408.097 431.321C402.059 431.321 397.166 436.214 397.166 442.252C397.166 448.29 402.059 453.184 408.097 453.184C414.133 453.184 419.029 448.29 419.029 442.252Z" fill="#FB9129"/>
<path d="M408.097 381.869C405.291 381.869 403.018 384.144 403.018 386.948V441.613C403.018 444.419 405.293 446.692 408.097 446.692C410.902 446.692 413.176 444.417 413.176 441.613V386.948C413.176 384.142 410.9 381.869 408.097 381.869Z" fill="#FBD34C"/>
<path d="M478.034 455.023C485.087 447.97 485.087 436.535 478.034 429.482C470.981 422.429 459.546 422.429 452.493 429.482C445.44 436.535 445.44 447.97 452.493 455.023C459.546 462.076 470.981 462.076 478.034 455.023Z" fill="#FBB62D"/>
<path d="M476.203 442.252C476.203 436.214 471.309 431.321 465.271 431.321C459.233 431.321 454.34 436.214 454.34 442.252C454.34 448.29 459.233 453.184 465.271 453.184C471.309 453.184 476.203 448.29 476.203 442.252Z" fill="#FB9129"/>
<path d="M465.27 381.869C462.465 381.869 460.191 384.144 460.191 386.948V441.613C460.191 444.419 462.466 446.692 465.27 446.692C468.076 446.692 470.349 444.417 470.349 441.613V386.948C470.349 384.142 468.076 381.869 465.27 381.869Z" fill="#FBD34C"/>
<path d="M535.208 455.023C542.261 447.97 542.261 436.535 535.208 429.482C528.155 422.429 516.72 422.429 509.667 429.482C502.614 436.535 502.614 447.97 509.667 455.023C516.72 462.076 528.155 462.076 535.208 455.023Z" fill="#FBB62D"/>
<path d="M533.377 442.252C533.377 436.214 528.483 431.321 522.445 431.321C516.407 431.321 511.514 436.214 511.514 442.252C511.514 448.29 516.407 453.184 522.445 453.184C528.483 453.184 533.377 448.29 533.377 442.252Z" fill="#FB9129"/>
<path d="M522.444 381.869C519.638 381.869 517.365 384.144 517.365 386.948V441.613C517.365 444.419 519.638 446.692 522.444 446.692C525.25 446.692 527.523 444.417 527.523 441.613V386.948C527.523 384.142 525.25 381.869 522.444 381.869Z" fill="#FBD34C"/>
<path d="M582.53 460.075C592.376 458.477 599.062 449.2 597.464 439.354C595.866 429.508 586.589 422.822 576.744 424.42C566.898 426.018 560.211 435.295 561.809 445.141C563.407 454.986 572.684 461.673 582.53 460.075Z" fill="#FBB62D"/>
<path d="M590.552 442.252C590.552 436.214 585.659 431.321 579.621 431.321C573.583 431.321 568.689 436.214 568.689 442.252C568.689 448.29 573.583 453.184 579.621 453.184C585.659 453.184 590.552 448.29 590.552 442.252Z" fill="#FB9129"/>
<path d="M579.622 381.869C576.816 381.869 574.543 384.144 574.543 386.948V441.613C574.543 444.419 576.816 446.692 579.622 446.692C582.428 446.692 584.701 444.417 584.701 441.613V386.948C584.701 384.142 582.428 381.869 579.622 381.869Z" fill="#FBD34C"/>
<path d="M640.934 459.773C650.641 457.481 656.652 447.754 654.36 438.046C652.068 428.339 642.34 422.328 632.633 424.62C622.926 426.912 616.915 436.64 619.207 446.347C621.499 456.054 631.226 462.065 640.934 459.773Z" fill="#FBB62D"/>
<path d="M647.724 442.252C647.724 436.214 642.831 431.321 636.793 431.321C630.755 431.321 625.861 436.214 625.861 442.252C625.861 448.29 630.755 453.184 636.793 453.184C642.831 453.184 647.724 448.29 647.724 442.252Z" fill="#FB9129"/>
<path d="M636.794 381.869C633.988 381.869 631.715 384.144 631.715 386.948V441.613C631.715 444.419 633.99 446.692 636.794 446.692C639.6 446.692 641.873 444.417 641.873 441.613V386.948C641.873 384.142 639.6 381.869 636.794 381.869Z" fill="#FBD34C"/>
<path d="M698.106 459.772C707.813 457.48 713.824 447.752 711.532 438.045C709.24 428.338 699.512 422.327 689.805 424.619C680.098 426.911 674.087 436.638 676.379 446.346C678.671 456.053 688.398 462.064 698.106 459.772Z" fill="#FBB62D"/>
<path d="M704.902 442.252C704.902 436.214 700.008 431.321 693.97 431.321C687.933 431.321 683.039 436.214 683.039 442.252C683.039 448.29 687.933 453.184 693.97 453.184C700.008 453.184 704.902 448.29 704.902 442.252Z" fill="#FB9129"/>
<path d="M693.966 381.869C691.16 381.869 688.887 384.144 688.887 386.948V441.613C688.887 444.419 691.162 446.692 693.966 446.692C696.772 446.692 699.045 444.417 699.045 441.613V386.948C699.045 384.142 696.772 381.869 693.966 381.869Z" fill="#FBD34C"/>
<path opacity="0.4" d="M410.19 532.175H389.19C384.833 532.175 381.299 528.643 381.299 524.284V503.284C381.299 498.927 384.831 495.393 389.19 495.393H410.19C414.549 495.393 418.081 498.925 418.081 503.284V524.284C418.081 528.643 414.549 532.175 410.19 532.175Z" fill="#6340BC"/>
<path opacity="0.4" d="M461.098 532.175H440.096C435.739 532.175 432.205 528.643 432.205 524.284V503.284C432.205 498.927 435.737 495.393 440.096 495.393H461.098C465.455 495.393 468.989 498.925 468.989 503.284V524.284C468.989 528.643 465.457 532.175 461.098 532.175Z" fill="#6340BC"/>
<path opacity="0.4" d="M512.003 532.175H491.002C486.645 532.175 483.111 528.643 483.111 524.284V503.284C483.111 498.927 486.643 495.393 491.002 495.393H512.003C516.359 495.393 519.893 498.925 519.893 503.284V524.284C519.893 528.643 516.361 532.175 512.003 532.175Z" fill="#6340BC"/>
<path opacity="0.4" d="M562.909 532.175H541.906C537.55 532.175 534.016 528.643 534.016 524.284V503.284C534.016 498.927 537.548 495.393 541.906 495.393H562.909C567.266 495.393 570.8 498.925 570.8 503.284V524.284C570.8 528.643 567.268 532.175 562.909 532.175Z" fill="#6340BC"/>
<path opacity="0.4" d="M613.815 532.175H592.813C588.456 532.175 584.922 528.643 584.922 524.284V503.284C584.922 498.927 588.454 495.393 592.813 495.393H613.815C618.172 495.393 621.706 498.925 621.706 503.284V524.284C621.704 528.643 618.172 532.175 613.815 532.175Z" fill="#6340BC"/>
<path opacity="0.4" d="M664.721 532.175H643.719C639.362 532.175 635.828 528.643 635.828 524.284V503.284C635.828 498.927 639.36 495.393 643.719 495.393H664.721C669.078 495.393 672.612 498.925 672.612 503.284V524.284C672.61 528.643 669.078 532.175 664.721 532.175Z" fill="#6340BC"/>
<path opacity="0.4" d="M715.63 532.175H694.627C690.27 532.175 686.736 528.643 686.736 524.284V503.284C686.736 498.927 690.268 495.393 694.627 495.393H715.63C719.986 495.393 723.52 498.925 723.52 503.284V524.284C723.518 528.643 719.986 532.175 715.63 532.175Z" fill="#6340BC"/>
<path opacity="0.4" d="M410.19 581.81H389.19C384.833 581.81 381.299 578.278 381.299 573.919V552.917C381.299 548.56 384.831 545.026 389.19 545.026H410.19C414.549 545.026 418.081 548.558 418.081 552.917V573.919C418.081 578.278 414.549 581.81 410.19 581.81Z" fill="#6340BC"/>
<path opacity="0.4" d="M461.098 581.81H440.096C435.739 581.81 432.205 578.278 432.205 573.919V552.917C432.205 548.56 435.737 545.026 440.096 545.026H461.098C465.455 545.026 468.989 548.558 468.989 552.917V573.919C468.989 578.278 465.457 581.81 461.098 581.81Z" fill="#6340BC"/>
<path opacity="0.4" d="M512.003 581.81H491.002C486.645 581.81 483.111 578.278 483.111 573.919V552.917C483.111 548.56 486.643 545.026 491.002 545.026H512.003C516.359 545.026 519.893 548.558 519.893 552.917V573.919C519.893 578.278 516.361 581.81 512.003 581.81Z" fill="#6340BC"/>
<path opacity="0.4" d="M562.909 581.81H541.906C537.55 581.81 534.016 578.278 534.016 573.919V552.917C534.016 548.56 537.548 545.026 541.906 545.026H562.909C567.266 545.026 570.8 548.558 570.8 552.917V573.919C570.8 578.278 567.268 581.81 562.909 581.81Z" fill="#6340BC"/>
<path opacity="0.4" d="M613.815 581.81H592.813C588.456 581.81 584.922 578.278 584.922 573.919V552.917C584.922 548.56 588.454 545.026 592.813 545.026H613.815C618.172 545.026 621.706 548.558 621.706 552.917V573.919C621.704 578.278 618.172 581.81 613.815 581.81Z" fill="#6340BC"/>
<path opacity="0.4" d="M664.721 581.81H643.719C639.362 581.81 635.828 578.278 635.828 573.919V552.917C635.828 548.56 639.36 545.026 643.719 545.026H664.721C669.078 545.026 672.612 548.558 672.612 552.917V573.919C672.61 578.278 669.078 581.81 664.721 581.81Z" fill="#6340BC"/>
<path opacity="0.4" d="M715.63 581.81H694.627C690.27 581.81 686.736 578.278 686.736 573.919V552.917C686.736 548.56 690.268 545.026 694.627 545.026H715.63C719.986 545.026 723.52 548.558 723.52 552.917V573.919C723.518 578.278 719.986 581.81 715.63 581.81Z" fill="#6340BC"/>
<path opacity="0.4" d="M410.19 631.444H389.19C384.833 631.444 381.299 627.912 381.299 623.553V602.551C381.299 598.194 384.831 594.66 389.19 594.66H410.19C414.549 594.66 418.081 598.192 418.081 602.551V623.553C418.081 627.91 414.549 631.444 410.19 631.444Z" fill="#6340BC"/>
<path opacity="0.4" d="M461.098 631.444H440.096C435.739 631.444 432.205 627.912 432.205 623.553V602.551C432.205 598.194 435.737 594.66 440.096 594.66H461.098C465.455 594.66 468.989 598.192 468.989 602.551V623.553C468.989 627.91 465.457 631.444 461.098 631.444Z" fill="#6340BC"/>
<path opacity="0.4" d="M512.003 631.444H491.002C486.645 631.444 483.111 627.912 483.111 623.553V602.551C483.111 598.194 486.643 594.66 491.002 594.66H512.003C516.359 594.66 519.893 598.192 519.893 602.551V623.553C519.893 627.91 516.361 631.444 512.003 631.444Z" fill="#6340BC"/>
<path opacity="0.4" d="M562.909 631.444H541.906C537.55 631.444 534.016 627.912 534.016 623.553V602.551C534.016 598.194 537.548 594.66 541.906 594.66H562.909C567.266 594.66 570.8 598.192 570.8 602.551V623.553C570.8 627.91 567.268 631.444 562.909 631.444Z" fill="#6340BC"/>
<path opacity="0.4" d="M613.815 631.444H592.813C588.456 631.444 584.922 627.912 584.922 623.553V602.551C584.922 598.194 588.454 594.66 592.813 594.66H613.815C618.172 594.66 621.706 598.192 621.706 602.551V623.553C621.704 627.91 618.172 631.444 613.815 631.444Z" fill="#6340BC"/>
<path opacity="0.4" d="M664.721 631.444H643.719C639.362 631.444 635.828 627.912 635.828 623.553V602.551C635.828 598.194 639.36 594.66 643.719 594.66H664.721C669.078 594.66 672.612 598.192 672.612 602.551V623.553C672.61 627.91 669.078 631.444 664.721 631.444Z" fill="#6340BC"/>
<path opacity="0.4" d="M715.63 631.444H694.627C690.27 631.444 686.736 627.912 686.736 623.553V602.551C686.736 598.194 690.268 594.66 694.627 594.66H715.63C719.986 594.66 723.52 598.192 723.52 602.551V623.553C723.518 627.91 719.986 631.444 715.63 631.444Z" fill="#6340BC"/>
<path opacity="0.4" d="M410.19 681.079H389.19C384.833 681.079 381.299 677.547 381.299 673.188V652.186C381.299 647.829 384.831 644.295 389.19 644.295H410.19C414.549 644.295 418.081 647.827 418.081 652.186V673.188C418.081 677.547 414.549 681.079 410.19 681.079Z" fill="#6340BC"/>
<path opacity="0.4" d="M461.098 681.079H440.096C435.739 681.079 432.205 677.547 432.205 673.188V652.186C432.205 647.829 435.737 644.295 440.096 644.295H461.098C465.455 644.295 468.989 647.827 468.989 652.186V673.188C468.989 677.547 465.457 681.079 461.098 681.079Z" fill="#6340BC"/>
<path opacity="0.4" d="M512.003 681.079H491.002C486.645 681.079 483.111 677.547 483.111 673.188V652.186C483.111 647.829 486.643 644.295 491.002 644.295H512.003C516.359 644.295 519.893 647.827 519.893 652.186V673.188C519.893 677.547 516.361 681.079 512.003 681.079Z" fill="#6340BC"/>
<path opacity="0.4" d="M562.909 681.079H541.906C537.55 681.079 534.016 677.547 534.016 673.188V652.186C534.016 647.829 537.548 644.295 541.906 644.295H562.909C567.266 644.295 570.8 647.827 570.8 652.186V673.188C570.8 677.547 567.268 681.079 562.909 681.079Z" fill="#6340BC"/>
<path opacity="0.4" d="M613.815 681.079H592.813C588.456 681.079 584.922 677.547 584.922 673.188V652.186C584.922 647.829 588.454 644.295 592.813 644.295H613.815C618.172 644.295 621.706 647.827 621.706 652.186V673.188C621.704 677.547 618.172 681.079 613.815 681.079Z" fill="#6340BC"/>
<path opacity="0.4" d="M664.721 681.079H643.719C639.362 681.079 635.828 677.547 635.828 673.188V652.186C635.828 647.829 639.36 644.295 643.719 644.295H664.721C669.078 644.295 672.612 647.827 672.612 652.186V673.188C672.61 677.547 669.078 681.079 664.721 681.079Z" fill="#6340BC"/>
<path opacity="0.4" d="M715.63 681.079H694.627C690.27 681.079 686.736 677.547 686.736 673.188V652.186C686.736 647.829 690.268 644.295 694.627 644.295H715.63C719.986 644.295 723.52 647.827 723.52 652.186V673.188C723.518 677.547 719.986 681.079 715.63 681.079Z" fill="#6340BC"/>
<path opacity="0.4" d="M410.19 730.714H389.19C384.833 730.714 381.299 727.182 381.299 722.823V701.821C381.299 697.462 384.831 693.93 389.19 693.93H410.19C414.549 693.93 418.081 697.462 418.081 701.821V722.823C418.081 727.182 414.549 730.714 410.19 730.714Z" fill="#6340BC"/>
<path opacity="0.4" d="M461.098 730.714H440.096C435.739 730.714 432.205 727.182 432.205 722.823V701.821C432.205 697.462 435.737 693.93 440.096 693.93H461.098C465.455 693.93 468.989 697.462 468.989 701.821V722.823C468.989 727.182 465.457 730.714 461.098 730.714Z" fill="#6340BC"/>
<path opacity="0.4" d="M512.003 730.714H491.002C486.645 730.714 483.111 727.182 483.111 722.823V701.821C483.111 697.462 486.643 693.93 491.002 693.93H512.003C516.359 693.93 519.893 697.462 519.893 701.821V722.823C519.893 727.182 516.361 730.714 512.003 730.714Z" fill="#6340BC"/>
<path opacity="0.4" d="M562.909 730.714H541.906C537.55 730.714 534.016 727.182 534.016 722.823V701.821C534.016 697.462 537.548 693.93 541.906 693.93H562.909C567.266 693.93 570.8 697.462 570.8 701.821V722.823C570.8 727.182 567.268 730.714 562.909 730.714Z" fill="#6340BC"/>
<path opacity="0.4" d="M613.815 730.714H592.813C588.456 730.714 584.922 727.182 584.922 722.823V701.821C584.922 697.462 588.454 693.93 592.813 693.93H613.815C618.172 693.93 621.706 697.462 621.706 701.821V722.823C621.704 727.182 618.172 730.714 613.815 730.714Z" fill="#6340BC"/>
<path opacity="0.4" d="M664.721 730.714H643.719C639.362 730.714 635.828 727.182 635.828 722.823V701.821C635.828 697.462 639.36 693.93 643.719 693.93H664.721C669.078 693.93 672.612 697.462 672.612 701.821V722.823C672.61 727.182 669.078 730.714 664.721 730.714Z" fill="#6340BC"/>
<path opacity="0.4" d="M715.63 730.714H694.627C690.27 730.714 686.736 727.182 686.736 722.823V701.821C686.736 697.462 690.268 693.93 694.627 693.93H715.63C719.986 693.93 723.52 697.462 723.52 701.821V722.823C723.518 727.182 719.986 730.714 715.63 730.714Z" fill="#6340BC"/>
<path d="M612.849 603.739C635.151 598.473 648.962 576.124 643.696 553.822C638.429 531.52 616.081 517.709 593.778 522.975C571.476 528.242 557.666 550.59 562.932 572.893C568.198 595.195 590.547 609.006 612.849 603.739Z" fill="#13304E"/>
<path d="M611.173 596.663C629.567 592.32 640.958 573.887 636.614 555.493C632.271 537.099 613.839 525.708 595.444 530.052C577.05 534.395 565.66 552.827 570.003 571.222C574.346 589.616 592.779 601.006 611.173 596.663Z" fill="#FB9129"/>
<path d="M603.311 589.634C617.79 589.634 629.527 577.897 629.527 563.418C629.527 548.94 617.79 537.203 603.311 537.203C588.833 537.203 577.096 548.94 577.096 563.418C577.096 577.897 588.833 589.634 603.311 589.634Z" fill="#FBD34C"/>
<path d="M611.955 566.763C611.805 566.258 611.598 565.778 611.334 565.33C611.069 564.88 610.742 564.478 610.349 564.123C609.956 563.765 609.526 563.462 609.055 563.207C608.583 562.954 608.07 562.771 607.519 562.654L607.486 562.516C608.176 562.218 608.802 561.808 609.366 561.291C609.929 560.774 610.379 560.17 610.712 559.48C611.045 558.789 611.213 558.053 611.213 557.27C611.213 555.452 610.586 553.978 609.333 552.852C608.778 552.354 608.054 551.974 607.176 551.695V549.288C607.176 549.045 606.981 548.85 606.738 548.85H603.871C603.63 548.85 603.433 549.045 603.433 549.288V551.171C603.309 551.169 603.194 551.161 603.066 551.161H600.901V549.288C600.901 549.045 600.706 548.85 600.463 548.85H597.596C597.356 548.85 597.158 549.045 597.158 549.288V551.161H596.231C595.309 551.161 594.852 551.622 594.852 552.542V573.943C594.852 574.864 595.311 575.324 596.231 575.324H597.158V577.005C597.158 577.246 597.354 577.443 597.596 577.443H600.463C600.704 577.443 600.901 577.248 600.901 577.005V575.324H603.431V577.005C603.431 577.246 603.626 577.443 603.869 577.443H606.736C606.977 577.443 607.174 577.248 607.174 577.005V574.912C608.342 574.608 609.307 574.138 610.055 573.493C611.47 572.274 612.178 570.547 612.178 568.316C612.18 567.787 612.103 567.27 611.955 566.763ZM605.897 570.078C605.345 570.561 604.564 570.802 603.549 570.802H600.167V565.312H602.997C604.193 565.312 605.114 565.535 605.759 565.985C606.403 566.433 606.726 567.106 606.726 568.004C606.724 568.904 606.448 569.594 605.897 570.078ZM604.982 556.287C605.499 556.713 605.759 557.351 605.759 558.203C605.759 558.917 605.483 559.527 604.931 560.032C604.378 560.539 603.585 560.792 602.549 560.792H600.167V555.648H602.618C603.676 555.648 604.465 555.861 604.982 556.287Z" fill="#FB9129"/>
<path d="M498.568 572.579C497.782 572.579 497.031 572.267 496.474 571.713L489.4 564.637C488.244 563.481 488.244 561.608 489.4 560.452C490.557 559.296 492.431 559.296 493.586 560.452L498.568 565.434L509.426 554.578C510.582 553.421 512.455 553.421 513.611 554.578C514.768 555.734 514.768 557.607 513.611 558.763L500.661 571.713C500.105 572.267 499.353 572.579 498.568 572.579Z" fill="#8E81D3"/>
<path d="M702.328 622.487C701.542 622.487 700.79 622.176 700.234 621.619L693.16 614.543C692.004 613.387 692.004 611.514 693.16 610.358C694.316 609.202 696.191 609.202 697.345 610.358L702.328 615.34L713.184 604.484C714.34 603.328 716.213 603.328 717.369 604.484C718.525 605.64 718.525 607.513 717.369 608.669L704.419 621.619C703.865 622.176 703.113 622.487 702.328 622.487Z" fill="#8E81D3"/>
<path d="M180.763 230.922C179.893 230.922 179.036 230.54 178.458 229.821L78.9252 106.565C77.8972 105.292 78.0964 103.429 79.3691 102.403C80.6418 101.377 82.5045 101.576 83.5306 102.847L172.042 212.455L133.718 105.815C133.166 104.276 133.963 102.581 135.502 102.028C137.039 101.476 138.736 102.273 139.289 103.812L183.547 226.96C184.036 228.32 183.47 229.833 182.211 230.542C181.755 230.798 181.256 230.922 180.763 230.922Z" fill="#13304E"/>
<path d="M180.76 230.922C180.265 230.922 179.767 230.798 179.312 230.541C178.055 229.835 177.49 228.323 177.976 226.964L222.078 103.666C222.631 102.127 224.324 101.328 225.863 101.876C227.402 102.427 228.203 104.122 227.653 105.661L189.395 212.619L279.589 101.395C280.617 100.122 282.481 99.9286 283.752 100.961C285.023 101.991 285.216 103.853 284.186 105.124L183.061 229.827C182.481 230.539 181.628 230.922 180.76 230.922Z" fill="#13304E"/>
<path d="M286.1 103.856C286.392 105.91 284.062 107.35 282.363 106.152C275.776 101.492 267.72 98.7412 259.028 98.7412C246.131 98.7412 234.626 104.809 227.214 114.26C226.664 114.957 225.888 115.28 225.095 115.247C224.221 115.215 223.363 114.746 222.846 113.903C222.118 112.674 221.34 111.492 220.5 110.359C220.288 110.067 220.079 109.777 219.852 109.485C219.675 109.243 219.497 109.016 219.302 108.773C218.655 107.932 217.958 107.123 217.264 106.33C216.908 105.941 216.551 105.553 216.18 105.182C215.76 104.728 215.322 104.292 214.87 103.872C214.11 103.128 213.317 102.415 212.508 101.719C212.088 101.346 211.65 100.991 211.214 100.651C210.324 99.9389 209.418 99.276 208.495 98.6445C208.025 98.3052 207.556 97.9973 207.086 97.7053C206.585 97.3817 206.066 97.0739 205.565 96.7661C205.095 96.5076 204.625 96.2313 204.158 95.9886C203.299 95.5032 202.427 95.0672 201.52 94.6449C200.436 94.126 199.319 93.6583 198.187 93.2361C197.879 93.1058 197.589 93.0091 197.281 92.8967C196.973 92.7842 196.65 92.6698 196.344 92.5731C195.955 92.4271 195.566 92.3146 195.18 92.2001C194.825 92.0877 194.452 91.9732 194.079 91.8765C193.157 91.6023 192.218 91.3753 191.263 91.1642C190.712 91.0517 190.162 90.9373 189.613 90.8406C189.094 90.7439 188.562 90.6472 188.027 90.5821C187.946 90.5506 187.849 90.5505 187.768 90.5328C187.218 90.4519 186.667 90.3868 186.119 90.3217C185.699 90.2723 185.276 90.2408 184.856 90.2092C183.497 90.0947 182.137 90.0316 180.746 90.0316C179.355 90.0316 177.962 90.0967 176.586 90.2092C176.182 90.2408 175.793 90.2743 175.389 90.3217C175.324 90.3217 175.259 90.3374 175.193 90.3374C174.676 90.4026 174.175 90.4677 173.656 90.5308C173.607 90.5466 173.544 90.5466 173.479 90.5624C172.962 90.6433 172.427 90.7242 171.91 90.8209C171.555 90.886 171.198 90.9511 170.827 91.032C170.422 91.1129 170.018 91.1938 169.629 91.2905C169.436 91.3398 169.225 91.3872 169.031 91.4365C168.611 91.5332 168.191 91.6476 167.784 91.7601C167.38 91.8726 166.959 91.987 166.537 92.1153C166.052 92.2613 165.566 92.4231 165.081 92.5849C164.773 92.6816 164.449 92.796 164.142 92.9085C163.834 93.021 163.526 93.1354 163.236 93.2479C162.249 93.6208 161.261 94.0411 160.29 94.4772C159.254 94.9468 158.234 95.448 157.247 96.0143C156.746 96.2728 156.245 96.5648 155.758 96.8549C155.272 97.1291 154.787 97.4212 154.317 97.7448C153.832 98.0368 153.362 98.3427 152.908 98.684C151.969 99.2996 151.063 99.9784 150.189 100.691C149.735 101.046 149.315 101.403 148.879 101.774C148.443 102.129 148.021 102.502 147.616 102.891C146.776 103.651 145.967 104.444 145.189 105.253C143.021 107.534 141.046 110.026 139.349 112.696C139.074 113.116 138.814 113.536 138.555 113.958C138.54 113.974 138.524 113.99 138.524 114.024C138.038 114.848 137.18 115.318 136.306 115.367C135.513 115.399 134.688 115.093 134.137 114.381C126.758 104.866 115.221 98.7333 102.243 98.7333C93.6833 98.7333 85.7215 101.419 79.1844 105.983C77.4539 107.181 75.1058 105.805 75.3979 103.718C76.0135 99.3805 76.9034 95.1244 78.0676 90.9669C90.2046 47.2925 131.58 15.1553 180.74 15.1553C229.981 15.1553 271.39 47.405 283.478 91.1761C284.628 95.3118 285.502 99.5344 286.1 103.856Z" fill="#8E81D3"/>
<path d="M283.484 91.1893C276.696 86.0077 268.218 82.9256 259.035 82.9256C247.722 82.9256 237.483 87.5981 230.141 95.1159C227.418 97.904 222.831 97.758 220.548 94.5989C211.629 82.2626 197.132 74.2337 180.737 74.2337C164.298 74.2337 149.77 82.2981 140.841 94.6858C138.552 97.8606 133.945 98.0007 131.22 95.1929C123.886 87.6297 113.615 82.9276 102.246 82.9276C93.1888 82.9276 84.8166 85.9248 78.0742 90.9781C90.2132 47.3018 131.579 15.1646 180.737 15.1646C229.979 15.1606 271.389 47.4063 283.484 91.1893Z" fill="#6340BC"/>
<path opacity="0.4" d="M225.095 115.247C224.221 115.215 223.363 114.746 222.846 113.903C222.117 112.674 221.34 111.492 220.499 110.359C220.288 110.067 220.079 109.777 219.852 109.485C219.675 109.243 219.497 109.016 219.302 108.773C218.655 107.932 217.958 107.123 217.263 106.33C216.908 105.941 216.551 105.553 216.18 105.182C215.76 104.728 215.322 104.292 214.87 103.871C214.11 103.128 213.317 102.415 212.508 101.719C212.088 101.346 211.65 100.991 211.214 100.651C210.324 99.9389 209.418 99.276 208.495 98.6445C208.025 98.3209 207.555 98.0131 207.086 97.7053C206.585 97.3817 206.066 97.0739 205.564 96.7661C205.095 96.5076 204.625 96.2313 204.158 95.9886C203.299 95.5032 202.427 95.0672 201.519 94.6449C200.436 94.1259 199.319 93.6583 198.187 93.2361C197.879 93.1058 197.589 93.0091 197.281 92.8967C196.973 92.7842 196.65 92.6698 196.344 92.5731C195.955 92.427 195.566 92.3146 195.18 92.2001C194.824 92.0877 194.452 91.9732 194.079 91.8765C193.157 91.6023 192.218 91.3753 191.263 91.1642C190.712 91.0517 190.162 90.9373 189.613 90.8406C189.094 90.7439 188.562 90.6472 188.027 90.5821C187.946 90.5505 187.849 90.5505 187.768 90.5328C187.218 90.4519 186.667 90.3868 186.119 90.3217C185.698 90.2723 185.276 90.2408 184.856 90.2092C183.496 90.0947 182.137 90.0316 180.746 90.0316C179.355 90.0316 177.962 90.0967 176.586 90.2092C176.182 90.2408 175.793 90.2743 175.389 90.3217C175.323 90.3217 175.258 90.3374 175.193 90.3374C174.676 90.4026 174.175 90.4677 173.656 90.5308C173.607 90.5466 173.544 90.5466 173.479 90.5624C172.962 90.6433 172.427 90.7242 171.91 90.8209C171.555 90.886 171.198 90.9511 170.827 91.032C170.422 91.1129 170.018 91.1938 169.629 91.2905C169.436 91.3398 169.224 91.3872 169.031 91.4365C168.611 91.5332 168.19 91.6476 167.784 91.7601C167.379 91.8726 166.959 91.987 166.537 92.1153C166.052 92.2613 165.566 92.4231 165.081 92.5849C164.773 92.6816 164.449 92.796 164.141 92.9085C163.834 93.021 163.526 93.1354 163.236 93.2479C162.249 93.6208 161.261 94.0411 160.29 94.4772C159.254 94.9468 158.234 95.4638 157.247 96.0143C156.746 96.2905 156.245 96.5648 155.757 96.8549C155.27 97.1449 154.787 97.4369 154.317 97.7448C153.832 98.0368 153.362 98.3426 152.908 98.684C151.969 99.3154 151.063 99.9942 150.189 100.691C149.735 101.046 149.315 101.403 148.879 101.774C148.443 102.129 148.021 102.502 147.616 102.891C146.776 103.65 145.967 104.444 145.189 105.253C143.021 107.534 141.045 110.026 139.348 112.696C139.074 113.116 138.814 113.536 138.555 113.958C138.539 113.974 138.524 113.99 138.524 114.024C138.038 114.848 137.18 115.318 136.306 115.367C136.144 112.115 136.063 105.641 137.212 97.0502C139.881 76.7915 149.396 44.7352 180.74 15.1553C212.877 44.6543 222.149 76.758 224.543 97.0028C225.549 105.555 225.338 111.995 225.095 115.247Z" fill="#6340BC"/>
<path d="M252.827 275.674C252.827 277.783 252.748 279.84 252.533 281.896C252.185 286.168 251.465 290.333 250.37 294.364C249.303 298.423 247.86 302.348 246.098 306.112C244.309 309.956 242.199 313.614 239.77 317.032C237.367 320.475 234.672 323.68 231.733 326.618C228.744 329.609 225.512 332.332 222.041 334.733C218.651 337.137 215.046 339.218 211.254 341.008C207.463 342.77 203.483 344.238 199.373 345.333C195.395 346.401 191.283 347.123 187.065 347.468C184.983 347.681 182.874 347.762 180.737 347.762C178.602 347.762 176.492 347.681 174.409 347.468C170.19 347.121 166.078 346.401 162.1 345.333C157.988 344.238 154.038 342.798 150.245 341.008C146.455 339.246 142.824 337.137 139.432 334.733C135.961 332.33 132.729 329.607 129.74 326.618C126.804 323.682 124.106 320.477 121.703 317.06C119.3 313.616 117.165 309.958 115.375 306.112C113.613 302.348 112.171 298.423 111.103 294.364C110.008 290.333 109.288 286.193 108.94 281.923C108.727 279.867 108.646 277.785 108.646 275.676C108.646 273.567 108.727 271.485 108.94 269.429C109.288 265.157 110.008 261.019 111.103 256.988C112.171 252.929 113.613 249.005 115.375 245.24C117.165 241.394 119.3 237.738 121.703 234.293C124.106 230.875 126.804 227.671 129.74 224.734C132.729 221.745 135.961 219.02 139.432 216.619C142.824 214.215 146.455 212.106 150.245 210.344C154.036 208.554 157.988 207.114 162.1 206.019C166.078 204.951 170.19 204.231 174.409 203.884C176.49 203.671 178.6 203.59 180.737 203.59C182.874 203.59 184.983 203.669 187.065 203.884C191.283 204.231 195.395 204.951 199.373 206.019C203.485 207.114 207.463 208.582 211.254 210.344C215.044 212.134 218.649 214.215 222.041 216.619C225.512 219.022 228.742 221.745 231.733 224.734C234.672 227.671 237.367 230.875 239.77 234.32C242.199 237.738 244.309 241.396 246.098 245.24C247.86 249.005 249.303 252.929 250.37 256.988C251.465 261.019 252.185 265.185 252.533 269.457C252.748 271.509 252.827 273.565 252.827 275.674Z" fill="#FB9129"/>
<path d="M217.156 275.674L252.532 281.896C252.184 286.168 251.464 290.333 250.369 294.364L214.939 288.117L246.097 306.112C244.307 309.956 242.198 313.614 239.769 317.032L208.638 299.064L231.732 326.618C228.743 329.609 225.511 332.332 222.04 334.733L198.946 307.208L211.255 341.008C207.464 342.77 203.484 344.238 199.374 345.333L187.066 311.533V347.47C184.984 347.683 182.874 347.764 180.738 347.764C178.603 347.764 176.493 347.683 174.41 347.47V311.533L162.101 345.333C157.989 344.238 154.038 342.798 150.246 341.008L162.527 307.208L139.433 334.733C135.962 332.33 132.73 329.607 129.741 326.618L152.862 299.064L121.706 317.06C119.303 313.616 117.168 309.958 115.378 306.112L146.536 288.117L111.106 294.364C110.011 290.333 109.291 286.193 108.943 281.923L144.346 275.676L108.943 269.429C109.291 265.157 110.011 261.019 111.106 256.988L146.536 263.235L115.378 245.24C117.168 241.394 119.303 237.738 121.706 234.293L152.862 252.288L129.741 224.735C132.73 221.745 135.962 219.02 139.433 216.619L162.527 244.145L150.246 210.344C154.036 208.554 157.989 207.114 162.101 206.019L174.41 239.819V203.882C176.491 203.669 178.601 203.588 180.738 203.588C182.874 203.588 184.984 203.667 187.066 203.882V239.819L199.374 206.019C203.486 207.114 207.464 208.582 211.255 210.344L198.946 244.145L222.04 216.619C225.511 219.022 228.741 221.745 231.732 224.735L208.638 252.288L239.769 234.32C242.198 237.738 244.307 241.396 246.097 245.24L214.939 263.235L250.369 256.988C251.464 261.019 252.184 265.185 252.532 269.457L217.156 275.674Z" fill="#FBD34C"/>
<path d="M202.717 328.699C232 316.569 245.905 282.998 233.775 253.716C221.646 224.433 188.075 210.528 158.792 222.657C129.51 234.787 115.604 268.358 127.734 297.64C139.863 326.923 173.434 340.828 202.717 328.699Z" fill="#FB9129"/>
<path d="M202.774 284.297C202.417 283.092 201.923 281.953 201.294 280.884C200.662 279.812 199.881 278.853 198.95 278.005C198.016 277.154 196.988 276.428 195.864 275.824C194.739 275.221 193.519 274.783 192.203 274.508L192.121 274.179C193.766 273.466 195.258 272.492 196.604 271.258C197.945 270.025 199.015 268.585 199.81 266.939C200.605 265.294 201.002 263.539 201.002 261.675C201.002 257.342 199.508 253.831 196.521 251.144C195.201 249.958 193.472 249.05 191.379 248.387V242.647C191.379 242.071 190.911 241.604 190.335 241.604H183.502C182.926 241.604 182.458 242.071 182.458 242.647V247.132C182.164 247.126 181.888 247.111 181.586 247.111H176.428V242.647C176.428 242.071 175.96 241.604 175.386 241.604H168.551C167.975 241.604 167.509 242.071 167.509 242.647V247.111H165.297C163.103 247.111 162.008 248.21 162.008 250.402V301.409C162.008 303.603 163.103 304.7 165.297 304.7H167.509V308.707C167.509 309.284 167.975 309.749 168.551 309.749H175.386C175.962 309.749 176.428 309.282 176.428 308.707V304.7H182.458V308.707C182.458 309.284 182.926 309.749 183.502 309.749H190.335C190.911 309.749 191.379 309.282 191.379 308.707V303.719C194.165 302.995 196.463 301.876 198.245 300.339C201.619 297.433 203.306 293.321 203.306 287.999C203.308 286.738 203.131 285.505 202.774 284.297ZM188.336 292.196C187.02 293.346 185.155 293.924 182.742 293.924H174.68V280.844H181.426C184.277 280.844 186.471 281.379 188.008 282.448C189.542 283.518 190.311 285.122 190.311 287.261C190.311 289.398 189.652 291.044 188.336 292.196ZM186.156 259.329C187.389 260.343 188.006 261.866 188.006 263.893C188.006 265.593 187.347 267.048 186.031 268.253C184.715 269.461 182.823 270.063 180.354 270.063H174.678V257.805H180.518C183.044 257.807 184.922 258.314 186.156 259.329Z" fill="#FBD34C"/>
<path d="M574.549 147.836C573.679 147.836 572.825 147.454 572.245 146.735L504.484 62.8259C503.456 61.5532 503.655 59.6905 504.928 58.6645C506.2 57.6384 508.065 57.8377 509.089 59.1084L565.828 129.371L541.631 62.0425C541.078 60.5035 541.878 58.8085 543.415 58.256C544.952 57.7055 546.649 58.5026 547.201 60.0398L577.332 143.876C577.819 145.236 577.255 146.749 575.996 147.458C575.542 147.712 575.043 147.836 574.549 147.836Z" fill="#13304E"/>
<path d="M574.547 147.837C574.052 147.837 573.555 147.712 573.099 147.456C571.842 146.75 571.277 145.238 571.763 143.879L601.787 59.9394C602.339 58.4003 604.032 57.6012 605.571 58.1497C607.11 58.7002 607.912 60.3952 607.361 61.9343L583.182 129.532L640.743 58.5483C641.773 57.2776 643.636 57.0822 644.907 58.1142C646.177 59.1442 646.371 61.0069 645.341 62.2776L576.848 146.74C576.268 147.454 575.415 147.837 574.547 147.837Z" fill="#13304E"/>
<path d="M646.26 60.3873C646.457 61.7862 644.873 62.7669 643.715 61.952C639.232 58.7791 633.746 56.9066 627.831 56.9066C619.05 56.9066 611.218 61.0384 606.173 67.471C605.798 67.9445 605.269 68.1655 604.73 68.1419C604.137 68.1202 603.552 67.8005 603.199 67.2283C602.704 66.3916 602.175 65.5866 601.601 64.8151C601.457 64.6158 601.315 64.4185 601.161 64.2192C601.041 64.0534 600.918 63.8995 600.786 63.7338C600.346 63.1616 599.873 62.611 599.399 62.0704C599.156 61.806 598.914 61.5416 598.661 61.289C598.375 60.9812 598.077 60.6832 597.769 60.3971C597.252 59.89 596.712 59.4066 596.161 58.931C595.875 58.6785 595.577 58.4358 595.279 58.2049C594.673 57.7195 594.056 57.2677 593.428 56.8395C593.108 56.6086 592.789 56.3995 592.469 56.2002C592.128 55.9792 591.775 55.77 591.433 55.5609C591.114 55.3852 590.794 55.1978 590.474 55.032C589.89 54.7025 589.296 54.4046 588.679 54.1185C587.941 53.7653 587.181 53.4456 586.41 53.1595C586.2 53.0707 586.001 53.0056 585.792 52.9286C585.583 52.8517 585.362 52.7747 585.153 52.7076C584.888 52.609 584.624 52.532 584.359 52.4551C584.117 52.3781 583.864 52.3012 583.61 52.2341C582.982 52.0466 582.343 51.8927 581.694 51.7487C581.319 51.6717 580.944 51.5948 580.571 51.5277C580.218 51.4606 579.855 51.3955 579.492 51.3521C579.436 51.3304 579.371 51.3304 579.316 51.3185C578.941 51.2633 578.566 51.2199 578.193 51.1745C577.907 51.1409 577.621 51.1192 577.333 51.0975C576.408 51.0206 575.482 50.9772 574.535 50.9772C573.588 50.9772 572.641 51.0206 571.703 51.0975C571.427 51.1192 571.163 51.1409 570.888 51.1745C570.845 51.1745 570.8 51.1863 570.756 51.1863C570.403 51.2297 570.062 51.2751 569.711 51.3185C569.677 51.3304 569.634 51.3304 569.59 51.3402C569.239 51.3955 568.874 51.4507 568.521 51.5158C568.278 51.5592 568.035 51.6046 567.783 51.6599C567.506 51.7151 567.232 51.7704 566.968 51.8355C566.836 51.869 566.692 51.9026 566.559 51.9341C566.273 52.0012 565.987 52.0782 565.711 52.1551C565.435 52.2321 565.149 52.309 564.862 52.3978C564.533 52.4965 564.201 52.607 563.872 52.7175C563.663 52.7846 563.442 52.8615 563.233 52.9385C563.023 53.0155 562.814 53.0924 562.615 53.1694C561.942 53.4219 561.271 53.71 560.61 54.006C559.906 54.3256 559.211 54.667 558.54 55.0518C558.199 55.2274 557.858 55.4267 557.526 55.624C557.195 55.8114 556.865 56.0088 556.545 56.2298C556.216 56.4291 555.896 56.6382 555.586 56.8691C554.947 57.2874 554.332 57.7511 553.736 58.2345C553.428 58.4772 553.14 58.7199 552.844 58.9725C552.546 59.2152 552.26 59.4678 551.983 59.7322C551.411 60.2491 550.861 60.7898 550.332 61.3403C548.856 62.8932 547.512 64.5901 546.356 66.4074C546.169 66.6935 545.993 66.9797 545.817 67.2677C545.805 67.2796 545.796 67.2894 545.796 67.3112C545.464 67.8735 544.882 68.1932 544.286 68.2247C543.745 68.2464 543.185 68.0373 542.81 67.5519C537.786 61.0739 529.933 56.8987 521.097 56.8987C515.27 56.8987 509.85 58.7278 505.399 61.8336C504.221 62.6485 502.622 61.7132 502.822 60.2906C503.24 57.3387 503.846 54.4401 504.639 51.6105C512.901 21.8786 541.07 0 574.537 0C608.059 0 636.25 21.9556 644.478 51.7546C645.258 54.5703 645.854 57.4452 646.26 60.3873Z" fill="#8E81D3"/>
<path d="M644.48 51.7639C639.859 48.2358 634.087 46.1383 627.834 46.1383C620.133 46.1383 613.164 49.3191 608.164 54.4375C606.311 56.3357 603.185 56.2351 601.632 54.0863C595.561 45.6884 585.691 40.2227 574.531 40.2227C563.341 40.2227 553.449 45.7121 547.37 54.1455C545.813 56.3061 542.676 56.4028 540.821 54.4908C535.827 49.3428 528.836 46.1403 521.097 46.1403C514.931 46.1403 509.232 48.1806 504.641 51.6218C512.904 21.8879 541.066 0.00927788 574.531 0.00927788C608.055 0.00533151 636.244 21.957 644.48 51.7639Z" fill="#6340BC"/>
<path opacity="0.4" d="M604.729 68.1418C604.135 68.1201 603.551 67.8005 603.197 67.2283C602.702 66.3916 602.173 65.5866 601.599 64.8151C601.455 64.6158 601.313 64.4184 601.159 64.2192C601.039 64.0534 600.916 63.8995 600.784 63.7338C600.344 63.1615 599.871 62.611 599.397 62.0704C599.154 61.806 598.912 61.5415 598.659 61.289C598.373 60.9812 598.075 60.6832 597.767 60.3971C597.25 59.89 596.71 59.4066 596.159 58.931C595.873 58.6785 595.575 58.4358 595.277 58.2049C594.671 57.7195 594.054 57.2676 593.426 56.8395C593.107 56.6185 592.787 56.4093 592.467 56.2001C592.126 55.9792 591.773 55.77 591.431 55.5608C591.112 55.3852 590.792 55.1978 590.472 55.032C589.888 54.7025 589.294 54.4046 588.677 54.1184C587.939 53.7652 587.179 53.4456 586.408 53.1595C586.198 53.0707 585.999 53.0056 585.79 52.9286C585.581 52.8517 585.36 52.7747 585.151 52.7076C584.886 52.609 584.622 52.532 584.357 52.4551C584.115 52.3781 583.862 52.3011 583.608 52.234C582.98 52.0466 582.341 51.8927 581.692 51.7486C581.317 51.6717 580.942 51.5947 580.569 51.5277C580.216 51.4606 579.853 51.3954 579.49 51.352C579.434 51.3303 579.369 51.3303 579.314 51.3185C578.939 51.2632 578.564 51.2198 578.191 51.1745C577.905 51.1409 577.619 51.1192 577.331 51.0975C576.406 51.0205 575.48 50.9771 574.533 50.9771C573.586 50.9771 572.639 51.0205 571.702 51.0975C571.425 51.1192 571.161 51.1409 570.887 51.1745C570.843 51.1745 570.798 51.1863 570.754 51.1863C570.401 51.2297 570.06 51.2751 569.709 51.3185C569.675 51.3303 569.632 51.3303 569.588 51.3402C569.237 51.3954 568.872 51.4507 568.519 51.5158C568.276 51.5592 568.033 51.6046 567.781 51.6599C567.505 51.7151 567.23 51.7704 566.966 51.8355C566.834 51.869 566.69 51.9026 566.557 51.9341C566.271 52.0012 565.985 52.0782 565.709 52.1551C565.433 52.2321 565.147 52.309 564.861 52.3978C564.531 52.4965 564.199 52.607 563.87 52.7175C563.661 52.7846 563.44 52.8615 563.231 52.9385C563.021 53.0154 562.812 53.0924 562.613 53.1693C561.94 53.4219 561.269 53.71 560.608 54.006C559.904 54.3256 559.209 54.6788 558.538 55.0518C558.197 55.2392 557.856 55.4267 557.524 55.624C557.193 55.8213 556.863 56.0206 556.544 56.2297C556.214 56.429 555.894 56.6382 555.585 56.8691C554.945 57.2992 554.33 57.7609 553.734 58.2345C553.426 58.4772 553.138 58.7199 552.842 58.9725C552.544 59.2152 552.258 59.4677 551.982 59.7321C551.409 60.2491 550.859 60.7898 550.33 61.3403C548.854 62.8932 547.51 64.5901 546.354 66.4074C546.167 66.6935 545.991 66.9796 545.815 67.2677C545.804 67.2796 545.794 67.2894 545.794 67.3111C545.462 67.8735 544.88 68.1931 544.284 68.2247C544.174 66.0108 544.118 61.6047 544.902 55.7542C546.719 41.9617 553.197 20.1383 574.535 0.00195312C596.414 20.085 602.726 41.94 604.356 55.7226C605.036 61.5435 604.892 65.9279 604.729 68.1418Z" fill="#6340BC"/>
<path d="M623.611 177.359C623.611 178.795 623.558 180.194 623.412 181.593C623.175 184.502 622.685 187.337 621.94 190.082C621.213 192.844 620.231 195.516 619.031 198.079C617.814 200.696 616.377 203.188 614.724 205.514C613.088 207.858 611.253 210.041 609.252 212.039C607.216 214.076 605.018 215.929 602.654 217.564C600.345 219.2 597.89 220.619 595.312 221.836C592.731 223.036 590.021 224.036 587.223 224.78C584.516 225.506 581.716 225.998 578.843 226.234C577.425 226.38 575.99 226.434 574.536 226.434C573.082 226.434 571.647 226.378 570.228 226.234C567.357 225.998 564.558 225.508 561.848 224.78C559.05 224.034 556.359 223.054 553.778 221.836C551.197 220.637 548.725 219.2 546.418 217.564C544.054 215.929 541.856 214.074 539.82 212.039C537.821 210.041 535.984 207.858 534.348 205.532C532.712 203.188 531.258 200.698 530.041 198.079C528.841 195.516 527.86 192.844 527.132 190.082C526.386 187.337 525.897 184.519 525.66 181.611C525.514 180.212 525.459 178.793 525.459 177.357C525.459 175.92 525.514 174.504 525.66 173.103C525.897 170.194 526.388 167.376 527.132 164.632C527.858 161.869 528.841 159.198 530.041 156.634C531.258 154.018 532.712 151.528 534.348 149.182C535.984 146.855 537.821 144.673 539.82 142.674C541.856 140.638 544.054 138.785 546.418 137.149C548.727 135.513 551.199 134.077 553.778 132.877C556.359 131.66 559.05 130.677 561.848 129.933C564.558 129.207 567.356 128.716 570.228 128.479C571.647 128.333 573.082 128.28 574.536 128.28C575.99 128.28 577.427 128.335 578.843 128.479C581.714 128.716 584.514 129.205 587.223 129.933C590.021 130.679 592.731 131.678 595.312 132.877C597.892 134.095 600.347 135.513 602.654 137.149C605.016 138.785 607.216 140.64 609.252 142.674C611.251 144.673 613.088 146.855 614.724 149.199C616.377 151.526 617.814 154.016 619.031 156.634C620.231 159.198 621.211 161.869 621.94 164.632C622.685 167.376 623.175 170.212 623.412 173.12C623.558 174.523 623.611 175.922 623.611 177.359Z" fill="#FB9129"/>
<path d="M599.329 177.358L623.411 181.593C623.175 184.501 622.685 187.337 621.939 190.081L597.819 185.827L619.031 198.079C617.814 200.695 616.377 203.187 614.724 205.514L593.53 193.282L609.252 212.039C607.216 214.075 605.018 215.928 602.654 217.564L586.931 198.824L595.311 221.836C592.731 223.035 590.021 224.036 587.223 224.78L578.843 201.768V226.234C577.425 226.38 575.99 226.433 574.536 226.433C573.082 226.433 571.647 226.378 570.228 226.234V201.768L561.848 224.78C559.05 224.034 556.359 223.053 553.778 221.836L562.138 198.824L546.416 217.564C544.052 215.928 541.854 214.073 539.818 212.039L555.558 193.282L534.346 205.533C532.71 203.189 531.256 200.699 530.039 198.081L551.25 185.829L527.13 190.083C526.384 187.339 525.895 184.521 525.658 181.612L549.761 177.358L525.658 173.104C525.895 170.196 526.386 167.378 527.13 164.633L551.25 168.887L530.039 156.636C531.256 154.019 532.71 151.529 534.346 149.183L555.558 161.435L539.818 142.678C541.854 140.641 544.052 138.788 546.416 137.153L562.138 155.892L553.778 132.881C556.359 131.663 559.05 130.681 561.848 129.937L570.228 152.948V128.482C571.647 128.336 573.082 128.283 574.536 128.283C575.99 128.283 577.427 128.338 578.843 128.482V152.948L587.223 129.937C590.021 130.683 592.731 131.681 595.311 132.881L586.931 155.892L602.654 137.153C605.016 138.788 607.216 140.643 609.252 142.678L593.53 161.435L614.724 149.203C616.377 151.529 617.814 154.019 619.031 156.638L597.819 168.889L621.939 164.635C622.685 167.38 623.175 170.215 623.411 173.124L599.329 177.358Z" fill="#FBD34C"/>
<path d="M574.538 216.43C596.115 216.43 613.607 198.938 613.607 177.36C613.607 155.783 596.115 138.292 574.538 138.292C552.961 138.292 535.469 155.783 535.469 177.36C535.469 198.938 552.961 216.43 574.538 216.43Z" fill="#FB9129"/>
<path d="M574.555 186.753L592.99 175.45L574.549 148.639L556.109 175.448L574.555 186.753Z" fill="#FBD34C"/>
<path d="M574.553 192.179L558.02 182.049L574.549 206.08L591.074 182.051L574.553 192.179Z" fill="#FBD34C"/>
<path opacity="0.3" d="M574.549 148.639L574.555 186.753L556.109 175.448L574.549 148.639Z" fill="#E79529"/>
<path opacity="0.3" d="M574.553 192.179L574.549 206.08L558.02 182.049L574.553 192.179Z" fill="#E79529"/>
<path d="M793.717 460.123C792.847 460.123 791.991 459.74 791.412 459.022L696.893 341.97C695.867 340.698 696.064 338.835 697.337 337.809C698.612 336.781 700.474 336.98 701.499 338.253L784.998 441.656L748.902 341.217C748.35 339.678 749.149 337.983 750.686 337.43C752.223 336.88 753.92 337.677 754.472 339.214L796.501 456.162C796.989 457.52 796.424 459.035 795.165 459.742C794.71 460 794.21 460.123 793.717 460.123Z" fill="#13304E"/>
<path d="M793.717 460.124C793.222 460.124 792.724 459.999 792.269 459.745C791.012 459.038 790.447 457.527 790.933 456.167L832.816 339.077C833.366 337.538 835.061 336.735 836.6 337.287C838.139 337.838 838.94 339.533 838.39 341.072L802.352 441.82L886.964 337.479C887.994 336.206 889.856 336.013 891.127 337.045C892.396 338.075 892.591 339.937 891.561 341.208L796.018 459.027C795.438 459.743 794.583 460.124 793.717 460.124Z" fill="#13304E"/>
<path d="M893.755 339.305C894.031 341.257 891.819 342.624 890.205 341.488C883.952 337.062 876.298 334.449 868.046 334.449C855.799 334.449 844.873 340.211 837.835 349.187C837.312 349.848 836.576 350.156 835.822 350.124C834.991 350.093 834.178 349.649 833.685 348.85C832.993 347.682 832.257 346.561 831.457 345.483C831.258 345.207 831.059 344.931 830.844 344.653C830.674 344.422 830.506 344.207 830.321 343.976C829.707 343.177 829.046 342.409 828.385 341.655C828.048 341.286 827.708 340.917 827.355 340.564C826.955 340.134 826.54 339.72 826.11 339.319C825.388 338.613 824.634 337.936 823.867 337.275C823.468 336.922 823.052 336.584 822.637 336.261C821.793 335.584 820.931 334.955 820.056 334.355C819.61 334.033 819.164 333.741 818.719 333.463C818.243 333.155 817.75 332.863 817.274 332.571C816.828 332.324 816.382 332.064 815.936 331.833C815.121 331.371 814.293 330.957 813.432 330.558C812.402 330.067 811.343 329.621 810.267 329.222C809.975 329.1 809.699 329.007 809.407 328.899C809.115 328.79 808.807 328.684 808.515 328.591C808.146 328.453 807.777 328.344 807.408 328.238C807.071 328.129 806.716 328.023 806.363 327.93C805.486 327.67 804.595 327.454 803.689 327.253C803.166 327.145 802.643 327.038 802.122 326.945C801.631 326.853 801.124 326.762 800.617 326.699C800.54 326.667 800.447 326.667 800.37 326.653C799.847 326.576 799.324 326.515 798.803 326.454C798.405 326.409 798.004 326.377 797.606 326.347C796.315 326.239 795.025 326.178 793.703 326.178C792.381 326.178 791.059 326.239 789.754 326.347C789.37 326.379 789.001 326.409 788.618 326.454C788.557 326.454 788.495 326.47 788.432 326.47C787.941 326.531 787.465 326.592 786.972 326.653C786.927 326.669 786.864 326.669 786.802 326.685C786.311 326.762 785.804 326.839 785.313 326.932C784.975 326.993 784.636 327.054 784.283 327.131C783.898 327.208 783.515 327.285 783.146 327.378C782.961 327.423 782.761 327.47 782.578 327.516C782.179 327.608 781.779 327.715 781.394 327.823C781.009 327.932 780.611 328.039 780.21 328.161C779.75 328.299 779.289 328.453 778.827 328.607C778.535 328.7 778.227 328.806 777.935 328.915C777.643 329.023 777.351 329.13 777.075 329.238C776.137 329.591 775.2 329.992 774.279 330.406C773.294 330.852 772.327 331.328 771.39 331.866C770.914 332.113 770.437 332.389 769.975 332.666C769.513 332.926 769.054 333.204 768.608 333.51C768.146 333.786 767.7 334.078 767.27 334.402C766.378 334.986 765.518 335.631 764.689 336.308C764.259 336.646 763.858 336.985 763.444 337.338C763.029 337.676 762.629 338.029 762.246 338.398C761.447 339.12 760.679 339.874 759.941 340.641C757.883 342.808 756.007 345.176 754.395 347.709C754.134 348.108 753.888 348.508 753.641 348.907C753.625 348.923 753.61 348.938 753.61 348.968C753.148 349.751 752.335 350.197 751.504 350.243C750.75 350.274 749.967 349.982 749.444 349.305C742.437 340.27 731.48 334.445 719.156 334.445C711.026 334.445 703.467 336.997 697.257 341.33C695.614 342.466 693.384 341.16 693.662 339.179C694.246 335.061 695.091 331.02 696.198 327.07C707.723 285.595 747.015 255.076 793.701 255.076C840.461 255.076 879.785 285.702 891.265 327.269C892.356 331.192 893.184 335.203 893.755 339.305Z" fill="#8E81D3"/>
<path d="M891.272 327.279C884.827 322.358 876.775 319.431 868.053 319.431C857.309 319.431 847.587 323.869 840.614 331.008C838.027 333.656 833.671 333.516 831.502 330.517C823.033 318.802 809.266 311.178 793.696 311.178C778.086 311.178 764.29 318.836 755.809 330.6C753.636 333.615 749.26 333.749 746.673 331.081C739.708 323.899 729.954 319.431 719.159 319.431C710.558 319.431 702.608 322.279 696.203 327.076C707.73 285.597 747.013 255.078 793.696 255.078C840.46 255.078 879.784 285.7 891.272 327.279Z" fill="#6340BC"/>
<path opacity="0.4" d="M835.822 350.124C834.992 350.093 834.179 349.649 833.685 348.85C832.993 347.682 832.257 346.561 831.458 345.483C831.258 345.207 831.059 344.931 830.844 344.653C830.674 344.422 830.507 344.207 830.321 343.976C829.708 343.177 829.047 342.409 828.385 341.655C828.048 341.286 827.709 340.917 827.355 340.564C826.955 340.134 826.541 339.72 826.11 339.319C825.388 338.613 824.634 337.936 823.867 337.275C823.468 336.922 823.052 336.584 822.638 336.261C821.793 335.584 820.931 334.955 820.057 334.355C819.611 334.047 819.165 333.755 818.719 333.463C818.243 333.155 817.75 332.863 817.274 332.571C816.829 332.324 816.383 332.064 815.937 331.833C815.122 331.371 814.293 330.957 813.433 330.558C812.403 330.067 811.343 329.621 810.268 329.222C809.976 329.1 809.699 329.007 809.407 328.899C809.115 328.79 808.808 328.684 808.516 328.591C808.147 328.453 807.778 328.344 807.409 328.238C807.071 328.129 806.716 328.023 806.363 327.93C805.487 327.67 804.595 327.454 803.689 327.253C803.166 327.145 802.643 327.038 802.122 326.945C801.631 326.853 801.124 326.762 800.617 326.699C800.54 326.667 800.447 326.667 800.37 326.653C799.847 326.576 799.324 326.515 798.804 326.454C798.405 326.409 798.004 326.377 797.606 326.347C796.315 326.239 795.025 326.178 793.703 326.178C792.381 326.178 791.059 326.239 789.755 326.347C789.37 326.379 789.001 326.409 788.618 326.454C788.557 326.454 788.496 326.47 788.433 326.47C787.941 326.531 787.466 326.592 786.972 326.653C786.927 326.669 786.864 326.669 786.803 326.685C786.311 326.762 785.804 326.839 785.313 326.932C784.976 326.993 784.636 327.054 784.283 327.131C783.898 327.208 783.515 327.285 783.146 327.378C782.961 327.423 782.762 327.47 782.578 327.516C782.18 327.608 781.779 327.715 781.394 327.823C781.009 327.932 780.611 328.039 780.21 328.161C779.751 328.299 779.289 328.453 778.827 328.607C778.535 328.7 778.227 328.806 777.935 328.915C777.643 329.023 777.351 329.13 777.075 329.238C776.138 329.591 775.2 329.992 774.279 330.406C773.294 330.852 772.327 331.344 771.39 331.866C770.915 332.127 770.437 332.389 769.975 332.666C769.514 332.942 769.054 333.218 768.608 333.51C768.146 333.786 767.7 334.078 767.27 334.402C766.378 335.002 765.518 335.647 764.689 336.308C764.259 336.646 763.859 336.985 763.444 337.338C763.03 337.676 762.629 338.029 762.246 338.398C761.447 339.12 760.68 339.874 759.942 340.641C757.884 342.808 756.007 345.176 754.395 347.709C754.135 348.108 753.888 348.508 753.641 348.907C753.626 348.923 753.61 348.938 753.61 348.968C753.148 349.751 752.335 350.197 751.504 350.243C751.351 347.155 751.274 341.006 752.365 332.847C754.9 313.609 763.936 283.166 793.701 255.076C824.218 283.089 833.024 313.577 835.298 332.802C836.253 340.919 836.051 347.034 835.822 350.124Z" fill="#6340BC"/>
<path d="M862.155 502.472C862.155 504.475 862.08 506.426 861.877 508.379C861.548 512.436 860.863 516.393 859.823 520.22C858.809 524.074 857.439 527.801 855.766 531.377C854.067 535.027 852.064 538.502 849.756 541.746C847.475 545.017 844.914 548.058 842.124 550.848C839.284 553.688 836.216 556.274 832.921 558.555C829.7 560.838 826.277 562.816 822.678 564.514C819.079 566.188 815.3 567.583 811.395 568.623C807.617 569.637 803.712 570.322 799.706 570.651C797.729 570.854 795.726 570.929 793.698 570.929C791.669 570.929 789.667 570.852 787.689 570.651C783.684 570.322 779.779 569.637 776 568.623C772.095 567.583 768.342 566.213 764.743 564.514C761.142 562.841 757.695 560.838 754.475 558.555C751.178 556.274 748.109 553.688 745.27 550.848C742.482 548.058 739.921 545.015 737.638 541.772C735.357 538.5 733.328 535.027 731.627 531.377C729.954 527.801 728.585 524.074 727.571 520.22C726.531 516.393 725.846 512.462 725.517 508.405C725.313 506.454 725.236 504.475 725.236 502.472C725.236 500.469 725.313 498.492 725.517 496.538C725.846 492.482 726.531 488.551 727.571 484.723C728.585 480.869 729.954 477.142 731.627 473.567C733.326 469.916 735.355 466.441 737.638 463.172C739.919 459.926 742.48 456.883 745.27 454.095C748.109 451.256 751.178 448.669 754.475 446.388C757.695 444.105 761.142 442.102 764.743 440.429C768.342 438.73 772.097 437.361 776 436.321C779.779 435.307 783.684 434.622 787.689 434.292C789.667 434.089 791.671 434.014 793.698 434.014C795.726 434.014 797.729 434.089 799.706 434.292C803.712 434.622 807.617 435.307 811.395 436.321C815.3 437.361 819.077 438.756 822.678 440.429C826.277 442.128 829.7 444.105 832.921 446.388C836.216 448.669 839.284 451.256 842.124 454.095C844.914 456.883 847.473 459.926 849.756 463.198C852.062 466.443 854.065 469.916 855.766 473.567C857.439 477.142 858.809 480.869 859.823 484.723C860.863 488.551 861.548 492.507 861.877 496.564C862.078 498.517 862.155 500.469 862.155 502.472Z" fill="#FB9129"/>
<path d="M828.283 502.472L861.878 508.379C861.549 512.436 860.864 516.393 859.824 520.22L826.179 514.287L855.769 531.377C854.07 535.027 852.067 538.502 849.759 541.746L820.197 524.682L842.128 550.848C839.289 553.688 836.221 556.274 832.926 558.555L810.994 532.415L822.683 564.514C819.084 566.188 815.305 567.583 811.4 568.623L799.711 536.523V570.651C797.734 570.854 795.731 570.929 793.703 570.929C791.674 570.929 789.671 570.852 787.694 570.651V536.523L776.005 568.623C772.1 567.583 768.347 566.213 764.748 564.514L776.412 532.415L754.48 558.555C751.183 556.274 748.114 553.688 745.275 550.848L767.232 524.682L737.645 541.772C735.364 538.5 733.335 535.027 731.634 531.377L761.224 514.287L727.579 520.22C726.54 516.393 725.855 512.462 725.525 508.405L759.146 502.472L725.525 496.538C725.855 492.482 726.54 488.551 727.579 484.723L761.224 490.656L731.634 473.567C733.333 469.916 735.362 466.441 737.645 463.172L767.232 480.262L745.275 454.095C748.114 451.256 751.183 448.669 754.48 446.388L776.412 472.529L764.748 440.429C768.347 438.73 772.102 437.361 776.005 436.321L787.694 468.421V434.292C789.671 434.089 791.676 434.014 793.703 434.014C795.731 434.014 797.734 434.089 799.711 434.292V468.421L811.4 436.321C815.305 437.361 819.082 438.756 822.683 440.429L810.994 472.529L832.926 446.388C836.221 448.669 839.289 451.256 842.128 454.095L820.197 480.262L849.759 463.198C852.065 466.443 854.068 469.916 855.769 473.567L826.179 490.656L859.824 484.723C860.864 488.551 861.549 492.507 861.878 496.564L828.283 502.472Z" fill="#FBD34C"/>
<path d="M847.518 511.205C852.34 481.495 832.164 453.502 802.454 448.68C772.745 443.858 744.751 464.034 739.93 493.744C735.108 523.454 755.284 551.447 784.993 556.269C814.703 561.09 842.696 540.914 847.518 511.205Z" fill="#FB9129"/>
<path d="M793.724 515.576L819.441 499.81L793.717 462.408L767.994 499.808L793.724 515.576Z" fill="#FBD34C"/>
<path d="M793.723 523.147L770.66 509.013L793.717 542.535L816.767 509.017L793.723 523.147Z" fill="#FBD34C"/>
<path opacity="0.3" d="M793.717 462.408L793.724 515.576L767.994 499.808L793.717 462.408Z" fill="#E79529"/>
<path opacity="0.3" d="M793.723 523.147L793.717 542.535L770.66 509.013L793.723 523.147Z" fill="#E79529"/>
<path d="M445.722 882.689C685.311 882.689 879.537 859.934 879.537 831.864C879.537 803.794 685.311 781.039 445.722 781.039C206.132 781.039 11.9062 803.794 11.9062 831.864C11.9062 859.934 206.132 882.689 445.722 882.689Z" fill="#6340BC"/>
<path d="M445.723 863.874C654.581 863.874 823.894 849.543 823.894 831.863C823.894 814.184 654.581 799.853 445.723 799.853C236.864 799.853 67.5508 814.184 67.5508 831.863C67.5508 849.543 236.864 863.874 445.723 863.874Z" fill="#8E81D3"/>
<path opacity="0.2" d="M445.724 846.941C520.748 846.941 581.566 841.074 581.566 833.837C581.566 826.6 520.748 820.733 445.724 820.733C370.701 820.733 309.883 826.6 309.883 833.837C309.883 841.074 370.701 846.941 445.724 846.941Z" fill="#6340BC"/>
<path opacity="0.2" d="M193.318 843.643C243.094 843.643 283.445 839.253 283.445 833.838C283.445 828.423 243.094 824.033 193.318 824.033C143.543 824.033 103.191 828.423 103.191 833.838C103.191 839.253 143.543 843.643 193.318 843.643Z" fill="#6340BC"/>
<path opacity="0.2" d="M698.129 843.643C747.905 843.643 788.256 839.253 788.256 833.838C788.256 828.423 747.905 824.033 698.129 824.033C648.353 824.033 608.002 828.423 608.002 833.838C608.002 839.253 648.353 843.643 698.129 843.643Z" fill="#6340BC"/>
<path d="M439.886 653.972C423.327 653.972 404.018 647.922 397.161 630.754C392.938 620.181 395.45 608.68 403.558 601.448C411.652 594.23 422.017 592.399 431.281 596.55C440.561 600.708 446.796 610.035 446.796 619.757V653.789L442.019 653.939C441.313 653.96 440.602 653.972 439.886 653.972ZM421.094 604.212C417.903 604.212 414.079 605.286 410.125 608.814C405.075 613.317 403.619 620.321 406.322 627.095C409.499 635.049 419.166 643.309 436.928 644.057V619.757C436.928 613.857 433.037 608.149 427.246 605.556C425.764 604.889 423.629 604.212 421.094 604.212Z" fill="#13304E"/>
<path d="M451.978 653.972C451.262 653.972 450.552 653.96 449.847 653.939L445.07 653.789V619.757C445.07 610.035 451.306 600.71 460.585 596.55C469.853 592.399 480.213 594.23 488.309 601.448C496.414 608.68 498.926 620.181 494.706 630.754C487.847 647.92 468.535 653.972 451.978 653.972ZM470.771 604.212C468.235 604.212 466.1 604.891 464.619 605.556C458.827 608.149 454.936 613.857 454.936 619.757V644.055C472.701 643.307 482.365 635.049 485.542 627.093C488.247 620.319 486.789 613.317 481.74 608.812C477.784 605.286 473.96 604.212 470.771 604.212Z" fill="#13304E"/>
<path d="M554.233 657.702H337.209V834.85H554.233V657.702Z" fill="#FBD34C"/>
<path d="M561.598 650.442H329.844V685.732H561.598V650.442Z" fill="#FB9129"/>
<path opacity="0.3" d="M561.598 673.371H329.844V685.735H561.598V673.371Z" fill="#D04B29"/>
<path d="M459.427 650.442H432.014V834.848H459.427V650.442Z" fill="#13304E"/>
<path opacity="0.3" d="M459.427 754.148H432.014V764.133H459.427V754.148Z" fill="#D04B29"/>
<path d="M554.233 731.143H337.209V754.15H554.233V731.143Z" fill="#13304E"/>
<path opacity="0.3" d="M554.233 685.734H337.209V697.579H554.233V685.734Z" fill="#D04B29"/>
<path d="M93.3619 548.023C92.4917 548.023 91.6354 547.641 91.0572 546.922L23.2982 463.013C22.2702 461.74 22.4695 459.878 23.7422 458.851C25.0169 457.825 26.8795 458.025 27.9036 459.295L84.6424 529.556L60.4453 462.23C59.8928 460.692 60.692 458.996 62.2291 458.445C63.7662 457.893 65.4631 458.69 66.0156 460.229L96.1461 544.063C96.6354 545.421 96.0691 546.936 94.8102 547.643C94.3544 547.901 93.8552 548.023 93.3619 548.023Z" fill="#13304E"/>
<path d="M93.3595 548.023C92.8662 548.023 92.367 547.899 91.9112 547.644C90.6543 546.938 90.09 545.427 90.5754 544.067L120.599 460.13C121.152 458.591 122.847 457.79 124.384 458.34C125.923 458.889 126.724 460.586 126.174 462.123L101.994 529.72L159.556 458.739C160.584 457.464 162.448 457.271 163.719 458.303C164.99 459.331 165.183 461.197 164.153 462.464L95.6603 546.926C95.0821 547.642 94.2277 548.023 93.3595 548.023Z" fill="#13304E"/>
<path d="M165.076 460.577C165.276 461.976 163.689 462.956 162.531 462.141C158.048 458.969 152.563 457.096 146.647 457.096C137.866 457.096 130.035 461.228 124.989 467.66C124.614 468.134 124.086 468.355 123.547 468.333C122.953 468.312 122.369 467.992 122.016 467.42C121.52 466.583 120.992 465.778 120.417 465.006C120.273 464.809 120.131 464.61 119.977 464.413C119.857 464.247 119.735 464.093 119.603 463.927C119.162 463.355 118.689 462.804 118.215 462.264C117.973 461.999 117.73 461.735 117.477 461.482C117.191 461.175 116.893 460.877 116.586 460.59C116.069 460.083 115.528 459.598 114.977 459.126C114.691 458.874 114.393 458.631 114.095 458.4C113.49 457.915 112.872 457.463 112.245 457.035C111.925 456.804 111.605 456.595 111.286 456.396C110.944 456.175 110.591 455.965 110.25 455.756C109.93 455.581 109.61 455.393 109.291 455.227C108.707 454.898 108.113 454.6 107.495 454.314C106.757 453.961 105.997 453.643 105.226 453.355C105.017 453.266 104.817 453.201 104.608 453.124C104.399 453.047 104.178 452.97 103.969 452.903C103.705 452.804 103.44 452.727 103.176 452.65C102.933 452.573 102.681 452.496 102.426 452.429C101.799 452.242 101.159 452.088 100.51 451.944C100.135 451.867 99.7602 451.79 99.3873 451.723C99.0341 451.658 98.671 451.591 98.308 451.547C98.2527 451.526 98.1876 451.526 98.1323 451.514C97.7574 451.459 97.3825 451.415 97.0096 451.37C96.7235 451.336 96.4374 451.315 96.1493 451.293C95.2239 451.216 94.2985 451.172 93.3513 451.172C92.4042 451.172 91.4571 451.216 90.5198 451.293C90.2436 451.315 89.9792 451.336 89.7049 451.37C89.6615 451.37 89.6161 451.382 89.5727 451.382C89.2195 451.425 88.8781 451.47 88.5269 451.514C88.4934 451.526 88.45 451.526 88.4065 451.536C88.0533 451.591 87.6903 451.646 87.3371 451.711C87.0944 451.755 86.8517 451.8 86.5991 451.855C86.3229 451.91 86.0486 451.966 85.7842 452.031C85.652 452.064 85.5079 452.096 85.3757 452.129C85.0896 452.197 84.8035 452.274 84.5273 452.35C84.251 452.427 83.9649 452.504 83.6788 452.593C83.3493 452.692 83.0178 452.802 82.6883 452.913C82.4791 452.978 82.2581 453.057 82.049 453.134C81.8398 453.211 81.6306 453.288 81.4313 453.365C80.7585 453.617 80.0876 453.905 79.4266 454.201C78.7222 454.521 78.0276 454.862 77.3567 455.247C77.0154 455.423 76.674 455.622 76.3425 455.819C76.013 456.007 75.6815 456.204 75.3618 456.425C75.0304 456.622 74.7107 456.834 74.4029 457.064C73.7636 457.483 73.1479 457.946 72.552 458.43C72.2442 458.673 71.9581 458.915 71.6602 459.168C71.3622 459.411 71.0761 459.663 70.7999 459.927C70.2276 460.444 69.6771 460.985 69.1483 461.536C67.6724 463.089 66.3286 464.785 65.1724 466.603C64.9849 466.889 64.8093 467.175 64.6317 467.461C64.6199 467.473 64.61 467.483 64.61 467.504C64.2805 468.067 63.6964 468.387 63.1005 468.418C62.5599 468.44 61.9995 468.231 61.6246 467.745C56.6009 461.267 48.7456 457.092 39.9117 457.092C34.0849 457.092 28.6646 458.921 24.2131 462.027C23.0351 462.842 21.4368 461.907 21.6361 460.484C22.0544 457.532 22.6602 454.633 23.4534 451.804C31.7151 422.072 59.8842 400.193 93.3513 400.193C126.874 400.193 155.065 422.149 163.293 451.948C164.074 454.76 164.668 457.635 165.076 460.577Z" fill="#8E81D3"/>
<path d="M163.294 451.954C158.673 448.426 152.902 446.328 146.649 446.328C138.947 446.328 131.978 449.509 126.978 454.627C125.125 456.526 122 456.425 120.447 454.276C114.375 445.878 104.505 440.413 93.3451 440.413C82.1552 440.413 72.2637 445.902 66.1843 454.335C64.6255 456.496 61.4901 456.593 59.6353 454.681C54.6412 449.533 47.6502 446.33 39.9114 446.33C33.7452 446.33 28.0467 448.371 23.4551 451.81C31.7188 422.076 59.88 400.197 93.3451 400.197C126.869 400.195 155.058 422.147 163.294 451.954Z" fill="#6340BC"/>
<path opacity="0.4" d="M123.545 468.331C122.951 468.31 122.367 467.99 122.014 467.418C121.519 466.581 120.99 465.776 120.416 465.004C120.272 464.807 120.129 464.608 119.976 464.411C119.855 464.245 119.733 464.091 119.601 463.925C119.161 463.353 118.687 462.802 118.214 462.262C117.971 461.997 117.728 461.733 117.476 461.48C117.189 461.173 116.891 460.875 116.584 460.589C116.067 460.081 115.526 459.596 114.976 459.124C114.689 458.872 114.391 458.629 114.094 458.398C113.488 457.913 112.87 457.461 112.243 457.033C111.923 456.812 111.603 456.603 111.284 456.394C110.942 456.173 110.589 455.963 110.248 455.754C109.928 455.579 109.608 455.391 109.289 455.225C108.705 454.896 108.111 454.598 107.493 454.312C106.755 453.959 105.996 453.641 105.224 453.353C105.015 453.264 104.816 453.199 104.606 453.122C104.397 453.045 104.176 452.968 103.967 452.901C103.703 452.802 103.438 452.725 103.174 452.648C102.931 452.571 102.679 452.495 102.424 452.427C101.797 452.24 101.157 452.086 100.508 451.942C100.133 451.865 99.7584 451.788 99.3854 451.721C99.0322 451.656 98.6692 451.589 98.3061 451.545C98.2509 451.524 98.1857 451.524 98.1305 451.512C97.7556 451.457 97.3807 451.413 97.0078 451.368C96.7217 451.334 96.4355 451.313 96.1475 451.291C95.222 451.214 94.2966 451.17 93.3495 451.17C92.4024 451.17 91.4552 451.214 90.518 451.291C90.2417 451.313 89.9773 451.334 89.703 451.368C89.6596 451.368 89.6142 451.38 89.5708 451.38C89.2176 451.423 88.8763 451.468 88.5251 451.512C88.4915 451.524 88.4481 451.524 88.4047 451.534C88.0515 451.589 87.6884 451.644 87.3352 451.709C87.0925 451.753 86.8498 451.798 86.5973 451.853C86.321 451.908 86.0467 451.964 85.7823 452.029C85.6501 452.062 85.5061 452.094 85.3739 452.127C85.0878 452.195 84.8017 452.272 84.5254 452.348C84.2492 452.425 83.9631 452.502 83.677 452.591C83.3474 452.69 83.0159 452.8 82.6864 452.911C82.4773 452.976 82.2563 453.055 82.0471 453.132C81.838 453.209 81.6288 453.286 81.4295 453.363C80.7566 453.615 80.0858 453.903 79.4248 454.199C78.7203 454.519 78.0258 454.872 77.3549 455.245C77.0135 455.433 76.6722 455.62 76.3407 455.817C76.0112 456.017 75.6797 456.214 75.36 456.423C75.0285 456.62 74.7088 456.832 74.401 457.062C73.7617 457.493 73.1461 457.954 72.5502 458.428C72.2424 458.671 71.9563 458.913 71.6583 459.166C71.3604 459.409 71.0743 459.661 70.798 459.926C70.2258 460.443 69.6753 460.983 69.1465 461.534C67.6705 463.087 66.3268 464.783 65.1705 466.601C64.983 466.887 64.8074 467.173 64.6298 467.459C64.618 467.471 64.6081 467.481 64.6081 467.503C64.2786 468.065 63.6946 468.385 63.0987 468.416C62.9882 466.202 62.9329 461.796 63.7163 455.946C65.5336 442.153 72.0115 420.33 93.3495 400.193C115.228 420.276 121.54 442.131 123.17 455.912C123.853 461.733 123.711 466.117 123.545 468.331Z" fill="#6340BC"/>
<path d="M151.63 526.785H35.0918V621.91H151.63V526.785Z" fill="#FBD34C"/>
<path d="M155.583 522.888H31.1348V541.838H155.583V522.888Z" fill="#FB9129"/>
<path opacity="0.3" d="M155.583 535.199H31.1348V541.838H155.583V535.199Z" fill="#D04B29"/>
<path d="M100.718 522.888H85.998V621.91H100.718V522.888Z" fill="#13304E"/>
<path d="M151.63 572.398H35.0918V584.753H151.63V572.398Z" fill="#13304E"/>
<path opacity="0.3" d="M151.63 541.838H35.0918V548.198H151.63V541.838Z" fill="#D04B29"/>
<path d="M401.788 214.425C401.208 214.425 400.638 214.171 400.253 213.691L352.202 154.188C351.517 153.339 351.649 152.096 352.496 151.414C353.344 150.729 354.588 150.859 355.27 151.708L395.973 202.112L378.564 153.669C378.195 152.643 378.727 151.512 379.753 151.145C380.78 150.77 381.908 151.309 382.277 152.335L403.643 211.785C403.968 212.693 403.593 213.701 402.753 214.173C402.451 214.342 402.119 214.425 401.788 214.425Z" fill="#13304E"/>
<path d="M401.79 214.425C401.46 214.425 401.127 214.342 400.823 214.172C399.984 213.7 399.607 212.694 399.933 211.788L421.223 152.265C421.59 151.239 422.719 150.707 423.745 151.074C424.771 151.441 425.306 152.569 424.939 153.595L407.545 202.224L448.826 151.316C449.513 150.47 450.758 150.342 451.602 151.026C452.449 151.713 452.579 152.956 451.893 153.803L403.325 213.697C402.936 214.17 402.368 214.425 401.79 214.425Z" fill="#13304E"/>
<path d="M452.644 152.538C452.784 153.53 451.659 154.225 450.84 153.647C447.661 151.397 443.77 150.069 439.575 150.069C433.35 150.069 427.795 152.999 424.218 157.561C423.952 157.897 423.577 158.053 423.194 158.037C422.772 158.021 422.357 157.794 422.109 157.388C421.757 156.794 421.383 156.224 420.976 155.677C420.875 155.537 420.773 155.395 420.664 155.255C420.577 155.138 420.493 155.028 420.398 154.911C420.086 154.505 419.749 154.114 419.413 153.732C419.242 153.544 419.07 153.357 418.89 153.177C418.687 152.958 418.476 152.747 418.257 152.544C417.89 152.185 417.507 151.841 417.117 151.504C416.913 151.324 416.702 151.153 416.491 150.989C416.061 150.645 415.625 150.326 415.179 150.02C414.952 149.856 414.725 149.708 414.5 149.566C414.257 149.41 414.009 149.262 413.766 149.112C413.539 148.988 413.312 148.854 413.087 148.737C412.673 148.503 412.251 148.291 411.815 148.088C411.292 147.838 410.753 147.611 410.204 147.409C410.056 147.346 409.916 147.301 409.766 147.246C409.618 147.19 409.463 147.137 409.313 147.09C409.125 147.019 408.938 146.965 408.75 146.91C408.579 146.855 408.399 146.802 408.219 146.754C407.773 146.622 407.322 146.512 406.86 146.411C406.594 146.356 406.329 146.302 406.063 146.255C405.812 146.208 405.556 146.162 405.297 146.131C405.258 146.115 405.21 146.115 405.173 146.107C404.906 146.068 404.642 146.036 404.376 146.007C404.172 145.983 403.969 145.967 403.766 145.951C403.109 145.896 402.454 145.864 401.783 145.864C401.112 145.864 400.439 145.896 399.776 145.951C399.581 145.967 399.393 145.983 399.198 146.007C399.166 146.007 399.135 146.014 399.103 146.014C398.853 146.046 398.612 146.078 398.361 146.109C398.338 146.117 398.306 146.117 398.275 146.125C398.024 146.164 397.768 146.204 397.517 146.249C397.345 146.281 397.174 146.312 396.994 146.35C396.799 146.389 396.603 146.429 396.416 146.474C396.321 146.498 396.221 146.522 396.128 146.545C395.925 146.593 395.721 146.646 395.526 146.701C395.331 146.756 395.127 146.81 394.924 146.873C394.689 146.944 394.456 147.021 394.222 147.1C394.074 147.147 393.918 147.2 393.768 147.256C393.62 147.311 393.472 147.364 393.33 147.419C392.852 147.599 392.377 147.802 391.907 148.013C391.408 148.24 390.915 148.483 390.439 148.755C390.196 148.879 389.956 149.022 389.721 149.162C389.486 149.294 389.253 149.436 389.026 149.592C388.791 149.732 388.565 149.88 388.348 150.046C387.894 150.342 387.458 150.671 387.035 151.014C386.816 151.186 386.613 151.358 386.402 151.537C386.191 151.709 385.988 151.889 385.792 152.076C385.386 152.443 384.995 152.826 384.62 153.217C383.574 154.318 382.619 155.521 381.801 156.81C381.668 157.013 381.542 157.216 381.418 157.419C381.41 157.427 381.402 157.435 381.402 157.451C381.167 157.85 380.753 158.076 380.332 158.1C379.95 158.116 379.551 157.968 379.285 157.625C375.723 153.031 370.153 150.071 363.888 150.071C359.756 150.071 355.912 151.368 352.757 153.572C351.921 154.15 350.788 153.485 350.93 152.479C351.226 150.385 351.656 148.331 352.219 146.322C358.077 125.239 378.051 109.724 401.785 109.724C425.556 109.724 445.546 125.292 451.381 146.423C451.933 148.414 452.356 150.452 452.644 152.538Z" fill="#8E81D3"/>
<path d="M451.381 146.423C448.105 143.921 444.011 142.433 439.577 142.433C434.116 142.433 429.173 144.688 425.629 148.317C424.315 149.663 422.099 149.592 420.998 148.069C416.692 142.113 409.694 138.236 401.779 138.236C393.843 138.236 386.83 142.129 382.519 148.11C381.414 149.643 379.19 149.71 377.874 148.355C374.332 144.704 369.376 142.433 363.886 142.433C359.514 142.433 355.473 143.879 352.217 146.32C358.077 125.235 378.046 109.72 401.777 109.72C425.552 109.72 445.542 125.286 451.381 146.423Z" fill="#6340BC"/>
<path opacity="0.4" d="M423.196 158.037C422.773 158.021 422.359 157.794 422.11 157.388C421.759 156.794 421.384 156.224 420.978 155.677C420.877 155.537 420.774 155.395 420.666 155.255C420.579 155.138 420.494 155.028 420.4 154.911C420.088 154.505 419.75 154.114 419.415 153.732C419.243 153.544 419.072 153.357 418.892 153.177C418.689 152.958 418.478 152.747 418.259 152.544C417.892 152.185 417.509 151.841 417.118 151.504C416.915 151.324 416.704 151.153 416.493 150.989C416.063 150.645 415.626 150.326 415.18 150.02C414.954 149.864 414.727 149.716 414.502 149.566C414.259 149.41 414.01 149.262 413.768 149.112C413.541 148.988 413.314 148.854 413.089 148.737C412.675 148.503 412.252 148.291 411.816 148.088C411.293 147.838 410.755 147.611 410.206 147.409C410.058 147.346 409.918 147.301 409.768 147.246C409.62 147.19 409.464 147.137 409.314 147.09C409.127 147.019 408.939 146.965 408.752 146.91C408.58 146.855 408.401 146.802 408.221 146.754C407.775 146.622 407.323 146.512 406.862 146.411C406.595 146.356 406.331 146.303 406.064 146.255C405.814 146.208 405.557 146.162 405.299 146.131C405.259 146.115 405.212 146.115 405.174 146.107C404.908 146.068 404.644 146.036 404.377 146.007C404.174 145.983 403.971 145.967 403.768 145.951C403.111 145.896 402.455 145.864 401.785 145.864C401.114 145.864 400.441 145.896 399.778 145.951C399.582 145.967 399.395 145.983 399.2 146.007C399.168 146.007 399.137 146.014 399.105 146.014C398.854 146.046 398.614 146.078 398.363 146.109C398.339 146.117 398.308 146.117 398.276 146.125C398.026 146.164 397.769 146.204 397.519 146.249C397.347 146.281 397.175 146.312 396.996 146.35C396.8 146.389 396.605 146.429 396.418 146.474C396.323 146.498 396.222 146.522 396.129 146.545C395.926 146.593 395.723 146.646 395.528 146.701C395.332 146.756 395.129 146.81 394.926 146.873C394.691 146.944 394.458 147.021 394.223 147.1C394.075 147.147 393.919 147.2 393.77 147.256C393.622 147.311 393.474 147.364 393.331 147.419C392.854 147.599 392.378 147.802 391.909 148.013C391.41 148.24 390.916 148.491 390.441 148.755C390.198 148.887 389.957 149.022 389.723 149.162C389.488 149.302 389.255 149.444 389.028 149.592C388.793 149.732 388.566 149.88 388.349 150.046C387.895 150.35 387.459 150.679 387.037 151.014C386.818 151.186 386.615 151.358 386.404 151.537C386.192 151.709 385.989 151.889 385.794 152.076C385.387 152.443 384.997 152.826 384.622 153.217C383.576 154.318 382.621 155.521 381.802 156.81C381.67 157.013 381.544 157.216 381.419 157.419C381.411 157.427 381.404 157.435 381.404 157.451C381.169 157.85 380.754 158.076 380.334 158.1C380.255 156.53 380.218 153.406 380.772 149.256C382.061 139.477 386.654 124.002 401.787 109.722C417.3 123.962 421.777 139.461 422.933 149.233C423.415 153.359 423.312 156.466 423.196 158.037Z" fill="#6340BC"/>
<path d="M443.107 199.488H360.469V266.943H443.107V199.488Z" fill="#FBD34C"/>
<path d="M445.913 196.724H357.664V210.163H445.913V196.724Z" fill="#FB9129"/>
<path opacity="0.3" d="M445.913 205.453H357.664V210.161H445.913V205.453Z" fill="#D04B29"/>
<path d="M407.008 196.724H396.57V266.943H407.008V196.724Z" fill="#13304E"/>
<path d="M443.107 231.832H360.469V240.593H443.107V231.832Z" fill="#13304E"/>
<path opacity="0.3" d="M443.107 210.163H360.469V214.673H443.107V210.163Z" fill="#D04B29"/>
<path d="M541.076 313.261C540.784 314.161 540.464 315.027 540.089 315.874C539.349 317.648 538.465 319.325 537.441 320.892C536.423 322.474 535.265 323.948 533.992 325.31C532.696 326.701 531.291 327.969 529.781 329.09C528.28 330.227 526.685 331.219 525.026 332.066C523.337 332.926 521.581 333.64 519.769 334.185C517.99 334.739 516.164 335.13 514.3 335.367C512.439 335.594 510.539 335.669 508.633 335.566C506.788 335.471 504.935 335.209 503.088 334.773C502.171 334.576 501.259 334.317 500.349 334.021C499.438 333.725 498.55 333.4 497.692 333.019C495.941 332.287 494.288 331.411 492.739 330.404C491.137 329.368 489.651 328.206 488.281 326.918C486.908 325.641 485.653 324.238 484.538 322.744C483.39 321.239 482.389 319.631 481.529 317.942C480.683 316.282 479.976 314.542 479.426 312.752C478.877 310.951 478.473 309.094 478.242 307.208C478.011 305.359 477.94 303.484 478.046 301.606C478.137 299.735 478.404 297.871 478.848 296C479.041 295.094 479.296 294.194 479.588 293.295C479.88 292.395 480.203 291.519 480.578 290.67C481.318 288.896 482.198 287.231 483.224 285.662C484.242 284.08 485.401 282.606 486.673 281.244C487.97 279.851 489.386 278.589 490.888 277.452C492.386 276.327 493.98 275.335 495.639 274.488C497.328 273.626 499.085 272.914 500.896 272.369C502.676 271.815 504.515 271.418 506.375 271.191C508.24 270.952 510.125 270.885 512.031 270.988C513.876 271.083 515.728 271.345 517.575 271.781C518.493 271.978 519.404 272.237 520.314 272.531C521.226 272.827 522.114 273.152 522.972 273.533C524.722 274.265 526.378 275.143 527.927 276.148C529.529 277.184 531.022 278.362 532.394 279.638C533.763 280.927 535.012 282.314 536.125 283.808C537.272 285.313 538.274 286.921 539.134 288.61C539.981 290.27 540.687 292.01 541.234 293.812C541.796 295.605 542.189 297.458 542.42 299.344C542.65 301.193 542.721 303.068 542.615 304.946C542.524 306.817 542.254 308.693 541.81 310.564C541.618 311.474 541.368 312.362 541.076 313.261Z" fill="#FB9129"/>
<path d="M525.865 308.322L540.092 315.873C539.352 317.647 538.468 319.324 537.444 320.891L523.197 313.32L533.994 325.309C532.698 326.7 531.293 327.969 529.784 329.09L518.994 317.115L525.028 332.063C523.339 332.924 521.583 333.638 519.772 334.183L513.734 319.244L514.302 335.364C512.441 335.591 510.541 335.666 508.635 335.564L508.067 319.443L503.09 334.771C502.173 334.573 501.261 334.315 500.352 334.019C499.44 333.723 498.552 333.397 497.694 333.016L502.67 317.689L492.739 330.4C491.137 329.364 489.651 328.202 488.282 326.913L498.201 314.198L484.541 322.74C483.392 321.235 482.392 319.626 481.532 317.937L495.208 309.388L479.426 312.748C478.878 310.946 478.473 309.09 478.242 307.203L494.024 303.843L478.049 301.601C478.14 299.731 478.406 297.866 478.85 295.996L494.815 298.233L480.58 290.666C481.32 288.892 482.2 287.227 483.226 285.658L497.473 293.229L486.676 281.24C487.972 279.847 489.389 278.584 490.89 277.448L501.688 289.437L495.642 274.484C497.331 273.622 499.087 272.909 500.898 272.365L506.936 287.302L506.378 271.185C508.242 270.946 510.127 270.879 512.033 270.982L512.601 287.102L517.578 271.775C518.495 271.972 519.407 272.231 520.316 272.525C521.228 272.821 522.116 273.146 522.974 273.527L517.998 288.855L527.929 276.143C529.531 277.179 531.025 278.357 532.396 279.634L522.465 292.345L536.127 283.803C537.274 285.309 538.276 286.917 539.137 288.606L525.472 297.16L541.238 293.807C541.8 295.601 542.193 297.454 542.424 299.34L526.642 302.7L542.617 304.942C542.526 306.813 542.256 308.689 541.812 310.56L525.865 308.322Z" fill="#FBD34C"/>
<path d="M534.809 311.226C530.421 324.745 515.904 332.144 502.388 327.756C488.869 323.367 481.47 308.851 485.858 295.334C490.247 281.816 504.763 274.417 518.28 278.805C531.798 283.193 539.199 297.71 534.809 311.226Z" fill="#FB9129"/>
<path d="M518.533 310.007C518.547 309.443 518.496 308.891 518.374 308.346C518.253 307.801 518.052 307.284 517.772 306.793C517.492 306.302 517.154 305.85 516.757 305.435C516.361 305.023 515.901 304.668 515.378 304.368L515.388 304.216C516.189 304.141 516.961 303.932 517.705 303.591C518.448 303.251 519.104 302.784 519.67 302.194C520.236 301.602 520.649 300.909 520.907 300.114C521.507 298.265 521.355 296.562 520.453 295.001C520.055 294.313 519.443 293.687 518.642 293.113L519.437 290.666C519.516 290.42 519.382 290.157 519.137 290.076L516.223 289.129C515.978 289.05 515.714 289.184 515.633 289.429L515.011 291.343C514.887 291.3 514.77 291.254 514.642 291.213L512.442 290.499L513.06 288.594C513.139 288.35 513.004 288.085 512.76 288.004L509.845 287.057C509.601 286.978 509.336 287.113 509.255 287.357L508.638 289.261L507.695 288.956C506.759 288.652 506.14 288.969 505.836 289.903L498.774 311.657C498.47 312.592 498.786 313.212 499.721 313.516L500.664 313.822L500.11 315.53C500.031 315.775 500.165 316.039 500.41 316.12L503.324 317.067C503.571 317.146 503.833 317.012 503.914 316.768L504.469 315.059L507.04 315.893L506.485 317.602C506.406 317.847 506.54 318.111 506.785 318.192L509.699 319.139C509.946 319.218 510.208 319.084 510.289 318.839L510.98 316.712C512.268 316.789 513.403 316.631 514.376 316.223C516.217 315.451 517.505 313.93 518.243 311.661C518.423 311.124 518.518 310.572 518.533 310.007ZM511.282 311.377C510.562 311.687 509.686 311.673 508.656 311.339L505.218 310.222L507.03 304.644L509.907 305.578C511.122 305.972 511.984 306.503 512.491 307.174C512.997 307.843 513.103 308.634 512.807 309.546C512.511 310.457 512.002 311.069 511.282 311.377ZM514.903 297.057C515.287 297.661 515.341 298.395 515.061 299.261C514.826 299.988 514.342 300.516 513.614 300.848C512.886 301.181 511.994 301.175 510.942 300.834L508.521 300.049L510.218 294.822L512.71 295.631C513.786 295.978 514.518 296.454 514.903 297.057Z" fill="#FBD34C"/>
<path d="M319.491 542.757C320.146 543.44 320.758 544.131 321.326 544.861C322.539 546.35 323.599 547.923 324.495 549.567C325.408 551.212 326.16 552.929 326.758 554.695C327.372 556.495 327.826 558.334 328.1 560.192C328.392 562.053 328.512 563.928 328.473 565.788C328.433 567.684 328.232 569.569 327.855 571.424C327.504 573.255 326.983 575.046 326.312 576.803C325.631 578.549 324.801 580.26 323.81 581.889C322.855 583.47 321.748 584.979 320.489 586.4C319.882 587.116 319.224 587.795 318.532 588.458C317.841 589.121 317.133 589.751 316.393 590.327C314.919 591.524 313.366 592.566 311.746 593.456C310.077 594.378 308.35 595.137 306.567 595.735C304.793 596.341 302.963 596.785 301.121 597.061C299.252 597.361 297.36 597.481 295.465 597.442C293.603 597.403 291.736 597.203 289.897 596.842C288.05 596.473 286.225 595.952 284.451 595.264C282.713 594.593 281.028 593.77 279.423 592.787C277.817 591.822 276.3 590.706 274.861 589.431C274.155 588.831 273.482 588.182 272.827 587.501C272.172 586.818 271.552 586.12 270.984 585.388C269.771 583.898 268.719 582.335 267.823 580.69C266.91 579.044 266.158 577.327 265.56 575.561C264.946 573.762 264.502 571.915 264.21 570.054C263.926 568.203 263.806 566.329 263.845 564.466C263.885 562.57 264.086 560.686 264.463 558.831C264.814 557 265.335 555.19 266.016 553.444C266.687 551.688 267.519 549.995 268.51 548.365C269.467 546.785 270.574 545.275 271.831 543.854C272.438 543.138 273.095 542.457 273.788 541.796C274.479 541.133 275.187 540.504 275.927 539.928C277.401 538.73 278.954 537.688 280.574 536.798C282.243 535.877 283.987 535.117 285.761 534.511C287.543 533.913 289.356 533.469 291.199 533.195C293.068 532.895 294.96 532.775 296.855 532.814C298.717 532.854 300.584 533.053 302.431 533.422C304.278 533.773 306.095 534.304 307.869 534.993C309.607 535.664 311.292 536.487 312.896 537.469C314.503 538.434 316.028 539.559 317.466 540.833C318.171 541.433 318.836 542.075 319.491 542.757Z" fill="#FB9129"/>
<path d="M307.948 553.829L321.328 544.863C322.542 546.352 323.601 547.925 324.497 549.569L311.092 558.543L326.761 554.697C327.374 556.496 327.828 558.336 328.102 560.194L312.449 564.04L328.475 565.79C328.436 567.686 328.235 569.571 327.858 571.426L311.839 569.685L326.313 576.804C325.632 578.551 324.801 580.262 323.811 581.891L309.337 574.772L320.492 586.402C319.884 587.118 319.227 587.797 318.534 588.46C317.844 589.123 317.135 589.753 316.395 590.329L305.241 578.699L311.749 593.458C310.079 594.38 308.353 595.139 306.569 595.737L300.054 580.986L301.123 597.063C299.254 597.363 297.362 597.483 295.468 597.444L294.398 581.351L289.9 596.846C288.053 596.477 286.228 595.956 284.454 595.268L288.952 579.772L279.424 592.791C277.818 591.826 276.3 590.71 274.862 589.435L284.381 576.426L270.983 585.392C269.769 583.902 268.718 582.339 267.822 580.694L281.227 571.72L265.558 575.565C264.945 573.766 264.501 571.919 264.209 570.058L279.878 566.212L263.844 564.47C263.883 562.574 264.084 560.69 264.461 558.835L280.48 560.575L266.014 553.448C266.685 551.692 267.518 549.999 268.508 548.369L282.982 555.488L271.827 543.856C272.435 543.14 273.092 542.459 273.785 541.798C274.475 541.135 275.184 540.506 275.924 539.93L287.078 551.562L280.57 536.802C282.24 535.881 283.984 535.121 285.758 534.515L292.265 549.275L291.196 533.197C293.065 532.897 294.957 532.777 296.851 532.816L297.928 548.902L302.427 533.424C304.274 533.775 306.091 534.306 307.865 534.995L303.367 550.49L312.895 537.471C314.501 538.436 316.026 539.561 317.465 540.835L307.948 553.829Z" fill="#FBD34C"/>
<path d="M314.736 547.319C324.573 557.578 324.231 573.867 313.975 583.705C303.716 593.541 287.428 593.2 277.589 582.943C267.753 572.685 268.094 556.396 278.351 546.558C288.61 536.721 304.9 537.063 314.736 547.319Z" fill="#FB9129"/>
<path d="M305.969 561.084C305.48 560.804 304.967 560.589 304.43 560.439C303.893 560.289 303.343 560.22 302.779 560.233C302.212 560.249 301.654 560.332 301.103 560.486C300.553 560.64 300.022 560.877 299.511 561.196L299.383 561.115C299.695 560.374 299.874 559.596 299.927 558.779C299.979 557.962 299.878 557.165 299.625 556.386C299.373 555.606 298.957 554.916 298.376 554.312C297.033 552.909 295.458 552.238 293.657 552.295C292.861 552.321 292.021 552.564 291.137 553L289.355 551.143C289.176 550.957 288.882 550.95 288.694 551.129L286.482 553.25C286.297 553.43 286.289 553.726 286.468 553.911L287.861 555.364C287.765 555.452 287.67 555.533 287.573 555.628L285.904 557.228L284.519 555.784C284.339 555.596 284.043 555.59 283.858 555.77L281.646 557.891C281.46 558.071 281.452 558.367 281.632 558.552L283.017 559.997L282.301 560.683C281.591 561.364 281.577 562.061 282.258 562.769L298.088 579.277C298.769 579.987 299.464 580.003 300.174 579.32L300.89 578.633L302.133 579.93C302.313 580.117 302.609 580.123 302.794 579.944L305.006 577.822C305.192 577.643 305.2 577.347 305.02 577.161L303.777 575.865L305.729 573.992L306.972 575.289C307.149 575.474 307.447 575.482 307.633 575.303L309.845 573.181C310.03 573.002 310.038 572.706 309.858 572.52L308.309 570.906C308.986 569.807 309.383 568.732 309.484 567.682C309.673 565.695 308.943 563.84 307.291 562.118C306.901 561.707 306.459 561.364 305.969 561.084ZM303.747 568.12C303.678 568.902 303.254 569.667 302.473 570.415L299.864 572.917L295.805 568.683L297.988 566.589C298.911 565.703 299.787 565.196 300.616 565.066C301.445 564.935 302.191 565.216 302.856 565.908C303.519 566.603 303.817 567.339 303.747 568.12ZM292.842 558.16C293.556 558.104 294.229 558.406 294.858 559.061C295.387 559.612 295.624 560.287 295.573 561.086C295.521 561.885 295.095 562.668 294.298 563.434L292.461 565.196L288.657 561.23L290.547 559.416C291.362 558.633 292.127 558.215 292.842 558.16Z" fill="#FBD34C"/>
<path d="M117.988 834.849H272.17V805.452H117.988V834.849Z" fill="#FBD34C"/>
<path d="M248.314 834.849H262.59V805.452H248.314V834.849Z" fill="#FBB62D"/>
<path d="M127.316 834.849H141.592V805.452H127.316V834.849Z" fill="#FBB62D"/>
<path d="M217.12 834.849H234.316V805.452H217.12V834.849Z" fill="#FBB62D"/>
<path d="M152.483 834.849H169.68V805.452H152.483V834.849Z" fill="#FBB62D"/>
<path d="M182.453 834.849H204.182V805.452H182.453V834.849Z" fill="#FBB62D"/>
<path d="M105.359 805.452H259.541V776.056H105.359V805.452Z" fill="#FBB62D"/>
<path d="M235.681 805.452H249.957V776.056H235.681V805.452Z" fill="#FB9129"/>
<path d="M114.687 805.452H128.963V776.056H114.687V805.452Z" fill="#FB9129"/>
<path d="M204.491 805.452H221.688V776.056H204.491V805.452Z" fill="#FB9129"/>
<path d="M139.855 805.452H157.051V776.056H139.855V805.452Z" fill="#FB9129"/>
<path d="M169.824 805.452H191.553V776.056H169.824V805.452Z" fill="#FB9129"/>
<path d="M773.456 805.453H619.273V834.849H773.456V805.453Z" fill="#FBD34C"/>
<path d="M643.135 805.453H628.859V834.849H643.135V805.453Z" fill="#FBB62D"/>
<path d="M764.127 805.453H749.852V834.849H764.127V805.453Z" fill="#FBB62D"/>
<path d="M674.323 805.453H657.127V834.849H674.323V805.453Z" fill="#FBB62D"/>
<path d="M738.96 805.453H721.764V834.849H738.96V805.453Z" fill="#FBB62D"/>
<path d="M708.992 805.453H687.264V834.849H708.992V805.453Z" fill="#FBB62D"/>
<path d="M780.262 746.659H626.08V776.056H780.262V746.659Z" fill="#FBD34C"/>
<path d="M649.936 746.659H635.66V776.056H649.936V746.659Z" fill="#FBB62D"/>
<path d="M770.934 746.659H756.658V776.056H770.934V746.659Z" fill="#FBB62D"/>
<path d="M681.13 746.659H663.934V776.056H681.13V746.659Z" fill="#FBB62D"/>
<path d="M745.763 746.659H728.566V776.056H745.763V746.659Z" fill="#FBB62D"/>
<path d="M715.799 746.659H694.07V776.056H715.799V746.659Z" fill="#FBB62D"/>
<path d="M786.085 776.056H631.902V805.452H786.085V776.056Z" fill="#FBB62D"/>
<path d="M655.764 776.056H641.488V805.452H655.764V776.056Z" fill="#FB9129"/>
<path d="M776.756 776.056H762.48V805.452H776.756V776.056Z" fill="#FB9129"/>
<path d="M686.952 776.056H669.756V805.452H686.952V776.056Z" fill="#FB9129"/>
<path d="M751.589 776.056H734.393V805.452H751.589V776.056Z" fill="#FB9129"/>
<path d="M721.621 776.056H699.893V805.452H721.621V776.056Z" fill="#FB9129"/>
<path d="M299.181 479.746C298.252 480.981 297.299 482.151 296.267 483.262C294.181 485.612 291.924 487.736 289.505 489.616C287.09 491.524 284.517 493.187 281.823 494.618C279.08 496.082 276.231 497.298 273.303 498.229C270.377 499.188 267.385 499.879 264.368 500.305C261.298 500.739 258.204 500.913 255.112 500.79C252.066 500.703 249.035 500.336 246.026 499.713C243.026 499.075 240.049 498.182 237.156 497.012C234.354 495.885 231.627 494.494 229.001 492.838C227.687 492.045 226.416 491.163 225.163 490.222C223.912 489.281 222.711 488.304 221.584 487.262C219.265 485.2 217.172 482.964 215.311 480.587C213.383 478.134 211.704 475.547 210.27 472.828C208.825 470.125 207.626 467.289 206.698 464.385C205.724 461.447 205.029 458.426 204.595 455.358C204.169 452.343 203.999 449.276 204.098 446.214C204.208 443.136 204.567 440.052 205.212 437.009C205.84 434.026 206.724 431.091 207.886 428.242C209.021 425.397 210.424 422.654 212.103 419.998C212.884 418.7 213.754 417.443 214.684 416.208C215.613 414.973 216.578 413.787 217.61 412.676C219.696 410.326 221.943 408.218 224.36 406.338C226.775 404.43 229.348 402.764 232.042 401.336C234.784 399.872 237.65 398.668 240.574 397.709C243.488 396.766 246.481 396.077 249.497 395.649C252.567 395.215 255.661 395.041 258.753 395.164C261.799 395.251 264.856 395.614 267.855 396.251C270.866 396.875 273.816 397.77 276.709 398.94C279.511 400.069 282.239 401.458 284.864 403.114C286.178 403.907 287.451 404.789 288.702 405.73C289.955 406.671 291.154 407.648 292.281 408.692C294.601 410.754 296.693 412.989 298.554 415.367C300.482 417.82 302.165 420.434 303.611 423.138C305.044 425.857 306.239 428.666 307.167 431.569C308.141 434.507 308.836 437.526 309.27 440.596C309.696 443.611 309.866 446.678 309.755 449.756C309.673 452.83 309.298 455.902 308.652 458.945C308.025 461.928 307.141 464.862 305.979 467.712C304.844 470.557 303.431 473.316 301.75 475.971C300.969 477.272 300.111 478.511 299.181 479.746Z" fill="#FB9129"/>
<path d="M278.277 464.028L296.269 483.264C294.183 485.614 291.926 487.738 289.507 489.618L271.496 470.342L281.825 494.62C279.082 496.084 276.233 497.3 273.305 498.231L262.979 473.981L264.37 500.307C261.3 500.741 258.206 500.914 255.114 500.792L253.709 474.482L246.026 499.715C243.027 499.077 240.049 498.184 237.156 497.013L244.84 471.78L229.003 492.842C227.689 492.049 226.418 491.167 225.165 490.226C223.914 489.285 222.713 488.308 221.586 487.266L237.425 466.204L215.315 480.589C213.387 478.136 211.708 475.549 210.274 472.83L232.367 458.434L206.702 464.389C205.727 461.451 205.033 458.43 204.599 455.362L230.292 449.403L204.1 446.218C204.21 443.14 204.569 440.056 205.214 437.013L231.406 440.198L207.888 428.244C209.023 425.399 210.426 422.656 212.105 420L235.605 431.942L217.61 412.678C219.696 410.328 221.943 408.22 224.36 406.34L242.371 425.616L232.042 401.338C234.785 399.874 237.65 398.67 240.574 397.711L250.903 421.989L249.497 395.651C252.567 395.217 255.661 395.043 258.753 395.166L260.156 421.476L267.853 396.253C270.864 396.876 273.814 397.772 276.707 398.942L269.023 424.175L284.862 403.114C286.176 403.907 287.449 404.789 288.7 405.73C289.953 406.671 291.152 407.648 292.279 408.692L276.442 429.754L298.552 415.369C300.48 417.822 302.163 420.436 303.609 423.139L281.5 437.524L307.167 431.569C308.141 434.507 308.836 437.526 309.27 440.596L283.593 446.567L309.756 449.756C309.673 452.83 309.298 455.902 308.653 458.945L282.461 455.76L305.979 467.714C304.844 470.559 303.431 473.317 301.75 475.973L278.277 464.028Z" fill="#FBD34C"/>
<path d="M288.098 476.259C303.722 459.054 302.441 432.441 285.237 416.816C268.032 401.192 241.419 402.473 225.794 419.678C210.17 436.882 211.451 463.496 228.656 479.12C245.86 494.744 272.474 493.463 288.098 476.259Z" fill="#FB9129"/>
<path d="M250.868 456.075L274.055 458.281L275.537 423.259L242.307 434.404L250.868 456.075Z" fill="#FBD34C"/>
<path d="M247.353 460.747L239.68 441.323L238.352 472.711L268.133 462.722L247.353 460.747Z" fill="#FBD34C"/>
<path opacity="0.3" d="M275.537 423.259L250.868 456.075L242.307 434.404L275.537 423.259Z" fill="#E79529"/>
<path opacity="0.3" d="M247.353 460.747L238.352 472.711L239.68 441.323L247.353 460.747Z" fill="#E79529"/>
<g opacity="0.2">
<path d="M726.918 138.839H840.619C846.353 138.839 850.999 143.486 850.999 149.22C850.999 154.954 846.351 159.601 840.619 159.601H726.918C721.184 159.601 716.537 154.952 716.537 149.22C716.535 143.488 721.184 138.839 726.918 138.839Z" fill="#7B8C9D"/>
<path d="M802.307 128.841H819.079C824.813 128.841 829.46 133.49 829.46 139.222C829.46 144.956 824.811 149.603 819.079 149.603H802.307C796.573 149.603 791.926 144.954 791.926 139.222C791.924 133.488 796.573 128.841 802.307 128.841Z" fill="#7B8C9D"/>
<path d="M839.086 172.235H855.858C861.592 172.235 866.239 176.884 866.239 182.616C866.239 188.35 861.59 192.997 855.858 192.997H839.086C833.352 192.997 828.705 188.348 828.705 182.616C828.705 176.884 833.354 172.235 839.086 172.235Z" fill="#7B8C9D"/>
<path d="M703.742 152.065H870.353C878.718 152.065 885.499 158.847 885.499 167.212V167.472C885.499 175.836 878.718 182.618 870.353 182.618H703.742C695.378 182.618 688.596 175.836 688.596 167.472V167.212C688.596 158.845 695.378 152.065 703.742 152.065Z" fill="#7B8C9D"/>
</g>
<g opacity="0.2">
<path d="M201.481 661.681H127.248C121.514 661.681 116.867 666.33 116.867 672.062C116.867 677.796 121.516 682.442 127.248 682.442H201.483C207.217 682.442 211.864 677.794 211.864 672.062C211.864 666.33 207.215 661.681 201.481 661.681Z" fill="#7B8C9D"/>
<path d="M165.559 651.681H148.787C143.053 651.681 138.406 656.33 138.406 662.062C138.406 667.796 143.055 672.442 148.787 672.442H165.559C171.293 672.442 175.94 667.794 175.94 662.062C175.94 656.33 171.291 651.681 165.559 651.681Z" fill="#7B8C9D"/>
<path d="M128.778 695.077H112.006C106.272 695.077 101.625 699.726 101.625 705.458C101.625 711.192 106.274 715.839 112.006 715.839H128.778C134.512 715.839 139.159 711.19 139.159 705.458C139.159 699.724 134.512 695.077 128.778 695.077Z" fill="#7B8C9D"/>
<path d="M224.657 674.905H97.5114C89.147 674.905 82.3672 681.685 82.3672 690.051V690.314C82.3672 698.678 89.147 705.46 97.5114 705.46H224.657C233.021 705.46 239.803 698.678 239.803 690.314V690.051C239.803 681.687 233.023 674.905 224.657 674.905Z" fill="#7B8C9D"/>
</g>
<path opacity="0.2" d="M41.202 741.281H28.2342V728.314C28.2342 725.701 26.3558 723.322 23.7551 723.061C20.7657 722.761 18.246 725.101 18.246 728.028V741.279H4.99412C2.23561 741.279 0 743.515 0 746.274C0 749.032 2.23561 751.268 4.99412 751.268H18.246V764.52C18.246 767.278 20.4816 769.514 23.2401 769.514C25.9986 769.514 28.2342 767.278 28.2342 764.52V751.268H41.4881C44.4143 751.268 46.7545 748.748 46.4546 745.759C46.1941 743.162 43.8125 741.281 41.202 741.281Z" fill="#7B8C9D"/>
<path opacity="0.2" d="M352.596 316.469H344.719V308.592C344.719 307.005 343.577 305.559 341.998 305.401C340.183 305.219 338.652 306.64 338.652 308.418V316.469H330.601C328.926 316.469 327.568 317.826 327.568 319.501C327.568 321.177 328.926 322.534 330.601 322.534H338.652V330.585C338.652 332.26 340.009 333.617 341.685 333.617C343.36 333.617 344.717 332.26 344.717 330.585V322.534H352.768C354.546 322.534 355.966 321.003 355.785 319.188C355.627 317.611 354.183 316.469 352.596 316.469Z" fill="#7B8C9D"/>
<path opacity="0.2" d="M760.002 31.0857H752.125V23.2087C752.125 21.6223 750.983 20.176 749.404 20.0181C747.589 19.8366 746.058 21.2573 746.058 23.0351V31.0857H738.007C736.332 31.0857 734.975 32.4432 734.975 34.1185C734.975 35.7937 736.332 37.1512 738.007 37.1512H746.058V45.2018C746.058 46.8771 747.415 48.2346 749.091 48.2346C750.766 48.2346 752.123 46.8771 752.123 45.2018V37.1512H760.174C761.952 37.1512 763.373 35.6201 763.191 33.8047C763.035 32.2282 761.589 31.0857 760.002 31.0857Z" fill="#7B8C9D"/>
<path opacity="0.2" d="M702.909 79.324H695.032V71.447C695.032 69.8606 693.891 68.4142 692.311 68.2564C690.495 68.0748 688.964 69.4955 688.964 71.2734V79.324H680.914C679.238 79.324 677.881 80.6815 677.881 82.3567C677.881 84.032 679.238 85.3895 680.914 85.3895H688.964V93.4401C688.964 95.1153 690.322 96.4729 691.997 96.4729C693.672 96.4729 695.03 95.1153 695.03 93.4401V85.3895H703.08C704.858 85.3895 706.279 83.8583 706.097 82.043C705.941 80.4664 704.497 79.324 702.909 79.324Z" fill="#7B8C9D"/>
<path opacity="0.2" d="M347.334 45.6062H339.458V37.7273C339.458 36.1409 338.315 34.6945 336.737 34.5367C334.921 34.3551 333.39 35.7758 333.39 37.5537V45.6042H325.339C323.664 45.6042 322.307 46.9618 322.307 48.637C322.307 50.3122 323.664 51.6698 325.339 51.6698H333.39V59.7204C333.39 61.3956 334.748 62.7532 336.423 62.7532C338.098 62.7532 339.456 61.3956 339.456 59.7204V51.6698H347.506C349.284 51.6698 350.705 50.1386 350.523 48.3233C350.367 46.7467 348.921 45.6062 347.334 45.6062Z" fill="#7B8C9D"/>
<path opacity="0.2" d="M896.795 555.186H888.918V547.309C888.918 545.723 887.776 544.277 886.197 544.119C884.382 543.937 882.851 545.358 882.851 547.136V555.186H874.8C873.125 555.186 871.768 556.544 871.768 558.219C871.768 559.894 873.125 561.252 874.8 561.252H882.851V569.302C882.851 570.978 884.208 572.335 885.884 572.335C887.559 572.335 888.917 570.978 888.917 569.302V561.252H896.967C898.745 561.252 900.166 559.721 899.984 557.905C899.826 556.329 898.382 555.186 896.795 555.186Z" fill="#7B8C9D"/>
<path opacity="0.2" d="M88.1434 207.845H75.1756V194.878C75.1756 192.265 73.2972 189.886 70.6965 189.625C67.7072 189.325 65.1874 191.665 65.1874 194.594V207.845H51.9355C49.177 207.845 46.9414 210.081 46.9414 212.84C46.9414 215.598 49.177 217.834 51.9355 217.834H65.1874V231.086C65.1874 233.844 67.423 236.08 70.1815 236.08C72.94 236.08 75.1756 233.844 75.1756 231.086V217.834H88.4275C91.3538 217.834 93.6939 215.314 93.396 212.325C93.1355 209.724 90.7559 207.845 88.1434 207.845Z" fill="#7B8C9D"/>
<path opacity="0.2" d="M868.202 76.3464H855.234V63.3787C855.234 60.7662 853.356 58.3865 850.755 58.126C847.766 57.8261 845.246 60.1663 845.246 63.0925V76.3444H831.994C829.236 76.3444 827 78.58 827 81.3386C827 84.0971 829.236 86.3327 831.994 86.3327H845.246V99.5846C845.246 102.343 847.482 104.579 850.24 104.579C852.999 104.579 855.234 102.343 855.234 99.5846V86.3327H868.486C871.414 86.3327 873.753 83.8129 873.455 80.8236C873.194 78.2249 870.814 76.3464 868.202 76.3464Z" fill="#7B8C9D"/>
</svg>
