<svg width="20" height="20" viewBox="0 0 20 20" fill="none" xmlns="http://www.w3.org/2000/svg">
<path d="M10.0011 18.0071C14.4233 18.0071 18.0081 14.4223 18.0081 10.0002C18.0081 5.57802 14.4233 1.99316 10.0011 1.99316C5.57899 1.99316 1.99414 5.57802 1.99414 10.0002C1.99414 14.4223 5.57899 18.0071 10.0011 18.0071Z" fill="#F3BB2B"/>
<path d="M9.99998 20C8.65026 20 7.34058 19.7355 6.10735 19.2139C4.91648 18.7102 3.84709 17.9893 2.92892 17.071C2.01071 16.1528 1.28975 15.0835 0.786072 13.8926C0.26446 12.6594 0 11.3497 0 9.99998C0 8.65026 0.264497 7.34058 0.786072 6.10735C1.28975 4.91648 2.01071 3.84709 2.92892 2.92892C3.84709 2.01071 4.91648 1.28975 6.10735 0.786072C7.34054 0.26446 8.65026 0 9.99998 0C11.3497 0 12.6594 0.264497 13.8926 0.786072C15.0835 1.28975 16.1528 2.01071 17.071 2.92892C17.9893 3.84709 18.7102 4.91648 19.2139 6.10735C19.7355 7.34058 20 8.65022 20 9.99998C20 11.3497 19.7355 12.6594 19.2139 13.8926C18.7102 15.0835 17.9893 16.1528 17.071 17.071C16.1528 17.9893 15.0835 18.7102 13.8926 19.2139C12.6594 19.7355 11.3497 20 9.99998 20ZM9.99998 1.16551C8.80709 1.16551 7.65015 1.399 6.56137 1.85952C5.50944 2.30444 4.56458 2.94154 3.75304 3.75308C2.9415 4.56462 2.30444 5.50948 1.85949 6.56141C1.39896 7.65018 1.16547 8.80709 1.16547 10C1.16547 11.1929 1.39896 12.3499 1.85949 13.4386C2.3044 14.4906 2.9415 15.4354 3.75304 16.2469C4.56458 17.0585 5.50944 17.6955 6.56137 18.1405C7.65015 18.601 8.80705 18.8345 9.99998 18.8345C11.1929 18.8345 12.3498 18.601 13.4386 18.1405C14.4905 17.6955 15.4354 17.0585 16.2469 16.2469C17.0584 15.4354 17.6955 14.4906 18.1404 13.4386C18.601 12.3499 18.8345 11.1929 18.8345 10C18.8345 8.80712 18.601 7.65022 18.1404 6.56141C17.6955 5.50948 17.0584 4.56462 16.2469 3.75308C15.4353 2.94154 14.4905 2.30447 13.4386 1.85952C12.3498 1.39904 11.1929 1.16551 9.99998 1.16551Z" fill="#F3BB2B"/>
<path d="M8.5678 13.8229C8.41367 13.8229 8.26533 13.7618 8.15574 13.6523L5.77811 11.2746C5.55053 11.0471 5.55053 10.6781 5.77811 10.4505C6.00566 10.2229 6.37469 10.2229 6.60224 10.4505L8.52211 12.3704L13.3596 6.3934C13.562 6.14326 13.929 6.10454 14.1792 6.30703C14.4293 6.50952 14.468 6.87644 14.2655 7.12661L9.0208 13.6068C8.9169 13.7352 8.76335 13.8134 8.5984 13.8221C8.58818 13.8227 8.57799 13.8229 8.5678 13.8229Z" fill="black"/>
</svg>
