<svg width="1304" height="1303" viewBox="0 0 1304 1303" fill="none" xmlns="http://www.w3.org/2000/svg">
<path d="M87.457 87.8084V388.184C87.457 394.279 92.3981 399.219 98.4921 399.219H398.868C404.963 399.219 409.903 394.278 409.903 388.184V87.8084C409.903 81.7134 404.962 76.7734 398.868 76.7734H98.4921C92.3971 76.7734 87.457 81.7144 87.457 87.8084ZM130.018 119.334H367.341V356.657H130.018V119.334Z" fill="black"/>
<path d="M177.82 161.929H319.541C322.415 161.929 324.747 164.262 324.747 167.135V308.856C324.747 311.73 322.414 314.062 319.541 314.062H177.82C174.946 314.062 172.613 311.729 172.613 308.855V167.134C172.613 164.26 174.946 161.928 177.819 161.928L177.82 161.929Z" fill="black"/>
<path d="M87.457 1214.73C87.457 1220.82 92.3981 1225.76 98.4921 1225.76H398.868C404.963 1225.76 409.903 1220.82 409.903 1214.73V914.351C409.903 908.256 404.962 903.316 398.868 903.316H98.4921C92.3971 903.316 87.457 908.257 87.457 914.351V1214.73ZM130.018 945.877H367.341V1183.2H130.018V945.877Z" fill="black"/>
<path d="M177.821 988.472H319.542C322.416 988.472 324.748 990.805 324.748 993.678V1135.4C324.748 1138.27 322.415 1140.61 319.541 1140.61H177.82C174.946 1140.61 172.613 1138.27 172.613 1135.4V993.678C172.613 990.804 174.946 988.471 177.82 988.471L177.821 988.472Z" fill="black"/>
<path d="M905.133 399.219H1205.51C1211.6 399.219 1216.54 394.278 1216.54 388.184V87.8084C1216.54 81.7134 1211.6 76.7734 1205.51 76.7734H905.133C899.038 76.7734 894.098 81.7144 894.098 87.8084V388.184C894.098 394.279 899.039 399.219 905.133 399.219ZM936.659 119.334H1173.98V356.657H936.659V119.334Z" fill="black"/>
<path d="M984.46 161.928H1126.18C1129.05 161.928 1131.39 164.261 1131.39 167.135V308.856C1131.39 311.73 1129.05 314.062 1126.18 314.062H984.461C981.587 314.062 979.254 311.729 979.254 308.855V167.134C979.254 164.26 981.587 161.928 984.46 161.928Z" fill="black"/>
<path d="M514.378 274.25V234.753V195.255H553.194V155.766H592.003V116.268H553.194V76.7715H514.378H475.569V116.268H514.378V155.766H475.569H436.76V195.255V234.753V274.25H475.569H514.378Z" fill="black"/>
<path d="M514.378 471.727V432.23V392.733H475.569V353.236V313.746H436.76V353.236V392.733V432.23V471.727H475.569H514.378Z" fill="black"/>
<path d="M514.378 1145.86V1106.37V1105.46H475.569V1065.96V1026.47H514.378H553.194V1025.56V986.068V946.571H592.003V945.67V906.173H553.194V945.67H514.378V906.173H475.569V866.676H436.76V906.173V945.67V946.571V986.068V1025.56V1026.47V1065.96V1105.46V1106.37V1145.86H475.569H514.378Z" fill="black"/>
<path d="M436.759 827.179H475.568H514.377H553.193H592.002V787.689H630.811V748.192H669.62V787.689H708.436H747.245V827.179V866.676H786.054V827.179V787.689V748.192H747.245H708.436V708.695V669.198H747.245V629.708V590.211H708.436H669.62V629.708V669.198H630.811V708.695H592.002H553.193H514.377H475.568H436.759V748.192H397.943H359.134H320.325H281.516V708.695V669.198H242.7V629.708V590.211H203.891H165.082V629.708V669.198V708.695H203.891H242.7V748.192V787.689H281.516V827.179H320.325V787.689H359.134H397.943H436.759V827.179Z" fill="black"/>
<path d="M397.944 432.23H359.135V471.727H397.944V432.23Z" fill="black"/>
<path d="M397.944 511.217H359.135V550.714H397.944V511.217Z" fill="black"/>
<path d="M359.135 590.211V629.708H397.944H436.76V669.198H475.569V629.708H514.378H553.194V590.211H592.003V629.708H630.812V590.211V550.714V511.217H669.621V471.727V432.23H708.437V392.733V353.236H669.621V392.733H630.812V432.23H592.003V471.727V511.217H553.194H514.378V550.714H475.569V590.211H436.76H397.944H359.135Z" fill="black"/>
<path d="M397.944 827.18H359.135V866.677H397.944V827.18Z" fill="black"/>
<path d="M320.326 669.199V708.696H359.135H397.944V669.199H359.135V629.709H320.326V669.199Z" fill="black"/>
<path d="M320.326 550.715H281.51V590.212V629.709H320.326V590.212V550.715Z" fill="black"/>
<path d="M281.511 511.217H320.327H359.136V471.727H320.327V432.23H281.511H242.702H203.893V471.727V511.217H242.702H281.511Z" fill="black"/>
<path d="M242.702 787.689H203.893V827.179H242.702V787.689Z" fill="black"/>
<path d="M203.891 511.217H165.082V550.714H203.891V511.217Z" fill="black"/>
<path d="M203.891 748.193H165.082V787.69H203.891V748.193Z" fill="black"/>
<path d="M126.266 471.727H87.457V511.217V550.714V590.211H126.266V550.714V511.217H165.082V471.727H126.266Z" fill="black"/>
<path d="M87.457 708.696V748.193V787.69V827.18H126.266V787.69V748.193V708.696V669.199H87.457V708.696Z" fill="black"/>
<path d="M902.488 906.174V945.671V946.572H941.305V945.671H942.191V906.174H941.305H902.488Z" fill="black"/>
<path d="M1098.33 708.696V748.193H1059.52V787.69H1020.7V708.696H902.489V787.69H824.871V1025.57H747.246V1105.46H708.437V1145.87H669.621V1225.76H747.246V1145.87H786.055V1065.96H863.68V1026.47H941.305V1025.57H942.192V1026.47H941.305V1065.96H902.489V1105.46H863.68V1145.87H824.871V1225.76H902.489V1186.26H941.305V1185.36H942.192V1186.26H981.001V1225.76H1020.7V1186.26H1019.82V1185.36H1020.7V1145.87H942.192V1106.37H941.305V1105.46H942.192V1106.37H1019.82V1105.46H1020.7V1106.37H1059.52V1065.96H1099.22V1026.47H1098.33V1025.57H1099.22V986.069H1020.7V946.572H1019.82V945.671H1020.7V827.18H1059.52V866.677H1099.22V787.69H1138.03V866.677H1176.84V906.174H1059.52V946.572H1098.33V945.671H1099.22V946.572H1138.03V1026.47H1176.84V1025.57H1177.74V1026.47H1176.84V1065.96H1138.03V1106.37H1176.84V1105.46H1177.74V1106.37H1176.84V1145.87H1138.03V1185.36H1099.22V1186.26H1098.33V1225.76H1138.03V1186.26H1176.84V1185.36H1177.74V1186.26H1216.54V986.069H1177.74V946.572H1176.84V945.671H1177.74V906.174H1216.54V866.677H1177.74V827.18H1216.54V708.696H1177.74V669.199H1138.03V708.696H1176.84V748.193H1138.03V708.696H1099.22V669.199H1059.52V708.696H1098.33ZM942.191 986.069H863.679V866.677H981V986.069H942.191ZM1020.7 1025.57V1026.47H1019.82V1065.96H981V1026.47H1019.82V1025.57H1020.7Z" fill="black"/>
<path d="M1099.22 550.715H1098.33H1059.52V590.212H1020.7H1019.82V629.709H981V590.212H942.191H941.298H902.488H863.68H824.871V629.709V669.199V708.696H863.68V669.199H902.488H941.305H942.191H981H1019.82H1020.7H1059.52V629.709H1098.33H1099.22V590.212H1138.03V550.715H1099.22Z" fill="black"/>
<path d="M1176.84 629.708H1177.73H1216.54V590.211V550.714V511.217H1177.73V471.727H1176.84H1138.03V432.23H1099.22H1098.33H1059.52H1020.7H1019.82H981H942.191H941.298H902.488V471.727H863.68V511.217V550.714H902.488V511.217H941.298H942.191V471.727H981H1019.82V511.217H1020.7H1059.52H1098.33H1099.22H1138.03H1176.84V550.714V590.211H1138.03V629.708H1176.84Z" fill="black"/>
<path d="M863.68 195.256V155.766H824.871H786.055V195.256H824.871H863.68Z" fill="black"/>
<path d="M863.68 353.236H824.871V392.733H863.68V353.236Z" fill="black"/>
<path d="M786.055 432.231V471.728H824.871V432.231V392.734H786.055V432.231Z" fill="black"/>
<path d="M786.055 669.199H747.246V708.696H786.055V669.199Z" fill="black"/>
<path d="M708.438 353.236H747.246V392.733H786.055V353.236H824.871V313.746H863.68V274.249V234.752H824.871H786.055V274.249H747.246H708.438V313.746V353.236Z" fill="black"/>
<path d="M708.438 511.217V550.714H747.246H786.055V511.217H747.246V471.727V432.23H708.438V471.727V511.217Z" fill="black"/>
<path d="M669.62 946.572V986.069H630.811H592.002V1025.57V1026.47H630.811H669.62H708.436V1025.57V986.069H747.245V946.572V945.671V906.174H708.436V866.677H669.62V827.18H630.811V866.677V906.174H669.62V945.671V946.572Z" fill="black"/>
<path d="M669.621 116.268H708.438V155.766V195.255H747.246V155.766V116.268V76.7715H708.438H669.621H630.812V116.268V155.766H669.621V116.268Z" fill="black"/>
<path d="M669.62 274.25H708.436V234.753H669.62V195.256H630.811V234.753H592.002V274.25H630.811V313.747H669.62V274.25Z" fill="black"/>
<path d="M669.62 1105.46V1065.96H630.811H592.002H553.193V1105.46V1106.37H592.002H630.811V1145.86H669.62V1106.37V1105.46Z" fill="black"/>
<path d="M630.811 313.746H592.002V353.236V392.733H630.811V353.236V313.746Z" fill="black"/>
<path d="M592.002 1225.76V1186.26V1185.36V1145.87H553.193V1185.36H514.377V1186.26V1225.76H553.193H592.002Z" fill="black"/>
<path d="M553.193 274.25H514.377V313.747H553.193V274.25Z" fill="black"/>
<path d="M553.193 353.236H514.377V392.733H553.193V353.236Z" fill="black"/>
<path d="M15.0688 217.345C22.9038 217.345 29.2559 210.993 29.2559 203.158V42.0284C29.2559 34.5814 35.3148 28.5224 42.7618 28.5224H203.892C211.728 28.5224 218.079 22.1704 218.079 14.3354C218.079 6.50042 211.727 0.148438 203.892 0.148438H42.7618C19.6688 0.148438 0.880859 18.9364 0.880859 42.0294V203.159C0.880859 210.994 7.23284 217.346 15.0678 217.346L15.0688 217.345Z" fill="black"/>
<path d="M218.08 1288.2C218.08 1280.36 211.728 1274.01 203.893 1274.01H42.7628C35.3158 1274.01 29.2568 1267.95 29.2568 1260.51V1099.37C29.2568 1091.54 22.9048 1085.19 15.0698 1085.19C7.23482 1085.19 0.882812 1091.54 0.882812 1099.37V1260.51C0.882812 1283.6 19.6708 1302.39 42.7638 1302.39H203.894C211.73 1302.39 218.081 1296.03 218.081 1288.2H218.08Z" fill="black"/>
<path d="M1288.93 1085.19C1281.1 1085.19 1274.75 1091.54 1274.75 1099.37V1260.51C1274.75 1267.95 1268.69 1274.01 1261.24 1274.01H1100.11C1092.27 1274.01 1085.92 1280.36 1085.92 1288.2C1085.92 1296.03 1092.27 1302.39 1100.11 1302.39H1261.24C1284.33 1302.39 1303.12 1283.6 1303.12 1260.51V1099.37C1303.12 1091.54 1296.77 1085.19 1288.93 1085.19Z" fill="black"/>
<path d="M1261.24 0.147491H1100.11C1092.27 0.147491 1085.92 6.4995 1085.92 14.3345C1085.92 22.1695 1092.27 28.5215 1100.11 28.5215H1261.24C1268.69 28.5215 1274.75 34.5805 1274.75 42.0275V203.158C1274.75 210.993 1281.1 217.344 1288.93 217.344C1296.77 217.344 1303.12 210.993 1303.12 203.158V42.0275C1303.12 18.9345 1284.33 0.146484 1261.24 0.146484L1261.24 0.147491Z" fill="black"/>
</svg>
