<svg width="238" height="238" viewBox="0 0 238 238" fill="none" xmlns="http://www.w3.org/2000/svg">
<path d="M87.945 26.9502C67.4698 26.9502 47.2178 26.9502 26.9316 26.9502C26.9316 47.4653 26.9316 67.7177 26.9316 88.0412C47.3802 88.0412 67.528 88.0412 87.945 88.0412C87.945 67.3954 87.945 47.2477 87.945 26.9502ZM79.1546 79.0957C64.8092 79.0957 50.4164 79.0957 35.7218 79.0957C35.7218 64.787 35.7218 50.3951 35.7218 35.6867C50.3581 35.6867 64.6464 35.6867 79.1546 35.6867C79.1546 50.1794 79.1546 64.4679 79.1546 79.0957Z" fill="white"/>
<path d="M210.893 26.9189C190.397 26.9189 170.248 26.9189 149.902 26.9189C149.902 47.2965 149.902 67.4452 149.902 87.9171C170.495 87.9171 190.748 87.9171 210.893 87.9171C210.893 67.3546 210.893 47.1015 210.893 26.9189ZM202.178 79.2015C187.769 79.2015 173.48 79.2015 158.687 79.2015C158.687 64.675 158.687 50.3869 158.687 35.7888C173.122 35.7888 187.514 35.7888 202.178 35.7888C202.178 50.1862 202.178 64.577 202.178 79.2015Z" fill="white"/>
<path d="M26.9492 210.942C47.5198 210.942 67.773 210.942 87.9317 210.942C87.9317 190.438 87.9317 170.288 87.9317 149.951C67.5461 149.951 47.3975 149.951 26.9492 149.951C26.9492 170.568 26.9492 190.82 26.9492 210.942ZM35.7769 158.865C50.0428 158.865 64.435 158.865 79.1859 158.865C79.1859 173.458 79.1859 187.747 79.1859 202.269C64.7077 202.269 50.419 202.269 35.7769 202.269C35.7769 187.967 35.7769 173.574 35.7769 158.865Z" fill="white"/>
<path d="M105.823 202.554C105.823 202.512 105.823 202.47 105.823 202.428C105.781 202.428 105.739 202.428 105.697 202.428L105.823 202.554Z" fill="white"/>
<path d="M114.469 167.294C114.469 167.336 114.469 167.378 114.469 167.42C114.511 167.42 114.552 167.42 114.594 167.42L114.469 167.294Z" fill="white"/>
<path d="M149.494 167.41C149.494 170.61 149.494 173.302 149.494 176.288C146.441 176.288 143.857 176.288 140.814 176.288C140.814 179.286 140.814 181.978 140.814 184.588C137.65 184.588 134.965 184.588 131.974 184.588C131.974 181.67 131.974 179.089 131.974 176.045C126.043 176.045 120.419 176.045 114.469 176.045C114.469 172.866 114.469 170.139 114.469 167.419C111.649 167.419 108.824 167.419 105.577 167.419C105.577 173.52 105.577 179.135 105.577 185.03C102.54 185.03 99.9599 185.03 97.207 185.03C97.207 188.016 97.207 190.695 97.207 193.832C100.135 193.832 102.822 193.832 105.823 193.832C105.823 196.996 105.823 199.716 105.823 202.429C111.574 202.429 117.329 202.429 123.536 202.429C123.536 205.754 123.536 208.445 123.536 211.082C135.362 211.082 146.716 211.082 158.24 211.082C158.24 205.258 158.24 199.65 158.24 193.577C155.301 193.577 152.613 193.577 150.054 193.577C150.054 190.419 150.054 187.736 150.054 184.753C152.986 184.753 155.568 184.753 158.605 184.753C158.605 181.758 158.605 179.068 158.605 176.065C161.78 176.065 164.506 176.065 167.225 176.065C167.225 173.18 167.225 170.295 167.225 167.41C161.466 167.41 155.704 167.41 149.494 167.41ZM122.973 193.629C120.144 193.629 117.675 193.629 114.874 193.629C114.874 190.877 114.874 188.199 114.874 185.219C117.459 185.219 120.137 185.219 122.973 185.219C122.973 188.04 122.973 190.819 122.973 193.629ZM140.656 202.421C137.729 202.421 135.26 202.421 132.457 202.421C132.457 199.671 132.457 196.996 132.457 194.01C135.038 194.01 137.715 194.01 140.656 194.01C140.656 196.712 140.656 199.388 140.656 202.421Z" fill="white"/>
<path d="M193.582 123.315C193.582 123.357 193.582 123.399 193.582 123.441L193.708 123.315C193.666 123.315 193.624 123.315 193.582 123.315Z" fill="white"/>
<path d="M184.673 97.3136C184.673 103.208 184.673 108.812 184.673 114.665C175.664 114.665 167.109 114.665 158.557 114.665C158.557 117.55 158.557 120.435 158.557 123.32C164.297 123.32 170.038 123.32 175.774 123.32C175.774 126.604 175.774 129.281 175.774 132.411C172.792 132.411 170.113 132.411 167.345 132.411C167.345 144.342 167.345 155.813 167.345 167.281C170.066 167.281 172.795 167.281 176.138 167.281C176.138 170.403 176.138 173.236 176.138 176.065C178.965 176.065 181.795 176.065 184.8 176.065C184.8 166.975 184.8 158.398 184.8 149.822C182.092 149.822 179.38 149.822 176.379 149.822C176.379 146.867 176.379 144.192 176.379 140.908C179.169 140.908 181.985 140.908 184.8 140.908C184.8 135.152 184.8 129.394 184.8 123.315C188.138 123.315 190.864 123.315 193.582 123.315C193.582 114.656 193.582 105.997 193.582 97.3135C190.469 97.3136 187.795 97.3136 184.673 97.3136Z" fill="white"/>
<path d="M167.346 167.281C167.305 167.281 167.265 167.281 167.225 167.281C167.225 167.325 167.225 167.368 167.225 167.411C167.265 167.411 167.305 167.411 167.346 167.411C167.346 167.368 167.346 167.325 167.346 167.281Z" fill="white"/>
<path d="M184.799 149.701C184.799 149.742 184.799 149.782 184.799 149.823C184.842 149.823 184.886 149.823 184.929 149.823L184.864 149.762L184.799 149.701Z" fill="white"/>
<path d="M158.422 105.758C158.422 105.8 158.422 105.842 158.422 105.884C158.464 105.884 158.506 105.884 158.547 105.884L158.422 105.758Z" fill="white"/>
<path d="M158.538 114.557L158.436 114.666C158.476 114.666 158.517 114.666 158.557 114.666C158.557 114.623 158.557 114.579 158.557 114.536L158.539 114.556C158.55 114.544 158.557 114.536 158.557 114.536C158.517 114.536 158.476 114.536 158.436 114.536C158.436 114.579 158.436 114.623 158.436 114.666C158.436 114.666 158.504 114.593 158.538 114.557Z" fill="white"/>
<path d="M150.008 114.537C152.801 114.537 155.619 114.537 158.437 114.537C158.433 111.652 158.428 108.768 158.424 105.884C152.691 105.884 146.955 105.884 140.784 105.884C140.784 108.994 140.784 111.682 140.784 114.271C137.648 114.271 134.973 114.271 132.01 114.271C132.01 111.372 132.01 108.799 132.01 106.052C128.898 106.052 126.072 106.052 123.249 106.052C123.244 117.616 123.244 129.176 123.244 140.657C135.39 140.657 146.831 140.657 158.437 140.657C158.437 134.717 158.437 129.082 158.437 123.45C155.727 123.45 153.014 123.45 150.008 123.45C150.008 120.495 150.008 117.82 150.008 114.537ZM140.636 131.94C137.993 131.94 135.417 131.94 132.482 131.94C132.482 129.383 132.482 126.709 132.482 123.552C135.211 123.552 137.784 123.552 140.636 123.552C140.636 126.34 140.636 129.017 140.636 131.94Z" fill="white"/>
<path d="M158.436 123.449C158.476 123.449 158.516 123.449 158.557 123.449C158.557 123.406 158.557 123.363 158.557 123.319C158.516 123.319 158.476 123.319 158.436 123.319C158.436 123.363 158.436 123.406 158.436 123.449Z" fill="white"/>
<path d="M193.582 123.441C193.624 123.441 193.666 123.441 193.708 123.441C193.708 123.399 193.708 123.357 193.708 123.315C193.708 123.315 193.582 123.441 193.582 123.441Z" fill="white"/>
<path d="M202.219 158.634C199.309 158.634 196.619 158.634 193.983 158.634C193.983 161.797 193.983 164.482 193.983 167.47C196.893 167.47 199.477 167.47 202.521 167.47C202.521 170.467 202.521 173.158 202.521 175.806C205.679 175.806 208.359 175.806 210.888 175.806C210.888 149.37 210.888 123.262 210.888 97.2627C207.954 97.2627 205.372 97.2627 202.336 97.2627C202.336 106.052 202.336 114.605 202.336 123.44C199.157 123.44 196.428 123.44 193.705 123.44C193.705 126.27 193.705 129.107 193.705 132.383C196.911 132.383 199.598 132.383 202.219 132.383C202.219 141.297 202.219 149.732 202.219 158.634Z" fill="white"/>
<path d="M61.7272 114.536C61.7272 111.706 61.7272 108.87 61.7272 105.597C58.5286 105.597 55.8341 105.597 52.8477 105.597C52.8477 102.542 52.8477 99.9576 52.8477 97.3066C49.8447 97.3066 47.1634 97.3066 44.0089 97.3066C44.0089 103.21 44.0089 108.831 44.0089 114.752C38.0192 114.752 32.5084 114.752 26.9238 114.752C26.9238 120.691 26.9238 126.302 26.9238 132.111C35.7889 132.111 44.3666 132.111 52.9429 132.111C52.9429 126.467 52.9429 120.818 52.9429 114.536C56.0717 114.536 58.9017 114.536 61.7272 114.536Z" fill="white"/>
<path d="M52.9453 132.111C52.9453 132.155 52.9453 132.198 52.9453 132.241L53.0668 132.111C53.0263 132.111 52.9858 132.111 52.9453 132.111Z" fill="white"/>
<path d="M123.13 105.91C123.13 105.955 123.13 106.001 123.13 106.046C123.126 106.05 123.219 105.944 123.243 105.917C123.219 105.944 123.125 106.051 123.125 106.051C123.166 106.051 123.207 106.051 123.249 106.051C123.249 106.004 123.249 105.957 123.249 105.91C123.209 105.91 123.169 105.91 123.13 105.91Z" fill="white"/>
<path d="M105.558 97.2939C105.558 100.264 105.558 102.957 105.558 105.578C102.5 105.578 99.9157 105.578 96.8665 105.578C96.8665 102.668 96.8665 99.9787 96.8665 97.3476C90.7656 97.3476 85.1467 97.3476 79.6094 97.3476C79.6094 100.269 79.6094 102.856 79.6094 105.901C82.5268 105.901 85.2201 105.901 88.2361 105.901C88.2361 109.084 88.2361 111.813 88.2361 114.536C90.943 114.536 93.6567 114.536 96.8063 114.536C96.8063 117.491 96.8063 120.171 96.8063 123.326C100.047 123.326 102.868 123.326 105.682 123.326C105.682 120.495 105.682 117.657 105.682 114.388C109.019 114.388 111.71 114.388 114.695 114.388C114.695 111.332 114.695 108.748 114.695 105.916C117.704 105.916 120.417 105.916 123.13 105.911C123.134 103.071 123.134 100.234 123.134 97.2939C117.259 97.2939 111.641 97.2939 105.558 97.2939Z" fill="white"/>
<path d="M132.293 79.357C132.293 85.6082 132.293 91.2213 132.293 96.8135C135.329 96.8135 137.904 96.8135 140.694 96.8135C140.694 85.1682 140.694 73.7245 140.694 62.0967C134.744 62.0967 128.996 62.0967 123.25 62.0967C123.298 67.8534 123.351 73.6053 123.404 79.3571C126.224 79.357 129.05 79.357 132.293 79.357Z" fill="white"/>
<path d="M97.0273 141.031C97.0273 146.782 97.0273 152.533 97.0273 158.227C100.209 158.227 102.89 158.227 105.87 158.227C105.87 155.323 105.87 152.742 105.87 149.702C108.856 149.702 111.542 149.702 114.25 149.702C114.25 140.696 114.25 132.162 114.25 123.447C111.248 123.447 108.528 123.447 105.812 123.447C105.812 129.094 105.812 134.746 105.812 141.031C102.683 141.031 99.853 141.031 97.0273 141.031Z" fill="white"/>
<path d="M105.812 123.449C105.812 123.408 105.812 123.368 105.812 123.327C105.768 123.327 105.725 123.327 105.682 123.327C105.682 123.368 105.682 123.408 105.682 123.449C105.725 123.449 105.768 123.449 105.812 123.449Z" fill="white"/>
<path d="M167.269 176.148L167.346 176.065C167.305 176.065 167.265 176.065 167.225 176.065C167.225 176.109 167.225 176.152 167.225 176.196L167.251 176.167C167.236 176.183 167.225 176.196 167.225 176.196C167.265 176.196 167.305 176.196 167.346 176.196C167.346 176.152 167.346 176.109 167.346 176.065C167.346 176.065 167.304 176.111 167.269 176.148Z" fill="white"/>
<path d="M167.346 202.644C170.483 202.644 173.167 202.644 176.299 202.644C176.299 205.788 176.299 208.475 176.299 211.065C179.34 211.065 181.917 211.065 184.604 211.065C184.604 205.228 184.604 199.625 184.604 193.559C181.663 193.559 178.979 193.559 176.018 193.559C176.018 187.465 176.018 181.828 176.018 176.194C173.127 176.194 170.237 176.194 167.346 176.194C167.346 184.86 167.346 193.528 167.346 202.644Z" fill="white"/>
<path d="M176.018 176.196C176.058 176.196 176.098 176.196 176.139 176.196C176.139 176.152 176.139 176.109 176.139 176.065C176.099 176.065 176.058 176.065 176.018 176.065C176.018 176.109 176.018 176.152 176.018 176.196Z" fill="white"/>
<path d="M88.1383 114.565L88.2375 114.657C88.2375 114.617 88.2375 114.577 88.2375 114.536C88.1942 114.536 88.1508 114.536 88.1074 114.536L88.1172 114.545C88.1115 114.54 88.1074 114.536 88.1074 114.536C88.1074 114.577 88.1074 114.617 88.1074 114.657C88.1508 114.657 88.1942 114.657 88.2375 114.657C88.2375 114.657 88.1767 114.601 88.1383 114.565Z" fill="white"/>
<path d="M61.8586 114.657C61.8586 114.617 61.8586 114.577 61.8586 114.536C61.8153 114.536 61.7719 114.536 61.7285 114.536C61.7285 114.577 61.7285 114.617 61.7285 114.657C61.7719 114.657 61.8153 114.657 61.8586 114.657Z" fill="white"/>
<path d="M79.4359 132.111C79.3954 132.111 79.3549 132.111 79.3145 132.111C79.3145 132.155 79.3145 132.198 79.3145 132.241L79.3752 132.176L79.4359 132.111Z" fill="white"/>
<path d="M88.1073 123.541C88.1073 120.296 88.1073 117.473 88.1073 114.656C79.3573 114.656 70.6073 114.656 61.8574 114.656C61.8574 117.366 61.8574 120.082 61.8574 123.235C64.6905 123.235 67.3701 123.235 70.6483 123.235C70.6483 126.474 70.6483 129.295 70.6483 132.111C73.5376 132.111 76.4271 132.111 79.3165 132.111C79.3165 129.404 79.3165 126.69 79.3165 123.541C82.2721 123.541 84.9518 123.541 88.1073 123.541Z" fill="white"/>
<path d="M70.5273 132.241C70.5678 132.241 70.6083 132.241 70.6488 132.241C70.6488 132.198 70.6488 132.155 70.6488 132.111C70.6083 132.111 70.5678 132.111 70.5273 132.111C70.5273 132.155 70.5273 132.198 70.5273 132.241Z" fill="white"/>
<path d="M53.0625 140.672C59.1622 140.672 64.7623 140.672 70.5257 140.672C70.5257 137.668 70.5257 134.952 70.5257 132.24C64.7047 132.24 58.8835 132.24 53.0625 132.24C53.0625 135.056 53.0625 137.872 53.0625 140.672Z" fill="white"/>
<path d="M52.9453 132.241C52.9858 132.241 53.0263 132.241 53.0668 132.241C53.0668 132.198 53.0668 132.155 53.0668 132.111L52.9453 132.241Z" fill="white"/>
<path d="M97.2832 44.5566C97.2832 47.52 97.2832 50.1896 97.2832 52.9887C103.223 52.9887 108.844 52.9887 114.464 52.9887C114.464 50.1778 114.464 47.3669 114.464 44.5566C108.394 44.5566 102.804 44.5566 97.2832 44.5566Z" fill="white"/>
<path d="M97.2461 87.9C100.213 87.9 102.881 87.9 105.678 87.9C105.678 81.96 105.678 76.3387 105.678 70.7197C102.867 70.7197 100.057 70.7197 97.2461 70.7197C97.2461 76.7894 97.2461 82.3798 97.2461 87.9Z" fill="white"/>
<path d="M79.3752 132.176C79.3448 132.209 79.3145 132.241 79.3145 132.241C79.3549 132.241 79.3954 132.241 79.4359 132.241C79.4359 132.198 79.4359 132.155 79.4359 132.111C79.4359 132.111 79.4055 132.144 79.3752 132.176Z" fill="white"/>
<path d="M79.4375 132.24C79.4375 135.066 79.4375 137.895 79.4375 140.911C85.6014 140.911 91.252 140.911 96.8987 140.911C96.8987 138.189 96.8987 135.461 96.8987 132.24C90.9565 132.24 85.1964 132.24 79.4375 132.24Z" fill="white"/>
<path d="M96.8984 140.91C96.8984 140.951 96.8984 140.991 96.8984 141.032C96.9418 141.032 96.9852 141.032 97.0285 141.032C97.0285 140.991 97.0285 140.951 97.0285 140.91C96.9852 140.91 96.9419 140.91 96.8984 140.91Z" fill="white"/>
<path d="M211.028 185.171C205.212 185.171 199.608 185.171 193.832 185.171C193.832 187.991 193.832 190.566 193.832 193.395C199.852 193.395 205.457 193.395 211.028 193.395C211.028 190.494 211.028 187.917 211.028 185.171Z" fill="white"/>
<path d="M166.998 97.3291C164.029 97.3291 161.36 97.3291 158.547 97.3291C158.547 100.341 158.547 103.052 158.547 105.758C161.36 105.758 164.173 105.758 166.998 105.758C166.998 102.608 166.998 99.9392 166.998 97.3291Z" fill="white"/>
<path d="M158.422 105.758C158.422 105.758 158.547 105.884 158.547 105.884C158.547 105.842 158.547 105.8 158.547 105.758C158.506 105.758 158.464 105.758 158.422 105.758Z" fill="white"/>
<path d="M105.803 70.5953C108.599 70.5951 111.397 70.5951 114.297 70.5951C114.297 67.3768 114.297 64.5696 114.297 61.7683C111.505 61.7637 108.716 61.7637 105.803 61.7637C105.803 65.1792 105.803 67.8926 105.803 70.5953Z" fill="white"/>
<path d="M105.792 70.71L105.678 70.5959C105.678 70.6379 105.678 70.6798 105.678 70.7218C105.72 70.7218 105.761 70.7218 105.803 70.7218C105.803 70.6798 105.803 70.6377 105.803 70.5957C105.761 70.5957 105.72 70.5957 105.678 70.5957C105.678 70.5957 105.761 70.6794 105.792 70.71Z" fill="white"/>
<path d="M114.295 61.7688C114.342 61.769 114.389 61.769 114.436 61.769C114.441 61.7739 114.295 61.6455 114.295 61.6455C114.295 61.6866 114.295 61.7278 114.295 61.7688Z" fill="white"/>
<path d="M184.929 141.03C184.929 140.989 184.929 140.949 184.929 140.908C184.886 140.908 184.842 140.908 184.799 140.908C184.799 140.949 184.799 140.989 184.799 141.03C184.842 141.03 184.886 141.03 184.929 141.03Z" fill="white"/>
<path d="M184.864 149.762C184.896 149.792 184.929 149.823 184.929 149.823C184.929 149.782 184.929 149.742 184.929 149.701C184.886 149.701 184.842 149.701 184.799 149.701C184.799 149.701 184.831 149.732 184.864 149.762Z" fill="white"/>
<path d="M193.354 149.702C193.354 146.539 193.354 143.864 193.354 141.029C190.349 141.029 187.636 141.029 184.928 141.029C184.928 143.92 184.928 146.811 184.928 149.702C187.744 149.702 190.559 149.702 193.354 149.702Z" fill="white"/>
<path d="M123.279 79.4825C123.321 79.4825 123.363 79.4825 123.405 79.4825C123.405 79.4823 123.312 79.3894 123.286 79.3634L123.405 79.4822C123.404 79.4403 123.404 79.3984 123.404 79.3564C123.362 79.3564 123.321 79.3564 123.279 79.3564C123.279 79.3984 123.279 79.4406 123.279 79.4825Z" fill="white"/>
<path d="M114.828 87.9114C117.797 87.9114 120.466 87.9114 123.279 87.9114C123.279 84.8981 123.279 82.188 123.279 79.4824C120.466 79.4826 117.653 79.4826 114.828 79.4826C114.828 82.6312 114.828 85.3009 114.828 87.9114Z" fill="white"/>
<path d="M149.904 149.981C149.904 152.769 149.904 155.344 149.904 158.255C152.906 158.255 155.582 158.255 158.16 158.255C158.16 155.273 158.16 152.595 158.16 149.981C155.246 149.981 152.669 149.981 149.904 149.981Z" fill="white"/>
<path d="M35.3384 97.375C32.5225 97.375 29.7459 97.375 26.9277 97.375C26.9277 100.213 26.9277 102.889 26.9277 105.474C29.9081 105.474 32.586 105.474 35.3384 105.474C35.3384 102.673 35.3384 100.203 35.3384 97.375Z" fill="white"/>
<path d="M123.043 158.865C120.077 158.865 117.407 158.865 114.592 158.865C114.592 161.878 114.592 164.589 114.592 167.294C117.405 167.294 120.218 167.294 123.043 167.294C123.043 164.144 123.043 161.475 123.043 158.865Z" fill="white"/>
<path d="M114.469 167.293C114.469 167.293 114.594 167.419 114.594 167.419C114.594 167.377 114.594 167.335 114.594 167.293C114.552 167.293 114.511 167.293 114.469 167.293Z" fill="white"/>
<path d="M131.941 35.7959C128.879 35.7959 126.204 35.7959 123.688 35.7959C123.688 38.801 123.688 41.4733 123.688 44.0321C126.622 44.0321 129.198 44.0321 131.941 44.0321C131.941 41.2221 131.941 38.6489 131.941 35.7959Z" fill="white"/>
<path d="M105.477 27.002C102.517 27.002 99.8399 27.002 97.1582 27.002C97.1582 29.8923 97.1582 32.4671 97.1582 35.2428C100.244 35.2428 102.821 35.2428 105.477 35.2428C105.477 32.3243 105.477 29.648 105.477 27.002Z" fill="white"/>
<path d="M123.129 61.9525C123.134 59.0386 123.134 56.1284 123.134 53.1133C119.981 53.1133 117.28 53.1133 114.586 53.1133C114.535 55.9589 114.484 58.8045 114.438 61.6547C117.337 61.7584 120.231 61.8579 123.129 61.9525Z" fill="white"/>
<path d="M114.438 61.7693C114.439 61.7312 114.44 61.6932 114.44 61.6551C114.394 61.6535 114.349 61.6521 114.303 61.6505C114.297 61.6458 114.444 61.7742 114.438 61.7693Z" fill="white"/>
<path d="M123.243 61.9627C123.219 61.9899 123.125 62.0973 123.125 62.0973C123.167 62.0973 123.208 62.0973 123.25 62.0973C123.249 62.0502 123.249 62.0032 123.249 61.9562C123.209 61.9549 123.169 61.9534 123.13 61.9521C123.13 61.9987 123.13 62.0453 123.13 62.0918C123.126 62.0965 123.219 61.9898 123.243 61.9627Z" fill="white"/>
<path d="M114.589 53.114C114.59 53.0721 114.59 53.0302 114.591 52.9885C114.591 52.9884 114.52 53.0584 114.485 53.0938L114.591 52.9883C114.549 52.9883 114.507 52.9883 114.465 52.9883C114.465 53.0301 114.465 53.072 114.465 53.1139C114.506 53.114 114.547 53.114 114.589 53.114Z" fill="white"/>
<path d="M132.381 158.772C132.381 161.674 132.381 164.351 132.381 167.182C135.213 167.182 137.786 167.182 140.574 167.182C140.574 164.055 140.574 161.38 140.574 158.772C137.659 158.772 135.083 158.772 132.381 158.772Z" fill="white"/>
<path d="M97.248 210.983C100.214 210.983 102.884 210.983 105.699 210.983C105.699 207.969 105.699 205.259 105.699 202.554C102.886 202.554 100.073 202.554 97.248 202.554C97.248 205.704 97.248 208.373 97.248 210.983Z" fill="white"/>
<path d="M105.823 202.555C105.823 202.555 105.697 202.429 105.697 202.429C105.697 202.471 105.697 202.513 105.697 202.555C105.739 202.555 105.781 202.555 105.823 202.555Z" fill="white"/>
<path d="M202.689 202.863C202.689 205.799 202.689 208.375 202.689 211.017C205.612 211.017 208.289 211.017 211.077 211.017C211.077 208.164 211.077 205.592 211.077 202.863C207.92 202.863 205.246 202.863 202.689 202.863Z" fill="white"/>
<path d="M70.3821 44.5723C61.5272 44.5723 52.9953 44.5723 44.5547 44.5723C44.5547 53.4104 44.5547 61.9437 44.5547 70.4197C53.3247 70.4197 61.7526 70.4197 70.3821 70.4197C70.3821 61.7712 70.3821 53.3433 70.3821 44.5723Z" fill="white"/>
<path d="M193.322 44.4902C184.555 44.4902 176.127 44.4902 167.494 44.4902C167.494 53.1351 167.494 61.563 167.494 70.3454C176.337 70.3454 184.869 70.3454 193.322 70.3454C193.322 61.5114 193.322 52.9782 193.322 44.4902Z" fill="white"/>
<path d="M44.4824 193.555C53.1781 193.555 61.6054 193.555 70.2401 193.555C70.2401 184.562 70.2401 176.029 70.2401 167.572C61.4639 167.572 53.0356 167.572 44.4824 167.572C44.4824 176.335 44.4824 184.866 44.4824 193.555Z" fill="white"/>
<path d="M233.127 36.7767C230.435 36.7767 228.253 34.5944 228.253 31.9026V9.74821H206.099C203.407 9.74821 201.225 7.56597 201.225 4.8741C201.225 2.18223 203.407 0 206.099 0H233.127C235.819 0 238.001 2.18223 238.001 4.8741V31.9026C238.001 34.5945 235.819 36.7767 233.127 36.7767Z" fill="white"/>
<path d="M4.8741 36.7767C2.18223 36.7767 0 34.5944 0 31.9026V4.8741C0 2.18223 2.18223 0 4.8741 0H31.9026C34.5944 0 36.7767 2.18223 36.7767 4.8741C36.7767 7.56597 34.5944 9.74821 31.9026 9.74821H9.74821V31.9026C9.74821 34.5945 7.56597 36.7767 4.8741 36.7767Z" fill="white"/>
<path d="M233.127 238H206.099C203.407 238 201.225 235.818 201.225 233.126C201.225 230.434 203.407 228.252 206.099 228.252H228.253V206.098C228.253 203.406 230.435 201.224 233.127 201.224C235.819 201.224 238.001 203.406 238.001 206.098V233.126C238.001 235.818 235.819 238 233.127 238Z" fill="white"/>
<path d="M31.9025 238H4.8741C2.18223 238 0 235.818 0 233.126V206.098C0 203.406 2.18223 201.224 4.8741 201.224C7.56597 201.224 9.74821 203.406 9.74821 206.098V228.252H31.9026C34.5944 228.252 36.7767 230.434 36.7767 233.126C36.7767 235.818 34.5944 238 31.9025 238Z" fill="white"/>
</svg>
