<svg width="24" height="24" viewBox="0 0 24 24" fill="none" xmlns="http://www.w3.org/2000/svg">
<path d="M22.0245 19.3314L17.3092 14.6158C18.1104 13.3404 18.5754 11.8329 18.5754 10.215C18.5754 5.63793 14.8649 1.92794 10.2879 1.92794C5.71101 1.92794 2.00085 5.63793 2.00085 10.215C2.00085 14.7923 5.71084 18.5019 10.2879 18.5019C12.0486 18.5019 13.6794 17.9515 15.0213 17.0162L19.6804 21.6756C20.0041 21.999 20.4285 22.1601 20.8524 22.1601C21.2768 22.1601 21.7007 21.999 22.025 21.6756C22.6719 21.028 22.6719 19.9789 22.0245 19.3314ZM10.2879 15.817C7.19435 15.817 4.68626 13.3091 4.68626 10.2154C4.68626 7.12161 7.19435 4.61352 10.2879 4.61352C13.3817 4.61352 15.8896 7.12161 15.8896 10.2154C15.8896 13.3091 13.3817 15.817 10.2879 15.817Z" fill="white"/>
</svg>
