<svg width="248" height="281" viewBox="0 0 248 281" fill="none" xmlns="http://www.w3.org/2000/svg">
<g opacity="0.3">
<path opacity="0.01" d="M247.64 270.936C247.64 276.245 192.259 280.544 123.924 280.544C55.598 280.544 0.208984 276.244 0.208984 270.936C0.208984 265.634 55.598 261.333 123.924 261.333C192.259 261.333 247.64 265.635 247.64 270.936Z" fill="black"/>
<path opacity="0.02" d="M242.652 270.936C242.652 276.031 189.498 280.154 123.923 280.154C58.366 280.154 5.21399 276.031 5.21399 270.936C5.21399 265.844 58.366 261.719 123.923 261.719C189.498 261.72 242.652 265.845 242.652 270.936Z" fill="black"/>
<path opacity="0.03" d="M237.642 270.936C237.642 275.815 186.735 279.769 123.924 279.769C61.125 279.769 10.213 275.815 10.213 270.936C10.213 266.059 61.125 262.106 123.924 262.106C186.734 262.106 237.642 266.06 237.642 270.936Z" fill="black"/>
<path opacity="0.03" d="M234.078 270.936C234.078 275.664 184.762 279.492 123.924 279.492C63.094 279.492 13.785 275.664 13.785 270.936C13.785 266.215 63.094 262.391 123.924 262.391C184.762 262.392 234.078 266.216 234.078 270.936Z" fill="black"/>
<path opacity="0.03" d="M228.73 270.936C228.73 275.439 181.81 279.075 123.923 279.075C66.046 279.075 19.1219 275.439 19.1219 270.936C19.1219 266.44 66.046 262.801 123.923 262.801C181.811 262.802 228.73 266.44 228.73 270.936Z" fill="black"/>
<path opacity="0.03" d="M225.184 270.936C225.184 275.281 179.848 278.805 123.924 278.805C68.0079 278.805 22.6799 275.281 22.6799 270.936C22.6799 266.596 68.0079 263.077 123.924 263.077C179.848 263.077 225.184 266.597 225.184 270.936Z" fill="black"/>
<path opacity="0.03" d="M219.84 271.144C219.84 275.376 175.706 278.806 121.254 278.806C66.8149 278.806 22.6799 275.376 22.6799 271.144C22.6799 266.918 66.8149 263.49 121.254 263.49C175.706 263.489 219.84 266.918 219.84 271.144Z" fill="black"/>
<path opacity="0.03" d="M212.715 271.144C212.715 275.075 171.774 278.251 121.254 278.251C70.738 278.251 29.801 275.074 29.801 271.144C29.801 267.225 70.739 264.046 121.254 264.046C171.773 264.046 212.715 267.225 212.715 271.144Z" fill="black"/>
<path opacity="0.03" d="M207.375 271.144C207.375 274.846 168.824 277.835 121.254 277.835C73.693 277.835 35.139 274.846 35.139 271.144C35.139 267.452 73.694 264.46 121.254 264.46C168.824 264.46 207.375 267.451 207.375 271.144Z" fill="black"/>
<path opacity="0.03" d="M203.803 271.144C203.803 274.687 166.846 277.554 121.254 277.554C75.672 277.554 38.705 274.687 38.705 271.144C38.705 267.605 75.672 264.735 121.254 264.735C166.846 264.734 203.803 267.604 203.803 271.144Z" fill="black"/>
<path opacity="0.03" d="M200.238 271.144C200.238 274.535 164.873 277.281 121.254 277.281C77.635 277.281 42.283 274.535 42.283 271.144C42.283 267.76 77.635 265.011 121.254 265.011C164.873 265.011 200.238 267.76 200.238 271.144Z" fill="black"/>
<path opacity="0.03" d="M196.365 271.144C196.365 274.367 162.748 276.975 121.254 276.975C79.77 276.975 46.142 274.367 46.142 271.144C46.142 267.925 79.77 265.312 121.254 265.312C162.748 265.311 196.365 267.925 196.365 271.144Z" fill="black"/>
<path opacity="0.03" d="M189.23 271.144C189.23 274.068 158.794 276.429 121.253 276.429C83.713 276.429 53.282 274.068 53.282 271.144C53.282 268.229 83.713 265.866 121.253 265.866C158.795 265.865 189.23 268.228 189.23 271.144Z" fill="black"/>
<path opacity="0.03" d="M198.496 270.936C198.496 274.135 165.11 276.731 123.924 276.731C82.746 276.731 49.359 274.135 49.359 270.936C49.359 267.738 82.747 265.146 123.924 265.146C165.11 265.147 198.496 267.738 198.496 270.936Z" fill="black"/>
<path opacity="0.03" d="M196.156 270.936C196.156 274.036 163.826 276.544 123.923 276.544C84.04 276.544 51.698 274.035 51.698 270.936C51.698 267.841 84.04 265.328 123.923 265.328C163.826 265.328 196.156 267.842 196.156 270.936Z" fill="black"/>
<path opacity="0.03" d="M192.652 270.936C192.652 273.889 161.888 276.276 123.923 276.276C85.974 276.276 55.204 273.889 55.204 270.936C55.204 267.987 85.973 265.598 123.923 265.598C161.889 265.599 192.652 267.987 192.652 270.936Z" fill="black"/>
<path opacity="0.03" d="M190.32 270.936C190.32 273.788 160.597 276.09 123.924 276.09C87.26 276.09 57.535 273.787 57.535 270.936C57.535 268.091 87.26 265.785 123.924 265.785C160.598 265.785 190.32 268.092 190.32 270.936Z" fill="black"/>
<path opacity="0.03" d="M186.816 271.074C186.816 273.847 157.878 276.091 122.18 276.091C86.47 276.091 57.535 273.848 57.535 271.074C57.535 268.306 86.471 266.057 122.18 266.057C157.879 266.058 186.816 268.307 186.816 271.074Z" fill="black"/>
<path opacity="0.03" d="M182.156 271.074C182.156 273.647 155.299 275.733 122.18 275.733C89.054 275.733 62.204 273.647 62.204 271.074C62.204 268.497 89.054 266.413 122.18 266.413C155.299 266.413 182.156 268.497 182.156 271.074Z" fill="black"/>
<path opacity="0.03" d="M178.643 271.074C178.643 273.501 153.364 275.461 122.181 275.461C90.9889 275.461 65.7109 273.501 65.7109 271.074C65.7109 268.651 90.9879 266.689 122.181 266.689C153.363 266.69 178.643 268.651 178.643 271.074Z" fill="black"/>
<path opacity="0.03" d="M176.301 271.074C176.301 273.395 152.071 275.281 122.181 275.281C92.281 275.281 68.049 273.395 68.049 271.074C68.049 268.751 92.281 266.872 122.181 266.872C152.07 266.872 176.301 268.751 176.301 271.074Z" fill="black"/>
<path opacity="0.03" d="M173.964 271.074C173.964 273.3 150.781 275.098 122.181 275.098C93.571 275.098 70.391 273.299 70.391 271.074C70.391 268.847 93.571 267.056 122.181 267.056C150.781 267.056 173.964 268.847 173.964 271.074Z" fill="black"/>
<path opacity="0.03" d="M171.431 271.074C171.431 273.188 149.379 274.9 122.181 274.9C94.973 274.9 72.922 273.188 72.922 271.074C72.922 268.962 94.973 267.25 122.181 267.25C149.379 267.25 171.431 268.962 171.431 271.074Z" fill="black"/>
<path opacity="0.03" d="M166.752 271.074C166.752 272.983 146.798 274.534 122.181 274.534C97.564 274.534 77.608 272.983 77.608 271.074C77.608 269.157 97.564 267.613 122.181 267.613C146.798 267.613 166.752 269.157 166.752 271.074Z" fill="black"/>
<path opacity="0.03" d="M174.551 270.936C174.551 273.106 151.883 274.867 123.924 274.867C95.969 274.867 73.307 273.106 73.307 270.936C73.307 268.767 95.969 267.008 123.924 267.008C151.883 267.009 174.551 268.768 174.551 270.936Z" fill="black"/>
<path opacity="0.03" d="M172.967 270.936C172.967 273.041 151.008 274.744 123.924 274.744C96.8499 274.744 74.8929 273.042 74.8929 270.936C74.8929 268.835 96.8499 267.133 123.924 267.133C151.008 267.134 172.967 268.836 172.967 270.936Z" fill="black"/>
<path opacity="0.03" d="M170.584 270.936C170.584 272.936 149.699 274.56 123.924 274.56C98.1679 274.56 77.2739 272.936 77.2739 270.936C77.2739 268.938 98.1689 267.317 123.924 267.317C149.699 267.317 170.584 268.939 170.584 270.936Z" fill="black"/>
<path opacity="0.03" d="M168.998 270.936C168.998 272.871 148.826 274.44 123.924 274.44C99.031 274.44 78.859 272.871 78.859 270.936C78.859 269.002 99.032 267.438 123.924 267.438C148.826 267.439 168.998 269.003 168.998 270.936Z" fill="black"/>
<path opacity="0.03" d="M166.627 271.03C166.627 272.913 146.973 274.44 122.743 274.44C98.502 274.44 78.858 272.913 78.858 271.03C78.858 269.148 98.502 267.624 122.743 267.624C146.973 267.624 166.627 269.148 166.627 271.03Z" fill="black"/>
<path opacity="0.03" d="M163.449 271.03C163.449 272.778 145.23 274.186 122.743 274.186C100.252 274.186 82.027 272.778 82.027 271.03C82.027 269.286 100.252 267.865 122.743 267.865C145.23 267.865 163.449 269.286 163.449 271.03Z" fill="black"/>
<path opacity="0.03" d="M161.066 271.03C161.066 272.676 143.914 274.008 122.743 274.008C101.57 274.008 84.3979 272.676 84.3979 271.03C84.3979 269.384 101.57 268.05 122.743 268.05C143.914 268.05 161.066 269.385 161.066 271.03Z" fill="black"/>
<path opacity="0.03" d="M159.482 271.03C159.482 272.606 143.033 273.883 122.743 273.883C102.442 273.883 85.9919 272.606 85.9919 271.03C85.9919 269.453 102.442 268.176 122.743 268.176C143.033 268.176 159.482 269.453 159.482 271.03Z" fill="black"/>
<path opacity="0.03" d="M157.898 271.03C157.898 272.537 142.152 273.76 122.743 273.76C103.322 273.76 87.5759 272.536 87.5759 271.03C87.5759 269.522 103.322 268.306 122.743 268.306C142.152 268.307 157.898 269.522 157.898 271.03Z" fill="black"/>
<path opacity="0.03" d="M156.182 271.03C156.182 272.465 141.207 273.626 122.744 273.626C104.273 273.626 89.296 272.466 89.296 271.03C89.296 269.59 104.274 268.436 122.744 268.436C141.207 268.436 156.182 269.591 156.182 271.03Z" fill="black"/>
<path opacity="0.03" d="M153.002 271.03C153.002 272.328 139.451 273.381 122.743 273.381C106.023 273.381 92.48 272.328 92.48 271.03C92.48 269.734 106.023 268.685 122.743 268.685C139.451 268.685 153.002 269.734 153.002 271.03Z" fill="black"/>
<path opacity="0.03" d="M157.127 270.936C157.127 272.362 142.262 273.518 123.924 273.518C105.598 273.518 90.73 272.362 90.73 270.936C90.73 269.52 105.598 268.362 123.924 268.362C142.262 268.362 157.127 269.521 157.127 270.936Z" fill="black"/>
<path opacity="0.03" d="M156.078 270.936C156.078 272.321 141.693 273.437 123.924 273.437C106.173 273.437 91.778 272.321 91.778 270.936C91.778 269.558 106.174 268.44 123.924 268.44C141.693 268.44 156.078 269.559 156.078 270.936Z" fill="black"/>
<path opacity="0.03" d="M154.52 270.936C154.52 272.25 140.816 273.313 123.923 273.313C107.036 273.313 93.335 272.249 93.335 270.936C93.335 269.627 107.036 268.56 123.923 268.56C140.816 268.56 154.52 269.628 154.52 270.936Z" fill="black"/>
<path opacity="0.03" d="M153.479 270.936C153.479 272.208 140.256 273.234 123.924 273.234C107.608 273.234 94.371 272.208 94.371 270.936C94.371 269.67 107.607 268.643 123.924 268.643C140.256 268.644 153.479 269.671 153.479 270.936Z" fill="black"/>
<path opacity="0.03" d="M151.928 271C151.928 272.235 139.032 273.234 123.145 273.234C107.256 273.234 94.3719 272.235 94.3719 271C94.3719 269.766 107.257 268.762 123.145 268.762C139.031 268.762 151.928 269.766 151.928 271Z" fill="black"/>
<path opacity="0.03" d="M149.839 271C149.839 272.148 137.893 273.074 123.145 273.074C108.405 273.074 96.4559 272.148 96.4559 271C96.4559 269.851 108.405 268.925 123.145 268.925C137.893 268.925 149.839 269.851 149.839 271Z" fill="black"/>
<path opacity="0.03" d="M148.289 271C148.289 272.079 137.029 272.951 123.144 272.951C109.261 272.951 98.0129 272.079 98.0129 271C98.0129 269.922 109.261 269.052 123.144 269.052C137.029 269.052 148.289 269.922 148.289 271Z" fill="black"/>
<path opacity="0.03" d="M147.25 271C147.25 272.034 136.45 272.871 123.145 272.871C109.838 272.871 99.053 272.034 99.053 271C99.053 269.966 109.838 269.13 123.145 269.13C136.45 269.13 147.25 269.966 147.25 271Z" fill="black"/>
<path opacity="0.03" d="M146.211 271C146.211 271.989 135.88 272.789 123.145 272.789C110.416 272.789 100.094 271.989 100.094 271C100.094 270.011 110.416 269.21 123.145 269.21C135.88 269.21 146.211 270.011 146.211 271Z" fill="black"/>
<path opacity="0.03" d="M145.08 271C145.08 271.941 135.262 272.702 123.144 272.702C111.043 272.702 101.228 271.941 101.228 271C101.228 270.06 111.043 269.294 123.144 269.294C135.262 269.294 145.08 270.06 145.08 271Z" fill="black"/>
<path opacity="0.03" d="M143 271C143 271.851 134.102 272.537 123.145 272.537C112.196 272.537 103.305 271.85 103.305 271C103.305 270.146 112.196 269.453 123.145 269.453C134.102 269.453 143 270.146 143 271Z" fill="black"/>
</g>
<path d="M222.238 116.007C222.238 173.683 175.485 220.432 117.814 220.432C60.1461 220.432 13.3921 173.683 13.3921 116.007C13.3921 58.337 60.1451 11.582 117.814 11.582C175.485 11.582 222.238 58.337 222.238 116.007Z" fill="url(#paint0_linear_361_8981)"/>
<path d="M233.021 116.007C233.021 179.634 181.442 231.211 117.815 231.211C54.19 231.211 2.61304 179.634 2.61304 116.007C2.61304 52.3822 54.19 0.803223 117.815 0.803223C181.442 0.803223 233.021 52.3822 233.021 116.007Z" fill="url(#paint1_linear_361_8981)"/>
<path d="M224.155 116.007C224.155 174.736 176.546 222.346 117.814 222.346C59.085 222.346 11.4771 174.737 11.4771 116.007C11.4771 57.278 59.084 9.66699 117.814 9.66699C176.546 9.66699 224.155 57.278 224.155 116.007Z" fill="url(#paint2_linear_361_8981)"/>
<path d="M213.238 116.007C213.238 168.706 170.516 211.431 117.814 211.431C65.1171 211.431 22.3971 168.706 22.3971 116.007C22.3971 63.3104 65.1171 20.5884 117.814 20.5884C170.517 20.5884 213.238 63.3104 213.238 116.007Z" fill="url(#paint3_linear_361_8981)"/>
<path d="M204.278 116.007C204.278 163.762 165.567 143.839 117.815 143.839C70.065 143.839 31.353 163.762 31.353 116.007C31.353 68.2575 70.065 29.5435 117.815 29.5435C165.566 29.5435 204.278 68.2575 204.278 116.007Z" fill="url(#paint4_linear_361_8981)"/>
<path d="M153.566 111.217L153.676 91.9392C153.676 91.9392 154.534 49.5732 116.998 49.5732C80.08 49.5732 81.394 91.9392 81.394 91.9392L81.377 111.217H92.7599L92.7189 91.9392C92.7189 91.9392 92.622 62.3982 117.023 62.3982C141.424 62.3982 141.279 91.9392 141.279 91.9392V111.217H153.566Z" fill="url(#paint5_radial_361_8981)"/>
<path d="M117.206 56.9214C88.4279 56.9214 88.5399 89.7734 88.5399 89.7734L88.5879 111.217H92.7449L92.7039 91.9394C92.7039 91.9394 92.6089 62.3984 117.001 62.3984C141.393 62.3984 141.246 91.9394 141.246 91.9394V111.217H145.816V89.7734C145.816 89.7734 145.988 56.9214 117.206 56.9214Z" fill="url(#paint6_linear_361_8981)"/>
<path d="M70.696 103.2C70.696 103.2 112.111 82.4052 163.549 103.2C163.549 103.2 183.268 169.775 116.131 198.279C116.131 198.279 48.873 170.263 70.696 103.2Z" fill="url(#paint7_linear_361_8981)"/>
<path d="M71.939 104.07C71.939 104.07 112.814 84.2391 161.863 104.07C161.863 104.07 182.454 170.089 115.257 197.005C115.257 197.005 51.131 168.019 71.939 104.07Z" fill="url(#paint8_linear_361_8981)"/>
<path d="M79.106 108.77C79.106 108.77 112.515 91.9945 154.006 108.77C154.006 108.77 169.912 167.644 115.758 190.634C115.758 190.634 61.504 162.866 79.106 108.77Z" fill="url(#paint9_linear_361_8981)"/>
<path d="M80.936 109.826C80.936 109.826 113.429 93.7893 153.094 109.826C153.094 109.826 167.755 167.221 115.985 189.201C115.985 189.201 64.106 161.541 80.936 109.826Z" fill="url(#paint10_radial_361_8981)"/>
<path d="M128.887 122.454C138.58 122.454 147.573 124.695 155.008 128.519C155.075 117.6 153.093 109.826 153.093 109.826C113.428 93.7893 80.935 109.826 80.935 109.826C75.223 127.382 77.431 142.166 82.836 154.034C84.937 136.334 104.744 122.454 128.887 122.454Z" fill="url(#paint11_linear_361_8981)"/>
<path d="M81.813 110.683C81.813 110.683 65.568 155.478 114.617 186.972C114.617 186.972 85.421 151.394 98.373 106.827C98.373 106.827 89.297 106.739 81.813 110.683Z" fill="url(#paint12_linear_361_8981)"/>
<path d="M151.662 110.546C151.662 110.546 164.836 165.031 115.657 186.972C115.657 186.972 149.404 151.394 134.43 106.827C134.43 106.827 143.008 106.599 151.662 110.546Z" fill="url(#paint13_linear_361_8981)"/>
<path d="M75.6639 104.801C77.0269 104.775 78.1519 105.855 78.1799 107.219C78.2089 108.579 77.1299 109.708 75.7679 109.739C74.4079 109.767 73.2829 108.683 73.2519 107.323C73.2229 105.96 74.3029 104.832 75.6639 104.801Z" fill="url(#paint14_linear_361_8981)"/>
<path d="M75.6918 105.244C76.8108 105.223 77.7358 106.105 77.7578 107.226C77.7838 108.344 76.8948 109.267 75.7778 109.29C74.6578 109.31 73.7368 108.43 73.7128 107.311C73.6898 106.194 74.5748 105.27 75.6918 105.244Z" fill="url(#paint15_linear_361_8981)"/>
<path d="M75.7009 105.651C76.5969 105.631 77.3349 106.339 77.3569 107.235C77.3719 108.127 76.6659 108.868 75.7679 108.886C74.8749 108.906 74.1349 108.196 74.1159 107.301C74.0939 106.405 74.8059 105.666 75.7009 105.651Z" fill="url(#paint16_radial_361_8981)"/>
<path d="M76.8829 107.098L76.8919 107.394L74.5109 107.445L74.5049 107.15L76.8829 107.098ZM75.8179 106.075L75.5259 106.079L75.5459 107.125L75.8449 107.12L75.8179 106.075ZM75.8499 107.415L75.5529 107.421L75.5749 108.464L75.8689 108.458L75.8499 107.415Z" fill="#58595B"/>
<path d="M158.6 104.801C159.962 104.775 161.087 105.855 161.116 107.219C161.145 108.579 160.066 109.708 158.704 109.739C157.346 109.767 156.217 108.683 156.187 107.323C156.157 105.96 157.237 104.832 158.6 104.801Z" fill="url(#paint17_linear_361_8981)"/>
<path d="M158.626 105.244C159.746 105.223 160.672 106.105 160.696 107.226C160.719 108.344 159.831 109.267 158.714 109.29C157.597 109.31 156.674 108.43 156.649 107.311C156.627 106.194 157.512 105.27 158.626 105.244Z" fill="url(#paint18_linear_361_8981)"/>
<path d="M158.636 105.651C159.532 105.631 160.272 106.339 160.291 107.235C160.307 108.127 159.601 108.868 158.703 108.886C157.81 108.906 157.071 108.196 157.051 107.301C157.033 106.405 157.741 105.666 158.636 105.651Z" fill="url(#paint19_radial_361_8981)"/>
<path d="M159.819 107.098L159.829 107.394L157.446 107.445L157.438 107.15L159.819 107.098ZM158.755 106.075L158.46 106.079L158.482 107.125L158.776 107.12L158.755 106.075ZM158.784 107.415L158.488 107.421L158.51 108.464L158.807 108.458L158.784 107.415Z" fill="#58595B"/>
<path d="M115.835 191.555C117.198 191.527 118.325 192.611 118.353 193.97C118.383 195.332 117.303 196.463 115.94 196.491C114.581 196.519 113.454 195.434 113.424 194.077C113.395 192.712 114.475 191.584 115.835 191.555Z" fill="url(#paint20_linear_361_8981)"/>
<path d="M115.864 191.999C116.984 191.978 117.909 192.86 117.934 193.98C117.958 195.101 117.069 196.022 115.952 196.044C114.832 196.067 113.913 195.184 113.887 194.065C113.863 192.944 114.748 192.02 115.864 191.999Z" fill="url(#paint21_linear_361_8981)"/>
<path d="M115.874 192.404C116.77 192.384 117.507 193.093 117.53 193.988C117.544 194.881 116.84 195.62 115.941 195.641C115.049 195.659 114.309 194.948 114.29 194.055C114.27 193.157 114.979 192.419 115.874 192.404Z" fill="url(#paint22_radial_361_8981)"/>
<path d="M117.056 193.854L117.065 194.147L114.681 194.198L114.674 193.903L117.056 193.854ZM115.991 192.826L115.698 192.835L115.72 193.878L116.015 193.874L115.991 192.826ZM116.02 194.169L115.724 194.175L115.747 195.217L116.041 195.213L116.02 194.169Z" fill="#58595B"/>
<path d="M115.835 95.749C117.198 95.722 118.325 96.803 118.353 98.165C118.383 99.526 117.303 100.657 115.94 100.688C114.581 100.715 113.454 99.631 113.424 98.272C113.395 96.907 114.475 95.78 115.835 95.749Z" fill="url(#paint23_linear_361_8981)"/>
<path d="M115.864 96.1932C116.984 96.1722 117.909 97.0522 117.934 98.1742C117.958 99.2912 117.069 100.214 115.952 100.237C114.832 100.26 113.913 99.3802 113.887 98.2582C113.863 97.1412 114.748 96.2162 115.864 96.1932Z" fill="url(#paint24_linear_361_8981)"/>
<path d="M115.874 96.599C116.77 96.579 117.507 97.2881 117.53 98.1841C117.544 99.0761 116.84 99.8161 115.941 99.8351C115.049 99.8551 114.309 99.144 114.29 98.25C114.27 97.352 114.979 96.614 115.874 96.599Z" fill="url(#paint25_radial_361_8981)"/>
<path d="M117.056 98.047L117.065 98.341L114.681 98.394L114.674 98.0959L117.056 98.047ZM115.991 97.0229L115.698 97.0269L115.72 98.073L116.015 98.07L115.991 97.0229ZM116.02 98.364L115.724 98.368L115.747 99.4109L116.041 99.408L116.02 98.364Z" fill="#58595B"/>
<path d="M158.563 141.012C159.924 140.984 161.05 142.066 161.08 143.428C161.108 144.789 160.029 145.919 158.665 145.95C157.307 145.977 156.18 144.894 156.148 143.532C156.119 142.17 157.201 141.043 158.563 141.012Z" fill="url(#paint26_linear_361_8981)"/>
<path d="M158.588 141.454C159.708 141.434 160.632 142.315 160.658 143.438C160.681 144.557 159.791 145.478 158.675 145.501C157.558 145.524 156.638 144.644 156.611 143.523C156.589 142.401 157.471 141.479 158.588 141.454Z" fill="url(#paint27_linear_361_8981)"/>
<path d="M158.6 141.86C159.494 141.84 160.234 142.549 160.253 143.446C160.268 144.338 159.564 145.077 158.668 145.096C157.773 145.118 157.033 144.405 157.013 143.512C156.994 142.618 157.703 141.878 158.6 141.86Z" fill="url(#paint28_radial_361_8981)"/>
<path d="M159.781 143.31L159.788 143.605L157.407 143.655L157.398 143.359L159.781 143.31ZM158.717 142.282L158.423 142.288L158.444 143.337L158.739 143.331L158.717 142.282ZM158.746 143.627L158.449 143.632L158.472 144.673L158.768 144.668L158.746 143.627Z" fill="#58595B"/>
<path d="M142.536 173.489C143.898 173.46 145.024 174.543 145.056 175.903C145.083 177.264 144.003 178.395 142.641 178.424C141.283 178.453 140.156 177.371 140.125 176.009C140.096 174.648 141.174 173.52 142.536 173.489Z" fill="url(#paint29_linear_361_8981)"/>
<path d="M142.564 173.932C143.681 173.912 144.61 174.795 144.633 175.914C144.656 177.035 143.768 177.957 142.651 177.979C141.535 178 140.612 177.119 140.588 175.998C140.564 174.879 141.446 173.956 142.564 173.932Z" fill="url(#paint30_linear_361_8981)"/>
<path d="M142.574 174.337C143.471 174.319 144.209 175.026 144.228 175.922C144.245 176.815 143.536 177.554 142.641 177.574C141.748 177.594 141.007 176.884 140.988 175.989C140.971 175.091 141.679 174.355 142.574 174.337Z" fill="url(#paint31_radial_361_8981)"/>
<path d="M143.756 175.787L143.764 176.082L141.382 176.13L141.375 175.838L143.756 175.787ZM142.692 174.763L142.398 174.765L142.419 175.812L142.716 175.81L142.692 174.763ZM142.721 176.101L142.427 176.108L142.448 177.15L142.743 177.148L142.721 176.101Z" fill="#58595B"/>
<path d="M73.2189 141.012C74.5839 140.984 75.7089 142.066 75.7369 143.428C75.7629 144.789 74.6859 145.919 73.3219 145.95C71.9629 145.977 70.8349 144.894 70.8069 143.532C70.7789 142.17 71.8579 141.043 73.2189 141.012Z" fill="url(#paint32_linear_361_8981)"/>
<path d="M73.2479 141.454C74.3669 141.434 75.2919 142.315 75.3169 143.438C75.3389 144.557 74.4509 145.478 73.3319 145.501C72.2149 145.524 71.2939 144.644 71.2699 143.523C71.2479 142.401 72.1309 141.479 73.2479 141.454Z" fill="url(#paint33_linear_361_8981)"/>
<path d="M73.2579 141.86C74.1549 141.84 74.8899 142.549 74.9129 143.446C74.9259 144.338 74.2219 145.077 73.3229 145.096C72.4319 145.118 71.6899 144.405 71.6719 143.512C71.6529 142.618 72.3609 141.878 73.2579 141.86Z" fill="url(#paint34_radial_361_8981)"/>
<path d="M74.4399 143.31L74.4459 143.605L72.0639 143.655L72.0569 143.359L74.4399 143.31ZM73.3739 142.282L73.0809 142.288L73.1019 143.337L73.3979 143.331L73.3739 142.282ZM73.4029 143.627L73.1099 143.632L73.1299 144.673L73.4259 144.668L73.4029 143.627Z" fill="#58595B"/>
<path d="M91.197 173.489C92.56 173.46 93.685 174.543 93.716 175.903C93.744 177.264 92.6629 178.395 91.2999 178.424C89.9419 178.453 88.8149 177.371 88.7839 176.009C88.7569 174.648 89.836 173.52 91.197 173.489Z" fill="url(#paint35_linear_361_8981)"/>
<path d="M91.226 173.932C92.345 173.912 93.273 174.795 93.294 175.914C93.316 177.035 92.428 177.957 91.312 177.979C90.194 178 89.274 177.119 89.247 175.998C89.225 174.879 90.106 173.956 91.226 173.932Z" fill="url(#paint36_linear_361_8981)"/>
<path d="M91.2339 174.337C92.1299 174.319 92.8719 175.026 92.8889 175.922C92.9049 176.815 92.1989 177.554 91.2999 177.574C90.4079 177.594 89.6659 176.884 89.6489 175.989C89.6299 175.091 90.3389 174.355 91.2339 174.337Z" fill="url(#paint37_radial_361_8981)"/>
<path d="M92.419 175.787L92.424 176.082L90.042 176.13L90.038 175.838L92.419 175.787ZM91.354 174.763L91.06 174.765L91.08 175.812L91.374 175.81L91.354 174.763ZM91.382 176.101L91.086 176.108L91.107 177.15L91.403 177.148L91.382 176.101Z" fill="#58595B"/>
<path d="M123.4 167.445L119.453 146.187C121.522 144.909 122.907 142.623 122.907 140.01C122.907 135.999 119.654 132.746 115.64 132.746C111.629 132.746 108.376 135.999 108.376 140.01C108.376 142.853 110.011 145.305 112.39 146.497L108.872 167.444H123.4V167.445Z" fill="url(#paint38_linear_361_8981)"/>
<path d="M82.3619 98.2203L87.0089 96.5993C87.0089 96.5993 83.2509 51.5923 117.065 51.5923C117.065 51.5923 82.3619 45.6833 82.3619 98.2203Z" fill="url(#paint39_linear_361_8981)"/>
<path d="M152.165 98.22L147.638 96.599C147.638 96.599 153.679 57.426 117.531 54.868C117.531 54.868 152.165 50.942 152.165 98.22Z" fill="url(#paint40_linear_361_8981)"/>
<defs>
<linearGradient id="paint0_linear_361_8981" x1="13.3927" y1="116.007" x2="222.238" y2="116.007" gradientUnits="userSpaceOnUse">
<stop stop-color="#8D9615"/>
<stop offset="0.0147" stop-color="#96A018"/>
<stop offset="0.0502" stop-color="#AAB31C"/>
<stop offset="0.0909" stop-color="#BAC31F"/>
<stop offset="0.1385" stop-color="#C6CF21"/>
<stop offset="0.1973" stop-color="#CED722"/>
<stop offset="0.2799" stop-color="#D4DD23"/>
<stop offset="0.5091" stop-color="#D7DF23"/>
<stop offset="0.7301" stop-color="#D4DD23"/>
<stop offset="0.8097" stop-color="#CED722"/>
<stop offset="0.8665" stop-color="#C6CF21"/>
<stop offset="0.9123" stop-color="#BAC31F"/>
<stop offset="0.9516" stop-color="#AAB31C"/>
<stop offset="0.9858" stop-color="#96A018"/>
<stop offset="1" stop-color="#8D9615"/>
</linearGradient>
<linearGradient id="paint1_linear_361_8981" x1="175.428" y1="215.794" x2="60.2041" y2="16.2204" gradientUnits="userSpaceOnUse">
<stop stop-color="#6D6E71"/>
<stop offset="0.049" stop-color="#808285"/>
<stop offset="0.163" stop-color="#AAACAF"/>
<stop offset="0.2182" stop-color="#BCBEC0"/>
<stop offset="0.326" stop-color="#D2D3D5"/>
<stop offset="0.503" stop-color="white"/>
<stop offset="0.6787" stop-color="#CECFD1"/>
<stop offset="0.7636" stop-color="#BCBEC0"/>
<stop offset="1" stop-color="#6D6E71"/>
</linearGradient>
<linearGradient id="paint2_linear_361_8981" x1="180.325" y1="29.9705" x2="55.3072" y2="202.043" gradientUnits="userSpaceOnUse">
<stop stop-color="#6D6E71"/>
<stop offset="0.049" stop-color="#808285"/>
<stop offset="0.163" stop-color="#AAACAF"/>
<stop offset="0.2182" stop-color="#BCBEC0"/>
<stop offset="0.326" stop-color="#D2D3D5"/>
<stop offset="0.503" stop-color="white"/>
<stop offset="0.6787" stop-color="#CECFD1"/>
<stop offset="0.7636" stop-color="#BCBEC0"/>
<stop offset="1" stop-color="#6D6E71"/>
</linearGradient>
<linearGradient id="paint3_linear_361_8981" x1="117.818" y1="211.431" x2="117.818" y2="20.5883" gradientUnits="userSpaceOnUse">
<stop stop-color="#FFC53B"/>
<stop offset="0.022" stop-color="#fea903"/>
<stop offset="0.0569" stop-color="#fea903"/>
<stop offset="0.0971" stop-color="#fea903"/>
<stop offset="0.1439" stop-color="#fea903"/>
<stop offset="0.2019" stop-color="#fea903"/>
<stop offset="0.2833" stop-color="#fea903"/>
<stop offset="0.5091" stop-color="#fea903"/>
<stop offset="0.7269" stop-color="#fea903"/>
<stop offset="0.8053" stop-color="#fea903"/>
<stop offset="0.8612" stop-color="#fea903"/>
<stop offset="0.9064" stop-color="#fea903"/>
<stop offset="0.9451" stop-color="#fea903"/>
<stop offset="0.9788" stop-color="#fea903"/>
<stop offset="1" stop-color="#fea903"/>
</linearGradient>
<linearGradient id="paint4_linear_361_8981" x1="117.815" y1="147.961" x2="117.815" y2="29.5435" gradientUnits="userSpaceOnUse">
<stop stop-color="#fea903"/>
<stop offset="0.4076" stop-color="#fea903"/>
<stop offset="0.5544" stop-color="#fea903"/>
<stop offset="0.6591" stop-color="#fea903"/>
<stop offset="0.7437" stop-color="#fea903"/>
<stop offset="0.8162" stop-color="#fea903"/>
<stop offset="0.8804" stop-color="#fea903"/>
<stop offset="0.9384" stop-color="#fea903"/>
<stop offset="0.99" stop-color="#fea903"/>
<stop offset="1" stop-color="#fea903"/>
</linearGradient>
<radialGradient id="paint5_radial_361_8981" cx="0" cy="0" r="1" gradientUnits="userSpaceOnUse" gradientTransform="translate(117.816 108.495) scale(36.8988 58.3407)">
<stop stop-color="white"/>
<stop offset="0.2165" stop-color="#FBFBFB"/>
<stop offset="0.362" stop-color="#F2F2F3"/>
<stop offset="0.4865" stop-color="#E5E6E7"/>
<stop offset="0.5994" stop-color="#D3D5D6"/>
<stop offset="0.7043" stop-color="#BCBEC0"/>
<stop offset="0.8033" stop-color="#A1A3A5"/>
<stop offset="0.8978" stop-color="#828486"/>
<stop offset="0.9865" stop-color="#5F6062"/>
<stop offset="1" stop-color="#58595B"/>
</radialGradient>
<linearGradient id="paint6_linear_361_8981" x1="88.5399" y1="84.0692" x2="145.816" y2="84.0692" gradientUnits="userSpaceOnUse">
<stop stop-color="#F1F2F2"/>
<stop offset="0.1081" stop-color="#E8E9E9"/>
<stop offset="0.2987" stop-color="#CFD1D2"/>
<stop offset="0.5494" stop-color="#A7AAAC"/>
<stop offset="0.8473" stop-color="#76777A"/>
<stop offset="1" stop-color="#58595B"/>
</linearGradient>
<linearGradient id="paint7_linear_361_8981" x1="135.545" y1="192.713" x2="106.637" y2="91.8985" gradientUnits="userSpaceOnUse">
<stop/>
<stop offset="0.4424" stop-color="white"/>
<stop offset="0.4918" stop-color="#F6F7F7"/>
<stop offset="0.5631" stop-color="#E6E7E8"/>
<stop offset="0.6478" stop-color="#CCCDCF"/>
<stop offset="0.7428" stop-color="#A7AAAC"/>
<stop offset="0.8463" stop-color="#7D7F81"/>
<stop offset="0.9553" stop-color="#454546"/>
<stop offset="1"/>
</linearGradient>
<linearGradient id="paint8_linear_361_8981" x1="67.785" y1="146.131" x2="164.836" y2="146.131" gradientUnits="userSpaceOnUse">
<stop/>
<stop offset="0.297" stop-color="white"/>
<stop offset="0.346" stop-color="#F6F7F7"/>
<stop offset="0.4169" stop-color="#E6E7E8"/>
<stop offset="0.501" stop-color="#CCCDCF"/>
<stop offset="0.5953" stop-color="#A8AAAC"/>
<stop offset="0.6968" stop-color="#7E7F82"/>
<stop offset="0.7333" stop-color="#6D6E71"/>
<stop offset="0.7862" stop-color="#68696B"/>
<stop offset="0.8626" stop-color="#58585B"/>
<stop offset="0.9528" stop-color="#363637"/>
<stop offset="1"/>
</linearGradient>
<linearGradient id="paint9_linear_361_8981" x1="75.5926" y1="145.974" x2="156.185" y2="145.974" gradientUnits="userSpaceOnUse">
<stop/>
<stop offset="0.0867" stop-color="#616265"/>
<stop offset="0.1915" stop-color="#95979A"/>
<stop offset="0.2863" stop-color="#C0C2C4"/>
<stop offset="0.3677" stop-color="#E0E1E3"/>
<stop offset="0.4326" stop-color="#F5F5F5"/>
<stop offset="0.4727" stop-color="white"/>
<stop offset="0.5194" stop-color="#F6F7F7"/>
<stop offset="0.5869" stop-color="#E6E7E8"/>
<stop offset="0.667" stop-color="#CCCDCF"/>
<stop offset="0.7568" stop-color="#A7AAAC"/>
<stop offset="0.8546" stop-color="#7D7F81"/>
<stop offset="0.9578" stop-color="#454546"/>
<stop offset="1"/>
</linearGradient>
<radialGradient id="paint10_radial_361_8981" cx="0" cy="0" r="1" gradientUnits="userSpaceOnUse" gradientTransform="translate(116.294 145.95) scale(61.662 49.4462)">
<stop stop-color="#BCBEC0"/>
<stop offset="0.1151" stop-color="#B7B9BB"/>
<stop offset="0.2733" stop-color="#A8AAAD"/>
<stop offset="0.4566" stop-color="#929496"/>
<stop offset="0.6587" stop-color="#747578"/>
<stop offset="0.8737" stop-color="#49494A"/>
<stop offset="1"/>
</radialGradient>
<linearGradient id="paint11_linear_361_8981" x1="122.385" y1="142.368" x2="104.341" y2="99.8593" gradientUnits="userSpaceOnUse">
<stop stop-color="white"/>
<stop offset="1" stop-color="white"/>
</linearGradient>
<linearGradient id="paint12_linear_361_8981" x1="115.383" y1="186.647" x2="82.9003" y2="110.123" gradientUnits="userSpaceOnUse">
<stop stop-color="white"/>
<stop offset="1" stop-color="white"/>
</linearGradient>
<linearGradient id="paint13_linear_361_8981" x1="114.019" y1="186.371" x2="143.06" y2="107.274" gradientUnits="userSpaceOnUse">
<stop stop-color="white"/>
<stop offset="1" stop-color="white"/>
</linearGradient>
<linearGradient id="paint14_linear_361_8981" x1="75.7667" y1="109.725" x2="75.6626" y2="104.787" gradientUnits="userSpaceOnUse">
<stop/>
<stop offset="0.2131" stop-color="#525355"/>
<stop offset="0.692" stop-color="#A9ABAD"/>
<stop offset="1" stop-color="#E6E7E8"/>
</linearGradient>
<linearGradient id="paint15_linear_361_8981" x1="75.7771" y1="109.214" x2="75.6917" y2="105.161" gradientUnits="userSpaceOnUse">
<stop stop-color="#E6E7E8"/>
<stop offset="0.308" stop-color="#A9ABAD"/>
<stop offset="0.7869" stop-color="#525355"/>
<stop offset="1"/>
</linearGradient>
<radialGradient id="paint16_radial_361_8981" cx="0" cy="0" r="1" gradientUnits="userSpaceOnUse" gradientTransform="translate(75.7436 107.283) rotate(-91.2075) scale(1.62275 1.62275)">
<stop stop-color="#D1D3D4"/>
<stop offset="0.6496" stop-color="#8C8E91"/>
<stop offset="1" stop-color="#6D6F71"/>
</radialGradient>
<linearGradient id="paint17_linear_361_8981" x1="158.703" y1="109.724" x2="158.599" y2="104.787" gradientUnits="userSpaceOnUse">
<stop/>
<stop offset="0.2131" stop-color="#525355"/>
<stop offset="0.692" stop-color="#A9ABAD"/>
<stop offset="1" stop-color="#E6E7E8"/>
</linearGradient>
<linearGradient id="paint18_linear_361_8981" x1="158.713" y1="109.213" x2="158.628" y2="105.16" gradientUnits="userSpaceOnUse">
<stop stop-color="#E6E7E8"/>
<stop offset="0.308" stop-color="#A9ABAD"/>
<stop offset="0.7869" stop-color="#525355"/>
<stop offset="1"/>
</linearGradient>
<radialGradient id="paint19_radial_361_8981" cx="0" cy="0" r="1" gradientUnits="userSpaceOnUse" gradientTransform="translate(158.679 107.283) rotate(-91.2075) scale(1.6224 1.6224)">
<stop stop-color="#D1D3D4"/>
<stop offset="0.6496" stop-color="#8C8E91"/>
<stop offset="1" stop-color="#6D6F71"/>
</radialGradient>
<linearGradient id="paint20_linear_361_8981" x1="115.941" y1="196.477" x2="115.837" y2="191.541" gradientUnits="userSpaceOnUse">
<stop/>
<stop offset="0.2131" stop-color="#525355"/>
<stop offset="0.692" stop-color="#A9ABAD"/>
<stop offset="1" stop-color="#E6E7E8"/>
</linearGradient>
<linearGradient id="paint21_linear_361_8981" x1="115.951" y1="195.966" x2="115.865" y2="191.917" gradientUnits="userSpaceOnUse">
<stop stop-color="#E6E7E8"/>
<stop offset="0.308" stop-color="#A9ABAD"/>
<stop offset="0.7869" stop-color="#525355"/>
<stop offset="1"/>
</linearGradient>
<radialGradient id="paint22_radial_361_8981" cx="0" cy="0" r="1" gradientUnits="userSpaceOnUse" gradientTransform="translate(115.918 194.037) rotate(-91.2075) scale(1.6231 1.6231)">
<stop stop-color="#D1D3D4"/>
<stop offset="0.6496" stop-color="#8C8E91"/>
<stop offset="1" stop-color="#6D6F71"/>
</radialGradient>
<linearGradient id="paint23_linear_361_8981" x1="115.941" y1="100.673" x2="115.837" y2="95.7353" gradientUnits="userSpaceOnUse">
<stop/>
<stop offset="0.2131" stop-color="#525355"/>
<stop offset="0.692" stop-color="#A9ABAD"/>
<stop offset="1" stop-color="#E6E7E8"/>
</linearGradient>
<linearGradient id="paint24_linear_361_8981" x1="115.951" y1="100.161" x2="115.866" y2="96.1101" gradientUnits="userSpaceOnUse">
<stop stop-color="#E6E7E8"/>
<stop offset="0.308" stop-color="#A9ABAD"/>
<stop offset="0.7869" stop-color="#525355"/>
<stop offset="1"/>
</linearGradient>
<radialGradient id="paint25_radial_361_8981" cx="0" cy="0" r="1" gradientUnits="userSpaceOnUse" gradientTransform="translate(115.918 98.2306) rotate(-91.2075) scale(1.62275 1.62275)">
<stop stop-color="#D1D3D4"/>
<stop offset="0.6496" stop-color="#8C8E91"/>
<stop offset="1" stop-color="#6D6F71"/>
</radialGradient>
<linearGradient id="paint26_linear_361_8981" x1="158.665" y1="145.936" x2="158.561" y2="140.998" gradientUnits="userSpaceOnUse">
<stop/>
<stop offset="0.2131" stop-color="#525355"/>
<stop offset="0.692" stop-color="#A9ABAD"/>
<stop offset="1" stop-color="#E6E7E8"/>
</linearGradient>
<linearGradient id="paint27_linear_361_8981" x1="158.675" y1="145.424" x2="158.59" y2="141.371" gradientUnits="userSpaceOnUse">
<stop stop-color="#E6E7E8"/>
<stop offset="0.308" stop-color="#A9ABAD"/>
<stop offset="0.7869" stop-color="#525355"/>
<stop offset="1"/>
</linearGradient>
<radialGradient id="paint28_radial_361_8981" cx="0" cy="0" r="1" gradientUnits="userSpaceOnUse" gradientTransform="translate(158.641 143.493) rotate(-91.2075) scale(1.62239 1.6224)">
<stop stop-color="#D1D3D4"/>
<stop offset="0.6496" stop-color="#8C8E91"/>
<stop offset="1" stop-color="#6D6F71"/>
</radialGradient>
<linearGradient id="paint29_linear_361_8981" x1="142.642" y1="178.412" x2="142.538" y2="173.475" gradientUnits="userSpaceOnUse">
<stop/>
<stop offset="0.2131" stop-color="#525355"/>
<stop offset="0.692" stop-color="#A9ABAD"/>
<stop offset="1" stop-color="#E6E7E8"/>
</linearGradient>
<linearGradient id="paint30_linear_361_8981" x1="142.652" y1="177.901" x2="142.567" y2="173.848" gradientUnits="userSpaceOnUse">
<stop stop-color="#E6E7E8"/>
<stop offset="0.308" stop-color="#A9ABAD"/>
<stop offset="0.7869" stop-color="#525355"/>
<stop offset="1"/>
</linearGradient>
<radialGradient id="paint31_radial_361_8981" cx="0" cy="0" r="1" gradientUnits="userSpaceOnUse" gradientTransform="translate(142.616 175.97) rotate(-91.2075) scale(1.62275 1.62274)">
<stop stop-color="#D1D3D4"/>
<stop offset="0.6496" stop-color="#8C8E91"/>
<stop offset="1" stop-color="#6D6F71"/>
</radialGradient>
<linearGradient id="paint32_linear_361_8981" x1="73.3238" y1="145.937" x2="73.2196" y2="140.997" gradientUnits="userSpaceOnUse">
<stop/>
<stop offset="0.2131" stop-color="#525355"/>
<stop offset="0.692" stop-color="#A9ABAD"/>
<stop offset="1" stop-color="#E6E7E8"/>
</linearGradient>
<linearGradient id="paint33_linear_361_8981" x1="73.3346" y1="145.424" x2="73.2492" y2="141.371" gradientUnits="userSpaceOnUse">
<stop stop-color="#E6E7E8"/>
<stop offset="0.308" stop-color="#A9ABAD"/>
<stop offset="0.7869" stop-color="#525355"/>
<stop offset="1"/>
</linearGradient>
<radialGradient id="paint34_radial_361_8981" cx="0" cy="0" r="1" gradientUnits="userSpaceOnUse" gradientTransform="translate(73.3003 143.493) rotate(-91.2075) scale(1.62274 1.62275)">
<stop stop-color="#D1D3D4"/>
<stop offset="0.6496" stop-color="#8C8E91"/>
<stop offset="1" stop-color="#6D6F71"/>
</radialGradient>
<linearGradient id="paint35_linear_361_8981" x1="91.3021" y1="178.411" x2="91.1981" y2="173.477" gradientUnits="userSpaceOnUse">
<stop/>
<stop offset="0.2131" stop-color="#525355"/>
<stop offset="0.692" stop-color="#A9ABAD"/>
<stop offset="1" stop-color="#E6E7E8"/>
</linearGradient>
<linearGradient id="paint36_linear_361_8981" x1="91.3115" y1="177.902" x2="91.2261" y2="173.849" gradientUnits="userSpaceOnUse">
<stop stop-color="#E6E7E8"/>
<stop offset="0.308" stop-color="#A9ABAD"/>
<stop offset="0.7869" stop-color="#525355"/>
<stop offset="1"/>
</linearGradient>
<radialGradient id="paint37_radial_361_8981" cx="0" cy="0" r="1" gradientUnits="userSpaceOnUse" gradientTransform="translate(91.2774 175.969) rotate(-91.2075) scale(1.62275 1.62275)">
<stop stop-color="#D1D3D4"/>
<stop offset="0.6496" stop-color="#8C8E91"/>
<stop offset="1" stop-color="#6D6F71"/>
</radialGradient>
<linearGradient id="paint38_linear_361_8981" x1="108.376" y1="150.096" x2="123.4" y2="150.096" gradientUnits="userSpaceOnUse">
<stop/>
<stop offset="1" stop-color="#58595B"/>
</linearGradient>
<linearGradient id="paint39_linear_361_8981" x1="82.3622" y1="74.8064" x2="117.065" y2="74.8064" gradientUnits="userSpaceOnUse">
<stop stop-color="white"/>
<stop offset="1" stop-color="white"/>
</linearGradient>
<linearGradient id="paint40_linear_361_8981" x1="152.165" y1="76.5037" x2="117.531" y2="76.5037" gradientUnits="userSpaceOnUse">
<stop stop-color="white"/>
<stop offset="1" stop-color="white"/>
</linearGradient>
</defs>
</svg>
