<svg xmlns="http://www.w3.org/2000/svg" version="1.1" xmlns:xlink="http://www.w3.org/1999/xlink" width="512" height="512" x="0" y="0" viewBox="0 0 3.954 3.954" style="enable-background:new 0 0 512 512" xml:space="preserve" fillRule="evenodd" className=""><g><path fill="#a259ff" d="M3.083 1.332h.351c.026 0 .046.02.046.046v.049a.047.047 0 0 1-.046.046h-.351a.045.045 0 0 1-.046-.046v-.049c0-.026.02-.046.046-.046zm0 1.34h.351c.026 0 .046.021.046.046v.05a.047.047 0 0 1-.046.046h-.351a.046.046 0 0 1-.046-.046v-.05c0-.025.02-.046.046-.046zm0-.67h.351c.026 0 .046.021.046.046v.05a.047.047 0 0 1-.046.046h-.351a.046.046 0 0 1-.046-.046v-.05c0-.025.02-.046.046-.046zm-.593.689.12.084.177-.253a.032.032 0 0 1 .044-.008l.076.053a.028.028 0 0 1 .012.02.029.029 0 0 1-.005.024l-.221.315-.027.038a.03.03 0 0 1-.043.008l-.038-.026-.183-.127a.03.03 0 0 1-.008-.043l.053-.077c.009-.014.029-.017.043-.008zm0-.67.12.083.177-.253a.032.032 0 0 1 .044-.007l.076.053a.028.028 0 0 1 .012.02.028.028 0 0 1-.005.023l-.221.316-.027.038c-.009.014-.029.017-.043.008l-.038-.026-.183-.127a.032.032 0 0 1-.008-.044l.053-.076a.03.03 0 0 1 .043-.008zm0-.67.12.083.177-.253a.033.033 0 0 1 .044-.008l.076.054c.007.004.011.011.012.02a.028.028 0 0 1-.005.023l-.221.316-.027.038c-.009.014-.029.017-.043.007l-.038-.026-.183-.127a.03.03 0 0 1-.008-.043l.053-.076a.03.03 0 0 1 .043-.008z" opacity="1" data-original="#3a3b54" className=""></path><path fill="#a259ff" d="M.894.696a.353.353 0 0 1 .353-.353h.526L1.744.44a.207.207 0 0 0-.135.111.288.288 0 0 0-.025.075h-.337a.075.075 0 0 0-.05.02.075.075 0 0 0-.02.05v.16c0 .02-.017.037-.037.037H.931A.037.037 0 0 1 .894.856zm.283 2.788v.117a.07.07 0 0 0 .07.07h2.354a.067.067 0 0 0 .049-.021.067.067 0 0 0 .021-.049V.696a.07.07 0 0 0-.07-.07h-.337a.288.288 0 0 0-.025-.075.207.207 0 0 0-.135-.111L3.075.343h.526a.353.353 0 0 1 .353.353v2.905a.353.353 0 0 1-.353.353H1.247a.353.353 0 0 1-.353-.353v-.157c0-.012.005-.022.014-.029a.036.036 0 0 1 .033-.007c.05.015.103.027.158.036l.02.004a.028.028 0 0 0 .013 0h.001a.033.033 0 0 1 .03.008.035.035 0 0 1 .014.028z" opacity="1" data-original="#3a3b54" className=""></path><path fill="#b4efab" d="M2.078.232 2.222.21V.137c0-.076.062-.137.137-.137h.13c.075 0 .137.061.137.137V.21l.144.022c.079.012.13.052.156.14l.062.211c.002.005.085-.024.117.037.027.054.005.125-.056.125h-1.25c-.061 0-.083-.071-.056-.125.032-.061.115-.032.117-.037l.062-.211c.026-.088.077-.128.156-.14zM.06 1.547c.192-.028.412-.166.529-.459a.07.07 0 0 1 .066-.044h.941a.07.07 0 0 1 .065.044c.118.293.338.431.529.459a.07.07 0 0 1 .061.071c-.013.744-.256 1.524-1.126 1.678C.256 3.142.013 2.362 0 1.618a.07.07 0 0 1 .06-.071zm1.065.024a.599.599 0 1 1 0 1.198.599.599 0 0 1 0-1.198zm-.357.698a.09.09 0 0 1-.019-.126.09.09 0 0 1 .126-.018l.167.124.243-.332a.09.09 0 0 1 .126-.02.09.09 0 0 1 .02.126l-.297.406c-.037.037-.088.047-.135.013z" opacity="1" data-original="#427db8" className=""></path></g></svg>