<svg width="24" height="24" viewBox="0 0 24 24" fill="none" xmlns="http://www.w3.org/2000/svg">
<g clip-path="url(#clip0_7_40)">
<path d="M22.298 0.00106621C21.611 0.00106621 20.996 0.410051 20.73 1.04408L19.2 4.69907C18.744 4.27007 18.149 3.99908 17.5 3.99908H2.49998C1.122 3.99908 0 5.12108 0 6.49907V21.4991C0 22.8771 1.122 23.9991 2.49998 23.9991H17.5C18.878 23.9991 20 22.8771 20 21.4991V10.5541L23.84 2.4531C23.945 2.23011 24 1.9821 24 1.70108C24 0.764097 23.236 0.00106621 22.298 0.00106621ZM19 21.4991C19 22.3261 18.327 22.9991 17.5 22.9991H2.49998C1.67297 22.9991 0.999984 22.3261 0.999984 21.4991V6.49907C0.999984 5.67205 1.67297 4.99907 2.49998 4.99907H17.5C18.027 4.99907 18.499 5.28505 18.769 5.72905L17 9.95703V7.49905C17 7.22305 16.776 6.99904 16.5 6.99904H3.50002C3.22402 6.99904 3 7.22305 3 7.49905V11.499C3 11.775 3.22402 11.9991 3.50002 11.9991H16.145L15.726 12.999H11.5C11.224 12.999 11 13.2231 11 13.4991V19.4991C11 19.512 11.006 19.5231 11.007 19.536C10.596 19.9011 10.344 20.023 10.326 20.0301C10.1679 20.0891 10.05 20.2221 10.0119 20.3871C9.97392 20.5551 10.0239 20.7311 10.146 20.853C10.8699 21.577 11.8689 21.853 12.846 21.853C14.0949 21.853 15.306 21.401 15.852 20.853C16.638 20.067 17.214 18.5091 16.779 17.3481L18.9999 12.6641V21.4991H19ZM12.686 18.6341C12.824 18.1801 12.955 17.7501 13.353 17.3521C14.06 16.6451 14.939 16.6451 15.646 17.3521C16.279 17.9851 15.796 19.4951 15.146 20.1451C14.604 20.6861 12.677 21.2081 11.384 20.5321C11.556 20.3981 11.754 20.2251 11.978 20.0011C12.396 19.5821 12.544 19.1001 12.686 18.6341ZM12 17.5941V14.0001H15.308L14.541 15.8321C13.873 15.8201 13.202 16.0891 12.645 16.6471C12.334 16.9581 12.141 17.2811 12 17.5941ZM15.528 16.0661L16.874 12.8491L17.63 13.2201L16.104 16.4381C15.919 16.2881 15.728 16.1601 15.528 16.0661ZM16 7.99907V10.9991H3.99998V7.99907H16ZM22.935 2.0271L18.057 12.3171L17.26 11.9261L19.795 5.86813L21.652 1.43014C21.761 1.16914 22.015 1.00114 22.299 1.00114C22.685 1.00114 22.999 1.31516 22.999 1.73516C22.999 1.8351 22.977 1.93808 22.935 2.0271Z" fill="white"/>
<path d="M8.49998 12.999H3.50002C3.22402 12.999 3 13.223 3 13.499V20.499C3 20.775 3.22402 20.999 3.50002 20.999H8.50003C8.77603 20.999 9.00005 20.775 9.00005 20.499V13.499C9 13.223 8.77598 12.999 8.49998 12.999ZM8.00002 19.999H3.99998V13.999H7.99997V19.999H8.00002Z" fill="white"/>
</g>
<defs>
<clipPath id="clip0_7_40">
<rect width="24" height="24" fill="white"/>
</clipPath>
</defs>
</svg>
