<svg width="23" height="24" viewBox="0 0 23 24" fill="none" xmlns="http://www.w3.org/2000/svg">
<path d="M12.6433 10.6598C10.4994 7.95396 10.6879 4.1487 12.9272 1.66888C10.8736 1.60242 8.78704 2.23265 7.05413 3.6057C3.16444 6.68762 2.50729 12.3593 5.58921 16.249C8.67114 20.1387 14.3429 20.7959 18.2326 17.714C19.9654 16.3409 21.0561 14.4538 21.461 12.4394C18.5348 14.0523 14.7873 13.3657 12.6433 10.6598ZM17.1508 16.3486C14.014 18.834 9.43992 18.3041 6.95452 15.1673C4.46911 12.0304 4.9991 7.45639 8.1359 4.971C8.61999 4.58744 9.14872 4.27002 9.70718 4.02368C9.52971 4.6694 9.42579 5.33757 9.40079 6.0153C9.32448 8.08375 9.99114 10.1174 11.278 11.7416C12.565 13.3658 14.3922 14.4798 16.4234 14.8785C17.0889 15.0091 17.7631 15.0607 18.4323 15.0356C18.0648 15.5229 17.6349 15.965 17.1508 16.3486Z" fill="white"/>
</svg>
