<svg width="23" height="22" viewBox="0 0 23 22" fill="none" xmlns="http://www.w3.org/2000/svg">
<g clip-path="url(#clip0_115_13018)">
<path d="M22.8764 10.9748C22.8764 17.0361 17.9628 21.9496 11.9016 21.9496C5.84026 21.9496 0.926758 17.0361 0.926758 10.9748C0.926758 4.91351 5.84026 0 11.9016 0C17.9628 0 22.8764 4.91351 22.8764 10.9748Z" fill="#3370FF"/>
<path d="M12.4033 21.9374C17.7003 21.6996 22.0194 17.7072 22.7635 12.5575L11.9027 1.69678L7.96484 6.46694L13.891 12.3931L7.96484 17.4992L12.4033 21.9374Z" fill="#2C4F9F"/>
<path d="M15.8406 6.46694L11.9027 1.69678L7.96484 6.46694H9.7592V16.1531H14.0462V6.46694H15.8406Z" fill="white"/>
<path d="M11.9277 16.1531H14.0887V6.46694H15.883L11.9452 1.69678L11.9277 16.1531Z" fill="#DCE1EB"/>
<path d="M17.0926 14.1166C17.0926 16.9837 14.7684 19.3081 11.9013 19.3081C9.03417 19.3081 6.70996 16.9837 6.70996 14.1166C6.70996 11.2495 9.03417 8.92529 11.9013 8.92529C14.7684 8.92529 17.0926 11.2495 17.0926 14.1166Z" fill="#FFCE00"/>
<path d="M11.9022 8.92529C11.8963 8.92529 11.8906 8.92546 11.8848 8.92546V19.3078C11.8906 19.3078 11.8963 19.3081 11.9022 19.3081C14.7693 19.3081 17.0935 16.9837 17.0935 14.1166C17.0935 11.2495 14.7693 8.92529 11.9022 8.92529Z" fill="#FFB600"/>
<path d="M15.2288 14.1166C15.2288 15.954 13.7394 17.4436 11.902 17.4436C10.0646 17.4436 8.5752 15.954 8.5752 14.1166C8.5752 12.2794 10.0646 10.7898 11.902 10.7898C13.7394 10.7898 15.2288 12.2794 15.2288 14.1166Z" fill="#FFAA00"/>
<path d="M11.9022 10.7898C11.8963 10.7898 11.8906 10.7903 11.8848 10.7903V17.4431C11.8906 17.4431 11.8963 17.4436 11.9022 17.4436C13.7396 17.4436 15.229 15.954 15.229 14.1166C15.229 12.2794 13.7396 10.7898 11.9022 10.7898Z" fill="#FE8205"/>
<path d="M11.291 12.0588H12.5128V16.1742H11.291V12.0588Z" fill="#FFCE00"/>
<path d="M11.8848 12.0588H12.5131V16.1742H11.8848V12.0588Z" fill="#FFB600"/>
</g>
<defs>
<clipPath id="clip0_115_13018">
<rect width="21.9496" height="21.9496" fill="white" transform="translate(0.926758)"/>
</clipPath>
</defs>
</svg>
