<svg width="478" height="462" viewBox="0 0 478 462" fill="none" xmlns="http://www.w3.org/2000/svg">
<g clip-path="url(#clip0_0_3880)">
<rect width="477.367" height="461.036" fill="#040404"/>
<path d="M32.662 262.457V-37.4043M64.0677 262.457V-37.4043M95.4735 262.457V-37.4043M126.879 262.457V-37.4043M158.285 262.457V-37.4043M189.691 262.457V-37.4043M221.097 262.457V-37.4043M252.502 262.457V-37.4043M221.097 277.45V-22.4112M315.314 262.457V-37.4043M346.72 262.457V-37.4043M378.125 262.457V-37.4043M409.531 262.457V-37.4043M440.937 262.457V-37.4043M474.855 214.979H1.09823e-05M474.855 183.743H9.60952e-06M474.855 152.508H8.23674e-06M474.855 121.272H6.86394e-06M474.855 90.0367H5.49116e-06M474.855 58.8012H4.11836e-06M474.855 27.5656H2.74558e-06M474.855 -3.66992H1.3728e-06M474.855 -34.9055L0 -34.9055" stroke="url(#paint0_linear_0_3880)" stroke-opacity="0.15" stroke-width="1.25623" stroke-dasharray="1.24 1.24"/>
<g clip-path="url(#clip1_0_3880)">
<path d="M28.8318 41.4009C28.8318 33.0754 35.581 26.3262 43.9066 26.3262H433.338C441.663 26.3262 448.413 33.0754 448.413 41.4009V180.462H28.8318V41.4009Z" fill="url(#paint1_linear_0_3880)" fill-opacity="0.1"/>
<mask id="path-4-inside-1_0_3880" fill="white">
<path d="M28.8318 26.3262H448.413V77.4508H28.8318V26.3262Z"/>
</mask>
<path d="M28.8318 26.3262H448.413V77.4508H28.8318V26.3262Z" fill="white" fill-opacity="0.02"/>
<path d="M448.413 77.4508V76.1945H28.8318V77.4508V78.707H448.413V77.4508Z" fill="#E698FF" fill-opacity="0.07" mask="url(#path-4-inside-1_0_3880)"/>
<path d="M50.1449 57.8884V45.5774H54.5945C55.8139 45.5774 56.7577 45.8588 57.426 46.4216C58.1061 46.9843 58.4461 47.7171 58.4461 48.62C58.4461 49.3 58.2702 49.8687 57.9185 50.3259C57.5785 50.7715 57.1505 51.088 56.6346 51.2756C57.1153 51.4281 57.5316 51.6567 57.8833 51.9615C58.235 52.2664 58.5106 52.624 58.7099 53.0344C58.9092 53.4447 59.0089 53.902 59.0089 54.4062C59.0089 55.0627 58.8565 55.6548 58.5516 56.1825C58.2585 56.7101 57.8188 57.1263 57.2326 57.4312C56.6463 57.736 55.9135 57.8884 55.0342 57.8884H50.1449ZM52.0092 56.3056H54.7C55.4856 56.3056 56.0835 56.1356 56.4939 55.7955C56.916 55.4555 57.127 54.9396 57.127 54.2479C57.127 53.5444 56.9043 53.0226 56.4587 52.6826C56.0132 52.3426 55.4152 52.1726 54.6648 52.1726H52.0092V56.3056ZM52.0092 50.6249H54.4538C55.1456 50.6249 55.6673 50.4725 56.019 50.1676C56.3708 49.8628 56.5467 49.4348 56.5467 48.8838C56.5467 48.3327 56.3708 47.9047 56.019 47.5999C55.679 47.2951 55.1397 47.1426 54.401 47.1426H52.0092V50.6249ZM64.679 58.0995C63.8231 58.0995 63.0668 57.906 62.4102 57.5191C61.7536 57.1322 61.2377 56.5928 60.8625 55.9011C60.4991 55.2093 60.3173 54.4179 60.3173 53.5268C60.3173 52.6005 60.4991 51.7974 60.8625 51.1173C61.226 50.4373 61.736 49.9097 62.3926 49.5345C63.0609 49.1476 63.8289 48.9541 64.6966 48.9541C65.5407 48.9541 66.2794 49.1417 66.9126 49.5169C67.5457 49.8804 68.0381 50.3787 68.3899 51.0118C68.7533 51.645 68.9351 52.366 68.9351 53.1751C68.9351 53.3392 68.9292 53.4799 68.9175 53.5971C68.9175 53.7144 68.9058 53.8551 68.8823 54.0192H62.1816C62.2168 54.5117 62.3399 54.9514 62.5509 55.3383C62.762 55.7135 63.0492 56.0125 63.4127 56.2352C63.7762 56.4463 64.1924 56.5518 64.6614 56.5518C65.1656 56.5518 65.5935 56.4404 65.9453 56.2176C66.3087 55.9831 66.5784 55.6548 66.7543 55.2328H68.6889C68.5364 55.7604 68.2785 56.2411 67.915 56.6749C67.5633 57.1087 67.1177 57.4546 66.5784 57.7126C66.0391 57.9705 65.4059 58.0995 64.679 58.0995ZM62.1992 52.7002H67.0357C67.0122 52.0202 66.7719 51.4867 66.3146 51.0998C65.8573 50.7011 65.3004 50.5018 64.6438 50.5018C64.0576 50.5018 63.5241 50.6835 63.0434 51.047C62.5626 51.4105 62.2812 51.9615 62.1992 52.7002ZM77.3319 57.8884V47.1426H73.6913V45.5774H82.8367V47.1426H79.1961V57.8884H77.3319ZM84.2839 57.8884V45.5774H86.1482V50.4139C86.4413 49.9449 86.8517 49.5873 87.3793 49.341C87.9069 49.0831 88.458 48.9541 89.0325 48.9541C90.0408 48.9541 90.8557 49.2765 91.4771 49.9214C92.1102 50.5546 92.4268 51.5043 92.4268 52.7705V57.8884H90.5801V52.9992C90.5801 52.2136 90.4043 51.6098 90.0525 51.1877C89.7008 50.7539 89.179 50.537 88.4873 50.537C87.7838 50.537 87.2151 50.7773 86.7813 51.258C86.3592 51.727 86.1482 52.3778 86.1482 53.2102V57.8884H84.2839ZM98.3077 58.0995C97.4518 58.0995 96.6955 57.906 96.0389 57.5191C95.3823 57.1322 94.8664 56.5928 94.4912 55.9011C94.1278 55.2093 93.946 54.4179 93.946 53.5268C93.946 52.6005 94.1278 51.7974 94.4912 51.1173C94.8547 50.4373 95.3647 49.9097 96.0213 49.5345C96.6896 49.1476 97.4576 48.9541 98.3253 48.9541C99.1694 48.9541 99.9081 49.1417 100.541 49.5169C101.174 49.8804 101.667 50.3787 102.019 51.0118C102.382 51.645 102.564 52.366 102.564 53.1751C102.564 53.3392 102.558 53.4799 102.546 53.5971C102.546 53.7144 102.534 53.8551 102.511 54.0192H95.8103C95.8455 54.5117 95.9686 54.9514 96.1796 55.3383C96.3907 55.7135 96.6779 56.0125 97.0414 56.2352C97.4049 56.4463 97.8211 56.5518 98.2901 56.5518C98.7943 56.5518 99.2222 56.4404 99.574 56.2176C99.9374 55.9831 100.207 55.6548 100.383 55.2328H102.318C102.165 55.7604 101.907 56.2411 101.544 56.6749C101.192 57.1087 100.746 57.4546 100.207 57.7126C99.6678 57.9705 99.0346 58.0995 98.3077 58.0995ZM95.8279 52.7002H100.664C100.641 52.0202 100.401 51.4867 99.9433 51.0998C99.486 50.7011 98.9291 50.5018 98.2725 50.5018C97.6863 50.5018 97.1528 50.6835 96.6721 51.047C96.1913 51.4105 95.9099 51.9615 95.8279 52.7002ZM108.695 57.8884V45.5774H116.327V47.1426H110.559V50.748H115.536V52.3133H110.559V57.8884H108.695ZM118.916 47.6351C118.576 47.6351 118.283 47.5178 118.037 47.2833C117.802 47.0371 117.685 46.7381 117.685 46.3864C117.685 46.0464 117.802 45.7591 118.037 45.5246C118.283 45.2901 118.576 45.1729 118.916 45.1729C119.268 45.1729 119.561 45.2901 119.796 45.5246C120.042 45.7591 120.165 46.0464 120.165 46.3864C120.165 46.7381 120.042 47.0371 119.796 47.2833C119.561 47.5178 119.268 47.6351 118.916 47.6351ZM117.984 57.8884V49.1652H119.848V57.8884H117.984ZM121.966 57.8884V49.1652H123.76L123.813 50.6425C124.106 50.1149 124.504 49.7045 125.009 49.4114C125.524 49.1065 126.128 48.9541 126.82 48.9541V50.9063H126.31C125.478 50.9063 124.856 51.1232 124.446 51.557C124.035 51.9791 123.83 52.6298 123.83 53.5092V57.8884H121.966ZM131.631 58.0995C130.951 58.0995 130.329 57.9822 129.767 57.7477C129.204 57.5015 128.746 57.1556 128.395 56.7101C128.043 56.2645 127.838 55.7428 127.779 55.1448H129.661C129.743 55.5669 129.96 55.9128 130.312 56.1825C130.664 56.4521 131.103 56.587 131.631 56.587C132.1 56.587 132.481 56.4873 132.774 56.288C133.067 56.0769 133.214 55.8014 133.214 55.4614C133.214 55.1683 133.114 54.9396 132.915 54.7755C132.727 54.6113 132.481 54.4824 132.176 54.3886C131.883 54.2948 131.56 54.2127 131.209 54.1423C130.669 54.0134 130.159 53.8551 129.679 53.6675C129.21 53.4799 128.829 53.222 128.535 52.8937C128.242 52.5654 128.096 52.1257 128.096 51.5746C128.096 51.0353 128.236 50.5721 128.518 50.1852C128.811 49.7866 129.21 49.4817 129.714 49.2707C130.218 49.0596 130.787 48.9541 131.42 48.9541C132.369 48.9541 133.161 49.1945 133.794 49.6752C134.427 50.1442 134.779 50.8359 134.849 51.7505H133.055C133.008 51.3401 132.833 51.0235 132.528 50.8008C132.235 50.578 131.854 50.4666 131.385 50.4666C130.951 50.4666 130.599 50.5546 130.329 50.7304C130.06 50.8946 129.925 51.1467 129.925 51.4867C129.925 51.7212 130.019 51.9205 130.206 52.0846C130.394 52.2371 130.634 52.366 130.927 52.4716C131.232 52.5654 131.549 52.6533 131.877 52.7354C132.475 52.8643 133.008 53.0226 133.477 53.2102C133.946 53.3978 134.322 53.6616 134.603 54.0017C134.884 54.3417 135.031 54.8107 135.043 55.4086C135.043 55.948 134.89 56.4228 134.585 56.8332C134.292 57.2318 133.888 57.5425 133.372 57.7653C132.868 57.9881 132.287 58.0995 131.631 58.0995ZM139.943 57.8884C139.075 57.8884 138.407 57.6774 137.938 57.2553C137.469 56.8332 137.235 56.1414 137.235 55.18V50.7304H135.916V49.1652H137.235V47.0547H139.099V49.1652H141.315V50.7304H139.099V55.18C139.099 55.6255 139.199 55.9245 139.398 56.0769C139.597 56.2294 139.908 56.3056 140.33 56.3056H141.315V57.8884H139.943Z" fill="#CCD8FF"/>
<path d="M420.783 45.2454C417.905 42.371 413.241 42.3733 410.366 45.2504C407.491 48.1276 407.493 52.7901 410.371 55.6645C413.247 58.5369 417.907 58.5369 420.783 55.6645C423.661 52.8258 423.692 48.1922 420.853 45.3151C420.83 45.2917 420.807 45.2684 420.783 45.2454ZM419.166 54.0498C417.181 56.0337 413.962 56.0326 411.977 54.0471C409.993 52.0618 409.994 48.844 411.98 46.86C413.966 44.876 417.185 44.8772 419.169 46.8626C420.122 47.8155 420.657 49.1074 420.657 50.4546C420.656 51.8028 420.121 53.0957 419.168 54.0498H419.166ZM425.798 59.0165C425.798 59.9343 425.054 60.6783 424.136 60.6783C423.696 60.6783 423.273 60.5034 422.961 60.1919L419.901 57.1315L420.082 57.0059C420.886 56.4606 421.58 55.7673 422.125 54.9629L422.25 54.7815L425.311 57.8412C425.466 57.9952 425.589 58.1784 425.672 58.3801C425.756 58.5818 425.799 58.7981 425.798 59.0165Z" fill="#CCD8FF"/>
</g>
<path d="M43.907 26.9541H433.338C441.316 26.9541 447.785 33.4227 447.785 41.4014V179.834H29.4597V41.4014C29.4597 33.4227 35.9283 26.9541 43.907 26.9541Z" stroke="url(#paint2_linear_0_3880)" stroke-opacity="0.09" stroke-width="1.25623"/>
<g clip-path="url(#clip2_0_3880)">
<rect x="74.208" y="227.972" width="46.6504" height="154.743" rx="7.96471" fill="url(#paint3_linear_0_3880)"/>
<g style="mix-blend-mode:plus-lighter">
<path d="M325.656 650.173L326.461 650.978L783.862 193.576L783.058 192.771L325.656 650.173ZM318.844 650.173L319.648 650.978L777.05 193.576L776.245 192.771L318.844 650.173ZM312.03 650.173L312.835 650.978L770.236 193.576L769.432 192.771L312.03 650.173ZM305.219 650.173L306.023 650.978L763.425 193.576L762.62 192.771L305.219 650.173ZM298.405 650.173L299.21 650.978L756.611 193.576L755.807 192.771L298.405 650.173ZM291.595 650.173L292.399 650.978L749.801 193.576L748.996 192.771L291.595 650.173ZM284.779 650.173L285.584 650.978L742.985 193.576L742.181 192.771L284.779 650.173ZM277.97 650.173L278.774 650.978L736.176 193.576L735.371 192.771L277.97 650.173ZM271.157 650.173L271.962 650.978L729.363 193.576L728.559 192.771L271.157 650.173ZM264.342 650.173L265.146 650.978L722.548 193.576L721.743 192.771L264.342 650.173ZM257.532 650.173L258.337 650.978L715.738 193.576L714.934 192.771L257.532 650.173ZM250.717 650.173L251.521 650.978L708.923 193.576L708.118 192.771L250.717 650.173ZM243.904 650.173L244.709 650.978L702.11 193.576L701.306 192.771L243.904 650.173ZM237.091 650.173L237.896 650.978L695.297 193.576L694.492 192.771L237.091 650.173ZM230.278 650.173L231.083 650.978L688.484 193.576L687.68 192.771L230.278 650.173ZM223.467 650.173L224.271 650.978L681.673 193.576L680.868 192.771L223.467 650.173ZM216.653 650.173L217.458 650.978L674.859 193.576L674.055 192.771L216.653 650.173ZM209.842 650.173L210.646 650.978L668.048 193.576L667.243 192.771L209.842 650.173ZM203.027 650.173L203.832 650.978L661.233 193.576L660.429 192.771L203.027 650.173ZM196.214 650.173L197.019 650.978L654.42 193.576L653.615 192.771L196.214 650.173ZM189.403 650.173L190.208 650.978L647.609 193.576L646.805 192.771L189.403 650.173ZM182.59 650.173L183.395 650.978L640.796 193.576L639.991 192.771L182.59 650.173ZM175.778 650.173L176.583 650.978L633.984 193.576L633.18 192.771L175.778 650.173ZM168.965 650.173L169.77 650.978L627.171 193.576L626.366 192.771L168.965 650.173ZM162.152 650.173L162.957 650.978L620.358 193.576L619.554 192.771L162.152 650.173ZM155.339 650.173L156.144 650.978L613.545 193.576L612.74 192.771L155.339 650.173ZM148.527 650.173L149.332 650.978L606.733 193.576L605.929 192.771L148.527 650.173ZM141.715 650.173L142.52 650.978L599.921 193.576L599.116 192.771L141.715 650.173ZM134.901 650.173L135.706 650.978L593.107 193.576L592.303 192.771L134.901 650.173ZM128.09 650.173L128.895 650.978L586.296 193.576L585.491 192.771L128.09 650.173ZM121.276 650.173L122.081 650.978L579.482 193.576L578.678 192.771L121.276 650.173ZM114.464 650.173L115.269 650.978L572.67 193.576L571.865 192.771L114.464 650.173ZM107.65 650.173L108.455 650.978L565.856 193.576L565.052 192.771L107.65 650.173ZM100.839 650.173L101.644 650.978L559.045 193.576L558.24 192.771L100.839 650.173ZM94.0244 650.173L94.8291 650.978L552.23 193.576L551.426 192.771L94.0244 650.173ZM87.2129 650.173L88.0176 650.978L545.419 193.576L544.614 192.771L87.2129 650.173ZM80.3994 650.173L81.2041 650.978L538.605 193.576L537.801 192.771L80.3994 650.173ZM73.5869 650.173L74.3916 650.978L531.793 193.576L530.988 192.771L73.5869 650.173ZM66.7754 650.173L67.5801 650.978L524.981 193.576L524.177 192.771L66.7754 650.173ZM59.9609 650.173L60.7656 650.978L518.167 193.576L517.362 192.771L59.9609 650.173ZM53.1494 650.173L53.9541 650.978L511.355 193.576L510.551 192.771L53.1494 650.173ZM46.3379 650.173L47.1426 650.978L504.544 193.576L503.739 192.771L46.3379 650.173ZM39.5244 650.173L40.3291 650.978L497.73 193.576L496.926 192.771L39.5244 650.173ZM32.7119 650.173L33.5166 650.978L490.918 193.576L490.113 192.771L32.7119 650.173ZM25.8965 650.173L26.7012 650.978L484.103 193.576L483.298 192.771L25.8965 650.173ZM19.0869 650.173L19.8916 650.978L477.293 193.576L476.488 192.771L19.0869 650.173ZM12.2705 650.173L13.0752 650.978L470.477 193.576L469.672 192.771L12.2705 650.173ZM5.45898 650.173L6.26367 650.978L463.665 193.576L462.86 192.771L5.45898 650.173ZM-1.35059 650.173L-0.545898 650.978L456.855 193.576L456.051 192.771L-1.35059 650.173ZM-8.16699 650.173L-7.3623 650.978L450.039 193.576L449.234 192.771L-8.16699 650.173ZM-14.9766 650.173L-14.1719 650.978L443.229 193.576L442.425 192.771L-14.9766 650.173ZM-21.792 650.173L-20.9873 650.978L436.414 193.576L435.609 192.771L-21.792 650.173ZM-28.6035 650.173L-27.7988 650.978L429.603 193.576L428.798 192.771L-28.6035 650.173ZM-35.418 650.173L-34.6133 650.978L422.788 193.576L421.983 192.771L-35.418 650.173ZM-42.2275 650.173L-41.4229 650.978L415.979 193.576L415.174 192.771L-42.2275 650.173ZM-49.0391 650.173L-48.2344 650.978L409.167 193.576L408.362 192.771L-49.0391 650.173ZM-55.8535 650.173L-55.0488 650.978L402.353 193.576L401.548 192.771L-55.8535 650.173ZM-62.667 650.173L-61.8623 650.978L395.539 193.576L394.734 192.771L-62.667 650.173ZM-69.4785 650.173L-68.6738 650.978L388.728 193.576L387.923 192.771L-69.4785 650.173ZM-76.293 650.173L-75.4883 650.978L381.913 193.576L381.108 192.771L-76.293 650.173ZM-83.1045 650.173L-82.2998 650.978L375.102 193.576L374.297 192.771L-83.1045 650.173ZM-89.918 650.173L-89.1133 650.978L368.288 193.576L367.483 192.771L-89.918 650.173ZM-96.7305 650.173L-95.9258 650.978L361.476 193.576L360.671 192.771L-96.7305 650.173ZM-103.544 650.173L-102.739 650.978L354.662 193.576L353.857 192.771L-103.544 650.173ZM-110.355 650.173L-109.551 650.978L347.851 193.576L347.046 192.771L-110.355 650.173ZM-117.17 650.173L-116.365 650.978L341.036 193.576L340.231 192.771L-117.17 650.173ZM-123.981 650.173L-123.177 650.978L334.225 193.576L333.42 192.771L-123.981 650.173ZM-130.795 650.173L-129.99 650.978L327.411 193.576L326.606 192.771L-130.795 650.173ZM-137.607 650.173L-136.803 650.978L320.599 193.576L319.794 192.771L-137.607 650.173ZM-144.419 650.173L-143.614 650.978L313.787 193.576L312.982 192.771L-144.419 650.173ZM-151.232 650.173L-150.428 650.978L306.974 193.576L306.169 192.771L-151.232 650.173ZM-158.042 650.173L-157.237 650.978L300.164 193.576L299.359 192.771L-158.042 650.173ZM-164.858 650.173L-164.054 650.978L293.348 193.576L292.543 192.771L-164.858 650.173ZM-171.668 650.173L-170.863 650.978L286.538 193.576L285.733 192.771L-171.668 650.173ZM-178.483 650.173L-177.679 650.978L279.723 193.576L278.918 192.771L-178.483 650.173ZM-185.294 650.173L-184.489 650.978L272.912 193.576L272.107 192.771L-185.294 650.173ZM-192.107 650.173L-191.303 650.978L266.099 193.576L265.294 192.771L-192.107 650.173ZM-198.921 650.173L-198.116 650.978L259.285 193.576L258.48 192.771L-198.921 650.173ZM-205.733 650.173L-204.929 650.978L252.473 193.576L251.668 192.771L-205.733 650.173ZM-212.547 650.173L-211.742 650.978L245.659 193.576L244.854 192.771L-212.547 650.173ZM-219.358 650.173L-218.554 650.978L238.848 193.576L238.043 192.771L-219.358 650.173ZM-226.17 650.173L-225.365 650.978L232.036 193.576L231.231 192.771L-226.17 650.173ZM-232.986 650.173L-232.182 650.978L225.22 193.576L224.415 192.771L-232.986 650.173ZM-239.796 650.173L-238.991 650.978L218.41 193.576L217.605 192.771L-239.796 650.173ZM-246.612 650.173L-245.808 650.978L211.594 193.576L210.789 192.771L-246.612 650.173ZM-253.422 650.173L-252.617 650.978L204.784 193.576L203.979 192.771L-253.422 650.173ZM-260.237 650.173L-259.433 650.978L197.969 193.576L197.164 192.771L-260.237 650.173ZM-267.05 650.173L-266.245 650.978L191.156 193.576L190.352 192.771L-267.05 650.173ZM-273.857 650.173L-273.053 650.978L184.349 193.576L183.544 192.771L-273.857 650.173ZM-280.673 650.173L-279.868 650.978L177.533 193.576L176.729 192.771L-280.673 650.173ZM-287.482 650.173L-286.678 650.978L170.724 193.576L169.919 192.771L-287.482 650.173ZM-294.299 650.173L-293.494 650.978L163.907 193.576L163.103 192.771L-294.299 650.173ZM-301.11 650.173L-300.306 650.978L157.096 193.576L156.291 192.771L-301.11 650.173ZM-307.924 650.173L-307.119 650.978L150.282 193.576L149.478 192.771L-307.924 650.173ZM-314.736 650.173L-313.932 650.978L143.47 193.576L142.665 192.771L-314.736 650.173ZM-321.548 650.173L-320.743 650.978L136.658 193.576L135.854 192.771L-321.548 650.173ZM-328.361 650.173L-327.557 650.978L129.845 193.576L129.04 192.771L-328.361 650.173ZM-335.176 650.173L-334.371 650.978L123.03 193.576L122.226 192.771L-335.176 650.173ZM-341.987 650.173L-341.183 650.978L116.219 193.576L115.414 192.771L-341.987 650.173ZM-348.801 650.173L-347.996 650.978L109.405 193.576L108.601 192.771L-348.801 650.173ZM-355.612 650.173L-354.808 650.978L102.594 193.576L101.789 192.771L-355.612 650.173ZM-362.427 650.173L-361.622 650.978L95.7793 193.576L94.9746 192.771L-362.427 650.173ZM-369.238 650.173L-368.434 650.978L88.9678 193.576L88.1631 192.771L-369.238 650.173ZM-376.053 650.173L-375.248 650.978L82.1533 193.576L81.3486 192.771L-376.053 650.173ZM-382.862 650.173L-382.058 650.978L75.3438 193.576L74.5391 192.771L-382.862 650.173ZM-389.676 650.173L-388.871 650.978L68.5303 193.576L67.7256 192.771L-389.676 650.173ZM-396.487 650.173L-395.683 650.978L61.7188 193.576L60.9141 192.771L-396.487 650.173ZM-403.304 650.173L-402.499 650.978L54.9023 193.576L54.0977 192.771L-403.304 650.173ZM-410.113 650.173L-409.309 650.978L48.0928 193.576L47.2881 192.771L-410.113 650.173ZM-416.925 650.173L-416.12 650.978L41.2812 193.576L40.4766 192.771L-416.925 650.173ZM-423.739 650.173L-422.935 650.978L34.4668 193.576L33.6621 192.771L-423.739 650.173ZM-430.551 650.173L-429.746 650.978L27.6553 193.576L26.8506 192.771L-430.551 650.173ZM-437.366 650.173L-436.562 650.978L20.8398 193.576L20.0352 192.771L-437.366 650.173ZM-444.177 650.173L-443.372 650.978L14.0293 193.576L13.2246 192.771L-444.177 650.173ZM-450.992 650.173L-450.188 650.978L7.21387 193.576L6.40918 192.771L-450.992 650.173ZM-457.802 650.173L-456.997 650.978L0.404297 193.576L-0.400391 192.771L-457.802 650.173ZM-464.615 650.173L-463.811 650.978L-6.40918 193.576L-7.21387 192.771L-464.615 650.173ZM-471.43 650.173L-470.625 650.978L-13.2236 193.576L-14.0283 192.771L-471.43 650.173ZM-478.241 650.173L-477.437 650.978L-20.0352 193.576L-20.8398 192.771L-478.241 650.173ZM-485.055 650.173L-484.25 650.978L-26.8486 193.576L-27.6533 192.771L-485.055 650.173ZM-491.867 650.173L-491.062 650.978L-33.6611 193.576L-34.4658 192.771L-491.867 650.173ZM-498.679 650.173L-497.874 650.978L-40.4727 193.576L-41.2773 192.771L-498.679 650.173ZM-505.493 650.173L-504.688 650.978L-47.2871 193.576L-48.0918 192.771L-505.493 650.173ZM-512.303 650.173L-511.498 650.978L-54.0967 193.576L-54.9014 192.771L-512.303 650.173ZM-519.118 650.173L-518.313 650.978L-60.9121 193.576L-61.7168 192.771L-519.118 650.173ZM-525.928 650.173L-525.123 650.978L-67.7217 193.576L-68.5264 192.771L-525.928 650.173ZM-532.744 650.173L-531.939 650.978L-74.5381 193.576L-75.3428 192.771L-532.744 650.173ZM-539.556 650.173L-538.751 650.978L-81.3496 193.576L-82.1543 192.771L-539.556 650.173ZM-546.369 650.173L-545.564 650.978L-88.1631 193.576L-88.9678 192.771L-546.369 650.173ZM-553.182 650.173L-552.377 650.978L-94.9756 193.576L-95.7803 192.771L-553.182 650.173ZM-559.993 650.173L-559.188 650.978L-101.787 193.576L-102.592 192.771L-559.993 650.173ZM-566.807 650.173L-566.002 650.978L-108.601 193.576L-109.405 192.771L-566.807 650.173ZM-573.619 650.173L-572.814 650.978L-115.413 193.576L-116.218 192.771L-573.619 650.173ZM-580.433 650.173L-579.628 650.978L-122.227 193.576L-123.031 192.771L-580.433 650.173ZM-587.244 650.173L-586.439 650.978L-129.038 193.576L-129.843 192.771L-587.244 650.173Z" fill="url(#paint4_linear_0_3880)" fill-opacity="0.3"/>
</g>
</g>
<rect x="74.8361" y="228.6" width="45.3942" height="153.487" rx="7.33659" stroke="url(#paint5_linear_0_3880)" stroke-opacity="0.2" stroke-width="1.25623"/>
<g clip-path="url(#clip3_0_3880)">
<rect x="143.615" y="158.565" width="46.6504" height="224.15" rx="7.96471" fill="url(#paint6_linear_0_3880)"/>
<g style="mix-blend-mode:plus-lighter">
<path d="M395.068 615.965L395.872 616.77L853.274 159.368L852.469 158.564L395.068 615.965ZM388.254 615.965L389.059 616.77L846.46 159.368L845.656 158.564L388.254 615.965ZM381.443 615.965L382.247 616.77L839.649 159.368L838.844 158.564L381.443 615.965ZM374.628 615.965L375.433 616.77L832.834 159.368L832.03 158.564L374.628 615.965ZM367.815 615.965L368.619 616.77L826.021 159.368L825.216 158.564L367.815 615.965ZM361.003 615.965L361.808 616.77L819.209 159.368L818.405 158.564L361.003 615.965ZM354.189 615.965L354.993 616.77L812.395 159.368L811.59 158.564L354.189 615.965ZM347.377 615.965L348.182 616.77L805.583 159.368L804.779 158.564L347.377 615.965ZM340.566 615.965L341.37 616.77L798.772 159.368L797.967 158.564L340.566 615.965ZM333.749 615.965L334.554 616.77L791.955 159.368L791.151 158.564L333.749 615.965ZM326.94 615.965L327.744 616.77L785.146 159.368L784.341 158.564L326.94 615.965ZM320.124 615.965L320.929 616.77L778.33 159.368L777.526 158.564L320.124 615.965ZM313.315 615.965L314.119 616.77L771.521 159.368L770.716 158.564L313.315 615.965ZM306.498 615.965L307.303 616.77L764.704 159.368L763.9 158.564L306.498 615.965ZM299.687 615.965L300.491 616.77L757.893 159.368L757.088 158.564L299.687 615.965ZM292.877 615.965L293.682 616.77L751.083 159.368L750.279 158.564L292.877 615.965ZM286.061 615.965L286.865 616.77L744.267 159.368L743.462 158.564L286.061 615.965ZM279.253 615.965L280.058 616.77L737.459 159.368L736.655 158.564L279.253 615.965ZM272.437 615.965L273.241 616.77L730.643 159.368L729.838 158.564L272.437 615.965ZM265.625 615.965L266.43 616.77L723.831 159.368L723.027 158.564L265.625 615.965ZM258.814 615.965L259.618 616.77L717.02 159.368L716.215 158.564L258.814 615.965ZM252 615.965L252.805 616.77L710.206 159.368L709.402 158.564L252 615.965ZM245.188 615.965L245.992 616.77L703.394 159.368L702.589 158.564L245.188 615.965ZM238.374 615.965L239.179 616.77L696.58 159.368L695.776 158.564L238.374 615.965ZM231.561 615.965L232.365 616.77L689.767 159.368L688.962 158.564L231.561 615.965ZM224.748 615.965L225.553 616.77L682.954 159.368L682.15 158.564L224.748 615.965ZM217.935 615.965L218.74 616.77L676.141 159.368L675.336 158.564L217.935 615.965ZM211.125 615.965L211.93 616.77L669.331 159.368L668.527 158.564L211.125 615.965ZM204.309 615.965L205.114 616.77L662.515 159.368L661.71 158.564L204.309 615.965ZM197.497 615.965L198.302 616.77L655.703 159.368L654.899 158.564L197.497 615.965ZM190.684 615.965L191.489 616.77L648.89 159.368L648.085 158.564L190.684 615.965ZM183.872 615.965L184.677 616.77L642.078 159.368L641.274 158.564L183.872 615.965ZM177.058 615.965L177.863 616.77L635.264 159.368L634.459 158.564L177.058 615.965ZM170.246 615.965L171.051 616.77L628.452 159.368L627.648 158.564L170.246 615.965ZM163.437 615.965L164.241 616.77L621.643 159.368L620.838 158.564L163.437 615.965ZM156.622 615.965L157.427 616.77L614.828 159.368L614.024 158.564L156.622 615.965ZM149.811 615.965L150.615 616.77L608.017 159.368L607.212 158.564L149.811 615.965ZM142.997 615.965L143.802 616.77L601.203 159.368L600.399 158.564L142.997 615.965ZM136.185 615.965L136.99 616.77L594.391 159.368L593.586 158.564L136.185 615.965ZM129.369 615.965L130.174 616.77L587.575 159.368L586.771 158.564L129.369 615.965ZM122.56 615.965L123.365 616.77L580.766 159.368L579.961 158.564L122.56 615.965ZM115.745 615.965L116.55 616.77L573.951 159.368L573.147 158.564L115.745 615.965ZM108.934 615.965L109.739 616.77L567.14 159.368L566.335 158.564L108.934 615.965ZM102.12 615.965L102.925 616.77L560.326 159.368L559.522 158.564L102.12 615.965ZM95.3059 615.965L96.1106 616.77L553.512 159.368L552.707 158.564L95.3059 615.965ZM88.4944 615.965L89.2991 616.77L546.7 159.368L545.896 158.564L88.4944 615.965ZM81.6809 615.965L82.4856 616.77L539.887 159.368L539.082 158.564L81.6809 615.965ZM74.8684 615.965L75.6731 616.77L533.074 159.368L532.27 158.564L74.8684 615.965ZM68.0569 615.965L68.8616 616.77L526.263 159.368L525.458 158.564L68.0569 615.965ZM61.2415 615.965L62.0461 616.77L519.448 159.368L518.643 158.564L61.2415 615.965ZM54.4338 615.965L55.2385 616.77L512.64 159.368L511.835 158.564L54.4338 615.965ZM47.6174 615.965L48.4221 616.77L505.823 159.368L505.019 158.564L47.6174 615.965ZM40.8079 615.965L41.6125 616.77L499.014 159.368L498.209 158.564L40.8079 615.965ZM33.9924 615.965L34.7971 616.77L492.198 159.368L491.394 158.564L33.9924 615.965ZM27.1799 615.965L27.9846 616.77L485.386 159.368L484.581 158.564L27.1799 615.965ZM20.3704 615.965L21.175 616.77L478.576 159.368L477.772 158.564L20.3704 615.965ZM13.5549 615.965L14.3596 616.77L471.761 159.368L470.956 158.564L13.5549 615.965ZM6.74243 615.965L7.54712 616.77L464.948 159.368L464.144 158.564L6.74243 615.965ZM-0.0710449 615.965L0.733643 616.77L458.135 159.368L457.33 158.564L-0.0710449 615.965ZM-6.88257 615.965L-6.07788 616.77L451.323 159.368L450.519 158.564L-6.88257 615.965ZM-13.697 615.965L-12.8923 616.77L444.509 159.368L443.704 158.564L-13.697 615.965ZM-20.5085 615.965L-19.7039 616.77L437.698 159.368L436.893 158.564L-20.5085 615.965ZM-27.3201 615.965L-26.5154 616.77L430.886 159.368L430.081 158.564L-27.3201 615.965ZM-34.1345 615.965L-33.3298 616.77L424.072 159.368L423.267 158.564L-34.1345 615.965ZM-40.948 615.965L-40.1433 616.77L417.258 159.368L416.453 158.564L-40.948 615.965ZM-47.7595 615.965L-46.9548 616.77L410.447 159.368L409.642 158.564L-47.7595 615.965ZM-54.574 615.965L-53.7693 616.77L403.632 159.368L402.827 158.564L-54.574 615.965ZM-61.3835 615.965L-60.5789 616.77L396.823 159.368L396.018 158.564L-61.3835 615.965ZM-68.197 615.965L-67.3923 616.77L390.009 159.368L389.204 158.564L-68.197 615.965ZM-75.0085 615.965L-74.2039 616.77L383.198 159.368L382.393 158.564L-75.0085 615.965ZM-81.823 615.965L-81.0183 616.77L376.383 159.368L375.578 158.564L-81.823 615.965ZM-88.6345 615.965L-87.8298 616.77L369.572 159.368L368.767 158.564L-88.6345 615.965ZM-95.448 615.965L-94.6433 616.77L362.758 159.368L361.953 158.564L-95.448 615.965ZM-102.26 615.965L-101.456 616.77L355.946 159.368L355.141 158.564L-102.26 615.965ZM-109.076 615.965L-108.271 616.77L349.13 159.368L348.325 158.564L-109.076 615.965ZM-115.885 615.965L-115.081 616.77L342.321 159.368L341.516 158.564L-115.885 615.965ZM-122.698 615.965L-121.893 616.77L335.508 159.368L334.703 158.564L-122.698 615.965ZM-129.511 615.965L-128.707 616.77L328.695 159.368L327.89 158.564L-129.511 615.965ZM-136.323 615.965L-135.518 616.77L321.883 159.368L321.078 158.564L-136.323 615.965ZM-143.139 615.965L-142.335 616.77L315.067 159.368L314.262 158.564L-143.139 615.965ZM-149.949 615.965L-149.144 616.77L308.257 159.368L307.452 158.564L-149.949 615.965ZM-156.762 615.965L-155.958 616.77L301.444 159.368L300.639 158.564L-156.762 615.965ZM-163.577 615.965L-162.772 616.77L294.629 159.368L293.824 158.564L-163.577 615.965ZM-170.388 615.965L-169.584 616.77L287.818 159.368L287.013 158.564L-170.388 615.965ZM-177.2 615.965L-176.395 616.77L281.006 159.368L280.201 158.564L-177.2 615.965ZM-184.011 615.965L-183.207 616.77L274.195 159.368L273.39 158.564L-184.011 615.965ZM-190.826 615.965L-190.021 616.77L267.38 159.368L266.575 158.564L-190.826 615.965ZM-197.637 615.965L-196.833 616.77L260.569 159.368L259.764 158.564L-197.637 615.965ZM-204.45 615.965L-203.645 616.77L253.756 159.368L252.951 158.564L-204.45 615.965ZM-211.265 615.965L-210.461 616.77L246.941 159.368L246.136 158.564L-211.265 615.965ZM-218.075 615.965L-217.27 616.77L240.131 159.368L239.326 158.564L-218.075 615.965ZM-224.89 615.965L-224.086 616.77L233.316 159.368L232.511 158.564L-224.89 615.965ZM-231.703 615.965L-230.898 616.77L226.503 159.368L225.698 158.564L-231.703 615.965ZM-238.516 615.965L-237.712 616.77L219.69 159.368L218.885 158.564L-238.516 615.965ZM-245.328 615.965L-244.523 616.77L212.878 159.368L212.073 158.564L-245.328 615.965ZM-252.137 615.965L-251.333 616.77L206.069 159.368L205.264 158.564L-252.137 615.965ZM-258.954 615.965L-258.149 616.77L199.252 159.368L198.448 158.564L-258.954 615.965ZM-265.765 615.965L-264.961 616.77L192.441 159.368L191.636 158.564L-265.765 615.965ZM-272.58 615.965L-271.775 616.77L185.626 159.368L184.822 158.564L-272.58 615.965ZM-279.391 615.965L-278.587 616.77L178.815 159.368L178.01 158.564L-279.391 615.965ZM-286.205 615.965L-285.4 616.77L172.001 159.368L171.197 158.564L-286.205 615.965ZM-293.015 615.965L-292.211 616.77L165.191 159.368L164.386 158.564L-293.015 615.965ZM-299.829 615.965L-299.024 616.77L158.377 159.368L157.573 158.564L-299.829 615.965ZM-306.64 615.965L-305.836 616.77L151.566 159.368L150.761 158.564L-306.64 615.965ZM-313.454 615.965L-312.649 616.77L144.752 159.368L143.948 158.564L-313.454 615.965ZM-320.266 615.965L-319.462 616.77L137.94 159.368L137.135 158.564L-320.266 615.965ZM-327.08 615.965L-326.275 616.77L131.126 159.368L130.322 158.564L-327.08 615.965ZM-333.894 615.965L-333.09 616.77L124.312 159.368L123.507 158.564L-333.894 615.965ZM-340.706 615.965L-339.901 616.77L117.5 159.368L116.696 158.564L-340.706 615.965ZM-347.517 615.965L-346.713 616.77L110.689 159.368L109.884 158.564L-347.517 615.965ZM-354.331 615.965L-353.526 616.77L103.875 159.368L103.071 158.564L-354.331 615.965ZM-361.143 615.965L-360.339 616.77L97.0627 159.368L96.2581 158.564L-361.143 615.965ZM-367.957 615.965L-367.152 616.77L90.2493 159.368L89.4446 158.564L-367.957 615.965ZM-374.768 615.965L-373.964 616.77L83.4377 159.368L82.6331 158.564L-374.768 615.965ZM-381.585 615.965L-380.78 616.77L76.6213 159.368L75.8167 158.564L-381.585 615.965ZM-388.394 615.965L-387.59 616.77L69.8118 159.368L69.0071 158.564L-388.394 615.965ZM-395.206 615.965L-394.401 616.77L63.0002 159.368L62.1956 158.564L-395.206 615.965ZM-402.02 615.965L-401.216 616.77L56.1858 159.368L55.3811 158.564L-402.02 615.965ZM-408.83 615.965L-408.025 616.77L49.3762 159.368L48.5715 158.564L-408.83 615.965ZM-415.645 615.965L-414.841 616.77L42.5608 159.368L41.7561 158.564L-415.645 615.965ZM-422.455 615.965L-421.65 616.77L35.7512 159.368L34.9465 158.564L-422.455 615.965ZM-429.271 615.965L-428.467 616.77L28.9348 159.368L28.1301 158.564L-429.271 615.965ZM-436.083 615.965L-435.278 616.77L22.1233 159.368L21.3186 158.564L-436.083 615.965ZM-442.894 615.965L-442.09 616.77L15.3118 159.368L14.5071 158.564L-442.894 615.965ZM-449.709 615.965L-448.904 616.77L8.49731 159.368L7.69263 158.564L-449.709 615.965ZM-456.52 615.965L-455.716 616.77L1.68579 159.368L0.881104 158.564L-456.52 615.965ZM-463.335 615.965L-462.53 616.77L-5.12866 159.368L-5.93335 158.564L-463.335 615.965ZM-470.148 615.965L-469.344 616.77L-11.9421 159.368L-12.7468 158.564L-470.148 615.965ZM-476.96 615.965L-476.155 616.77L-18.7537 159.368L-19.5583 158.564L-476.96 615.965ZM-483.773 615.965L-482.969 616.77L-25.5671 159.368L-26.3718 158.564L-483.773 615.965ZM-490.584 615.965L-489.779 616.77L-32.3777 159.368L-33.1824 158.564L-490.584 615.965ZM-497.399 615.965L-496.594 616.77L-39.1931 159.368L-39.9978 158.564L-497.399 615.965ZM-504.211 615.965L-503.406 616.77L-46.0046 159.368L-46.8093 158.564L-504.211 615.965ZM-511.023 615.965L-510.219 616.77L-52.8171 159.368L-53.6218 158.564L-511.023 615.965ZM-517.835 615.965L-517.03 616.77L-59.6287 159.368L-60.4333 158.564L-517.835 615.965Z" fill="url(#paint7_linear_0_3880)" fill-opacity="0.3"/>
</g>
</g>
<rect x="144.243" y="159.193" width="45.3942" height="222.893" rx="7.33659" stroke="url(#paint8_linear_0_3880)" stroke-opacity="0.2" stroke-width="1.25623"/>
<g clip-path="url(#clip4_0_3880)">
<rect x="213.021" y="105.088" width="51.2017" height="277.627" rx="9.10252" fill="url(#paint9_linear_0_3880)"/>
<g style="mix-blend-mode:plus-lighter">
<path d="M466.745 561.353L467.549 562.157L924.951 104.756L924.146 103.951L466.745 561.353ZM459.933 561.353L460.738 562.157L918.139 104.756L917.334 103.951L459.933 561.353ZM453.122 561.353L453.926 562.157L911.328 104.756L910.523 103.951L453.122 561.353ZM446.309 561.353L447.114 562.157L904.515 104.756L903.71 103.951L446.309 561.353ZM439.496 561.353L440.3 562.157L897.702 104.756L896.897 103.951L439.496 561.353ZM432.684 561.353L433.489 562.157L890.89 104.756L890.085 103.951L432.684 561.353ZM425.87 561.353L426.674 562.157L884.076 104.756L883.271 103.951L425.87 561.353ZM419.058 561.353L419.863 562.157L877.264 104.756L876.459 103.951L419.058 561.353ZM412.247 561.353L413.051 562.157L870.453 104.756L869.648 103.951L412.247 561.353ZM405.433 561.353L406.238 562.157L863.639 104.756L862.834 103.951L405.433 561.353ZM398.621 561.353L399.425 562.157L856.827 104.756L856.022 103.951L398.621 561.353ZM391.807 561.353L392.612 562.157L850.013 104.756L849.208 103.951L391.807 561.353ZM384.996 561.353L385.8 562.157L843.202 104.756L842.397 103.951L384.996 561.353ZM378.179 561.353L378.984 562.157L836.385 104.756L835.581 103.951L378.179 561.353ZM371.37 561.353L372.174 562.157L829.576 104.756L828.771 103.951L371.37 561.353ZM364.555 561.353L365.36 562.157L822.761 104.756L821.957 103.951L364.555 561.353ZM357.742 561.353L358.546 562.157L815.948 104.756L815.143 103.951L357.742 561.353ZM350.93 561.353L351.735 562.157L809.136 104.756L808.332 103.951L350.93 561.353ZM344.116 561.353L344.92 562.157L802.322 104.756L801.517 103.951L344.116 561.353ZM337.306 561.353L338.111 562.157L795.512 104.756L794.708 103.951L337.306 561.353ZM330.493 561.353L331.297 562.157L788.699 104.756L787.894 103.951L330.493 561.353ZM323.679 561.353L324.484 562.157L781.885 104.756L781.081 103.951L323.679 561.353ZM316.869 561.353L317.673 562.157L775.075 104.756L774.27 103.951L316.869 561.353ZM310.053 561.353L310.858 562.157L768.259 104.756L767.455 103.951L310.053 561.353ZM303.244 561.353L304.048 562.157L761.45 104.756L760.645 103.951L303.244 561.353ZM296.427 561.353L297.232 562.157L754.633 104.756L753.829 103.951L296.427 561.353ZM289.616 561.353L290.42 562.157L747.822 104.756L747.017 103.951L289.616 561.353ZM282.802 561.353L283.607 562.157L741.008 104.756L740.204 103.951L282.802 561.353ZM275.99 561.353L276.794 562.157L734.196 104.756L733.391 103.951L275.99 561.353ZM269.18 561.353L269.985 562.157L727.386 104.756L726.582 103.951L269.18 561.353ZM262.365 561.353L263.169 562.157L720.571 104.756L719.766 103.951L262.365 561.353ZM255.553 561.353L256.358 562.157L713.759 104.756L712.955 103.951L255.553 561.353ZM248.739 561.353L249.543 562.157L706.945 104.756L706.14 103.951L248.739 561.353ZM241.927 561.353L242.732 562.157L700.133 104.756L699.329 103.951L241.927 561.353ZM235.115 561.353L235.919 562.157L693.321 104.756L692.516 103.951L235.115 561.353ZM228.301 561.353L229.106 562.157L686.507 104.756L685.703 103.951L228.301 561.353ZM221.49 561.353L222.294 562.157L679.696 104.756L678.891 103.951L221.49 561.353ZM214.678 561.353L215.483 562.157L672.884 104.756L672.08 103.951L214.678 561.353ZM207.864 561.353L208.668 562.157L666.07 104.756L665.265 103.951L207.864 561.353ZM201.052 561.353L201.857 562.157L659.258 104.756L658.454 103.951L201.052 561.353ZM194.239 561.353L195.043 562.157L652.445 104.756L651.64 103.951L194.239 561.353ZM187.426 561.353L188.231 562.157L645.632 104.756L644.828 103.951L187.426 561.353ZM180.613 561.353L181.417 562.157L638.819 104.756L638.014 103.951L180.613 561.353ZM173.801 561.353L174.606 562.157L632.007 104.756L631.203 103.951L173.801 561.353ZM166.987 561.353L167.792 562.157L625.193 104.756L624.388 103.951L166.987 561.353ZM160.175 561.353L160.98 562.157L618.381 104.756L617.577 103.951L160.175 561.353ZM153.36 561.353L154.165 562.157L611.566 104.756L610.761 103.951L153.36 561.353ZM146.549 561.353L147.354 562.157L604.755 104.756L603.951 103.951L146.549 561.353ZM139.738 561.353L140.542 562.157L597.944 104.756L597.139 103.951L139.738 561.353ZM132.924 561.353L133.729 562.157L591.13 104.756L590.326 103.951L132.924 561.353ZM126.113 561.353L126.917 562.157L584.319 104.756L583.514 103.951L126.113 561.353ZM119.296 561.353L120.101 562.157L577.502 104.756L576.698 103.951L119.296 561.353ZM112.487 561.353L113.292 562.157L570.693 104.756L569.888 103.951L112.487 561.353ZM105.673 561.353L106.478 562.157L563.879 104.756L563.075 103.951L105.673 561.353ZM98.8638 561.353L99.6685 562.157L557.07 104.756L556.265 103.951L98.8638 561.353ZM92.0493 561.353L92.854 562.157L550.255 104.756L549.451 103.951L92.0493 561.353ZM85.2358 561.353L86.0405 562.157L543.442 104.756L542.637 103.951L85.2358 561.353ZM78.4233 561.353L79.228 562.157L536.629 104.756L535.825 103.951L78.4233 561.353ZM71.6099 561.353L72.4146 562.157L529.816 104.756L529.011 103.951L71.6099 561.353ZM64.7983 561.353L65.603 562.157L523.004 104.756L522.2 103.951L64.7983 561.353ZM57.9839 561.353L58.7886 562.157L516.19 104.756L515.385 103.951L57.9839 561.353ZM51.1704 561.353L51.9751 562.157L509.376 104.756L508.572 103.951L51.1704 561.353ZM44.3608 561.353L45.1655 562.157L502.567 104.756L501.762 103.951L44.3608 561.353ZM37.5444 561.353L38.3491 562.157L495.75 104.756L494.946 103.951L37.5444 561.353ZM30.7349 561.353L31.5396 562.157L488.941 104.756L488.136 103.951L30.7349 561.353ZM23.9194 561.353L24.7241 562.157L482.125 104.756L481.321 103.951L23.9194 561.353ZM17.1069 561.353L17.9116 562.157L475.313 104.756L474.508 103.951L17.1069 561.353ZM10.2935 561.353L11.0981 562.157L468.5 104.756L467.695 103.951L10.2935 561.353ZM3.48193 561.353L4.28662 562.157L461.688 104.756L460.883 103.951L3.48193 561.353ZM-3.32568 561.353L-2.521 562.157L454.88 104.756L454.076 103.951L-3.32568 561.353ZM-10.1421 561.353L-9.3374 562.157L448.064 104.756L447.259 103.951L-10.1421 561.353ZM-16.9536 561.353L-16.1489 562.157L441.252 104.756L440.448 103.951L-16.9536 561.353ZM-23.7671 561.353L-22.9624 562.157L434.439 104.756L433.634 103.951L-23.7671 561.353ZM-30.5796 561.353L-29.7749 562.157L427.626 104.756L426.822 103.951L-30.5796 561.353ZM-37.3931 561.353L-36.5884 562.157L420.813 104.756L420.008 103.951L-37.3931 561.353ZM-44.2046 561.353L-43.3999 562.157L414.001 104.756L413.197 103.951L-44.2046 561.353ZM-51.019 561.353L-50.2144 562.157L407.187 104.756L406.382 103.951L-51.019 561.353ZM-57.8306 561.353L-57.0259 562.157L400.375 104.756L399.571 103.951L-57.8306 561.353ZM-64.644 561.353L-63.8394 562.157L393.562 104.756L392.757 103.951L-64.644 561.353ZM-71.4565 561.353L-70.6519 562.157L386.75 104.756L385.945 103.951L-71.4565 561.353ZM-78.27 561.353L-77.4653 562.157L379.936 104.756L379.131 103.951L-78.27 561.353ZM-85.0835 561.353L-84.2788 562.157L373.123 104.756L372.318 103.951L-85.0835 561.353ZM-91.896 561.353L-91.0913 562.157L366.31 104.756L365.505 103.951L-91.896 561.353ZM-98.7075 561.353L-97.9028 562.157L359.499 104.756L358.694 103.951L-98.7075 561.353ZM-105.521 561.353L-104.716 562.157L352.685 104.756L351.88 103.951L-105.521 561.353ZM-112.333 561.353L-111.529 562.157L345.873 104.756L345.068 103.951L-112.333 561.353ZM-119.147 561.353L-118.342 562.157L339.059 104.756L338.254 103.951L-119.147 561.353ZM-125.957 561.353L-125.152 562.157L332.25 104.756L331.445 103.951L-125.957 561.353ZM-132.773 561.353L-131.968 562.157L325.433 104.756L324.628 103.951L-132.773 561.353ZM-139.583 561.353L-138.778 562.157L318.624 104.756L317.819 103.951L-139.583 561.353ZM-146.394 561.353L-145.589 562.157L311.812 104.756L311.007 103.951L-146.394 561.353ZM-153.209 561.353L-152.405 562.157L304.997 104.756L304.192 103.951L-153.209 561.353ZM-160.02 561.353L-159.215 562.157L298.186 104.756L297.381 103.951L-160.02 561.353ZM-166.835 561.353L-166.031 562.157L291.371 104.756L290.566 103.951L-166.835 561.353ZM-173.645 561.353L-172.84 562.157L284.561 104.756L283.756 103.951L-173.645 561.353ZM-180.459 561.353L-179.655 562.157L277.747 104.756L276.942 103.951L-180.459 561.353ZM-187.273 561.353L-186.468 562.157L270.933 104.756L270.128 103.951L-187.273 561.353ZM-194.084 561.353L-193.28 562.157L264.122 104.756L263.317 103.951L-194.084 561.353ZM-200.899 561.353L-200.094 562.157L257.307 104.756L256.502 103.951L-200.899 561.353ZM-207.71 561.353L-206.906 562.157L250.496 104.756L249.691 103.951L-207.71 561.353ZM-214.524 561.353L-213.719 562.157L243.682 104.756L242.877 103.951L-214.524 561.353ZM-221.338 561.353L-220.534 562.157L236.868 104.756L236.063 103.951L-221.338 561.353ZM-228.148 561.353L-227.343 562.157L230.058 104.756L229.253 103.951L-228.148 561.353ZM-234.961 561.353L-234.157 562.157L223.245 104.756L222.44 103.951L-234.961 561.353ZM-241.774 561.353L-240.969 562.157L216.432 104.756L215.627 103.951L-241.774 561.353ZM-248.587 561.353L-247.783 562.157L209.619 104.756L208.814 103.951L-248.587 561.353ZM-255.399 561.353L-254.594 562.157L202.807 104.756L202.002 103.951L-255.399 561.353ZM-262.213 561.353L-261.409 562.157L195.993 104.756L195.188 103.951L-262.213 561.353ZM-269.025 561.353L-268.22 562.157L189.181 104.756L188.376 103.951L-269.025 561.353ZM-275.836 561.353L-275.032 562.157L182.37 104.756L181.565 103.951L-275.836 561.353ZM-282.651 561.353L-281.846 562.157L175.555 104.756L174.75 103.951L-282.651 561.353ZM-289.462 561.353L-288.658 562.157L168.744 104.756L167.939 103.951L-289.462 561.353ZM-296.276 561.353L-295.471 562.157L161.93 104.756L161.125 103.951L-296.276 561.353ZM-303.087 561.353L-302.283 562.157L155.119 104.756L154.314 103.951L-303.087 561.353ZM-309.902 561.353L-309.097 562.157L148.304 104.756L147.5 103.951L-309.902 561.353ZM-316.713 561.353L-315.909 562.157L141.493 104.756L140.688 103.951L-316.713 561.353ZM-323.527 561.353L-322.722 562.157L134.679 104.756L133.875 103.951L-323.527 561.353ZM-330.339 561.353L-329.535 562.157L127.867 104.756L127.062 103.951L-330.339 561.353ZM-337.153 561.353L-336.348 562.157L121.053 104.756L120.249 103.951L-337.153 561.353ZM-343.962 561.353L-343.158 562.157L114.244 104.756L113.439 103.951L-343.962 561.353ZM-350.776 561.353L-349.971 562.157L107.43 104.756L106.625 103.951L-350.776 561.353ZM-357.59 561.353L-356.786 562.157L100.616 104.756L99.811 103.951L-357.59 561.353ZM-364.402 561.353L-363.597 562.157L93.8042 104.756L92.9995 103.951L-364.402 561.353ZM-371.214 561.353L-370.41 562.157L86.9917 104.756L86.187 103.951L-371.214 561.353ZM-378.028 561.353L-377.223 562.157L80.1782 104.756L79.3735 103.951L-378.028 561.353ZM-384.839 561.353L-384.035 562.157L73.3667 104.756L72.562 103.951L-384.839 561.353ZM-391.656 561.353L-390.851 562.157L66.5503 104.756L65.7456 103.951L-391.656 561.353ZM-398.465 561.353L-397.661 562.157L59.7407 104.756L58.936 103.951L-398.465 561.353ZM-405.281 561.353L-404.476 562.157L52.9253 104.756L52.1206 103.951L-405.281 561.353ZM-412.093 561.353L-411.289 562.157L46.1128 104.756L45.3081 103.951L-412.093 561.353ZM-418.903 561.353L-418.098 562.157L39.3032 104.756L38.4985 103.951L-418.903 561.353ZM-425.718 561.353L-424.914 562.157L32.4878 104.756L31.6831 103.951L-425.718 561.353ZM-432.528 561.353L-431.723 562.157L25.6782 104.756L24.8735 103.951L-432.528 561.353ZM-439.344 561.353L-438.54 562.157L18.8618 104.756L18.0571 103.951L-439.344 561.353ZM-446.156 561.353L-445.351 562.157L12.0503 104.756L11.2456 103.951L-446.156 561.353Z" fill="url(#paint10_linear_0_3880)" fill-opacity="0.7"/>
</g>
</g>
<rect x="213.649" y="105.716" width="49.9455" height="276.371" rx="8.47441" stroke="url(#paint11_linear_0_3880)" stroke-opacity="0.2" stroke-width="1.25623"/>
<g clip-path="url(#clip5_0_3880)">
<rect x="286.979" y="158.565" width="46.6504" height="224.15" rx="7.96471" fill="url(#paint12_linear_0_3880)"/>
<g style="mix-blend-mode:plus-lighter">
<path d="M538.43 615.965L539.235 616.77L996.636 159.368L995.831 158.564L538.43 615.965ZM531.616 615.965L532.421 616.77L989.823 159.368L989.018 158.564L531.616 615.965ZM524.804 615.965L525.609 616.77L983.01 159.368L982.205 158.564L524.804 615.965ZM517.99 615.965L518.795 616.77L976.197 159.368L975.392 158.564L517.99 615.965ZM511.181 615.965L511.986 616.77L969.387 159.368L968.582 158.564L511.181 615.965ZM504.366 615.965L505.171 616.77L962.573 159.368L961.768 158.564L504.366 615.965ZM497.555 615.965L498.36 616.77L955.761 159.368L954.956 158.564L497.555 615.965ZM490.741 615.965L491.546 616.77L948.948 159.368L948.143 158.564L490.741 615.965ZM483.93 615.965L484.735 616.77L942.136 159.368L941.331 158.564L483.93 615.965ZM477.115 615.965L477.92 616.77L935.322 159.368L934.517 158.564L477.115 615.965ZM470.304 615.965L471.109 616.77L928.51 159.368L927.705 158.564L470.304 615.965ZM463.488 615.965L464.292 616.77L921.694 159.368L920.889 158.564L463.488 615.965ZM456.678 615.965L457.483 616.77L914.884 159.368L914.079 158.564L456.678 615.965ZM449.866 615.965L450.671 616.77L908.073 159.368L907.268 158.564L449.866 615.965ZM443.052 615.965L443.857 616.77L901.258 159.368L900.453 158.564L443.052 615.965ZM436.24 615.965L437.045 616.77L894.447 159.368L893.642 158.564L436.24 615.965ZM429.425 615.965L430.23 616.77L887.631 159.368L886.826 158.564L429.425 615.965ZM422.615 615.965L423.42 616.77L880.822 159.368L880.017 158.564L422.615 615.965ZM415.799 615.965L416.604 616.77L874.005 159.368L873.2 158.564L415.799 615.965ZM408.988 615.965L409.792 616.77L867.194 159.368L866.389 158.564L408.988 615.965ZM402.175 615.965L402.98 616.77L860.381 159.368L859.576 158.564L402.175 615.965ZM395.364 615.965L396.168 616.77L853.57 159.368L852.765 158.564L395.364 615.965ZM388.552 615.965L389.357 616.77L846.758 159.368L845.953 158.564L388.552 615.965ZM381.739 615.965L382.543 616.77L839.945 159.368L839.14 158.564L381.739 615.965ZM374.926 615.965L375.731 616.77L833.132 159.368L832.327 158.564L374.926 615.965ZM368.113 615.965L368.917 616.77L826.319 159.368L825.514 158.564L368.113 615.965ZM361.299 615.965L362.104 616.77L819.505 159.368L818.7 158.564L361.299 615.965ZM354.49 615.965L355.294 616.77L812.696 159.368L811.891 158.564L354.49 615.965ZM347.673 615.965L348.478 616.77L805.879 159.368L805.074 158.564L347.673 615.965ZM340.862 615.965L341.666 616.77L799.068 159.368L798.263 158.564L340.862 615.965ZM334.047 615.965L334.852 616.77L792.253 159.368L791.448 158.564L334.047 615.965ZM327.236 615.965L328.04 616.77L785.442 159.368L784.637 158.564L327.236 615.965ZM320.422 615.965L321.227 616.77L778.628 159.368L777.823 158.564L320.422 615.965ZM313.61 615.965L314.414 616.77L771.816 159.368L771.011 158.564L313.61 615.965ZM306.798 615.965L307.603 616.77L765.004 159.368L764.199 158.564L306.798 615.965ZM299.985 615.965L300.789 616.77L758.191 159.368L757.386 158.564L299.985 615.965ZM293.173 615.965L293.978 616.77L751.379 159.368L750.574 158.564L293.173 615.965ZM286.359 615.965L287.163 616.77L744.565 159.368L743.76 158.564L286.359 615.965ZM279.549 615.965L280.354 616.77L737.755 159.368L736.95 158.564L279.549 615.965ZM272.735 615.965L273.539 616.77L730.941 159.368L730.136 158.564L272.735 615.965ZM265.923 615.965L266.728 616.77L724.129 159.368L723.324 158.564L265.923 615.965ZM259.11 615.965L259.914 616.77L717.316 159.368L716.511 158.564L259.11 615.965ZM252.298 615.965L253.103 616.77L710.504 159.368L709.699 158.564L252.298 615.965ZM245.484 615.965L246.288 616.77L703.69 159.368L702.885 158.564L245.484 615.965ZM238.67 615.965L239.475 616.77L696.876 159.368L696.072 158.564L238.67 615.965ZM231.859 615.965L232.663 616.77L690.065 159.368L689.26 158.564L231.859 615.965ZM225.047 615.965L225.852 616.77L683.253 159.368L682.448 158.564L225.047 615.965ZM218.233 615.965L219.037 616.77L676.439 159.368L675.634 158.564L218.233 615.965ZM211.421 615.965L212.226 616.77L669.627 159.368L668.823 158.564L211.421 615.965ZM204.607 615.965L205.411 616.77L662.813 159.368L662.008 158.564L204.607 615.965ZM197.795 615.965L198.6 616.77L656.001 159.368L655.197 158.564L197.795 615.965ZM190.98 615.965L191.784 616.77L649.186 159.368L648.381 158.564L190.98 615.965ZM184.169 615.965L184.974 616.77L642.375 159.368L641.571 158.564L184.169 615.965ZM177.358 615.965L178.162 616.77L635.564 159.368L634.759 158.564L177.358 615.965ZM170.544 615.965L171.349 616.77L628.75 159.368L627.946 158.564L170.544 615.965ZM163.735 615.965L164.539 616.77L621.941 159.368L621.136 158.564L163.735 615.965ZM156.918 615.965L157.723 616.77L615.124 159.368L614.32 158.564L156.918 615.965ZM150.109 615.965L150.913 616.77L608.315 159.368L607.51 158.564L150.109 615.965ZM143.292 615.965L144.097 616.77L601.498 159.368L600.694 158.564L143.292 615.965ZM136.481 615.965L137.285 616.77L594.687 159.368L593.882 158.564L136.481 615.965ZM129.669 615.965L130.474 616.77L587.875 159.368L587.071 158.564L129.669 615.965ZM122.856 615.965L123.66 616.77L581.062 159.368L580.257 158.564L122.856 615.965ZM116.043 615.965L116.848 616.77L574.249 159.368L573.445 158.564L116.043 615.965ZM109.23 615.965L110.034 616.77L567.436 159.368L566.631 158.564L109.23 615.965ZM102.416 615.965L103.221 616.77L560.622 159.368L559.818 158.564L102.416 615.965ZM95.6038 615.965L96.4084 616.77L553.81 159.368L553.005 158.564L95.6038 615.965ZM88.7903 615.965L89.595 616.77L546.996 159.368L546.192 158.564L88.7903 615.965ZM81.9807 615.965L82.7854 616.77L540.187 159.368L539.382 158.564L81.9807 615.965ZM75.1643 615.965L75.969 616.77L533.37 159.368L532.566 158.564L75.1643 615.965ZM68.3528 615.965L69.1575 616.77L526.559 159.368L525.754 158.564L68.3528 615.965ZM61.5393 615.965L62.344 616.77L519.745 159.368L518.941 158.564L61.5393 615.965ZM54.7297 615.965L55.5344 616.77L512.936 159.368L512.131 158.564L54.7297 615.965ZM47.9153 615.965L48.72 616.77L506.121 159.368L505.317 158.564L47.9153 615.965ZM41.1038 615.965L41.9084 616.77L499.31 159.368L498.505 158.564L41.1038 615.965ZM34.2922 615.965L35.0969 616.77L492.498 159.368L491.694 158.564L34.2922 615.965ZM27.4778 615.965L28.2825 616.77L485.684 159.368L484.879 158.564L27.4778 615.965ZM20.6663 615.965L21.4709 616.77L478.872 159.368L478.068 158.564L20.6663 615.965ZM13.8518 615.965L14.6565 616.77L472.058 159.368L471.253 158.564L13.8518 615.965ZM7.04028 615.965L7.84497 616.77L465.246 159.368L464.442 158.564L7.04028 615.965ZM0.226807 615.965L1.03149 616.77L458.433 159.368L457.628 158.564L0.226807 615.965ZM-6.58472 615.965L-5.78003 616.77L451.621 159.368L450.817 158.564L-6.58472 615.965ZM-13.3992 615.965L-12.5945 616.77L444.807 159.368L444.002 158.564L-13.3992 615.965ZM-20.2107 615.965L-19.406 616.77L437.995 159.368L437.191 158.564L-20.2107 615.965ZM-27.0242 615.965L-26.2195 616.77L431.182 159.368L430.377 158.564L-27.0242 615.965ZM-33.8386 615.965L-33.0339 616.77L424.367 159.368L423.563 158.564L-33.8386 615.965ZM-40.6501 615.965L-39.8455 616.77L417.556 159.368L416.751 158.564L-40.6501 615.965ZM-47.4636 615.965L-46.6589 616.77L410.742 159.368L409.938 158.564L-47.4636 615.965ZM-54.2751 615.965L-53.4705 616.77L403.931 159.368L403.126 158.564L-54.2751 615.965ZM-61.0857 615.965L-60.281 616.77L397.12 159.368L396.316 158.564L-61.0857 615.965ZM-67.9011 615.965L-67.0964 616.77L390.305 159.368L389.5 158.564L-67.9011 615.965ZM-74.7107 615.965L-73.906 616.77L383.495 159.368L382.691 158.564L-74.7107 615.965ZM-81.5271 615.965L-80.7224 616.77L376.679 159.368L375.874 158.564L-81.5271 615.965ZM-88.3367 615.965L-87.532 616.77L369.869 159.368L369.065 158.564L-88.3367 615.965ZM-95.1521 615.965L-94.3474 616.77L363.054 159.368L362.249 158.564L-95.1521 615.965ZM-101.965 615.965L-101.16 616.77L356.241 159.368L355.437 158.564L-101.965 615.965ZM-108.774 615.965L-107.969 616.77L349.432 159.368L348.627 158.564L-108.774 615.965ZM-115.591 615.965L-114.786 616.77L342.615 159.368L341.811 158.564L-115.591 615.965ZM-122.399 615.965L-121.594 616.77L335.807 159.368L335.002 158.564L-122.399 615.965ZM-129.216 615.965L-128.411 616.77L328.99 159.368L328.186 158.564L-129.216 615.965ZM-136.027 615.965L-135.222 616.77L322.179 159.368L321.374 158.564L-136.027 615.965ZM-142.842 615.965L-142.037 616.77L315.365 159.368L314.56 158.564L-142.842 615.965ZM-149.653 615.965L-148.848 616.77L308.553 159.368L307.748 158.564L-149.653 615.965ZM-156.465 615.965L-155.66 616.77L301.741 159.368L300.937 158.564L-156.465 615.965ZM-163.279 615.965L-162.474 616.77L294.927 159.368L294.122 158.564L-163.279 615.965ZM-170.091 615.965L-169.286 616.77L288.115 159.368L287.311 158.564L-170.091 615.965ZM-176.902 615.965L-176.097 616.77L281.304 159.368L280.499 158.564L-176.902 615.965ZM-183.716 615.965L-182.911 616.77L274.49 159.368L273.686 158.564L-183.716 615.965ZM-190.526 615.965L-189.721 616.77L267.68 159.368L266.875 158.564L-190.526 615.965ZM-197.342 615.965L-196.537 616.77L260.865 159.368L260.06 158.564L-197.342 615.965ZM-204.153 615.965L-203.348 616.77L254.053 159.368L253.248 158.564L-204.153 615.965ZM-210.968 615.965L-210.163 616.77L247.239 159.368L246.434 158.564L-210.968 615.965ZM-217.779 615.965L-216.974 616.77L240.427 159.368L239.622 158.564L-217.779 615.965ZM-224.593 615.965L-223.788 616.77L233.614 159.368L232.809 158.564L-224.593 615.965ZM-231.405 615.965L-230.6 616.77L226.801 159.368L225.996 158.564L-231.405 615.965ZM-238.22 615.965L-237.416 616.77L219.986 159.368L219.181 158.564L-238.22 615.965ZM-245.03 615.965L-244.225 616.77L213.176 159.368L212.371 158.564L-245.03 615.965ZM-251.842 615.965L-251.037 616.77L206.365 159.368L205.56 158.564L-251.842 615.965ZM-258.656 615.965L-257.851 616.77L199.55 159.368L198.745 158.564L-258.656 615.965ZM-265.468 615.965L-264.663 616.77L192.739 159.368L191.934 158.564L-265.468 615.965ZM-272.284 615.965L-271.479 616.77L185.922 159.368L185.117 158.564L-272.284 615.965ZM-279.094 615.965L-278.289 616.77L179.113 159.368L178.308 158.564L-279.094 615.965ZM-285.907 615.965L-285.102 616.77L172.299 159.368L171.494 158.564L-285.907 615.965ZM-292.717 615.965L-291.912 616.77L165.49 159.368L164.685 158.564L-292.717 615.965ZM-299.531 615.965L-298.726 616.77L158.675 159.368L157.87 158.564L-299.531 615.965ZM-306.344 615.965L-305.54 616.77L151.862 159.368L151.057 158.564L-306.344 615.965ZM-313.156 615.965L-312.351 616.77L145.05 159.368L144.245 158.564L-313.156 615.965ZM-319.97 615.965L-319.166 616.77L138.236 159.368L137.431 158.564L-319.97 615.965ZM-326.782 615.965L-325.977 616.77L131.424 159.368L130.619 158.564L-326.782 615.965ZM-333.594 615.965L-332.789 616.77L124.613 159.368L123.808 158.564L-333.594 615.965ZM-340.41 615.965L-339.605 616.77L117.796 159.368L116.991 158.564L-340.41 615.965ZM-347.219 615.965L-346.415 616.77L110.987 159.368L110.182 158.564L-347.219 615.965ZM-354.035 615.965L-353.23 616.77L104.171 159.368L103.366 158.564L-354.035 615.965ZM-360.845 615.965L-360.041 616.77L97.3606 159.368L96.5559 158.564L-360.845 615.965ZM-367.661 615.965L-366.856 616.77L90.5452 159.368L89.7405 158.564L-367.661 615.965ZM-374.472 615.965L-373.668 616.77L83.7336 159.368L82.929 158.564L-374.472 615.965Z" fill="url(#paint13_linear_0_3880)" fill-opacity="0.3"/>
</g>
</g>
<rect x="287.608" y="159.193" width="45.3942" height="222.893" rx="7.33659" stroke="url(#paint14_linear_0_3880)" stroke-opacity="0.2" stroke-width="1.25623"/>
<g clip-path="url(#clip6_0_3880)">
<rect x="356.386" y="227.972" width="46.6504" height="154.743" rx="7.96471" fill="url(#paint15_linear_0_3880)"/>
<g style="mix-blend-mode:plus-lighter">
<path d="M607.831 650.173L608.636 650.978L1066.04 193.576L1065.23 192.771L607.831 650.173ZM601.021 650.173L601.826 650.978L1059.23 193.576L1058.42 192.771L601.021 650.173ZM594.208 650.173L595.013 650.978L1052.41 193.576L1051.61 192.771L594.208 650.173ZM587.396 650.173L588.201 650.978L1045.6 193.576L1044.8 192.771L587.396 650.173ZM580.582 650.173L581.387 650.978L1038.79 193.576L1037.98 192.771L580.582 650.173ZM573.771 650.173L574.575 650.978L1031.98 193.576L1031.17 192.771L573.771 650.173ZM566.959 650.173L567.764 650.978L1025.17 193.576L1024.36 192.771L566.959 650.173ZM560.145 650.173L560.949 650.978L1018.35 193.576L1017.55 192.771L560.145 650.173ZM553.333 650.173L554.138 650.978L1011.54 193.576L1010.73 192.771L553.333 650.173ZM546.52 650.173L547.324 650.978L1004.73 193.576L1003.92 192.771L546.52 650.173ZM539.707 650.173L540.512 650.978L997.913 193.576L997.108 192.771L539.707 650.173ZM532.894 650.173L533.698 650.978L991.1 193.576L990.295 192.771L532.894 650.173ZM526.082 650.173L526.887 650.978L984.288 193.576L983.483 192.771L526.082 650.173ZM519.268 650.173L520.072 650.978L977.474 193.576L976.669 192.771L519.268 650.173ZM512.456 650.173L513.261 650.978L970.662 193.576L969.857 192.771L512.456 650.173ZM505.643 650.173L506.447 650.978L963.849 193.576L963.044 192.771L505.643 650.173ZM498.831 650.173L499.636 650.978L957.037 193.576L956.232 192.771L498.831 650.173ZM492.019 650.173L492.823 650.978L950.225 193.576L949.42 192.771L492.019 650.173ZM485.205 650.173L486.01 650.978L943.411 193.576L942.606 192.771L485.205 650.173ZM478.393 650.173L479.197 650.978L936.599 193.576L935.794 192.771L478.393 650.173ZM471.581 650.173L472.386 650.978L929.787 193.576L928.982 192.771L471.581 650.173ZM464.768 650.173L465.572 650.978L922.974 193.576L922.169 192.771L464.768 650.173ZM457.956 650.173L458.761 650.978L916.162 193.576L915.357 192.771L457.956 650.173ZM451.14 650.173L451.944 650.978L909.346 193.576L908.541 192.771L451.14 650.173ZM444.33 650.173L445.135 650.978L902.536 193.576L901.731 192.771L444.33 650.173ZM437.515 650.173L438.319 650.978L895.721 193.576L894.916 192.771L437.515 650.173ZM430.702 650.173L431.507 650.978L888.908 193.576L888.104 192.771L430.702 650.173ZM423.893 650.173L424.697 650.978L882.099 193.576L881.294 192.771L423.893 650.173ZM417.077 650.173L417.882 650.978L875.283 193.576L874.479 192.771L417.077 650.173ZM410.267 650.173L411.071 650.978L868.473 193.576L867.668 192.771L410.267 650.173ZM403.451 650.173L404.256 650.978L861.657 193.576L860.853 192.771L403.451 650.173ZM396.64 650.173L397.444 650.978L854.846 193.576L854.041 192.771L396.64 650.173ZM389.825 650.173L390.63 650.978L848.031 193.576L847.227 192.771L389.825 650.173ZM383.014 650.173L383.818 650.978L841.22 193.576L840.415 192.771L383.014 650.173ZM376.204 650.173L377.009 650.978L834.41 193.576L833.605 192.771L376.204 650.173ZM369.391 650.173L370.195 650.978L827.597 193.576L826.792 192.771L369.391 650.173ZM362.576 650.173L363.381 650.978L820.782 193.576L819.978 192.771L362.576 650.173ZM355.765 650.173L356.569 650.978L813.971 193.576L813.166 192.771L355.765 650.173ZM348.95 650.173L349.755 650.978L807.156 193.576L806.352 192.771L348.95 650.173ZM342.139 650.173L342.943 650.978L800.345 193.576L799.54 192.771L342.139 650.173ZM335.325 650.173L336.13 650.978L793.531 193.576L792.727 192.771L335.325 650.173ZM328.514 650.173L329.318 650.978L786.72 193.576L785.915 192.771L328.514 650.173ZM321.699 650.173L322.504 650.978L779.905 193.576L779.101 192.771L321.699 650.173ZM314.888 650.173L315.692 650.978L773.094 193.576L772.289 192.771L314.888 650.173ZM308.074 650.173L308.879 650.978L766.28 193.576L765.476 192.771L308.074 650.173ZM301.262 650.173L302.066 650.978L759.468 193.576L758.663 192.771L301.262 650.173ZM294.45 650.173L295.255 650.978L752.656 193.576L751.852 192.771L294.45 650.173ZM287.637 650.173L288.441 650.978L745.843 193.576L745.038 192.771L287.637 650.173ZM280.824 650.173L281.629 650.978L739.03 193.576L738.226 192.771L280.824 650.173ZM274.011 650.173L274.815 650.978L732.217 193.576L731.412 192.771L274.011 650.173ZM267.199 650.173L268.004 650.978L725.405 193.576L724.601 192.771L267.199 650.173ZM260.386 650.173L261.19 650.978L718.592 193.576L717.787 192.771L260.386 650.173ZM253.575 650.173L254.38 650.978L711.781 193.576L710.977 192.771L253.575 650.173ZM246.762 650.173L247.566 650.978L704.968 193.576L704.163 192.771L246.762 650.173ZM239.95 650.173L240.755 650.978L698.156 193.576L697.352 192.771L239.95 650.173ZM233.136 650.173L233.94 650.978L691.342 193.576L690.537 192.771L233.136 650.173ZM226.322 650.173L227.127 650.978L684.528 193.576L683.724 192.771L226.322 650.173ZM219.511 650.173L220.315 650.978L677.717 193.576L676.912 192.771L219.511 650.173ZM212.696 650.173L213.501 650.978L670.902 193.576L670.098 192.771L212.696 650.173ZM205.885 650.173L206.689 650.978L664.091 193.576L663.286 192.771L205.885 650.173ZM199.073 650.173L199.878 650.978L657.279 193.576L656.475 192.771L199.073 650.173ZM192.257 650.173L193.062 650.978L650.463 193.576L649.658 192.771L192.257 650.173ZM185.447 650.173L186.252 650.978L643.653 193.576L642.849 192.771L185.447 650.173ZM178.632 650.173L179.437 650.978L636.838 193.576L636.033 192.771L178.632 650.173ZM171.821 650.173L172.626 650.978L630.027 193.576L629.223 192.771L171.821 650.173ZM165.006 650.173L165.811 650.978L623.212 193.576L622.407 192.771L165.006 650.173ZM158.194 650.173L158.999 650.978L616.4 193.576L615.596 192.771L158.194 650.173ZM151.384 650.173L152.188 650.978L609.59 193.576L608.785 192.771L151.384 650.173ZM144.57 650.173L145.375 650.978L602.776 193.576L601.972 192.771L144.57 650.173ZM137.761 650.173L138.565 650.978L595.967 193.576L595.162 192.771L137.761 650.173ZM130.945 650.173L131.75 650.978L589.151 193.576L588.347 192.771L130.945 650.173ZM124.133 650.173L124.938 650.978L582.339 193.576L581.534 192.771L124.133 650.173ZM117.319 650.173L118.124 650.978L575.525 193.576L574.721 192.771L117.319 650.173ZM110.508 650.173L111.312 650.978L568.714 193.576L567.909 192.771L110.508 650.173ZM103.695 650.173L104.5 650.978L561.901 193.576L561.097 192.771L103.695 650.173ZM96.8818 650.173L97.6865 650.978L555.088 193.576L554.283 192.771L96.8818 650.173ZM90.0684 650.173L90.873 650.978L548.274 193.576L547.47 192.771L90.0684 650.173ZM83.2559 650.173L84.0605 650.978L541.462 193.576L540.657 192.771L83.2559 650.173ZM76.4424 650.173L77.2471 650.978L534.648 193.576L533.844 192.771L76.4424 650.173ZM69.6309 650.173L70.4355 650.978L527.837 193.576L527.032 192.771L69.6309 650.173ZM62.8164 650.173L63.6211 650.978L521.022 193.576L520.218 192.771L62.8164 650.173ZM56.0049 650.173L56.8096 650.978L514.211 193.576L513.406 192.771L56.0049 650.173ZM49.1914 650.173L49.9961 650.978L507.397 193.576L506.593 192.771L49.1914 650.173ZM42.3789 650.173L43.1836 650.978L500.585 193.576L499.78 192.771L42.3789 650.173ZM35.5674 650.173L36.3721 650.978L493.773 193.576L492.969 192.771L35.5674 650.173ZM28.7559 650.173L29.5605 650.978L486.962 193.576L486.157 192.771L28.7559 650.173ZM21.9395 650.173L22.7441 650.978L480.146 193.576L479.341 192.771L21.9395 650.173ZM15.1299 650.173L15.9346 650.978L473.336 193.576L472.531 192.771L15.1299 650.173ZM8.31836 650.173L9.12305 650.978L466.524 193.576L465.72 192.771L8.31836 650.173ZM1.50391 650.173L2.30859 650.978L459.71 193.576L458.905 192.771L1.50391 650.173ZM-5.30762 650.173L-4.50293 650.978L452.898 193.576L452.094 192.771L-5.30762 650.173ZM-12.123 650.173L-11.3184 650.978L446.083 193.576L445.278 192.771L-12.123 650.173ZM-18.9326 650.173L-18.1279 650.978L439.273 193.576L438.469 192.771L-18.9326 650.173ZM-25.749 650.173L-24.9443 650.978L432.457 193.576L431.652 192.771L-25.749 650.173ZM-32.5586 650.173L-31.7539 650.978L425.647 193.576L424.843 192.771L-32.5586 650.173ZM-39.3721 650.173L-38.5674 650.978L418.834 193.576L418.029 192.771L-39.3721 650.173ZM-46.1865 650.173L-45.3818 650.978L412.02 193.576L411.215 192.771L-46.1865 650.173ZM-52.998 650.173L-52.1934 650.978L405.208 193.576L404.403 192.771L-52.998 650.173ZM-59.8115 650.173L-59.0068 650.978L398.395 193.576L397.59 192.771L-59.8115 650.173ZM-66.624 650.173L-65.8193 650.978L391.582 193.576L390.777 192.771L-66.624 650.173ZM-73.4375 650.173L-72.6328 650.978L384.769 193.576L383.964 192.771L-73.4375 650.173ZM-80.249 650.173L-79.4443 650.978L377.957 193.576L377.152 192.771L-80.249 650.173ZM-87.0596 650.173L-86.2549 650.978L371.146 193.576L370.342 192.771L-87.0596 650.173ZM-93.875 650.173L-93.0703 650.978L364.331 193.576L363.526 192.771L-93.875 650.173ZM-100.685 650.173L-99.8799 650.978L357.521 193.576L356.717 192.771L-100.685 650.173ZM-107.501 650.173L-106.696 650.978L350.705 193.576L349.9 192.771L-107.501 650.173ZM-114.312 650.173L-113.508 650.978L343.894 193.576L343.089 192.771L-114.312 650.173ZM-121.122 650.173L-120.317 650.978L337.084 193.576L336.279 192.771L-121.122 650.173ZM-127.938 650.173L-127.134 650.978L330.268 193.576L329.463 192.771L-127.938 650.173ZM-134.748 650.173L-133.943 650.978L323.458 193.576L322.653 192.771L-134.748 650.173ZM-141.563 650.173L-140.759 650.978L316.643 193.576L315.838 192.771L-141.563 650.173ZM-148.375 650.173L-147.57 650.978L309.831 193.576L309.026 192.771L-148.375 650.173ZM-155.189 650.173L-154.385 650.978L303.017 193.576L302.212 192.771L-155.189 650.173ZM-162.001 650.173L-161.196 650.978L296.205 193.576L295.4 192.771L-162.001 650.173ZM-168.814 650.173L-168.01 650.978L289.392 193.576L288.587 192.771L-168.814 650.173ZM-175.627 650.173L-174.822 650.978L282.579 193.576L281.774 192.771L-175.627 650.173ZM-182.44 650.173L-181.636 650.978L275.766 193.576L274.961 192.771L-182.44 650.173ZM-189.25 650.173L-188.445 650.978L268.956 193.576L268.151 192.771L-189.25 650.173ZM-196.064 650.173L-195.26 650.978L262.142 193.576L261.337 192.771L-196.064 650.173ZM-202.876 650.173L-202.071 650.978L255.33 193.576L254.525 192.771L-202.876 650.173ZM-209.689 650.173L-208.885 650.978L248.517 193.576L247.712 192.771L-209.689 650.173ZM-216.502 650.173L-215.697 650.978L241.704 193.576L240.899 192.771L-216.502 650.173ZM-223.315 650.173L-222.511 650.978L234.891 193.576L234.086 192.771L-223.315 650.173ZM-230.127 650.173L-229.322 650.978L228.079 193.576L227.274 192.771L-230.127 650.173ZM-236.941 650.173L-236.137 650.978L221.265 193.576L220.46 192.771L-236.941 650.173ZM-243.753 650.173L-242.948 650.978L214.453 193.576L213.648 192.771L-243.753 650.173ZM-250.568 650.173L-249.764 650.978L207.638 193.576L206.833 192.771L-250.568 650.173ZM-257.379 650.173L-256.574 650.978L200.827 193.576L200.022 192.771L-257.379 650.173ZM-264.19 650.173L-263.386 650.978L194.016 193.576L193.211 192.771L-264.19 650.173ZM-271.004 650.173L-270.199 650.978L187.202 193.576L186.397 192.771L-271.004 650.173ZM-277.815 650.173L-277.011 650.978L180.391 193.576L179.586 192.771L-277.815 650.173ZM-284.632 650.173L-283.827 650.978L173.574 193.576L172.77 192.771L-284.632 650.173ZM-291.441 650.173L-290.637 650.978L166.765 193.576L165.96 192.771L-291.441 650.173ZM-298.257 650.173L-297.452 650.978L159.949 193.576L159.145 192.771L-298.257 650.173ZM-305.067 650.173L-304.263 650.978L153.139 193.576L152.334 192.771L-305.067 650.173Z" fill="url(#paint16_linear_0_3880)" fill-opacity="0.3"/>
</g>
</g>
<rect x="357.014" y="228.6" width="45.3942" height="153.487" rx="7.33659" stroke="url(#paint17_linear_0_3880)" stroke-opacity="0.2" stroke-width="1.25623"/>
<path opacity="0.5" d="M238.304 117.676C245.242 117.676 250.866 112.052 250.866 105.114C250.866 98.1761 245.242 92.5518 238.304 92.5518C231.366 92.5518 225.742 98.1761 225.742 105.114C225.742 112.052 231.366 117.676 238.304 117.676Z" fill="#B111E5"/>
<path d="M238.288 110.123C241.064 110.123 243.313 107.874 243.313 105.098C243.313 102.323 241.064 100.073 238.288 100.073C235.513 100.073 233.263 102.323 233.263 105.098C233.263 107.874 235.513 110.123 238.288 110.123Z" fill="white"/>
<rect y="270.782" width="477.367" height="189.691" fill="url(#paint18_linear_0_3880)"/>
<g style="mix-blend-mode:hue">
<rect x="29.0764" y="26.0684" width="419.1" height="404.061" fill="#F3BB2B"/>
</g>
</g>
<defs>
<linearGradient id="paint0_linear_0_3880" x1="-91.0767" y1="-176.09" x2="235.081" y2="279.131" gradientUnits="userSpaceOnUse">
<stop stop-color="#FFE6A7" stop-opacity="0"/>
<stop offset="0.457113" stop-color="#FFE6A7"/>
<stop offset="0.757594" stop-color="#FFE6A7" stop-opacity="0"/>
</linearGradient>
<linearGradient id="paint1_linear_0_3880" x1="238.622" y1="26.3262" x2="238.622" y2="180.462" gradientUnits="userSpaceOnUse">
<stop stop-color="#B111E5"/>
<stop offset="1" stop-color="#B111E5" stop-opacity="0"/>
</linearGradient>
<linearGradient id="paint2_linear_0_3880" x1="238.622" y1="26.3262" x2="238.622" y2="180.462" gradientUnits="userSpaceOnUse">
<stop stop-color="#E698FF"/>
<stop offset="1" stop-color="#E698FF" stop-opacity="0"/>
</linearGradient>
<linearGradient id="paint3_linear_0_3880" x1="97.5332" y1="227.972" x2="97.5332" y2="382.715" gradientUnits="userSpaceOnUse">
<stop stop-color="#00094C"/>
<stop offset="1" stop-color="#00094C" stop-opacity="0"/>
</linearGradient>
<linearGradient id="paint4_linear_0_3880" x1="414.585" y1="-173.036" x2="-82.0395" y2="621.109" gradientUnits="userSpaceOnUse">
<stop stop-color="white"/>
<stop offset="0.685982" stop-color="white" stop-opacity="0"/>
</linearGradient>
<linearGradient id="paint5_linear_0_3880" x1="97.5332" y1="227.972" x2="97.5332" y2="382.715" gradientUnits="userSpaceOnUse">
<stop stop-color="#B111E5"/>
<stop offset="1" stop-color="#B111E5" stop-opacity="0"/>
</linearGradient>
<linearGradient id="paint6_linear_0_3880" x1="166.94" y1="158.565" x2="166.94" y2="382.715" gradientUnits="userSpaceOnUse">
<stop stop-color="#00094C"/>
<stop offset="1" stop-color="#00094C" stop-opacity="0"/>
</linearGradient>
<linearGradient id="paint7_linear_0_3880" x1="483.996" y1="-207.244" x2="-12.6284" y2="586.902" gradientUnits="userSpaceOnUse">
<stop stop-color="white"/>
<stop offset="0.685982" stop-color="white" stop-opacity="0"/>
</linearGradient>
<linearGradient id="paint8_linear_0_3880" x1="166.94" y1="158.565" x2="166.94" y2="382.715" gradientUnits="userSpaceOnUse">
<stop stop-color="#B111E5"/>
<stop offset="1" stop-color="#B111E5" stop-opacity="0"/>
</linearGradient>
<linearGradient id="paint9_linear_0_3880" x1="238.622" y1="105.088" x2="238.622" y2="382.715" gradientUnits="userSpaceOnUse">
<stop stop-color="#B111E5"/>
<stop offset="1" stop-color="#330143"/>
</linearGradient>
<linearGradient id="paint10_linear_0_3880" x1="555.673" y1="-261.856" x2="59.0489" y2="532.289" gradientUnits="userSpaceOnUse">
<stop stop-color="white"/>
<stop offset="0.685982" stop-color="white" stop-opacity="0"/>
</linearGradient>
<linearGradient id="paint11_linear_0_3880" x1="238.622" y1="105.088" x2="238.622" y2="382.715" gradientUnits="userSpaceOnUse">
<stop stop-color="white"/>
<stop offset="1" stop-color="white" stop-opacity="0"/>
</linearGradient>
<linearGradient id="paint12_linear_0_3880" x1="310.305" y1="158.565" x2="310.305" y2="382.715" gradientUnits="userSpaceOnUse">
<stop stop-color="#00094C"/>
<stop offset="1" stop-color="#00094C" stop-opacity="0"/>
</linearGradient>
<linearGradient id="paint13_linear_0_3880" x1="627.358" y1="-207.244" x2="130.734" y2="586.902" gradientUnits="userSpaceOnUse">
<stop stop-color="white"/>
<stop offset="0.685982" stop-color="white" stop-opacity="0"/>
</linearGradient>
<linearGradient id="paint14_linear_0_3880" x1="310.305" y1="158.565" x2="310.305" y2="382.715" gradientUnits="userSpaceOnUse">
<stop stop-color="#B111E5"/>
<stop offset="1" stop-color="#B111E5" stop-opacity="0"/>
</linearGradient>
<linearGradient id="paint15_linear_0_3880" x1="379.711" y1="227.972" x2="379.711" y2="382.715" gradientUnits="userSpaceOnUse">
<stop stop-color="#00094C"/>
<stop offset="1" stop-color="#00094C" stop-opacity="0"/>
</linearGradient>
<linearGradient id="paint16_linear_0_3880" x1="696.76" y1="-173.036" x2="200.136" y2="621.108" gradientUnits="userSpaceOnUse">
<stop stop-color="white"/>
<stop offset="0.685982" stop-color="white" stop-opacity="0"/>
</linearGradient>
<linearGradient id="paint17_linear_0_3880" x1="379.711" y1="227.972" x2="379.711" y2="382.715" gradientUnits="userSpaceOnUse">
<stop stop-color="#B111E5"/>
<stop offset="1" stop-color="#B111E5" stop-opacity="0"/>
</linearGradient>
<linearGradient id="paint18_linear_0_3880" x1="238.684" y1="270.782" x2="238.684" y2="460.472" gradientUnits="userSpaceOnUse">
<stop stop-opacity="0"/>
<stop offset="1"/>
</linearGradient>
<clipPath id="clip0_0_3880">
<rect width="477.367" height="461.036" fill="white"/>
</clipPath>
<clipPath id="clip1_0_3880">
<path d="M28.8318 41.4009C28.8318 33.0754 35.581 26.3262 43.9066 26.3262H433.338C441.663 26.3262 448.413 33.0754 448.413 41.4009V180.462H28.8318V41.4009Z" fill="white"/>
</clipPath>
<clipPath id="clip2_0_3880">
<rect x="74.208" y="227.972" width="46.6504" height="154.743" rx="7.96471" fill="white"/>
</clipPath>
<clipPath id="clip3_0_3880">
<rect x="143.615" y="158.565" width="46.6504" height="224.15" rx="7.96471" fill="white"/>
</clipPath>
<clipPath id="clip4_0_3880">
<rect x="213.021" y="105.088" width="51.2017" height="277.627" rx="9.10252" fill="white"/>
</clipPath>
<clipPath id="clip5_0_3880">
<rect x="286.979" y="158.565" width="46.6504" height="224.15" rx="7.96471" fill="white"/>
</clipPath>
<clipPath id="clip6_0_3880">
<rect x="356.386" y="227.972" width="46.6504" height="154.743" rx="7.96471" fill="white"/>
</clipPath>
</defs>
</svg>
