<svg width="478" height="462" viewBox="0 0 478 462" fill="none" xmlns="http://www.w3.org/2000/svg">
<g clip-path="url(#clip0_0_5674)">
<rect width="477.367" height="461.036" transform="translate(0.316162 0.757812)" fill="url(#paint0_linear_0_5674)"/>
<path d="M32.9779 303.32V3.45874M64.3837 303.32V3.45874M95.7894 303.32V3.45874M127.195 303.32V3.45874M158.601 303.32V3.45874M190.007 303.32V3.45874M221.412 303.32V3.45874M252.818 303.32V3.45874M221.412 318.313V18.4518M315.63 303.32V3.45874M347.035 303.32V3.45874M378.441 303.32V3.45874M409.847 303.32V3.45874M441.253 303.32V3.45874M475.171 255.842H0.315929M475.171 224.606H0.315928M475.171 193.371H0.315926M475.171 162.135H0.315925M475.171 130.9H0.315923M475.171 99.6642H0.315922M475.171 68.4287H0.315921M475.171 37.1931H0.315919M475.171 5.95755L0.315918 5.95756" stroke="url(#paint1_linear_0_5674)" stroke-opacity="0.15" stroke-width="1.25623" stroke-dasharray="1.24 1.24"/>
<g opacity="0.8">
<path d="M168.792 109.972L141.602 109.972C140.677 109.972 139.926 110.723 139.926 111.648L139.926 146.029C139.926 146.954 140.677 147.705 141.602 147.705L168.792 147.705C169.717 147.705 170.468 146.954 170.468 146.029L170.468 111.648C170.468 110.723 169.717 109.972 168.792 109.972Z" fill="#F5F5F5"/>
<path d="M147.5 127.798L146.237 127.798C145.611 127.798 145.107 127.594 144.723 127.185C144.34 126.768 144.148 126.218 144.148 125.534L144.148 122.983C144.148 122.233 143.806 121.857 143.123 121.857L143.123 120.169C143.806 120.169 144.148 119.815 144.148 119.106L144.148 116.492C144.148 115.808 144.34 115.262 144.723 114.854C145.107 114.437 145.611 114.228 146.237 114.228L147.5 114.228L147.5 115.829L146.775 115.829C146.308 115.829 146.074 116.138 146.074 116.755L146.074 119.306C146.074 119.831 145.92 120.236 145.611 120.519C145.295 120.803 144.974 120.961 144.648 120.994L144.648 121.032C144.99 121.065 145.311 121.219 145.611 121.495C145.92 121.77 146.074 122.199 146.074 122.783L146.074 125.284C146.074 125.893 146.308 126.197 146.775 126.197L147.5 126.197L147.5 127.798Z" fill="#F3BB2B"/>
<path d="M151.626 122.99C151.927 123.282 152.077 123.636 152.077 124.053C152.077 124.47 151.927 124.825 151.626 125.116C151.326 125.408 150.968 125.554 150.551 125.554C150.126 125.554 149.759 125.412 149.45 125.129C149.142 124.837 148.988 124.483 148.988 124.066C148.988 123.649 149.142 123.295 149.45 123.003C149.759 122.703 150.126 122.552 150.551 122.552C150.968 122.552 151.326 122.698 151.626 122.99Z" fill="#F3BB2B"/>
<path d="M156.208 122.99C156.509 123.282 156.659 123.636 156.659 124.053C156.659 124.47 156.509 124.825 156.208 125.116C155.908 125.408 155.55 125.554 155.133 125.554C154.699 125.554 154.332 125.412 154.032 125.129C153.724 124.837 153.57 124.483 153.57 124.066C153.57 123.649 153.724 123.295 154.032 123.003C154.332 122.703 154.699 122.552 155.133 122.552C155.55 122.552 155.908 122.698 156.208 122.99Z" fill="#F3BB2B"/>
<path d="M160.776 122.99C161.076 123.282 161.226 123.636 161.226 124.053C161.226 124.47 161.076 124.825 160.776 125.116C160.476 125.408 160.117 125.554 159.7 125.554C159.275 125.554 158.908 125.412 158.6 125.129C158.3 124.837 158.15 124.483 158.15 124.066C158.15 123.649 158.3 123.295 158.6 123.003C158.908 122.703 159.275 122.552 159.7 122.552C160.117 122.552 160.476 122.698 160.776 122.99Z" fill="#F3BB2B"/>
<path d="M167.107 121.857C166.423 121.857 166.081 122.232 166.081 122.983L166.081 125.534C166.081 126.218 165.89 126.768 165.506 127.185C165.123 127.593 164.614 127.798 163.98 127.798L162.73 127.798L162.73 126.197L163.455 126.197C163.922 126.197 164.155 125.893 164.155 125.284L164.155 122.783C164.155 122.199 164.31 121.77 164.618 121.494C164.918 121.219 165.235 121.065 165.569 121.032L165.569 120.994C165.244 120.961 164.927 120.802 164.618 120.519C164.31 120.235 164.155 119.831 164.155 119.306L164.155 116.754C164.155 116.137 163.922 115.829 163.455 115.829L162.73 115.829L162.73 114.228L163.98 114.228C164.614 114.228 165.123 114.436 165.506 114.853C165.89 115.262 166.081 115.808 166.081 116.492L166.081 119.106C166.081 119.814 166.423 120.169 167.107 120.169L167.107 121.857Z" fill="#F3BB2B"/>
<path d="M152.252 133.652L144.348 133.652C143.885 133.652 143.51 133.276 143.51 132.801C143.51 132.338 143.885 131.963 144.348 131.963L152.252 131.963C152.727 131.963 153.103 132.338 153.103 132.801C153.103 133.276 152.727 133.652 152.252 133.652Z" fill="#F3BB2B"/>
<path d="M162.684 137.957L143.999 137.957C143.524 137.957 143.149 137.57 143.149 137.107C143.149 136.644 143.524 136.257 143.999 136.257L162.684 136.257C163.147 136.257 163.522 136.644 163.522 137.107C163.522 137.57 163.147 137.957 162.684 137.957Z" fill="#F3BB2B"/>
<path d="M151.777 142.85L143.873 142.85C143.41 142.85 143.022 142.475 143.022 142.012C143.022 141.537 143.41 141.162 143.873 141.162L151.777 141.162C152.239 141.162 152.627 141.537 152.627 142.012C152.627 142.475 152.239 142.85 151.777 142.85Z" fill="#F3BB2B"/>
<path d="M304.748 224.257L261.625 224.257C255.972 224.257 251.382 228.847 251.382 234.513L251.382 259.363C251.382 265.016 255.972 269.606 261.625 269.606L269.417 269.606L282.736 280.3L295.33 269.606L304.748 269.606C310.401 269.606 314.991 265.016 314.991 259.363L314.991 234.513C314.991 228.847 310.401 224.257 304.748 224.257Z" fill="#9A7210"/>
<path d="M289.408 261.387C289.324 261.646 289.283 261.917 289.283 262.2C289.283 262.438 289.308 262.676 289.383 262.901L278.339 262.901C278.402 262.676 278.439 262.438 278.439 262.2C278.439 261.917 278.398 261.646 278.314 261.387L289.408 261.387Z" fill="#F1D89A"/>
<path d="M299.316 262.15C299.316 262.563 298.979 262.901 298.554 262.901L294.614 262.901C294.677 262.676 294.714 262.438 294.714 262.2C294.714 261.925 294.664 261.65 294.589 261.387L298.554 261.387C298.979 261.387 299.316 261.725 299.316 262.15Z" fill="#F1D89A"/>
<path d="M301.55 236.927L301.55 253.673C301.55 256.212 299.487 258.276 296.948 258.276L269.546 258.276C268.671 258.276 267.958 258.988 267.958 259.864C267.958 260.727 268.671 261.44 269.546 261.44L273.123 261.44C273.048 261.702 272.998 261.977 272.998 262.253C272.998 262.49 273.035 262.728 273.098 262.953L269.546 262.953C267.833 262.953 266.444 261.565 266.444 259.864C266.444 258.15 267.833 256.762 269.546 256.762L296.948 256.762C298.649 256.762 300.037 255.374 300.037 253.673L300.037 237.677L267.87 237.677C267.457 237.677 267.12 237.339 267.12 236.927C267.12 236.501 267.457 236.164 267.87 236.164L300.8 236.164C301.213 236.164 301.55 236.501 301.55 236.927Z" fill="#F1D89A"/>
<path d="M270.743 257.97C270.38 257.97 270.055 257.708 270.005 257.332L266.353 234.408L263.401 234.145C262.976 234.108 262.676 233.745 262.714 233.332C262.751 232.907 263.114 232.607 263.526 232.644L267.066 232.957C267.416 232.982 267.691 233.245 267.754 233.582L271.493 257.095C271.556 257.507 271.281 257.895 270.868 257.958C270.826 257.966 270.784 257.97 270.743 257.97Z" fill="#F1D89A"/>
<path d="M275.608 258.013C275.195 258.013 274.858 257.675 274.858 257.263L274.858 236.977C274.858 236.552 275.195 236.214 275.608 236.214C276.033 236.214 276.371 236.552 276.371 236.977L276.371 257.263C276.371 257.675 276.033 258.013 275.608 258.013Z" fill="#F1D89A"/>
<path d="M281.885 258.013C281.472 258.013 281.134 257.675 281.134 257.263L281.134 236.977C281.134 236.552 281.472 236.214 281.885 236.214C282.31 236.214 282.648 236.552 282.648 236.977L282.648 257.263C282.648 257.675 282.31 258.013 281.885 258.013Z" fill="#F1D89A"/>
<path d="M288.424 258.013C288.012 258.013 287.674 257.675 287.674 257.263L287.674 236.977C287.674 236.552 288.012 236.214 288.424 236.214C288.849 236.214 289.187 236.552 289.187 236.977L289.187 257.263C289.187 257.675 288.849 258.013 288.424 258.013Z" fill="#F1D89A"/>
<path d="M294.816 258.013C294.39 258.013 294.053 257.675 294.053 257.263L294.053 236.977C294.053 236.552 294.39 236.214 294.816 236.214C295.228 236.214 295.566 236.552 295.566 236.977L295.566 257.263C295.566 257.675 295.228 258.013 294.816 258.013Z" fill="#F1D89A"/>
<path fill-rule="evenodd" clip-rule="evenodd" d="M261.311 235.639C259.822 235.639 258.609 234.425 258.609 232.925C258.609 231.436 259.822 230.223 261.311 230.223C262.811 230.223 264.025 231.436 264.025 232.925C264.025 234.425 262.811 235.639 261.311 235.639ZM261.311 231.736C260.66 231.736 260.122 232.274 260.122 232.925C260.122 233.587 260.66 234.125 261.311 234.125C261.973 234.125 262.511 233.587 262.511 232.925C262.511 232.274 261.973 231.736 261.311 231.736Z" fill="#F1D89A"/>
<path fill-rule="evenodd" clip-rule="evenodd" d="M275.712 265.695C273.799 265.695 272.235 264.131 272.235 262.205C272.235 260.279 273.799 258.716 275.712 258.716C277.638 258.716 279.202 260.279 279.202 262.205C279.202 264.131 277.638 265.695 275.712 265.695ZM275.712 260.229C274.624 260.229 273.749 261.117 273.749 262.205C273.749 263.293 274.624 264.181 275.712 264.181C276.813 264.181 277.688 263.293 277.688 262.205C277.688 261.117 276.813 260.229 275.712 260.229Z" fill="#F1D89A"/>
<path fill-rule="evenodd" clip-rule="evenodd" d="M291.986 265.695C290.06 265.695 288.497 264.131 288.497 262.205C288.497 260.279 290.06 258.716 291.986 258.716C293.912 258.716 295.476 260.279 295.476 262.205C295.476 264.131 293.912 265.695 291.986 265.695ZM291.986 260.229C290.898 260.229 290.01 261.117 290.01 262.205C290.01 263.293 290.898 264.181 291.986 264.181C293.074 264.181 293.962 263.293 293.962 262.205C293.962 261.117 293.074 260.229 291.986 260.229Z" fill="#F1D89A"/>
<path d="M243.469 168.837C247.734 155.505 266.994 160.22 272.021 162.746C277.062 165.273 303.288 199.741 301.725 204.656C300.161 209.571 294.871 220.127 294.871 220.127C294.871 220.127 238.166 185.383 243.469 168.837Z" fill="#DFB85A"/>
<path d="M299.58 206.206C299.63 206.198 299.671 206.177 299.705 206.144C299.892 206.006 299.93 205.731 299.78 205.544L279.119 178.717C279.056 178.642 278.981 178.592 278.881 178.567L266.887 175.628L251.829 160.245C251.667 160.07 251.392 160.082 251.229 160.232C251.054 160.395 251.054 160.67 251.217 160.832L266.362 176.316C266.42 176.374 266.491 176.412 266.575 176.428L278.531 179.355L299.104 206.069C299.217 206.219 299.417 206.269 299.58 206.206Z" fill="#333333"/>
<path d="M228.746 145.036C220.492 142.71 213.676 141.747 208.873 141.96C204.071 142.172 195.329 144.523 195.329 144.523C195.329 144.523 196.929 149.851 197.567 150.602C198.205 151.352 217.615 160.945 217.615 160.945L227.22 154.229L228.746 145.036Z" fill="#333333"/>
<path d="M198.153 150.063C199.191 150.838 210.372 156.466 217.551 160.031L226.481 153.765L227.844 145.61C221.003 143.722 214.912 142.734 210.222 142.734C209.772 142.734 209.334 142.734 208.909 142.759C205.082 142.921 198.578 144.51 196.327 145.085C197.015 147.286 197.828 149.6 198.153 150.063Z" fill="#333333"/>
<path d="M252.4 221.382C243.808 231.588 184.802 233.726 177.285 224.872C169.769 216.017 198.484 201.534 198.484 201.534L231.476 193.493L252.938 216.292L252.4 221.382Z" fill="#F3BB2B"/>
<path d="M246.491 200.375C246.491 185.592 231.183 173.61 212.286 173.61C193.401 173.61 178.08 185.592 178.08 200.375C178.08 215.145 193.401 227.126 212.286 227.126C231.183 227.126 246.491 215.145 246.491 200.375Z" fill="#333333"/>
<path d="M209.832 223.01L209.632 252.176L197.162 252.176L197.162 222.235L207.418 222.235L209.832 223.01Z" fill="#333333"/>
<path d="M222.297 132.054L223.098 154.991L205.589 153.99L205.188 130.24L222.297 132.054Z" fill="#333333"/>
<path d="M196.152 147.922C196.152 147.922 205.407 143.494 214.462 143.894C223.517 144.295 231.971 149.935 231.971 149.935L224.317 156.376L206.42 156.576L196.152 147.922Z" fill="#333333"/>
<path d="M273.166 165.409C273.166 159.331 268.238 154.403 262.16 154.403C256.094 154.403 251.166 159.331 251.166 165.409C251.166 171.475 256.094 176.402 262.16 176.402C268.238 176.402 273.166 171.475 273.166 165.409Z" fill="#333333"/>
<path d="M307.278 209.84C307.278 203.762 302.35 198.834 296.284 198.834C290.206 198.834 285.278 203.762 285.278 209.84C285.278 215.906 290.206 220.834 296.284 220.834C302.35 220.834 307.278 215.906 307.278 209.84Z" fill="#333333"/>
<path d="M237.351 92.7747C237.876 92.7122 239.839 92.4996 240.365 92.437C243.366 92.1119 246.318 96.5267 246.943 102.305C247.569 108.083 245.655 113.035 242.641 113.361C242.116 113.423 240.165 113.636 239.639 113.686C236.625 114.023 233.686 109.596 233.048 103.818C232.423 98.0525 234.349 93.0999 237.351 92.7747Z" fill="#E1CC99"/>
<path d="M205.894 70.4844C217.037 68.4083 236.885 70.8596 240.575 91.1328C244.84 114.583 244.952 130.979 229.907 135.019C214.874 139.058 200.078 131.967 195.301 126.927C190.523 121.887 167.286 77.6632 205.894 70.4844Z" fill="white"/>
<path d="M240.55 91.1045C240.538 91.042 240.513 90.9794 240.488 90.9169C238.311 87.4776 231.983 81.0867 216.25 84.476C195.201 89.0284 195.201 98.621 196.727 106.363C198.24 114.117 201.492 123.084 205.306 126.061C208.17 128.299 230.732 134.653 239.825 124.722C240.938 123.497 241.801 122.083 242.464 120.57C243.689 111.465 242.751 100.697 240.55 91.1045Z" fill="#333333"/>
<g opacity="0.25">
<path d="M231 76.3612L231.013 76.3612C231.037 76.275 231.025 76.2996 231 76.3612Z" fill="white"/>
</g>
<path d="M205.662 88.2874C205.762 88.2874 205.849 88.2499 205.937 88.1874C206.112 88.0373 206.137 87.7621 205.987 87.587C205.774 87.3244 200.597 81.2712 189.303 79.0825C189.078 79.045 188.853 79.1826 188.803 79.4202C188.753 79.6453 188.903 79.8705 189.14 79.9205C200.121 82.0466 205.286 88.0748 205.337 88.1248C205.424 88.2249 205.537 88.2874 205.662 88.2874Z" fill="#333333"/>
<path d="M188.04 98.5154C187.515 98.6404 185.601 99.0782 185.089 99.2032C182.137 99.8786 180.811 105.019 182.112 110.684C183.425 116.35 186.865 120.389 189.816 119.702C190.329 119.589 192.255 119.151 192.768 119.026C195.707 118.351 197.033 113.211 195.732 107.545C194.431 101.88 190.979 97.84 188.04 98.5154Z" fill="#E1CC99"/>
<path d="M186.123 102.247C185.823 102.322 184.71 102.572 184.41 102.647C182.697 103.035 182.046 106.561 182.959 110.501C183.872 114.441 185.998 117.33 187.712 116.929C187.999 116.854 189.125 116.604 189.425 116.529C191.138 116.142 191.776 112.627 190.876 108.675C189.963 104.736 187.837 101.859 186.123 102.247Z" fill="#9A7210"/>
<path d="M231.721 215.97L231.721 252.189L219.24 252.189L219.24 222.248L229.508 222.248L231.721 215.97Z" fill="#333333"/>
<path d="M189.678 237.686C189.787 237.686 189.895 237.686 190.003 237.686C198.608 237.398 212.215 215.437 212.778 214.499C212.903 214.299 212.84 214.036 212.64 213.911C212.44 213.786 212.178 213.848 212.052 214.049C211.915 214.274 198.133 236.56 189.978 236.823C189.878 236.831 189.778 236.836 189.678 236.836C181.749 236.836 177.272 226.355 176.734 219.164C176.721 218.926 176.521 218.776 176.284 218.776C176.046 218.789 175.871 219.001 175.883 219.226C176.446 226.743 181.199 237.686 189.678 237.686Z" fill="#DFB85A"/>
<path d="M189.307 231.56C189.833 231.56 190.366 231.493 190.908 231.36C198.925 229.421 203.828 220.054 204.04 219.653L203.277 219.266C203.227 219.366 198.35 228.683 190.708 230.534C189.157 230.922 187.719 230.672 186.418 229.834C182.204 227.145 180.565 219.191 180.553 219.103L179.715 219.266C179.777 219.616 181.441 227.67 185.956 230.547C187.006 231.222 188.132 231.56 189.307 231.56Z" fill="#9A7210"/>
<path d="M159.344 157.113C159.344 157.113 172.213 150.672 196.626 144.231C196.626 144.231 204.143 153.624 219.163 152.286C225.867 151.685 228.818 145.032 228.818 145.032C228.818 145.032 240.362 147.183 260.748 154.162C260.748 154.162 263.699 204.051 255.92 218.008C248.141 231.953 234.996 209.416 224.266 211.567C213.535 213.706 198.515 227.388 177.316 224.974C177.316 224.974 170.612 223.636 169.537 206.74C168.461 189.831 159.344 157.113 159.344 157.113Z" fill="white"/>
<path d="M234.097 218.987C234.297 218.987 234.472 218.849 234.522 218.649L242.551 180.366L261.636 179.529C261.861 179.516 262.049 179.316 262.036 179.091C262.024 178.853 261.774 178.666 261.586 178.678L242.188 179.529C241.988 179.541 241.826 179.679 241.788 179.866L233.759 218.124L219.476 217.924L205.281 179.378C205.219 179.216 205.069 179.103 204.881 179.103L167.987 179.529C167.749 179.529 167.561 179.729 167.561 179.966C167.561 180.204 167.749 180.379 167.987 180.379L204.581 179.966L218.776 218.487C218.826 218.662 218.989 218.774 219.164 218.774L234.097 218.987Z" fill="#333333"/>
<path d="M171.436 167.543C171.436 161.465 166.508 156.55 160.443 156.55C154.364 156.55 149.437 161.465 149.437 167.543C149.437 173.621 154.364 178.549 160.443 178.549C166.508 178.549 171.436 173.621 171.436 167.543Z" fill="#333333"/>
<path d="M154.042 166.447C167.874 164.296 172.276 183.619 172.276 189.259C172.276 194.887 153.241 233.783 148.139 234.596C143.036 235.396 131.242 235.396 131.242 235.396C131.242 235.396 136.87 169.136 154.042 166.447Z" fill="#DFB85A"/>
<path d="M150.58 240.118C150.58 234.04 145.652 229.125 139.587 229.125C133.509 229.125 128.581 234.04 128.581 240.118C128.581 246.196 133.509 251.111 139.587 251.111C145.652 251.111 150.58 246.196 150.58 240.118Z" fill="#333333"/>
<path d="M319.031 148.511C317.68 144.608 313.428 142.52 309.526 143.871C305.611 145.209 303.535 149.461 304.873 153.363C306.224 157.278 310.476 159.354 314.378 158.016C318.293 156.677 320.369 152.425 319.031 148.511Z" fill="#333333"/>
<path d="M137.61 242.28C141.788 232.238 156.483 235.027 170.503 239.091C184.535 243.143 204.02 250.535 204.02 250.535L197.892 268.507C197.892 268.507 129.331 262.216 137.61 242.28Z" fill="#DFB85A"/>
<path d="M146.07 233.501C146.233 233.501 146.37 233.414 146.445 233.263L161.166 202.772C161.203 202.685 161.216 202.585 161.203 202.485L158.452 190.453L165.455 170.092C165.531 169.867 165.405 169.63 165.193 169.555C164.955 169.467 164.718 169.592 164.643 169.817L157.601 190.291C157.576 190.366 157.572 190.441 157.589 190.516L160.328 202.535L145.683 232.888C145.582 233.101 145.67 233.363 145.883 233.464C145.941 233.497 146.004 233.509 146.07 233.501Z" fill="#333333"/>
<path d="M203.212 253.849C203.22 253.841 203.225 253.833 203.225 253.824C203.287 253.574 203.15 253.324 202.899 253.249L161.102 241.668C160.94 241.618 160.765 241.668 160.652 241.793L152.26 250.923L134.163 247.383C133.913 247.333 133.625 247.508 133.625 247.746C133.575 248.009 133.738 248.246 133.988 248.296L152.335 251.873C152.485 251.911 152.66 251.848 152.76 251.736L161.14 242.631L202.649 254.149C202.887 254.212 203.137 254.074 203.212 253.849Z" fill="#333333"/>
<path d="M299.108 216.722C289.628 213.47 291.328 199.8 294.243 186.668C297.144 173.536 302.797 155.177 302.797 155.177L317.28 157.865C317.28 157.865 317.918 223.15 299.108 216.722Z" fill="#DFB85A"/>
<path d="M306.846 214.97C307.083 214.619 307.408 214.344 307.796 214.219L309.272 202.851C309.284 202.701 309.234 202.55 309.109 202.463L300.255 195.297L308.396 156.451C308.446 156.226 308.296 156.001 308.059 155.951C307.834 155.901 307.608 156.051 307.558 156.276L299.367 195.384C299.329 195.534 299.392 195.697 299.517 195.797L308.396 202.976L306.846 214.97Z" fill="#333333"/>
<path fill-rule="evenodd" clip-rule="evenodd" d="M155.917 87.7957C158.218 84.1687 183.119 95.8499 186.733 98.1511C190.36 100.452 191.423 105.242 189.135 108.869C186.833 112.484 182.043 113.559 178.417 111.258C174.802 108.969 153.628 91.4101 155.917 87.7957ZM173.014 104.442C175.127 105.78 177.929 105.155 179.267 103.041C180.605 100.928 179.98 98.1261 177.866 96.7879C175.753 95.4497 161.232 88.6336 159.894 90.7472C158.556 92.8608 170.9 103.104 173.014 104.442Z" fill="white"/>
<path d="M235.167 173.098C235.167 166.633 229.927 161.405 223.473 161.405C217.007 161.405 211.767 166.633 211.767 173.098C211.767 179.564 217.007 184.805 223.473 184.805C229.927 184.805 235.167 179.564 235.167 173.098Z" fill="white"/>
<path fill-rule="evenodd" clip-rule="evenodd" d="M223.471 185.017C216.892 185.017 211.552 179.664 211.552 173.098C211.552 166.532 216.892 161.179 223.471 161.179C230.037 161.179 235.377 166.532 235.377 173.098C235.377 179.664 230.037 185.017 223.471 185.017ZM223.471 161.617C217.13 161.617 211.977 166.77 211.977 173.098C211.977 179.439 217.13 184.592 223.471 184.592C229.799 184.592 234.952 179.439 234.952 173.098C234.952 166.77 229.799 161.617 223.471 161.617Z" fill="#333333"/>
<path d="M232.122 172.893C232.122 168.002 228.157 164.038 223.267 164.038C218.377 164.038 214.412 168.002 214.412 172.893C214.412 177.783 218.377 181.747 223.267 181.747C228.157 181.747 232.122 177.783 232.122 172.893Z" fill="#E1CC99"/>
<path fill-rule="evenodd" clip-rule="evenodd" d="M223.27 182.549C217.955 182.549 213.615 178.222 213.615 172.894C213.615 167.579 217.955 163.252 223.27 163.252C228.585 163.252 232.913 167.579 232.913 172.894C232.913 178.222 228.585 182.549 223.27 182.549ZM223.27 164.84C218.818 164.84 215.203 168.454 215.203 172.894C215.203 177.347 218.818 180.961 223.27 180.961C227.71 180.961 231.337 177.347 231.337 172.894C231.337 168.454 227.71 164.84 223.27 164.84Z" fill="#9A7210"/>
<path d="M223.309 178.94C223.092 178.94 222.875 178.928 222.659 178.903C222.546 178.89 222.471 178.79 222.483 178.677C222.496 178.565 222.596 178.49 222.709 178.502C223.084 178.54 223.484 178.54 223.872 178.502C223.972 178.49 224.072 178.577 224.084 178.69C224.097 178.79 224.022 178.89 223.909 178.903C223.709 178.928 223.509 178.94 223.309 178.94ZM225.072 178.665C224.985 178.665 224.91 178.602 224.872 178.515C224.847 178.415 224.897 178.302 225.01 178.265C225.372 178.152 225.735 177.99 226.073 177.802C226.173 177.739 226.285 177.777 226.348 177.877C226.398 177.965 226.373 178.09 226.273 178.152C225.91 178.352 225.523 178.527 225.135 178.652C225.11 178.661 225.089 178.665 225.072 178.665ZM221.508 178.652C221.483 178.652 221.462 178.648 221.445 178.64C221.045 178.515 220.657 178.34 220.307 178.127C220.207 178.077 220.17 177.952 220.232 177.852C220.282 177.752 220.407 177.727 220.507 177.777C220.845 177.977 221.195 178.14 221.57 178.252C221.67 178.29 221.733 178.402 221.696 178.515C221.67 178.59 221.595 178.652 221.508 178.652ZM227.148 177.464C227.098 177.464 227.036 177.439 226.998 177.402C226.923 177.314 226.936 177.189 227.011 177.114C227.298 176.851 227.561 176.564 227.799 176.251C227.861 176.164 227.986 176.139 228.074 176.214C228.161 176.276 228.186 176.401 228.124 176.489C227.874 176.826 227.586 177.139 227.286 177.414C227.248 177.452 227.198 177.464 227.148 177.464ZM219.432 177.439C219.382 177.439 219.332 177.427 219.294 177.389C218.994 177.114 218.706 176.801 218.469 176.464C218.394 176.376 218.419 176.251 218.506 176.176C218.594 176.114 218.719 176.139 218.794 176.226C219.019 176.539 219.282 176.839 219.569 177.089C219.644 177.164 219.657 177.289 219.582 177.377C219.544 177.427 219.482 177.439 219.432 177.439ZM228.562 175.538C228.537 175.538 228.512 175.53 228.487 175.513C228.387 175.463 228.337 175.351 228.387 175.251C228.537 174.9 228.662 174.525 228.749 174.15C228.774 174.037 228.874 173.962 228.987 173.987C229.087 174.012 229.162 174.125 229.137 174.225C229.049 174.638 228.924 175.038 228.749 175.413C228.712 175.488 228.637 175.538 228.562 175.538ZM218.031 175.501C217.944 175.501 217.881 175.451 217.843 175.376C217.668 175 217.543 174.6 217.456 174.188C217.431 174.087 217.506 173.975 217.618 173.95C217.718 173.925 217.831 174 217.856 174.112C217.931 174.488 218.056 174.863 218.206 175.213C218.256 175.313 218.206 175.438 218.106 175.488C218.081 175.497 218.056 175.501 218.031 175.501ZM229.074 173.174C228.962 173.174 228.874 173.099 228.874 172.987L228.874 172.962C228.874 172.574 228.824 172.186 228.749 171.811C228.724 171.699 228.799 171.586 228.912 171.574C229.012 171.549 229.124 171.611 229.149 171.724C229.224 172.124 229.275 172.549 229.275 172.962C229.275 173.074 229.187 173.174 229.074 173.174ZM217.531 173.149C217.418 173.149 217.331 173.062 217.331 172.949C217.331 172.537 217.381 172.111 217.468 171.711C217.493 171.599 217.593 171.536 217.706 171.561C217.806 171.586 217.881 171.686 217.856 171.799C217.781 172.174 217.731 172.562 217.731 172.949C217.731 173.062 217.643 173.149 217.531 173.149ZM228.574 170.823C228.499 170.823 228.424 170.773 228.387 170.698C228.236 170.348 228.036 170.01 227.811 169.698C227.749 169.598 227.761 169.473 227.849 169.41C227.949 169.347 228.074 169.372 228.136 169.46C228.374 169.798 228.587 170.16 228.762 170.536C228.799 170.636 228.762 170.761 228.662 170.798C228.628 170.815 228.599 170.823 228.574 170.823ZM218.031 170.811C218.006 170.811 217.981 170.807 217.956 170.798C217.856 170.748 217.806 170.623 217.856 170.523C218.019 170.148 218.231 169.785 218.481 169.447C218.544 169.36 218.669 169.335 218.756 169.41C218.844 169.473 218.869 169.598 218.806 169.685C218.569 169.998 218.381 170.335 218.219 170.686C218.181 170.761 218.119 170.811 218.031 170.811ZM227.161 168.885C227.111 168.885 227.073 168.86 227.036 168.835C226.748 168.572 226.423 168.334 226.085 168.147C225.998 168.084 225.96 167.959 226.023 167.872C226.073 167.772 226.198 167.734 226.298 167.797C226.648 168.009 226.986 168.247 227.298 168.535C227.386 168.61 227.386 168.735 227.311 168.81C227.273 168.86 227.223 168.885 227.161 168.885ZM219.444 168.872C219.394 168.872 219.344 168.847 219.294 168.81C219.219 168.722 219.232 168.597 219.319 168.522C219.619 168.247 219.97 167.997 220.32 167.784C220.42 167.734 220.545 167.772 220.595 167.859C220.657 167.959 220.62 168.084 220.52 168.134C220.195 168.334 219.87 168.56 219.582 168.822C219.544 168.86 219.494 168.872 219.444 168.872ZM225.085 167.684C225.068 167.684 225.047 167.68 225.022 167.672C224.66 167.546 224.272 167.471 223.884 167.421C223.784 167.421 223.697 167.321 223.709 167.209C223.722 167.096 223.822 167.009 223.934 167.021C224.347 167.071 224.76 167.159 225.147 167.284C225.26 167.321 225.31 167.434 225.285 167.546C225.26 167.622 225.172 167.684 225.085 167.684ZM221.533 167.672C221.445 167.672 221.358 167.622 221.333 167.534C221.295 167.434 221.358 167.321 221.47 167.284C221.858 167.159 222.271 167.071 222.684 167.021C222.796 167.009 222.896 167.096 222.909 167.209C222.921 167.321 222.834 167.421 222.721 167.421C222.333 167.471 221.958 167.546 221.583 167.672C221.566 167.672 221.55 167.672 221.533 167.672Z" fill="#333333"/>
<path d="M178.245 201.729L201.845 201.729L201.845 212.398L178.245 212.398L178.245 201.729Z" fill="#333333"/>
<path fill-rule="evenodd" clip-rule="evenodd" d="M196.403 206.95C196.403 205.949 197.216 205.136 198.217 205.136C199.217 205.136 200.03 205.949 200.03 206.95C200.03 207.95 199.217 208.763 198.217 208.763C197.216 208.763 196.403 207.95 196.403 206.95ZM197.254 206.95C197.254 207.475 197.691 207.913 198.217 207.913C198.742 207.913 199.18 207.475 199.18 206.95C199.18 206.424 198.742 205.987 198.217 205.987C197.691 205.987 197.254 206.424 197.254 206.95Z" fill="#7DA8FF"/>
<path fill-rule="evenodd" clip-rule="evenodd" d="M190.613 206.95C190.613 205.949 191.426 205.136 192.414 205.136C193.414 205.136 194.227 205.949 194.227 206.95C194.227 207.95 193.414 208.763 192.414 208.763C191.426 208.763 190.613 207.95 190.613 206.95ZM191.463 206.95C191.463 207.475 191.889 207.913 192.414 207.913C192.952 207.913 193.377 207.475 193.377 206.95C193.377 206.424 192.952 205.987 192.414 205.987C191.889 205.987 191.463 206.424 191.463 206.95Z" fill="#C2D9FF"/>
<path fill-rule="evenodd" clip-rule="evenodd" d="M184.971 206.95C184.971 205.949 185.784 205.136 186.784 205.136C187.785 205.136 188.598 205.949 188.598 206.95C188.598 207.95 187.785 208.763 186.784 208.763C185.784 208.763 184.971 207.95 184.971 206.95ZM185.821 206.95C185.821 207.475 186.247 207.913 186.784 207.913C187.31 207.913 187.735 207.475 187.735 206.95C187.735 206.424 187.31 205.987 186.784 205.987C186.247 205.987 185.821 206.424 185.821 206.95Z" fill="white"/>
<path d="M319.772 119.133C319.046 120.671 310.592 127.55 309.116 129.113Z" fill="white"/>
<path d="M308.572 131.544C308.147 131.444 307.734 131.244 307.396 130.919C306.408 129.968 306.371 128.393 307.321 127.392C307.884 126.804 309.072 125.766 310.961 124.115C313.049 122.289 316.914 118.925 317.577 117.975C318.19 116.799 319.628 116.311 320.841 116.887C322.079 117.474 322.617 118.95 322.029 120.201C321.429 121.451 319.565 123.215 314.225 127.867C312.824 129.093 311.361 130.369 310.923 130.831C310.298 131.494 309.397 131.732 308.572 131.544Z" fill="#333333"/>
<path d="M313.643 120.634C315.769 118.77 320.809 113.23 322.073 113.092C323.623 112.905 325.887 113.943 324.824 117.207C324.286 118.858 320.734 122.76 319.209 124.724C316.695 124.048 314.919 122.585 313.643 120.634Z" fill="#F1D89A"/>
<path d="M331.688 124.836L320.645 131.04Z" fill="white"/>
<path d="M320.051 133.747C319.313 133.585 318.638 133.11 318.238 132.409C317.5 131.071 317.962 129.383 319.301 128.632L330.331 122.429C331.67 121.679 333.358 122.154 334.096 123.479C334.846 124.818 334.384 126.506 333.045 127.256L322.015 133.46C321.389 133.81 320.689 133.885 320.051 133.747Z" fill="#333333"/>
<path d="M335.049 130.403L323.205 135.581Z" fill="white"/>
<path d="M322.611 138.276C321.785 138.101 321.047 137.526 320.684 136.688C320.072 135.287 320.71 133.661 322.11 133.048L333.954 127.871C335.355 127.258 336.981 127.896 337.593 129.296C338.206 130.697 337.568 132.336 336.168 132.948L324.324 138.114C323.761 138.364 323.161 138.401 322.611 138.276Z" fill="#333333"/>
<path d="M338.344 136.331L326.476 140.746Z" fill="white"/>
<path d="M325.883 143.453C324.995 143.253 324.232 142.628 323.894 141.715C323.356 140.277 324.094 138.688 325.52 138.163L337.389 133.736C338.814 133.21 340.403 133.936 340.941 135.374C341.478 136.8 340.74 138.388 339.315 138.926L327.446 143.341C326.933 143.541 326.383 143.566 325.883 143.453Z" fill="#333333"/>
<path d="M334.496 143.757L324.928 147.184Z" fill="white"/>
<path d="M324.395 149.616C323.594 149.441 322.894 148.866 322.594 148.028C322.131 146.74 322.806 145.314 324.094 144.851L333.662 141.424C334.95 140.961 336.376 141.637 336.839 142.925C337.301 144.226 336.626 145.651 335.338 146.114L325.783 149.528C325.32 149.691 324.832 149.716 324.395 149.616Z" fill="#333333"/>
<path d="M325.365 124.184C325.557 124.025 325.769 123.892 326.003 123.783L330.83 121.42L335.233 115.504C336.371 113.966 338.534 113.653 340.073 114.791C341.598 115.929 341.924 118.093 340.786 119.631L336.271 125.709C335.683 126.485 334.907 127.123 334.032 127.56L329.029 129.999C329.021 129.999 329.017 129.999 329.017 129.999C326.666 128.861 324.69 126.635 325.365 124.184Z" fill="#F1D89A"/>
<path d="M329.774 128.918C329.961 128.768 332.9 126.892 333.125 126.767L337.853 124.215L342.005 118.112C343.093 116.524 345.282 116.124 346.87 117.249C348.421 118.35 348.734 120.538 347.658 122.102L343.456 128.268C342.906 129.068 342.168 129.743 341.305 130.206L333.876 134.771C331.475 133.733 329.198 131.407 329.774 128.918Z" fill="#F1D89A"/>
<path d="M332.617 134.831C332.801 134.672 333.005 134.531 333.23 134.405L337.958 131.854L342.122 125.763C343.198 124.175 345.349 123.775 346.925 124.85C348.501 125.926 348.901 128.077 347.838 129.653L343.573 135.906C343.023 136.719 342.272 137.382 341.409 137.857L336.519 140.496C336.511 140.496 336.507 140.496 336.507 140.496C334.105 139.458 332.042 137.32 332.617 134.831Z" fill="#F1D89A"/>
<path d="M330.531 141.812C330.714 141.712 330.91 141.628 331.119 141.562L335.558 140.236L340.136 135.821C341.324 134.671 343.212 134.708 344.351 135.884C345.489 137.072 345.464 138.96 344.276 140.098L339.586 144.638C338.985 145.226 338.235 145.664 337.422 145.902L332.832 147.277C332.824 147.277 332.819 147.277 332.819 147.277C330.981 145.977 329.605 143.813 330.531 141.812Z" fill="#F1D89A"/>
<path d="M323.391 119.726C323.278 119.701 323.178 119.588 323.178 119.463L323.128 117.425L317.9 116.925C317.75 116.912 317.638 116.774 317.65 116.624C317.663 116.474 317.8 116.362 317.95 116.374L323.428 116.9C323.566 116.912 323.678 117.025 323.678 117.162L323.728 119.451C323.741 119.601 323.616 119.726 323.466 119.726C323.441 119.726 323.416 119.726 323.391 119.726Z" fill="#333333"/>
<path d="M338.305 122.94C338.205 122.927 338.13 122.852 338.092 122.752L336.591 117.499L333.402 118.612C333.264 118.663 333.102 118.587 333.052 118.437C333.002 118.3 333.077 118.137 333.227 118.087L336.679 116.887C336.754 116.862 336.829 116.862 336.904 116.899C336.966 116.937 337.016 116.999 337.041 117.062L338.63 122.602C338.667 122.74 338.58 122.902 338.442 122.94C338.392 122.956 338.346 122.956 338.305 122.94Z" fill="#333333"/>
<path d="M344.295 124.298C344.183 124.273 344.095 124.173 344.083 124.06L343.595 120.058L340.543 120.658C340.393 120.683 340.256 120.596 340.218 120.446C340.193 120.296 340.293 120.145 340.443 120.12L343.783 119.458C343.858 119.433 343.933 119.458 343.995 119.495C344.058 119.545 344.095 119.608 344.108 119.695L344.633 123.985C344.646 124.135 344.533 124.273 344.383 124.298C344.35 124.298 344.32 124.298 344.295 124.298Z" fill="#333333"/>
<path d="M345.256 133.499C345.156 133.474 345.069 133.387 345.056 133.274L343.956 127.634L340.416 128.547C340.266 128.584 340.116 128.497 340.078 128.346C340.041 128.196 340.129 128.046 340.279 128.009L344.106 127.033C344.181 127.008 344.256 127.021 344.331 127.058C344.393 127.108 344.431 127.171 344.443 127.246L345.594 133.174C345.619 133.324 345.519 133.462 345.369 133.499C345.335 133.508 345.298 133.508 345.256 133.499Z" fill="#333333"/>
<path d="M342.183 142.134C342.058 142.109 341.971 141.997 341.971 141.872L341.846 136.731L339.707 136.757C339.545 136.757 339.419 136.631 339.419 136.481C339.419 136.319 339.544 136.194 339.695 136.194L342.108 136.169C342.258 136.169 342.384 136.294 342.396 136.444L342.521 141.859C342.521 142.009 342.396 142.134 342.246 142.147C342.221 142.147 342.2 142.143 342.183 142.134Z" fill="#333333"/>
<path d="M300.315 133.629C301.228 131.028 302.516 128.489 304.429 126.488C305.367 125.513 306.355 124.825 307.581 124.274C308.256 123.974 309.732 127.789 310.408 128.064C314.197 129.602 319.575 126.275 320.588 127.176C320.588 127.176 328.605 136.356 327.892 148.637C325.215 150.213 323.314 151.689 321.463 152.852C317.912 150.688 315.76 146.198 314.385 146.061C313.122 145.936 311.246 154.065 310.72 156.454C304.154 155.316 295.412 153.79 295.412 153.79C297.076 147.099 298.026 140.158 300.315 133.629Z" fill="#F1D89A"/>
<path d="M300.466 154.358L299.916 154.233L303.505 138.312C304.368 134.473 307.845 134.31 310.134 134.21C310.934 134.172 311.685 134.147 311.922 133.947C312.61 133.36 312.785 130.145 312.723 128.269L313.273 128.257C313.298 128.782 313.398 133.41 312.273 134.36C311.897 134.685 311.172 134.723 310.159 134.76C307.908 134.86 304.819 135.01 304.043 138.437L300.466 154.358Z" fill="#333333"/>
<path d="M327.718 145.156L318.238 150.108Z" fill="white"/>
<path d="M318.364 150.359L318.114 149.871L327.594 144.918L327.844 145.406L318.364 150.359Z" fill="#333333"/>
<path d="M234.542 239.246L223.811 246.025Z" fill="white"/>
<path d="M220.403 246.157C220.428 246.732 220.59 247.32 220.928 247.845C221.928 249.446 224.042 249.921 225.63 248.908L236.373 242.142C237.962 241.129 238.45 239.028 237.437 237.427C236.436 235.839 234.322 235.364 232.734 236.364L221.991 243.143C220.928 243.818 220.365 244.981 220.403 246.157Z" fill="#333333"/>
<path d="M253.825 257.45L230.825 254.548Z" fill="white"/>
<path d="M227.43 254.692C227.48 256.331 228.73 257.731 230.406 257.944L253.406 260.846C255.27 261.083 256.983 259.758 257.221 257.894C257.458 256.018 256.132 254.317 254.256 254.08L231.269 251.165C229.393 250.94 227.68 252.254 227.455 254.13C227.43 254.321 227.421 254.509 227.43 254.692Z" fill="#333333"/>
<path d="M226.119 276.323C226.111 276.29 226.115 276.256 226.132 276.223C226.169 276.06 230.709 260.114 231.797 254.211C231.835 254.024 232.01 253.899 232.21 253.924C232.397 253.961 232.522 254.136 232.485 254.336C231.397 260.277 226.844 276.26 226.807 276.41C226.744 276.598 226.557 276.711 226.369 276.661C226.219 276.611 226.119 276.473 226.119 276.323Z" fill="#333333"/>
<path d="M246.165 252.364C248.416 252.739 250.517 253.064 252.231 253.264L260.56 254.265C262.874 254.54 264.537 256.628 264.237 258.942C263.962 261.256 261.873 262.907 259.559 262.619L251.23 261.631C249.567 261.431 247.603 261.131 245.502 260.78C245.277 257.916 244.914 255.027 246.165 252.364Z" fill="white"/>
<path d="M243.314 233.546C244.753 235.372 244.44 238.023 242.627 239.462C241.288 240.525 237.411 242.913 233.634 244.752C231.02 243.151 228.994 240.675 227.218 237.986C232.184 235.847 236.411 233.646 237.399 232.858C239.225 231.42 241.864 231.732 243.314 233.546Z" fill="white"/>
<path d="M255.226 262.416C255.088 262.479 254.925 262.441 254.8 262.329C254.65 262.179 254.65 261.929 254.8 261.766L257.814 258.689L255.538 254.174C255.438 253.974 255.526 253.737 255.713 253.637C255.913 253.537 256.151 253.612 256.251 253.812L258.64 258.589C258.727 258.739 258.69 258.927 258.577 259.052L255.363 262.329C255.321 262.37 255.276 262.4 255.226 262.416Z" fill="#333333"/>
<path d="M251.464 268.057L228.464 265.156Z" fill="white"/>
<path d="M225.056 265.288C225.118 266.926 226.356 268.327 228.045 268.54L251.032 271.454C252.908 271.691 254.621 270.366 254.846 268.49C255.084 266.626 253.758 264.913 251.895 264.675L228.895 261.774C227.032 261.536 225.318 262.862 225.081 264.725C225.064 264.917 225.056 265.105 225.056 265.288Z" fill="#333333"/>
<path d="M243.807 262.959C246.059 263.346 248.16 263.659 249.873 263.872L258.202 264.872C260.516 265.147 262.18 267.223 261.879 269.55C261.604 271.851 259.516 273.502 257.202 273.227L248.873 272.226C247.209 272.026 245.246 271.738 243.144 271.388C242.919 268.524 242.557 265.623 243.807 262.959Z" fill="white"/>
<path d="M252.866 273.012C252.728 273.075 252.553 273.05 252.441 272.937C252.291 272.775 252.278 272.525 252.441 272.374L255.442 269.298L253.179 264.77C253.079 264.57 253.154 264.333 253.354 264.233C253.554 264.145 253.792 264.22 253.892 264.42L256.28 269.198C256.355 269.348 256.33 269.523 256.218 269.648L253.004 272.925C252.962 272.966 252.916 272.996 252.866 273.012Z" fill="#333333"/>
<path d="M249.292 280.064L226.305 277.15Z" fill="white"/>
<path d="M222.898 277.295C222.96 278.933 224.199 280.334 225.887 280.547L248.874 283.448C250.75 283.686 252.451 282.36 252.689 280.497C252.926 278.621 251.601 276.92 249.737 276.682L226.737 273.78C224.874 273.543 223.16 274.869 222.923 276.732C222.898 276.924 222.89 277.111 222.898 277.295Z" fill="#333333"/>
<path d="M241.649 274.966C243.887 275.341 246.001 275.666 247.714 275.879L256.044 276.867C258.345 277.154 260.008 279.23 259.721 281.557C259.445 283.858 257.344 285.509 255.043 285.234L246.714 284.233C245.05 284.033 243.074 283.733 240.986 283.395C240.761 280.531 240.398 277.629 241.649 274.966Z" fill="white"/>
<path d="M250.705 285.019C250.568 285.081 250.392 285.056 250.28 284.931C250.117 284.781 250.117 284.531 250.267 284.381L253.282 281.304L251.018 276.777C250.918 276.577 250.993 276.339 251.193 276.239C251.393 276.139 251.618 276.226 251.718 276.414L254.119 281.192C254.194 281.354 254.169 281.529 254.044 281.654L250.843 284.931C250.801 284.973 250.755 285.002 250.705 285.019Z" fill="#333333"/>
<path d="M242.773 239.827C242.66 239.865 242.535 239.865 242.423 239.802L237.42 236.963L232.455 238.877C232.38 238.902 232.305 238.914 232.217 238.889L228.603 238.001C228.39 237.951 228.253 237.739 228.315 237.526C228.365 237.314 228.578 237.176 228.791 237.226L232.292 238.089L237.308 236.15C237.42 236.113 237.545 236.125 237.645 236.175L242.811 239.115C242.998 239.215 243.073 239.465 242.961 239.652C242.911 239.727 242.848 239.79 242.773 239.827Z" fill="#333333"/>
<path d="M222.389 243.041C225.916 244.616 232.857 248.544 235.771 250.082C236.596 250.507 237.109 251.358 237.109 252.283C237.134 254.597 236.959 256.91 236.834 259.224C236.475 259.158 236.117 259.091 235.758 259.024C234.733 267.666 232.894 282.862 228.78 283.462C225.916 283.875 219.112 283.074 212.671 281.674C213.159 277.772 213.609 275.408 212.033 274.195C210.37 272.906 200.74 272.481 198.126 272.394C197.275 267.354 197.038 262.576 197.45 258.349C198.038 252.195 202.428 247.08 208.394 245.467C214.672 243.766 219.337 243.066 221.038 242.853C221.501 242.791 221.963 242.853 222.389 243.041Z" fill="white"/>
<path d="M214.622 264.504C212.133 265.517 207.03 265.117 202.065 264.741C200.352 264.604 198.738 264.479 197.35 264.429C197.137 264.416 196.962 264.241 196.975 264.016C196.975 263.803 197.162 263.628 197.387 263.628C198.788 263.691 200.414 263.816 202.127 263.941C207.143 264.329 213.396 264.816 215.022 263.366C215.247 263.153 215.372 262.915 215.385 262.628C215.41 261.94 215.372 261.064 215.347 260.139C215.234 257.075 215.097 253.273 216.71 251.672C217.248 251.122 217.948 250.871 218.774 250.896C219.462 250.922 220.287 250.997 221.175 251.072C224.602 251.347 229.304 251.722 231.13 250.096C231.631 249.658 231.881 249.096 231.906 248.383C231.918 248.17 232.106 247.995 232.318 248.007C232.544 248.007 232.706 248.195 232.706 248.408C232.669 249.333 232.318 250.109 231.656 250.684C229.567 252.547 224.877 252.16 221.113 251.86C220.237 251.784 219.412 251.722 218.749 251.697C218.136 251.672 217.648 251.847 217.273 252.222C215.91 253.585 216.035 257.362 216.135 260.114C216.172 261.052 216.197 261.94 216.172 262.653C216.16 263.165 215.947 263.603 215.547 263.953C215.297 264.166 214.997 264.354 214.622 264.504Z" fill="#333333"/>
<path d="M216.57 106.847C216.57 104.758 215.332 103.07 213.806 103.07C212.281 103.07 211.055 104.758 211.055 106.847C211.055 108.923 212.281 110.612 213.806 110.612C215.332 110.612 216.57 108.923 216.57 106.847Z" fill="#F1D89A"/>
<path d="M238.585 106.024C238.585 103.935 237.347 102.247 235.822 102.247C234.308 102.247 233.07 103.935 233.07 106.024C233.07 108.1 234.308 109.788 235.822 109.788C237.347 109.788 238.585 108.1 238.585 106.024Z" fill="#F1D89A"/>
<path d="M224.932 115.657C223.469 115.657 221.818 115.219 220.105 113.944C219.879 113.769 219.842 113.456 220.004 113.231C220.167 113.018 220.492 112.968 220.717 113.131C225.457 116.695 229.635 112.956 229.81 112.793C230.022 112.605 230.335 112.618 230.523 112.831C230.71 113.031 230.698 113.356 230.498 113.543C230.46 113.568 228.146 115.657 224.932 115.657Z" fill="#F1D89A"/>
<path d="M219.606 115.146C219.519 115.146 219.444 115.121 219.356 115.083C219.118 114.946 219.031 114.646 219.168 114.396L220.482 112.057C220.607 111.807 220.919 111.719 221.157 111.857C221.407 111.994 221.495 112.307 221.357 112.545L220.044 114.883C219.956 115.058 219.781 115.146 219.606 115.146Z" fill="#F1D89A"/>
<path d="M337.295 80.7178L260.955 80.7178L260.955 141.675L337.295 141.675L337.295 80.7178Z" fill="#DFB85A"/>
<path d="M329.407 81.816C329.407 85.0802 332.058 87.7317 335.322 87.7317C338.587 87.7317 341.238 85.0802 341.238 81.816C341.238 78.5518 338.587 75.9004 335.322 75.9004C332.058 75.9004 329.407 78.5518 329.407 81.816Z" fill="#333333"/>
<path d="M333.052 84.6861C332.915 84.6861 332.777 84.6236 332.677 84.5236C332.49 84.3235 332.502 84.0108 332.702 83.8107L337.63 79.0832C337.83 78.8831 338.155 78.8956 338.343 79.0957C338.53 79.2958 338.53 79.6085 338.33 79.8086L333.403 84.5361C333.303 84.6361 333.177 84.6861 333.052 84.6861Z" fill="white"/>
<path d="M337.98 84.6861C337.855 84.6861 337.73 84.6361 337.63 84.5361L332.702 79.8086C332.502 79.6085 332.49 79.2958 332.677 79.0957C332.877 78.8956 333.19 78.8831 333.403 79.0832L338.33 83.8107C338.53 84.0108 338.53 84.3235 338.343 84.5236C338.243 84.6236 338.118 84.6861 337.98 84.6861Z" fill="white"/>
<path d="M291.543 78.2128C291.51 78.2128 291.48 78.2086 291.455 78.2003C291.18 78.1628 290.993 77.9001 291.043 77.625C291.13 77.1122 293.206 65.1434 301.961 64.4055C310.303 63.7176 312.554 76.737 312.642 77.2998C312.679 77.5749 312.504 77.8251 312.229 77.8751C311.954 77.9251 311.691 77.7375 311.641 77.4624C311.629 77.3373 309.465 64.7932 302.048 65.4185C294.069 66.0814 292.056 77.675 292.031 77.7876C291.993 78.0377 291.781 78.2128 291.543 78.2128Z" fill="white"/>
<path d="M282.084 78.9616C282.059 78.9616 282.034 78.9574 282.009 78.9491C281.734 78.9115 281.546 78.6489 281.584 78.3737C281.671 77.861 283.747 65.8921 292.514 65.1542C300.856 64.4664 303.095 77.4858 303.195 78.0361C303.232 78.3112 303.045 78.5739 302.77 78.6239C302.495 78.6614 302.244 78.4738 302.194 78.1987C302.169 78.0736 300.018 65.542 292.602 66.1673C284.623 66.8301 282.609 78.4238 282.584 78.5363C282.547 78.7865 282.334 78.9616 282.084 78.9616Z" fill="white"/>
<path d="M307.748 79.4853C307.76 78.7224 307.16 78.1096 306.422 78.1096C305.672 78.1096 305.059 78.7349 305.059 79.4979C305.047 80.2482 305.647 80.8736 306.385 80.8611C307.135 80.8611 307.748 80.2483 307.748 79.4853Z" fill="#2D2D2D"/>
<path d="M289.728 79.5223C289.741 78.7719 289.14 78.1466 288.39 78.1591C287.652 78.1591 287.039 78.7719 287.027 79.5348C287.027 80.2978 287.614 80.9106 288.365 80.9106C289.115 80.9106 289.716 80.2852 289.728 79.5223Z" fill="#2D2D2D"/>
<path d="M276.345 75.6262L315.178 75.5261L314.565 131.681L273.243 131.781L276.345 75.6262Z" fill="#9A7210"/>
<path d="M284.218 75.6007L322.013 75.5132L324.927 131.655L283.605 131.755L284.218 75.6007Z" fill="#F3BB2B"/>
<path d="M326.274 132.344L273.321 132.331C273.121 132.331 272.946 132.219 272.858 132.044C272.783 131.869 272.808 131.656 272.933 131.506L277.724 125.64L279.712 75.6765C279.712 75.4013 279.95 75.1762 280.225 75.1887C280.512 75.2012 280.725 75.4389 280.713 75.714L278.724 125.853C278.724 125.966 278.687 126.066 278.611 126.153L274.384 131.331L326.274 131.331C326.562 131.331 326.787 131.556 326.787 131.844C326.787 132.119 326.562 132.344 326.274 132.344Z" fill="#333333"/>
<path d="M283.619 132.152C283.482 132.152 283.344 132.102 283.244 131.99L277.841 126.024C277.653 125.812 277.666 125.499 277.879 125.311C278.079 125.124 278.404 125.136 278.591 125.349L283.994 131.315C284.182 131.515 284.169 131.84 283.957 132.027C283.869 132.115 283.744 132.152 283.619 132.152Z" fill="#333333"/>
</g>
</g>
<defs>
<linearGradient id="paint0_linear_0_5674" x1="238.684" y1="0" x2="238.684" y2="461.036" gradientUnits="userSpaceOnUse">
<stop/>
<stop offset="1" stop-opacity="0"/>
</linearGradient>
<linearGradient id="paint1_linear_0_5674" x1="237.743" y1="-57.0446" x2="235.809" y2="318.303" gradientUnits="userSpaceOnUse">
<stop stop-color="#FFE6A7" stop-opacity="0"/>
<stop offset="0.457113" stop-color="#FFE6A7"/>
<stop offset="0.757594" stop-color="#FFE6A7" stop-opacity="0"/>
</linearGradient>
<clipPath id="clip0_0_5674">
<rect width="477.367" height="461.036" fill="white" transform="translate(0.316162 0.757812)"/>
</clipPath>
</defs>
</svg>
