<svg width="10" height="10" viewBox="0 0 10 10" fill="none" xmlns="http://www.w3.org/2000/svg">
<path d="M0.646524 8.646L7.79318 1.49997H2.50022C2.36761 1.49997 2.24044 1.44729 2.14667 1.35353C2.05291 1.25976 2.00023 1.13259 2.00023 0.999984C2.00023 0.86738 2.05291 0.740207 2.14667 0.646442C2.24044 0.552676 2.36761 0.5 2.50022 0.5H9.00002C9.13262 0.5 9.25979 0.552676 9.35356 0.646442C9.44732 0.740207 9.5 0.86738 9.5 0.999984L9.5 7.49978C9.5 7.63239 9.44732 7.75956 9.35356 7.85333C9.25979 7.94709 9.13262 7.99977 9.00002 7.99977C8.86741 7.99977 8.74024 7.94709 8.64647 7.85333C8.55271 7.75956 8.50003 7.63239 8.50003 7.49978V2.20682L1.354 9.35348C1.30755 9.39993 1.2524 9.43678 1.19171 9.46192C1.13101 9.48706 1.06596 9.5 1.00026 9.5C0.934568 9.5 0.869515 9.48706 0.808821 9.46192C0.748126 9.43678 0.692977 9.39993 0.646524 9.35348C0.60007 9.30702 0.563221 9.25187 0.538081 9.19118C0.51294 9.13049 0.5 9.06543 0.5 8.99974C0.5 8.93404 0.51294 8.86899 0.538081 8.8083C0.563221 8.7476 0.60007 8.69245 0.646524 8.646Z" fill="black"/>
</svg>
