<svg width="99" height="114" viewBox="0 0 99 114" fill="none" xmlns="http://www.w3.org/2000/svg">
<path d="M92.9544 38.4369H5.625V113.164H92.9544V38.4369Z" fill="white"/>
<path d="M93.2082 113.419H5.37109V38.1819H93.2082V113.419ZM5.87882 112.909H92.7005V38.692H5.87882V112.909Z" fill="#2C3131"/>
<path d="M60.2054 52.9741H38.373V113.164H60.2054V52.9741Z" fill="url(#paint0_linear_310_6915)"/>
<path d="M60.2054 52.9741H38.373V113.164H60.2054V52.9741Z" fill="#6218B4"/>
<path d="M98.0309 31.5508H0.546875V52.9744H98.0309V31.5508Z" fill="white"/>
<path d="M98.2847 53.2298H0.292969V31.2961H98.2847V53.2298ZM0.800698 52.7197H97.7769V31.8062H0.800698V52.7197Z" fill="#2C3131"/>
<path d="M60.2054 29.5105H38.373V52.7194H60.2054V29.5105Z" fill="#6218B4"/>
<path d="M46.952 9.27443C52.715 17.857 47.2851 31.6609 47.2851 31.6609C47.2851 31.6609 32.5114 31.5497 26.7484 22.9671C20.9853 14.3845 26.4152 0.580566 26.4152 0.580566C26.4152 0.580566 41.1889 0.691844 46.952 9.27443Z" fill="#9AD954"/>
<path d="M49.596 9.27443C43.8329 17.857 49.2628 31.6609 49.2628 31.6609C49.2628 31.6609 64.0366 31.5497 69.7996 22.9671C75.5627 14.3845 70.1328 0.580566 70.1328 0.580566C70.1328 0.580566 55.3591 0.691844 49.596 9.27443Z" fill="#9AD954"/>
<ellipse cx="17.6279" cy="17.7447" rx="17.6279" ry="17.7447" transform="matrix(1.00041 0 -0.0011555 0.999591 31.9297 59.6283)" fill="#9AD954"/>
<path d="M47.8965 86.7015C45.1492 86.4563 42.4155 84.4284 42.4167 83.3669C42.4179 82.3289 43.2563 81.8375 44.0802 81.2092C44.904 80.5809 48.6606 84.3953 50.9088 83.6281C53.157 82.8608 51.8061 80.8252 49.785 79.5012C47.4038 77.9412 45.6855 76.7806 44.0878 74.2948C43.226 73.0689 41.8501 69.6235 44.7049 68.0935C45.5977 67.615 45.9369 67.3122 48.5666 67.3931L48.624 65.5804C49.2326 64.8812 51.7698 64.9142 52.4725 65.6988L52.4151 67.5115C54.0288 67.904 57.8734 68.9991 58.2508 70.1756C58.701 70.6604 59.038 72.0688 58.2476 73.035C56.9362 74.6381 47.9223 69.2757 48.6327 73.035C49.2149 76.1159 59.9112 79.2967 56.877 84.0044C56.2361 85.5901 53.5108 86.9509 51.8043 86.8217L51.7484 88.5906C50.8972 89.599 48.4192 89.4475 47.8944 88.6456L47.8965 86.7015Z" fill="white"/>
<defs>
<linearGradient id="paint0_linear_310_6915" x1="38.373" y1="113.164" x2="70.5961" y2="106.963" gradientUnits="userSpaceOnUse">
<stop stop-color="#2600FC"/>
<stop offset="1" stop-color="#FF00EA"/>
</linearGradient>
</defs>
</svg>
