<svg width="478" height="462" viewBox="0 0 478 462" fill="none" xmlns="http://www.w3.org/2000/svg">
<g clip-path="url(#clip0_129_322)">
<rect width="478" height="462" fill="#0A0A0A"/>
<g clip-path="url(#clip1_129_322)">
<mask id="mask0_129_322" style="mask-type:luminance" maskUnits="userSpaceOnUse" x="1" y="0" width="478" height="462">
<path d="M478.367 0.757812H1V461.794H478.367V0.757812Z" fill="white"/>
</mask>
<g mask="url(#mask0_129_322)">
<path d="M478.367 0.757812H1V461.794H478.367V0.757812Z" fill="url(#paint0_linear_129_322)"/>
<mask id="mask1_129_322" style="mask-type:luminance" maskUnits="userSpaceOnUse" x="1" y="0" width="478" height="382">
<path d="M478.368 0.757812H1.00098V381.396H478.368V0.757812Z" fill="white"/>
</mask>
<g mask="url(#mask1_129_322)">
<path d="M6.66901 -122.097H-22.8154V-91.424M6.66901 -122.097V-91.424M6.66901 -122.097H36.1535M-22.8154 -91.424H6.66901M-22.8154 -91.424V-60.751M6.66901 -91.424H36.1535M6.66901 -91.424V-60.751M36.1535 -122.097V-91.424M36.1535 -122.097H65.638M36.1535 -91.424H65.638M36.1535 -91.424V-60.751M6.66901 -60.751H-22.8154M6.66901 -60.751H36.1535M6.66901 -60.751V-30.0781M-22.8154 -60.751V-30.0781M65.638 -122.097V-91.424M65.638 -122.097H95.1224M65.638 -91.424H95.1224M65.638 -91.424V-60.751M36.1535 -60.751H65.638M36.1535 -60.751V-30.0781M95.1224 -122.097V-91.424M95.1224 -122.097H124.607M95.1224 -91.424H124.607M95.1224 -91.424V-60.751M65.638 -60.751H95.1224M65.638 -60.751V-30.0781M124.607 -122.097V-91.424M124.607 -122.097H154.091M124.607 -91.424H154.091M124.607 -91.424V-60.751M95.1224 -60.751H124.607M95.1224 -60.751V-30.0781M154.091 -122.097V-91.424M154.091 -122.097H183.576M154.091 -91.424H183.576M154.091 -91.424V-60.751M124.607 -60.751H154.091M124.607 -60.751V-30.0781M183.576 -122.097V-91.424M183.576 -122.097H213.06M183.576 -91.424H213.06M183.576 -91.424V-60.751M154.091 -60.751H183.576M154.091 -60.751V-30.0781M213.06 -122.097V-91.424M213.06 -122.097H242.545M213.06 -91.424H242.545M213.06 -91.424V-60.751M183.576 -60.751H213.06M183.576 -60.751V-30.0781M242.545 -122.097V-91.424M242.545 -122.097H272.029M242.545 -91.424H272.029M242.545 -91.424V-60.751M213.06 -60.751H242.545M213.06 -60.751V-30.0781M272.029 -122.097V-91.424M272.029 -122.097H301.514M272.029 -91.424H301.514M272.029 -91.424V-60.751M242.545 -60.751H272.029M242.545 -60.751V-30.0781M301.514 -122.097V-91.424M301.514 -122.097H330.998M301.514 -91.424H330.998M301.514 -91.424V-60.751M272.029 -60.751H301.514M272.029 -60.751V-30.0781M330.998 -122.097V-91.424M330.998 -122.097H360.483M330.998 -91.424H360.483M330.998 -91.424V-60.751M301.514 -60.751H330.998M301.514 -60.751V-30.0781M360.483 -122.097V-91.424M360.483 -122.097H389.967M360.483 -91.424H389.967M360.483 -91.424V-60.751M330.998 -60.751H360.483M330.998 -60.751V-30.0781M389.967 -122.097V-91.424M389.967 -122.097H419.452M389.967 -91.424H419.452M389.967 -91.424V-60.751M360.483 -60.751H389.967M360.483 -60.751V-30.0781M419.452 -122.097V-91.424M419.452 -122.097H448.936M419.452 -91.424H448.936M419.452 -91.424V-60.751M389.967 -60.751H419.452M389.967 -60.751V-30.0781M448.936 -122.097V-91.424M448.936 -122.097H478.421V-91.424M448.936 -91.424H478.421M448.936 -91.424V-60.751M419.452 -60.751H448.936M419.452 -60.751V-30.0781M478.421 -91.424V-60.751M448.936 -60.751H478.421M448.936 -60.751V-30.0781M478.421 -60.751V-30.0781M6.66901 -30.0781H-22.8154M6.66901 -30.0781H36.1535M6.66901 -30.0781V0.594841M-22.8154 -30.0781V0.594841M36.1535 -30.0781H65.638M36.1535 -30.0781V0.594841M65.638 -30.0781H95.1224M65.638 -30.0781V0.594841M95.1224 -30.0781H124.607M95.1224 -30.0781V0.594841M124.607 -30.0781H154.091M124.607 -30.0781V0.594841M154.091 -30.0781H183.576M154.091 -30.0781V0.594841M183.576 -30.0781H213.06M183.576 -30.0781V0.594841M213.06 -30.0781H242.545M213.06 -30.0781V0.594841M242.545 -30.0781H272.029M242.545 -30.0781V0.594841M272.029 -30.0781H301.514M272.029 -30.0781V0.594841M301.514 -30.0781H330.998M301.514 -30.0781V0.594841M330.998 -30.0781H360.483M330.998 -30.0781V0.594841M360.483 -30.0781H389.967M360.483 -30.0781V0.594841M389.967 -30.0781H419.452M389.967 -30.0781V0.594841M419.452 -30.0781H448.936M419.452 -30.0781V0.594841M448.936 -30.0781H478.421M448.936 -30.0781V0.594841M478.421 -30.0781V0.594841M6.66901 0.594841H-22.8154M6.66901 0.594841H36.1535M6.66901 0.594841V31.2678M-22.8154 0.594841V31.2678M36.1535 0.594841H65.638M36.1535 0.594841V31.2678M65.638 0.594841H95.1224M65.638 0.594841V31.2678M95.1224 0.594841H124.607M95.1224 0.594841V31.2678M124.607 0.594841H154.091M124.607 0.594841V31.2678M154.091 0.594841H183.576M154.091 0.594841V31.2678M183.576 0.594841H213.06M183.576 0.594841V31.2678M213.06 0.594841H242.545M213.06 0.594841V31.2678M242.545 0.594841H272.029M242.545 0.594841V31.2678M272.029 0.594841H301.514M272.029 0.594841V31.2678M301.514 0.594841H330.998M301.514 0.594841V31.2678M330.998 0.594841H360.483M330.998 0.594841V31.2678M360.483 0.594841H389.967M360.483 0.594841V31.2678M389.967 0.594841H419.452M389.967 0.594841V31.2678M419.452 0.594841H448.936M419.452 0.594841V31.2678M448.936 0.594841H478.421M448.936 0.594841V31.2678M478.421 0.594841V31.2678M6.66901 31.2678H-22.8154M6.66901 31.2678H36.1535M6.66901 31.2678V61.9408M-22.8154 31.2678V61.9408M36.1535 31.2678H65.638M36.1535 31.2678V61.9408M65.638 31.2678H95.1224M65.638 31.2678V61.9408M95.1224 31.2678H124.607M95.1224 31.2678V61.9408M124.607 31.2678H154.091M124.607 31.2678V61.9408M154.091 31.2678H183.576M154.091 31.2678V61.9408M183.576 31.2678H213.06M183.576 31.2678V61.9408M213.06 31.2678H242.545M213.06 31.2678V61.9408M242.545 31.2678H272.029M242.545 31.2678V61.9408M272.029 31.2678H301.514M272.029 31.2678V61.9408M301.514 31.2678H330.998M301.514 31.2678V61.9408M330.998 31.2678H360.483M330.998 31.2678V61.9408M360.483 31.2678H389.967M360.483 31.2678V61.9408M389.967 31.2678H419.452M389.967 31.2678V61.9408M419.452 31.2678H448.936M419.452 31.2678V61.9408M448.936 31.2678H478.421M448.936 31.2678V61.9408M478.421 31.2678V61.9408M6.66901 61.9408H-22.8154M6.66901 61.9408H36.1535M6.66901 61.9408V92.6136M-22.8154 61.9408V92.6136M36.1535 61.9408H65.638M36.1535 61.9408V92.6136M65.638 61.9408H95.1224M65.638 61.9408V92.6136M95.1224 61.9408H124.607M95.1224 61.9408V92.6136M124.607 61.9408H154.091M124.607 61.9408V92.6136M154.091 61.9408H183.576M154.091 61.9408V92.6136M183.576 61.9408H213.06M183.576 61.9408V92.6136M213.06 61.9408H242.545M213.06 61.9408V92.6136M242.545 61.9408H272.029M242.545 61.9408V92.6136M272.029 61.9408H301.514M272.029 61.9408V92.6136M301.514 61.9408H330.998M301.514 61.9408V92.6136M330.998 61.9408H360.483M330.998 61.9408V92.6136M360.483 61.9408H389.967M360.483 61.9408V92.6136M389.967 61.9408H419.452M389.967 61.9408V92.6136M419.452 61.9408H448.936M419.452 61.9408V92.6136M448.936 61.9408H478.421M448.936 61.9408V92.6136M478.421 61.9408V92.6136M6.66901 92.6136H-22.8154M6.66901 92.6136H36.1535M6.66901 92.6136V123.287M-22.8154 92.6136V123.287M36.1535 92.6136H65.638M36.1535 92.6136V123.287M65.638 92.6136H95.1224M65.638 92.6136V123.287M95.1224 92.6136H124.607M95.1224 92.6136V123.287M124.607 92.6136H154.091M124.607 92.6136V123.287M154.091 92.6136H183.576M154.091 92.6136V123.287M183.576 92.6136H213.06M183.576 92.6136V123.287M213.06 92.6136H242.545M213.06 92.6136V123.287M242.545 92.6136H272.029M242.545 92.6136V123.287M272.029 92.6136H301.514M272.029 92.6136V123.287M301.514 92.6136H330.998M301.514 92.6136V123.287M330.998 92.6136H360.483M330.998 92.6136V123.287M360.483 92.6136H389.967M360.483 92.6136V123.287M389.967 92.6136H419.452M389.967 92.6136V123.287M419.452 92.6136H448.936M419.452 92.6136V123.287M448.936 92.6136H478.421M448.936 92.6136V123.287M478.421 92.6136V123.287M6.66901 123.287H-22.8154M6.66901 123.287H36.1535M6.66901 123.287V153.96M-22.8154 123.287V153.96M36.1535 123.287H65.638M36.1535 123.287V153.96M65.638 123.287H95.1224M65.638 123.287V153.96M95.1224 123.287H124.607M95.1224 123.287V153.96M124.607 123.287H154.091M124.607 123.287V153.96M154.091 123.287H183.576M154.091 123.287V153.96M183.576 123.287H213.06M183.576 123.287V153.96M213.06 123.287H242.545M213.06 123.287V153.96M242.545 123.287H272.029M242.545 123.287V153.96M272.029 123.287H301.514M272.029 123.287V153.96M301.514 123.287H330.998M301.514 123.287V153.96M330.998 123.287H360.483M330.998 123.287V153.96M360.483 123.287H389.967M360.483 123.287V153.96M389.967 123.287H419.452M389.967 123.287V153.96M419.452 123.287H448.936M419.452 123.287V153.96M448.936 123.287H478.421M448.936 123.287V153.96M478.421 123.287V153.96M6.66901 153.96H-22.8154M6.66901 153.96H36.1535M6.66901 153.96V184.633M-22.8154 153.96V184.633M36.1535 153.96H65.638M36.1535 153.96V184.633M65.638 153.96H95.1224M65.638 153.96V184.633M95.1224 153.96H124.607M95.1224 153.96V184.633M124.607 153.96H154.091M124.607 153.96V184.633M154.091 153.96H183.576M154.091 153.96V184.633M183.576 153.96H213.06M183.576 153.96V184.633M213.06 153.96H242.545M213.06 153.96V184.633M242.545 153.96H272.029M242.545 153.96V184.633M272.029 153.96H301.514M272.029 153.96V184.633M301.514 153.96H330.998M301.514 153.96V184.633M330.998 153.96H360.483M330.998 153.96V184.633M360.483 153.96H389.967M360.483 153.96V184.633M389.967 153.96H419.452M389.967 153.96V184.633M419.452 153.96H448.936M419.452 153.96V184.633M448.936 153.96H478.421M448.936 153.96V184.633M478.421 153.96V184.633M6.66901 184.633H-22.8154M6.66901 184.633H36.1535M6.66901 184.633V215.306M-22.8154 184.633V215.306M36.1535 184.633H65.638M36.1535 184.633V215.306M65.638 184.633H95.1224M65.638 184.633V215.306M95.1224 184.633H124.607M95.1224 184.633V215.306M124.607 184.633H154.091M124.607 184.633V215.306M154.091 184.633H183.576M154.091 184.633V215.306M183.576 184.633H213.06M183.576 184.633V215.306M213.06 184.633H242.545M213.06 184.633V215.306M242.545 184.633H272.029M242.545 184.633V215.306M272.029 184.633H301.514M272.029 184.633V215.306M301.514 184.633H330.998M301.514 184.633V215.306M330.998 184.633H360.483M330.998 184.633V215.306M360.483 184.633H389.967M360.483 184.633V215.306M389.967 184.633H419.452M389.967 184.633V215.306M419.452 184.633H448.936M419.452 184.633V215.306M448.936 184.633H478.421M448.936 184.633V215.306M478.421 184.633V215.306M6.66901 215.306H-22.8154M6.66901 215.306H36.1535M6.66901 215.306V245.979M-22.8154 215.306V245.979H6.66901M36.1535 215.306H65.638M36.1535 215.306V245.979M65.638 215.306H95.1224M65.638 215.306V245.979M95.1224 215.306H124.607M95.1224 215.306V245.979M124.607 215.306H154.091M124.607 215.306V245.979M154.091 215.306H183.576M154.091 215.306V245.979M183.576 215.306H213.06M183.576 215.306V245.979M213.06 215.306H242.545M213.06 215.306V245.979M242.545 215.306H272.029M242.545 215.306V245.979M272.029 215.306H301.514M272.029 215.306V245.979M301.514 215.306H330.998M301.514 215.306V245.979M330.998 215.306H360.483M330.998 215.306V245.979M360.483 215.306H389.967M360.483 215.306V245.979M389.967 215.306H419.452M389.967 215.306V245.979M419.452 215.306H448.936M419.452 215.306V245.979M448.936 215.306H478.421M448.936 215.306V245.979M478.421 215.306V245.979H448.936M6.66901 245.979H36.1535M36.1535 245.979H65.638M65.638 245.979H95.1224M95.1224 245.979H124.607M124.607 245.979H154.091M154.091 245.979H183.576M183.576 245.979H213.06M213.06 245.979H242.545M242.545 245.979H272.029M272.029 245.979H301.514M301.514 245.979H330.998M330.998 245.979H360.483M360.483 245.979H389.967M389.967 245.979H419.452M419.452 245.979H448.936" stroke="url(#paint1_radial_129_322)" stroke-opacity="0.1" stroke-width="1.25623"/>
<path d="M-52.1174 266.629C-67.0859 277.518 -79.421 291.627 -88.2141 307.915L-90.7355 312.586C-109.279 346.938 -109.608 388.242 -91.6116 422.884C-61.61 480.634 45.6611 693.743 103.411 663.742L558.27 427.442C601.186 405.147 581.768 161.667 559.473 118.751L529.492 61.0398C513.438 30.1375 470.543 26.7809 449.876 54.8092C443.668 63.23 434.831 69.3409 424.762 72.1761L398.135 79.6737C375.528 86.0396 357.051 102.352 347.931 123.995L344.043 133.224C331.549 162.875 299.356 179.045 268.111 171.364C239.625 164.362 209.96 177.17 195.521 202.704L191.946 209.027C180.264 229.686 159.498 243.6 135.948 246.545L107.24 250.135C94.4222 251.738 81.4385 251.459 68.7015 249.308L41.305 244.678C8.47937 239.132 -25.1966 247.044 -52.1174 266.629Z" fill="url(#paint2_radial_129_322)" fill-opacity="0.12"/>
<path d="M-51.7482 267.137C-24.9641 247.652 8.54098 239.78 41.1999 245.298L68.5964 249.927C81.3937 252.088 94.4395 252.369 107.318 250.759L136.025 247.168C159.772 244.198 180.713 230.169 192.493 209.337V209.336L196.068 203.013C210.368 177.724 239.749 165.039 267.961 171.975C299.506 179.729 332.008 163.403 344.621 133.468L348.51 124.238C357.555 102.772 375.882 86.5921 398.305 80.2779L424.932 72.7806C435.136 69.9076 444.09 63.7149 450.382 55.1817C470.772 27.5277 513.096 30.8397 528.935 61.3294L558.916 119.041C561.666 124.334 564.394 132.771 566.972 143.568C569.547 154.353 571.964 167.453 574.104 182.045C578.386 211.23 581.56 246.362 582.698 280.85C583.835 315.343 582.935 349.168 579.076 375.748C577.147 389.04 574.481 400.494 570.974 409.305C567.458 418.137 563.14 424.203 557.98 426.884L103.122 663.184C96.0952 666.834 88.2915 666.809 79.8939 663.784C71.4818 660.753 62.5064 654.722 53.2127 646.417C34.627 629.809 14.9022 604.232 -3.98302 575.871C-41.7469 519.16 -76.0488 451.479 -91.0545 422.594C-108.954 388.138 -108.627 347.053 -90.1824 312.885L-87.6611 308.214C-78.9126 292.008 -66.6406 277.971 -51.7482 267.137Z" stroke="url(#paint3_linear_129_322)" stroke-opacity="0.3" stroke-width="1.25623"/>
<mask id="mask2_129_322" style="mask-type:alpha" maskUnits="userSpaceOnUse" x="-105" y="35" width="689" height="632">
<path d="M-52.1164 266.629C-67.0849 277.519 -79.42 291.627 -88.2132 307.916L-90.7345 312.586C-109.278 346.938 -109.607 388.243 -91.6106 422.884C-61.609 480.635 45.6621 693.743 103.412 663.742L558.271 427.442C601.187 405.147 581.769 161.667 559.474 118.751L529.493 61.0399C513.439 30.1376 470.543 26.781 449.877 54.8094C443.669 63.2302 434.832 69.3411 424.763 72.1762L398.136 79.6738C375.529 86.0398 357.052 102.352 347.932 123.995L344.044 133.224C331.55 162.875 299.357 179.045 268.112 171.365C239.626 164.362 209.961 177.17 195.522 202.704L191.947 209.028C180.265 229.686 159.499 243.6 135.948 246.545L107.241 250.135C94.4231 251.739 81.4395 251.459 68.7025 249.308L41.306 244.678C8.48032 239.132 -25.1957 247.045 -52.1164 266.629Z" fill="url(#paint4_linear_129_322)" fill-opacity="0.5"/>
</mask>
<g mask="url(#mask2_129_322)">
<path d="M457.524 489.465L457.968 489.909L458.412 490.352L963.417 -14.6517L962.528 -15.5404L457.524 489.465ZM450.001 489.465L450.444 489.909L450.889 490.352L955.893 -14.6517L955.005 -15.5404L450.001 489.465ZM442.478 489.465L442.922 489.909L443.366 490.352L948.371 -14.6517L947.482 -15.5404L442.478 489.465ZM434.958 489.465L435.401 489.909L435.846 490.352L940.85 -14.6517L939.962 -15.5404L434.958 489.465ZM427.438 489.465L427.882 489.909L428.326 490.352L933.331 -14.6517L932.442 -15.5404L427.438 489.465ZM419.914 489.465L420.357 489.909L420.802 490.352L925.807 -14.6517L924.918 -15.5404L419.914 489.465ZM412.392 489.465L412.836 489.909L413.28 490.352L918.285 -14.6517L917.396 -15.5404L412.392 489.465ZM404.871 489.465L405.314 489.909L405.759 490.352L910.764 -14.6517L909.875 -15.5404L404.871 489.465ZM397.349 489.465L397.793 489.909L398.237 490.352L903.242 -14.6517L902.353 -15.5404L397.349 489.465ZM389.828 489.465L390.271 489.909L390.716 490.352L895.721 -14.6517L894.832 -15.5404L389.828 489.465ZM382.305 489.465L382.748 489.909L383.192 490.352L888.197 -14.6517L887.308 -15.5404L382.305 489.465ZM374.783 489.465L375.226 489.909L375.671 490.352L880.676 -14.6517L879.787 -15.5404L374.783 489.465ZM367.264 489.465L367.707 489.909L368.151 490.352L873.156 -14.6517L872.267 -15.5404L367.264 489.465ZM359.742 489.465L360.185 489.909L360.63 490.352L865.635 -14.6517L864.746 -15.5404L359.742 489.465ZM352.221 489.465L352.664 489.909L353.108 490.352L858.113 -14.6517L857.224 -15.5404L352.221 489.465ZM344.697 489.465L345.141 489.909L345.585 490.352L850.59 -14.6517L849.701 -15.5404L344.697 489.465ZM337.176 489.465L337.619 489.909L338.063 490.352L843.068 -14.6517L842.18 -15.5404L337.176 489.465ZM329.654 489.465L330.098 489.909L330.542 490.352L835.547 -14.6517L834.658 -15.5404L329.654 489.465ZM322.133 489.465L322.576 489.909L323.02 490.352L828.025 -14.6517L827.137 -15.5404L322.133 489.465ZM314.611 489.465L315.055 489.909L315.499 490.352L820.504 -14.6517L819.615 -15.5404L314.611 489.465ZM307.087 489.465L307.53 489.909L307.974 490.352L812.979 -14.6517L812.091 -15.5404L307.087 489.465ZM299.567 489.465L300.011 489.909L300.455 490.352L805.46 -14.6517L804.571 -15.5404L299.567 489.465ZM292.047 489.465L292.49 489.909L292.934 490.352L797.939 -14.6517L797.051 -15.5404L292.047 489.465ZM284.524 489.465L284.968 489.909L285.412 490.352L790.417 -14.6517L789.528 -15.5404L284.524 489.465ZM277.003 489.465L277.446 489.909L277.891 490.352L782.895 -14.6517L782.007 -15.5404L277.003 489.465ZM269.479 489.465L269.923 489.909L270.367 490.352L775.372 -14.6517L774.483 -15.5404L269.479 489.465ZM261.958 489.465L262.401 489.909L262.846 490.352L767.85 -14.6517L766.962 -15.5404L261.958 489.465ZM254.436 489.465L254.88 489.909L255.324 490.352L760.329 -14.6517L759.44 -15.5404L254.436 489.465ZM246.915 489.465L247.358 489.909L247.803 490.352L752.807 -14.6517L751.919 -15.5404L246.915 489.465ZM239.395 489.465L239.839 489.909L240.283 490.352L745.288 -14.6517L744.399 -15.5404L239.395 489.465ZM231.872 489.465L232.315 489.909L232.76 490.352L737.765 -14.6517L736.876 -15.5404L231.872 489.465ZM224.35 489.465L224.794 489.909L225.238 490.352L730.243 -14.6517L729.354 -15.5404L224.35 489.465ZM216.829 489.465L217.272 489.909L217.717 490.352L722.722 -14.6517L721.833 -15.5404L216.829 489.465ZM209.307 489.465L209.751 489.909L210.195 490.352L715.2 -14.6517L714.311 -15.5404L209.307 489.465ZM201.786 489.465L202.229 489.909L202.674 490.352L707.679 -14.6517L706.79 -15.5404L201.786 489.465ZM194.263 489.465L194.706 489.909L195.15 490.352L700.155 -14.6517L699.266 -15.5404L194.263 489.465ZM186.741 489.465L187.184 489.909L187.629 490.352L692.634 -14.6517L691.745 -15.5404L186.741 489.465ZM179.22 489.465L179.663 489.909L180.107 490.352L685.112 -14.6517L684.224 -15.5404L179.22 489.465ZM171.7 489.465L172.143 489.909L172.588 490.352L677.593 -14.6517L676.704 -15.5404L171.7 489.465ZM164.176 489.465L164.619 489.909L165.063 490.352L670.068 -14.6517L669.18 -15.5404L164.176 489.465ZM156.654 489.465L157.098 489.909L157.542 490.352L662.547 -14.6517L661.658 -15.5404L156.654 489.465ZM149.133 489.465L149.576 489.909L150.02 490.352L655.025 -14.6517L654.137 -15.5404L149.133 489.465ZM141.611 489.465L142.055 489.909L142.499 490.352L647.504 -14.6517L646.615 -15.5404L141.611 489.465ZM134.09 489.465L134.533 489.909L134.977 490.352L639.982 -14.6517L639.094 -15.5404L134.09 489.465ZM126.566 489.465L127.01 489.909L127.454 490.352L632.459 -14.6517L631.57 -15.5404L126.566 489.465ZM119.045 489.465L119.488 489.909L119.932 490.352L624.937 -14.6517L624.049 -15.5404L119.045 489.465ZM111.525 489.465L111.969 489.909L112.413 490.352L617.418 -14.6517L616.529 -15.5404L111.525 489.465ZM104.004 489.465L104.447 489.909L104.891 490.352L609.896 -14.6517L609.008 -15.5404L104.004 489.465ZM96.4821 489.465L96.9255 489.909L97.3698 490.352L602.375 -14.6517L601.486 -15.5404L96.4821 489.465ZM88.9587 489.465L89.402 489.909L89.8464 490.352L594.851 -14.6517L593.963 -15.5404L88.9587 489.465ZM81.4371 489.465L81.8804 489.909L82.3248 490.352L587.33 -14.6517L586.441 -15.5404L81.4371 489.465ZM73.9156 489.465L74.3591 489.909L74.8033 490.352L579.808 -14.6517L578.92 -15.5404L73.9156 489.465ZM66.3942 489.465L66.8375 489.909L67.2819 490.352L572.287 -14.6517L571.398 -15.5404L66.3942 489.465ZM58.8727 489.465L59.316 489.909L59.7604 490.352L564.766 -14.6517L563.877 -15.5404L58.8727 489.465ZM51.3503 489.465L51.7936 489.909L52.238 490.352L557.243 -14.6517L556.354 -15.5404L51.3503 489.465ZM43.8298 489.465L44.2731 489.909L44.7175 490.352L549.723 -14.6517L548.834 -15.5404L43.8298 489.465ZM36.3082 489.465L36.7516 489.909L37.196 490.352L542.201 -14.6517L541.312 -15.5404L36.3082 489.465ZM28.7858 489.465L29.2291 489.909L29.6735 490.352L534.679 -14.6517L533.79 -15.5404L28.7858 489.465ZM21.2643 489.465L21.7076 489.909L22.152 490.352L527.157 -14.6517L526.268 -15.5404L21.2643 489.465ZM13.7408 489.465L14.1841 489.909L14.6285 490.352L519.634 -14.6517L518.745 -15.5404L13.7408 489.465ZM6.21936 489.465L6.66272 489.909L7.10706 490.352L512.112 -14.6517L511.224 -15.5404L6.21936 489.465ZM-1.30212 489.465L-0.858765 489.909L-0.414429 490.352L504.591 -14.6517L503.702 -15.5404L-1.30212 489.465ZM-8.82361 489.465L-8.38025 489.909L-7.93591 490.352L497.069 -14.6517L496.181 -15.5404L-8.82361 489.465ZM-16.3431 489.465L-15.8997 489.909L-15.4554 490.352L489.55 -14.6517L488.661 -15.5404L-16.3431 489.465ZM-23.8665 489.465L-23.4232 489.909L-22.9788 490.352L482.026 -14.6517L481.138 -15.5404L-23.8665 489.465ZM-31.3881 489.465L-30.9448 489.909L-30.5004 490.352L474.505 -14.6517L473.616 -15.5404L-31.3881 489.465ZM-38.9095 489.465L-38.4662 489.909L-38.0219 490.352L466.983 -14.6517L466.095 -15.5404L-38.9095 489.465ZM-46.431 489.465L-45.9876 489.909L-45.5433 490.352L459.462 -14.6517L458.573 -15.5404L-46.431 489.465ZM-53.9525 489.465L-53.5092 489.909L-53.0648 490.352L451.94 -14.6517L451.052 -15.5404L-53.9525 489.465ZM-61.476 489.465L-61.0325 489.909L-60.5883 490.352L444.417 -14.6517L443.528 -15.5404L-61.476 489.465ZM-68.9974 489.465L-68.554 489.909L-68.1097 490.352L436.895 -14.6517L436.007 -15.5404L-68.9974 489.465ZM-76.5169 489.465L-76.0736 489.909L-75.6292 490.352L429.376 -14.6517L428.487 -15.5404L-76.5169 489.465ZM-84.0385 489.465L-83.595 489.909L-83.1508 490.352L421.854 -14.6517L420.966 -15.5404L-84.0385 489.465ZM-91.5609 489.465L-91.1176 489.909L-90.6732 490.352L414.332 -14.6517L413.443 -15.5404L-91.5609 489.465ZM-99.0842 489.465L-98.6409 489.909L-98.1967 490.352L406.808 -14.6517L405.92 -15.5404L-99.0842 489.465ZM-106.606 489.465L-106.162 489.909L-105.718 490.352L399.287 -14.6517L398.398 -15.5404L-106.606 489.465ZM-114.127 489.465L-113.684 489.909L-113.239 490.352L391.766 -14.6517L390.877 -15.5404L-114.127 489.465ZM-121.649 489.465L-121.205 489.909L-120.761 490.352L384.244 -14.6517L383.355 -15.5404L-121.649 489.465ZM-129.17 489.465L-128.727 489.909L-128.282 490.352L376.723 -14.6517L375.834 -15.5404L-129.17 489.465ZM-136.693 489.465L-136.25 489.909L-135.806 490.352L369.199 -14.6517L368.31 -15.5404L-136.693 489.465ZM-144.213 489.465L-143.77 489.909L-143.325 490.352L361.68 -14.6517L360.791 -15.5404L-144.213 489.465ZM-151.734 489.465L-151.291 489.909L-150.847 490.352L354.158 -14.6517L353.269 -15.5404L-151.734 489.465ZM-159.256 489.465L-158.813 489.909L-158.368 490.352L346.637 -14.6517L345.748 -15.5404L-159.256 489.465ZM-166.779 489.465L-166.336 489.909L-165.892 490.352L339.113 -14.6517L338.224 -15.5404L-166.779 489.465ZM-174.301 489.465L-173.858 489.909L-173.413 490.352L331.592 -14.6517L330.703 -15.5404L-174.301 489.465ZM-181.822 489.465L-181.379 489.909L-180.935 490.352L324.07 -14.6517L323.182 -15.5404L-181.822 489.465ZM-189.344 489.465L-188.901 489.909L-188.456 490.352L316.549 -14.6517L315.66 -15.5404L-189.344 489.465ZM-196.865 489.465L-196.422 489.909L-195.978 490.352L309.027 -14.6517L308.139 -15.5404L-196.865 489.465ZM-204.387 489.465L-203.943 489.909L-203.499 490.352L301.506 -14.6517L300.617 -15.5404L-204.387 489.465ZM-211.909 489.465L-211.466 489.909L-211.022 490.352L293.983 -14.6517L293.095 -15.5404L-211.909 489.465ZM-219.431 489.465L-218.987 489.909L-218.543 490.352L286.462 -14.6517L285.573 -15.5404L-219.431 489.465ZM-226.952 489.465L-226.509 489.909L-226.065 490.352L278.94 -14.6517L278.052 -15.5404L-226.952 489.465ZM-234.473 489.465L-234.029 489.909L-233.585 490.352L271.42 -14.6517L270.531 -15.5404L-234.473 489.465ZM-241.997 489.465L-241.554 489.909L-241.109 490.352L263.895 -14.6517L263.007 -15.5404L-241.997 489.465ZM-249.519 489.465L-249.075 489.909L-248.631 490.352L256.374 -14.6517L255.485 -15.5404L-249.519 489.465ZM-257.04 489.465L-256.597 489.909L-256.152 490.352L248.852 -14.6517L247.964 -15.5404L-257.04 489.465ZM-264.562 489.465L-264.118 489.909L-263.674 490.352L241.331 -14.6517L240.442 -15.5404L-264.562 489.465ZM-272.081 489.465L-271.638 489.909L-271.193 490.352L233.811 -14.6517L232.923 -15.5404L-272.081 489.465ZM-279.605 489.465L-279.161 489.909L-278.717 490.352L226.288 -14.6517L225.399 -15.5404L-279.605 489.465ZM-287.126 489.465L-286.683 489.909L-286.238 490.352L218.766 -14.6517L217.878 -15.5404L-287.126 489.465ZM-294.648 489.465L-294.204 489.909L-293.76 490.352L211.245 -14.6517L210.356 -15.5404L-294.648 489.465ZM-302.169 489.465L-301.726 489.909L-301.281 490.352L203.724 -14.6517L202.835 -15.5404L-302.169 489.465ZM-309.691 489.465L-309.247 489.909L-308.803 490.352L196.202 -14.6517L195.313 -15.5404L-309.691 489.465ZM-317.214 489.465L-316.771 489.909L-316.326 490.352L188.679 -14.6517L187.79 -15.5404L-317.214 489.465ZM-324.735 489.465L-324.292 489.909L-323.848 490.352L181.157 -14.6517L180.268 -15.5404L-324.735 489.465ZM-332.255 489.465L-331.812 489.909L-331.367 490.352L173.638 -14.6517L172.749 -15.5404L-332.255 489.465ZM-339.776 489.465L-339.333 489.909L-338.889 490.352L166.116 -14.6517L165.227 -15.5404L-339.776 489.465ZM-347.298 489.465L-346.855 489.909L-346.41 490.352L158.595 -14.6517L157.706 -15.5404L-347.298 489.465ZM-354.822 489.465L-354.379 489.909L-353.935 490.352L151.07 -14.6517L150.182 -15.5404L-354.822 489.465ZM-362.344 489.465L-361.901 489.909L-361.456 490.352L143.549 -14.6517L142.66 -15.5404L-362.344 489.465ZM-369.865 489.465L-369.422 489.909L-368.978 490.352L136.027 -14.6517L135.139 -15.5404L-369.865 489.465ZM-377.387 489.465L-376.943 489.909L-376.499 490.352L128.506 -14.6517L127.617 -15.5404L-377.387 489.465ZM-384.91 489.465L-384.467 489.909L-384.023 490.352L120.982 -14.6517L120.094 -15.5404L-384.91 489.465ZM-392.43 489.465L-391.986 489.909L-391.542 490.352L113.463 -14.6517L112.574 -15.5404L-392.43 489.465ZM-399.951 489.465L-399.508 489.909L-399.064 490.352L105.941 -14.6517L105.053 -15.5404L-399.951 489.465ZM-407.473 489.465L-407.029 489.909L-406.585 490.352L98.4196 -14.6517L97.5309 -15.5404L-407.473 489.465ZM-414.994 489.465L-414.551 489.909L-414.107 490.352L90.8981 -14.6517L90.0093 -15.5404L-414.994 489.465ZM-422.518 489.465L-422.074 489.909L-421.63 490.352L83.3746 -14.6517L82.486 -15.5404L-422.518 489.465ZM-430.039 489.465L-429.596 489.909L-429.151 490.352L75.8531 -14.6517L74.9645 -15.5404L-430.039 489.465ZM-437.561 489.465L-437.117 489.909L-436.673 490.352L68.3317 -14.6517L67.4429 -15.5404L-437.561 489.465ZM-445.082 489.465L-444.639 489.909L-444.194 490.352L60.8102 -14.6517L59.9216 -15.5404L-445.082 489.465ZM-452.604 489.465L-452.16 489.909L-451.716 490.352L53.2886 -14.6517L52.4 -15.5404L-452.604 489.465ZM-460.125 489.465L-459.682 489.909L-459.237 490.352L45.7673 -14.6517L44.8785 -15.5404L-460.125 489.465ZM-467.647 489.465L-467.203 489.909L-466.759 490.352L38.2457 -14.6517L37.3571 -15.5404L-467.647 489.465ZM-475.168 489.465L-474.725 489.909L-474.28 490.352L30.7242 -14.6517L29.8356 -15.5404L-475.168 489.465ZM-482.69 489.465L-482.246 489.909L-481.802 490.352L23.2028 -14.6517L22.3141 -15.5404L-482.69 489.465ZM-490.212 489.465L-489.769 489.909L-489.324 490.352L15.6802 -14.6517L14.7916 -15.5404L-490.212 489.465ZM-497.735 489.465L-497.292 489.909L-496.848 490.352L8.15686 -14.6517L7.26819 -15.5404L-497.735 489.465ZM-505.257 489.465L-504.814 489.909L-504.369 490.352L0.635376 -14.6517L-0.253296 -15.5404L-505.257 489.465ZM-512.778 489.465L-512.335 489.909L-511.891 490.352L-6.88611 -14.6517L-7.77478 -15.5404L-512.778 489.465ZM-520.298 489.465L-519.855 489.909L-519.41 490.352L-14.4056 -14.6517L-15.2944 -15.5404L-520.298 489.465ZM-527.819 489.465L-527.376 489.909L-526.932 490.352L-21.9271 -14.6517L-22.8159 -15.5404L-527.819 489.465ZM-535.343 489.465L-534.9 489.909L-534.455 490.352L-29.4506 -14.6517L-30.3392 -15.5404L-535.343 489.465ZM-542.864 489.465L-542.421 489.909L-541.977 490.352L-36.972 -14.6517L-37.8607 -15.5404L-542.864 489.465ZM-550.386 489.465L-549.943 489.909L-549.498 490.352L-44.4935 -14.6517L-45.3822 -15.5404L-550.386 489.465Z" fill="url(#paint5_linear_129_322)" fill-opacity="0.5"/>
</g>
<path d="M-51.7482 267.137C-24.9641 247.652 8.54098 239.78 41.1999 245.298L68.5964 249.927C81.3937 252.088 94.4395 252.369 107.318 250.759L136.025 247.168C159.772 244.198 180.713 230.169 192.493 209.337V209.336L196.068 203.013C210.368 177.724 239.749 165.039 267.961 171.975C299.506 179.729 332.008 163.403 344.621 133.468L348.51 124.238C357.555 102.772 375.882 86.5921 398.305 80.2779L424.932 72.7806C435.136 69.9076 444.09 63.7149 450.382 55.1817C470.772 27.5277 513.096 30.8397 528.935 61.3294L558.916 119.041C561.666 124.334 564.394 132.771 566.972 143.568C569.547 154.353 571.964 167.453 574.104 182.045C578.386 211.23 581.56 246.362 582.698 280.85C583.835 315.343 582.935 349.168 579.076 375.748C577.147 389.04 574.481 400.494 570.974 409.305C567.458 418.137 563.14 424.203 557.98 426.884L103.122 663.184C96.0952 666.834 88.2915 666.809 79.8939 663.784C71.4818 660.753 62.5064 654.722 53.2127 646.417C34.627 629.809 14.9022 604.232 -3.98302 575.871C-41.7469 519.16 -76.0488 451.479 -91.0545 422.594C-108.954 388.138 -108.627 347.053 -90.1824 312.885L-87.6611 308.214C-78.9126 292.008 -66.6406 277.971 -51.7482 267.137Z" stroke="url(#paint6_linear_129_322)" stroke-opacity="0.3" stroke-width="1.25623"/>
<path d="M197.881 223.933C197.881 215.607 191.132 208.858 182.807 208.858C174.481 208.858 167.732 215.607 167.732 223.933V380.889C167.732 389.215 174.481 395.964 182.807 395.964C191.132 395.964 197.881 389.215 197.881 380.889V223.933Z" fill="url(#paint7_linear_129_322)" fill-opacity="0.1"/>
<path opacity="0.2" d="M182.807 236.495C189.745 236.495 195.369 230.871 195.369 223.933C195.369 216.995 189.745 211.37 182.807 211.37C175.869 211.37 170.245 216.995 170.245 223.933C170.245 230.871 175.869 236.495 182.807 236.495Z" fill="#F3BB2B"/>
<path d="M182.793 228.942C185.568 228.942 187.818 226.692 187.818 223.917C187.818 221.142 185.568 218.892 182.793 218.892C180.018 218.892 177.768 221.142 177.768 223.917C177.768 226.692 180.018 228.942 182.793 228.942Z" fill="#CCD8FF"/>
<path d="M182.807 227.701V393.451" stroke="url(#paint8_linear_129_322)" stroke-width="0.628115" stroke-dasharray="5.02 5.02"/>
<path d="M478.369 241.452H1.00195V380.894H478.369V241.452Z" fill="url(#paint9_linear_129_322)"/>
</g>
</g>
</g>
</g>
<defs>
<linearGradient id="paint0_linear_129_322" x1="239.684" y1="0.757812" x2="239.684" y2="461.794" gradientUnits="userSpaceOnUse">
<stop/>
<stop offset="1" stop-opacity="0"/>
</linearGradient>
<radialGradient id="paint1_radial_129_322" cx="0" cy="0" r="1" gradientUnits="userSpaceOnUse" gradientTransform="translate(159.338 -21.5985) rotate(75.6275) scale(275.816 398.293)">
<stop stop-color="#FFE6A7"/>
<stop offset="0.883515" stop-color="#FFE6A7" stop-opacity="0"/>
</radialGradient>
<radialGradient id="paint2_radial_129_322" cx="0" cy="0" r="1" gradientUnits="userSpaceOnUse" gradientTransform="translate(256.812 136.516) rotate(96.5706) scale(225.601 290.058)">
<stop offset="0.190476" stop-color="#F3BB2B"/>
<stop offset="1" stop-color="#F3BB2B" stop-opacity="0"/>
</radialGradient>
<linearGradient id="paint3_linear_129_322" x1="449.734" y1="14.5136" x2="121.387" y2="571.001" gradientUnits="userSpaceOnUse">
<stop stop-color="#F3BB2B"/>
<stop offset="0.665361" stop-color="#F3BB2B" stop-opacity="0"/>
</linearGradient>
<linearGradient id="paint4_linear_129_322" x1="170.777" y1="149.273" x2="366.926" y2="526.846" gradientUnits="userSpaceOnUse">
<stop stop-color="white"/>
<stop offset="0.705884" stop-color="white" stop-opacity="0"/>
</linearGradient>
<linearGradient id="paint5_linear_129_322" x1="709.75" y1="-129.229" x2="7.69003" y2="457.101" gradientUnits="userSpaceOnUse">
<stop stop-color="white"/>
<stop offset="0.7583" stop-color="white" stop-opacity="0"/>
</linearGradient>
<linearGradient id="paint6_linear_129_322" x1="449.734" y1="14.5136" x2="121.387" y2="571.001" gradientUnits="userSpaceOnUse">
<stop stop-color="#F3BB2B"/>
<stop offset="0.665361" stop-color="#F3BB2B" stop-opacity="0"/>
</linearGradient>
<linearGradient id="paint7_linear_129_322" x1="182.807" y1="208.858" x2="182.807" y2="395.964" gradientUnits="userSpaceOnUse">
<stop stop-color="white"/>
<stop offset="0.69326" stop-color="white" stop-opacity="0"/>
</linearGradient>
<linearGradient id="paint8_linear_129_322" x1="-nan" y1="-nan" x2="-nan" y2="-nan" gradientUnits="userSpaceOnUse">
<stop stop-color="#F3BB2B"/>
<stop offset="0.559801" stop-color="#F3BB2B" stop-opacity="0"/>
</linearGradient>
<linearGradient id="paint9_linear_129_322" x1="239.686" y1="241.452" x2="239.686" y2="380.894" gradientUnits="userSpaceOnUse">
<stop stop-color="#0D0900" stop-opacity="0"/>
<stop offset="1" stop-color="#0A0A0A"/>
</linearGradient>
<clipPath id="clip0_129_322">
<rect width="478" height="462" fill="white"/>
</clipPath>
<clipPath id="clip1_129_322">
<rect width="478" height="462" fill="white" transform="translate(1)"/>
</clipPath>
</defs>
</svg>
