<svg width="478" height="462" viewBox="0 0 478 462" fill="none" xmlns="http://www.w3.org/2000/svg">
<g clip-path="url(#clip0_129_136)">
<mask id="mask0_129_136" style="mask-type:luminance" maskUnits="userSpaceOnUse" x="0" y="0" width="478" height="462">
<path d="M477.683 0.0317383H0.316406V461.068H477.683V0.0317383Z" fill="white"/>
</mask>
<g mask="url(#mask0_129_136)">
<path d="M477.683 0.0317383H0.316406V461.068H477.683V0.0317383Z" fill="url(#paint0_linear_129_136)"/>
<g opacity="0.8">
<path d="M211.43 192.671C211.349 192.671 211.27 192.628 211.226 192.553C211.162 192.44 211.2 192.296 211.312 192.231L232.708 179.878C233.901 179.189 235.382 179.192 236.571 179.883L257.819 192.231C257.931 192.297 257.969 192.441 257.903 192.553C257.838 192.666 257.695 192.703 257.581 192.639L236.334 180.29C235.292 179.683 233.992 179.68 232.943 180.285L211.548 192.639C211.511 192.66 211.471 192.671 211.43 192.671Z" fill="#DBDEE4"/>
<path d="M274.787 161.528C274.706 161.528 274.627 161.486 274.584 161.411C274.518 161.298 274.556 161.154 274.668 161.089L341.573 122.205C341.685 122.14 341.829 122.177 341.895 122.29C341.96 122.402 341.922 122.547 341.81 122.612L274.906 161.496C274.868 161.518 274.828 161.528 274.787 161.528Z" fill="#DBDEE4"/>
<path d="M279.007 162.258C280.71 161.275 280.72 159.68 279.028 158.696C277.336 157.713 274.582 157.713 272.879 158.697C271.175 159.68 271.167 161.274 272.859 162.258C274.551 163.241 277.304 163.242 279.007 162.258Z" fill="white"/>
<path d="M275.93 163.226C274.774 163.226 273.619 162.971 272.741 162.461C271.85 161.944 271.359 161.241 271.36 160.483C271.361 159.72 271.859 159.013 272.761 158.493C274.528 157.472 277.391 157.473 279.147 158.492C280.037 159.01 280.528 159.713 280.527 160.471C280.525 161.234 280.027 161.941 279.125 162.462C278.243 162.971 277.085 163.226 275.93 163.226ZM275.958 158.192C274.887 158.192 273.815 158.428 272.997 158.9C272.246 159.334 271.832 159.896 271.831 160.483C271.83 161.066 272.238 161.624 272.979 162.054C274.601 162.998 277.254 162.998 278.889 162.054C279.64 161.62 280.055 161.058 280.056 160.47C280.057 159.887 279.649 159.329 278.91 158.9C278.098 158.428 277.029 158.192 275.958 158.192Z" fill="#DBDEE4"/>
<path d="M275.953 159.354C275.289 159.354 274.647 159.505 274.19 159.769C273.823 159.98 273.613 160.24 273.613 160.482C273.613 160.721 273.819 160.978 274.179 161.187C274.631 161.45 275.271 161.601 275.935 161.601C276.598 161.601 277.24 161.45 277.696 161.186C278.063 160.974 278.274 160.714 278.274 160.472C278.274 160.233 278.068 159.977 277.709 159.768C277.256 159.505 276.616 159.354 275.953 159.354Z" fill="#A68B46"/>
<path d="M290.947 150.82C290.234 150.82 289.543 150.982 289.053 151.265C288.659 151.492 288.434 151.772 288.433 152.031C288.433 152.288 288.654 152.563 289.041 152.788C289.527 153.071 290.214 153.233 290.926 153.233C291.639 153.233 292.329 153.07 292.818 152.788C293.212 152.56 293.439 152.281 293.439 152.021C293.439 151.764 293.218 151.489 292.832 151.264C292.346 150.982 291.659 150.82 290.947 150.82Z" fill="#373B42"/>
<path d="M209.486 239.462C209.445 239.462 209.405 239.452 209.367 239.431L142.463 200.546C142.351 200.481 142.313 200.337 142.378 200.224C142.443 200.111 142.587 200.074 142.7 200.139L209.604 239.023C209.717 239.088 209.754 239.233 209.689 239.345C209.646 239.421 209.567 239.462 209.486 239.462Z" fill="#DBDEE4"/>
<path d="M193.325 228.754C194.039 228.754 194.729 228.916 195.219 229.199C195.613 229.427 195.839 229.706 195.839 229.965C195.839 230.222 195.618 230.498 195.231 230.722C194.745 231.005 194.058 231.167 193.346 231.167C192.633 231.167 191.944 231.005 191.454 230.722C191.06 230.494 190.833 230.215 190.833 229.955C190.833 229.699 191.054 229.423 191.44 229.198C191.926 228.916 192.613 228.754 193.325 228.754Z" fill="#373B42"/>
<path d="M180.301 303.437C179.927 303.437 179.554 303.34 179.221 303.147L157.119 290.301C157.007 290.236 156.969 290.092 157.034 289.979C157.099 289.866 157.242 289.828 157.356 289.894L179.458 302.739C179.975 303.041 180.62 303.042 181.139 302.742L216.86 282.264C216.972 282.199 217.116 282.239 217.181 282.351C217.245 282.465 217.207 282.609 217.093 282.673L181.374 303.15C181.042 303.341 180.672 303.437 180.301 303.437Z" fill="#DBDEE4"/>
<path d="M295.566 292.088C295.484 292.088 295.405 292.045 295.362 291.97C295.298 291.856 295.336 291.713 295.449 291.648L315.848 280.002C316.222 279.787 316.446 279.399 316.447 278.966C316.447 278.533 316.225 278.145 315.85 277.927L266.023 248.968C265.911 248.903 265.873 248.759 265.938 248.646C266.003 248.533 266.146 248.496 266.26 248.561L316.087 277.52C316.608 277.823 316.919 278.364 316.918 278.967C316.917 279.57 316.604 280.11 316.083 280.411L295.683 292.058C295.646 292.078 295.606 292.088 295.566 292.088Z" fill="#DBDEE4"/>
<path d="M350.06 281.788C350.019 281.788 349.979 281.778 349.941 281.757L283.037 242.873C282.924 242.807 282.887 242.663 282.952 242.551C283.016 242.437 283.16 242.4 283.274 242.465L350.178 281.349C350.29 281.414 350.328 281.559 350.263 281.671C350.22 281.747 350.141 281.788 350.06 281.788Z" fill="#DBDEE4"/>
<path d="M345.839 282.519C344.136 281.536 344.126 279.941 345.818 278.957C347.511 277.974 350.265 277.975 351.968 278.958C353.671 279.941 353.679 281.536 351.987 282.519C350.295 283.502 347.542 283.503 345.839 282.519Z" fill="white"/>
<path d="M348.917 283.487C347.761 283.487 346.604 283.233 345.722 282.723C344.819 282.202 344.322 281.495 344.32 280.732C344.319 279.974 344.809 279.271 345.7 278.753C347.455 277.734 350.319 277.734 352.085 278.754C352.988 279.274 353.485 279.981 353.486 280.744C353.487 281.502 352.997 282.204 352.106 282.722C351.228 283.233 350.072 283.487 348.917 283.487ZM348.888 278.453C347.818 278.453 346.749 278.689 345.937 279.161C345.197 279.591 344.79 280.149 344.791 280.731C344.792 281.319 345.207 281.882 345.957 282.315C347.592 283.258 350.242 283.26 351.868 282.315C352.609 281.885 353.016 281.328 353.015 280.745C353.014 280.157 352.6 279.595 351.85 279.161C351.032 278.689 349.959 278.453 348.888 278.453Z" fill="#DBDEE4"/>
<path d="M348.894 279.615C349.557 279.615 350.2 279.766 350.657 280.029C351.023 280.241 351.234 280.501 351.234 280.743C351.234 280.981 351.028 281.238 350.668 281.448C350.215 281.711 349.575 281.861 348.912 281.861C348.249 281.861 347.607 281.71 347.151 281.447C346.784 281.235 346.573 280.975 346.573 280.733C346.572 280.494 346.779 280.237 347.138 280.028C347.591 279.765 348.23 279.615 348.894 279.615Z" fill="#A68B46"/>
<path d="M333.9 271.081C334.613 271.081 335.303 271.243 335.794 271.526C336.187 271.754 336.413 272.033 336.414 272.292C336.414 272.549 336.193 272.825 335.806 273.049C335.32 273.332 334.633 273.494 333.92 273.494C333.208 273.494 332.518 273.332 332.028 273.049C331.634 272.821 331.408 272.542 331.408 272.282C331.407 272.026 331.629 271.75 332.015 271.525C332.501 271.243 333.188 271.081 333.9 271.081Z" fill="#373B42"/>
<path d="M298.779 293.24C300.483 292.257 300.492 290.662 298.8 289.679C297.108 288.695 294.354 288.696 292.651 289.679C290.948 290.662 290.94 292.257 292.632 293.24C294.324 294.223 297.076 294.224 298.779 293.24Z" fill="white"/>
<path d="M295.702 294.209C294.546 294.209 293.391 293.954 292.513 293.444C291.621 292.926 291.132 292.223 291.133 291.465C291.134 290.703 291.631 289.996 292.533 289.475C294.299 288.455 297.164 288.456 298.919 289.475C299.81 289.993 300.3 290.695 300.298 291.453C300.297 292.216 299.8 292.923 298.897 293.444C298.015 293.954 296.858 294.209 295.702 294.209ZM295.731 289.174C294.659 289.174 293.587 289.41 292.769 289.883C292.018 290.317 291.605 290.879 291.604 291.466C291.603 292.048 292.01 292.606 292.75 293.037C294.373 293.979 297.024 293.98 298.662 293.037C299.412 292.603 299.826 292.04 299.827 291.453C299.828 290.87 299.422 290.312 298.682 289.882C297.871 289.411 296.801 289.174 295.731 289.174Z" fill="#DBDEE4"/>
<path d="M295.725 290.336C295.061 290.336 294.419 290.487 293.962 290.751C293.595 290.962 293.385 291.222 293.385 291.464C293.384 291.703 293.591 291.96 293.951 292.169C294.403 292.432 295.043 292.583 295.706 292.583C296.37 292.583 297.012 292.431 297.468 292.168C297.835 291.956 298.045 291.696 298.046 291.454C298.046 291.215 297.84 290.959 297.481 290.75C297.028 290.487 296.388 290.336 295.725 290.336Z" fill="#A68B46"/>
<path d="M307.592 283.666C306.879 283.666 306.189 283.828 305.699 284.111C305.305 284.339 305.079 284.618 305.079 284.877C305.078 285.134 305.3 285.41 305.686 285.634C306.173 285.917 306.86 286.079 307.572 286.079C308.284 286.079 308.974 285.917 309.464 285.634C309.858 285.406 310.084 285.127 310.084 284.867C310.085 284.611 309.863 284.335 309.477 284.11C308.991 283.828 308.304 283.666 307.592 283.666Z" fill="#373B42"/>
<path d="M212 139.317C211.919 139.317 211.84 139.275 211.795 139.2C211.731 139.087 211.77 138.943 211.882 138.878L235.092 125.477C235.202 125.411 235.348 125.45 235.414 125.563C235.478 125.675 235.44 125.819 235.328 125.884L212.117 139.286C212.081 139.307 212.04 139.317 212 139.317Z" fill="#DBDEE4"/>
<path d="M289.353 117.801C289.312 117.801 289.272 117.791 289.234 117.769L267.756 105.286C266.856 104.761 265.733 104.76 264.828 105.282L243.201 117.769C243.089 117.834 242.944 117.796 242.879 117.683C242.814 117.57 242.853 117.426 242.965 117.362L264.592 104.874C265.643 104.267 266.945 104.271 267.993 104.878L289.471 117.362C289.584 117.427 289.621 117.571 289.556 117.684C289.513 117.759 289.434 117.801 289.353 117.801Z" fill="#DBDEE4"/>
<path d="M348.957 182.634C348.916 182.634 348.876 182.624 348.838 182.602L312.161 161.286C311.707 161.021 311.436 160.549 311.437 160.023C311.437 159.497 311.71 159.026 312.165 158.763L349.091 137.442C349.2 137.377 349.347 137.415 349.413 137.528C349.477 137.641 349.439 137.785 349.326 137.85L312.401 159.171C312.092 159.349 311.908 159.668 311.908 160.024C311.907 160.38 312.091 160.7 312.399 160.879L349.075 182.195C349.188 182.26 349.225 182.404 349.16 182.516C349.117 182.592 349.038 182.634 348.957 182.634Z" fill="#DBDEE4"/>
<path d="M345.502 183.433C343.799 182.45 343.789 180.854 345.481 179.871C347.173 178.888 349.927 178.888 351.63 179.871C353.334 180.855 353.342 182.449 351.65 183.432C349.958 184.416 347.205 184.416 345.502 183.433Z" fill="white"/>
<path d="M348.579 184.402C347.423 184.402 346.266 184.147 345.384 183.637C344.482 183.116 343.984 182.409 343.983 181.646C343.982 180.888 344.471 180.185 345.362 179.667C347.117 178.648 349.982 178.648 351.748 179.668C352.65 180.189 353.147 180.895 353.148 181.658C353.149 182.416 352.66 183.118 351.768 183.636C350.89 184.146 349.735 184.402 348.579 184.402ZM348.55 179.367C347.481 179.367 346.412 179.603 345.599 180.075C344.86 180.505 344.453 181.062 344.454 181.645C344.455 182.233 344.869 182.796 345.62 183.23C347.253 184.173 349.907 184.174 351.531 183.229C352.272 182.799 352.678 182.241 352.677 181.658C352.676 181.071 352.263 180.509 351.513 180.076C350.695 179.604 349.622 179.367 348.55 179.367Z" fill="#DBDEE4"/>
<path d="M348.556 180.529C349.22 180.529 349.862 180.68 350.319 180.944C350.685 181.155 350.896 181.415 350.896 181.657C350.896 181.895 350.69 182.152 350.33 182.362C349.877 182.625 349.237 182.775 348.574 182.775C347.911 182.775 347.269 182.624 346.813 182.361C346.446 182.149 346.235 181.889 346.235 181.647C346.235 181.408 346.441 181.151 346.8 180.942C347.253 180.68 347.892 180.529 348.556 180.529Z" fill="#A68B46"/>
<path d="M333.563 171.995C334.276 171.995 334.966 172.157 335.456 172.44C335.85 172.667 336.076 172.947 336.076 173.206C336.077 173.462 335.855 173.738 335.468 173.963C334.982 174.245 334.295 174.407 333.583 174.407C332.87 174.407 332.181 174.245 331.691 173.962C331.297 173.735 331.071 173.455 331.07 173.196C331.07 172.939 331.291 172.663 331.678 172.439C332.163 172.157 332.85 171.995 333.563 171.995Z" fill="#373B42"/>
<path d="M277.883 123.629C276.792 124.259 276.786 125.274 277.87 125.904L350.331 168.005C351.415 168.635 353.174 168.639 354.265 168.009L358.337 165.658C359.428 165.028 359.434 164.005 358.35 163.375L285.889 121.274C284.805 120.644 283.046 120.648 281.955 121.278L277.883 123.629Z" fill="#F0F2F5"/>
<g opacity="0.1">
<path d="M356.143 234.284C359.11 235.997 359.126 238.769 356.178 240.482L250.123 302.115C247.176 303.827 242.389 303.827 239.423 302.115L183.883 270.049C180.917 268.336 180.901 265.564 183.848 263.851L289.904 202.218C292.851 200.505 297.637 200.505 300.604 202.218L356.143 234.284Z" fill="black"/>
</g>
<path d="M182.392 262.251C182.392 263.369 183.14 264.503 184.628 265.359L240.175 297.424C241.069 297.94 242.126 298.303 243.252 298.503C243.976 298.642 244.74 298.711 245.496 298.711C246.251 298.711 246.999 298.65 247.732 298.519C248.881 298.318 249.961 297.956 250.863 297.424L356.921 235.792C358.394 234.944 359.126 233.834 359.126 232.723L359.157 219.783C359.157 220.901 358.425 222.019 356.959 222.86L250.902 284.499C249.984 285.039 248.897 285.401 247.732 285.594C246.999 285.725 246.251 285.779 245.496 285.779C244.74 285.779 243.984 285.71 243.252 285.571C242.133 285.37 241.085 285.008 240.198 284.499L184.667 252.434C183.171 251.563 182.43 250.444 182.43 249.303L182.392 262.251Z" fill="#DBDEE4"/>
<path d="M243.251 285.57V298.503C243.976 298.642 244.74 298.711 245.496 298.711C246.251 298.711 246.999 298.649 247.732 298.518V285.594C246.999 285.725 246.251 285.779 245.496 285.779C244.74 285.779 243.984 285.709 243.251 285.57Z" fill="#F0F2F5"/>
<path d="M245.542 298.946C245.526 298.946 245.511 298.946 245.494 298.946C243.451 298.939 241.519 298.471 240.055 297.631L184.51 265.564C182.992 264.693 182.156 263.515 182.156 262.247L182.19 249.303C182.19 249.173 182.296 249.068 182.426 249.068C182.556 249.068 182.661 249.173 182.661 249.303C182.661 250.391 183.415 251.429 184.782 252.227L240.318 284.293C241.705 285.093 243.544 285.538 245.496 285.545C245.51 285.545 245.525 285.545 245.54 285.545C247.536 285.545 249.396 285.101 250.782 284.293L356.838 222.66C358.179 221.892 358.917 220.876 358.924 219.798V219.784C358.924 219.654 359.03 219.549 359.159 219.549C359.29 219.549 359.395 219.655 359.395 219.784V219.785C359.395 219.789 359.395 219.794 359.395 219.799L359.36 232.722C359.36 233.97 358.536 235.134 357.04 235.997L250.985 297.63C249.531 298.479 247.599 298.946 245.542 298.946ZM182.657 250.895L182.627 262.247C182.627 263.339 183.38 264.372 184.745 265.156L240.291 297.223C241.684 298.023 243.533 298.468 245.496 298.475C245.511 298.475 245.527 298.475 245.543 298.475C247.517 298.475 249.364 298.031 250.748 297.223L356.803 235.59C358.148 234.814 358.889 233.795 358.889 232.721L358.919 221.39C358.529 222.02 357.905 222.592 357.074 223.068L251.019 284.7C249.552 285.556 247.585 286.042 245.494 286.016C243.461 286.009 241.539 285.542 240.083 284.7L184.546 252.634C183.691 252.136 183.052 251.543 182.657 250.895Z" fill="#373B42"/>
<path d="M188.149 267.629C188.019 267.629 187.914 267.523 187.914 267.393V254.444C187.914 254.314 188.019 254.208 188.149 254.208C188.279 254.208 188.385 254.314 188.385 254.444V267.393C188.385 267.523 188.279 267.629 188.149 267.629Z" fill="#373B42"/>
<path d="M331.988 243.318C331.996 243.858 332.181 244.244 332.487 244.422L333.621 245.081C333.315 244.896 333.129 244.517 333.121 243.977C333.121 242.889 333.887 241.568 334.83 241.019L343.083 236.255C343.567 235.981 343.994 235.957 344.308 236.134L343.175 235.475C342.861 235.298 342.434 235.322 341.95 235.596L333.696 240.36C332.753 240.908 331.988 242.23 331.988 243.318Z" fill="#373B42"/>
<path d="M333.621 245.317C333.58 245.317 333.54 245.307 333.502 245.285L332.369 244.626C331.981 244.401 331.762 243.938 331.752 243.322C331.752 243.32 331.752 243.318 331.752 243.318C331.752 242.14 332.555 240.752 333.578 240.157L341.832 235.392C342.371 235.087 342.888 235.044 343.29 235.271L344.427 235.931C344.538 235.996 344.576 236.139 344.512 236.251C344.448 236.364 344.304 236.403 344.192 236.34C343.941 236.197 343.589 236.24 343.199 236.46L334.947 241.224C334.071 241.733 333.357 242.969 333.357 243.977C333.362 244.411 333.499 244.733 333.743 244.88C333.854 244.947 333.89 245.091 333.823 245.201C333.779 245.275 333.701 245.317 333.621 245.317ZM332.223 243.316C332.231 243.759 332.366 244.08 332.605 244.218L332.931 244.407C332.903 244.275 332.888 244.132 332.886 243.981C332.886 242.799 333.688 241.411 334.711 240.816L342.966 236.052C343.106 235.972 343.244 235.911 343.379 235.867L343.056 235.679C342.808 235.538 342.455 235.581 342.066 235.801L333.814 240.564C332.937 241.074 332.224 242.308 332.223 243.316Z" fill="#373B42"/>
<path d="M334.831 241.021C333.885 241.568 333.12 242.892 333.124 243.979C333.127 245.067 333.896 245.506 334.842 244.959L343.098 240.192C344.044 239.645 344.808 238.322 344.805 237.234C344.802 236.146 344.033 235.708 343.086 236.254L334.831 241.021Z" fill="white"/>
<path d="M334.073 245.431C333.869 245.431 333.679 245.382 333.509 245.285C333.11 245.055 332.89 244.592 332.888 243.98C332.885 242.799 333.687 241.41 334.714 240.817L342.968 236.05C343.502 235.742 344.017 235.697 344.42 235.928C344.818 236.158 345.039 236.621 345.041 237.233C345.044 238.413 344.242 239.802 343.215 240.396L334.96 245.163C334.652 245.341 334.35 245.431 334.073 245.431ZM343.854 236.254C343.66 236.254 343.439 236.323 343.204 236.458L334.949 241.225C334.07 241.733 333.356 242.968 333.359 243.979C333.36 244.415 333.497 244.734 333.744 244.876C333.994 245.02 334.342 244.976 334.725 244.755L342.979 239.988C343.859 239.48 344.573 238.244 344.57 237.234C344.568 236.798 344.432 236.479 344.184 236.337C344.088 236.281 343.977 236.254 343.854 236.254Z" fill="#373B42"/>
<path d="M356.923 216.666C359.889 218.379 359.905 221.151 356.958 222.864L250.902 284.496C247.955 286.209 243.169 286.209 240.202 284.496L184.662 252.431C181.696 250.718 181.68 247.945 184.627 246.233L290.683 184.6C293.63 182.887 298.416 182.887 301.383 184.6L356.923 216.666Z" fill="#373B42"/>
<path d="M245.559 286.01C243.579 286.01 241.596 285.574 240.084 284.7L184.545 252.635C183.029 251.76 182.193 250.583 182.191 249.321C182.19 248.068 183.013 246.899 184.509 246.029L290.564 184.396C293.572 182.65 298.477 182.65 301.501 184.396L357.04 216.462C358.555 217.337 359.391 218.513 359.393 219.775C359.395 221.029 358.572 222.198 357.076 223.068L251.02 284.7C249.517 285.574 247.539 286.01 245.559 286.01ZM296.025 183.551C294.131 183.551 292.239 183.968 290.802 184.804L184.746 246.437C183.401 247.218 182.66 248.242 182.662 249.32C182.664 250.407 183.416 251.439 184.78 252.227L240.319 284.293C243.213 285.963 247.908 285.965 250.783 284.293L356.838 222.66C358.183 221.879 358.924 220.854 358.922 219.776C358.92 218.689 358.169 217.658 356.804 216.87L301.265 184.804C299.818 183.969 297.92 183.551 296.025 183.551Z" fill="#373B42"/>
<path d="M358.123 219.778C358.123 220.544 357.509 221.345 356.439 221.966L250.383 283.599C249.112 284.338 247.4 284.745 245.557 284.745C243.721 284.745 242.002 284.338 240.718 283.599L185.18 251.533C184.09 250.905 183.461 250.097 183.461 249.317C183.461 248.551 184.076 247.75 185.146 247.129L291.202 185.496C292.472 184.757 294.184 184.35 296.028 184.35C297.864 184.35 299.583 184.757 300.867 185.496L356.405 217.562C357.495 218.19 358.123 218.997 358.123 219.778Z" fill="white"/>
<path d="M245.557 284.981C243.681 284.981 241.92 284.563 240.601 283.804L185.062 251.737C183.896 251.065 183.226 250.183 183.226 249.318C183.226 248.463 183.883 247.59 185.027 246.925L291.084 185.292C292.391 184.533 294.146 184.114 296.028 184.114C297.904 184.114 299.665 184.532 300.984 185.292L356.523 217.358C357.689 218.03 358.359 218.913 358.359 219.778C358.359 220.633 357.702 221.505 356.557 222.17L250.501 283.803C249.194 284.563 247.439 284.981 245.557 284.981ZM296.028 184.585C294.228 184.585 292.557 184.981 291.321 185.7L185.265 247.333C184.268 247.911 183.697 248.634 183.697 249.317C183.697 250.01 184.28 250.743 185.298 251.329L240.836 283.396C242.085 284.114 243.762 284.51 245.557 284.51C247.357 284.51 249.028 284.114 250.264 283.396L356.32 221.762C357.317 221.184 357.888 220.461 357.888 219.778C357.888 219.086 357.305 218.352 356.287 217.766L300.749 185.699C299.5 184.981 297.823 184.585 296.028 184.585Z" fill="#373B42"/>
<path d="M310.027 197.247C310.846 197.726 331.708 209.846 332.675 210.408C334.222 211.306 336.746 211.306 338.297 210.413L341.122 208.778C340.154 208.216 313.967 193.002 312.864 192.361L310.04 193.991C308.489 194.889 308.48 196.349 310.027 197.247Z" fill="#373B42"/>
<path d="M335.488 211.314C334.426 211.314 333.364 211.08 332.557 210.612L328.799 208.429C322.506 204.772 310.528 197.812 309.908 197.45C309.087 196.974 308.636 196.325 308.636 195.624C308.637 194.919 309.094 194.267 309.923 193.787L312.747 192.157C312.821 192.115 312.91 192.115 312.983 192.157C314.086 192.798 340.273 208.012 341.241 208.574C341.313 208.617 341.357 208.694 341.357 208.778C341.357 208.862 341.312 208.94 341.24 208.982L338.415 210.616C337.607 211.082 336.548 211.314 335.488 211.314ZM312.865 192.633L310.158 194.195C309.481 194.587 309.108 195.095 309.107 195.625C309.107 196.151 309.476 196.654 310.146 197.043C310.763 197.404 322.742 204.364 329.037 208.021L332.794 210.204C334.275 211.065 336.692 211.065 338.18 210.208L340.653 208.777C337.449 206.916 314.942 193.841 312.865 192.633Z" fill="#373B42"/>
<path d="M331.075 206.956C331.718 206.956 332.319 206.814 332.766 206.555C333.169 206.323 333.392 206.031 333.392 205.735C333.392 205.442 333.176 205.156 332.784 204.927L315.234 194.729C314.788 194.47 314.188 194.328 313.542 194.328C312.895 194.328 312.29 194.471 311.84 194.731C311.441 194.961 311.222 195.25 311.222 195.545C311.221 195.838 311.438 196.127 311.833 196.356L329.382 206.554C329.829 206.813 330.429 206.956 331.075 206.956Z" fill="white"/>
<path d="M335.625 209.6C336.268 209.6 336.869 209.458 337.316 209.199C337.719 208.967 337.941 208.676 337.941 208.379C337.942 208.087 337.725 207.799 337.33 207.57C336.885 207.311 336.284 207.168 335.638 207.168C334.991 207.168 334.386 207.311 333.936 207.571C333.538 207.801 333.318 208.09 333.318 208.385C333.317 208.679 333.534 208.967 333.929 209.197C334.377 209.457 334.979 209.6 335.625 209.6Z" fill="white"/>
<path d="M335.627 209.107C336.009 209.107 336.366 209.022 336.632 208.869C336.872 208.731 337.004 208.557 337.004 208.381C337.004 208.207 336.875 208.036 336.641 207.9C336.376 207.746 336.019 207.661 335.635 207.661C335.25 207.661 334.89 207.746 334.623 207.901C334.386 208.038 334.256 208.209 334.255 208.384C334.255 208.559 334.384 208.731 334.619 208.867C334.885 209.022 335.243 209.107 335.627 209.107Z" fill="#A68B46"/>
<path d="M234.862 287.254C234.25 286.901 233.756 287.192 233.754 287.895C233.752 288.607 234.243 289.457 234.854 289.81C235.482 290.173 235.976 289.891 235.978 289.179C235.98 288.476 235.489 287.617 234.862 287.254Z" fill="#373B42"/>
<path d="M230.284 284.611C229.672 284.258 229.178 284.549 229.176 285.252C229.174 285.964 229.665 286.814 230.277 287.167C230.904 287.529 231.398 287.248 231.4 286.536C231.402 285.833 230.912 284.974 230.284 284.611Z" fill="#373B42"/>
<path d="M225.707 281.968C225.095 281.615 224.601 281.906 224.599 282.609C224.597 283.321 225.088 284.171 225.7 284.524C226.327 284.886 226.821 284.605 226.823 283.893C226.825 283.19 226.334 282.331 225.707 281.968Z" fill="#373B42"/>
<path d="M197.008 265.401C196.396 265.048 195.902 265.339 195.9 266.041C195.898 266.753 196.389 267.603 197 267.957C197.628 268.319 198.122 268.037 198.124 267.325C198.126 266.623 197.635 265.763 197.008 265.401Z" fill="#373B42"/>
<path d="M192.43 262.758C191.818 262.405 191.324 262.696 191.322 263.398C191.32 264.11 191.811 264.96 192.423 265.314C193.05 265.676 193.544 265.394 193.546 264.682C193.548 263.98 193.058 263.12 192.43 262.758Z" fill="#373B42"/>
<path d="M205.296 272.77C204.67 272.408 204.163 271.53 204.165 270.81C204.167 270.091 204.677 269.8 205.303 270.161L217.429 277.162C218.055 277.524 218.561 278.401 218.559 279.121C218.557 279.841 218.048 280.132 217.422 279.771L205.296 272.77Z" fill="#373B42"/>
<path d="M257.785 293.642C257.655 293.642 257.549 293.537 257.549 293.406V280.496C257.549 280.366 257.655 280.261 257.785 280.261C257.915 280.261 258.02 280.366 258.02 280.496V293.406C258.02 293.537 257.915 293.642 257.785 293.642Z" fill="#373B42"/>
<path d="M350.734 239.625C350.604 239.625 350.499 239.52 350.499 239.39V226.481C350.499 226.35 350.604 226.245 350.734 226.245C350.864 226.245 350.97 226.35 350.97 226.481V239.39C350.97 239.52 350.864 239.625 350.734 239.625Z" fill="#373B42"/>
<path d="M282.842 270.286C281.816 270.879 280.987 272.314 280.991 273.493C280.994 274.673 281.828 275.148 282.854 274.555L302.788 263.044C303.814 262.452 304.642 261.017 304.639 259.838C304.636 258.658 303.802 258.183 302.775 258.775L282.842 270.286Z" fill="#F0F2F5"/>
<path d="M282.865 271.466C283.311 271.209 283.67 271.421 283.672 271.932C283.673 272.451 283.316 273.069 282.871 273.327C282.414 273.59 282.054 273.385 282.053 272.867C282.051 272.355 282.409 271.73 282.865 271.466Z" fill="#373B42"/>
<path d="M344.094 223.811C344.726 224.175 344.729 224.773 344.096 225.141L336.794 229.384C336.166 229.749 335.135 229.749 334.504 229.384L279.585 197.641C278.947 197.273 278.95 196.679 279.577 196.314L286.879 192.071C287.512 191.703 288.537 191.699 289.175 192.067L344.094 223.811Z" fill="#DBDEE4"/>
<path d="M337.004 225.929C336.843 225.929 336.68 225.888 336.531 225.802L292.736 200.351C292.288 200.09 292.134 199.513 292.396 199.063C292.657 198.614 293.234 198.461 293.684 198.722L337.478 224.173C337.927 224.434 338.081 225.011 337.819 225.461C337.644 225.761 337.328 225.929 337.004 225.929Z" fill="#A68B46"/>
<path d="M287.638 198.879C288.763 198.879 289.814 198.629 290.597 198.178C291.303 197.771 291.691 197.261 291.692 196.742C291.693 196.23 291.312 195.727 290.622 195.326C289.842 194.873 288.791 194.623 287.661 194.623C286.529 194.623 285.471 194.874 284.683 195.329C283.987 195.731 283.603 196.237 283.602 196.752C283.601 197.266 283.981 197.771 284.672 198.173C285.455 198.628 286.508 198.879 287.638 198.879Z" fill="#373B42"/>
<path d="M329.768 231.647L301.776 247.914L246.16 215.804L274.151 199.537L329.768 231.647Z" fill="white"/>
<path d="M301.776 248.149C301.736 248.149 301.695 248.139 301.658 248.117L246.042 216.008C245.969 215.966 245.924 215.888 245.924 215.804C245.924 215.72 245.968 215.642 246.041 215.6L274.033 199.333C274.106 199.291 274.195 199.291 274.269 199.333L329.885 231.443C329.958 231.485 330.003 231.563 330.003 231.647C330.003 231.731 329.959 231.809 329.886 231.851L301.895 248.118C301.858 248.139 301.817 248.149 301.776 248.149ZM246.63 215.803L301.776 247.641L329.297 231.648L274.151 199.809L246.63 215.803Z" fill="#373B42"/>
<path d="M298.608 242.601C298.526 242.601 298.447 242.558 298.404 242.482L277.115 205.202C277.051 205.089 277.089 204.946 277.203 204.881C277.314 204.817 277.459 204.856 277.524 204.969L298.812 242.249C298.877 242.362 298.838 242.505 298.725 242.57C298.688 242.591 298.648 242.601 298.608 242.601Z" fill="#373B42"/>
<path d="M320.179 230.065C320.164 230.065 320.149 230.064 320.135 230.061L255.705 217.852C255.577 217.827 255.493 217.704 255.517 217.577C255.542 217.448 255.666 217.365 255.793 217.389L320.223 229.598C320.351 229.623 320.434 229.746 320.411 229.873C320.388 229.986 320.29 230.065 320.179 230.065Z" fill="#373B42"/>
<path d="M298.607 249.882L287.368 256.412L231.751 224.302L242.991 217.771L298.607 249.882Z" fill="#DBDEE4"/>
<path d="M282.753 259.53L247.281 280.103L191.665 247.993L227.136 227.42L282.753 259.53Z" fill="#DBDEE4"/>
<path d="M215.347 237.74L227.139 230.685L277.109 259.535L265.317 266.591L215.347 237.74Z" fill="#A68B46"/>
<path d="M261.494 269.122C261.453 269.122 261.413 269.111 261.376 269.09L211.347 240.205C211.234 240.14 211.196 239.996 211.26 239.884C211.326 239.77 211.471 239.732 211.582 239.798L261.612 268.682C261.724 268.747 261.763 268.891 261.698 269.004C261.654 269.079 261.575 269.122 261.494 269.122Z" fill="#373B42"/>
<path d="M257.516 271.417C257.475 271.417 257.435 271.407 257.398 271.386L207.369 242.501C207.257 242.436 207.218 242.292 207.283 242.179C207.348 242.066 207.493 242.028 207.605 242.093L257.633 270.978C257.746 271.043 257.784 271.187 257.72 271.3C257.676 271.375 257.596 271.417 257.516 271.417Z" fill="#373B42"/>
<path d="M253.537 273.713C253.496 273.713 253.456 273.702 253.419 273.681L203.39 244.796C203.278 244.731 203.239 244.587 203.304 244.475C203.37 244.361 203.514 244.324 203.626 244.389L253.654 273.273C253.767 273.338 253.805 273.482 253.741 273.595C253.697 273.67 253.617 273.713 253.537 273.713Z" fill="#373B42"/>
<path d="M233.815 266.918C233.774 266.918 233.734 266.908 233.697 266.886L199.412 247.091C199.299 247.027 199.261 246.883 199.325 246.77C199.39 246.656 199.537 246.618 199.647 246.684L233.933 266.479C234.045 266.544 234.083 266.688 234.019 266.8C233.975 266.876 233.896 266.918 233.815 266.918Z" fill="#373B42"/>
<g opacity="0.1">
<path d="M223.206 204.581C224.786 205.493 224.785 206.975 223.216 207.887L137.687 257.549C136.117 258.461 133.567 258.461 131.987 257.549L119.19 250.16C117.61 249.248 117.602 247.771 119.172 246.859L204.701 197.197C206.27 196.285 208.829 196.28 210.409 197.192L223.206 204.581Z" fill="black"/>
</g>
<path d="M225.332 196.825L225.303 202.568C225.303 203.163 224.913 203.747 224.133 204.206L138.601 253.878C138.358 254.025 138.085 254.141 137.802 254.239C136.534 254.668 134.945 254.668 133.687 254.229C133.405 254.141 133.141 254.015 132.898 253.878L120.096 246.488C119.306 246.03 118.907 245.425 118.907 244.821L118.926 239.088C118.926 239.683 119.316 240.287 120.125 240.745L132.907 248.126C133.151 248.262 133.405 248.379 133.687 248.477C134.945 248.916 136.534 248.925 137.802 248.496C138.094 248.399 138.367 248.272 138.611 248.126L224.143 198.463C224.923 198.024 225.313 197.42 225.332 196.825Z" fill="#BEC4CD"/>
<path d="M137.802 248.496V254.239C136.534 254.668 134.945 254.668 133.688 254.229V248.477C134.945 248.915 136.534 248.925 137.802 248.496Z" fill="#F0F2F5"/>
<path d="M135.749 254.79C134.673 254.79 133.598 254.553 132.779 254.077L119.982 246.689C119.134 246.201 118.667 245.536 118.667 244.818L118.694 239.089V239.088C118.695 238.958 118.799 238.852 118.929 238.852C119.059 238.853 119.165 238.958 119.165 239.088C119.165 239.629 119.547 240.143 120.242 240.537L133.028 247.926C134.547 248.801 136.999 248.803 138.494 247.927L224.025 198.26C224.692 197.882 225.079 197.356 225.091 196.819C225.094 196.69 225.199 196.588 225.327 196.588C225.328 196.588 225.329 196.588 225.33 196.588C225.459 196.59 225.563 196.696 225.562 196.825L225.536 202.569C225.536 203.27 225.079 203.925 224.249 204.411L138.717 254.077C137.899 254.553 136.823 254.79 135.749 254.79ZM119.159 240.268L119.138 244.819C119.138 245.36 119.522 245.88 120.217 246.281L133.016 253.669C134.521 254.545 136.974 254.545 138.48 253.669L224.012 204.004C224.69 203.606 225.065 203.096 225.065 202.568L225.086 198.001C224.874 198.251 224.597 198.478 224.261 198.669L138.731 248.334C137.107 249.285 134.443 249.285 132.793 248.334L120.008 240.946C119.659 240.747 119.374 240.519 119.159 240.268Z" fill="#373B42"/>
<path d="M224.136 195.164C225.716 196.076 225.715 197.558 224.146 198.47L138.617 248.132C137.047 249.044 134.497 249.044 132.918 248.132L120.12 240.744C118.541 239.832 118.532 238.355 120.102 237.443L205.631 187.781C207.201 186.869 209.759 186.864 211.339 187.776L224.136 195.164Z" fill="white"/>
<path d="M135.771 249.047C134.695 249.047 133.62 248.81 132.799 248.336L120.002 240.947C119.159 240.461 118.696 239.801 118.694 239.088C118.693 238.379 119.151 237.722 119.983 237.239L205.512 187.577C207.148 186.627 209.815 186.623 211.456 187.572L224.254 194.96C225.094 195.445 225.556 196.104 225.557 196.817C225.558 197.529 225.099 198.188 224.265 198.674L138.735 248.336C137.919 248.81 136.845 249.047 135.771 249.047ZM208.489 187.326C207.496 187.326 206.504 187.545 205.75 187.984L120.22 237.646C119.539 238.041 119.164 238.553 119.165 239.087C119.166 239.625 119.547 240.141 120.238 240.54L133.035 247.928C134.545 248.8 136.997 248.802 138.498 247.928L224.028 198.266C224.711 197.869 225.087 197.355 225.086 196.818C225.085 196.28 224.707 195.765 224.018 195.367L211.221 187.979C210.466 187.544 209.477 187.326 208.489 187.326Z" fill="#373B42"/>
<path d="M215.393 66.6291C214.279 65.9753 212.736 66.0718 211.032 67.0471L138.638 108.765C137.856 109.215 137.116 109.815 136.43 110.522C134.705 112.291 133.355 114.723 132.808 117.092C132.626 117.853 132.529 118.614 132.529 119.342L132.722 237.453C132.722 239.393 133.419 240.744 134.512 241.387L127.664 237.421C126.571 236.778 125.885 235.417 125.874 233.477L125.681 115.356C125.681 114.638 125.767 113.887 125.949 113.127C126.496 110.758 127.835 108.336 129.572 106.557C130.247 105.85 131.008 105.239 131.79 104.789L204.183 63.0819C205.887 62.0959 207.431 62.0102 208.545 62.6425L215.393 66.6291Z" fill="#DBDEE4"/>
<path d="M136.431 110.522C134.705 112.291 133.355 114.724 132.808 117.092L125.949 113.127C126.496 110.758 127.835 108.336 129.572 106.557L136.431 110.522Z" fill="#F0F2F5"/>
<path d="M134.512 241.622C134.472 241.622 134.431 241.612 134.395 241.59L127.546 237.625C126.327 236.907 125.65 235.435 125.638 233.479L125.446 115.356C125.446 114.6 125.538 113.832 125.72 113.072C126.278 110.654 127.62 108.219 129.403 106.392C130.098 105.664 130.884 105.039 131.673 104.585L204.065 62.8778C205.78 61.8852 207.411 61.7284 208.661 62.438L215.495 66.4154C215.5 66.4191 215.507 66.4228 215.512 66.426C215.625 66.4917 215.662 66.6357 215.597 66.7479C215.53 66.8601 215.387 66.8983 215.275 66.8326L215.259 66.8234C214.179 66.2002 212.722 66.351 211.149 67.2517L138.756 108.969C138.018 109.394 137.293 109.971 136.6 110.687C134.901 112.428 133.569 114.842 133.038 117.145C132.857 117.898 132.765 118.637 132.765 119.342L132.958 237.453C132.958 239.224 133.552 240.549 134.632 241.184C134.743 241.25 134.781 241.393 134.716 241.505C134.672 241.58 134.593 241.622 134.512 241.622ZM206.941 62.472C206.135 62.472 205.235 62.7452 204.301 63.2857L131.908 104.993C131.157 105.424 130.408 106.022 129.741 106.72C128.041 108.462 126.71 110.876 126.178 113.18C126.006 113.905 125.917 114.637 125.917 115.356L126.11 233.477C126.12 235.26 126.714 236.589 127.784 237.218L133.162 240.332C132.72 239.573 132.487 238.595 132.487 237.453L132.294 119.343C132.294 118.599 132.39 117.824 132.579 117.036C133.129 114.656 134.506 112.158 136.262 110.358C136.985 109.612 137.746 109.007 138.52 108.56L210.914 66.843C211.923 66.2657 212.898 65.9741 213.78 65.9741C213.787 65.9741 213.794 65.9741 213.8 65.9741L208.427 62.8459C207.986 62.5963 207.485 62.472 206.941 62.472Z" fill="#373B42"/>
<path d="M132.562 131.751C132.522 131.751 132.481 131.741 132.444 131.72L125.595 127.755C125.482 127.689 125.445 127.545 125.509 127.433C125.575 127.32 125.72 127.282 125.831 127.347L132.68 131.312C132.793 131.378 132.831 131.522 132.766 131.634C132.722 131.709 132.643 131.751 132.562 131.751Z" fill="#373B42"/>
<path d="M132.712 232.612C132.671 232.612 132.631 232.602 132.593 232.58L125.745 228.604C125.633 228.539 125.595 228.394 125.66 228.282C125.725 228.169 125.868 228.131 125.982 228.197L132.83 232.173C132.943 232.238 132.98 232.382 132.915 232.495C132.872 232.57 132.793 232.612 132.712 232.612Z" fill="#373B42"/>
<path d="M217.183 70.5534C217.172 66.6679 214.413 65.104 211.031 67.0564L138.64 108.764C135.251 110.721 132.517 115.457 132.528 119.342L132.562 131.497L217.218 82.7084L217.183 70.5534Z" fill="#A68B46"/>
<path d="M132.563 131.732C132.522 131.732 132.482 131.722 132.445 131.701C132.372 131.659 132.327 131.581 132.327 131.497L132.293 119.343C132.281 115.387 135.076 110.55 138.523 108.56L210.913 66.852C212.634 65.8603 214.263 65.7061 215.504 66.42C216.733 67.1275 217.414 68.5953 217.419 70.5529L217.453 82.7078C217.453 82.7919 217.408 82.8702 217.336 82.9125L132.681 131.701C132.644 131.722 132.603 131.732 132.563 131.732ZM213.781 66.4489C212.978 66.4489 212.082 66.7213 211.149 67.2598L138.759 108.968C135.442 110.882 132.752 115.536 132.763 119.341L132.797 131.09L216.982 82.5725L216.948 70.5537C216.943 68.7718 216.346 67.4485 215.268 66.8279C214.828 66.5744 214.326 66.4489 213.781 66.4489Z" fill="#373B42"/>
<path d="M132.563 131.497L132.727 237.458C132.738 241.352 135.49 242.921 138.879 240.964L211.27 199.256C214.651 197.304 217.393 192.564 217.382 188.669L217.219 82.708L132.563 131.497Z" fill="white"/>
<path d="M136.124 242.044C135.499 242.044 134.92 241.898 134.408 241.603C133.177 240.895 132.496 239.423 132.49 237.458L132.328 131.497C132.328 131.413 132.373 131.335 132.445 131.292L217.1 82.5038C217.174 82.4625 217.262 82.4619 217.336 82.5043C217.408 82.546 217.453 82.6239 217.453 82.7076L217.617 188.668C217.628 192.629 214.833 197.47 211.387 199.46L138.996 241.168C137.987 241.751 137.01 242.044 136.124 242.044ZM132.799 131.633L132.961 237.458C132.967 239.247 133.563 240.574 134.642 241.195C135.728 241.82 137.191 241.665 138.761 240.76L211.152 199.052C214.468 197.137 217.157 192.48 217.146 188.669L216.983 83.1151L132.799 131.633Z" fill="#373B42"/>
<path d="M142.178 114.395C143.31 113.742 144.221 114.26 144.224 115.561C144.228 116.852 143.323 118.43 142.191 119.084C141.059 119.738 140.148 119.207 140.144 117.917C140.14 116.616 141.045 115.049 142.178 114.395Z" fill="white"/>
<path d="M150.696 109.477C151.819 108.829 152.739 109.342 152.743 110.643C152.747 111.933 151.832 113.517 150.71 114.166C149.577 114.819 148.666 114.289 148.663 112.999C148.659 111.698 149.564 110.131 150.696 109.477Z" fill="white"/>
<path d="M159.216 104.553C160.341 103.903 161.254 104.423 161.258 105.728C161.262 107.021 160.354 108.603 159.229 109.253C158.094 109.908 157.181 109.377 157.177 108.084C157.174 106.779 158.081 105.208 159.216 104.553Z" fill="white"/>
<path d="M210.751 92.2829C211.423 91.895 211.975 92.2096 211.977 92.9815L212 102.11C212.002 102.889 211.454 103.839 210.782 104.227L139.194 145.317C138.516 145.708 137.97 145.39 137.968 144.611L137.945 135.482C137.943 134.71 138.485 133.764 139.163 133.373L210.751 92.2829Z" fill="#DBDEE4"/>
<path d="M152.203 132.761C151.877 132.761 151.56 132.592 151.386 132.289C151.126 131.838 151.281 131.262 151.732 131.003L206.472 99.486C206.922 99.2265 207.499 99.382 207.758 99.8323C208.018 100.283 207.863 100.859 207.412 101.119L152.672 132.635C152.524 132.721 152.362 132.761 152.203 132.761Z" fill="#A68B46"/>
<path d="M210.891 110.865L211.004 150.645L176.997 169.818L176.884 130.038L210.891 110.865Z" fill="#DBDEE4"/>
<path d="M172.564 132.014L172.677 171.794L138.058 191.781L137.945 152.001L172.564 132.014Z" fill="white"/>
<path d="M138.057 192.016C138.017 192.016 137.976 192.006 137.939 191.985C137.867 191.943 137.822 191.866 137.822 191.782L137.709 152.002C137.709 151.917 137.755 151.839 137.827 151.797L172.446 131.81C172.519 131.768 172.608 131.768 172.681 131.81C172.754 131.851 172.799 131.929 172.799 132.013L172.912 171.793C172.912 171.877 172.867 171.956 172.794 171.998L138.175 191.985C138.138 192.006 138.098 192.016 138.057 192.016ZM138.18 152.137L138.292 191.374L172.441 171.658L172.329 132.421L138.18 152.137Z" fill="#373B42"/>
<path d="M140.935 187.03C140.895 187.03 140.855 187.02 140.818 186.999C140.706 186.934 140.667 186.79 140.731 186.677L169.481 136.881C169.546 136.768 169.691 136.73 169.803 136.795C169.915 136.86 169.954 137.004 169.889 137.117L141.14 186.913C141.096 186.988 141.016 187.03 140.935 187.03Z" fill="#373B42"/>
<path d="M169.78 170.378C169.74 170.378 169.7 170.368 169.663 170.347L140.725 153.857C140.612 153.792 140.573 153.648 140.638 153.536C140.701 153.422 140.846 153.383 140.959 153.447L169.897 169.938C170.01 170.002 170.048 170.146 169.984 170.259C169.941 170.335 169.862 170.378 169.78 170.378Z" fill="#373B42"/>
<path d="M172.677 214.577L138.091 234.545L138.026 196.161L172.612 176.192L172.677 214.577Z" fill="#DBDEE4"/>
<path d="M140.938 196.79L169.742 180.16L169.78 194.611L140.976 211.241L140.938 196.79Z" fill="#A68B46"/>
<path d="M140.939 216.975C140.858 216.975 140.779 216.933 140.734 216.858C140.67 216.745 140.709 216.601 140.821 216.536L169.662 199.886C169.772 199.821 169.918 199.859 169.984 199.973C170.048 200.085 170.01 200.229 169.898 200.294L141.056 216.944C141.02 216.965 140.979 216.975 140.939 216.975Z" fill="#373B42"/>
<path d="M140.939 222.444C140.858 222.444 140.779 222.402 140.734 222.326C140.67 222.214 140.709 222.07 140.821 222.005L169.662 205.355C169.772 205.29 169.918 205.328 169.984 205.441C170.048 205.554 170.01 205.698 169.898 205.763L141.056 222.413C141.02 222.434 140.979 222.444 140.939 222.444Z" fill="#373B42"/>
<path d="M140.939 227.912C140.858 227.912 140.779 227.87 140.734 227.795C140.67 227.682 140.709 227.538 140.821 227.473L159.055 216.946C159.166 216.881 159.31 216.919 159.377 217.032C159.441 217.145 159.403 217.289 159.291 217.354L141.056 227.881C141.02 227.902 140.979 227.912 140.939 227.912Z" fill="#373B42"/>
<path d="M211.673 191.897L177.087 211.865L177.022 173.48L211.608 153.512L211.673 191.897Z" fill="#DBDEE4"/>
<path d="M179.935 174.109L208.738 157.479L208.776 171.93L179.972 188.56L179.935 174.109Z" fill="#A68B46"/>
<path d="M179.935 194.295C179.854 194.295 179.775 194.252 179.731 194.177C179.666 194.064 179.705 193.92 179.817 193.856L208.658 177.206C208.768 177.14 208.913 177.178 208.98 177.292C209.044 177.405 209.006 177.548 208.893 177.613L180.053 194.263C180.016 194.285 179.976 194.295 179.935 194.295Z" fill="#373B42"/>
<path d="M179.935 199.764C179.854 199.764 179.775 199.721 179.731 199.646C179.666 199.533 179.705 199.389 179.817 199.324L208.658 182.674C208.768 182.61 208.913 182.647 208.98 182.76C209.044 182.873 209.006 183.017 208.893 183.082L180.053 199.732C180.016 199.754 179.976 199.764 179.935 199.764Z" fill="#373B42"/>
<path d="M179.935 205.232C179.854 205.232 179.775 205.19 179.731 205.114C179.666 205.002 179.705 204.858 179.817 204.793L198.052 194.266C198.162 194.201 198.307 194.239 198.374 194.352C198.438 194.465 198.399 194.609 198.287 194.674L180.053 205.2C180.016 205.222 179.976 205.232 179.935 205.232Z" fill="#373B42"/>
<path d="M144.569 132.508C146.446 131.425 147.985 132.283 147.991 134.458C147.997 136.615 146.468 139.263 144.592 140.346C142.699 141.439 141.176 140.553 141.17 138.396C141.164 136.221 142.677 133.601 144.569 132.508Z" fill="#373B42"/>
<path d="M276.737 65.6943C277.622 65.174 278.858 65.2444 280.221 66.0318L348.906 105.717C351.604 107.277 353.795 111.059 353.795 114.166L353.655 161.415C353.641 162.961 353.107 164.044 352.222 164.55L357.586 161.428C358.457 160.922 359.005 159.84 359.019 158.293L359.159 111.045C359.159 107.937 356.968 104.156 354.27 102.595L285.585 62.91C284.222 62.123 282.986 62.0526 282.101 62.5729L276.737 65.6943Z" fill="#F0F2F5"/>
<path d="M352.222 164.785C352.141 164.785 352.062 164.743 352.018 164.668C351.954 164.555 351.991 164.411 352.104 164.346L352.134 164.329C352.951 163.844 353.406 162.811 353.419 161.413L353.56 114.165C353.56 111.141 351.419 107.443 348.788 105.921L280.104 66.2357C278.867 65.5223 277.723 65.3995 276.874 65.8874L276.856 65.8985C276.741 65.9629 276.6 65.9257 276.534 65.8139C276.468 65.7017 276.506 65.5577 276.617 65.4919C276.625 65.4878 276.631 65.4837 276.639 65.4795L281.982 62.3692C282.985 61.7817 284.306 61.8995 285.703 62.7063L354.388 102.392C357.149 103.989 359.395 107.871 359.395 111.045L359.255 158.295C359.241 159.875 358.69 161.06 357.704 161.632L352.372 164.735C352.361 164.742 352.35 164.748 352.339 164.754C352.302 164.775 352.262 164.785 352.222 164.785ZM278.183 65.1256C278.854 65.1574 279.586 65.3923 280.339 65.828L349.024 105.513C351.785 107.11 354.031 110.991 354.031 114.166L353.89 161.416C353.883 162.261 353.724 162.992 353.428 163.576L357.467 161.225C358.303 160.739 358.771 159.698 358.784 158.291L358.924 111.044C358.924 108.021 356.784 104.322 354.153 102.799L285.467 63.1137C284.225 62.3957 283.069 62.2765 282.221 62.7756L278.183 65.1256Z" fill="#373B42"/>
<path d="M280.22 66.0324C277.521 64.4726 275.316 65.7196 275.307 68.8239L275.165 116.075C275.156 119.179 277.347 122.965 280.047 124.525L348.737 164.209C351.437 165.769 353.642 164.522 353.651 161.417L353.793 114.166C353.801 111.062 351.611 107.276 348.911 105.716L280.22 66.0324Z" fill="white"/>
<path d="M350.935 165.119C350.219 165.119 349.432 164.882 348.62 164.413L279.929 124.729C277.162 123.132 274.921 119.249 274.93 116.074L275.071 68.8233C275.076 67.2428 275.627 66.056 276.624 65.4825C277.63 64.9025 278.949 65.0258 280.338 65.8289L349.028 105.513C351.793 107.11 354.036 110.992 354.028 114.167L353.886 161.419C353.882 163 353.33 164.186 352.332 164.76C351.915 165 351.443 165.119 350.935 165.119ZM278.024 65.5943C277.596 65.5943 277.204 65.6923 276.86 65.8905C276.014 66.3771 275.546 67.419 275.543 68.8248L275.401 116.076C275.392 119.1 277.529 122.799 280.164 124.322L348.855 164.006C350.092 164.719 351.243 164.844 352.097 164.351C352.943 163.865 353.411 162.823 353.415 161.417L353.557 114.166C353.565 111.142 351.427 107.443 348.793 105.92L280.103 66.2364C279.364 65.81 278.656 65.5943 278.024 65.5943Z" fill="#373B42"/>
<path d="M222.075 118.538C220.631 119.371 220.624 120.725 222.058 121.558L240.408 132.223C241.842 133.057 244.178 133.057 245.622 132.223L264.092 121.559C265.536 120.725 265.543 119.372 264.109 118.538L245.759 107.873C244.325 107.04 241.989 107.04 240.545 107.873L222.075 118.538Z" fill="white"/>
<path d="M243.011 133.08C242.024 133.08 241.038 132.863 240.289 132.428L221.94 121.763C221.172 121.317 220.751 120.71 220.752 120.054C220.752 119.394 221.181 118.783 221.957 118.335L240.427 107.67C241.934 106.8 244.378 106.8 245.878 107.67L264.227 118.335C264.993 118.78 265.416 119.388 265.415 120.044C265.414 120.704 264.986 121.315 264.21 121.763L245.74 132.427C244.986 132.863 243.997 133.08 243.011 133.08ZM222.193 118.742C221.568 119.103 221.223 119.569 221.223 120.055C221.222 120.536 221.561 120.998 222.177 121.355L240.526 132.02C241.893 132.815 244.126 132.815 245.504 132.02L263.974 121.355C264.599 120.994 264.943 120.528 264.944 120.043C264.945 119.562 264.606 119.1 263.99 118.742L245.64 108.078C244.273 107.283 242.039 107.283 240.662 108.078L222.193 118.742Z" fill="#DBDEE4"/>
<path d="M250.479 115.747C254.591 118.121 254.612 121.968 250.521 124.346C246.436 126.72 239.794 126.72 235.683 124.346C231.578 121.976 231.556 118.129 235.641 115.755C239.733 113.377 246.374 113.377 250.479 115.747Z" fill="white"/>
<path d="M243.112 126.356C240.382 126.356 237.65 125.754 235.565 124.55C233.498 123.357 232.357 121.755 232.355 120.039C232.353 118.334 233.478 116.74 235.522 115.551C239.67 113.142 246.433 113.138 250.597 115.543C252.667 116.739 253.809 118.342 253.811 120.057C253.814 121.764 252.687 123.359 250.639 124.55C248.568 125.754 245.841 126.356 243.112 126.356ZM243.063 114.205C240.415 114.205 237.769 114.79 235.759 115.958C233.865 117.059 232.824 118.508 232.827 120.038C232.828 121.579 233.885 123.036 235.801 124.143C239.839 126.474 246.389 126.475 250.402 124.143C252.299 123.04 253.342 121.589 253.341 120.058C253.339 118.517 252.281 117.059 250.362 115.95C248.346 114.787 245.703 114.205 243.063 114.205Z" fill="#373B42"/>
<path d="M236.286 98.3422L236.365 119.34C236.368 120.336 237.024 121.331 238.333 122.092C240.964 123.621 245.242 123.621 247.89 122.092C249.22 121.324 249.884 120.316 249.881 119.308L249.801 98.3105C249.804 99.318 249.14 100.327 247.81 101.094C245.162 102.623 240.884 102.623 238.254 101.094C236.944 100.333 236.288 99.3383 236.286 98.3422Z" fill="white"/>
<path d="M238.254 101.094C239.56 101.854 241.274 102.234 242.992 102.239V123.232C241.301 123.216 239.62 122.84 238.333 122.092C237.024 121.331 236.368 120.335 236.365 119.34L236.286 98.3418C236.288 99.3379 236.944 100.333 238.254 101.094Z" fill="#DBDEE4"/>
<path d="M243.105 123.469C241.331 123.469 239.56 123.078 238.214 122.296C236.873 121.516 236.133 120.467 236.13 119.341L236.05 98.3465V98.3432C236.05 98.2134 236.155 98.1072 236.284 98.1068H236.285C236.415 98.1068 236.52 98.2118 236.521 98.3414C236.524 99.2931 237.18 100.199 238.372 100.891C240.934 102.38 245.115 102.379 247.692 100.891C248.902 100.191 249.568 99.276 249.566 98.3119C249.566 98.1822 249.67 98.0756 249.8 98.0752C249.93 98.0752 250.036 98.1801 250.037 98.3097L250.117 119.308C250.119 120.448 249.37 121.509 248.007 122.296C246.653 123.078 244.878 123.469 243.105 123.469ZM236.526 99.8566L236.601 119.339C236.604 120.291 237.26 121.197 238.452 121.889C241.011 123.377 245.194 123.377 247.772 121.889C248.982 121.189 249.648 120.274 249.646 119.309L249.571 99.823C249.215 100.374 248.659 100.875 247.927 101.298C245.22 102.863 240.827 102.862 238.134 101.298C237.422 100.884 236.88 100.394 236.526 99.8566Z" fill="#373B42"/>
<path d="M238.28 95.5558C235.632 97.0849 235.618 99.5628 238.254 101.094C240.884 102.624 245.162 102.624 247.81 101.094C250.454 99.568 250.468 97.09 247.837 95.5609C245.202 94.0294 240.924 94.0294 238.28 95.5558Z" fill="white"/>
<path d="M243.026 102.471C241.252 102.471 239.482 102.08 238.135 101.298C236.789 100.516 236.049 99.4623 236.05 98.3322C236.052 97.196 236.802 96.1377 238.163 95.352C240.871 93.789 245.264 93.7937 247.955 95.3571C249.3 96.1385 250.039 97.1915 250.037 98.3212C250.036 99.4569 249.287 100.514 247.928 101.298C246.574 102.08 244.799 102.471 243.026 102.471ZM238.398 95.7596C237.189 96.4579 236.523 97.3718 236.521 98.3331C236.52 99.288 237.177 100.196 238.372 100.891C240.934 102.38 245.115 102.379 247.692 100.891C248.899 100.194 249.564 99.2812 249.566 98.3203C249.567 97.3658 248.911 96.4579 247.718 95.7647C245.155 94.2748 240.974 94.2734 238.398 95.7596Z" fill="#373B42"/>
<path d="M238.562 83.8115L238.616 97.7194C238.617 98.3818 239.053 99.0435 239.924 99.5498C241.674 100.567 244.519 100.567 246.28 99.5498C247.164 99.0392 247.606 98.3684 247.604 97.6985L247.551 83.7905C247.553 84.4605 247.111 85.1312 246.227 85.6418C244.466 86.6586 241.621 86.6586 239.871 85.6418C239 85.1356 238.564 84.4739 238.562 83.8115Z" fill="white"/>
<path d="M239.871 85.642C240.733 86.1426 241.86 86.3941 242.992 86.4018V100.307C241.878 100.291 240.772 100.043 239.924 99.5499C239.053 99.0437 238.617 98.3821 238.616 97.7196L238.562 83.8115C238.564 84.4741 239 85.1358 239.871 85.642Z" fill="#DBDEE4"/>
<path d="M243.098 100.543C241.904 100.543 240.712 100.28 239.806 99.7531C238.889 99.2201 238.382 98.4978 238.381 97.7195L238.327 83.8121C238.327 83.6824 238.432 83.5762 238.562 83.5758H238.563C238.692 83.5758 238.797 83.6807 238.798 83.8103V83.814C238.802 84.4161 239.225 84.9929 239.99 85.4377C241.671 86.4161 244.417 86.4143 246.109 85.4377C246.889 84.9878 247.318 84.4033 247.316 83.7914C247.316 83.6617 247.421 83.5551 247.551 83.5547C247.681 83.5547 247.786 83.6596 247.787 83.7892L247.839 97.697C247.843 98.4845 247.331 99.2145 246.398 99.7531C245.486 100.28 244.291 100.543 243.098 100.543ZM238.803 85.06L238.851 97.7181C238.853 98.322 239.276 98.9003 240.043 99.3456C241.724 100.324 244.47 100.323 246.162 99.3456C246.942 98.8948 247.371 98.3101 247.368 97.6988L247.32 85.0385C247.081 85.3371 246.753 85.6098 246.344 85.8453C244.522 86.8987 241.564 86.8978 239.753 85.8453C239.358 85.6149 239.038 85.3499 238.803 85.06Z" fill="#373B42"/>
<path d="M239.889 81.9587C238.128 82.9755 238.119 84.6234 239.871 85.642C241.621 86.6588 244.466 86.659 246.227 85.642C247.985 84.6269 247.994 82.9789 246.244 81.9621C244.492 80.9436 241.647 80.9435 239.889 81.9587Z" fill="#A68B46"/>
<path d="M243.046 86.6354C241.851 86.6354 240.659 86.3718 239.753 85.8456C238.833 85.3106 238.326 84.5857 238.327 83.8047C238.328 83.02 238.841 82.2918 239.771 81.7546C241.594 80.7026 244.551 80.7045 246.364 81.7583C247.282 82.2924 247.788 83.0164 247.787 83.7974C247.785 84.5822 247.274 85.3094 246.345 85.8457C245.433 86.3722 244.239 86.6354 243.046 86.6354ZM240.007 82.1621C239.229 82.612 238.799 83.1956 238.798 83.8055C238.797 84.4113 239.22 84.9914 239.99 85.438C241.671 86.4163 244.417 86.4145 246.109 85.438C246.886 84.9891 247.315 84.4063 247.316 83.7963C247.316 83.1911 246.895 82.6114 246.127 82.1658C244.444 81.1873 241.699 81.1859 240.007 82.1621Z" fill="#373B42"/>
<path d="M247.287 73.0757V83.7618C247.265 84.3726 246.851 84.9725 246.055 85.4414C244.386 86.4012 241.704 86.4012 240.046 85.4414C239.25 84.9726 238.846 84.3727 238.825 83.7618V73.0757H247.287Z" fill="url(#paint1_linear_129_136)"/>
<path d="M138.553 290.115C137.213 290.888 137.206 292.145 138.537 292.919L155.571 302.818C156.902 303.592 159.071 303.592 160.411 302.818L177.556 292.919C178.896 292.145 178.903 290.889 177.571 290.115L160.538 280.215C159.207 279.441 157.038 279.441 155.698 280.215L138.553 290.115Z" fill="white"/>
<path d="M157.988 303.63C157.069 303.63 156.151 303.428 155.452 303.022L138.419 293.122C137.702 292.705 137.307 292.137 137.308 291.522C137.309 290.902 137.709 290.33 138.436 289.911L155.58 280.011C156.985 279.201 159.262 279.202 160.657 280.011L177.69 289.911C178.407 290.328 178.802 290.897 178.802 291.512C178.801 292.131 178.4 292.704 177.674 293.123L160.529 303.022C159.827 303.428 158.907 303.63 157.988 303.63ZM158.121 279.868C157.288 279.868 156.452 280.052 155.816 280.419L138.672 290.319C138.097 290.651 137.78 291.078 137.779 291.522C137.778 291.962 138.09 292.386 138.657 292.715L155.69 302.614C156.954 303.35 159.018 303.35 160.293 302.614L177.438 292.715C178.013 292.383 178.33 291.956 178.331 291.512C178.331 291.071 178.02 290.648 177.453 290.319L160.42 280.419C159.788 280.052 158.955 279.868 158.121 279.868Z" fill="#DBDEE4"/>
<path d="M164.919 287.524C168.736 289.727 168.756 293.299 164.958 295.506C161.166 297.71 155.001 297.71 151.184 295.506C147.374 293.306 147.354 289.735 151.146 287.531C154.944 285.324 161.109 285.324 164.919 287.524Z" fill="white"/>
<path d="M158.08 297.388C155.543 297.388 153.004 296.829 151.067 295.71C149.142 294.599 148.08 293.107 148.079 291.508C148.077 289.919 149.124 288.434 151.027 287.327C154.88 285.087 161.164 285.084 165.037 287.32C166.964 288.432 168.028 289.926 168.03 291.525C168.032 293.116 166.983 294.602 165.077 295.71C163.151 296.829 160.618 297.388 158.08 297.388ZM158.035 286.11C155.581 286.11 153.128 286.651 151.264 287.735C149.512 288.753 148.548 290.093 148.55 291.507C148.551 292.931 149.529 294.279 151.302 295.303C155.047 297.465 161.122 297.464 164.839 295.303C166.595 294.282 167.56 292.941 167.558 291.526C167.557 290.102 166.578 288.753 164.801 287.727C162.933 286.649 160.483 286.11 158.035 286.11Z" fill="#373B42"/>
<path d="M151.744 271.368L151.818 290.859C151.821 291.784 152.429 292.707 153.645 293.414C156.087 294.833 160.058 294.833 162.516 293.414C163.75 292.701 164.367 291.765 164.364 290.83L164.29 271.338C164.293 272.274 163.676 273.21 162.442 273.922C159.984 275.342 156.013 275.342 153.571 273.922C152.355 273.216 151.747 272.292 151.744 271.368Z" fill="white"/>
<path d="M153.571 273.923C154.784 274.628 156.375 274.981 157.969 274.986V294.473C156.4 294.458 154.839 294.108 153.645 293.414C152.429 292.708 151.821 291.784 151.818 290.86L151.744 271.368C151.747 272.293 152.355 273.216 153.571 273.923Z" fill="#DBDEE4"/>
<path d="M158.075 294.708C156.426 294.708 154.779 294.345 153.527 293.617C152.276 292.891 151.586 291.911 151.583 290.86L151.509 271.375C151.509 271.373 151.509 271.371 151.509 271.369C151.509 271.239 151.614 271.132 151.744 271.132C151.874 271.132 151.979 271.237 151.98 271.367V271.374C151.986 272.248 152.592 273.081 153.689 273.718C156.062 275.098 159.937 275.097 162.324 273.718C163.443 273.073 164.057 272.228 164.055 271.339C164.055 271.209 164.16 271.103 164.289 271.103C164.419 271.103 164.525 271.207 164.526 271.337L164.6 290.829C164.603 291.893 163.906 292.883 162.634 293.617C161.375 294.345 159.724 294.708 158.075 294.708ZM151.986 272.83L152.054 290.858C152.057 291.736 152.664 292.571 153.764 293.21C156.136 294.589 160.009 294.589 162.399 293.21C163.517 292.563 164.132 291.718 164.129 290.831L164.06 272.799C163.727 273.294 163.221 273.745 162.56 274.126C160.041 275.581 155.956 275.581 153.452 274.126C152.81 273.752 152.315 273.312 151.986 272.83Z" fill="#373B42"/>
<path d="M153.596 268.781C151.138 270.201 151.125 272.501 153.571 273.923C156.013 275.342 159.984 275.342 162.442 273.923C164.896 272.506 164.909 270.205 162.467 268.786C160.021 267.364 156.05 267.364 153.596 268.781Z" fill="white"/>
<path d="M158 275.218C156.351 275.218 154.704 274.854 153.452 274.127C152.197 273.397 151.507 272.414 151.508 271.358C151.51 270.298 152.209 269.31 153.478 268.578C155.995 267.124 160.079 267.127 162.585 268.583C163.838 269.311 164.527 270.293 164.527 271.348C164.525 272.409 163.827 273.396 162.56 274.127C161.3 274.854 159.65 275.218 158 275.218ZM158.03 267.953C156.468 267.953 154.906 268.297 153.713 268.985C152.597 269.63 151.981 270.473 151.979 271.359C151.978 272.24 152.586 273.078 153.689 273.719C156.062 275.098 159.937 275.097 162.324 273.719C163.439 273.075 164.054 272.233 164.056 271.347C164.057 270.467 163.45 269.63 162.348 268.99C161.16 268.299 159.596 267.953 158.03 267.953Z" fill="#373B42"/>
<path d="M153.858 257.879L153.907 270.79C153.909 271.404 154.313 272.019 155.122 272.489C156.746 273.433 159.387 273.433 161.021 272.489C161.842 272.015 162.252 271.392 162.251 270.77L162.201 257.86C162.203 258.482 161.793 259.104 160.972 259.578C159.337 260.522 156.697 260.522 155.073 259.578C154.264 259.109 153.86 258.494 153.858 257.879Z" fill="white"/>
<path d="M155.073 259.578C155.872 260.043 156.918 260.276 157.969 260.284V273.191C156.935 273.177 155.909 272.946 155.122 272.489C154.313 272.019 153.909 271.405 153.907 270.79L153.858 257.879C153.86 258.494 154.264 259.108 155.073 259.578Z" fill="#DBDEE4"/>
<path d="M158.067 273.427C156.957 273.427 155.847 273.182 155.003 272.692C154.147 272.194 153.674 271.519 153.672 270.79L153.622 257.88C153.622 257.75 153.727 257.644 153.857 257.644H153.858C153.987 257.644 154.092 257.749 154.093 257.878V257.88C154.096 258.434 154.485 258.965 155.192 259.375C156.746 260.279 159.287 260.279 160.855 259.375C161.573 258.959 161.968 258.422 161.966 257.861C161.966 257.731 162.071 257.625 162.201 257.625C162.33 257.625 162.436 257.729 162.437 257.859L162.486 270.769C162.488 271.507 162.009 272.189 161.139 272.692C160.291 273.182 159.179 273.427 158.067 273.427ZM154.098 259.086L154.143 270.789C154.145 271.343 154.534 271.875 155.24 272.285C156.796 273.19 159.337 273.189 160.903 272.285C161.622 271.869 162.017 271.332 162.015 270.771L161.971 259.066C161.75 259.33 161.455 259.572 161.09 259.782C159.394 260.762 156.641 260.762 154.954 259.782C154.602 259.577 154.314 259.342 154.098 259.086Z" fill="#373B42"/>
<path d="M155.09 256.16C153.455 257.103 153.446 258.633 155.073 259.579C156.697 260.523 159.338 260.523 160.973 259.579C162.605 258.636 162.613 257.107 160.989 256.163C159.362 255.217 156.722 255.217 155.09 256.16Z" fill="#A68B46"/>
<path d="M158.019 260.518C156.908 260.518 155.798 260.272 154.955 259.783C154.094 259.283 153.622 258.605 153.623 257.874C153.624 257.139 154.103 256.457 154.972 255.956C156.667 254.976 159.418 254.978 161.107 255.959C161.966 256.458 162.439 257.135 162.438 257.866C162.437 258.601 161.958 259.282 161.091 259.782C160.242 260.273 159.13 260.518 158.019 260.518ZM155.208 256.363C154.49 256.778 154.094 257.314 154.093 257.875C154.092 258.43 154.483 258.964 155.192 259.375C156.747 260.28 159.288 260.28 160.855 259.375C161.571 258.962 161.965 258.426 161.966 257.866C161.967 257.31 161.578 256.777 160.87 256.367C159.314 255.462 156.774 255.461 155.208 256.363Z" fill="#373B42"/>
<path d="M161.956 247.914V257.833C161.936 258.4 161.552 258.957 160.813 259.392C159.264 260.283 156.774 260.283 155.235 259.392C154.496 258.957 154.121 258.4 154.101 257.833V247.914H161.956Z" fill="url(#paint2_linear_129_136)"/>
<path d="M281.268 120.512L347.179 158.565C348.591 159.38 350.357 158.363 350.359 156.732L350.428 114.259C350.43 112.873 349.692 111.591 348.491 110.898L282.427 72.7532C281.079 71.9748 279.394 72.9462 279.392 74.503L279.331 117.151C279.329 118.537 280.068 119.819 281.268 120.512Z" fill="#DBDEE4"/>
<path d="M282.642 121.303L347.06 158.495L331.144 119.752C330.987 119.359 330.722 119.055 330.447 118.898C330.182 118.751 329.917 118.741 329.75 118.947L318.557 133.046L313.275 120.224C313.118 119.841 312.853 119.536 312.588 119.379C312.313 119.222 312.048 119.222 311.891 119.428L306.569 126.125L297.792 104.77C297.634 104.377 297.369 104.073 297.094 103.925C296.829 103.768 296.564 103.758 296.397 103.965L282.642 121.303Z" fill="#A68B46"/>
<path d="M314.799 104.187C312.864 103.07 311.301 103.99 311.294 106.213C311.288 108.466 312.841 111.155 314.776 112.272C316.761 113.419 318.324 112.528 318.331 110.276C318.337 108.052 316.784 105.333 314.799 104.187Z" fill="white"/>
<path d="M287.913 89.0741C287.334 88.74 286.86 89.0025 286.858 89.6676C286.856 90.3401 287.327 91.1475 287.906 91.4816C289.46 92.3788 290.72 94.5623 290.715 96.3483C290.713 97.0133 291.178 97.8244 291.756 98.1587C292.342 98.4966 292.809 98.2231 292.811 97.558C292.816 95.7721 294.084 95.049 295.639 95.9462C296.217 96.2803 296.691 96.018 296.693 95.3454C296.695 94.6804 296.224 93.873 295.645 93.5387C294.072 92.6305 292.673 92.6772 291.77 93.4736C290.88 91.6419 289.486 89.9823 287.913 89.0741Z" fill="#373B42"/>
<path d="M337.198 114.007C336.548 113.632 336.033 114.022 336.191 114.893C336.309 115.547 336.751 116.093 337.313 116.445C338.756 117.351 339.913 119.37 339.95 121.059C339.963 121.694 340.219 122.316 340.7 122.732C341.395 123.335 342.006 123.094 342.008 122.34C342.013 120.664 343.151 119.941 344.584 120.649C345.42 121.061 345.987 120.699 345.777 119.791C345.648 119.234 345.255 118.659 344.793 118.392C343.301 117.53 341.967 117.544 341.079 118.251C341.03 118.29 340.961 118.277 340.933 118.221C340.057 116.465 338.712 114.881 337.198 114.007Z" fill="#373B42"/>
<path d="M253.572 193.322C251.869 192.339 251.859 190.743 253.551 189.76C255.243 188.777 257.997 188.777 259.7 189.761C261.403 190.744 261.412 192.338 259.719 193.322C258.028 194.305 255.275 194.305 253.572 193.322Z" fill="white"/>
<path d="M256.649 194.29C255.493 194.29 254.336 194.035 253.454 193.526C252.551 193.005 252.054 192.298 252.053 191.535C252.052 190.777 252.542 190.074 253.433 189.556C255.188 188.537 258.052 188.536 259.818 189.557C260.72 190.077 261.217 190.784 261.218 191.546C261.219 192.304 260.73 193.007 259.838 193.525C258.961 194.035 257.805 194.29 256.649 194.29ZM256.621 189.255C255.55 189.255 254.481 189.491 253.67 189.964C252.929 190.393 252.523 190.951 252.524 191.534C252.525 192.122 252.939 192.684 253.689 193.118C255.325 194.062 257.976 194.062 259.601 193.118C260.341 192.688 260.748 192.13 260.747 191.547C260.746 190.96 260.333 190.398 259.583 189.964C258.765 189.492 257.692 189.255 256.621 189.255Z" fill="#DBDEE4"/>
<path d="M256.626 190.417C257.29 190.417 257.933 190.569 258.389 190.832C258.756 191.044 258.966 191.304 258.966 191.545C258.967 191.784 258.76 192.041 258.4 192.25C257.948 192.513 257.308 192.664 256.645 192.664C255.981 192.664 255.339 192.513 254.883 192.25C254.516 192.038 254.306 191.778 254.305 191.536C254.305 191.297 254.511 191.04 254.871 190.831C255.323 190.568 255.963 190.417 256.626 190.417Z" fill="#A68B46"/>
<path d="M241.632 181.884C242.345 181.884 243.035 182.046 243.525 182.329C243.919 182.556 244.145 182.836 244.145 183.095C244.146 183.351 243.924 183.627 243.538 183.852C243.052 184.135 242.364 184.297 241.652 184.297C240.94 184.297 240.25 184.134 239.76 183.852C239.366 183.624 239.14 183.344 239.14 183.085C239.139 182.828 239.361 182.552 239.747 182.328C240.233 182.046 240.92 181.884 241.632 181.884Z" fill="#373B42"/>
<path d="M335.625 209.6C336.268 209.6 336.869 209.458 337.316 209.199C337.719 208.967 337.941 208.676 337.941 208.379C337.942 208.087 337.725 207.799 337.33 207.57C336.885 207.311 336.284 207.168 335.638 207.168C334.991 207.168 334.386 207.311 333.936 207.571C333.538 207.801 333.318 208.09 333.318 208.385C333.317 208.679 333.534 208.967 333.929 209.197C334.377 209.457 334.979 209.6 335.625 209.6Z" fill="white"/>
</g>
</g>
</g>
<defs>
<linearGradient id="paint0_linear_129_136" x1="239" y1="0.0317383" x2="239" y2="461.068" gradientUnits="userSpaceOnUse">
<stop/>
<stop offset="1" stop-opacity="0"/>
</linearGradient>
<linearGradient id="paint1_linear_129_136" x1="243.056" y1="86.6562" x2="243.056" y2="73.6774" gradientUnits="userSpaceOnUse">
<stop stop-color="#A68B46"/>
<stop offset="1" stop-color="white" stop-opacity="0"/>
</linearGradient>
<linearGradient id="paint2_linear_129_136" x1="158.029" y1="260.52" x2="158.029" y2="248.472" gradientUnits="userSpaceOnUse">
<stop stop-color="#A68B46"/>
<stop offset="1" stop-color="white" stop-opacity="0"/>
</linearGradient>
<clipPath id="clip0_129_136">
<rect width="478" height="462" fill="white"/>
</clipPath>
</defs>
</svg>
