<svg width="478" height="462" viewBox="0 0 478 462" fill="none" xmlns="http://www.w3.org/2000/svg">
<g clip-path="url(#clip0_0_3352)">
<rect width="477.367" height="461.036" fill="#060606"/>
<path d="M181.852 314.553L181.357 314.622L182.537 33.416L183.03 33.4859L181.852 314.553Z" fill="#0E3548"/>
<path d="M216.355 309.711L215.895 309.776L216.997 38.2964L217.457 38.3617L216.355 309.711Z" fill="#0E3548"/>
<path d="M248.549 305.193L248.118 305.253L249.151 42.8496L249.58 42.9104L248.549 305.193Z" fill="#0E3548"/>
<path d="M278.664 300.968L278.261 301.024L279.23 47.1089L279.632 47.1659L278.664 300.968Z" fill="#0E3548"/>
<path d="M307.789 296.881L307.41 296.933L308.321 51.228L308.697 51.282L307.789 296.881Z" fill="#0E3548"/>
<path d="M335.084 293.049L334.73 293.098L335.585 55.0898L335.939 55.1392L335.084 293.049Z" fill="#0E3548"/>
<path d="M360.725 289.452L360.393 289.498L361.199 58.7168L361.532 58.7639L360.725 289.452Z" fill="#0E3548"/>
<path d="M384.855 286.065L384.542 286.108L385.304 62.1294L385.617 62.1742L384.855 286.065Z" fill="#0E3548"/>
<path d="M407.601 282.873L407.305 282.914L408.026 65.3481L408.321 65.3899L407.601 282.873Z" fill="#0E3548"/>
<path d="M429.084 279.858L428.804 279.897L429.487 68.3867L429.766 68.4262L429.084 279.858Z" fill="#0E3548"/>
<path d="M144.684 319.769L144.152 319.844L145.417 28.1597L145.948 28.2349L144.684 319.769Z" fill="#0E3548"/>
<path d="M104.639 325.389L104.065 325.47L105.426 22.4966L105.999 22.5779L104.639 325.389Z" fill="#0E3548"/>
<path d="M62.9067 16.7968L62.9098 16.1577L433.13 68.6902L433.128 69.118L62.9067 16.7968Z" fill="#0E3548"/>
<path d="M62.6636 68.8749L62.6665 68.2358L433.017 103.503L433.016 103.931L62.6636 68.8749Z" fill="#0E3548"/>
<path d="M62.4204 120.975L62.4235 120.335L432.905 138.326L432.903 138.753L62.4204 120.975Z" fill="#0E3548"/>
<path d="M62.179 173.095L62.1819 172.455L432.794 173.157L432.792 173.585L62.179 173.095Z" fill="#0E3548"/>
<path d="M61.9358 225.271L61.9389 224.631L432.682 208.033L432.681 208.461L61.9358 225.271Z" fill="#0E3548"/>
<path d="M61.6924 277.47L61.6954 276.83L432.569 242.92L432.568 243.349L61.6924 277.47Z" fill="#0E3548"/>
<path d="M64.5446 331.391L62.717 330.65L76.6985 296.16L76.8802 296.003L104.315 272.474L165.252 219.571L216.658 261.758L248.406 237.906L278.233 173.31L283.587 130.006L309.009 141.664L336 158.471L360.663 134.905L370.187 97.3967L408.516 75.8184L409.485 77.5365L371.89 98.7007L362.436 135.939L336.257 160.955L308.02 143.371L285.214 132.921L280.152 173.857L280.087 173.997L249.988 239.184L216.605 264.265L165.288 222.152L105.603 273.967L78.346 297.344L64.5446 331.391Z" fill="#023A45"/>
<path d="M62.9049 329.642L61.2126 328.63L94.0254 273.731L104.532 221.492L163.916 266.726L181.231 218.735L216.273 204.666L249.35 188.67L278.696 199.907L296.489 172.028L308.081 182.9L335.304 132.645L370.552 134.357L383.971 97.8994L409.188 110.605L408.3 112.366L385.057 100.656L371.903 136.397L336.447 134.675L308.598 186.088L296.874 175.092L279.493 202.324L249.44 190.816L217.07 206.468L182.786 220.236L164.858 269.923L105.844 224.971L95.8926 274.452L62.9049 329.642Z" fill="#1F1301"/>
<path d="M62.3926 331.542L60.4958 331L91.2752 223.295L104.382 119.994L145.271 171.56L182.685 155.943L216.324 164.314L237.833 127.589L268.322 172.359L334.955 239.19L341.765 212.074L384.66 191.656L395.33 136.598L423.505 102.404L425.026 103.658L397.17 137.465L386.407 193.009L343.452 213.456L336.019 243.05L266.745 173.545L237.959 131.277L217.28 166.584L182.842 158.014L144.654 173.955L105.749 124.891L93.2114 223.694L93.1917 223.765L62.3926 331.542Z" fill="#230341"/>
<path d="M61.528 333.49L57.5156 334.058L58.9785 21.2451L62.9802 21.793L61.528 333.49Z" fill="#29294F"/>
<path d="M53.1545 20.4689L68.7183 22.5982L61.0402 10.894L53.1545 20.4689Z" fill="black"/>
<path d="M57.5166 333.525L57.5364 329.386L433.107 277.59L433.098 280.346L57.5166 333.525Z" fill="#29294F"/>
<path d="M108.815 223.432C108.804 225.801 107.009 227.811 104.796 227.921C102.574 228.031 100.775 226.185 100.786 223.798C100.796 221.41 102.613 219.399 104.834 219.307C107.047 219.216 108.826 221.062 108.815 223.432Z" fill="#1F1301"/>
<path d="M107.398 223.493C107.391 225.027 106.228 226.326 104.798 226.395C103.363 226.464 102.202 225.271 102.209 223.731C102.216 222.189 103.388 220.891 104.823 220.828C106.253 220.767 107.405 221.96 107.398 223.493Z" fill="white"/>
<path d="M185.451 219.934C185.442 222.134 183.894 223.994 181.988 224.088C180.074 224.183 178.525 222.464 178.534 220.249C178.543 218.034 180.108 216.173 182.021 216.094C183.928 216.015 185.46 217.734 185.451 219.934Z" fill="#1F1301"/>
<path d="M184.232 219.986C184.226 221.409 183.224 222.612 181.991 222.671C180.755 222.73 179.756 221.62 179.762 220.19C179.768 218.76 180.777 217.557 182.013 217.504C183.246 217.452 184.238 218.563 184.232 219.986Z" fill="white"/>
<path d="M167.702 267.654C167.693 269.893 166.089 271.862 164.114 272.052C162.131 272.242 160.526 270.569 160.536 268.313C160.546 266.058 162.166 264.087 164.149 263.913C166.124 263.739 167.711 265.414 167.702 267.654Z" fill="#1F1301"/>
<path d="M166.438 267.767C166.431 269.216 165.393 270.489 164.116 270.61C162.836 270.73 161.8 269.649 161.807 268.193C161.813 266.737 162.858 265.464 164.139 265.35C165.415 265.236 166.444 266.318 166.438 267.767Z" fill="white"/>
<path d="M108.979 122.604C108.969 124.973 107.174 126.813 104.962 126.714C102.741 126.616 100.942 124.6 100.952 122.214C100.963 119.828 102.779 117.988 105 118.105C107.212 118.222 108.99 120.235 108.979 122.604Z" fill="#230341"/>
<path d="M107.567 122.533C107.56 124.065 106.398 125.255 104.967 125.189C103.533 125.122 102.373 123.821 102.38 122.28C102.387 120.74 103.558 119.552 104.992 119.625C106.423 119.698 107.574 121 107.567 122.533Z" fill="white"/>
<path d="M148.508 171.758C148.498 174.039 146.833 175.891 144.782 175.893C142.723 175.895 141.056 174.035 141.066 171.737C141.076 169.439 142.76 167.588 144.818 167.602C146.869 167.616 148.518 169.476 148.508 171.758Z" fill="#230341"/>
<path d="M147.197 171.751C147.19 173.228 146.113 174.424 144.786 174.424C143.456 174.424 142.381 173.221 142.387 171.739C142.393 170.256 143.479 169.059 144.809 169.066C146.135 169.073 147.203 170.275 147.197 171.751Z" fill="white"/>
<path d="M219.695 165.635C219.686 167.759 218.243 169.473 216.467 169.463C214.683 169.454 213.239 167.712 213.248 165.575C213.257 163.437 214.715 161.723 216.498 161.746C218.274 161.771 219.703 163.512 219.695 165.635Z" fill="#230341"/>
<path d="M218.559 165.621C218.554 166.995 217.62 168.103 216.47 168.095C215.318 168.088 214.387 166.962 214.392 165.582C214.398 164.202 215.338 163.094 216.49 163.108C217.639 163.122 218.564 164.247 218.559 165.621Z" fill="white"/>
<path d="M240.513 129.526C240.505 131.604 239.124 133.228 237.424 133.153C235.717 133.077 234.335 131.321 234.344 129.23C234.352 127.139 235.746 125.516 237.453 125.605C239.155 125.694 240.522 127.45 240.513 129.526Z" fill="#230341"/>
<path d="M239.428 129.472C239.422 130.816 238.529 131.865 237.429 131.815C236.326 131.765 235.436 130.631 235.441 129.281C235.447 127.931 236.346 126.883 237.448 126.938C238.548 126.993 239.433 128.127 239.428 129.472Z" fill="white"/>
<path d="M337.394 240.771C337.387 242.635 336.277 244.237 334.91 244.351C333.538 244.464 332.429 243.036 332.436 241.161C332.442 239.287 333.563 237.684 334.934 237.581C336.301 237.479 337.401 238.908 337.394 240.771Z" fill="#230341"/>
<path d="M336.519 240.838C336.514 242.044 335.796 243.079 334.911 243.152C334.025 243.224 333.309 242.3 333.314 241.091C333.319 239.88 334.041 238.844 334.927 238.777C335.811 238.709 336.523 239.632 336.519 240.838Z" fill="white"/>
<path d="M167.903 220.15C167.893 222.389 166.29 224.283 164.316 224.379C162.334 224.476 160.729 222.728 160.739 220.473C160.748 218.218 162.369 216.325 164.35 216.243C166.325 216.162 167.912 217.911 167.903 220.15Z" fill="#023A45"/>
<path d="M166.641 220.204C166.635 221.652 165.597 222.876 164.32 222.937C163.04 222.998 162.005 221.868 162.012 220.413C162.018 218.958 163.063 217.734 164.343 217.68C165.619 217.625 166.647 218.756 166.641 220.204Z" fill="white"/>
<path d="M219.307 261.548C219.299 263.673 217.855 265.532 216.076 265.7C214.291 265.869 212.846 264.272 212.855 262.132C212.863 259.992 214.322 258.132 216.107 257.977C217.886 257.824 219.316 259.422 219.307 261.548Z" fill="#023A45"/>
<path d="M218.171 261.648C218.165 263.024 217.231 264.225 216.08 264.332C214.927 264.44 213.996 263.408 214.001 262.026C214.006 260.645 214.948 259.443 216.101 259.341C217.25 259.24 218.176 260.273 218.171 261.648Z" fill="white"/>
<path d="M251.817 237.953C251.808 240.006 250.461 241.767 248.801 241.887C247.136 242.008 245.788 240.431 245.796 238.364C245.804 236.298 247.165 234.535 248.831 234.427C250.49 234.321 251.824 235.899 251.817 237.953Z" fill="#023A45"/>
<path d="M250.754 238.022C250.749 239.351 249.876 240.489 248.803 240.565C247.728 240.641 246.858 239.622 246.863 238.288C246.869 236.954 247.747 235.815 248.822 235.744C249.895 235.674 250.759 236.694 250.754 238.022Z" fill="white"/>
<path d="M285.938 131.196C285.931 133.173 284.68 134.721 283.141 134.651C281.596 134.582 280.346 132.914 280.354 130.925C280.361 128.935 281.623 127.389 283.168 127.47C284.707 127.551 285.946 129.219 285.938 131.196Z" fill="#023A45"/>
<path d="M284.952 131.145C284.948 132.424 284.138 133.424 283.142 133.378C282.144 133.332 281.338 132.254 281.343 130.97C281.347 129.686 282.162 128.686 283.16 128.737C284.156 128.788 284.958 129.866 284.952 131.145Z" fill="white"/>
<path d="M337.682 160.002C337.675 161.865 336.566 163.36 335.2 163.342C333.829 163.324 332.72 161.79 332.727 159.916C332.734 158.042 333.853 156.548 335.224 156.577C336.589 156.606 337.688 158.14 337.682 160.002Z" fill="#023A45"/>
<path d="M336.807 159.985C336.803 161.19 336.085 162.156 335.202 162.143C334.317 162.13 333.601 161.139 333.605 159.929C333.61 158.72 334.332 157.754 335.217 157.771C336.101 157.789 336.811 158.78 336.807 159.985Z" fill="white"/>
<path d="M410.347 76.944C410.341 78.6455 409.415 79.9115 408.275 79.7709C407.132 79.6303 406.207 78.1295 406.213 76.4189C406.218 74.7084 407.152 73.4439 408.296 73.5936C409.436 73.7425 410.352 75.2426 410.347 76.944Z" fill="#023A45"/>
<path d="M409.619 76.8489C409.615 77.9492 409.015 78.7676 408.278 78.6757C407.539 78.5837 406.943 77.6141 406.947 76.51C406.951 75.4058 407.553 74.5881 408.292 74.6839C409.029 74.7789 409.622 75.7485 409.619 76.8489Z" fill="white"/>
<path d="M387.053 192.104C387.047 193.858 386.063 195.305 384.854 195.337C383.64 195.368 382.658 193.964 382.664 192.201C382.67 190.438 383.661 188.991 384.875 188.969C386.085 188.946 387.059 190.35 387.053 192.104Z" fill="#230341"/>
<path d="M386.278 192.118C386.274 193.253 385.638 194.188 384.855 194.207C384.071 194.227 383.438 193.32 383.442 192.181C383.445 191.043 384.085 190.108 384.869 190.092C385.651 190.077 386.281 190.985 386.278 192.118Z" fill="white"/>
<path d="M397.818 136.628C397.812 138.358 396.855 139.717 395.678 139.665C394.497 139.612 393.542 138.159 393.548 136.421C393.554 134.682 394.518 133.323 395.699 133.385C396.877 133.447 397.824 134.899 397.818 136.628Z" fill="#230341"/>
<path d="M397.065 136.59C397.062 137.708 396.442 138.587 395.681 138.552C394.918 138.517 394.302 137.578 394.305 136.455C394.309 135.333 394.932 134.454 395.695 134.493C396.456 134.532 397.069 135.471 397.065 136.59Z" fill="white"/>
<path d="M299.001 173.414C298.994 175.362 297.78 176.945 296.285 176.949C294.785 176.953 293.572 175.367 293.579 173.407C293.587 171.447 294.813 169.864 296.312 169.872C297.806 169.88 299.008 171.466 299.001 173.414Z" fill="#1F1301"/>
<path d="M298.045 173.41C298.04 174.671 297.254 175.693 296.288 175.694C295.319 175.696 294.536 174.671 294.541 173.405C294.545 172.14 295.336 171.117 296.305 171.121C297.271 171.125 298.049 172.15 298.045 173.41Z" fill="white"/>
<path d="M310.463 184.006C310.456 185.929 309.273 187.505 307.817 187.527C306.355 187.549 305.174 185.998 305.18 184.063C305.188 182.129 306.381 180.552 307.842 180.542C309.298 180.532 310.469 182.083 310.463 184.006Z" fill="#1F1301"/>
<path d="M309.532 184.014C309.528 185.258 308.762 186.277 307.821 186.289C306.877 186.302 306.115 185.299 306.119 184.05C306.124 182.802 306.895 181.783 307.838 181.775C308.778 181.767 309.537 182.769 309.532 184.014Z" fill="white"/>
<path d="M385.496 99.4376C385.49 101.194 384.502 102.529 383.287 102.419C382.068 102.309 381.083 100.786 381.089 99.0204C381.095 97.2544 382.09 95.92 383.309 96.0408C384.524 96.1609 385.501 97.6814 385.496 99.4376Z" fill="#1F1301"/>
<path d="M384.717 99.3622C384.714 100.498 384.074 101.361 383.289 101.289C382.501 101.216 381.865 100.233 381.869 99.0925C381.873 97.9518 382.515 97.0901 383.302 97.1669C384.088 97.2429 384.721 98.2262 384.717 99.3622Z" fill="white"/>
<path d="M281.459 200.205C281.452 202.192 280.189 203.844 278.634 203.895C277.074 203.946 275.811 202.366 275.818 200.366C275.826 198.366 277.101 196.714 278.662 196.676C280.216 196.638 281.467 198.218 281.459 200.205Z" fill="#1F1301"/>
<path d="M280.466 200.231C280.461 201.517 279.643 202.585 278.637 202.616C277.63 202.647 276.815 201.626 276.82 200.335C276.824 199.044 277.647 197.977 278.655 197.951C279.662 197.924 280.471 198.945 280.466 200.231Z" fill="white"/>
<g style="mix-blend-mode:hue">
<path d="M19.05 10.0264H451.185L465.222 279.233L19.05 342.399V10.0264Z" fill="#F3BB2B"/>
</g>
</g>
<defs>
<clipPath id="clip0_0_3352">
<rect width="477.367" height="461.036" fill="white"/>
</clipPath>
</defs>
</svg>
