<svg width="61" height="59" viewBox="0 0 61 59" fill="none" xmlns="http://www.w3.org/2000/svg">
<g clip-path="url(#clip0_0_6033)">
<g clip-path="url(#clip1_0_6033)">
<g clip-path="url(#clip2_0_6033)">
<path d="M11.1596 6.04297C8.96673 6.04297 7.18274 7.82637 7.18274 10.0183C7.18274 12.2102 8.96673 13.9936 11.1596 13.9936C13.3541 13.9936 15.1397 12.2102 15.1397 10.0183C15.1397 7.82637 13.3541 6.04297 11.1596 6.04297ZM11.1596 11.6227C10.274 11.6227 9.55367 10.903 9.55367 10.0183C9.55367 9.13356 10.274 8.4139 11.1596 8.4139C12.0468 8.4139 12.7689 9.13368 12.7689 10.0184C12.7689 10.9031 12.0468 11.6227 11.1596 11.6227Z" fill="white"/>
<path d="M45.9322 6.04297H35.4195C33.2266 6.04297 31.4426 7.82637 31.4426 10.0183C31.4426 12.2102 33.2266 13.9936 35.4195 13.9936H45.9322C48.125 13.9936 49.9089 12.2102 49.9089 10.0183C49.9089 7.82637 48.125 6.04297 45.9322 6.04297ZM45.9322 11.6227H35.4195C34.534 11.6227 33.8136 10.903 33.8136 10.0183C33.8136 9.13356 34.5341 8.41378 35.4195 8.41378H45.9322C46.8177 8.41378 47.538 9.13356 47.538 10.0183C47.538 10.903 46.8177 11.6227 45.9322 11.6227Z" fill="white"/>
<path d="M21.4659 6.04297C19.2731 6.04297 17.4891 7.82637 17.4891 10.0183C17.4891 12.2102 19.2731 13.9936 21.4659 13.9936C23.6605 13.9936 25.446 12.2102 25.446 10.0183C25.446 7.82637 23.6605 6.04297 21.4659 6.04297ZM21.4659 11.6227C20.5804 11.6227 19.8601 10.903 19.8601 10.0183C19.8601 9.13356 20.5805 8.41378 21.4659 8.41378C22.3533 8.41378 23.0753 9.13356 23.0753 10.0183C23.0753 10.903 22.3533 11.6227 21.4659 11.6227Z" fill="white"/>
<path d="M19.5331 25.6947C18.8965 25.5422 18.2566 25.9353 18.1046 26.5722L15.7528 36.4134C15.6007 37.0502 15.9934 37.6898 16.6302 37.842C16.7229 37.8641 16.8156 37.8748 16.9068 37.8748C17.4427 37.8748 17.9287 37.5087 18.0587 36.9646L20.4105 27.1232C20.5627 26.4865 20.1698 25.847 19.5331 25.6947Z" fill="white"/>
<path d="M23.885 36.685C24.1109 36.8863 24.3925 36.9853 24.6731 36.9853C24.9995 36.9853 25.3245 36.8513 25.5588 36.5883L28.883 32.8567C29.4315 32.2461 29.4315 31.2899 28.8864 30.6832L25.5587 26.9477C25.123 26.4587 24.3736 26.4157 23.885 26.851C23.396 27.2865 23.3527 28.036 23.7882 28.5247L26.6773 31.7679L23.7882 35.0112C23.3528 35.5002 23.3961 36.2496 23.885 36.685Z" fill="white"/>
<path d="M12.2779 26.8515C11.7889 26.4159 11.0398 26.4595 10.6042 26.9482L7.28042 30.6794C6.73121 31.2902 6.73121 32.2468 7.27665 32.8533L10.6043 36.5888C10.8386 36.8519 11.1636 36.9857 11.4901 36.9857C11.7706 36.9857 12.0523 36.8867 12.2781 36.6855C12.7672 36.25 12.8105 35.5005 12.375 35.0118L9.48583 31.7686L12.375 28.5253C12.8103 28.0363 12.767 27.2869 12.2779 26.8515Z" fill="white"/>
<path d="M57.6903 39.4587H57.2502C57.0197 38.712 56.721 37.9911 56.3566 37.3023L56.6707 36.9871C57.1723 36.4886 57.4492 35.8229 57.4502 35.1126C57.4512 34.4008 57.1753 33.7324 56.6731 33.2303L56.0611 32.6186V7.36822C56.0611 3.83233 53.566 0.955811 50.4987 0.955811H5.72327C2.65607 0.955811 0.160889 3.83233 0.160889 7.36822V40.5009C0.160889 44.0368 2.65607 46.9134 5.72327 46.9134H12.6784C13.3331 46.9134 13.8638 46.3826 13.8638 45.7279C13.8638 45.0733 13.3331 44.5425 12.6784 44.5425H5.72327C3.99336 44.5425 2.53182 42.6916 2.53182 40.501V18.9942H53.6902V30.9735C53.555 30.9527 53.4182 30.9391 53.279 30.9391C53.2775 30.9391 53.2761 30.9391 53.2748 30.9391C52.5645 30.9402 51.8988 31.2167 51.4042 31.7141L51.0838 32.0332C50.3804 31.6615 49.648 31.3593 48.8927 31.1285V30.7063C48.8927 29.2411 47.7004 28.0493 46.2349 28.0493H44.0896C42.626 28.0493 41.4354 29.2411 41.4354 30.7063V31.1574C40.6943 31.3903 39.9787 31.69 39.2948 32.0539L38.9878 31.7478C38.489 31.2467 37.8232 30.9699 37.113 30.9689C37.1118 30.9689 37.1104 30.9689 37.109 30.9689C36.3986 30.9689 35.7316 31.2446 35.2305 31.7453L33.7149 33.2602C33.2127 33.7622 32.9369 34.4307 32.9379 35.1425C32.9389 35.8527 33.2157 36.5184 33.7135 37.0131L34.0408 37.3414C33.6855 38.0197 33.3936 38.7273 33.1678 39.4585H32.7176C31.2538 39.4585 30.0631 40.6488 30.0631 42.1121V44.2595C30.0631 44.3549 30.0684 44.4491 30.0783 44.5421H23.1809C22.5262 44.5421 21.9954 45.0728 21.9954 45.7275C21.9954 46.3822 22.5262 46.9128 23.1809 46.9128H33.1723C33.4015 47.651 33.6979 48.3642 34.0593 49.0469L33.739 49.3658C32.7077 50.4026 32.7087 52.0859 33.7415 53.1179L35.2579 54.6338C35.7565 55.1349 36.4223 55.4115 37.1327 55.4127H37.1366C37.847 55.4127 38.514 55.137 39.0151 54.6361L39.3327 54.3188C40.0215 54.682 40.7378 54.9787 41.4751 55.2066V55.6653C41.4751 57.1306 42.6658 58.3224 44.1295 58.3224H46.278C47.7417 58.3224 48.9324 57.1306 48.9324 55.6653V55.2094C49.6767 54.9798 50.3958 54.682 51.0839 54.3187L51.4 54.6337C51.8985 55.1349 52.5642 55.4114 53.2745 55.4127H53.2786C53.9889 55.4127 54.656 55.137 55.1581 54.6353L56.6704 53.1203C57.172 52.6218 57.4488 51.9561 57.4499 51.2458C57.4509 50.534 57.175 49.8656 56.6727 49.3635L56.3563 49.0473C56.7172 48.3639 57.0132 47.6503 57.2421 46.913H57.6901C59.1556 46.913 60.3479 45.7227 60.3479 44.2595V42.1121C60.3481 40.649 59.1558 39.4587 57.6903 39.4587ZM2.53182 16.6233V7.36822C2.53182 5.17762 3.99336 3.32674 5.72327 3.32674H50.4987C52.2287 3.32674 53.6903 5.17762 53.6903 7.36822V16.6234L2.53182 16.6233ZM57.9772 44.2597C57.9772 44.4102 57.8432 44.5423 57.6902 44.5423H56.3346C55.7819 44.5423 55.3025 44.9242 55.1791 45.4629C54.923 46.5803 54.4832 47.64 53.8719 48.6127C53.5774 49.0811 53.6461 49.6909 54.0376 50.0821L54.9969 51.0408C55.0686 51.1125 55.0791 51.198 55.0791 51.2427C55.079 51.2961 55.0651 51.3735 54.9959 51.4421L53.4813 52.9595C53.4095 53.0312 53.3238 53.042 53.2787 53.042C53.2248 53.042 53.1469 53.028 53.0775 52.958L52.1146 51.9993C51.7231 51.6093 51.1144 51.5417 50.6469 51.8357C49.6728 52.4484 48.6086 52.8889 47.484 53.1448C46.9445 53.2678 46.5617 53.7473 46.5617 54.3008V55.6658C46.5617 55.818 46.4293 55.9518 46.2783 55.9518H44.1298C43.9787 55.9518 43.8463 55.8182 43.8463 55.6658V54.2974C43.8463 53.7436 43.4625 53.2633 42.9222 53.1412C41.8119 52.8901 40.7497 52.4503 39.7653 51.8343C39.5714 51.7129 39.3534 51.6537 39.1368 51.6537C38.8306 51.6537 38.527 51.772 38.2985 52.0008L37.3393 52.9595C37.2675 53.0312 37.1818 53.042 37.1367 53.042C37.1368 53.042 37.1366 53.042 37.1367 53.042C37.083 53.042 37.0047 53.028 36.9367 52.9596L35.4177 51.4413C35.3114 51.3351 35.3125 51.1468 35.4164 51.0424L36.379 50.0836C36.7724 49.692 36.8411 49.08 36.5448 48.6106C35.9324 47.6411 35.4921 46.5821 35.2358 45.4633C35.1124 44.9246 34.633 44.5425 34.0802 44.5425H32.7177C32.5641 44.5425 32.4342 44.4131 32.4342 44.2599V42.1126C32.4342 41.9594 32.5641 41.8299 32.7177 41.8299H34.0767C34.6301 41.8299 35.1099 41.447 35.2328 40.9075C35.4858 39.7959 35.9204 38.7413 36.5248 37.7729C36.8166 37.3054 36.7476 36.6984 36.3584 36.3081L35.3886 35.3355C35.3229 35.2701 35.309 35.1927 35.3089 35.1393C35.3089 35.0947 35.3194 35.0091 35.3911 34.9375L36.9066 33.4227C36.9785 33.351 37.0642 33.3402 37.1093 33.3402C37.1629 33.3403 37.2412 33.3542 37.3106 33.4241L38.2666 34.3762C38.6593 34.7674 39.2703 34.8344 39.7379 34.5377C40.7065 33.9236 41.7674 33.4788 42.891 33.2158C43.427 33.0904 43.8061 32.6122 43.8061 32.0615V30.7066C43.8061 30.5516 43.9359 30.4205 44.0895 30.4205H46.2348C46.3903 30.4205 46.5217 30.5516 46.5217 30.7066V32.0415C46.5217 32.597 46.9074 33.0779 47.4496 33.1986C48.5775 33.4499 49.6536 33.8934 50.648 34.5174C51.1152 34.8103 51.7233 34.7426 52.1145 34.3531L53.0812 33.3902C53.1468 33.3242 53.2245 33.3105 53.2783 33.3104C53.3234 33.3104 53.4094 33.3211 53.4811 33.3929L54.9967 34.9076C55.0685 34.9792 55.079 35.0647 55.079 35.1095C55.0789 35.1628 55.065 35.2403 54.9954 35.3096L54.036 36.2717C53.6453 36.6636 53.5776 37.2734 53.8728 37.7412C54.4865 38.7142 54.928 39.7797 55.1852 40.908C55.3082 41.4474 55.7878 41.83 56.3412 41.83H57.6902C57.843 41.83 57.9772 41.9622 57.9772 42.1127V44.2597Z" fill="white"/>
<path d="M45.206 35.9463C41.2114 35.9463 37.9614 39.1947 37.9614 43.1877C37.9614 47.1787 41.2114 50.4257 45.206 50.4257C49.199 50.4257 52.4473 47.1788 52.4473 43.1877C52.4473 39.1948 49.199 35.9463 45.206 35.9463ZM45.206 48.0548C42.5187 48.0548 40.3324 45.8714 40.3324 43.1877C40.3324 40.502 42.5187 38.3171 45.206 38.3171C47.8915 38.3171 50.0763 40.502 50.0763 43.1877C50.0763 45.8714 47.8914 48.0548 45.206 48.0548Z" fill="white"/>
<path d="M17.9649 44.5425H17.9417C17.2871 44.5425 16.7563 45.0732 16.7563 45.7279C16.7563 46.3826 17.2871 46.9133 17.9417 46.9133H17.9649C18.6196 46.9133 19.1504 46.3826 19.1504 45.7279C19.1504 45.0732 18.6196 44.5425 17.9649 44.5425Z" fill="white"/>
</g>
</g>
</g>
<defs>
<clipPath id="clip0_0_6033">
<rect width="60.8086" height="57.3666" fill="white" transform="translate(0.160889 0.955811)"/>
</clipPath>
<clipPath id="clip1_0_6033">
<rect width="60.8086" height="57.3666" fill="white" transform="translate(0.160889 0.955811)"/>
</clipPath>
<clipPath id="clip2_0_6033">
<rect width="60.8086" height="57.3666" fill="white" transform="translate(0.160889 0.955811)"/>
</clipPath>
</defs>
</svg>
