<svg width="23" height="22" viewBox="0 0 23 22" fill="none" xmlns="http://www.w3.org/2000/svg">
<g clip-path="url(#clip0_115_13029)">
<path fill-rule="evenodd" clip-rule="evenodd" d="M17.4368 21.9496H6.46201C5.74137 21.9497 5.02777 21.8078 4.36198 21.5321C3.69618 21.2563 3.09122 20.8521 2.58165 20.3426C2.07208 19.833 1.66789 19.228 1.39215 18.5622C1.11641 17.8964 0.974528 17.1828 0.974609 16.4622V5.4874C0.974528 4.76676 1.11641 4.05316 1.39215 3.38737C1.66789 2.72157 2.07208 2.11661 2.58165 1.60704C3.09122 1.09747 3.69618 0.693277 4.36198 0.417538C5.02777 0.141799 5.74137 -8.10508e-05 6.46201 3.4736e-08H17.4368C18.1574 -8.10508e-05 18.871 0.141799 19.5368 0.417538C20.2026 0.693277 20.8076 1.09747 21.3172 1.60704C21.8267 2.11661 22.2309 2.72157 22.5067 3.38737C22.7824 4.05316 22.9243 4.76676 22.9242 5.4874V16.4622C22.9243 17.1828 22.7824 17.8964 22.5067 18.5622C22.2309 19.228 21.8267 19.833 21.3172 20.3426C20.8076 20.8521 20.2026 21.2563 19.5368 21.5321C18.871 21.8078 18.1574 21.9497 17.4368 21.9496Z" fill="#0ECB70"/>
<path fill-rule="evenodd" clip-rule="evenodd" d="M11.2635 6.17333H17.4368C18.2281 6.17328 18.9892 5.86934 19.5628 5.32429C20.1365 4.77924 20.4789 4.0347 20.5194 3.24443C20.5599 2.45416 20.2954 1.67851 19.7805 1.07768C19.2655 0.476845 18.5395 0.0967093 17.7523 0.0157763C17.646 0.00994595 17.5431 3.4736e-08 17.4368 3.4736e-08H6.46201C5.74137 -8.10508e-05 5.02777 0.141799 4.36198 0.417538C3.69618 0.693277 3.09122 1.09747 2.58165 1.60704C2.07208 2.11661 1.66789 2.72157 1.39215 3.38737C1.11641 4.05317 0.974528 4.76676 0.974609 5.4874V16.4622C0.974609 13.7334 2.05861 11.1164 3.98815 9.18687C5.91769 7.25733 8.5347 6.17333 11.2635 6.17333Z" fill="#15EB84"/>
<path fill-rule="evenodd" clip-rule="evenodd" d="M17.4366 10.9747C16.3513 10.9747 15.2904 11.2965 14.388 11.8995C13.4856 12.5025 12.7823 13.3595 12.3669 14.3622C11.9516 15.3649 11.8429 16.4682 12.0547 17.5326C12.2664 18.5971 12.789 19.5749 13.5564 20.3423C14.3239 21.1097 15.3016 21.6323 16.3661 21.8441C17.4305 22.0558 18.5339 21.9471 19.5366 21.5318C20.5393 21.1165 21.3963 20.4131 21.9992 19.5107C22.6022 18.6083 22.924 17.5474 22.924 16.4621V5.4873C22.9241 6.20794 22.7822 6.92154 22.5065 7.58734C22.2307 8.25314 21.8265 8.85809 21.317 9.36766C20.8074 9.87723 20.2025 10.2814 19.5367 10.5572C18.8709 10.8329 18.1573 10.9748 17.4366 10.9747Z" fill="#11B164"/>
<path fill-rule="evenodd" clip-rule="evenodd" d="M12.3056 3.59499C12.2929 3.53666 12.2961 3.47602 12.3147 3.41931C12.3333 3.3626 12.3666 3.31187 12.4114 3.27236C12.4561 3.23284 12.5105 3.20596 12.5691 3.19449C12.6277 3.18302 12.6883 3.18737 12.7446 3.2071C14.3496 4.03398 18.4652 7.07846 18.4652 12.0037C18.4652 13.732 17.7787 15.3894 16.5566 16.6115C15.3346 17.8335 13.6771 18.52 11.9489 18.52C10.2207 18.52 8.56323 17.8335 7.34119 16.6115C6.11915 15.3894 5.43262 13.732 5.43262 12.0037C5.43262 9.91922 6.79075 8.13719 8.16946 7.11036C8.21873 7.07624 8.27612 7.05568 8.33585 7.05074C8.39559 7.04581 8.45557 7.05668 8.50977 7.08225C8.56398 7.10783 8.61051 7.14721 8.64468 7.19645C8.67886 7.24569 8.69948 7.30305 8.70448 7.36278C8.76621 8.1413 8.92741 9.41026 9.3321 9.41026C9.54474 9.41026 10.9406 9.01894 11.8563 7.41354C12.628 6.06432 12.4736 4.45583 12.3056 3.59499Z" fill="white"/>
</g>
<defs>
<clipPath id="clip0_115_13029">
<rect x="0.974609" width="21.9496" height="21.9496" rx="10.9748" fill="white"/>
</clipPath>
</defs>
</svg>
