<svg width="1815" height="316" viewBox="0 0 1815 316" fill="none" xmlns="http://www.w3.org/2000/svg">
<g opacity="0.55">
<g opacity="0.6">
<mask id="mask0_258_4744" style="mask-type:luminance" maskUnits="userSpaceOnUse" x="432" y="0" width="902" height="251">
<g opacity="0.6">
<path d="M1333.6 244.802C1294.49 170.346 1234 108.461 1158.33 65.4751C1082.65 22.4901 994.5 -0.0539561 902.887 0.151044C811.275 0.355044 719.49 23.3001 636.921 66.6391C554.351 109.977 483.959 172.154 432.944 246.811L438.962 250.115C489.265 176.5 558.675 115.19 640.093 72.456C721.51 29.722 812.014 7.09704 902.348 6.89604C992.68 6.69404 1079.6 28.923 1154.23 71.3091C1228.85 113.695 1288.49 174.717 1327.05 248.134L1333.6 244.802Z" fill="white"/>
</g>
</mask>
<g mask="url(#mask0_258_4744)">
<path d="M1333.6 244.802C1294.49 170.346 1234 108.461 1158.33 65.4751C1082.65 22.4901 994.5 -0.0539561 902.887 0.151044C811.275 0.355044 719.49 23.3001 636.921 66.6391C554.351 109.977 483.959 172.154 432.944 246.811L438.962 250.115C489.265 176.5 558.675 115.19 640.093 72.456C721.51 29.722 812.014 7.09704 902.348 6.89604C992.68 6.69404 1079.6 28.923 1154.23 71.3091C1228.85 113.695 1288.49 174.717 1327.05 248.134L1333.6 244.802Z" fill="url(#paint0_linear_258_4744)" stroke="#999999" stroke-width="2"/>
</g>
</g>
<g opacity="0.6">
<mask id="mask1_258_4744" style="mask-type:luminance" maskUnits="userSpaceOnUse" x="478" y="39" width="813" height="226">
<g opacity="0.6">
<path d="M1290.22 259.597C1254.99 192.521 1200.5 136.77 1132.32 98.045C1064.15 59.32 984.731 39.011 902.199 39.195C819.667 39.379 736.98 60.0499 662.594 99.0929C588.208 138.136 524.793 194.15 478.835 261.407L484.256 264.384C529.574 198.065 592.104 142.832 665.452 104.333C738.8 65.835 820.333 45.453 901.714 45.271C983.094 45.09 1061.4 65.1149 1128.63 103.3C1195.85 141.485 1249.58 196.459 1284.32 262.599L1290.22 259.597Z" fill="white"/>
</g>
</mask>
<g mask="url(#mask1_258_4744)">
<path d="M1290.22 259.597C1254.99 192.521 1200.5 136.77 1132.32 98.045C1064.15 59.32 984.731 39.011 902.199 39.195C819.667 39.379 736.98 60.0499 662.594 99.0929C588.208 138.136 524.793 194.15 478.835 261.407L484.256 264.384C529.574 198.065 592.104 142.832 665.452 104.333C738.8 65.835 820.333 45.453 901.714 45.271C983.094 45.09 1061.4 65.1149 1128.63 103.3C1195.85 141.485 1249.58 196.459 1284.32 262.599L1290.22 259.597Z" fill="url(#paint1_linear_258_4744)" stroke="#999999" stroke-width="2"/>
</g>
</g>
<g opacity="0.3">
<path d="M1798.06 260.813C1812.26 267.831 1818.08 285.031 1811.07 299.231C1804.05 313.43 1786.85 319.253 1772.65 312.235C1758.45 305.218 1752.63 288.017 1759.64 273.818C1766.66 259.618 1783.86 253.795 1798.06 260.813Z" fill="white" stroke="#999999"/>
<path d="M1770.02 288.49L1799.32 302.966C1799.44 303.025 1799.44 303.183 1799.34 303.254L1799.3 303.279L1790.65 306.206C1790.44 306.275 1790.21 306.263 1790.01 306.163L1760.72 291.686C1760.6 291.627 1760.59 291.469 1760.69 291.398L1760.74 291.373L1769.38 288.447C1769.59 288.377 1769.82 288.389 1770.02 288.49Z" fill="black" stroke="#999999"/>
<path d="M1780.7 266.885L1809.99 281.362C1810.11 281.42 1810.12 281.578 1810.02 281.649L1809.97 281.674L1801.33 284.601C1801.12 284.671 1800.89 284.658 1800.69 284.558L1771.39 270.081C1771.28 270.023 1771.27 269.864 1771.37 269.793L1771.41 269.768L1780.06 266.842C1780.28 266.774 1780.51 266.792 1780.7 266.885Z" fill="black" stroke="#999999"/>
<path d="M1769.19 274.548L1798.48 289.025C1798.66 289.113 1798.79 289.258 1798.87 289.432L1798.9 289.507L1801.83 298.153C1801.88 298.297 1801.73 298.427 1801.59 298.36L1772.3 283.884C1772.12 283.796 1771.99 283.65 1771.91 283.477L1771.88 283.401L1768.95 274.754C1768.9 274.611 1769.05 274.482 1769.19 274.548Z" fill="black" stroke="#999999"/>
</g>
<g opacity="0.3">
<path d="M1403.74 77.7669C1421.69 71.5499 1441.28 81.0569 1447.49 99.0009C1453.71 116.945 1444.2 136.534 1426.26 142.75C1408.32 148.967 1388.73 139.464 1382.51 121.516C1376.29 103.568 1385.8 83.9849 1403.74 77.7669Z" fill="white" stroke="#999999"/>
<path d="M1417.55 104.457L1415.85 99.5529L1427.06 95.6679L1424.48 88.1959L1393.94 98.7759L1396.53 106.248L1407.74 102.362L1409.44 107.262C1400.47 110.839 1394.24 115.018 1394.99 117.18C1395.74 119.342 1403.22 118.772 1412.48 116.036L1417.92 131.744L1426.03 128.934L1420.59 113.225C1429.54 109.653 1435.76 105.479 1435.01 103.319C1434.26 101.159 1426.8 101.724 1417.55 104.457ZM1420.13 111.895V111.892C1419.9 111.985 1418.75 112.463 1416.14 113.37C1414.04 114.095 1412.55 114.546 1412.02 114.699L1412.03 114.705C1403.85 117.139 1397.35 117.818 1396.77 116.141C1396.19 114.463 1401.72 110.98 1409.64 107.833L1411.54 113.309C1412.08 113.162 1413.62 112.729 1415.7 112.007C1418.2 111.141 1419.42 110.601 1419.65 110.5L1417.75 105.024C1425.91 102.598 1432.39 101.924 1432.97 103.596C1433.55 105.268 1428.04 108.75 1420.13 111.892" fill="black"/>
<mask id="mask2_258_4744" style="mask-type:luminance" maskUnits="userSpaceOnUse" x="1393" y="88" width="43" height="44">
<g opacity="0.3">
<path d="M1417.55 104.457L1415.85 99.5529L1427.06 95.6679L1424.48 88.1959L1393.94 98.7759L1396.53 106.248L1407.74 102.362L1409.44 107.262C1400.47 110.839 1394.24 115.018 1394.99 117.18C1395.74 119.342 1403.22 118.772 1412.48 116.036L1417.92 131.744L1426.03 128.934L1420.59 113.225C1429.54 109.653 1435.76 105.479 1435.01 103.319C1434.26 101.159 1426.8 101.724 1417.55 104.457ZM1420.13 111.895V111.892C1419.9 111.985 1418.75 112.463 1416.14 113.37C1414.04 114.095 1412.55 114.546 1412.02 114.699L1412.03 114.705C1403.85 117.139 1397.35 117.818 1396.77 116.141C1396.19 114.463 1401.72 110.98 1409.64 107.833L1411.54 113.309C1412.08 113.162 1413.62 112.729 1415.7 112.007C1418.2 111.141 1419.42 110.601 1419.65 110.5L1417.75 105.024C1425.91 102.598 1432.39 101.924 1432.97 103.596C1433.55 105.268 1428.04 108.75 1420.13 111.892" fill="white"/>
</g>
</mask>
<g mask="url(#mask2_258_4744)">
<path d="M1415.85 99.553L1415.52 98.608L1414.58 98.936L1414.91 99.881L1415.85 99.553ZM1427.06 95.668L1427.39 96.613L1428.34 96.285L1428.01 95.341L1427.06 95.668ZM1424.48 88.196L1425.42 87.869L1425.09 86.924L1424.15 87.251L1424.48 88.196ZM1393.94 98.776L1393.61 97.8309L1392.67 98.1579L1392.99 99.103L1393.94 98.776ZM1396.53 106.248L1395.58 106.575L1395.91 107.52L1396.86 107.193L1396.53 106.248ZM1407.74 102.362L1408.69 102.035L1408.36 101.09L1407.42 101.417L1407.74 102.362ZM1409.44 107.262L1409.81 108.191L1410.7 107.837L1410.39 106.934L1409.44 107.262ZM1412.48 116.036L1413.43 115.709L1413.11 114.807L1412.2 115.077L1412.48 116.036ZM1417.92 131.744L1416.98 132.071L1417.31 133.016L1418.25 132.688L1417.92 131.744ZM1426.03 128.934L1426.36 129.879L1427.3 129.551L1426.98 128.607L1426.03 128.934ZM1420.59 113.225L1420.22 112.296L1419.33 112.65L1419.64 113.552L1420.59 113.225ZM1420.13 111.892L1421.07 111.564L1420.72 110.558L1419.74 110.969L1420.13 111.892ZM1412.02 114.699L1411.74 113.738L1410.73 114.031L1411.08 115.026L1412.02 114.699ZM1412.03 114.705L1412.31 115.664L1413.31 115.365L1412.97 114.378L1412.03 114.705ZM1409.64 107.833L1410.59 107.506L1410.25 106.518L1409.28 106.904L1409.64 107.833ZM1411.54 113.309L1410.6 113.636L1410.9 114.519L1411.8 114.274L1411.54 113.309ZM1419.65 110.5L1420.06 111.41L1420.89 111.034L1420.59 110.173L1419.65 110.5ZM1417.75 105.024L1417.47 104.066L1416.46 104.364L1416.81 105.352L1417.75 105.024ZM1417.55 104.457L1418.49 104.129L1416.79 99.226L1415.85 99.553L1414.91 99.881L1416.6 104.784L1417.55 104.457ZM1415.85 99.553L1416.18 100.498L1427.39 96.613L1427.06 95.668L1426.74 94.7229L1415.52 98.608L1415.85 99.553ZM1427.06 95.668L1428.01 95.341L1425.42 87.869L1424.48 88.196L1423.53 88.524L1426.12 95.9949L1427.06 95.668ZM1424.48 88.196L1424.15 87.251L1393.61 97.8309L1393.94 98.776L1394.27 99.721L1424.8 89.141L1424.48 88.196ZM1393.94 98.776L1392.99 99.103L1395.58 106.575L1396.53 106.248L1397.47 105.92L1394.88 98.448L1393.94 98.776ZM1396.53 106.248L1396.86 107.193L1408.07 103.307L1407.74 102.362L1407.42 101.417L1396.2 105.303L1396.53 106.248ZM1407.74 102.362L1406.8 102.689L1408.5 107.589L1409.44 107.262L1410.39 106.934L1408.69 102.035L1407.74 102.362ZM1409.44 107.262L1409.07 106.333C1404.55 108.138 1400.67 110.108 1398.01 111.925C1396.68 112.829 1395.61 113.729 1394.9 114.586C1394.24 115.388 1393.68 116.438 1394.05 117.507L1394.99 117.18L1395.94 116.853C1395.93 116.841 1395.87 116.558 1396.45 115.857C1396.98 115.21 1397.88 114.436 1399.14 113.578C1401.64 111.871 1405.37 109.963 1409.81 108.191L1409.44 107.262ZM1394.99 117.18L1394.05 117.507C1394.42 118.577 1395.51 119.054 1396.53 119.275C1397.61 119.512 1399.01 119.552 1400.62 119.443C1403.83 119.222 1408.09 118.376 1412.76 116.995L1412.48 116.036L1412.2 115.077C1407.61 116.433 1403.5 117.24 1400.48 117.447C1398.96 117.552 1397.77 117.5 1396.95 117.321C1396.06 117.127 1395.94 116.864 1395.94 116.853L1394.99 117.18ZM1412.48 116.036L1411.54 116.364L1416.98 132.071L1417.92 131.744L1418.87 131.416L1413.43 115.709L1412.48 116.036ZM1417.92 131.744L1418.25 132.688L1426.36 129.879L1426.03 128.934L1425.71 127.989L1417.6 130.799L1417.92 131.744ZM1426.03 128.934L1426.98 128.607L1421.53 112.897L1420.59 113.225L1419.64 113.552L1425.09 129.261L1426.03 128.934ZM1420.59 113.225L1420.96 114.154C1425.48 112.351 1429.34 110.383 1432 108.568C1433.32 107.665 1434.4 106.767 1435.1 105.911C1435.76 105.109 1436.32 104.06 1435.95 102.991L1435.01 103.319L1434.06 103.646C1434.07 103.658 1434.13 103.94 1433.56 104.641C1433.03 105.286 1432.13 106.059 1430.87 106.916C1428.38 108.621 1424.66 110.526 1420.22 112.296L1420.59 113.225ZM1435.01 103.319L1435.95 102.991C1435.58 101.923 1434.49 101.446 1433.48 101.224C1432.4 100.987 1431 100.946 1429.4 101.055C1426.18 101.275 1421.93 102.119 1417.27 103.498L1417.55 104.457L1417.84 105.416C1422.42 104.062 1426.52 103.257 1429.53 103.051C1431.05 102.947 1432.23 102.999 1433.05 103.178C1433.94 103.372 1434.06 103.635 1434.06 103.646L1435.01 103.319ZM1420.13 111.895L1421.07 111.568V111.564L1420.13 111.892L1419.18 112.219V112.223L1420.13 111.895ZM1420.13 111.892L1419.74 110.969C1419.54 111.054 1418.41 111.525 1415.81 112.425L1416.14 113.37L1416.46 114.315C1419.1 113.402 1420.27 112.916 1420.51 112.814L1420.13 111.892ZM1416.14 113.37L1415.81 112.425C1413.73 113.144 1412.26 113.59 1411.74 113.738L1412.02 114.699L1412.3 115.66C1412.84 115.502 1414.35 115.046 1416.46 114.315L1416.14 113.37ZM1412.02 114.699L1411.08 115.026V115.033L1412.03 114.705L1412.97 114.378V114.372L1412.02 114.699ZM1412.03 114.705L1411.74 113.747C1407.69 114.953 1404.09 115.713 1401.45 115.969C1400.13 116.098 1399.11 116.093 1398.41 115.98C1398.06 115.923 1397.85 115.847 1397.74 115.785C1397.64 115.726 1397.68 115.721 1397.72 115.813L1396.77 116.141L1395.83 116.468C1396 116.98 1396.38 117.32 1396.78 117.536C1397.16 117.749 1397.62 117.876 1398.09 117.953C1399.03 118.108 1400.25 118.096 1401.65 117.96C1404.45 117.687 1408.19 116.891 1412.31 115.664L1412.03 114.705ZM1396.77 116.141L1397.72 115.813C1397.75 115.906 1397.71 115.932 1397.75 115.821C1397.8 115.703 1397.92 115.513 1398.16 115.253C1398.64 114.734 1399.44 114.098 1400.56 113.38C1402.78 111.953 1406.08 110.322 1410.01 108.763L1409.64 107.833L1409.28 106.904C1405.28 108.491 1401.85 110.175 1399.48 111.696C1398.3 112.452 1397.33 113.197 1396.69 113.902C1396.36 114.254 1396.08 114.635 1395.91 115.041C1395.74 115.454 1395.65 115.956 1395.83 116.468L1396.77 116.141ZM1409.64 107.833L1408.7 108.161L1410.6 113.636L1411.54 113.309L1412.49 112.981L1410.59 107.506L1409.64 107.833ZM1411.54 113.309L1411.8 114.274C1412.36 114.122 1413.92 113.683 1416.03 112.952L1415.7 112.007L1415.38 111.062C1413.32 111.775 1411.8 112.201 1411.28 112.344L1411.54 113.309ZM1415.7 112.007L1416.03 112.952C1418.56 112.077 1419.81 111.526 1420.06 111.41L1419.65 110.5L1419.23 109.589C1419.04 109.677 1417.85 110.205 1415.38 111.062L1415.7 112.007ZM1419.65 110.5L1420.59 110.173L1418.7 104.697L1417.75 105.024L1416.81 105.352L1418.7 110.827L1419.65 110.5ZM1417.75 105.024L1418.04 105.983C1422.08 104.78 1425.67 104.023 1428.3 103.769C1429.62 103.641 1430.64 103.646 1431.34 103.759C1431.68 103.816 1431.89 103.892 1432.01 103.954C1432.11 104.012 1432.06 104.017 1432.03 103.923L1432.97 103.596L1433.92 103.268C1433.74 102.757 1433.36 102.417 1432.97 102.202C1432.58 101.99 1432.13 101.863 1431.66 101.786C1430.72 101.631 1429.5 101.643 1428.11 101.778C1425.31 102.049 1421.58 102.842 1417.47 104.066L1417.75 105.024ZM1432.97 103.596L1432.03 103.923C1432 103.829 1432.04 103.803 1431.99 103.913C1431.94 104.031 1431.82 104.221 1431.59 104.481C1431.11 104.998 1430.31 105.634 1429.2 106.351C1426.97 107.777 1423.68 109.406 1419.76 110.963L1420.13 111.892L1420.5 112.821C1424.49 111.237 1427.91 109.554 1430.28 108.035C1431.45 107.279 1432.42 106.535 1433.06 105.831C1433.38 105.48 1433.66 105.098 1433.83 104.694C1434.01 104.282 1434.1 103.78 1433.92 103.268L1432.97 103.596Z" fill="#999999"/>
</g>
</g>
<g opacity="0.3">
<path d="M49.2908 149.774C66.6622 157.613 74.3297 177.89 66.4914 195.261C58.653 212.632 38.3762 220.3 21.0048 212.462C3.63354 204.623 -4.03415 184.346 3.80424 166.975C11.6426 149.604 31.9195 141.936 49.2908 149.774Z" fill="white" stroke="#999999"/>
<path d="M28.3571 192.094L27.9951 191.861C26.0231 190.585 24.825 189.165 24.2231 187.674C23.6259 186.195 23.5973 184.596 24.0473 182.916L24.0886 182.825C24.2147 182.545 24.4951 182.439 24.7746 182.565L27.0257 183.581C27.1824 183.652 27.3333 183.824 27.3234 184.118L27.309 184.252C27.0486 185.398 27.0476 186.561 27.619 187.658C28.1912 188.757 29.295 189.708 31.0757 190.511C33.7503 191.718 36.6144 191.115 37.7237 188.657C37.9814 188.086 38.1334 187.534 38.137 186.983C38.1408 186.426 37.9919 185.901 37.6941 185.386C37.1883 184.513 36.2446 183.659 34.8742 182.677L34.261 182.248L34.2359 182.233L33.7569 181.938C31.4144 180.474 29.8861 179.097 29.1236 177.647C28.3325 176.142 28.3293 174.485 29.2689 172.403C30.6404 169.364 34.0667 167.907 38.0933 169.113L38.5122 169.239L40.0413 165.85C40.3761 165.397 40.7059 165.356 40.9424 165.463L42.8758 166.335C43.3263 166.669 43.3671 166.998 43.2608 167.235L41.6373 170.832L42.0366 171.057C44.7507 172.576 46.0268 175.653 45.3165 178.582L45.2768 178.67C45.1506 178.95 44.8702 179.056 44.5908 178.93L42.4696 177.973C42.2844 177.889 42.1475 177.69 42.1316 177.485V177.397C42.2573 176.171 42.065 175.128 41.4753 174.24C40.8924 173.363 39.9599 172.695 38.7228 172.137C37.3375 171.512 36.0882 171.322 35.0384 171.591C33.9691 171.864 33.1831 172.594 32.7116 173.639C32.2612 174.637 32.0781 175.627 32.6145 176.692C33.0589 177.574 33.9704 178.447 35.4502 179.435L36.1194 179.865L36.1253 179.869C38.7444 181.448 40.4759 182.896 41.3212 184.459C42.1415 185.976 42.1649 187.678 41.1655 189.893C39.671 193.205 36.0386 194.728 31.9568 193.649L31.5473 193.541L29.9623 197.053C29.6283 197.504 29.2994 197.545 29.0633 197.438L27.1326 196.567C26.6793 196.232 26.6386 195.902 26.7453 195.666L28.3571 192.094Z" fill="black" stroke="#999999"/>
<path d="M51.8127 162.143C51.9078 162.143 52.0326 162.184 52.1509 162.329L52.1735 162.358L52.2011 162.382C58.1067 167.775 61.2893 175.612 60.5717 183.789L60.4896 184.582C58.8164 198.692 46.1348 208.765 32.0314 207.094L31.9102 207.08L31.8231 207.111C31.8142 207.11 31.8003 207.109 31.7813 207.104C31.7394 207.093 31.6964 207.076 31.6509 207.056C31.5245 206.946 31.4659 206.837 31.4445 206.735C31.4201 206.617 31.4331 206.463 31.5192 206.272L32.3558 204.418C32.4782 204.147 32.6116 203.994 32.7458 203.903C32.8759 203.815 33.0466 203.758 33.2933 203.746C39.7512 204.209 46.1681 201.893 50.765 197.122L50.7645 197.121C59.3857 188.474 59.2991 174.28 50.4934 165.708C50.4024 165.549 50.326 165.344 50.2943 165.131C50.2594 164.897 50.282 164.691 50.3515 164.536L51.1881 162.682C51.2194 162.613 51.2413 162.565 51.2614 162.525C51.2758 162.496 51.2857 162.479 51.292 162.469L51.4117 162.424L51.4979 162.316C51.598 162.19 51.7151 162.144 51.8127 162.143ZM38.283 155.973C38.4106 156.084 38.4694 156.194 38.4908 156.296C38.5152 156.413 38.5024 156.567 38.4165 156.758L37.5795 158.613C37.4572 158.883 37.324 159.036 37.1899 159.127C37.0582 159.216 36.8847 159.272 36.6332 159.283C30.1809 158.823 23.7706 161.138 19.1762 165.903C10.5492 174.549 10.6341 188.747 19.4405 197.321C19.5327 197.482 19.6115 197.691 19.6498 197.9C19.6827 198.079 19.6787 198.213 19.6621 198.297L19.6421 198.365L18.8062 200.218C18.775 200.287 18.753 200.335 18.733 200.375C18.7186 200.404 18.7069 200.421 18.7006 200.431L18.5827 200.476L18.4965 200.584C18.3963 200.71 18.2793 200.756 18.1817 200.757C18.0866 200.757 17.9619 200.716 17.8434 200.571L17.8191 200.542L17.791 200.516L17.2168 199.982C11.5687 194.566 8.71738 187.026 9.36878 179.228L9.44557 178.447C11.1198 164.337 23.8011 154.266 37.9039 155.937L38.0251 155.951L38.1104 155.919C38.1193 155.92 38.1337 155.921 38.154 155.927C38.1954 155.938 38.2381 155.954 38.283 155.973Z" fill="black" stroke="#999999"/>
</g>
<g opacity="0.3">
<path d="M486.068 79.582C501.405 90.783 504.758 112.295 493.557 127.632C482.356 142.969 460.844 146.321 445.507 135.121C430.17 123.92 426.817 102.407 438.018 87.071C449.219 71.734 470.732 68.381 486.068 79.582Z" fill="white" stroke="#999999"/>
<path d="M477.906 89.9209C478.242 89.9759 478.54 90.1709 478.726 90.4509L478.799 90.5749C478.856 90.6879 478.898 90.8789 478.887 91.2699C478.882 91.4649 478.865 91.6899 478.839 91.9569L478.736 92.8939V92.8959L477.974 99.7629V99.7639L477.97 99.7979V99.8019C477.817 101.174 477.735 101.876 477.55 102.429L477.463 102.658L477.462 102.659C477.22 103.243 476.855 103.776 476.398 104.213L476.195 104.394C475.823 104.711 475.371 104.958 474.553 105.336L473.603 105.767L473.601 105.768L457.357 113.122L457.315 113.141L457.314 113.142C456.046 113.709 455.394 113.997 454.812 114.118L454.565 114.16C453.925 114.245 453.28 114.195 452.665 114.016L452.404 113.932C451.796 113.7 451.215 113.282 449.911 112.329L444.443 108.336C443.861 107.911 443.452 107.612 443.163 107.361C442.876 107.112 442.763 106.955 442.714 106.833C442.576 106.471 442.618 106.071 442.829 105.739C442.899 105.632 443.042 105.502 443.381 105.314C443.549 105.221 443.749 105.122 443.989 105.01L444.837 104.624L475.716 90.6879C476.38 90.3889 476.85 90.1789 477.217 90.0509C477.586 89.9209 477.78 89.9029 477.906 89.9229V89.9209Z" fill="black" stroke="#999999"/>
<path d="M475.102 114.099C475.436 114.153 475.729 114.344 475.914 114.622L475.986 114.747C476.043 114.86 476.084 115.041 476.08 115.406C476.078 115.589 476.065 115.799 476.045 116.048L475.964 116.926L475.954 117.031L474.976 126.604C474.971 126.65 474.965 126.698 474.96 126.747C474.888 127.424 474.837 127.904 474.768 128.263C474.716 128.534 474.66 128.696 474.603 128.798L474.548 128.883L474.546 128.885C474.335 129.148 474.018 129.31 473.68 129.332H473.535H473.531C473.403 129.326 473.217 129.267 472.884 129.065C472.553 128.864 472.138 128.562 471.552 128.135L463.718 122.413C463.133 121.986 462.719 121.683 462.427 121.429C462.205 121.237 462.086 121.101 462.022 120.996L461.975 120.9L461.932 120.762C461.852 120.439 461.91 120.091 462.095 119.799C462.163 119.694 462.304 119.567 462.642 119.383C462.976 119.201 463.436 118.997 464.087 118.71L464.117 118.697L464.124 118.695L472.937 114.837C473.592 114.549 474.058 114.347 474.42 114.224C474.782 114.101 474.976 114.08 475.102 114.099Z" fill="black" stroke="#999999"/>
</g>
</g>
<defs>
<linearGradient id="paint0_linear_258_4744" x1="1334.21" y1="244.796" x2="463.211" y2="169.617" gradientUnits="userSpaceOnUse">
<stop offset="0.0149751" stop-color="#7B9ED6" stop-opacity="0"/>
<stop offset="0.141088" stop-color="#BABABA" stop-opacity="0.14"/>
<stop offset="0.525075" stop-color="#426EAB"/>
<stop offset="0.966088" stop-color="#D9D9D9" stop-opacity="0"/>
</linearGradient>
<linearGradient id="paint1_linear_258_4744" x1="1290.77" y1="259.592" x2="506.102" y2="191.864" gradientUnits="userSpaceOnUse">
<stop offset="0.0149751" stop-color="#95B4E5" stop-opacity="0"/>
<stop offset="0.141088" stop-color="#BABABA" stop-opacity="0.14"/>
<stop offset="0.525075" stop-color="#456FA9"/>
<stop offset="0.966088" stop-color="#D9D9D9" stop-opacity="0"/>
</linearGradient>
</defs>
</svg>
