<svg width="32" height="32" viewBox="0 0 32 32" fill="none" xmlns="http://www.w3.org/2000/svg">
<rect x="0.5" y="0.5" width="31" height="31" rx="15.5" stroke="white"/>
<path d="M16.5625 15.1656C18.8784 15.1656 20.7559 13.2887 20.7559 10.9734C20.7559 8.65816 18.8784 6.78125 16.5625 6.78125C14.2466 6.78125 12.3691 8.65816 12.3691 10.9734C12.3691 13.2887 14.2466 15.1656 16.5625 15.1656Z" fill="white"/>
<path d="M21.8151 17.3665C21.0871 16.6007 20.0991 16.1347 19.0452 16.0599C16.9955 15.9306 14.9398 15.9306 12.8901 16.0599C11.8522 16.1353 10.88 16.5958 10.1639 17.3509C9.46079 18.0926 9.07423 19.079 9.08621 20.1009C9.08621 23.295 12.7776 25.0642 16.0671 25.1688H16.3046C19.5139 25.3497 22.9124 23.6052 22.9124 20.4864V20.1595C22.9241 19.1212 22.5304 18.1192 21.8151 17.3665Z" fill="white"/>
</svg>
