<svg width="120" height="120" viewBox="0 0 120 120" fill="none" xmlns="http://www.w3.org/2000/svg">
<path opacity="0.07" d="M60.0009 111.641C88.5217 111.641 111.642 88.5207 111.642 59.9999C111.642 31.4791 88.5217 8.3584 60.0009 8.3584C31.48 8.3584 8.35938 31.4791 8.35938 59.9999C8.35938 88.5207 31.48 111.641 60.0009 111.641Z" fill="#653DFF"/>
<path d="M60 0C26.8626 0 0 26.8626 0 60C0 93.1374 26.8626 120 60 120C93.1374 120 120 93.1374 120 60C120 26.8626 93.1374 0 60 0ZM60 115.983C29.0819 115.983 4.01728 90.9181 4.01728 60C4.01728 29.0819 29.0819 4.01728 60 4.01728C90.9181 4.01728 115.983 29.0819 115.983 60C115.983 90.9181 90.9181 115.983 60 115.983Z" fill="#454C5B"/>
<path opacity="0.07" d="M60.0009 111.641C88.5217 111.641 111.642 88.5207 111.642 59.9999C111.642 31.4791 88.5217 8.3584 60.0009 8.3584C31.48 8.3584 8.35938 31.4791 8.35938 59.9999C8.35938 88.5207 31.48 111.641 60.0009 111.641Z" fill="#C5C5C5"/>
<path d="M60.0009 111.641C88.5217 111.641 111.642 88.5207 111.642 59.9999C111.642 31.4791 88.5217 8.3584 60.0009 8.3584C31.48 8.3584 8.35938 31.4791 8.35938 59.9999C8.35938 88.5207 31.48 111.641 60.0009 111.641Z" fill="#454C5B"/>
<path d="M96.6368 33.6189L79.3164 16.2636L113.686 16.0107L96.6368 33.6189Z" fill="#FFCB00"/>
<path d="M84.8594 34.5559L85.3659 22.3473L113.685 16.0107L84.8594 34.5559Z" fill="#F2A400"/>
<path d="M84.8594 34.5561L88.4353 25.373L92.6005 29.5757L84.8594 34.5561Z" fill="#F5BD00"/>
<path d="M113.685 16.0107L88.4355 25.3728L96.6361 33.6189L113.685 16.0107Z" fill="#FFCB00"/>
<path d="M62.6195 27.521C61.0706 26.4108 58.9867 26.4111 57.4382 27.5213L25.5762 50.3724L25.6464 93.1796L94.4039 93.311L94.425 50.3169L62.6195 27.521Z" fill="#DCDBE1"/>
<path d="M84.6046 36.8662H35.3925C33.1133 36.8662 31.2656 38.7139 31.2656 40.9931V81.0648C31.2656 83.344 33.1132 85.1917 35.3925 85.1917H84.6046C86.8837 85.1917 88.7314 83.344 88.7314 81.0648V40.9931C88.7314 38.7139 86.8838 36.8662 84.6046 36.8662Z" fill="white"/>
<path d="M94.4251 50.3174L94.4039 93.3115H25.5762V50.3729L59.9971 77.9434L94.4251 50.3174Z" fill="#F2F2F2"/>
<path d="M55.3806 56.9482C56.0678 55.2827 56.9866 54.0334 58.1367 53.2007C59.2868 52.3679 60.4171 51.9515 61.5274 51.9515C62.2939 51.9515 62.955 52.1436 63.5102 52.5265C64.0655 52.91 64.5215 53.4058 64.8784 54.0137C65.2353 54.6222 65.5062 55.3223 65.6914 56.1155C65.8761 56.9086 65.969 57.7018 65.969 58.4949C65.969 59.394 65.8761 60.2002 65.6914 60.914C65.8234 60.914 65.9424 60.9208 66.0483 60.9338C66.1537 60.9474 66.2726 60.9536 66.4052 60.9536C66.9604 60.9536 67.4227 60.8545 67.7932 60.6562C68.1631 60.4579 68.4606 60.1871 68.6855 59.8432C68.9098 59.4999 69.0753 59.1034 69.1812 58.6535C69.2866 58.2043 69.3399 57.7284 69.3399 57.2259C69.3399 55.7189 69.1081 54.4437 68.6459 53.3989C68.183 52.3548 67.5683 51.5152 66.8018 50.8807C66.0347 50.2462 65.1622 49.7901 64.1845 49.5125C63.2061 49.2349 62.2016 49.0961 61.1706 49.0961C59.5049 49.0961 58.024 49.3873 56.7289 49.9686C55.4333 50.5505 54.3427 51.3367 53.4573 52.3282C52.5712 53.3197 51.8908 54.4635 51.4149 55.7585C50.939 57.0542 50.7011 58.4025 50.7011 59.8035C50.7011 61.5485 50.952 63.0157 51.4546 64.2054C51.9565 65.3951 52.6244 66.3606 53.4573 67.1004C54.2901 67.8409 55.2282 68.3694 56.2729 68.6867C57.317 69.004 58.3679 69.1626 59.4256 69.1626C60.906 69.1626 62.3999 68.9383 63.9069 68.4884C65.4138 68.0392 66.8149 67.497 68.1105 66.8625C68.4538 66.7305 68.7451 66.6642 68.983 66.6642C69.4589 66.6642 69.8419 66.8228 70.133 67.1401C70.4236 67.4573 70.5692 67.8142 70.5692 68.2108C70.5692 68.7927 70.1591 69.341 69.3399 69.8566C68.5201 70.3722 67.5218 70.822 66.3458 71.205C65.1691 71.5878 63.9465 71.8922 62.6776 72.1171C61.4085 72.3414 60.3241 72.4542 59.4256 72.4542C57.4161 72.4542 55.6582 72.0905 54.1513 71.3637C52.6443 70.6369 51.3951 69.6783 50.4037 68.4885C49.4122 67.2988 48.6718 65.9572 48.1828 64.4633C47.6933 62.97 47.4492 61.4562 47.4492 59.9226C47.4492 57.993 47.7925 56.1688 48.4802 54.4499C49.1674 52.7316 50.1123 51.2315 51.3157 49.9488C52.5184 48.6668 53.9461 47.6556 55.5987 46.9151C57.2507 46.1753 59.029 45.8047 60.9325 45.8047C62.5188 45.8047 64.0121 46.0494 65.4138 46.5383C66.8148 47.0278 68.0441 47.7478 69.1019 48.6997C70.159 49.6514 70.9986 50.8349 71.6201 52.249C72.241 53.6636 72.5521 55.2964 72.5521 57.1466C72.5521 57.9664 72.4461 58.7992 72.2349 59.645C72.0229 60.4914 71.6797 61.2449 71.2038 61.9054C70.7279 62.5666 70.1064 63.1088 69.3399 63.5314C68.5728 63.9546 67.6346 64.1659 66.5242 64.1659C66.1803 64.1659 65.7838 64.1461 65.3345 64.1064C64.8846 64.0667 64.5277 63.9676 64.2637 63.809C63.7086 64.4968 63.0474 65.0581 62.2809 65.4943C61.5138 65.9305 60.7343 66.1487 59.9411 66.1487C59.3066 66.1487 58.6852 65.99 58.0773 65.6729C57.4688 65.3556 56.9334 64.9193 56.4711 64.3641C56.0082 63.809 55.6383 63.1615 55.3607 62.4209C55.0831 61.6811 54.9443 60.8743 54.9443 60.0019C54.9443 58.9707 55.0893 57.9533 55.3806 56.9482ZM59.2669 56.4724C58.8703 56.9482 58.586 57.4973 58.4143 58.1182C58.2421 58.7397 58.1566 59.3277 58.1566 59.8829C58.1566 60.1741 58.1894 60.4913 58.2558 60.8346C58.3215 61.1786 58.4274 61.4958 58.573 61.7864C58.7179 62.0776 58.9163 62.3218 59.1678 62.5201C59.4188 62.7183 59.7292 62.8175 60.0998 62.8175C60.5757 62.8175 60.9784 62.6855 61.3093 62.4209C61.6396 62.157 61.9104 61.813 62.1223 61.3898C62.3336 60.9672 62.4854 60.4913 62.5784 59.9622C62.6708 59.4336 62.7172 58.905 62.7172 58.3759C62.7172 58.0059 62.6974 57.6292 62.6577 57.2456C62.6181 56.8628 62.545 56.5188 62.4396 56.2146C62.3336 55.9109 62.1948 55.6594 62.0232 55.4611C61.851 55.2628 61.6328 55.1636 61.3688 55.1636C60.9983 55.1636 60.6085 55.3223 60.199 55.6395C59.7887 55.9568 59.4782 56.2344 59.2669 56.4724Z" fill="#FFCB00"/>
<path d="M57.0978 70.6339L25.7305 93.3105H94.4016L62.5967 70.6339C60.9557 69.4475 58.7388 69.4475 57.0978 70.6339Z" fill="#DCDBE1"/>
<path d="M79.2997 27.949C78.4817 27.949 77.8315 27.8113 77.3594 27.5371L77.7121 27.1355C78.7692 27.7496 81.0483 27.3199 81.8373 27.1025L82.0319 27.5699C82.0004 27.5787 81.2478 27.7842 80.307 27.889C79.9474 27.929 79.6113 27.949 79.2997 27.949Z" fill="#F2A400"/>
<path d="M18.7073 85.2051C17.7505 85.2051 16.8185 85.1677 15.9371 85.094L15.9992 84.6031C16.86 84.6751 17.7711 84.7116 18.7073 84.7116C19.6193 84.7116 20.5801 84.677 21.5631 84.6087L21.6148 85.1004C20.6147 85.1698 19.6365 85.2051 18.7073 85.2051ZM10.4077 83.9849C8.57968 83.35 7.00231 82.4583 5.71931 81.3348L6.16393 80.999C7.38868 82.0716 8.89672 82.9235 10.646 83.5311L10.4077 83.9849ZM2.76499 77.3606C2.14439 76.0092 1.73721 74.486 1.55469 72.8333L2.15903 72.7892C2.33663 74.3979 2.73175 75.8779 3.33337 77.1879L2.76499 77.3606ZM33.6606 74.323L33.5643 73.8358C35.3922 73.5968 37.1052 72.9835 38.5182 72.0621L38.8978 72.4472C37.4029 73.4218 35.592 74.0704 33.6606 74.323ZM27.9572 73.9585C26.1458 73.4905 24.4773 72.7129 22.9983 71.6472L23.4007 71.2778C24.8159 72.2975 26.4107 73.0411 28.1408 73.4881L27.9572 73.9585ZM42.3237 68.7224L41.766 68.5281C42.4462 67.2367 42.8344 65.7682 42.9201 64.1635L43.5262 64.1849C43.4374 65.8493 43.0328 67.376 42.3237 68.7224ZM2.19298 68.257L1.58877 68.2118C1.75801 66.7135 2.07045 65.1825 2.51734 63.6613L3.1075 63.776C2.66728 65.2744 2.35957 66.782 2.19298 68.257ZM19.4911 67.9853C18.6349 66.6785 17.9892 65.2112 17.5718 63.624L18.1651 63.5208C18.5707 65.0631 19.197 66.4871 20.0266 67.7533L19.4911 67.9853ZM42.4526 59.6698C42.0666 58.1049 41.4724 56.6711 40.6864 55.4082L41.2278 55.1854C42.0384 56.4881 42.6507 57.9642 43.0475 59.5727L42.4526 59.6698ZM4.80428 59.4525L4.24413 59.2628C4.60698 58.5541 4.97799 57.9332 5.34693 57.4173C5.87067 56.6849 6.48648 55.9685 7.17726 55.2879L7.64514 55.602C6.97536 56.2619 6.3786 56.9561 5.87145 57.6654C5.51585 58.1625 5.15682 58.7638 4.80428 59.4525ZM16.954 59.0338C16.9404 58.6782 16.9335 58.3178 16.9335 57.9628C16.9335 56.7876 17.0089 55.5983 17.1575 54.4277L17.7611 54.4784C17.6145 55.6322 17.5403 56.8044 17.5403 57.9628C17.5403 58.3127 17.5471 58.6679 17.5605 59.0185L16.954 59.0338ZM11.6928 52.5213L11.3346 52.123C12.8492 51.2217 14.509 50.4464 16.2677 49.8189L16.5115 50.2707C14.7931 50.8839 13.1719 51.6411 11.6928 52.5213ZM37.3989 51.8327C36.0577 50.8293 34.488 50.0411 32.7334 49.4902L32.9519 49.0298C34.7779 49.6031 36.4122 50.424 37.8097 51.4694L37.3989 51.8327ZM18.7013 49.999L18.1112 49.8844C18.5443 48.4095 19.1033 46.927 19.7727 45.4781L20.3407 45.6516C19.6801 47.0814 19.1286 48.5441 18.7013 49.999ZM21.8095 48.9111L21.6918 48.427C23.2142 48.1821 24.7357 48.0579 26.214 48.0579C26.2145 48.0579 26.2151 48.0579 26.2157 48.0579C26.6016 48.0579 26.9898 48.0665 27.3695 48.0834L27.3362 48.5761C26.9676 48.5596 26.5906 48.5513 26.2157 48.5513C26.2151 48.5513 26.2146 48.5513 26.214 48.5513C24.7751 48.5513 23.2933 48.6724 21.8095 48.9111ZM22.6152 41.4937L22.0761 41.2674C22.9341 39.9152 23.9014 38.579 24.9512 37.296L25.4563 37.5693C24.419 38.8373 23.4631 40.1576 22.6152 41.4937ZM28.8126 33.9216L28.3484 33.6038C29.8323 32.1697 30.8711 31.3779 30.9967 31.2833C31.3932 30.9233 31.7983 30.5685 32.201 30.2287L32.6379 30.571C32.237 30.9094 31.8337 31.2627 31.439 31.6213L31.4179 31.6386C31.4074 31.6466 30.3353 32.4501 28.8126 33.9216ZM36.7661 27.511L36.3895 27.124C37.9121 26.1438 39.4976 25.2794 41.1021 24.5546L41.3967 24.986C39.8209 25.6978 38.263 26.5473 36.7661 27.511ZM73.3757 26.0234C71.713 25.2836 70.0105 24.6326 68.3154 24.0882L68.5382 23.6293C70.2566 24.1812 71.9821 24.841 73.6669 25.5905L73.3757 26.0234ZM46.4896 23.1597L46.2985 22.6913C48.0977 22.2058 49.9623 21.8635 51.8405 21.6737L51.9152 22.1635C50.0765 22.3492 48.251 22.6843 46.4896 23.1597ZM62.9907 22.7189C61.1405 22.3625 59.2862 22.1331 57.4792 22.0374L57.5187 21.5449C59.3594 21.6425 61.2476 21.876 63.1306 22.2387L62.9907 22.7189Z" fill="#F2A400"/>
</svg>
