<svg width="120" height="120" viewBox="0 0 120 120" fill="none" xmlns="http://www.w3.org/2000/svg">
<path opacity="0.07" d="M60.0009 111.641C88.5217 111.641 111.642 88.5207 111.642 59.9999C111.642 31.4791 88.5217 8.3584 60.0009 8.3584C31.48 8.3584 8.35938 31.4791 8.35938 59.9999C8.35938 88.5207 31.48 111.641 60.0009 111.641Z" fill="#653DFF"/>
<path d="M60 0C26.8626 0 0 26.8626 0 60C0 93.1374 26.8626 120 60 120C93.1374 120 120 93.1374 120 60C120 26.8626 93.1374 0 60 0ZM60 115.983C29.0819 115.983 4.01728 90.9181 4.01728 60C4.01728 29.0819 29.0819 4.01728 60 4.01728C90.9181 4.01728 115.983 29.0819 115.983 60C115.983 90.9181 90.9181 115.983 60 115.983Z" fill="#454C5B"/>
<path opacity="0.07" d="M60.0009 111.641C88.5217 111.641 111.642 88.5207 111.642 59.9999C111.642 31.4791 88.5217 8.3584 60.0009 8.3584C31.48 8.3584 8.35938 31.4791 8.35938 59.9999C8.35938 88.5207 31.48 111.641 60.0009 111.641Z" fill="#C5C5C5"/>
<path d="M60.0009 111.641C88.5217 111.641 111.642 88.5207 111.642 59.9999C111.642 31.4791 88.5217 8.3584 60.0009 8.3584C31.48 8.3584 8.35938 31.4791 8.35938 59.9999C8.35938 88.5207 31.48 111.641 60.0009 111.641Z" fill="#454C5B"/>
<g clip-path="url(#clip0_343_139)">
<mask id="mask0_343_139" style="mask-type:luminance" maskUnits="userSpaceOnUse" x="23" y="23" width="74" height="75">
<path d="M23 23.5H97V97.5H23V23.5Z" fill="white"/>
</mask>
<g mask="url(#mask0_343_139)">
<path d="M60 96.0547C78.4282 91.0474 91.2188 74.3175 91.2188 55.2211V32.6397C79.9064 32.6397 69.2681 29.8507 60 24.9453C50.7319 29.8507 40.0936 32.6397 28.7812 32.6397V55.2211C28.7812 74.3175 41.5718 91.0474 60 96.0547Z" stroke="white" stroke-width="2.89062" stroke-miterlimit="10" stroke-linecap="round" stroke-linejoin="round"/>
<path d="M35.7188 39.2517V55.2208C35.7188 70.5089 45.6119 84.059 60 88.8125C74.3881 84.059 84.2812 70.5089 84.2812 55.2208V39.2517C75.8519 38.4607 67.6074 36.2364 60 32.6904C52.3926 36.2364 44.1481 38.4607 35.7188 39.2517Z" stroke="white" stroke-width="2.89062" stroke-miterlimit="10" stroke-linecap="round" stroke-linejoin="round"/>
<path d="M59.9978 41.7352C54.9739 41.7352 50.8867 45.8226 50.8867 50.8463V53.5625H55.4422V50.8463C55.4422 48.3344 57.4859 46.2908 59.9978 46.2908C62.5098 46.2908 64.5534 48.3344 64.5534 50.8463V53.5625H69.1089V50.8463C69.1089 45.8226 65.0217 41.7352 59.9978 41.7352Z" fill="#F3BB2B"/>
<path d="M70.2617 53.5625H49.7383C49.0198 53.5625 48.4375 54.1448 48.4375 54.8633V73.0742C48.4375 73.7927 49.0198 74.375 49.7383 74.375H70.2617C70.9802 74.375 71.5625 73.7927 71.5625 73.0742V54.8633C71.5625 54.1448 70.9802 53.5625 70.2617 53.5625Z" stroke="#F3BB2B" stroke-width="2.89062" stroke-miterlimit="10" stroke-linecap="round" stroke-linejoin="round"/>
<path d="M63.0223 62.1113C63.0223 60.4505 61.6759 59.1041 60.0151 59.1041C58.3543 59.1041 57.0078 60.4505 57.0078 62.1113C57.0078 63.1339 57.5192 64.0358 58.2991 64.5791V68.832H61.7678V64.5516C62.5264 64.0057 63.0223 63.1174 63.0223 62.1113Z" fill="#F3BB2B"/>
</g>
</g>
<defs>
<clipPath id="clip0_343_139">
<rect width="74" height="74" fill="white" transform="translate(23 23.5)"/>
</clipPath>
</defs>
</svg>
