<svg width="20" height="20" viewBox="0 0 20 20" fill="none" xmlns="http://www.w3.org/2000/svg">
<path d="M10.0007 18.2416C5.51695 18.2416 1.86914 14.5442 1.86914 9.99943C1.86914 5.45475 5.51695 1.75732 10.0007 1.75732C14.4844 1.75732 18.1322 5.45472 18.1322 9.99943C18.1322 14.5442 14.4844 18.2416 10.0007 18.2416ZM10.0007 2.09713C5.70178 2.09713 2.20438 5.6421 2.20438 9.99943C2.20438 14.3568 5.70178 17.9018 10.0007 17.9018C14.2996 17.9018 17.797 14.3568 17.797 9.99943C17.797 5.64213 14.2996 2.09713 10.0007 2.09713Z" fill="#3FC700"/>
<path d="M19.2189 7.54517C18.7918 5.8937 17.9346 4.38055 16.7397 3.16937C14.9395 1.34467 12.5459 0.339802 10.0001 0.339802C7.45415 0.339802 5.06059 1.34467 3.26039 3.16937C2.06558 4.38043 1.20834 5.89351 0.781316 7.54498L0.457031 7.45887C0.899075 5.7491 1.78658 4.18279 3.02341 2.92917C4.88687 1.04026 7.36464 0 10.0001 0C12.6355 0 15.1132 1.04026 16.9767 2.92917C18.2136 4.18283 19.1011 5.74929 19.5431 7.45906L19.2189 7.54517Z" fill="#3FC700"/>
<path d="M19.9818 7.32368C20.0619 7.66691 19.8522 8.01108 19.5136 8.09222C19.1749 8.17339 18.8354 7.96084 18.7553 7.61761C18.6753 7.27438 18.885 6.9302 19.2236 6.84907C19.5622 6.7679 19.9018 6.98041 19.9818 7.32368Z" fill="#3FC700"/>
<path d="M0.0170381 7.32392C-0.0630089 7.66715 0.146653 8.01133 0.485278 8.09246C0.823933 8.17363 1.16346 7.96109 1.24351 7.61786C1.32358 7.27462 1.11389 6.93045 0.775266 6.84931C0.436641 6.76815 0.0970851 6.98066 0.0170381 7.32392Z" fill="#3FC700"/>
<path d="M9.99837 20.0002C7.36299 20.0002 4.88522 18.9599 3.02167 17.071C1.8129 15.8458 0.935544 14.3183 0.484375 12.6535L0.807574 12.5635C1.24332 14.1716 2.09096 15.6472 3.25865 16.8308C5.05894 18.6555 7.4525 19.6604 9.99837 19.6604C12.5441 19.6604 14.9377 18.6555 16.738 16.8308C17.9057 15.647 18.7533 14.1715 19.189 12.5637L19.5122 12.6536C19.0612 14.3181 18.1838 15.8457 16.975 17.071C15.1114 18.9599 12.6337 20.0002 9.99837 20.0002Z" fill="#3FC700"/>
<path d="M0.0460291 12.7921C-0.0377735 12.4498 0.168195 12.1033 0.50595 12.0184C0.843675 11.9335 1.1855 12.1423 1.26927 12.4846C1.35304 12.827 1.14707 13.1734 0.809316 13.2583C0.471591 13.3432 0.129801 13.1345 0.0460291 12.7921Z" fill="#3FC700"/>
<path d="M19.9509 12.7921C20.0346 12.4498 19.8287 12.1033 19.491 12.0184C19.1532 11.9335 18.8114 12.1423 18.7276 12.4846C18.6439 12.827 18.8498 13.1734 19.1876 13.2583C19.5253 13.3432 19.8671 13.1345 19.9509 12.7921Z" fill="#3FC700"/>
<path d="M13.3499 6.22803L8.55086 11.0923L6.6509 9.16651L5.33008 10.5053L8.55086 13.7699L14.6707 7.56679L13.3499 6.22803Z" fill="#3FC700"/>
</svg>
