<svg width="1000" height="385" viewBox="0 0 1000 385" fill="none" xmlns="http://www.w3.org/2000/svg">
<path d="M-91.6533 71.1236C-91.1759 72.3989 -89.9027 72.9455 -88.7887 72.7633L-72.3962 143.635C-72.3962 143.635 -72.5554 143.635 -72.5554 143.817C-73.9878 144.545 -74.4652 146.55 -73.8286 148.189C-73.3512 149.282 -72.3962 149.829 -71.4414 150.011L-66.5078 228.534C-66.826 228.534 -66.9852 228.716 -67.1443 228.899C-68.5766 229.627 -69.0541 231.631 -68.4175 233.271C-67.7809 234.911 -66.0303 235.457 -64.598 234.729C-64.2796 234.546 -63.9613 234.182 -63.643 233.818L-21.6277 262.604C-21.946 263.514 -21.946 264.425 -21.6277 265.336C-20.9911 266.976 -19.2405 267.523 -17.8081 266.794C-17.4897 266.612 -17.3307 266.429 -17.0123 266.247L10.043 289.021C9.56557 289.932 9.56557 291.025 10.043 292.118C10.3613 292.847 10.8386 293.393 11.4752 293.576L0.0166122 345.864C-0.460805 345.864 -1.0974 345.864 -1.57482 346.228C-3.00719 346.957 -3.48473 348.961 -2.84813 350.6C-2.21154 351.876 -0.938344 352.605 0.175791 352.24L11.7936 390.5C10.3612 391.228 9.8838 393.233 10.5204 394.872C11.157 396.512 12.9077 397.058 14.3401 396.33C15.1357 395.965 15.6132 395.054 15.7723 394.326L59.0609 400.156C59.0609 400.702 59.2201 401.067 59.3793 401.613C60.0159 403.253 61.7664 403.799 63.1987 403.071C64.6311 402.342 65.1086 400.338 64.4721 398.698C64.4721 398.698 64.4719 398.516 64.3128 398.516L134.498 335.843L134.657 336.025L134.816 335.479L135.93 334.386L134.975 334.568L148.025 276.45C148.503 276.45 149.139 276.45 149.617 276.085C150.731 275.539 151.208 274.264 151.208 272.988L191.632 262.239C191.632 262.421 191.632 262.421 191.791 262.604C192.428 264.243 194.178 264.79 195.611 264.061C196.884 263.332 197.362 261.693 197.043 260.235L309.721 271.166C309.721 271.531 309.88 272.077 310.039 272.442C310.676 274.081 312.426 274.628 313.859 273.899C315.291 273.17 315.768 271.166 315.132 269.527C314.813 268.98 314.495 268.434 314.018 268.251L347.121 168.23C347.757 168.412 348.394 168.412 349.031 168.048C349.667 167.683 349.985 167.137 350.304 166.59L387.863 180.801C387.704 181.53 387.863 182.259 388.181 182.805C388.818 184.445 390.569 184.991 392.001 184.263C392.956 183.716 393.592 182.623 393.592 181.348L429.401 176.428C429.401 176.611 429.56 176.793 429.56 177.157C430.197 178.797 431.947 179.343 433.38 178.615C434.812 177.886 435.289 175.882 434.653 174.242C434.653 174.06 434.494 174.06 434.494 173.878L483.034 124.687C483.83 125.598 485.103 125.78 486.217 125.051C487.649 124.323 488.127 122.319 487.49 120.679C487.013 119.586 486.217 119.039 485.262 118.857L483.512 76.4071C483.83 76.4071 484.148 76.2249 484.466 76.0427C485.74 75.314 486.376 73.6743 485.899 72.0346L507.066 62.1965C507.861 62.3786 508.816 62.0143 509.453 61.2855L546.057 94.9903C545.898 95.3547 545.739 95.5369 545.739 95.9013C545.421 97.541 546.376 99.3628 547.808 99.7272C548.922 100.092 550.036 99.545 550.673 98.4519L557.993 102.278L598.417 123.047C598.099 124.687 599.054 126.327 600.486 126.873C601.919 127.238 603.51 126.145 603.828 124.505C603.987 123.958 603.987 123.594 603.828 123.047L645.525 105.557C645.844 106.286 646.48 107.015 647.435 107.197L645.048 136.529L706.639 143.27C706.639 144.728 707.594 146.003 708.867 146.185C709.503 146.367 710.14 146.185 710.777 146.003L730.67 179.344C730.193 179.708 729.874 180.254 729.874 180.983C729.556 182.623 730.511 184.445 731.943 184.809C732.58 184.991 733.376 184.809 733.853 184.445L768.229 237.462C767.911 237.826 767.593 238.373 767.434 239.101C767.115 240.741 768.07 242.563 769.503 242.927C770.935 243.292 772.526 242.198 772.845 240.559C773.004 239.83 772.845 239.283 772.686 238.555L805.789 216.51C806.107 217.057 806.743 217.421 807.38 217.603C808.653 217.967 809.926 217.239 810.563 215.781L897.777 246.389L897.936 246.024C897.777 247.118 897.936 248.211 898.572 248.939L875.814 280.822C875.496 280.64 875.337 280.458 875.018 280.458C873.586 280.094 871.995 281.187 871.676 282.826C871.358 284.466 872.313 286.288 873.745 286.652C874.7 286.835 875.496 286.652 876.132 285.924L933.267 346.046C933.108 346.41 932.949 346.775 932.949 347.139C932.63 348.414 933.108 349.69 934.063 350.418L917.352 382.848C917.193 382.848 917.193 382.848 917.034 382.666C915.601 382.301 914.01 383.394 913.692 385.034C913.373 386.674 914.328 388.496 915.761 388.86C916.556 389.042 917.352 388.86 917.989 388.313L985.15 462.829C984.99 463.193 984.672 463.557 984.672 464.104C984.354 465.744 985.309 467.565 986.741 467.93C988.173 468.294 989.765 467.201 990.083 465.561C990.402 464.286 989.765 462.829 988.81 462.1L1015.71 395.783L1015.87 395.783C1017.3 396.148 1018.89 395.054 1019.21 393.415C1019.37 392.322 1019.05 391.046 1018.41 390.318L1058.36 326.552C1058.52 326.734 1058.84 326.734 1058.99 326.916C1060.43 327.28 1062.02 326.187 1062.34 324.548C1062.66 322.908 1061.7 321.086 1060.27 320.722C1059.79 320.539 1059.47 320.539 1058.99 320.722L1042.76 268.069C1043.56 267.705 1044.03 266.976 1044.19 265.883C1044.51 264.243 1043.56 262.421 1042.13 262.057C1041.81 262.057 1041.49 261.875 1041.17 262.057L1033.21 224.891C1034.01 224.526 1034.65 223.615 1034.96 222.704C1035.12 221.976 1034.96 221.065 1034.65 220.518L1072.84 188.817C1073.16 189.182 1073.64 189.546 1074.27 189.728C1075.71 190.093 1077.3 189 1077.62 187.36C1077.93 185.902 1077.3 184.445 1076.18 183.898L1088.6 146.185C1090.03 146.55 1091.46 145.457 1091.94 143.635C1092.26 141.995 1091.3 140.173 1089.87 139.809C1089.07 139.626 1088.28 139.809 1087.64 140.355L1057.88 103.735C1058.2 103.371 1058.36 102.824 1058.52 102.46C1058.84 100.82 1057.88 98.9985 1056.45 98.6342C1055.02 98.2698 1053.42 99.3629 1053.11 101.003L1053.11 101.185L964.46 97.9054L964.46 97.541L964.142 97.9054L962.71 97.9054L963.505 98.452L921.172 133.432C920.853 133.068 920.376 132.703 919.739 132.521C918.625 132.157 917.511 132.703 916.875 133.796L879.793 112.48C879.793 112.298 879.793 112.298 879.952 112.116C880.27 110.476 879.315 108.654 877.883 108.29C876.451 107.926 875.178 108.837 874.7 110.294L794.33 19.7466C794.489 19.3822 794.807 19.0179 794.807 18.4713C795.126 16.8316 794.171 15.0097 792.738 14.6453C791.306 14.2809 789.715 15.3741 789.396 17.0138C789.237 17.7425 789.396 18.2891 789.555 18.8357L708.23 70.9415C707.912 70.395 707.275 69.8484 706.639 69.6662C706.002 69.484 705.365 69.6662 704.888 69.8484L684.04 31.5888C684.517 31.2245 684.835 30.4957 684.994 29.7669C685.313 28.1273 684.358 26.3054 682.925 25.941C681.811 25.7588 680.856 26.1232 680.22 27.0341L650.141 4.62496C650.3 4.44277 650.3 4.26058 650.3 3.8962C650.618 2.25652 649.663 0.434654 648.231 0.0702737C646.799 -0.294106 645.207 0.799003 644.889 2.43871C644.889 2.6209 644.889 2.62087 644.889 2.80306L580.274 4.98934C580.115 3.71401 579.319 2.6209 578.205 2.43871C576.773 2.07433 575.181 3.16747 574.863 4.80714C574.704 5.90028 575.022 6.99339 575.659 7.72215L553.378 41.6092C553.06 41.427 552.901 41.2448 552.423 41.2448C550.991 40.8804 549.718 41.7914 549.24 43.2489L512.318 29.5847L512.318 29.4026C512.636 27.7629 511.681 25.941 510.249 25.5766C509.294 25.3944 508.339 25.7588 507.702 26.4875C507.225 27.0341 506.907 27.7629 506.747 28.4916L459.321 30.1313C459.321 29.7669 459.162 29.4025 459.003 29.2203C458.366 27.5807 456.615 27.0341 455.183 27.7629C454.228 28.3094 453.592 29.5848 453.592 30.8601L445.793 33.2285L402.982 46.8926C402.186 45.4351 400.595 44.7064 399.322 45.6173C397.889 46.346 397.412 48.3501 398.048 49.9898C398.208 50.5364 398.526 50.9008 398.844 51.0829L376.404 95.1725C375.608 94.8081 374.813 94.8081 374.017 95.3547L359.375 70.9415L307.97 111.023C307.174 109.93 305.742 109.565 304.628 110.294C303.991 110.659 303.514 111.205 303.355 111.934L269.297 100.82C269.456 100.092 269.297 99.545 268.979 98.8162C268.342 97.1766 266.591 96.63 265.159 97.3588C264.522 97.7231 264.045 98.2697 263.886 98.9985L207.547 83.3302C207.547 82.7837 207.547 82.0549 207.229 81.5084C206.592 79.8687 204.842 79.3221 203.409 80.0509C201.977 80.7796 201.499 82.7837 202.136 84.4234C202.454 84.97 202.773 85.5165 203.409 85.8809L190.2 127.055C189.563 126.873 188.927 127.055 188.29 127.238C187.017 127.966 186.539 129.424 186.858 130.881L102.35 171.509L102.509 171.874C102.031 170.963 101.235 170.234 100.281 170.234L99.9622 128.877C100.281 128.877 100.599 128.695 100.917 128.513C102.349 127.784 102.827 125.78 102.19 124.14C101.554 122.501 99.8031 121.954 98.3708 122.683C97.575 123.229 97.0976 123.958 96.9384 125.051L19.1145 120.679C19.1145 120.314 18.9554 119.95 18.7962 119.586C18.3188 118.493 17.2047 117.764 16.0907 117.764L10.8388 80.4152C10.998 80.4152 10.998 80.233 11.1571 80.233C12.5894 79.5043 13.0668 77.5002 12.4302 75.8605C11.7936 74.2208 10.043 73.6743 8.61063 74.403C7.81485 74.7674 7.33756 75.4962 7.17838 76.4071L-86.2422 68.2086C-86.2422 67.8442 -86.4013 67.2977 -86.5605 66.9333C-87.1971 65.2936 -88.9478 64.747 -90.3801 65.4758C-91.8125 67.662 -92.4491 69.4839 -91.6533 71.1236ZM-65.0754 228.534C-65.3937 228.352 -65.712 228.352 -65.8712 228.352L-70.8047 149.829C-70.4864 149.829 -70.3274 149.647 -70.1682 149.465C-69.8498 149.282 -69.5315 148.918 -69.2132 148.554L-36.7469 170.052L-65.0754 228.534ZM14.6582 288.656C14.4992 288.292 14.1808 287.745 13.8626 287.563L27.5495 259.871L16.5681 293.94L14.4992 291.936C15.1358 291.025 15.1358 289.75 14.6582 288.656ZM5.10927 225.255C5.26845 225.255 5.42776 225.073 5.58681 224.891L27.3902 253.13C26.9127 253.676 26.7537 254.587 26.7537 255.316L8.76979 258.413L4.79116 225.437C4.79116 225.437 4.95022 225.255 5.10927 225.255ZM2.72207 219.425L-13.6703 191.368L5.10927 219.425C4.47268 219.061 3.51784 219.061 2.72207 219.425ZM6.70083 221.793L23.0933 246.389L6.22341 224.344C6.54165 223.615 6.86001 222.704 6.70083 221.793ZM26.7537 256.227C26.7537 256.409 26.9127 256.591 26.9127 256.773C27.0719 257.32 27.3903 257.684 27.7085 257.867L13.226 287.199C12.9077 287.017 12.5894 287.017 12.112 287.017L8.76979 259.324L26.7537 256.227ZM28.8225 258.413C29.3001 258.595 29.9367 258.595 30.4141 258.231L71.3154 347.503L71.3154 347.868L71.1562 348.05L17.3638 294.486L28.8225 258.413ZM31.0507 257.867C31.2099 257.684 31.369 257.502 31.5281 257.32L81.5009 293.393L72.9069 347.139C72.5886 347.139 72.1112 347.139 71.7929 347.321L31.0507 257.867ZM86.1163 250.943C85.798 251.49 85.6389 252.037 85.6389 252.583L32.1647 254.769C32.1647 254.405 32.0056 254.223 31.8465 253.858C31.8465 253.858 31.8465 253.676 31.6873 253.676L62.5623 225.801L86.1163 250.943ZM43.3051 203.939C43.4643 203.575 43.6236 203.21 43.7826 202.846L78.4771 208.494C78.4771 209.04 78.6363 209.587 78.7954 209.951C78.7954 209.951 78.7954 210.133 78.9546 210.133L62.8805 224.708L43.3051 203.939ZM145.638 274.446L98.6891 301.774C98.3708 301.227 97.8933 300.863 97.4158 300.681L106.965 259.506L145.479 272.806C145.479 273.353 145.479 273.899 145.638 274.446ZM96.7793 300.499C96.6201 300.499 96.461 300.499 96.3018 300.499L89.2993 256.045C89.4584 256.045 89.6175 255.863 89.7767 255.863C90.4133 255.498 90.8907 254.952 91.0499 254.223L106.328 259.506L96.7793 300.499ZM95.5061 300.499C95.3469 300.499 95.1878 300.681 95.0286 300.681C94.7103 300.863 94.392 301.227 94.0737 301.41L82.2966 292.847L88.1852 255.863C88.3443 255.863 88.3444 255.863 88.5035 255.863L95.5061 300.499ZM81.8192 292.482L32.0055 256.591C32.1647 256.227 32.1647 255.863 32.3239 255.498L85.7979 253.312C85.7979 253.676 85.9571 253.858 86.1163 254.223C86.4346 254.952 87.0712 255.498 87.7078 255.863L81.8192 292.482ZM82.2966 293.94L93.9146 302.321C93.5963 303.232 93.5963 304.142 93.9146 305.053C94.0737 305.418 94.392 305.782 94.7103 306.147L88.9809 317.624L74.0209 347.321L73.8618 347.321L82.2966 293.94ZM95.3469 306.511C96.1427 306.875 96.9384 306.875 97.7341 306.329C98.8482 305.6 99.4848 304.142 99.1665 302.685L109.511 312.341L74.8167 347.868C74.8167 347.868 74.8167 347.868 74.6575 347.685L95.3469 306.511ZM99.6439 302.138L145.956 275.175L109.989 311.977L99.6439 302.138ZM145.797 272.077L107.283 258.595L118.424 209.951C118.901 209.951 119.219 209.951 119.697 209.769L146.752 270.62C146.275 271.166 145.956 271.531 145.797 272.077ZM106.487 258.413L91.2091 253.13C91.2091 252.583 91.2091 251.854 90.8908 251.308C90.7316 250.943 90.5725 250.761 90.4133 250.397L117.309 209.587C117.469 209.587 117.469 209.769 117.628 209.769L106.487 258.413ZM89.6176 250.033C89.4585 250.033 89.2993 249.85 89.1402 249.85L95.1878 208.311L115.877 207.583C115.877 207.947 116.036 208.129 116.196 208.494C116.355 208.858 116.514 209.04 116.673 209.405L89.6176 250.033ZM94.7103 207.4L84.0474 207.765C84.0474 207.583 83.8881 207.4 83.8881 207.218C83.729 206.854 83.4107 206.49 83.0924 206.125L98.8482 177.157C99.0073 177.157 99.0073 177.339 99.1665 177.339L94.7103 207.4ZM84.0474 208.494L94.5512 208.129L88.5035 249.668C88.3444 249.668 88.1852 249.668 87.8669 249.668L82.1375 211.591C82.2967 211.591 82.2967 211.591 82.4559 211.409C83.5699 210.862 84.0474 209.769 84.0474 208.494ZM87.2304 249.85C86.9121 250.033 86.7528 250.215 86.5937 250.215L63.1988 225.255L79.2729 210.862C79.9095 211.591 80.7052 211.773 81.5009 211.773L87.2304 249.85ZM78.6363 207.765L43.9418 202.117C43.9418 201.57 43.7826 201.024 43.6234 200.659C43.4643 200.477 43.4643 200.295 43.3051 199.931L59.0609 179.526L79.2729 206.49C78.9546 206.854 78.6363 207.218 78.6363 207.765ZM62.2439 225.255L31.5281 252.948C31.2099 252.583 30.8915 252.401 30.5731 252.219L40.9179 205.214C41.3953 205.214 42.0319 205.214 42.5094 204.85C42.6685 204.668 42.8278 204.668 42.987 204.485L62.2439 225.255ZM29.7775 252.037C29.2999 252.037 28.6633 252.037 28.1859 252.401L28.0269 252.401L-18.2855 182.805C-17.9673 182.441 -17.8081 182.258 -17.649 181.894L38.2124 201.388C38.0532 202.117 38.2123 202.664 38.5307 203.392C38.8489 204.121 39.3264 204.668 39.963 204.85L29.7775 252.037ZM38.5307 200.659L-17.3307 181.165C-17.1715 180.437 -17.3307 179.708 -17.649 179.161C-17.8081 178.797 -17.9673 178.433 -18.2855 178.25L-5.87192 158.027L38.6898 200.295C38.5307 200.477 38.5307 200.659 38.5307 200.659ZM-25.2881 142.359C-25.2881 142.541 -25.129 142.906 -25.129 143.088C-24.9698 143.635 -24.6516 143.999 -24.3332 144.181L-36.4286 169.323L-68.895 147.825C-68.7358 147.461 -68.7358 147.096 -68.7358 146.732L-25.2881 142.359ZM-66.6668 145.821L12.271 123.412L-20.1953 139.991C-20.9911 138.533 -22.5825 137.987 -23.8557 138.715C-24.8106 139.262 -25.2881 140.355 -25.4472 141.448L-66.6668 145.821ZM-23.6966 144.545C-23.3783 144.728 -23.06 144.728 -22.9009 144.728L-20.9911 177.339C-21.1502 177.339 -21.4686 177.522 -21.6277 177.522C-21.946 177.704 -22.2643 178.068 -22.5825 178.433L-35.9511 169.505L-23.6966 144.545ZM-22.1051 144.728C-21.7868 144.728 -21.6277 144.545 -21.3094 144.363C-20.9911 144.181 -20.8319 143.999 -20.6727 143.817L-6.34934 157.481L-18.763 177.704C-19.0813 177.522 -19.5588 177.339 -20.0362 177.339L-22.1051 144.728ZM-6.0311 156.934L-20.3545 143.452C-19.877 142.724 -19.877 141.813 -20.0362 140.902L13.5443 123.776C13.7035 123.958 13.8626 124.323 14.0218 124.505L-6.0311 156.934ZM13.3852 122.136L-68.7358 145.456C-68.7358 145.274 -68.7358 145.274 -68.895 145.092C-68.895 145.092 -68.895 145.092 -68.895 144.91L-20.3545 104.1L13.5443 120.861C13.3852 121.408 13.3852 121.772 13.3852 122.136ZM-64.2796 229.081C-64.4388 229.081 -64.4388 229.081 -64.2796 229.081L-36.1102 170.416L-22.7418 179.343C-23.06 180.254 -23.06 181.165 -22.5825 182.076C-22.5825 182.258 -22.4234 182.441 -22.2643 182.623L-64.2796 229.081ZM-63.8022 229.627L-21.7868 182.987C-21.3093 183.352 -20.832 183.534 -20.3545 183.716L-19.8771 225.073L-63.1656 230.721C-63.1656 230.538 -63.3248 230.174 -63.3248 229.992C-63.643 229.992 -63.8022 229.81 -63.8022 229.627ZM-20.5137 260.599C-20.8319 260.782 -21.1503 261.146 -21.4685 261.51L-63.4839 232.907C-63.3248 232.542 -63.3248 232.178 -63.3248 231.631L-20.0362 225.984L-19.7179 260.417C-19.8771 260.417 -20.1953 260.599 -20.5137 260.599ZM-19.7179 183.716C-19.3996 183.716 -19.2405 183.534 -18.9221 183.534L2.24465 219.789C1.60805 220.336 1.13064 221.247 1.13064 222.34L-19.2405 225.073L-19.7179 183.716ZM-18.1264 260.599C-18.4447 260.417 -18.763 260.417 -18.9221 260.235L-19.2405 225.619L1.28982 222.886C1.28982 223.069 1.44887 223.433 1.44887 223.615C1.60805 223.98 1.92641 224.344 2.08559 224.526L-18.1264 260.599ZM-17.4897 261.146L2.72207 225.255C3.19948 225.437 3.51797 225.619 3.99538 225.619L7.97414 258.595L-16.5349 262.786C-16.5349 262.604 -16.6941 262.421 -16.6941 262.239C-17.0123 261.693 -17.1715 261.328 -17.4897 261.146ZM10.9978 287.381C10.6796 287.563 10.5204 287.745 10.2022 288.11L-16.8533 265.336C-16.6941 264.79 -16.5349 264.243 -16.5349 263.697L7.97414 259.506L11.3162 287.199C11.3162 287.199 11.157 287.199 10.9978 287.381ZM11.9528 293.393C12.4303 293.393 13.0669 293.393 13.5443 293.029C13.7035 292.847 14.0217 292.665 14.1808 292.482L16.409 294.669L1.44886 341.127L11.9528 293.393ZM16.8864 295.397L70.5197 348.596C70.3605 348.961 70.2014 349.507 70.0422 349.872L2.08558 348.232C2.08558 347.868 1.9264 347.503 1.76722 347.139C1.44899 346.592 1.13063 346.046 0.494029 345.681L16.8864 295.397ZM70.3605 351.694L34.3928 377.018L1.76722 350.236C1.9264 349.872 2.08558 349.507 2.08558 349.143L70.0422 350.783C70.2014 351.147 70.2013 351.329 70.3605 351.694ZM12.1119 389.771L0.494029 351.511C0.812388 351.329 0.971446 351.147 1.28981 350.783L33.7561 377.382L14.9766 390.682C14.1808 389.953 13.226 389.589 12.1119 389.771ZM59.0609 399.245L15.454 392.868C15.454 392.504 15.2949 391.957 15.1357 391.593L34.2337 378.111L59.22 398.698C59.22 398.88 59.0609 399.063 59.0609 399.245ZM60.4933 397.241C60.1749 397.423 60.0159 397.605 59.6975 397.969L35.0294 377.564L70.2014 352.787L61.9255 397.058C61.4481 396.876 60.9707 397.058 60.4933 397.241ZM63.6763 397.787C63.3579 397.423 63.0397 397.241 62.7213 397.058L70.9971 352.787C71.7929 353.698 73.0661 353.88 74.1801 353.333C75.2941 352.787 75.7716 351.511 75.7716 350.236L133.065 336.208L63.6763 397.787ZM75.4533 349.325C75.4533 349.143 75.2941 349.143 75.2941 348.961C75.2941 348.779 75.135 348.779 75.135 348.596L109.989 313.07L133.543 335.114L75.4533 349.325ZM134.179 334.568L110.466 312.523L146.275 275.903C146.593 276.085 146.752 276.268 147.07 276.45L134.179 334.568ZM149.139 270.438C148.503 270.255 147.866 270.255 147.23 270.438L120.174 209.587C120.333 209.405 120.652 209.222 120.811 209.04L162.985 239.466L149.139 270.438ZM121.447 206.49L155.824 196.469L166.009 193.554L184.152 188.271C184.47 188.817 184.789 189.364 185.266 189.546L163.304 238.737L121.129 208.494C121.447 207.765 121.607 207.036 121.447 206.49ZM191.314 261.51L150.89 272.26C150.89 272.077 150.89 272.077 150.731 271.895C150.572 271.349 150.253 270.984 149.776 270.62L163.622 239.648L191.632 259.689C191.473 260.235 191.314 260.964 191.314 261.51ZM192.905 258.231C192.587 258.413 192.269 258.778 191.95 258.96L163.94 238.919L185.903 189.728C186.221 189.728 186.38 189.91 186.699 189.91L187.972 202.299L193.383 258.049C193.224 258.049 193.064 258.231 192.905 258.231ZM194.179 257.867L188.767 202.664L187.494 189.546C187.653 189.546 187.813 189.364 187.972 189.364C188.449 188.999 188.767 188.635 189.086 188.089L212.162 198.109L194.656 257.867C194.497 257.867 194.338 257.867 194.179 257.867ZM291.419 213.595C291.259 213.595 291.1 213.595 290.941 213.595L284.257 182.441L279.642 160.942C279.801 160.942 279.801 160.942 279.96 160.76C280.756 160.396 281.233 159.485 281.392 158.574L298.899 160.396L291.419 213.595ZM299.694 160.578L345.052 165.315C345.052 165.679 345.211 166.226 345.37 166.59C345.37 166.59 345.37 166.772 345.529 166.772L293.328 214.506C293.01 214.141 292.533 213.959 292.214 213.777L299.694 160.578ZM283.62 182.987L290.305 213.595C290.145 213.595 290.145 213.595 289.986 213.777C289.668 213.959 289.35 214.324 289.031 214.688L252.268 188.817L276.936 160.578C277.573 161.125 278.209 161.307 279.005 161.307L283.62 182.987ZM238.104 207.765C238.104 207.218 237.945 206.854 237.785 206.307C237.626 206.125 237.626 205.943 237.467 205.761L251.79 189.364L288.713 215.417C288.713 215.599 288.554 215.781 288.554 215.963L238.104 207.765ZM288.554 217.421L262.294 229.445L237.785 209.405C237.945 209.222 237.945 208.858 238.104 208.676L288.554 216.692C288.395 216.874 288.554 217.239 288.554 217.421ZM236.99 205.214C236.353 204.668 235.398 204.485 234.602 204.668L222.666 170.052C222.825 169.87 222.985 169.505 222.985 169.141L250.995 188.817L236.99 205.214ZM251.631 188.271L223.144 168.23C223.144 168.048 223.144 167.866 223.144 167.683L275.822 158.756C275.822 158.938 275.981 159.121 275.981 159.303C276.14 159.485 276.14 159.667 276.299 159.849L251.631 188.271ZM275.822 158.027L240.809 163.858L222.985 166.772C222.985 166.772 222.985 166.773 222.985 166.59C222.825 166.226 222.666 166.044 222.507 165.862L248.289 127.784L276.299 155.841C275.981 156.752 275.822 157.299 275.822 158.027ZM233.966 205.032C233.488 205.396 233.17 205.761 232.852 206.307L213.117 197.744L220.756 171.509C221.075 171.509 221.393 171.327 221.711 171.145C221.871 170.963 222.03 170.963 222.189 170.781L233.966 205.032ZM212.321 197.38L189.404 187.542C189.563 186.995 189.563 186.449 189.404 185.902L218.051 170.052C218.528 170.781 219.165 171.327 219.961 171.509L212.321 197.38ZM217.733 169.141L189.245 184.991C188.927 184.263 188.29 183.716 187.653 183.534L195.452 138.533L218.21 166.226C217.733 167.137 217.414 168.23 217.733 169.141ZM195.77 258.413C195.611 258.413 195.611 258.231 195.452 258.231L212.958 198.473L232.693 207.036C232.533 207.765 232.533 208.494 232.852 209.222C233.011 209.405 233.011 209.587 233.17 209.769L195.77 258.413ZM196.407 259.324C196.407 259.142 196.247 259.142 196.247 258.96L233.648 210.498C234.443 211.226 235.557 211.226 236.512 210.68C236.83 210.498 237.149 210.315 237.308 209.951L261.339 229.81L196.407 259.324ZM309.562 270.255L198.316 259.324L262.294 230.356L309.88 269.527C309.721 269.709 309.562 270.073 309.562 270.255ZM310.198 268.798L262.931 229.992L288.872 218.332C289.509 219.607 290.941 220.336 292.055 219.789L310.835 268.251C310.516 268.434 310.357 268.616 310.198 268.798ZM312.904 267.887C312.426 267.705 311.949 267.705 311.471 267.887L292.692 219.425C293.965 218.514 294.442 216.692 293.806 215.235C293.806 215.235 293.806 215.052 293.647 215.052L345.848 167.319C346.007 167.501 346.166 167.683 346.484 167.866L312.904 267.887ZM350.304 163.675C350.145 163.129 349.667 162.764 349.349 162.4L356.351 145.092L387.545 164.404C387.545 164.586 387.386 164.951 387.386 165.133L350.622 164.768C350.622 164.404 350.463 164.04 350.304 163.675ZM389.454 178.433C388.818 178.797 388.5 179.343 388.181 179.89L350.622 165.679L350.622 165.497L387.386 165.862C387.386 166.226 387.545 166.59 387.704 166.955C388.181 168.048 388.977 168.594 389.932 168.777L390.25 178.068C389.932 178.25 389.614 178.25 389.454 178.433ZM392.319 178.797C391.842 178.433 391.364 178.25 390.887 178.068L390.569 168.777C390.887 168.777 391.046 168.594 391.364 168.412C392.001 168.048 392.478 167.319 392.797 166.59L401.072 168.594L392.319 178.797ZM392.637 164.222C392.637 164.04 392.637 164.04 392.637 164.222L447.066 115.76L401.709 168.048L392.956 165.862C392.956 165.315 392.956 164.768 392.637 164.222ZM429.083 130.517L392.16 163.311C391.842 162.947 391.364 162.582 390.887 162.4L396.139 102.46L448.499 111.205C448.499 111.752 448.658 112.298 448.817 112.663C448.817 112.663 448.817 112.845 448.976 112.845L429.083 130.517ZM429.242 175.518L393.433 180.437C393.433 180.254 393.274 180.072 393.274 179.708C393.115 179.526 393.115 179.344 392.956 179.161L402.027 168.594L429.242 175.153C429.242 175.518 429.242 175.518 429.242 175.518ZM432.584 172.42C431.947 172.238 431.311 172.42 430.674 172.785C430.038 173.149 429.56 173.878 429.242 174.607L402.505 168.23L449.454 113.938C449.613 114.12 449.772 114.12 449.931 114.302L432.584 172.42ZM450.727 114.484C451.363 114.667 452 114.484 452.637 114.12C453.273 113.756 453.751 113.209 453.91 112.48L461.549 114.849L433.698 171.327L450.727 114.484ZM480.329 74.7674C480.329 74.9496 480.488 74.9496 480.488 75.1318L452.955 108.837C452.637 108.654 452.318 108.472 451.841 108.29L454.546 65.1115L480.169 72.7634C480.01 73.3099 480.01 74.0387 480.329 74.7674ZM453.751 109.93C453.592 109.748 453.592 109.565 453.432 109.383L480.965 75.8606L461.867 114.484L454.069 111.934C454.069 111.205 454.069 110.476 453.751 109.93ZM433.857 173.149L433.698 172.967L462.186 115.213L481.92 121.59C481.761 122.136 481.92 122.865 482.238 123.594C482.238 123.776 482.398 123.776 482.398 123.958L433.857 173.149ZM484.307 119.039C483.989 119.039 483.83 119.221 483.512 119.404C482.875 119.768 482.398 120.315 482.238 121.043L462.663 114.667L481.602 76.225C481.92 76.4071 482.238 76.5893 482.557 76.5893L484.307 119.039ZM485.421 71.8524C485.262 71.488 485.103 71.1237 484.785 70.9415L499.427 46.3461L507.384 49.0789L506.747 56.1842C505.474 56.1842 504.36 57.2774 504.201 58.7348C503.883 60.1924 504.519 61.4677 505.474 62.1965L485.103 71.6702L485.421 71.8524ZM508.18 49.2611L521.548 53.8158C521.548 53.998 521.548 54.1802 521.548 54.3623L509.612 58.1883C509.294 57.2774 508.498 56.5486 507.702 56.3664L508.18 49.2611ZM509.612 60.0102C509.612 59.6458 509.771 59.2814 509.612 58.9171L519.161 55.8199L509.612 60.0102C509.612 60.0102 509.612 60.1924 509.612 60.0102ZM522.185 52.1761C522.026 52.3583 521.867 52.7226 521.707 52.9048L508.339 48.3501L509.612 32.4998C509.93 32.4998 510.09 32.3176 510.408 32.1354L518.365 45.4351L522.185 52.1761ZM508.816 32.4998L507.543 47.9858L499.904 45.4351L507.861 32.1354C508.18 32.4998 508.498 32.4998 508.816 32.4998ZM546.535 94.2616L509.453 61.1033L521.548 55.4555L521.548 55.6377C522.185 57.0952 523.617 57.6417 524.89 57.2774L546.535 94.2616C546.535 94.2616 546.694 94.2616 546.535 94.2616ZM598.576 122.319L587.436 116.489L551.15 97.7232C551.15 97.541 551.309 97.3588 551.309 97.1766C551.468 96.0835 551.309 95.1725 550.673 94.2616L568.497 72.9455L598.895 121.772C598.895 121.954 598.736 122.136 598.576 122.319ZM599.531 121.043L568.975 72.399L595.234 41.0626C595.553 41.2448 595.871 41.427 596.348 41.6092C596.507 41.6092 596.667 41.6092 596.826 41.6092L600.486 120.497C600.009 120.861 599.69 120.861 599.531 121.043ZM624.359 40.1517L670.989 41.9736C670.989 42.5201 671.308 43.0667 671.467 43.6133L634.067 85.6988L598.895 40.6982C599.213 40.3338 599.372 39.7873 599.531 39.2407L599.531 39.0586L624.359 40.1517ZM602.396 38.512L666.215 31.5888L671.785 39.6051C671.467 39.9695 671.148 40.516 670.989 41.0626L670.989 41.2448L602.396 38.512ZM597.462 35.597C596.826 35.4148 596.189 35.5969 595.553 35.9613L591.096 28.4916L643.775 5.7181L598.895 36.8723C598.576 36.1435 598.099 35.7791 597.462 35.597ZM594.916 36.3257C594.439 36.6901 594.12 37.2367 594.12 37.9654C594.12 38.1476 594.12 38.5119 594.12 38.6941L554.333 44.342L590.46 28.6738L594.916 36.3257ZM602.714 121.043C602.396 120.861 602.078 120.679 601.759 120.679C601.441 120.679 601.123 120.497 600.964 120.679L597.303 41.9736C597.622 41.9736 598.099 41.7914 598.417 41.427L633.589 86.2453L602.714 121.043ZM645.366 103.189C645.207 103.735 645.207 104.1 645.366 104.646L603.669 122.136C603.51 121.954 603.51 121.772 603.351 121.59L634.226 86.9741L646.003 102.096C645.685 102.278 645.366 102.824 645.366 103.189ZM646.48 101.367L634.703 86.2453L672.103 44.1598L672.262 44.342L664.146 63.8361L648.868 100.82C648.708 100.82 648.708 100.82 648.549 100.82C647.913 100.638 647.117 100.82 646.48 101.367ZM703.297 74.0387L688.337 82.055L675.127 44.5242C675.286 44.342 675.445 44.342 675.605 44.1598L703.615 71.3059C703.456 71.6703 703.297 72.0346 703.297 72.399C703.137 72.9456 703.137 73.4922 703.297 74.0387ZM687.7 82.4193L650.459 102.46C650.3 102.096 649.982 101.731 649.663 101.367L664.942 64.2005L672.899 44.8886L673.058 44.8886C673.536 45.0708 674.013 45.0708 674.331 44.8886L687.7 82.4193ZM706.798 142.359L645.844 135.618L648.072 107.197C648.868 107.197 649.663 106.65 650.141 105.922L706.798 141.813C706.798 141.995 706.798 142.177 706.798 142.359ZM707.275 141.084L650.618 105.193C650.618 105.011 650.777 104.829 650.777 104.646C650.936 104.1 650.936 103.553 650.777 103.007L688.018 83.1481L708.071 140.355C707.753 140.537 707.434 140.902 707.275 141.084ZM733.376 178.615C733.217 178.615 733.217 178.615 733.057 178.615C732.421 178.433 731.784 178.615 731.148 178.797L711.254 145.457C711.731 145.092 712.05 144.546 712.05 143.817C712.209 143.452 712.209 142.906 712.05 142.541L752.155 130.153C752.314 130.699 752.792 131.246 753.269 131.61L733.376 178.615ZM807.221 161.307L827.592 146.914L839.687 171.145C839.21 171.509 838.892 171.874 838.732 172.42L808.017 163.675C808.017 162.947 807.858 162.036 807.221 161.307ZM806.743 160.76C806.425 160.578 806.107 160.396 805.789 160.396C805.629 160.396 805.47 160.396 805.152 160.396L815.178 125.598C815.656 125.78 816.292 125.598 816.77 125.416L827.115 146.367L806.743 160.76ZM802.446 163.675L761.545 173.878L755.816 131.975C756.293 131.792 756.771 131.428 757.248 130.881L787.327 151.833L802.606 162.4C802.606 162.4 802.606 162.4 802.606 162.582C802.446 163.129 802.446 163.311 802.446 163.675ZM757.407 130.153C757.407 129.971 757.566 129.788 757.566 129.606C757.566 129.424 757.566 129.242 757.566 129.06L792.261 125.234L802.924 161.307C802.765 161.489 802.765 161.671 802.606 161.853L757.407 130.153ZM793.216 125.234L813.109 123.047C813.269 123.958 813.905 124.687 814.542 125.234L804.356 160.396C804.038 160.396 803.879 160.578 803.56 160.76L793.216 125.234ZM814.223 119.768L780.166 76.7715C780.325 76.5894 780.484 76.4071 780.484 76.0428L807.221 86.0631L814.701 119.221C814.542 119.404 814.383 119.586 814.223 119.768ZM813.587 120.315C813.269 120.679 813.109 121.043 812.95 121.59C812.95 121.772 812.95 121.954 812.95 122.319L792.897 124.505L779.052 77.6825C779.211 77.6825 779.37 77.5003 779.37 77.5003L813.587 120.315ZM792.261 124.505L757.726 128.149C757.566 127.42 757.089 126.691 756.611 126.145L765.206 105.922L777.142 77.6825C777.301 77.6825 777.301 77.6825 777.46 77.6825C777.778 77.8647 778.256 77.8647 778.574 77.6825L792.261 124.505ZM764.251 106.104L755.816 125.962C755.657 125.962 755.657 125.962 755.497 125.962C754.702 125.78 753.747 125.962 753.11 126.509L740.697 112.298L776.028 77.1359C776.187 77.3181 776.187 77.3181 776.346 77.5003L764.251 106.104ZM752.633 127.055C752.474 127.42 752.155 127.784 752.155 128.331C752.155 128.695 751.996 129.06 752.155 129.424L712.05 141.813C711.891 141.631 711.891 141.448 711.731 141.266L740.219 112.663L752.633 127.055ZM734.012 178.979L754.065 131.975C754.224 131.975 754.224 131.975 754.383 131.975C754.543 131.975 754.861 131.975 755.02 131.975L760.749 174.06L735.126 180.437C734.967 179.89 734.49 179.344 734.012 178.979ZM768.866 236.915L734.49 183.898C734.808 183.534 735.126 182.987 735.285 182.259C735.285 181.894 735.445 181.53 735.285 181.348L760.909 174.971L769.343 236.733C769.184 236.733 769.025 236.915 768.866 236.915ZM770.776 236.551C770.617 236.551 770.298 236.551 770.139 236.551L761.704 174.789L802.606 164.586C802.765 165.133 803.083 165.679 803.56 166.044L771.094 236.733C771.094 236.733 770.935 236.733 770.776 236.551ZM772.049 237.462C771.89 237.279 771.89 237.279 771.731 237.097L804.197 166.408C804.356 166.408 804.356 166.59 804.515 166.59C804.674 166.59 804.834 166.59 804.993 166.59L807.062 205.032L772.049 237.462ZM805.311 213.777C805.152 214.506 805.311 215.052 805.47 215.781L774.118 236.733L807.062 205.943L807.38 211.409C806.425 211.591 805.47 212.502 805.311 213.777ZM805.789 166.59C806.743 166.408 807.539 165.679 807.858 164.768L838.573 173.331C838.414 174.242 838.573 174.971 838.892 175.7L807.858 204.486L805.789 166.59ZM809.608 211.955C809.29 211.773 808.972 211.591 808.653 211.409C808.494 211.409 808.335 211.409 808.176 211.409L807.858 205.396L837.459 178.068L809.608 211.955ZM898.095 245.66L810.722 215.235C810.881 214.324 810.563 213.413 810.086 212.684L839.528 176.611C839.846 176.793 840.165 176.975 840.483 177.157C841.438 177.339 842.234 177.157 842.87 176.429L898.572 244.567C898.413 244.749 898.095 245.114 898.095 245.66ZM843.507 175.882C843.507 175.7 843.666 175.7 843.666 175.518L886.477 198.838L901.915 207.218C901.915 207.401 901.915 207.401 901.915 207.583C901.596 209.222 902.551 211.044 903.984 211.409L900.96 243.656C900.323 243.656 899.687 243.838 899.209 244.203L843.507 175.882ZM843.825 172.785L887.91 151.104L903.347 205.032C902.87 205.214 902.551 205.761 902.233 206.125L870.244 188.817L860.854 183.716L843.984 174.607C843.984 174.06 843.984 173.331 843.825 172.785ZM970.349 133.979L1016.66 132.157L1016.66 132.339L977.829 148.918C977.51 148.189 976.874 147.461 975.919 147.278C974.646 146.914 973.373 147.643 972.895 148.918L970.349 133.979ZM972.259 149.1L921.649 135.983L969.553 134.161L972.259 149.1ZM931.994 231.996L923.718 224.708L951.41 197.38C951.569 197.562 951.728 197.745 951.887 197.745L935.018 231.085C934.859 231.085 934.858 231.085 934.699 230.903C933.744 230.721 932.63 231.085 931.994 231.996ZM934.381 272.624L877.247 282.462C877.247 282.28 877.087 282.098 877.087 281.733L932.312 236.004C932.63 236.368 933.108 236.733 933.744 236.915C933.904 236.915 933.904 236.915 934.063 236.915L934.381 272.624ZM931.357 234.729L903.188 245.478C903.188 245.296 903.029 245.296 903.029 245.114L923.241 225.255L931.676 232.725C931.676 232.907 931.516 233.089 931.516 233.271C931.357 233.818 931.357 234.364 931.357 234.729ZM1000.91 283.191C1001.7 283.191 1002.5 282.826 1003.13 282.098L1020.32 294.851L997.722 326.734C997.563 326.552 997.245 326.552 997.086 326.369L1000.91 283.191ZM997.086 316.349L998.359 281.187C998.677 282.098 999.314 282.644 1000.11 283.009L997.086 316.349ZM1001.7 276.814C1001.54 276.814 1001.38 276.814 1001.22 276.814L1000.27 239.284C1000.91 239.101 1001.54 238.737 1002.02 238.19L1017.46 248.939L1002.18 277.179C1002.02 276.996 1001.86 276.814 1001.7 276.814ZM1000.43 276.814C999.632 276.996 998.996 277.543 998.518 278.454L999.632 247.664L1000.43 276.814ZM996.131 326.187C995.813 326.187 995.494 326.369 995.176 326.369L963.187 270.62C963.664 270.255 963.983 269.527 964.142 268.98C964.301 268.251 964.142 267.34 963.824 266.794L997.722 238.373C998.041 238.737 998.518 239.101 999.155 239.284L999.314 239.284L996.131 326.187ZM938.519 347.503L972.099 337.119L975.442 357.888C974.646 358.252 974.009 358.799 973.691 359.71L938.36 348.414C938.519 348.05 938.519 347.868 938.519 347.503ZM972.895 337.119L993.744 330.742C993.903 331.106 994.221 331.653 994.539 331.835L977.988 358.252C977.829 358.07 977.51 358.07 977.351 357.888C977.033 357.888 976.874 357.888 976.556 357.888L972.895 337.119ZM993.425 328.738C993.425 329.102 993.266 329.467 993.425 329.831L972.736 336.208L962.232 271.349C962.391 271.349 962.55 271.166 962.55 271.166L994.539 326.916C994.062 327.463 993.585 328.009 993.425 328.738ZM958.094 235.275L997.086 236.551C997.086 236.915 997.245 237.462 997.404 237.826L963.346 266.43C963.028 266.065 962.55 265.701 961.914 265.519C961.755 265.519 961.436 265.519 961.277 265.519L958.094 235.275ZM960.641 265.336C960.322 265.519 960.004 265.519 959.686 265.883L936.291 236.186C936.609 235.822 936.768 235.275 936.927 234.911L936.927 234.729L957.299 235.458L960.641 265.336ZM997.882 233.818L955.707 196.469C955.866 196.105 956.025 195.923 956.025 195.558C956.184 194.647 956.025 193.919 955.707 193.19L980.534 169.505L998.677 233.271C998.359 233.453 998.041 233.636 997.882 233.818ZM955.23 192.643L955.07 192.461L974.487 153.291C974.646 153.291 974.805 153.473 974.964 153.473C975.282 153.655 975.76 153.655 976.078 153.473L980.375 168.594L955.23 192.643ZM955.23 197.198L997.404 234.547C997.245 234.911 997.086 235.093 997.086 235.458L997.086 235.64L957.935 234.364L953.956 198.109C954.434 197.927 954.911 197.562 955.23 197.198ZM957.139 234.364L936.768 233.818C936.609 232.907 936.291 231.996 935.495 231.449L952.365 198.109C952.365 198.109 952.365 198.109 952.524 198.109C952.683 198.109 953.002 198.109 953.161 198.109L957.139 234.364ZM935.813 236.733L959.208 266.43C958.89 266.794 958.731 267.34 958.572 267.705C958.572 267.887 958.572 268.251 958.572 268.434L935.177 272.442L934.699 237.097C935.018 237.097 935.336 236.915 935.813 236.733ZM958.572 269.345C958.731 270.256 959.208 270.802 960.004 271.349L936.45 344.771C936.291 344.771 936.291 344.771 936.132 344.771L935.177 273.535L958.572 269.345ZM960.641 271.531C960.959 271.531 961.118 271.531 961.436 271.531L971.94 336.39L938.36 346.775C938.201 346.046 937.723 345.499 937.087 345.135L960.641 271.531ZM938.041 349.69L1013.96 391.775C1013.96 391.957 1013.96 391.957 1013.96 392.139C1013.96 392.139 1013.96 392.139 1013.96 392.322L953.956 388.131L937.405 350.601C937.564 350.236 937.882 350.054 938.041 349.69ZM939.633 349.69L973.691 360.621C973.532 362.261 974.327 363.9 975.76 364.265C976.715 364.447 977.829 364.082 978.465 363.354L1012.52 390.135L939.633 349.69ZM978.306 358.799L995.017 332.2C995.176 332.382 995.494 332.382 995.653 332.382C996.131 332.564 996.449 332.564 996.927 332.382L1002.18 348.961L978.943 359.346C978.625 359.163 978.465 358.981 978.306 358.799ZM997.563 332.2C998.2 331.835 998.836 331.106 998.996 330.013C998.996 329.831 998.996 329.649 998.996 329.467L1056.93 324.548C1056.93 324.548 1056.93 324.548 1056.93 324.73L1002.82 348.779L997.563 332.2ZM1057.09 323.272C1057.09 323.454 1057.09 323.637 1057.09 323.819L998.996 328.92C998.836 328.374 998.677 327.827 998.359 327.28L1020.8 295.215L1057.24 322.544C1057.09 322.726 1057.09 322.908 1057.09 323.272ZM1020.64 294.122L1003.45 281.187C1003.61 281.005 1003.61 280.822 1003.61 280.458C1003.77 280.094 1003.77 279.547 1003.61 279.183L1038.94 266.43C1039.1 266.794 1039.26 266.976 1039.42 267.34L1020.64 294.122ZM1038.94 264.608C1038.78 264.972 1038.78 265.519 1038.94 265.883L1003.61 278.636C1003.45 278.09 1003.13 277.725 1002.82 277.361L1017.93 249.304L1039.1 264.061C1039.1 264.243 1038.94 264.425 1038.94 264.608ZM1017.78 248.211L1002.34 237.462C1002.34 237.279 1002.5 237.097 1002.5 236.915C1002.66 236.368 1002.66 236.004 1002.5 235.458L1029.87 223.433C1030.03 223.797 1030.35 224.162 1030.51 224.344L1017.78 248.211ZM1029.71 221.247C1029.55 221.793 1029.55 222.158 1029.71 222.704L1003.93 234L1031.3 215.963L1031.78 219.061C1030.67 219.243 1029.87 220.154 1029.71 221.247ZM1002.02 234.182C1001.7 233.636 1001.22 233.271 1000.75 233.089L1019.21 134.89L1019.37 134.707L1019.53 134.707L1030.98 214.87L1002.02 234.182ZM1000.11 232.907C999.791 232.907 999.632 232.907 999.314 232.907L981.012 168.777L1017.46 133.797C1017.78 134.161 1018.09 134.343 1018.41 134.525L1000.11 232.907ZM980.853 168.048L976.556 153.108C977.351 152.744 977.829 152.015 978.147 150.922C978.306 150.376 978.306 150.011 978.147 149.465L988.969 144.91L1016.98 133.068C1016.98 133.068 1016.98 133.25 1017.14 133.25L980.853 168.048ZM973.691 152.744L954.275 191.915C954.116 191.915 953.956 191.732 953.797 191.732C953.161 191.55 952.365 191.732 951.887 192.097L943.134 176.975L973.373 152.38C973.532 152.562 973.532 152.744 973.691 152.744ZM951.251 192.643C950.933 193.008 950.614 193.554 950.455 194.283C950.455 194.647 950.296 195.012 950.455 195.376L907.167 207.036C907.167 206.854 907.007 206.854 907.007 206.672L942.657 177.704L951.251 192.643ZM907.326 208.858C907.326 208.494 907.485 208.129 907.326 207.765L950.773 196.287C950.773 196.469 950.933 196.651 950.933 196.834L923.081 224.344L906.848 209.951C907.007 209.405 907.167 209.04 907.326 208.858ZM922.604 224.708L902.71 244.385C902.392 244.02 902.074 243.838 901.596 243.656L904.62 211.226C905.416 211.226 906.053 210.862 906.53 210.316L922.604 224.708ZM876.451 281.187L899.209 249.304C899.527 249.486 899.687 249.668 900.005 249.668C901.437 250.033 903.029 248.939 903.347 247.3C903.347 246.935 903.506 246.571 903.347 246.207L931.676 235.458L876.451 281.187C876.451 281.187 876.451 281.369 876.451 281.187ZM933.904 345.499L876.769 285.377C876.928 285.013 877.087 284.648 877.247 284.284C877.247 284.102 877.247 283.737 877.247 283.555L934.381 273.535L935.336 344.771C934.859 344.771 934.381 345.135 933.904 345.499ZM917.989 383.212L934.699 350.783C934.858 350.783 935.018 350.965 935.177 350.965C935.654 351.147 936.132 350.965 936.609 350.965L953.001 387.949L919.262 385.581C919.262 384.67 918.784 383.759 917.989 383.212ZM985.627 462.282L918.625 387.767C918.944 387.403 919.103 386.856 919.262 386.492L953.479 388.86L985.786 462.1C985.627 462.1 985.627 462.1 985.627 462.282ZM988.173 461.735L988.014 461.735C987.537 461.553 986.9 461.735 986.423 461.918L954.275 389.042L1013.8 393.233C1013.8 394.326 1014.27 395.237 1015.07 395.783L988.173 461.735ZM1014.43 390.682L978.943 362.443C979.102 362.261 979.102 361.896 979.261 361.714C979.42 361.167 979.42 360.621 979.261 360.257L1002.5 349.872L1015.39 389.953C1014.91 390.135 1014.75 390.318 1014.43 390.682ZM1017.93 389.953C1017.78 389.771 1017.46 389.771 1017.3 389.589C1016.82 389.407 1016.5 389.407 1016.02 389.589L1003.13 349.507L1057.24 325.459C1057.4 325.823 1057.56 326.005 1057.72 326.187L1017.93 389.953ZM1042.28 268.434L1058.52 321.086C1058.2 321.268 1057.88 321.45 1057.72 321.815L1021.44 294.669L1040.37 268.069C1040.69 268.251 1040.85 268.434 1041.17 268.434C1041.49 268.434 1041.81 268.434 1042.28 268.434ZM1040.69 262.239C1040.22 262.421 1039.9 262.786 1039.58 263.15L1018.41 248.393L1031.3 224.708C1031.46 224.708 1031.62 224.891 1031.78 224.891C1032.1 224.891 1032.42 225.073 1032.74 224.891L1040.69 262.239ZM1034.49 219.789C1034.17 219.425 1033.69 219.061 1033.05 218.878C1032.89 218.878 1032.58 218.878 1032.42 218.878L1031.94 215.599L1069.18 191.004L1034.49 219.789ZM1072.2 187.724L1031.62 214.506L1020.16 134.525C1020.48 134.343 1020.96 134.161 1021.28 133.797L1072.36 184.627C1072.2 184.991 1072.05 185.356 1071.89 185.72C1071.89 186.449 1072.05 187.178 1072.2 187.724ZM1073 184.263L1021.91 133.432C1022.07 133.068 1022.23 132.886 1022.23 132.521L1063.77 139.262L1073.8 183.716C1073.48 183.716 1073.16 183.898 1073 184.263ZM1087.8 145.821L1075.39 183.534C1075.07 183.534 1074.75 183.352 1074.43 183.534L1064.41 139.444L1086.21 143.088C1086.37 144.181 1086.85 145.274 1087.8 145.821ZM1057.24 104.282L1087.01 140.902C1086.69 141.266 1086.53 141.631 1086.53 142.177L1064.41 138.533L1056.77 104.646C1056.93 104.464 1057.09 104.464 1057.24 104.282ZM1055.02 104.829C1055.33 104.829 1055.65 105.011 1055.97 104.829L1063.61 138.351L1022.87 131.792L1053.74 103.918C1054.06 104.282 1054.54 104.646 1055.02 104.829ZM1052.79 101.914C1052.79 102.46 1052.95 102.824 1053.11 103.189L1022.07 131.064C1021.91 129.788 1021.12 128.695 1020 128.331C1018.89 127.966 1017.78 128.513 1017.14 129.606L965.415 98.6341L1052.79 101.914ZM1016.82 130.517C1016.82 130.699 1016.82 130.699 1016.66 130.881C1016.66 131.064 1016.66 131.064 1016.66 131.246L970.19 133.068L964.301 98.9985L1016.82 130.517ZM963.665 98.9985L969.553 133.068L921.649 134.89C921.649 134.525 921.49 134.161 921.331 133.979L963.665 98.9985ZM921.49 136.711L972.577 150.011C972.577 150.558 972.577 151.287 972.895 151.833L942.816 176.429L920.694 137.987C921.013 137.622 921.331 137.258 921.49 136.711ZM920.058 138.533L942.179 176.975L906.53 206.125C906.212 205.761 905.893 205.396 905.416 205.214L918.625 138.898C919.103 138.898 919.739 138.716 920.058 138.533ZM917.989 138.533L904.779 204.85C904.461 204.85 904.302 204.85 903.984 204.85L888.546 150.74L916.556 137.076C916.875 137.805 917.352 138.351 917.989 138.533ZM879.315 113.209L916.238 134.525C916.238 134.707 916.238 134.707 916.079 134.89C915.92 135.436 915.92 135.983 916.079 136.529L888.228 150.193L878.042 114.485C878.52 114.12 878.997 113.756 879.315 113.209ZM876.292 114.667C876.61 114.849 877.087 114.849 877.406 114.667L887.591 150.558L843.348 172.238C843.189 172.056 843.029 171.692 842.87 171.509L848.918 161.125L875.655 114.485C875.973 114.485 876.132 114.485 876.292 114.667ZM875.178 113.938L848.6 160.032L842.393 170.963C842.234 170.963 842.075 170.781 841.915 170.781C841.438 170.598 840.801 170.781 840.324 170.963L828.229 146.55L874.859 113.574C874.859 113.756 875.018 113.756 875.178 113.938ZM874.382 112.845L827.751 145.821L817.406 124.869C817.884 124.505 818.361 123.776 818.52 123.047C818.52 122.865 818.52 122.501 818.52 122.319L874.223 112.48C874.382 112.48 874.382 112.663 874.382 112.845ZM874.223 111.57L818.52 121.408C818.202 120.315 817.566 119.404 816.452 119.039C816.133 119.039 815.815 118.857 815.497 119.039L808.017 86.2453L874.223 111.023C874.223 111.387 874.223 111.387 874.223 111.57ZM793.693 20.4753L872.79 109.93L807.698 85.5166L793.057 20.8398C793.375 20.6576 793.534 20.6575 793.693 20.4753ZM792.42 21.0219L807.062 85.1522L780.802 75.314C781.12 73.8565 780.325 72.399 779.211 71.8525L791.783 21.0219C791.943 21.0219 792.102 21.0219 792.42 21.0219ZM789.874 19.7466C790.192 20.111 790.51 20.4754 790.988 20.8398L778.415 71.6703C776.983 71.4881 775.55 72.399 775.232 74.0387L775.232 74.2209L708.708 72.5812C708.708 72.2168 708.548 72.0346 708.548 71.6703L789.874 19.7466ZM708.708 73.6743L708.708 73.4921L775.232 75.1318C775.232 75.6784 775.391 76.0428 775.709 76.5893L740.378 111.752L708.23 75.1318C708.389 74.5853 708.548 74.2209 708.708 73.6743ZM707.594 75.4962L739.742 112.116L711.254 140.537C710.936 140.173 710.617 139.991 710.14 139.991C709.981 139.991 709.663 139.991 709.503 139.991L706.48 76.225C706.798 76.0428 707.275 75.8606 707.594 75.4962ZM705.365 76.0428C705.525 76.0428 705.684 76.0428 705.843 76.0428L708.867 139.809L708.708 139.809L688.655 82.6016L703.615 74.5853C703.933 75.314 704.57 75.8606 705.365 76.0428ZM680.697 32.1354C681.016 32.3176 681.175 32.4998 681.493 32.4998C682.13 32.682 682.766 32.4998 683.244 32.3176L704.092 70.5771C704.092 70.5771 704.092 70.5771 703.933 70.7593L675.923 43.6133C676.082 43.2489 676.241 42.8845 676.241 42.5201C676.4 41.427 676.082 40.3339 675.445 39.6051L680.697 32.1354ZM680.061 31.5888L675.127 39.0586C674.809 38.8764 674.65 38.6941 674.331 38.6941C673.536 38.512 672.899 38.6942 672.262 39.0586L667.011 31.4066L679.424 30.1313C679.424 30.6779 679.743 31.2245 680.061 31.5888ZM649.504 5.7181L679.583 28.1273C679.424 28.3094 679.424 28.4916 679.424 28.856C679.424 29.0382 679.424 29.2204 679.424 29.4026L666.692 30.8601L649.504 5.7181C649.345 5.7181 649.345 5.7181 649.504 5.7181ZM646.639 6.62905C647.435 6.81124 648.072 6.62905 648.708 6.26467L665.737 30.6779L599.531 37.9654C599.531 37.7832 599.372 37.601 599.372 37.4188L645.207 5.53591C645.525 6.08245 646.003 6.44686 646.639 6.62905ZM579.956 6.62904C579.956 6.44685 579.956 6.44685 579.956 6.26466L644.571 4.07839L644.571 4.26058L590.619 27.5807L579.001 8.26872C579.479 7.90434 579.797 7.35777 579.956 6.62904ZM575.818 8.81529C575.977 8.99748 576.296 8.99748 576.614 9.17964C577.25 9.36183 577.887 9.17967 578.524 8.81529L589.982 27.9451L554.015 43.6133C553.856 43.2489 553.696 42.8845 553.537 42.7023L575.818 8.81529ZM554.174 45.6173C554.174 45.4351 554.174 45.4351 554.174 45.2529L594.12 39.6051C594.279 39.9695 594.439 40.5161 594.598 40.8804L568.497 72.0346L553.06 47.6214C553.696 46.8927 554.015 46.3461 554.174 45.6173ZM551.627 47.9858C551.946 47.9858 552.264 47.8036 552.582 47.8036L568.02 72.399L550.036 93.8972C549.718 93.715 549.399 93.5328 549.081 93.5328C548.922 93.5328 548.763 93.5328 548.763 93.5328L551.627 47.9858ZM548.922 46.1639C549.24 47.0748 550.036 47.8036 550.832 47.9858L547.967 93.3506C547.649 93.3506 547.49 93.5329 547.171 93.715L525.686 56.913C526.8 56.1842 527.118 54.5445 526.8 53.2692L548.922 46.1639ZM548.604 44.5242L548.763 44.1598C548.763 44.5242 548.604 44.8886 548.763 45.2529L526.641 52.5405C525.845 51.2651 524.254 50.7186 522.981 51.4473C522.821 51.4473 522.821 51.6295 522.821 51.6295L518.843 44.8886L511.204 31.771C511.363 31.5888 511.363 31.5888 511.522 31.4066C511.681 31.2244 511.681 31.2244 511.84 31.0422L548.604 44.5242ZM458.843 31.5888L506.27 29.9491C506.27 30.3135 506.429 30.6779 506.588 30.8601C506.747 31.2244 506.907 31.5888 507.225 31.771L499.108 45.2529L458.843 31.5888ZM458.684 32.4998L498.79 45.9817L484.148 70.3949C483.352 70.0306 482.398 69.8484 481.602 70.3949L458.207 33.2285C458.366 33.0463 458.525 32.8641 458.684 32.4998ZM456.456 34.3216C456.775 34.3216 457.093 34.1394 457.411 33.9573C457.57 33.9573 457.57 33.7751 457.729 33.7751L480.965 70.7593C480.647 70.9415 480.488 71.3059 480.329 71.6702L454.546 64.0183L456.456 34.3216ZM414.759 44.342L453.273 32.1354C453.273 32.3176 453.432 32.4998 453.432 32.682C453.91 33.5929 454.706 34.3216 455.501 34.3216L453.751 63.8361L402.982 48.7145C402.982 48.5323 402.982 48.3501 402.982 47.9857L414.759 44.342ZM402.982 49.6254L453.751 64.7471L451.045 108.108C450.727 108.108 450.249 108.29 449.931 108.472C449.772 108.472 449.613 108.654 449.613 108.654L402.664 50.5364C402.823 50.3542 402.982 49.9898 402.982 49.6254ZM400.595 52.1761C400.913 52.1761 401.232 51.9939 401.55 51.8117C401.868 51.6295 402.027 51.4473 402.186 51.2651L449.135 109.383C448.817 109.748 448.658 110.112 448.658 110.659L396.298 101.913L400.595 52.1761ZM399.163 51.9939C399.322 51.9939 399.64 52.1761 399.799 52.1761L395.502 101.731L377.996 98.8163C377.996 98.2697 377.837 97.9053 377.677 97.3588C377.518 96.8122 377.2 96.4478 376.882 96.2657L399.163 51.9939ZM376.404 101.549C377.2 101.185 377.677 100.274 377.837 99.545L395.502 102.46L390.25 162.4C390.091 162.4 390.091 162.4 389.932 162.4L385.157 141.448L376.245 101.731C376.245 101.549 376.245 101.549 376.404 101.549ZM374.176 101.731C374.494 101.913 374.972 101.913 375.449 101.913L384.521 141.813L389.136 162.582C389.136 162.582 388.977 162.582 388.977 162.764C388.5 162.947 388.181 163.311 388.022 163.675L356.829 144.363L374.176 101.731ZM356.033 143.999L308.448 114.667C308.607 114.302 308.607 113.938 308.607 113.391L372.426 99.545C372.426 99.7272 372.585 99.9094 372.585 100.092C372.744 100.638 373.221 101.003 373.54 101.367L356.033 143.999ZM359.057 72.5812L373.221 96.2657C372.585 96.9944 372.266 97.9053 372.266 98.8163L308.448 112.663C308.448 112.48 308.288 112.48 308.288 112.298L359.057 72.5812ZM308.129 115.395L355.715 144.728L348.712 162.036C348.076 161.853 347.28 161.853 346.643 162.218C346.484 162.218 346.325 162.4 346.325 162.4L308.129 115.395C308.129 115.395 308.129 115.578 308.129 115.395ZM307.015 116.489C307.174 116.306 307.334 116.306 307.493 116.124L345.529 162.947C345.211 163.311 345.052 163.857 344.893 164.222L299.535 159.485L305.583 116.671C306.219 116.853 306.697 116.853 307.015 116.489ZM304.628 116.489C304.787 116.671 304.946 116.671 305.265 116.671L299.217 159.485L281.551 157.663C281.551 157.299 281.392 156.752 281.233 156.388C281.074 156.023 280.915 155.659 280.596 155.477L304.628 116.489ZM267.546 103.553C268.183 103.189 268.66 102.642 268.819 101.913L302.877 113.027C302.718 113.756 302.877 114.302 303.196 115.031C303.355 115.395 303.673 115.76 303.832 115.942L279.801 154.93C279.323 154.566 278.687 154.566 278.209 154.566L267.228 103.553C267.387 103.735 267.546 103.735 267.546 103.553ZM266.591 103.918L277.573 154.93C277.413 154.93 277.413 154.93 277.254 155.112C277.095 155.295 276.777 155.477 276.618 155.659L248.608 127.42L264.841 103.553C265.477 103.918 266.114 104.1 266.591 103.918ZM207.229 84.7878L263.568 100.456C263.568 101.003 263.568 101.731 263.886 102.278C264.045 102.642 264.204 102.824 264.363 103.007L248.13 126.873L206.91 85.5165C207.07 85.1521 207.229 84.97 207.229 84.7878ZM205.956 86.4275C206.115 86.2453 206.433 86.0631 206.592 86.0631L247.812 127.42L221.87 165.497C221.393 165.133 220.756 164.951 220.279 165.133L205.637 86.7919C205.637 86.6097 205.796 86.6097 205.956 86.4275ZM204.523 86.7919C204.682 86.7919 204.842 86.7919 205.001 86.7919L219.642 165.133C219.483 165.133 219.483 165.315 219.324 165.315C219.165 165.315 219.006 165.497 219.006 165.497L195.929 137.44L204.523 86.7919ZM203.409 88.7959L195.133 136.894L191.791 132.885C192.428 131.975 192.587 130.517 192.11 129.424C191.791 128.877 191.473 128.331 190.836 127.966L203.409 88.7959ZM189.722 133.979C190.041 133.979 190.518 133.796 190.836 133.614C190.996 133.614 191.155 133.432 191.155 133.432L194.815 137.805L187.335 180.619L189.722 133.979ZM187.176 132.521C187.653 133.432 188.29 133.979 189.086 133.979L186.539 183.352C186.221 183.352 185.744 183.534 185.425 183.716C184.63 184.263 184.152 184.991 183.993 185.902L102.827 174.242C102.827 173.878 102.827 173.513 102.668 172.967L187.176 132.521ZM102.668 175.153L183.993 186.813C183.993 186.995 183.993 187.178 183.993 187.178L137.999 200.659L121.288 205.579C121.288 205.579 121.288 205.396 121.129 205.396C120.493 203.757 118.742 203.21 117.469 203.939L101.713 176.793C102.19 176.428 102.509 175.882 102.668 175.153ZM101.076 177.157L116.832 204.303C116.355 204.85 115.877 205.579 115.877 206.49L95.3469 207.218L99.6439 177.339C100.121 177.522 100.599 177.339 101.076 177.157ZM99.3257 129.788L99.6439 171.145C99.3256 171.145 99.0074 171.327 98.6891 171.509C97.2567 172.238 96.7793 174.242 97.4159 175.882C97.575 176.246 97.7342 176.611 98.0525 176.793L82.2967 205.761L99.3257 129.788ZM98.0525 129.242C98.2116 129.424 98.3708 129.424 98.5299 129.606L81.5009 205.396C81.0235 205.396 80.3869 205.396 79.9094 205.761C79.7503 205.761 79.7503 205.943 79.5912 205.943L59.3793 178.979L98.0525 129.242ZM18.9554 122.501L96.7793 126.873C96.7793 127.238 96.9384 127.602 97.0976 128.149C97.2567 128.331 97.2567 128.513 97.4159 128.877L59.0609 178.25L18.3188 123.958C18.6371 123.594 18.7962 123.047 18.9554 122.501ZM17.5231 124.869C17.6822 124.869 17.6822 124.687 17.8412 124.687L58.5835 178.979L42.6686 199.384C42.032 198.838 41.2362 198.655 40.4405 198.838L17.5231 124.869C17.3639 124.869 17.3639 124.869 17.5231 124.869ZM16.7273 125.051L39.804 199.202C39.4856 199.384 39.3264 199.566 39.1673 199.749L-5.3945 157.481L14.8175 124.869C15.295 125.051 16.0907 125.234 16.7273 125.051ZM10.043 81.6905L15.295 118.857C15.1358 118.857 14.9766 119.039 14.8175 119.039C14.34 119.404 14.0218 119.768 13.7034 120.132L-19.7179 103.553L7.6558 80.5974C8.29239 81.3262 9.24723 81.6905 10.043 81.6905ZM-86.4015 70.2127L7.0192 78.4112C7.0192 78.9577 7.17838 79.3221 7.33744 79.8686L-20.3545 103.189L-86.4015 70.3949C-86.5605 70.3949 -86.4015 70.3949 -86.4015 70.2127ZM-87.9929 72.3989C-87.5155 72.0345 -87.1971 71.6702 -86.8789 71.1236L-21.1502 103.735L-69.3724 144.363C-70.009 143.635 -70.8048 143.27 -71.7596 143.452L-88.1519 72.5811C-87.9929 72.5811 -87.9929 72.5811 -87.9929 72.3989Z" fill="url(#paint0_linear_339_7395)" fill-opacity="0.3"/>
<defs>
<linearGradient id="paint0_linear_339_7395" x1="850.417" y1="234.158" x2="61.0553" y2="234.158" gradientUnits="userSpaceOnUse">
<stop stop-color="#191C1E"/>
<stop offset="0.1801" stop-color="#795701"/>
<stop offset="0.486" stop-color="#F3BB2B"/>
<stop offset="0.784108" stop-color="#795701"/>
<stop offset="0.9994" stop-color="#191C1E"/>
</linearGradient>
</defs>
</svg>
