<svg width="80" height="71" viewBox="0 0 80 71" fill="none" xmlns="http://www.w3.org/2000/svg">
<path opacity="0.2" d="M40.1435 71C61.8657 71 79.475 61.9151 79.475 50.7083C79.475 39.5014 61.8657 30.4165 40.1435 30.4165C18.4213 30.4165 0.812012 39.5014 0.812012 50.7083C0.812012 61.9151 18.4213 71 40.1435 71Z" fill="#AD68FF"/>
<path d="M46.3154 64.9173C51.0129 64.9173 54.8209 62.9527 54.8209 60.5292C54.8209 58.1057 51.0129 56.1411 46.3154 56.1411C41.618 56.1411 37.8099 58.1057 37.8099 60.5292C37.8099 62.9527 41.618 64.9173 46.3154 64.9173Z" fill="#E0E0E0" fill-opacity="0.5"/>
<path d="M41.8955 45.6716L19.1448 57.4111C18.5048 57.7413 17.3868 57.6999 16.6477 57.3185L8.57049 53.1514C7.83141 52.77 7.75117 52.1932 8.39119 51.863L31.1419 40.1236C31.7819 39.7933 32.9 39.8347 33.639 40.2161L41.7162 44.3832C42.4553 44.7645 42.5357 45.3414 41.8955 45.6716Z" fill="#E0E0E0"/>
<path d="M66.3928 49.771L68.1849 50.7012C68.1849 50.7012 67.2806 48.1217 67.7826 45.527C67.9721 44.5476 68.3708 44.061 68.5115 43.7996C68.6522 43.5382 69.7328 41.9198 68.7816 41.1737C67.8304 40.4276 65.5987 41.9117 65.6987 45.9082C65.7499 47.959 66.3928 49.771 66.3928 49.771Z" fill="#AD68FF"/>
<path opacity="0.5" d="M66.3928 49.771L68.1849 50.7012C68.1849 50.7012 67.2806 48.1217 67.7826 45.527C67.9721 44.5476 68.3708 44.061 68.5115 43.7996C68.6522 43.5382 69.7328 41.9198 68.7816 41.1737C67.8304 40.4276 65.5987 41.9117 65.6987 45.9082C65.7499 47.959 66.3928 49.771 66.3928 49.771Z" fill="black"/>
<path d="M67.2258 50.2761C67.1927 50.2761 67.1616 50.2579 67.1496 50.2285C67.1428 50.2118 66.4651 48.5303 66.5009 45.8335C66.5367 43.1204 68.1322 41.6736 68.1484 41.6593C68.18 41.6312 68.2316 41.631 68.2631 41.6596C68.2947 41.6881 68.2947 41.734 68.2629 41.7623C68.2473 41.7761 66.6983 43.1847 66.6634 45.835C66.628 48.503 67.2953 50.1618 67.3023 50.1783C67.3178 50.216 67.2961 50.2578 67.2539 50.2716C67.2447 50.2748 67.2353 50.2761 67.2258 50.2761Z" fill="white"/>
<path d="M67.7826 50.4978L70.7431 52.0536C70.7431 52.0536 72.0986 51.8752 71.996 50.7349C71.8933 49.5947 71.3426 49.326 72.0284 48.825C72.7142 48.3239 72.8912 48.2908 72.8584 47.7997C72.8257 47.3085 72.4559 47.0945 72.2819 46.8999C72.1081 46.7053 71.6231 46.297 71.9643 45.7047C72.3056 45.1125 72.7678 44.5404 72.0813 44.2689C71.6716 44.1068 70.9825 44.3098 70.5257 44.7432C70.069 45.1766 69.6921 45.488 69.2595 45.5886C68.8266 45.6893 67.9244 45.6972 67.9548 46.3635C67.9851 47.0298 68.1787 47.2599 67.9979 47.5556C67.6572 48.1129 66.202 48.4131 67.7826 50.4978Z" fill="#AD68FF"/>
<path opacity="0.2" d="M67.7826 50.4978L70.7431 52.0536C70.7431 52.0536 72.0986 51.8752 71.996 50.7349C71.8933 49.5947 71.3426 49.326 72.0284 48.825C72.7142 48.3239 72.8912 48.2908 72.8584 47.7997C72.8257 47.3085 72.4559 47.0945 72.2819 46.8999C72.1081 46.7053 71.6231 46.297 71.9643 45.7047C72.3056 45.1125 72.7678 44.5404 72.0813 44.2689C71.6716 44.1068 70.9825 44.3098 70.5257 44.7432C70.069 45.1766 69.6921 45.488 69.2595 45.5886C68.8266 45.6893 67.9244 45.6972 67.9548 46.3635C67.9851 47.0298 68.1787 47.2599 67.9979 47.5556C67.6572 48.1129 66.202 48.4131 67.7826 50.4978Z" fill="black"/>
<path d="M68.9883 51.2041C68.9464 51.2041 68.9109 51.1753 68.9073 51.1374C68.9037 51.0979 68.5816 47.1533 71.6485 44.5628C71.6813 44.5352 71.7325 44.5366 71.7634 44.5657C71.7943 44.5948 71.7928 44.6408 71.7602 44.6684C68.7509 47.21 69.0657 51.0866 69.0694 51.1255C69.0728 51.1655 69.0397 51.2005 68.9949 51.2037C68.9928 51.2039 68.9905 51.2041 68.9883 51.2041Z" fill="white"/>
<path d="M69.5192 47.8235C69.4768 47.8235 69.4412 47.7944 69.438 47.7562C69.3521 46.7214 68.5464 46.1889 68.5381 46.1837C68.5019 46.1601 68.4936 46.1148 68.5198 46.0822C68.5458 46.0499 68.5965 46.0421 68.6332 46.0657C68.6688 46.0887 69.5085 46.6406 69.6004 47.7454C69.6038 47.7853 69.5701 47.8201 69.5254 47.8231C69.5232 47.8233 69.5211 47.8235 69.5192 47.8235Z" fill="white"/>
<path d="M69.3005 48.4966C69.2809 48.4966 69.2617 48.4903 69.2461 48.4779C69.2128 48.4511 69.2101 48.4053 69.2401 48.3756C69.2721 48.3436 70.0439 47.598 71.8291 47.8171C71.8736 47.8227 71.9046 47.8594 71.8986 47.8989C71.8924 47.9386 71.8515 47.9661 71.8071 47.961C70.1134 47.7533 69.3683 48.4658 69.361 48.4727C69.3448 48.4885 69.3228 48.4966 69.3005 48.4966Z" fill="white"/>
<path d="M12.1029 47.5052L11.2178 49.1796C11.2178 49.1796 10.3247 46.5971 8.26373 44.715C7.48585 44.0045 6.84866 43.8059 6.56671 43.6622C6.28475 43.5183 4.36754 42.7333 4.677 41.6368C4.98645 40.5401 7.76668 40.6307 10.2216 43.9724C11.4819 45.6871 12.1029 47.5052 12.1029 47.5052Z" fill="#AD68FF"/>
<path opacity="0.5" d="M12.1029 47.5052L11.2178 49.1796C11.2178 49.1796 10.3247 46.5971 8.26373 44.715C7.48585 44.0045 6.84866 43.8059 6.56671 43.6622C6.28475 43.5183 4.36754 42.7333 4.677 41.6368C4.98645 40.5401 7.76668 40.6307 10.2216 43.9724C11.4819 45.6871 12.1029 47.5052 12.1029 47.5052Z" fill="black"/>
<path d="M11.6914 48.3562C11.6552 48.3562 11.6221 48.3345 11.6126 48.3017C11.6077 48.2847 11.1041 46.5802 9.38088 44.4013C7.66917 42.2365 5.49957 41.8621 5.47772 41.8585C5.43365 41.8513 5.40426 41.8136 5.41218 41.774C5.42027 41.7346 5.4619 41.7086 5.50673 41.7155C5.52895 41.719 7.76146 42.1014 9.51348 44.3173C11.2551 46.52 11.7648 48.2481 11.7697 48.2655C11.781 48.3043 11.7547 48.3439 11.7111 48.3538C11.7049 48.3555 11.6981 48.3562 11.6914 48.3562Z" fill="white"/>
<path d="M11.4198 48.8082L9.96992 51.5905C9.96992 51.5905 8.74038 52.1309 8.10074 51.14C7.4613 50.149 7.7442 49.6486 6.8614 49.5836C5.97861 49.5188 5.81173 49.5811 5.52695 49.1602C5.24217 48.7392 5.41055 48.3753 5.43033 48.1269C5.44992 47.8785 5.59005 47.2965 4.93308 46.9818C4.27612 46.667 3.53214 46.4304 3.92504 45.8588C4.15953 45.5177 4.85586 45.3354 5.50717 45.4606C6.15849 45.5858 6.66646 45.6513 7.08667 45.5146C7.50688 45.378 8.255 44.9272 8.65298 45.4912C9.05097 46.0554 9.03778 46.3429 9.37455 46.4948C10.0089 46.781 11.3978 46.2902 11.4198 48.8082Z" fill="#AD68FF"/>
<path opacity="0.2" d="M11.4198 48.8082L9.96992 51.5905C9.96992 51.5905 8.74038 52.1309 8.10074 51.14C7.4613 50.149 7.7442 49.6486 6.8614 49.5836C5.97861 49.5188 5.81173 49.5811 5.52695 49.1602C5.24217 48.7392 5.41055 48.3753 5.43033 48.1269C5.44992 47.8785 5.59005 47.2965 4.93308 46.9818C4.27612 46.667 3.53214 46.4304 3.92504 45.8588C4.15953 45.5177 4.85586 45.3354 5.50717 45.4606C6.15849 45.5858 6.66646 45.6513 7.08667 45.5146C7.50688 45.378 8.255 44.9272 8.65298 45.4912C9.05097 46.0554 9.03778 46.3429 9.37455 46.4948C10.0089 46.781 11.3978 46.2902 11.4198 48.8082Z" fill="black"/>
<path d="M10.8294 50.014C10.8013 50.014 10.774 50.0009 10.7589 49.9777C10.7373 49.9439 8.53472 46.592 4.44302 46.0248C4.39876 46.0188 4.36843 45.9816 4.37522 45.942C4.382 45.9021 4.42362 45.8745 4.46807 45.8814C8.6385 46.4594 10.8778 49.871 10.8998 49.9053C10.9222 49.9402 10.9089 49.9846 10.8699 50.0044C10.8573 50.0108 10.8433 50.014 10.8294 50.014Z" fill="white"/>
<path d="M8.24567 47.4994C8.21799 47.4994 8.19067 47.4865 8.17561 47.4634C7.54953 46.5073 7.89026 45.627 7.90514 45.59C7.92002 45.5523 7.96616 45.5324 8.00892 45.5461C8.0513 45.5595 8.07333 45.6011 8.05826 45.6388C8.05487 45.6472 7.72941 46.4943 8.31574 47.39C8.33853 47.4247 8.32553 47.4691 8.28673 47.4893C8.27392 47.4962 8.2598 47.4994 8.24567 47.4994Z" fill="white"/>
<path d="M6.4403 48.7787C6.41826 48.7787 6.39641 48.7708 6.3804 48.755C6.35008 48.7254 6.35253 48.6794 6.38549 48.6523C7.7158 47.5671 8.82574 47.7899 8.87208 47.7997C8.91559 47.8089 8.94252 47.8481 8.93197 47.887C8.9218 47.9259 8.87905 47.9505 8.83422 47.9409C8.8233 47.9387 7.75743 47.7296 6.49492 48.7595C6.47948 48.7725 6.4597 48.7787 6.4403 48.7787Z" fill="white"/>
<path d="M11.4406 13.6017C11.4406 12.604 12.0363 11.6819 13.0033 11.183L32.8777 0.92956C33.4648 0.626608 34.177 0.910878 34.3644 1.44458C34.2566 1.02903 33.9666 0.663298 33.5467 0.439787L33.4759 0.402086C32.9813 0.138853 32.4165 0 31.8409 0V0.000337071C31.6661 -0.00185092 31.4862 0.0365225 31.3167 0.124042L11.4423 10.3773C10.4753 10.8762 9.87952 11.7982 9.87952 12.796V51.2027C9.87952 51.9067 10.7324 52.3467 11.4148 51.9948L11.4406 51.9815V13.6017Z" fill="#37474F"/>
<path d="M32.85 42.5468L12.9755 52.8002C12.2932 53.1522 11.4403 52.7122 11.4403 52.0082V13.6017C11.4403 12.604 12.0361 11.6818 13.003 11.183L32.8775 0.929518C33.5597 0.577588 34.4125 1.01754 34.4125 1.72157V40.1282C34.4127 41.1259 33.817 42.0479 32.85 42.5468Z" fill="#455A64"/>
<path d="M11.4406 52.0084V13.6017C11.4406 13.1759 11.55 12.7641 11.7494 12.3929L10.2127 11.5425C9.99742 11.9252 9.87952 12.353 9.87952 12.796V51.1227V51.2027V51.5235C9.87952 51.8335 10.0622 52.1206 10.3604 52.2793L11.1528 52.701C11.4272 52.847 11.7408 52.9241 12.0604 52.9241H12.4516V52.9238C11.9224 52.9174 11.4406 52.5375 11.4406 52.0084Z" fill="#263238"/>
<path d="M32.1661 4.62109V36.9022C32.1661 37.7833 31.64 38.5976 30.786 39.038L13.2358 48.0924C13.0951 48.165 12.9461 48.1981 12.8005 48.2003C13.004 48.6213 13.5931 48.8306 14.0828 48.578L31.633 39.5236C32.487 39.083 33.0131 38.2689 33.0131 37.3878V5.42661C33.0132 4.97471 32.6149 4.64769 32.1661 4.62109Z" fill="#37474F"/>
<path d="M12.8007 48.2005C12.9463 48.1983 13.0953 48.1652 13.236 48.0926L30.7862 39.0382C31.6401 38.5976 32.1662 37.7835 32.1662 36.9024V4.62109C32.2487 4.62597 31.9027 4.60073 31.6577 4.72729L14.1075 13.7817C13.2535 14.2223 12.7274 15.0364 12.7274 15.9175V47.8789C12.7274 47.997 12.7549 48.1066 12.8031 48.2047C12.8024 48.2034 12.8014 48.202 12.8007 48.2005Z" fill="#AD68FF"/>
<g opacity="0.5">
<path d="M12.8007 48.2005C12.9463 48.1983 13.0953 48.1652 13.236 48.0926L30.7862 39.0382C31.6401 38.5976 32.1662 37.7835 32.1662 36.9024V4.62109C32.2487 4.62597 31.9027 4.60073 31.6577 4.72729L14.1075 13.7817C13.2535 14.2223 12.7274 15.0364 12.7274 15.9175V47.8789C12.7274 47.997 12.7549 48.1066 12.8031 48.2047C12.8024 48.2034 12.8014 48.202 12.8007 48.2005Z" fill="white"/>
</g>
<path d="M20.1453 9.05028C20.1453 9.23037 20.0038 9.44934 19.8292 9.53938C19.6546 9.62943 19.5132 9.55638 19.5132 9.37629C19.5132 9.1962 19.6546 8.97724 19.8292 8.88719C20.0036 8.79715 20.1453 8.87019 20.1453 9.05028Z" fill="#263238"/>
<path d="M21.3209 8.44384C21.3209 8.62392 21.1795 8.84289 21.0049 8.93294C20.8303 9.02298 20.6888 8.94993 20.6888 8.76985C20.6888 8.58976 20.8303 8.37079 21.0049 8.28075C21.1793 8.1907 21.3209 8.26375 21.3209 8.44384Z" fill="#263238"/>
<path d="M26.0664 6.32174L22.2439 8.29396C22.0926 8.37189 21.9702 8.28908 21.9702 8.10899C21.9702 7.92891 22.0928 7.7197 22.2439 7.64177L26.0664 5.66972C26.2177 5.59179 26.3401 5.67443 26.3401 5.85452C26.3401 6.03461 26.2175 6.24381 26.0664 6.32174Z" fill="#263238"/>
<path d="M25.4197 43.7587C25.648 43.7587 25.7956 43.9751 25.7956 44.3099C25.7956 44.8362 25.4272 45.4707 24.9912 45.6957L23.1629 46.6391C23.0653 46.6894 22.9736 46.715 22.8905 46.715C22.6623 46.715 22.5146 46.4987 22.5146 46.1638C22.5146 45.6375 22.883 45.003 23.319 44.7779L25.1473 43.8347C25.2451 43.7843 25.3366 43.7587 25.4197 43.7587ZM25.4197 43.6191C25.3123 43.6191 25.1939 43.6496 25.0694 43.7137L23.2411 44.6569C22.7536 44.9084 22.3586 45.5829 22.3586 46.1636C22.3586 46.596 22.5777 46.8543 22.8907 46.8543C22.9981 46.8543 23.1166 46.8239 23.2411 46.7598L25.0694 45.8166C25.5568 45.5651 25.9518 44.8905 25.9518 44.3099C25.9518 43.8775 25.7327 43.6191 25.4197 43.6191Z" fill="#263238"/>
<path d="M15.3163 18.1801V54.3639C15.3163 55.0193 15.5858 55.4596 15.9977 55.6041L16.0092 55.6075L16.0111 55.6092L17.7611 56.4659L17.7515 55.0743L17.5571 17.5538L15.709 16.7092C15.4645 17.1773 15.3163 17.6967 15.3163 18.1801Z" fill="#E6E6E6"/>
<path d="M17.8562 56.6087L15.9622 55.6813C15.4928 55.5082 15.2222 55.0189 15.2222 54.364V18.1802C15.2222 17.7044 15.3647 17.1695 15.6237 16.6738L15.6652 16.5947L17.6511 17.5024L17.6513 17.5536L17.8457 55.0741L17.8562 56.6087ZM16.0566 55.5358L17.666 56.3238L17.6573 55.0751L17.4631 17.6057L15.7543 16.8246C15.5322 17.2755 15.4107 17.7539 15.4107 18.1803V54.3642C15.4107 54.9551 15.6431 55.3895 16.0324 55.5262L16.0566 55.5363V55.5358Z" fill="#E6E6E6"/>
<path d="M15.7089 16.7091L17.5569 17.5537L37.3349 7.27196L38.6555 6.58561L36.8305 5.66699L36.7786 5.63955V5.63787C36.4879 5.48134 36.1067 5.49161 35.6871 5.70839L16.9659 15.3674C16.4615 15.6272 16.0112 16.1278 15.7089 16.7091Z" fill="#E0E0E0"/>
<path d="M17.557 17.638C17.5423 17.638 17.5276 17.6349 17.5143 17.6287L15.6662 16.7841C15.6212 16.7634 15.6023 16.7148 15.6236 16.6737C15.9448 16.0559 16.4169 15.5531 16.9189 15.2944L35.6403 5.63547C36.0735 5.41179 36.4952 5.38671 36.8274 5.56579C36.8323 5.56849 36.837 5.57152 36.8412 5.57488L36.8787 5.59491L38.7019 6.51252C38.7313 6.52733 38.7497 6.5551 38.7499 6.58523C38.7501 6.61536 38.7322 6.64346 38.703 6.65861L17.6043 17.6267C17.5898 17.6341 17.5734 17.638 17.557 17.638ZM15.8336 16.6715L17.5542 17.458L38.4661 6.58691L36.7308 5.71188C36.7257 5.70919 36.721 5.70616 36.7167 5.70279C36.4477 5.56495 36.0998 5.59272 35.7344 5.78123L17.0131 15.4402C16.5635 15.6718 16.1369 16.118 15.8336 16.6715Z" fill="#E0E0E0"/>
<path d="M17.1298 19.0901V55.1105C17.1298 55.6782 17.3319 56.0859 17.6553 56.2769L17.7611 56.3286C18.0421 56.4472 18.3945 56.4215 18.7776 56.2237L27.8272 51.555L37.4988 46.3532C38.4093 45.8836 39.1486 44.834 39.1486 43.7503V7.73159C39.1486 7.18291 38.9598 6.78554 38.6556 6.58593C38.6037 6.55159 38.5479 6.52231 38.4882 6.50161C38.2128 6.39658 37.8702 6.42772 37.4988 6.61858L18.7776 16.4405C18.2924 16.6899 17.8574 17.0018 17.5571 17.554C17.2916 18.0374 17.1298 18.5827 17.1298 19.0901Z" fill="#FAFAFA"/>
<path d="M37.4986 46.3529C33.6463 48.4064 23.6246 53.7512 18.6637 56.4212C18.014 56.7708 17.1874 56.3524 17.1874 55.6748V18.636C17.1874 17.7784 17.6961 16.9852 18.5239 16.5516L37.5886 6.56733C38.2382 6.22719 39.0561 6.64577 39.0561 7.31866V43.9017C39.0561 44.907 38.4648 45.8379 37.4986 46.3529Z" fill="#FAFAFA"/>
<path d="M37.4513 46.2802C34.4269 47.8924 31.4034 49.5055 28.3805 51.12C26.591 52.0758 24.8017 53.0323 23.0133 53.9897C22.1961 54.4271 21.3792 54.8649 20.5625 55.303C20.2052 55.4947 19.8481 55.6864 19.491 55.8782C19.1614 56.0553 18.8101 56.3074 18.4461 56.4205C17.8416 56.6082 17.2975 56.1761 17.2815 55.6429C17.2789 55.5569 17.2815 55.4706 17.2815 55.3846C17.2815 54.968 17.2815 54.5513 17.2815 54.1348C17.2815 52.5128 17.2815 50.8908 17.2815 49.2687C17.2815 46.9462 17.2815 44.6239 17.2815 42.3014C17.2815 39.692 17.2815 37.0826 17.2815 34.4731C17.2815 32.0158 17.2815 29.5584 17.2815 27.1011C17.2815 25.2093 17.2815 23.3177 17.2815 21.426C17.2815 20.5215 17.2792 19.617 17.2815 18.7125C17.2837 17.8227 17.765 17.0506 18.6256 16.5961C19.0625 16.3653 19.5014 16.1374 19.9395 15.908C21.9925 14.8329 24.0455 13.7577 26.0987 12.6824C28.5314 11.4085 30.9639 10.1344 33.3967 8.86049C34.7808 8.13559 36.1616 7.40514 37.5494 6.68563C37.9792 6.46279 38.5203 6.48467 38.819 6.88675C38.9403 7.05001 38.9613 7.23145 38.962 7.41843C38.9631 7.74125 38.962 8.06389 38.962 8.3867C38.962 9.87723 38.962 11.3679 38.962 12.8585C38.962 15.1155 38.962 17.3724 38.962 19.6294C38.962 22.2204 38.962 24.8113 38.962 27.4022C38.962 29.9019 38.962 32.4014 38.962 34.9011C38.962 36.86 38.962 38.8191 38.962 40.7781C38.962 41.7723 38.962 42.7664 38.962 43.7606C38.962 44.7947 38.4561 45.7285 37.4513 46.2802C37.3482 46.3367 37.4426 46.4825 37.5464 46.4254C38.5943 45.85 39.1504 44.8693 39.1504 43.7835C39.1504 43.439 39.1504 43.0945 39.1504 42.75C39.1504 41.2066 39.1504 39.6632 39.1504 38.1198C39.1504 35.8088 39.1504 33.4978 39.1504 31.1868C39.1504 28.5406 39.1504 25.8945 39.1504 23.2484C39.1504 20.7515 39.1504 18.2547 39.1504 15.7579C39.1504 13.8388 39.1504 11.9198 39.1504 10.0008C39.1504 9.1212 39.1609 8.24129 39.1504 7.36172C39.1407 6.56142 38.2386 6.1356 37.4782 6.52759C37.0192 6.76406 36.5639 7.00642 36.1068 7.24575C33.9973 8.35052 31.8876 9.45529 29.7781 10.5601C27.3235 11.8456 24.8688 13.1311 22.4142 14.4165C21.1121 15.0985 19.8057 15.7744 18.5076 16.4622C17.606 16.9401 17.0963 17.7703 17.0933 18.7021C17.0924 19.005 17.0933 19.3078 17.0933 19.6108C17.0933 21.0826 17.0933 22.5545 17.0933 24.0265C17.0933 26.2904 17.0933 28.5544 17.0933 30.8183C17.0933 33.4532 17.0933 36.088 17.0933 38.7229C17.0933 41.2559 17.0933 43.7887 17.0933 46.3218C17.0933 48.3357 17.0933 50.3497 17.0933 52.3637C17.0933 53.4085 17.0933 54.4534 17.0933 55.4982C17.0933 55.5561 17.0913 55.6142 17.0933 55.6721C17.1156 56.3059 17.7979 56.7911 18.4962 56.5823C18.8518 56.4759 19.1874 56.2372 19.5076 56.0652C19.8717 55.8695 20.2359 55.6741 20.6002 55.4785C21.4144 55.0418 22.229 54.6053 23.0437 54.1691C26.6055 52.2622 30.17 50.3593 33.7351 48.4574C35.0054 47.7798 36.2758 47.1024 37.5462 46.4251C37.6503 46.3701 37.5558 46.2245 37.4513 46.2802Z" fill="#EBEBEB"/>
<path d="M18.524 16.5516L37.5887 6.56733C38.2384 6.22719 39.056 6.64577 39.056 7.31866V8.92565L39.0503 8.92599L17.1875 20.2053V18.6358C17.1875 17.7784 17.6962 16.9852 18.524 16.5516Z" fill="#EBEBEB"/>
<path d="M31.6215 25.3085C33.5549 22.316 33.555 19.0816 31.6216 18.0841C29.6883 17.0866 26.5536 18.7038 24.6201 21.6962C22.6866 24.6887 22.6866 27.9231 24.6199 28.9206C26.5533 29.9181 29.688 28.3009 31.6215 25.3085Z" fill="#82CC31"/>
<path opacity="0.5" d="M31.6215 25.3085C33.5549 22.316 33.555 19.0816 31.6216 18.0841C29.6883 17.0866 26.5536 18.7038 24.6201 21.6962C22.6866 24.6887 22.6866 27.9231 24.6199 28.9206C26.5533 29.9181 29.688 28.3009 31.6215 25.3085Z" fill="white"/>
<path d="M27.2337 23.5214C27.1109 23.5214 27.0115 23.4326 27.0115 23.3228V22.0146C27.0115 21.4365 27.4503 20.7572 28.0107 20.468C28.3196 20.3086 28.6215 20.2889 28.8609 20.4125C29.1003 20.536 29.2321 20.7796 29.2321 21.0982V22.4064C29.2321 22.5161 29.1327 22.605 29.0099 22.605C28.8871 22.605 28.7876 22.5161 28.7876 22.4064V21.0982C28.7876 20.9299 28.7334 20.8053 28.6386 20.7563C28.5439 20.7075 28.396 20.7277 28.2329 20.8119C27.8118 21.0292 27.456 21.5799 27.456 22.0144V23.3227C27.456 23.4326 27.3565 23.5214 27.2337 23.5214Z" fill="#37474F"/>
<path d="M29.9163 21.5631C29.83 21.5261 29.7212 21.5332 29.6025 21.5945L26.6411 23.1223C26.5224 23.1836 26.4136 23.2888 26.3273 23.415C26.2107 23.5855 26.1357 23.7942 26.1357 23.9854V26.2764C26.1357 26.4424 26.1921 26.5634 26.2832 26.6253C26.2992 26.6363 26.3167 26.6447 26.335 26.6519C26.4201 26.6854 26.526 26.6773 26.6413 26.6179L29.6027 25.0902C29.8818 24.9461 30.1082 24.5597 30.1082 24.2271V21.9361C30.108 21.7446 30.0329 21.6131 29.9163 21.5631Z" fill="#82CC31"/>
<path d="M28.4587 23.9502L28.7441 24.6837L27.7407 25.2013L27.992 24.2954L28.0274 24.1672C27.8579 24.1716 27.7407 24.0544 27.7407 23.8482C27.7407 23.7693 27.7575 23.6862 27.7876 23.604C27.868 23.3866 28.0417 23.1755 28.2425 23.072C28.5195 22.9291 28.7442 23.0446 28.7442 23.3309C28.7442 23.537 28.6265 23.7754 28.457 23.9462L28.4587 23.9502Z" fill="#455A64"/>
<path d="M27.9916 24.2957L28.027 24.1674C27.8575 24.1718 27.7404 24.0546 27.7404 23.8485C27.7404 23.7695 27.7571 23.6864 27.7873 23.6042L28.4583 23.9506L28.7437 24.6841L27.9916 24.2957Z" fill="#37474F"/>
<path d="M35.4248 31.9726L20.8189 39.5082C20.2146 39.8199 19.7247 39.489 19.7247 38.7691V36.7919C19.7247 36.072 20.2146 35.2357 20.8189 34.924L35.425 27.3885C36.0292 27.0768 36.5191 27.4077 36.5191 28.1276V30.1049C36.5189 30.8245 36.029 31.6609 35.4248 31.9726Z" fill="#82CC31"/>
<path d="M23.4472 34.7458H23.1647V36.8386H23.4472V34.7458Z" fill="#FAFAFA"/>
<path d="M24.2515 35.1594L22.2233 36.2061L22.3646 36.4247L24.3928 35.378L24.2515 35.1594Z" fill="#FAFAFA"/>
<path d="M22.658 35.3143L22.5167 35.533L23.951 36.2729L24.0922 36.0543L22.658 35.3143Z" fill="#FAFAFA"/>
<path d="M23.9024 34.6204L22.4679 36.8401L22.7126 36.9663L24.147 34.7467L23.9024 34.6204Z" fill="#FAFAFA"/>
<path d="M28.2631 32.4019H27.9806V34.4948H28.2631V32.4019Z" fill="#FAFAFA"/>
<path d="M29.0671 32.8155L27.0389 33.8621L27.1802 34.0807L29.2083 33.0341L29.0671 32.8155Z" fill="#FAFAFA"/>
<path d="M27.4743 32.9706L27.333 33.1892L28.7671 33.9291L28.9083 33.7105L27.4743 32.9706Z" fill="#FAFAFA"/>
<path d="M28.7184 32.2762L27.2839 34.4958L27.5286 34.6221L28.9631 32.4024L28.7184 32.2762Z" fill="#FAFAFA"/>
<path d="M33.0789 30.0581H32.7964V32.1508H33.0789V30.0581Z" fill="#FAFAFA"/>
<path d="M33.8792 30.4733L31.851 31.5198L31.9922 31.7384L34.0205 30.692L33.8792 30.4733Z" fill="#FAFAFA"/>
<path d="M32.2903 30.6266L32.149 30.8452L33.5831 31.5851L33.7244 31.3665L32.2903 30.6266Z" fill="#FAFAFA"/>
<path d="M33.5307 29.93L32.0966 32.1497L32.3412 32.2759L33.7754 30.0562L33.5307 29.93Z" fill="#FAFAFA"/>
<path d="M35.8593 34.697C36.0548 34.697 36.1422 34.958 36.1422 35.2167V37.194C36.1422 37.7952 35.7275 38.5172 35.2364 38.7703L20.6305 46.3058C20.539 46.3531 20.4538 46.378 20.3845 46.378C20.189 46.378 20.1016 46.1169 20.1016 45.8582V43.881C20.1016 43.2798 20.5164 42.5577 21.0074 42.3046L35.6135 34.7692C35.7047 34.7219 35.7898 34.697 35.8593 34.697ZM35.8591 34.3604C35.7259 34.3604 35.579 34.3981 35.4248 34.4777L20.8189 42.0131C20.2146 42.3248 19.7247 43.1611 19.7247 43.881V45.8582C19.7247 46.3943 19.9961 46.7146 20.3843 46.7146C20.5175 46.7146 20.6644 46.6769 20.8187 46.5973L35.4248 39.0618C36.029 38.7501 36.5189 37.9138 36.5189 37.194V35.2167C36.5189 34.6806 36.2473 34.3604 35.8591 34.3604Z" fill="#82CC31"/>
<path d="M25.152 42.7095C25.0383 42.7681 24.9387 42.7955 24.8534 42.7915C24.7693 42.7856 24.7035 42.7528 24.6561 42.6933C24.6099 42.6318 24.5868 42.5471 24.5868 42.4391C24.5868 42.3311 24.6093 42.2234 24.6543 42.1162C24.7006 42.007 24.7639 41.9083 24.8445 41.8201C24.9251 41.7305 25.0157 41.6598 25.1165 41.6078C25.2112 41.5589 25.2977 41.5363 25.3759 41.5399C25.4542 41.5422 25.5164 41.5735 25.5626 41.6336C25.6088 41.6938 25.6319 41.7839 25.6319 41.9039C25.6319 41.9172 25.6313 41.9328 25.6301 41.9508C25.6289 41.9687 25.6277 41.9853 25.6266 42.0006L24.8641 42.394V42.194L25.447 41.8932L25.3191 42.0153C25.3203 41.9653 25.312 41.9269 25.2942 41.9001C25.2776 41.8727 25.2539 41.8569 25.2231 41.8528C25.1935 41.8481 25.1585 41.8561 25.1182 41.8769C25.0779 41.8977 25.0424 41.926 25.0116 41.9619C24.982 41.9972 24.9589 42.0378 24.9423 42.0837C24.9257 42.1282 24.9174 42.1752 24.9174 42.2245V42.2825C24.9174 42.3358 24.9269 42.3769 24.9458 42.4058C24.966 42.4341 24.9944 42.4494 25.0311 42.4518C25.0679 42.4529 25.1117 42.4402 25.1627 42.414C25.2101 42.3895 25.2503 42.3614 25.2835 42.3296C25.3179 42.2959 25.3517 42.2544 25.3848 42.2053L25.5626 42.3216C25.5164 42.4028 25.4595 42.4761 25.3919 42.5417C25.3244 42.6058 25.2444 42.6618 25.152 42.7095ZM26.415 40.9378C26.4896 40.8993 26.5572 40.8818 26.6176 40.8853C26.678 40.8875 26.7254 40.915 26.7598 40.9679C26.7953 41.0203 26.8131 41.1024 26.8131 41.2144V41.8344L26.4754 42.0087V41.4507C26.4754 41.3733 26.4612 41.3247 26.4328 41.3047C26.4055 41.2827 26.367 41.2846 26.3172 41.3103C26.2817 41.3286 26.2491 41.3548 26.2195 41.3887C26.1899 41.4213 26.1668 41.4606 26.1502 41.5065C26.1336 41.5524 26.1253 41.6053 26.1253 41.6653V42.1893L25.7876 42.3635V41.2795L26.1093 41.1136V41.4216L26.0471 41.3637C26.0838 41.266 26.1342 41.1814 26.1982 41.1097C26.2621 41.0367 26.3344 40.9794 26.415 40.9378ZM27.4552 41.5211C27.332 41.5847 27.236 41.6002 27.1673 41.5677C27.0986 41.5338 27.0642 41.4475 27.0642 41.3089V40.3789L27.4019 40.2046V41.1306C27.4019 41.1693 27.4114 41.1951 27.4304 41.208C27.4493 41.2195 27.4736 41.2177 27.5032 41.2024C27.5435 41.1816 27.5779 41.1525 27.6063 41.1152L27.6899 41.3381C27.6614 41.3741 27.6265 41.4075 27.585 41.4382C27.5435 41.4703 27.5003 41.4979 27.4552 41.5211ZM26.9238 41.0173V40.7333L27.6223 40.3729V40.6569L26.9238 41.0173ZM28.2971 41.0868C28.1833 41.1455 28.0838 41.1729 27.9985 41.1689C27.9144 41.1629 27.8486 41.1302 27.8012 41.0707C27.755 41.0092 27.7319 40.9244 27.7319 40.8164C27.7319 40.7084 27.7544 40.6008 27.7994 40.4936C27.8456 40.3844 27.909 40.2857 27.9896 40.1975C28.0702 40.1079 28.1608 40.0371 28.2615 39.9852C28.3563 39.9363 28.4428 39.9136 28.521 39.9173C28.5992 39.9196 28.6614 39.9508 28.7076 40.011C28.7539 40.0712 28.777 40.1612 28.777 40.2812C28.777 40.2946 28.7764 40.3102 28.7752 40.3281C28.774 40.3461 28.7728 40.3627 28.7716 40.378L28.0091 40.7714V40.5714L28.5921 40.2706L28.4641 40.3926C28.4653 40.3427 28.457 40.3043 28.4393 40.2775C28.4227 40.25 28.399 40.2342 28.3682 40.2301C28.3385 40.2254 28.3036 40.2335 28.2633 40.2542C28.223 40.275 28.1875 40.3034 28.1567 40.3393C28.127 40.3745 28.1039 40.4151 28.0873 40.461C28.0708 40.5056 28.0625 40.5525 28.0625 40.6019V40.6599C28.0625 40.7132 28.0719 40.7543 28.0909 40.7832C28.111 40.8115 28.1395 40.8268 28.1762 40.8292C28.2129 40.8302 28.2568 40.8176 28.3077 40.7913C28.3551 40.7669 28.3954 40.7387 28.4286 40.707C28.463 40.6732 28.4967 40.6318 28.5299 40.5827L28.7076 40.699C28.6614 40.7802 28.6046 40.8535 28.537 40.919C28.4695 40.9832 28.3895 41.0391 28.2971 41.0868ZM28.9327 40.7409V39.6569L29.2544 39.4909V39.8069L29.2064 39.7417C29.2348 39.6457 29.281 39.5612 29.345 39.4882C29.409 39.4138 29.4866 39.3531 29.5778 39.306V39.648C29.5624 39.6533 29.5488 39.659 29.537 39.6651C29.5263 39.6693 29.5144 39.6747 29.5014 39.6815C29.4327 39.7169 29.377 39.767 29.3343 39.8317C29.2917 39.895 29.2704 39.974 29.2704 40.0687V40.5667L28.9327 40.7409Z" fill="#82CC31"/>
<path d="M57.3571 12.2225C57.3571 12.4659 57.552 12.7619 57.7923 12.8836C58.0327 13.0053 58.2276 12.9067 58.2276 12.6633C58.2276 12.4199 58.0327 12.1239 57.7923 12.0022C57.552 11.8803 57.3571 11.979 57.3571 12.2225Z" fill="#455A64"/>
<path d="M51.5231 13.7902C51.1896 13.7902 50.8211 13.6931 50.4409 13.5004L49.0599 12.8012C49.0147 12.7784 48.9987 12.727 49.0243 12.6865C49.0499 12.6459 49.1077 12.6319 49.1526 12.6548L50.5335 13.354C51.1291 13.6556 51.6825 13.704 52.0916 13.491C52.4918 13.2824 52.7124 12.8428 52.7124 12.2531C52.7124 11.6009 52.9661 11.1094 53.4268 10.8696C53.8963 10.625 54.5162 10.6735 55.1722 11.0056L57.404 12.1354C57.4492 12.1583 57.4652 12.2096 57.4394 12.2502C57.4136 12.2906 57.3557 12.3046 57.3111 12.282L55.0794 11.1522C54.4838 10.8507 53.9306 10.8021 53.5215 11.0152C53.1211 11.2237 52.9005 11.6633 52.9005 12.2532C52.9005 12.9054 52.6468 13.3967 52.1861 13.6366C51.9891 13.7391 51.7652 13.7902 51.5231 13.7902Z" fill="#455A64"/>
<path d="M48.49 12.4239C48.49 12.6208 48.6476 12.8601 48.842 12.9586C49.0364 13.057 49.194 12.9773 49.194 12.7803C49.194 12.5836 49.0364 12.3441 48.842 12.2458C48.6476 12.1473 48.49 12.2271 48.49 12.4239Z" fill="#455A64"/>
<path d="M57.3571 26.9336C57.3571 27.177 57.552 27.4731 57.7923 27.5948C58.0327 27.7164 58.2276 27.6178 58.2276 27.3744C58.2276 27.1311 58.0327 26.835 57.7923 26.7133C57.552 26.5915 57.3571 26.6903 57.3571 26.9336Z" fill="#455A64"/>
<path d="M57.3739 27.1179C57.3581 27.1179 57.3421 27.1144 57.3276 27.107L55.0958 25.9771C53.7905 25.3162 52.729 23.7031 52.729 22.3811C52.729 21.1132 51.71 19.5656 50.4575 18.9314L49.0598 18.2237C49.0146 18.2008 48.9986 18.1495 49.0242 18.1089C49.0498 18.0684 49.1076 18.0542 49.1524 18.0771L50.5502 18.7848C51.8554 19.4458 52.9172 21.0588 52.9172 22.3809C52.9172 23.6487 53.936 25.1962 55.1885 25.8305L57.4202 26.9604C57.4654 26.9832 57.4814 27.0346 57.4556 27.0751C57.4385 27.1026 57.4067 27.1179 57.3739 27.1179Z" fill="#455A64"/>
<path d="M48.4899 17.8156C48.4899 18.0124 48.6475 18.2519 48.8419 18.3503C49.0363 18.4488 49.1939 18.369 49.1939 18.1721C49.1939 17.9752 49.0363 17.7359 48.8419 17.6374C48.6475 17.5389 48.4899 17.6187 48.4899 17.8156Z" fill="#455A64"/>
<path d="M70.768 10.636L61.5428 5.96698C61.2785 5.83065 61.041 5.84092 60.8727 5.9658L60.0756 6.45827L60.6191 7.05879V15.7476C60.6191 16.3554 61.0326 17.0614 61.5428 17.3247L70.5389 21.8755L70.5813 22.5227L71.4212 22.0083C71.5882 21.8954 71.6916 21.6736 71.6916 21.3698V12.2129C71.6914 11.6053 71.278 10.8992 70.768 10.636Z" fill="#9AD954"/>
<path opacity="0.3" d="M70.768 10.636L61.5428 5.96698C61.2785 5.83065 61.041 5.84092 60.8727 5.9658L60.0756 6.45827L60.6191 7.05879V15.7476C60.6191 16.3554 61.0326 17.0614 61.5428 17.3247L70.5389 21.8755L70.5813 22.5227L71.4212 22.0083C71.5882 21.8954 71.6916 21.6736 71.6916 21.3698V12.2129C71.6914 11.6053 71.278 10.8992 70.768 10.636Z" fill="black"/>
<path d="M69.9837 22.4763L60.7585 17.8073C60.2485 17.544 59.8348 16.838 59.8348 16.2302V7.07333C59.8348 6.46557 60.2485 6.18618 60.7585 6.44942L69.9837 11.1184C70.4937 11.3817 70.9073 12.0877 70.9073 12.6955V21.8524C70.9073 22.4601 70.4937 22.7395 69.9837 22.4763Z" fill="#9AD954"/>
<path d="M68.0454 14.5526C68.0037 14.5526 67.9657 14.5279 67.9544 14.4902C67.7619 13.8489 67.4494 13.2134 67.0511 12.6522C67.0232 12.613 67.0362 12.561 67.0801 12.5361C67.1236 12.5112 67.182 12.5226 67.2098 12.562C67.6184 13.1375 67.9387 13.7892 68.1361 14.4466C68.1497 14.4915 68.1199 14.5374 68.0698 14.5496C68.0616 14.5516 68.0535 14.5526 68.0454 14.5526Z" fill="white"/>
<path d="M68.2572 16.263C68.2549 16.263 68.2531 16.2629 68.2508 16.2629C68.199 16.2598 68.1598 16.2198 68.163 16.1733C68.1696 16.0828 68.1732 15.9894 68.1732 15.8933C68.1732 15.6166 68.1448 15.3276 68.0882 15.0341C68.0796 14.9883 68.114 14.9447 68.1651 14.9369C68.2169 14.9294 68.2651 14.9598 68.274 15.0056C68.3322 15.3084 68.3615 15.6071 68.3615 15.8931C68.3615 15.9929 68.3582 16.0898 68.351 16.1841C68.3476 16.229 68.3062 16.263 68.2572 16.263Z" fill="white"/>
<path d="M62.4959 13.47C62.4477 13.47 62.4065 13.437 62.4023 13.3931C62.388 13.2472 62.3809 13.1016 62.3809 12.9604C62.3809 12.1439 62.6272 11.4695 63.0744 11.0612C63.1105 11.028 63.1702 11.0274 63.2075 11.0598C63.2446 11.0923 63.2454 11.1457 63.209 11.1788C62.7965 11.5555 62.5694 12.1882 62.5694 12.9602C62.5694 13.0965 62.5764 13.2371 62.5901 13.3783C62.5946 13.4246 62.5562 13.4654 62.5046 13.4695C62.5014 13.47 62.4988 13.47 62.4959 13.47Z" fill="white"/>
<path d="M66.6612 12.1087C66.6339 12.1087 66.6069 12.0981 66.5883 12.0777C66.1929 11.6456 65.768 11.3127 65.3248 11.0882C64.6991 10.7715 64.112 10.7105 63.6276 10.9117C63.5809 10.9313 63.5244 10.9132 63.5026 10.8708C63.4807 10.8287 63.501 10.7785 63.5481 10.7588C64.0902 10.534 64.7364 10.5969 65.4175 10.9416C65.881 11.1764 66.324 11.5228 66.7339 11.971C66.7668 12.007 66.7608 12.06 66.7207 12.0895C66.7034 12.1024 66.6821 12.1087 66.6612 12.1087Z" fill="white"/>
<path d="M63.1452 13.5345C63.095 13.5345 63.0533 13.4992 63.0511 13.4539C63.0486 13.4016 63.0475 13.3497 63.0475 13.2981C63.0475 12.7002 63.2113 12.2123 63.5214 11.8873C63.5555 11.8518 63.6148 11.8476 63.6542 11.8779C63.6937 11.908 63.6984 11.9612 63.6649 11.9966C63.3843 12.2908 63.236 12.7408 63.236 13.2981C63.236 13.3474 63.2372 13.397 63.2396 13.4469C63.2417 13.4933 63.2014 13.5325 63.1494 13.5344C63.1479 13.5345 63.1466 13.5345 63.1452 13.5345Z" fill="white"/>
<path d="M63.884 11.8013C63.8524 11.8013 63.8215 11.7871 63.8038 11.7612C63.7765 11.7217 63.7904 11.6698 63.8347 11.6454C64.0705 11.516 64.3406 11.4635 64.6342 11.4897C64.686 11.4943 64.7239 11.5355 64.7188 11.5818C64.7137 11.6281 64.667 11.6611 64.6158 11.6572C64.3619 11.6346 64.133 11.6791 63.9332 11.7888C63.9179 11.7972 63.901 11.8013 63.884 11.8013Z" fill="white"/>
<path d="M68.0452 17.3456C68.0081 17.3456 67.9727 17.3257 67.9578 17.2929L67.8474 17.0488C67.6233 16.5525 67.5054 16.0383 67.5063 15.5617C67.5063 14.1344 66.5277 12.4827 65.3249 11.8736C65.2797 11.8507 65.2636 11.7993 65.2894 11.7588C65.3151 11.7182 65.3729 11.7041 65.4177 11.7271C66.6734 12.3628 67.6949 14.0802 67.6949 15.5556C67.6939 16.0173 67.8073 16.5094 68.0224 16.9859L68.1328 17.2299C68.1524 17.273 68.1288 17.3222 68.0808 17.3395C68.0689 17.3437 68.0569 17.3456 68.0452 17.3456Z" fill="white"/>
<path d="M63.7213 16.3784C63.6829 16.3784 63.6467 16.3573 63.6328 16.3232C63.1578 15.1644 63.0485 13.8777 63.0476 13.8647C63.044 13.8184 63.083 13.778 63.1348 13.7747C63.18 13.7711 63.2318 13.806 63.2356 13.8524C63.2365 13.865 63.3441 15.129 63.8098 16.2651C63.8277 16.3087 63.8027 16.357 63.7537 16.3732C63.743 16.3769 63.7321 16.3784 63.7213 16.3784Z" fill="white"/>
<path d="M67.491 17.9133C67.4527 17.9133 67.4167 17.8924 67.4026 17.8584L67.1515 17.2539C66.8865 16.6156 66.7464 15.9759 66.7464 15.4037V14.7419C66.7464 13.9567 66.1152 12.9984 65.3396 12.6057C64.9772 12.4223 64.6429 12.3916 64.3977 12.5195C64.1575 12.6444 64.0255 12.9105 64.0255 13.269V13.8532C64.0255 14.7104 64.2432 15.6703 64.6555 16.6291L64.9665 17.3533C64.9851 17.3968 64.9609 17.4454 64.9123 17.4621C64.864 17.4785 64.8092 17.457 64.7906 17.4136L64.4796 16.6894C64.0594 15.7115 63.8372 14.7308 63.8372 13.853V13.2689C63.8372 12.8481 64.0025 12.5303 64.3028 12.374C64.6088 12.2146 65.01 12.2452 65.4323 12.4591C66.2607 12.8785 66.9348 13.9025 66.9348 14.7419V15.4037C66.9348 15.956 67.0709 16.5756 67.3282 17.1953L67.5793 17.7998C67.5974 17.8434 67.5725 17.8917 67.5237 17.9081C67.5128 17.9116 67.5019 17.9133 67.491 17.9133Z" fill="white"/>
<path d="M66.6611 18.1544C66.6204 18.1544 66.5829 18.1307 66.5709 18.0942L66.4396 17.6983C66.1902 16.9465 66.0638 16.2228 66.0638 15.5475V14.5237C66.0638 14.1018 65.7244 13.5866 65.3074 13.3755C65.1209 13.2811 64.9505 13.2639 64.8286 13.3277C64.7096 13.3898 64.644 13.5253 64.644 13.7095C64.644 14.8459 65.0315 16.1573 65.7348 17.4019L65.9994 17.8703C66.0228 17.9119 66.0041 17.9624 65.9578 17.9834C65.9114 18.0041 65.8546 17.9877 65.8312 17.9462L65.5666 17.4778C64.8501 16.21 64.4557 14.8718 64.4557 13.7093C64.4557 13.4627 64.5544 13.2756 64.7341 13.1821C64.9162 13.0872 65.1533 13.1039 65.4003 13.2289C65.87 13.4668 66.2522 14.0476 66.2522 14.5236V15.5474C66.2522 16.2066 66.3759 16.914 66.6202 17.6504L66.7515 18.0462C66.7662 18.0908 66.7379 18.1376 66.688 18.1509C66.679 18.1534 66.6699 18.1544 66.6611 18.1544Z" fill="white"/>
<path d="M65.6053 16.3782C65.5619 16.3782 65.5228 16.3513 65.5133 16.3117L65.4267 15.9517C65.3438 15.6063 65.3016 15.2521 65.3016 14.8989V13.9504C65.3016 13.9039 65.3438 13.8662 65.3958 13.8662C65.4478 13.8662 65.49 13.9039 65.49 13.9504V14.8989C65.49 15.2403 65.5307 15.5828 65.6111 15.9164L65.6977 16.2764C65.7087 16.3218 65.6763 16.3666 65.6254 16.3763C65.6184 16.3777 65.6118 16.3782 65.6053 16.3782Z" fill="white"/>
<path d="M62.7003 14.5526C62.6525 14.5526 62.6116 14.5202 62.6069 14.4766L62.5521 13.9844C62.547 13.9382 62.5847 13.8968 62.6363 13.8923C62.6924 13.8893 62.7342 13.9214 62.7393 13.9677L62.7941 14.46C62.7992 14.5061 62.7615 14.5473 62.7099 14.5521C62.7065 14.5524 62.7033 14.5526 62.7003 14.5526Z" fill="white"/>
<path d="M70.768 26.23L61.5428 21.561C61.2785 21.4246 61.041 21.4349 60.8727 21.5598L60.0756 22.0523L60.6191 22.6528V31.3418C60.6191 31.9496 61.0326 32.6556 61.5428 32.9188L70.5389 37.4697L70.5813 38.1168L71.4212 37.6025C71.5882 37.4896 71.6916 37.2677 71.6916 36.9639V27.807C71.6914 27.1991 71.278 26.493 70.768 26.23Z" fill="#9AD954"/>
<path opacity="0.3" d="M70.768 26.23L61.5428 21.561C61.2785 21.4246 61.041 21.4349 60.8727 21.5598L60.0756 22.0523L60.6191 22.6528V31.3418C60.6191 31.9496 61.0326 32.6556 61.5428 32.9188L70.5389 37.4697L70.5813 38.1168L71.4212 37.6025C71.5882 37.4896 71.6916 37.2677 71.6916 36.9639V27.807C71.6914 27.1991 71.278 26.493 70.768 26.23Z" fill="black"/>
<path d="M69.9837 38.0703L60.7585 33.4013C60.2485 33.1382 59.8348 32.4322 59.8348 31.8242V22.6673C59.8348 22.0596 60.2485 21.7802 60.7585 22.0434L69.9837 26.7124C70.4937 26.9756 70.9073 27.6817 70.9073 28.2895V37.4464C70.9073 38.0541 70.4937 38.3333 69.9837 38.0703Z" fill="#9AD954"/>
<path d="M61.8882 25.2223C61.8363 25.2223 61.7941 25.1846 61.7941 25.1381V24.5704C61.7941 24.4556 61.8609 24.3524 61.9728 24.294C62.0871 24.2345 62.2244 24.2336 62.3395 24.292L63.0053 24.6291C63.0505 24.652 63.0666 24.7034 63.0407 24.7439C63.0149 24.7845 62.9571 24.7983 62.9125 24.7757L62.2467 24.4386C62.1902 24.4102 62.1237 24.4105 62.0675 24.4396C62.0133 24.4679 61.9822 24.5155 61.9822 24.5706V25.1383C61.9824 25.1846 61.9404 25.2223 61.8882 25.2223Z" fill="white"/>
<path d="M62.9592 33.0278C62.9434 33.0278 62.9274 33.0243 62.9129 33.0169L62.2907 32.7018C61.9843 32.5468 61.7941 32.2575 61.7941 31.9468V31.4235C61.7941 31.3771 61.8363 31.3394 61.8882 31.3394C61.9402 31.3394 61.9824 31.3771 61.9824 31.4235V31.9468C61.9824 32.1969 62.1359 32.4302 62.3834 32.5554L63.0055 32.8704C63.0507 32.8933 63.0667 32.9447 63.0409 32.9852C63.0238 33.0123 62.992 33.0278 62.9592 33.0278Z" fill="white"/>
<path d="M68.5837 35.8395C68.5216 35.8395 68.4592 35.8252 68.4023 35.7962L67.7365 35.4591C67.6913 35.4362 67.6753 35.3849 67.7009 35.3443C67.7265 35.3037 67.7842 35.2899 67.8292 35.3125L68.495 35.6496C68.5517 35.678 68.6186 35.6777 68.6741 35.6486C68.7284 35.6205 68.7595 35.5727 68.7595 35.5178V34.9501C68.7595 34.9037 68.8016 34.866 68.8536 34.866C68.9056 34.866 68.9478 34.9037 68.9478 34.9501V35.5178C68.9478 35.6324 68.8811 35.7358 68.7691 35.794C68.7112 35.8243 68.6476 35.8395 68.5837 35.8395Z" fill="white"/>
<path d="M68.8538 28.7489C68.8018 28.7489 68.7596 28.7112 68.7596 28.6647V28.1415C68.7596 27.8914 68.6061 27.6581 68.3586 27.5329L67.7365 27.2178C67.6913 27.1949 67.6753 27.1436 67.7009 27.103C67.7265 27.0626 67.7842 27.0483 67.8292 27.0712L68.4513 27.3863C68.7578 27.5413 68.948 27.8306 68.948 28.1413V28.6646C68.948 28.7114 68.9058 28.7489 68.8538 28.7489Z" fill="white"/>
<path d="M62.7236 28.0535C62.7377 29.0484 62.9177 30.0066 63.178 30.8818C63.8953 33.294 66.7177 34.7776 67.4935 33.1433C67.8026 32.4923 68.019 31.661 68.019 30.6098C68.019 29.1287 66.8333 27.3278 65.3706 26.5873C63.8796 25.8324 62.7019 26.5331 62.7236 28.0535Z" fill="white"/>
<path d="M65.2766 29.4016V30.9874L64.5057 30.4717L65.2766 29.4016Z" fill="#E0E0E0"/>
<path d="M63.8428 28.4547C63.8428 28.5967 63.9565 28.7694 64.0969 28.8406C64.2372 28.9116 64.3509 28.8541 64.3509 28.712C64.3509 28.57 64.2372 28.3973 64.0969 28.3261C63.9565 28.2551 63.8428 28.3126 63.8428 28.4547Z" fill="#E0E0E0"/>
<path d="M66.2026 29.6619C66.2026 29.804 66.3164 29.9767 66.4567 30.0479C66.597 30.1189 66.7108 30.0613 66.7108 29.9193C66.7108 29.7772 66.597 29.6045 66.4567 29.5334C66.3162 29.4623 66.2026 29.5199 66.2026 29.6619Z" fill="#E0E0E0"/>
<path d="M65.0226 31.7635L65.8835 31.6331C65.8835 31.6331 65.7001 32.4551 65.0226 31.7635Z" fill="#E0E0E0"/>
<path d="M51.1389 33.2428C51.1389 33.2428 52.5118 33.1602 53.2906 34.8653C53.7747 35.9253 54.3642 37.5633 54.7409 38.6512C54.975 39.3271 54.7334 40.0621 54.1269 40.5169L51.733 42.3117L50.8763 40.9198C50.8763 40.9198 51.7998 39.8188 52.5118 39.2495L50.8763 34.8651L51.1389 33.2428Z" fill="#FFA8A7"/>
<path d="M51.772 38.4492C51.772 38.4492 53.9527 38.7068 54.4978 37.2035C54.4978 37.2035 53.5632 35.0043 53.1349 34.2736C52.7066 33.5428 51.83 33.0122 51.1389 33.2427C50.4479 33.4733 51.772 38.4492 51.772 38.4492Z" fill="#AD68FF"/>
<path opacity="0.4" d="M51.772 38.4492C51.772 38.4492 53.9527 38.7068 54.4978 37.2035C54.4978 37.2035 53.5632 35.0043 53.1349 34.2736C52.7066 33.5428 51.83 33.0122 51.1389 33.2427C50.4479 33.4733 51.772 38.4492 51.772 38.4492Z" fill="white"/>
<path d="M50.3168 58.1855C50.3168 58.1855 49.2799 57.3921 48.8776 57.3549C48.4753 57.3177 47.7776 57.934 48.3668 59.0036C48.5306 59.3012 49.1967 59.6235 49.6129 60.1937C50.0292 60.7639 50.4036 61.1926 51.0419 61.1147C51.68 61.0367 51.7633 60.7144 51.7217 60.3425C51.68 59.9705 51.4928 59.3321 51.4928 59.3321L50.3168 58.1855Z" fill="#37474F"/>
<path d="M51.0758 60.9436C50.4181 61.0239 50.032 60.5821 49.6029 59.9944C49.1739 59.4066 48.4875 59.0744 48.3186 58.7676C48.2442 58.6328 48.1903 58.505 48.1528 58.3845C48.1768 58.5693 48.2414 58.7753 48.3668 59.0032C48.5307 59.3008 49.1967 59.6231 49.6129 60.1933C50.0292 60.7635 50.4036 61.1922 51.0419 61.1143C51.5307 61.0545 51.6929 60.8511 51.7237 60.5922C51.6392 60.7667 51.4537 60.8975 51.0758 60.9436Z" fill="#263238"/>
<path d="M49.7638 59.205C49.7478 59.205 49.7316 59.2014 49.7165 59.1944C49.6676 59.171 49.6491 59.1166 49.6751 59.0729C49.6885 59.0503 50.0121 58.5193 50.65 58.39C50.7052 58.3788 50.7581 58.4094 50.7705 58.4579C50.7828 58.5063 50.7489 58.5545 50.6946 58.5654C50.1482 58.6763 49.8557 59.1528 49.8527 59.1577C49.8346 59.1876 49.8 59.205 49.7638 59.205Z" fill="#EBEBEB"/>
<path d="M49.3767 58.8859C49.3607 58.8859 49.3445 58.8825 49.3295 58.8753C49.2805 58.8519 49.262 58.7975 49.288 58.7538C49.3014 58.7312 49.6248 58.2002 50.2629 58.0709C50.3179 58.0597 50.371 58.0903 50.3835 58.1388C50.3957 58.1872 50.3618 58.2354 50.3076 58.2463C49.761 58.3572 49.4686 58.8337 49.4656 58.8386C49.4474 58.8685 49.4127 58.8859 49.3767 58.8859Z" fill="#EBEBEB"/>
<path d="M48.9344 58.5671C48.9183 58.5671 48.9021 58.5636 48.8871 58.5565C48.8381 58.5331 48.8196 58.4787 48.8456 58.435C48.859 58.4124 49.1824 57.8816 49.8203 57.7521C49.8752 57.7407 49.9285 57.7715 49.9409 57.82C49.9533 57.8684 49.9192 57.9166 49.865 57.9275C49.3186 58.0384 49.0263 58.5149 49.0232 58.5196C49.0052 58.5498 48.9703 58.5671 48.9344 58.5671Z" fill="#EBEBEB"/>
<path d="M44.8017 60.786C44.8017 60.786 43.4128 60.3834 42.9985 60.4945C42.5841 60.6056 42.1788 61.4705 43.2526 62.3102C43.5513 62.5438 44.3572 62.6175 45.0304 63.0277C45.7037 63.438 46.2707 63.7236 46.8651 63.4123C47.4595 63.1009 47.4109 62.7427 47.3051 62.3543C47.1704 61.8595 47.0621 61.4999 47.0621 61.4999L44.8017 60.786Z" fill="#37474F"/>
<path d="M46.8203 63.231C46.2078 63.552 45.6231 63.2576 44.9293 62.8346C44.2352 62.4117 43.4046 62.3358 43.0966 62.0951C42.9612 61.9892 42.8493 61.883 42.7568 61.7778C42.8655 61.9515 43.0239 62.1313 43.2528 62.3102C43.5515 62.5438 44.3574 62.6175 45.0306 63.0277C45.7039 63.438 46.2709 63.7236 46.8653 63.4123C47.3205 63.1738 47.387 62.9132 47.2985 62.6461C47.2953 62.8491 47.1723 63.0465 46.8203 63.231Z" fill="#263238"/>
<path d="M44.4705 61.9316C44.4671 61.9316 44.4639 61.9315 44.4605 61.9311C44.4053 61.9264 44.3648 61.8825 44.3701 61.8332C44.3731 61.8061 44.4477 61.1658 45.0158 60.8055C45.0608 60.7767 45.1235 60.7861 45.1561 60.8267C45.1883 60.8672 45.1775 60.9233 45.1323 60.9521C44.6407 61.2641 44.5712 61.8446 44.5707 61.8505C44.5654 61.8969 44.5215 61.9316 44.4705 61.9316Z" fill="#EBEBEB"/>
<path d="M45.0439 62.0993C45.0405 62.0993 45.0373 62.0992 45.0339 62.0988C44.9785 62.0941 44.938 62.0502 44.9435 62.0009C44.9465 61.9738 45.0213 61.3335 45.5892 60.9732C45.6342 60.9444 45.6971 60.9538 45.7295 60.9944C45.7617 61.035 45.7509 61.091 45.7057 61.1198C45.2143 61.4318 45.1445 62.0123 45.1439 62.0182C45.1388 62.0645 45.0949 62.0993 45.0439 62.0993Z" fill="#EBEBEB"/>
<path d="M43.9413 61.759C43.9379 61.759 43.9347 61.7588 43.9313 61.7585C43.8761 61.7538 43.8356 61.7099 43.8409 61.6606C43.8439 61.6335 43.9185 60.9932 44.4866 60.6329C44.5316 60.6041 44.5945 60.6135 44.6269 60.6541C44.6591 60.6946 44.6484 60.7507 44.6032 60.7795C44.1116 61.0915 44.0421 61.672 44.0415 61.6779C44.0362 61.7243 43.9923 61.759 43.9413 61.759Z" fill="#EBEBEB"/>
<path d="M51.5576 58.4219C51.6819 57.1929 51.9514 55.2675 52.0635 54.3672C52.2637 52.7588 52.0802 51.5321 51.955 50.9487C51.8975 50.6816 51.8815 50.4115 51.9117 50.1408C52.184 47.6933 52.3628 43.7268 52.2117 42.855L48.3669 43.5819C48.3669 43.5819 48.8376 49.1471 49.0441 50.9983C49.2518 52.8618 50.0248 58.4379 50.0248 58.4379C50.3461 58.607 50.9298 58.792 51.5576 58.4219Z" fill="#455A64"/>
<path d="M51.0036 59.6854C51.3366 59.6389 51.4925 59.3321 51.4925 59.3321C51.4925 59.1384 51.5178 58.815 51.5575 58.4219C50.9297 58.792 50.3462 58.607 50.0245 58.4379L50.1607 59.4716C50.317 59.6296 50.6708 59.732 51.0036 59.6854Z" fill="#FFA8A7"/>
<path d="M47.2324 60.5812C47.3893 58.7214 47.6921 55.1166 47.7326 54.5506C47.7733 53.9794 47.7025 53.1929 47.6 52.6801C47.5334 52.3463 47.5388 52.0048 47.6063 51.6712L49.2959 43.2939L44.6499 43.2332L44.3459 52.0095C44.342 52.123 44.3469 52.2366 44.3604 52.3493L45.3459 60.5291C45.3459 60.5291 46.3066 61.2492 47.2324 60.5812Z" fill="#455A64"/>
<path d="M46.4577 62.1172C46.7918 62.0893 47.0921 61.8371 47.1388 61.6895C47.1388 61.6895 47.1763 61.2457 47.2324 60.5812C46.3068 61.2492 45.3457 60.5291 45.3457 60.5291L45.4936 61.7557C45.4936 61.7557 45.7119 62.1796 46.4577 62.1172Z" fill="#FFA8A7"/>
<path d="M46.7965 33.8007L45.7005 34.1355L44.5212 39.119L44.5783 43.5381C44.5783 43.5381 45.4204 44.1378 48.7096 44.1378C50.556 44.1378 51.7578 43.5164 52.2114 42.8549L51.9156 40.1852C51.9156 40.1852 52.2114 37.5546 52.2114 36.2541C52.2114 34.9538 52.2763 33.8875 51.1387 33.2429L50.126 33.3173L46.7965 33.8007Z" fill="#AD68FF"/>
<path opacity="0.2" d="M46.7965 33.8007L45.7005 34.1355L44.5212 39.119L44.5783 43.5381C44.5783 43.5381 45.4204 44.1378 48.7096 44.1378C50.556 44.1378 51.7578 43.5164 52.2114 42.8549L51.9156 40.1852C51.9156 40.1852 52.2114 37.5546 52.2114 36.2541C52.2114 34.9538 52.2763 33.8875 51.1387 33.2429L50.126 33.3173L46.7965 33.8007Z" fill="white"/>
<path d="M45.6063 29.5181L45.0575 30.4887C45.0236 30.5486 45.0571 30.6215 45.1285 30.6427L45.7798 30.8366L45.6063 29.5181Z" fill="#F28F8F"/>
<path d="M46.3666 27.8899C46.3666 27.8899 45.5343 28.2906 45.5343 30.59C45.5343 31.8545 45.6315 32.6602 46.3666 32.6107C47.1019 32.5611 49.2175 32.3132 49.2175 32.3132V27.8899H46.3666Z" fill="#FFA8A7"/>
<path d="M46.3666 32.6105C46.625 32.5932 47.0542 32.5511 47.5018 32.504V32.2695C47.09 32.4582 46.3555 32.5905 46.2438 32.6098C46.2828 32.6129 46.3233 32.6136 46.3666 32.6105Z" fill="#F28F8F"/>
<path d="M47.3757 32.1716V33.6148H49.5851V31.5869L47.3757 32.1716Z" fill="#FFA8A7"/>
<path d="M47.3757 33.0651C47.3757 33.0651 48.17 33.3172 48.8081 33.2181C49.4462 33.119 49.585 32.7718 49.585 32.7718C49.585 32.7718 49.7931 32.7576 50.1262 33.3172C50.1262 33.3172 49.7361 34.0137 48.836 34.061C47.6567 34.1229 46.7965 33.8006 46.7965 33.8006C46.7965 33.8006 47.1035 32.9934 47.3757 33.0651Z" fill="#AD68FF"/>
<path opacity="0.4" d="M47.3757 33.0651C47.3757 33.0651 48.17 33.3172 48.8081 33.2181C49.4462 33.119 49.585 32.7718 49.585 32.7718C49.585 32.7718 49.7931 32.7576 50.1262 33.3172C50.1262 33.3172 49.7361 34.0137 48.836 34.061C47.6567 34.1229 46.7965 33.8006 46.7965 33.8006C46.7965 33.8006 47.1035 32.9934 47.3757 33.0651Z" fill="white"/>
<path d="M42.4474 37.3466L41.8541 38.1624C41.8541 38.1624 40.4132 37.5883 39.4008 37.2402C38.3884 36.8923 37.7848 36.409 37.7848 36.409C37.7848 36.409 37.8628 35.7182 37.9795 35.3658C38.0963 35.0134 38.1353 34.7175 37.7848 34.8742C37.4343 35.0307 37.2007 35.6396 37.1813 35.7093C37.1813 35.7093 35.1564 33.8913 34.9032 33.9303C34.6501 33.9695 34.7087 34.2434 35.2537 34.8045C35.7986 35.3658 35.7986 35.3658 35.7986 35.3658C35.7986 35.3658 34.5567 36.005 34.7591 36.701C34.9616 37.3969 36.597 37.7101 36.597 37.7101C36.597 37.7101 41.3856 40.9984 42.4474 40.4069C43.5089 39.8153 45.0082 38.1104 45.0082 38.1104L42.4474 37.3466Z" fill="#FFA8A7"/>
<path d="M46.1352 34.0085C46.1352 34.0085 47.0191 34.658 46.4431 36.0008C45.867 37.3436 44.3967 38.9659 44.3967 38.9659C44.3967 38.9659 42.8549 38.5377 42.2603 37.4248L44.2038 34.7072C44.4847 34.3145 44.9559 34.0649 45.4763 34.0343C45.6596 34.0237 45.8777 34.0144 46.1352 34.0085Z" fill="#AD68FF"/>
<path opacity="0.4" d="M46.1352 34.0085C46.1352 34.0085 47.0191 34.658 46.4431 36.0008C45.867 37.3436 44.3967 38.9659 44.3967 38.9659C44.3967 38.9659 42.8549 38.5377 42.2603 37.4248L44.2038 34.7072C44.4847 34.3145 44.9559 34.0649 45.4763 34.0343C45.6596 34.0237 45.8777 34.0144 46.1352 34.0085Z" fill="white"/>
<path d="M46.0474 26.5362C46.0474 26.5362 45.1743 26.4325 44.9514 26.9701C44.8126 27.3049 45.2567 27.5652 45.2567 27.5652C45.2567 27.5652 44.6934 28.039 45.5342 28.1851C45.5342 28.1851 45.4649 28.8297 46.2139 28.7429C46.2139 28.7429 46.1168 29.254 46.8521 29.4324C46.8521 29.4324 46.4805 30.3174 47.1796 30.3297H47.8341L47.5702 31.0115C47.5702 31.0115 48.059 32.0653 49.5852 32.0653C49.5852 32.0653 49.9738 31.3463 50.154 31.1355C50.3345 30.9248 51.2777 29.8463 51.2777 28.991C51.2777 28.1356 50.9095 27.6289 50.4 27.5164C50.4 27.5164 50.1819 27.0447 49.6685 26.7346C49.1552 26.4248 48.0731 26.1483 47.4627 26.5283C47.4627 26.5283 46.9216 25.8943 46.5471 25.8943C46.1723 25.8941 46.0474 26.2386 46.0474 26.5362Z" fill="#263238"/>
<path d="M47.1797 30.3299C47.1797 30.3299 47.1158 29.4326 47.9621 29.4326C48.8083 29.4326 48.6076 31.0117 47.5703 31.0117L47.1797 30.3299Z" fill="#FFA8A7"/>
</svg>
