<svg width="32" height="32" viewBox="0 0 32 32" fill="none" xmlns="http://www.w3.org/2000/svg">
<path d="M23.8477 25.5655H8.15236C8.02954 25.5655 7.91191 25.516 7.82621 25.4283C7.74026 25.3404 7.69341 25.2217 7.69629 25.0989L8.12061 6.28034C8.12618 6.0285 8.32484 5.82479 8.58704 5.83458C8.83888 5.84028 9.0385 6.04898 9.0328 6.30101L8.61898 24.653H23.3811L22.9675 6.30101C22.9618 6.04898 23.1613 5.84028 23.4132 5.83458C23.6734 5.8214 23.8739 6.0285 23.8796 6.28034L24.3038 25.0989C24.3066 25.2217 24.2597 25.3404 24.1739 25.4283C24.0882 25.516 23.9705 25.5655 23.8477 25.5655Z" fill="white"/>
<path d="M25.764 28.1048H6.2361C6.11334 28.1048 5.99571 28.0553 5.90995 27.9676C5.82406 27.8797 5.77715 27.761 5.78003 27.6382L6.12474 12.3516C6.13043 12.0997 6.33344 11.8915 6.5911 11.9058C6.84294 11.9115 7.04256 12.1202 7.03686 12.3722L6.70272 27.1923H25.2975L24.9633 12.3722C24.9576 12.1202 25.1572 11.9115 25.409 11.9058C25.665 11.8882 25.8697 12.0997 25.8754 12.3516L26.2201 27.6382C26.223 27.761 26.1761 27.8797 26.0902 27.9676C26.0045 28.0553 25.8869 28.1048 25.764 28.1048Z" fill="white"/>
<path d="M27.7715 30.4003H4.22847C4.10565 30.4003 3.98802 30.3508 3.90226 30.2631C3.81637 30.1752 3.76946 30.0566 3.77234 29.9338L4.09337 15.6952C4.09906 15.4434 4.30226 15.2417 4.5598 15.2495C4.81164 15.2552 5.01125 15.4639 5.00556 15.7159L4.69509 29.4879H27.3049L26.9944 15.7159C26.9887 15.4639 27.1883 15.2552 27.4402 15.2495C27.6959 15.2383 27.9009 15.4433 27.9066 15.6952L28.2276 29.9338C28.2305 30.0566 28.1836 30.1752 28.0977 30.2631C28.012 30.3508 27.8943 30.4003 27.7715 30.4003Z" fill="white"/>
<path d="M16 16.161C12.503 16.161 9.65796 13.8447 9.65796 10.9976C9.65796 8.1504 12.503 5.83398 16 5.83398C19.4969 5.83398 22.342 8.1504 22.342 10.9976C22.342 13.8447 19.4969 16.161 16 16.161ZM16 6.7465C13.0061 6.7465 10.5705 8.6535 10.5705 10.9976C10.5705 13.3414 13.0061 15.2484 16 15.2484C18.9938 15.2484 21.4295 13.3414 21.4295 10.9976C21.4295 8.65357 18.9938 6.7465 16 6.7465Z" fill="white"/>
<path d="M13.4549 11.454H12.9404C12.6884 11.454 12.4841 11.2498 12.4841 10.9978C12.4841 10.7458 12.6884 10.5415 12.9404 10.5415H13.4549C13.7069 10.5415 13.9112 10.7457 13.9112 10.9978C13.9112 11.2498 13.707 11.454 13.4549 11.454Z" fill="white"/>
<path d="M17.2726 12.8182C17.0206 12.8182 16.8164 12.614 16.8164 12.362C16.8164 12.11 17.0206 11.9057 17.2726 11.9057C17.7226 11.9057 18.0889 11.4985 18.0889 10.998C18.0889 10.4976 17.7226 10.0904 17.2726 10.0904C16.8226 10.0904 16.4564 10.4976 16.4564 10.998C16.4564 12.0017 15.6809 12.8183 14.7275 12.8183C13.7742 12.8183 12.9988 12.0017 12.9988 10.998C12.9988 9.99444 13.7743 9.1778 14.7275 9.1778C14.9796 9.1778 15.1838 9.38202 15.1838 9.63405C15.1838 9.88609 14.9796 10.0903 14.7275 10.0903C14.2776 10.0903 13.9113 10.4975 13.9113 10.998C13.9113 11.4984 14.2776 11.9057 14.7275 11.9057C15.1776 11.9057 15.5438 11.4984 15.5438 10.998C15.5438 9.99437 16.3193 9.17773 17.2726 9.17773C18.226 9.17773 19.0014 9.99437 19.0014 10.998C19.0014 12.0016 18.2259 12.8182 17.2726 12.8182Z" fill="white"/>
<path d="M19.1288 11.454H18.5451C18.2932 11.454 18.0889 11.2498 18.0889 10.9978C18.0889 10.7458 18.2931 10.5415 18.5451 10.5415H19.1288C19.3808 10.5415 19.5851 10.7457 19.5851 10.9978C19.5851 11.2498 19.3808 11.454 19.1288 11.454Z" fill="white"/>
<path d="M16.0001 20.5828C15.748 20.5828 15.5438 20.3785 15.5438 20.1265V18.0534C15.5438 17.8014 15.748 17.5972 16.0001 17.5972C16.2521 17.5972 16.4563 17.8014 16.4563 18.0534V20.1265C16.4563 20.3785 16.2521 20.5828 16.0001 20.5828Z" fill="white"/>
<path d="M18.77 23.091H13.2303C12.9782 23.091 12.774 22.8868 12.774 22.6347C12.774 22.2015 12.2382 21.8354 11.604 21.8354C11.3519 21.8354 11.1477 21.6312 11.1477 21.3791V17.6857C11.1477 17.4337 11.3519 17.2295 11.604 17.2295C11.856 17.2295 12.0602 17.4337 12.0602 17.6857V20.9642C12.8098 21.1025 13.4077 21.5737 13.6115 22.1785H18.3889C18.5926 21.5737 19.1905 21.1026 19.94 20.9642V17.6857C19.94 17.4337 20.1442 17.2295 20.3962 17.2295C20.6482 17.2295 20.8525 17.4337 20.8525 17.6857V21.3791C20.8525 21.6312 20.6482 21.8354 20.3962 21.8354C19.7621 21.8354 19.2264 22.2015 19.2264 22.6347C19.2263 22.8868 19.0221 23.091 18.77 23.091Z" fill="white"/>
<path d="M27.224 7.68618H25.764C25.512 7.68618 25.3077 7.48195 25.3077 7.22992C25.3077 6.97789 25.512 6.77367 25.764 6.77367H27.224C27.7774 6.77367 28.2278 6.3233 28.2278 5.76989V3.51645C28.2278 2.96304 27.7774 2.51267 27.224 2.51267H4.77603C4.22262 2.51267 3.77225 2.96304 3.77225 3.51645V5.76989C3.77225 6.3233 4.22262 6.77367 4.77603 6.77367H6.23587C6.4879 6.77367 6.69213 6.97789 6.69213 7.22992C6.69213 7.48195 6.4879 7.68618 6.23587 7.68618H4.77603C3.71933 7.68618 2.85974 6.82659 2.85974 5.76989V3.51645C2.85974 2.45968 3.71933 1.6001 4.77603 1.6001H27.224C28.2807 1.6001 29.1404 2.45968 29.1404 3.51645V5.76989C29.1403 6.82659 28.2807 7.68618 27.224 7.68618Z" fill="white"/>
<path d="M25.5587 4.76603H6.44136C6.18933 4.76603 5.98511 4.5618 5.98511 4.30977C5.98511 4.0578 6.18933 3.85352 6.44136 3.85352H25.5587C25.8107 3.85352 26.0149 4.05774 26.0149 4.30977C26.0149 4.5618 25.8107 4.76603 25.5587 4.76603Z" fill="white"/>
</svg>
