<svg width="24" height="24" viewBox="0 0 24 24" fill="none" xmlns="http://www.w3.org/2000/svg">
<path d="M12 20.5078C10.4531 20.5078 9.02344 20.1172 7.71094 19.3359C6.42969 18.5859 5.41406 17.5703 4.66406 16.2891C3.88281 14.9766 3.49219 13.5469 3.49219 12C3.49219 10.4531 3.88281 9.02344 4.66406 7.71094C5.41406 6.42969 6.42969 5.41406 7.71094 4.66406C9.02344 3.88281 10.4531 3.49219 12 3.49219C13.5469 3.49219 14.9766 3.88281 16.2891 4.66406C17.5703 5.41406 18.5859 6.42969 19.3359 7.71094C20.1172 9.02344 20.5078 10.4531 20.5078 12C20.5078 13.5469 20.1172 14.9766 19.3359 16.2891C18.5859 17.5703 17.5703 18.5859 16.2891 19.3359C14.9766 20.1172 13.5469 20.5078 12 20.5078ZM12 22.0078C13.8125 22.0078 15.4922 21.5469 17.0391 20.625C18.5547 19.75 19.75 18.5547 20.625 17.0391C21.5469 15.4922 22.0078 13.8125 22.0078 12C22.0078 10.1875 21.5469 8.50781 20.625 6.96094C19.75 5.44531 18.5547 4.25 17.0391 3.375C15.4922 2.45312 13.8125 1.99219 12 1.99219C10.1875 1.99219 8.50781 2.45312 6.96094 3.375C5.44531 4.25 4.25 5.44531 3.375 6.96094C2.45313 8.50781 1.99219 10.1875 1.99219 12C1.99219 13.8125 2.45313 15.4922 3.375 17.0391C4.25 18.5547 5.44531 19.75 6.96094 20.625C8.50781 21.5469 10.1875 22.0078 12 22.0078ZM15.0469 19.9453C14.0625 20.3203 13.0469 20.5078 12 20.5078C12.3125 20.5078 12.6406 20.3594 12.9844 20.0625C13.4219 19.7031 13.8281 19.1484 14.2031 18.3984C14.5938 17.5859 14.9062 16.6484 15.1406 15.5859C15.375 14.4453 15.4922 13.25 15.4922 12C15.4922 10.75 15.375 9.55469 15.1406 8.41406C14.9062 7.35156 14.5938 6.41406 14.2031 5.60156C13.8281 4.85156 13.4219 4.29688 12.9844 3.9375C12.6406 3.64062 12.3125 3.49219 12 3.49219C13.0469 3.49219 14.0625 3.67969 15.0469 4.05469C15.6562 4.99219 16.1328 6.14062 16.4766 7.5C16.8203 8.90625 16.9922 10.4062 16.9922 12C16.9922 13.5938 16.8203 15.0938 16.4766 16.5C16.1328 17.8594 15.6562 19.0078 15.0469 19.9453ZM8.95312 19.9453C9.9375 20.3203 10.9531 20.5078 12 20.5078C11.6875 20.5078 11.3594 20.3594 11.0156 20.0625C10.5781 19.7031 10.1719 19.1484 9.79688 18.3984C9.40625 17.5859 9.09375 16.6484 8.85938 15.5859C8.625 14.4453 8.50781 13.25 8.50781 12C8.50781 10.75 8.625 9.55469 8.85938 8.41406C9.09375 7.35156 9.40625 6.41406 9.79688 5.60156C10.1719 4.85156 10.5781 4.29688 11.0156 3.9375C11.3594 3.64062 11.6875 3.49219 12 3.49219C10.9531 3.49219 9.9375 3.67969 8.95312 4.05469C8.34375 4.99219 7.86719 6.14062 7.52344 7.5C7.17969 8.90625 7.00781 10.4062 7.00781 12C7.00781 13.5938 7.17969 15.0938 7.52344 16.5C7.86719 17.8594 8.34375 19.0078 8.95312 19.9453ZM16.6406 15.75H19.6406C19.875 15.2656 20.0625 14.7656 20.2031 14.25H16.875C16.8125 14.7656 16.7344 15.2656 16.6406 15.75ZM15.3516 14.25H8.64844C8.71094 14.7656 8.79688 15.2656 8.90625 15.75H15.0938C15.2031 15.2656 15.2891 14.7656 15.3516 14.25ZM15.3516 9.75H8.64844C8.71094 9.23438 8.79688 8.73438 8.90625 8.25H15.0938C15.2031 8.73438 15.2891 9.23438 15.3516 9.75ZM16.875 9.75H20.2031C20.0625 9.23438 19.875 8.73438 19.6406 8.25H16.6406C16.7344 8.75 16.8125 9.25 16.875 9.75ZM7.35938 8.25C7.26562 8.75 7.1875 9.25 7.125 9.75H3.79688C3.9375 9.23438 4.125 8.73438 4.35938 8.25H7.35938ZM7.125 14.25H3.79688C3.9375 14.7656 4.125 15.2656 4.35938 15.75H7.35938C7.26562 15.25 7.1875 14.75 7.125 14.25Z" fill="white"/>
</svg>
