<svg width="23" height="23" viewBox="0 0 23 23" fill="none" xmlns="http://www.w3.org/2000/svg">
<path d="M18.7901 6.70353C18.717 6.41807 18.5105 6.2027 18.274 6.13626C17.8538 6.01909 15.8136 5.75016 11.5011 5.75016C7.18856 5.75016 5.14878 6.0192 4.72686 6.13659C4.49256 6.20176 4.28607 6.4171 4.21209 6.70353C4.10782 7.11026 3.83439 8.81295 3.83439 11.5002C3.83439 14.1873 4.10782 15.8901 4.21238 16.298C4.28508 16.5823 4.4916 16.7976 4.72711 16.8638C5.14878 16.9812 7.18856 17.2502 11.5011 17.2502C15.8136 17.2502 17.8538 16.9813 18.2752 16.8638C18.5096 16.7986 18.7161 16.5833 18.7901 16.2968C18.8943 15.8901 19.1677 14.1835 19.1677 11.5002C19.1677 8.81683 18.8943 7.11026 18.7901 6.70353ZM20.6466 6.22759C21.0844 7.93516 21.0844 11.5002 21.0844 11.5002C21.0844 11.5002 21.0844 15.0652 20.6466 16.7727C20.4027 17.7172 19.691 18.4594 18.7888 18.7103C17.1515 19.1668 11.5011 19.1668 11.5011 19.1668C11.5011 19.1668 5.85397 19.1668 4.21331 18.7103C3.30777 18.4559 2.59604 17.7136 2.35545 16.7727C1.91772 15.0652 1.91772 11.5002 1.91772 11.5002C1.91772 11.5002 1.91772 7.93516 2.35545 6.22759C2.59938 5.2832 3.31111 4.54092 4.21331 4.29001C5.85397 3.8335 11.5011 3.8335 11.5011 3.8335C11.5011 3.8335 17.1515 3.8335 18.7888 4.29001C19.6943 4.54441 20.4061 5.28667 20.6466 6.22759ZM9.58441 14.8543V8.146L15.3344 11.5002L9.58441 14.8543Z" fill="white" fill-opacity="0.5"/>
</svg>
