<svg width="177" height="1390" viewBox="0 0 177 1390" fill="none" xmlns="http://www.w3.org/2000/svg">
<path d="M62.2597 0.430522C60.2023 0.990702 59.3205 2.48472 59.6144 3.79197L-54.7184 23.0277C-54.7184 23.0277 -54.7185 22.8408 -55.0124 22.8408C-56.188 21.1601 -59.421 20.5998 -62.0663 21.3469C-63.8298 21.9071 -64.7115 23.0277 -65.0055 24.1482L-191.683 29.9375C-191.683 29.564 -191.977 29.3773 -192.271 29.1905C-193.446 27.5098 -196.679 26.9495 -199.325 27.6965C-201.97 28.4436 -202.851 30.4978 -201.676 32.1786C-201.382 32.552 -200.794 32.9256 -200.206 33.2991L-246.645 82.6019C-248.114 82.2284 -249.584 82.2284 -251.054 82.6019C-253.699 83.3489 -254.581 85.4032 -253.405 87.084C-253.111 87.4575 -252.817 87.6443 -252.523 88.0178L-289.262 119.766C-290.732 119.206 -292.496 119.206 -294.259 119.766C-295.435 120.139 -296.316 120.699 -296.61 121.447L-380.964 108C-380.964 107.44 -380.964 106.693 -381.552 106.133C-382.727 104.452 -385.96 103.892 -388.606 104.639C-390.663 105.386 -391.839 106.88 -391.251 108.187L-452.973 121.82C-454.149 120.139 -457.382 119.579 -460.027 120.326C-462.672 121.073 -463.554 123.127 -462.378 124.808C-461.79 125.742 -460.321 126.302 -459.145 126.489L-468.55 177.286C-469.432 177.286 -470.02 177.473 -470.902 177.659C-473.547 178.406 -474.429 180.461 -473.253 182.141C-472.077 183.822 -468.844 184.382 -466.199 183.635C-466.199 183.635 -465.905 183.635 -465.905 183.449L-364.799 265.807L-365.092 265.994L-364.211 266.18L-362.447 267.488L-362.741 266.367L-268.982 281.681C-268.982 282.241 -268.982 282.988 -268.394 283.548C-267.513 284.856 -265.455 285.416 -263.398 285.416L-246.057 332.851C-246.351 332.851 -246.351 332.851 -246.645 333.038C-249.29 333.785 -250.172 335.839 -248.996 337.52C-247.82 339.014 -245.175 339.574 -242.824 339.201L-260.459 471.422C-261.047 471.422 -261.928 471.609 -262.516 471.795C-265.161 472.542 -266.043 474.597 -264.868 476.278C-263.692 477.958 -260.459 478.519 -257.814 477.772C-256.932 477.398 -256.05 477.025 -255.756 476.464L-94.3969 515.309C-94.6908 516.056 -94.6908 516.803 -94.103 517.55C-93.5151 518.297 -92.6334 518.671 -91.7517 519.044L-114.677 563.118C-115.853 562.931 -117.028 563.118 -117.91 563.491C-120.555 564.238 -121.437 566.293 -120.261 567.973C-119.38 569.094 -117.616 569.841 -115.559 569.841L-107.623 611.86C-107.917 611.86 -108.211 612.047 -108.799 612.047C-111.444 612.794 -112.326 614.848 -111.15 616.529C-109.974 618.21 -106.741 618.77 -104.096 618.023C-103.802 618.023 -103.802 617.836 -103.508 617.836L-24.1512 674.796C-25.6208 675.73 -25.9147 677.224 -24.7391 678.531C-23.5634 680.212 -20.3303 680.772 -17.6851 680.025C-15.9216 679.465 -15.0398 678.531 -14.746 677.411L53.7362 675.356C53.7362 675.73 54.0301 676.103 54.3241 676.477C55.4997 677.971 58.1449 678.718 60.7902 678.158L76.6615 702.996C76.3676 703.93 76.9555 705.05 78.1311 705.797L23.7569 748.75C23.169 748.564 22.8751 748.377 22.2873 748.377C19.6421 748.003 16.703 749.124 16.1151 750.805C15.5273 752.112 16.409 753.419 18.1725 754.166L12.0003 762.757L-21.506 810.192C-24.1512 809.819 -26.7965 810.939 -27.6782 812.62C-28.266 814.301 -26.5025 816.168 -23.8573 816.542C-22.9756 816.728 -22.3877 816.728 -21.506 816.542L6.70981 865.471C5.53415 865.845 4.35849 866.592 4.0646 867.712L-43.2557 864.911L-54.1305 937.184C-56.4818 937.184 -58.5392 938.305 -58.8332 939.799C-59.127 940.546 -58.8332 941.293 -58.5393 942.04L-112.326 965.384C-112.914 964.824 -113.795 964.45 -114.971 964.45C-117.616 964.077 -120.555 965.197 -121.143 966.878C-121.437 967.625 -121.143 968.559 -120.555 969.119L-206.085 1009.46C-206.672 1009.08 -207.554 1008.71 -208.73 1008.52C-211.375 1008.15 -214.314 1009.27 -214.902 1010.95C-215.49 1012.63 -213.726 1014.5 -211.081 1014.87C-209.905 1015.06 -209.024 1014.87 -207.848 1014.69L-172.284 1053.53C-173.166 1053.91 -173.754 1054.65 -174.048 1055.4C-174.636 1056.89 -173.46 1058.39 -171.109 1059.13L-220.486 1161.47L-219.898 1161.66C-221.662 1161.47 -223.425 1161.66 -224.601 1162.41L-276.036 1135.7C-275.742 1135.33 -275.448 1135.14 -275.448 1134.77C-274.861 1133.09 -276.624 1131.22 -279.269 1130.85C-281.915 1130.47 -284.854 1131.59 -285.442 1133.28C-285.735 1134.4 -285.442 1135.33 -284.266 1136.08L-381.258 1203.12C-381.846 1202.93 -382.433 1202.75 -383.021 1202.75C-385.079 1202.37 -387.136 1202.93 -388.312 1204.05L-440.629 1184.45C-440.629 1184.26 -440.629 1184.26 -440.335 1184.07C-439.747 1182.39 -441.51 1180.52 -444.155 1180.15C-446.801 1179.78 -449.74 1180.9 -450.328 1182.58C-450.622 1183.51 -450.328 1184.45 -449.446 1185.19L-569.657 1264C-570.245 1263.82 -570.833 1263.44 -571.715 1263.44C-574.36 1263.07 -577.299 1264.19 -577.887 1265.87C-578.475 1267.55 -576.711 1269.42 -574.066 1269.79C-572.008 1270.17 -569.657 1269.42 -568.481 1268.3L-461.496 1299.86L-461.496 1300.05C-462.084 1301.73 -460.321 1303.59 -457.676 1303.97C-455.912 1304.15 -453.855 1303.78 -452.679 1303.03L-349.809 1349.91C-350.103 1350.1 -350.103 1350.47 -350.397 1350.66C-350.984 1352.34 -349.221 1354.2 -346.576 1354.58C-343.931 1354.95 -340.991 1353.83 -340.404 1352.15C-340.11 1351.59 -340.11 1351.22 -340.404 1350.66L-255.462 1331.61C-254.874 1332.54 -253.699 1333.1 -251.935 1333.29C-249.29 1333.66 -246.351 1332.54 -245.763 1330.86C-245.763 1330.49 -245.469 1330.11 -245.763 1329.74L-185.804 1320.4C-185.217 1321.34 -183.747 1322.08 -182.277 1322.46C-181.102 1322.64 -179.632 1322.46 -178.75 1322.08L-127.609 1366.9C-128.197 1367.28 -128.785 1367.84 -129.079 1368.58C-129.667 1370.26 -127.903 1372.13 -125.258 1372.51C-122.907 1372.88 -120.555 1372.13 -119.674 1370.83L-58.8331 1385.39C-59.421 1387.07 -57.6575 1388.75 -54.7183 1389.31C-52.0731 1389.69 -49.1339 1388.57 -48.5461 1386.89C-48.2522 1385.95 -48.5461 1385.02 -49.4279 1384.27L9.64898 1349.35C10.2368 1349.72 11.1186 1349.91 11.7064 1350.1C14.3517 1350.47 17.2908 1349.35 17.8786 1347.67C18.4664 1345.99 16.7029 1344.12 14.0577 1343.75L13.7639 1343.75L19.0543 1239.72L19.6421 1239.72L19.0543 1239.35L19.0543 1237.67L18.1725 1238.6L-38.2591 1188.93C-37.6713 1188.55 -37.0834 1187.99 -36.7895 1187.25C-36.2017 1185.94 -37.0835 1184.63 -38.847 1183.89L-4.45888 1140.37C-4.16499 1140.37 -4.16499 1140.37 -3.87111 1140.56C-1.22585 1140.93 1.7133 1139.81 2.30113 1138.13C2.88896 1136.45 1.41936 1134.96 -0.931961 1134.4L145.144 1040.09C145.732 1040.27 146.319 1040.65 147.201 1040.65C149.846 1041.02 152.786 1039.9 153.373 1038.22C153.961 1036.54 152.198 1034.67 149.552 1034.3C148.377 1034.11 147.495 1034.3 146.613 1034.48L62.5536 939.052C63.4354 938.678 64.3172 937.931 64.6111 937.184C64.905 936.437 64.6111 935.69 64.3171 935.13L126.039 910.665C126.627 911.226 127.803 911.599 128.978 911.786C131.624 912.159 134.563 911.039 135.151 909.358C135.445 908.051 134.857 906.93 133.387 906.183L169.539 870.887C169.833 871.074 170.126 871.074 170.714 871.074C173.36 871.447 176.299 870.327 176.886 868.646C177.474 866.965 175.711 865.098 173.066 864.724C172.772 864.724 172.772 864.724 172.478 864.724L168.951 788.902C171.008 788.716 172.772 787.782 173.066 786.475C173.653 784.794 171.89 782.926 169.245 782.553C167.481 782.366 165.718 782.739 164.542 783.486L109.874 757.341C110.168 756.968 110.462 756.781 110.462 756.22C111.05 754.54 109.58 753.046 107.229 752.485L129.272 709.159L129.566 709.159C132.211 709.532 135.151 708.412 135.738 706.731C136.032 705.61 135.445 704.49 134.269 703.743C133.387 703.183 132.211 702.809 131.036 702.622L128.391 646.97C128.978 646.97 129.566 646.783 129.86 646.596C132.505 645.849 133.387 643.795 132.211 642.114C131.33 640.994 129.272 640.247 127.215 640.247L123.394 631.096L101.35 580.859C103.702 579.926 104.877 578.058 103.408 576.564C102.232 574.883 98.999 574.323 96.3538 575.07C95.4721 575.257 94.8843 575.63 94.5903 576.004L23.463 549.671C24.0508 548.738 24.0508 547.804 23.169 546.87L62.5536 529.689L-2.10766 469.368C-0.344172 468.434 0.243658 466.753 -0.932001 465.446C-1.51983 464.699 -2.40154 464.139 -3.5772 463.952L14.3516 423.987C15.5272 424.173 16.409 423.987 17.5847 423.613C20.2299 422.866 21.1116 420.812 19.936 419.131C19.3481 418.384 18.4664 417.824 17.2907 417.637L42.5674 351.526C43.4492 351.526 44.6248 351.526 45.5066 351.153C48.1518 350.406 49.0335 348.352 47.8578 346.671C46.6822 344.99 43.4492 344.43 40.8039 345.177C39.9222 345.55 39.0404 345.924 38.4526 346.671L-27.9721 331.17C-27.6782 330.423 -27.9722 329.676 -28.2661 328.929C-29.4417 327.435 -31.793 326.875 -34.1444 327.249L-99.6874 228.083L-100.275 228.269C-98.8056 227.709 -97.63 226.775 -97.63 225.655L-30.9113 225.281C-30.9113 225.655 -30.6174 226.028 -30.3235 226.402C-29.1478 228.083 -25.9147 228.643 -23.2695 227.896C-20.6243 227.149 -19.7426 225.095 -20.9182 223.414C-21.7999 222.48 -22.9756 221.92 -24.7391 221.733L-17.6851 130.411C-17.0973 130.411 -16.5095 130.224 -15.9216 130.037C-14.1582 129.477 -12.9825 128.17 -12.9825 126.862L47.27 120.7C47.27 120.886 47.5639 120.886 47.5639 121.073C48.7396 122.754 51.9726 123.314 54.6179 122.567C57.2631 121.82 58.1449 119.766 56.9692 118.085C56.3814 117.151 55.2057 116.591 53.7361 116.404L66.9623 6.78013C67.5501 6.78013 68.4319 6.59336 69.0198 6.4066C71.665 5.65965 72.5467 3.6052 71.371 1.92454C67.844 0.243754 64.9049 -0.503316 62.2597 0.430522ZM-191.683 31.6183C-191.389 31.2447 -191.389 30.8713 -191.389 30.6846L-64.7115 24.8952C-64.7115 25.2688 -64.4176 25.4554 -64.1237 25.6422C-63.8298 26.0156 -63.242 26.3893 -62.6541 26.7628L-97.3361 64.8603L-191.683 31.6183ZM-288.675 125.182C-288.087 124.995 -287.205 124.621 -286.911 124.248L-242.236 140.309L-297.198 127.423L-293.965 124.995C-292.496 125.742 -290.438 125.742 -288.675 125.182ZM-186.392 113.976C-186.392 114.163 -186.098 114.35 -185.804 114.537L-231.361 140.122C-232.243 139.562 -233.713 139.375 -234.888 139.375L-239.885 118.272L-186.686 113.603C-186.686 113.603 -186.392 113.79 -186.392 113.976ZM-176.987 111.175L-131.724 91.9396L-176.987 113.976C-176.399 113.229 -176.399 112.109 -176.987 111.175ZM-180.808 115.844L-220.486 135.08L-184.923 115.284C-183.747 115.657 -182.277 116.031 -180.808 115.844ZM-236.358 139.375C-236.652 139.375 -236.946 139.562 -237.24 139.562C-238.121 139.748 -238.709 140.122 -239.003 140.495L-286.323 123.501C-286.029 123.127 -286.029 122.754 -286.029 122.194L-241.354 118.272L-236.358 139.375ZM-239.885 141.803C-240.179 142.363 -240.179 143.11 -239.591 143.67L-383.609 191.666L-384.197 191.666L-384.491 191.479L-298.08 128.356L-239.885 141.803ZM-239.003 144.417C-238.709 144.604 -238.415 144.791 -238.121 144.978L-296.316 203.618L-383.021 193.533C-383.021 193.16 -383.021 192.599 -383.315 192.226L-239.003 144.417ZM-227.834 209.034C-228.716 208.66 -229.598 208.474 -230.48 208.474L-234.006 145.724C-233.419 145.724 -233.125 145.538 -232.537 145.351C-232.537 145.351 -232.243 145.351 -232.243 145.164L-187.274 181.394L-227.834 209.034ZM-152.004 158.797C-151.416 158.984 -150.829 159.171 -150.241 159.358L-159.352 200.07C-160.234 200.07 -161.116 200.256 -161.703 200.443C-161.703 200.443 -161.997 200.443 -161.997 200.63L-185.511 181.768L-152.004 158.797ZM-265.749 278.88L-309.836 223.787C-308.955 223.414 -308.367 222.854 -308.073 222.293L-241.648 233.498L-263.104 278.693C-263.986 278.693 -264.868 278.693 -265.749 278.88ZM-307.779 221.546C-307.779 221.359 -307.779 221.173 -307.779 220.986L-236.064 212.769C-236.064 212.956 -235.77 213.142 -235.77 213.329C-235.182 214.076 -234.3 214.636 -233.125 214.823L-241.648 232.751L-307.779 221.546ZM-307.779 220.052C-307.779 219.865 -308.073 219.679 -308.073 219.492C-308.367 219.118 -308.955 218.745 -309.249 218.371L-295.435 204.552L-235.77 211.462C-235.77 211.648 -235.77 211.648 -235.77 211.835L-307.779 220.052ZM-294.847 203.991L-236.946 145.538C-236.358 145.724 -235.77 145.724 -235.182 145.911L-231.655 208.66C-232.243 208.66 -232.537 208.847 -233.125 209.034C-234.3 209.407 -235.182 210.154 -235.77 210.901L-294.847 203.991ZM-297.198 204.552L-310.718 218.185C-312.188 217.811 -313.657 217.811 -315.127 218.185C-315.715 218.371 -316.303 218.745 -316.89 219.119L-335.407 212.395L-383.315 194.841L-383.315 194.654L-297.198 204.552ZM-317.478 219.865C-318.066 220.799 -318.066 221.733 -317.184 222.667C-316.009 223.974 -313.657 224.721 -311.306 224.348L-326.884 236.487L-384.197 195.774C-384.197 195.774 -384.197 195.774 -383.903 195.588L-317.478 219.865ZM-310.424 224.908L-266.925 279.253L-326.296 237.047L-310.424 224.908ZM-261.928 279.066L-240.179 233.872L-161.703 246.945C-161.703 247.505 -161.703 247.878 -161.409 248.439L-259.577 280.187C-260.459 279.626 -261.047 279.253 -261.928 279.066ZM-239.885 232.938L-231.361 215.01C-230.48 215.01 -229.304 215.01 -228.422 214.636C-227.834 214.45 -227.54 214.263 -226.953 214.076L-161.116 245.637C-161.116 245.824 -161.409 245.824 -161.409 246.011L-239.885 232.938ZM-226.365 213.142C-226.365 212.956 -226.071 212.769 -226.071 212.582L-159.058 219.679L-157.883 243.957C-158.47 243.957 -158.764 244.143 -159.352 244.33C-159.94 244.517 -160.234 244.704 -160.822 244.89L-226.365 213.142ZM-157.589 219.119L-158.176 206.606C-157.882 206.606 -157.589 206.419 -157.295 206.419C-156.707 206.232 -156.119 205.859 -155.531 205.485L-108.799 223.974C-108.799 224.161 -109.093 224.161 -109.093 224.348L-157.589 219.119ZM-159.352 206.606L-158.764 218.932L-225.777 211.835C-225.777 211.648 -225.777 211.462 -225.777 211.088L-164.349 204.365C-164.349 204.552 -164.349 204.552 -164.055 204.739C-163.173 206.046 -161.409 206.606 -159.352 206.606ZM-226.071 210.341C-226.365 209.968 -226.659 209.781 -226.659 209.594L-186.392 182.141L-163.173 201.003C-164.349 201.75 -164.643 202.684 -164.643 203.618L-226.071 210.341ZM-158.176 200.256L-149.065 159.544C-148.183 159.544 -147.302 159.357 -146.714 159.171C-146.42 158.984 -146.126 158.984 -145.538 158.797L-112.62 177.286L-156.119 201.003C-156.707 200.63 -157.295 200.256 -158.176 200.256ZM-186.392 181.021L-231.067 144.978C-230.48 144.604 -230.186 144.23 -229.892 143.857L-154.062 155.996C-154.062 156.556 -154.062 157.303 -153.474 157.863C-153.18 158.05 -153.18 158.237 -152.886 158.424L-186.392 181.021ZM-229.598 142.923C-229.598 142.363 -229.598 141.616 -230.186 141.056L-230.186 140.869L-117.91 86.5238C-117.322 86.8973 -117.028 87.084 -116.441 87.2707L-147.889 152.821C-149.065 152.634 -149.947 152.821 -151.122 153.195C-152.298 153.568 -153.18 154.128 -153.474 154.875L-229.598 142.923ZM-146.714 153.195L-115.265 87.6443C-114.089 87.831 -112.914 87.6443 -112.032 87.2707C-111.444 87.084 -110.856 86.8973 -110.562 86.5238L-77.9377 101.09L-146.126 153.381C-146.42 153.195 -146.714 153.195 -146.714 153.195ZM-52.661 78.3066C-52.9549 78.3066 -53.5427 78.4933 -53.8367 78.4933C-54.7184 78.68 -55.3062 79.0536 -55.6002 79.4271L-96.1604 65.2339L-61.4785 27.1362C-60.8906 27.3229 -60.3028 27.323 -59.715 27.323L-52.661 78.3066ZM-58.2454 29.7507L-22.0938 122.38L-48.8401 84.2827C-46.4888 83.349 -45.6071 81.4814 -46.7827 79.9874C-47.6644 78.8669 -49.4279 78.3066 -51.1914 78.1199L-58.2454 29.7507ZM-56.188 80.1741C-56.4819 80.5476 -56.482 80.9211 -56.482 81.1079L-109.093 83.349C-109.093 83.1622 -109.387 82.7887 -109.387 82.6019C-109.68 82.2284 -110.268 81.855 -110.856 81.4814L-96.4543 65.7941L-56.188 80.1741ZM-56.482 82.0416C-56.482 82.4151 -56.1879 82.6019 -55.8941 82.9754C-55.6001 83.3489 -55.3063 83.5357 -55.0123 83.7225L-77.056 100.53L-109.68 85.9634C-109.387 85.59 -109.093 85.0296 -109.093 84.4695L-56.482 82.0416ZM-76.1742 100.904L-54.4245 84.0959C-53.2488 84.6561 -51.7793 84.6561 -50.3097 84.4695L-22.6817 123.874C-22.9756 124.061 -23.5634 124.248 -23.8574 124.435L-76.1742 100.904ZM-20.0365 123.688L-57.6576 27.323C-57.3637 27.323 -57.3637 27.3229 -57.0697 27.1362C-57.0697 27.1362 -57.0697 27.1362 -56.7758 27.1362L9.06108 84.0959L-17.9791 123.874C-18.8608 123.688 -19.4486 123.688 -20.0365 123.688ZM-192.564 32.5521C-192.564 32.3653 -192.564 32.3653 -192.564 32.5521L-97.9239 65.6074L-112.326 81.2945C-113.795 80.9211 -115.265 80.9211 -116.734 81.4814C-117.028 81.4814 -117.322 81.6682 -117.616 81.855L-192.564 32.5521ZM-193.446 33.1123L-118.204 82.4151C-118.792 82.9754 -119.086 83.5356 -119.38 84.0959L-186.098 84.6562L-195.21 33.8594C-194.916 33.8594 -194.328 33.6725 -194.034 33.6725C-194.034 33.2991 -193.74 33.1123 -193.446 33.1123ZM-243.412 83.9092C-243.706 83.5356 -244.293 83.1622 -244.881 82.7887L-198.737 33.4858C-198.149 33.6726 -197.561 33.6725 -196.679 33.6725L-187.568 84.4695L-243.118 84.8429C-243.118 84.6562 -243.412 84.2827 -243.412 83.9092ZM-119.38 84.8429C-119.38 85.2164 -119.086 85.4032 -119.086 85.7767L-177.575 110.615C-178.457 109.868 -179.926 109.308 -181.69 109.308L-186.098 85.4032L-119.38 84.8429ZM-243.412 86.7104C-243.118 86.337 -243.118 85.9635 -242.824 85.7767L-186.98 85.4032L-182.571 109.494C-182.865 109.494 -183.453 109.681 -183.747 109.681C-184.335 109.868 -184.923 110.241 -185.217 110.428L-243.412 86.7104ZM-244.294 87.4575L-186.392 111.175C-186.686 111.735 -186.98 112.109 -186.98 112.669L-240.179 117.338L-246.939 88.578C-246.645 88.578 -246.351 88.3913 -246.057 88.3913C-245.175 88.0178 -244.587 87.831 -244.294 87.4575ZM-286.617 120.886C-286.911 120.513 -287.205 120.326 -287.793 119.953L-251.054 88.2045C-250.172 88.3912 -249.29 88.578 -248.408 88.578L-241.648 117.338L-286.323 121.26C-286.323 121.26 -286.323 121.073 -286.617 120.886ZM-296.316 122.007C-296.316 122.567 -296.316 123.314 -295.729 123.874C-295.435 124.061 -295.141 124.435 -294.847 124.621L-298.374 127.236L-373.322 109.681L-296.316 122.007ZM-299.549 127.796L-385.373 190.732C-385.96 190.545 -386.842 190.359 -387.43 190.172L-384.785 110.428C-384.197 110.428 -383.609 110.241 -383.021 110.055C-382.14 109.681 -381.258 109.308 -380.67 108.561L-299.549 127.796ZM-390.369 190.545L-431.223 148.339L-388.018 110.055C-387.43 110.241 -386.842 110.428 -386.254 110.428L-388.9 190.172C-389.487 190.359 -389.781 190.358 -390.369 190.545ZM-451.797 122.194L-390.075 108.561C-389.781 108.934 -389.487 109.121 -388.9 109.494L-431.811 147.592L-453.267 125.555C-452.091 124.621 -451.503 123.501 -451.797 122.194ZM-467.081 177.286L-456.794 126.115C-456.206 126.115 -455.324 125.929 -454.736 125.742L-432.987 148.152L-466.199 177.473C-466.493 177.473 -466.787 177.286 -467.081 177.286ZM-463.848 178.967C-464.142 178.593 -464.436 178.406 -465.024 178.033L-432.105 149.086L-392.133 190.359L-463.554 180.647C-463.26 180.087 -463.554 179.527 -463.848 178.967ZM-464.73 182.702C-464.142 182.328 -463.848 181.955 -463.554 181.581L-392.133 191.292C-393.602 192.226 -393.896 193.72 -393.014 195.027C-392.133 196.335 -390.075 196.895 -388.018 196.895L-365.386 264.126L-464.73 182.702ZM-386.548 196.521C-386.254 196.521 -386.254 196.335 -385.96 196.335C-385.667 196.335 -385.667 196.148 -385.373 196.148L-328.059 237.047L-363.623 264.686L-386.548 196.521ZM-362.741 265.433L-327.177 237.607L-268.101 279.626C-268.395 280 -268.688 280.187 -268.982 280.56L-362.741 265.433ZM-259.283 282.988C-258.989 282.241 -258.989 281.494 -259.283 280.747L-161.116 248.999C-160.822 249.186 -160.528 249.559 -160.234 249.746L-209.318 299.236L-259.283 282.988ZM-156.119 250.493L-139.954 290.832L-135.251 302.784L-126.728 324.074C-127.609 324.447 -128.491 324.821 -128.785 325.381L-208.142 299.609L-159.352 250.119C-158.176 250.493 -157.001 250.68 -156.119 250.493ZM-244.881 332.478L-262.222 285.042C-261.928 285.042 -261.928 285.042 -261.634 284.856C-260.753 284.669 -260.165 284.295 -259.577 283.735L-209.612 299.983L-241.942 332.851C-242.824 332.664 -244 332.478 -244.881 332.478ZM-239.591 334.345C-239.885 333.972 -240.473 333.598 -240.767 333.225L-208.436 300.356L-129.079 326.128C-129.079 326.502 -129.373 326.688 -129.373 327.062L-149.359 328.556L-239.297 334.906C-239.297 334.719 -239.591 334.532 -239.591 334.345ZM-239.003 335.839L-149.947 329.49L-128.785 327.996C-128.785 328.182 -128.491 328.369 -128.491 328.556C-127.903 329.116 -127.315 329.49 -126.434 329.863L-142.599 356.942L-239.003 336.4C-239.003 336.213 -239.003 336.026 -239.003 335.839ZM-167.582 449.945C-167.582 449.759 -167.582 449.572 -167.582 449.385L-117.322 441.541L-82.6403 436.126C-82.6403 436.312 -82.6403 436.312 -82.3464 436.499C-81.7585 437.433 -80.289 437.993 -78.8194 438.18L-81.7585 458.723L-167.582 449.945ZM-82.0525 459.656L-89.6942 512.881C-90.2821 512.881 -91.1638 513.068 -91.7517 513.255C-91.7517 513.255 -92.0456 513.255 -92.0456 513.441L-169.051 452.186C-168.463 451.813 -168.17 451.253 -167.876 450.879L-82.0525 459.656ZM-118.204 440.794L-167.582 448.638C-167.582 448.451 -167.582 448.451 -167.876 448.265C-168.17 447.891 -168.757 447.518 -169.345 447.144L-127.609 404.004L-82.0525 432.951C-82.9342 433.698 -83.2281 434.445 -83.2281 435.379L-118.204 440.794ZM-158.176 387.383C-157.295 387.383 -156.707 387.196 -155.825 387.01C-155.531 386.823 -155.237 386.823 -154.943 386.636L-128.491 403.444L-170.521 446.77C-170.815 446.77 -171.109 446.584 -171.403 446.584L-158.176 387.383ZM-173.754 446.584L-193.152 415.77L-160.822 387.01C-160.528 387.196 -159.94 387.196 -159.646 387.383L-172.578 446.584C-172.872 446.397 -173.46 446.584 -173.754 446.584ZM-154.062 386.076C-153.18 385.329 -152.886 384.208 -153.18 383.274L-97.3361 369.268C-97.0421 369.455 -96.4543 369.642 -95.8665 369.642L-127.609 402.51L-154.062 386.076ZM-126.728 403.257L-94.3969 369.828C-94.103 369.828 -93.8091 369.828 -93.5151 369.828L-79.1133 431.644C-79.4073 431.644 -79.7012 431.83 -79.9951 431.83C-80.289 432.017 -80.5829 432.017 -80.8768 432.204L-126.728 403.257ZM-77.9376 431.644L-87.343 390.558L-92.0456 369.642C-92.0456 369.642 -92.0456 369.642 -91.7517 369.642C-91.1638 369.455 -90.8699 369.268 -90.576 369.081L-29.1478 399.335L-74.4107 432.204C-75.8802 431.83 -76.762 431.644 -77.9376 431.644ZM-153.768 382.528C-154.355 381.967 -154.943 381.594 -155.825 381.22L-142.011 358.063L-99.6874 367.027C-99.6874 367.4 -99.3935 367.774 -99.0995 368.148C-98.8056 368.334 -98.8056 368.521 -98.5117 368.708L-153.768 382.528ZM-141.423 357.129L-125.552 330.237C-124.67 330.423 -123.788 330.423 -122.907 330.237L-97.3361 363.852C-98.5117 364.412 -99.3935 365.159 -99.6874 366.093L-141.423 357.129ZM-95.8665 363.479L-121.437 330.05C-120.261 329.676 -119.38 328.929 -119.086 328.182L-46.4888 337.333L-91.1638 364.039C-92.6334 363.479 -94.3969 363.105 -95.8665 363.479ZM-239.885 337.707C-239.885 337.52 -239.591 337.52 -239.591 337.333L-143.187 357.876L-157.001 381.033C-158.176 380.847 -159.352 380.847 -160.528 381.22C-160.822 381.407 -161.116 381.407 -161.409 381.594L-239.885 337.707ZM-241.354 338.454C-241.06 338.454 -241.06 338.267 -240.767 338.267L-162.585 382.154C-163.761 383.088 -163.761 384.395 -162.879 385.516C-162.585 385.889 -162.291 386.263 -161.703 386.449L-193.74 414.649L-241.354 338.454ZM-258.989 471.235L-241.354 340.695L-194.622 415.77L-257.814 471.609C-258.107 471.422 -258.695 471.235 -258.989 471.235ZM-256.638 471.982L-194.034 416.517L-175.223 446.957C-177.281 447.704 -178.457 449.385 -177.575 450.692L-255.756 472.729C-256.05 472.356 -256.344 472.169 -256.638 471.982ZM-255.168 475.157C-254.874 474.597 -254.874 474.036 -255.168 473.476L-176.987 451.439C-175.517 452.933 -172.578 453.494 -170.227 452.747C-170.227 452.747 -169.933 452.747 -169.933 452.56L-92.9273 513.815C-93.2212 514.002 -93.5152 514.188 -93.8091 514.562L-255.168 475.157ZM-87.049 519.044C-86.1673 518.857 -85.5795 518.297 -84.9916 517.923L-57.0697 526.141L-88.2247 562.744C-88.5186 562.744 -89.1064 562.557 -89.4003 562.557L-88.8125 519.418C-88.2247 519.418 -87.6369 519.231 -87.049 519.044ZM-110.856 564.985C-111.444 564.238 -112.326 563.865 -113.207 563.491L-90.2821 519.418L-89.9882 519.418L-90.576 562.557C-91.1638 562.557 -91.7517 562.744 -92.3395 562.931C-94.103 563.491 -94.9847 564.425 -95.2786 565.546L-110.268 565.919C-110.562 565.546 -110.562 565.172 -110.856 564.985ZM-111.444 568.347C-110.856 567.787 -110.562 567.226 -110.268 566.666L-95.2786 566.293C-95.2786 566.666 -94.9847 566.853 -94.6908 567.226C-94.103 567.973 -92.9273 568.534 -91.7517 568.907L-94.9847 578.618L-111.444 568.347ZM-87.9308 568.72C-87.6369 568.72 -87.6369 568.72 -87.9308 568.72L-9.74944 632.59L-94.103 579.365L-90.576 569.094C-89.6942 569.094 -88.8125 569.094 -87.9308 568.72ZM-33.5565 611.487L-86.4612 568.16C-85.8734 567.787 -85.2855 567.226 -84.9916 566.666L11.7064 572.829L-2.40153 634.271C-3.28331 634.271 -4.16502 634.457 -4.75285 634.644C-4.75285 634.644 -5.0468 634.644 -5.0468 634.831L-33.5565 611.487ZM-106.153 611.674L-114.089 569.654C-113.795 569.654 -113.501 569.467 -112.914 569.467C-112.62 569.281 -112.326 569.281 -112.032 569.094L-94.9847 579.739L-105.566 611.674C-106.153 611.674 -106.153 611.674 -106.153 611.674ZM-101.157 615.595C-100.863 614.848 -101.157 614.101 -101.745 613.354C-102.333 612.607 -103.508 612.047 -104.684 611.674L-94.3969 580.299L-6.81029 635.391C-7.10417 635.578 -7.10417 635.765 -7.39806 635.951L-101.157 615.595ZM-7.692 636.885C-7.98595 637.632 -7.692 638.379 -7.10417 639.126C-6.51634 639.873 -5.63457 640.434 -4.45891 640.62L-8.27983 649.584L-99.3934 616.903L-7.692 636.885ZM56.3814 671.621C56.0875 671.621 56.0875 671.808 55.7936 671.808L1.41939 639.5C1.71327 639.126 2.00716 638.753 2.3011 638.192L71.9589 641.367L59.6145 671.435C58.7327 671.248 57.5571 671.248 56.3814 671.621ZM-0.344161 640.434C-0.0502159 640.247 0.243668 640.247 0.537614 640.06L54.6179 672.368L-7.692 649.958L-3.57719 640.807C-2.40153 640.807 -1.22588 640.807 -0.344161 640.434ZM-102.333 617.089L-102.039 616.903L-8.86766 650.331L-19.1546 673.489C-20.0364 673.302 -21.2121 673.489 -22.3877 673.862C-22.6817 673.862 -22.6817 674.049 -22.9756 674.049L-102.333 617.089ZM-15.0399 676.29C-15.0399 675.917 -15.3338 675.73 -15.6277 675.356C-16.2156 674.609 -17.0973 674.049 -18.2729 673.862L-7.98595 650.892L54.0301 673.115C53.7362 673.489 53.4423 673.862 53.4423 674.236L-15.0399 676.29ZM61.0841 677.597C61.6719 677.411 62.2597 677.224 62.5536 676.85L102.232 694.032L97.8234 703.369L86.3607 702.622C86.3607 701.128 84.5972 699.821 82.2459 699.634C79.8946 699.261 77.8372 700.008 76.6615 701.128L61.3779 677.224L61.0841 677.597ZM97.5295 704.303L90.1817 719.99C89.8877 719.99 89.5938 719.99 89.2999 719.99L83.1276 705.984C84.5972 705.61 85.7729 704.677 86.0668 703.743L97.5295 704.303ZM80.1885 705.984C80.7763 705.984 81.3642 706.171 81.952 705.984L86.9486 717.189L80.1885 705.984C80.1885 705.984 79.8946 705.984 80.1885 705.984ZM92.8269 720.737C92.5329 720.551 91.9452 720.364 91.6512 720.177L98.9991 704.49L124.57 705.984C124.57 706.357 124.864 706.544 125.157 706.918L103.702 716.255L92.8269 720.737ZM124.57 705.05L99.5869 703.556L103.702 694.592L125.157 703.93C124.57 704.303 124.57 704.677 124.57 705.05ZM24.9326 749.311L78.4251 705.797L87.5364 719.99L87.2425 719.99C84.8912 720.737 84.0094 722.418 84.5973 723.912L24.9326 749.311C24.9326 749.311 24.9326 749.497 24.9326 749.311ZM-20.3304 810.379L-10.9251 797.306L19.3482 754.726C19.6421 754.726 19.936 754.913 20.2299 754.913C21.9934 755.1 23.463 754.913 24.9326 754.166L59.3206 775.083L-19.4486 810.752C-19.7425 810.752 -20.0364 810.566 -20.3304 810.379ZM-18.2729 811.499L60.2024 775.643L110.756 806.457C110.462 806.831 110.168 807.204 109.874 807.764C109.874 807.951 109.874 808.138 109.874 808.325L-17.3912 812.62C-17.979 812.06 -17.979 811.686 -18.2729 811.499ZM112.225 840.633L109.286 895.352C108.404 895.352 107.523 895.725 106.641 895.912L38.7465 852.025L111.343 810.752C111.931 811.126 112.813 811.313 113.695 811.499L113.989 811.499L112.225 840.633ZM114.87 814.861L126.039 889.749L113.107 896.285C112.519 895.912 111.637 895.538 110.756 895.352L110.462 895.352L114.87 814.861ZM119.573 809.072C119.867 808.325 119.573 807.578 118.985 806.831L131.036 801.601L167.775 863.417L117.516 810.752C118.691 810.379 119.279 809.819 119.573 809.072ZM118.397 806.084C117.81 805.523 116.928 805.15 115.752 805.15C115.458 805.15 114.871 805.15 114.577 805.15L105.465 758.462L130.742 800.855L118.397 806.084ZM-18.2729 815.235C-17.979 814.861 -17.6851 814.487 -17.6851 814.114C-17.6851 813.74 -17.3911 813.367 -17.6851 813.18L109.286 808.885C109.286 809.258 109.58 809.819 110.168 810.192L37.8648 851.465L-18.2729 815.235ZM10.5307 865.284C9.64896 865.098 9.06113 865.098 8.17941 865.284L-20.0364 816.355C-19.7425 816.168 -19.4486 816.168 -19.1546 815.982L36.6892 852.212L12.2942 866.031C12.0003 865.658 11.1186 865.284 10.5307 865.284ZM13.4699 866.592L37.8648 852.772L105.759 896.659L105.465 896.846L74.0163 887.321L14.3516 869.393C14.3516 869.206 14.3516 869.206 14.3516 869.019C14.6455 868.272 14.3516 867.339 13.4699 866.592ZM57.5571 933.263L44.6248 915.708L105.171 900.207C105.465 900.394 105.465 900.581 105.759 900.767L61.9658 933.636C61.378 933.449 60.7902 933.263 60.2024 933.263C59.3206 933.076 58.4388 933.076 57.5571 933.263ZM44.037 914.961L11.7064 871.26C12.2942 871.074 12.882 870.7 13.4699 870.327L73.4285 888.255L104.583 897.593L104.583 897.779C104.29 898.34 104.29 898.9 104.583 899.273L44.037 914.961ZM-52.661 937.371L-41.7862 865.845L4.0646 868.459C4.0646 869.393 4.94632 870.327 6.12198 870.887L-51.7792 937.371C-52.0731 937.371 -52.367 937.371 -52.661 937.371ZM-50.6036 937.931L7.2977 871.447C7.59158 871.447 7.88547 871.634 8.17941 871.634C9.06113 871.821 9.9429 871.821 10.8247 871.634L42.8614 915.334L-49.4279 938.865C-49.7218 938.492 -50.3097 938.118 -50.6036 937.931ZM-111.15 968.559C-111.15 968.372 -111.15 968.372 -111.15 968.185C-110.856 967.438 -111.15 966.691 -111.444 965.944L-57.6575 942.6C-57.0697 943.16 -56.188 943.534 -55.0123 943.534C-54.4245 943.721 -53.5427 943.721 -52.9549 943.534L-32.9687 990.596C-33.8504 990.782 -34.7321 991.343 -35.32 991.903L-111.15 968.559ZM-83.2281 1055.21L-60.0088 1079.12L-99.0995 1093.31C-99.6873 1092.75 -100.275 1092.38 -101.157 1092.19L-87.049 1056.15C-85.8733 1056.15 -84.4037 1055.96 -83.2281 1055.21ZM-82.3463 1054.65C-82.0524 1054.28 -81.7585 1053.91 -81.7585 1053.53C-81.7585 1053.34 -81.7585 1053.16 -81.7585 1052.78L-25.6208 1064.55C-25.9147 1065.11 -25.6208 1065.86 -25.3269 1066.42L-59.1271 1078.56L-82.3463 1054.65ZM-87.049 1049.61L-103.508 1001.61L-35.9079 994.891C-35.6139 995.451 -35.0261 996.012 -34.1443 996.572L-67.9445 1031.87L-84.9916 1049.8C-84.9916 1049.8 -84.9916 1049.8 -85.2855 1049.8C-86.1672 1049.61 -86.4612 1049.61 -87.049 1049.61ZM-32.9687 996.759C-32.6748 996.759 -32.3808 996.945 -32.0869 996.945C-31.793 996.945 -31.4991 996.945 -31.2052 996.945L-25.0329 1037.66L-83.2281 1050.17C-83.522 1049.98 -83.8159 1049.98 -84.1099 1049.8L-32.9687 996.759ZM-25.0329 1038.78L-21.506 1062.12C-22.9755 1062.31 -24.1512 1063.06 -25.0329 1063.8L-81.7585 1051.85C-81.7585 1051.48 -82.0524 1051.29 -82.3463 1050.92L-25.0329 1038.78ZM-16.2155 1063.43L53.1484 1023.46C53.4423 1023.65 53.7362 1023.84 54.3241 1023.84L38.1587 1055.21L-15.3338 1063.99C-15.6277 1063.8 -15.9216 1063.62 -16.2155 1063.43ZM-17.0972 1062.68C-17.6851 1062.31 -18.2729 1062.12 -19.1546 1061.94C-19.4486 1061.94 -19.7425 1061.94 -20.3303 1061.94L-23.8573 1038.4L51.6788 1022.16C51.6788 1022.34 51.9728 1022.53 51.9728 1022.53L-17.0972 1062.68ZM-23.8573 1037.66L-29.7356 997.132C-28.56 996.945 -27.3842 996.385 -26.5025 995.825L6.12199 1005.91L51.6788 1019.92C51.6788 1020.1 51.6788 1020.1 51.6788 1020.29C51.3849 1020.66 51.3849 1021.22 51.6788 1021.6L-23.8573 1037.66ZM5.8281 1004.79L-26.2086 994.891C-26.2086 994.704 -26.2086 994.704 -26.2086 994.518C-25.9147 993.584 -26.2086 992.463 -27.0904 991.716L-4.165 977.15L52.5605 1018.61C52.2666 1018.8 52.2666 1018.8 51.9728 1018.98L5.8281 1004.79ZM-27.9721 991.156C-28.5599 990.969 -29.1478 990.596 -30.0295 990.596C-30.6173 990.596 -31.2052 990.409 -31.793 990.596L-51.7792 943.534C-51.4853 943.347 -51.1914 943.347 -50.8975 943.16L-4.75283 976.589L-27.9721 991.156ZM-111.738 969.306L-35.9079 992.837C-35.9079 993.024 -35.9079 993.024 -35.9079 993.21C-35.9079 993.397 -35.9079 993.771 -35.9079 993.957L-103.802 1000.68L-114.089 970.613C-113.207 970.426 -112.326 969.866 -111.738 969.306ZM-205.203 1010.2L-119.674 969.866C-119.086 970.24 -118.204 970.613 -117.028 970.8C-116.44 970.8 -115.853 970.987 -115.559 970.8L-105.272 1000.87L-204.909 1010.77C-204.909 1010.58 -205.203 1010.39 -205.203 1010.2ZM-204.615 1012.45C-204.615 1012.26 -204.615 1011.89 -204.615 1011.7L-104.978 1001.8L-88.5186 1049.8C-89.4003 1049.98 -90.2821 1050.36 -90.8699 1050.92L-204.909 1012.82C-204.909 1012.82 -204.909 1012.63 -204.615 1012.45ZM-206.085 1013.94C-205.791 1013.75 -205.791 1013.75 -205.497 1013.57L-91.4577 1051.66C-91.4577 1051.85 -91.7516 1051.85 -91.7516 1052.04C-91.7516 1052.22 -91.7516 1052.41 -91.7516 1052.6L-153.768 1055.03L-206.085 1013.94ZM-167.876 1052.97C-169.051 1052.78 -169.933 1052.97 -171.109 1053.16L-204.909 1016.37L-155.237 1055.03L-164.055 1055.4C-164.349 1054.28 -165.818 1053.16 -167.876 1052.97ZM-91.7516 1053.53C-91.4577 1054.65 -90.2821 1055.59 -88.8125 1055.96L-102.626 1092C-104.096 1091.82 -105.272 1092 -106.447 1092.38L-152.886 1055.96L-91.7516 1053.53ZM-164.936 1058.01C-164.643 1057.64 -164.349 1057.27 -164.055 1056.89C-164.055 1056.71 -164.055 1056.52 -164.055 1056.33L-154.355 1055.96L-110.268 1090.7L-164.936 1058.01ZM-219.311 1161.85L-170.227 1059.32C-168.757 1059.51 -167.288 1059.13 -166.112 1058.57L-107.917 1093.12C-108.211 1093.5 -108.505 1093.87 -108.799 1094.24C-109.093 1095.36 -108.799 1096.3 -107.623 1097.05L-217.547 1162.41C-217.841 1162.22 -218.429 1161.85 -219.311 1161.85ZM-106.741 1097.79C-106.447 1097.79 -106.447 1097.98 -106.153 1097.98L-143.775 1148.22L-157.295 1166.33C-157.589 1166.33 -157.589 1166.33 -157.882 1166.33C-160.528 1165.96 -163.467 1167.08 -164.055 1168.76L-216.078 1165.21C-216.078 1164.46 -216.372 1163.72 -216.959 1163.16L-106.741 1097.79ZM-101.745 1098.17L-66.7689 1149.9L-153.768 1168.01C-154.062 1167.45 -154.943 1167.08 -155.531 1166.7L-127.609 1129.17L-119.38 1118.15L-104.684 1098.35C-103.802 1098.35 -102.626 1098.35 -101.745 1098.17ZM-39.1409 1246.63L-36.2017 1300.98L-36.4956 1300.98L-63.2418 1255.41C-62.0662 1255.04 -60.8906 1254.29 -60.5966 1253.17C-60.0088 1251.68 -61.1845 1250.18 -63.2418 1249.62L-39.1409 1246.63ZM-63.5358 1248.88L-42.3739 1189.49L-39.4348 1245.7L-63.5358 1248.88ZM-197.267 1201.63L-185.51 1191.92L-141.423 1224.41C-141.717 1224.6 -142.011 1224.78 -142.011 1224.97L-195.797 1205.18C-195.797 1204.99 -195.797 1204.99 -195.504 1204.8C-195.21 1203.68 -195.797 1202.37 -197.267 1201.63ZM-262.81 1204.43L-278.681 1137.38C-278.388 1137.38 -278.094 1137.2 -277.506 1137.2L-203.733 1202C-204.321 1202.37 -204.909 1202.93 -205.203 1203.68C-205.203 1203.87 -205.203 1203.87 -205.203 1204.05L-262.81 1204.43ZM-201.676 1200.88L-219.017 1167.82C-218.723 1167.82 -218.723 1167.64 -218.429 1167.64L-186.392 1191.36L-198.443 1201.25C-198.737 1201.25 -199.031 1201.07 -199.324 1201.07C-200.206 1200.88 -201.088 1200.88 -201.676 1200.88ZM-279.857 1282.49C-279.857 1283.42 -279.269 1284.36 -278.094 1285.11L-298.668 1305.27L-350.103 1278.76C-349.809 1278.57 -349.809 1278.2 -349.515 1278.01L-279.857 1282.49ZM-333.35 1278.01L-276.624 1279.5C-278.094 1279.88 -278.975 1280.62 -279.563 1281.56L-333.35 1278.01ZM-269.57 1283.42C-269.57 1283.24 -269.57 1283.05 -269.57 1282.86L-209.024 1281.74C-208.73 1282.49 -208.142 1283.24 -207.26 1283.8L-224.601 1301.91L-270.158 1283.98C-269.864 1283.8 -269.57 1283.61 -269.57 1283.42ZM-269.57 1281.93C-269.864 1281 -270.746 1280.25 -272.215 1279.69L-222.544 1281L-269.57 1281.93ZM-349.221 1276.89C-349.221 1276.51 -349.515 1276.14 -349.515 1275.77L-259.577 1238.23C-258.989 1238.79 -257.814 1239.16 -256.932 1239.35C-255.756 1239.54 -254.287 1239.35 -253.405 1238.98L-207.554 1278.76C-208.142 1279.13 -208.73 1279.69 -209.024 1280.44L-209.024 1280.62L-349.221 1276.89ZM-383.609 1209.28L-366.856 1248.69L-400.362 1252.61C-400.95 1251.68 -401.832 1250.93 -403.301 1250.56L-385.079 1209.1C-384.491 1209.28 -384.197 1209.28 -383.609 1209.28ZM-366.856 1249.62L-356.569 1274.09C-357.157 1274.27 -358.038 1274.65 -358.332 1275.02L-400.95 1255.6C-400.656 1255.41 -400.656 1255.04 -400.362 1254.85C-400.362 1254.48 -400.362 1254.29 -400.362 1253.92L-366.856 1249.62ZM-353.336 1273.71C-353.924 1273.71 -354.511 1273.53 -355.099 1273.71L-365.386 1249.44L-260.753 1237.11C-260.753 1237.3 -260.459 1237.48 -260.459 1237.48L-350.397 1275.02C-351.278 1274.46 -352.16 1273.9 -353.336 1273.71ZM-202.558 1232.25L-204.615 1278.01C-205.203 1278.01 -206.084 1278.2 -206.672 1278.38L-252.817 1238.42C-252.229 1238.04 -251.641 1237.48 -251.347 1236.74C-251.347 1236.55 -251.347 1236.18 -251.347 1235.99L-202.558 1232.25ZM-251.053 1235.24C-251.347 1234.87 -251.347 1234.5 -251.935 1234.12L-204.027 1206.67C-203.439 1207.04 -202.558 1207.23 -201.97 1207.42L-201.676 1207.42L-202.851 1231.32L-251.053 1235.24ZM-200.206 1278.94L-139.954 1229.45C-139.366 1229.64 -139.072 1229.83 -138.484 1229.83C-137.015 1230.01 -135.839 1229.83 -134.663 1229.45L-96.4542 1258.59L-199.324 1279.88C-199.618 1279.5 -199.912 1279.13 -200.206 1278.94ZM-133.781 1228.89L-133.488 1228.71L-70.2958 1251.49C-70.2958 1251.68 -70.5897 1251.86 -70.5897 1252.05C-70.8836 1252.42 -70.8836 1252.98 -70.5897 1253.36L-94.9847 1258.4L-133.781 1228.89ZM-141.129 1228.89L-201.382 1278.38C-201.97 1278.2 -202.264 1278.01 -202.851 1278.01L-203.145 1278.01L-201.088 1232.07L-142.599 1227.4C-142.305 1227.96 -141.717 1228.52 -141.129 1228.89ZM-201.088 1231.13L-200.206 1207.23C-198.737 1207.04 -197.267 1206.67 -196.385 1205.74L-142.599 1225.53C-142.599 1225.53 -142.599 1225.53 -142.599 1225.72C-142.599 1225.9 -142.599 1226.28 -142.599 1226.47L-201.088 1231.13ZM-204.909 1206.11L-252.817 1233.56C-253.405 1233.19 -254.287 1233 -254.874 1232.81C-255.168 1232.81 -255.756 1232.81 -256.05 1232.81L-262.516 1205.36L-205.497 1204.8C-205.497 1205.18 -205.203 1205.55 -204.909 1206.11ZM-257.52 1232.81C-258.989 1233 -259.871 1233.56 -260.753 1234.5L-379.2 1206.86C-379.2 1206.67 -379.2 1206.67 -379.2 1206.48L-264.28 1205.36L-257.52 1232.81ZM-261.047 1235.24C-261.047 1235.62 -261.047 1235.8 -261.047 1236.18L-365.68 1248.5L-382.433 1209.1C-381.258 1208.91 -380.376 1208.35 -379.788 1207.6L-261.047 1235.24ZM-387.136 1208.72L-455.03 1297.8C-455.324 1297.8 -455.324 1297.8 -455.618 1297.8C-455.618 1297.8 -455.618 1297.8 -455.912 1297.8L-449.152 1227.4L-388.606 1207.98C-388.018 1208.16 -387.724 1208.54 -387.136 1208.72ZM-387.136 1210.59L-404.771 1250.56C-407.416 1250.37 -410.061 1251.3 -410.649 1252.98C-410.943 1254.1 -410.355 1255.41 -409.18 1256.16L-452.385 1296.12L-387.136 1210.59ZM-401.832 1255.97L-358.92 1275.58C-359.214 1275.77 -359.214 1276.14 -359.214 1276.33C-359.508 1276.89 -359.508 1277.26 -359.214 1277.82L-385.96 1283.98L-402.714 1256.72C-402.42 1256.35 -402.126 1256.16 -401.832 1255.97ZM-358.92 1278.57C-358.332 1279.32 -357.157 1280.06 -355.393 1280.25C-355.099 1280.25 -354.805 1280.25 -354.511 1280.25L-346.576 1348.23C-346.576 1348.23 -346.576 1348.23 -346.87 1348.23L-385.666 1284.73L-358.92 1278.57ZM-344.518 1348.41C-344.812 1348.41 -345.106 1348.41 -345.4 1348.41L-353.63 1280.25C-352.748 1280.06 -351.866 1279.88 -350.985 1279.5L-299.255 1305.84L-343.343 1348.6C-343.637 1348.41 -343.931 1348.41 -344.518 1348.41ZM-297.492 1305.65L-276.624 1285.48C-276.33 1285.67 -276.036 1285.67 -275.448 1285.67C-274.861 1285.85 -273.979 1285.85 -273.391 1285.67L-252.817 1327.12C-253.405 1327.31 -253.699 1327.5 -254.287 1327.69L-297.492 1305.65ZM-249.878 1327.12C-250.466 1326.94 -251.347 1326.94 -251.935 1327.12L-272.509 1285.67C-271.628 1285.48 -271.04 1285.11 -270.452 1284.73L-225.189 1302.47L-248.996 1327.31C-249.29 1327.31 -249.584 1327.12 -249.878 1327.12ZM-223.425 1302.29L-206.085 1284.17C-205.791 1284.17 -205.497 1284.36 -205.203 1284.36C-204.321 1284.55 -203.733 1284.55 -202.851 1284.36L-183.453 1316.48C-184.041 1316.67 -184.629 1317.04 -184.923 1317.23L-223.425 1302.29ZM-179.926 1316.29C-180.808 1316.11 -181.396 1316.11 -182.277 1316.29L-200.5 1286.04L-171.403 1318.16L-176.399 1318.72C-176.693 1317.41 -178.163 1316.48 -179.926 1316.29ZM-200.794 1283.8C-199.912 1283.42 -199.324 1282.86 -199.031 1282.3L-40.6104 1303.97L-40.3165 1304.15L-40.3165 1304.34L-169.639 1317.79L-200.794 1283.8ZM-198.737 1281.56C-198.737 1281.18 -198.737 1281 -198.737 1280.62L-95.2786 1259.15L-38.847 1301.91C-39.4348 1302.29 -39.7287 1302.66 -40.0226 1303.03L-198.737 1281.56ZM-94.1029 1258.96L-70.0019 1253.92C-69.4141 1254.85 -68.2384 1255.41 -66.4749 1255.79C-65.5932 1255.97 -65.0054 1255.97 -64.1236 1255.79L-56.7758 1268.48L-37.6713 1301.35C-37.6713 1301.35 -37.9652 1301.35 -37.9652 1301.54L-94.1029 1258.96ZM-69.4141 1250.56L-132.606 1227.77C-132.606 1227.59 -132.312 1227.4 -132.312 1227.21C-132.018 1226.46 -132.312 1225.53 -132.9 1224.97L-108.505 1214.7L-68.8263 1250.18C-69.1202 1250.37 -69.4141 1250.37 -69.4141 1250.56ZM-133.781 1224.22C-134.369 1223.85 -135.251 1223.48 -136.427 1223.29C-137.015 1223.29 -137.602 1223.1 -138.19 1223.29L-157.001 1172.49C-156.707 1172.49 -156.707 1172.31 -156.413 1172.31L-109.68 1214.14L-133.781 1224.22ZM-159.94 1172.68C-159.352 1172.68 -158.764 1172.87 -158.176 1172.68L-139.66 1223.66C-139.954 1223.66 -140.248 1223.85 -140.541 1223.85L-184.923 1191.17L-161.703 1172.12C-160.822 1172.31 -160.234 1172.49 -159.94 1172.68ZM-185.51 1190.61L-217.253 1167.26C-216.665 1166.89 -216.372 1166.52 -216.078 1165.96L-163.761 1169.51C-163.761 1170.44 -163.173 1171.19 -162.291 1171.75L-185.51 1190.61ZM-276.624 1136.45L-225.189 1163.16C-225.483 1163.53 -225.777 1163.72 -225.777 1164.09C-226.365 1165.77 -224.601 1167.64 -221.956 1168.01C-221.368 1168.01 -220.78 1168.2 -220.192 1168.01L-202.851 1201.25L-276.624 1136.45C-276.624 1136.45 -276.918 1136.45 -276.624 1136.45ZM-380.376 1203.87L-283.384 1136.82C-282.796 1137.01 -282.208 1137.2 -281.621 1137.38C-281.327 1137.38 -280.739 1137.38 -280.445 1137.38L-264.28 1204.43L-379.2 1205.55C-379.2 1204.99 -379.788 1204.43 -380.376 1203.87ZM-441.216 1185.19L-388.9 1204.8C-388.9 1204.99 -389.193 1205.18 -389.193 1205.36C-389.487 1205.92 -389.193 1206.48 -389.193 1207.04L-448.858 1226.28L-445.037 1186.69C-443.568 1186.69 -442.098 1186.13 -441.216 1185.19ZM-568.775 1264.56L-448.564 1185.94C-447.976 1186.31 -447.095 1186.5 -446.507 1186.69L-450.328 1226.84L-568.481 1264.75C-568.481 1264.56 -568.481 1264.56 -568.775 1264.56ZM-567.894 1267.55L-567.894 1267.36C-567.6 1266.8 -567.894 1266.06 -568.188 1265.5L-450.622 1227.77L-457.382 1297.62C-459.145 1297.62 -460.615 1298.18 -461.496 1299.11L-567.894 1267.55ZM-453.267 1298.36L-407.71 1256.72C-407.416 1256.91 -406.828 1256.91 -406.534 1257.09C-405.653 1257.28 -404.771 1257.28 -404.183 1257.09L-387.43 1284.36L-452.091 1299.49C-452.385 1298.93 -452.679 1298.74 -453.267 1298.36ZM-452.091 1302.47C-451.797 1302.29 -451.797 1301.91 -451.503 1301.73C-451.209 1301.17 -451.209 1300.79 -451.503 1300.23L-386.842 1285.11L-348.045 1348.6C-348.633 1348.79 -348.927 1348.98 -349.221 1349.16L-452.091 1302.47ZM-256.05 1331.05L-340.991 1350.1C-341.285 1349.72 -341.579 1349.35 -342.167 1349.16L-298.374 1306.58L-255.462 1328.81C-255.756 1329.18 -256.05 1329.37 -256.05 1329.74C-256.05 1330.11 -256.05 1330.49 -256.05 1331.05ZM-246.057 1329.18C-246.351 1328.62 -246.939 1328.25 -247.526 1327.87L-223.719 1303.03L-185.51 1318.16C-185.51 1318.35 -185.804 1318.53 -185.804 1318.72C-185.804 1319.09 -186.098 1319.47 -185.804 1319.84L-246.057 1329.18ZM-177.575 1321.9C-176.987 1321.52 -176.399 1320.96 -176.105 1320.22C-176.105 1320.03 -176.105 1319.65 -176.105 1319.47L-170.815 1318.91L-131.136 1362.61L-177.575 1321.9ZM-125.846 1366.16L-169.051 1318.53L-40.0226 1305.09C-39.7287 1305.46 -39.4348 1306.02 -38.847 1306.4L-120.849 1366.34C-121.437 1366.16 -122.025 1365.97 -122.613 1365.78C-123.788 1365.78 -124.964 1365.97 -125.846 1366.16ZM-120.261 1367.09L-38.2591 1307.14C-37.6713 1307.33 -37.3773 1307.52 -36.7895 1307.52L-47.6644 1356.26L-119.38 1368.02C-119.38 1367.65 -119.674 1367.28 -120.261 1367.09ZM-58.2453 1384.46L-119.086 1369.89C-119.086 1369.52 -118.792 1369.14 -119.086 1368.77L-47.9583 1357.01L-53.8366 1382.59C-55.6001 1382.78 -57.3636 1383.34 -58.2453 1384.46ZM8.76727 1348.6L-50.3096 1383.52C-50.8975 1383.15 -51.4853 1382.96 -52.367 1382.96L-46.4887 1357.01L8.17944 1348.04C8.47333 1348.23 8.47339 1348.41 8.76727 1348.6ZM7.8855 1345.99C7.8855 1346.36 7.59161 1346.73 7.8855 1347.11L-46.1948 1356.07L-35.6139 1308.26L9.3551 1344.49C8.76727 1344.87 8.17944 1345.43 7.8855 1345.99ZM12.5881 1343.37C11.7064 1343.37 11.1186 1343.56 10.5308 1343.75L-34.4382 1307.33C-32.3808 1307.14 -30.6173 1306.21 -30.0295 1304.9C-29.4417 1303.59 -30.3234 1302.29 -32.0869 1301.54L17.8786 1240.84L12.5881 1343.37ZM-33.5565 1301.17C-33.8504 1301.17 -33.8504 1301.17 -34.1443 1300.98C-34.4382 1300.98 -34.4382 1300.98 -34.7321 1300.98L-37.6713 1246.45L17.2908 1239.54L-33.5565 1301.17ZM17.2908 1238.79L-37.6713 1245.7L-40.6104 1189.49C-40.0226 1189.49 -39.4348 1189.3 -39.1409 1189.11L17.2908 1238.79ZM-43.5496 1189.3L-65.0054 1249.25C-65.8871 1249.25 -67.0628 1249.25 -67.9445 1249.62L-107.623 1214.33L-45.6069 1188.37C-45.0191 1188.74 -44.4313 1189.11 -43.5496 1189.3ZM-46.4887 1187.62L-108.505 1213.58L-155.531 1171.75C-154.943 1171.37 -154.355 1171 -154.062 1170.44L-47.0766 1185.94C-47.0766 1186.5 -46.7827 1187.25 -46.4887 1187.62ZM-46.4887 1185.19L-153.474 1169.69C-153.474 1169.32 -153.474 1169.13 -153.474 1168.76L-66.181 1150.64L-44.1374 1183.51C-45.3131 1183.89 -46.1948 1184.45 -46.4887 1185.19ZM-5.6346 1139.81L-40.0226 1183.14C-40.3165 1183.14 -40.3165 1183.14 -40.6104 1182.95C-41.4922 1182.76 -42.374 1182.76 -43.2557 1182.95L-65.2993 1150.27L-7.69197 1138.32C-7.10414 1138.88 -6.51631 1139.44 -5.6346 1139.81ZM-7.98592 1136.26C-8.2798 1136.64 -8.2798 1137.2 -7.98592 1137.57L-65.8871 1149.52L-100.863 1097.61C-100.569 1097.42 -99.9812 1097.23 -99.6873 1097.05L-82.9342 1104.14L-7.69197 1135.52C-7.69197 1135.89 -7.69197 1136.08 -7.98592 1136.26ZM-6.81026 1134.96L-81.1707 1103.77L-98.8056 1096.48C-98.8056 1096.3 -98.5116 1096.11 -98.5116 1095.92C-98.2177 1095.36 -98.5117 1094.62 -98.8056 1094.06L-59.421 1079.86L-6.22243 1134.58C-6.51631 1134.58 -6.51631 1134.77 -6.81026 1134.96ZM-5.04677 1134.02L-58.2453 1079.3L-24.4451 1067.16C-23.8573 1067.72 -22.6817 1068.29 -21.506 1068.47C-21.2121 1068.47 -20.6242 1068.47 -20.3303 1068.47L-4.45888 1133.84C-4.45888 1134.02 -4.75282 1134.02 -5.04677 1134.02ZM-2.98933 1133.84L-18.8607 1068.47C-17.0972 1068.1 -15.6277 1067.35 -15.0399 1066.04C-15.0399 1065.67 -14.7459 1065.3 -15.0399 1064.92L37.8648 1056.15L-2.10762 1133.84C-2.69545 1133.84 -2.69539 1133.84 -2.98933 1133.84ZM143.968 1039.34L-0.344132 1132.15L39.0404 1055.77L143.38 1038.59C143.674 1038.96 143.674 1039.15 143.968 1039.34ZM143.086 1037.84L39.6283 1055.03L55.4997 1024.21C57.851 1024.58 60.2023 1023.65 61.0841 1022.34L143.086 1037.1C143.086 1037.28 143.086 1037.47 143.086 1037.84ZM145.144 1034.86C144.556 1035.23 143.968 1035.6 143.38 1036.16L61.378 1021.41C61.6719 1019.73 60.2023 1018.05 57.5571 1017.67L57.2632 1017.67L59.9084 939.612C60.4962 939.612 60.7901 939.425 61.378 939.425L145.144 1034.86ZM58.1449 939.612L58.4388 939.612L55.7936 1017.67C54.9119 1017.67 54.3241 1017.86 53.4423 1018.24L-3.28329 976.776L55.7936 939.052C56.6754 939.239 57.2632 939.425 58.1449 939.612ZM55.2058 938.305L-3.87112 976.029L-49.7218 942.6C-49.134 942.227 -48.8401 941.853 -48.8401 941.293C-48.8401 941.106 -48.8401 940.733 -48.8401 940.546L54.0301 936.998C54.324 937.371 54.618 937.931 55.2058 938.305ZM54.3241 935.69C54.3241 935.877 54.3241 936.064 54.3241 936.251L-48.5461 939.799L-48.5461 939.612L43.7431 916.081L56.6753 933.636C55.4997 934.01 54.618 934.757 54.3241 935.69ZM125.158 906.744C124.864 907.117 124.57 907.304 124.57 907.677C124.276 908.424 124.57 909.171 124.864 909.732L63.1415 934.196C63.1415 934.196 63.1415 934.196 62.8476 934.01L106.641 901.141C107.229 901.328 107.816 901.514 108.404 901.514C110.168 901.701 111.931 901.328 113.107 900.581L125.158 906.744ZM126.039 905.997L113.989 900.207C114.283 899.834 114.577 899.647 114.577 899.273C114.871 898.34 114.577 897.593 113.989 896.846L126.333 890.683L128.391 905.25C127.509 905.25 126.627 905.623 126.039 905.997ZM167.775 870.14L131.624 905.436C131.33 905.25 131.036 905.25 130.448 905.25C130.154 905.25 129.86 905.25 129.566 905.25L127.215 890.309L167.775 870.14C167.775 869.953 167.775 869.953 167.775 870.14ZM166.306 866.778C166.012 867.712 166.306 868.459 166.893 869.206L127.509 889.189L115.752 811.499C116.046 811.499 116.34 811.313 116.634 811.313L168.069 865.098C167.187 865.471 166.599 866.031 166.306 866.778ZM166.306 788.529C166.599 788.529 166.599 788.529 166.893 788.529L170.42 864.351L170.126 864.351L132.505 801.041L163.66 787.408C164.248 787.969 165.13 788.342 166.306 788.529ZM162.779 783.673C162.485 783.86 162.485 784.233 162.191 784.607C161.897 785.354 162.191 786.101 162.779 786.848L131.918 800.294L106.641 758.088C107.229 757.901 107.816 757.715 108.11 757.528L162.779 783.673ZM103.408 758.275C103.702 758.275 103.702 758.275 103.996 758.275L113.107 805.15C112.519 805.337 111.637 805.523 111.05 805.71L60.7902 775.083L100.175 756.968C101.35 757.715 102.232 758.088 103.408 758.275ZM99.5869 755.287C99.5869 755.66 99.8808 756.034 99.8808 756.407L60.2024 774.522L25.5204 753.419C25.8143 753.046 26.1082 752.672 26.1082 752.299C26.1082 752.112 26.1082 751.925 26.1082 751.925L99.5869 755.287ZM102.526 752.112C101.056 752.485 99.8808 753.419 99.5869 754.353L26.4021 750.991C26.4021 750.618 26.1082 750.431 25.8143 750.058L85.1851 724.846C86.3607 726.153 89.006 726.527 91.0634 726.153L102.526 752.112ZM105.171 751.738L105.759 751.925C105.171 751.925 104.583 751.738 103.996 751.925L92.239 725.966C94.2964 725.033 95.1782 723.165 94.0025 721.671C94.0025 721.484 93.7086 721.484 93.7086 721.484L104.583 716.816L125.745 707.851C126.039 708.038 126.039 708.038 126.333 708.225C126.627 708.412 126.627 708.412 126.921 708.598L105.171 751.738ZM126.039 646.41L128.684 702.062C128.097 702.062 127.509 702.249 127.215 702.436C126.627 702.622 126.039 702.809 125.745 703.183L103.996 693.658L126.039 646.41ZM124.57 646.223L102.82 693.285L63.4354 676.103C64.0232 675.17 64.3171 674.049 63.4354 673.115L123.394 645.663C123.688 645.849 123.982 646.036 124.57 646.223ZM121.631 643.608C121.631 643.982 121.924 644.355 122.218 644.729C122.218 644.916 122.512 644.916 122.512 645.102L62.8476 672.368C62.5536 671.995 61.9658 671.808 61.3779 671.621L73.7224 641.367L121.631 643.608ZM105.465 594.679L125.157 639.873C124.864 639.873 124.57 640.06 124.276 640.06C122.806 640.62 121.631 641.554 121.631 642.488L74.0163 640.434L98.4113 580.859C98.7052 580.859 98.999 580.859 99.5869 580.859L105.465 594.679ZM96.9417 580.859L72.5468 640.434L2.59499 637.259C2.59499 636.885 2.3011 636.325 2.00716 635.951C2.00716 635.765 1.71327 635.578 1.71327 635.578L95.4721 580.486C95.766 580.673 96.3538 580.859 96.9417 580.859ZM92.8269 578.058C92.8269 578.431 93.1207 578.805 93.4147 579.179C93.7086 579.552 94.0025 579.739 94.2964 579.926L0.537613 635.018C-0.0502163 634.644 -0.638046 634.457 -1.51976 634.457L12.5881 573.016L92.8269 578.058ZM93.1208 576.377C93.1208 576.564 92.8269 576.937 92.8269 577.124L12.882 572.082L17.5847 551.539C18.4664 551.539 19.0542 551.352 19.936 551.166C20.8177 550.979 21.4055 550.605 21.6995 550.232L93.1208 576.377ZM13.176 549.671C13.7638 550.605 15.2333 551.166 16.409 551.352L11.7064 572.082L-84.9916 565.919C-84.9916 565.732 -84.9916 565.732 -84.9916 565.546L-51.1914 559.943L12.882 549.485C13.1759 549.485 13.176 549.485 13.176 549.671ZM12.882 547.057C12.5881 547.43 12.5881 547.991 12.5881 548.551L-51.7792 559.196L-85.2855 564.612C-85.2855 564.612 -85.2855 564.425 -85.5795 564.425C-85.8734 563.865 -86.4612 563.491 -87.049 563.304L-55.894 526.701L12.882 547.057ZM-55.3062 525.767L-7.98596 469.928C-7.39813 470.115 -6.81024 470.115 -5.92852 470.115L16.409 545.003C16.1151 545.003 15.8212 545.189 15.5272 545.189C14.6455 545.376 14.0577 545.936 13.4699 546.31L-55.3062 525.767ZM59.9084 529.315L21.6995 545.936C20.5238 545.189 19.0543 544.816 17.5847 544.816L-4.75286 469.928C-4.45898 469.928 -4.45898 469.741 -4.16503 469.741L59.9084 529.315ZM-9.16162 469.554L-56.4819 525.394L-84.4038 517.176C-84.1099 516.429 -84.1099 515.496 -84.6977 514.749C-84.6977 514.562 -84.9916 514.375 -84.9916 514.375L-9.16162 469.554C-9.16162 469.554 -9.4555 469.554 -9.16162 469.554ZM-10.9251 468.247C-10.6312 468.434 -10.6312 468.621 -10.3372 468.807L-85.8734 513.441C-86.4612 513.068 -87.3429 512.881 -87.9308 512.694L-80.289 459.47L-11.219 466.566C-11.5129 467.313 -11.5129 467.874 -10.9251 468.247ZM-10.9251 465.446C-11.219 465.633 -11.219 465.819 -11.219 466.193L-80.289 459.096L-77.3498 438.367C-76.762 438.367 -75.8803 438.18 -75.2924 437.993C-74.7046 437.806 -74.1168 437.62 -73.8229 437.246L-10.9251 465.446ZM9.94287 421.932C10.5307 422.679 11.4124 423.24 12.5881 423.426L-5.34069 463.392C-6.51635 463.205 -7.39813 463.392 -8.57379 463.765C-9.16162 463.952 -9.74945 464.325 -10.0433 464.512L-72.9411 436.312C-72.3533 435.752 -72.3533 435.005 -72.3533 434.445L9.94287 421.559C9.64893 421.746 9.64893 421.932 9.94287 421.932ZM9.35504 420.812L-72.9411 433.698C-72.9411 433.511 -72.9411 433.511 -73.235 433.324C-73.529 433.138 -73.8229 432.764 -74.1168 432.577L-28.56 399.709L9.94287 418.758C9.35504 419.505 9.0611 420.252 9.35504 420.812ZM40.2161 351.153L14.9394 417.264C14.0577 417.264 12.882 417.264 12.0002 417.637C11.4124 417.824 11.1185 418.011 10.8246 418.197L-27.6782 399.148L39.0404 350.78C39.6282 350.966 39.9222 351.153 40.2161 351.153ZM37.5709 349.659C37.8647 349.846 38.1587 350.219 38.1587 350.406L-28.56 398.775L-89.9882 368.334C-89.4004 367.774 -89.1064 367.027 -89.4004 366.467L36.983 349.285C37.2769 349.285 37.2769 349.472 37.5709 349.659ZM36.983 347.978C36.983 348.165 36.983 348.352 36.983 348.538L-89.4004 365.72C-89.4004 365.533 -89.6942 365.533 -89.6942 365.346C-89.6942 365.159 -89.9882 364.973 -89.9882 364.973L-44.7253 337.894L36.983 347.978ZM33.75 346.671L-43.8436 336.96L-37.3774 333.038C-35.9079 333.785 -33.5565 333.972 -31.793 333.411C-30.9113 333.038 -30.0295 332.664 -29.4417 331.917L33.75 346.671ZM-39.1409 330.61C-39.1409 330.984 -38.847 331.544 -38.5531 331.917C-38.5531 332.104 -38.2592 332.291 -38.2592 332.291L-45.3131 336.586L-114.383 327.809L-39.1409 330.61ZM-36.7896 327.622C-38.2592 328.182 -39.1409 328.929 -39.1409 329.863L-118.792 326.875C-118.792 326.501 -119.086 325.941 -119.38 325.568C-120.261 324.634 -121.437 324.074 -122.907 323.887L-104.096 228.643C-103.508 228.643 -102.92 228.643 -102.039 228.456L-36.7896 327.622ZM-105.566 228.456L-124.376 323.887C-124.67 323.887 -124.964 323.887 -124.964 323.887L-146.714 269.915L-154.649 250.306C-154.649 250.306 -154.356 250.306 -154.356 250.119C-151.71 249.372 -150.829 247.318 -152.004 245.824L-108.211 227.336C-107.623 227.896 -106.741 228.269 -105.566 228.456ZM-108.799 226.589L-152.592 245.077C-153.474 244.517 -154.649 243.957 -156.119 243.957L-157.295 219.865L-109.093 224.908C-109.387 225.468 -109.093 226.028 -108.799 226.589ZM-32.3809 224.534L-99.0996 224.908C-99.0996 224.534 -99.3935 224.161 -99.6874 223.787C-100.863 222.107 -104.096 221.546 -106.741 222.293C-107.329 222.48 -107.917 222.667 -108.211 223.04L-154.943 204.552L-32.3809 224.534ZM-31.4992 223.04C-31.793 223.227 -31.793 223.414 -32.087 223.601L-154.356 203.618C-154.356 203.058 -154.356 202.311 -154.943 201.75C-154.943 201.564 -155.237 201.564 -155.237 201.377L-111.738 177.659L-31.4992 223.04ZM-20.6243 130.224L-27.6782 221.546C-28.2661 221.546 -28.8539 221.733 -29.7357 221.92C-30.0296 222.107 -30.3234 222.106 -30.9113 222.293L-110.562 177.286L-22.9756 129.477C-22.3878 129.85 -21.506 130.037 -20.6243 130.224ZM-24.4452 128.543C-24.4452 128.73 -24.1513 128.73 -24.1513 128.917L-111.738 176.726L-144.656 158.05C-143.775 157.303 -143.481 156.369 -143.775 155.436L-24.4452 128.543C-24.4452 128.356 -24.4452 128.356 -24.4452 128.543ZM-24.7391 127.609L-144.362 154.689C-144.656 154.315 -144.95 154.128 -145.244 153.942L-77.056 101.651L-24.4452 125.368C-24.7391 125.929 -25.033 126.862 -24.7391 127.609ZM45.2126 119.766L-14.746 125.929C-14.746 125.742 -15.0399 125.555 -15.0399 125.368C-15.6278 124.808 -16.2156 124.435 -16.8034 124.061L9.94285 84.8429L46.9761 116.964C45.8005 117.712 45.2126 118.832 45.2126 119.766ZM63.7293 6.59336L50.5031 116.217C49.6214 116.217 49.0335 116.404 48.1518 116.591L10.5307 84.0959L63.4353 6.59336C63.4353 6.4066 63.4353 6.59336 63.7293 6.59336ZM60.2023 4.72581C60.7901 5.28599 61.378 5.65953 62.2597 6.03306L9.64891 83.1621L-55.8941 26.5759C-54.7184 25.829 -54.1306 24.8951 -54.4245 23.7746L59.9084 4.53904C59.9084 4.72581 59.9084 4.72581 60.2023 4.72581Z" fill="url(#paint0_linear_156_2735)" fill-opacity="0.3"/>
<defs>
<linearGradient id="paint0_linear_156_2735" x1="-200.756" y1="1105.9" x2="-200.756" y2="179.626" gradientUnits="userSpaceOnUse">
<stop stop-color="#202932" stop-opacity="0"/>
<stop offset="0.1801" stop-color="#425667"/>
<stop offset="0.486" stop-color="#FEBA00"/>
<stop offset="0.784108" stop-color="#425667"/>
<stop offset="0.810151" stop-color="#425667"/>
<stop offset="0.9994" stop-color="#425667" stop-opacity="0"/>
</linearGradient>
</defs>
</svg>
