<svg width="16" height="12" viewBox="0 0 16 12" fill="none" xmlns="http://www.w3.org/2000/svg">
<path d="M8.89532 2.02342C8.73252 1.86063 8.65113 1.67458 8.65113 1.46528C8.65113 1.23272 8.73252 1.02341 8.89532 0.837365L9.48834 0.279222C9.65113 0.0931743 9.83718 0.000150442 10.0465 0.000150442C10.279 0.000150442 10.4767 0.0931743 10.6395 0.279222L15.3837 4.98855C15.5465 5.15135 15.6279 5.34902 15.6279 5.58158C15.6279 5.81414 15.5465 6.01182 15.3837 6.17461L10.6395 10.8839C10.4767 11.07 10.279 11.163 10.0465 11.163C9.83718 11.163 9.65113 11.07 9.48834 10.8839L8.89532 10.3258C8.73252 10.1397 8.65113 9.94207 8.65113 9.73277C8.65113 9.50021 8.73252 9.30253 8.89532 9.13974L11.1628 6.8374H0.837126C0.604566 6.8374 0.40689 6.75601 0.244099 6.59321C0.081307 6.43042 -8.88109e-05 6.23275 -8.88109e-05 6.00019V5.16297C-8.88109e-05 4.93041 0.081307 4.73274 0.244099 4.56995C0.40689 4.40715 0.604566 4.32576 0.837126 4.32576H11.1628L8.89532 2.02342Z" fill="white"/>
</svg>
