<svg width="60" height="60" viewBox="0 0 60 60" fill="none" xmlns="http://www.w3.org/2000/svg">
<mask id="mask0_156_3894" style="mask-type:luminance" maskUnits="userSpaceOnUse" x="0" y="0" width="60" height="60">
<path d="M0 7.62939e-06H60V60H0V7.62939e-06Z" fill="white"/>
</mask>
<g mask="url(#mask0_156_3894)">
<path d="M56.4014 19.0552C56.182 19.0049 56.0006 18.8458 55.9411 18.6288C55.5021 17.0295 53.9832 15.9491 52.3225 16.0645C52.0348 16.0845 51.7811 15.8894 51.7075 15.6106C51.256 13.8986 49.5628 12.7724 47.7938 13.0435C47.5044 13.0879 47.2209 12.9292 47.1213 12.6538C46.2929 10.3649 44.1007 8.7291 41.5258 8.7291C39.1865 8.7291 37.164 10.0802 36.1924 12.044C36.7002 12.7482 37.1146 13.5239 37.4152 14.3547C37.574 14.7933 38.0254 15.0462 38.4867 14.9754C41.3041 14.5437 44.0012 16.3374 44.7206 19.0643C44.8377 19.5084 45.242 19.8193 45.7003 19.7874C48.3453 19.6036 50.7644 21.3243 51.4637 23.8717C51.5587 24.2175 51.8476 24.4709 52.197 24.5509C53.2041 24.7818 54.1072 25.285 54.8251 25.9785H55.5568C57.5098 25.9785 59.1454 24.3804 59.1212 22.4276C59.1007 20.7813 57.9453 19.409 56.4014 19.0552Z" stroke="white" stroke-width="1.75781" stroke-miterlimit="10" stroke-linecap="round" stroke-linejoin="round"/>
<path d="M41.8093 38.7926C41.8093 46.0302 35.9421 51.8975 28.7045 51.8975C21.4668 51.8975 15.5996 46.0302 15.5996 38.7926C15.5996 31.555 21.4668 25.6878 28.7045 25.6878C35.9421 25.6878 41.8093 31.555 41.8093 38.7926Z" stroke="white" stroke-width="1.75781" stroke-miterlimit="10" stroke-linecap="round" stroke-linejoin="round"/>
<path d="M24.938 34.6387H29.6497C30.7968 34.6387 31.7267 35.5685 31.7267 36.7156C31.7267 37.8626 30.7968 38.7925 29.6497 38.7925H26.2399" stroke="#F3BB2B" stroke-width="1.75781" stroke-miterlimit="10" stroke-linecap="round" stroke-linejoin="round"/>
<path d="M24.938 42.9463H30.3938C31.5408 42.9463 32.4706 42.0164 32.4706 40.8694C32.4706 39.7223 31.5408 38.7926 30.3938 38.7926H26.2399" stroke="#F3BB2B" stroke-width="1.75781" stroke-miterlimit="10" stroke-linecap="round" stroke-linejoin="round"/>
<path d="M26.085 34.6388V42.9463" stroke="#F3BB2B" stroke-width="1.75781" stroke-miterlimit="10" stroke-linecap="round" stroke-linejoin="round"/>
<path d="M26.7593 34.6387V32.7013" stroke="#F3BB2B" stroke-width="1.75781" stroke-miterlimit="10" stroke-linecap="round" stroke-linejoin="round"/>
<path d="M29.479 34.6387V32.7013" stroke="#F3BB2B" stroke-width="1.75781" stroke-miterlimit="10" stroke-linecap="round" stroke-linejoin="round"/>
<path d="M26.7593 44.8838V42.9464" stroke="#F3BB2B" stroke-width="1.75781" stroke-miterlimit="10" stroke-linecap="round" stroke-linejoin="round"/>
<path d="M29.479 44.8838V42.9464" stroke="#F3BB2B" stroke-width="1.75781" stroke-miterlimit="10" stroke-linecap="round" stroke-linejoin="round"/>
<path d="M26.6536 29.2442C22.245 30.1866 18.9385 34.1027 18.9385 38.7927C18.9385 44.1862 23.3109 48.5586 28.7044 48.5586C34.098 48.5586 38.4703 44.1862 38.4703 38.7927C38.4703 34.1027 35.1638 30.1866 30.7552 29.2442" stroke="white" stroke-width="1.75781" stroke-miterlimit="10" stroke-linecap="round" stroke-linejoin="round"/>
<path d="M56.2744 28.3242C55.6866 26.4462 54.1341 24.9948 52.1967 24.5509C51.8472 24.4708 51.5584 24.2174 51.4633 23.8716C50.7642 21.3243 48.3451 19.6035 45.6998 19.7872C45.2417 19.8191 44.8373 19.5083 44.7202 19.0642C44.0008 16.3372 41.3037 14.5436 38.4863 14.9753C38.0251 15.0461 37.5737 14.7933 37.4149 14.3546C36.0956 10.7089 32.6036 8.10319 28.5025 8.10319C24.4149 8.10319 20.934 10.692 19.6046 14.3188C19.4533 14.7313 19.0357 14.9793 18.598 14.938C15.8605 14.6806 13.3672 16.4738 12.6852 19.0756C12.5689 19.519 12.149 19.8165 11.6916 19.7862C9.0555 19.6112 6.64308 21.327 5.94488 23.871C5.84972 24.2172 5.5605 24.4708 5.21058 24.551C2.75175 25.1148 0.911912 27.3005 0.879334 29.9226C0.840545 33.0332 3.44574 35.5786 6.5566 35.5786H15.9968C17.4297 29.8948 22.5753 25.6874 28.704 25.6874C34.8328 25.6874 39.9782 29.8948 41.4113 35.5786H50.8514C53.0646 35.5786 55.021 34.2896 55.9522 32.4258" stroke="white" stroke-width="1.75781" stroke-miterlimit="10" stroke-linecap="round" stroke-linejoin="round"/>
</g>
</svg>
