<svg width="56" height="56" viewBox="0 0 56 56" fill="none" xmlns="http://www.w3.org/2000/svg">
<g clip-path="url(#clip0_156_3943)">
<path d="M15.3618 37.8368V32.4295L19.0177 37.7235C19.0855 37.8213 19.1581 37.7734 19.1581 37.6543L19.1075 32.4194" stroke="#F3BB2B" stroke-width="1.63506" stroke-miterlimit="10" stroke-linecap="round" stroke-linejoin="round"/>
<path d="M24.9187 32.4688H22.6567V37.8368H24.9187" stroke="#F3BB2B" stroke-width="1.63506" stroke-miterlimit="10" stroke-linecap="round" stroke-linejoin="round"/>
<path d="M24.7519 35.1528H22.6567" stroke="#F3BB2B" stroke-width="1.63506" stroke-miterlimit="10" stroke-linecap="round" stroke-linejoin="round"/>
<path d="M40.2682 32.9763C40.2682 32.9763 39.2961 32.1592 38.1497 32.5045C37.0972 32.8216 36.9499 34.0353 37.7114 34.5318C37.7114 34.5318 38.4586 34.8651 39.2875 35.1709C41.2826 35.9068 40.4232 37.8369 38.817 37.8369C38.0128 37.8369 37.3377 37.4847 36.9292 37.0339" stroke="#F3BB2B" stroke-width="1.63506" stroke-miterlimit="10" stroke-linecap="round" stroke-linejoin="round"/>
<path d="M28.1914 32.4194L29.2469 37.7556C29.2857 37.8648 29.4406 37.8637 29.4779 37.7541L31.126 32.4295" stroke="#F3BB2B" stroke-width="1.63506" stroke-miterlimit="10" stroke-linecap="round" stroke-linejoin="round"/>
<path d="M31.126 32.4194L32.7699 37.7556C32.8087 37.8648 32.9636 37.8637 33.0008 37.7541L34.0606 32.4295" stroke="#F3BB2B" stroke-width="1.63506" stroke-miterlimit="10" stroke-linecap="round" stroke-linejoin="round"/>
<path d="M43.3162 45.9629H12.4936C11.5303 45.9629 10.7495 45.1821 10.7495 44.2189V26.037C10.7495 25.0739 11.5303 24.293 12.4936 24.293H43.3163C44.2795 24.293 45.0603 25.0739 45.0603 26.037V44.2189C45.0602 45.182 44.2794 45.9629 43.3162 45.9629Z" stroke="white" stroke-width="1.63506" stroke-miterlimit="10" stroke-linecap="round" stroke-linejoin="round"/>
<path d="M10.7495 27.9048H45.0602" stroke="white" stroke-width="1.63506" stroke-miterlimit="10" stroke-linecap="round" stroke-linejoin="round"/>
<path d="M10.7495 42.3516H45.0602" stroke="white" stroke-width="1.63506" stroke-miterlimit="10" stroke-linecap="round" stroke-linejoin="round"/>
<path d="M34.7019 49.5746H21.1078C19.7398 49.5746 18.4892 48.8017 17.8774 47.5781L17.0698 45.9629H38.7398L37.9322 47.5781C37.3205 48.8017 36.0699 49.5746 34.7019 49.5746Z" stroke="white" stroke-width="1.63506" stroke-miterlimit="10" stroke-linecap="round" stroke-linejoin="round"/>
<path d="M24.7437 54.9922H23.3593C22.8778 54.9922 22.4873 54.6018 22.4873 54.1202V49.5747H33.3223V54.1202C33.3223 54.6018 32.9318 54.9922 32.4503 54.9922H28.5588" stroke="white" stroke-width="1.63506" stroke-miterlimit="10" stroke-linecap="round" stroke-linejoin="round"/>
<path d="M18.3613 5.16893C16.4321 7.38814 15.2642 10.2868 15.2642 13.4582V18.8757C15.2642 20.8146 15.7013 22.6512 16.4813 24.2932H39.3285C40.1087 22.6512 40.5457 20.8146 40.5457 18.8757V13.4582C40.5459 6.47687 34.8864 0.817383 27.905 0.817383C25.4753 0.817383 23.2056 1.50291 21.279 2.69105" stroke="white" stroke-width="1.63506" stroke-miterlimit="10" stroke-linecap="round" stroke-linejoin="round"/>
<path d="M18.8755 15.2638C18.8755 14.2665 19.684 13.458 20.6812 13.458C21.6785 13.458 22.487 14.2665 22.487 15.2638" stroke="white" stroke-width="1.63506" stroke-miterlimit="10" stroke-linecap="round" stroke-linejoin="round"/>
<path d="M22.4873 9.84629C22.4873 8.84901 23.2958 8.04053 24.2931 8.04053C25.2903 8.04053 26.0988 8.84901 26.0988 9.84629" stroke="white" stroke-width="1.63506" stroke-miterlimit="10" stroke-linecap="round" stroke-linejoin="round"/>
<path d="M26.0991 15.2638C26.0991 14.2665 26.9076 13.458 27.9049 13.458C28.9022 13.458 29.7106 14.2665 29.7106 15.2638" stroke="white" stroke-width="1.63506" stroke-miterlimit="10" stroke-linecap="round" stroke-linejoin="round"/>
</g>
<defs>
<clipPath id="clip0_156_3943">
<rect width="55.81" height="55.81" fill="white"/>
</clipPath>
</defs>
</svg>
