<svg width="56" height="56" viewBox="0 0 56 56" fill="none" xmlns="http://www.w3.org/2000/svg">
<g clip-path="url(#clip0_156_3979)">
<path d="M8.95444 2.77832H3.18115V12.6836" stroke="white" stroke-width="1.63506" stroke-miterlimit="10" stroke-linecap="round" stroke-linejoin="round"/>
<path d="M0.817383 10.9082L3.18091 13.7923L5.54434 10.9082" stroke="white" stroke-width="1.63506" stroke-miterlimit="10" stroke-linecap="round" stroke-linejoin="round"/>
<path d="M46.8555 37.8871H52.6288V27.9819" stroke="white" stroke-width="1.63506" stroke-miterlimit="10" stroke-linecap="round" stroke-linejoin="round"/>
<path d="M54.9921 29.7573L52.6286 26.873L50.2651 29.7573" stroke="white" stroke-width="1.63506" stroke-miterlimit="10" stroke-linecap="round" stroke-linejoin="round"/>
<path d="M48.2418 48.3403H34.1083L30.354 54.9921H48.2418C48.6615 54.9921 49.002 54.6518 49.002 54.2319V49.1004C49.0018 48.6806 48.6615 48.3403 48.2418 48.3403Z" stroke="white" stroke-width="1.63506" stroke-miterlimit="10" stroke-linecap="round" stroke-linejoin="round"/>
<path d="M23.7715 24.2164C25.8924 26.3373 29.331 26.3373 31.4519 24.2164C33.5728 22.0955 33.5728 18.6569 31.4519 16.536C29.331 14.4151 25.8924 14.4151 23.7715 16.536" stroke="#F3BB2B" stroke-width="1.63506" stroke-miterlimit="10" stroke-linecap="round" stroke-linejoin="round"/>
<path d="M22.7671 14.8594V17.5408H25.4485" stroke="#F3BB2B" stroke-width="1.63506" stroke-miterlimit="10" stroke-linecap="round" stroke-linejoin="round"/>
<path d="M16.6807 54.9921H30.3538L34.1081 48.3403H7.5683C7.14852 48.3403 6.80811 48.6806 6.80811 49.1005V54.232C6.80811 54.6518 7.14842 54.9922 7.5683 54.9922H13.5195" stroke="white" stroke-width="1.63506" stroke-miterlimit="10" stroke-linecap="round" stroke-linejoin="round"/>
<path d="M44.7241 25.5956L45.0656 24.7711C45.1517 24.5632 45.2913 24.3818 45.4703 24.2455L46.9191 23.1417C47.2352 22.9008 47.4208 22.5262 47.4208 22.1287V18.5378C47.4208 18.1404 47.2353 17.7657 46.9191 17.5248L45.4703 16.4211C45.2913 16.2847 45.1517 16.1033 45.0656 15.8955L43.1774 11.337C43.0913 11.1292 43.0618 10.9021 43.092 10.6791L43.3359 8.87419C43.3891 8.48036 43.2555 8.08413 42.9744 7.80312L40.4352 5.26398C40.1542 4.98297 39.758 4.84922 39.3641 4.90241L37.5593 5.14636C37.3362 5.17656 37.1093 5.14702 36.9013 5.0609L32.3429 3.17274C32.135 3.08663 31.9536 2.94699 31.8173 2.7679L30.7135 1.31913C30.4726 1.00302 30.0979 0.817383 29.7005 0.817383H26.1096C25.7122 0.817383 25.3375 1.00291 25.0966 1.31913L23.9929 2.76779C23.8565 2.94677 23.6751 3.08641 23.4672 3.17263L18.9088 5.0608C18.7009 5.14691 18.4739 5.17645 18.2509 5.14625L16.446 4.9023C16.052 4.84911 15.6559 4.98275 15.3749 5.26387L12.8358 7.80301C12.5547 8.08402 12.421 8.48025 12.4742 8.87408L12.7181 10.679C12.7482 10.902 12.7188 11.1289 12.6327 11.3369L10.7445 15.8953C10.6584 16.1032 10.5188 16.2846 10.3397 16.421L8.89091 17.5247C8.57479 17.7656 8.38916 18.1403 8.38916 18.5377V22.1286C8.38916 22.5261 8.57469 22.9008 8.89091 23.1416L10.3397 24.2454C10.5187 24.3817 10.6584 24.5631 10.7445 24.771L12.6327 29.3294C12.7188 29.5373 12.7483 29.7644 12.7181 29.9874L12.4742 31.7923C12.421 32.1861 12.5546 32.5823 12.8358 32.8633L15.3749 35.4025C15.6559 35.6835 16.0521 35.8172 16.446 35.764L18.2509 35.5201C18.4739 35.49 18.7008 35.5194 18.9088 35.6055L23.4672 37.4937C23.6751 37.5798 23.8565 37.7195 23.9929 37.8985L25.0966 39.3473C25.3375 39.6634 25.7122 39.8491 26.1096 39.8491H29.7005C30.0979 39.8491 30.4726 39.6635 30.7135 39.3473L31.8173 37.8985C31.9536 37.7196 32.135 37.5799 32.3429 37.4937L36.9013 35.6055C37.1092 35.5194 37.3362 35.4899 37.5593 35.5201L39.3641 35.764C39.7581 35.8172 40.1542 35.6836 40.4352 35.4025L42.9744 32.8633C43.2554 32.5823 43.3891 32.1861 43.3359 31.7923L43.092 29.9874C43.0619 29.7644 43.0913 29.5374 43.1774 29.3294L43.514 28.5168M20.688 12.4043C22.5929 10.6694 25.1254 9.61149 27.905 9.61149C33.8264 9.61149 38.6267 14.4118 38.6267 20.3332C38.6267 26.2546 33.8264 31.0548 27.905 31.0548C21.9836 31.0548 17.1833 26.2545 17.1833 20.3331C17.1833 18.3341 17.731 16.4631 18.6836 14.8612" stroke="white" stroke-width="1.63506" stroke-miterlimit="10" stroke-linecap="round" stroke-linejoin="round"/>
<path d="M10.624 44.5942H24.6754" stroke="white" stroke-width="1.63506" stroke-miterlimit="10" stroke-linecap="round" stroke-linejoin="round"/>
<path d="M31.1343 44.5942H45.1856" stroke="white" stroke-width="1.63506" stroke-miterlimit="10" stroke-linecap="round" stroke-linejoin="round"/>
</g>
<defs>
<clipPath id="clip0_156_3979">
<rect width="55.81" height="55.81" fill="white"/>
</clipPath>
</defs>
</svg>
