<svg width="56" height="56" viewBox="0 0 56 56" fill="none" xmlns="http://www.w3.org/2000/svg">
<g clip-path="url(#clip0_156_4008)">
<path d="M10.0669 31.5025V2.5792C10.0669 1.60562 10.8562 0.817383 11.8287 0.817383H49.047C50.0195 0.817383 50.8088 1.60562 50.8088 2.5792V8.01291" stroke="white" stroke-width="1.63535" stroke-miterlimit="10" stroke-linecap="round" stroke-linejoin="round"/>
<path d="M10.0669 47.2842V35.3184" stroke="white" stroke-width="1.63535" stroke-miterlimit="10" stroke-linecap="round" stroke-linejoin="round"/>
<path d="M50.8088 11.8286V50.8076C50.8088 53.1189 48.9347 54.9919 46.6245 54.9919" stroke="white" stroke-width="1.63535" stroke-miterlimit="10" stroke-linecap="round" stroke-linejoin="round"/>
<path d="M30.8476 47.2842H41.3389C41.9472 47.2842 42.44 47.777 42.44 48.3853V50.8078C42.44 53.1191 44.313 54.9921 46.6243 54.9921H9.18577C6.87557 54.9921 5.00146 53.1191 5.00146 50.8078V48.3853C5.00146 47.777 5.49534 47.2842 6.1026 47.2842H27.0318" stroke="white" stroke-width="1.63535" stroke-miterlimit="10" stroke-linecap="round" stroke-linejoin="round"/>
<path d="M46.4038 37.5205H14.4717" stroke="white" stroke-width="1.63535" stroke-miterlimit="10" stroke-linecap="round" stroke-linejoin="round"/>
<path d="M46.4038 41.9253H14.4717" stroke="white" stroke-width="1.63535" stroke-miterlimit="10" stroke-linecap="round" stroke-linejoin="round"/>
<path d="M46.4038 33.1162H29.8872" stroke="white" stroke-width="1.63535" stroke-miterlimit="10" stroke-linecap="round" stroke-linejoin="round"/>
<path d="M46.4038 28.7119H29.8872" stroke="white" stroke-width="1.63535" stroke-miterlimit="10" stroke-linecap="round" stroke-linejoin="round"/>
<path d="M46.4038 24.3071H29.8872" stroke="white" stroke-width="1.63535" stroke-miterlimit="10" stroke-linecap="round" stroke-linejoin="round"/>
<path d="M46.4038 19.9028H29.8872" stroke="white" stroke-width="1.63535" stroke-miterlimit="10" stroke-linecap="round" stroke-linejoin="round"/>
<path d="M19.9773 27.6103C21.1699 27.6103 22.1367 26.6435 22.1367 25.4509C22.1367 24.2583 21.1699 23.2915 19.9773 23.2915C18.7847 23.2915 17.8179 24.2583 17.8179 25.4509C17.8179 26.6435 18.7847 27.6103 19.9773 27.6103Z" stroke="#F3BB2B" stroke-width="1.63535" stroke-miterlimit="10" stroke-linecap="round" stroke-linejoin="round"/>
<path d="M25.443 32.4648C25.1207 29.7313 22.7972 27.6104 19.9771 27.6104C17.157 27.6104 14.8335 29.7313 14.5112 32.4648" stroke="#F3BB2B" stroke-width="1.63535" stroke-miterlimit="10" stroke-linecap="round" stroke-linejoin="round"/>
<path d="M14.4717 32.1986V20.8204C14.4717 20.3136 14.8825 19.9028 15.3892 19.9028H24.5651C25.0719 19.9028 25.4827 20.3136 25.4827 20.8204V32.1985C25.4827 32.7052 25.0719 33.1161 24.5651 33.1161H15.3892C14.8825 33.1161 14.4717 32.7053 14.4717 32.1986Z" stroke="#F3BB2B" stroke-width="1.63535" stroke-miterlimit="10" stroke-linecap="round" stroke-linejoin="round"/>
<path d="M27.1343 11.8293V8.52595C27.1343 6.70145 28.6131 5.22266 30.4376 5.22266C31.3493 5.22266 32.1751 5.59268 32.7731 6.19056C33.3711 6.78845 33.741 7.6143 33.741 8.52606V11.8293" stroke="white" stroke-width="1.63535" stroke-miterlimit="10" stroke-linecap="round" stroke-linejoin="round"/>
<path d="M33.9613 15.132H26.9141C26.4276 15.132 26.0332 14.7377 26.0332 14.2511V12.7095C26.0332 12.2231 26.4275 11.8286 26.9141 11.8286H33.9613C34.4477 11.8286 34.8422 12.2229 34.8422 12.7095V14.2511C34.8422 14.7377 34.4477 15.132 33.9613 15.132Z" stroke="white" stroke-width="1.63535" stroke-miterlimit="10" stroke-linecap="round" stroke-linejoin="round"/>
</g>
<defs>
<clipPath id="clip0_156_4008">
<rect width="55.81" height="55.81" fill="white"/>
</clipPath>
</defs>
</svg>
