<svg width="56" height="56" viewBox="0 0 56 56" fill="none" xmlns="http://www.w3.org/2000/svg">
<g clip-path="url(#clip0_156_4111)">
<path d="M36.5466 24.979C37.121 26.3721 37.4371 27.8982 37.4371 29.4984C37.4371 36.0615 32.1167 41.382 25.5535 41.382C18.9904 41.382 13.6699 36.0615 13.6699 29.4984C13.6699 22.9352 18.9904 17.6147 25.5535 17.6147C27.5483 17.6147 29.4275 18.1064 31.0778 18.9751" stroke="#F3BB2B" stroke-width="1.63506" stroke-miterlimit="10" stroke-linecap="round" stroke-linejoin="round"/>
<path d="M42.527 26.5053C49.4113 26.5053 54.9921 20.9245 54.9921 14.0402C54.9921 7.15598 49.4113 1.5752 42.527 1.5752C35.6428 1.5752 30.062 7.15598 30.062 14.0402C30.062 20.9245 35.6428 26.5053 42.527 26.5053Z" stroke="white" stroke-width="1.63506" stroke-miterlimit="10" stroke-linecap="round" stroke-linejoin="round"/>
<path d="M49.1875 14.1489C49.1875 17.7672 46.2543 20.7003 42.6361 20.7003C39.8116 20.7003 37.4046 18.9128 36.4844 16.4074" stroke="white" stroke-width="1.63506" stroke-miterlimit="10" stroke-linecap="round" stroke-linejoin="round"/>
<path d="M35.6909 19.8031L36.4869 16.3975L39.8925 17.1934" stroke="white" stroke-width="1.63506" stroke-miterlimit="10" stroke-linecap="round" stroke-linejoin="round"/>
<path d="M36.1826 13.01C36.6417 10.4083 38.6595 8.23685 41.4088 7.71244C44.1833 7.18322 46.8827 8.488 48.2559 10.7768" stroke="white" stroke-width="1.63506" stroke-miterlimit="10" stroke-linecap="round" stroke-linejoin="round"/>
<path d="M48.3995 7.29248L48.2557 10.7868L44.7612 10.643" stroke="white" stroke-width="1.63506" stroke-miterlimit="10" stroke-linecap="round" stroke-linejoin="round"/>
<path d="M40.0219 26.2531C40.2573 27.2973 40.3805 28.3841 40.3805 29.4981C40.3805 37.6734 33.7291 44.3248 25.5538 44.3248C17.3785 44.3248 10.7271 37.6734 10.7271 29.4981C10.7271 21.3228 17.3785 14.6714 25.5538 14.6714C27.1518 14.6714 28.692 14.9254 30.1363 15.3952" stroke="white" stroke-width="1.63506" stroke-miterlimit="10" stroke-linecap="round" stroke-linejoin="round"/>
<path d="M48.1796 25.152H48.8619C49.6511 25.152 50.2899 25.7918 50.2899 26.5799V32.416C50.2899 33.2041 49.6511 33.8429 48.8619 33.8429H45.3738C44.8539 36.2257 43.9175 38.4516 42.6411 40.4398L45.1079 42.9065C45.666 43.4646 45.666 44.3683 45.1079 44.9264L40.9821 49.0522C40.424 49.6103 39.5203 49.6103 38.9622 49.0522L36.4955 46.5854C34.5072 47.8619 32.2814 48.7982 29.8996 49.3182V52.8063C29.8996 53.5955 29.2598 54.2342 28.4717 54.2342H22.6356C21.8475 54.2342 21.2087 53.5955 21.2087 52.8063V49.3182C18.8259 48.7982 16.6001 47.8619 14.6118 46.5854L12.1451 49.0522C11.587 49.6103 10.6833 49.6103 10.1252 49.0522L5.99943 44.9264C5.44133 44.3683 5.44133 43.4646 5.99943 42.9065L8.46619 40.4398C7.18975 38.4516 6.25341 36.2257 5.73346 33.8429H2.24533C1.45615 33.8429 0.817383 33.2041 0.817383 32.416V26.5799C0.817383 25.7918 1.45615 25.152 2.24533 25.152H5.73346C6.25341 22.7703 7.18975 20.5444 8.46619 18.5562L5.99943 16.0894C5.44133 15.5313 5.44133 14.6277 5.99943 14.0696L10.1252 9.94376C10.6833 9.38566 11.587 9.38566 12.1451 9.94376L14.6118 12.4105C16.6001 11.1341 18.8259 10.1977 21.2087 9.6778V6.18967C21.2087 5.40048 21.8475 4.76172 22.6356 4.76172H28.4717C29.2598 4.76172 29.8996 5.40048 29.8996 6.18967V9.6778C30.1928 9.74211 30.4839 9.81187 30.7717 9.88817" stroke="white" stroke-width="1.63506" stroke-miterlimit="10" stroke-linecap="round" stroke-linejoin="round"/>
<path d="M25.5542 26.5171V33.7148" stroke="#F3BB2B" stroke-width="1.63506" stroke-miterlimit="10" stroke-linecap="round" stroke-linejoin="round"/>
<path d="M29.1529 30.1157H21.9551" stroke="#F3BB2B" stroke-width="1.63506" stroke-miterlimit="10" stroke-linecap="round" stroke-linejoin="round"/>
</g>
<defs>
<clipPath id="clip0_156_4111">
<rect width="55.81" height="55.81" fill="white"/>
</clipPath>
</defs>
</svg>
