<svg width="24" height="18" viewBox="0 0 24 18" fill="none" xmlns="http://www.w3.org/2000/svg">
<path d="M0 9.59174C0 10.7746 0.9625 11.7371 2.1457 11.7371H2.73297C2.804 11.7371 2.86394 11.7974 2.86394 11.8684V14.468C2.86394 14.7428 3.1994 14.8579 3.37533 14.6637L5.95031 11.9644C6.0617 11.8526 6.19878 11.7799 6.34564 11.7513V12.8247C6.34564 14.012 7.3116 14.978 8.49896 14.978H16.5742C16.7762 14.978 16.9716 15.0594 17.1095 15.2001L19.6834 17.8939C19.8556 18.1028 20.1966 17.9838 20.1966 17.7065V15.1093C20.1966 15.0369 20.2586 14.978 20.3348 14.978H20.9238C22.1884 14.978 22.8839 14.0274 22.8839 12.8314V12.1117C22.8839 13.1985 21.9439 14.0799 20.7763 14.0799H20.1447C19.9612 14.0799 19.8143 14.2194 19.8143 14.3883V16.988C19.8143 17.0981 19.6674 17.1421 19.594 17.0615L16.8254 14.3589C16.6418 14.1827 16.3848 14.0799 16.1131 14.0799H7.44027C6.94338 14.0799 6.70043 13.279 6.70043 12.8247V11.7371H13.4958C13.5938 11.7371 13.6732 11.6578 13.6732 11.5597C13.6732 11.4616 13.5938 11.3823 13.4958 11.3823H6.48561C6.19181 11.3823 5.91255 11.5001 5.6967 11.7167L3.21873 14.3142V11.8684C3.21873 11.6002 3.0008 11.3823 2.73297 11.3823H2.1457C1.15826 11.3823 0.354788 10.5792 0.354788 9.59174V2.14536C0.354788 1.15791 1.15826 0.354788 2.1457 0.354788H14.5782C15.5656 0.354788 16.3691 1.15791 16.3691 2.14536V9.58446C16.3691 10.5757 15.559 11.3823 14.5636 11.3823H14.4389C14.3408 11.3823 14.2615 11.4616 14.2615 11.5597C14.2615 11.6578 14.3408 11.7371 14.4389 11.7371H14.5636C15.5839 11.7371 16.4392 11.0278 16.6642 10.0785H20.7391C20.8372 10.0785 20.9165 9.99919 20.9165 9.90114C20.9165 9.80308 20.8372 9.72374 20.7391 9.72374H16.7168C16.7311 9.49926 16.7194 9.85548 16.7239 7.60922H20.7391C20.8372 7.60922 20.9165 7.52988 20.9165 7.43183C20.9165 7.33378 20.8372 7.25444 20.7391 7.25444H16.7239V3.59292H20.9238C21.9057 3.59292 22.7047 4.39673 22.7047 5.38452V11.682C22.7047 11.7801 22.784 11.8594 22.8821 11.8594C22.9801 11.8594 23.0595 11.7801 23.0595 11.682V5.38452C23.0595 4.20098 22.1015 3.23813 20.9238 3.23813H16.7239V2.14536C16.7239 0.9625 15.7614 0 14.5782 0H2.1457C0.9625 0 0 0.9625 0 2.14536V9.59174Z" fill="white"/>
<path d="M8.94138 5.67383L7.66602 5.69601L7.68923 7.02299L8.96459 7.00082C9.14476 6.9977 9.31003 6.92633 9.42887 6.79987C9.83106 6.37408 9.54845 5.67216 8.94138 5.67383Z" fill="white"/>
<path d="M8.91404 4.01953L7.63867 4.04171L7.66141 5.34167L8.93552 5.31949C9.8624 5.29351 9.75789 4.02729 8.91404 4.01953Z" fill="white"/>
<path d="M6.20498 2.06139C4.28085 3.25256 3.68665 5.778 4.87778 7.70213C6.06891 9.62635 8.59438 10.2205 10.5186 9.02938C12.4427 7.83821 13.0369 5.31277 11.8458 3.38864C10.6546 1.46446 8.12916 0.870217 6.20498 2.06139ZM9.02977 7.34946L9.03648 7.73842C9.03822 7.83647 8.96026 7.9172 8.86221 7.91893C8.86117 7.91893 8.86013 7.91893 8.85909 7.91893C8.76242 7.91893 8.68343 7.84167 8.6817 7.74466L8.67507 7.36137L8.28252 7.36822L8.28914 7.75159C8.29087 7.84964 8.21292 7.93037 8.11487 7.9321C8.11383 7.9321 8.11279 7.9321 8.11175 7.9321C8.01508 7.9321 7.93609 7.85484 7.93436 7.75782L7.92773 7.37441C7.7605 7.37717 6.93858 7.39074 6.99126 7.38987C6.99022 7.38987 6.98918 7.38987 6.98814 7.38987C6.75516 7.38987 6.75257 7.03919 6.98502 7.03508L7.33426 7.02885C7.33366 6.99326 7.27991 3.84765 7.28333 4.04815C7.2472 4.04879 7.41423 4.04581 6.92993 4.05438C6.69695 4.05438 6.69436 3.7037 6.92681 3.6996C6.96324 3.69895 7.89283 3.68258 7.83418 3.68361L7.82833 3.35208C7.8266 3.25403 7.90456 3.1733 8.00261 3.17157C8.08368 3.1733 8.18139 3.2478 8.18312 3.34585L8.18897 3.67742L8.58152 3.67058L8.57568 3.33926C8.57394 3.24121 8.6519 3.16048 8.74995 3.15875H8.75307C8.84973 3.15875 8.92873 3.23602 8.93046 3.33303L8.9364 3.66781C9.95873 3.70745 10.2899 4.95753 9.52635 5.4974C10.3206 6.04401 9.98361 7.27886 9.02977 7.34946Z" fill="white"/>
<path d="M1.42578 3.68325V6.85278C1.42578 6.95083 1.50512 7.03017 1.60318 7.03017C1.70123 7.03017 1.78057 6.95083 1.78057 6.85278V3.68325C1.78057 3.5852 1.70123 3.50586 1.60318 3.50586C1.50512 3.50586 1.42578 3.5852 1.42578 3.68325Z" fill="white"/>
<path d="M15.0853 9.32641V6.15689C15.0853 6.05883 15.0059 5.97949 14.9079 5.97949C14.8098 5.97949 14.7305 6.05883 14.7305 6.15689V9.32641C14.7305 9.42447 14.8098 9.50381 14.9079 9.50381C15.0059 9.50381 15.0853 9.42447 15.0853 9.32641Z" fill="white"/>
</svg>
