<svg width="16" height="16" viewBox="0 0 16 16" fill="none" xmlns="http://www.w3.org/2000/svg">
<path d="M6 14C5.39988 14 4.6705 14 3.99975 14C2.89518 14 2 13.1046 2 12V4C2 2.89543 2.89543 2 4 2H12C13.1046 2 14 2.89543 14 4V6" stroke="#8C8C8C" stroke-opacity="0.6" stroke-width="1.4" stroke-linecap="round" stroke-linejoin="round"/>
<path d="M7.61616 7.41392C7.88782 7.23485 8.25698 7.2647 8.49604 7.50376C8.73494 7.74284 8.76493 8.11205 8.58588 8.38364L8.49604 8.49399L8.19233 8.7977H11.8134C13.4259 8.79777 14.7011 10.1381 14.7011 11.7479C14.7011 13.3577 13.4259 14.698 11.8134 14.6981H10.0009L9.8603 14.6834C9.54113 14.6183 9.30073 14.3363 9.30073 13.9979C9.30073 13.6113 9.61432 13.2977 10.0009 13.2977H11.8134C12.6158 13.2976 13.3007 12.622 13.3007 11.7479C13.3007 10.8738 12.6158 10.1982 11.8134 10.1981H8.19038L8.49604 10.5038C8.76921 10.7771 8.76934 11.2207 8.49604 11.494C8.22274 11.7673 7.77919 11.7672 7.50581 11.494L6.00581 9.99399C5.73244 9.72063 5.73244 9.27713 6.00581 9.00376L7.50581 7.50376L7.61616 7.41392Z" fill="#8C8C8C" fill-opacity="0.6"/>
</svg>
