<svg width="16" height="16" viewBox="0 0 16 16" fill="none" xmlns="http://www.w3.org/2000/svg">
<path d="M5.00391 3.51562C5.27706 3.5717 5.48231 3.8138 5.48242 4.10352C5.48242 4.39333 5.27713 4.63532 5.00391 4.69141L4.88281 4.70312H4.10352C3.57446 4.70334 3.14466 5.133 3.14453 5.66211V11.8955C3.14453 12.4247 3.57436 12.8543 4.10352 12.8545H10.3369C10.8663 12.8545 11.2959 12.4248 11.2959 11.8955V11.1162C11.2962 10.7852 11.5645 10.5168 11.8955 10.5166C12.2267 10.5166 12.4948 10.7851 12.4951 11.1162V11.8955C12.4951 13.0876 11.529 14.0537 10.3369 14.0537H4.10352C2.91162 14.0535 1.94531 13.0875 1.94531 11.8955V5.66211C1.94544 4.47029 2.91169 3.50412 4.10352 3.50391H4.88281L5.00391 3.51562ZM11.8965 1.94531C13.0882 1.94559 14.0545 2.91179 14.0547 4.10352V7.2207C14.0544 8.41239 13.0882 9.37862 11.8965 9.37891H8.7793C7.58737 9.37891 6.62134 8.41257 6.62109 7.2207V4.10352C6.6213 2.91162 7.58735 1.94531 8.7793 1.94531H11.8965ZM8.7793 3.14453C8.25009 3.14453 7.82052 3.57436 7.82031 4.10352V7.2207C7.82056 7.74983 8.25012 8.17871 8.7793 8.17871H11.8965C12.4254 8.17843 12.8542 7.74965 12.8545 7.2207V4.10352C12.8543 3.57454 12.4254 3.14481 11.8965 3.14453H8.7793Z" fill="#8C8C8C" fill-opacity="0.6"/>
</svg>
