<svg width="51" height="64" viewBox="0 0 51 64" fill="none" xmlns="http://www.w3.org/2000/svg">
<path d="M26.4164 22.891L50.3748 11.2988L50.4681 38.8809C50.4776 41.6844 48.1263 45.1041 45.2081 46.516L11.1455 62.9971C8.2342 64.4058 5.8606 63.2722 5.85112 60.4687L5.75781 32.8866L10.0531 30.8084C10.6396 30.5246 11.1152 29.8342 11.1133 29.2695L11.1079 27.6741C11.105 26.8205 11.8186 25.7847 12.6981 25.3592L22.6796 20.5297C23.3001 20.2294 23.8604 20.3069 24.128 20.7167L25.453 22.7653C25.6314 23.0407 26.0073 23.089 26.4164 22.891Z" fill="white"/>
<path d="M50.4731 38.8813C50.4731 41.6888 48.1293 45.1014 45.2054 46.52L11.149 62.9978C8.23703 64.4065 5.85768 63.2756 5.84583 60.4681L5.83398 56.6289C15.7302 58.1963 27.2481 55.4186 36.1854 48.4644C48.7448 38.7127 51.9054 24.11 44.2347 14.2788L50.3783 11.3027L50.4731 38.8813Z" fill="#E9EDF4"/>
<path d="M7.39757 63.3055L2.1181 60.7362C1.17104 60.2798 0.591017 59.2977 0.579167 57.899L0.484375 30.3203L5.75199 32.8897L5.84679 60.4683C5.85864 61.8572 6.43866 62.8393 7.39757 63.3055Z" fill="#E8B72D"/>
<path d="M45.0628 3.57026C47.981 2.15833 50.3546 3.29188 50.3641 6.10195L50.3816 11.2953L26.4164 22.8909C26.0073 23.0888 25.6314 23.0405 25.453 22.7651L24.128 20.7165C23.8604 20.3067 23.3001 20.2292 22.6796 20.5295L12.6981 25.359C11.8186 25.7845 11.105 26.8203 11.1079 27.6739L11.1133 29.2693C11.1152 29.834 10.6396 30.5244 10.0531 30.8082L5.75783 32.8864L5.74026 27.693C5.73937 27.4296 5.75921 27.1608 5.79849 26.8887C6.1777 24.2589 8.36247 21.3276 11.0071 20.048L45.0628 3.57026Z" fill="white"/>
<path d="M1.36047 21.8679C1.10008 22.344 0.898932 22.8401 0.756744 23.3262C0.721197 23.4452 0.68565 23.5742 0.661951 23.6932C0.638542 23.7329 0.638542 23.7825 0.626694 23.8222C0.602995 23.9115 0.591147 24.0007 0.579297 24.0801C0.555599 24.1595 0.54375 24.2389 0.531901 24.3182C0.496354 24.596 0.472656 24.8638 0.472656 25.1317L0.484505 30.32L5.75212 32.8894L5.74027 27.6911C5.74027 27.4332 5.76397 27.1653 5.79952 26.8876C5.82322 26.719 5.85877 26.5602 5.89431 26.3916C5.89431 26.3916 5.89431 26.3916 5.89431 26.3816C5.92986 26.2328 5.96541 26.084 6.01251 25.9253C6.05991 25.7467 6.11916 25.5682 6.19025 25.3896C6.24949 25.221 6.32059 25.0523 6.40324 24.8837C6.51133 24.6399 6.65063 24.3955 6.78559 24.1522L1.5119 21.5898C1.45988 21.6815 1.40382 21.7711 1.36047 21.8679Z" fill="#F4C531"/>
<path d="M43.5492 0.698109C42.5903 0.23188 41.2644 0.2914 39.7965 1.00564L5.74009 17.4834H5.72853C5.71639 17.4933 5.70483 17.5032 5.6927 17.5032C5.37335 17.662 5.06556 17.8405 4.76963 18.039L4.3078 18.3663C3.77517 18.7631 3.27809 19.2194 2.83997 19.7254C2.72177 19.8643 2.60328 19.9932 2.49663 20.1321C2.39028 20.271 2.28364 20.4099 2.17729 20.5488C2.07065 20.6877 1.97585 20.8364 1.88135 20.9753C1.77471 21.1242 1.69177 21.2729 1.60882 21.4118C1.57183 21.47 1.54495 21.5314 1.51172 21.5902L6.78541 24.1525C6.84263 24.0494 6.88771 23.9428 6.94754 23.8423C7.04233 23.7034 7.12527 23.5645 7.21978 23.4356C7.31457 23.2769 7.43306 23.128 7.55126 22.9693C7.6579 22.8205 7.77639 22.6717 7.90644 22.5229C8.03678 22.3642 8.16683 22.2154 8.32087 22.0666C8.43907 21.9277 8.56941 21.7988 8.71131 21.6698C8.8298 21.5507 8.948 21.4416 9.07834 21.3325C9.26764 21.1738 9.45722 21.0151 9.64651 20.8762C9.9306 20.6678 10.2147 20.4793 10.5106 20.3107C10.6647 20.2214 10.8066 20.1421 10.9606 20.0726C10.9725 20.0627 10.9843 20.0627 10.9962 20.0528H11.008L45.0644 3.57504C46.532 2.86074 47.8579 2.79129 48.8168 3.25758L43.5492 0.698109Z" fill="#FFD63C"/>
<path d="M8.77904 64.0005C8.19442 64.0005 7.65008 63.8848 7.16559 63.6514C6.01823 63.0978 5.38413 61.9684 5.37837 60.4697L5.28516 32.8877C5.28516 32.7459 5.37492 32.6157 5.52107 32.5444L9.81592 30.466C10.2567 30.2529 10.6422 29.6954 10.6399 29.2711L10.6353 27.6749C10.6319 26.6816 11.4328 25.5146 12.4605 25.0169L22.4427 20.188C22.8996 19.9671 23.353 19.9006 23.7581 19.9941C24.093 20.0732 24.3634 20.2574 24.5406 20.5284L25.8664 22.5779C25.9504 22.6222 26.0493 22.6126 26.1794 22.5489L50.1382 10.9564C50.2855 10.8869 50.4639 10.8869 50.6089 10.9564C50.7551 11.0268 50.8448 11.157 50.846 11.2978L50.9392 38.8807C50.9484 41.8088 48.4834 45.3878 45.4429 46.8586L11.3799 63.3399C10.4719 63.7787 9.58691 64.0005 8.77904 64.0005ZM6.22883 33.1144L6.32204 60.4678C6.32549 61.6724 6.79158 62.5597 7.63512 62.9666C8.48213 63.3727 9.64675 63.2666 10.908 62.6551L44.9711 46.1738C47.7503 44.8294 50.0047 41.559 49.9955 38.8827L49.9046 11.9816L26.6512 23.2337C26.3094 23.3976 25.9642 23.4497 25.6523 23.3735C25.3922 23.3118 25.1736 23.1633 25.0378 22.955L23.712 20.9055C23.6591 20.8255 23.5912 20.7753 23.5037 20.7551C23.3507 20.7204 23.1389 20.7628 22.9145 20.8718L12.9323 25.7017C12.1958 26.0576 11.5755 26.9603 11.579 27.673L11.5836 29.2691C11.5859 29.9713 11.0162 30.7978 10.2878 31.1508L6.22883 33.1144Z" fill="black"/>
<path d="M7.39766 63.7016C7.3171 63.7016 7.23539 63.6843 7.16059 63.6476L1.88065 61.0774C0.750543 60.5335 0.119896 59.4051 0.107237 57.9025L0.0117188 30.3214C0.0117188 30.1797 0.101483 30.0495 0.247636 29.9781C0.394941 29.9087 0.573317 29.9077 0.720622 29.9791L5.98906 32.5483C6.13406 32.6187 6.22268 32.748 6.22383 32.8888L6.31819 60.4679C6.3274 61.6696 6.79578 62.5568 7.63473 62.9648C7.85914 63.0738 7.93624 63.3159 7.80505 63.5049C7.71759 63.6312 7.55993 63.7016 7.39766 63.7016ZM0.95769 31.0081L1.05091 57.8986C1.06011 59.1071 1.52274 59.9934 2.35248 60.3936L5.64957 61.9984C5.47349 61.549 5.37913 61.0369 5.37452 60.4717L5.28131 33.1174L0.95769 31.0081Z" fill="black"/>
<path d="M5.75783 33.282C5.67612 33.282 5.59556 33.2636 5.52306 33.2289C5.37691 33.1585 5.28714 33.0283 5.28599 32.8875L5.26758 27.694C5.26758 27.4143 5.28829 27.1298 5.32972 26.8414C5.73481 24.0359 8.02378 21.0355 10.7708 19.7055L44.8269 3.2281C46.3932 2.47102 47.8915 2.35721 49.0481 2.91466C50.1955 3.46825 50.8296 4.59954 50.8353 6.10117L50.8537 11.2947C50.8537 11.4364 50.764 11.5666 50.6178 11.638L26.6521 23.2335C26.308 23.3984 25.9627 23.4505 25.6531 23.3733C25.3931 23.3116 25.1744 23.1631 25.0386 22.9547L23.7129 20.9053C23.6599 20.8253 23.592 20.7751 23.5046 20.7549C23.3515 20.7201 23.1398 20.7626 22.9154 20.8716L12.9332 25.7015C12.1966 26.0573 11.5764 26.9601 11.5798 27.6728L11.5844 29.2689C11.5867 29.971 11.0171 30.7976 10.2886 31.1505L5.99374 33.2289C5.92009 33.2636 5.83953 33.282 5.75783 33.282ZM47.4312 3.35637C46.7879 3.35637 46.0617 3.54347 45.2987 3.91286L11.2426 20.3903C8.77182 21.5852 6.63245 24.3995 6.26649 26.9359C6.22966 27.1915 6.21125 27.4452 6.21125 27.693L6.22621 32.2037L9.81676 30.4658C10.2575 30.2527 10.643 29.6952 10.6407 29.2709L10.6361 27.6747C10.6327 26.6813 11.4337 25.5144 12.4613 25.0167L22.4435 20.1878C22.9004 19.9669 23.3538 19.9004 23.7589 19.9939C24.0938 20.073 24.3642 20.2572 24.5415 20.5282L25.8672 22.5776C25.9512 22.622 26.0502 22.6124 26.1814 22.5487L49.9101 11.068L49.8917 6.1031C49.8882 4.89562 49.421 4.00641 48.5774 3.59941C48.2402 3.43739 47.8536 3.35637 47.4312 3.35637Z" fill="black"/>
<path d="M5.75178 33.284C5.67007 33.284 5.58837 33.2657 5.51471 33.23L0.246275 30.6607C0.101272 30.5903 0.012659 30.4601 0.0115082 30.3203L0 25.1316C0 24.85 0.025318 24.5684 0.0621441 24.2771C0.0805572 24.1566 0.0955177 24.0688 0.121987 23.981C0.12659 23.9212 0.141551 23.8277 0.166868 23.7341C0.173773 23.6927 0.18298 23.6416 0.203695 23.5866C0.230163 23.4699 0.264688 23.3455 0.299212 23.2297C0.449969 22.708 0.66172 22.1978 0.924106 21.7136C0.960932 21.6355 1.00351 21.5613 1.04724 21.487C1.10363 21.3877 1.22792 21.2787 1.35336 21.2469C1.4788 21.2131 1.63416 21.1909 1.74694 21.2478L7.02113 23.8103C7.23288 23.9126 7.31574 24.1334 7.21217 24.3196C7.06141 24.5886 6.93942 24.8056 6.84391 25.0207C6.76335 25.1885 6.6966 25.3448 6.64136 25.502C6.57116 25.6785 6.51592 25.8443 6.47219 26.0102C6.42386 26.1722 6.38933 26.315 6.35596 26.4587C6.31453 26.6631 6.28576 26.7933 6.26735 26.9322C6.23397 27.1926 6.21096 27.4463 6.21096 27.6903L6.22362 32.8876C6.22362 33.0294 6.13385 33.1606 5.9877 33.231C5.91405 33.2657 5.83349 33.284 5.75178 33.284ZM0.954027 30.0917L5.2788 32.201L5.26729 27.6912C5.26729 27.4193 5.29261 27.1367 5.33058 26.8445C5.3513 26.6873 5.38237 26.5407 5.41574 26.3883C5.46868 26.1491 5.50551 25.9948 5.55384 25.8289C5.60218 25.6476 5.66662 25.4566 5.74142 25.2657C5.80127 25.0959 5.87722 24.9146 5.96468 24.7343C6.02568 24.5973 6.09933 24.4555 6.17643 24.3128L1.72507 22.1496C1.51217 22.5566 1.3407 22.9828 1.21411 23.4188C1.18074 23.5306 1.14736 23.6502 1.1255 23.7592C1.11744 23.7959 1.10363 23.8325 1.08407 23.8663C1.06796 23.9753 1.05875 24.0408 1.0507 24.1006C1.01847 24.2337 1.01042 24.2916 1.00121 24.3475C0.966686 24.6224 0.94367 24.877 0.94367 25.1307L0.954027 30.0917Z" fill="black"/>
<path d="M36.6202 11.8428C37.2889 11.5193 37.8264 11.7869 37.8286 12.4235C37.8308 13.0676 37.2968 13.8463 36.6281 14.1698C35.9632 14.4915 35.4182 14.2349 35.416 13.5908C35.4139 12.9542 35.9553 12.1645 36.6202 11.8428Z" fill="black"/>
<path d="M41.1124 9.669C41.7811 9.34546 42.3186 9.61307 42.3208 10.2497C42.3229 10.8938 41.789 11.6725 41.1203 11.996C40.4554 12.3177 39.9104 12.0611 39.9082 11.417C39.9061 10.7804 40.4475 9.9907 41.1124 9.669Z" fill="black"/>
<path d="M45.6046 7.49518C46.2733 7.17163 46.8108 7.43924 46.8129 8.07583C46.8151 8.71996 46.2812 9.49865 45.6125 9.82219C44.9476 10.1439 44.4026 9.88727 44.4004 9.24313C44.3982 8.60655 44.9397 7.81687 45.6046 7.49518Z" fill="black"/>
<path d="M6.78448 24.5477C6.70278 24.5477 6.62107 24.5294 6.54857 24.4937L1.27437 21.9312C1.06147 21.828 0.979765 21.6062 1.08449 21.42C1.13858 21.3159 1.16275 21.2696 1.19152 21.2252L1.2433 21.1384C1.3135 21.0198 1.38715 20.8963 1.47462 20.7729L1.54021 20.6745C1.61617 20.5617 1.69442 20.4459 1.77843 20.335L2.09951 19.9174C2.17316 19.821 2.25257 19.7294 2.33313 19.6358L2.45281 19.4969C2.90738 18.9732 3.4241 18.4949 3.99375 18.0705L4.46444 17.7368C4.78091 17.5237 5.10889 17.3327 5.44954 17.163C5.45299 17.1611 5.45759 17.1591 5.46104 17.1582C5.48982 17.1418 5.52089 17.1273 5.55311 17.1167L39.5597 0.663359C41.1249 -0.0975834 42.6255 -0.209458 43.7832 0.356667L49.0517 2.91629C49.2761 3.02527 49.3543 3.26734 49.2232 3.45637C49.092 3.64348 48.802 3.71002 48.5798 3.59911C47.734 3.1873 46.5659 3.30206 45.3 3.91641L11.2427 20.3948C11.2278 20.4016 11.2128 20.4083 11.1979 20.4131C11.1933 20.416 11.1875 20.418 11.1829 20.4209C11.0437 20.4835 10.9159 20.5549 10.7778 20.635C10.4936 20.797 10.2254 20.9764 9.95614 21.1731C9.77316 21.3072 9.59248 21.4586 9.41065 21.6119C9.29096 21.7122 9.18164 21.8125 9.07231 21.9225C8.92846 22.0537 8.80992 22.1704 8.7029 22.2957C8.53258 22.4626 8.41404 22.6005 8.29321 22.7461C8.16431 22.8946 8.05384 23.0345 7.95371 23.1734L7.87776 23.2746C7.7926 23.3875 7.70859 23.4965 7.64069 23.6112C7.56819 23.7135 7.51986 23.7868 7.47152 23.862L7.35414 24.0394C7.34033 24.0655 7.31501 24.1166 7.28969 24.1677L7.21259 24.3172C7.15735 24.4185 7.05378 24.4947 6.92719 24.5284C6.88115 24.5409 6.83282 24.5477 6.78448 24.5477ZM2.12253 21.4306L6.57158 23.5929L6.64408 23.4839C6.70047 23.3962 6.75686 23.3103 6.81671 23.2283C6.87885 23.1203 6.97782 22.9882 7.08024 22.8522L7.15044 22.7596C7.25977 22.6063 7.38636 22.4491 7.52446 22.2899C7.6568 22.1279 7.79835 21.9669 7.96407 21.8068C8.06649 21.6843 8.20805 21.5425 8.36341 21.4017C8.47503 21.2879 8.60278 21.1702 8.74317 21.0526C8.94112 20.8876 9.13791 20.7227 9.33584 20.5781C9.63391 20.3591 9.93197 20.1605 10.245 19.983C10.4015 19.8923 10.5511 19.8094 10.7122 19.7361C10.7295 19.7255 10.7479 19.7168 10.764 19.7101C10.8135 19.6725 10.8434 19.6609 10.8802 19.657L44.827 3.23262C45.4347 2.93654 46.0319 2.73883 46.6027 2.63949L43.3114 1.03949C42.4575 0.623817 41.2929 0.734728 40.0327 1.34715L5.97431 17.8256C5.95705 17.8333 5.93979 17.841 5.92252 17.8468C5.62561 17.9953 5.33906 18.1621 5.06286 18.3473L4.61059 18.6675C4.10078 19.0475 3.6301 19.4834 3.21925 19.957L3.09612 20.1007C3.02592 20.1817 2.95572 20.2617 2.89127 20.3456L2.57135 20.7623C2.49884 20.8578 2.42979 20.9609 2.36305 21.0612L2.28939 21.1712C2.22495 21.2619 2.17201 21.3477 2.12253 21.4306Z" fill="black"/>
<path d="M28.0824 30.2438C34.165 27.3008 39.3724 29.0798 41.4348 30.0499C41.9889 30.3145 41.9918 31.1714 41.4413 31.9704C39.3845 34.9262 34.2138 41.7117 28.1312 44.6548C22.0563 47.5941 16.8566 45.8262 14.7866 44.8672C14.2325 44.6026 14.2296 43.7457 14.7801 42.9468C16.8292 39.9873 21.9998 33.1869 28.0824 30.2438Z" fill="#FFD63C"/>
<path d="M41.4425 31.9695C39.3813 34.9293 34.2115 41.7079 28.1284 44.6584C22.0564 47.5903 16.8535 45.8256 14.7923 44.8638C14.2352 44.6025 14.2352 43.7434 14.7811 42.9498C14.8703 42.8191 14.9704 42.6883 15.0708 42.5389C16.4188 42.7444 17.8338 42.8564 19.2822 42.8564C29.3875 42.8564 37.5762 37.5624 37.5762 31.0358C37.5762 30.2701 37.465 29.5139 37.2422 28.7949C39.0916 29.075 40.5512 29.6353 41.4311 30.046C41.9882 30.3169 41.9882 31.1758 41.4425 31.9695Z" fill="#F4C531"/>
<path d="M21.2478 46.6641C18.1797 46.6641 15.7745 45.7758 14.5592 45.2135C14.2658 45.0727 14.0609 44.8403 13.9631 44.5375C13.7985 44.0273 13.9527 43.3589 14.3728 42.7494C16.3533 39.8889 21.6287 32.9102 27.8477 29.9011C34.1818 26.8381 39.6206 28.7429 41.6667 29.7054C41.9579 29.8442 42.1616 30.0776 42.2594 30.3805C42.4239 30.8887 42.2709 31.5571 41.8508 32.1685C39.8611 35.0271 34.5662 41.9971 28.3679 44.9975C25.7958 46.2416 23.3641 46.6641 21.2478 46.6641ZM28.3195 30.5859C22.2973 33.4995 17.1313 40.3393 15.1887 43.1458C14.8999 43.5634 14.7767 44.0292 14.8734 44.3311C14.8953 44.3967 14.9378 44.4844 15.0207 44.524C16.9264 45.4074 22.0119 47.1598 27.896 44.3128C33.8998 41.4079 39.0843 34.5748 41.0349 31.7722C41.3226 31.3536 41.4469 30.8878 41.3491 30.5869C41.318 30.4904 41.2685 30.4248 41.2018 30.393C39.3018 29.498 34.2336 27.7234 28.3195 30.5859Z" fill="black"/>
<path d="M28.092 33.0413C30.6245 31.8159 32.6831 32.7926 32.6914 35.2313C32.6996 37.67 30.6543 40.6389 28.1218 41.8642C25.5962 43.0862 23.5376 42.1031 23.5293 39.6643C23.5211 37.2256 25.5664 34.2633 28.092 33.0413Z" fill="white"/>
<path d="M26.0715 42.7867C25.5536 42.7867 25.0714 42.6835 24.641 42.4771C23.6248 41.9871 23.0632 40.9889 23.0586 39.6657C23.0494 37.109 25.2014 33.9842 27.8564 32.6986C29.2397 32.0303 30.5642 31.9319 31.5862 32.4257C32.5989 32.9137 33.1593 33.91 33.1639 35.2303C33.172 37.7909 31.0165 40.9205 28.3581 42.207C27.5618 42.5928 26.7838 42.7867 26.0715 42.7867ZM28.3282 33.3834C25.9334 34.5417 23.9931 37.3588 24.0023 39.6638C24.0057 40.6929 24.3993 41.448 25.1117 41.7923C25.8286 42.1366 26.8137 42.0421 27.8863 41.5223C30.2846 40.3621 32.2283 37.5401 32.2203 35.2322C32.2168 34.206 31.8244 33.4518 31.1155 33.1104C30.3997 32.7623 29.4077 32.8597 28.3282 33.3834Z" fill="black"/>
<path d="M28.1044 35.8413C29.0285 35.3942 29.7797 35.7506 29.7827 36.6405C29.7857 37.5304 29.0394 38.6137 28.1153 39.0609C27.1937 39.5068 26.4425 39.148 26.4395 38.2581C26.4365 37.3682 27.1828 36.2872 28.1044 35.8413Z" fill="black"/>
<path d="M14.3841 38.5005C14.124 38.5005 13.9134 38.324 13.9122 38.1061L13.8984 34.1094C13.8984 33.9676 13.9882 33.8374 14.1344 33.7661L18.4511 31.6781C18.6778 31.571 18.9643 31.6337 19.0955 31.8227C19.2256 32.0118 19.1485 32.2538 18.9229 32.3628L14.8421 34.3361L14.8559 38.1041C14.8559 38.3221 14.6442 38.4995 14.3841 38.5005Z" fill="black"/>
<path d="M41.7991 25.2357C41.5391 25.2357 41.3285 25.0592 41.3273 24.8413L41.3158 21.5265L37.7057 23.2741C37.4801 23.3821 37.1924 23.3184 37.0612 23.1294C36.9312 22.9404 37.0083 22.6983 37.2338 22.5893L41.5494 20.5013C41.6967 20.4319 41.8751 20.4319 42.0201 20.5013C42.1662 20.5717 42.256 20.7019 42.2572 20.8427L42.271 24.8393C42.271 25.0573 42.0592 25.2348 41.7991 25.2357Z" fill="black"/>
<path d="M37.5381 43.275C37.3759 43.275 37.217 43.2036 37.1296 43.0773C36.9995 42.8883 37.0766 42.6462 37.3022 42.5372L41.3819 40.564L41.368 36.8046C41.368 36.5866 41.5786 36.4092 41.8387 36.4082C42.0988 36.4082 42.3106 36.5847 42.3117 36.8027L42.3255 40.7906C42.3255 40.9324 42.2358 41.0626 42.0896 41.134L37.774 43.222C37.6992 43.2576 37.6187 43.275 37.5381 43.275Z" fill="black"/>
<path d="M14.4368 54.4516C14.3551 54.4516 14.2746 54.4333 14.202 54.3986C14.0559 54.3282 13.9661 54.198 13.965 54.0572L13.9512 50.0692C13.9512 49.8513 14.1618 49.6738 14.4219 49.6729C14.6819 49.6729 14.8937 49.8493 14.8948 50.0673L14.9063 53.3734L18.5165 51.6258C18.742 51.5178 19.0297 51.5815 19.1609 51.7705C19.291 51.9595 19.2139 52.2016 18.9883 52.3106L14.6727 54.3986C14.5991 54.4333 14.5185 54.4516 14.4368 54.4516Z" fill="black"/>
</svg>
