<svg width="18" height="18" viewBox="0 0 18 18" fill="none" xmlns="http://www.w3.org/2000/svg">
<path d="M15.2498 16.6183H6.42973C6.3167 16.6183 6.22461 16.5263 6.22461 16.4132C6.22461 16.3002 6.3167 16.2081 6.42973 16.2081H15.2498C16.1959 16.2081 16.9787 15.4923 17.0791 14.5714H7.03252C6.9195 14.5714 6.82741 14.4793 6.82741 14.3663C6.82741 14.2532 6.9195 14.1611 7.03252 14.1611H17.2968C17.4098 14.1611 17.5019 14.2532 17.5019 14.3663C17.4977 15.6095 16.4889 16.6183 15.2498 16.6183Z" fill="white"/>
<path d="M3.03072 11.5242C2.9177 11.5242 2.8256 11.4321 2.8256 11.3191V2.83815H0.322328C0.146513 2.83815 0 2.69582 0 2.51582V1.61582C0 1.18465 0.167443 0.778607 0.473027 0.473025C0.778611 0.167442 1.18466 0 1.61583 0C2.50746 0 3.23165 0.724188 3.23165 1.61582V11.3149C3.23584 11.4321 3.14375 11.5242 3.03072 11.5242ZM0.410236 2.42791H2.8256V1.61582C2.8256 0.950235 2.28141 0.406048 1.61583 0.406048C1.2935 0.406048 0.987915 0.53163 0.761867 0.761863C0.531632 0.992096 0.40605 1.29349 0.40605 1.61582V2.42791H0.410236Z" fill="white"/>
<path d="M15.3163 14.5759C15.2033 14.5759 15.1112 14.4838 15.1112 14.3707V2.59117C15.1112 1.38977 14.1317 0.410234 12.9303 0.410234H1.61527C1.50225 0.410234 1.41016 0.318141 1.41016 0.205117C1.41016 0.0920934 1.50225 0 1.61527 0H12.9303C14.3577 0 15.5214 1.16372 15.5214 2.59117V14.3707C15.5214 14.4838 15.4293 14.5759 15.3163 14.5759Z" fill="white"/>
<path d="M13.4074 4.70089H4.93896C4.75059 4.70089 4.5957 4.546 4.5957 4.35763V3.5874C4.5957 3.39902 4.75059 3.24414 4.93896 3.24414H13.4074C13.5958 3.24414 13.7507 3.39902 13.7507 3.5874V4.35763C13.7507 4.546 13.5958 4.70089 13.4074 4.70089ZM5.00594 4.29066H13.3404V3.65019H5.00594V4.29066Z" fill="white"/>
<path d="M13.5455 6.21297H4.80082C4.6878 6.21297 4.5957 6.12087 4.5957 6.00785C4.5957 5.89483 4.6878 5.80273 4.80082 5.80273H13.5455C13.6586 5.80273 13.7507 5.89483 13.7507 6.00785C13.7507 6.12087 13.6586 6.21297 13.5455 6.21297Z" fill="white"/>
<path d="M13.5455 7.92H4.80082C4.6878 7.92 4.5957 7.82791 4.5957 7.71488C4.5957 7.60186 4.6878 7.50977 4.80082 7.50977H13.5455C13.6586 7.50977 13.7507 7.60186 13.7507 7.71488C13.7507 7.82791 13.6586 7.92 13.5455 7.92Z" fill="white"/>
<path d="M13.5455 9.6241H4.80082C4.6878 9.6241 4.5957 9.53201 4.5957 9.41898C4.5957 9.30596 4.6878 9.21387 4.80082 9.21387H13.5455C13.6586 9.21387 13.7507 9.30596 13.7507 9.41898C13.7507 9.53201 13.6586 9.6241 13.5455 9.6241Z" fill="white"/>
<path d="M11.7418 11.3311H6.60551C6.49248 11.3311 6.40039 11.239 6.40039 11.126C6.40039 11.013 6.49248 10.9209 6.60551 10.9209H11.7418C11.8549 10.9209 11.9469 11.013 11.9469 11.126C11.9469 11.239 11.8549 11.3311 11.7418 11.3311Z" fill="white"/>
<path d="M3.75458 18.0001C3.20621 18.0001 2.68295 17.8787 2.19736 17.6359C2.0969 17.5856 2.05503 17.4642 2.10527 17.3596C2.1555 17.2591 2.2769 17.2173 2.38155 17.2675C2.80853 17.481 3.27318 17.5898 3.75458 17.5898C4.74669 17.5898 5.68437 17.1042 6.26205 16.2963C6.63461 15.7731 6.82717 15.1577 6.82717 14.5173C6.82717 14.4712 6.82717 14.4252 6.82298 14.3791C6.75182 12.7298 5.39971 11.4405 3.7504 11.4405C3.52016 11.4405 3.29412 11.4656 3.07225 11.5159C1.66154 11.834 0.677814 13.0689 0.677814 14.5131C0.677814 15.3335 0.995956 16.108 1.57782 16.6856C1.65736 16.7652 1.65736 16.8949 1.57782 16.9745C1.49829 17.054 1.36852 17.054 1.28898 16.9745C0.631767 16.3173 0.267578 15.4424 0.267578 14.5131C0.267578 13.7177 0.54386 12.9391 1.042 12.3238C1.53596 11.7168 2.22248 11.2856 2.98016 11.114C3.23132 11.0554 3.49086 11.0303 3.7504 11.0303C5.62158 11.0303 7.1495 12.4912 7.22903 14.3582C7.23322 14.4084 7.23322 14.4628 7.23322 14.5131C7.23322 15.2414 7.01136 15.9405 6.58856 16.5308C5.9439 17.4517 4.88064 18.0001 3.75458 18.0001Z" fill="white"/>
<path d="M3.75547 16.8185C2.48709 16.8185 1.45312 15.7846 1.45312 14.5162C1.45312 13.2478 2.48709 12.2139 3.75547 12.2139C5.02385 12.2139 6.05782 13.2478 6.05782 14.5162C6.05782 15.7846 5.02385 16.8185 3.75547 16.8185ZM3.75547 12.6241C2.71314 12.6241 1.86336 13.4739 1.86336 14.5162C1.86336 15.5585 2.71314 16.4083 3.75547 16.4083C4.7978 16.4083 5.64758 15.5585 5.64758 14.5162C5.64758 13.4697 4.80199 12.6241 3.75547 12.6241Z" fill="white"/>
<path d="M3.7559 13.0775C3.64287 13.0775 3.55078 12.9854 3.55078 12.8723V12.4161C3.55078 12.303 3.64287 12.2109 3.7559 12.2109C3.86892 12.2109 3.96102 12.303 3.96102 12.4161V12.8723C3.96102 12.9854 3.86892 13.0775 3.7559 13.0775Z" fill="white"/>
<path d="M2.11453 14.7227H1.65824C1.54522 14.7227 1.45312 14.6306 1.45312 14.5176C1.45312 14.4046 1.54522 14.3125 1.65824 14.3125H2.11453C2.22755 14.3125 2.31964 14.4046 2.31964 14.5176C2.31964 14.6306 2.22755 14.7227 2.11453 14.7227Z" fill="white"/>
<path d="M3.7559 16.8196C3.64287 16.8196 3.55078 16.7275 3.55078 16.6145V16.1582C3.55078 16.0452 3.64287 15.9531 3.7559 15.9531C3.86892 15.9531 3.96102 16.0452 3.96102 16.1582V16.6145C3.96102 16.7275 3.86892 16.8196 3.7559 16.8196Z" fill="white"/>
<path d="M5.85253 14.7227H5.40043C5.28741 14.7227 5.19531 14.6306 5.19531 14.5176C5.19531 14.4046 5.28741 14.3125 5.40043 14.3125H5.85671C5.96974 14.3125 6.06183 14.4046 6.06183 14.5176C6.05765 14.6306 5.96555 14.7227 5.85253 14.7227Z" fill="white"/>
<path d="M4.65591 14.7229H3.7559C3.64287 14.7229 3.55078 14.6308 3.55078 14.5178V13.6973C3.55078 13.5843 3.64287 13.4922 3.7559 13.4922C3.86892 13.4922 3.96102 13.5843 3.96102 13.6973V14.3127H4.65591C4.76893 14.3127 4.86102 14.4047 4.86102 14.5178C4.86102 14.6308 4.76893 14.7229 4.65591 14.7229Z" fill="white"/>
<path d="M1.4369 17.0412C1.42434 17.0412 1.40759 17.0412 1.39504 17.037L0.520145 16.857C0.411307 16.836 0.340143 16.7272 0.361074 16.6142C0.382004 16.5053 0.490842 16.4342 0.603867 16.4551L1.2569 16.5891L1.31969 16.0114C1.33224 15.8984 1.43271 15.8188 1.54573 15.8314C1.65876 15.8439 1.73829 15.9444 1.72574 16.0574L1.64201 16.8612C1.63783 16.9198 1.60434 16.97 1.55829 17.0035C1.5248 17.0244 1.48294 17.0412 1.4369 17.0412Z" fill="white"/>
</svg>
