<svg width="20" height="20" viewBox="0 0 20 20" fill="none" xmlns="http://www.w3.org/2000/svg">
<path fill-rule="evenodd" clip-rule="evenodd" d="M3.33268 4.16732C3.33268 2.32637 4.82507 0.833984 6.66602 0.833984H14.9993C16.8403 0.833984 18.3327 2.32637 18.3327 4.16732V15.834C18.3327 17.6749 16.8403 19.1673 14.9993 19.1673H6.66602C4.82507 19.1673 3.33268 17.6749 3.33268 15.834V15.0007H2.49935C2.03911 15.0007 1.66602 14.6276 1.66602 14.1673C1.66602 13.7071 2.03911 13.334 2.49935 13.334H3.33268V10.834H2.49935C2.03911 10.834 1.66602 10.4609 1.66602 10.0007C1.66602 9.54041 2.03911 9.16732 2.49935 9.16732H3.33268V6.66732H2.49935C2.03911 6.66732 1.66602 6.29422 1.66602 5.83398C1.66602 5.37375 2.03911 5.00065 2.49935 5.00065H3.33268V4.16732ZM4.99935 15.0007H5.83268C6.29292 15.0007 6.66602 14.6276 6.66602 14.1673C6.66602 13.7071 6.29292 13.334 5.83268 13.334H4.99935V10.834H5.83268C6.29292 10.834 6.66602 10.4609 6.66602 10.0007C6.66602 9.54041 6.29292 9.16732 5.83268 9.16732H4.99935V6.66732H5.83268C6.29292 6.66732 6.66602 6.29422 6.66602 5.83398C6.66602 5.37375 6.29292 5.00065 5.83268 5.00065H4.99935V4.16732C4.99935 3.24684 5.74554 2.50065 6.66602 2.50065H13.3327V17.5007H6.66602C5.74554 17.5007 4.99935 16.7545 4.99935 15.834V15.0007ZM16.666 15.834C16.666 16.7545 15.9198 17.5007 14.9993 17.5007V2.50065C15.9198 2.50065 16.666 3.24684 16.666 4.16732V15.834Z" fill="#8C8C8C"/>
</svg>
