<svg width="1223" height="404" viewBox="0 0 1223 404" fill="none" xmlns="http://www.w3.org/2000/svg">
<rect width="332.276" height="47.7571" rx="4.77571" fill="white" fill-opacity="0.05"/>
<rect x="0.596964" y="0.596964" width="331.082" height="46.5632" rx="4.17875" stroke="white" stroke-opacity="0.1" stroke-width="1.19393"/>
<path opacity="0.5" d="M19.4859 29.8789V28.5493L23.5994 24.2875C24.0386 23.8245 24.4007 23.4189 24.6856 23.0706C24.9745 22.7185 25.1902 22.3841 25.3326 22.0675C25.4751 21.7509 25.5463 21.4146 25.5463 21.0584C25.5463 20.6548 25.4513 20.3066 25.2614 20.0137C25.0714 19.717 24.8123 19.4894 24.4838 19.3311C24.1554 19.1689 23.7854 19.0878 23.3738 19.0878C22.9385 19.0878 22.5587 19.1768 22.2342 19.3549C21.9097 19.5329 21.6604 19.7842 21.4863 20.1087C21.3122 20.4332 21.2251 20.8131 21.2251 21.2484H19.4741C19.4741 20.5084 19.6442 19.8614 19.9845 19.3074C20.3248 18.7534 20.7918 18.324 21.3854 18.0193C21.9789 17.7107 22.6536 17.5564 23.4094 17.5564C24.1732 17.5564 24.8459 17.7087 25.4276 18.0134C26.0132 18.3141 26.4703 18.7257 26.7987 19.248C27.1272 19.7664 27.2914 20.3521 27.2914 21.005C27.2914 21.4561 27.2063 21.8973 27.0362 22.3287C26.87 22.76 26.5791 23.2408 26.1636 23.7711C25.7481 24.2974 25.1704 24.9364 24.4304 25.6883L22.0145 28.2169V28.3059H27.4873V29.8789H19.4859ZM30.0563 27.5046V26.0207L35.3094 17.7226H36.4787V19.9069H35.7367L31.9794 25.8545V25.9495H39.1795V27.5046H30.0563ZM35.8198 29.8789V27.0535L35.8317 26.3768V17.7226H37.5709V29.8789H35.8198ZM42.25 29.8789V17.7226H44.0841V23.0053H50.1445V17.7226H51.9846V29.8789H50.1445V24.5783H44.0841V29.8789H42.25Z" fill="white"/>
<rect x="68.0547" y="3.58203" width="64.4721" height="40.5935" rx="4.77571" fill="white" fill-opacity="0.15"/>
<path d="M90.5808 29.8789L95.8873 19.3846V19.2955H89.7498V17.7226H97.7867V19.3489L92.498 29.8789H90.5808ZM104.788 29.8789H100.853V17.7226H104.913C106.104 17.7226 107.127 17.9659 107.982 18.4526C108.836 18.9354 109.491 19.6299 109.946 20.5361C110.405 21.4383 110.635 22.5206 110.635 23.7829C110.635 25.0492 110.403 26.1374 109.94 27.0476C109.481 27.9577 108.817 28.6581 107.946 29.1488C107.075 29.6355 106.023 29.8789 104.788 29.8789ZM102.687 28.2763H104.687C105.613 28.2763 106.383 28.1021 106.996 27.7539C107.61 27.4017 108.069 26.8932 108.373 26.2284C108.678 25.5597 108.83 24.7445 108.83 23.7829C108.83 22.8293 108.678 22.02 108.373 21.3552C108.073 20.6904 107.624 20.1859 107.026 19.8416C106.428 19.4973 105.686 19.3252 104.8 19.3252H102.687V28.2763Z" fill="white"/>
<path opacity="0.5" d="M152.604 30.0451C151.789 30.0451 151.061 29.9046 150.42 29.6237C149.783 29.3427 149.278 28.9529 148.906 28.4543C148.538 27.9518 148.341 27.3701 148.313 26.7092H150.177C150.2 27.0693 150.321 27.3819 150.539 27.6471C150.76 27.9082 151.049 28.1101 151.405 28.2525C151.762 28.395 152.157 28.4662 152.593 28.4662C153.071 28.4662 153.495 28.3831 153.863 28.2169C154.235 28.0507 154.526 27.8192 154.735 27.5224C154.945 27.2217 155.05 26.8754 155.05 26.4837C155.05 26.0761 154.945 25.718 154.735 25.4093C154.53 25.0967 154.227 24.8514 153.827 24.6733C153.431 24.4952 152.953 24.4062 152.391 24.4062H151.364V22.9104H152.391C152.842 22.9104 153.238 22.8293 153.578 22.667C153.922 22.5048 154.191 22.2792 154.385 21.9903C154.579 21.6975 154.676 21.3552 154.676 20.9635C154.676 20.5875 154.591 20.2611 154.421 19.9841C154.255 19.7031 154.017 19.4835 153.708 19.3252C153.404 19.1669 153.044 19.0878 152.628 19.0878C152.232 19.0878 151.862 19.161 151.518 19.3074C151.178 19.4498 150.901 19.6556 150.687 19.9247C150.473 20.1898 150.359 20.5084 150.343 20.8804H148.568C148.588 20.2235 148.782 19.6457 149.15 19.1471C149.522 18.6485 150.012 18.2587 150.622 17.9778C151.231 17.6968 151.908 17.5564 152.652 17.5564C153.431 17.5564 154.104 17.7087 154.67 18.0134C155.24 18.3141 155.679 18.7158 155.988 19.2184C156.3 19.7209 156.455 20.271 156.451 20.8685C156.455 21.5491 156.265 22.1269 155.881 22.6017C155.501 23.0766 154.995 23.3951 154.361 23.5574V23.6523C155.169 23.775 155.794 24.0955 156.237 24.6139C156.684 25.1323 156.906 25.7753 156.902 26.543C156.906 27.2118 156.72 27.8113 156.344 28.3416C155.972 28.8718 155.463 29.2893 154.818 29.594C154.173 29.8947 153.435 30.0451 152.604 30.0451ZM164.213 30.0807C163.276 30.0768 162.474 29.8294 161.81 29.3388C161.145 28.8481 160.636 28.1338 160.284 27.196C159.932 26.2581 159.756 25.1284 159.756 23.8067C159.756 22.4889 159.932 21.3631 160.284 20.4292C160.64 19.4954 161.151 18.7831 161.815 18.2924C162.484 17.8017 163.284 17.5564 164.213 17.5564C165.143 17.5564 165.941 17.8037 166.606 18.2983C167.27 18.789 167.779 19.5013 168.131 20.4352C168.487 21.3651 168.665 22.4889 168.665 23.8067C168.665 25.1323 168.489 26.2641 168.137 27.2019C167.785 28.1358 167.276 28.85 166.612 29.3447C165.947 29.8354 165.147 30.0807 164.213 30.0807ZM164.213 28.4959C165.037 28.4959 165.68 28.0942 166.143 27.2909C166.61 26.4876 166.843 25.3262 166.843 23.8067C166.843 22.7976 166.736 21.9448 166.522 21.2484C166.313 20.548 166.01 20.0177 165.614 19.6576C165.223 19.2935 164.756 19.1115 164.213 19.1115C163.394 19.1115 162.751 19.5151 162.284 20.3224C161.817 21.1297 161.582 22.2911 161.578 23.8067C161.578 24.8197 161.683 25.6764 161.893 26.3768C162.106 27.0733 162.409 27.6016 162.801 27.9617C163.193 28.3178 163.663 28.4959 164.213 28.4959ZM175.708 29.8789H171.773V17.7226H175.833C177.024 17.7226 178.047 17.9659 178.902 18.4526C179.756 18.9354 180.411 19.6299 180.866 20.5361C181.325 21.4383 181.555 22.5206 181.555 23.7829C181.555 25.0492 181.323 26.1374 180.86 27.0476C180.401 27.9577 179.737 28.6581 178.866 29.1488C177.996 29.6355 176.943 29.8789 175.708 29.8789ZM173.607 28.2763H175.607C176.533 28.2763 177.303 28.1021 177.916 27.7539C178.53 27.4017 178.989 26.8932 179.293 26.2284C179.598 25.5597 179.751 24.7445 179.751 23.7829C179.751 22.8293 179.598 22.02 179.293 21.3552C178.993 20.6904 178.544 20.1859 177.946 19.8416C177.349 19.4973 176.607 19.3252 175.72 19.3252H173.607V28.2763Z" fill="white"/>
<rect opacity="0.1" x="197.18" y="9.55176" width="1.19393" height="28.6543" fill="white"/>
<path opacity="0.5" d="M218.338 17.5564C218.88 17.5603 219.414 17.6592 219.94 17.8531C220.466 18.047 220.941 18.3636 221.365 18.8029C221.792 19.2421 222.132 19.8357 222.386 20.5836C222.643 21.3275 222.773 22.2535 222.777 23.3615C222.777 24.426 222.671 25.3737 222.457 26.2047C222.243 27.0317 221.937 27.7302 221.537 28.3C221.141 28.8698 220.66 29.3031 220.094 29.5999C219.529 29.8967 218.892 30.0451 218.183 30.0451C217.459 30.0451 216.816 29.9026 216.254 29.6177C215.692 29.3328 215.235 28.9391 214.883 28.4365C214.531 27.93 214.311 27.3483 214.224 26.6914H216.034C216.153 27.2138 216.395 27.6372 216.759 27.9617C217.127 28.2822 217.601 28.4425 218.183 28.4425C219.074 28.4425 219.768 28.0547 220.267 27.2791C220.765 26.4995 221.017 25.4113 221.02 24.0144H220.925C220.72 24.3547 220.463 24.6476 220.154 24.8929C219.849 25.1382 219.507 25.3282 219.127 25.4627C218.747 25.5973 218.341 25.6645 217.91 25.6645C217.21 25.6645 216.573 25.4924 215.999 25.1481C215.425 24.8039 214.968 24.331 214.628 23.7295C214.287 23.128 214.117 22.4415 214.117 21.6698C214.117 20.9021 214.291 20.2057 214.64 19.5804C214.992 18.9552 215.482 18.4606 216.112 18.0965C216.745 17.7285 217.487 17.5484 218.338 17.5564ZM218.343 19.0996C217.88 19.0996 217.463 19.2144 217.091 19.4439C216.723 19.6695 216.432 19.9761 216.218 20.3639C216.005 20.7478 215.898 21.1752 215.898 21.6461C215.898 22.117 216.001 22.5443 216.207 22.9282C216.416 23.3081 216.701 23.6108 217.061 23.8363C217.425 24.0579 217.841 24.1687 218.308 24.1687C218.656 24.1687 218.981 24.1015 219.281 23.9669C219.582 23.8324 219.845 23.6464 220.071 23.409C220.296 23.1676 220.472 22.8945 220.599 22.5898C220.726 22.2851 220.789 21.9646 220.789 21.6283C220.789 21.1811 220.682 20.7656 220.468 20.3818C220.259 19.9979 219.97 19.6893 219.602 19.4558C219.234 19.2184 218.814 19.0996 218.343 19.0996ZM229.99 30.0807C229.052 30.0768 228.25 29.8294 227.586 29.3388C226.921 28.8481 226.412 28.1338 226.06 27.196C225.708 26.2581 225.532 25.1284 225.532 23.8067C225.532 22.4889 225.708 21.3631 226.06 20.4292C226.416 19.4954 226.927 18.7831 227.592 18.2924C228.26 17.8017 229.06 17.5564 229.99 17.5564C230.92 17.5564 231.717 17.8037 232.382 18.2983C233.047 18.789 233.555 19.5013 233.907 20.4352C234.263 21.3651 234.441 22.4889 234.441 23.8067C234.441 25.1323 234.265 26.2641 233.913 27.2019C233.561 28.1358 233.052 28.85 232.388 29.3447C231.723 29.8354 230.924 30.0807 229.99 30.0807ZM229.99 28.4959C230.813 28.4959 231.456 28.0942 231.919 27.2909C232.386 26.4876 232.619 25.3262 232.619 23.8067C232.619 22.7976 232.512 21.9448 232.299 21.2484C232.089 20.548 231.786 20.0177 231.39 19.6576C230.999 19.2935 230.532 19.1115 229.99 19.1115C229.17 19.1115 228.527 19.5151 228.061 20.3224C227.594 21.1297 227.358 22.2911 227.354 23.8067C227.354 24.8197 227.459 25.6764 227.669 26.3768C227.882 27.0733 228.185 27.6016 228.577 27.9617C228.969 28.3178 229.44 28.4959 229.99 28.4959ZM241.484 29.8789H237.549V17.7226H241.609C242.8 17.7226 243.823 17.9659 244.678 18.4526C245.533 18.9354 246.188 19.6299 246.643 20.5361C247.102 21.4383 247.331 22.5206 247.331 23.7829C247.331 25.0492 247.1 26.1374 246.637 27.0476C246.178 27.9577 245.513 28.6581 244.642 29.1488C243.772 29.6355 242.719 29.8789 241.484 29.8789ZM239.383 28.2763H241.384C242.31 28.2763 243.079 28.1021 243.693 27.7539C244.306 27.4017 244.765 26.8932 245.07 26.2284C245.374 25.5597 245.527 24.7445 245.527 23.7829C245.527 22.8293 245.374 22.02 245.07 21.3552C244.769 20.6904 244.32 20.1859 243.722 19.8416C243.125 19.4973 242.383 19.3252 241.496 19.3252H239.383V28.2763Z" fill="white"/>
<rect opacity="0.1" x="263.029" y="9.55176" width="1.19393" height="28.6543" fill="white"/>
<path opacity="0.5" d="M282.699 29.8789H280.752L285.127 17.7226H287.246L291.62 29.8789H289.673L286.237 19.9306H286.142L282.699 29.8789ZM283.025 25.1185H289.341V26.6617H283.025V25.1185ZM294.212 29.8789V17.7226H296.046V28.3H301.554V29.8789H294.212ZM304.482 29.8789V17.7226H306.316V28.3H311.825V29.8789H304.482Z" fill="white"/>
<g clip-path="url(#clip0_192_2633)">
<path opacity="0.3" d="M5.16056 347.236V357.655H3.58335V348.813H3.5223L1.0293 350.441V348.935L3.62914 347.236H5.16056ZM9.11654 357.752C8.83841 357.752 8.59929 357.654 8.39917 357.457C8.19905 357.257 8.09899 357.016 8.09899 356.734C8.09899 356.456 8.19905 356.219 8.39917 356.022C8.59929 355.822 8.83841 355.722 9.11654 355.722C9.39467 355.722 9.6338 355.822 9.83392 356.022C10.034 356.219 10.1341 356.456 10.1341 356.734C10.1341 356.921 10.0866 357.092 9.99164 357.248C9.90006 357.401 9.77795 357.523 9.62532 357.615C9.47269 357.706 9.30309 357.752 9.11654 357.752ZM15.5617 347.236V357.655H13.9845V348.813H13.9235L11.4305 350.441V348.935L14.0303 347.236H15.5617ZM19.2391 357.655V347.236H20.8113V352.211H20.9385L25.3088 347.236H27.288L23.0855 351.926L27.3032 357.655H25.4106L22.0425 353L20.8113 354.414V357.655H19.2391Z" fill="white"/>
<path opacity="0.3" d="M51.4944 391.085V380.665H57.9558V382.019H53.0665V385.193H57.4928V386.542H53.0665V391.085H51.4944ZM60.6055 391.085V380.665H67.1382V382.019H62.1776V385.193H66.7973V386.542H62.1776V389.732H67.1993V391.085H60.6055ZM69.9545 391.085V380.665H73.7703C74.5098 380.665 75.122 380.787 75.607 381.032C76.0921 381.272 76.455 381.6 76.6958 382.013C76.9366 382.424 77.057 382.887 77.057 383.402C77.057 383.837 76.9773 384.203 76.8179 384.501C76.6585 384.796 76.4448 385.034 76.1769 385.214C75.9123 385.39 75.6206 385.519 75.3018 385.6V385.702C75.6477 385.719 75.9852 385.831 76.3142 386.038C76.6466 386.241 76.9214 386.531 77.1384 386.908C77.3555 387.284 77.4641 387.742 77.4641 388.282C77.4641 388.814 77.3386 389.292 77.0876 389.716C76.84 390.137 76.4567 390.471 75.9377 390.719C75.4188 390.963 74.7557 391.085 73.9484 391.085H69.9545ZM71.5266 389.737H73.7958C74.5488 389.737 75.0881 389.591 75.4137 389.299C75.7393 389.007 75.9021 388.643 75.9021 388.205C75.9021 387.876 75.819 387.574 75.6528 387.3C75.4866 387.025 75.2492 386.806 74.9405 386.643C74.6353 386.481 74.2723 386.399 73.8518 386.399H71.5266V389.737ZM71.5266 385.173H73.633C73.9857 385.173 74.3029 385.105 74.5844 384.969C74.8693 384.834 75.0949 384.644 75.2611 384.4C75.4307 384.152 75.5154 383.86 75.5154 383.525C75.5154 383.094 75.3645 382.733 75.0626 382.441C74.7608 382.149 74.2978 382.003 73.6737 382.003H71.5266V385.173ZM88.3638 380.665V391.085H86.7866V382.242H86.7256L84.2326 383.871V382.365L86.8324 380.665H88.3638ZM95.5264 391.258C94.7225 391.255 94.0357 391.043 93.4658 390.622C92.896 390.201 92.4601 389.589 92.1583 388.785C91.8564 387.981 91.7055 387.013 91.7055 385.88C91.7055 384.751 91.8564 383.786 92.1583 382.985C92.4635 382.185 92.9011 381.574 93.4709 381.154C94.0441 380.733 94.7293 380.523 95.5264 380.523C96.3235 380.523 97.0069 380.735 97.5767 381.159C98.1466 381.579 98.5824 382.19 98.8843 382.99C99.1896 383.787 99.3422 384.751 99.3422 385.88C99.3422 387.016 99.1913 387.987 98.8894 388.79C98.5875 389.591 98.1517 390.203 97.5818 390.627C97.012 391.048 96.3268 391.258 95.5264 391.258ZM95.5264 389.9C96.2319 389.9 96.783 389.555 97.1799 388.867C97.5801 388.178 97.7802 387.183 97.7802 385.88C97.7802 385.015 97.6887 384.284 97.5055 383.687C97.3257 383.087 97.0663 382.632 96.7271 382.324C96.3913 382.012 95.9911 381.856 95.5264 381.856C94.8243 381.856 94.2731 382.202 93.8728 382.894C93.4726 383.586 93.2708 384.581 93.2674 385.88C93.2674 386.748 93.3573 387.483 93.5371 388.083C93.7202 388.68 93.9797 389.133 94.3155 389.442C94.6513 389.747 95.0549 389.9 95.5264 389.9Z" fill="white"/>
<path opacity="0.3" d="M238.942 391.085V380.665H245.403V382.019H240.514V385.193H244.94V386.542H240.514V391.085H238.942ZM248.053 391.085V380.665H254.585V382.019H249.625V385.193H254.245V386.542H249.625V389.732H254.647V391.085H248.053ZM257.402 391.085V380.665H261.218C261.957 380.665 262.569 380.787 263.054 381.032C263.539 381.272 263.902 381.6 264.143 382.013C264.384 382.424 264.504 382.887 264.504 383.402C264.504 383.837 264.425 384.203 264.265 384.501C264.106 384.796 263.892 385.034 263.624 385.214C263.36 385.39 263.068 385.519 262.749 385.6V385.702C263.095 385.719 263.432 385.831 263.761 386.038C264.094 386.241 264.369 386.531 264.586 386.908C264.803 387.284 264.911 387.742 264.911 388.282C264.911 388.814 264.786 389.292 264.535 389.716C264.287 390.137 263.904 390.471 263.385 390.719C262.866 390.963 262.203 391.085 261.396 391.085H257.402ZM258.974 389.737H261.243C261.996 389.737 262.535 389.591 262.861 389.299C263.187 389.007 263.349 388.643 263.349 388.205C263.349 387.876 263.266 387.574 263.1 387.3C262.934 387.025 262.696 386.806 262.388 386.643C262.083 386.481 261.72 386.399 261.299 386.399H258.974V389.737ZM258.974 385.173H261.08C261.433 385.173 261.75 385.105 262.032 384.969C262.317 384.834 262.542 384.644 262.708 384.4C262.878 384.152 262.963 383.86 262.963 383.525C262.963 383.094 262.812 382.733 262.51 382.441C262.208 382.149 261.745 382.003 261.121 382.003H258.974V385.173ZM275.811 380.665V391.085H274.234V382.242H274.173L271.68 383.871V382.365L274.28 380.665H275.811ZM283.299 380.665V391.085H281.722V382.242H281.661L279.168 383.871V382.365L281.768 380.665H283.299Z" fill="white"/>
<path opacity="0.3" d="M424 391.085V380.665H430.462V382.019H425.572V385.193H429.999V386.542H425.572V391.085H424ZM433.111 391.085V380.665H439.644V382.019H434.683V385.193H439.303V386.542H434.683V389.732H439.705V391.085H433.111ZM442.46 391.085V380.665H446.276C447.016 380.665 447.628 380.787 448.113 381.032C448.598 381.272 448.961 381.6 449.202 382.013C449.442 382.424 449.563 382.887 449.563 383.402C449.563 383.837 449.483 384.203 449.324 384.501C449.164 384.796 448.951 385.034 448.683 385.214C448.418 385.39 448.126 385.519 447.808 385.6V385.702C448.154 385.719 448.491 385.831 448.82 386.038C449.152 386.241 449.427 386.531 449.644 386.908C449.861 387.284 449.97 387.742 449.97 388.282C449.97 388.814 449.844 389.292 449.593 389.716C449.346 390.137 448.963 390.471 448.444 390.719C447.925 390.963 447.262 391.085 446.454 391.085H442.46ZM444.033 389.737H446.302C447.055 389.737 447.594 389.591 447.92 389.299C448.245 389.007 448.408 388.643 448.408 388.205C448.408 387.876 448.325 387.574 448.159 387.3C447.992 387.025 447.755 386.806 447.446 386.643C447.141 386.481 446.778 386.399 446.358 386.399H444.033V389.737ZM444.033 385.173H446.139C446.492 385.173 446.809 385.105 447.09 384.969C447.375 384.834 447.601 384.644 447.767 384.4C447.937 384.152 448.021 383.86 448.021 383.525C448.021 383.094 447.87 382.733 447.568 382.441C447.267 382.149 446.804 382.003 446.18 382.003H444.033V385.173ZM460.87 380.665V391.085H459.292V382.242H459.231L456.738 383.871V382.365L459.338 380.665H460.87ZM464.405 391.085V389.945L467.93 386.292C468.307 385.895 468.617 385.548 468.862 385.249C469.109 384.947 469.294 384.661 469.416 384.389C469.538 384.118 469.599 383.83 469.599 383.525C469.599 383.179 469.518 382.88 469.355 382.629C469.192 382.375 468.97 382.18 468.689 382.044C468.407 381.905 468.09 381.835 467.737 381.835C467.364 381.835 467.038 381.912 466.76 382.064C466.482 382.217 466.268 382.432 466.119 382.711C465.97 382.989 465.895 383.314 465.895 383.687H464.394C464.394 383.053 464.54 382.499 464.832 382.024C465.124 381.549 465.524 381.181 466.033 380.92C466.542 380.655 467.12 380.523 467.768 380.523C468.422 380.523 468.999 380.653 469.498 380.915C469.999 381.172 470.391 381.525 470.673 381.973C470.954 382.417 471.095 382.919 471.095 383.479C471.095 383.865 471.022 384.244 470.876 384.613C470.734 384.983 470.485 385.395 470.128 385.85C469.772 386.301 469.277 386.849 468.643 387.493L466.572 389.66V389.737H471.263V391.085H464.405Z" fill="white"/>
<path opacity="0.3" d="M611.447 391.085V380.665H617.909V382.019H613.02V385.193H617.446V386.542H613.02V391.085H611.447ZM620.559 391.085V380.665H627.091V382.019H622.131V385.193H626.75V386.542H622.131V389.732H627.152V391.085H620.559ZM629.908 391.085V380.665H633.723C634.463 380.665 635.075 380.787 635.56 381.032C636.045 381.272 636.408 381.6 636.649 382.013C636.89 382.424 637.01 382.887 637.01 383.402C637.01 383.837 636.93 384.203 636.771 384.501C636.612 384.796 636.398 385.034 636.13 385.214C635.865 385.39 635.574 385.519 635.255 385.6V385.702C635.601 385.719 635.938 385.831 636.267 386.038C636.6 386.241 636.874 386.531 637.092 386.908C637.309 387.284 637.417 387.742 637.417 388.282C637.417 388.814 637.292 389.292 637.041 389.716C636.793 390.137 636.41 390.471 635.891 390.719C635.372 390.963 634.709 391.085 633.902 391.085H629.908ZM631.48 389.737H633.749C634.502 389.737 635.041 389.591 635.367 389.299C635.692 389.007 635.855 388.643 635.855 388.205C635.855 387.876 635.772 387.574 635.606 387.3C635.44 387.025 635.202 386.806 634.894 386.643C634.588 386.481 634.225 386.399 633.805 386.399H631.48V389.737ZM631.48 385.173H633.586C633.939 385.173 634.256 385.105 634.538 384.969C634.822 384.834 635.048 384.644 635.214 384.4C635.384 384.152 635.469 383.86 635.469 383.525C635.469 383.094 635.318 382.733 635.016 382.441C634.714 382.149 634.251 382.003 633.627 382.003H631.48V385.173ZM648.317 380.665V391.085H646.74V382.242H646.679L644.186 383.871V382.365L646.786 380.665H648.317ZM655.479 391.227C654.781 391.227 654.157 391.107 653.607 390.866C653.061 390.625 652.629 390.291 652.31 389.864C651.994 389.433 651.825 388.935 651.801 388.368H653.399C653.419 388.677 653.522 388.945 653.709 389.172C653.899 389.396 654.147 389.569 654.452 389.691C654.757 389.813 655.096 389.874 655.469 389.874C655.88 389.874 656.243 389.803 656.558 389.66C656.877 389.518 657.126 389.32 657.306 389.065C657.486 388.807 657.576 388.511 657.576 388.175C657.576 387.825 657.486 387.518 657.306 387.254C657.13 386.986 656.87 386.776 656.528 386.623C656.188 386.47 655.778 386.394 655.296 386.394H654.416V385.112H655.296C655.683 385.112 656.022 385.042 656.314 384.903C656.609 384.764 656.84 384.571 657.006 384.323C657.172 384.072 657.255 383.779 657.255 383.443C657.255 383.121 657.182 382.841 657.036 382.604C656.894 382.363 656.69 382.175 656.426 382.039C656.165 381.903 655.856 381.835 655.5 381.835C655.161 381.835 654.844 381.898 654.548 382.024C654.257 382.146 654.019 382.322 653.836 382.553C653.653 382.78 653.555 383.053 653.541 383.372H652.02C652.037 382.809 652.203 382.314 652.518 381.886C652.837 381.459 653.258 381.125 653.78 380.884C654.303 380.643 654.883 380.523 655.52 380.523C656.188 380.523 656.765 380.653 657.25 380.915C657.738 381.172 658.115 381.517 658.38 381.947C658.647 382.378 658.78 382.85 658.776 383.362C658.78 383.945 658.617 384.44 658.288 384.847C657.962 385.254 657.528 385.527 656.985 385.666V385.748C657.677 385.853 658.213 386.128 658.593 386.572C658.976 387.016 659.166 387.568 659.163 388.226C659.166 388.799 659.007 389.313 658.685 389.767C658.366 390.222 657.93 390.58 657.377 390.841C656.824 391.099 656.192 391.227 655.479 391.227Z" fill="white"/>
<path opacity="0.3" d="M798.893 391.085V380.665H805.354V382.019H800.465V385.193H804.891V386.542H800.465V391.085H798.893ZM808.004 391.085V380.665H814.537V382.019H809.576V385.193H814.196V386.542H809.576V389.732H814.598V391.085H808.004ZM817.353 391.085V380.665H821.169C821.908 380.665 822.52 380.787 823.005 381.032C823.49 381.272 823.853 381.6 824.094 382.013C824.335 382.424 824.455 382.887 824.455 383.402C824.455 383.837 824.376 384.203 824.216 384.501C824.057 384.796 823.843 385.034 823.575 385.214C823.311 385.39 823.019 385.519 822.7 385.6V385.702C823.046 385.719 823.384 385.831 823.713 386.038C824.045 386.241 824.32 386.531 824.537 386.908C824.754 387.284 824.862 387.742 824.862 388.282C824.862 388.814 824.737 389.292 824.486 389.716C824.238 390.137 823.855 390.471 823.336 390.719C822.817 390.963 822.154 391.085 821.347 391.085H817.353ZM818.925 389.737H821.194C821.947 389.737 822.487 389.591 822.812 389.299C823.138 389.007 823.301 388.643 823.301 388.205C823.301 387.876 823.217 387.574 823.051 387.3C822.885 387.025 822.648 386.806 822.339 386.643C822.034 386.481 821.671 386.399 821.25 386.399H818.925V389.737ZM818.925 385.173H821.031C821.384 385.173 821.701 385.105 821.983 384.969C822.268 384.834 822.493 384.644 822.659 384.4C822.829 384.152 822.914 383.86 822.914 383.525C822.914 383.094 822.763 382.733 822.461 382.441C822.159 382.149 821.696 382.003 821.072 382.003H818.925V385.173ZM835.762 380.665V391.085H834.185V382.242H834.124L831.631 383.871V382.365L834.231 380.665H835.762ZM839.078 389.05V387.778L843.581 380.665H844.583V382.538H843.947L840.727 387.635V387.717H846.898V389.05H839.078ZM844.019 391.085V388.663L844.029 388.083V380.665H845.52V391.085H844.019Z" fill="white"/>
<path opacity="0.3" d="M986.34 391.085V380.665H992.802V382.019H987.912V385.193H992.339V386.542H987.912V391.085H986.34ZM995.451 391.085V380.665H1001.98V382.019H997.023V385.193H1001.64V386.542H997.023V389.732H1002.04V391.085H995.451ZM1004.8 391.085V380.665H1008.62C1009.36 380.665 1009.97 380.787 1010.45 381.032C1010.94 381.272 1011.3 381.6 1011.54 382.013C1011.78 382.424 1011.9 382.887 1011.9 383.402C1011.9 383.837 1011.82 384.203 1011.66 384.501C1011.5 384.796 1011.29 385.034 1011.02 385.214C1010.76 385.39 1010.47 385.519 1010.15 385.6V385.702C1010.49 385.719 1010.83 385.831 1011.16 386.038C1011.49 386.241 1011.77 386.531 1011.98 386.908C1012.2 387.284 1012.31 387.742 1012.31 388.282C1012.31 388.814 1012.18 389.292 1011.93 389.716C1011.69 390.137 1011.3 390.471 1010.78 390.719C1010.26 390.963 1009.6 391.085 1008.79 391.085H1004.8ZM1006.37 389.737H1008.64C1009.39 389.737 1009.93 389.591 1010.26 389.299C1010.59 389.007 1010.75 388.643 1010.75 388.205C1010.75 387.876 1010.66 387.574 1010.5 387.3C1010.33 387.025 1010.09 386.806 1009.79 386.643C1009.48 386.481 1009.12 386.399 1008.7 386.399H1006.37V389.737ZM1006.37 385.173H1008.48C1008.83 385.173 1009.15 385.105 1009.43 384.969C1009.72 384.834 1009.94 384.644 1010.11 384.4C1010.28 384.152 1010.36 383.86 1010.36 383.525C1010.36 383.094 1010.21 382.733 1009.91 382.441C1009.61 382.149 1009.14 382.003 1008.52 382.003H1006.37V385.173ZM1023.21 380.665V391.085H1021.63V382.242H1021.57L1019.08 383.871V382.365L1021.68 380.665H1023.21ZM1030.18 391.227C1029.55 391.227 1028.97 391.105 1028.46 390.861C1027.96 390.613 1027.56 390.274 1027.25 389.844C1026.95 389.413 1026.79 388.921 1026.77 388.368H1028.3C1028.33 388.816 1028.53 389.184 1028.89 389.472C1029.25 389.76 1029.68 389.905 1030.18 389.905C1030.58 389.905 1030.94 389.813 1031.25 389.63C1031.56 389.443 1031.8 389.187 1031.98 388.862C1032.16 388.536 1032.25 388.165 1032.25 387.747C1032.25 387.323 1032.16 386.945 1031.97 386.613C1031.79 386.28 1031.54 386.019 1031.22 385.829C1030.9 385.639 1030.53 385.543 1030.12 385.539C1029.8 385.539 1029.49 385.594 1029.17 385.702C1028.85 385.811 1028.59 385.953 1028.39 386.129L1026.95 385.916L1027.54 380.665H1033.27V382.013H1028.85L1028.52 384.929H1028.58C1028.78 384.732 1029.05 384.568 1029.39 384.435C1029.72 384.303 1030.09 384.237 1030.47 384.237C1031.11 384.237 1031.67 384.388 1032.17 384.69C1032.67 384.992 1033.06 385.404 1033.34 385.926C1033.63 386.445 1033.77 387.042 1033.77 387.717C1033.77 388.392 1033.62 388.994 1033.31 389.523C1033.01 390.052 1032.58 390.469 1032.04 390.775C1031.5 391.076 1030.88 391.227 1030.18 391.227Z" fill="white"/>
<path opacity="0.3" d="M1173.79 391.085V380.665H1180.25V382.019H1175.36V385.193H1179.79V386.542H1175.36V391.085H1173.79ZM1182.9 391.085V380.665H1189.43V382.019H1184.47V385.193H1189.09V386.542H1184.47V389.732H1189.49V391.085H1182.9ZM1192.25 391.085V380.665H1196.06C1196.8 380.665 1197.41 380.787 1197.9 381.032C1198.39 381.272 1198.75 381.6 1198.99 382.013C1199.23 382.424 1199.35 382.887 1199.35 383.402C1199.35 383.837 1199.27 384.203 1199.11 384.501C1198.95 384.796 1198.74 385.034 1198.47 385.214C1198.21 385.39 1197.91 385.519 1197.59 385.6V385.702C1197.94 385.719 1198.28 385.831 1198.61 386.038C1198.94 386.241 1199.21 386.531 1199.43 386.908C1199.65 387.284 1199.76 387.742 1199.76 388.282C1199.76 388.814 1199.63 389.292 1199.38 389.716C1199.13 390.137 1198.75 390.471 1198.23 390.719C1197.71 390.963 1197.05 391.085 1196.24 391.085H1192.25ZM1193.82 389.737H1196.09C1196.84 389.737 1197.38 389.591 1197.71 389.299C1198.03 389.007 1198.2 388.643 1198.2 388.205C1198.2 387.876 1198.11 387.574 1197.95 387.3C1197.78 387.025 1197.54 386.806 1197.23 386.643C1196.93 386.481 1196.57 386.399 1196.14 386.399H1193.82V389.737ZM1193.82 385.173H1195.93C1196.28 385.173 1196.6 385.105 1196.88 384.969C1197.16 384.834 1197.39 384.644 1197.55 384.4C1197.72 384.152 1197.81 383.86 1197.81 383.525C1197.81 383.094 1197.66 382.733 1197.36 382.441C1197.05 382.149 1196.59 382.003 1195.97 382.003H1193.82V385.173ZM1210.66 380.665V391.085H1209.08V382.242H1209.02L1206.53 383.871V382.365L1209.13 380.665H1210.66ZM1217.83 391.227C1217.36 391.221 1216.91 391.136 1216.46 390.973C1216.01 390.81 1215.6 390.539 1215.23 390.159C1214.87 389.779 1214.58 389.269 1214.35 388.628C1214.14 387.987 1214.03 387.186 1214.03 386.226C1214.03 385.317 1214.12 384.51 1214.3 383.804C1214.48 383.099 1214.74 382.504 1215.09 382.019C1215.43 381.53 1215.84 381.159 1216.33 380.904C1216.81 380.65 1217.36 380.523 1217.96 380.523C1218.58 380.523 1219.13 380.645 1219.62 380.889C1220.1 381.133 1220.49 381.471 1220.79 381.902C1221.09 382.332 1221.28 382.822 1221.36 383.372H1219.81C1219.7 382.938 1219.49 382.583 1219.18 382.309C1218.87 382.034 1218.46 381.896 1217.96 381.896C1217.2 381.896 1216.6 382.229 1216.18 382.894C1215.75 383.558 1215.54 384.483 1215.53 385.666H1215.61C1215.79 385.371 1216.01 385.12 1216.27 384.914C1216.54 384.703 1216.83 384.542 1217.16 384.43C1217.49 384.315 1217.83 384.257 1218.2 384.257C1218.8 384.257 1219.35 384.405 1219.83 384.7C1220.33 384.992 1220.72 385.395 1221.01 385.911C1221.3 386.426 1221.45 387.016 1221.45 387.681C1221.45 388.346 1221.3 388.948 1220.99 389.487C1220.7 390.027 1220.28 390.454 1219.73 390.77C1219.19 391.082 1218.56 391.234 1217.83 391.227ZM1217.82 389.905C1218.22 389.905 1218.58 389.806 1218.9 389.61C1219.21 389.413 1219.46 389.148 1219.65 388.816C1219.83 388.483 1219.92 388.112 1219.92 387.702C1219.92 387.301 1219.83 386.937 1219.65 386.608C1219.47 386.279 1219.23 386.018 1218.92 385.824C1218.61 385.631 1218.26 385.534 1217.86 385.534C1217.56 385.534 1217.28 385.592 1217.02 385.707C1216.77 385.823 1216.54 385.982 1216.35 386.185C1216.16 386.389 1216 386.623 1215.89 386.888C1215.78 387.149 1215.73 387.425 1215.73 387.717C1215.73 388.107 1215.82 388.468 1216 388.801C1216.18 389.133 1216.43 389.401 1216.75 389.604C1217.06 389.805 1217.42 389.905 1217.82 389.905Z" fill="white"/>
<path opacity="0.3" d="M5.16056 281.57V291.989H3.58335V283.147H3.5223L1.0293 284.775V283.269L3.62914 281.57H5.16056ZM9.11654 292.086C8.83841 292.086 8.59929 291.988 8.39917 291.791C8.19905 291.591 8.09899 291.35 8.09899 291.068C8.09899 290.79 8.19905 290.553 8.39917 290.356C8.59929 290.156 8.83841 290.056 9.11654 290.056C9.39467 290.056 9.6338 290.156 9.83392 290.356C10.034 290.553 10.1341 290.79 10.1341 291.068C10.1341 291.255 10.0866 291.426 9.99164 291.582C9.90006 291.735 9.77795 291.857 9.62532 291.949C9.47269 292.04 9.30309 292.086 9.11654 292.086ZM12.8677 291.989V290.85L16.3936 287.197C16.7701 286.8 17.0804 286.452 17.3246 286.154C17.5722 285.852 17.7571 285.565 17.8792 285.294C18.0013 285.022 18.0624 284.734 18.0624 284.429C18.0624 284.083 17.9809 283.784 17.8181 283.533C17.6553 283.279 17.4332 283.084 17.1516 282.948C16.8701 282.809 16.553 282.74 16.2002 282.74C15.8271 282.74 15.5015 282.816 15.2234 282.969C14.9452 283.121 14.7316 283.337 14.5823 283.615C14.4331 283.893 14.3585 284.219 14.3585 284.592H12.8576C12.8576 283.957 13.0034 283.403 13.2951 282.928C13.5868 282.453 13.9871 282.085 14.4958 281.824C15.0046 281.559 15.5829 281.427 16.2308 281.427C16.8854 281.427 17.462 281.558 17.9606 281.819C18.4626 282.077 18.8543 282.429 19.1359 282.877C19.4174 283.321 19.5582 283.823 19.5582 284.383C19.5582 284.77 19.4852 285.148 19.3394 285.518C19.1969 285.887 18.9476 286.299 18.5915 286.754C18.2353 287.205 17.7401 287.753 17.1059 288.397L15.0351 290.565V290.641H19.726V291.989H12.8677ZM22.5131 291.989V281.57H24.0852V286.545H24.2124L28.5828 281.57H30.562L26.3595 286.26L30.5772 291.989H28.6846L25.3165 287.334L24.0852 288.748V291.989H22.5131Z" fill="white"/>
<path opacity="0.3" d="M5.16056 215.904V226.323H3.58335V217.481H3.5223L1.0293 219.109V217.603L3.62914 215.904H5.16056ZM9.11654 226.42C8.83841 226.42 8.59929 226.322 8.39917 226.125C8.19905 225.925 8.09899 225.684 8.09899 225.402C8.09899 225.124 8.19905 224.887 8.39917 224.69C8.59929 224.49 8.83841 224.39 9.11654 224.39C9.39467 224.39 9.6338 224.49 9.83392 224.69C10.034 224.887 10.1341 225.124 10.1341 225.402C10.1341 225.589 10.0866 225.76 9.99164 225.916C9.90006 226.069 9.77795 226.191 9.62532 226.283C9.47269 226.374 9.30309 226.42 9.11654 226.42ZM16.1176 226.466C15.4188 226.466 14.7947 226.345 14.2453 226.104C13.6992 225.864 13.2667 225.53 12.9479 225.102C12.6324 224.671 12.4628 224.173 12.4391 223.606H14.0367C14.057 223.915 14.1605 224.183 14.347 224.41C14.537 224.634 14.7846 224.807 15.0898 224.929C15.3951 225.051 15.7343 225.112 16.1074 225.112C16.5178 225.112 16.8807 225.041 17.1962 224.899C17.515 224.756 17.7643 224.558 17.9441 224.303C18.1238 224.046 18.2137 223.749 18.2137 223.413C18.2137 223.064 18.1238 222.757 17.9441 222.492C17.7677 222.224 17.5082 222.014 17.1656 221.861C16.8264 221.709 16.416 221.632 15.9344 221.632H15.0542V220.35H15.9344C16.3211 220.35 16.6602 220.281 16.9519 220.142C17.247 220.003 17.4777 219.809 17.6439 219.562C17.8101 219.311 17.8932 219.017 17.8932 218.681C17.8932 218.359 17.8203 218.079 17.6744 217.842C17.532 217.601 17.3284 217.413 17.0639 217.277C16.8027 217.142 16.494 217.074 16.1379 217.074C15.7987 217.074 15.4816 217.136 15.1865 217.262C14.8948 217.384 14.6574 217.56 14.4742 217.791C14.291 218.018 14.1927 218.291 14.1791 218.61H12.6579C12.6748 218.047 12.841 217.552 13.1565 217.125C13.4753 216.697 13.8959 216.363 14.4182 216.122C14.9406 215.881 15.5206 215.761 16.1583 215.761C16.8264 215.761 17.4031 215.892 17.8881 216.153C18.3765 216.411 18.753 216.755 19.0176 217.186C19.2855 217.616 19.4178 218.088 19.4144 218.6C19.4178 219.183 19.255 219.679 18.926 220.086C18.6004 220.493 18.1662 220.766 17.6235 220.905V220.986C18.3155 221.091 18.8514 221.366 19.2313 221.81C19.6145 222.255 19.8045 222.806 19.8011 223.464C19.8045 224.037 19.6451 224.551 19.3228 225.006C19.004 225.46 18.5682 225.818 18.0153 226.079C17.4624 226.337 16.8298 226.466 16.1176 226.466ZM22.5831 226.323V215.904H24.1552V220.879H24.2824L28.6528 215.904H30.6319L26.4294 220.594L30.6472 226.323H28.7545L25.3864 221.668L24.1552 223.082V226.323H22.5831Z" fill="white"/>
<path opacity="0.3" d="M5.16056 150.237V160.657H3.58335V151.815H3.5223L1.0293 153.443V151.937L3.62914 150.237H5.16056ZM9.11654 160.754C8.83841 160.754 8.59929 160.656 8.39917 160.459C8.19905 160.259 8.09899 160.018 8.09899 159.736C8.09899 159.458 8.19905 159.221 8.39917 159.024C8.59929 158.824 8.83841 158.724 9.11654 158.724C9.39467 158.724 9.6338 158.824 9.83392 159.024C10.034 159.221 10.1341 159.458 10.1341 159.736C10.1341 159.923 10.0866 160.094 9.99164 160.25C9.90006 160.403 9.77795 160.525 9.62532 160.617C9.47269 160.708 9.30309 160.754 9.11654 160.754ZM12.649 158.622V157.35L17.1516 150.237H18.1539V152.11H17.518L14.2974 157.208V157.289H20.4689V158.622H12.649ZM17.5892 160.657V158.235L17.5994 157.655V150.237H19.0901V160.657H17.5892ZM23.1008 160.657V150.237H24.6729V155.213H24.8001L29.1705 150.237H31.1496L26.9471 154.928L31.1649 160.657H29.2722L25.9041 156.002L24.6729 157.416V160.657H23.1008Z" fill="white"/>
<path opacity="0.3" d="M5.16056 84.5715V94.9912H3.58335V86.1487H3.5223L1.0293 87.7768V86.2708L3.62914 84.5715H5.16056ZM9.11654 95.0879C8.83841 95.0879 8.59929 94.9895 8.39917 94.7928C8.19905 94.5927 8.09899 94.3518 8.09899 94.0703C8.09899 93.7922 8.19905 93.5548 8.39917 93.358C8.59929 93.1579 8.83841 93.0579 9.11654 93.0579C9.39467 93.0579 9.6338 93.1579 9.83392 93.358C10.034 93.5548 10.1341 93.7922 10.1341 94.0703C10.1341 94.2569 10.0866 94.4282 9.99164 94.5842C9.90006 94.7368 9.77795 94.8589 9.62532 94.9505C9.47269 95.0421 9.30309 95.0879 9.11654 95.0879ZM16.1392 95.1337C15.5015 95.1337 14.9283 95.0116 14.4195 94.7673C13.9141 94.5197 13.5105 94.1806 13.2086 93.7498C12.9068 93.319 12.7456 92.8272 12.7253 92.2743H14.2516C14.2889 92.7221 14.4874 93.0901 14.8469 93.3784C15.2064 93.6667 15.6372 93.8109 16.1392 93.8109C16.5394 93.8109 16.8939 93.7193 17.2025 93.5361C17.5146 93.3496 17.7588 93.0935 17.9352 92.7679C18.1149 92.4422 18.2048 92.0708 18.2048 91.6536C18.2048 91.2297 18.1132 90.8515 17.9301 90.5191C17.7469 90.1867 17.4942 89.9255 17.172 89.7356C16.8532 89.5456 16.4868 89.4489 16.073 89.4456C15.7576 89.4456 15.4405 89.4998 15.1216 89.6084C14.8028 89.7169 14.545 89.8594 14.3483 90.0357L12.9084 89.822L13.4935 84.5715H19.2224V85.9197H14.8011L14.4704 88.835H14.5314C14.735 88.6383 15.0046 88.4738 15.3404 88.3415C15.6796 88.2092 16.0425 88.1431 16.4292 88.1431C17.0635 88.1431 17.6282 88.294 18.1234 88.5959C18.622 88.8978 19.0138 89.3099 19.2987 89.8322C19.587 90.3512 19.7294 90.9481 19.726 91.6231C19.7294 92.2981 19.5768 92.9001 19.2681 93.4293C18.9629 93.9584 18.5389 94.3756 17.9962 94.6809C17.4569 94.9827 16.8379 95.1337 16.1392 95.1337ZM22.4432 94.9912V84.5715H24.0153V89.5473H24.1425L28.5129 84.5715H30.492L26.2895 89.2624L30.5073 94.9912H28.6146L25.2465 90.3359L24.0153 91.7503V94.9912H22.4432Z" fill="white"/>
<rect opacity="0.15" x="50.6481" y="155.313" width="1171.84" height="0.596964" stroke="white" stroke-width="0.596964" stroke-dasharray="7.16 7.16"/>
<rect opacity="0.15" x="50.6481" y="220.979" width="1171.84" height="0.596964" stroke="white" stroke-width="0.596964" stroke-dasharray="7.16 7.16"/>
<rect opacity="0.15" x="50.6481" y="286.645" width="1171.84" height="0.596964" stroke="white" stroke-width="0.596964" stroke-dasharray="7.16 7.16"/>
<rect opacity="0.15" x="50.6481" y="352.311" width="1171.84" height="0.596964" stroke="white" stroke-width="0.596964" stroke-dasharray="7.16 7.16"/>
<rect opacity="0.15" x="50.6481" y="89.6471" width="1171.84" height="0.596964" stroke="white" stroke-width="0.596964" stroke-dasharray="7.16 7.16"/>
<rect x="787.004" y="89.3486" width="1.19393" height="263.858" fill="#FEBA00"/>
<path d="M57.176 292.316L50.3496 287.784V353.207H1222.79V111.019H1215.96L1209.99 97.9879L1203.16 91.1892L1196.33 92.8889H1188.65L1173.29 87.2233L1152.82 99.6875L1140.02 91.7558L1132.34 92.3223L1118.68 80.9912L1112.71 93.4554L1103.32 101.387L1097.35 99.6875L1089.67 100.821L1082.84 96.8548L1076.02 103.087L1066.63 97.9879L1056.39 97.4213L1041.89 101.954L1035.91 102.52L1026.53 99.121L1012.02 106.486L996.661 121.783L985.568 122.35L978.742 123.483L972.769 121.783L964.236 122.35L958.263 146.712L949.73 148.978L942.903 147.278L936.93 155.777L922.424 163.708L910.478 148.411L901.945 143.879L895.118 149.544L888.292 146.145L874.639 152.944L866.106 165.975H860.133L852.453 168.807L844.774 167.108L838.8 160.876L831.974 163.708L825.148 172.773L817.468 167.108L811.495 167.674L805.522 174.473L797.842 173.34L789.309 160.309L782.483 211.299L775.656 205.633L768.83 209.599L762.003 204.5L755.177 215.831H748.351L741.524 205.067L734.698 202.234L727.871 196.002L712.512 192.603L702.272 194.869L692.033 193.736L685.206 199.401L678.38 194.302L671.553 196.002L664.727 194.869L651.074 201.101L642.541 198.268L628.888 199.401L622.062 194.302L615.235 199.968L608.409 198.835L601.583 208.466L594.756 190.336L587.93 193.736L581.103 188.07L567.451 192.036L560.624 207.9L545.265 209.033L531.612 197.135L524.785 202.801L517.106 197.135L510.279 199.968L504.306 206.767L496.626 207.9L484.68 197.702L475.294 198.835L468.467 191.47H461.641L454.815 197.702H448.842L441.162 206.2L434.335 194.869L427.509 195.435L420.683 179.005L413.856 173.34L407.03 151.811L391.67 143.879L384.844 145.012L378.017 139.346L364.365 148.978L358.392 145.579H350.712L343.885 154.643L337.059 145.579L330.233 150.111L323.406 159.176L314.873 152.377L308.047 151.244L301.22 156.343L294.394 154.643L287.568 156.91L280.741 266.255L273.915 254.357L267.088 258.323L253.435 253.791L246.609 240.76C243.48 238.682 230.396 231.128 230.396 231.128L210.77 257.19L203.944 228.296L197.118 224.896L191.144 225.463L176.638 235.094L169.812 236.227L162.132 241.326L154.452 242.46L147.626 241.893L141.653 243.026L133.973 242.46L127.147 233.961H121.174L113.494 286.651L106.668 284.951H99.8411L93.0147 280.985L84.4817 283.252L77.6553 287.784L64.0024 288.35L57.176 292.316Z" fill="url(#paint0_linear_192_2633)" fill-opacity="0.2"/>
<path d="M50.3496 287.784L57.176 292.316L64.0024 288.35L77.6553 287.784L84.4817 283.251L93.0147 280.985L99.8411 284.951H106.668L113.494 286.651L121.174 233.961H127.147L133.973 242.459L141.653 243.026L147.626 241.893L154.452 242.459L162.132 241.326L169.812 236.227L176.638 235.094L191.144 225.463L197.118 224.896L203.944 228.296L210.77 257.19L230.396 231.128C230.396 231.128 243.48 238.682 246.609 240.76L253.435 253.791L267.088 258.323L273.915 254.357L280.741 266.255L287.568 156.91L294.394 154.643L301.22 156.343L308.047 151.244L314.873 152.377L323.406 159.176L330.233 150.111L337.059 145.579L343.885 154.643L350.712 145.579H358.392L364.365 148.978L378.018 139.346L384.844 145.012L391.67 143.879L407.03 151.811L413.856 173.34L420.683 179.005L427.509 195.435L434.335 194.869L441.162 206.2L448.842 197.702H454.815L461.641 191.47H468.468L475.294 198.835L484.68 197.702L496.626 207.9L504.306 206.767L510.279 199.968L517.106 197.135L524.785 202.801L531.612 197.135L545.265 209.033L560.624 207.9L567.451 192.036L581.103 188.07L587.93 193.736L594.756 190.336L601.583 208.466L608.409 198.835L615.235 199.968L622.062 194.302L628.888 199.401L642.541 198.268L651.074 201.101L664.727 194.869L671.553 196.002L678.38 194.302L685.206 199.401L692.033 193.736L702.272 194.869L712.512 192.603L727.871 196.002L734.698 202.234L741.524 205.067L748.351 215.831H755.177L762.003 204.5L768.83 209.599L775.656 205.633L782.483 211.299L789.309 160.309L797.842 173.34L805.522 174.473L811.495 167.674L817.468 167.108L825.148 172.773L831.974 163.708L838.801 160.876L844.774 167.108L852.453 168.807L860.133 165.975H866.106L874.639 152.944L888.292 146.145L895.118 149.544L901.945 143.879L910.478 148.411L922.424 163.708L936.93 155.777L942.903 147.278L949.73 148.978L958.263 146.712L964.236 122.35L972.769 121.783L978.742 123.483L985.568 122.35L996.661 121.783L1012.02 106.486L1026.53 99.121L1035.91 102.52L1041.89 101.954L1056.39 97.4213L1066.63 97.9879L1076.02 103.087L1082.84 96.8548L1089.67 100.821L1097.35 99.6875L1103.32 101.387L1112.71 93.4554L1118.68 80.9912L1132.34 92.3223L1140.02 91.7558L1152.82 99.6875L1173.29 87.2233L1188.65 92.8889H1196.33L1203.16 91.1892L1209.99 97.9879L1215.96 111.019H1222.79" stroke="url(#paint1_linear_192_2633)" stroke-width="2.38786"/>
<rect opacity="0.5" x="50.6481" y="298.585" width="1171.84" height="0.596964" stroke="#FF3642" stroke-width="0.596964"/>
<circle cx="788.198" cy="156.209" r="9.55142" fill="#FEBA00"/>
<circle cx="788.198" cy="156.208" r="4.77571" fill="white"/>
<rect x="714.174" y="362.758" width="148.047" height="40.5935" rx="2.38786" fill="white" fill-opacity="0.15"/>
<path d="M730.219 389.055V376.898H737.757V378.477H732.053V382.181H737.217V383.754H732.053V389.055H730.219ZM743.967 389.239C743.068 389.239 742.295 389.047 741.646 388.663C741.001 388.275 740.502 387.731 740.15 387.031C739.802 386.326 739.628 385.501 739.628 384.555C739.628 383.622 739.802 382.798 740.15 382.086C740.502 381.374 740.993 380.818 741.622 380.418C742.255 380.019 742.995 379.819 743.842 379.819C744.356 379.819 744.855 379.904 745.338 380.074C745.82 380.244 746.254 380.511 746.638 380.875C747.021 381.239 747.324 381.712 747.546 382.294C747.767 382.872 747.878 383.574 747.878 384.401V385.03H740.631V383.701H746.139C746.139 383.234 746.044 382.82 745.854 382.46C745.664 382.096 745.397 381.809 745.053 381.599C744.712 381.39 744.313 381.285 743.854 381.285C743.355 381.285 742.92 381.408 742.548 381.653C742.18 381.894 741.895 382.211 741.693 382.603C741.495 382.99 741.396 383.412 741.396 383.867V384.906C741.396 385.515 741.503 386.033 741.717 386.461C741.935 386.888 742.237 387.215 742.625 387.44C743.013 387.662 743.466 387.773 743.984 387.773C744.321 387.773 744.627 387.725 744.904 387.63C745.181 387.531 745.421 387.385 745.623 387.191C745.824 386.997 745.979 386.758 746.086 386.473L747.765 386.775C747.631 387.27 747.389 387.703 747.041 388.075C746.697 388.443 746.264 388.73 745.741 388.936C745.223 389.138 744.631 389.239 743.967 389.239ZM750.826 389.055V376.898H752.6V381.415H752.707C752.81 381.225 752.958 381.006 753.152 380.757C753.346 380.507 753.615 380.29 753.96 380.104C754.304 379.914 754.759 379.819 755.325 379.819C756.061 379.819 756.718 380.005 757.295 380.377C757.873 380.749 758.326 381.285 758.655 381.985C758.987 382.686 759.153 383.529 759.153 384.514C759.153 385.499 758.989 386.344 758.661 387.048C758.332 387.749 757.881 388.289 757.307 388.669C756.734 389.045 756.079 389.233 755.343 389.233C754.789 389.233 754.336 389.14 753.983 388.954C753.635 388.768 753.362 388.55 753.164 388.301C752.966 388.052 752.814 387.83 752.707 387.636H752.559V389.055H750.826ZM752.565 384.496C752.565 385.137 752.658 385.699 752.844 386.182C753.03 386.665 753.299 387.042 753.651 387.316C754.003 387.585 754.434 387.719 754.945 387.719C755.475 387.719 755.918 387.579 756.275 387.298C756.631 387.013 756.9 386.627 757.082 386.14C757.268 385.654 757.361 385.105 757.361 384.496C757.361 383.895 757.27 383.354 757.088 382.876C756.91 382.397 756.641 382.019 756.28 381.742C755.924 381.465 755.479 381.326 754.945 381.326C754.43 381.326 753.995 381.459 753.639 381.724C753.287 381.989 753.02 382.359 752.838 382.834C752.656 383.309 752.565 383.863 752.565 384.496ZM771.83 376.898V389.055H769.99V378.738H769.918L767.01 380.638V378.881L770.043 376.898H771.83ZM775.699 386.68V385.196L780.952 376.898H782.121V379.083H781.379L777.622 385.03V385.125H784.822V386.68H775.699ZM781.462 389.055V386.229L781.474 385.553V376.898H783.213V389.055H781.462ZM789.602 387.393L789.513 388.04C789.453 388.515 789.353 389.009 789.21 389.524C789.072 390.042 788.927 390.523 788.777 390.966C788.63 391.409 788.51 391.761 788.415 392.023H787.156C787.208 391.777 787.279 391.445 787.37 391.025C787.461 390.61 787.55 390.145 787.637 389.63C787.724 389.116 787.789 388.592 787.833 388.057L787.892 387.393H789.602ZM802.216 389.257C801.278 389.253 800.477 389.005 799.812 388.515C799.147 388.024 798.639 387.31 798.286 386.372C797.934 385.434 797.758 384.304 797.758 382.982C797.758 381.665 797.934 380.539 798.286 379.605C798.642 378.671 799.153 377.959 799.818 377.468C800.487 376.977 801.286 376.732 802.216 376.732C803.146 376.732 803.943 376.979 804.608 377.474C805.273 377.965 805.781 378.677 806.133 379.611C806.49 380.541 806.668 381.665 806.668 382.982C806.668 384.308 806.491 385.44 806.139 386.378C805.787 387.312 805.279 388.026 804.614 388.52C803.949 389.011 803.15 389.257 802.216 389.257ZM802.216 387.672C803.039 387.672 803.682 387.27 804.145 386.467C804.612 385.663 804.845 384.502 804.845 382.982C804.845 381.973 804.738 381.121 804.525 380.424C804.315 379.724 804.012 379.193 803.617 378.833C803.225 378.469 802.758 378.287 802.216 378.287C801.397 378.287 800.754 378.691 800.287 379.498C799.82 380.305 799.584 381.467 799.58 382.982C799.58 383.995 799.685 384.852 799.895 385.553C800.109 386.249 800.411 386.777 800.803 387.137C801.195 387.494 801.666 387.672 802.216 387.672ZM809.609 389.055V387.725L813.722 383.463C814.162 383 814.524 382.595 814.809 382.246C815.098 381.894 815.313 381.56 815.456 381.243C815.598 380.927 815.669 380.59 815.669 380.234C815.669 379.831 815.574 379.482 815.384 379.19C815.195 378.893 814.935 378.665 814.607 378.507C814.278 378.345 813.908 378.264 813.497 378.264C813.062 378.264 812.682 378.353 812.357 378.531C812.033 378.709 811.783 378.96 811.609 379.284C811.435 379.609 811.348 379.989 811.348 380.424H809.597C809.597 379.684 809.767 379.037 810.108 378.483C810.448 377.929 810.915 377.5 811.508 377.195C812.102 376.886 812.777 376.732 813.533 376.732C814.296 376.732 814.969 376.884 815.551 377.189C816.136 377.49 816.593 377.901 816.922 378.424C817.25 378.942 817.415 379.528 817.415 380.181C817.415 380.632 817.329 381.073 817.159 381.504C816.993 381.936 816.702 382.417 816.287 382.947C815.871 383.473 815.293 384.112 814.553 384.864L812.138 387.393V387.482H817.61V389.055H809.609ZM821.889 387.547C821.564 387.547 821.285 387.432 821.052 387.203C820.818 386.969 820.702 386.688 820.702 386.36C820.702 386.035 820.818 385.758 821.052 385.529C821.285 385.295 821.564 385.179 821.889 385.179C822.213 385.179 822.492 385.295 822.726 385.529C822.959 385.758 823.076 386.035 823.076 386.36C823.076 386.578 823.021 386.777 822.91 386.959C822.803 387.137 822.66 387.28 822.482 387.387C822.304 387.494 822.106 387.547 821.889 387.547ZM821.889 381.457C821.564 381.457 821.285 381.342 821.052 381.113C820.818 380.879 820.702 380.598 820.702 380.27C820.702 379.945 820.818 379.668 821.052 379.439C821.285 379.205 821.564 379.089 821.889 379.089C822.213 379.089 822.492 379.205 822.726 379.439C822.959 379.668 823.076 379.945 823.076 380.27C823.076 380.487 823.021 380.687 822.91 380.869C822.803 381.047 822.66 381.19 822.482 381.297C822.304 381.404 822.106 381.457 821.889 381.457ZM830.497 389.257C829.56 389.253 828.758 389.005 828.093 388.515C827.429 388.024 826.92 387.31 826.568 386.372C826.216 385.434 826.04 384.304 826.04 382.982C826.04 381.665 826.216 380.539 826.568 379.605C826.924 378.671 827.435 377.959 828.099 377.468C828.768 376.977 829.567 376.732 830.497 376.732C831.427 376.732 832.225 376.979 832.89 377.474C833.554 377.965 834.063 378.677 834.415 379.611C834.771 380.541 834.949 381.665 834.949 382.982C834.949 384.308 834.773 385.44 834.421 386.378C834.069 387.312 833.56 388.026 832.895 388.52C832.231 389.011 831.431 389.257 830.497 389.257ZM830.497 387.672C831.321 387.672 831.964 387.27 832.427 386.467C832.893 385.663 833.127 384.502 833.127 382.982C833.127 381.973 833.02 381.121 832.806 380.424C832.597 379.724 832.294 379.193 831.898 378.833C831.507 378.469 831.04 378.287 830.497 378.287C829.678 378.287 829.035 378.691 828.568 379.498C828.101 380.305 827.866 381.467 827.862 382.982C827.862 383.995 827.967 384.852 828.177 385.553C828.39 386.249 828.693 386.777 829.085 387.137C829.476 387.494 829.947 387.672 830.497 387.672ZM842.123 389.257C841.185 389.253 840.384 389.005 839.719 388.515C839.054 388.024 838.546 387.31 838.193 386.372C837.841 385.434 837.665 384.304 837.665 382.982C837.665 381.665 837.841 380.539 838.193 379.605C838.55 378.671 839.06 377.959 839.725 377.468C840.394 376.977 841.193 376.732 842.123 376.732C843.053 376.732 843.85 376.979 844.515 377.474C845.18 377.965 845.688 378.677 846.04 379.611C846.397 380.541 846.575 381.665 846.575 382.982C846.575 384.308 846.399 385.44 846.046 386.378C845.694 387.312 845.186 388.026 844.521 388.52C843.856 389.011 843.057 389.257 842.123 389.257ZM842.123 387.672C842.946 387.672 843.589 387.27 844.052 386.467C844.519 385.663 844.752 384.502 844.752 382.982C844.752 381.973 844.646 381.121 844.432 380.424C844.222 379.724 843.919 379.193 843.524 378.833C843.132 378.469 842.665 378.287 842.123 378.287C841.304 378.287 840.661 378.691 840.194 379.498C839.727 380.305 839.491 381.467 839.487 382.982C839.487 383.995 839.592 384.852 839.802 385.553C840.016 386.249 840.318 386.777 840.71 387.137C841.102 387.494 841.573 387.672 842.123 387.672Z" fill="white"/>
<rect x="616.868" y="112.63" width="152.823" height="85.9628" rx="4.17875" fill="url(#paint2_linear_192_2633)"/>
<rect x="616.868" y="112.63" width="152.823" height="85.9628" rx="4.17875" stroke="url(#paint3_linear_192_2633)" stroke-width="1.19393"/>
<path opacity="0.5" d="M636.006 133.682V132.328H644.07V133.682H640.819V142.748H639.252V133.682H636.006ZM648.605 142.906C647.872 142.906 647.233 142.738 646.687 142.402C646.141 142.066 645.717 141.597 645.415 140.993C645.113 140.389 644.962 139.684 644.962 138.876C644.962 138.066 645.113 137.357 645.415 136.75C645.717 136.142 646.141 135.671 646.687 135.335C647.233 134.999 647.872 134.831 648.605 134.831C649.337 134.831 649.977 134.999 650.523 135.335C651.069 135.671 651.493 136.142 651.795 136.75C652.097 137.357 652.248 138.066 652.248 138.876C652.248 139.684 652.097 140.389 651.795 140.993C651.493 141.597 651.069 142.066 650.523 142.402C649.977 142.738 649.337 142.906 648.605 142.906ZM648.61 141.629C649.085 141.629 649.478 141.503 649.79 141.252C650.102 141.001 650.333 140.667 650.482 140.25C650.635 139.833 650.711 139.373 650.711 138.871C650.711 138.373 650.635 137.915 650.482 137.497C650.333 137.077 650.102 136.739 649.79 136.485C649.478 136.231 649.085 136.103 648.61 136.103C648.132 136.103 647.735 136.231 647.419 136.485C647.107 136.739 646.875 137.077 646.722 137.497C646.573 137.915 646.498 138.373 646.498 138.871C646.498 139.373 646.573 139.833 646.722 140.25C646.875 140.667 647.107 141.001 647.419 141.252C647.735 141.503 648.132 141.629 648.61 141.629ZM658.31 134.933V136.154H654.041V134.933H658.31ZM655.186 133.061H656.707V140.453C656.707 140.749 656.751 140.971 656.839 141.12C656.928 141.266 657.041 141.366 657.18 141.42C657.323 141.471 657.477 141.496 657.643 141.496C657.765 141.496 657.872 141.488 657.964 141.471C658.055 141.454 658.127 141.44 658.178 141.43L658.452 142.687C658.364 142.721 658.239 142.755 658.076 142.789C657.913 142.826 657.71 142.846 657.465 142.85C657.065 142.857 656.692 142.785 656.346 142.636C656 142.487 655.72 142.256 655.507 141.944C655.293 141.632 655.186 141.24 655.186 140.769V133.061ZM662.983 142.921C662.488 142.921 662.04 142.829 661.64 142.646C661.24 142.46 660.923 142.19 660.689 141.837C660.458 141.485 660.343 141.052 660.343 140.54C660.343 140.099 660.427 139.736 660.597 139.451C660.767 139.166 660.996 138.941 661.284 138.775C661.572 138.608 661.894 138.483 662.251 138.398C662.607 138.313 662.97 138.249 663.339 138.205C663.807 138.15 664.187 138.106 664.479 138.072C664.771 138.035 664.983 137.976 665.115 137.894C665.247 137.813 665.313 137.681 665.313 137.497V137.462C665.313 137.018 665.188 136.673 664.937 136.429C664.689 136.185 664.32 136.063 663.828 136.063C663.316 136.063 662.912 136.176 662.617 136.404C662.325 136.627 662.123 136.877 662.011 137.152L660.582 136.826C660.751 136.351 660.999 135.968 661.325 135.676C661.654 135.381 662.032 135.167 662.459 135.035C662.887 134.899 663.336 134.831 663.807 134.831C664.119 134.831 664.45 134.869 664.8 134.943C665.152 135.015 665.481 135.147 665.787 135.34C666.095 135.534 666.348 135.81 666.545 136.17C666.741 136.526 666.84 136.989 666.84 137.559V142.748H665.354V141.68H665.293C665.195 141.876 665.047 142.07 664.85 142.26C664.654 142.45 664.401 142.607 664.092 142.733C663.784 142.858 663.414 142.921 662.983 142.921ZM663.314 141.7C663.735 141.7 664.094 141.617 664.393 141.451C664.694 141.284 664.923 141.067 665.079 140.799C665.239 140.528 665.318 140.238 665.318 139.929V138.922C665.264 138.976 665.159 139.027 665.003 139.075C664.85 139.119 664.676 139.158 664.479 139.192C664.282 139.222 664.091 139.251 663.904 139.278C663.718 139.302 663.562 139.322 663.436 139.339C663.141 139.377 662.871 139.439 662.627 139.527C662.386 139.616 662.193 139.743 662.047 139.909C661.905 140.072 661.833 140.289 661.833 140.56C661.833 140.937 661.972 141.222 662.251 141.415C662.529 141.605 662.883 141.7 663.314 141.7ZM671.104 132.328V142.748H669.582V132.328H671.104ZM678.374 145.679V134.933H679.86V136.2H679.987C680.075 136.037 680.203 135.849 680.369 135.635C680.535 135.422 680.766 135.235 681.061 135.076C681.356 134.913 681.746 134.831 682.231 134.831C682.862 134.831 683.425 134.991 683.92 135.31C684.415 135.629 684.804 136.088 685.085 136.689C685.37 137.289 685.513 138.011 685.513 138.856C685.513 139.7 685.372 140.425 685.09 141.028C684.809 141.629 684.422 142.092 683.93 142.417C683.438 142.74 682.877 142.901 682.246 142.901C681.771 142.901 681.383 142.821 681.081 142.662C680.783 142.502 680.549 142.316 680.379 142.102C680.209 141.888 680.079 141.698 679.987 141.532H679.896V145.679H678.374ZM679.865 138.841C679.865 139.39 679.945 139.872 680.104 140.286C680.264 140.699 680.494 141.023 680.796 141.257C681.098 141.488 681.468 141.603 681.905 141.603C682.36 141.603 682.74 141.483 683.045 141.242C683.35 140.998 683.581 140.667 683.737 140.25C683.896 139.833 683.976 139.363 683.976 138.841C683.976 138.325 683.898 137.862 683.742 137.452C683.589 137.041 683.359 136.717 683.05 136.48C682.745 136.242 682.363 136.124 681.905 136.124C681.464 136.124 681.091 136.237 680.786 136.465C680.484 136.692 680.255 137.009 680.099 137.416C679.943 137.823 679.865 138.298 679.865 138.841ZM691.225 142.906C690.492 142.906 689.853 142.738 689.307 142.402C688.761 142.066 688.337 141.597 688.035 140.993C687.733 140.389 687.582 139.684 687.582 138.876C687.582 138.066 687.733 137.357 688.035 136.75C688.337 136.142 688.761 135.671 689.307 135.335C689.853 134.999 690.492 134.831 691.225 134.831C691.958 134.831 692.597 134.999 693.143 135.335C693.689 135.671 694.113 136.142 694.415 136.75C694.717 137.357 694.868 138.066 694.868 138.876C694.868 139.684 694.717 140.389 694.415 140.993C694.113 141.597 693.689 142.066 693.143 142.402C692.597 142.738 691.958 142.906 691.225 142.906ZM691.23 141.629C691.705 141.629 692.099 141.503 692.411 141.252C692.723 141.001 692.953 140.667 693.102 140.25C693.255 139.833 693.331 139.373 693.331 138.871C693.331 138.373 693.255 137.915 693.102 137.497C692.953 137.077 692.723 136.739 692.411 136.485C692.099 136.231 691.705 136.103 691.23 136.103C690.752 136.103 690.355 136.231 690.04 136.485C689.728 136.739 689.495 137.077 689.343 137.497C689.193 137.915 689.119 138.373 689.119 138.871C689.119 139.373 689.193 139.833 689.343 140.25C689.495 140.667 689.728 141.001 690.04 141.252C690.355 141.503 690.752 141.629 691.23 141.629ZM697.282 142.748V134.933H698.753V136.175H698.834C698.977 135.754 699.228 135.423 699.587 135.183C699.95 134.938 700.36 134.816 700.818 134.816C700.913 134.816 701.025 134.82 701.154 134.826C701.286 134.833 701.39 134.842 701.464 134.852V136.307C701.403 136.29 701.295 136.271 701.139 136.251C700.983 136.227 700.827 136.215 700.671 136.215C700.311 136.215 699.991 136.292 699.709 136.444C699.431 136.594 699.211 136.802 699.048 137.07C698.885 137.335 698.804 137.637 698.804 137.976V142.748H697.282ZM707.607 134.933V136.154H703.338V134.933H707.607ZM704.483 133.061H706.004V140.453C706.004 140.749 706.048 140.971 706.137 141.12C706.225 141.266 706.338 141.366 706.477 141.42C706.62 141.471 706.774 141.496 706.94 141.496C707.063 141.496 707.169 141.488 707.261 141.471C707.353 141.454 707.424 141.44 707.475 141.43L707.749 142.687C707.661 142.721 707.536 142.755 707.373 142.789C707.21 142.826 707.007 142.846 706.762 142.85C706.362 142.857 705.989 142.785 705.643 142.636C705.297 142.487 705.017 142.256 704.804 141.944C704.59 141.632 704.483 141.24 704.483 140.769V133.061ZM713.725 134.933V136.154H709.309V134.933H713.725ZM710.52 142.748V134.028C710.52 133.539 710.627 133.134 710.84 132.812C711.054 132.486 711.337 132.244 711.69 132.084C712.043 131.921 712.426 131.84 712.84 131.84C713.145 131.84 713.406 131.865 713.623 131.916C713.841 131.964 714.002 132.008 714.107 132.048L713.751 133.28C713.679 133.259 713.588 133.236 713.476 133.208C713.364 133.178 713.228 133.163 713.069 133.163C712.699 133.163 712.435 133.254 712.275 133.437C712.119 133.621 712.041 133.885 712.041 134.231V142.748H710.52ZM718.995 142.906C718.262 142.906 717.623 142.738 717.077 142.402C716.531 142.066 716.107 141.597 715.805 140.993C715.503 140.389 715.352 139.684 715.352 138.876C715.352 138.066 715.503 137.357 715.805 136.75C716.107 136.142 716.531 135.671 717.077 135.335C717.623 134.999 718.262 134.831 718.995 134.831C719.728 134.831 720.367 134.999 720.913 135.335C721.459 135.671 721.883 136.142 722.185 136.75C722.487 137.357 722.638 138.066 722.638 138.876C722.638 139.684 722.487 140.389 722.185 140.993C721.883 141.597 721.459 142.066 720.913 142.402C720.367 142.738 719.728 142.906 718.995 142.906ZM719 141.629C719.475 141.629 719.869 141.503 720.181 141.252C720.493 141.001 720.723 140.667 720.873 140.25C721.025 139.833 721.101 139.373 721.101 138.871C721.101 138.373 721.025 137.915 720.873 137.497C720.723 137.077 720.493 136.739 720.181 136.485C719.869 136.231 719.475 136.103 719 136.103C718.522 136.103 718.125 136.231 717.81 136.485C717.498 136.739 717.265 137.077 717.113 137.497C716.963 137.915 716.889 138.373 716.889 138.871C716.889 139.373 716.963 139.833 717.113 140.25C717.265 140.667 717.498 141.001 717.81 141.252C718.125 141.503 718.522 141.629 719 141.629ZM726.574 132.328V142.748H725.052V132.328H726.574ZM729.337 142.748V134.933H730.858V142.748H729.337ZM730.105 133.727C729.84 133.727 729.613 133.639 729.423 133.463C729.236 133.283 729.143 133.069 729.143 132.822C729.143 132.571 729.236 132.357 729.423 132.181C729.613 132.001 729.84 131.911 730.105 131.911C730.369 131.911 730.595 132.001 730.781 132.181C730.971 132.357 731.066 132.571 731.066 132.822C731.066 133.069 730.971 133.283 730.781 133.463C730.595 133.639 730.369 133.727 730.105 133.727ZM736.912 142.906C736.18 142.906 735.54 142.738 734.994 142.402C734.448 142.066 734.024 141.597 733.722 140.993C733.421 140.389 733.27 139.684 733.27 138.876C733.27 138.066 733.421 137.357 733.722 136.75C734.024 136.142 734.448 135.671 734.994 135.335C735.54 134.999 736.18 134.831 736.912 134.831C737.645 134.831 738.284 134.999 738.831 135.335C739.377 135.671 739.801 136.142 740.102 136.75C740.404 137.357 740.555 138.066 740.555 138.876C740.555 139.684 740.404 140.389 740.102 140.993C739.801 141.597 739.377 142.066 738.831 142.402C738.284 142.738 737.645 142.906 736.912 142.906ZM736.918 141.629C737.392 141.629 737.786 141.503 738.098 141.252C738.41 141.001 738.641 140.667 738.79 140.25C738.942 139.833 739.019 139.373 739.019 138.871C739.019 138.373 738.942 137.915 738.79 137.497C738.641 137.077 738.41 136.739 738.098 136.485C737.786 136.231 737.392 136.103 736.918 136.103C736.439 136.103 736.042 136.231 735.727 136.485C735.415 136.739 735.183 137.077 735.03 137.497C734.881 137.915 734.806 138.373 734.806 138.871C734.806 139.373 734.881 139.833 735.03 140.25C735.183 140.667 735.415 141.001 735.727 141.252C736.042 141.503 736.439 141.629 736.918 141.629Z" fill="white"/>
<path d="M647.577 171.071C647.577 170.236 647.29 169.543 646.765 168.994C646.216 168.469 645.547 168.087 644.783 167.872C643.995 167.681 643.207 167.513 642.443 167.394C641.655 167.275 640.986 167.131 640.413 166.964C639.84 166.821 639.554 166.582 639.53 166.296C639.506 165.961 639.673 165.651 640.007 165.388C640.342 165.149 640.891 165.006 641.679 165.006C642.539 165.006 643.159 165.173 643.518 165.484C643.876 165.818 644.091 166.296 644.162 166.964H647.386C647.386 164.481 646.073 163.024 643.47 162.571V159.586H640.533V162.499C639.076 162.69 638.002 163.12 637.285 163.836C636.569 164.553 636.235 165.412 636.282 166.439C636.282 167.131 636.497 167.705 636.927 168.182C637.333 168.66 637.834 168.994 638.455 169.185C639.052 169.376 639.697 169.567 640.413 169.71C641.13 169.854 641.774 169.973 642.371 170.068C642.945 170.164 643.446 170.307 643.828 170.498C644.21 170.689 644.377 170.952 644.353 171.286C644.306 171.573 644.091 171.835 643.709 172.05C643.327 172.265 642.777 172.361 642.013 172.361C640.198 172.361 639.291 171.668 639.291 170.26H636.067C636.02 173.006 637.524 174.558 640.533 174.892V177.901H643.47V174.892C644.831 174.701 645.858 174.223 646.55 173.507C647.219 172.791 647.577 171.979 647.577 171.071ZM662.543 174.82V159.538H659.152L656.263 160.016V162.356H659.152V174.82H662.543ZM670.439 173.197C670.511 172.528 670.344 172.05 669.962 171.764C669.556 171.477 668.983 171.334 668.243 171.334C667.502 171.334 666.953 171.477 666.571 171.716C666.189 171.979 665.998 172.456 665.998 173.149C665.998 174.295 666.595 174.916 667.789 174.987V178.02H669.89L670.439 173.197ZM684.751 170.021C684.751 169.328 684.632 168.707 684.417 168.158C684.202 167.633 683.939 167.203 683.605 166.893C683.271 166.582 682.865 166.32 682.411 166.129C681.933 165.937 681.504 165.794 681.074 165.723C680.644 165.651 680.19 165.603 679.736 165.603L684.226 163.215V159.538H673.6V162.356H680.692L675.51 165.364V167.872H678.543C680.453 167.872 681.432 168.588 681.432 170.021C681.432 170.642 681.217 171.191 680.835 171.621C680.453 172.05 679.856 172.265 679.092 172.265C678.161 172.265 677.468 172.05 676.99 171.573C676.513 171.119 676.274 170.474 676.274 169.639H673.051C673.051 171.286 673.528 172.6 674.483 173.555C675.438 174.534 676.943 175.011 678.972 175.011C680.907 175.011 682.363 174.558 683.318 173.603C684.273 172.647 684.751 171.453 684.751 170.021ZM700.281 167.155C700.281 164.433 699.78 162.451 698.777 161.21C697.774 159.968 696.126 159.347 693.882 159.347C691.876 159.347 690.395 159.825 689.393 160.732C688.39 161.639 687.912 162.833 687.912 164.314C687.912 165.221 688.079 166.009 688.414 166.654C688.748 167.322 689.178 167.8 689.727 168.134C690.276 168.469 690.849 168.707 691.422 168.851C691.995 168.994 692.616 169.066 693.237 169.066C694.24 169.066 695.052 168.922 695.72 168.588C696.389 168.278 696.819 167.943 697.01 167.561C696.986 169.304 696.747 170.522 696.293 171.239C695.84 171.955 695.052 172.289 693.906 172.289C692.139 172.289 691.255 171.549 691.255 170.021H687.912C687.912 171.764 688.414 173.029 689.416 173.817C690.419 174.629 691.924 175.011 693.906 175.011C696.102 175.011 697.726 174.414 698.753 173.173C699.756 171.955 700.281 169.949 700.281 167.155ZM696.771 164.29C696.771 164.935 696.508 165.46 696.031 165.842C695.553 166.248 694.885 166.439 694.049 166.439C692.186 166.439 691.255 165.746 691.255 164.314C691.255 163.693 691.47 163.168 691.9 162.738C692.33 162.308 692.974 162.093 693.834 162.093C694.837 162.093 695.577 162.308 696.055 162.714C696.532 163.12 696.771 163.645 696.771 164.29ZM716.629 171.907V169.209H714.193V159.538H709.656L702.922 168.827V171.931H710.778V174.82H714.193V171.907H716.629ZM710.778 169.209H706.146L710.778 162.786V169.209Z" fill="white"/>
</g>
<defs>
<linearGradient id="paint0_linear_192_2633" x1="636.568" y1="80.9912" x2="636.568" y2="353.207" gradientUnits="userSpaceOnUse">
<stop stop-color="#FEBA00"/>
<stop offset="1" stop-color="#FEBA00" stop-opacity="0"/>
</linearGradient>
<linearGradient id="paint1_linear_192_2633" x1="50.3496" y1="188.101" x2="1222.79" y2="188.101" gradientUnits="userSpaceOnUse">
<stop stop-color="#FEBA00"/>
<stop offset="1" stop-color="#53451F"/>
</linearGradient>
<linearGradient id="paint2_linear_192_2633" x1="616.271" y1="112.033" x2="769.248" y2="200.979" gradientUnits="userSpaceOnUse">
<stop stop-color="#494949"/>
<stop offset="1" stop-color="#494949" stop-opacity="0.06"/>
</linearGradient>
<linearGradient id="paint3_linear_192_2633" x1="616.271" y1="112.033" x2="769.248" y2="200.979" gradientUnits="userSpaceOnUse">
<stop stop-color="white" stop-opacity="0.3"/>
<stop offset="1" stop-color="white" stop-opacity="0.1"/>
</linearGradient>
<clipPath id="clip0_192_2633">
<rect width="1222.58" height="322.36" fill="white" transform="translate(0.205078 80.9912)"/>
</clipPath>
</defs>
</svg>
