<svg width="233" height="175" viewBox="0 0 233 175" fill="none" xmlns="http://www.w3.org/2000/svg">
<path d="M159.556 133.636C161.358 129.874 158.444 129.818 157.174 129.98C159.255 129.036 159.738 124.44 155.981 124.507C156.945 123.079 156.055 118.681 153.653 119.19C154.864 117.179 165.747 109.749 162.168 106.654C160.197 104.948 151.217 114.042 145.586 119.19C143.201 121.371 142.746 114.145 139.042 116.319C134.614 118.918 131.972 123.598 133.717 129.471C129.876 131.86 102.414 148.68 97.2125 132.337C92.1198 116.336 103.35 97.4466 91.4599 82.1787C82.9388 71.2369 71.6166 76.0364 64.6254 90.7409C54.2861 112.487 59.7545 144.062 72.7124 157.218C107.749 192.791 159.064 134.661 159.556 133.636Z" fill="white"/>
<path d="M99.111 168.968C89.041 168.968 80.1293 165.089 72.5418 157.386C69.3288 154.123 66.5584 149.765 64.3077 144.432C62.1334 139.279 60.5385 133.332 59.6953 127.233C58.8167 120.878 58.7399 114.55 59.4672 108.424C60.2432 101.887 61.9059 95.9033 64.4092 90.6382C68.5244 81.9828 74.1922 76.6569 79.9594 76.0262C84.1867 75.5639 88.2287 77.6406 91.6484 82.0317C93.3398 84.2035 94.6154 86.4917 95.548 89.0268C96.3779 91.2823 96.9144 93.6809 97.1882 96.36C97.6952 101.321 97.1975 106.494 96.7162 111.497C96.0446 118.478 95.35 125.697 97.4402 132.264C98.4247 135.357 100.303 137.434 103.022 138.436C105.254 139.259 108.089 139.379 111.449 138.792C114.221 138.308 117.368 137.342 120.802 135.92C124.788 134.271 129.268 131.945 133.437 129.364C132.644 126.573 132.782 123.952 133.846 121.569C134.828 119.372 136.583 117.485 138.921 116.113C139.893 115.542 140.753 115.516 141.551 116.035C142.217 116.467 142.736 117.227 143.195 117.897C143.689 118.621 144.157 119.305 144.651 119.362C144.885 119.389 145.138 119.275 145.424 119.013C146.325 118.19 147.305 117.271 148.343 116.299C151.02 113.789 154.055 110.945 156.596 108.938C159.655 106.522 161.475 105.738 162.325 106.473C162.849 106.927 163.119 107.493 163.126 108.156C163.153 110.671 159.315 114.141 156.513 116.675C155.527 117.565 154.647 118.361 154.162 118.915C154.79 118.961 155.355 119.322 155.79 119.968C156.59 121.155 156.828 123.135 156.369 124.278C157.728 124.374 158.654 125.116 158.933 126.354C159.204 127.554 158.787 128.904 157.987 129.696C158.703 129.711 159.579 129.877 160.046 130.524C160.551 131.223 160.458 132.305 159.771 133.739C159.554 134.191 152.922 141.746 143.133 149.625C137.408 154.234 131.675 158.102 126.094 161.122C119.152 164.879 112.445 167.316 106.159 168.366C103.752 168.768 101.4 168.968 99.111 168.968ZM81.1085 76.4416C80.7443 76.4416 80.3786 76.4615 80.0114 76.5017C74.4128 77.1139 68.8835 82.3414 64.8412 90.8436C62.3602 96.0617 60.712 101.996 59.9421 108.48C59.2197 114.566 59.2961 120.853 60.1691 127.168C61.0066 133.226 62.5901 139.131 64.7483 144.246C66.9441 149.449 69.7569 153.877 72.8826 157.05C77.49 161.728 82.6423 165.012 88.1963 166.81C93.1862 168.426 98.6076 168.878 104.31 168.154C110.668 167.347 117.484 165.072 124.567 161.391C130.279 158.422 136.167 154.545 142.065 149.866C152.473 141.611 159.124 133.889 159.342 133.528C159.946 132.266 160.052 131.35 159.658 130.804C159.122 130.06 157.763 130.146 157.204 130.217C157.086 130.232 156.976 130.159 156.943 130.045C156.911 129.931 156.967 129.811 157.075 129.762C158.107 129.293 158.758 127.75 158.467 126.46C158.319 125.806 157.803 124.715 155.985 124.746C155.984 124.746 155.982 124.746 155.981 124.746C155.893 124.746 155.813 124.699 155.771 124.621C155.728 124.543 155.733 124.448 155.783 124.374C156.323 123.572 156.25 121.505 155.393 120.235C155.079 119.768 154.53 119.249 153.703 119.424C153.609 119.444 153.513 119.406 153.458 119.329C153.403 119.251 153.399 119.148 153.448 119.067C153.8 118.482 154.856 117.528 156.192 116.32C158.927 113.847 162.673 110.461 162.648 108.161C162.642 107.634 162.434 107.2 162.012 106.835C161.58 106.462 160.342 106.589 156.892 109.314C154.367 111.308 151.34 114.145 148.67 116.648C147.631 117.621 146.65 118.541 145.747 119.366C145.352 119.727 144.976 119.881 144.596 119.837C143.885 119.755 143.358 118.984 142.799 118.167C142.345 117.503 141.876 116.816 141.29 116.436C140.65 116.02 139.974 116.049 139.162 116.525C136.911 117.847 135.224 119.658 134.283 121.765C133.244 124.089 133.131 126.659 133.946 129.403C133.977 129.506 133.935 129.618 133.843 129.674C129.61 132.307 125.043 134.683 120.985 136.362C117.518 137.798 114.337 138.774 111.531 139.263C108.087 139.865 105.168 139.737 102.857 138.885C99.9916 137.829 98.0158 135.651 96.9843 132.409C94.8643 125.749 95.5637 118.48 96.2399 111.451C96.719 106.471 97.2144 101.322 96.7122 96.4086C96.4425 93.77 95.9148 91.4095 95.099 89.192C94.1836 86.7039 92.9314 84.4579 91.2709 82.3257C88.2587 78.4576 84.7656 76.4416 81.1085 76.4416Z" fill="black"/>
<path d="M153.21 138.206C153.187 138.206 153.165 138.205 153.143 138.205C152.416 138.186 151.815 137.872 151.355 137.271C150.906 136.684 150.761 136.028 150.924 135.322C151.115 134.496 151.718 133.678 152.475 132.935C151.584 133.294 150.698 133.54 149.939 133.54C149.758 133.54 149.584 133.526 149.419 133.496C148.867 133.396 148.446 133.127 148.166 132.698C147.923 132.327 147.858 131.891 147.973 131.404C148.25 130.229 149.581 128.85 151.073 127.621C149.733 128.216 148.396 128.618 147.442 128.454C146.964 128.372 146.598 128.155 146.354 127.809C146.129 127.49 146.055 127.102 146.132 126.655C146.621 123.853 153.235 119.191 153.516 118.994L153.791 119.386C153.723 119.433 147.058 124.13 146.604 126.737C146.548 127.058 146.594 127.319 146.745 127.533C146.916 127.775 147.17 127.922 147.523 127.983C148.542 128.157 150.296 127.584 152.597 126.324C152.909 126.153 153.212 125.98 153.499 125.811C154.754 124.951 155.753 124.364 155.861 124.301L156.119 124.703C156.023 124.771 155.065 125.446 153.775 126.207C151.666 127.652 148.829 129.86 148.439 131.514C148.354 131.874 148.395 132.175 148.566 132.437C148.775 132.756 149.081 132.948 149.504 133.025C150.459 133.199 151.968 132.758 153.879 131.746C155.399 130.609 156.947 129.826 157.067 129.766L157.315 130.173C157.206 130.253 155.822 131.259 154.143 132.15C152.88 133.095 151.658 134.273 151.39 135.43C151.259 135.999 151.372 136.505 151.735 136.98C152.108 137.468 152.572 137.712 153.154 137.727C153.173 137.727 153.193 137.727 153.212 137.727C155.74 137.727 159.337 133.524 159.373 133.481L159.738 133.79C159.584 133.972 155.961 138.206 153.21 138.206Z" fill="black"/>
<path d="M122.639 135.391C113.087 139.648 100.555 142.838 97.2126 132.337C92.1198 116.336 103.35 97.4465 91.4599 82.1787C82.9389 71.2369 71.6166 76.0364 64.6254 90.7409C54.2861 112.487 59.7544 144.062 72.7125 157.218C90.2532 175.027 112.222 174.113 129.502 163.874C129.615 163.41 134.103 147.989 122.639 135.391Z" fill="white"/>
<path d="M104.286 171.415C103.249 171.415 102.217 171.378 101.187 171.303C96.0802 170.93 91.1231 169.626 86.4537 167.427C81.4766 165.084 76.796 161.705 72.5419 157.386C69.3289 154.123 66.5585 149.765 64.3077 144.432C62.1334 139.279 60.5385 133.332 59.6953 127.233C58.8167 120.878 58.7399 114.55 59.4672 108.424C60.2432 101.887 61.9059 95.9034 64.4092 90.6382C68.5244 81.9828 74.1923 76.6569 79.9595 76.0262C84.1867 75.5638 88.2288 77.6406 91.6484 82.0317C93.3398 84.2036 94.6154 86.4917 95.5481 89.0268C96.378 91.2823 96.9145 93.681 97.1883 96.36C97.6952 101.321 97.1976 106.494 96.7163 111.497C96.0446 118.478 95.35 125.697 97.4403 132.264C98.3501 135.123 100.024 137.116 102.415 138.189C104.843 139.278 108.052 139.45 111.954 138.7C115.074 138.1 118.636 136.913 122.541 135.173C122.635 135.131 122.746 135.154 122.816 135.23C125.391 138.061 127.368 141.264 128.692 144.752C129.762 147.574 130.412 150.595 130.624 153.731C130.955 158.658 130.124 162.462 129.751 163.868C129.743 163.898 129.737 163.919 129.735 163.93C129.719 163.993 129.68 164.047 129.624 164.08C121.479 168.906 112.781 171.415 104.286 171.415ZM81.1086 76.4416C80.7444 76.4416 80.3787 76.4616 80.0114 76.5017C74.4129 77.1139 68.8835 82.3414 64.8412 90.8436C62.3603 96.0617 60.712 101.996 59.9422 108.48C59.2197 114.566 59.2961 120.853 60.1691 127.168C61.0066 133.226 62.5901 139.131 64.7483 144.246C66.9441 149.449 69.7569 153.877 72.8826 157.05C77.0971 161.329 81.7316 164.675 86.6574 166.995C91.2735 169.169 96.1737 170.457 101.222 170.825C110.559 171.506 120.265 169.049 129.296 163.718C129.666 162.313 130.471 158.588 130.146 153.763C129.938 150.674 129.298 147.699 128.244 144.922C126.962 141.543 125.056 138.434 122.577 135.68C118.7 137.397 115.157 138.571 112.044 139.169C108.044 139.938 104.738 139.755 102.219 138.625C99.6985 137.494 97.9372 135.403 96.9844 132.409C94.8644 125.748 95.5637 118.48 96.24 111.451C96.7191 106.471 97.2144 101.322 96.7122 96.4085C96.4426 93.7699 95.9149 91.4093 95.0991 89.1919C94.1836 86.7039 92.9314 84.4578 91.271 82.3256C88.2587 78.4576 84.7656 76.4416 81.1086 76.4416Z" fill="black"/>
<path d="M146.457 136.341C146.417 136.341 146.377 136.34 146.337 136.338C145.246 136.298 144.212 135.711 143.265 134.595C140.472 131.303 138.443 126.773 138.423 126.728C138.369 126.607 138.424 126.466 138.544 126.412C138.665 126.359 138.806 126.413 138.86 126.534C138.88 126.578 140.882 131.047 143.629 134.285C144.485 135.293 145.4 135.823 146.349 135.86C147.433 135.902 148.281 135.28 148.573 135.031L142.066 117.47C142.02 117.346 142.083 117.208 142.207 117.162C142.331 117.116 142.468 117.18 142.514 117.304L149.078 135.017C149.11 135.104 149.089 135.202 149.024 135.268C148.98 135.313 147.95 136.34 146.457 136.341Z" fill="black"/>
<path d="M125.46 166.294C125.445 166.294 125.43 166.293 125.414 166.29C125.284 166.265 125.2 166.139 125.225 166.009L125.251 165.873C125.276 165.743 125.401 165.658 125.531 165.683C125.66 165.707 125.746 165.833 125.721 165.962L125.695 166.1C125.672 166.215 125.572 166.294 125.46 166.294ZM125.692 164.979C125.68 164.979 125.667 164.978 125.654 164.976C125.524 164.955 125.435 164.833 125.456 164.702C125.493 164.468 125.529 164.231 125.562 163.997C125.581 163.867 125.701 163.776 125.832 163.794C125.963 163.813 126.054 163.934 126.036 164.064C126.002 164.301 125.966 164.541 125.928 164.778C125.909 164.895 125.808 164.979 125.692 164.979ZM125.949 163.084C125.941 163.084 125.932 163.084 125.923 163.083C125.791 163.068 125.697 162.95 125.711 162.819C125.738 162.582 125.762 162.344 125.784 162.11C125.796 161.978 125.912 161.881 126.044 161.894C126.176 161.906 126.272 162.022 126.26 162.154C126.238 162.391 126.213 162.632 126.187 162.872C126.173 162.994 126.07 163.084 125.949 163.084ZM126.115 161.179C126.11 161.179 126.105 161.179 126.1 161.179C125.968 161.171 125.868 161.057 125.876 160.925C125.891 160.689 125.904 160.449 125.914 160.214C125.92 160.082 126.03 159.978 126.164 159.985C126.295 159.991 126.398 160.103 126.392 160.235C126.381 160.473 126.368 160.716 126.353 160.955C126.345 161.082 126.24 161.179 126.115 161.179ZM126.187 159.268C126.186 159.268 126.185 159.268 126.184 159.268C126.052 159.267 125.946 159.158 125.948 159.026C125.951 158.852 125.952 158.679 125.952 158.507C125.952 158.442 125.952 158.378 125.951 158.313C125.95 158.181 126.057 158.074 126.189 158.073C126.19 158.073 126.19 158.073 126.19 158.073C126.322 158.073 126.429 158.179 126.43 158.311C126.43 158.376 126.43 158.442 126.43 158.507C126.43 158.681 126.429 158.857 126.426 159.033C126.425 159.163 126.318 159.268 126.187 159.268ZM126.166 157.356C126.038 157.356 125.932 157.254 125.927 157.125C125.918 156.889 125.908 156.65 125.895 156.413C125.887 156.281 125.989 156.168 126.12 156.161C126.252 156.154 126.365 156.255 126.372 156.387C126.385 156.626 126.396 156.869 126.405 157.108C126.41 157.24 126.306 157.351 126.174 157.356C126.172 157.356 126.169 157.356 126.166 157.356ZM126.049 155.446C125.927 155.446 125.822 155.352 125.811 155.228C125.791 154.993 125.769 154.754 125.744 154.518C125.73 154.386 125.826 154.269 125.957 154.255C126.089 154.242 126.206 154.337 126.22 154.468C126.245 154.707 126.268 154.949 126.288 155.187C126.299 155.318 126.202 155.434 126.07 155.445C126.063 155.446 126.056 155.446 126.049 155.446ZM125.839 153.545C125.721 153.545 125.618 153.458 125.602 153.338C125.57 153.103 125.535 152.865 125.499 152.632C125.479 152.502 125.568 152.379 125.699 152.359C125.829 152.339 125.952 152.428 125.972 152.559C126.009 152.795 126.044 153.035 126.076 153.273C126.094 153.404 126.002 153.525 125.871 153.543C125.86 153.544 125.849 153.545 125.839 153.545ZM125.534 151.656C125.421 151.656 125.321 151.576 125.299 151.461C125.255 151.227 125.209 150.991 125.162 150.761C125.135 150.632 125.218 150.505 125.347 150.478C125.477 150.452 125.603 150.535 125.63 150.664C125.678 150.897 125.725 151.136 125.769 151.373C125.793 151.503 125.708 151.628 125.578 151.652C125.563 151.655 125.548 151.656 125.534 151.656ZM125.136 149.785C125.028 149.785 124.93 149.711 124.904 149.601C124.849 149.372 124.791 149.139 124.732 148.909C124.699 148.781 124.776 148.65 124.904 148.617C125.032 148.584 125.162 148.661 125.195 148.789C125.255 149.023 125.314 149.259 125.369 149.49C125.4 149.618 125.32 149.747 125.192 149.778C125.173 149.782 125.155 149.785 125.136 149.785ZM124.647 147.935C124.543 147.935 124.448 147.867 124.417 147.762C124.352 147.536 124.282 147.306 124.212 147.079C124.173 146.953 124.243 146.819 124.369 146.78C124.495 146.741 124.629 146.811 124.669 146.937C124.74 147.167 124.81 147.4 124.877 147.628C124.914 147.755 124.841 147.888 124.714 147.925C124.692 147.931 124.669 147.935 124.647 147.935ZM124.068 146.111C123.968 146.111 123.876 146.049 123.842 145.949C123.765 145.726 123.684 145.5 123.603 145.277C123.557 145.153 123.621 145.016 123.745 144.971C123.869 144.925 124.007 144.989 124.052 145.113C124.134 145.339 124.216 145.568 124.294 145.794C124.337 145.918 124.27 146.055 124.146 146.098C124.12 146.107 124.093 146.111 124.068 146.111ZM123.399 144.317C123.304 144.317 123.215 144.261 123.177 144.167C123.089 143.948 122.998 143.726 122.906 143.507C122.854 143.386 122.911 143.245 123.033 143.194C123.155 143.143 123.295 143.2 123.346 143.321C123.44 143.543 123.532 143.767 123.621 143.989C123.67 144.112 123.611 144.251 123.488 144.3C123.459 144.312 123.429 144.317 123.399 144.317ZM122.643 142.559C122.553 142.559 122.466 142.507 122.426 142.42C122.326 142.203 122.224 141.986 122.121 141.774C122.064 141.655 122.114 141.512 122.233 141.455C122.352 141.398 122.495 141.447 122.552 141.566C122.656 141.781 122.759 142 122.86 142.22C122.916 142.34 122.863 142.482 122.743 142.537C122.711 142.552 122.677 142.559 122.643 142.559ZM121.799 140.841C121.713 140.841 121.63 140.794 121.587 140.712C121.476 140.501 121.363 140.29 121.249 140.084C121.186 139.968 121.228 139.823 121.343 139.759C121.459 139.696 121.605 139.738 121.668 139.853C121.783 140.062 121.898 140.276 122.011 140.49C122.072 140.607 122.027 140.752 121.91 140.813C121.874 140.832 121.836 140.841 121.799 140.841ZM120.864 139.17C120.782 139.17 120.703 139.128 120.658 139.053C120.534 138.847 120.409 138.642 120.285 138.446C120.215 138.334 120.248 138.186 120.36 138.116C120.472 138.046 120.619 138.079 120.69 138.191C120.816 138.39 120.943 138.598 121.069 138.808C121.136 138.921 121.099 139.068 120.986 139.136C120.948 139.159 120.905 139.17 120.864 139.17ZM119.826 137.559C119.751 137.559 119.677 137.523 119.63 137.457C119.371 137.086 119.215 136.889 119.213 136.887C119.131 136.784 119.148 136.633 119.251 136.551C119.355 136.469 119.505 136.486 119.587 136.589C119.594 136.597 119.753 136.798 120.022 137.183C120.098 137.291 120.071 137.44 119.963 137.516C119.921 137.545 119.874 137.559 119.826 137.559Z" fill="black"/>
<path d="M20.1608 103.888C24.2873 89.635 29.8145 78.4589 48.8196 75.1407C57.5045 73.6243 69.4463 73.7997 79.568 73.648C88.0007 73.5216 94.3933 81.3796 92.3769 89.5686C79.029 143.776 78.4555 174.719 78.4555 174.719L7.26367 174.761C7.26367 174.761 10.4272 137.507 20.1608 103.888Z" fill="white"/>
<path d="M7.00293 175.002L7.02493 174.742C7.03282 174.649 7.83941 165.266 9.82509 151.898C11.6579 139.559 14.8988 121.202 19.9306 103.822C21.1267 99.6909 22.2573 96.4912 23.4884 93.7526C25.0003 90.3896 26.7144 87.6113 28.7286 85.2591C30.998 82.6089 33.6353 80.5019 36.7911 78.8179C40.2004 76.9986 44.1214 75.719 48.7781 74.906C56.036 73.6387 65.3619 73.5517 74.3808 73.4676C76.1798 73.4508 77.8792 73.435 79.564 73.4097C83.7028 73.3478 87.5553 75.172 90.136 78.4148C92.676 81.6066 93.5773 85.6932 92.6087 89.6267C88.8044 105.076 83.6412 128.526 80.6477 152.502C78.8581 166.835 78.6957 174.647 78.6942 174.724L78.6899 174.959L78.4553 174.959L7.00293 175.002ZM79.7682 73.8865C79.7024 73.8865 79.6372 73.887 79.5713 73.8879C77.885 73.9132 76.185 73.9291 74.3853 73.9459C65.3857 74.0298 56.0797 74.1166 48.8604 75.3772C44.2544 76.1814 40.3802 77.4449 37.0164 79.2399C33.9141 80.8954 31.322 82.966 29.0921 85.5703C27.108 87.8873 25.4178 90.6279 23.9249 93.9488C22.7031 96.6665 21.58 99.8461 20.3902 103.955C15.3659 121.309 12.129 139.643 10.2984 151.968C8.49832 164.087 7.66859 172.923 7.52467 174.523L78.2223 174.481C78.2637 173.077 78.5521 165.426 80.1731 152.443C81.2257 144.013 82.626 135.015 84.335 125.7C86.4712 114.057 89.0987 101.882 92.1443 89.5123C93.0772 85.7238 92.2089 81.7875 89.7619 78.7127C87.3153 75.6384 83.6817 73.8865 79.7682 73.8865Z" fill="black"/>
<path d="M17.6251 174.366C17.6207 174.366 17.6164 174.366 17.612 174.366C17.4801 174.359 17.379 174.246 17.3861 174.114C17.3966 173.921 17.4074 173.728 17.4185 173.535C17.4261 173.403 17.5393 173.301 17.6711 173.31C17.803 173.318 17.9037 173.431 17.8961 173.563C17.885 173.755 17.8742 173.947 17.8638 174.14C17.8568 174.268 17.7512 174.366 17.6251 174.366ZM17.7306 172.595C17.7254 172.595 17.7201 172.594 17.7148 172.594C17.583 172.585 17.4831 172.472 17.4916 172.34C17.5072 172.1 17.5233 171.861 17.5398 171.623C17.5488 171.491 17.6626 171.391 17.7949 171.401C17.9267 171.41 18.0261 171.524 18.017 171.656C18.0005 171.894 17.9846 172.132 17.969 172.371C17.9608 172.497 17.8555 172.595 17.7306 172.595ZM17.8656 170.686C17.8594 170.686 17.8532 170.686 17.847 170.685C17.7153 170.675 17.6168 170.56 17.6269 170.429C17.6453 170.189 17.6641 169.95 17.6834 169.712C17.6941 169.581 17.8088 169.482 17.9411 169.493C18.0728 169.504 18.1709 169.619 18.1602 169.751C18.1409 169.988 18.1221 170.226 18.1038 170.465C18.0941 170.591 17.9893 170.686 17.8656 170.686ZM18.0232 168.779C18.0161 168.779 18.0089 168.779 18.0018 168.778C17.8702 168.767 17.773 168.651 17.7847 168.519C17.806 168.28 17.8277 168.041 17.8498 167.803C17.8621 167.672 17.9789 167.575 18.1102 167.588C18.2417 167.6 18.3383 167.716 18.3261 167.848C18.304 168.085 18.2824 168.323 18.2612 168.561C18.2501 168.686 18.1458 168.779 18.0232 168.779ZM18.2038 166.875C18.1957 166.875 18.1877 166.874 18.1795 166.874C18.048 166.86 17.9523 166.743 17.9655 166.612C17.9897 166.372 18.0143 166.134 18.0394 165.897C18.0533 165.765 18.1708 165.669 18.3023 165.684C18.4337 165.698 18.529 165.816 18.5151 165.947C18.4901 166.184 18.4655 166.421 18.4415 166.66C18.429 166.783 18.3251 166.875 18.2038 166.875ZM18.4078 164.973C18.3988 164.973 18.3897 164.972 18.3805 164.971C18.2492 164.956 18.155 164.838 18.1698 164.706C18.197 164.468 18.2246 164.23 18.2527 163.993C18.2681 163.861 18.3869 163.768 18.5183 163.783C18.6494 163.799 18.7432 163.918 18.7276 164.049C18.6997 164.285 18.6722 164.522 18.6451 164.76C18.6313 164.883 18.5278 164.973 18.4078 164.973ZM18.6357 163.073C18.6257 163.073 18.6156 163.073 18.6054 163.071C18.4744 163.055 18.3815 162.935 18.3981 162.804C18.4283 162.566 18.4589 162.328 18.49 162.091C18.5071 161.96 18.6271 161.868 18.7583 161.885C18.8892 161.902 18.9814 162.023 18.9642 162.153C18.9333 162.389 18.9028 162.626 18.8727 162.864C18.8574 162.985 18.7544 163.073 18.6357 163.073ZM18.8878 161.177C18.8768 161.177 18.8657 161.176 18.8545 161.174C18.7236 161.156 18.6324 161.035 18.6506 160.904C18.6838 160.666 18.7175 160.429 18.7517 160.193C18.7706 160.062 18.8921 159.971 19.0226 159.99C19.1533 160.009 19.244 160.131 19.2251 160.261C19.1911 160.497 19.1575 160.733 19.1244 160.97C19.1077 161.09 19.0053 161.177 18.8878 161.177ZM19.1647 159.284C19.1526 159.284 19.1404 159.283 19.1282 159.281C18.9976 159.261 18.908 159.139 18.9279 159.008C18.9643 158.771 19.0012 158.534 19.0384 158.298C19.0591 158.168 19.1811 158.078 19.312 158.099C19.4425 158.12 19.5315 158.242 19.5109 158.373C19.4738 158.608 19.4371 158.844 19.4008 159.081C19.3827 159.199 19.2808 159.284 19.1647 159.284ZM19.4667 157.395C19.4536 157.395 19.4404 157.393 19.427 157.391C19.2967 157.369 19.2087 157.246 19.2305 157.116C19.2701 156.879 19.3101 156.643 19.3505 156.407C19.3729 156.277 19.4966 156.19 19.6268 156.212C19.757 156.235 19.8443 156.358 19.8219 156.488C19.7816 156.723 19.7418 156.958 19.7023 157.195C19.6828 157.312 19.5814 157.395 19.4667 157.395ZM19.7943 155.51C19.7801 155.51 19.7657 155.508 19.7513 155.506C19.6213 155.482 19.5351 155.358 19.5586 155.228C19.6015 154.991 19.6447 154.756 19.6884 154.521C19.7126 154.391 19.8374 154.306 19.9674 154.33C20.0972 154.354 20.1829 154.479 20.1586 154.609C20.1151 154.843 20.072 155.077 20.0292 155.313C20.0084 155.429 19.9077 155.51 19.7943 155.51ZM20.148 153.63C20.1328 153.63 20.1173 153.628 20.1018 153.625C19.9722 153.6 19.8877 153.474 19.913 153.344C19.959 153.108 20.0056 152.873 20.0527 152.639C20.0787 152.51 20.2046 152.426 20.3342 152.452C20.4638 152.478 20.5476 152.604 20.5216 152.734C20.4747 152.967 20.4284 153.201 20.3824 153.436C20.3601 153.55 20.26 153.63 20.148 153.63ZM20.5282 151.755C20.5119 151.755 20.4953 151.753 20.4787 151.749C20.3494 151.722 20.2667 151.595 20.2939 151.466C20.3435 151.231 20.3934 150.997 20.4437 150.763C20.4716 150.634 20.5989 150.552 20.728 150.58C20.8571 150.608 20.9392 150.735 20.9112 150.864C20.8611 151.097 20.8113 151.33 20.7619 151.565C20.7383 151.677 20.6389 151.755 20.5282 151.755ZM20.9354 149.885C20.918 149.885 20.9003 149.883 20.8826 149.879C20.7537 149.85 20.6728 149.722 20.702 149.593C20.7549 149.359 20.8083 149.125 20.862 148.893C20.8918 148.764 21.0201 148.684 21.149 148.714C21.2776 148.743 21.3578 148.872 21.328 149.001C21.2745 149.232 21.2213 149.465 21.1686 149.699C21.1435 149.81 21.0447 149.885 20.9354 149.885ZM21.3701 148.022C21.3515 148.022 21.3327 148.02 21.3138 148.016C21.1854 147.985 21.1065 147.855 21.1374 147.727C21.1939 147.493 21.2507 147.26 21.308 147.029C21.3397 146.9 21.4693 146.822 21.5976 146.854C21.7258 146.886 21.804 147.015 21.7724 147.143C21.7153 147.374 21.6586 147.606 21.6024 147.839C21.576 147.949 21.4781 148.022 21.3701 148.022ZM21.8329 146.166C21.8131 146.166 21.7931 146.163 21.7731 146.158C21.6452 146.125 21.5682 145.995 21.6011 145.867C21.6611 145.634 21.7215 145.402 21.7823 145.171C21.8159 145.044 21.9468 144.968 22.0745 145.001C22.2022 145.035 22.2784 145.166 22.2448 145.293C22.1842 145.523 22.124 145.754 22.0643 145.986C22.0365 146.094 21.9394 146.166 21.8329 146.166ZM22.324 144.317C22.3031 144.317 22.2818 144.314 22.2607 144.308C22.1333 144.273 22.0583 144.142 22.0933 144.014C22.1569 143.782 22.2209 143.551 22.2853 143.322C22.321 143.195 22.453 143.12 22.5802 143.156C22.7074 143.192 22.7816 143.324 22.7459 143.451C22.6817 143.68 22.6179 143.91 22.5546 144.141C22.5254 144.247 22.4291 144.317 22.324 144.317ZM22.8441 142.476C22.8219 142.476 22.7995 142.473 22.7772 142.466C22.6503 142.429 22.5774 142.297 22.6144 142.17C22.6817 141.939 22.7494 141.709 22.8175 141.48C22.8551 141.354 22.9883 141.281 23.1149 141.319C23.2415 141.357 23.3136 141.49 23.2759 141.617C23.2081 141.844 23.1407 142.073 23.0736 142.304C23.0432 142.408 22.9477 142.476 22.8441 142.476ZM23.3938 140.643C23.3704 140.643 23.3466 140.64 23.3231 140.633C23.1969 140.594 23.1262 140.46 23.1652 140.334C23.2363 140.103 23.3077 139.875 23.3794 139.647C23.4192 139.521 23.5535 139.451 23.6795 139.491C23.8055 139.531 23.8753 139.665 23.8356 139.791C23.7641 140.018 23.693 140.246 23.6222 140.475C23.5905 140.577 23.4959 140.643 23.3938 140.643ZM23.9733 138.82C23.9487 138.82 23.9237 138.816 23.899 138.808C23.7734 138.767 23.7049 138.632 23.746 138.507C23.8209 138.278 23.8962 138.05 23.9717 137.824C24.0135 137.699 24.149 137.631 24.2743 137.673C24.3995 137.715 24.4672 137.85 24.4253 137.976C24.35 138.201 24.2751 138.427 24.2006 138.655C24.1677 138.756 24.074 138.82 23.9733 138.82ZM24.5835 137.007C24.5576 137.007 24.5313 137.003 24.5053 136.994C24.3805 136.95 24.3143 136.814 24.3574 136.689C24.4362 136.462 24.5154 136.235 24.5948 136.011C24.6388 135.886 24.7754 135.821 24.8999 135.865C25.0245 135.909 25.0898 136.045 25.0458 136.17C24.9667 136.394 24.8879 136.619 24.8095 136.846C24.7753 136.945 24.6827 137.007 24.5835 137.007ZM25.2247 135.204C25.1975 135.204 25.1698 135.2 25.1427 135.19C25.0186 135.144 24.9548 135.007 25.0001 134.883C25.0829 134.657 25.1659 134.432 25.2493 134.208C25.2955 134.085 25.4334 134.022 25.557 134.068C25.6808 134.114 25.7437 134.252 25.6974 134.376C25.6145 134.598 25.5318 134.822 25.4494 135.047C25.414 135.144 25.3223 135.204 25.2247 135.204ZM25.8976 133.413C25.869 133.413 25.8399 133.408 25.8116 133.397C25.6883 133.35 25.627 133.211 25.6746 133.088C25.7614 132.863 25.8485 132.64 25.9358 132.418C25.9843 132.295 26.1233 132.235 26.246 132.283C26.369 132.331 26.4293 132.47 26.3809 132.593C26.294 132.814 26.2073 133.036 26.1209 133.26C26.0842 133.355 25.9936 133.413 25.8976 133.413ZM26.6027 131.635C26.5727 131.635 26.5422 131.629 26.5126 131.617C26.3903 131.567 26.3315 131.428 26.3813 131.305C26.4723 131.082 26.5635 130.86 26.6548 130.64C26.7055 130.518 26.8453 130.46 26.9675 130.511C27.0894 130.562 27.1473 130.702 27.0966 130.824C27.0057 131.043 26.9149 131.263 26.8244 131.486C26.7865 131.579 26.6971 131.635 26.6027 131.635ZM27.3407 129.87C27.3092 129.87 27.2773 129.863 27.2465 129.85C27.1251 129.798 27.0689 129.657 27.121 129.536C27.2162 129.314 27.3116 129.094 27.4071 128.876C27.46 128.755 27.601 128.7 27.722 128.753C27.8431 128.806 27.8982 128.947 27.8452 129.068C27.7502 129.285 27.6553 129.504 27.5606 129.725C27.5217 129.815 27.4334 129.87 27.3407 129.87ZM28.1121 128.119C28.0792 128.119 28.0457 128.112 28.0137 128.098C27.8933 128.043 27.8399 127.901 27.8944 127.781C27.9939 127.561 28.0935 127.343 28.1931 127.127C28.2485 127.007 28.3906 126.954 28.5105 127.01C28.6305 127.065 28.6828 127.207 28.6275 127.327C28.5283 127.542 28.4292 127.759 28.3302 127.978C28.2902 128.067 28.2032 128.119 28.1121 128.119ZM28.9177 126.383C28.8832 126.383 28.8482 126.376 28.815 126.36C28.6957 126.303 28.6452 126.161 28.702 126.041C28.8059 125.823 28.9099 125.607 29.0138 125.393C29.0716 125.274 29.2146 125.225 29.3335 125.283C29.4523 125.34 29.5018 125.483 29.4441 125.602C29.3407 125.815 29.2372 126.03 29.1338 126.247C29.0928 126.333 29.0071 126.383 28.9177 126.383ZM29.7583 124.665C29.7222 124.665 29.6856 124.656 29.6512 124.639C29.5331 124.58 29.4855 124.436 29.5447 124.318C29.6533 124.102 29.7617 123.888 29.87 123.677C29.9301 123.559 30.0742 123.512 30.1919 123.573C30.3094 123.633 30.356 123.777 30.2958 123.894C30.188 124.105 30.0802 124.318 29.9722 124.533C29.9302 124.616 29.8459 124.665 29.7583 124.665ZM30.6346 122.964C30.5969 122.964 30.5586 122.955 30.523 122.936C30.4062 122.874 30.3616 122.73 30.4233 122.613C30.5365 122.399 30.6495 122.187 30.7623 121.978C30.8249 121.862 30.97 121.818 31.0863 121.881C31.2025 121.944 31.2459 122.089 31.1833 122.205C31.0712 122.413 30.9587 122.624 30.8462 122.836C30.8033 122.917 30.7204 122.964 30.6346 122.964ZM31.5475 121.282C31.5081 121.282 31.4682 121.272 31.4313 121.252C31.3159 121.188 31.2746 121.042 31.3388 120.927C31.4569 120.715 31.5745 120.506 31.6918 120.3C31.7571 120.185 31.9031 120.145 32.018 120.21C32.1328 120.275 32.1729 120.421 32.1076 120.536C31.991 120.741 31.874 120.949 31.7567 121.159C31.7129 121.238 31.6315 121.282 31.5475 121.282ZM32.4982 119.622C32.457 119.622 32.4153 119.611 32.3772 119.589C32.2634 119.522 32.2253 119.375 32.2923 119.261C32.4154 119.052 32.5378 118.846 32.6598 118.642C32.7277 118.529 32.8746 118.492 32.988 118.56C33.1012 118.628 33.1379 118.775 33.07 118.888C32.9488 119.09 32.827 119.296 32.7047 119.504C32.66 119.579 32.5802 119.622 32.4982 119.622ZM33.4877 117.984C33.4446 117.984 33.4011 117.972 33.3618 117.948C33.2495 117.878 33.215 117.731 33.2847 117.618C33.4131 117.412 33.5406 117.208 33.6672 117.009C33.738 116.897 33.8857 116.864 33.9973 116.935C34.1089 117.005 34.1419 117.153 34.0713 117.265C33.9453 117.463 33.8186 117.665 33.6911 117.871C33.6458 117.944 33.5676 117.984 33.4877 117.984ZM34.5176 116.371C34.4726 116.371 34.427 116.358 34.3865 116.332C34.2761 116.259 34.2454 116.111 34.318 116C34.452 115.796 34.5847 115.596 34.7162 115.401C34.7899 115.291 34.9385 115.262 35.0481 115.335C35.1577 115.409 35.187 115.557 35.1134 115.667C34.9827 115.862 34.8508 116.06 34.7177 116.263C34.6718 116.333 34.5955 116.371 34.5176 116.371ZM35.5897 114.786C35.5425 114.786 35.4948 114.772 35.4532 114.743C35.3448 114.667 35.3182 114.518 35.3936 114.41C35.5337 114.209 35.6721 114.012 35.8084 113.821C35.8851 113.713 36.0345 113.688 36.142 113.765C36.2496 113.842 36.2746 113.991 36.198 114.098C36.0626 114.288 35.9252 114.483 35.7861 114.683C35.7396 114.75 35.6652 114.786 35.5897 114.786ZM36.7065 113.231C36.657 113.231 36.6071 113.216 36.5643 113.184C36.4582 113.105 36.436 112.956 36.5146 112.85C36.659 112.655 36.8046 112.461 36.9473 112.273C37.0272 112.168 37.1773 112.148 37.2824 112.228C37.3876 112.307 37.4081 112.458 37.3281 112.563C37.1865 112.749 37.0421 112.941 36.8989 113.134C36.8519 113.198 36.7796 113.231 36.7065 113.231ZM37.8716 111.712C37.8195 111.712 37.767 111.695 37.723 111.66C37.6196 111.578 37.6023 111.428 37.6845 111.324C37.8341 111.136 37.9864 110.947 38.1369 110.763C38.2204 110.66 38.3711 110.645 38.4734 110.729C38.5757 110.812 38.5908 110.963 38.5073 111.065C38.3581 111.248 38.2073 111.435 38.059 111.622C38.0118 111.681 37.9421 111.712 37.8716 111.712ZM39.0909 110.236C39.0356 110.236 38.9801 110.217 38.935 110.178C38.8349 110.092 38.8236 109.941 38.9098 109.84C39.0705 109.654 39.2307 109.471 39.3858 109.297C39.4738 109.198 39.625 109.19 39.7235 109.278C39.8221 109.366 39.8308 109.517 39.7429 109.615C39.5896 109.787 39.4312 109.968 39.2723 110.152C39.225 110.207 39.1582 110.236 39.0909 110.236ZM40.3775 108.815C40.3178 108.815 40.2581 108.793 40.2117 108.749C40.1166 108.657 40.1137 108.506 40.2053 108.41C40.5356 108.067 40.7173 107.898 40.7249 107.891C40.8217 107.801 40.973 107.807 41.0629 107.904C41.1527 108 41.1472 108.152 41.0505 108.241C41.0487 108.243 40.8696 108.41 40.5498 108.742C40.5029 108.791 40.4403 108.815 40.3775 108.815Z" fill="black"/>
<path d="M64.0516 45.1503C67.3189 41.883 67.3189 36.5857 64.0516 33.3184C60.7843 30.0511 55.487 30.0511 52.2197 33.3184C48.9524 36.5857 48.9524 41.883 52.2197 45.1503C55.487 48.4176 60.7843 48.4176 64.0516 45.1503Z" fill="black"/>
<path d="M68.7958 51.7363C72.0631 48.469 72.0631 43.1716 68.7958 39.9043C65.5285 36.637 60.2311 36.637 56.9638 39.9043C53.6965 43.1716 53.6965 48.469 56.9638 51.7363C60.2311 55.0036 65.5285 55.0036 68.7958 51.7363Z" fill="#FEBA00"/>
<path d="M74.3148 60.7485C79.1292 55.9341 79.1292 48.1284 74.3148 43.314C69.5004 38.4996 61.6947 38.4996 56.8803 43.314C52.0659 48.1284 52.0659 55.9341 56.8803 60.7485C61.6947 65.5629 69.5004 65.5629 74.3148 60.7485Z" fill="black"/>
<path d="M74.2085 66.1369C74.1108 66.1719 74.0124 66.2057 73.9131 66.2381C72.3145 67.0779 70.5918 67.463 68.745 67.3934C66.3238 67.3859 64.0671 66.7754 61.9749 65.562L60.4372 64.374C60.7147 67.9844 60.8969 73.7409 59.9536 74.3996C57.7369 75.9475 67.4099 83.8203 72.6179 84.1926C76.5972 84.477 76.3621 79.8751 74.5167 77.125C73.1525 75.0916 74.3684 68.8657 74.2085 66.1369Z" fill="white"/>
<path d="M72.9621 84.4442C72.8463 84.4442 72.7262 84.4399 72.6013 84.431C70.5514 84.2844 67.5646 82.9513 64.6118 80.8648C61.8417 78.9074 59.8171 76.7914 59.4537 75.4738C59.2593 74.7691 59.5439 74.394 59.817 74.2033C59.9422 74.1159 60.3551 73.5897 60.4144 70.4889C60.4599 68.1067 60.2789 65.4316 60.199 64.3922L60.1577 63.8555L62.1088 65.3629C64.1508 66.5441 66.3836 67.1467 68.746 67.1541L68.7543 67.1542C70.55 67.2221 72.2484 66.8425 73.802 66.0263L73.8199 66.0168L73.8392 66.0105C73.9323 65.9802 74.0268 65.9479 74.1279 65.9116L74.4287 65.8038L74.4474 66.1228C74.501 67.0376 74.4027 68.3379 74.2987 69.7146C74.0974 72.3798 73.8467 75.6967 74.7155 76.9915C75.8586 78.695 76.5464 81.4142 75.5695 83.0983C75.2054 83.7265 74.4608 84.4442 72.9621 84.4442ZM60.7151 64.8906C60.8033 66.1552 60.9321 68.4338 60.8927 70.4981C60.8314 73.7118 60.4057 74.3757 60.0909 74.5955C59.953 74.6918 59.7847 74.8745 59.9149 75.3466C60.2455 76.5454 62.244 78.6059 64.8878 80.4741C67.7725 82.5124 70.6687 83.8133 72.6353 83.9538C73.8365 84.0396 74.6845 83.6711 75.1559 82.8583C75.5368 82.2017 75.6518 81.2562 75.4799 80.1958C75.3135 79.1696 74.901 78.1262 74.3184 77.2581C73.3574 75.8258 73.6041 72.5599 73.8218 69.6786C73.9128 68.4753 73.9992 67.331 73.9821 66.4719C72.3663 67.3116 70.6028 67.702 68.7404 67.6325C66.2895 67.6241 63.9731 66.9972 61.8551 65.7688L61.8289 65.7512L60.7151 64.8906Z" fill="black"/>
<path d="M70.2448 48.5049C69.1582 51.5626 64.2055 48.8246 62.1033 51.827C60.6963 53.8364 60.6153 55.7614 60.4448 55.5897C55.7049 50.815 54.429 60.2727 60.0803 60.8645C60.1136 60.868 60.1044 61.1841 60.4485 65.0567C60.7926 68.9293 69.2611 74.0998 73.8007 70.4699C80.1688 63.3427 76.0107 49.8711 70.2448 48.5049Z" fill="white"/>
<path d="M70.0223 71.944C68.7701 71.944 67.409 71.6465 66.0084 71.048C62.8356 69.6922 60.397 67.1814 60.2101 65.0778C60.0344 63.0998 59.9511 62.055 59.9065 61.4938C59.8919 61.3114 59.881 61.1736 59.8728 61.08C57.6037 60.7616 56.4818 59.0574 56.1883 57.5393C55.9017 56.0573 56.3424 54.6834 57.26 54.1982C58.3589 53.6172 59.606 54.4775 60.3757 55.1904C60.3859 55.1528 60.3963 55.1141 60.4063 55.0767C60.5809 54.4237 60.9443 53.0649 61.9073 51.6897C63.017 50.1048 64.8687 50.0223 66.5024 49.9496C68.1245 49.8773 69.5253 49.8149 70.0193 48.4248L70.0911 48.2227L70.2998 48.2721C72.8042 48.8655 75.1312 51.6886 76.3728 55.6397C77.1606 58.1468 77.4228 60.9009 77.1109 63.3948C76.7562 66.2312 75.6732 68.7328 73.9789 70.6292L73.9655 70.6441L73.9499 70.6566C72.8791 71.5129 71.5295 71.944 70.0223 71.944ZM58.0433 54.4864C57.8415 54.4864 57.6541 54.531 57.4836 54.6211C56.7621 55.0025 56.4148 56.1917 56.6579 57.4486C56.9266 58.8385 57.9734 60.4034 60.105 60.6266C60.3099 60.648 60.3306 60.8495 60.3406 60.9463C60.3498 61.0349 60.3617 61.1844 60.3833 61.4558C60.4279 62.0164 60.5109 63.0597 60.6865 65.0355C60.856 66.9426 63.2247 69.3383 66.1963 70.6081C69.1072 71.852 71.8172 71.7376 73.6356 70.2955C75.2572 68.4737 76.2946 66.0675 76.6363 63.3355C76.9398 60.9083 76.6842 58.2261 75.9165 55.7831C74.759 52.0996 72.6544 49.4464 70.3884 48.79C69.7255 50.2849 68.0989 50.3573 66.5236 50.4275C64.9258 50.4986 63.2736 50.5722 62.299 51.9642C61.3845 53.2703 61.0487 54.5258 60.8683 55.2004C60.755 55.6243 60.7126 55.7829 60.5326 55.8308C60.4408 55.8553 60.3443 55.8282 60.2749 55.7582C59.444 54.9211 58.6737 54.4864 58.0433 54.4864Z" fill="black"/>
<path d="M69.466 56.7386C69.5092 57.213 69.1049 57.6218 68.5629 57.6515C68.0209 57.6812 67.5464 57.3207 67.5032 56.8463C67.4599 56.3718 67.8642 55.9631 68.4062 55.9334C68.9482 55.9036 69.4227 56.2641 69.466 56.7386Z" fill="black"/>
<path d="M74.4757 56.4661C74.5177 56.9551 74.1896 57.3706 73.7429 57.394C73.2962 57.4175 72.9001 57.04 72.8581 56.551C72.8162 56.062 73.1442 55.6465 73.5909 55.6231C74.0376 55.5997 74.4337 55.9771 74.4757 56.4661Z" fill="black"/>
<path d="M66.2676 55.6459C66.2676 55.6459 67.6105 53.8676 70.0843 54.7568L66.2676 55.6459Z" fill="white"/>
<path d="M66.2673 55.8852C66.2169 55.8852 66.1661 55.8694 66.123 55.8366C66.018 55.7569 65.9972 55.6075 66.0766 55.5023C66.0916 55.4824 66.4529 55.0103 67.1382 54.6559C67.7688 54.3298 68.8059 54.0437 70.1649 54.5322C70.2892 54.5768 70.3538 54.7138 70.3091 54.8381C70.2644 54.9624 70.1274 55.027 70.0031 54.9823C67.733 54.1664 66.5089 55.7243 66.4579 55.7911C66.4107 55.8527 66.3394 55.8852 66.2673 55.8852Z" fill="black"/>
<path d="M72.7676 54.5375C72.7676 54.5375 73.8478 53.7449 74.5191 54.5384L72.7676 54.5375Z" fill="white"/>
<path d="M74.519 54.7782C74.4511 54.7782 74.3836 54.7495 74.3363 54.6935C73.8184 54.0815 72.9453 54.7045 72.9084 54.7313C72.8017 54.8087 72.6522 54.7855 72.5744 54.679C72.4967 54.5725 72.5196 54.4233 72.6259 54.3453C73.0617 54.0255 74.0564 53.6221 74.7015 54.3845C74.7868 54.4854 74.7742 54.6362 74.6734 54.7216C74.6285 54.7597 74.5736 54.7782 74.519 54.7782Z" fill="black"/>
<path d="M59.6419 57.0528C58.2146 55.6255 57.0482 57.4788 59.6419 59.3165V57.0528Z" fill="white"/>
<path d="M59.5035 59.5112C58.6292 58.8918 57.7428 57.9122 57.8768 57.0205C57.9267 56.6885 58.1213 56.4434 58.4108 56.3481C58.8243 56.212 59.3346 56.407 59.8109 56.8832L59.4726 57.2214C59.0736 56.8224 58.7398 56.7434 58.5604 56.8024C58.4151 56.8502 58.3657 56.986 58.3499 57.0915C58.2862 57.5151 58.6226 58.3008 59.78 59.1209L59.5035 59.5112Z" fill="black"/>
<path d="M68.8019 69.2414C67.7578 69.2414 66.7262 68.1722 66.4091 66.6874C66.0601 65.0531 66.7069 63.5246 67.8511 63.2803C68.9955 63.0358 70.21 64.1668 70.559 65.8011C70.908 67.4354 70.2612 68.9639 69.117 69.2082C69.0123 69.2305 68.9071 69.2414 68.8019 69.2414ZM68.176 63.7243C68.1008 63.7243 68.0256 63.732 67.951 63.748C67.0647 63.9373 66.5829 65.2111 66.8769 66.5874C67.1708 67.9637 68.1305 68.9294 69.0172 68.7403C69.9033 68.551 70.3851 67.2772 70.0913 65.9009C69.822 64.6405 68.9942 63.7243 68.176 63.7243Z" fill="black"/>
<path d="M59.2165 54.847C59.1005 54.847 58.9987 54.7625 58.9805 54.6443C58.9638 54.5361 58.5925 51.9699 60.3776 49.8884C61.8157 48.2117 64.2121 47.3615 67.5003 47.3615C68.2735 47.3615 68.7568 47.159 68.9366 46.7595C69.5945 45.2982 66.621 41.4574 65.4197 40.1008C65.3322 40.0019 65.3413 39.8507 65.4402 39.7632C65.5392 39.6757 65.6903 39.6849 65.7778 39.7837C65.789 39.7963 66.9054 41.0609 67.9001 42.5456C69.2725 44.5941 69.768 46.0779 69.3728 46.9558C69.1088 47.5425 68.4788 47.8399 67.5003 47.8399C64.3582 47.8399 62.0839 48.6339 60.7408 50.1998C59.0973 52.116 59.4495 54.5471 59.4533 54.5713C59.4734 54.7019 59.3838 54.824 59.2533 54.8442C59.2409 54.8461 59.2287 54.847 59.2165 54.847Z" fill="white"/>
<path d="M71.3526 62.156C70.7301 62.156 70.1293 62.0205 70.0224 61.9951C69.8779 61.9609 69.7885 61.8159 69.8227 61.6714C69.8569 61.5268 70.002 61.4374 70.1465 61.4715C70.7403 61.6118 71.8264 61.7266 72.2126 61.4373C72.2985 61.3729 72.3395 61.2948 72.3454 61.184C72.4019 60.1198 71.4407 56.8549 71.431 56.822C71.3889 56.6795 71.4702 56.5299 71.6128 56.4877C71.7553 56.4454 71.9049 56.527 71.9471 56.6695C71.9878 56.8072 72.9441 60.0569 72.8828 61.2126C72.8685 61.482 72.7482 61.7087 72.5349 61.8684C72.2402 62.0887 71.791 62.156 71.3526 62.156Z" fill="black"/>
<path d="M71.505 88.2051C71.3752 88.2051 71.2687 88.1013 71.266 87.9709C71.2633 87.8389 71.3681 87.7296 71.5002 87.7268C71.7326 87.7221 71.9694 87.7109 72.204 87.6937C72.3351 87.6839 72.4503 87.7829 72.46 87.9147C72.4697 88.0464 72.3707 88.161 72.2389 88.1707C71.996 88.1885 71.7508 88.2001 71.5101 88.2051C71.5084 88.2051 71.5067 88.2051 71.505 88.2051ZM70.3107 88.1759C70.3051 88.1759 70.2995 88.1757 70.2938 88.1753C70.0521 88.1585 69.8077 88.1346 69.5674 88.1045C69.4364 88.088 69.3435 87.9685 69.3599 87.8374C69.3763 87.7064 69.4956 87.6134 69.627 87.6299C69.8586 87.6589 70.0941 87.6819 70.3271 87.6981C70.4589 87.7073 70.5582 87.8216 70.549 87.9534C70.5402 88.0795 70.4352 88.1759 70.3107 88.1759ZM73.4085 88.0329C73.293 88.0329 73.1914 87.9491 73.1726 87.8314C73.1518 87.7009 73.2407 87.5783 73.3712 87.5575C73.6009 87.5209 73.8345 87.4779 74.0654 87.4296C74.1948 87.4023 74.3214 87.4855 74.3484 87.6147C74.3755 87.7439 74.2926 87.8707 74.1633 87.8977C73.9249 87.9476 73.6837 87.9921 73.4465 88.0299C73.4337 88.032 73.421 88.0329 73.4085 88.0329ZM68.4214 87.9039C68.4044 87.9039 68.3872 87.9021 68.3699 87.8983C68.1339 87.8465 67.8957 87.7875 67.6619 87.7227C67.5346 87.6875 67.46 87.5558 67.4952 87.4284C67.5304 87.3011 67.6622 87.2264 67.7895 87.2617C68.0151 87.3241 68.2448 87.3811 68.4725 87.4311C68.6015 87.4595 68.6831 87.587 68.6548 87.716C68.6303 87.8278 68.5313 87.9039 68.4214 87.9039ZM75.2742 87.6135C75.1705 87.6135 75.0749 87.5455 75.0446 87.4408C75.0079 87.3139 75.081 87.1813 75.2078 87.1445C75.3785 87.0951 75.5519 87.0418 75.7233 86.9861C75.7737 86.9698 75.8242 86.952 75.8731 86.9335C75.9967 86.8868 76.1347 86.9489 76.1815 87.0724C76.2283 87.1959 76.1661 87.334 76.0426 87.3808C75.9865 87.402 75.9289 87.4223 75.8712 87.4411C75.695 87.4984 75.5165 87.5532 75.3409 87.6041C75.3186 87.6104 75.2962 87.6135 75.2742 87.6135ZM66.59 87.3627C66.5622 87.3627 66.534 87.3578 66.5064 87.3476C66.2809 87.2634 66.0534 87.1719 65.8302 87.0755C65.7089 87.0232 65.6531 86.8825 65.7054 86.7611C65.7577 86.6399 65.8986 86.584 66.0198 86.6364C66.2355 86.7295 66.4556 86.8181 66.6737 86.8994C66.7974 86.9456 66.8603 87.0834 66.8142 87.2071C66.7782 87.3033 66.687 87.3627 66.59 87.3627ZM76.9714 86.7772C76.9067 86.7772 76.8423 86.7512 76.7951 86.6997C76.7059 86.6024 76.7124 86.4511 76.8098 86.3618C76.9691 86.2158 77.1151 86.0475 77.2441 85.8616C77.3194 85.7531 77.4684 85.726 77.577 85.8014C77.6855 85.8767 77.7124 86.0257 77.6371 86.1342C77.4879 86.3492 77.3184 86.5443 77.1331 86.7143C77.0871 86.7565 77.0292 86.7772 76.9714 86.7772ZM64.8477 86.5779C64.81 86.5779 64.7717 86.5689 64.736 86.55C64.5241 86.4378 64.3103 86.3183 64.1006 86.1949C63.9867 86.1278 63.9488 85.9813 64.0158 85.8674C64.0828 85.7536 64.2294 85.7156 64.3432 85.7826C64.5469 85.9025 64.7543 86.0185 64.9599 86.1274C65.0766 86.1892 65.1211 86.334 65.0593 86.4507C65.0163 86.5316 64.9334 86.5779 64.8477 86.5779ZM63.2136 85.5851C63.1669 85.5851 63.1197 85.5715 63.0783 85.543C62.8814 85.4077 62.6826 85.2652 62.4875 85.1194C62.3817 85.0403 62.36 84.8904 62.439 84.7846C62.5181 84.6788 62.668 84.6571 62.7737 84.7361C62.9639 84.8781 63.1575 85.017 63.3492 85.1487C63.4581 85.2235 63.4857 85.3725 63.4109 85.4813C63.3645 85.5488 63.2897 85.5851 63.2136 85.5851ZM77.9631 85.1665C77.9381 85.1665 77.9127 85.1625 77.8877 85.1542C77.7624 85.1126 77.6945 84.9773 77.7361 84.8519C77.8049 84.6447 77.8637 84.4208 77.911 84.1865C77.9372 84.057 78.0635 83.9732 78.1928 83.9994C78.3223 84.0256 78.406 84.1517 78.3798 84.2812C78.3288 84.5344 78.2649 84.7771 78.19 85.0026C78.1568 85.103 78.0634 85.1665 77.9631 85.1665ZM61.6948 84.4217C61.6403 84.4217 61.5853 84.4031 61.5404 84.3651C61.3581 84.2107 61.1745 84.0496 60.9945 83.8865C60.8967 83.7977 60.8893 83.6465 60.9781 83.5487C61.0668 83.4508 61.2181 83.4434 61.3159 83.5322C61.4918 83.6918 61.6714 83.8492 61.8495 84.0001C61.9503 84.0855 61.9628 84.2364 61.8775 84.3372C61.8302 84.3929 61.7627 84.4217 61.6948 84.4217ZM78.2912 83.287C78.2868 83.287 78.2824 83.2869 78.2779 83.2866C78.146 83.2794 78.045 83.1666 78.0522 83.0348C78.0626 82.8443 78.0679 82.6447 78.0679 82.4416C78.0679 82.4054 78.0677 82.369 78.0674 82.3326C78.0663 82.2005 78.1724 82.0925 78.3045 82.0914C78.4351 82.0888 78.5446 82.1963 78.5458 82.3284C78.5461 82.3662 78.5462 82.4039 78.5462 82.4416C78.5462 82.6534 78.5407 82.8618 78.5299 83.0609C78.5229 83.1883 78.4173 83.287 78.2912 83.287ZM60.2907 83.1208C60.2292 83.1208 60.1676 83.0972 60.1208 83.05C59.9526 82.8803 59.7834 82.7045 59.618 82.5275C59.5279 82.431 59.533 82.2796 59.6295 82.1895C59.7261 82.0994 59.8774 82.1045 59.9676 82.201C60.1297 82.3745 60.2956 82.5469 60.4606 82.7133C60.5535 82.8071 60.5529 82.9586 60.4591 83.0515C60.4124 83.0978 60.3516 83.1208 60.2907 83.1208ZM58.9963 81.7097C58.9287 81.7097 58.8614 81.6811 58.8141 81.6256C58.6595 81.4439 58.5039 81.2562 58.3518 81.0677C58.2688 80.9649 58.2849 80.8143 58.3877 80.7313C58.4905 80.6483 58.6411 80.6644 58.724 80.7673C58.8736 80.9526 59.0265 81.1371 59.1784 81.3155C59.264 81.4161 59.2519 81.567 59.1513 81.6527C59.1062 81.6909 59.0512 81.7097 58.9963 81.7097ZM78.2441 81.3749C78.1218 81.3749 78.0175 81.2815 78.0062 81.1574C77.9855 80.9299 77.9591 80.6929 77.9279 80.4531C77.9108 80.3221 78.0031 80.2021 78.1341 80.185C78.2654 80.1679 78.3852 80.2603 78.4022 80.3913C78.4342 80.6372 78.4613 80.8804 78.4826 81.114C78.4945 81.2455 78.3976 81.3619 78.2661 81.3739C78.2587 81.3746 78.2514 81.3749 78.2441 81.3749ZM57.8055 80.2092C57.7323 80.2092 57.6601 80.1757 57.6132 80.1124C57.4704 79.9197 57.3277 79.7222 57.1889 79.5255C57.1128 79.4176 57.1385 79.2683 57.2465 79.1922C57.3545 79.1161 57.5036 79.1418 57.5798 79.2499C57.7164 79.4436 57.8569 79.638 57.9975 79.8276C58.0761 79.9338 58.0538 80.0835 57.9477 80.1622C57.9049 80.1939 57.855 80.2092 57.8055 80.2092ZM77.9771 79.4794C77.8641 79.4794 77.7636 79.3989 77.7422 79.2838C77.6999 79.0555 77.6531 78.8207 77.6029 78.5859C77.5753 78.4567 77.6577 78.3296 77.7868 78.3021C77.9157 78.2746 78.0431 78.3568 78.0707 78.486C78.1217 78.7251 78.1695 78.9642 78.2125 79.1967C78.2366 79.3265 78.1508 79.4513 78.0209 79.4754C78.0063 79.4781 77.9916 79.4794 77.9771 79.4794ZM56.7129 78.6349C56.6346 78.6349 56.558 78.5965 56.5121 78.526C56.3815 78.325 56.2509 78.1193 56.1242 77.9145C56.0546 77.8022 56.0893 77.6548 56.2016 77.5853C56.314 77.5157 56.4613 77.5505 56.5308 77.6627C56.6558 77.8645 56.7844 78.0673 56.9131 78.2653C56.9851 78.3761 56.9537 78.5242 56.8429 78.5962C56.8028 78.6224 56.7576 78.6349 56.7129 78.6349ZM77.5631 77.6098C77.4564 77.6098 77.3591 77.5379 77.3315 77.4297C77.2736 77.2028 77.2118 76.9709 77.1478 76.7406C77.1124 76.6134 77.1869 76.4815 77.3142 76.4461C77.4414 76.4109 77.5732 76.4852 77.6086 76.6125C77.6735 76.8461 77.7362 77.0812 77.795 77.3114C77.8277 77.4394 77.7504 77.5697 77.6224 77.6023C77.6025 77.6073 77.5826 77.6098 77.5631 77.6098ZM55.7158 76.9973C55.6326 76.9973 55.5519 76.9539 55.5078 76.8765C55.3883 76.6667 55.2699 76.4534 55.1562 76.2424C55.0934 76.1262 55.1368 75.9811 55.2531 75.9184C55.3693 75.8557 55.5144 75.899 55.5771 76.0153C55.6892 76.223 55.8057 76.4331 55.9234 76.6398C55.9888 76.7546 55.9488 76.9007 55.834 76.966C55.7966 76.9872 55.7559 76.9973 55.7158 76.9973ZM77.0381 75.7677C76.9364 75.7677 76.8421 75.7024 76.81 75.6002C76.7387 75.3731 76.6644 75.1447 76.5893 74.9213C76.5472 74.7961 76.6146 74.6605 76.7398 74.6184C76.865 74.5764 77.0007 74.6437 77.0427 74.7689C77.1188 74.9953 77.194 75.2267 77.2663 75.4567C77.306 75.5828 77.2359 75.717 77.1099 75.7566C77.086 75.7641 77.0618 75.7677 77.0381 75.7677ZM54.8188 75.3006C54.73 75.3006 54.6448 75.2511 54.6034 75.1659C54.4008 74.7486 54.2986 74.508 54.2944 74.4979C54.2429 74.3763 54.2997 74.236 54.4214 74.1844C54.5429 74.133 54.6834 74.1898 54.7349 74.3114C54.7359 74.3137 54.8372 74.552 55.0338 74.9569C55.0915 75.0757 55.0419 75.2188 54.9231 75.2765C54.8894 75.2929 54.8538 75.3006 54.8188 75.3006ZM76.4119 73.9553C76.3161 73.9553 76.2257 73.8973 76.1889 73.8027L76.1869 73.7974L76.4088 73.7089L76.3646 73.4728C76.4616 73.4546 76.583 73.496 76.6349 73.6296C76.6826 73.7527 76.6216 73.8913 76.4985 73.9391C76.47 73.9501 76.4407 73.9553 76.4119 73.9553Z" fill="black"/>
<path d="M57.4652 54.602C57.3427 54.602 57.2384 54.5084 57.2273 54.384C57.2134 54.2285 56.9144 50.5449 59.2727 47.9666C60.7209 46.3834 62.8491 45.5806 65.5983 45.5806C66.4057 45.5806 66.9784 45.3578 67.3005 44.9183C67.8968 44.1047 67.4889 42.7817 67.4847 42.7684C67.4449 42.6426 67.5146 42.5081 67.6404 42.4683C67.7663 42.4284 67.9005 42.4978 67.9405 42.6235C67.9607 42.6869 68.4267 44.1881 67.6877 45.1992C67.2706 45.7697 66.5677 46.0589 65.5983 46.0589C62.989 46.0589 60.9794 46.8094 59.6256 48.2895C57.4081 50.7138 57.7005 54.3055 57.7037 54.3415C57.7155 54.4731 57.6184 54.5892 57.4867 54.601C57.4796 54.6017 57.4723 54.602 57.4652 54.602Z" fill="white"/>
<path d="M175.501 116.788C175.051 116.679 174.623 116.471 174.239 116.17L118.866 72.6352L124.944 47.6389L125.058 47.6176L194.61 34.5499C195.736 34.3383 196.837 34.6994 197.629 35.5405C198.524 36.49 198.857 37.8607 198.521 39.2072L179.848 113.888C179.514 115.225 178.583 116.273 177.358 116.692C176.737 116.905 176.1 116.934 175.501 116.788ZM119.269 72.4957L174.461 115.887C175.259 116.515 176.273 116.685 177.242 116.353C178.351 115.973 179.195 115.019 179.5 113.801L198.173 39.1201C198.479 37.8928 198.179 36.6466 197.368 35.7864C196.661 35.036 195.68 34.7139 194.677 34.9024L125.238 47.9486L119.269 72.4957Z" fill="black"/>
<path d="M96.5195 61.5718L87.0506 58.3221L90.7382 43.1559L100.704 44.6257L96.5195 61.5718ZM87.4765 58.089L96.2651 61.1053L100.261 44.9231L91.0095 43.5586L87.4765 58.089Z" fill="black"/>
<path d="M113.046 108.147L104.53 106.077C102.967 105.696 101.737 104.435 101.397 102.862L93.9403 70.7994C93.9259 70.733 93.9183 70.6979 96.2989 61.006C97.6144 55.6501 99.2036 49.2063 100.305 44.7437C101.031 41.8025 104.017 39.9921 106.961 40.7079L122.726 44.5411C124.569 44.9894 125.705 46.8543 125.256 48.6982L119.609 71.9227C118.992 74.4617 116.424 76.025 113.885 75.4077L110.351 74.5484L118.121 102.924C118.521 104.382 118.13 105.901 117.076 106.986C116.022 108.07 114.515 108.504 113.046 108.147ZM94.2977 70.7528L101.747 102.783C102.059 104.225 103.184 105.38 104.615 105.728L113.13 107.798C114.475 108.125 115.854 107.728 116.818 106.735C117.783 105.743 118.141 104.353 117.775 103.018L109.844 74.0558L113.97 75.0589C116.317 75.6295 118.69 74.1846 119.261 71.8378L124.908 48.6133C125.309 46.9616 124.292 45.2911 122.641 44.8895L106.876 41.0563C104.123 40.3871 101.332 42.0797 100.653 44.8295C96.7295 60.7268 94.4233 70.1332 94.2977 70.7528Z" fill="black"/>
<path d="M211.923 27.8962L132.906 42.7419C132.854 41.1172 131.731 39.6604 130.075 39.2576L112.144 34.8977C108.9 34.109 105.63 36.0883 104.823 39.3258L93.8935 37.7138L89.7871 54.6023L100.181 58.1696C98.7175 64.1298 97.5705 68.8301 97.5812 68.8796L106.064 105.351C106.436 107.075 107.761 108.435 109.476 108.852L119.161 111.207C122.57 112.036 125.616 108.901 124.689 105.518L115.76 72.9098L120.116 73.969C122.594 74.5714 125.089 73.2842 126.084 71.0307L188.841 120.37C191.009 122.075 194.173 120.777 194.896 117.887L216.135 32.9435C216.862 30.0334 214.651 27.3836 211.923 27.8962Z" fill="#F65454"/>
<path d="M118.656 74.2562L97.2465 69.0505C97.054 69.0037 96.9358 68.8096 96.9826 68.6171C97.0294 68.4247 97.2235 68.3065 97.416 68.3533L118.826 73.559C119.018 73.6058 119.136 73.7999 119.09 73.9924C119.043 74.1849 118.849 74.303 118.656 74.2562Z" fill="white"/>
<path d="M126.148 71.415C125.956 71.3682 125.837 71.1741 125.884 70.9816L132.824 42.4384C132.871 42.246 133.065 42.1278 133.258 42.1746C133.45 42.2214 133.568 42.4155 133.522 42.608L126.581 71.1511C126.535 71.3437 126.341 71.4618 126.148 71.415Z" fill="white"/>
<path d="M99.9393 57.977C99.7468 57.9302 99.6286 57.7362 99.6754 57.5437L104.045 39.5722C104.092 39.3797 104.286 39.2616 104.478 39.3084C104.671 39.3552 104.789 39.5493 104.742 39.7417L100.373 57.7132C100.326 57.9057 100.132 58.0238 99.9393 57.977Z" fill="white"/>
<path d="M130.617 53.04C130.47 53.0044 130.356 52.8779 130.344 52.7191C130.329 52.5216 130.476 52.349 130.674 52.3337L186.256 48.021C186.454 48.0058 186.626 48.1534 186.641 48.351C186.657 48.5485 186.509 48.7211 186.311 48.7364L130.729 53.0491C130.69 53.0521 130.652 53.0487 130.617 53.04Z" fill="white"/>
<path d="M77.6782 149.783C77.6782 149.783 79.4303 148.782 79.0299 143.776C78.6294 138.77 72.6224 138.27 72.6224 138.27L71.1207 139.771L70.6201 149.783L73.8238 151.885L77.6782 149.783Z" fill="black"/>
<path d="M127.958 103.83C127.235 100.936 122.413 102.166 122.413 102.166C122.413 102.166 126.477 101.344 124.983 97.8731C123.531 94.5007 118.725 96.071 118.725 96.071C123.848 94.1444 120.63 89.7137 116.423 89.4133C112.185 89.1107 99.453 92.3323 96.3271 84.1294C89.0205 84.185 88.6312 95.1928 86.3066 99.0244C83.982 102.856 68.2107 119.164 65.8354 122.136C63.5436 125.004 57.8454 132.46 57.8454 127.324C57.8454 104.66 57.6722 80.4752 45.7908 80.603C33.3387 80.737 21.863 88.514 21.8633 110.303C21.8636 134.382 28.7755 149.615 41.6363 162.867C59.4996 181.273 90.3789 129.483 101.553 115.305L126.184 112.89C130.612 112.228 129.211 107.302 125.438 107.946C125.438 107.946 128.7 106.803 127.958 103.83Z" fill="white"/>
<path d="M50.3218 167.015C47.007 167.015 44.0314 165.678 41.4645 163.034C38.1148 159.582 35.3206 156.163 32.9223 152.583C30.3864 148.796 28.3526 144.92 26.7045 140.733C23.286 132.048 21.6242 122.094 21.624 110.303C21.624 105.051 22.2968 100.378 23.6239 96.4129C24.8524 92.7426 26.6557 89.6322 28.9835 87.1681C33.1188 82.7905 38.9298 80.4376 45.7881 80.3638C47.9416 80.3396 49.8202 81.1077 51.3728 82.6437C52.9681 84.2218 54.2277 86.5684 55.2236 89.8173C56.1029 92.6856 56.7526 96.1863 57.2097 100.519C58.0845 108.812 58.0845 119.076 58.0845 127.324C58.0845 127.929 58.1684 128.679 58.5678 128.818C58.8675 128.923 59.6609 128.797 61.609 126.778C62.9149 125.425 64.2687 123.722 65.2573 122.478C65.3964 122.303 65.5272 122.138 65.6485 121.987C66.5011 120.92 69.0937 118.119 72.0957 114.875C77.3809 109.165 84.6191 101.345 86.102 98.9002C86.7515 97.8296 87.2634 96.1284 87.8053 94.3274C89.1989 89.6956 90.9332 83.9311 96.3252 83.8901C96.3258 83.8901 96.3264 83.8901 96.327 83.8901C96.4262 83.8901 96.5151 83.9513 96.5505 84.0441C98.9478 90.3352 107.236 89.7219 112.721 89.3161C114.223 89.205 115.52 89.1091 116.44 89.1746C118.996 89.3572 121.299 91.0343 121.572 92.9131C121.664 93.5479 121.569 94.6001 120.317 95.5114C120.627 95.4792 120.965 95.4608 121.314 95.4681C123.224 95.5081 124.569 96.307 125.202 97.7784C125.649 98.8166 125.668 99.7394 125.259 100.521C124.997 101.02 124.595 101.397 124.175 101.676C125.102 101.631 126.203 101.718 127.036 102.215C127.633 102.571 128.021 103.095 128.19 103.772C128.516 105.078 128.152 106.257 127.137 107.18C126.925 107.373 126.706 107.535 126.5 107.669C127.337 107.757 128.061 108.129 128.57 108.751C129.164 109.476 129.336 110.438 129.019 111.26C128.798 111.834 128.14 112.84 126.219 113.127C126.215 113.128 126.211 113.128 126.207 113.128L101.678 115.533C99.9086 117.786 97.6453 120.975 95.0296 124.662C89.2679 132.782 82.0973 142.887 74.4044 151.33C70.2146 155.928 66.2794 159.552 62.7081 162.103C58.5462 165.075 54.7067 166.715 51.2963 166.977C50.9683 167.002 50.6434 167.015 50.3218 167.015ZM45.8867 80.8416C45.8555 80.8416 45.8244 80.8418 45.7932 80.8422C39.0678 80.9145 33.3752 83.2156 29.3311 87.4966C27.0514 89.9098 25.2838 92.9609 24.0774 96.5648C22.7668 100.48 22.1022 105.103 22.1023 110.303C22.1025 122.033 23.7534 131.929 27.1496 140.558C28.7849 144.713 30.8032 148.559 33.3198 152.316C35.7018 155.873 38.4783 159.27 41.8077 162.7C43.2003 164.135 44.7242 165.18 46.3369 165.806C47.8678 166.4 49.5239 166.633 51.2596 166.5C54.5818 166.245 58.3401 164.634 62.43 161.714C65.9739 159.183 69.8837 155.581 74.0507 151.007C81.724 142.587 88.8852 132.494 94.6394 124.385C97.2899 120.649 99.5791 117.423 101.365 115.157C101.406 115.106 101.465 115.073 101.53 115.067L126.154 112.653C127.397 112.466 128.255 111.91 128.572 111.088C128.828 110.426 128.685 109.646 128.2 109.053C127.59 108.308 126.598 107.991 125.478 108.182C125.355 108.203 125.237 108.126 125.206 108.006C125.175 107.886 125.241 107.762 125.358 107.721C125.366 107.718 126.147 107.438 126.826 106.817C127.707 106.01 128.009 105.024 127.726 103.888V103.888C127.587 103.331 127.281 102.918 126.791 102.626C125.424 101.81 123.112 102.255 122.582 102.372C122.514 102.389 122.471 102.398 122.46 102.4C122.333 102.426 122.209 102.346 122.18 102.219C122.151 102.093 122.228 101.966 122.354 101.934C122.366 101.931 122.404 101.922 122.465 101.908C122.855 101.808 124.272 101.376 124.836 100.298C125.174 99.6501 125.149 98.8662 124.763 97.9677C124.201 96.6629 123.037 95.9829 121.304 95.9466C119.978 95.9189 118.811 96.2946 118.799 96.2984C118.676 96.3387 118.542 96.273 118.499 96.1503C118.456 96.0275 118.519 95.8929 118.641 95.8472C120.398 95.1864 121.27 94.1689 121.098 92.982C120.86 91.3415 118.711 89.8165 116.405 89.6519C115.521 89.5888 114.239 89.6836 112.756 89.7933C109.954 90.0007 106.468 90.2586 103.334 89.6522C101.617 89.3201 100.164 88.7493 99.0148 87.9559C97.7221 87.0633 96.7641 85.8582 96.165 84.3719C94.0094 84.4394 92.3013 85.5221 90.9469 87.6774C89.7162 89.636 88.9442 92.2017 88.2631 94.4655C87.7123 96.2965 87.1918 98.026 86.5108 99.1486C85.0028 101.634 78.0407 109.156 72.4466 115.2C69.4509 118.437 66.8637 121.232 66.022 122.286C65.9009 122.437 65.7704 122.601 65.6316 122.776C62.986 126.105 60.2903 129.322 58.7315 129.322C58.6181 129.322 58.511 129.305 58.4101 129.27C57.8691 129.081 57.606 128.445 57.606 127.324C57.606 119.088 57.606 108.837 56.7339 100.57C55.7869 91.5923 53.9231 85.8399 51.0363 82.9839C49.58 81.5429 47.8946 80.8416 45.8867 80.8416Z" fill="black"/>
<path d="M72.1136 115.207C69.1458 118.414 66.7459 121.161 65.8354 122.135C63.3427 124.802 57.8445 130.303 57.8445 125.167C57.8445 102.503 57.6722 80.4743 45.7908 80.6021C33.3387 80.7361 21.863 88.5131 21.8633 110.302C21.8636 134.381 28.7755 149.614 41.6363 162.866C51.5143 173.044 65.3724 164.304 77.6777 149.782C69.7983 155.088 71.1454 124.134 72.1136 115.207Z" fill="white"/>
<path d="M51.4662 167.513C47.7135 167.513 44.351 166.008 41.4645 163.033C38.1148 159.582 35.3206 156.163 32.9223 152.582C30.3864 148.796 28.3526 144.92 26.7045 140.733C23.286 132.048 21.6242 122.094 21.624 110.303C21.624 105.051 22.2968 100.378 23.6239 96.4129C24.8524 92.7426 26.6557 89.6322 28.9834 87.168C33.1188 82.7904 38.9298 80.4376 45.7881 80.3637C48.0746 80.3415 50.0466 81.1305 51.6491 82.7158C53.182 84.2323 54.3896 86.4392 55.3408 89.4628C56.1856 92.1482 56.8085 95.4232 57.2448 99.4749C58.0836 107.263 58.0836 116.775 58.0836 125.168C58.0836 126.199 58.3076 126.811 58.7494 126.985C59.1774 127.154 60.0878 127.032 61.9952 125.489C63.0394 124.644 64.2384 123.494 65.6606 121.973C66.0109 121.598 66.5921 120.949 67.3278 120.127C68.5046 118.813 70.1163 117.014 71.938 115.046C72.0081 114.97 72.1187 114.948 72.2127 114.99C72.3066 115.033 72.3624 115.131 72.3513 115.234C72.0094 118.386 71.4253 126.459 71.6615 134.454C71.9938 145.7 73.7185 149.06 75.1069 149.898C75.8067 150.32 76.6038 150.218 77.5439 149.585C77.6429 149.518 77.776 149.535 77.8557 149.624C77.9353 149.713 77.9372 149.847 77.86 149.938C71.2173 157.777 61.3293 167.188 51.9458 167.505C51.7853 167.511 51.6253 167.513 51.4662 167.513ZM45.8959 80.8416C45.8617 80.8416 45.8276 80.8418 45.7932 80.8421C39.0678 80.9145 33.3752 83.2156 29.3311 87.4965C27.0514 89.9098 25.2838 92.9608 24.0774 96.5648C22.7668 100.48 22.1022 105.102 22.1023 110.303C22.1025 122.033 23.7534 131.929 27.1496 140.558C28.7849 144.713 30.8032 148.559 33.3198 152.316C35.7019 155.873 38.4783 159.27 41.8077 162.7C44.7187 165.7 48.1252 167.156 51.9296 167.027C60.7902 166.728 70.1775 158.085 76.7363 150.514C76.0593 150.721 75.4311 150.652 74.8597 150.308C72.6922 148.999 71.4553 143.67 71.1834 134.468C70.9883 127.864 71.3559 120.409 71.8017 115.899C70.1827 117.657 68.7537 119.252 67.6841 120.447C66.9465 121.27 66.3638 121.921 66.01 122.299C62.304 126.264 59.8716 127.942 58.5738 127.43C57.9311 127.177 57.6052 126.415 57.6052 125.168C57.6052 116.787 57.6052 107.288 56.7693 99.5262C56.3363 95.5061 55.7198 92.2613 54.8845 89.6063C53.9572 86.6589 52.7888 84.5162 51.3126 83.0559C49.8072 81.5666 48.0342 80.8416 45.8959 80.8416Z" fill="black"/>
<path d="M72.0416 155.534C71.879 155.534 71.7178 155.516 71.5625 155.479C71.4339 155.449 71.3542 155.32 71.3844 155.192C71.4146 155.063 71.5433 154.983 71.672 155.014C71.8697 155.06 72.0782 155.068 72.2945 155.038C72.4255 155.019 72.5463 155.11 72.5648 155.241C72.5833 155.372 72.4923 155.493 72.3616 155.511C72.254 155.527 72.1463 155.534 72.0416 155.534ZM70.6027 154.902C70.543 154.902 70.4833 154.879 70.4369 154.835C70.2675 154.672 70.1023 154.477 69.946 154.256C69.8697 154.148 69.8952 153.999 70.003 153.923C70.1108 153.846 70.2601 153.872 70.3364 153.98C70.4754 154.176 70.6209 154.348 70.7687 154.49C70.8639 154.582 70.8667 154.733 70.7751 154.828C70.7281 154.877 70.6655 154.902 70.6027 154.902ZM69.5538 153.318C69.4634 153.318 69.377 153.267 69.3365 153.179C69.2394 152.969 69.1441 152.741 69.0532 152.502C69.0062 152.379 69.0682 152.241 69.1917 152.194C69.3152 152.146 69.4533 152.209 69.5003 152.332C69.5873 152.561 69.6784 152.778 69.7709 152.979C69.8262 153.099 69.7739 153.241 69.654 153.296C69.6214 153.311 69.5874 153.318 69.5538 153.318ZM68.8997 151.521C68.7961 151.521 68.7006 151.453 68.6702 151.349C68.6052 151.125 68.5412 150.889 68.48 150.648C68.4475 150.519 68.5251 150.389 68.6531 150.357C68.7812 150.325 68.9112 150.402 68.9436 150.53C69.0034 150.767 69.0659 150.997 69.1294 151.215C69.1663 151.342 69.0934 151.475 68.9665 151.511C68.9443 151.518 68.9218 151.521 68.8997 151.521ZM68.4459 149.661C68.3347 149.661 68.235 149.583 68.2119 149.47C68.1649 149.241 68.1187 149.002 68.0746 148.76C68.051 148.63 68.1371 148.505 68.267 148.482C68.397 148.458 68.5215 148.544 68.5452 148.674C68.5887 148.912 68.6342 149.148 68.6804 149.374C68.7069 149.503 68.6235 149.63 68.4941 149.656C68.478 149.659 68.4618 149.661 68.4459 149.661ZM68.1136 147.775C67.9973 147.775 67.8954 147.69 67.8774 147.572C67.8423 147.339 67.8078 147.099 67.775 146.857C67.7573 146.727 67.8489 146.606 67.9799 146.588C68.1108 146.571 68.2312 146.662 68.249 146.793C68.2815 147.032 68.3156 147.27 68.3504 147.5C68.3701 147.631 68.2803 147.753 68.1497 147.773C68.1375 147.774 68.1255 147.775 68.1136 147.775ZM67.864 145.877C67.744 145.877 67.6405 145.786 67.6266 145.664C67.6 145.43 67.574 145.189 67.5494 144.948C67.5359 144.816 67.6316 144.699 67.7629 144.686C67.8944 144.673 68.0117 144.768 68.0252 144.899C68.0496 145.138 68.0754 145.378 68.1019 145.61C68.1168 145.742 68.0225 145.86 67.8913 145.875C67.8822 145.876 67.873 145.877 67.864 145.877ZM67.6755 143.971C67.5526 143.971 67.4481 143.877 67.4374 143.752C67.4171 143.514 67.3977 143.275 67.3793 143.034C67.3693 142.903 67.4678 142.788 67.5995 142.778C67.7317 142.767 67.8462 142.866 67.8562 142.998C67.8745 143.237 67.8938 143.475 67.914 143.711C67.9252 143.843 67.8277 143.959 67.696 143.97C67.6892 143.971 67.6822 143.971 67.6755 143.971ZM67.5343 142.061C67.4091 142.061 67.3039 141.964 67.2958 141.837C67.2808 141.598 67.2665 141.359 67.2531 141.118C67.2457 140.987 67.3466 140.874 67.4785 140.866C67.61 140.86 67.7233 140.96 67.7306 141.092C67.744 141.331 67.7582 141.569 67.7732 141.807C67.7815 141.939 67.6814 142.052 67.5496 142.061C67.5445 142.061 67.5393 142.061 67.5343 142.061ZM67.4314 140.149C67.3043 140.149 67.1985 140.049 67.1927 139.921C67.1819 139.681 67.1719 139.442 67.1626 139.202C67.1574 139.07 67.2603 138.959 67.3923 138.953C67.524 138.949 67.6354 139.051 67.6405 139.183C67.6498 139.422 67.6598 139.661 67.6706 139.899C67.6765 140.031 67.5744 140.143 67.4424 140.149C67.4387 140.149 67.4351 140.149 67.4314 140.149ZM67.3605 138.234C67.2316 138.234 67.1254 138.131 67.1216 138.002C67.1144 137.762 67.108 137.522 67.1021 137.282C67.0989 137.15 67.2033 137.04 67.3354 137.037C67.4671 137.035 67.577 137.138 67.5803 137.27C67.5861 137.509 67.5926 137.748 67.5996 137.988C67.6035 138.12 67.4997 138.23 67.3677 138.234C67.3653 138.234 67.3629 138.234 67.3605 138.234ZM67.3168 136.32C67.1865 136.32 67.0799 136.215 67.0777 136.084C67.0738 135.845 67.0704 135.606 67.0676 135.367C67.0661 135.235 67.1718 135.127 67.3039 135.125C67.437 135.125 67.5443 135.229 67.5459 135.361C67.5487 135.599 67.5521 135.838 67.556 136.076C67.5581 136.208 67.4529 136.317 67.3208 136.319C67.3195 136.32 67.3181 136.32 67.3168 136.32ZM67.2968 134.406C67.1653 134.406 67.0583 134.3 67.0576 134.168C67.0565 133.928 67.0558 133.688 67.0557 133.449C67.0556 133.317 67.1626 133.21 67.2946 133.21H67.2948C67.4269 133.21 67.5339 133.317 67.534 133.449C67.5342 133.687 67.5348 133.926 67.536 134.166C67.5366 134.298 67.43 134.406 67.2979 134.406C67.2976 134.406 67.2972 134.406 67.2968 134.406ZM67.2979 132.492C67.2974 132.492 67.297 132.492 67.2965 132.492C67.1644 132.491 67.0579 132.384 67.0586 132.252C67.06 132.011 67.0618 131.771 67.064 131.533C67.0653 131.402 67.1721 131.296 67.3031 131.296C67.3039 131.296 67.3046 131.296 67.3055 131.296C67.4376 131.297 67.5436 131.405 67.5424 131.537C67.5402 131.775 67.5384 132.014 67.537 132.254C67.5363 132.386 67.4293 132.492 67.2979 132.492ZM67.318 130.578C67.3167 130.578 67.3155 130.578 67.3142 130.578C67.1822 130.576 67.0767 130.467 67.0787 130.335C67.0824 130.093 67.0865 129.854 67.0909 129.617C67.0933 129.486 67.1999 129.382 67.3299 129.382C67.3314 129.382 67.3329 129.382 67.3344 129.382C67.4665 129.384 67.5715 129.493 67.5692 129.625C67.5648 129.862 67.5607 130.101 67.557 130.342C67.555 130.473 67.4483 130.578 67.318 130.578ZM67.3555 128.664C67.3535 128.664 67.3516 128.664 67.3497 128.664C67.2176 128.661 67.1131 128.551 67.1163 128.419C67.1221 128.176 67.1282 127.937 67.1346 127.701C67.1382 127.571 67.2445 127.468 67.3736 127.468C67.3758 127.468 67.378 127.468 67.3802 127.468C67.5122 127.472 67.6164 127.582 67.6128 127.714C67.6064 127.949 67.6003 128.188 67.5945 128.43C67.5914 128.561 67.485 128.664 67.3555 128.664ZM67.4095 126.75C67.4069 126.75 67.4043 126.75 67.4016 126.75C67.2696 126.746 67.166 126.635 67.1703 126.503C67.1782 126.259 67.1864 126.02 67.1946 125.785C67.1993 125.653 67.3097 125.549 67.4421 125.555C67.5741 125.559 67.6773 125.67 67.6727 125.802C67.6643 126.036 67.6563 126.275 67.6484 126.519C67.6443 126.648 67.538 126.75 67.4095 126.75ZM67.4793 124.837C67.476 124.837 67.4727 124.837 67.4694 124.837C67.3374 124.832 67.2347 124.72 67.2401 124.588C67.2502 124.341 67.2603 124.101 67.2704 123.87C67.2762 123.738 67.3878 123.636 67.5198 123.642C67.6517 123.648 67.754 123.759 67.7482 123.891C67.7382 124.122 67.7281 124.361 67.718 124.608C67.7128 124.736 67.6069 124.837 67.4793 124.837ZM67.5649 122.924C67.561 122.924 67.557 122.924 67.5529 122.924C67.421 122.918 67.3193 122.805 67.3258 122.674C67.3384 122.418 67.3506 122.178 67.3623 121.956C67.3692 121.824 67.4821 121.722 67.6136 121.729C67.7456 121.736 67.8469 121.849 67.8399 121.981C67.8283 122.203 67.8161 122.442 67.8035 122.697C67.7973 122.825 67.6916 122.924 67.5649 122.924ZM67.6681 121.012C67.6633 121.012 67.6585 121.012 67.6537 121.011C67.5219 121.004 67.4213 120.89 67.4291 120.759C67.4568 120.293 67.4741 120.038 67.4741 120.038C67.4831 119.907 67.5965 119.806 67.729 119.816C67.8608 119.825 67.9604 119.939 67.9513 120.071C67.9513 120.072 67.9341 120.324 67.9066 120.787C67.8991 120.914 67.7937 121.012 67.6681 121.012Z" fill="black"/>
<path d="M82.8894 61.6858L78.2148 62.6484L78.3113 63.117L82.9859 62.1544L82.8894 61.6858Z" fill="black"/>
<path d="M77.4925 66.7419L77.373 67.2051L82.2494 68.4626L82.3688 67.9994L77.4925 66.7419Z" fill="black"/>
<path d="M232.618 51.6558L200.292 51.5439L200.29 52.0223L232.616 52.1341L232.618 51.6558Z" fill="white"/>
<path d="M228.323 80.5757L196.025 72.7227L195.912 73.1874L228.21 81.0405L228.323 80.5757Z" fill="white"/>
<path d="M190.483 95.8017L190.26 96.2246L220.572 112.25L220.795 111.827L190.483 95.8017Z" fill="white"/>
<path d="M0 174.761C0 174.761 6.94038 79.0822 37.9101 78.5146C68.8799 77.947 40.8884 105.284 39.2455 126.633C36.5241 161.998 51.9024 174.761 51.9024 174.761H0Z" fill="#FEBA00"/>
</svg>
