<svg width="230" height="159" viewBox="0 0 230 159" fill="none" xmlns="http://www.w3.org/2000/svg">
<path d="M159.556 117.636C161.358 113.874 158.444 113.818 157.174 113.98C159.255 113.036 159.738 108.44 155.981 108.507C156.945 107.079 156.055 102.681 153.653 103.19C154.864 101.179 165.747 93.7492 162.168 90.654C160.197 88.9482 151.217 98.0419 145.586 103.19C143.201 105.371 142.746 98.1446 139.042 100.319C134.614 102.918 131.972 107.598 133.717 113.471C129.876 115.86 102.414 132.68 97.2125 116.337C92.1198 100.336 103.35 81.4466 91.4599 66.1787C82.9388 55.2369 71.6166 60.0364 64.6254 74.7409C54.2861 96.4874 59.7545 128.062 72.7124 141.218C107.749 176.791 159.064 118.661 159.556 117.636Z" fill="white"/>
<path d="M99.111 152.968C89.041 152.968 80.1293 149.089 72.5418 141.386C69.3288 138.123 66.5584 133.765 64.3077 128.432C62.1334 123.279 60.5385 117.332 59.6953 111.233C58.8167 104.878 58.7399 98.5497 59.4672 92.4239C60.2432 85.8873 61.9059 79.9033 64.4092 74.6382C68.5244 65.9828 74.1922 60.6569 79.9594 60.0262C84.1867 59.5639 88.2287 61.6406 91.6484 66.0317C93.3398 68.2035 94.6154 70.4917 95.548 73.0268C96.3779 75.2823 96.9144 77.6809 97.1882 80.36C97.6952 85.3208 97.1975 90.4938 96.7162 95.4966C96.0446 102.478 95.35 109.697 97.4402 116.264C98.4247 119.357 100.303 121.434 103.022 122.436C105.254 123.259 108.089 123.379 111.449 122.792C114.221 122.308 117.368 121.342 120.802 119.92C124.788 118.271 129.268 115.945 133.437 113.364C132.644 110.573 132.782 107.952 133.846 105.569C134.828 103.372 136.583 101.485 138.921 100.113C139.893 99.5419 140.753 99.5163 141.551 100.035C142.217 100.467 142.736 101.227 143.195 101.897C143.689 102.621 144.157 103.305 144.651 103.362C144.885 103.389 145.138 103.275 145.424 103.013C146.325 102.19 147.305 101.271 148.343 100.299C151.02 97.7894 154.055 94.9452 156.596 92.9384C159.655 90.5217 161.475 89.7383 162.325 90.4731C162.849 90.9268 163.119 91.4929 163.126 92.1558C163.153 94.6713 159.315 98.1411 156.513 100.675C155.527 101.565 154.647 102.361 154.162 102.915C154.79 102.961 155.355 103.322 155.79 103.968C156.59 105.155 156.828 107.135 156.369 108.278C157.728 108.374 158.654 109.116 158.933 110.354C159.204 111.554 158.787 112.904 157.987 113.696C158.703 113.711 159.579 113.877 160.046 114.524C160.551 115.223 160.458 116.305 159.771 117.739C159.554 118.191 152.922 125.746 143.133 133.625C137.408 138.234 131.675 142.102 126.094 145.122C119.152 148.879 112.445 151.316 106.159 152.366C103.752 152.768 101.4 152.968 99.111 152.968ZM81.1085 60.4416C80.7443 60.4416 80.3786 60.4615 80.0114 60.5017C74.4128 61.1139 68.8835 66.3414 64.8412 74.8436C62.3602 80.0617 60.712 85.9955 59.9421 92.4803C59.2197 98.5656 59.2961 104.853 60.1691 111.168C61.0066 117.226 62.5901 123.131 64.7483 128.246C66.9441 133.449 69.7569 137.877 72.8826 141.05C77.49 145.728 82.6423 149.012 88.1963 150.81C93.1862 152.426 98.6076 152.878 104.31 152.154C110.668 151.347 117.484 149.072 124.567 145.391C130.279 142.422 136.167 138.545 142.065 133.866C152.473 125.611 159.124 117.889 159.342 117.528C159.946 116.266 160.052 115.35 159.658 114.804C159.122 114.06 157.763 114.146 157.204 114.217C157.086 114.232 156.976 114.159 156.943 114.045C156.911 113.931 156.967 113.811 157.075 113.762C158.107 113.293 158.758 111.75 158.467 110.46C158.319 109.806 157.803 108.715 155.985 108.746C155.984 108.746 155.982 108.746 155.981 108.746C155.893 108.746 155.813 108.699 155.771 108.621C155.728 108.543 155.733 108.448 155.783 108.374C156.323 107.572 156.25 105.505 155.393 104.235C155.079 103.768 154.53 103.249 153.703 103.424C153.609 103.444 153.513 103.406 153.458 103.329C153.403 103.251 153.399 103.148 153.448 103.067C153.8 102.482 154.856 101.528 156.192 100.32C158.927 97.8472 162.673 94.461 162.648 92.161C162.642 91.6339 162.434 91.2001 162.012 90.8349C161.58 90.4617 160.342 90.5886 156.892 93.3139C154.367 95.3082 151.34 98.145 148.67 100.648C147.631 101.621 146.65 102.541 145.747 103.366C145.352 103.727 144.976 103.881 144.596 103.837C143.885 103.755 143.358 102.984 142.799 102.167C142.345 101.503 141.876 100.816 141.29 100.436C140.65 100.02 139.974 100.049 139.162 100.525C136.911 101.847 135.224 103.658 134.283 105.765C133.244 108.089 133.131 110.659 133.946 113.403C133.977 113.506 133.935 113.618 133.843 113.674C129.61 116.307 125.043 118.683 120.985 120.362C117.518 121.798 114.337 122.774 111.531 123.263C108.087 123.865 105.168 123.737 102.857 122.885C99.9916 121.829 98.0158 119.651 96.9843 116.409C94.8643 109.749 95.5637 102.48 96.2399 95.4508C96.719 90.4713 97.2144 85.3223 96.7122 80.4086C96.4425 77.77 95.9148 75.4095 95.099 73.192C94.1836 70.7039 92.9314 68.4579 91.2709 66.3257C88.2587 62.4576 84.7656 60.4416 81.1085 60.4416Z" fill="black"/>
<path d="M153.21 122.206C153.187 122.206 153.165 122.205 153.143 122.205C152.416 122.186 151.815 121.872 151.355 121.271C150.906 120.684 150.761 120.028 150.924 119.322C151.115 118.496 151.718 117.678 152.475 116.935C151.584 117.294 150.698 117.54 149.939 117.54C149.758 117.54 149.584 117.526 149.419 117.496C148.867 117.396 148.446 117.127 148.166 116.698C147.923 116.327 147.858 115.891 147.973 115.404C148.25 114.229 149.581 112.85 151.073 111.621C149.733 112.216 148.396 112.618 147.442 112.454C146.964 112.372 146.598 112.155 146.354 111.809C146.129 111.49 146.055 111.102 146.132 110.655C146.621 107.853 153.235 103.191 153.516 102.994L153.791 103.386C153.723 103.433 147.058 108.13 146.604 110.737C146.548 111.058 146.594 111.319 146.745 111.533C146.916 111.775 147.17 111.922 147.523 111.983C148.542 112.157 150.296 111.584 152.597 110.324C152.909 110.153 153.212 109.98 153.499 109.811C154.754 108.951 155.753 108.364 155.861 108.301L156.119 108.703C156.023 108.771 155.065 109.446 153.775 110.207C151.666 111.652 148.829 113.86 148.439 115.514C148.354 115.874 148.395 116.175 148.566 116.437C148.775 116.756 149.081 116.948 149.504 117.025C150.459 117.199 151.968 116.758 153.879 115.746C155.399 114.609 156.947 113.826 157.067 113.766L157.315 114.173C157.206 114.253 155.822 115.259 154.143 116.15C152.88 117.095 151.658 118.273 151.39 119.43C151.259 119.999 151.372 120.505 151.735 120.98C152.108 121.468 152.572 121.712 153.154 121.727C153.173 121.727 153.193 121.727 153.212 121.727C155.74 121.727 159.337 117.524 159.373 117.481L159.738 117.79C159.584 117.972 155.961 122.206 153.21 122.206Z" fill="black"/>
<path d="M122.639 119.391C113.087 123.648 100.555 126.838 97.2126 116.337C92.1198 100.336 103.35 81.4465 91.4599 66.1787C82.9389 55.2369 71.6166 60.0364 64.6254 74.7409C54.2861 96.4874 59.7544 128.062 72.7125 141.218C90.2532 159.027 112.222 158.113 129.502 147.874C129.615 147.41 134.103 131.989 122.639 119.391Z" fill="white"/>
<path d="M104.286 155.415C103.249 155.415 102.217 155.378 101.187 155.303C96.0802 154.93 91.1231 153.626 86.4537 151.427C81.4766 149.084 76.796 145.705 72.5419 141.386C69.3289 138.123 66.5585 133.765 64.3077 128.432C62.1334 123.279 60.5385 117.332 59.6953 111.233C58.8167 104.878 58.7399 98.5497 59.4672 92.4239C60.2432 85.8873 61.9059 79.9034 64.4092 74.6382C68.5244 65.9828 74.1923 60.6569 79.9595 60.0262C84.1867 59.5638 88.2288 61.6406 91.6484 66.0317C93.3398 68.2036 94.6154 70.4917 95.5481 73.0268C96.378 75.2823 96.9145 77.681 97.1883 80.36C97.6952 85.3208 97.1976 90.4939 96.7163 95.4966C96.0446 102.478 95.35 109.697 97.4403 116.264C98.3501 119.123 100.024 121.116 102.415 122.189C104.843 123.278 108.052 123.45 111.954 122.7C115.074 122.1 118.636 120.913 122.541 119.173C122.635 119.131 122.746 119.154 122.816 119.23C125.391 122.061 127.368 125.264 128.692 128.752C129.762 131.574 130.412 134.595 130.624 137.731C130.955 142.658 130.124 146.462 129.751 147.868C129.743 147.898 129.737 147.919 129.735 147.93C129.719 147.993 129.68 148.047 129.624 148.08C121.479 152.906 112.781 155.415 104.286 155.415ZM81.1086 60.4416C80.7444 60.4416 80.3787 60.4616 80.0114 60.5017C74.4129 61.1139 68.8835 66.3414 64.8412 74.8436C62.3603 80.0617 60.712 85.9955 59.9422 92.4803C59.2197 98.5657 59.2961 104.853 60.1691 111.168C61.0066 117.226 62.5901 123.131 64.7483 128.246C66.9441 133.449 69.7569 137.877 72.8826 141.05C77.0971 145.329 81.7316 148.675 86.6574 150.995C91.2735 153.169 96.1737 154.457 101.222 154.825C110.559 155.506 120.265 153.049 129.296 147.718C129.666 146.313 130.471 142.588 130.146 137.763C129.938 134.674 129.298 131.699 128.244 128.922C126.962 125.543 125.056 122.434 122.577 119.68C118.7 121.397 115.157 122.571 112.044 123.169C108.044 123.938 104.738 123.755 102.219 122.625C99.6985 121.494 97.9372 119.403 96.9844 116.409C94.8644 109.748 95.5637 102.48 96.24 95.4507C96.7191 90.4712 97.2144 85.3222 96.7122 80.4085C96.4426 77.7699 95.9149 75.4093 95.0991 73.1919C94.1836 70.7039 92.9314 68.4578 91.271 66.3256C88.2587 62.4576 84.7656 60.4416 81.1086 60.4416Z" fill="black"/>
<path d="M146.457 120.341C146.417 120.341 146.377 120.34 146.337 120.338C145.246 120.298 144.212 119.711 143.265 118.595C140.472 115.303 138.443 110.773 138.423 110.728C138.369 110.607 138.424 110.466 138.544 110.412C138.665 110.359 138.806 110.413 138.86 110.534C138.88 110.578 140.882 115.047 143.629 118.285C144.485 119.293 145.4 119.823 146.349 119.86C147.433 119.902 148.281 119.28 148.573 119.031L142.066 101.47C142.02 101.346 142.083 101.208 142.207 101.162C142.331 101.116 142.468 101.18 142.514 101.304L149.078 119.017C149.11 119.104 149.089 119.202 149.024 119.268C148.98 119.313 147.95 120.34 146.457 120.341Z" fill="black"/>
<path d="M125.46 150.294C125.445 150.294 125.43 150.293 125.414 150.29C125.284 150.265 125.2 150.139 125.225 150.009L125.251 149.873C125.276 149.743 125.401 149.658 125.531 149.683C125.66 149.707 125.746 149.833 125.721 149.962L125.695 150.1C125.672 150.215 125.572 150.294 125.46 150.294ZM125.692 148.979C125.68 148.979 125.667 148.978 125.654 148.976C125.524 148.955 125.435 148.833 125.456 148.702C125.493 148.468 125.529 148.231 125.562 147.997C125.581 147.867 125.701 147.776 125.832 147.794C125.963 147.813 126.054 147.934 126.036 148.064C126.002 148.301 125.966 148.541 125.928 148.778C125.909 148.895 125.808 148.979 125.692 148.979ZM125.949 147.084C125.941 147.084 125.932 147.084 125.923 147.083C125.791 147.068 125.697 146.95 125.711 146.819C125.738 146.582 125.762 146.344 125.784 146.11C125.796 145.978 125.912 145.881 126.044 145.894C126.176 145.906 126.272 146.022 126.26 146.154C126.238 146.391 126.213 146.632 126.187 146.872C126.173 146.994 126.07 147.084 125.949 147.084ZM126.115 145.179C126.11 145.179 126.105 145.179 126.1 145.179C125.968 145.171 125.868 145.057 125.876 144.925C125.891 144.689 125.904 144.449 125.914 144.214C125.92 144.082 126.03 143.978 126.164 143.985C126.295 143.991 126.398 144.103 126.392 144.235C126.381 144.473 126.368 144.716 126.353 144.955C126.345 145.082 126.24 145.179 126.115 145.179ZM126.187 143.268C126.186 143.268 126.185 143.268 126.184 143.268C126.052 143.267 125.946 143.158 125.948 143.026C125.951 142.852 125.952 142.679 125.952 142.507C125.952 142.442 125.952 142.378 125.951 142.313C125.95 142.181 126.057 142.074 126.189 142.073C126.19 142.073 126.19 142.073 126.19 142.073C126.322 142.073 126.429 142.179 126.43 142.311C126.43 142.376 126.43 142.442 126.43 142.507C126.43 142.681 126.429 142.857 126.426 143.033C126.425 143.163 126.318 143.268 126.187 143.268ZM126.166 141.356C126.038 141.356 125.932 141.254 125.927 141.125C125.918 140.889 125.908 140.65 125.895 140.413C125.887 140.281 125.989 140.168 126.12 140.161C126.252 140.154 126.365 140.255 126.372 140.387C126.385 140.626 126.396 140.869 126.405 141.108C126.41 141.24 126.306 141.351 126.174 141.356C126.172 141.356 126.169 141.356 126.166 141.356ZM126.049 139.446C125.927 139.446 125.822 139.352 125.811 139.228C125.791 138.993 125.769 138.754 125.744 138.518C125.73 138.386 125.826 138.269 125.957 138.255C126.089 138.242 126.206 138.337 126.22 138.468C126.245 138.707 126.268 138.949 126.288 139.187C126.299 139.318 126.202 139.434 126.07 139.445C126.063 139.446 126.056 139.446 126.049 139.446ZM125.839 137.545C125.721 137.545 125.618 137.458 125.602 137.338C125.57 137.103 125.535 136.865 125.499 136.632C125.479 136.502 125.568 136.379 125.699 136.359C125.829 136.339 125.952 136.428 125.972 136.559C126.009 136.795 126.044 137.035 126.076 137.273C126.094 137.404 126.002 137.525 125.871 137.543C125.86 137.544 125.849 137.545 125.839 137.545ZM125.534 135.656C125.421 135.656 125.321 135.576 125.299 135.461C125.255 135.227 125.209 134.991 125.162 134.761C125.135 134.632 125.218 134.505 125.347 134.478C125.477 134.452 125.603 134.535 125.63 134.664C125.678 134.897 125.725 135.136 125.769 135.373C125.793 135.503 125.708 135.628 125.578 135.652C125.563 135.655 125.548 135.656 125.534 135.656ZM125.136 133.785C125.028 133.785 124.93 133.711 124.904 133.601C124.849 133.372 124.791 133.139 124.732 132.909C124.699 132.781 124.776 132.65 124.904 132.617C125.032 132.584 125.162 132.661 125.195 132.789C125.255 133.023 125.314 133.259 125.369 133.49C125.4 133.618 125.32 133.747 125.192 133.778C125.173 133.782 125.155 133.785 125.136 133.785ZM124.647 131.935C124.543 131.935 124.448 131.867 124.417 131.762C124.352 131.536 124.282 131.306 124.212 131.079C124.173 130.953 124.243 130.819 124.369 130.78C124.495 130.741 124.629 130.811 124.669 130.937C124.74 131.167 124.81 131.4 124.877 131.628C124.914 131.755 124.841 131.888 124.714 131.925C124.692 131.931 124.669 131.935 124.647 131.935ZM124.068 130.111C123.968 130.111 123.876 130.049 123.842 129.949C123.765 129.726 123.684 129.5 123.603 129.277C123.557 129.153 123.621 129.016 123.745 128.971C123.869 128.925 124.007 128.989 124.052 129.113C124.134 129.339 124.216 129.568 124.294 129.794C124.337 129.918 124.27 130.055 124.146 130.098C124.12 130.107 124.093 130.111 124.068 130.111ZM123.399 128.317C123.304 128.317 123.215 128.261 123.177 128.167C123.089 127.948 122.998 127.726 122.906 127.507C122.854 127.386 122.911 127.245 123.033 127.194C123.155 127.143 123.295 127.2 123.346 127.321C123.44 127.543 123.532 127.767 123.621 127.989C123.67 128.112 123.611 128.251 123.488 128.3C123.459 128.312 123.429 128.317 123.399 128.317ZM122.643 126.559C122.553 126.559 122.466 126.507 122.426 126.42C122.326 126.203 122.224 125.986 122.121 125.774C122.064 125.655 122.114 125.512 122.233 125.455C122.352 125.398 122.495 125.447 122.552 125.566C122.656 125.781 122.759 126 122.86 126.22C122.916 126.34 122.863 126.482 122.743 126.537C122.711 126.552 122.677 126.559 122.643 126.559ZM121.799 124.841C121.713 124.841 121.63 124.794 121.587 124.712C121.476 124.501 121.363 124.29 121.249 124.084C121.186 123.968 121.228 123.823 121.343 123.759C121.459 123.696 121.605 123.738 121.668 123.853C121.783 124.062 121.898 124.276 122.011 124.49C122.072 124.607 122.027 124.752 121.91 124.813C121.874 124.832 121.836 124.841 121.799 124.841ZM120.864 123.17C120.782 123.17 120.703 123.128 120.658 123.053C120.534 122.847 120.409 122.642 120.285 122.446C120.215 122.334 120.248 122.186 120.36 122.116C120.472 122.046 120.619 122.079 120.69 122.191C120.816 122.39 120.943 122.598 121.069 122.808C121.136 122.921 121.099 123.068 120.986 123.136C120.948 123.159 120.905 123.17 120.864 123.17ZM119.826 121.559C119.751 121.559 119.677 121.523 119.63 121.457C119.371 121.086 119.215 120.889 119.213 120.887C119.131 120.784 119.148 120.633 119.251 120.551C119.355 120.469 119.505 120.486 119.587 120.589C119.594 120.597 119.753 120.798 120.022 121.183C120.098 121.291 120.071 121.44 119.963 121.516C119.921 121.545 119.874 121.559 119.826 121.559Z" fill="black"/>
<path d="M20.1608 87.8879C24.2873 73.635 29.8145 62.4589 48.8196 59.1407C57.5045 57.6243 69.4463 57.7997 79.568 57.648C88.0007 57.5216 94.3933 65.3796 92.3769 73.5686C79.029 127.776 78.4555 158.719 78.4555 158.719L7.26367 158.761C7.26367 158.761 10.4272 121.507 20.1608 87.8879Z" fill="white"/>
<path d="M7.00293 159.002L7.02493 158.742C7.03282 158.649 7.83941 149.266 9.82509 135.898C11.6579 123.559 14.8988 105.202 19.9306 87.8223C21.1267 83.6909 22.2573 80.4912 23.4884 77.7526C25.0003 74.3896 26.7144 71.6113 28.7286 69.2591C30.998 66.6089 33.6353 64.5019 36.7911 62.8179C40.2004 60.9986 44.1214 59.719 48.7781 58.906C56.036 57.6387 65.3619 57.5517 74.3808 57.4676C76.1798 57.4508 77.8792 57.435 79.564 57.4097C83.7028 57.3478 87.5553 59.172 90.136 62.4148C92.676 65.6066 93.5773 69.6932 92.6087 73.6267C88.8044 89.0762 83.6412 112.526 80.6477 136.502C78.8581 150.835 78.6957 158.647 78.6942 158.724L78.6899 158.959L78.4553 158.959L7.00293 159.002ZM79.7682 57.8865C79.7024 57.8865 79.6372 57.887 79.5713 57.8879C77.885 57.9132 76.185 57.9291 74.3853 57.9459C65.3857 58.0298 56.0797 58.1166 48.8604 59.3772C44.2544 60.1814 40.3802 61.4449 37.0164 63.2399C33.9141 64.8954 31.322 66.966 29.0921 69.5703C27.108 71.8873 25.4178 74.6279 23.9249 77.9488C22.7031 80.6665 21.58 83.8461 20.3902 87.9553C15.3659 105.309 12.129 123.643 10.2984 135.968C8.49832 148.087 7.66859 156.923 7.52467 158.523L78.2223 158.481C78.2637 157.077 78.5521 149.426 80.1731 136.443C81.2257 128.013 82.626 119.015 84.335 109.7C86.4712 98.0567 89.0987 85.8815 92.1443 73.5123C93.0772 69.7238 92.2089 65.7875 89.7619 62.7127C87.3153 59.6384 83.6817 57.8865 79.7682 57.8865Z" fill="black"/>
<path d="M17.6251 158.366C17.6207 158.366 17.6164 158.366 17.612 158.366C17.4801 158.359 17.379 158.246 17.3861 158.114C17.3966 157.921 17.4074 157.728 17.4185 157.535C17.4261 157.403 17.5393 157.301 17.6711 157.31C17.803 157.318 17.9037 157.431 17.8961 157.563C17.885 157.755 17.8742 157.947 17.8638 158.14C17.8568 158.268 17.7512 158.366 17.6251 158.366ZM17.7306 156.595C17.7254 156.595 17.7201 156.594 17.7148 156.594C17.583 156.585 17.4831 156.472 17.4916 156.34C17.5072 156.1 17.5233 155.861 17.5398 155.623C17.5488 155.491 17.6626 155.391 17.7949 155.401C17.9267 155.41 18.0261 155.524 18.017 155.656C18.0005 155.894 17.9846 156.132 17.969 156.371C17.9608 156.497 17.8555 156.595 17.7306 156.595ZM17.8656 154.686C17.8594 154.686 17.8532 154.686 17.847 154.685C17.7153 154.675 17.6168 154.56 17.6269 154.429C17.6453 154.189 17.6641 153.95 17.6834 153.712C17.6941 153.581 17.8088 153.482 17.9411 153.493C18.0728 153.504 18.1709 153.619 18.1602 153.751C18.1409 153.988 18.1221 154.226 18.1038 154.465C18.0941 154.591 17.9893 154.686 17.8656 154.686ZM18.0232 152.779C18.0161 152.779 18.0089 152.779 18.0018 152.778C17.8702 152.767 17.773 152.651 17.7847 152.519C17.806 152.28 17.8277 152.041 17.8498 151.803C17.8621 151.672 17.9789 151.575 18.1102 151.588C18.2417 151.6 18.3383 151.716 18.3261 151.848C18.304 152.085 18.2824 152.323 18.2612 152.561C18.2501 152.686 18.1458 152.779 18.0232 152.779ZM18.2038 150.875C18.1957 150.875 18.1877 150.874 18.1795 150.874C18.048 150.86 17.9523 150.743 17.9655 150.612C17.9897 150.372 18.0143 150.134 18.0394 149.897C18.0533 149.765 18.1708 149.669 18.3023 149.684C18.4337 149.698 18.529 149.816 18.5151 149.947C18.4901 150.184 18.4655 150.421 18.4415 150.66C18.429 150.783 18.3251 150.875 18.2038 150.875ZM18.4078 148.973C18.3988 148.973 18.3897 148.972 18.3805 148.971C18.2492 148.956 18.155 148.838 18.1698 148.706C18.197 148.468 18.2246 148.23 18.2527 147.993C18.2681 147.861 18.3869 147.768 18.5183 147.783C18.6494 147.799 18.7432 147.918 18.7276 148.049C18.6997 148.285 18.6722 148.522 18.6451 148.76C18.6313 148.883 18.5278 148.973 18.4078 148.973ZM18.6357 147.073C18.6257 147.073 18.6156 147.073 18.6054 147.071C18.4744 147.055 18.3815 146.935 18.3981 146.804C18.4283 146.566 18.4589 146.328 18.49 146.091C18.5071 145.96 18.6271 145.868 18.7583 145.885C18.8892 145.902 18.9814 146.023 18.9642 146.153C18.9333 146.389 18.9028 146.626 18.8727 146.864C18.8574 146.985 18.7544 147.073 18.6357 147.073ZM18.8878 145.177C18.8768 145.177 18.8657 145.176 18.8545 145.174C18.7236 145.156 18.6324 145.035 18.6506 144.904C18.6838 144.666 18.7175 144.429 18.7517 144.193C18.7706 144.062 18.8921 143.971 19.0226 143.99C19.1533 144.009 19.244 144.131 19.2251 144.261C19.1911 144.497 19.1575 144.733 19.1244 144.97C19.1077 145.09 19.0053 145.177 18.8878 145.177ZM19.1647 143.284C19.1526 143.284 19.1404 143.283 19.1282 143.281C18.9976 143.261 18.908 143.139 18.9279 143.008C18.9643 142.771 19.0012 142.534 19.0384 142.298C19.0591 142.168 19.1811 142.078 19.312 142.099C19.4425 142.12 19.5315 142.242 19.5109 142.373C19.4738 142.608 19.4371 142.844 19.4008 143.081C19.3827 143.199 19.2808 143.284 19.1647 143.284ZM19.4667 141.395C19.4536 141.395 19.4404 141.393 19.427 141.391C19.2967 141.369 19.2087 141.246 19.2305 141.116C19.2701 140.879 19.3101 140.643 19.3505 140.407C19.3729 140.277 19.4966 140.19 19.6268 140.212C19.757 140.235 19.8443 140.358 19.8219 140.488C19.7816 140.723 19.7418 140.958 19.7023 141.195C19.6828 141.312 19.5814 141.395 19.4667 141.395ZM19.7943 139.51C19.7801 139.51 19.7657 139.508 19.7513 139.506C19.6213 139.482 19.5351 139.358 19.5586 139.228C19.6015 138.991 19.6447 138.756 19.6884 138.521C19.7126 138.391 19.8374 138.306 19.9674 138.33C20.0972 138.354 20.1829 138.479 20.1586 138.609C20.1151 138.843 20.072 139.077 20.0292 139.313C20.0084 139.429 19.9077 139.51 19.7943 139.51ZM20.148 137.63C20.1328 137.63 20.1173 137.628 20.1018 137.625C19.9722 137.6 19.8877 137.474 19.913 137.344C19.959 137.108 20.0056 136.873 20.0527 136.639C20.0787 136.51 20.2046 136.426 20.3342 136.452C20.4638 136.478 20.5476 136.604 20.5216 136.734C20.4747 136.967 20.4284 137.201 20.3824 137.436C20.3601 137.55 20.26 137.63 20.148 137.63ZM20.5282 135.755C20.5119 135.755 20.4953 135.753 20.4787 135.749C20.3494 135.722 20.2667 135.595 20.2939 135.466C20.3435 135.231 20.3934 134.997 20.4437 134.763C20.4716 134.634 20.5989 134.552 20.728 134.58C20.8571 134.608 20.9392 134.735 20.9112 134.864C20.8611 135.097 20.8113 135.33 20.7619 135.565C20.7383 135.677 20.6389 135.755 20.5282 135.755ZM20.9354 133.885C20.918 133.885 20.9003 133.883 20.8826 133.879C20.7537 133.85 20.6728 133.722 20.702 133.593C20.7549 133.359 20.8083 133.125 20.862 132.893C20.8918 132.764 21.0201 132.684 21.149 132.714C21.2776 132.743 21.3578 132.872 21.328 133.001C21.2745 133.232 21.2213 133.465 21.1686 133.699C21.1435 133.81 21.0447 133.885 20.9354 133.885ZM21.3701 132.022C21.3515 132.022 21.3327 132.02 21.3138 132.016C21.1854 131.985 21.1065 131.855 21.1374 131.727C21.1939 131.493 21.2507 131.26 21.308 131.029C21.3397 130.9 21.4693 130.822 21.5976 130.854C21.7258 130.886 21.804 131.015 21.7724 131.143C21.7153 131.374 21.6586 131.606 21.6024 131.839C21.576 131.949 21.4781 132.022 21.3701 132.022ZM21.8329 130.166C21.8131 130.166 21.7931 130.163 21.7731 130.158C21.6452 130.125 21.5682 129.995 21.6011 129.867C21.6611 129.634 21.7215 129.402 21.7823 129.171C21.8159 129.044 21.9468 128.968 22.0745 129.001C22.2022 129.035 22.2784 129.166 22.2448 129.293C22.1842 129.523 22.124 129.754 22.0643 129.986C22.0365 130.094 21.9394 130.166 21.8329 130.166ZM22.324 128.317C22.3031 128.317 22.2818 128.314 22.2607 128.308C22.1333 128.273 22.0583 128.142 22.0933 128.014C22.1569 127.782 22.2209 127.551 22.2853 127.322C22.321 127.195 22.453 127.12 22.5802 127.156C22.7074 127.192 22.7816 127.324 22.7459 127.451C22.6817 127.68 22.6179 127.91 22.5546 128.141C22.5254 128.247 22.4291 128.317 22.324 128.317ZM22.8441 126.476C22.8219 126.476 22.7995 126.473 22.7772 126.466C22.6503 126.429 22.5774 126.297 22.6144 126.17C22.6817 125.939 22.7494 125.709 22.8175 125.48C22.8551 125.354 22.9883 125.281 23.1149 125.319C23.2415 125.357 23.3136 125.49 23.2759 125.617C23.2081 125.844 23.1407 126.073 23.0736 126.304C23.0432 126.408 22.9477 126.476 22.8441 126.476ZM23.3938 124.643C23.3704 124.643 23.3466 124.64 23.3231 124.633C23.1969 124.594 23.1262 124.46 23.1652 124.334C23.2363 124.103 23.3077 123.875 23.3794 123.647C23.4192 123.521 23.5535 123.451 23.6795 123.491C23.8055 123.531 23.8753 123.665 23.8356 123.791C23.7641 124.018 23.693 124.246 23.6222 124.475C23.5905 124.577 23.4959 124.643 23.3938 124.643ZM23.9733 122.82C23.9487 122.82 23.9237 122.816 23.899 122.808C23.7734 122.767 23.7049 122.632 23.746 122.507C23.8209 122.278 23.8962 122.05 23.9717 121.824C24.0135 121.699 24.149 121.631 24.2743 121.673C24.3995 121.715 24.4672 121.85 24.4253 121.976C24.35 122.201 24.2751 122.427 24.2006 122.655C24.1677 122.756 24.074 122.82 23.9733 122.82ZM24.5835 121.007C24.5576 121.007 24.5313 121.003 24.5053 120.994C24.3805 120.95 24.3143 120.814 24.3574 120.689C24.4362 120.462 24.5154 120.235 24.5948 120.011C24.6388 119.886 24.7754 119.821 24.8999 119.865C25.0245 119.909 25.0898 120.045 25.0458 120.17C24.9667 120.394 24.8879 120.619 24.8095 120.846C24.7753 120.945 24.6827 121.007 24.5835 121.007ZM25.2247 119.204C25.1975 119.204 25.1698 119.2 25.1427 119.19C25.0186 119.144 24.9548 119.007 25.0001 118.883C25.0829 118.657 25.1659 118.432 25.2493 118.208C25.2955 118.085 25.4334 118.022 25.557 118.068C25.6808 118.114 25.7437 118.252 25.6974 118.376C25.6145 118.598 25.5318 118.822 25.4494 119.047C25.414 119.144 25.3223 119.204 25.2247 119.204ZM25.8976 117.413C25.869 117.413 25.8399 117.408 25.8116 117.397C25.6883 117.35 25.627 117.211 25.6746 117.088C25.7614 116.863 25.8485 116.64 25.9358 116.418C25.9843 116.295 26.1233 116.235 26.246 116.283C26.369 116.331 26.4293 116.47 26.3809 116.593C26.294 116.814 26.2073 117.036 26.1209 117.26C26.0842 117.355 25.9936 117.413 25.8976 117.413ZM26.6027 115.635C26.5727 115.635 26.5422 115.629 26.5126 115.617C26.3903 115.567 26.3315 115.428 26.3813 115.305C26.4723 115.082 26.5635 114.86 26.6548 114.64C26.7055 114.518 26.8453 114.46 26.9675 114.511C27.0894 114.562 27.1473 114.702 27.0966 114.824C27.0057 115.043 26.9149 115.263 26.8244 115.486C26.7865 115.579 26.6971 115.635 26.6027 115.635ZM27.3407 113.87C27.3092 113.87 27.2773 113.863 27.2465 113.85C27.1251 113.798 27.0689 113.657 27.121 113.536C27.2162 113.314 27.3116 113.094 27.4071 112.876C27.46 112.755 27.601 112.7 27.722 112.753C27.8431 112.806 27.8982 112.947 27.8452 113.068C27.7502 113.285 27.6553 113.504 27.5606 113.725C27.5217 113.815 27.4334 113.87 27.3407 113.87ZM28.1121 112.119C28.0792 112.119 28.0457 112.112 28.0137 112.098C27.8933 112.043 27.8399 111.901 27.8944 111.781C27.9939 111.561 28.0935 111.343 28.1931 111.127C28.2485 111.007 28.3906 110.954 28.5105 111.01C28.6305 111.065 28.6828 111.207 28.6275 111.327C28.5283 111.542 28.4292 111.759 28.3302 111.978C28.2902 112.067 28.2032 112.119 28.1121 112.119ZM28.9177 110.383C28.8832 110.383 28.8482 110.376 28.815 110.36C28.6957 110.303 28.6452 110.161 28.702 110.041C28.8059 109.823 28.9099 109.607 29.0138 109.393C29.0716 109.274 29.2146 109.225 29.3335 109.283C29.4523 109.34 29.5018 109.483 29.4441 109.602C29.3407 109.815 29.2372 110.03 29.1338 110.247C29.0928 110.333 29.0071 110.383 28.9177 110.383ZM29.7583 108.665C29.7222 108.665 29.6856 108.656 29.6512 108.639C29.5331 108.58 29.4855 108.436 29.5447 108.318C29.6533 108.102 29.7617 107.888 29.87 107.677C29.9301 107.559 30.0742 107.512 30.1919 107.573C30.3094 107.633 30.356 107.777 30.2958 107.894C30.188 108.105 30.0802 108.318 29.9722 108.533C29.9302 108.616 29.8459 108.665 29.7583 108.665ZM30.6346 106.964C30.5969 106.964 30.5586 106.955 30.523 106.936C30.4062 106.874 30.3616 106.73 30.4233 106.613C30.5365 106.399 30.6495 106.187 30.7623 105.978C30.8249 105.862 30.97 105.818 31.0863 105.881C31.2025 105.944 31.2459 106.089 31.1833 106.205C31.0712 106.413 30.9587 106.624 30.8462 106.836C30.8033 106.917 30.7204 106.964 30.6346 106.964ZM31.5475 105.282C31.5081 105.282 31.4682 105.272 31.4313 105.252C31.3159 105.188 31.2746 105.042 31.3388 104.927C31.4569 104.715 31.5745 104.506 31.6918 104.3C31.7571 104.185 31.9031 104.145 32.018 104.21C32.1328 104.275 32.1729 104.421 32.1076 104.536C31.991 104.741 31.874 104.949 31.7567 105.159C31.7129 105.238 31.6315 105.282 31.5475 105.282ZM32.4982 103.622C32.457 103.622 32.4153 103.611 32.3772 103.589C32.2634 103.522 32.2253 103.375 32.2923 103.261C32.4154 103.052 32.5378 102.846 32.6598 102.642C32.7277 102.529 32.8746 102.492 32.988 102.56C33.1012 102.628 33.1379 102.775 33.07 102.888C32.9488 103.09 32.827 103.296 32.7047 103.504C32.66 103.579 32.5802 103.622 32.4982 103.622ZM33.4877 101.984C33.4446 101.984 33.4011 101.972 33.3618 101.948C33.2495 101.878 33.215 101.731 33.2847 101.618C33.4131 101.412 33.5406 101.208 33.6672 101.009C33.738 100.897 33.8857 100.864 33.9973 100.935C34.1089 101.005 34.1419 101.153 34.0713 101.265C33.9453 101.463 33.8186 101.665 33.6911 101.871C33.6458 101.944 33.5676 101.984 33.4877 101.984ZM34.5176 100.371C34.4726 100.371 34.427 100.358 34.3865 100.332C34.2761 100.259 34.2454 100.111 34.318 100C34.452 99.7964 34.5847 99.5964 34.7162 99.4006C34.7899 99.291 34.9385 99.2617 35.0481 99.3353C35.1577 99.4089 35.187 99.5575 35.1134 99.6672C34.9827 99.8618 34.8508 100.06 34.7177 100.263C34.6718 100.333 34.5955 100.371 34.5176 100.371ZM35.5897 98.7855C35.5425 98.7855 35.4948 98.7717 35.4532 98.7426C35.3448 98.6671 35.3182 98.518 35.3936 98.4097C35.5337 98.2086 35.6721 98.0123 35.8084 97.8209C35.8851 97.7133 36.0345 97.6884 36.142 97.7649C36.2496 97.8415 36.2746 97.9909 36.198 98.0984C36.0626 98.2885 35.9252 98.4834 35.7861 98.683C35.7396 98.7499 35.6652 98.7855 35.5897 98.7855ZM36.7065 97.2312C36.657 97.2312 36.6071 97.2159 36.5643 97.1841C36.4582 97.1055 36.436 96.9557 36.5146 96.8496C36.659 96.6549 36.8046 96.461 36.9473 96.2732C37.0272 96.1681 37.1773 96.1477 37.2824 96.2275C37.3876 96.3075 37.4081 96.4576 37.3281 96.5627C37.1865 96.7489 37.0421 96.9413 36.8989 97.1345C36.8519 97.1978 36.7796 97.2312 36.7065 97.2312ZM37.8716 95.7122C37.8195 95.7122 37.767 95.6953 37.723 95.6603C37.6196 95.5782 37.6023 95.4277 37.6845 95.3243C37.8341 95.136 37.9864 94.947 38.1369 94.7626C38.2204 94.6603 38.3711 94.645 38.4734 94.7287C38.5757 94.8123 38.5908 94.9629 38.5073 95.0653C38.3581 95.248 38.2073 95.4352 38.059 95.6219C38.0118 95.6812 37.9421 95.7122 37.8716 95.7122ZM39.0909 94.2356C39.0356 94.2356 38.9801 94.2166 38.935 94.1777C38.8349 94.0915 38.8236 93.9405 38.9098 93.8404C39.0705 93.6537 39.2307 93.4708 39.3858 93.2969C39.4738 93.1983 39.625 93.1898 39.7235 93.2776C39.8221 93.3656 39.8308 93.5167 39.7429 93.6152C39.5896 93.7871 39.4312 93.9678 39.2723 94.1525C39.225 94.2074 39.1582 94.2356 39.0909 94.2356ZM40.3775 92.8155C40.3178 92.8155 40.2581 92.7933 40.2117 92.7486C40.1166 92.657 40.1137 92.5056 40.2053 92.4104C40.5356 92.0674 40.7173 91.8982 40.7249 91.8911C40.8217 91.8011 40.973 91.8069 41.0629 91.9035C41.1527 92.0003 41.1472 92.1515 41.0505 92.2415C41.0487 92.2431 40.8696 92.41 40.5498 92.7422C40.5029 92.791 40.4403 92.8155 40.3775 92.8155Z" fill="black"/>
<path d="M64.0516 29.1503C67.3189 25.883 67.3189 20.5857 64.0516 17.3184C60.7843 14.0511 55.487 14.0511 52.2197 17.3184C48.9524 20.5857 48.9524 25.883 52.2197 29.1503C55.487 32.4176 60.7843 32.4176 64.0516 29.1503Z" fill="black"/>
<path d="M68.7958 35.7363C72.0631 32.469 72.0631 27.1716 68.7958 23.9043C65.5285 20.637 60.2311 20.637 56.9638 23.9043C53.6965 27.1716 53.6965 32.469 56.9638 35.7363C60.2311 39.0036 65.5285 39.0036 68.7958 35.7363Z" fill="#FEBA00"/>
<path d="M74.3148 44.7485C79.1292 39.9341 79.1292 32.1284 74.3148 27.314C69.5004 22.4996 61.6947 22.4996 56.8803 27.314C52.0659 32.1284 52.0659 39.9341 56.8803 44.7485C61.6947 49.5629 69.5004 49.5629 74.3148 44.7485Z" fill="black"/>
<path d="M74.2085 50.1369C74.1108 50.1719 74.0124 50.2057 73.9131 50.2381C72.3145 51.0779 70.5918 51.463 68.745 51.3934C66.3238 51.3859 64.0671 50.7754 61.9749 49.562L60.4372 48.374C60.7147 51.9844 60.8969 57.7409 59.9536 58.3996C57.7369 59.9475 67.4099 67.8203 72.6179 68.1926C76.5972 68.477 76.3621 63.8751 74.5167 61.125C73.1525 59.0916 74.3684 52.8657 74.2085 50.1369Z" fill="white"/>
<path d="M72.9621 68.4442C72.8463 68.4442 72.7262 68.4399 72.6013 68.431C70.5514 68.2844 67.5646 66.9513 64.6118 64.8648C61.8417 62.9074 59.8171 60.7914 59.4537 59.4738C59.2593 58.7691 59.5439 58.394 59.817 58.2033C59.9422 58.1159 60.3551 57.5897 60.4144 54.4889C60.4599 52.1067 60.2789 49.4316 60.199 48.3922L60.1577 47.8555L62.1088 49.3629C64.1508 50.5441 66.3836 51.1467 68.746 51.1541L68.7543 51.1542C70.55 51.2221 72.2484 50.8425 73.802 50.0263L73.8199 50.0168L73.8392 50.0105C73.9323 49.9802 74.0268 49.9479 74.1279 49.9116L74.4287 49.8038L74.4474 50.1228C74.501 51.0376 74.4027 52.3379 74.2987 53.7146C74.0974 56.3798 73.8467 59.6967 74.7155 60.9915C75.8586 62.695 76.5464 65.4142 75.5695 67.0983C75.2054 67.7265 74.4608 68.4442 72.9621 68.4442ZM60.7151 48.8906C60.8033 50.1552 60.9321 52.4338 60.8927 54.4981C60.8314 57.7118 60.4057 58.3757 60.0909 58.5955C59.953 58.6918 59.7847 58.8745 59.9149 59.3466C60.2455 60.5454 62.244 62.6059 64.8878 64.4741C67.7725 66.5124 70.6687 67.8133 72.6353 67.9538C73.8365 68.0396 74.6845 67.6711 75.1559 66.8583C75.5368 66.2017 75.6518 65.2562 75.4799 64.1958C75.3135 63.1696 74.901 62.1262 74.3184 61.2581C73.3574 59.8258 73.6041 56.5599 73.8218 53.6786C73.9128 52.4753 73.9992 51.331 73.9821 50.4719C72.3663 51.3116 70.6028 51.702 68.7404 51.6325C66.2895 51.6241 63.9731 50.9972 61.8551 49.7688L61.8289 49.7512L60.7151 48.8906Z" fill="black"/>
<path d="M70.2448 32.5049C69.1582 35.5626 64.2055 32.8246 62.1033 35.827C60.6963 37.8364 60.6153 39.7614 60.4448 39.5897C55.7049 34.815 54.429 44.2727 60.0803 44.8645C60.1136 44.868 60.1044 45.1841 60.4485 49.0567C60.7926 52.9293 69.2611 58.0998 73.8007 54.4699C80.1688 47.3427 76.0107 33.8711 70.2448 32.5049Z" fill="white"/>
<path d="M70.0223 55.944C68.7701 55.944 67.409 55.6465 66.0084 55.048C62.8356 53.6922 60.397 51.1814 60.2101 49.0778C60.0344 47.0998 59.9511 46.055 59.9065 45.4938C59.8919 45.3114 59.881 45.1736 59.8728 45.08C57.6037 44.7616 56.4818 43.0574 56.1883 41.5393C55.9017 40.0573 56.3424 38.6834 57.26 38.1982C58.3589 37.6172 59.606 38.4775 60.3757 39.1904C60.3859 39.1528 60.3963 39.1141 60.4063 39.0767C60.5809 38.4237 60.9443 37.0649 61.9073 35.6897C63.017 34.1048 64.8687 34.0223 66.5024 33.9496C68.1245 33.8773 69.5253 33.8149 70.0193 32.4248L70.0911 32.2227L70.2998 32.2721C72.8042 32.8655 75.1312 35.6886 76.3728 39.6397C77.1606 42.1468 77.4228 44.9009 77.1109 47.3948C76.7562 50.2312 75.6732 52.7328 73.9789 54.6292L73.9655 54.6441L73.9499 54.6566C72.8791 55.5129 71.5295 55.944 70.0223 55.944ZM58.0433 38.4864C57.8415 38.4864 57.6541 38.531 57.4836 38.6211C56.7621 39.0025 56.4148 40.1917 56.6579 41.4486C56.9266 42.8385 57.9734 44.4034 60.105 44.6266C60.3099 44.648 60.3306 44.8495 60.3406 44.9463C60.3498 45.0349 60.3617 45.1844 60.3833 45.4558C60.4279 46.0164 60.5109 47.0597 60.6865 49.0355C60.856 50.9426 63.2247 53.3383 66.1963 54.6081C69.1072 55.852 71.8172 55.7376 73.6356 54.2955C75.2572 52.4737 76.2946 50.0675 76.6363 47.3355C76.9398 44.9083 76.6842 42.2261 75.9165 39.7831C74.759 36.0996 72.6544 33.4464 70.3884 32.79C69.7255 34.2849 68.0989 34.3573 66.5236 34.4275C64.9258 34.4986 63.2736 34.5722 62.299 35.9642C61.3845 37.2703 61.0487 38.5258 60.8683 39.2004C60.755 39.6243 60.7126 39.7829 60.5326 39.8308C60.4408 39.8553 60.3443 39.8282 60.2749 39.7582C59.444 38.9211 58.6737 38.4864 58.0433 38.4864Z" fill="black"/>
<path d="M69.466 40.7386C69.5092 41.213 69.1049 41.6218 68.5629 41.6515C68.0209 41.6812 67.5464 41.3207 67.5032 40.8463C67.4599 40.3718 67.8642 39.9631 68.4062 39.9334C68.9482 39.9036 69.4227 40.2641 69.466 40.7386Z" fill="black"/>
<path d="M74.4757 40.4661C74.5177 40.9551 74.1896 41.3706 73.7429 41.394C73.2962 41.4175 72.9001 41.04 72.8581 40.551C72.8162 40.062 73.1442 39.6465 73.5909 39.6231C74.0376 39.5997 74.4337 39.9771 74.4757 40.4661Z" fill="black"/>
<path d="M66.2676 39.6459C66.2676 39.6459 67.6105 37.8676 70.0843 38.7568L66.2676 39.6459Z" fill="white"/>
<path d="M66.2673 39.8852C66.2169 39.8852 66.1661 39.8694 66.123 39.8366C66.018 39.7569 65.9972 39.6075 66.0766 39.5023C66.0916 39.4824 66.4529 39.0103 67.1382 38.6559C67.7688 38.3298 68.8059 38.0437 70.1649 38.5322C70.2892 38.5768 70.3538 38.7138 70.3091 38.8381C70.2644 38.9624 70.1274 39.027 70.0031 38.9823C67.733 38.1664 66.5089 39.7243 66.4579 39.7911C66.4107 39.8527 66.3394 39.8852 66.2673 39.8852Z" fill="black"/>
<path d="M72.7676 38.5375C72.7676 38.5375 73.8478 37.7449 74.5191 38.5384L72.7676 38.5375Z" fill="white"/>
<path d="M74.519 38.7782C74.4511 38.7782 74.3836 38.7495 74.3363 38.6935C73.8184 38.0815 72.9453 38.7045 72.9084 38.7313C72.8017 38.8087 72.6522 38.7855 72.5744 38.679C72.4967 38.5725 72.5196 38.4233 72.6259 38.3453C73.0617 38.0255 74.0564 37.6221 74.7015 38.3845C74.7868 38.4854 74.7742 38.6362 74.6734 38.7216C74.6285 38.7597 74.5736 38.7782 74.519 38.7782Z" fill="black"/>
<path d="M59.6419 41.0528C58.2146 39.6255 57.0482 41.4788 59.6419 43.3165V41.0528Z" fill="white"/>
<path d="M59.5035 43.5112C58.6292 42.8918 57.7428 41.9122 57.8768 41.0205C57.9267 40.6885 58.1213 40.4434 58.4108 40.3481C58.8243 40.212 59.3346 40.407 59.8109 40.8832L59.4726 41.2214C59.0736 40.8224 58.7398 40.7434 58.5604 40.8024C58.4151 40.8502 58.3657 40.986 58.3499 41.0915C58.2862 41.5151 58.6226 42.3008 59.78 43.1209L59.5035 43.5112Z" fill="black"/>
<path d="M68.8019 53.2414C67.7578 53.2414 66.7262 52.1722 66.4091 50.6874C66.0601 49.0531 66.7069 47.5246 67.8511 47.2803C68.9955 47.0358 70.21 48.1668 70.559 49.8011C70.908 51.4354 70.2612 52.9639 69.117 53.2082C69.0123 53.2305 68.9071 53.2414 68.8019 53.2414ZM68.176 47.7243C68.1008 47.7243 68.0256 47.732 67.951 47.748C67.0647 47.9373 66.5829 49.2111 66.8769 50.5874C67.1708 51.9637 68.1305 52.9294 69.0172 52.7403C69.9033 52.551 70.3851 51.2772 70.0913 49.9009C69.822 48.6405 68.9942 47.7243 68.176 47.7243Z" fill="black"/>
<path d="M59.2165 38.847C59.1005 38.847 58.9987 38.7625 58.9805 38.6443C58.9638 38.5361 58.5925 35.9699 60.3776 33.8884C61.8157 32.2117 64.2121 31.3615 67.5003 31.3615C68.2735 31.3615 68.7568 31.159 68.9366 30.7595C69.5945 29.2982 66.621 25.4574 65.4197 24.1008C65.3322 24.0019 65.3413 23.8507 65.4402 23.7632C65.5392 23.6757 65.6903 23.6849 65.7778 23.7837C65.789 23.7963 66.9054 25.0609 67.9001 26.5456C69.2725 28.5941 69.768 30.0779 69.3728 30.9558C69.1088 31.5425 68.4788 31.8399 67.5003 31.8399C64.3582 31.8399 62.0839 32.6339 60.7408 34.1998C59.0973 36.116 59.4495 38.5471 59.4533 38.5713C59.4734 38.7019 59.3838 38.824 59.2533 38.8442C59.2409 38.8461 59.2287 38.847 59.2165 38.847Z" fill="white"/>
<path d="M71.3526 46.156C70.7301 46.156 70.1293 46.0205 70.0224 45.9951C69.8779 45.9609 69.7885 45.8159 69.8227 45.6714C69.8569 45.5268 70.002 45.4374 70.1465 45.4715C70.7403 45.6118 71.8264 45.7266 72.2126 45.4373C72.2985 45.3729 72.3395 45.2948 72.3454 45.184C72.4019 44.1198 71.4407 40.8549 71.431 40.822C71.3889 40.6795 71.4702 40.5299 71.6128 40.4877C71.7553 40.4454 71.9049 40.527 71.9471 40.6695C71.9878 40.8072 72.9441 44.0569 72.8828 45.2126C72.8685 45.482 72.7482 45.7087 72.5349 45.8684C72.2402 46.0887 71.791 46.156 71.3526 46.156Z" fill="black"/>
<path d="M71.505 72.2051C71.3752 72.2051 71.2687 72.1013 71.266 71.9709C71.2633 71.8389 71.3681 71.7296 71.5002 71.7268C71.7326 71.7221 71.9694 71.7109 72.204 71.6937C72.3351 71.6839 72.4503 71.7829 72.46 71.9147C72.4697 72.0464 72.3707 72.161 72.2389 72.1707C71.996 72.1885 71.7508 72.2001 71.5101 72.2051C71.5084 72.2051 71.5067 72.2051 71.505 72.2051ZM70.3107 72.1759C70.3051 72.1759 70.2995 72.1757 70.2938 72.1753C70.0521 72.1585 69.8077 72.1346 69.5674 72.1045C69.4364 72.088 69.3435 71.9685 69.3599 71.8374C69.3763 71.7064 69.4956 71.6134 69.627 71.6299C69.8586 71.6589 70.0941 71.6819 70.3271 71.6981C70.4589 71.7073 70.5582 71.8216 70.549 71.9534C70.5402 72.0795 70.4352 72.1759 70.3107 72.1759ZM73.4085 72.0329C73.293 72.0329 73.1914 71.9491 73.1726 71.8314C73.1518 71.7009 73.2407 71.5783 73.3712 71.5575C73.6009 71.5209 73.8345 71.4779 74.0654 71.4296C74.1948 71.4023 74.3214 71.4855 74.3484 71.6147C74.3755 71.7439 74.2926 71.8707 74.1633 71.8977C73.9249 71.9476 73.6837 71.9921 73.4465 72.0299C73.4337 72.032 73.421 72.0329 73.4085 72.0329ZM68.4214 71.9039C68.4044 71.9039 68.3872 71.9021 68.3699 71.8983C68.1339 71.8465 67.8957 71.7875 67.6619 71.7227C67.5346 71.6875 67.46 71.5558 67.4952 71.4284C67.5304 71.3011 67.6622 71.2264 67.7895 71.2617C68.0151 71.3241 68.2448 71.3811 68.4725 71.4311C68.6015 71.4595 68.6831 71.587 68.6548 71.716C68.6303 71.8278 68.5313 71.9039 68.4214 71.9039ZM75.2742 71.6135C75.1705 71.6135 75.0749 71.5455 75.0446 71.4408C75.0079 71.3139 75.081 71.1813 75.2078 71.1445C75.3785 71.0951 75.5519 71.0418 75.7233 70.9861C75.7737 70.9698 75.8242 70.952 75.8731 70.9335C75.9967 70.8868 76.1347 70.9489 76.1815 71.0724C76.2283 71.1959 76.1661 71.334 76.0426 71.3808C75.9865 71.402 75.9289 71.4223 75.8712 71.4411C75.695 71.4984 75.5165 71.5532 75.3409 71.6041C75.3186 71.6104 75.2962 71.6135 75.2742 71.6135ZM66.59 71.3627C66.5622 71.3627 66.534 71.3578 66.5064 71.3476C66.2809 71.2634 66.0534 71.1719 65.8302 71.0755C65.7089 71.0232 65.6531 70.8825 65.7054 70.7611C65.7577 70.6399 65.8986 70.584 66.0198 70.6364C66.2355 70.7295 66.4556 70.8181 66.6737 70.8994C66.7974 70.9456 66.8603 71.0834 66.8142 71.2071C66.7782 71.3033 66.687 71.3627 66.59 71.3627ZM76.9714 70.7772C76.9067 70.7772 76.8423 70.7512 76.7951 70.6997C76.7059 70.6024 76.7124 70.4511 76.8098 70.3618C76.9691 70.2158 77.1151 70.0475 77.2441 69.8616C77.3194 69.7531 77.4684 69.726 77.577 69.8014C77.6855 69.8767 77.7124 70.0257 77.6371 70.1342C77.4879 70.3492 77.3184 70.5443 77.1331 70.7143C77.0871 70.7565 77.0292 70.7772 76.9714 70.7772ZM64.8477 70.5779C64.81 70.5779 64.7717 70.5689 64.736 70.55C64.5241 70.4378 64.3103 70.3183 64.1006 70.1949C63.9867 70.1278 63.9488 69.9813 64.0158 69.8674C64.0828 69.7536 64.2294 69.7156 64.3432 69.7826C64.5469 69.9025 64.7543 70.0185 64.9599 70.1274C65.0766 70.1892 65.1211 70.334 65.0593 70.4507C65.0163 70.5316 64.9334 70.5779 64.8477 70.5779ZM63.2136 69.5851C63.1669 69.5851 63.1197 69.5715 63.0783 69.543C62.8814 69.4077 62.6826 69.2652 62.4875 69.1194C62.3817 69.0403 62.36 68.8904 62.439 68.7846C62.5181 68.6788 62.668 68.6571 62.7737 68.7361C62.9639 68.8781 63.1575 69.017 63.3492 69.1487C63.4581 69.2235 63.4857 69.3725 63.4109 69.4813C63.3645 69.5488 63.2897 69.5851 63.2136 69.5851ZM77.9631 69.1665C77.9381 69.1665 77.9127 69.1625 77.8877 69.1542C77.7624 69.1126 77.6945 68.9773 77.7361 68.8519C77.8049 68.6447 77.8637 68.4208 77.911 68.1865C77.9372 68.057 78.0635 67.9732 78.1928 67.9994C78.3223 68.0256 78.406 68.1517 78.3798 68.2812C78.3288 68.5344 78.2649 68.7771 78.19 69.0026C78.1568 69.103 78.0634 69.1665 77.9631 69.1665ZM61.6948 68.4217C61.6403 68.4217 61.5853 68.4031 61.5404 68.3651C61.3581 68.2107 61.1745 68.0496 60.9945 67.8865C60.8967 67.7977 60.8893 67.6465 60.9781 67.5487C61.0668 67.4508 61.2181 67.4434 61.3159 67.5322C61.4918 67.6918 61.6714 67.8492 61.8495 68.0001C61.9503 68.0855 61.9628 68.2364 61.8775 68.3372C61.8302 68.3929 61.7627 68.4217 61.6948 68.4217ZM78.2912 67.287C78.2868 67.287 78.2824 67.2869 78.2779 67.2866C78.146 67.2794 78.045 67.1666 78.0522 67.0348C78.0626 66.8443 78.0679 66.6447 78.0679 66.4416C78.0679 66.4054 78.0677 66.369 78.0674 66.3326C78.0663 66.2005 78.1724 66.0925 78.3045 66.0914C78.4351 66.0888 78.5446 66.1963 78.5458 66.3284C78.5461 66.3662 78.5462 66.4039 78.5462 66.4416C78.5462 66.6534 78.5407 66.8618 78.5299 67.0609C78.5229 67.1883 78.4173 67.287 78.2912 67.287ZM60.2907 67.1208C60.2292 67.1208 60.1676 67.0972 60.1208 67.05C59.9526 66.8803 59.7834 66.7045 59.618 66.5275C59.5279 66.431 59.533 66.2796 59.6295 66.1895C59.7261 66.0994 59.8774 66.1045 59.9676 66.201C60.1297 66.3745 60.2956 66.5469 60.4606 66.7133C60.5535 66.8071 60.5529 66.9586 60.4591 67.0515C60.4124 67.0978 60.3516 67.1208 60.2907 67.1208ZM58.9963 65.7097C58.9287 65.7097 58.8614 65.6811 58.8141 65.6256C58.6595 65.4439 58.5039 65.2562 58.3518 65.0677C58.2688 64.9649 58.2849 64.8143 58.3877 64.7313C58.4905 64.6483 58.6411 64.6644 58.724 64.7673C58.8736 64.9526 59.0265 65.1371 59.1784 65.3155C59.264 65.4161 59.2519 65.567 59.1513 65.6527C59.1062 65.6909 59.0512 65.7097 58.9963 65.7097ZM78.2441 65.3749C78.1218 65.3749 78.0175 65.2815 78.0062 65.1574C77.9855 64.9299 77.9591 64.6929 77.9279 64.4531C77.9108 64.3221 78.0031 64.2021 78.1341 64.185C78.2654 64.1679 78.3852 64.2603 78.4022 64.3913C78.4342 64.6372 78.4613 64.8804 78.4826 65.114C78.4945 65.2455 78.3976 65.3619 78.2661 65.3739C78.2587 65.3746 78.2514 65.3749 78.2441 65.3749ZM57.8055 64.2092C57.7323 64.2092 57.6601 64.1757 57.6132 64.1124C57.4704 63.9197 57.3277 63.7222 57.1889 63.5255C57.1128 63.4176 57.1385 63.2683 57.2465 63.1922C57.3545 63.1161 57.5036 63.1418 57.5798 63.2499C57.7164 63.4436 57.8569 63.638 57.9975 63.8276C58.0761 63.9338 58.0538 64.0835 57.9477 64.1622C57.9049 64.1939 57.855 64.2092 57.8055 64.2092ZM77.9771 63.4794C77.8641 63.4794 77.7636 63.3989 77.7422 63.2838C77.6999 63.0555 77.6531 62.8207 77.6029 62.5859C77.5753 62.4567 77.6577 62.3296 77.7868 62.3021C77.9157 62.2746 78.0431 62.3568 78.0707 62.486C78.1217 62.7251 78.1695 62.9642 78.2125 63.1967C78.2366 63.3265 78.1508 63.4513 78.0209 63.4754C78.0063 63.4781 77.9916 63.4794 77.9771 63.4794ZM56.7129 62.6349C56.6346 62.6349 56.558 62.5965 56.5121 62.526C56.3815 62.325 56.2509 62.1193 56.1242 61.9145C56.0546 61.8022 56.0893 61.6548 56.2016 61.5853C56.314 61.5157 56.4613 61.5505 56.5308 61.6627C56.6558 61.8645 56.7844 62.0673 56.9131 62.2653C56.9851 62.3761 56.9537 62.5242 56.8429 62.5962C56.8028 62.6224 56.7576 62.6349 56.7129 62.6349ZM77.5631 61.6098C77.4564 61.6098 77.3591 61.5379 77.3315 61.4297C77.2736 61.2028 77.2118 60.9709 77.1478 60.7406C77.1124 60.6134 77.1869 60.4815 77.3142 60.4461C77.4414 60.4109 77.5732 60.4852 77.6086 60.6125C77.6735 60.8461 77.7362 61.0812 77.795 61.3114C77.8277 61.4394 77.7504 61.5697 77.6224 61.6023C77.6025 61.6073 77.5826 61.6098 77.5631 61.6098ZM55.7158 60.9973C55.6326 60.9973 55.5519 60.9539 55.5078 60.8765C55.3883 60.6667 55.2699 60.4534 55.1562 60.2424C55.0934 60.1262 55.1368 59.9811 55.2531 59.9184C55.3693 59.8557 55.5144 59.899 55.5771 60.0153C55.6892 60.223 55.8057 60.4331 55.9234 60.6398C55.9888 60.7546 55.9488 60.9007 55.834 60.966C55.7966 60.9872 55.7559 60.9973 55.7158 60.9973ZM77.0381 59.7677C76.9364 59.7677 76.8421 59.7024 76.81 59.6002C76.7387 59.3731 76.6644 59.1447 76.5893 58.9213C76.5472 58.7961 76.6146 58.6605 76.7398 58.6184C76.865 58.5764 77.0007 58.6437 77.0427 58.7689C77.1188 58.9953 77.194 59.2267 77.2663 59.4567C77.306 59.5828 77.2359 59.717 77.1099 59.7566C77.086 59.7641 77.0618 59.7677 77.0381 59.7677ZM54.8188 59.3006C54.73 59.3006 54.6448 59.2511 54.6034 59.1659C54.4008 58.7486 54.2986 58.508 54.2944 58.4979C54.2429 58.3763 54.2997 58.236 54.4214 58.1844C54.5429 58.133 54.6834 58.1898 54.7349 58.3114C54.7359 58.3137 54.8372 58.552 55.0338 58.9569C55.0915 59.0757 55.0419 59.2188 54.9231 59.2765C54.8894 59.2929 54.8538 59.3006 54.8188 59.3006ZM76.4119 57.9553C76.3161 57.9553 76.2257 57.8973 76.1889 57.8027L76.1869 57.7974L76.4088 57.7089L76.3646 57.4728C76.4616 57.4546 76.583 57.496 76.6349 57.6296C76.6826 57.7527 76.6216 57.8913 76.4985 57.9391C76.47 57.9501 76.4407 57.9553 76.4119 57.9553Z" fill="black"/>
<path d="M57.4652 38.602C57.3427 38.602 57.2384 38.5084 57.2273 38.384C57.2134 38.2285 56.9144 34.5449 59.2727 31.9666C60.7209 30.3834 62.8491 29.5806 65.5983 29.5806C66.4057 29.5806 66.9784 29.3578 67.3005 28.9183C67.8968 28.1047 67.4889 26.7817 67.4847 26.7684C67.4449 26.6426 67.5146 26.5081 67.6404 26.4683C67.7663 26.4284 67.9005 26.4978 67.9405 26.6235C67.9607 26.6869 68.4267 28.1881 67.6877 29.1992C67.2706 29.7697 66.5677 30.0589 65.5983 30.0589C62.989 30.0589 60.9794 30.8094 59.6256 32.2895C57.4081 34.7138 57.7005 38.3055 57.7037 38.3415C57.7155 38.4731 57.6184 38.5892 57.4867 38.601C57.4796 38.6017 57.4723 38.602 57.4652 38.602Z" fill="white"/>
<path d="M186.633 95.3013C186.17 95.3013 185.705 95.2009 185.261 94.9983L121.17 65.779V40.0545L121.276 40.0068L185.772 10.8764C186.816 10.4048 187.97 10.4957 188.939 11.1257C190.033 11.8369 190.681 13.0901 190.672 14.478L190.172 91.4566C190.163 92.8344 189.506 94.0729 188.415 94.7695C187.862 95.1227 187.249 95.3013 186.633 95.3013ZM121.529 65.5483L185.409 94.6719C186.334 95.0932 187.359 95.0184 188.222 94.4671C189.21 93.8362 189.805 92.7099 189.813 91.4542L190.313 14.4756C190.321 13.2106 189.734 12.0707 188.743 11.4264C187.879 10.8643 186.85 10.7831 185.919 11.2033L121.529 40.286V65.5483Z" fill="black"/>
<path d="M96.8416 60.3084L86.873 59.3878V43.7798L96.9035 42.8535L96.8416 60.3084ZM87.2318 59.0607L96.4843 59.9152L96.5434 43.2472L87.2318 44.107V59.0607Z" fill="black"/>
<path d="M123.905 101.661H115.141C113.532 101.661 112.039 100.725 111.338 99.2771L96.5167 69.8842C96.487 69.823 96.4713 69.7907 96.4947 59.8108C96.5076 54.2957 96.5294 47.6588 96.5454 43.0623C96.5559 40.0329 99.0293 37.5684 102.059 37.5684H118.283C120.181 37.5684 121.725 39.1122 121.725 41.0098V64.911C121.725 67.5239 119.599 69.6497 116.986 69.6497H113.349L127.603 95.386C128.336 96.709 128.315 98.2768 127.547 99.5798C126.779 100.883 125.418 101.661 123.905 101.661ZM96.853 69.7544L111.659 99.1181C112.303 100.446 113.669 101.302 115.141 101.302H123.905C125.289 101.302 126.535 100.59 127.238 99.3975C127.94 98.2051 127.959 96.7704 127.289 95.5596L112.74 69.2908H116.986C119.401 69.2908 121.366 67.326 121.366 64.9109V41.0097C121.366 39.3099 119.983 37.927 118.283 37.927H102.059C99.2262 37.927 96.9138 40.2312 96.904 43.0634C96.8472 59.4377 96.8286 69.1227 96.853 69.7544Z" fill="black"/>
<path d="M201.022 0.320777L127.751 33.4147C127.316 31.8483 125.881 30.698 124.176 30.698H105.723C102.384 30.698 99.6744 33.3939 99.6557 36.7303L88.6543 37.7463V55.1268L99.597 56.1374C99.5829 62.2747 99.5788 67.1129 99.601 67.1585L116.46 100.593C117.229 102.181 118.838 103.189 120.603 103.189H130.571C134.078 103.189 136.297 99.4235 134.598 96.3551L118.218 66.7796H122.701C125.25 66.7796 127.37 64.9394 127.805 62.5146L200.442 95.6303C202.952 96.7746 205.72 94.7661 205.739 91.7862L206.308 4.22996C206.327 1.23039 203.552 -0.821961 201.022 0.320777Z" fill="#FEBA00"/>
<path d="M121.349 67.404H99.3158C99.1177 67.404 98.957 67.2434 98.957 67.0453C98.957 66.8472 99.1177 66.6865 99.3158 66.6865H121.349C121.547 66.6865 121.708 66.8472 121.708 67.0453C121.708 67.2434 121.548 67.404 121.349 67.404Z" fill="white"/>
<path d="M127.958 62.8736C127.76 62.8736 127.6 62.7129 127.6 62.5148V33.14C127.6 32.9419 127.76 32.7812 127.958 32.7812C128.156 32.7812 128.317 32.9419 128.317 33.14V62.5148C128.317 62.713 128.156 62.8736 127.958 62.8736Z" fill="white"/>
<path d="M99.3158 56.0075C99.1177 56.0075 98.957 55.8468 98.957 55.6487V37.1537C98.957 36.9556 99.1177 36.7949 99.3158 36.7949C99.5139 36.7949 99.6745 36.9556 99.6745 37.1537V55.6487C99.6745 55.8468 99.5139 56.0075 99.3158 56.0075Z" fill="white"/>
<path d="M127.958 43.9621C127.807 43.9621 127.667 43.8661 127.617 43.7147C127.556 43.5265 127.659 43.3238 127.847 43.2623L180.837 25.9397C181.025 25.8782 181.228 25.9809 181.289 26.1692C181.351 26.3576 181.248 26.5602 181.06 26.6217L128.07 43.9443C128.033 43.9564 127.995 43.9621 127.958 43.9621Z" fill="white"/>
<path d="M77.6782 133.783C77.6782 133.783 79.4303 132.782 79.0299 127.776C78.6294 122.77 72.6224 122.27 72.6224 122.27L71.1207 123.771L70.6201 133.783L73.8238 135.885L77.6782 133.783Z" fill="black"/>
<path d="M127.958 87.83C127.235 84.9363 122.413 86.166 122.413 86.166C122.413 86.166 126.477 85.3443 124.983 81.8731C123.531 78.5007 118.725 80.071 118.725 80.071C123.848 78.1444 120.63 73.7137 116.423 73.4133C112.185 73.1107 99.453 76.3323 96.3271 68.1294C89.0205 68.185 88.6312 79.1928 86.3066 83.0244C83.982 86.8562 68.2107 103.164 65.8354 106.136C63.5436 109.004 57.8454 116.46 57.8454 111.324C57.8454 88.6598 57.6722 64.4752 45.7908 64.603C33.3387 64.737 21.863 72.514 21.8633 94.3029C21.8636 118.382 28.7755 133.615 41.6363 146.867C59.4996 165.273 90.3789 113.483 101.553 99.3049L126.184 96.8905C130.612 96.2278 129.211 91.3023 125.438 91.9464C125.438 91.9464 128.7 90.8034 127.958 87.83Z" fill="white"/>
<path d="M50.3218 151.015C47.007 151.015 44.0314 149.678 41.4645 147.034C38.1148 143.582 35.3206 140.163 32.9223 136.583C30.3864 132.796 28.3526 128.92 26.7045 124.733C23.286 116.048 21.6242 106.094 21.624 94.3028C21.624 89.0508 22.2968 84.3775 23.6239 80.4129C24.8524 76.7426 26.6557 73.6322 28.9835 71.1681C33.1188 66.7905 38.9298 64.4376 45.7881 64.3638C47.9416 64.3396 49.8202 65.1077 51.3728 66.6437C52.9681 68.2218 54.2277 70.5684 55.2236 73.8173C56.1029 76.6856 56.7526 80.1863 57.2097 84.5195C58.0845 92.8117 58.0845 103.076 58.0845 111.324C58.0845 111.929 58.1684 112.679 58.5678 112.818C58.8675 112.923 59.6609 112.797 61.609 110.778C62.9149 109.425 64.2687 107.722 65.2573 106.478C65.3964 106.303 65.5272 106.138 65.6485 105.987C66.5011 104.92 69.0937 102.119 72.0957 98.8752C77.3809 93.1651 84.6191 85.3447 86.102 82.9002C86.7515 81.8296 87.2634 80.1284 87.8053 78.3274C89.1989 73.6956 90.9332 67.9311 96.3252 67.8901C96.3258 67.8901 96.3264 67.8901 96.327 67.8901C96.4262 67.8901 96.5151 67.9513 96.5505 68.0441C98.9478 74.3352 107.236 73.7219 112.721 73.3161C114.223 73.205 115.52 73.1091 116.44 73.1746C118.996 73.3572 121.299 75.0343 121.572 76.9131C121.664 77.5479 121.569 78.6001 120.317 79.5114C120.627 79.4792 120.965 79.4608 121.314 79.4681C123.224 79.5081 124.569 80.307 125.202 81.7784C125.649 82.8166 125.668 83.7394 125.259 84.5212C124.997 85.0204 124.595 85.3965 124.175 85.6758C125.102 85.6307 126.203 85.7178 127.036 86.2149C127.633 86.571 128.021 87.0949 128.19 87.772C128.516 89.0785 128.152 90.2569 127.137 91.18C126.925 91.373 126.706 91.5354 126.5 91.6691C127.337 91.757 128.061 92.1288 128.57 92.7505C129.164 93.4764 129.336 94.4381 129.019 95.2603C128.798 95.834 128.14 96.8396 126.219 97.127C126.215 97.1276 126.211 97.1281 126.207 97.1285L101.678 99.5329C99.9086 101.786 97.6453 104.975 95.0296 108.662C89.2679 116.782 82.0973 126.887 74.4044 135.33C70.2146 139.928 66.2794 143.552 62.7081 146.103C58.5462 149.075 54.7067 150.715 51.2963 150.977C50.9683 151.002 50.6434 151.015 50.3218 151.015ZM45.8867 64.8416C45.8555 64.8416 45.8244 64.8418 45.7932 64.8422C39.0678 64.9145 33.3752 67.2156 29.3311 71.4966C27.0514 73.9098 25.2838 76.9609 24.0774 80.5648C22.7668 84.4804 22.1022 89.1025 22.1023 94.3028C22.1025 106.033 23.7534 115.929 27.1496 124.558C28.7849 128.713 30.8032 132.559 33.3198 136.316C35.7018 139.873 38.4783 143.27 41.8077 146.7C43.2003 148.135 44.7242 149.18 46.3369 149.806C47.8678 150.4 49.5239 150.633 51.2596 150.5C54.5818 150.245 58.3401 148.634 62.43 145.714C65.9739 143.183 69.8837 139.581 74.0507 135.007C81.724 126.587 88.8852 116.494 94.6394 108.385C97.2899 104.649 99.5791 101.423 101.365 99.1568C101.406 99.1057 101.465 99.0731 101.53 99.0667L126.154 96.6529C127.397 96.4656 128.255 95.91 128.572 95.088C128.828 94.426 128.685 93.6464 128.2 93.0534C127.59 92.3084 126.598 91.9908 125.478 92.182C125.355 92.2031 125.237 92.1264 125.206 92.0061C125.175 91.8858 125.241 91.7616 125.358 91.7206C125.366 91.7179 126.147 91.4377 126.826 90.8166C127.707 90.0096 128.009 89.0243 127.726 87.888V87.8879C127.587 87.3311 127.281 86.9182 126.791 86.6257C125.424 85.8102 123.112 86.255 122.582 86.3722C122.514 86.3893 122.471 86.3983 122.46 86.4005C122.333 86.4261 122.209 86.3458 122.18 86.2193C122.151 86.0928 122.228 85.9664 122.354 85.9343C122.366 85.9312 122.404 85.9216 122.465 85.9077C122.855 85.8075 124.272 85.3764 124.836 84.2976C125.174 83.6501 125.149 82.8662 124.763 81.9677C124.201 80.6629 123.037 79.9829 121.304 79.9466C119.978 79.9189 118.811 80.2946 118.799 80.2984C118.676 80.3387 118.542 80.273 118.499 80.1503C118.456 80.0275 118.519 79.8929 118.641 79.8472C120.398 79.1864 121.27 78.1689 121.098 76.982C120.86 75.3415 118.711 73.8165 116.405 73.6519C115.521 73.5888 114.239 73.6836 112.756 73.7933C109.954 74.0007 106.468 74.2586 103.334 73.6522C101.617 73.3201 100.164 72.7493 99.0148 71.9559C97.7221 71.0633 96.7641 69.8582 96.165 68.3719C94.0094 68.4394 92.3013 69.5221 90.9469 71.6774C89.7162 73.636 88.9442 76.2017 88.2631 78.4655C87.7123 80.2965 87.1918 82.026 86.5108 83.1486C85.0028 85.6344 78.0407 93.1564 72.4466 99.2004C69.4509 102.437 66.8637 105.232 66.022 106.286C65.9009 106.437 65.7704 106.601 65.6316 106.776C62.986 110.105 60.2903 113.322 58.7315 113.322C58.6181 113.322 58.511 113.305 58.4101 113.27C57.8691 113.081 57.606 112.445 57.606 111.324C57.606 103.088 57.606 92.837 56.7339 84.5698C55.7869 75.5923 53.9231 69.8399 51.0363 66.9839C49.58 65.5429 47.8946 64.8416 45.8867 64.8416Z" fill="black"/>
<path d="M72.1136 99.2072C69.1458 102.414 66.7459 105.161 65.8354 106.135C63.3427 108.802 57.8445 114.303 57.8445 109.167C57.8445 86.5027 57.6722 64.4743 45.7908 64.6021C33.3387 64.7361 21.863 72.5131 21.8633 94.3019C21.8636 118.381 28.7755 133.614 41.6363 146.866C51.5143 157.044 65.3724 148.304 77.6777 133.782C69.7983 139.088 71.1454 108.134 72.1136 99.2072Z" fill="white"/>
<path d="M51.4662 151.513C47.7135 151.513 44.351 150.008 41.4645 147.033C38.1148 143.582 35.3206 140.163 32.9223 136.582C30.3864 132.796 28.3526 128.92 26.7045 124.733C23.286 116.048 21.6242 106.094 21.624 94.3027C21.624 89.0508 22.2968 84.3775 23.6239 80.4129C24.8524 76.7426 26.6557 73.6322 28.9834 71.168C33.1188 66.7904 38.9298 64.4376 45.7881 64.3637C48.0746 64.3415 50.0466 65.1305 51.6491 66.7158C53.182 68.2323 54.3896 70.4392 55.3408 73.4628C56.1856 76.1482 56.8085 79.4232 57.2448 83.4749C58.0836 91.2627 58.0836 100.775 58.0836 109.168C58.0836 110.199 58.3076 110.811 58.7494 110.985C59.1774 111.154 60.0878 111.032 61.9952 109.489C63.0394 108.644 64.2384 107.494 65.6606 105.973C66.0109 105.598 66.5921 104.949 67.3278 104.127C68.5046 102.813 70.1163 101.014 71.938 99.0455C72.0081 98.9698 72.1187 98.9475 72.2127 98.9903C72.3066 99.0331 72.3624 99.1312 72.3513 99.2338C72.0094 102.386 71.4253 110.459 71.6615 118.454C71.9938 129.7 73.7185 133.06 75.1069 133.898C75.8067 134.32 76.6038 134.218 77.5439 133.585C77.6429 133.518 77.776 133.535 77.8557 133.624C77.9353 133.713 77.9372 133.847 77.86 133.938C71.2173 141.777 61.3293 151.188 51.9458 151.505C51.7853 151.511 51.6253 151.513 51.4662 151.513ZM45.8959 64.8416C45.8617 64.8416 45.8276 64.8418 45.7932 64.8421C39.0678 64.9145 33.3752 67.2156 29.3311 71.4965C27.0514 73.9098 25.2838 76.9608 24.0774 80.5648C22.7668 84.4804 22.1022 89.1025 22.1023 94.3028C22.1025 106.033 23.7534 115.929 27.1496 124.558C28.7849 128.713 30.8032 132.559 33.3198 136.316C35.7019 139.873 38.4783 143.27 41.8077 146.7C44.7187 149.7 48.1252 151.156 51.9296 151.027C60.7902 150.728 70.1775 142.085 76.7363 134.514C76.0593 134.721 75.4311 134.652 74.8597 134.308C72.6922 132.999 71.4553 127.67 71.1834 118.468C70.9883 111.864 71.3559 104.409 71.8017 99.8985C70.1827 101.657 68.7537 103.252 67.6841 104.447C66.9465 105.27 66.3638 105.921 66.01 106.299C62.304 110.264 59.8716 111.942 58.5738 111.43C57.9311 111.177 57.6052 110.415 57.6052 109.168C57.6052 100.787 57.6052 91.2884 56.7693 83.5262C56.3363 79.5061 55.7198 76.2613 54.8845 73.6063C53.9572 70.6589 52.7888 68.5162 51.3126 67.0559C49.8072 65.5666 48.0342 64.8416 45.8959 64.8416Z" fill="black"/>
<path d="M72.0416 139.534C71.879 139.534 71.7178 139.516 71.5625 139.479C71.4339 139.449 71.3542 139.32 71.3844 139.192C71.4146 139.063 71.5433 138.983 71.672 139.014C71.8697 139.06 72.0782 139.068 72.2945 139.038C72.4255 139.019 72.5463 139.11 72.5648 139.241C72.5833 139.372 72.4923 139.493 72.3616 139.511C72.254 139.527 72.1463 139.534 72.0416 139.534ZM70.6027 138.902C70.543 138.902 70.4833 138.879 70.4369 138.835C70.2675 138.672 70.1023 138.477 69.946 138.256C69.8697 138.148 69.8952 137.999 70.003 137.923C70.1108 137.846 70.2601 137.872 70.3364 137.98C70.4754 138.176 70.6209 138.348 70.7687 138.49C70.8639 138.582 70.8667 138.733 70.7751 138.828C70.7281 138.877 70.6655 138.902 70.6027 138.902ZM69.5538 137.318C69.4634 137.318 69.377 137.267 69.3365 137.179C69.2394 136.969 69.1441 136.741 69.0532 136.502C69.0062 136.379 69.0682 136.241 69.1917 136.194C69.3152 136.146 69.4533 136.209 69.5003 136.332C69.5873 136.561 69.6784 136.778 69.7709 136.979C69.8262 137.099 69.7739 137.241 69.654 137.296C69.6214 137.311 69.5874 137.318 69.5538 137.318ZM68.8997 135.521C68.7961 135.521 68.7006 135.453 68.6702 135.349C68.6052 135.125 68.5412 134.889 68.48 134.648C68.4475 134.519 68.5251 134.389 68.6531 134.357C68.7812 134.325 68.9112 134.402 68.9436 134.53C69.0034 134.767 69.0659 134.997 69.1294 135.215C69.1663 135.342 69.0934 135.475 68.9665 135.511C68.9443 135.518 68.9218 135.521 68.8997 135.521ZM68.4459 133.661C68.3347 133.661 68.235 133.583 68.2119 133.47C68.1649 133.241 68.1187 133.002 68.0746 132.76C68.051 132.63 68.1371 132.505 68.267 132.482C68.397 132.458 68.5215 132.544 68.5452 132.674C68.5887 132.912 68.6342 133.148 68.6804 133.374C68.7069 133.503 68.6235 133.63 68.4941 133.656C68.478 133.659 68.4618 133.661 68.4459 133.661ZM68.1136 131.775C67.9973 131.775 67.8954 131.69 67.8774 131.572C67.8423 131.339 67.8078 131.099 67.775 130.857C67.7573 130.727 67.8489 130.606 67.9799 130.588C68.1108 130.571 68.2312 130.662 68.249 130.793C68.2815 131.032 68.3156 131.27 68.3504 131.5C68.3701 131.631 68.2803 131.753 68.1497 131.773C68.1375 131.774 68.1255 131.775 68.1136 131.775ZM67.864 129.877C67.744 129.877 67.6405 129.786 67.6266 129.664C67.6 129.43 67.574 129.189 67.5494 128.948C67.5359 128.816 67.6316 128.699 67.7629 128.686C67.8944 128.673 68.0117 128.768 68.0252 128.899C68.0496 129.138 68.0754 129.378 68.1019 129.61C68.1168 129.742 68.0225 129.86 67.8913 129.875C67.8822 129.876 67.873 129.877 67.864 129.877ZM67.6755 127.971C67.5526 127.971 67.4481 127.877 67.4374 127.752C67.4171 127.514 67.3977 127.275 67.3793 127.034C67.3693 126.903 67.4678 126.788 67.5995 126.778C67.7317 126.767 67.8462 126.866 67.8562 126.998C67.8745 127.237 67.8938 127.475 67.914 127.711C67.9252 127.843 67.8277 127.959 67.696 127.97C67.6892 127.971 67.6822 127.971 67.6755 127.971ZM67.5343 126.061C67.4091 126.061 67.3039 125.964 67.2958 125.837C67.2808 125.598 67.2665 125.359 67.2531 125.118C67.2457 124.987 67.3466 124.874 67.4785 124.866C67.61 124.86 67.7233 124.96 67.7306 125.092C67.744 125.331 67.7582 125.569 67.7732 125.807C67.7815 125.939 67.6814 126.052 67.5496 126.061C67.5445 126.061 67.5393 126.061 67.5343 126.061ZM67.4314 124.149C67.3043 124.149 67.1985 124.049 67.1927 123.921C67.1819 123.681 67.1719 123.442 67.1626 123.202C67.1574 123.07 67.2603 122.959 67.3923 122.953C67.524 122.949 67.6354 123.051 67.6405 123.183C67.6498 123.422 67.6598 123.661 67.6706 123.899C67.6765 124.031 67.5744 124.143 67.4424 124.149C67.4387 124.149 67.4351 124.149 67.4314 124.149ZM67.3605 122.234C67.2316 122.234 67.1254 122.131 67.1216 122.002C67.1144 121.762 67.108 121.522 67.1021 121.282C67.0989 121.15 67.2033 121.04 67.3354 121.037C67.4671 121.035 67.577 121.138 67.5803 121.27C67.5861 121.509 67.5926 121.748 67.5996 121.988C67.6035 122.12 67.4997 122.23 67.3677 122.234C67.3653 122.234 67.3629 122.234 67.3605 122.234ZM67.3168 120.32C67.1865 120.32 67.0799 120.215 67.0777 120.084C67.0738 119.845 67.0704 119.606 67.0676 119.367C67.0661 119.235 67.1718 119.127 67.3039 119.125C67.437 119.125 67.5443 119.229 67.5459 119.361C67.5487 119.599 67.5521 119.838 67.556 120.076C67.5581 120.208 67.4529 120.317 67.3208 120.319C67.3195 120.32 67.3181 120.32 67.3168 120.32ZM67.2968 118.406C67.1653 118.406 67.0583 118.3 67.0576 118.168C67.0565 117.928 67.0558 117.688 67.0557 117.449C67.0556 117.317 67.1626 117.21 67.2946 117.21H67.2948C67.4269 117.21 67.5339 117.317 67.534 117.449C67.5342 117.687 67.5348 117.926 67.536 118.166C67.5366 118.298 67.43 118.406 67.2979 118.406C67.2976 118.406 67.2972 118.406 67.2968 118.406ZM67.2979 116.492C67.2974 116.492 67.297 116.492 67.2965 116.492C67.1644 116.491 67.0579 116.384 67.0586 116.252C67.06 116.011 67.0618 115.771 67.064 115.533C67.0653 115.402 67.1721 115.296 67.3031 115.296C67.3039 115.296 67.3046 115.296 67.3055 115.296C67.4376 115.297 67.5436 115.405 67.5424 115.537C67.5402 115.775 67.5384 116.014 67.537 116.254C67.5363 116.386 67.4293 116.492 67.2979 116.492ZM67.318 114.578C67.3167 114.578 67.3155 114.578 67.3142 114.578C67.1822 114.576 67.0767 114.467 67.0787 114.335C67.0824 114.093 67.0865 113.854 67.0909 113.617C67.0933 113.486 67.1999 113.382 67.3299 113.382C67.3314 113.382 67.3329 113.382 67.3344 113.382C67.4665 113.384 67.5715 113.493 67.5692 113.625C67.5648 113.862 67.5607 114.101 67.557 114.342C67.555 114.473 67.4483 114.578 67.318 114.578ZM67.3555 112.664C67.3535 112.664 67.3516 112.664 67.3497 112.664C67.2176 112.661 67.1131 112.551 67.1163 112.419C67.1221 112.176 67.1282 111.937 67.1346 111.701C67.1382 111.571 67.2445 111.468 67.3736 111.468C67.3758 111.468 67.378 111.468 67.3802 111.468C67.5122 111.472 67.6164 111.582 67.6128 111.714C67.6064 111.949 67.6003 112.188 67.5945 112.43C67.5914 112.561 67.485 112.664 67.3555 112.664ZM67.4095 110.75C67.4069 110.75 67.4043 110.75 67.4016 110.75C67.2696 110.746 67.166 110.635 67.1703 110.503C67.1782 110.259 67.1864 110.02 67.1946 109.785C67.1993 109.653 67.3097 109.549 67.4421 109.555C67.5741 109.559 67.6773 109.67 67.6727 109.802C67.6643 110.036 67.6563 110.275 67.6484 110.519C67.6443 110.648 67.538 110.75 67.4095 110.75ZM67.4793 108.837C67.476 108.837 67.4727 108.837 67.4694 108.837C67.3374 108.832 67.2347 108.72 67.2401 108.588C67.2502 108.341 67.2603 108.101 67.2704 107.87C67.2762 107.738 67.3878 107.636 67.5198 107.642C67.6517 107.648 67.754 107.759 67.7482 107.891C67.7382 108.122 67.7281 108.361 67.718 108.608C67.7128 108.736 67.6069 108.837 67.4793 108.837ZM67.5649 106.924C67.561 106.924 67.557 106.924 67.5529 106.924C67.421 106.918 67.3193 106.805 67.3258 106.674C67.3384 106.418 67.3506 106.178 67.3623 105.956C67.3692 105.824 67.4821 105.722 67.6136 105.729C67.7456 105.736 67.8469 105.849 67.8399 105.981C67.8283 106.203 67.8161 106.442 67.8035 106.697C67.7973 106.825 67.6916 106.924 67.5649 106.924ZM67.6681 105.012C67.6633 105.012 67.6585 105.012 67.6537 105.011C67.5219 105.004 67.4213 104.89 67.4291 104.759C67.4568 104.293 67.4741 104.038 67.4741 104.038C67.4831 103.907 67.5965 103.806 67.729 103.816C67.8608 103.825 67.9604 103.939 67.9513 104.071C67.9513 104.072 67.9341 104.324 67.9066 104.787C67.8991 104.914 67.7937 105.012 67.6681 105.012Z" fill="black"/>
<path d="M82.8894 45.6849L78.2148 46.6475L78.3113 47.116L82.9859 46.1534L82.8894 45.6849Z" fill="black"/>
<path d="M77.4925 50.7419L77.373 51.2051L82.2494 52.4626L82.3688 51.9994L77.4925 50.7419Z" fill="black"/>
<path d="M226.745 18.5191L195.308 26.0479L195.419 26.513L226.856 18.9843L226.745 18.5191Z" fill="white"/>
<path d="M229.404 47.6348H196.165V48.1131H229.404V47.6348Z" fill="white"/>
<path d="M196.233 71.3693L196.115 71.833L229.355 80.2433L229.473 79.7796L196.233 71.3693Z" fill="white"/>
<path d="M0 158.761C0 158.761 6.94038 63.0822 37.9101 62.5146C68.8799 61.947 40.8884 89.2839 39.2455 110.633C36.5241 145.998 51.9024 158.761 51.9024 158.761H0Z" fill="#FEBA00"/>
</svg>
