<svg width="32" height="34" viewBox="0 0 32 34" fill="none" xmlns="http://www.w3.org/2000/svg">
<path opacity="0.4" d="M31.0037 21.3298C30.6824 20.8335 30.2259 20.3371 29.6341 20.0228C29.1607 19.7912 28.8564 19.4106 28.5859 18.9639C27.7236 17.5411 28.2308 15.6716 29.668 14.8278C31.3587 13.8848 31.8998 11.7836 30.9191 10.1457L29.7863 8.19347C28.8226 6.55556 26.7091 5.97651 25.0352 6.93609C23.5473 7.73022 21.6368 7.2008 20.7745 5.79452C20.504 5.33127 20.3518 4.83494 20.3856 4.3386C20.4363 3.69337 20.2334 3.08122 19.9291 2.58489C19.3035 1.55913 18.1707 0.864258 16.9195 0.864258H14.5355C13.3012 0.897347 12.1684 1.55913 11.5428 2.58489C11.2216 3.08122 11.0356 3.69337 11.0694 4.3386C11.1032 4.83494 10.9511 5.33127 10.6805 5.79452C9.81824 7.2008 7.90767 7.73022 6.43669 6.93609C4.74591 5.97651 2.64935 6.55556 1.6687 8.19347L0.535881 10.1457C-0.427861 11.7836 0.113187 13.8848 1.78706 14.8278C3.22422 15.6716 3.73145 17.5411 2.88606 18.9639C2.59863 19.4106 2.29429 19.7912 1.82087 20.0228C1.24601 20.3371 0.738774 20.8335 0.46825 21.3298C-0.157337 22.3556 -0.123522 23.646 0.502066 24.7214L1.6687 26.7068C2.29429 27.7656 3.46092 28.4274 4.67828 28.4274C5.25315 28.4274 5.92946 28.2619 6.47051 27.931C6.8932 27.6498 7.40043 27.5505 7.95839 27.5505C9.63226 27.5505 11.0356 28.9237 11.0694 30.5616C11.0694 32.4642 12.6249 33.9532 14.5862 33.9532H16.8857C18.8301 33.9532 20.3856 32.4642 20.3856 30.5616C20.4363 28.9237 21.8397 27.5505 23.5135 27.5505C24.0546 27.5505 24.5618 27.6498 25.0014 27.931C25.5425 28.2619 26.2019 28.4274 26.7936 28.4274C27.9941 28.4274 29.1607 27.7656 29.7863 26.7068L30.9699 24.7214C31.5785 23.6129 31.6293 22.3556 31.0037 21.3298Z" fill="#8A92A6"/>
<path d="M15.7528 22.0915C13.0984 22.0915 10.9512 20.0235 10.9512 17.4261C10.9512 14.8287 13.0984 12.7441 15.7528 12.7441C18.4072 12.7441 20.5037 14.8287 20.5037 17.4261C20.5037 20.0235 18.4072 22.0915 15.7528 22.0915Z" fill="#8A92A6"/>
</svg>
