<svg width="16" height="16" viewBox="0 0 16 16" fill="none" xmlns="http://www.w3.org/2000/svg">
<path d="M10 0.632812C11.7354 0.632881 13.1327 0.975612 14.0781 1.9209C15.0235 2.8664 15.3662 4.26441 15.3662 6V10C15.3661 11.7355 15.0235 13.1327 14.0781 14.0781C13.1327 15.0235 11.7355 15.3661 10 15.3662H6C4.26441 15.3662 2.8664 15.0235 1.9209 14.0781C0.975612 13.1327 0.632881 11.7354 0.632812 10V6C0.632812 4.26429 0.975394 2.8664 1.9209 1.9209C2.8664 0.975394 4.26429 0.632812 6 0.632812H10ZM6 2.0332C4.40237 2.0332 3.46563 2.35664 2.91113 2.91113C2.35664 3.46563 2.0332 4.40237 2.0332 6V10C2.03327 11.5972 2.3568 12.5334 2.91113 13.0879C3.46565 13.6423 4.40256 13.9668 6 13.9668H10C11.5973 13.9667 12.5335 13.6423 13.0879 13.0879C13.6423 12.5335 13.9667 11.5973 13.9668 10V6C13.9668 4.40256 13.6423 3.46565 13.0879 2.91113C12.5334 2.3568 11.5972 2.03327 10 2.0332H6ZM7.99902 5.30078C8.38562 5.30078 8.69922 5.61438 8.69922 6.00098V10.4541C8.69911 10.8406 8.38556 11.1543 7.99902 11.1543C7.61268 11.1541 7.29893 10.8405 7.29883 10.4541V6.00098C7.29883 5.61452 7.61261 5.30101 7.99902 5.30078ZM4.66602 6.46094C5.05261 6.46094 5.36621 6.77453 5.36621 7.16113V9.29492C5.36586 9.68122 5.0524 9.99414 4.66602 9.99414C4.27966 9.99411 3.96617 9.68121 3.96582 9.29492V7.16113C3.96582 6.77455 4.27944 6.46096 4.66602 6.46094ZM11.333 6.46094C11.7195 6.46104 12.0332 6.7746 12.0332 7.16113V9.29492C12.0329 9.68116 11.7193 9.99404 11.333 9.99414C10.9466 9.99414 10.6332 9.68122 10.6328 9.29492V7.16113C10.6328 6.77453 10.9464 6.46094 11.333 6.46094Z" fill="#8C8C8C" fill-opacity="0.6"/>
</svg>
