<svg width="38" height="38" viewBox="0 0 38 38" fill="none" xmlns="http://www.w3.org/2000/svg">
<g clip-path="url(#clip0_64_13556)">
<path d="M18.6074 37.3779C28.8247 37.3779 37.1074 29.0952 37.1074 18.8779C37.1074 8.66066 28.8247 0.37793 18.6074 0.37793C8.39015 0.37793 0.107422 8.66066 0.107422 18.8779C0.107422 29.0952 8.39015 37.3779 18.6074 37.3779Z" fill="#26A17B"/>
<path fill-rule="evenodd" clip-rule="evenodd" d="M20.8295 20.4773V20.475C20.7024 20.4843 20.0468 20.5236 18.5841 20.5236C17.4163 20.5236 16.5942 20.4889 16.3051 20.475V20.4785C11.8096 20.2808 8.45419 19.498 8.45419 18.5614C8.45419 17.626 11.8096 16.8432 16.3051 16.642V19.6992C16.5988 19.72 17.4406 19.7697 18.6038 19.7697C19.9994 19.7697 20.6989 19.7119 20.8295 19.7003V16.6444C25.3158 16.8444 28.6631 17.6272 28.6631 18.5614C28.6631 19.498 25.3158 20.2784 20.8295 20.4773ZM20.8295 16.3264V13.5907H27.0895V9.41895H10.0452V13.5907H16.3051V16.3252C11.2176 16.5588 7.3916 17.567 7.3916 18.7742C7.3916 19.9813 11.2176 20.9884 16.3051 21.2231V29.9898H20.8295V21.2208C25.9089 20.9872 29.7257 19.9801 29.7257 18.7742C29.7257 17.5682 25.9089 16.5611 20.8295 16.3264Z" fill="white"/>
</g>
<defs>
<clipPath id="clip0_64_13556">
<rect width="37" height="37" fill="white" transform="translate(0.107422 0.37793)"/>
</clipPath>
</defs>
</svg>
