<svg width="2" height="10" viewBox="0 0 2 10" fill="none" xmlns="http://www.w3.org/2000/svg">
<path d="M2 9C2 8.44772 1.55228 8 1 8C0.447715 8 -6.78525e-08 8.44772 -4.37114e-08 9C-1.95703e-08 9.55228 0.447715 10 1 10C1.55228 10 2 9.55228 2 9Z" fill="#8C8C8C" fill-opacity="0.6"/>
<path d="M2 5C2 4.44771 1.55228 4 1 4C0.447715 4 -2.42698e-07 4.44771 -2.18557e-07 5C-1.94416e-07 5.55228 0.447715 6 1 6C1.55228 6 2 5.55228 2 5Z" fill="#8C8C8C" fill-opacity="0.6"/>
<path d="M1 -3.41735e-07C1.55228 -3.65876e-07 2 0.447715 2 1C2 1.55228 1.55228 2 1 2C0.447715 2 -3.69261e-07 1.55228 -3.93403e-07 1C-4.17544e-07 0.447715 0.447715 -3.17593e-07 1 -3.41735e-07Z" fill="#8C8C8C" fill-opacity="0.6"/>
</svg>
