<svg width="19" height="17" viewBox="0 0 19 17" fill="none" xmlns="http://www.w3.org/2000/svg">
<path d="M18.9881 5.04895C19.0191 4.8904 18.9894 4.72416 18.9004 4.58797L16.2201 0.496331C16.0953 0.305772 15.8763 0.189775 15.6406 0.189775C13.5609 0.182694 9.08332 0.194879 6.97547 0.189762L3.22556 0.189775C2.98451 0.189775 2.76082 0.310869 2.63796 0.509076L0.0905892 4.60071C-0.00596994 4.75522 -0.0228248 4.94693 0.0280735 5.11985C0.0490715 5.19317 0.087916 5.26049 0.13132 5.32534L8.94149 16.537C9.07788 16.6954 9.27804 16.8095 9.49949 16.8125C9.72095 16.8095 9.92132 16.6954 10.0576 16.5369L18.8677 5.32535C18.9211 5.23899 18.9719 5.149 18.9881 5.04895ZM17.0871 4.2814H13.5809L12.847 1.49502H15.262L17.0871 4.2814ZM6.87201 5.58665H12.127L9.49951 13.9006L6.87201 5.58665ZM11.4372 1.49502L12.1709 4.2814H6.81759L7.51503 1.49502H11.4372ZM3.61485 1.49502H6.10909L5.41157 4.2814H1.87977L3.61485 1.49502ZM5.4435 5.58665L7.72983 12.82L2.0457 5.58665H5.4435ZM11.2692 12.82L13.5555 5.58665H16.9533L11.2692 12.82Z" fill="white"/>
</svg>
