<svg width="51" height="64" viewBox="0 0 51 64" fill="none" xmlns="http://www.w3.org/2000/svg">
<path d="M39.6257 3.73497C41.9944 2.36903 43.9218 3.46606 43.9295 6.18444L44.0723 38.1912C44.08 40.9096 42.1652 43.2955 39.7964 44.6615L9.57539 63.0149C7.21457 64.3762 5.28722 63.2792 5.2795 60.5608L5.13674 28.554C5.12903 25.8356 7.04386 22.523 9.40468 21.1617L39.6257 3.73497Z" fill="white"/>
<path d="M29.9952 9.29035L39.622 3.7367C41.9961 2.37105 43.9266 3.46353 43.9266 6.1819L44.0699 38.1897C44.0829 40.908 42.1655 43.298 39.7914 44.6636L9.58135 63.0188C7.22029 64.3715 5.28979 63.2789 5.27673 60.5606L5.26367 56.7107C22.7119 55.6542 39.4724 38.788 41.5898 21.9538C42.1672 17.3631 39.5449 12.9635 35.2158 11.2984L29.9952 9.29035Z" fill="#E9EDF4"/>
<path d="M7.65579 64.0019C7.17825 64.0019 6.73342 63.8886 6.33792 63.6611C5.40139 63.1215 4.88284 62.0214 4.87893 60.5624L4.73635 28.5566C4.72805 25.7133 6.73245 22.2411 9.20461 20.8154L39.4253 3.38861C40.7041 2.65228 41.9273 2.54486 42.8711 3.08685C43.8072 3.62592 44.3247 4.72601 44.3286 6.18402L44.4717 38.1899C44.4795 40.7993 42.7642 43.4116 39.9956 45.0087L9.78225 63.3569C9.0386 63.7861 8.31594 64.0019 7.65579 64.0019ZM39.8247 4.08197L9.60403 21.5087C7.35354 22.8061 5.52883 25.9667 5.53616 28.5536L5.67874 60.5595C5.68215 61.7216 6.05813 62.5766 6.73733 62.9677C7.42141 63.3618 8.35793 63.2553 9.37502 62.6684L39.5884 44.3203C41.5718 43.1762 43.6797 40.9692 43.6719 38.1928L43.5288 6.18695C43.5254 5.02533 43.1504 4.17084 42.4717 3.78021C41.7862 3.38617 40.8462 3.49213 39.8247 4.08197Z" fill="#2E2E2E"/>
<path d="M0.400391 25.8051L0.543697 57.8129C0.543697 59.1656 1.02648 60.115 1.79588 60.5573L6.52951 63.3045C5.76012 62.8622 5.29039 61.9128 5.27733 60.5602L5.13371 28.5524C5.13371 27.3315 5.53242 25.9958 6.16934 24.7657L1.43602 22.0186C0.798783 23.2487 0.400391 24.5843 0.400391 25.8051Z" fill="#F4C531"/>
<path d="M6.52832 63.7046C6.46094 63.7046 6.39209 63.6875 6.32959 63.6513C6.32373 63.6479 6.31787 63.645 6.31201 63.6416L1.59473 60.9038C0.65918 60.3657 0.143066 59.268 0.143066 57.813L0 25.8071C0 25.8061 0 25.8056 0 25.8052C0 24.5727 0.373535 23.1997 1.08057 21.8344C1.13086 21.7373 1.21875 21.665 1.32373 21.6343C1.42969 21.6054 1.54199 21.6177 1.63623 21.6723L6.36914 24.4194C6.55371 24.5268 6.62158 24.7597 6.52393 24.9492C5.88477 26.1841 5.53271 27.4638 5.53271 28.5527L5.67676 60.5581C5.6875 61.7158 6.05713 62.5659 6.71777 62.9521L6.72705 62.957L6.72803 62.958L6.72949 62.9585C6.92041 63.0693 6.98535 63.3139 6.875 63.5049C6.80127 63.6328 6.6665 63.7046 6.52832 63.7046ZM0.799805 25.8052L0.942871 57.811C0.942871 58.9692 1.31641 59.8208 1.99463 60.2109L5.0874 62.0053C4.95361 61.5801 4.88184 61.0962 4.87695 60.5639L4.73291 28.5547C4.73291 27.4238 5.04688 26.1758 5.64355 24.9233L1.60498 22.5796C1.08398 23.6943 0.799805 24.8261 0.799805 25.8052Z" fill="#2E2E2E"/>
<path d="M37.9409 0.68995C37.1581 0.23476 36.0884 0.299776 34.8885 0.989071L4.66536 18.4176C3.36478 19.1627 2.21705 20.5099 1.43555 22.0186L6.16886 24.7658C6.95036 23.257 8.09809 21.91 9.39868 21.1648L39.6221 3.73635C40.822 3.04698 41.8918 2.98196 42.6745 3.43715L37.9409 0.68995Z" fill="#FFD63C"/>
<path d="M6.16793 25.1656C6.0981 25.1656 6.02877 25.1476 5.96724 25.1114L1.23433 22.3644C1.04976 22.2574 0.981893 22.024 1.08004 21.8346C1.93306 20.1866 3.16744 18.8146 4.46578 18.0704L34.688 0.642699C35.9751 -0.0960703 37.2016 -0.201051 38.1411 0.343871L42.8745 3.09094C43.0654 3.20178 43.1308 3.4469 43.0195 3.63782C42.9082 3.82825 42.664 3.89416 42.4731 3.78332L42.4692 3.78088C41.7861 3.38586 40.8466 3.49426 39.8208 4.08313L9.59761 21.5118C8.42867 22.1813 7.30806 23.4342 6.52291 24.9498C6.47262 25.047 6.38473 25.1193 6.27974 25.15C6.24312 25.1603 6.20553 25.1656 6.16793 25.1656ZM1.97164 21.8678L6.01265 24.213C6.85348 22.7296 7.99898 21.5055 9.19918 20.818L39.4218 3.38977C39.9023 3.11389 40.3745 2.9259 40.8266 2.82776L37.7397 1.03625C37.7397 1.03577 37.7402 1.03625 37.7397 1.03625C37.0571 0.641234 36.1147 0.745238 35.0869 1.33606L4.86422 18.7643C3.78219 19.3839 2.74264 20.5035 1.97164 21.8678Z" fill="#2E2E2E"/>
<path d="M11.4199 27.6154C11.4575 27.1458 12.0582 26.1083 12.4721 25.825L35.4522 12.5739C36.4378 12.0056 37.6716 12.7102 37.6786 13.8455L37.79 33.5704C37.7523 34.0419 37.1478 35.082 36.7313 35.364L13.7577 48.6118C12.7721 49.1801 11.5383 48.4755 11.5313 47.3403L11.4199 27.6154Z" fill="#FFD63C"/>
<path d="M37.7909 33.5696C37.7513 34.0465 37.1532 35.0797 36.7284 35.3578L13.7587 48.6176C12.7756 49.1739 11.5402 48.4719 11.5266 47.3459L11.5 43.1203C24.2536 42.1268 34.1375 33.3852 34.1375 24.9207C34.1375 21.5429 32.57 18.4035 29.8731 15.7939L35.4531 12.575C36.4358 12.0054 37.6715 12.7075 37.6848 13.8467L37.7909 33.5696Z" fill="#F4C531"/>
<path d="M13.0146 49.2136C12.6919 49.2136 12.3691 49.1292 12.0752 48.9607C11.4878 48.6238 11.1348 48.0188 11.1309 47.343L11.0195 27.6179C11.0195 27.6062 11.02 27.595 11.0205 27.5837C11.0684 26.99 11.7437 25.8386 12.2461 25.4954L35.252 12.2278C35.8403 11.8884 36.5435 11.8875 37.1328 12.2258C37.7207 12.5623 38.0737 13.1672 38.0781 13.8435L38.1895 33.5681C38.1406 34.199 37.4609 35.3533 36.9551 35.6956L13.957 48.9587C13.6621 49.1287 13.3384 49.2136 13.0146 49.2136ZM11.8193 27.6331L11.9307 47.3381C11.9331 47.7258 12.1357 48.073 12.4731 48.2668C12.8125 48.4617 13.2183 48.4612 13.5576 48.2654L36.5313 35.0173C36.8164 34.823 37.3618 33.9016 37.3906 33.5388L37.2783 13.8484C37.2759 13.4607 37.0728 13.113 36.7349 12.9197C36.3955 12.7253 35.9907 12.7258 35.6514 12.9211L12.6714 26.1721C12.3931 26.3635 11.8613 27.2625 11.8193 27.6331Z" fill="#2E2E2E"/>
<path d="M21.4744 26.244C21.7037 26.1115 21.939 26.049 22.1561 26.0855L28.4199 27.1775C29.1739 27.3027 29.1775 28.5752 28.4267 29.5799L22.1896 37.8841C21.9727 38.1744 21.737 38.3852 21.507 38.5181C20.8557 38.8944 20.2497 38.6456 20.2473 37.803L20.2207 28.4068C20.2183 27.5634 20.8221 26.6209 21.4744 26.244Z" fill="#2E2E2E"/>
<path d="M11.2091 56.9343C11.0739 56.9343 10.942 56.8659 10.8668 56.7419C10.7521 56.5534 10.8121 56.3073 11.0011 56.1926L37.9547 39.8234C38.1437 39.7077 38.3898 39.7682 38.504 39.9577C38.6188 40.1462 38.5587 40.3923 38.3698 40.507L11.4161 56.8762C11.3512 56.9157 11.2799 56.9343 11.2091 56.9343Z" fill="#2E2E2E"/>
<path d="M18.1062 50.0325C19.2825 49.3523 20.2382 49.8955 20.242 51.2469C20.2459 52.6007 19.2964 54.2478 18.1201 54.928C16.9458 55.607 15.9921 55.0604 15.9883 53.7066C15.9845 52.3552 16.932 50.7115 18.1062 50.0325Z" fill="white"/>
<path d="M20.2419 51.2474C20.2443 52.601 19.2965 54.2473 18.1184 54.9276C17.1278 55.501 16.2942 55.2013 16.0566 54.2782C16.3369 54.3828 16.641 54.44 16.9568 54.44C18.4295 54.44 19.6219 53.1958 19.6219 51.6542C19.6219 50.9167 19.3488 50.2459 18.9023 49.7487C19.6837 49.6583 20.2371 50.2197 20.2419 51.2474Z" fill="#E9EDF4"/>
<path d="M17.166 55.6208C16.8955 55.6208 16.6416 55.5559 16.4141 55.4255C15.8838 55.1203 15.5903 54.51 15.5879 53.7072C15.584 52.2062 16.6021 50.4396 17.9058 49.6857C18.606 49.2805 19.2842 49.2267 19.8169 49.5329C20.3467 49.8376 20.6392 50.4455 20.6416 51.2458C20.646 52.7492 19.626 54.5183 18.3198 55.2736C17.9209 55.5046 17.5283 55.6208 17.166 55.6208ZM18.3062 50.3781C17.2632 50.9816 16.3848 52.5051 16.3877 53.7053C16.3892 54.2033 16.544 54.5773 16.813 54.7316C17.082 54.8859 17.4854 54.8317 17.9194 54.5812C18.9649 53.9767 19.8452 52.4504 19.8418 51.2477C19.8403 50.7453 19.69 50.3825 19.418 50.2267C19.147 50.0705 18.7422 50.1262 18.3062 50.3781Z" fill="#2E2E2E"/>
<path d="M48.0037 30.5928C46.4144 29.6694 44.2094 29.7978 41.787 31.2081C36.9804 33.9768 33.0966 40.7074 33.1094 46.2461C33.1222 49.0024 34.0835 50.9385 35.6473 51.8487L33.2893 50.4472C31.7128 49.537 30.7515 47.6008 30.7383 44.8446C30.7258 39.3065 34.6093 32.5885 39.4159 29.8066C41.8515 28.4094 44.0433 28.2679 45.6327 29.1912L48.0037 30.5928Z" fill="#FFD63C"/>
<path d="M35.646 52.2482C35.5777 52.2482 35.5088 52.2306 35.4453 52.194C35.4219 52.1803 35.3985 52.1667 35.3755 52.1525L33.084 50.7907C31.3277 49.777 30.3506 47.6647 30.3379 44.8463C30.3247 39.2023 34.3072 32.3004 39.2149 29.4601C41.7066 28.0309 44.0557 27.8127 45.833 28.8454L48.2066 30.2482C48.396 30.36 48.4595 30.6046 48.3482 30.7946C48.2364 30.9836 47.9942 31.0509 47.8018 30.9381C46.2671 30.0461 44.2012 30.2643 41.9873 31.5534C37.2989 34.2541 33.4961 40.8444 33.5083 46.2448C33.5205 48.7296 34.3286 50.5807 35.7876 51.467L35.8511 51.5045C36.0401 51.6169 36.1031 51.8615 35.9912 52.0509C35.917 52.1779 35.7832 52.2482 35.646 52.2482ZM43.3501 29.0036C42.2178 29.0036 40.9458 29.3893 39.6143 30.1535C34.9287 32.8649 31.1255 39.4552 31.1377 44.8434C31.1494 47.3649 31.9844 49.2321 33.4888 50.1007L33.5406 50.1315C33.0025 49.0827 32.7159 47.7677 32.7085 46.2477C32.6953 40.5905 36.6783 33.6886 41.5865 30.861C42.9659 30.0578 44.3081 29.6349 45.5367 29.5993L45.4283 29.5353C44.8164 29.1798 44.1153 29.0036 43.3501 29.0036Z" fill="#2E2E2E"/>
<path d="M41.7865 31.2049C46.6067 28.4214 50.523 30.6444 50.5386 36.1748C50.5543 41.7149 46.6635 48.4555 41.8433 51.239C37.0313 54.0177 33.1232 51.7808 33.1075 46.2407C33.0918 40.7102 36.9745 33.9836 41.7865 31.2049Z" fill="white"/>
<path d="M50.5412 36.1778C50.5509 41.7173 46.6672 48.4542 41.8394 51.2384C37.7803 53.5848 34.364 52.3583 33.3906 48.5806C34.5391 49.0089 35.7851 49.2428 37.0795 49.2428C43.1143 49.2428 48.0006 44.1511 48.0006 37.8426C48.0006 34.8245 46.8813 32.0792 45.0515 30.0447C48.2537 29.6744 50.5217 31.9718 50.5412 36.1778Z" fill="#E9EDF4"/>
<path d="M37.938 52.836C37.0396 52.836 36.2061 52.6251 35.4683 52.2008C33.6954 51.1808 32.7149 49.0646 32.7071 46.2413C32.691 40.5953 36.6744 33.6944 41.586 30.8585C44.0582 29.4308 46.4019 29.211 48.1841 30.2369C49.9522 31.254 50.9302 33.3624 50.938 36.1734C50.9542 41.8302 46.9639 48.7438 42.043 51.5846C40.6031 52.4161 39.2056 52.836 37.938 52.836ZM45.7071 30.4015C44.5757 30.4015 43.3086 30.7872 41.9864 31.5509C37.2955 34.2594 33.4917 40.8482 33.5069 46.2394C33.5142 48.7648 34.3521 50.6358 35.8672 51.5074C37.3887 52.3815 39.4395 52.1647 41.6426 50.8922C46.3423 48.1783 50.1534 41.5768 50.1382 36.1754C50.1309 33.6622 49.2955 31.7994 47.7852 30.9303C47.1709 30.5768 46.4698 30.4015 45.7071 30.4015Z" fill="#2E2E2E"/>
<path d="M43.1185 35.5565C43.2079 35.5049 43.2999 35.48 43.3857 35.4924L47.0609 36.0415C47.3707 36.0884 47.3722 36.6012 47.0636 37.0051L43.4036 41.7846C43.3181 41.896 43.2262 41.9772 43.1369 42.0288C42.8777 42.1784 42.6396 42.0789 42.6387 41.7436L42.6372 41.2411C42.637 41.1434 42.5747 41.0953 42.4916 41.1271C42.1711 41.2538 41.8598 41.4067 41.5591 41.5803C39.3276 42.8686 37.658 45.3036 36.8281 46.7074C36.7712 46.804 36.703 46.8713 36.6364 46.9098C36.4766 47.0021 36.3254 46.9282 36.358 46.6932C37.1993 40.637 41.1034 37.9545 42.2851 37.2723C42.3465 37.2368 42.4004 37.2068 42.4463 37.182C42.5483 37.1233 42.6252 36.9896 42.6249 36.8796L42.6235 36.4151C42.6226 36.0799 42.8593 35.7062 43.1185 35.5565Z" fill="#2E2E2E"/>
</svg>
