<svg width="219" height="216" viewBox="0 0 219 216" fill="none" xmlns="http://www.w3.org/2000/svg">
<path d="M92.8643 213.41C106.767 215.864 121.016 215.555 134.799 212.501C148.582 209.447 161.628 203.709 173.193 195.613C184.759 187.518 194.616 177.223 202.203 165.318C209.789 153.413 214.957 140.13 217.41 126.228L196.237 122.491C194.275 133.613 190.141 144.24 184.071 153.764C178.002 163.288 170.116 171.523 160.864 178C151.612 184.476 141.175 189.067 130.148 191.51C119.122 193.953 103.986 194.963 92.8643 193V213.41Z" fill="#F4B609"/>
<path d="M93 110H219L218.788 118.114L218.779 118.247C218.539 122.068 217.831 125.845 216.671 129.493H108.838V137.734H149.565L134.293 153.186H108.838V173.5L93 190V110Z" fill="black"/>
<path fill-rule="evenodd" clip-rule="evenodd" d="M65 40H144L161.5 58.7738H84V71.619H214.168C216.587 77.6952 218.208 83.9937 219 90.3928H84V210.298C77.4599 209.073 71.0841 207.099 65 204.422V90.3928V71.619V58.7738V48.0313V40Z" fill="black"/>
<path fill-rule="evenodd" clip-rule="evenodd" d="M205.299 62.873C198.212 47.3421 187.528 33.7211 174.129 23.1386C160.661 12.5017 144.843 5.24382 127.996 1.97185C111.149 -1.30011 93.7629 -0.491046 77.2926 4.3314C60.8223 9.15384 45.746 17.8495 33.3243 29.6912C20.9025 41.5329 11.4965 56.1766 5.89259 72.3976C0.288665 88.6187 -1.35015 105.946 1.11312 122.93C3.5764 139.914 10.0702 156.061 20.0515 170.022C28.5944 181.971 39.4797 192.02 52.0163 199.575L52.4708 173.589C46.8484 168.908 41.8265 163.511 37.5412 157.517C29.5562 146.349 24.3611 133.431 22.3905 119.844C20.4199 106.256 21.731 92.395 26.2141 79.4181C30.6972 66.4413 38.222 54.7263 48.1594 45.253C58.0968 35.7796 70.1579 28.823 83.3341 24.9651C96.5108 21.1071 110.419 20.4599 123.897 23.0774C137.374 25.695 150.029 31.5013 160.803 40.0109C168.871 46.3829 175.709 54.1319 181.015 62.873H205.299Z" fill="#F4B609"/>
</svg>
