<svg width="503" height="468" viewBox="0 0 503 468" fill="none" xmlns="http://www.w3.org/2000/svg">
<path d="M454.121 196.535C466.499 195.437 467.586 213.514 457.396 215.534C444.146 218.162 441.786 197.63 454.121 196.535Z" fill="#FFBA01"/>
<path d="M60.3867 123.161C72.6114 121.612 73.9028 140.347 63.6624 142.16C50.5212 144.486 48.9209 124.613 60.3867 123.161Z" fill="#FFBA01"/>
<path d="M158.329 203.087V203.742C157.959 203.479 150.585 199.901 150.139 199.812C143.63 198.5 83.5261 200.798 67.5929 199.812C48.6715 182.17 50.7478 179.419 23.0438 175.572L5.02783 157.883C6.08071 157.389 5.38932 156.616 6.33812 156.573C11.2965 163.856 18.5359 168.495 24.3541 174.916C51.1508 177.567 50.1794 182.439 68.2481 198.501L152.76 199.156L155.053 194.243C165.329 190.162 146.94 200.359 158.329 203.087Z" fill="#FFBA01"/>
<path d="M39.422 266.635C40.7298 266.374 47.6567 266.243 48.2663 267.617L47.9388 279.737L35.8188 279.41C36.347 269.137 33.6821 267.779 39.422 266.635Z" fill="#F9DC8F"/>
<path d="M336.197 68.7849C345.291 67.3182 346.817 80.2749 339.472 81.8875C329.852 84.0001 328.234 70.0689 336.197 68.7849Z" fill="#EEDEB3"/>
<path d="M52.525 271.876C65.1633 273.597 149.515 269.634 154.07 271.876C154.542 272.108 155.24 275.026 154.07 275.151C153.787 275.084 153.506 273.3 152.76 273.186C141.592 271.481 57.9914 274.741 53.1802 273.186C52.8395 273.076 51.8671 272.06 52.525 271.876Z" fill="#FFBA01"/>
<path d="M440.362 296.771H473.119L492.118 313.804C499.284 309.25 499.011 321.315 493.428 319.701C491.277 319.079 491.306 314.998 491.135 314.787C486.911 309.573 478.112 303.299 473.119 298.081H440.362C425.486 322.56 426.589 315.129 440.362 296.771Z" fill="#EEDEB3"/>
<path d="M25.0092 296.771H57.7658C70.031 313.98 70.4133 319.709 57.7658 298.081H25.0092L6.3381 314.787C7.41452 322.364 -1.07013 319.791 0.441813 314.787C1.34012 311.814 6.00015 313.482 6.66552 313.15C8.38283 312.292 20.3966 299.359 25.0092 296.771Z" fill="#EEDEB3"/>
<path d="M177.328 309.218C176.635 312.28 135.677 345.238 131.796 352.456C122.904 351.049 129.605 340.984 135.072 347.215C147.724 333.332 163.273 322.337 175.362 307.907L177.328 309.218Z" fill="#FFBA01"/>
<path d="M308.354 313.149L309.009 312.494C309.968 313.758 330.047 334.505 331.611 334.768C332.848 334.976 335.115 331.764 338.163 332.803C342.717 334.356 339.69 344.014 333.577 340.009C332.303 339.175 332.35 336.777 331.939 336.406C323.666 328.941 316.354 320.76 308.354 313.149Z" fill="#EEDEB3"/>
<path d="M301.475 58.958C308.043 57.7831 303.15 64.7499 303.113 65.1817C301.981 78.4252 304.762 92.2733 302.13 105.472C300.704 95.8889 302.938 70.5288 301.803 65.1817C301.712 64.7555 295.293 60.0642 301.475 58.958Z" fill="#FFBA01"/>
<path d="M478.688 237.153C479.751 235.984 480.926 235.97 478.688 235.843C487.093 223.534 493.514 239.042 486.877 241.084C482.114 242.549 481.209 238.155 478.688 237.153Z" fill="#EEDEB3"/>
<path d="M201.895 328.872L202.877 350.164L181.913 367.197C180.481 398.795 180.363 396.653 180.603 366.542L201.567 350.164L201.895 328.872Z" fill="#E7C360"/>
<path d="M167.5 93.0249C167.477 93.1147 166.213 94.2454 166.19 94.3352C165.848 91.6378 160.528 94.5948 159.639 90.0769C158 81.7505 171.58 81.6734 169.465 90.732C169.346 91.2447 167.763 92.0046 167.5 93.0249Z" fill="#EEDEB3"/>
<path d="M194.688 58.958C197.558 58.3756 200.495 62.6094 195.671 65.8368C197.495 116.206 194.149 118.426 195.016 65.8368C190.385 62.8433 193.316 59.2365 194.688 58.958Z" fill="#FFBA01"/>
<path d="M329.973 379.973C330.096 379.864 330.954 379.401 331.283 379.318C338.751 377.421 339.384 391.095 330.956 389.145C327.741 388.401 326.605 382.952 329.973 379.973Z" fill="#EEDEB3"/>
<path d="M301.475 371.456C304.186 381.269 301.229 392.07 302.457 401.92C302.533 402.522 309.638 411.288 299.182 406.506C303.109 396.097 300.042 383.148 301.475 371.456Z" fill="#FFBA01"/>
<path d="M214.015 91.7148C213.821 88.9072 213.403 91.8957 212.704 91.7148C206.389 90.079 207.659 83.5012 210.412 82.5431C216.109 80.5597 220.829 87.4587 214.015 91.7148Z" fill="#EEDEB3"/>
<path d="M284.114 379.972C293.057 380.167 289.309 389.724 284.442 389.144C281.725 388.82 277.552 381.695 283.459 379.972C283.49 379.963 284.05 379.971 284.114 379.972Z" fill="#EEDEB3"/>
<path d="M214.015 374.732C221.042 375.674 217.679 386.484 210.412 383.248C209.642 382.906 206.658 376.043 213.36 374.732C213.392 374.725 213.983 374.727 214.015 374.732Z" fill="#EEDEB3"/>
<path d="M376.815 184.743C384.926 182.318 383.515 196.71 376.16 192.605C372.798 190.729 374.493 185.437 376.815 184.743Z" fill="#EEDEB3"/>
<path d="M269.701 416.005C270.053 416.015 274.96 416.578 274.942 416.988C273.286 418.02 271.405 424.665 269.374 424.522C268.55 424.464 264.268 418.621 263.15 417.643C263.252 416.911 267.602 416.108 268.391 416.005C268.455 415.996 269.537 416 269.701 416.005Z" fill="#EEDEB3"/>
<path d="M284.114 89.0941C283.989 89.1095 283.067 86.9973 282.804 89.7492C276.629 89.2545 281.734 84.868 284.442 79.9224C284.848 81.3423 290.168 87.6419 290.01 88.1115C289.47 89.725 285.425 88.9336 284.114 89.0941Z" fill="#EEDEB3"/>
<path d="M167.5 378.007C173.885 378.994 167.136 387.118 166.518 387.179C165.927 387.237 160.578 380.6 159.639 379.645C168.2 379.529 165.811 378.022 166.19 378.007C166.379 378 167.435 377.997 167.5 378.007Z" fill="#EEDEB3"/>
<path d="M160.621 403.557C166.108 402.496 167.092 410.201 163.242 411.419C157.386 413.271 155.84 404.482 160.621 403.557Z" fill="#EEDEB3"/>
<path d="M331.611 394.385C334.391 392.217 330.329 419.252 334.559 419.608C327.706 431.052 332.09 409.309 331.611 394.385Z" fill="#FFBA01"/>
<path d="M330.628 92.3694C330.556 92.3623 330.485 92.2229 329.318 91.7143C325.76 90.1636 330.623 83.7884 331.611 83.8525C332.39 83.9033 342.67 93.5171 330.628 92.3694Z" fill="#EEDEB3"/>
<path d="M118.693 185.399C125.153 183.668 125.103 195.485 118.038 192.605C115.128 191.419 116.404 186.012 118.693 185.399Z" fill="#FFBA01"/>
<path d="M423.984 313.804C429.316 312.381 430.487 320.176 425.95 321.01C421.154 321.892 420.441 314.749 423.984 313.804Z" fill="#FFBA01"/>
<path d="M72.1786 313.149C76.8941 312.827 77.1373 320.717 72.8338 321.01C68.1502 321.329 67.6673 313.456 72.1786 313.149Z" fill="#FFBA01"/>
<path d="M86.9191 313.148L87.5743 313.803C87.2394 314.265 85.6875 325.328 81.0228 318.062C77.1106 311.968 86.4201 313.3 86.9191 313.148Z" fill="#EEDEB3"/>
<path d="M195.343 366.869C196.795 366.139 196.48 388.07 196.326 390.782C195.45 406.189 194.536 382.836 195.016 367.197L195.343 366.869Z" fill="#E7C360"/>
<path d="M36.8014 207.018C40.9398 206.068 42.3848 212.581 38.7668 213.57C33.3568 215.047 33.6688 207.737 36.8014 207.018Z" fill="#FFBA01"/>
<path d="M6.33841 156.572C5.38961 156.615 6.08131 157.388 5.02812 157.882C-1.44649 160.922 -1.55336 150.654 4.04525 151.986C6.39014 152.544 6.1826 156.344 6.33841 156.572Z" fill="#FFBA01"/>
<path d="M164.552 48.4761C169.457 46.9769 168.301 54.6506 165.207 54.3724C163.552 54.2234 161.527 49.4008 164.552 48.4761Z" fill="#FFBA01"/>
<path d="M349.955 226.672C352.816 230.816 348.881 237.162 349.627 228.965C349.688 228.296 349.359 226.931 349.955 226.672Z" fill="#FFBA01"/>
<path d="M314.577 157.882C315.13 159.02 318.832 160.82 318.836 161.485C318.85 163.742 312.509 159.006 314.577 157.882Z" fill="#FFBA01"/>
<path d="M152.105 203.742C153.186 203.595 152.99 203.983 153.088 204.725C153.438 207.359 147.618 214.031 152.105 203.742Z" fill="#FFBA01"/>
<path d="M192.068 150.021C196.503 149.404 188.369 154.542 187.81 152.969C188.831 152.198 191.705 150.071 192.068 150.021Z" fill="#F9DC8F"/>
<path d="M253.65 337.388C258.12 335.952 261.696 339.331 252.995 338.699C252.337 338.514 253.311 337.497 253.65 337.388Z" fill="#F9DC8F"/>
<path d="M147.519 225.361C149.116 233.738 145.188 234.544 147.192 225.688L147.519 225.361Z" fill="#FFBA01"/>
<path d="M336.852 185.398C341.88 192.497 339.468 194.971 336.524 185.726L336.852 185.398Z" fill="#FFBA01"/>
<path d="M241.858 337.389L246.771 338.372C244.124 339.181 241.162 338.752 241.858 337.389Z" fill="#FFBA01"/>
<path d="M241.203 132.988C245.184 131.684 248.666 135.07 240.548 134.298C239.89 134.114 240.859 133.1 241.203 132.988Z" fill="#FFBA01"/>
<path d="M253.65 132.988L258.564 134.625C257.736 135.403 252.52 134.752 253.65 132.988Z" fill="#FFBA01"/>
<path d="M209.101 140.849C210.202 140.766 210.927 140.685 210.739 141.832C202.657 146.207 206.921 141.014 209.101 140.849Z" fill="#FFBA01"/>
<path d="M349.955 239.775C352.085 245.838 348.421 250.088 349.628 240.102L349.955 239.775Z" fill="#FFBA01"/>
<path d="M346.024 261.394C347.229 261.132 347.119 262.273 347.006 263.687C346.741 267.035 343.484 268.37 346.024 261.394Z" fill="#FFBA01"/>
<path d="M265.443 134.298C267.905 133.736 273.414 137.68 264.788 135.608C264.116 135.404 265.181 134.358 265.443 134.298Z" fill="#FFBA01"/>
<path d="M182.896 157.228C183.755 158.293 180.512 161.16 180.276 161.158C177.983 161.143 181.159 157.865 182.896 157.228Z" fill="#FFBA01"/>
<path d="M285.752 140.849C288.837 141.001 291.81 142.471 289.683 143.47L285.752 140.849Z" fill="#FFBA01"/>
<path d="M147.519 240.429C148.178 240.81 147.702 242.014 147.846 242.722C149.048 248.605 144.646 243.506 147.519 240.429Z" fill="#FFBA01"/>
<path d="M165.208 176.881C166.284 177.682 164.339 181.366 163.242 180.812C162.155 180.263 164.563 177.237 165.208 176.881Z" fill="#FFBA01"/>
<path d="M228.755 334.768C231.753 334.164 234.189 338.498 228.755 336.734C227.669 336.381 227.767 334.967 228.755 334.768Z" fill="#FFBA01"/>
<path d="M324.404 303.322C325.784 303.146 324.954 304.593 324.732 304.96C321.456 310.391 321.155 303.737 324.404 303.322Z" fill="#FFBA01"/>
<path d="M170.449 300.046C172.641 299.274 174.304 307.335 170.776 302.339C170.569 302.045 169.814 300.27 170.449 300.046Z" fill="#FFBA01"/>
<path d="M333.576 291.53C334.253 291.759 332.738 295.014 332.594 295.133C328.913 298.163 332.498 291.163 333.576 291.53Z" fill="#FFBA01"/>
<path d="M317.198 310.529C321.142 309.512 314.905 315.51 314.905 312.821C314.905 312.659 317.041 310.569 317.198 310.529Z" fill="#FFBA01"/>
<path d="M182.241 311.839C182.384 311.75 185.127 313.319 185.189 313.476C186.369 316.489 179.922 313.265 182.241 311.839Z" fill="#FFBA01"/>
<path d="M287.717 329.527C292.418 329.068 285.751 333.215 284.769 331.165C284.697 331.013 287.55 329.543 287.717 329.527Z" fill="#FFBA01"/>
<path d="M172.414 167.055C173.325 167.014 173.451 167.116 173.397 168.037C173.087 173.29 167.513 167.276 172.414 167.055Z" fill="#FFBA01"/>
<path d="M191.413 319.045C191.575 318.951 194.455 321.125 194.361 321.338C193.748 322.727 189.46 320.185 191.413 319.045Z" fill="#FFBA01"/>
<path d="M325.06 167.71C329.899 173.784 324.113 169.564 324.077 168.693C324.071 168.551 324.761 168.099 325.06 167.71Z" fill="#FFBA01"/>
<path d="M332.921 178.192C333.1 178.092 335.64 180.684 334.231 181.467C334.053 181.567 331.513 178.975 332.921 178.192Z" fill="#FFBA01"/>
<path d="M177.327 309.218L175.362 307.908C176.982 305.974 177.742 307.383 177.327 309.218Z" fill="#FFBA01"/>
<path d="M226.79 421.245C239.349 418.236 241.217 437.146 230.721 438.279C219.102 439.533 218.203 423.303 226.79 421.245Z" fill="#EEDEB3"/>
<path d="M226.79 423.211C240.668 419.819 237.772 440.92 226.135 435.659C221.166 433.412 221.601 424.48 226.79 423.211Z" fill="black"/>
<path d="M226.79 33.4077C240.522 30.6056 240.619 49.4254 230.066 50.4411C219.626 51.446 218.216 35.1569 226.79 33.4077Z" fill="#EEDEB3"/>
<path d="M227.445 34.7181C240.81 31.9823 237.223 54.6723 225.48 47.1655C220.174 43.7736 223.022 35.6235 227.445 34.7181Z" fill="black"/>
<path d="M194.033 402.902C206.019 400.747 207.385 417.544 198.619 419.28C186.318 421.717 184.79 404.564 194.033 402.902Z" fill="#FFBA01"/>
<path d="M195.344 404.212C206.497 403.232 204.289 421.906 193.378 417.315C187.206 414.717 189.496 404.726 195.344 404.212Z" fill="black"/>
<path d="M265.442 33.408C282.404 29.8733 276.952 56.325 264.132 49.1311C257.511 45.4161 259.006 34.7492 265.442 33.408Z" fill="#FFBA01"/>
<path d="M266.097 34.7182C275.9 32.7115 277.743 46.797 270.028 48.4759C260.642 50.5187 258.296 36.315 266.097 34.7182Z" fill="black"/>
<path d="M282.804 89.749C283.067 86.9971 283.988 89.1094 284.114 89.0939C283.362 102.931 284.858 116.898 284.769 130.695C284.731 136.5 282.421 147.58 282.804 148.383C282.946 148.683 287.715 151.11 289.027 150.676C290.796 150.092 291.826 144.799 291.975 144.452C292.04 144.302 294.398 143.363 294.596 142.487C295.321 139.272 294.064 127.505 294.596 122.178L315.56 104.489C314.954 65.7503 317.462 67.8926 316.87 105.144L295.906 122.833L295.251 144.452C301.171 147.854 298.113 148.514 293.613 144.78C293.794 146.99 290.242 150.17 290.665 151.659C290.775 152.048 297.153 156.022 297.544 155.917C298.418 155.682 304.163 143.522 303.767 141.176L329.318 116.281V91.7138C330.485 92.2225 330.555 92.3619 330.628 92.369L330.956 115.299L348.317 97.2827L349.627 95.3173C349.02 61.8232 351.523 63.8233 350.937 95.9724C346.168 103.86 305.833 138.886 304.423 141.832C304.265 142.162 304.729 145.306 303.113 149.038C315.744 159.743 303.667 150.231 302.13 150.676C296.573 152.286 301.824 161.797 306.061 161.158C308.031 160.861 331.212 134.416 334.232 132.987C342.36 129.143 341.213 146.711 331.611 137.573C328.682 141.632 306.617 160.068 307.699 163.451C307.833 163.873 313.807 168.021 314.577 169.02L357.816 125.126C380.443 121.334 362.672 153.432 353.885 131.022L315.56 170.002L323.094 178.846L344.714 159.192H362.402L387.953 133.642C423.793 133.015 423.835 135.516 387.953 134.953L362.402 160.503C357.955 160.972 346.92 159.861 344.714 160.503C343.356 160.898 324.288 178.432 324.077 179.829C323.904 180.973 328.551 186.652 329.646 188.018L348.645 172.295H395.814C401.52 165.727 412.679 158.088 410.555 154.934C414.109 148.722 420.302 155.702 415.468 158.537C413.381 159.761 412.306 158.065 411.537 158.537C409.593 159.732 400.254 169.971 397.779 172.95L349.3 173.605L329.974 189.656C335.842 201.69 334.387 192.997 342.421 193.587C341.327 194.377 334.727 197.111 334.559 197.518C334.393 197.92 337.116 205.517 337.507 205.707C340.651 207.227 358.403 197.954 343.404 201.121C340.973 192.562 343.753 199.558 344.714 199.811C345.099 199.912 351.62 198.508 352.576 198.5C378.308 198.292 404.12 198.656 429.881 198.5C433.163 195.385 448.176 180.163 449.535 179.501C452.382 178.116 468.757 176.212 474.43 174.26L491.791 157.554C489.606 147.616 502.039 152.923 496.705 157.882C494.882 159.576 492.939 157.776 492.774 157.882C481.118 165.371 481.689 178.617 450.845 180.156L429.881 199.81C417.562 200.614 356.292 198.749 352.576 199.81C352.15 199.932 347.393 204.884 345.697 205.379C348.868 216.699 345.233 205.925 344.714 205.706C340.127 203.776 336.437 210.44 339.801 215.206C342.872 219.557 350.328 207.661 350.61 222.74C358.285 222.095 385.641 223.604 388.608 222.74C389.415 222.505 395.662 215.113 396.47 214.878C399.626 213.959 421.013 215.79 423.985 214.878C424.411 214.748 429.389 208.121 430.864 213.895C432.737 221.228 425.13 216.23 424.64 216.188C421.664 215.934 398.446 215.804 397.125 216.188C396.128 216.479 390.815 223.501 388.608 224.05C384.444 225.086 353.338 222.992 342.749 224.705V235.187L478.689 235.842C480.927 235.969 479.752 235.983 478.689 237.153C472.357 234.636 359.326 237.796 342.422 236.825L342.094 247.635H387.953L397.78 256.151C403.162 255.641 422.07 256.84 423.986 256.151C424.451 255.984 430.438 248.613 430.864 255.824C431.234 262.082 424.454 256.858 423.986 256.807C409.241 255.184 399.059 263.423 387.953 248.945H350.609C348.706 257.122 345.257 262.307 348.972 249.927C338.023 243.926 340.904 260.781 337.18 266.961C340.395 267.737 344.562 270.647 347.334 271.219C361.309 274.106 474.261 270.14 502.272 272.202C452.174 272.351 401.334 275.39 351.265 273.184C350.467 273.149 345.87 272.017 344.713 271.219C339.67 284.275 336.887 275.59 333.576 276.46C332.427 276.762 326.78 282.616 335.541 286.942C336.844 285.956 337.649 282.839 337.834 282.684C342.392 278.871 336.451 287.533 336.524 287.925C336.678 288.747 347.896 297.083 349.299 298.734H397.124C410.351 315.734 414.438 312.482 415.467 313.147C421.961 317.343 409.677 325.379 410.554 314.13L396.469 300.044L347.989 299.389L329.645 283.666C328.883 284.88 323.439 291.341 323.421 291.855C323.374 293.292 343.322 310.819 344.713 311.182C348.265 312.108 359.245 309.978 363.057 311.837C364.827 312.7 386.071 336.901 390.572 340.007C410.792 341.858 408.02 335.868 410.881 335.421C416.568 334.533 419.573 343.487 414.157 345.903C408.635 348.367 406.766 341.517 406.295 341.317C404.213 340.431 393.552 342.438 389.262 340.662C387.443 339.909 365.627 316.25 361.747 312.492C357.274 312.019 346.331 313.139 344.058 312.492C341.838 311.86 329.512 296.666 328.335 300.699C323.119 289.436 321.378 295.468 314.905 301.682L363.057 347.214C371.261 338.459 373.718 354.878 365.022 351.799C363.956 351.422 363.147 348.286 359.781 345.248C344.41 331.373 328.51 318.051 314.577 302.664L306.388 309.543C307.42 310.419 308.198 311.422 309.009 312.491L308.353 313.146C306.749 311.62 306.608 310.568 305.405 310.526C304.956 310.51 297.968 315 297.871 315.439C297.784 315.834 301.747 322.188 302.13 322.318C302.631 322.488 313.719 314.26 308.026 320.353C306.547 321.935 300.798 321.458 304.423 329.197C305.848 332.238 346.404 369.579 351.592 377.021C352.234 401.523 349.83 401.677 350.282 377.021L331.611 358.35L331.284 379.315C330.954 379.398 330.097 379.861 329.973 379.97V356.713C325.068 350.977 305.66 333.507 303.768 330.507C302.439 328.4 299.602 316.607 296.234 316.422C295.875 316.402 290.122 319.684 290.01 320.025C289.884 320.409 293.903 326.73 294.268 326.904C294.941 327.223 299.304 323.742 299.837 325.266C292.935 327.613 296.923 339.22 295.906 349.506L316.87 367.195V395.365H315.56V368.505L294.596 350.161C294.036 339.411 297.379 328.295 288.372 320.353C275.417 325.727 283.163 326.529 284.114 337.059C285.158 348.618 283.335 367.234 284.114 379.97C284.05 379.968 283.49 379.96 283.459 379.97V348.851C280.312 343.753 272.279 335.949 271.666 335.093C271.413 334.739 270.638 328.252 268.063 327.559C267.722 327.467 261.373 328.898 261.184 329.197C260.813 329.784 259.841 339.644 268.391 335.748C268.31 338.787 262.667 336.547 261.84 337.714C262.463 344.95 261.002 369.559 261.84 372.436C262.041 373.126 268.992 379.225 270.356 380.953L269.701 416.002C269.537 415.998 268.456 415.994 268.391 416.002C267.822 409.345 269.152 382.451 268.391 380.297C268.229 379.838 261.833 375.411 261.184 373.746C258.735 367.452 262.81 330.129 258.892 328.869L249.392 330.507C251.019 346.189 247.272 447.27 249.392 453.017C249.646 453.705 259.343 457.268 254.633 464.809C249.984 472.254 236.967 465.444 242.186 456.947C243.932 454.105 247.627 454.115 248.082 453.016C250.426 447.357 246.282 345.934 248.082 330.507L237.6 329.197C236.111 338.165 237.815 370.103 236.945 373.09C236.704 373.916 228.669 380.781 228.428 381.607C227.276 385.562 229.468 414.014 229.084 415.674C229.023 415.938 227.977 417 227.773 416.329C228.404 408.892 226.926 383.204 227.773 380.297C227.969 379.624 234.336 374.087 235.635 372.435C234.3 366.734 237.197 331.778 236.29 329.851C236.119 329.487 231.015 327.491 230.722 327.559C229.403 327.862 217.57 347.12 214.016 348.85V374.728C213.983 374.724 213.393 374.722 213.361 374.728C213.578 360.578 212.657 346.56 214.016 332.472C204.287 327.15 213.933 331.789 214.671 329.851C216.416 323.272 212.451 320.926 211.068 321.007C208.267 321.171 204.129 333.089 201.896 326.248C205.72 328.357 204.091 324.785 208.775 320.68C207.632 320.003 200.409 315.602 199.931 315.766C199.452 315.931 195.338 322.38 198.948 324.611C192.465 322.579 195.678 327.826 193.707 331.162C192.209 333.696 172.096 351.994 167.501 357.367V378.004C167.437 377.994 166.381 377.997 166.191 378.004L165.864 358.35L147.848 377.021C148.414 402.833 145.918 401.268 146.537 376.366L193.052 329.852C191.226 324.882 200.263 317.6 197.31 313.801C193.136 308.431 187.514 312.15 187.483 317.732C187.43 317.783 186.673 316.6 186.173 317.077C178.151 324.725 169.62 331.988 162.588 340.661C159.499 341.464 156.914 337.91 157.019 336.403C157.535 329.068 164.659 335.421 165.209 335.421C166.992 335.421 187.297 312.926 190.431 310.198C190.654 308.984 184.059 302.719 183.552 302.664C182.135 302.511 173.362 312.036 181.915 301.026L175.036 293.492C172.989 293.281 155.68 311.901 153.416 312.491C150.916 313.144 140.377 312.015 135.728 312.491C130.238 316.961 110.819 340.307 106.247 341.317C103.401 341.945 92.383 340.684 91.1789 341.317C90.8354 341.497 89.6732 346.878 86.5929 347.213C84.4999 347.441 80.4966 344.322 81.0244 340.989C82.2486 333.26 89.9167 339.911 90.5238 340.007C91.9236 340.227 106.114 340.231 106.902 340.007C110.35 339.028 132.007 312.882 134.417 311.836C137.591 310.459 148.847 313.072 153.416 311.181C154.723 310.641 170.895 294.494 174.053 291.855C172.673 290.854 168.637 283.743 167.829 283.666C167.48 283.632 162.341 287.583 162.261 287.924C162.019 288.954 168.89 298.073 160.623 289.562L149.486 299.389L101.661 300.044C98.7046 303.757 89.054 311.765 87.5758 313.802L86.9207 313.146C88.0398 312.807 98.66 300.817 101.006 298.734H148.831C150.561 296.079 167.436 283.279 167.502 282.028C167.517 281.735 165.115 276.963 164.881 276.786C164.173 276.254 153.618 275.841 160.295 284.648C149.016 275.223 163.15 276.921 163.571 274.166C163.628 273.796 160.95 267.469 160.623 267.287C158.079 265.869 148.496 272.59 150.796 261.391C150.589 269.525 158.851 266.427 159.313 265.977C160.119 265.191 157.724 256.547 156.692 256.15C152.407 254.501 149.354 263.416 146.21 248.944C138.142 249.615 113.084 248.039 109.523 248.944C107.736 249.397 101.695 256.605 101.006 256.805C98.3403 257.581 79.2194 256.21 72.8353 256.805C72.4967 256.837 71.262 258.693 70.8698 258.771C64.9748 259.94 65.5311 251.171 70.8698 252.874C71.9695 253.225 72.7355 255.888 73.4904 256.15C74.7282 256.58 98.4376 256.517 99.6958 256.15C100.297 255.975 107.917 247.904 108.868 247.634C112.731 246.533 146.388 248.606 155.382 247.634L155.054 236.824L18.4593 236.496C12.1709 246.435 -0.727254 238.519 5.02902 229.618C9.36133 222.918 19.7996 228.388 18.4593 235.841L154.727 235.186C154.703 232.986 156.233 225.994 155.709 225.032C154.244 222.338 114.736 225.346 109.523 224.049C107.283 223.492 102.205 216.634 101.006 216.187C99.1221 215.486 80.8955 215.248 77.421 215.532C74.4612 215.774 64.7127 221.371 66.6112 213.894C68.1796 207.718 73.0636 214.729 73.4901 214.877C76.0735 215.774 97.4308 213.945 101.005 214.877C102.409 215.243 108.966 222.576 109.522 222.739C115.138 224.374 146.576 221.007 155.381 223.394L160.295 206.033C160.3 204.902 159.071 204.27 158.329 203.74V203.085C159.662 203.404 160.522 204.059 160.95 203.413C160.899 200.884 167.686 189.769 167.501 189C167.424 188.677 162.261 185.348 161.933 185.397C159.792 185.713 157.747 194.263 159.64 183.759L148.175 173.604H101.005L86.5917 158.536C77.9193 160.696 80.2887 148.392 86.9191 154.278C85.7498 158.524 97.1239 165.92 102.315 172.294H148.174C151.789 174.617 164.83 188.457 168.483 187.362C168.957 187.22 174.152 179.658 174.052 179.173C173.766 177.786 154.13 160.859 152.76 160.502C150.259 159.849 139.721 160.978 135.071 160.502L108.866 134.296C71.4782 135.574 77.3038 133.033 110.832 133.641L135.727 159.191C140.175 159.661 151.207 158.549 153.415 159.191C154.797 159.593 171.118 176.549 175.035 178.19L181.914 169.346C169.153 157.656 157.208 145.137 144.899 132.986C134.925 150.607 124.195 127.375 135.727 125.124C143.039 123.698 144.16 130.917 144.571 131.348C156.917 144.295 170.771 155.83 182.897 169.018L191.086 162.139C187.413 159.831 167.647 136.919 165.863 136.917C165.341 136.916 159.392 143.721 157.674 137.244C156.817 134.012 160.169 131.341 163.243 132.331C166.104 133.252 189.436 160.769 191.413 161.156C192.194 161.309 198.814 156.886 198.947 156.243C199.255 154.76 192.48 147.73 193.051 141.83L146.536 95.973V73.6985C150.208 71.3836 152.733 73.805 147.847 74.3536V95.973L165.862 113.334C167.04 112.411 165.474 97.1542 166.19 94.335C166.213 94.2452 167.477 93.1146 167.5 93.0247V114.972C171.552 120.11 193.458 139.532 194.361 141.177C196.587 145.233 190.622 148.431 202.222 145.763C198.442 148.398 194.828 147.697 198.292 152.97C200.963 157.035 206.672 152.159 206.808 151.659C207.335 149.732 201.019 143.022 200.912 142.488C200.707 141.459 202.406 125.415 201.567 121.523C194.805 116.926 186.97 107.253 180.603 105.145C180.687 76.2472 180.518 72.0453 181.913 103.835L202.878 120.868C203.928 133.459 199.178 141.326 208.446 150.677C224.351 147.438 214.549 144.116 213.36 137.246C212.195 130.522 214.504 103.856 212.704 91.7148C213.403 91.8957 213.821 88.9071 214.015 91.7148L214.67 123.489C215.643 125.438 227.863 136.931 225.48 138.229C218.298 130.951 211.65 115.736 215.325 137.902C229.415 136.618 209.37 138.112 220.238 146.746C221.593 145.62 229.44 144.793 229.738 143.798C223.12 136.142 234.002 147.73 236.289 142.488C237.193 140.415 235.656 99.4411 234.979 97.2836C234.684 96.3423 228.183 92.1429 227.772 90.7322C226.624 86.7877 229.123 60.3444 227.117 52.0794H228.428C229.104 60.2326 227.517 85.1063 228.428 88.7668C229.052 91.2765 235.869 95.7983 236.289 97.2836C237.123 100.232 236.463 132.903 237.599 141.832C238.08 142.987 247.767 142.467 248.736 141.177L248.081 14.7368C230.3 5.85167 252.678 -6.66483 255.943 4.25485C258.401 12.4756 249.704 14.1291 249.392 14.7368C246.502 20.3599 251.613 125.678 249.392 141.177C249.902 142.333 259.243 143.093 259.874 141.832C261.755 131.525 259.453 101.631 260.529 97.9388C260.764 97.1312 268.155 90.8849 268.39 90.0771C269.398 86.6167 267.401 55.142 268.39 52.0794C268.5 51.7386 269.517 50.7663 269.701 51.4242C269.05 59.2949 270.572 87.7396 269.701 90.7322C269.465 91.5398 262.074 97.7861 261.839 98.5939C260.877 101.897 262.856 132.91 261.184 142.488C270.812 148.582 271.42 133.689 283.458 123.489L282.804 89.749Z" fill="#FFBA01"/>
<path d="M274.287 136.919C280.601 141.839 283.546 137.943 274.614 136.919H274.287C286.979 116.821 285.281 127.059 280.51 148.056L269.701 144.453C269.291 143.598 273.626 137.965 274.287 136.919Z" fill="black"/>
<path d="M216.963 323.632C218.477 325.52 228.754 326.943 229.083 327.89C229.191 328.204 226.256 333.067 225.479 333.459C223.146 334.636 214.339 331.006 223.842 335.752C211.259 351.143 213.519 347.737 216.963 323.632Z" fill="black"/>
<path d="M277.235 324.942C280.445 324.835 281.664 331.396 281.493 331.821C281.343 332.196 274.353 334.861 273.959 334.769C273.566 334.676 269.599 328.281 269.701 327.89C269.803 327.498 276.831 324.955 277.235 324.942Z" fill="black"/>
<path d="M279.855 333.458C284.061 333.07 282.349 341.775 283.131 345.906C281.911 344.886 274.949 337.033 274.942 336.406C274.934 335.7 279.57 333.485 279.855 333.458Z" fill="black"/>
<path d="M336.852 268.6C337.57 268.385 342.815 270.157 343.076 270.893C343.222 271.304 339.996 277.667 339.473 277.772C335.114 278.645 333.018 269.746 336.852 268.6Z" fill="black"/>
<path d="M149.484 248.946C155.826 245.936 157.638 253.569 157.018 254.515C156.824 254.811 150.475 256.263 150.139 256.153C149.047 255.794 147.811 249.741 149.484 248.946Z" fill="black"/>
<path d="M344.713 216.845C349.678 216.611 349.275 222.701 348.972 223.069C348.751 223.337 342.413 224.187 342.093 224.052C341.631 223.857 338.627 217.133 344.713 216.845Z" fill="black"/>
<path d="M274.287 136.918H274.614C283.546 137.943 280.601 141.839 274.287 136.918Z" fill="#FFBA01"/>
<path d="M241.203 144.78C318.795 139.257 368.248 226.689 322.112 289.892C283.22 343.17 201.774 337.87 169.466 280.72C137.181 223.61 175.515 149.456 241.203 144.78Z" fill="black"/>
<path d="M239.893 149.366C249.756 150.65 264.834 148.234 271.994 153.952C248.169 148.363 225.768 151.088 204.516 163.124C201.909 164.6 195.911 170.326 195.016 168.692C204.18 161.943 216.951 154.252 228.1 152.642C229.778 150.098 237.685 152.249 239.893 149.366Z" fill="#FFBA01"/>
<path d="M296.562 306.598C278.013 318.921 259.537 324.327 236.945 320.683C246.282 318.354 255.625 320.672 259.547 320.356C269.501 319.553 287.474 311.801 296.562 306.598Z" fill="#FFBA01"/>
<path d="M172.087 198.5C164.505 216.428 161.309 236.791 166.845 255.824L165.863 256.152C161.406 243.258 163.469 227.176 164.225 216.516C165.759 216.058 167.243 205.974 167.501 205.379C168.122 203.949 171.345 199.799 172.087 198.5Z" fill="#FFBA01"/>
<path d="M324.077 195.881C332.69 207.762 336.321 230.588 333.577 245.016C332.991 236.193 333.532 227.268 331.939 218.483C330.51 210.601 326.437 203.407 324.077 195.881Z" fill="#FFBA01"/>
<path d="M200.257 305.943C189.446 299.25 182.814 291.857 176.672 281.048C182.994 290.327 191.503 298.879 200.257 305.943Z" fill="#FEDE88"/>
<path d="M317.526 286.289C319.387 283.666 323.912 275.864 325.387 272.858C326.078 271.452 330.297 256.352 329.973 264.342C329.777 269.19 320.55 282.111 317.526 286.289Z" fill="#FFBA01"/>
<path d="M298.527 305.287C299.396 304.669 313.467 291.785 314.25 290.875C311.402 294.287 308.894 297.849 305.406 300.701C303.278 302.429 300.725 303.729 298.527 305.287Z" fill="#FFBA01"/>
<path d="M176.673 281.048C172.667 275.168 167.96 269 167.829 261.394C170.489 268.029 173.139 274.828 176.673 281.048Z" fill="#FEDE88"/>
<path d="M172.087 198.502C172.838 196.726 173.38 194.754 174.052 192.933C186.865 175.01 176.785 190.27 172.087 198.502Z" fill="#FFBA01"/>
<path d="M312.94 179.503C310.875 177.08 306.024 174.491 304.423 171.313C308.599 172.316 310.48 176.683 312.94 179.503Z" fill="#FEDE88"/>
<path d="M314.905 182.123C315.143 182.422 318.002 184.378 320.146 187.691C327.642 199.27 317.107 186.967 314.905 182.123Z" fill="#FEDE88"/>
<path d="M290.01 161.158C287.272 159.81 274.081 154.64 281.166 155.917C282.907 156.231 288.219 160.11 290.01 161.158Z" fill="#FFBA01"/>
<path d="M290.01 161.158C293.206 162.732 296.915 163.601 299.182 166.727C295.83 165.768 292.895 162.846 290.01 161.158Z" fill="#FFBA01"/>
<path d="M214.342 313.804C219.116 314.365 222.299 317.57 216.963 315.77C216.341 315.56 213.243 314.295 214.342 313.804Z" fill="#FFBA01"/>
<path d="M200.258 305.942C200.513 306.101 201.348 305.367 205.499 308.89C204.768 310.753 201.44 306.896 200.258 305.942Z" fill="#FEDE88"/>
<path d="M314.25 290.875C314.431 290.659 316.773 287.329 317.526 286.289C317.363 286.519 317.737 286.826 314.25 290.875Z" fill="#FFBA01"/>
<path d="M314.905 182.123C314.167 181.195 313.048 179.626 312.94 179.502C313.169 179.771 315.169 180.446 314.905 182.123Z" fill="#FEDE88"/>
<path d="M324.077 195.88C324.044 195.776 321.952 195.143 323.094 193.915C324.713 193.674 323.827 195.536 324.077 195.88Z" fill="#FFBA01"/>
<path d="M298.527 305.288C298.431 305.357 298.173 306.87 296.562 306.598C297.156 306.204 297.979 305.677 298.527 305.288Z" fill="#FFEAB0"/>
<path d="M239.238 155.917C322.431 148.31 358.929 249.744 299.51 298.08C244.164 343.103 163.96 299.436 168.811 228.964C171.283 193.053 203.093 159.222 239.238 155.917Z" fill="#FFBA01"/>
<path d="M244.479 156.573C314.932 153.489 352.933 235.78 309.009 287.271C277.752 323.914 220.774 324.227 189.12 287.926C145.76 238.201 180.515 159.373 244.479 156.573Z" fill="black"/>
<path d="M242.513 171.641C251.075 167.812 250.086 189.988 243.168 186.054C242.533 185.692 240.389 172.59 242.513 171.641Z" fill="#FFBA01"/>
<path d="M274.615 176.881C274.94 176.816 280.1 179.893 280.183 180.484C280.284 181.203 273.675 191.962 271.994 191.949C265.807 191.902 273.757 177.054 274.615 176.881Z" fill="#FFBA01"/>
<path d="M250.375 171.641C258.953 167.804 255.086 185.496 254.306 186.054C247.609 190.839 248.729 172.377 250.375 171.641Z" fill="#FFBA01"/>
<path d="M215.653 180.813C216.358 180.921 223.288 192.226 223.187 192.933C223.154 193.163 219.815 195.863 219.583 195.881C218.866 195.935 210.08 185.79 210.084 185.071C210.086 184.72 215.306 180.759 215.653 180.813Z" fill="#FFBA01"/>
<path d="M299.51 235.844C300.572 235.372 308.939 236.184 311.957 235.844C313.858 236.688 312.551 242.505 312.284 242.722C311.786 243.13 300.064 241.412 299.509 241.085C298.054 240.225 298.044 236.494 299.51 235.844Z" fill="#FFBA01"/>
<path d="M266.753 174.261C266.977 174.18 271.153 175.421 271.339 175.571C273.91 177.641 264.575 196.551 262.495 187.036C262.351 186.378 266.029 174.521 266.753 174.261Z" fill="#FFBA01"/>
<path d="M271.994 279.737C273.762 279.723 280.188 289.849 280.184 290.547C280.175 291.81 275.573 294.185 275.27 294.15C274.085 294.012 265.474 279.788 271.994 279.737Z" fill="#FFBA01"/>
<path d="M237.272 172.296C240.357 172.461 243.139 187.891 237.927 187.364C236.117 187.181 229.176 171.863 237.272 172.296Z" fill="#FFBA01"/>
<path d="M196.654 243.705C197.591 243.761 198.889 243.418 199.602 244.032C205.251 248.901 187.336 252.436 186.499 251.239C186.21 250.824 184.91 245.15 186.172 245.015C189.711 245.443 196.127 243.673 196.654 243.705Z" fill="#FFBA01"/>
<path d="M309.337 227.981C310.455 228.049 312.32 227.564 312.94 228.964C317.35 238.932 291.317 234.655 298.854 229.291C299.285 228.986 308.809 227.95 309.337 227.981Z" fill="#FFBA01"/>
<path d="M185.517 237.154C189.071 237.701 201.834 234.867 199.602 241.412C199.361 242.12 186.087 244.134 185.517 243.705C185.255 243.508 183.794 237.829 185.517 237.154Z" fill="#FFBA01"/>
<path d="M214.343 271.875C214.602 271.874 217.529 274.514 217.291 276.134C217.196 276.779 209.753 286.249 209.101 286.288C208.777 286.308 204.188 282.355 204.188 282.03C204.189 281.312 213.625 271.879 214.343 271.875Z" fill="#FFBA01"/>
<path d="M230.066 174.261C231.189 174.463 237.689 189.798 231.376 189.329C228.968 189.15 221.147 172.659 230.066 174.261Z" fill="#FFBA01"/>
<path d="M283.787 271.221C284.458 271.221 293.217 280.052 293.286 280.72C293.375 281.571 289.957 284.927 289.683 284.978C287.974 285.302 280.125 275.527 280.183 274.824C280.204 274.57 283.532 271.221 283.787 271.221Z" fill="#FFBA01"/>
<path d="M266.098 282.358C268.416 282.555 272.658 294.659 271.994 295.46C271.816 295.676 267.017 297.521 266.753 297.426C265.919 297.124 260.027 281.841 266.098 282.358Z" fill="#FFBA01"/>
<path d="M222.86 176.882C223.704 177.115 231.108 192.015 225.48 191.95C223.776 191.93 217.19 181.208 217.291 180.485C217.37 179.919 222.54 176.793 222.86 176.882Z" fill="#FFBA01"/>
<path d="M259.547 284.323C261.389 284.425 265.327 296.408 265.116 297.098C264.764 298.243 258.563 299.326 257.909 298.408C257.436 297.744 254.77 284.057 259.547 284.323Z" fill="#FFBA01"/>
<path d="M237.272 284.323C244.375 281.803 240.114 299.075 239.238 299.391C238.965 299.489 233.878 298.186 233.669 297.753C233.367 297.126 236.617 284.555 237.272 284.323Z" fill="#FFBA01"/>
<path d="M218.929 276.461C219.724 276.262 223.139 278.801 223.187 279.409C223.241 280.093 216.339 290.869 215.653 290.874C215.348 290.876 210.78 287.573 210.74 287.271C210.65 286.599 218.271 276.626 218.929 276.461Z" fill="#FFBA01"/>
<path d="M297.544 248.946C298.153 248.736 309.524 251.779 309.991 252.222C310.891 253.074 309.291 257.49 309.009 257.79C307.819 259.054 296.656 254.742 296.234 254.187C295.443 253.147 296.565 249.283 297.544 248.946Z" fill="#FFBA01"/>
<path d="M281.821 181.467C283.39 181.12 287.391 184.739 287.389 185.07C287.386 185.769 279.24 195.811 278.545 195.88C278.292 195.905 274.888 193.348 274.942 192.277C274.975 191.637 281.195 181.606 281.821 181.467Z" fill="#FFBA01"/>
<path d="M278.546 275.806C279.243 275.85 287.49 285.925 287.39 286.616C287.346 286.917 282.781 290.221 282.477 290.219C281.547 290.213 274.976 280.067 274.943 279.409C274.888 278.333 278.291 275.79 278.546 275.806Z" fill="#FFBA01"/>
<path d="M202.55 191.294C203.265 191.227 212.705 200.731 212.705 201.449C212.705 201.657 209.962 204.359 209.757 204.397C208.593 204.613 198.29 196.912 198.292 196.208C198.293 195.882 202.227 191.325 202.55 191.294Z" fill="#FFBA01"/>
<path d="M258.892 172.296C259.166 172.202 264.324 173.582 264.46 173.934C264.713 174.591 260.868 187.133 260.202 187.364C253.053 189.841 258.025 172.592 258.892 172.296Z" fill="#FFBA01"/>
<path d="M231.376 282.358C231.613 282.313 235.569 284.418 235.634 284.65C235.798 285.24 232.504 291.077 232.358 296.443C220.325 300.482 230.33 282.555 231.376 282.358Z" fill="#FFBA01"/>
<path d="M197.309 198.501C197.96 198.396 207.965 205.394 208.119 206.035C208.237 206.528 206.355 210.154 205.826 210.293C205.152 210.469 193.854 204.095 193.706 203.414C193.602 202.935 196.957 198.558 197.309 198.501Z" fill="#FFBA01"/>
<path d="M193.378 205.052C194.043 204.985 204.682 211.282 204.843 211.931C206.705 219.411 190.853 212.065 190.43 211.276C189.736 209.977 192.571 205.133 193.378 205.052Z" fill="#FFBA01"/>
<path d="M205.171 262.049C206.247 261.994 208.79 265.398 208.774 265.652C208.73 266.349 198.662 274.5 197.964 274.496C197.471 274.493 194.166 269.679 194.361 268.927C194.522 268.307 204.531 262.081 205.171 262.049Z" fill="#FFBA01"/>
<path d="M298.854 242.395C305.893 244.448 315.446 241.952 311.629 249.929C311.11 251.014 292.67 248.858 298.854 242.395Z" fill="#FFBA01"/>
<path d="M292.303 261.393C292.967 261.311 303.659 267.613 303.768 268.272C303.883 268.967 300.701 273.131 300.165 273.186C299.12 273.293 283.561 262.479 292.303 261.393Z" fill="#FFBA01"/>
<path d="M288.372 266.634C289.049 266.595 299.042 274.16 299.182 274.823C299.278 275.278 295.249 279.737 294.924 279.737C294.228 279.736 284.769 270.933 284.769 270.237C284.769 269.982 288.118 266.649 288.372 266.634Z" fill="#FFBA01"/>
<path d="M294.924 255.497C295.524 255.298 306.249 259.657 306.716 260.083C307.661 260.943 309.627 270.625 293.614 260.739C291.658 260.386 294.421 255.665 294.924 255.497Z" fill="#FFBA01"/>
<path d="M189.448 212.913C190.038 212.687 200.852 217 201.24 217.499C201.949 218.41 201.534 220.902 200.913 221.758C199.601 223.564 191.034 219.228 188.137 219.465C186.089 218.972 189.105 213.045 189.448 212.913Z" fill="#FFBA01"/>
<path d="M308.682 220.12C310.753 220.115 310.637 219.904 311.63 221.758C315.49 228.965 298.42 227.75 297.872 226.999C294.996 223.053 306 220.126 308.682 220.12Z" fill="#FFBA01"/>
<path d="M243.824 285.633C250.888 282.503 247.935 299.663 247.1 300.046C246.79 300.188 241.696 299.294 241.531 299.064C241.135 298.51 243.201 285.909 243.824 285.633Z" fill="#FFBA01"/>
<path d="M224.825 279.737C225.078 279.685 228.969 281.823 229.083 282.685C229.174 283.375 224.196 294.204 222.204 294.15C221.945 294.142 218.019 292.088 217.946 291.202C217.891 290.535 224.169 279.87 224.825 279.737Z" fill="#FFBA01"/>
<path d="M202.55 256.152C211.527 257.632 194.357 267.486 193.378 267.289C192.863 267.186 190.283 262.141 190.43 261.721C190.651 261.091 201.892 256.044 202.55 256.152Z" fill="#FFBA01"/>
<path d="M199.274 250.256C202.016 250.511 202.598 253.693 201.895 254.842C201.522 255.451 190.012 260.074 189.12 259.1C188.815 258.768 187.263 254.451 188.137 253.531C188.537 253.11 198.696 250.202 199.274 250.256Z" fill="#FFBA01"/>
<path d="M304.095 204.397C304.616 204.404 307.787 209.646 307.698 209.966C307.512 210.637 295.6 215.703 294.923 215.534C294.381 215.399 292.48 211.664 292.631 211.276C292.872 210.652 303.427 204.387 304.095 204.397Z" fill="#FFBA01"/>
<path d="M209.757 267.289C210.015 267.31 213.1 270.102 212.705 271.548C212.527 272.197 203.216 280.49 202.55 280.392C202.204 280.341 198.826 275.935 198.947 275.478C199.121 274.823 209.081 267.236 209.757 267.289Z" fill="#FFBA01"/>
<path d="M208.447 186.053C209.166 186.036 218.052 196.151 217.946 196.863C217.912 197.093 214.574 199.787 214.343 199.811C213.651 199.882 204.188 191.007 204.188 190.312C204.188 190.01 208.146 186.061 208.447 186.053Z" fill="#FFBA01"/>
<path d="M250.375 285.633C255.932 281.685 256.885 298.747 256.271 299.391C256.056 299.616 250.598 300.724 250.047 299.063C250.345 297.087 249.513 286.246 250.375 285.633Z" fill="#FFBA01"/>
<path d="M187.482 220.776C188.274 220.543 202.721 223.21 199.602 228.31C199.037 229.235 186.742 227.733 186.172 227.327C185.19 226.626 185.972 221.22 187.482 220.776Z" fill="#FFBA01"/>
<path d="M307.371 212.258C309.321 212.568 310.409 217.645 309.992 218.155C309.445 218.824 293.774 224.081 295.252 217.827C295.406 217.173 306.708 212.153 307.371 212.258Z" fill="#FFBA01"/>
<path d="M294.924 191.294C295.249 191.294 299.184 195.883 299.182 196.208C299.178 196.912 288.416 204.482 287.717 204.397C287.51 204.372 284.769 201.657 284.769 201.449C284.769 200.731 294.206 191.295 294.924 191.294Z" fill="#FFBA01"/>
<path d="M289.028 186.053C289.329 186.054 293.286 190.01 293.286 190.311C293.286 191.007 283.823 199.882 283.131 199.811C275.938 199.076 288.122 186.053 289.028 186.053Z" fill="#FFBA01"/>
<path d="M300.165 197.846C300.514 197.879 303.826 202.46 303.768 202.759C303.596 203.653 288.182 213.654 289.355 206.035C289.459 205.365 299.49 197.78 300.165 197.846Z" fill="#FFBA01"/>
<path d="M186.172 228.637C186.769 228.435 198.158 230.174 198.62 230.602C204.856 236.395 185.613 235.715 184.862 235.188C183.958 234.555 185.153 228.982 186.172 228.637Z" fill="#FFBA01"/>
<path d="M303.44 279.082C304.822 278.459 304.822 281.67 303.44 281.047C302.915 280.81 302.915 279.319 303.44 279.082Z" fill="#FFBA01"/>
<path d="M311.302 203.087C311.785 202.736 313.412 203.138 312.94 204.069C312.425 205.086 309.896 204.108 311.302 203.087Z" fill="#FFBA01"/>
<path d="M308.026 273.185C308.509 272.835 310.136 273.237 309.664 274.168C309.149 275.185 306.62 274.207 308.026 273.185Z" fill="#FFBA01"/>
<path d="M308.027 197.191C310.606 195.331 308.771 199.541 308.027 199.156C307.498 198.883 307.496 197.574 308.027 197.191Z" fill="#FFBA01"/>
<path d="M209.102 294.805C209.584 294.455 211.211 294.857 210.739 295.788C210.224 296.805 207.695 295.827 209.102 294.805Z" fill="#FFBA01"/>
<path d="M194.033 278.427C194.268 278.427 195.474 279.369 194.361 280.064C193.113 280.844 192.903 278.427 194.033 278.427Z" fill="#FFBA01"/>
<path d="M283.787 173.606C284.412 173.224 285.089 173.748 284.442 174.916C283.538 176.548 282.902 174.146 283.787 173.606Z" fill="#FFBA01"/>
<path d="M292.959 289.564C293.193 289.564 294.4 290.506 293.286 291.202C292.038 291.982 291.827 289.564 292.959 289.564Z" fill="#FFBA01"/>
<path d="M317.198 252.877C317.433 252.877 318.639 253.819 317.525 254.515C316.278 255.295 316.067 252.877 317.198 252.877Z" fill="#FFBA01"/>
<path d="M179.62 217.5C180.901 217.156 180.926 219.186 180.275 219.466C180.034 219.569 178.622 217.769 179.62 217.5Z" fill="#FFBA01"/>
<path d="M304.096 191.294C304.33 191.294 305.537 192.236 304.423 192.932C303.175 193.712 302.965 191.294 304.096 191.294Z" fill="#FFBA01"/>
<path d="M319.163 238.464C320.143 238.072 320.603 239.461 319.819 239.774C318.839 240.166 318.379 238.778 319.163 238.464Z" fill="#FFBA01"/>
<path d="M178.965 245.015C179.038 245.007 180.289 245.971 179.621 246.325C177.934 247.22 177.729 245.156 178.965 245.015Z" fill="#FFBA01"/>
<path d="M318.508 245.67C319.487 245.278 319.948 246.666 319.163 246.98C318.184 247.372 317.724 245.983 318.508 245.67Z" fill="#FFBA01"/>
<path d="M182.896 259.428C182.972 259.375 183.966 260.091 183.551 260.738C182.547 262.308 182.06 260.018 182.896 259.428Z" fill="#FFBA01"/>
<path d="M314.577 260.083C315.557 259.691 316.017 261.079 315.233 261.393C314.253 261.785 313.793 260.397 314.577 260.083Z" fill="#FFBA01"/>
<path d="M286.407 294.15C287.386 293.758 287.847 295.147 287.062 295.46C286.083 295.852 285.623 294.464 286.407 294.15Z" fill="#FFBA01"/>
<path d="M243.824 164.434C243.908 164.39 245.499 165.329 245.461 165.417C244.985 166.552 242.302 165.227 243.824 164.434Z" fill="#FFBA01"/>
<path d="M258.892 164.434C258.968 164.381 259.961 165.097 259.547 165.744C258.542 167.314 258.055 165.024 258.892 164.434Z" fill="#FFBA01"/>
<path d="M237.927 165.089C238.764 165.679 238.277 167.969 237.272 166.399C236.858 165.751 237.851 165.035 237.927 165.089Z" fill="#FFBA01"/>
<path d="M266.753 165.745C266.829 165.691 267.823 166.407 267.408 167.055C266.404 168.625 265.917 166.334 266.753 165.745Z" fill="#FFBA01"/>
<path d="M319.163 231.912C320.143 231.521 320.603 232.909 319.819 233.223C318.839 233.614 318.379 232.226 319.163 231.912Z" fill="#FFBA01"/>
<path d="M231.376 166.399C232.355 166.007 232.816 167.396 232.031 167.709C231.052 168.101 230.591 166.713 231.376 166.399Z" fill="#FFBA01"/>
<path d="M312.612 266.634C313.449 267.224 312.962 269.514 311.957 267.944C311.543 267.297 312.537 266.581 312.612 266.634Z" fill="#FFBA01"/>
<path d="M177.655 231.912C178.634 231.521 179.095 232.909 178.31 233.223C177.331 233.614 176.871 232.226 177.655 231.912Z" fill="#FFBA01"/>
<path d="M224.17 168.365C225.149 167.973 225.61 169.361 224.825 169.675C223.846 170.066 223.385 168.678 224.17 168.365Z" fill="#FFBA01"/>
<path d="M279.201 170.985C280.037 171.575 279.55 173.865 278.546 172.296C278.131 171.648 279.125 170.932 279.201 170.985Z" fill="#FFBA01"/>
<path d="M208.447 176.226C208.519 176.217 209.77 177.182 209.102 177.536C207.415 178.43 207.21 176.366 208.447 176.226Z" fill="#FFBA01"/>
<path d="M289.028 177.536C290.007 177.145 290.468 178.533 289.683 178.847C288.704 179.239 288.243 177.85 289.028 177.536Z" fill="#FFBA01"/>
<path d="M265.443 303.322C265.519 303.268 266.512 303.984 266.098 304.632C265.093 306.202 264.606 303.912 265.443 303.322Z" fill="#FFBA01"/>
<path d="M203.205 180.813C204.184 180.421 204.645 181.809 203.86 182.123C202.881 182.515 202.42 181.127 203.205 180.813Z" fill="#FFBA01"/>
<path d="M259.547 304.632C260.384 305.222 259.896 307.512 258.892 305.943C258.477 305.295 259.471 304.579 259.547 304.632Z" fill="#FFBA01"/>
<path d="M189.448 273.186C189.521 273.177 190.771 274.142 190.103 274.496C188.416 275.39 188.212 273.326 189.448 273.186Z" fill="#FFBA01"/>
<path d="M298.855 186.053C298.927 186.045 300.178 187.009 299.51 187.364C297.823 188.258 297.619 186.194 298.855 186.053Z" fill="#FFBA01"/>
<path d="M192.723 191.294C192.799 191.241 193.793 191.957 193.378 192.605C192.373 194.174 191.886 191.884 192.723 191.294Z" fill="#FFBA01"/>
<path d="M185.517 203.087C186.496 202.695 186.956 204.083 186.172 204.397C185.192 204.789 184.732 203.4 185.517 203.087Z" fill="#FFBA01"/>
<path d="M182.241 210.293C182.317 210.24 183.311 210.956 182.896 211.604C181.892 213.174 181.404 210.883 182.241 210.293Z" fill="#FFBA01"/>
<path d="M314.577 210.293C315.557 209.901 316.017 211.29 315.233 211.604C314.253 211.995 313.793 210.607 314.577 210.293Z" fill="#FFBA01"/>
<path d="M177.655 238.464C179.342 237.569 179.546 239.633 178.31 239.774C178.238 239.782 176.987 238.818 177.655 238.464Z" fill="#FFBA01"/>
<path d="M197.309 186.053H197.964L198.292 186.381L197.964 186.708L197.637 187.036L197.309 187.364L196.982 187.036V186.381L197.309 186.053Z" fill="#FFBA01"/>
<path d="M203.86 290.22H204.516L204.843 290.547L204.516 290.875L204.188 291.202L203.86 291.53L203.533 291.202V290.547L203.86 290.22Z" fill="#FFBA01"/>
<path d="M251.03 305.942H251.685L252.013 306.269L251.685 306.597L251.358 306.924L251.03 307.252L250.703 306.924V306.269L251.03 305.942Z" fill="#FFBA01"/>
<path d="M294.269 181.468L294.596 181.795L294.924 182.123L295.251 182.451L294.924 182.778H294.269L293.941 182.451V181.795L294.269 181.468Z" fill="#FFBA01"/>
<path d="M251.03 164.434L251.358 164.762V165.417L251.03 165.744H250.375L250.047 165.417L250.375 165.089L250.703 164.762L251.03 164.434Z" fill="#FFBA01"/>
<path d="M318.509 225.361H319.164L319.491 225.689L319.164 226.016L318.836 226.344L318.509 226.671L318.181 226.344V225.689L318.509 225.361Z" fill="#FFBA01"/>
<path d="M317.198 218.155L317.526 218.482L317.853 218.81L318.181 219.137L317.853 219.465H317.198L316.871 219.137V218.482L317.198 218.155Z" fill="#FFBA01"/>
<path d="M185.517 267.29H186.172L186.499 267.617V268.272L186.172 268.6L185.844 268.272L185.517 267.945L185.189 267.617L185.517 267.29Z" fill="#FFBA01"/>
<path d="M216.308 298.081C216.807 298.081 216.807 300.046 216.308 300.046C215.809 300.046 215.809 298.081 216.308 298.081Z" fill="#FFBA01"/>
<path d="M298.854 284.978L299.182 285.306L299.509 285.633L299.837 285.961L299.509 286.288H298.854L298.527 285.961V285.306L298.854 284.978Z" fill="#FFBA01"/>
<path d="M198.619 285.633H199.275L199.602 285.961V286.616L199.275 286.944L198.947 286.616L198.619 286.288L198.292 285.961L198.619 285.633Z" fill="#FFBA01"/>
<path d="M223.514 302.012H224.169L224.497 302.339L224.169 302.667L223.842 302.995L223.514 303.322L223.187 302.995V302.339L223.514 302.012Z" fill="#FFBA01"/>
<path d="M271.339 302.012H271.994L272.322 302.339V302.995L271.994 303.322L271.666 302.995L271.339 302.667L271.011 302.339L271.339 302.012Z" fill="#FFBA01"/>
<path d="M273.304 169.02H273.959L274.287 169.347L273.959 169.675L273.632 170.002L273.304 170.33L272.977 170.002V169.347L273.304 169.02Z" fill="#FFBA01"/>
<path d="M188.793 197.19H189.448L189.775 197.518L189.448 197.846L189.12 198.173L188.793 198.501L188.465 198.173V197.518L188.793 197.19Z" fill="#FFBA01"/>
<path d="M230.721 303.977H231.376L231.704 304.304L231.376 304.632L231.049 304.959L230.721 305.287L230.394 304.959V304.304L230.721 303.977Z" fill="#FFBA01"/>
<path d="M237.272 304.632L237.599 304.959L237.927 305.287L238.255 305.614L237.927 305.942H237.272L236.944 305.614V304.959L237.272 304.632Z" fill="#FFBA01"/>
<path d="M180.931 252.877L181.259 253.204V253.86L180.931 254.187H180.276L179.948 253.86L180.276 253.532L180.603 253.204L180.931 252.877Z" fill="#FFBA01"/>
<path d="M243.824 305.288L244.151 305.615V306.27L243.824 306.598H243.169L242.841 306.27L243.169 305.943L243.496 305.615L243.824 305.288Z" fill="#FFBA01"/>
<path d="M279.856 298.081L280.183 298.409V299.064L279.856 299.391H279.201L278.873 299.064L279.201 298.736L279.528 298.409L279.856 298.081Z" fill="#FFBA01"/>
<path d="M245.789 188.019C292.111 185.82 314.787 244.479 278.546 273.186C243.682 300.802 191.098 269.765 202.878 222.413C207.367 204.37 227.547 188.885 245.789 188.019Z" fill="#FFBA01"/>
<path d="M245.789 189.329C284.869 187.181 309.717 231.922 286.08 263.686C266.356 290.191 223.982 287.696 208.119 258.445C192.169 229.034 212.098 191.181 245.789 189.329Z" fill="black"/>
<path d="M276.586 224.402L279.739 227.512C285.32 233.017 285.32 241.942 279.739 247.449L262.757 264.2C259.14 267.767 253.277 267.767 249.658 264.198L245.362 259.961C247.607 262.175 251.246 262.175 253.493 259.961L276.517 237.25C280.112 233.704 280.136 227.972 276.588 224.4L276.586 224.402Z" fill="url(#paint0_linear_107_8419)"/>
<path style="mix-blend-mode:color-dodge" d="M256.208 265.923C253.992 265.923 251.907 265.071 250.338 263.524L249.375 262.574H249.426C251.218 262.574 252.906 261.886 254.173 260.635L277.198 237.926C279.566 235.589 280.526 232.363 280.072 229.307C281.945 231.625 282.961 234.476 282.961 237.482C282.961 240.992 281.574 244.295 279.057 246.778L262.074 263.53C260.507 265.075 258.424 265.927 256.208 265.927V265.923Z" fill="url(#paint1_radial_107_8419)"/>
<path style="mix-blend-mode:screen" d="M262.758 264.197L259.534 267.377C253.949 272.882 244.9 272.886 239.317 267.381L227.717 255.939C224.098 252.369 224.102 246.581 227.717 243.015L231.728 239.061C231.788 238.997 231.851 238.938 231.908 238.88C231.847 238.944 231.788 239.003 231.738 239.071C230.325 240.668 229.976 242.86 230.686 244.751C230.967 245.498 231.407 246.195 232.015 246.794L249.656 264.197C253.275 267.767 259.139 267.767 262.758 264.197Z" fill="url(#paint2_linear_107_8419)"/>
<path style="mix-blend-mode:color-dodge" d="M249.424 270.556C245.865 270.556 242.519 269.19 240.002 266.707L228.401 255.265C226.833 253.718 225.971 251.664 225.971 249.475C225.971 247.289 226.835 245.233 228.401 243.688L229.35 242.752C229.342 244.454 230.004 246.157 231.334 247.469L248.976 264.87C250.909 266.775 253.477 267.826 256.21 267.826C256.712 267.826 257.209 267.791 257.697 267.721C255.352 269.559 252.466 270.556 249.424 270.556Z" fill="url(#paint3_radial_107_8419)"/>
<path d="M243.957 203L243.953 221.315C243.957 224.955 242.492 228.439 239.884 231.011L232.01 238.772C231.978 238.808 231.939 238.842 231.907 238.88L227.715 243.015C224.1 246.581 224.096 252.368 227.715 255.938L219.11 247.451C213.529 241.942 213.529 233.014 219.11 227.509L243.957 203Z" fill="url(#paint4_linear_107_8419)"/>
<path style="mix-blend-mode:color-dodge" d="M219.794 246.776C217.277 244.293 215.891 240.99 215.891 237.478C215.891 233.966 217.277 230.663 219.794 228.18L242.992 205.299V221.315C242.992 224.721 241.648 227.927 239.204 230.336L231.33 238.099C231.289 238.137 231.249 238.18 231.209 238.222L227.035 242.34C225.103 244.245 224.039 246.777 224.039 249.473C224.039 250.021 224.084 250.56 224.168 251.09L219.794 246.776Z" fill="url(#paint5_radial_107_8419)"/>
<path style="mix-blend-mode:screen" d="M276.515 237.249L266.839 246.794C268.506 245.149 268.932 242.754 268.125 240.721C267.848 240.01 267.416 239.347 266.835 238.772L259.79 231.823L254.894 248.53V203L266.677 214.625L273.233 221.096L276.586 224.403C280.134 227.973 280.108 233.707 276.515 237.251V237.249Z" fill="url(#paint6_linear_107_8419)"/>
<path style="mix-blend-mode:color-dodge" d="M269.487 242.784C269.487 241.014 268.789 239.351 267.519 238.099L259.32 230.011L255.861 241.81V205.299L265.998 215.298L275.904 225.074C279.065 228.255 279.037 233.418 275.833 236.578L269.487 242.837V242.786V242.784Z" fill="url(#paint7_radial_107_8419)"/>
<path style="mix-blend-mode:screen" d="M243.958 248.53L243.875 248.337C242.783 245.808 240.718 243.811 238.134 242.784C240.718 241.757 242.783 239.76 243.875 237.231L243.958 237.038" fill="url(#paint8_linear_107_8419)"/>
<path style="mix-blend-mode:color-dodge" d="M243.958 203L243.954 221.315C243.958 224.955 242.493 228.439 239.885 231.011L232.011 238.772C231.979 238.808 231.94 238.842 231.908 238.88L227.716 243.015C224.101 246.581 224.097 252.368 227.716 255.938C206.934 235.437 243.958 232.807 243.958 203Z" fill="url(#paint9_radial_107_8419)"/>
<path style="mix-blend-mode:color-dodge" d="M266.839 246.794C269.083 244.58 269.083 240.99 266.835 238.772L259.79 231.823L254.894 248.53V203C254.894 228.194 280.144 233.667 266.837 246.794H266.839Z" fill="url(#paint10_radial_107_8419)"/>
<path style="mix-blend-mode:multiply" d="M230.925 259.102L227.717 255.939C224.098 252.369 224.102 246.581 227.717 243.015L231.728 239.061L231.738 239.071C230.325 240.668 229.976 242.86 230.686 244.751C227.766 247.959 223.593 251.871 230.925 259.102Z" fill="url(#paint11_linear_107_8419)"/>
<path style="mix-blend-mode:multiply" d="M266.018 261.035L262.81 264.198C259.191 267.768 253.323 267.764 249.708 264.198L245.7 260.242L245.71 260.232C247.329 261.626 249.551 261.971 251.468 261.27C254.72 264.151 258.686 268.266 266.018 261.035Z" fill="url(#paint12_linear_107_8419)"/>
<path style="mix-blend-mode:multiply" d="M276.515 237.249L266.839 246.794C268.506 245.149 268.932 242.754 268.125 240.721C272.937 236.019 282.69 230.424 273.233 221.096L276.586 224.403C280.134 227.973 280.108 233.705 276.515 237.249Z" fill="url(#paint13_linear_107_8419)"/>
<defs>
<linearGradient id="paint0_linear_107_8419" x1="253.834" y1="253.1" x2="276.683" y2="240.36" gradientUnits="userSpaceOnUse">
<stop offset="0.04" stop-color="#FFBB00"/>
<stop offset="0.28" stop-color="#FF9300"/>
<stop offset="1" stop-color="#FF9E00"/>
</linearGradient>
<radialGradient id="paint1_radial_107_8419" cx="0" cy="0" r="1" gradientUnits="userSpaceOnUse" gradientTransform="translate(298.095 236.859) scale(28.1959 27.812)">
<stop stop-color="white"/>
<stop offset="0.14" stop-color="#BEBDBD"/>
<stop offset="0.31" stop-color="#7D7B7B"/>
<stop offset="0.46" stop-color="#484646"/>
<stop offset="0.58" stop-color="#231F1F"/>
<stop offset="0.69" stop-color="#0C0808"/>
<stop offset="0.75" stop-color="#040000"/>
</radialGradient>
<linearGradient id="paint2_linear_107_8419" x1="253.681" y1="268.145" x2="226.423" y2="243.309" gradientUnits="userSpaceOnUse">
<stop stop-color="#2D2D2D"/>
<stop offset="0.72"/>
<stop offset="0.98"/>
</linearGradient>
<radialGradient id="paint3_radial_107_8419" cx="0" cy="0" r="1" gradientUnits="userSpaceOnUse" gradientTransform="translate(247.01 279.633) scale(21.8518 21.5544)">
<stop stop-color="white"/>
<stop offset="0.14" stop-color="#BEBDBD"/>
<stop offset="0.31" stop-color="#7D7B7B"/>
<stop offset="0.46" stop-color="#484646"/>
<stop offset="0.58" stop-color="#231F1F"/>
<stop offset="0.69" stop-color="#0C0808"/>
<stop offset="0.75" stop-color="#040000"/>
</radialGradient>
<linearGradient id="paint4_linear_107_8419" x1="238.318" y1="213.473" x2="219.987" y2="248.354" gradientUnits="userSpaceOnUse">
<stop offset="0.04" stop-color="#FFBB00"/>
<stop offset="0.28" stop-color="#FF9300"/>
<stop offset="1" stop-color="#FF9E00"/>
</linearGradient>
<radialGradient id="paint5_radial_107_8419" cx="0" cy="0" r="1" gradientUnits="userSpaceOnUse" gradientTransform="translate(191.631 239.289) scale(44.4545 43.8494)">
<stop stop-color="white"/>
<stop offset="0.14" stop-color="#BEBDBD"/>
<stop offset="0.31" stop-color="#7D7B7B"/>
<stop offset="0.46" stop-color="#484646"/>
<stop offset="0.58" stop-color="#231F1F"/>
<stop offset="0.69" stop-color="#0C0808"/>
<stop offset="0.75" stop-color="#040000"/>
</radialGradient>
<linearGradient id="paint6_linear_107_8419" x1="259.33" y1="209.216" x2="269.469" y2="249.464" gradientUnits="userSpaceOnUse">
<stop stop-color="#2D2D2D"/>
<stop offset="0.72"/>
<stop offset="0.98"/>
</linearGradient>
<radialGradient id="paint7_radial_107_8419" cx="0" cy="0" r="1" gradientUnits="userSpaceOnUse" gradientTransform="translate(272.449 206.48) scale(24.3971 24.065)">
<stop stop-color="white"/>
<stop offset="0.14" stop-color="#BEBDBD"/>
<stop offset="0.31" stop-color="#7D7B7B"/>
<stop offset="0.46" stop-color="#484646"/>
<stop offset="0.58" stop-color="#231F1F"/>
<stop offset="0.69" stop-color="#0C0808"/>
<stop offset="0.75" stop-color="#040000"/>
</radialGradient>
<linearGradient id="paint8_linear_107_8419" x1="244.151" y1="235.915" x2="239.667" y2="250.371" gradientUnits="userSpaceOnUse">
<stop stop-color="#2D2D2D"/>
<stop offset="0.72"/>
<stop offset="0.98"/>
</linearGradient>
<radialGradient id="paint9_radial_107_8419" cx="0" cy="0" r="1" gradientUnits="userSpaceOnUse" gradientTransform="translate(197.134 249.822) scale(43.4453 42.8539)">
<stop stop-color="white"/>
<stop offset="0.14" stop-color="#BEBDBD"/>
<stop offset="0.31" stop-color="#7D7B7B"/>
<stop offset="0.46" stop-color="#484646"/>
<stop offset="0.58" stop-color="#231F1F"/>
<stop offset="0.69" stop-color="#0C0808"/>
<stop offset="0.75" stop-color="#040000"/>
</radialGradient>
<radialGradient id="paint10_radial_107_8419" cx="0" cy="0" r="1" gradientUnits="userSpaceOnUse" gradientTransform="translate(228.672 208.72) scale(54.2764 53.5375)">
<stop stop-color="white"/>
<stop offset="0.14" stop-color="#BEBDBD"/>
<stop offset="0.31" stop-color="#7D7B7B"/>
<stop offset="0.46" stop-color="#484646"/>
<stop offset="0.58" stop-color="#231F1F"/>
<stop offset="0.69" stop-color="#0C0808"/>
<stop offset="0.75" stop-color="#040000"/>
</radialGradient>
<linearGradient id="paint11_linear_107_8419" x1="228.27" y1="235.063" x2="228.588" y2="264.984" gradientUnits="userSpaceOnUse">
<stop stop-color="#A4A4A4"/>
<stop offset="1" stop-color="white" stop-opacity="0"/>
</linearGradient>
<linearGradient id="paint12_linear_107_8419" x1="241.649" y1="263.651" x2="271.982" y2="263.319" gradientUnits="userSpaceOnUse">
<stop stop-color="#A4A4A4"/>
<stop offset="1" stop-color="white" stop-opacity="0"/>
</linearGradient>
<linearGradient id="paint13_linear_107_8419" x1="261.526" y1="250.786" x2="280.768" y2="219.119" gradientUnits="userSpaceOnUse">
<stop stop-color="#A4A4A4"/>
<stop offset="1" stop-color="white" stop-opacity="0"/>
</linearGradient>
</defs>
</svg>
