<svg width="38" height="46" viewBox="0 0 38 46" fill="none" xmlns="http://www.w3.org/2000/svg">
<path d="M18.8562 13.0733C18.6101 13.1756 18.3346 13.179 18.0886 13.0763C16.5798 12.446 10.7735 10.3603 5.86239 13.2408C0.395183 16.4475 -5.37452 34.8389 10.0965 44.9834C11.2175 45.7184 12.6455 45.7896 13.8518 45.2051C16.1235 44.1047 20.5065 42.8274 25.902 45.442C26.9844 45.9667 28.2514 45.9635 29.3206 45.4125C31.7262 44.1723 35.6489 41.2306 37.1955 34.8235C37.1955 34.8235 25.418 26.2233 36.2095 15.7607C36.2095 15.7607 31.4874 7.8187 18.8562 13.0733Z" fill="white"/>
<path d="M28.9849 0.602311C28.992 0.483537 28.8913 0.382863 28.7726 0.390007C26.5201 0.523739 24.1196 1.58956 22.189 3.51987C20.2587 5.45017 19.1929 7.85089 19.059 10.1034C19.0518 10.2221 19.1525 10.3228 19.2713 10.3157C21.5237 10.182 23.9242 9.11611 25.8548 7.1858C27.7853 5.25528 28.8512 2.85455 28.9849 0.602311Z" fill="white"/>
</svg>
