<svg width="43" height="47" viewBox="0 0 43 47" fill="none" xmlns="http://www.w3.org/2000/svg">
<path d="M42.789 32.547C42.7296 32.6121 42.1275 33.1225 38.7748 31.7247C38.7417 31.3807 38.6976 31.0381 38.6426 30.6969C38.3398 28.8622 37.7317 27.0913 36.8435 25.4576C36.5371 24.8908 36.2007 24.3407 35.8359 23.8096C38.042 25.4457 40.762 27.9147 42.4086 31.0444C42.4457 31.1143 42.4841 31.1843 42.5233 31.2591C42.8268 31.8128 42.9421 32.3785 42.789 32.547Z" fill="#F9F9F9"/>
<path d="M7.35921 23.8096C6.99376 24.3404 6.65718 24.8906 6.35093 25.4576C5.46286 27.0904 4.85452 28.8604 4.55113 30.6941C4.49589 31.0353 4.45114 31.3779 4.41898 31.7227C1.0669 33.1211 0.464875 32.6093 0.405441 32.5442C0.252311 32.3757 0.367682 31.8108 0.669047 31.2577C0.707504 31.1877 0.746661 31.1136 0.784419 31.0416C2.43249 27.914 5.15316 25.445 7.35921 23.8096Z" fill="#F9F9F9"/>
<path d="M37.7481 32.2112C37.7396 32.1731 37.7354 32.1342 37.7355 32.0951C37.7348 32.0823 37.7348 32.0695 37.7355 32.0567C37.5656 29.959 36.9531 27.9208 35.9 25.9693C34.682 23.7129 33.2227 22.2564 32.6542 21.7362L32.6242 21.7089C32.6242 21.7089 32.6242 21.7089 32.62 21.7047C32.6109 21.6978 32.6023 21.6903 32.5941 21.6823C32.5158 21.6124 32.4613 21.5656 32.434 21.5425C32.3334 21.4579 32.2673 21.3394 32.2484 21.2093C32.2294 21.0792 32.2589 20.9468 32.3312 20.837C33.7203 18.7375 34.4592 16.2748 34.4554 13.7574C34.4554 6.76518 28.768 0.998703 21.7764 0.904308C21.7177 0.904308 21.6583 0.904308 21.5995 0.904308C18.2191 0.899775 14.975 2.23688 12.5796 4.62206C10.1036 7.06514 8.74085 10.3095 8.74085 13.7588C8.73637 16.2763 9.47535 18.7392 10.8651 20.8384C10.9348 20.9473 10.9628 21.0778 10.944 21.2058C10.9251 21.3338 10.8605 21.4506 10.7623 21.5348C10.7287 21.5621 10.6532 21.6264 10.5427 21.7271C9.97847 22.2424 8.515 23.701 7.29136 25.9651C6.23763 27.9173 5.62511 29.9506 5.4559 32.056C5.45922 32.1061 5.45545 32.1565 5.44471 32.2056C5.3319 33.9281 5.49573 35.6575 5.92997 37.3281C6.00036 37.6106 6.07028 37.8931 6.13974 38.1756C6.41453 39.2838 8.38145 44.679 20.5479 44.679C20.8849 44.679 21.2299 44.6748 21.5828 44.6664H21.6086C21.9582 44.6748 22.3079 44.679 22.6435 44.679C34.81 44.679 36.7769 39.2873 37.0475 38.1763L37.1111 37.9224C37.1607 37.7246 37.2097 37.526 37.26 37.3295C37.6945 35.6603 37.8593 33.9324 37.7481 32.2112ZM33.8667 40.0334C31.7516 42.4415 28.1932 43.7477 23.291 43.9141H19.9018C14.9989 43.7477 11.4412 42.4415 9.3261 40.0334C7.11935 37.5197 7.14662 34.4865 7.2599 33.2985C7.30744 32.809 7.33541 32.3546 7.3473 31.9091C7.45987 27.6131 9.44496 24.6589 11.0881 22.9367C11.996 21.9826 13.0294 21.1563 14.1598 20.4804C11.9454 16.8256 11.1399 13.7161 11.7664 11.2304C12.3132 9.05932 13.7787 8.21116 13.8403 8.1762L13.8675 8.16152C15.4359 7.39238 16.9329 7.25953 18.3167 7.77415C19.9487 8.38038 21.0248 9.74316 21.5961 10.664C22.1673 9.74316 23.2434 8.38038 24.8754 7.77415C26.2592 7.25953 27.7569 7.39028 29.3253 8.16152C29.3345 8.16572 29.3434 8.17063 29.3518 8.1762C29.4141 8.21116 30.8789 9.05932 31.4257 11.2304C32.055 13.7161 31.2474 16.8242 29.0323 20.4804C30.1627 21.1563 31.1961 21.9826 32.104 22.9367C33.7485 24.6589 35.7329 27.6131 35.8448 31.9084C35.8567 32.349 35.8854 32.8174 35.9322 33.2985C36.0462 34.4865 36.0734 37.5197 33.8667 40.0334Z" fill="#F9F9F9"/>
<path d="M15.3894 45.3789C11.2318 46.5858 7.06444 46.3229 7.0148 46.3201C5.87017 46.2431 5.49399 46.0655 5.38281 45.99C5.46252 45.8502 5.82682 45.3726 7.43363 44.5175C8.2727 44.0707 9.11666 43.6966 9.53549 43.5176C11.1465 44.3972 13.0978 45.0176 15.3894 45.3789Z" fill="#F9F9F9"/>
<path d="M37.8093 45.99C37.6995 46.0655 37.3199 46.2438 36.1773 46.3201C36.1291 46.3201 31.9652 46.5858 27.8027 45.3768C30.0906 45.0174 32.0463 44.3979 33.6566 43.5176C34.065 43.6917 34.9152 44.0686 35.7543 44.5154C37.3653 45.3719 37.7324 45.8467 37.8093 45.99Z" fill="#F9F9F9"/>
<path d="M34.8651 33.4007C34.8169 32.8945 34.7861 32.4022 34.7735 31.9366C34.6931 28.7761 33.5436 26.01 31.3585 23.7025C29.714 21.9692 28.0659 21.1665 28.0498 21.1581C27.9817 21.1254 27.9212 21.0786 27.8724 21.0209C27.8236 20.9631 27.7876 20.8957 27.7668 20.8231C27.7459 20.7504 27.7406 20.6742 27.7513 20.5993C27.762 20.5245 27.7885 20.4528 27.8289 20.3889C30.0615 16.8537 30.9509 13.7876 30.3985 11.5242C29.993 9.86425 28.9616 9.18671 28.8343 9.1077C27.5492 8.4784 26.3444 8.36652 25.2543 8.76997C23.1601 9.54401 22.098 11.9738 22.0882 11.9983C22.047 12.0941 21.9788 12.1758 21.8919 12.2334C21.8049 12.2911 21.7031 12.3221 21.5988 12.3227C21.4944 12.3222 21.3924 12.2911 21.3054 12.2334C21.2184 12.1756 21.1503 12.0936 21.1093 11.9976C21.0988 11.9738 20.0367 9.54401 17.9433 8.76997C16.8518 8.36652 15.647 8.4805 14.3618 9.1084C14.2472 9.17832 13.206 9.85516 12.7991 11.5242C12.2467 13.7876 13.1354 16.8537 15.368 20.3889C15.4085 20.4528 15.435 20.5245 15.4458 20.5993C15.4566 20.6742 15.4513 20.7505 15.4305 20.8232C15.4096 20.8958 15.3735 20.9633 15.3247 21.021C15.2758 21.0787 15.2153 21.1254 15.1471 21.1581C15.131 21.1665 13.4836 21.9692 11.8383 23.7025C9.65327 26.0037 8.50375 28.7733 8.42124 31.9338C8.40866 32.4043 8.37859 32.8833 8.32964 33.3979C8.22826 34.4468 8.20309 37.1248 10.1343 39.3252C12.0453 41.5019 15.3428 42.6815 19.9339 42.8416H23.2678C27.8596 42.685 31.1565 41.5019 33.0674 39.3252C34.9945 37.1276 34.9686 34.4503 34.8651 33.4007ZM16.077 16.3306C15.674 16.3393 15.2813 16.2025 14.9709 15.9454C14.5331 15.572 14.3276 14.97 14.4059 14.2931C14.4758 13.6848 14.766 13.0555 15.2212 12.5227C15.8701 11.7619 16.7105 11.348 17.4587 11.348C17.8613 11.3399 18.2532 11.4777 18.5621 11.7361C19.4291 12.4751 19.3193 13.9792 18.3124 15.1622C17.8572 15.6958 17.2818 16.0803 16.6923 16.246C16.492 16.3021 16.285 16.3306 16.077 16.3306ZM24.7565 19.0632L23.2252 21.0392C23.0326 21.2877 22.7857 21.4889 22.5034 21.6273C22.221 21.7657 21.9108 21.8377 21.5963 21.8377C21.2819 21.8377 20.9717 21.7657 20.6893 21.6273C20.407 21.4889 20.1601 21.2877 19.9675 21.0392L18.4369 19.0646C18.1123 18.6533 17.9383 18.1432 17.944 17.6193C17.9471 17.3598 18.0037 17.1038 18.11 16.867C18.2163 16.6303 18.3702 16.418 18.5621 16.2432C19.513 15.365 21.2415 15.3881 21.5932 15.4042C21.9428 15.3902 23.6734 15.3671 24.6243 16.2432C24.8167 16.4177 24.9711 16.63 25.0779 16.8667C25.1847 17.1034 25.2417 17.3596 25.2452 17.6193C25.2524 18.1424 25.0799 18.652 24.7565 19.0632ZM26.5891 16.2432C25.9997 16.0775 25.4242 15.693 24.969 15.1595C23.9622 13.9792 23.8503 12.4751 24.7194 11.7368C25.1571 11.3627 25.7843 11.2543 26.4402 11.4389C27.0296 11.6039 27.6051 11.9892 28.0603 12.5227C28.5155 13.0562 28.805 13.6848 28.8756 14.2931C28.9539 14.97 28.7483 15.572 28.3099 15.9454C27.9996 16.2023 27.6072 16.3391 27.2045 16.3306C26.9963 16.3297 26.7893 16.3003 26.5891 16.2432Z" fill="#F9F9F9"/>
<path d="M24.1786 17.6471C24.1789 17.9243 24.085 18.1933 23.9122 18.41L22.3809 20.3846C22.2883 20.5041 22.1695 20.6008 22.0338 20.6673C21.8981 20.7338 21.7489 20.7684 21.5977 20.7684C21.4466 20.7684 21.2974 20.7338 21.1617 20.6673C21.0259 20.6008 20.9072 20.5041 20.8146 20.3846L19.284 18.41C19.1107 18.1936 19.0167 17.9244 19.0176 17.6471C19.0166 17.5309 19.0405 17.4158 19.0876 17.3095C19.1348 17.2033 19.2041 17.1083 19.291 17.0311C19.8357 16.5263 21.0342 16.4557 21.5236 16.4717C21.5434 16.4728 21.5633 16.4728 21.5831 16.4717H21.6131C21.6327 16.4728 21.6523 16.4728 21.6719 16.4717C22.1613 16.4557 23.3598 16.5263 23.9052 17.0311C23.992 17.1084 24.0612 17.2034 24.1084 17.3096C24.1555 17.4158 24.1795 17.5309 24.1786 17.6471Z" fill="#F9F9F9"/>
<path d="M17.4987 14.465C17.1848 14.8335 16.7855 15.1062 16.4031 15.2132C16.2227 15.2642 15.887 15.3209 15.6654 15.1321C15.4437 14.9433 15.4472 14.6021 15.4682 14.4161C15.4959 14.2043 15.5578 13.9984 15.6514 13.8064C15.7524 13.5927 15.8815 13.3936 16.0353 13.2141C16.4947 12.6757 17.0491 12.4177 17.4561 12.4177C17.6045 12.4106 17.7505 12.4567 17.8679 12.5478C18.2147 12.8449 18.1476 13.7036 17.4987 14.465Z" fill="#F9F9F9"/>
<path d="M27.6165 15.1322C27.3949 15.321 27.0571 15.2643 26.8781 15.2133C26.4964 15.1063 26.0971 14.8336 25.7832 14.4651C25.1343 13.7044 25.0672 12.845 25.414 12.55C25.5291 12.459 25.673 12.4124 25.8195 12.4185C25.9319 12.4202 26.0436 12.4369 26.1517 12.4681C26.3565 12.5285 26.5501 12.6218 26.725 12.7443C26.9176 12.8778 27.092 13.0358 27.2438 13.2142C27.5585 13.5827 27.7648 14.0197 27.8109 14.4141C27.8347 14.6022 27.8382 14.9427 27.6165 15.1322Z" fill="#F9F9F9"/>
</svg>
