<svg width="462" height="293" viewBox="0 0 462 293" fill="none" xmlns="http://www.w3.org/2000/svg">
<rect opacity="0.5" width="461.335" height="293" fill="#202022"/>
<mask id="mask0_216_5861" style="mask-type:alpha" maskUnits="userSpaceOnUse" x="0" y="0" width="462" height="293">
<rect width="461.335" height="292.897" fill="#1C1C26"/>
</mask>
<g mask="url(#mask0_216_5861)">
<g opacity="0.1">
<path opacity="0.0344828" d="M286.397 18.0971C320.099 -25.035 357.802 -62.1241 391.492 -87.2206C408.343 -99.7733 424.147 -109.293 437.903 -115.074C451.736 -120.887 463.128 -122.77 471.409 -120.543C479.689 -118.317 484.694 -112.025 486.217 -102.083C487.731 -92.1966 485.754 -78.959 480.543 -63.2765C470.124 -31.9228 446.837 9.04259 413.135 52.1746C379.433 95.3067 341.73 132.396 308.04 157.492C291.189 170.045 275.384 179.565 261.628 185.345C247.795 191.158 236.403 193.04 228.123 190.814C219.842 188.587 214.837 182.297 213.314 172.355C211.8 162.468 213.778 149.231 218.989 133.548C229.408 102.195 252.695 61.2292 286.397 18.0971Z" stroke="#FEBA00" stroke-width="1.98347"/>
<path opacity="0.0689655" d="M291.429 14.7288C331.7 -26.4433 375.046 -61.4154 412.551 -84.6744C431.31 -96.308 448.563 -104.983 463.199 -110.044C470.518 -112.575 477.128 -114.183 482.904 -114.821C488.67 -115.458 493.529 -115.121 497.457 -113.822C501.385 -112.523 504.366 -110.267 506.373 -107.059C508.382 -103.847 509.384 -99.721 509.385 -94.7698C509.385 -84.8677 505.382 -71.8108 497.776 -56.4887C482.568 -25.8556 453.034 13.6841 412.763 54.8562C372.492 96.0283 329.146 131 291.641 154.259C272.882 165.893 255.629 174.567 240.993 179.628C233.674 182.159 227.064 183.768 221.287 184.405C215.521 185.042 210.663 184.705 206.735 183.406C202.807 182.107 199.825 179.851 197.819 176.644C195.809 173.431 194.808 169.305 194.807 164.354C194.807 154.452 198.809 141.395 206.416 126.073C221.623 95.4402 251.158 55.9009 291.429 14.7288Z" stroke="#FEBA00" stroke-width="1.98347"/>
<path opacity="0.103448" d="M296.923 11.5182C343.457 -27.3798 392.116 -59.9674 433.151 -81.2104C453.676 -91.8357 472.247 -99.5982 487.654 -103.901C495.358 -106.052 502.212 -107.321 508.081 -107.668C513.941 -108.014 518.714 -107.435 522.402 -105.965C526.089 -104.494 528.717 -102.122 530.231 -98.8346C531.748 -95.5433 532.119 -91.393 531.361 -86.4711C529.847 -76.6291 523.847 -63.8531 513.903 -49.0087C494.021 -19.3303 458.461 18.4813 411.928 57.3793C365.394 96.2772 316.735 128.864 275.7 150.107C255.175 160.733 236.603 168.495 221.197 172.798C213.493 174.949 206.639 176.218 200.77 176.565C194.909 176.911 190.136 176.332 186.448 174.861C182.761 173.391 180.134 171.019 178.619 167.732C177.103 164.44 176.732 160.29 177.49 155.368C179.004 145.526 185.003 132.75 194.948 117.906C214.83 88.2274 250.389 50.4162 296.923 11.5182Z" stroke="#FEBA00" stroke-width="1.98347"/>
<path opacity="0.137931" d="M302.852 8.48412C355.295 -27.8428 408.898 -57.7969 453.152 -76.861C475.286 -86.3962 495.034 -93.1862 511.093 -96.6958C519.125 -98.4512 526.172 -99.3718 532.089 -99.4242C538.003 -99.4765 542.652 -98.6627 546.071 -97.038C549.49 -95.4131 551.749 -92.9433 552.76 -89.5997C553.772 -86.2543 553.509 -82.1102 551.998 -77.2551C548.978 -67.5487 541.026 -55.1522 528.819 -40.8992C504.412 -12.4027 463.099 23.3923 410.656 59.7193C358.214 96.0461 304.61 125.999 260.357 145.063C238.222 154.599 218.475 161.39 202.416 164.899C194.383 166.655 187.336 167.574 181.419 167.627C175.505 167.679 170.856 166.865 167.437 165.24C164.018 163.616 161.759 161.146 160.748 157.802C159.736 154.457 160 150.313 161.511 145.459C164.531 135.752 172.482 123.355 184.69 109.102C209.096 80.6052 250.41 44.8109 302.852 8.48412Z" stroke="#FEBA00" stroke-width="1.98347"/>
<path opacity="0.172414" d="M309.188 5.65326C367.141 -27.8254 425.28 -54.9168 472.415 -71.6556C495.99 -80.0276 516.764 -85.7926 533.354 -88.4816C541.653 -89.8268 548.839 -90.3911 554.76 -90.1487C560.685 -89.9063 565.174 -88.866 568.301 -87.1047C571.427 -85.3434 573.308 -82.7962 573.807 -79.4198C574.307 -76.0453 573.408 -71.9398 571.154 -67.1892C566.65 -57.6928 556.807 -45.7703 542.43 -32.2177C513.683 -5.12093 466.93 28.3839 408.977 61.8626C351.024 95.3413 292.884 122.432 245.749 139.171C222.174 147.543 201.399 153.308 184.81 155.997C176.511 157.342 169.327 157.907 163.405 157.665C157.48 157.422 152.992 156.382 149.865 154.621C146.738 152.859 144.858 150.312 144.358 146.936C143.858 143.561 144.756 139.456 147.009 134.705C151.513 125.208 161.357 113.286 175.735 99.733C204.481 72.6362 251.235 39.132 309.188 5.65326Z" stroke="#FEBA00" stroke-width="1.98347"/>
<path opacity="0.206897" d="M315.9 3.04067C378.922 -27.3342 441.155 -51.3556 490.812 -65.6407C515.648 -72.7854 537.29 -77.4808 554.283 -79.3279C562.785 -80.2519 570.055 -80.4552 575.936 -79.9199C581.829 -79.3835 586.123 -78.1277 588.94 -76.2485C591.756 -74.3691 593.249 -71.7623 593.232 -68.3774C593.215 -64.9992 591.689 -60.9629 588.709 -56.3536C582.754 -47.1403 571.093 -35.7839 554.654 -23.0352C521.787 2.45434 469.948 33.4125 406.927 63.7874C343.905 94.1624 281.671 118.184 232.014 132.469C207.178 139.614 185.536 144.309 168.543 146.156C160.041 147.08 152.771 147.284 146.89 146.748C140.997 146.212 136.702 144.955 133.886 143.076C131.07 141.197 129.577 138.591 129.594 135.206C129.611 131.828 131.137 127.791 134.117 123.182C140.072 113.969 151.733 102.612 168.172 89.8637C201.039 64.3741 252.878 33.4156 315.9 3.04067Z" stroke="#FEBA00" stroke-width="1.98347"/>
<path opacity="0.241379" d="M322.949 0.660118C390.56 -26.3794 456.412 -47.1477 508.213 -58.8695C534.121 -64.7322 556.467 -68.3209 573.734 -69.311C582.372 -69.8064 589.67 -69.6468 595.467 -68.8222C601.285 -67.9947 605.353 -66.5346 607.845 -64.5548C610.337 -62.5751 611.438 -59.9287 610.902 -56.5604C610.368 -53.2039 608.225 -49.2679 604.542 -44.8353C597.181 -35.9761 583.789 -25.2732 565.414 -13.4259C528.676 10.2616 472.148 38.4376 404.537 65.4772C336.926 92.5167 271.073 113.284 219.272 125.006C193.364 130.869 171.018 134.458 153.752 135.448C145.113 135.944 137.814 135.784 132.017 134.959C126.2 134.132 122.132 132.672 119.64 130.692C117.148 128.712 116.046 126.066 116.582 122.697C117.116 119.341 119.26 115.405 122.943 110.973C130.305 102.113 143.695 91.4098 162.07 79.5625C198.809 55.8749 255.338 27.6997 322.949 0.660118Z" stroke="#FEBA00" stroke-width="1.98347"/>
<path opacity="0.275862" d="M330.296 -1.47014C401.981 -24.9679 470.951 -42.3241 524.5 -51.3926C551.282 -55.9282 574.162 -58.3824 591.569 -58.5074C600.279 -58.57 607.55 -58.0483 613.218 -56.9404C618.915 -55.8269 622.73 -54.1765 624.889 -52.1123C627.049 -50.0481 627.753 -47.3781 626.701 -44.052C625.653 -40.743 622.909 -36.9385 618.55 -32.7172C609.838 -24.2805 594.819 -14.3118 574.648 -3.45646C534.318 18.2478 473.53 43.425 401.845 66.9227C330.159 90.4206 261.189 107.777 207.64 116.845C180.858 121.381 157.979 123.835 140.571 123.96C131.861 124.023 124.59 123.501 118.922 122.393C113.225 121.28 109.411 119.629 107.251 117.565C105.092 115.501 104.387 112.831 105.439 109.505C106.486 106.196 109.232 102.391 113.591 98.1698C122.303 89.7331 137.321 79.7647 157.492 68.9093C197.822 47.2051 258.611 22.0277 330.296 -1.47014Z" stroke="#FEBA00" stroke-width="1.98347"/>
<path opacity="0.310345" d="M337.904 -3.34545C413.118 -23.1224 484.681 -36.9337 539.57 -43.2794C567.022 -46.4532 590.259 -47.7538 607.673 -47.0123C616.387 -46.6412 623.574 -45.7612 629.07 -44.3784C634.6 -42.9866 638.138 -41.1599 639.961 -39.0246C641.784 -36.8892 642.09 -34.212 640.527 -30.9547C638.974 -27.7186 635.649 -24.0745 630.647 -20.0969C620.65 -12.1479 604.118 -2.99167 582.305 6.78872C538.69 26.3438 474.106 48.3314 398.893 68.1082C323.679 87.8851 252.117 101.696 197.228 108.042C169.776 111.216 146.539 112.516 129.125 111.775C120.411 111.404 113.224 110.524 107.729 109.141C102.197 107.749 98.6588 105.922 96.8361 103.786C95.0138 101.651 94.708 98.9744 96.271 95.7173C97.8239 92.4811 101.149 88.837 106.151 84.8595C116.148 76.9105 132.68 67.7542 154.493 57.9738C198.108 38.4188 262.691 16.4314 337.904 -3.34545Z" stroke="#FEBA00" stroke-width="1.98347"/>
<path opacity="0.344828" d="M345.736 -4.95415C423.905 -20.8593 497.514 -31.0203 553.324 -34.5945C581.237 -36.3821 604.653 -36.5191 621.94 -34.9164C630.59 -34.1144 637.638 -32.8826 642.918 -31.2352C648.238 -29.5756 651.481 -27.5867 652.966 -25.3901C654.449 -23.1936 654.352 -20.5257 652.29 -17.3643C650.243 -14.226 646.362 -10.7705 640.755 -7.06746C629.551 0.332412 611.633 8.60565 588.343 17.2363C541.777 34.4927 473.89 53.1231 395.722 69.0282C317.553 84.9333 243.943 95.0935 188.133 98.6677C160.22 100.455 136.805 100.592 119.518 98.9896C110.867 98.1876 103.819 96.9558 98.5388 95.3084C93.2196 93.6489 89.9773 91.6604 88.4932 89.464C87.0091 87.2674 87.1049 84.599 89.167 81.4375C91.214 78.2992 95.0949 74.8437 100.702 71.1407C111.906 63.7408 129.825 55.4675 153.114 46.8369C199.68 29.5805 267.567 10.951 345.736 -4.95415Z" stroke="#FEBA00" stroke-width="1.98347"/>
<path opacity="0.37931" d="M353.749 -6.29038C434.277 -18.2026 509.373 -24.636 565.678 -25.4113C593.839 -25.799 617.254 -24.7703 634.28 -22.3187C642.8 -21.0918 649.653 -19.5177 654.677 -17.6187C659.74 -15.7049 662.672 -13.5691 663.816 -11.3189C664.96 -9.06864 664.458 -6.42491 661.913 -3.38568C659.388 -0.36994 654.982 2.86965 648.814 6.26928C636.488 13.0629 617.321 20.3904 592.733 27.8055C543.571 42.6314 472.897 57.7618 392.368 69.674C311.84 81.5861 236.745 88.0186 180.439 88.7939C152.279 89.1816 128.863 88.1531 111.837 85.7014C103.316 84.4745 96.4632 82.9005 91.4393 81.0015C86.3764 79.0876 83.4453 76.9517 82.3013 74.7015C81.1574 72.4513 81.6585 69.8076 84.2034 66.7684C86.7286 63.7527 91.1346 60.5131 97.3028 57.1135C109.629 50.3198 128.796 42.9922 153.384 35.5771C202.546 20.7512 273.22 5.62177 353.749 -6.29038Z" stroke="#FEBA00" stroke-width="1.98347"/>
<path opacity="0.413793" d="M361.906 -7.34681C444.181 -15.1753 520.19 -17.8315 576.561 -15.802C604.754 -14.7869 627.989 -12.6012 644.623 -9.31949C652.948 -7.67726 659.554 -5.7729 664.282 -3.63693C669.045 -1.48503 671.652 0.783599 672.453 3.08127C673.254 5.37886 672.344 7.98133 669.338 10.8724C666.355 13.7422 661.458 16.741 654.775 19.8111C641.422 25.9461 621.154 32.2712 595.455 38.4141C544.072 50.6964 471.151 62.2117 388.875 70.0402C306.6 77.8686 230.592 80.5239 174.221 78.4944C146.028 77.4793 122.792 75.2937 106.158 72.012C97.8333 70.3697 91.2274 68.4654 86.4991 66.3294C81.7359 64.1776 79.1302 61.9095 78.3294 59.612C77.5287 57.3143 78.4366 54.7113 81.4426 51.8201C84.4264 48.9503 89.3235 45.9515 96.0055 42.8814C109.359 36.7463 129.628 30.4212 155.327 24.2783C206.71 11.996 279.631 0.481628 361.906 -7.34681Z" stroke="#FEBA00" stroke-width="1.98347"/>
<path opacity="0.448276" d="M370.161 -8.11872C453.555 -11.8039 529.898 -10.6629 585.904 -5.84406C613.915 -3.43398 636.792 -0.107327 652.907 3.97907C660.971 6.02392 667.278 8.24311 671.674 10.5993C676.099 12.9707 678.367 15.3571 678.819 17.6951C679.27 20.0334 677.955 22.5787 674.514 25.2978C671.095 27.9994 665.745 30.7337 658.601 33.4506C644.324 38.88 623.108 44.155 596.495 48.979C543.283 58.624 468.67 66.4357 385.275 70.1208C301.881 73.8059 225.539 72.6649 169.534 67.8461C141.522 65.436 118.644 62.1094 102.529 58.023C94.4654 55.9782 88.1591 53.7589 83.7631 51.4027C79.3384 49.0312 77.0701 46.6443 76.6184 44.306C76.1669 41.9679 77.4825 39.4232 80.9236 36.7042C84.3425 34.0027 89.6918 31.2683 96.8358 28.5515C111.113 23.1221 132.329 17.847 158.943 13.0231C212.154 3.37807 286.766 -4.43357 370.161 -8.11872Z" stroke="#FEBA00" stroke-width="1.98347"/>
<path opacity="0.482759" d="M378.479 -8.59861C462.358 -8.11251 538.451 -3.18343 593.665 4.38753C621.279 8.17413 643.623 12.6159 659.095 17.4751C666.837 19.9066 672.796 22.4236 676.826 24.9816C680.876 27.5528 682.795 30.0432 682.89 32.4128C682.985 34.7824 681.264 37.2517 677.417 39.7771C673.589 42.2896 667.829 44.7386 660.278 47.0815C645.187 51.7637 623.188 55.9484 595.863 59.4166C541.229 66.351 465.494 70.401 381.616 69.9149C297.738 69.4288 221.643 64.4989 166.43 56.9279C138.815 53.1413 116.471 48.6996 100.999 43.8403C93.2575 41.4088 87.2986 38.8919 83.2685 36.3338C79.2179 33.7627 77.2998 31.2723 77.2051 28.9027C77.1105 26.5331 78.8303 24.0637 82.6774 21.5384C86.5049 19.0259 92.2654 16.5769 99.8164 14.234C114.907 9.55178 136.906 5.36708 164.231 1.89885C218.865 -5.03554 294.601 -9.08471 378.479 -8.59861Z" stroke="#FEBA00" stroke-width="1.98347"/>
<path opacity="0.517241" d="M386.817 -8.78554C470.541 -4.13212 545.806 4.54756 599.805 14.8125C626.814 19.9466 648.454 25.4684 663.163 31.0628C670.523 33.8619 676.088 36.657 679.722 39.397C683.368 42.1467 684.924 44.7264 684.653 47.1149C684.381 49.5034 682.263 51.878 678.042 54.1905C673.836 56.4948 667.71 58.6408 659.81 60.5919C644.023 64.4912 621.408 67.5524 593.58 69.6386C537.941 73.8098 461.661 74.0673 377.938 69.4139C294.214 64.7604 218.949 56.0799 164.949 45.8149C137.941 40.6809 116.301 35.1599 101.592 29.5655C94.2321 26.7664 88.6663 23.9705 85.0329 21.2305C81.387 18.4808 79.8316 15.9018 80.1027 13.5134C80.3739 11.1249 82.4917 8.74946 86.7127 6.43699C90.9189 4.13267 97.0458 1.98751 104.945 0.0364782C120.732 -3.86285 143.347 -6.92496 171.175 -9.01118C226.814 -13.1824 303.094 -13.439 386.817 -8.78554Z" stroke="#FEBA00" stroke-width="1.98347"/>
<path opacity="0.551724" d="M395.129 -8.67804C478.059 0.106995 551.922 12.4708 604.296 25.351C630.492 31.7932 651.262 38.3522 665.097 44.6382C672.018 47.783 677.147 50.8346 680.356 53.7355C683.572 56.6422 684.753 59.2952 684.108 61.6866C683.463 64.0778 680.956 66.3397 676.395 68.4224C671.843 70.5011 665.399 72.3267 657.213 73.8712C640.85 76.9583 617.794 78.8746 589.675 79.5632C533.456 80.9398 457.213 77.4025 374.282 68.6175C291.352 59.8325 217.489 47.4686 165.115 34.5884C138.919 28.1463 118.149 21.5872 104.314 15.3012C97.3926 12.1564 92.263 9.10482 89.0536 6.20387C85.8381 3.29731 84.6581 0.644934 85.3028 -1.74633C85.9478 -4.13769 88.4533 -6.4002 93.0147 -8.48307C97.5671 -10.5618 104.012 -12.3872 112.198 -13.9317C128.561 -17.0188 151.617 -18.9352 179.736 -19.6237C235.955 -21.0003 312.199 -17.463 395.129 -8.67804Z" stroke="#FEBA00" stroke-width="1.98347"/>
<path opacity="0.586207" d="M403.371 -8.2779C484.877 4.57143 556.775 20.5242 607.124 35.9207C632.307 43.6214 652.048 51.1677 664.902 58.0964C671.333 61.5625 675.988 64.8469 678.75 67.8868C681.513 70.9284 682.305 73.6367 681.281 76.012C680.257 78.3872 677.38 80.5172 672.513 82.3559C667.649 84.1937 660.935 85.6849 652.525 86.8114C635.713 89.0632 612.393 89.8209 584.199 89.1068C527.828 87.679 452.202 80.3755 370.697 67.5262C289.191 54.6768 217.294 38.7233 166.944 23.3268C141.761 15.626 122.02 8.07968 109.165 1.15097C102.735 -2.31503 98.0797 -5.59876 95.3182 -8.63857C92.5552 -11.6801 91.7636 -14.3885 92.7873 -16.7637C93.8112 -19.139 96.6883 -21.2689 101.555 -23.1077C106.419 -24.9454 113.133 -26.4375 121.543 -27.564C138.354 -29.8159 161.675 -30.5734 189.87 -29.8593C246.24 -28.4315 321.866 -21.1272 403.371 -8.2779Z" stroke="#FEBA00" stroke-width="1.98347"/>
<path opacity="0.62069" d="M411.499 -7.58449C490.959 9.2308 560.343 28.6503 608.284 46.4449C632.263 55.3452 650.824 63.8202 662.601 71.3379C668.492 75.0981 672.638 78.5893 674.931 81.7451C677.223 84.8993 677.616 87.6451 676.212 89.9834C674.808 92.3217 671.578 94.3009 666.442 95.8832C661.303 97.4663 654.371 98.6139 645.802 99.3143C628.671 100.714 605.264 100.308 577.209 98.197C521.118 93.9764 446.687 82.9617 367.227 66.1464C287.767 49.3312 218.384 29.9118 170.443 12.1172C146.464 3.2169 127.902 -5.25823 116.125 -12.7759C110.234 -16.5361 106.09 -20.0278 103.796 -23.1836C101.504 -26.3379 101.112 -29.0836 102.516 -31.4219C103.92 -33.7602 107.15 -35.7395 112.286 -37.3217C117.424 -38.9047 124.355 -40.052 132.923 -40.7523C150.055 -42.1525 173.462 -41.7459 201.518 -39.6348C257.609 -35.4142 332.039 -24.3997 411.499 -7.58449Z" stroke="#FEBA00" stroke-width="1.98347"/>
<path opacity="0.655172" d="M419.468 -6.61067C496.276 14.0419 562.619 36.7797 607.786 56.8358C630.377 66.8673 647.619 76.2054 658.228 84.2539C663.534 88.2789 667.14 91.9506 668.949 95.1987C670.754 98.4426 670.738 101.206 668.957 103.485C667.176 105.765 663.618 107.576 658.25 108.891C652.875 110.208 645.779 111.002 637.118 111.272C619.798 111.81 596.484 110.244 568.782 106.752C513.398 99.772 440.729 85.1319 363.92 64.4793C287.111 43.8268 220.77 21.0892 175.603 1.03315C153.012 -8.99839 135.77 -18.3365 125.16 -26.3849C119.854 -30.41 116.248 -34.0817 114.44 -37.3298C112.634 -40.5739 112.651 -43.3376 114.432 -45.617C116.213 -47.8963 119.771 -49.7073 125.139 -51.0223C130.514 -52.339 137.609 -53.1333 146.271 -53.4027C163.591 -53.9413 186.905 -52.3747 214.606 -48.8833C269.99 -41.9031 342.659 -27.2632 419.468 -6.61067Z" stroke="#FEBA00" stroke-width="1.98347"/>
<path opacity="0.689655" d="M427.227 -5.35831C500.8 18.9736 563.594 44.8551 605.643 67.0186C626.675 78.1043 642.466 88.2333 651.829 96.7503C656.511 101.009 659.551 104.833 660.86 108.15C662.168 111.46 661.737 114.221 659.587 116.419C657.437 118.617 653.576 120.244 648.014 121.283C642.443 122.323 635.237 122.759 626.549 122.596C609.174 122.27 586.131 119.556 558.994 114.712C504.74 105.026 434.386 86.8735 360.813 62.5417C287.24 38.2098 224.446 12.3277 182.398 -9.83582C161.366 -20.9215 145.576 -31.0502 136.213 -39.5672C131.531 -43.826 128.49 -47.6504 127.181 -50.9668C125.873 -54.2774 126.305 -57.0378 128.455 -59.236C130.605 -61.4343 134.465 -63.0611 140.026 -64.1C145.598 -65.1407 152.805 -65.5761 161.493 -65.4131C178.868 -65.0872 201.91 -62.3733 229.047 -57.5289C283.301 -47.8433 353.654 -29.6902 427.227 -5.35831Z" stroke="#FEBA00" stroke-width="1.98347"/>
<path opacity="0.724138" d="M434.741 -3.84551C504.517 23.9795 563.286 52.8068 601.898 76.9078C621.21 88.9625 635.43 99.8039 643.477 108.724C651.569 117.694 653.214 124.483 648.197 128.676C643.181 132.87 631.602 134.385 614.207 133.191C596.908 132.004 574.312 128.165 547.948 122.005C495.237 109.689 427.735 88.1628 357.958 60.3377C288.182 32.5127 229.413 3.68538 190.802 -20.4156C171.489 -32.4703 157.27 -43.3122 149.223 -52.2323C141.131 -61.2025 139.487 -67.9908 144.504 -72.1841C149.52 -76.3774 161.098 -77.8933 178.494 -76.6997C195.792 -75.5128 218.388 -71.673 244.752 -65.513C297.462 -53.1972 364.965 -31.6705 434.741 -3.84551Z" stroke="#FEBA00" stroke-width="1.98347"/>
<path opacity="0.758621" d="M441.966 -2.0838C507.415 29.0217 561.711 60.5735 596.592 86.4271C614.039 99.3584 626.58 110.829 633.251 120.084C639.951 129.378 640.584 136.222 634.893 140.164C629.201 144.106 617.365 145.023 600.203 142.977C583.113 140.939 561.135 136.005 535.744 128.577C484.979 113.726 420.842 88.9903 355.393 57.8847C289.944 26.7792 235.647 -4.77256 200.766 -30.6261C183.32 -43.5575 170.779 -55.0286 164.108 -64.2833C157.408 -73.5773 156.776 -80.4203 162.467 -84.3626C168.158 -88.305 179.994 -89.2223 197.156 -87.1758C214.246 -85.1379 236.223 -80.2036 261.615 -72.7756C312.38 -57.9248 376.517 -33.1893 441.966 -2.0838Z" stroke="#FEBA00" stroke-width="1.98347"/>
<path opacity="0.793103" d="M448.864 -0.0866713C509.488 34.0616 558.9 68.097 589.786 95.5052C605.234 109.214 616.004 121.226 621.251 130.745C626.513 140.293 626.121 147.14 619.795 150.794C613.469 154.449 601.471 154.759 584.668 151.878C567.916 149.006 546.725 143.014 522.5 134.376C474.066 117.104 413.781 89.3507 353.157 55.2024C292.533 21.0541 243.122 -12.9817 212.235 -40.3899C196.787 -54.0985 186.016 -66.1104 180.77 -75.6292C175.508 -85.1774 175.901 -92.0247 182.227 -95.6791C188.552 -99.3333 200.55 -99.6436 217.353 -96.7626C234.105 -93.8904 255.297 -87.899 279.522 -79.2604C327.956 -61.9891 388.24 -34.2349 448.864 -0.0866713Z" stroke="#FEBA00" stroke-width="1.98347"/>
<path opacity="0.827586" d="M455.396 2.12317C510.734 39.0533 554.886 75.3116 581.545 104.065C594.879 118.446 603.796 130.908 607.58 140.618C611.371 150.35 609.949 157.149 603.037 160.481C596.124 163.813 584.062 163.512 567.739 159.821C551.451 156.137 531.205 149.135 508.33 139.352C462.596 119.793 406.621 89.2332 351.283 52.3031C295.945 15.373 251.794 -20.8857 225.135 -49.6388C211.801 -64.02 202.883 -76.4814 199.1 -86.192C195.308 -95.9236 196.731 -102.723 203.644 -106.055C210.557 -109.387 222.618 -109.086 238.941 -105.394C255.228 -101.71 275.475 -94.7092 298.35 -84.9265C344.085 -65.3675 400.058 -34.8069 455.396 2.12317Z" stroke="#FEBA00" stroke-width="1.98347"/>
<path opacity="0.862069" d="M461.532 4.52477C511.164 43.955 549.722 82.1598 571.952 112.039C583.071 126.982 590.072 139.799 592.366 149.628C594.663 159.471 592.213 166.17 584.767 169.148C577.321 172.126 565.293 171.217 549.569 166.743C533.868 162.276 514.719 154.318 493.368 143.467C450.678 121.77 399.44 88.6368 349.807 49.2066C300.174 9.77635 261.616 -28.429 239.386 -58.3079C228.267 -73.2516 221.266 -86.068 218.972 -95.8969C216.675 -105.74 219.127 -112.439 226.573 -115.417C234.018 -118.395 246.046 -117.486 261.769 -113.013C277.47 -108.546 296.619 -100.587 317.97 -89.7359C360.66 -68.0392 411.899 -34.9055 461.532 4.52477Z" stroke="#FEBA00" stroke-width="1.98347"/>
<path opacity="0.896552" d="M467.239 7.10331C510.79 48.7333 543.463 88.5938 561.1 119.371C569.92 134.764 574.952 147.838 575.741 157.712C576.529 167.594 573.063 174.14 565.144 176.736C557.225 179.332 545.33 177.821 530.319 172.601C515.322 167.385 497.414 158.531 477.747 146.693C438.425 123.024 392.309 87.5706 348.758 45.9406C305.207 4.31067 272.534 -35.5499 254.897 -66.3272C246.077 -81.7201 241.045 -94.7943 240.256 -104.668C239.468 -114.55 242.934 -121.096 250.853 -123.692C258.772 -126.288 270.667 -124.777 285.678 -119.557C300.676 -114.341 318.583 -105.487 338.25 -93.6494C377.572 -69.9805 423.688 -34.5267 467.239 7.10331Z" stroke="#FEBA00" stroke-width="1.98347"/>
<path opacity="0.931035" d="M472.493 9.83062C509.633 53.344 536.176 94.5579 549.086 126.001C555.543 141.726 558.57 154.959 557.848 164.803C557.125 174.652 552.663 180.992 544.336 183.181C536.008 185.371 524.344 183.272 510.154 177.344C495.972 171.419 479.441 161.737 461.607 149.003C425.948 123.542 385.301 86.0362 348.161 42.5228C311.021 -0.99045 284.478 -42.2037 271.568 -73.6463C265.111 -89.3717 262.084 -102.605 262.806 -112.449C263.529 -122.298 267.991 -128.638 276.319 -130.827C284.646 -133.017 296.31 -130.918 310.5 -124.989C324.682 -119.064 341.214 -109.382 359.048 -96.6485C394.707 -71.1874 435.353 -33.6826 472.493 9.83062Z" stroke="#FEBA00" stroke-width="1.98347"/>
<path opacity="0.965517" d="M477.27 12.6855C507.719 57.7522 527.932 100.007 536.021 131.877C540.066 147.817 541.066 161.11 538.839 170.85C536.611 180.594 531.185 186.676 522.519 188.439C513.853 190.202 502.513 187.532 489.248 180.94C475.989 174.351 460.956 163.913 445.088 150.38C413.361 123.319 378.49 84.0467 348.041 38.98C317.592 -6.08661 297.38 -48.3408 289.291 -80.2113C285.246 -96.1505 284.246 -109.443 286.472 -119.183C288.7 -128.928 294.126 -135.009 302.792 -136.773C311.459 -138.536 322.798 -135.866 336.063 -129.274C349.323 -122.685 364.356 -112.247 380.224 -98.7135C411.952 -71.6528 446.821 -32.381 477.27 12.6855Z" stroke="#FEBA00" stroke-width="1.98347"/>
<path d="M481.552 15.6419C505.079 61.9205 518.811 104.896 522.018 136.955C523.622 152.988 522.588 166.241 518.874 175.805C515.159 185.372 508.807 191.146 499.875 192.467C490.944 193.788 480.021 190.57 467.778 183.363C455.539 176.159 442.117 165.045 428.334 150.813C400.776 122.357 371.945 81.6144 348.417 35.3357C324.89 -10.9427 311.159 -53.9182 307.952 -85.9767C306.348 -102.01 307.382 -115.264 311.096 -124.828C314.811 -134.395 321.163 -140.168 330.095 -141.489C339.027 -142.81 349.949 -139.593 362.192 -132.386C374.431 -125.182 387.853 -114.067 401.636 -99.8348C429.194 -71.3785 458.024 -30.6365 481.552 15.6419Z" stroke="#FEBA00" stroke-width="1.98347"/>
</g>
</g>
</svg>
