<svg width="347" height="335" viewBox="0 0 347 335" fill="none" xmlns="http://www.w3.org/2000/svg">
<g clip-path="url(#clip0_235_2719)">
<rect width="346.67" height="334.81" fill="#030200"/>
<g clip-path="url(#clip1_235_2719)">
<rect width="346.666" height="334.807" transform="translate(0 -7)" fill="url(#paint0_linear_235_2719)"/>
<path d="M132.062 221.428L131.703 221.478L132.56 17.2656L132.918 17.3164L132.062 221.428Z" fill="#392C07"/>
<path d="M157.12 217.913L156.785 217.96L157.585 20.8105L157.919 20.858L157.12 217.913Z" fill="#392C07"/>
<path d="M180.498 214.632L180.186 214.675L180.936 24.1172L181.247 24.1613L180.498 214.632Z" fill="#392C07"/>
<path d="M202.367 211.563L202.074 211.604L202.778 27.21L203.07 27.2513L202.367 211.563Z" fill="#392C07"/>
<path d="M223.517 208.595L223.242 208.633L223.903 30.2012L224.177 30.2404L223.517 208.595Z" fill="#392C07"/>
<path d="M243.339 205.813L243.082 205.849L243.703 33.0059L243.96 33.0417L243.339 205.813Z" fill="#392C07"/>
<path d="M261.96 203.2L261.719 203.234L262.304 35.6396L262.546 35.6739L261.96 203.2Z" fill="#392C07"/>
<path d="M279.484 200.741L279.256 200.772L279.809 38.1182L280.037 38.1507L279.484 200.741Z" fill="#392C07"/>
<path d="M296.002 198.423L295.787 198.453L296.31 40.4561L296.525 40.4864L296.002 198.423Z" fill="#392C07"/>
<path d="M311.603 196.233L311.4 196.262L311.896 42.6621L312.099 42.6908L311.603 196.233Z" fill="#392C07"/>
<path d="M105.07 225.217L104.684 225.271L105.602 13.4492L105.988 13.5039L105.07 225.217Z" fill="#392C07"/>
<path d="M75.9889 229.298L75.5723 229.356L76.5606 9.33594L76.9767 9.39499L75.9889 229.298Z" fill="#392C07"/>
<path d="M45.6836 5.19653L45.6858 4.73242L314.541 42.8817L314.54 43.1924L45.6836 5.19653Z" fill="#392C07"/>
<path d="M45.5059 43.0168L45.508 42.5527L314.458 68.164L314.457 68.4747L45.5059 43.0168Z" fill="#392C07"/>
<path d="M45.3301 80.8518L45.3323 80.3877L314.377 93.4522L314.376 93.7629L45.3301 80.8518Z" fill="#392C07"/>
<path d="M45.1543 118.702L45.1565 118.237L314.296 118.747L314.295 119.058L45.1543 118.702Z" fill="#392C07"/>
<path d="M44.9785 156.593L44.9807 156.128L314.216 144.074L314.215 144.385L44.9785 156.593Z" fill="#392C07"/>
<path d="M44.8008 194.499L44.8029 194.034L314.133 169.408L314.132 169.719L44.8008 194.499Z" fill="#392C07"/>
<path d="M46.8721 233.656L45.5449 233.118L55.6983 208.072L55.8302 207.958L75.7537 190.87L120.006 152.452L157.337 183.089L180.393 165.767L202.054 118.857L205.942 87.4098L224.403 95.8757L244.004 108.082L261.914 90.9676L268.831 63.7289L296.666 48.0586L297.369 49.3063L270.068 64.6759L263.202 91.7187L244.191 109.885L223.685 97.1157L207.123 89.5267L203.447 119.255L203.4 119.356L181.542 166.696L157.299 184.909L120.032 154.326L76.689 191.955L56.8947 208.931L46.8721 233.656Z" fill="#654B05"/>
<path d="M45.6821 232.386L44.4531 231.651L68.2819 191.783L75.9118 153.848L119.037 186.696L131.611 151.845L157.059 141.628L181.079 130.012L202.39 138.172L215.312 117.927L223.73 125.821L243.499 89.3265L269.097 90.5692L278.841 64.0938L297.154 73.3207L296.509 74.5993L279.63 66.0953L270.078 92.051L244.329 90.8005L224.105 128.136L215.591 120.152L202.969 139.927L181.145 131.571L157.637 142.937L132.74 152.935L119.721 189.018L76.8648 156.374L69.6378 192.307L45.6821 232.386Z" fill="#1F1301"/>
<path d="M45.311 233.766L43.9336 233.373L66.2857 155.157L75.8039 80.1394L105.498 117.587L132.668 106.246L157.097 112.325L172.716 85.6546L194.858 118.167L243.247 166.7L248.193 147.008L279.343 132.18L287.091 92.1973L307.552 67.3652L308.657 68.2758L288.428 92.827L280.611 133.163L249.417 148.012L244.02 169.503L193.712 119.028L172.808 88.3327L157.791 113.973L132.782 107.75L105.05 119.326L76.7967 83.6955L67.6918 155.446L67.6774 155.498L45.311 233.766Z" fill="#FEBA00"/>
<path d="M44.6833 235.18L41.7695 235.593L42.8319 8.42676L45.7379 8.82464L44.6833 235.18Z" fill="#615533"/>
<path d="M38.6016 7.86345L49.904 9.40973L44.3281 0.910156L38.6016 7.86345Z" fill="black"/>
<path d="M41.7695 235.206L41.7839 232.2L314.525 194.586L314.518 196.587L41.7695 235.206Z" fill="#615533"/>
<path d="M79.0223 155.256C79.0146 156.977 77.7105 158.436 76.1035 158.516C74.4899 158.596 73.1837 157.256 73.1914 155.522C73.1992 153.788 74.5186 152.328 76.1317 152.261C77.7387 152.194 79.03 153.535 79.0223 155.256Z" fill="#1F1301"/>
<path d="M77.9927 155.3C77.9877 156.414 77.1434 157.357 76.1042 157.407C75.0623 157.457 74.2197 156.591 74.2246 155.472C74.2296 154.353 75.0806 153.41 76.1225 153.365C77.1611 153.32 77.9976 154.187 77.9927 155.3Z" fill="white"/>
<path d="M134.675 152.716C134.669 154.314 133.545 155.665 132.161 155.733C130.771 155.802 129.646 154.554 129.652 152.945C129.659 151.337 130.795 149.985 132.185 149.928C133.569 149.87 134.682 151.119 134.675 152.716Z" fill="#1F1301"/>
<path d="M133.791 152.754C133.786 153.787 133.059 154.66 132.164 154.703C131.266 154.747 130.541 153.94 130.545 152.902C130.549 151.863 131.282 150.99 132.179 150.951C133.075 150.913 133.795 151.72 133.791 152.754Z" fill="white"/>
<path d="M121.786 187.37C121.78 188.997 120.615 190.426 119.181 190.564C117.741 190.702 116.575 189.487 116.582 187.849C116.589 186.211 117.766 184.78 119.206 184.653C120.64 184.528 121.793 185.744 121.786 187.37Z" fill="#1F1301"/>
<path d="M120.869 187.453C120.864 188.505 120.111 189.43 119.183 189.517C118.253 189.605 117.501 188.82 117.506 187.762C117.51 186.705 118.27 185.781 119.199 185.697C120.127 185.615 120.873 186.4 120.869 187.453Z" fill="white"/>
<path d="M79.1417 82.0354C79.134 83.7555 77.8305 85.0921 76.2241 85.0204C74.611 84.9486 73.3048 83.4851 73.3125 81.7523C73.3203 80.0195 74.6392 78.6835 76.2517 78.7685C77.8581 78.8529 79.1494 80.3153 79.1417 82.0354Z" fill="#FEBA00"/>
<path d="M78.1166 81.9829C78.1116 83.096 77.2673 83.9596 76.2287 83.9116C75.1874 83.8636 74.3447 82.9183 74.3496 81.7997C74.3546 80.6811 75.205 79.818 76.2469 79.8715C77.2855 79.9245 78.1215 80.8698 78.1166 81.9829Z" fill="white"/>
<path d="M107.848 117.73C107.841 119.387 106.632 120.732 105.142 120.733C103.647 120.735 102.436 119.384 102.443 117.715C102.451 116.046 103.673 114.702 105.168 114.712C106.658 114.722 107.855 116.073 107.848 117.73Z" fill="#FEBA00"/>
<path d="M106.896 117.726C106.891 118.798 106.108 119.667 105.145 119.667C104.179 119.667 103.398 118.793 103.402 117.716C103.407 116.64 104.195 115.77 105.161 115.775C106.125 115.78 106.9 116.653 106.896 117.726Z" fill="white"/>
<path d="M159.543 113.284C159.537 114.826 158.489 116.071 157.198 116.064C155.903 116.058 154.855 114.793 154.861 113.24C154.867 111.688 155.926 110.443 157.222 110.46C158.511 110.478 159.549 111.742 159.543 113.284Z" fill="#FEBA00"/>
<path d="M158.717 113.273C158.713 114.271 158.035 115.076 157.2 115.07C156.364 115.065 155.688 114.247 155.691 113.245C155.695 112.243 156.378 111.438 157.215 111.448C158.049 111.459 158.721 112.276 158.717 113.273Z" fill="white"/>
<path d="M174.662 87.0615C174.656 88.5703 173.653 89.7496 172.418 89.6949C171.179 89.6403 170.176 88.365 170.182 86.8463C170.188 85.3276 171.2 84.1494 172.44 84.2134C173.675 84.2785 174.668 85.5533 174.662 87.0615Z" fill="#FEBA00"/>
<path d="M173.874 87.0221C173.87 87.9983 173.221 88.7598 172.422 88.724C171.621 88.6875 170.975 87.8636 170.979 86.8835C170.982 85.9035 171.636 85.1419 172.436 85.1822C173.234 85.2219 173.877 86.0458 173.874 87.0221Z" fill="white"/>
<path d="M245.017 167.849C245.012 169.202 244.206 170.366 243.213 170.448C242.217 170.53 241.411 169.493 241.416 168.132C241.421 166.77 242.234 165.607 243.231 165.532C244.223 165.458 245.022 166.496 245.017 167.849Z" fill="#FEBA00"/>
<path d="M244.382 167.898C244.379 168.773 243.857 169.525 243.215 169.577C242.571 169.63 242.051 168.959 242.055 168.081C242.058 167.202 242.583 166.45 243.226 166.401C243.868 166.351 244.385 167.022 244.382 167.898Z" fill="white"/>
<path d="M121.933 152.874C121.926 154.5 120.762 155.875 119.329 155.945C117.889 156.016 116.724 154.746 116.73 153.109C116.738 151.471 117.914 150.096 119.353 150.037C120.788 149.978 121.94 151.248 121.933 152.874Z" fill="#654B05"/>
<path d="M121.016 152.914C121.012 153.966 120.258 154.854 119.331 154.899C118.402 154.943 117.649 154.122 117.654 153.065C117.659 152.009 118.418 151.12 119.347 151.08C120.274 151.041 121.021 151.862 121.016 152.914Z" fill="white"/>
<path d="M159.262 182.936C159.256 184.479 158.207 185.829 156.915 185.952C155.619 186.074 154.57 184.914 154.576 183.36C154.582 181.806 155.642 180.455 156.938 180.343C158.23 180.232 159.269 181.392 159.262 182.936Z" fill="#654B05"/>
<path d="M158.436 183.008C158.432 184.007 157.754 184.88 156.918 184.958C156.081 185.035 155.404 184.286 155.408 183.283C155.412 182.28 156.096 181.407 156.933 181.333C157.768 181.26 158.44 182.01 158.436 183.008Z" fill="white"/>
<path d="M182.87 165.801C182.864 167.292 181.886 168.571 180.681 168.658C179.471 168.746 178.492 167.601 178.498 166.1C178.504 164.599 179.493 163.319 180.702 163.241C181.907 163.164 182.876 164.31 182.87 165.801Z" fill="#654B05"/>
<path d="M182.099 165.851C182.095 166.816 181.462 167.643 180.682 167.698C179.902 167.753 179.27 167.013 179.273 166.044C179.277 165.075 179.915 164.248 180.696 164.197C181.475 164.146 182.103 164.887 182.099 165.851Z" fill="white"/>
<path d="M207.649 88.2753C207.644 89.7112 206.736 90.8348 205.618 90.7846C204.496 90.7344 203.588 89.523 203.594 88.0783C203.599 86.6336 204.516 85.5106 205.638 85.5696C206.755 85.6281 207.655 86.8394 207.649 88.2753Z" fill="#654B05"/>
<path d="M206.934 88.2384C206.93 89.1672 206.342 89.8934 205.619 89.8598C204.895 89.8267 204.309 89.0436 204.313 88.111C204.316 87.1783 204.907 86.4527 205.632 86.4896C206.355 86.5266 206.938 87.3097 206.934 88.2384Z" fill="white"/>
<path d="M245.228 109.193C245.223 110.546 244.417 111.632 243.425 111.618C242.43 111.605 241.624 110.492 241.629 109.131C241.634 107.77 242.447 106.684 243.442 106.705C244.434 106.727 245.232 107.841 245.228 109.193Z" fill="#654B05"/>
<path d="M244.593 109.18C244.59 110.055 244.068 110.757 243.427 110.747C242.784 110.738 242.265 110.018 242.268 109.14C242.271 108.261 242.795 107.56 243.438 107.572C244.08 107.585 244.596 108.305 244.593 109.18Z" fill="white"/>
<path d="M297.996 48.8764C297.992 50.112 297.32 51.0314 296.492 50.9293C295.661 50.8272 294.99 49.7373 294.994 48.4951C294.998 47.2529 295.676 46.3346 296.507 46.4433C297.335 46.5515 298 47.6408 297.996 48.8764Z" fill="#654B05"/>
<path d="M297.468 48.8072C297.465 49.6063 297.029 50.2007 296.494 50.1339C295.958 50.0671 295.525 49.363 295.527 48.5611C295.53 47.7593 295.968 47.1655 296.504 47.235C297.039 47.304 297.47 48.0082 297.468 48.8072Z" fill="white"/>
<path d="M281.08 132.506C281.076 133.779 280.362 134.83 279.483 134.853C278.602 134.876 277.888 133.857 277.893 132.576C277.897 131.296 278.617 130.245 279.498 130.229C280.378 130.213 281.084 131.232 281.08 132.506Z" fill="#FEBA00"/>
<path d="M280.517 132.516C280.514 133.34 280.052 134.019 279.483 134.033C278.914 134.048 278.454 133.389 278.457 132.562C278.46 131.735 278.924 131.056 279.494 131.045C280.062 131.034 280.519 131.693 280.517 132.516Z" fill="white"/>
<path d="M288.898 92.2191C288.894 93.4751 288.199 94.4624 287.344 94.4243C286.487 94.3862 285.793 93.3311 285.797 92.0684C285.801 90.8058 286.502 89.8185 287.359 89.8638C288.215 89.9091 288.903 90.9631 288.898 92.2191Z" fill="#FEBA00"/>
<path d="M288.352 92.1914C288.349 93.0037 287.899 93.6417 287.346 93.6163C286.792 93.5909 286.345 92.9094 286.348 92.0937C286.35 91.2787 286.802 90.6407 287.356 90.6689C287.909 90.6976 288.355 91.3791 288.352 92.1914Z" fill="white"/>
<path d="M217.137 118.934C217.131 120.348 216.25 121.498 215.164 121.501C214.075 121.503 213.194 120.352 213.199 118.929C213.205 117.505 214.095 116.356 215.184 116.361C216.269 116.367 217.142 117.519 217.137 118.934Z" fill="#1F1301"/>
<path d="M216.441 118.931C216.438 119.846 215.867 120.589 215.165 120.59C214.462 120.591 213.893 119.846 213.896 118.927C213.9 118.009 214.474 117.266 215.177 117.269C215.879 117.271 216.444 118.016 216.441 118.931Z" fill="white"/>
<path d="M225.459 126.625C225.454 128.021 224.595 129.166 223.537 129.182C222.476 129.198 221.618 128.072 221.623 126.667C221.629 125.262 222.495 124.117 223.556 124.109C224.614 124.102 225.464 125.229 225.459 126.625Z" fill="#1F1301"/>
<path d="M224.783 126.631C224.78 127.534 224.224 128.274 223.54 128.283C222.855 128.292 222.301 127.564 222.305 126.657C222.308 125.75 222.868 125.01 223.552 125.005C224.236 124.999 224.786 125.727 224.783 126.631Z" fill="white"/>
<path d="M279.948 65.2106C279.944 66.4859 279.227 67.4555 278.345 67.3755C277.459 67.2954 276.744 66.1901 276.748 64.9076C276.752 63.6251 277.475 62.6561 278.361 62.7438C279.242 62.831 279.952 63.9352 279.948 65.2106Z" fill="#1F1301"/>
<path d="M279.383 65.1563C279.38 65.9813 278.916 66.6077 278.345 66.5553C277.774 66.5028 277.312 65.7888 277.314 64.9604C277.317 64.1321 277.784 63.5063 278.355 63.562C278.926 63.6172 279.386 64.3313 279.383 65.1563Z" fill="white"/>
<path d="M204.397 138.389C204.392 139.833 203.474 141.032 202.345 141.069C201.212 141.106 200.295 139.959 200.301 138.506C200.306 137.054 201.232 135.854 202.366 135.827C203.494 135.799 204.403 136.946 204.397 138.389Z" fill="#1F1301"/>
<path d="M203.675 138.408C203.672 139.342 203.078 140.117 202.347 140.14C201.616 140.163 201.024 139.422 201.027 138.484C201.031 137.546 201.628 136.771 202.36 136.752C203.091 136.733 203.679 137.475 203.675 138.408Z" fill="white"/>
<g style="mix-blend-mode:hue">
<rect x="-8.20508" y="-52.5068" width="385.742" height="320.624" fill="#FEBA00"/>
</g>
</g>
</g>
<defs>
<linearGradient id="paint0_linear_235_2719" x1="173.333" y1="0" x2="173.333" y2="334.807" gradientUnits="userSpaceOnUse">
<stop stop-color="#00041F"/>
<stop offset="1" stop-color="#00041F" stop-opacity="0"/>
</linearGradient>
<clipPath id="clip0_235_2719">
<rect width="346.67" height="334.81" fill="white"/>
</clipPath>
<clipPath id="clip1_235_2719">
<rect width="346.666" height="334.807" fill="white" transform="translate(0 -7)"/>
</clipPath>
</defs>
</svg>
