<svg width="70" height="70" viewBox="0 0 70 70" fill="none" xmlns="http://www.w3.org/2000/svg">
<g clip-path="url(#clip0_216_8205)">
<path d="M54.0818 33.0485L62.978 27.889C63.4389 27.6355 63.6771 27.2775 63.6771 26.9346L63.8257 39.9209C63.8257 40.2787 63.5878 40.6366 63.1116 40.92L54.2158 46.0646C53.7292 46.3434 53.0874 46.4702 52.45 46.4594L52.3887 33.4502C52.9974 33.449 53.6079 33.3157 54.0818 33.0485Z" fill="white"/>
<path d="M41.8398 27.8892L50.6912 33.0488C51.1619 33.3184 51.775 33.4517 52.3895 33.4505L52.4509 46.4597C51.8614 46.4496 51.2752 46.3229 50.8249 46.0649L41.9738 40.9053C41.5125 40.6369 41.2746 40.279 41.2746 39.9361L41.1406 26.9199C41.1406 27.263 41.3789 27.6208 41.8398 27.8892Z" fill="#454544"/>
<path d="M41.8472 25.9219C40.9068 26.4662 40.9019 27.3457 41.8361 27.8899L50.6871 33.046C51.6213 33.5902 53.136 33.5903 54.0764 33.046L62.9756 27.8955C63.916 27.3513 63.9209 26.4718 62.9868 25.9276L54.1358 20.7714C53.2016 20.2272 51.6869 20.2272 50.7465 20.7715L41.8472 25.9219Z" fill="white"/>
<path d="M52.5254 46.96C52.4971 46.96 52.4697 46.96 52.4414 46.9595C52.1699 46.9546 51.9512 46.7339 51.9502 46.4619L51.8887 33.4526C51.8877 33.3198 51.9404 33.1919 52.0342 33.0977C52.1279 33.0034 52.2549 32.9502 52.3877 32.9502C52.9375 32.9492 53.4512 32.8301 53.834 32.6143L62.7276 27.4565C63.0625 27.2725 63.1777 27.0674 63.1777 26.9346C63.1777 26.6597 63.3994 26.436 63.6748 26.4346H63.6777C63.9512 26.4346 64.1748 26.6548 64.1777 26.9287L64.3262 39.915C64.3262 40.4741 63.9863 40.9814 63.3682 41.3496L54.4658 46.4976C53.9424 46.7974 53.2568 46.96 52.5254 46.96ZM52.8906 33.9224L52.9473 45.9365C53.3389 45.8921 53.6953 45.7866 53.9678 45.6309L62.8623 40.4873C63.1553 40.3125 63.3262 40.105 63.3262 39.9209L63.1934 28.3423L54.333 33.481C54.3311 33.4819 54.3301 33.4829 54.3281 33.4839C53.9229 33.7129 53.4248 33.8638 52.8906 33.9224Z" fill="#171715"/>
<path d="M52.4502 46.9595C52.4473 46.9595 52.4443 46.9595 52.4414 46.9595C51.7354 46.9473 51.0732 46.7837 50.5762 46.499L41.7217 41.3374C41.1201 40.9873 40.7744 40.4766 40.7744 39.936L40.6406 26.9424C40.6406 26.9346 40.6406 26.9272 40.6406 26.9199C40.6406 26.645 40.8633 26.4214 41.1377 26.4199H41.1406C41.415 26.4199 41.6377 26.6406 41.6406 26.9146V26.9263C41.6445 27.0591 41.7646 27.2666 42.0918 27.457L50.9424 32.6162C51.3115 32.8281 51.8359 32.9502 52.3789 32.9502H52.3877C52.6631 32.9502 52.8877 33.1724 52.8887 33.4478L52.9502 46.457C52.9512 46.5918 52.8975 46.7207 52.8018 46.8154C52.708 46.9077 52.582 46.9595 52.4502 46.9595ZM41.6553 28.3604L41.7744 39.9307C41.7744 40.0688 41.8926 40.2798 42.2246 40.4731L51.0762 45.6328C51.3115 45.7681 51.6113 45.8647 51.9473 45.917L51.8906 33.9248C51.3506 33.8672 50.8477 33.7153 50.4414 33.4819L41.6553 28.3604Z" fill="#171715"/>
<path d="M52.3799 33.9535C51.6787 33.9535 50.9795 33.7948 50.4355 33.4779L41.584 28.3217C40.9736 27.9662 40.6387 27.4642 40.6387 26.9086C40.6396 26.3588 40.9893 25.8412 41.5967 25.4891L50.4971 20.3387C51.5918 19.7035 53.3008 19.7059 54.3877 20.3392L63.2393 25.4955C63.8496 25.851 64.1846 26.3529 64.1846 26.9086C64.1836 27.4584 63.834 27.976 63.2266 28.328L54.3262 33.4784C53.7793 33.7953 53.0791 33.9535 52.3799 33.9535ZM42.0977 26.3544C41.8066 26.5233 41.6396 26.726 41.6387 26.91C41.6387 27.0917 41.8027 27.2914 42.0879 27.4574L50.9395 32.6136C51.7168 33.0682 53.04 33.0677 53.8252 32.6132L62.7256 27.4628C63.0166 27.2938 63.1836 27.0912 63.1846 26.9071C63.1846 26.7255 63.0205 26.5258 62.7354 26.3597L53.8838 21.2035C53.1055 20.7489 51.7822 20.7494 50.998 21.204L42.0977 26.3544Z" fill="#171715"/>
<path d="M63.561 4.05624C61.7325 2.99305 59.1941 3.14172 56.3997 4.75901C50.8378 7.98002 46.3451 15.7826 46.363 22.1886C46.3719 25.3736 47.4906 27.6125 49.3012 28.6667L46.5237 27.0492C44.7176 25.9951 43.5989 23.7561 43.5899 20.5757C43.5674 14.1697 48.0601 6.36259 53.6221 3.14606C56.4211 1.5243 58.9549 1.37563 60.788 2.44329L63.561 4.05624Z" fill="white"/>
<path d="M63.5357 20.4555C67.4627 13.6539 67.4568 6.29869 63.5225 4.02715C59.5881 1.7556 53.2153 5.42793 49.2882 12.2295C45.3612 19.0311 45.3671 26.3864 49.3015 28.6579C53.2358 30.9295 59.6086 27.2571 63.5357 20.4555Z" fill="white"/>
<path d="M66.4974 10.5304C66.5191 16.939 62.0246 24.7454 56.4639 27.9605C50.9033 31.1799 46.3787 28.5966 46.3614 22.188C46.3571 20.8552 46.5513 19.4575 46.9097 18.0555C47.8725 18.5228 48.9518 18.7868 50.0959 18.7868C54.1283 18.7868 57.3921 15.5154 57.3921 11.4737C57.3921 9.21928 56.3733 7.20277 54.7716 5.86135C55.3026 5.45025 55.8466 5.08245 56.3992 4.76221C61.9556 1.54278 66.4802 4.12612 66.4974 10.5304Z" fill="#E8EBFE"/>
<path d="M56.4068 8.43318C60.2018 6.23621 63.2983 8.0056 63.3106 12.3781C63.323 16.7507 60.2466 22.0937 56.4517 24.2907C52.6596 26.486 49.5632 24.7166 49.5508 20.344C49.5385 15.9715 52.6148 10.6285 56.4068 8.43318Z" fill="#FFD667"/>
<path d="M63.3122 12.3776C63.3251 16.7524 60.2468 22.0922 56.4518 24.2905C52.6612 26.4844 49.5657 24.7145 49.5527 20.344C49.5527 20.1147 49.5614 19.8767 49.5787 19.643C50.1917 19.8291 50.8436 19.9286 51.5215 19.9286C55.2559 19.9286 58.2824 16.8952 58.2824 13.1565C58.2824 11.3261 57.5614 9.66444 56.3785 8.44849C56.3871 8.44416 56.4001 8.4355 56.4087 8.43117C60.2037 6.23726 63.2992 8.00711 63.3122 12.3776Z" fill="#D7AB33"/>
<path d="M49.3018 29.1669C49.2159 29.1669 49.129 29.1449 49.0499 29.099L46.2725 27.4818C44.2306 26.2899 43.0997 23.8378 43.0899 20.5775C43.0665 14.0194 47.6798 6.00575 53.3722 2.71376C56.2403 1.05068 58.9659 0.804094 61.0401 2.01161L63.8126 3.62441C64.0518 3.76308 64.1329 4.06923 63.9942 4.308C63.8546 4.54726 63.547 4.62587 63.3106 4.48866C61.5577 3.47011 59.1944 3.72011 56.6505 5.19179C51.2374 8.32704 46.8458 15.9511 46.8634 22.1874C46.8712 25.0785 47.8243 27.225 49.5479 28.2313L49.5538 28.2348C49.7921 28.3739 49.8731 28.6801 49.7335 28.9184C49.6407 29.078 49.4737 29.1669 49.3018 29.1669ZM58.1358 2.25771C56.839 2.25771 55.3878 2.70107 53.8731 3.579C48.4561 6.71132 44.0684 14.3353 44.0899 20.5741C44.0987 23.4657 45.0528 25.6122 46.7765 26.6181L46.7911 26.6264C46.1876 25.4198 45.8683 23.9184 45.8634 22.1903C45.8458 15.6351 50.46 7.62148 56.1495 4.32656C57.6817 3.43984 59.1729 2.95546 60.546 2.88124L60.5372 2.87587C59.8272 2.46279 59.0177 2.25771 58.1358 2.25771Z" fill="#171715"/>
<path d="M51.9463 29.8514C50.9034 29.8514 49.9346 29.6068 49.0762 29.1136C47.0137 27.9281 45.8731 25.47 45.8633 22.1917C45.8458 15.6351 50.459 7.62142 56.1485 4.32796C59.0049 2.67513 61.7178 2.42073 63.7872 3.61019C65.8497 4.79573 66.9913 7.25374 67 10.5311C67.0186 17.0867 62.4053 25.1004 56.7159 28.3949C55.043 29.3626 53.42 29.8514 51.9463 29.8514ZM60.9131 3.87288C59.6163 3.87288 58.1651 4.31624 56.6504 5.19319C51.2364 8.32747 46.8458 15.9515 46.8633 22.1888C46.8721 25.095 47.835 27.2464 49.5752 28.2464C51.3233 29.2518 53.6807 28.9959 56.2149 27.5296C61.628 24.3949 66.0186 16.7708 66 10.534C65.9922 7.62874 65.0293 5.47737 63.2891 4.47737C62.586 4.07356 61.7842 3.87288 60.9131 3.87288Z" fill="#171715"/>
<path d="M53.3721 25.7375C52.6309 25.7375 51.9414 25.5627 51.3291 25.2106C49.8662 24.3703 49.0576 22.6427 49.0508 20.3459C49.0391 15.8141 52.2266 10.276 56.1563 8.00064C58.1553 6.84244 60.0645 6.66861 61.5342 7.51285C62.9961 8.35318 63.8047 10.0807 63.8106 12.3771C63.8233 16.9084 60.6348 22.4469 56.7032 24.7238C55.5391 25.3976 54.4053 25.7375 53.3721 25.7375ZM56.6582 8.86587C53.003 10.9816 50.0391 16.13 50.0508 20.3429C50.0567 22.2677 50.6875 23.6886 51.8272 24.3439C52.9737 25.0011 54.5264 24.8283 56.2012 23.8585C59.8584 21.7414 62.8233 16.5919 62.8106 12.38C62.8057 10.4557 62.1748 9.03482 61.0352 8.38003C59.8916 7.72281 58.336 7.89517 56.6582 8.86587Z" fill="#FEBA00"/>
<path d="M58.6299 15.739C58.8338 15.9154 58.9392 16.2405 58.9406 16.7175C58.9417 17.1092 58.8521 17.5155 58.6691 17.9409C58.4861 18.3632 58.2289 18.7651 57.8919 19.1499C57.5549 19.5347 57.1655 19.8675 56.7238 20.1515L56.726 20.9382C56.7263 21.0361 56.699 21.131 56.6443 21.2259C56.5924 21.3161 56.5183 21.3906 56.4306 21.4413C56.3455 21.4905 56.2768 21.5018 56.2217 21.4735C56.1667 21.4484 56.139 21.3821 56.1387 21.2779L56.1365 20.4912C55.4448 20.8407 54.7966 21.0416 54.1921 21.097C54.1151 21.1035 54.0518 21.08 53.9995 21.0248C53.9498 20.9681 53.9221 20.8924 53.9219 20.7976C53.9215 20.6712 53.9596 20.5416 54.0334 20.4071C54.1045 20.2711 54.2005 20.1713 54.3157 20.1046C54.3788 20.0681 54.442 20.0442 54.4997 20.0425C55.0191 20.0079 55.5629 19.842 56.1338 19.5403L56.1266 16.994C55.6899 17.1137 55.3245 17.1794 55.0249 17.1977C54.7253 17.2159 54.4778 17.1408 54.2766 16.9723C54.0782 16.8023 53.9784 16.4993 53.9772 16.0633C53.9761 15.6779 54.0574 15.2764 54.2184 14.8574C54.3821 14.4399 54.6256 14.0269 54.9489 13.6279C55.2693 13.2274 55.6613 12.8709 56.1141 12.5647L56.1119 11.7875C56.1116 11.6928 56.1388 11.5947 56.1935 11.4967C56.2482 11.3986 56.3167 11.3273 56.4018 11.2781C56.4841 11.2305 56.5556 11.2208 56.6134 11.2538C56.6712 11.2868 56.6989 11.3531 56.6991 11.4478L56.7013 12.2124C57.3298 11.8805 57.8872 11.6783 58.3763 11.6106C58.5577 11.5785 58.6459 11.6761 58.6466 11.8973C58.6469 12.0173 58.6115 12.1454 58.5432 12.2799C58.472 12.4159 58.3789 12.5173 58.2637 12.5839C58.2253 12.6061 58.173 12.6237 58.1098 12.6286C57.673 12.7041 57.2034 12.8776 56.7039 13.1444L56.7114 15.7792C57.1728 15.6389 57.5574 15.5525 57.8624 15.5248C58.1674 15.4939 58.4233 15.5674 58.6299 15.739ZM56.7211 19.2006C57.6265 18.6041 58.0754 17.9204 58.0732 17.1528C58.0724 16.8653 57.9592 16.7092 57.731 16.6798C57.5028 16.6536 57.1648 16.7004 56.7143 16.8185L56.7211 19.2006ZM56.1236 15.9514L56.1167 13.5156C55.7327 13.7979 55.4257 14.1115 55.1958 14.4534C54.9659 14.7984 54.8514 15.1399 54.8524 15.4779C54.8533 15.8033 54.961 15.9942 55.1756 16.0473C55.3901 16.1004 55.7062 16.0695 56.1236 15.9514Z" fill="white"/>
<path d="M35.2615 29.4372L44.1577 24.2776C44.6186 24.0242 44.8568 23.6662 44.8568 23.3232L45.0053 50.8126C45.0053 51.1704 44.7675 51.5283 44.2913 51.8116L35.3955 56.9563C34.9089 57.2351 34.2671 57.3619 33.6297 57.3511L33.5684 29.8389C34.1771 29.8377 34.7876 29.7044 35.2615 29.4372Z" fill="white"/>
<path d="M45.0021 50.8132C45.0021 51.165 44.7685 51.5314 44.2872 51.8099L35.401 56.9552C34.9048 57.2337 34.2628 57.3656 33.6355 57.3509L33.6209 50.432C37.6773 49.7577 40.7413 46.0638 40.7413 41.6368C40.7413 37.1659 37.6481 33.4719 33.5771 32.8269L33.5625 29.8366C34.1752 29.8366 34.7883 29.7046 35.255 29.4408L44.1557 24.2809C44.6228 24.017 44.8561 23.6652 44.8561 23.3281L45.0021 50.8132Z" fill="#E9ECFF"/>
<path d="M23.0194 24.2779L31.8709 29.4374C32.3416 29.7071 32.9547 29.8404 33.5692 29.8392L33.6305 57.3513C33.0411 57.3413 32.4549 57.2146 32.0046 56.9566L23.1535 51.797C22.6922 51.5286 22.4543 51.1707 22.4543 50.8278L22.3203 23.3086C22.3203 23.6516 22.5586 24.0095 23.0194 24.2779Z" fill="#454544"/>
<path d="M23.0269 22.3106C22.0865 22.8549 22.0816 23.7344 23.0158 24.2786L31.8668 29.4347C32.801 29.9789 34.3156 29.9789 35.256 29.4347L44.1553 24.2842C45.0957 23.7399 45.1006 22.8604 44.1665 22.3163L35.3155 17.1601C34.3813 16.6159 32.8666 16.6159 31.9262 17.1601L23.0269 22.3106Z" fill="white"/>
<path d="M33.7051 57.8506C33.6768 57.8506 33.6494 57.8506 33.6211 57.8501C33.3486 57.8452 33.1309 57.6235 33.1299 57.3511L33.0684 29.8389C33.0674 29.563 33.291 29.3384 33.5674 29.3379C34.1162 29.3364 34.6299 29.2173 35.0137 29.002L43.9063 23.8438C44.1836 23.6914 44.3564 23.4888 44.3564 23.3223C44.3564 23.0469 44.5791 22.8232 44.8555 22.8223C45.1309 22.8223 45.3545 23.0444 45.3564 23.3193L45.5049 50.8086C45.5049 51.3657 45.1641 51.873 44.5469 52.2402L35.6455 57.3877C35.123 57.6875 34.4365 57.8506 33.7051 57.8506ZM34.0693 30.3101L34.1289 56.8267C34.5195 56.7822 34.876 56.6768 35.1465 56.5215L44.041 51.3779C44.334 51.2036 44.5049 50.9961 44.5049 50.8115L44.3643 24.7344L35.5127 29.8687C35.5107 29.8696 35.5088 29.8706 35.5068 29.8716C35.1006 30.1006 34.6025 30.251 34.0693 30.3101Z" fill="#171715"/>
<path d="M33.6309 57.8506C33.6279 57.8506 33.625 57.8506 33.6221 57.8506C32.916 57.8384 32.2529 57.6743 31.7559 57.3892L22.9014 52.228C22.2998 51.8779 21.9541 51.3672 21.9541 50.8267L21.8203 23.3164C21.8203 23.3145 21.8203 23.313 21.8203 23.311C21.8203 23.3101 21.8203 23.3086 21.8203 23.3076C21.8203 23.0317 22.043 22.8081 22.3193 22.8076C22.5947 22.8076 22.8193 23.0298 22.8203 23.3052V23.3101C22.8223 23.4434 22.9404 23.6528 23.2705 23.8447L32.123 29.0044C32.4922 29.2163 33.0186 29.3384 33.5625 29.3384H33.5684C33.8438 29.3384 34.0684 29.5615 34.0693 29.8374L34.1309 57.3496C34.1309 57.4839 34.0771 57.6128 33.9814 57.707C33.8877 57.7988 33.7617 57.8506 33.6309 57.8506ZM22.8271 24.7437L22.9541 50.8242C22.9541 50.9595 23.0723 51.1704 23.4043 51.3638L32.2568 56.5234C32.4932 56.6592 32.793 56.7563 33.1299 56.8081L33.0703 30.3125C32.5303 30.2549 32.0283 30.103 31.623 29.8706L22.8271 24.7437Z" fill="#171715"/>
<path d="M33.5596 30.3414C32.8594 30.3414 32.1602 30.1832 31.6152 29.8663L22.7646 24.7101C22.1543 24.3541 21.8184 23.8522 21.8184 23.2965C21.8193 22.7462 22.1689 22.2291 22.7773 21.8776L31.6768 16.7267C32.7705 16.0939 34.4785 16.0934 35.5684 16.7272L44.4189 21.8834C45.0293 22.2394 45.3652 22.7413 45.3652 23.297C45.3643 23.8473 45.0146 24.3644 44.4062 24.7159L35.5068 29.8668C34.96 30.1832 34.2598 30.3414 33.5596 30.3414ZM33.624 17.2511C33.0977 17.2511 32.5703 17.3649 32.1768 17.5919L23.2773 22.7428C22.9863 22.9113 22.8193 23.1139 22.8184 23.298C22.8184 23.4796 22.9824 23.6793 23.2686 23.8458L32.1191 29.0021C32.8984 29.4562 34.2197 29.4557 35.0068 29.0016L43.9062 23.8507C44.1973 23.6823 44.3643 23.4796 44.3652 23.2955C44.3652 23.1139 44.2012 22.9142 43.915 22.7477L35.0645 17.5914C34.6748 17.3644 34.1504 17.2511 33.624 17.2511Z" fill="#171715"/>
<path d="M4.20854 13.9249C3.26814 14.4691 3.26324 15.3486 4.19743 15.8928L13.0484 21.049C13.9826 21.5932 15.4973 21.5932 16.4377 21.0489L25.337 15.8985C26.2774 15.3542 26.2823 14.4747 25.3481 13.9305L16.4971 8.77438C15.5629 8.23016 14.0482 8.23014 13.1078 8.7744L4.20854 13.9249Z" fill="white"/>
<path d="M14.7402 21.9569C14.04 21.9569 13.3408 21.7987 12.7969 21.4818L3.94531 16.3256C3.33496 15.9696 2.99903 15.4681 3 14.912C3.00098 14.3622 3.35059 13.8446 3.95899 13.493L12.8584 8.34265C13.9531 7.70789 15.6621 7.70935 16.749 8.34314L25.6006 13.4989C26.2109 13.8549 26.5469 14.3568 26.5459 14.9125C26.5449 15.4706 26.2041 15.975 25.5879 16.3319L16.6875 21.4823C16.1406 21.7987 15.4404 21.9569 14.7402 21.9569ZM14.8057 8.86658C14.2793 8.86658 13.752 8.98035 13.3594 9.20789L4.45899 14.3583C4.16797 14.5272 4.00098 14.7294 4 14.9139C4 15.0956 4.16406 15.2953 4.44922 15.4613L13.3008 20.6176C14.0791 21.0721 15.4014 21.0707 16.1875 20.6171L25.0869 15.4667C25.3779 15.2977 25.5449 15.0951 25.5459 14.911C25.5459 14.7294 25.3818 14.5297 25.0967 14.3632L16.2451 9.2074C15.8564 8.98035 15.3311 8.86658 14.8057 8.86658Z" fill="#171715"/>
<path d="M16.4432 21.0514L25.3393 15.8919C25.8002 15.6384 26.0384 15.2804 26.0384 14.9375L26.187 61.7035C26.187 62.0613 25.9491 62.4192 25.473 62.7025L16.5772 67.8472C16.0905 68.126 15.4488 68.2528 14.8114 68.242L14.75 21.4532C15.3587 21.452 15.9692 21.3186 16.4432 21.0514Z" fill="white"/>
<path d="M14.8896 68.7422C14.8604 68.7422 14.832 68.7422 14.8027 68.7417C14.5303 68.7368 14.3115 68.5146 14.3115 68.2422L14.25 21.4536C14.25 21.1777 14.4727 20.9536 14.749 20.9531C15.2979 20.9521 15.8115 20.833 16.1953 20.6172L25.0889 15.459C25.3662 15.3066 25.5391 15.104 25.5391 14.9375C25.5391 14.6616 25.7627 14.438 26.0381 14.4375C26.3135 14.4375 26.5381 14.6602 26.5391 14.936L26.6875 61.7021C26.6875 62.2563 26.3477 62.7637 25.7295 63.1318L16.8271 68.2798C16.3047 68.5796 15.6201 68.7422 14.8896 68.7422ZM15.251 21.9253L15.3105 67.7188C15.7012 67.6743 16.0576 67.5688 16.3281 67.4136L25.2236 62.27C25.5166 62.0952 25.6875 61.8872 25.6875 61.7036L25.5439 16.3511L16.6943 21.4839C16.6924 21.4849 16.6904 21.4858 16.6885 21.4868C16.2822 21.7158 15.7842 21.8667 15.251 21.9253Z" fill="#171715"/>
<path d="M4.20108 15.8922L13.0526 21.0517C13.5233 21.3214 14.1363 21.4546 14.7508 21.4534L14.8122 68.2422C14.2227 68.2322 13.6366 68.1055 13.1862 67.8475L4.33509 62.6879C3.87385 62.4195 3.63597 62.0616 3.63597 61.7187L3.50195 14.9229C3.50195 15.2659 3.7402 15.6238 4.20108 15.8922Z" fill="#454544"/>
<path d="M14.8115 68.7422C14.8086 68.7422 14.8057 68.7422 14.8037 68.7422C14.0977 68.7305 13.4355 68.5669 12.9375 68.2817L4.08301 63.1201C3.48145 62.77 3.13574 62.2593 3.13574 61.7188L3.00195 14.9316C3.00195 14.9287 3.00195 14.9258 3.00195 14.9229C3.00195 14.647 3.22559 14.4233 3.50098 14.4229C3.77637 14.4229 4.00098 14.646 4.00195 14.9214V14.9248C4.00293 15.0581 4.12207 15.2681 4.45117 15.46L13.3037 20.6196C13.6738 20.832 14.1924 20.9409 14.749 20.9536C14.8818 20.9536 15.0098 21.0059 15.1035 21.0996C15.1973 21.1934 15.25 21.3203 15.25 21.4531L15.3115 68.2417C15.3115 68.3755 15.2578 68.5044 15.1621 68.5986C15.0684 68.6904 14.9424 68.7422 14.8115 68.7422ZM4.00586 16.3579L4.13574 61.7173C4.13574 61.8516 4.25391 62.0625 4.58594 62.2559L13.4375 67.4155C13.6738 67.5513 13.9746 67.6484 14.3105 67.7002L14.251 21.9277C13.7109 21.8701 13.209 21.7183 12.8037 21.4858L4.00586 16.3579Z" fill="#171715"/>
<path d="M42.2452 12.3837C42.1983 12.3837 42.1504 12.3774 42.1036 12.3632L13.0342 3.77921C12.7696 3.70109 12.6182 3.42277 12.6963 3.15812C12.7745 2.89298 13.0586 2.74259 13.3174 2.82023L42.3868 11.4042C42.6514 11.4823 42.8028 11.7607 42.7247 12.0253C42.6602 12.2431 42.461 12.3837 42.2452 12.3837Z" fill="#171715"/>
<path d="M38.6386 14.0642C38.4501 14.0642 38.2685 13.9563 38.1845 13.7732C38.0693 13.5222 38.1787 13.2253 38.4296 13.1101L41.5927 11.6555L40.2207 8.49825C40.1113 8.24483 40.2275 7.9504 40.4804 7.84053C40.7314 7.73018 41.0283 7.84639 41.1386 8.09981L42.705 11.7058C42.8134 11.9553 42.7021 12.2458 42.455 12.3591L38.8476 14.0183C38.7802 14.0495 38.7089 14.0642 38.6386 14.0642Z" fill="#171715"/>
</g>
<defs>
<clipPath id="clip0_216_8205">
<rect width="70" height="70" fill="white"/>
</clipPath>
</defs>
</svg>
