<svg width="221" height="1910" viewBox="0 0 221 1910" fill="none" xmlns="http://www.w3.org/2000/svg">
<path d="M106.26 0.559054C104.202 1.3292 103.321 3.38315 103.614 5.18027L-10.7184 31.6241C-10.7184 31.6241 -10.7185 31.3673 -11.0124 31.3673C-12.188 29.0567 -15.421 28.2865 -18.0663 29.3135C-19.8298 30.0836 -20.7115 31.6241 -21.0055 33.1645L-147.683 41.1233C-147.683 40.6097 -147.977 40.3531 -148.271 40.0964C-149.446 37.7857 -152.679 37.0156 -155.325 38.0425C-157.97 39.0694 -158.851 41.8934 -157.676 44.2041C-157.382 44.7175 -156.794 45.2311 -156.206 45.7446L-202.645 113.523C-204.114 113.009 -205.584 113.009 -207.054 113.523C-209.699 114.55 -210.581 117.374 -209.405 119.684C-209.111 120.198 -208.817 120.455 -208.523 120.968L-245.262 164.613C-246.732 163.843 -248.496 163.843 -250.259 164.613C-251.435 165.127 -252.316 165.897 -252.61 166.924L-336.964 148.439C-336.964 147.669 -336.964 146.642 -337.552 145.871C-338.727 143.561 -341.96 142.791 -344.606 143.817C-346.663 144.844 -347.839 146.898 -347.251 148.695L-408.973 167.437C-410.149 165.127 -413.382 164.356 -416.027 165.383C-418.672 166.41 -419.554 169.234 -418.378 171.545C-417.79 172.829 -416.321 173.599 -415.145 173.856L-424.55 243.688C-425.432 243.688 -426.02 243.944 -426.902 244.201C-429.547 245.228 -430.429 248.052 -429.253 250.363C-428.077 252.673 -424.844 253.444 -422.199 252.417C-422.199 252.417 -421.905 252.417 -421.905 252.16L-320.799 365.38L-321.092 365.637L-320.211 365.894L-318.447 367.691L-318.741 366.151L-224.982 387.203C-224.982 387.973 -224.982 389 -224.394 389.77C-223.513 391.567 -221.455 392.338 -219.398 392.338L-202.057 457.548C-202.351 457.548 -202.351 457.548 -202.645 457.805C-205.29 458.832 -206.172 461.656 -204.996 463.967C-203.82 466.02 -201.175 466.791 -198.824 466.277L-216.459 648.046C-217.047 648.046 -217.928 648.303 -218.516 648.559C-221.161 649.586 -222.043 652.411 -220.868 654.721C-219.692 657.032 -216.459 657.802 -213.814 656.775C-212.932 656.261 -212.05 655.748 -211.756 654.978L-50.3969 708.379C-50.6908 709.406 -50.6908 710.433 -50.103 711.46C-49.5151 712.487 -48.6334 713 -47.7517 713.514L-70.677 774.103C-71.8526 773.846 -73.0283 774.103 -73.9101 774.617C-76.5553 775.644 -77.4371 778.468 -76.2614 780.778C-75.3797 782.319 -73.6161 783.346 -71.5587 783.346L-63.6231 841.111C-63.917 841.111 -64.2109 841.368 -64.7987 841.368C-67.4439 842.395 -68.3257 845.219 -67.15 847.53C-65.9744 849.84 -62.7413 850.61 -60.0961 849.583C-59.8022 849.583 -59.8022 849.327 -59.5083 849.327L19.8488 927.631C18.3792 928.915 18.0853 930.968 19.2609 932.766C20.4366 935.076 23.6697 935.847 26.3149 934.82C28.0784 934.049 28.9602 932.766 29.254 931.225L97.7362 928.401C97.7362 928.915 98.0301 929.428 98.3241 929.942C99.4997 931.995 102.145 933.022 104.79 932.252L120.662 966.398C120.368 967.682 120.955 969.222 122.131 970.249L67.7569 1029.3C67.169 1029.04 66.8751 1028.78 66.2873 1028.78C63.6421 1028.27 60.703 1029.81 60.1151 1032.12C59.5273 1033.92 60.409 1035.72 62.1725 1036.74L56.0003 1048.55L22.494 1113.76C19.8488 1113.25 17.2035 1114.79 16.3218 1117.1C15.734 1119.41 17.4975 1121.98 20.1427 1122.49C21.0244 1122.75 21.6123 1122.75 22.494 1122.49L50.7098 1189.76C49.5341 1190.27 48.3585 1191.3 48.0646 1192.84L0.744292 1188.99L-10.1305 1288.34C-12.4818 1288.34 -14.5392 1289.88 -14.8332 1291.94C-15.127 1292.97 -14.8332 1293.99 -14.5393 1295.02L-68.3257 1327.11C-68.9135 1326.34 -69.7953 1325.83 -70.9709 1325.83C-73.6161 1325.31 -76.5553 1326.85 -77.1431 1329.17C-77.437 1330.19 -77.1431 1331.48 -76.5553 1332.25L-162.085 1387.7C-162.672 1387.19 -163.554 1386.67 -164.73 1386.42C-167.375 1385.9 -170.314 1387.44 -170.902 1389.75C-171.49 1392.07 -169.726 1394.63 -167.081 1395.15C-165.905 1395.4 -165.024 1395.15 -163.848 1394.89L-128.284 1448.29C-129.166 1448.8 -129.754 1449.83 -130.048 1450.86C-130.636 1452.91 -129.46 1454.97 -127.109 1455.99L-176.486 1596.68L-175.898 1596.94C-177.662 1596.68 -179.425 1596.94 -180.601 1597.97L-232.036 1561.25C-231.742 1560.74 -231.448 1560.48 -231.448 1559.97C-230.861 1557.66 -232.624 1555.09 -235.269 1554.58C-237.915 1554.07 -240.854 1555.61 -241.442 1557.92C-241.735 1559.46 -241.442 1560.74 -240.266 1561.77L-337.258 1653.94C-337.846 1653.68 -338.433 1653.42 -339.021 1653.42C-341.079 1652.91 -343.136 1653.68 -344.312 1655.22L-396.629 1628.26C-396.629 1628.01 -396.629 1628.01 -396.335 1627.75C-395.747 1625.44 -397.51 1622.87 -400.155 1622.36C-402.801 1621.84 -405.74 1623.38 -406.328 1625.69C-406.622 1626.98 -406.328 1628.26 -405.446 1629.29L-525.657 1737.63C-526.245 1737.37 -526.833 1736.86 -527.715 1736.86C-530.36 1736.35 -533.299 1737.89 -533.887 1740.2C-534.475 1742.51 -532.711 1745.08 -530.066 1745.59C-528.008 1746.1 -525.657 1745.08 -524.481 1743.54L-417.496 1786.92L-417.496 1787.18C-418.084 1789.49 -416.321 1792.06 -413.676 1792.57C-411.912 1792.83 -409.855 1792.32 -408.679 1791.29L-305.809 1855.73C-306.103 1855.99 -306.103 1856.5 -306.397 1856.76C-306.984 1859.07 -305.221 1861.63 -302.576 1862.15C-299.931 1862.66 -296.991 1861.12 -296.404 1858.81C-296.11 1858.04 -296.11 1857.53 -296.404 1856.76L-211.462 1830.57C-210.874 1831.85 -209.699 1832.62 -207.935 1832.88C-205.29 1833.39 -202.351 1831.85 -201.763 1829.54C-201.763 1829.03 -201.469 1828.52 -201.763 1828L-141.804 1815.17C-141.217 1816.45 -139.747 1817.48 -138.277 1817.99C-137.102 1818.25 -135.632 1817.99 -134.75 1817.48L-83.6092 1879.09C-84.1971 1879.61 -84.7849 1880.38 -85.0788 1881.4C-85.6666 1883.71 -83.9031 1886.28 -81.2579 1886.79C-78.9066 1887.31 -76.5553 1886.28 -75.6735 1884.48L-14.8331 1904.51C-15.421 1906.82 -13.6575 1909.13 -10.7183 1909.9C-8.07312 1910.41 -5.13391 1908.87 -4.54608 1906.56C-4.2522 1905.28 -4.54614 1904 -5.42786 1902.97L53.649 1854.96C54.2368 1855.47 55.1186 1855.73 55.7064 1855.99C58.3517 1856.5 61.2908 1854.96 61.8786 1852.65C62.4664 1850.34 60.7029 1847.77 58.0577 1847.26L57.7639 1847.26L63.0543 1704.26L63.6421 1704.26L63.0543 1703.74L63.0543 1701.43L62.1725 1702.72L5.74089 1634.42C6.32872 1633.91 6.91655 1633.14 7.2105 1632.11C7.79833 1630.32 6.91649 1628.52 5.153 1627.49L39.5411 1567.67C39.835 1567.67 39.835 1567.67 40.1289 1567.93C42.7742 1568.44 45.7133 1566.9 46.3011 1564.59C46.889 1562.28 45.4194 1560.23 43.068 1559.46L189.144 1429.81C189.732 1430.06 190.319 1430.58 191.201 1430.58C193.846 1431.09 196.786 1429.55 197.373 1427.24C197.961 1424.93 196.198 1422.36 193.552 1421.85C192.377 1421.59 191.495 1421.85 190.613 1422.1L106.554 1290.91C107.435 1290.4 108.317 1289.37 108.611 1288.34C108.905 1287.32 108.611 1286.29 108.317 1285.52L170.039 1251.89C170.627 1252.66 171.803 1253.17 172.978 1253.43C175.624 1253.94 178.563 1252.4 179.151 1250.09C179.445 1248.29 178.857 1246.75 177.387 1245.73L213.539 1197.2C213.833 1197.46 214.126 1197.46 214.714 1197.46C217.36 1197.97 220.299 1196.43 220.886 1194.12C221.474 1191.81 219.711 1189.24 217.066 1188.73C216.772 1188.73 216.772 1188.73 216.478 1188.73L212.951 1084.5C215.008 1084.24 216.772 1082.96 217.066 1081.16C217.653 1078.85 215.89 1076.28 213.245 1075.77C211.481 1075.51 209.718 1076.02 208.542 1077.05L153.874 1041.11C154.168 1040.59 154.462 1040.34 154.462 1039.57C155.05 1037.26 153.58 1035.2 151.229 1034.43L173.272 974.87L173.566 974.87C176.211 975.384 179.151 973.843 179.738 971.533C180.032 969.992 179.445 968.452 178.269 967.425C177.387 966.655 176.211 966.141 175.036 965.884L172.391 889.377C172.978 889.377 173.566 889.121 173.86 888.864C176.505 887.837 177.387 885.013 176.211 882.702C175.33 881.162 173.272 880.135 171.215 880.135L167.394 867.555L145.35 798.493C147.702 797.209 148.877 794.642 147.408 792.588C146.232 790.277 142.999 789.507 140.354 790.534C139.472 790.791 138.884 791.304 138.59 791.818L67.463 755.618C68.0508 754.334 68.0508 753.051 67.169 751.767L106.554 728.147L41.8923 645.222C43.6558 643.938 44.2437 641.628 43.068 639.83C42.4802 638.803 41.5985 638.033 40.4228 637.777L58.3516 582.835C59.5272 583.092 60.409 582.835 61.5847 582.322C64.2299 581.295 65.1116 578.471 63.936 576.16C63.3481 575.133 62.4664 574.363 61.2907 574.106L86.5674 483.222C87.4492 483.222 88.6248 483.222 89.5066 482.708C92.1518 481.681 93.0335 478.857 91.8578 476.547C90.6822 474.236 87.4492 473.466 84.8039 474.493C83.9222 475.006 83.0404 475.52 82.4526 476.547L16.0279 455.238C16.3218 454.211 16.0278 453.184 15.7339 452.157C14.5583 450.103 12.207 449.333 9.85565 449.846L-55.6874 313.52L-56.2752 313.776C-54.8056 313.006 -53.63 311.723 -53.63 310.182L13.0887 309.669C13.0887 310.182 13.3826 310.696 13.6765 311.209C14.8522 313.52 18.0853 314.29 20.7305 313.263C23.3757 312.236 24.2574 309.412 23.0818 307.101C22.2001 305.818 21.0244 305.047 19.2609 304.791L26.3149 179.247C26.9027 179.247 27.4905 178.99 28.0784 178.733C29.8418 177.963 31.0175 176.166 31.0175 174.369L91.27 165.897C91.27 166.154 91.5639 166.154 91.5639 166.41C92.7396 168.721 95.9726 169.491 98.6179 168.464C101.263 167.437 102.145 164.613 100.969 162.302C100.381 161.019 99.2057 160.249 97.7361 159.992L110.962 9.28806C111.55 9.28806 112.432 9.03134 113.02 8.77463C115.665 7.74765 116.547 4.92356 115.371 2.61289C111.844 0.302218 108.905 -0.724637 106.26 0.559054ZM-147.683 43.4339C-147.389 42.9204 -147.389 42.407 -147.389 42.1503L-20.7115 34.1915C-20.7115 34.7049 -20.4176 34.9616 -20.1237 35.2184C-19.8298 35.7318 -19.242 36.2453 -18.6541 36.7589L-53.3361 89.1328L-147.683 43.4339ZM-244.675 172.058C-244.087 171.802 -243.205 171.288 -242.911 170.775L-198.236 192.854L-253.198 175.139L-249.965 171.802C-248.496 172.829 -246.438 172.829 -244.675 172.058ZM-142.392 156.654C-142.392 156.911 -142.098 157.168 -141.804 157.425L-187.361 192.597C-188.243 191.827 -189.713 191.57 -190.888 191.57L-195.885 162.559L-142.686 156.141C-142.686 156.141 -142.392 156.397 -142.392 156.654ZM-132.987 152.803L-87.7241 126.359L-132.987 156.654C-132.399 155.627 -132.399 154.087 -132.987 152.803ZM-136.808 159.222L-176.486 185.665L-140.923 158.451C-139.747 158.965 -138.277 159.478 -136.808 159.222ZM-192.358 191.57C-192.652 191.57 -192.946 191.827 -193.24 191.827C-194.121 192.084 -194.709 192.597 -195.003 193.111L-242.323 169.748C-242.029 169.234 -242.029 168.721 -242.029 167.951L-197.354 162.559L-192.358 191.57ZM-195.885 194.908C-196.179 195.678 -196.179 196.705 -195.591 197.475L-339.609 263.456L-340.197 263.456L-340.491 263.199L-254.08 176.423L-195.885 194.908ZM-195.003 198.502C-194.709 198.759 -194.415 199.016 -194.121 199.272L-252.316 279.887L-339.021 266.024C-339.021 265.51 -339.021 264.74 -339.315 264.226L-195.003 198.502ZM-183.834 287.333C-184.716 286.819 -185.598 286.562 -186.48 286.562L-190.006 200.299C-189.419 200.299 -189.125 200.043 -188.537 199.786C-188.537 199.786 -188.243 199.786 -188.243 199.529L-143.274 249.336L-183.834 287.333ZM-108.004 218.271C-107.416 218.527 -106.829 218.784 -106.241 219.041L-115.352 275.009C-116.234 275.009 -117.116 275.266 -117.703 275.523C-117.703 275.523 -117.997 275.523 -117.997 275.78L-141.511 249.849L-108.004 218.271ZM-221.749 383.352L-265.836 307.615C-264.955 307.101 -264.367 306.331 -264.073 305.561L-197.648 320.965L-219.104 383.095C-219.986 383.095 -220.868 383.095 -221.749 383.352ZM-263.779 304.534C-263.779 304.277 -263.779 304.02 -263.779 303.764L-192.064 292.467C-192.064 292.724 -191.77 292.981 -191.77 293.238C-191.182 294.265 -190.3 295.035 -189.125 295.291L-197.648 319.938L-263.779 304.534ZM-263.779 302.48C-263.779 302.223 -264.073 301.967 -264.073 301.71C-264.367 301.196 -264.955 300.683 -265.249 300.169L-251.435 281.171L-191.77 290.67C-191.77 290.927 -191.77 290.927 -191.77 291.184L-263.779 302.48ZM-250.847 280.401L-192.946 200.043C-192.358 200.299 -191.77 200.299 -191.182 200.556L-187.655 286.819C-188.243 286.819 -188.537 287.076 -189.125 287.333C-190.3 287.846 -191.182 288.873 -191.77 289.9L-250.847 280.401ZM-253.198 281.171L-266.718 299.913C-268.188 299.399 -269.657 299.399 -271.127 299.913C-271.715 300.17 -272.303 300.683 -272.89 301.196L-291.407 291.954L-339.315 267.821L-339.315 267.564L-253.198 281.171ZM-273.478 302.223C-274.066 303.507 -274.066 304.791 -273.184 306.074C-272.009 307.871 -269.657 308.898 -267.306 308.385L-282.884 325.073L-340.197 269.104C-340.197 269.104 -340.197 269.104 -339.903 268.848L-273.478 302.223ZM-266.424 309.155L-222.925 383.865L-282.296 325.843L-266.424 309.155ZM-217.928 383.609L-196.179 321.479L-117.703 339.45C-117.703 340.22 -117.703 340.734 -117.409 341.504L-215.577 385.149C-216.459 384.379 -217.047 383.865 -217.928 383.609ZM-195.885 320.195L-187.361 295.548C-186.48 295.548 -185.304 295.548 -184.422 295.035C-183.834 294.778 -183.54 294.521 -182.953 294.265L-117.116 337.653C-117.116 337.91 -117.409 337.91 -117.409 338.166L-195.885 320.195ZM-182.365 292.981C-182.365 292.724 -182.071 292.467 -182.071 292.211L-115.058 301.967L-113.883 335.342C-114.47 335.342 -114.764 335.599 -115.352 335.856C-115.94 336.112 -116.234 336.369 -116.822 336.626L-182.365 292.981ZM-113.589 301.196L-114.176 283.995C-113.882 283.995 -113.589 283.738 -113.295 283.738C-112.707 283.482 -112.119 282.968 -111.531 282.455L-64.7987 307.871C-64.7987 308.128 -65.0927 308.128 -65.0927 308.385L-113.589 301.196ZM-115.352 283.995L-114.764 300.94L-181.777 291.184C-181.777 290.927 -181.777 290.67 -181.777 290.157L-120.349 280.914C-120.349 281.171 -120.349 281.171 -120.055 281.428C-119.173 283.225 -117.409 283.995 -115.352 283.995ZM-182.071 289.13C-182.365 288.616 -182.659 288.36 -182.659 288.103L-142.392 250.363L-119.173 276.293C-120.349 277.32 -120.643 278.604 -120.643 279.887L-182.071 289.13ZM-114.176 275.266L-105.065 219.298C-104.183 219.298 -103.302 219.041 -102.714 218.784C-102.42 218.527 -102.126 218.527 -101.538 218.271L-68.6196 243.688L-112.119 276.293C-112.707 275.78 -113.295 275.266 -114.176 275.266ZM-142.392 248.822L-187.067 199.272C-186.48 198.759 -186.186 198.245 -185.892 197.732L-110.062 214.42C-110.062 215.19 -110.062 216.217 -109.474 216.987C-109.18 217.244 -109.18 217.501 -108.886 217.757L-142.392 248.822ZM-185.598 196.448C-185.598 195.678 -185.598 194.651 -186.186 193.881L-186.186 193.624L-73.9101 118.914C-73.3223 119.428 -73.0284 119.684 -72.4405 119.941L-103.889 210.055C-105.065 209.799 -105.947 210.055 -107.122 210.569C-108.298 211.082 -109.18 211.852 -109.474 212.879L-185.598 196.448ZM-102.714 210.569L-71.2649 120.455C-70.0892 120.711 -68.9136 120.455 -68.0318 119.941C-67.444 119.684 -66.8562 119.428 -66.5622 118.914L-33.9377 138.94L-102.126 210.826C-102.42 210.569 -102.714 210.569 -102.714 210.569ZM-8.66103 107.618C-8.95491 107.618 -9.54274 107.874 -9.83669 107.874C-10.7184 108.131 -11.3062 108.645 -11.6002 109.158L-52.1604 89.6463L-17.4785 37.2722C-16.8906 37.5289 -16.3028 37.529 -15.715 37.529L-8.66103 107.618ZM-14.2454 40.8666L21.9062 168.207L-4.84011 115.833C-2.48879 114.55 -1.60707 111.982 -2.78273 109.928C-3.66445 108.388 -5.42794 107.618 -7.19142 107.361L-14.2454 40.8666ZM-12.188 110.185C-12.4819 110.699 -12.482 111.212 -12.482 111.469L-65.0927 114.55C-65.0927 114.293 -65.3866 113.779 -65.3866 113.523C-65.6805 113.009 -66.2683 112.496 -66.8562 111.982L-52.4543 90.4165L-12.188 110.185ZM-12.482 112.753C-12.482 113.266 -12.1879 113.523 -11.8941 114.036C-11.6001 114.55 -11.3063 114.806 -11.0123 115.063L-33.056 138.169L-65.6805 118.144C-65.3866 117.63 -65.0927 116.86 -65.0927 116.09L-12.482 112.753ZM-32.1742 138.683L-10.4245 115.577C-9.2488 116.347 -7.77925 116.347 -6.30971 116.09L21.3183 170.261C21.0244 170.518 20.4366 170.775 20.1426 171.031L-32.1742 138.683ZM23.9635 170.004L-13.6576 37.529C-13.3637 37.529 -13.3637 37.5289 -13.0697 37.2722C-13.0697 37.2722 -13.0697 37.2722 -12.7758 37.2722L53.0611 115.577L26.0209 170.261C25.1392 170.005 24.5514 170.004 23.9635 170.004ZM-148.564 44.7176C-148.564 44.4608 -148.564 44.4608 -148.564 44.7176L-53.9239 90.1598L-68.3257 111.725C-69.7953 111.212 -71.2649 111.212 -72.7345 111.982C-73.0284 111.982 -73.3223 112.239 -73.6162 112.496L-148.564 44.7176ZM-149.446 45.4878L-74.204 113.266C-74.7919 114.036 -75.0858 114.806 -75.3797 115.577L-142.098 116.347L-151.21 46.5148C-150.916 46.5148 -150.328 46.2579 -150.034 46.2579C-150.034 45.7445 -149.74 45.4878 -149.446 45.4878ZM-199.412 115.32C-199.706 114.806 -200.293 114.293 -200.881 113.78L-154.737 46.0012C-154.149 46.258 -153.561 46.2579 -152.679 46.2579L-143.568 116.09L-199.118 116.604C-199.118 116.347 -199.412 115.833 -199.412 115.32ZM-75.3797 116.603C-75.3797 117.117 -75.0857 117.374 -75.0857 117.887L-133.575 152.033C-134.457 151.006 -135.926 150.236 -137.69 150.236L-142.098 117.374L-75.3797 116.603ZM-199.412 119.171C-199.118 118.657 -199.118 118.144 -198.824 117.887L-142.98 117.374L-138.571 150.493C-138.865 150.493 -139.453 150.749 -139.747 150.749C-140.335 151.006 -140.923 151.52 -141.217 151.776L-199.412 119.171ZM-200.294 120.198L-142.392 152.803C-142.686 153.573 -142.98 154.087 -142.98 154.857L-196.179 161.276L-202.939 121.738C-202.645 121.738 -202.351 121.482 -202.057 121.482C-201.175 120.968 -200.587 120.711 -200.294 120.198ZM-242.617 166.153C-242.911 165.64 -243.205 165.383 -243.793 164.87L-207.054 121.225C-206.172 121.481 -205.29 121.738 -204.408 121.738L-197.648 161.276L-242.323 166.667C-242.323 166.667 -242.323 166.41 -242.617 166.153ZM-252.316 167.694C-252.316 168.464 -252.316 169.491 -251.729 170.261C-251.435 170.518 -251.141 171.031 -250.847 171.288L-254.374 174.883L-329.322 150.749L-252.316 167.694ZM-255.549 175.653L-341.373 262.173C-341.96 261.916 -342.842 261.659 -343.43 261.402L-340.785 151.776C-340.197 151.776 -339.609 151.52 -339.021 151.263C-338.14 150.749 -337.258 150.236 -336.67 149.209L-255.549 175.653ZM-346.369 261.916L-387.223 203.894L-344.018 151.263C-343.43 151.52 -342.842 151.776 -342.254 151.776L-344.9 261.402C-345.487 261.659 -345.781 261.659 -346.369 261.916ZM-407.797 167.951L-346.075 149.209C-345.781 149.722 -345.487 149.979 -344.9 150.493L-387.811 202.867L-409.267 172.572C-408.091 171.288 -407.503 169.748 -407.797 167.951ZM-423.081 243.688L-412.794 173.342C-412.206 173.342 -411.324 173.085 -410.736 172.829L-388.987 203.637L-422.199 243.944C-422.493 243.944 -422.787 243.688 -423.081 243.688ZM-419.848 245.998C-420.142 245.485 -420.436 245.228 -421.024 244.715L-388.105 204.921L-348.133 261.659L-419.554 248.309C-419.26 247.539 -419.554 246.769 -419.848 245.998ZM-420.73 251.133C-420.142 250.62 -419.848 250.106 -419.554 249.593L-348.133 262.943C-349.602 264.226 -349.896 266.28 -349.014 268.078C-348.133 269.875 -346.075 270.645 -344.018 270.645L-321.386 363.07L-420.73 251.133ZM-342.548 270.131C-342.254 270.131 -342.254 269.875 -341.96 269.875C-341.667 269.875 -341.667 269.618 -341.373 269.618L-284.059 325.843L-319.623 363.84L-342.548 270.131ZM-318.741 364.867L-283.177 326.613L-224.101 384.379C-224.395 384.892 -224.688 385.149 -224.982 385.662L-318.741 364.867ZM-215.283 389C-214.989 387.973 -214.989 386.946 -215.283 385.919L-117.116 342.274C-116.822 342.531 -116.528 343.044 -116.234 343.301L-165.318 411.336L-215.283 389ZM-112.119 344.328L-95.9537 399.783L-91.251 416.214L-82.7275 445.482C-83.6093 445.995 -84.491 446.509 -84.7849 447.279L-164.142 411.849L-115.352 343.814C-114.176 344.328 -113.001 344.585 -112.119 344.328ZM-200.881 457.035L-218.222 391.824C-217.928 391.824 -217.928 391.824 -217.634 391.567C-216.753 391.31 -216.165 390.797 -215.577 390.027L-165.612 412.363L-197.942 457.548C-198.824 457.291 -200 457.035 -200.881 457.035ZM-195.591 459.602C-195.885 459.089 -196.473 458.575 -196.767 458.062L-164.436 412.876L-85.0789 448.306C-85.0789 448.819 -85.3727 449.076 -85.3727 449.59L-105.359 451.643L-195.297 460.372C-195.297 460.116 -195.591 459.859 -195.591 459.602ZM-195.003 461.656L-105.947 452.927L-84.7849 450.873C-84.7849 451.13 -84.491 451.387 -84.491 451.643C-83.9032 452.414 -83.3153 452.927 -82.4336 453.441L-98.5989 490.667L-195.003 462.426C-195.003 462.17 -195.003 461.913 -195.003 461.656ZM-123.582 618.521C-123.582 618.265 -123.582 618.008 -123.582 617.751L-73.3223 606.968L-38.6403 599.523C-38.6403 599.78 -38.6403 599.78 -38.3464 600.036C-37.7585 601.32 -36.289 602.09 -34.8194 602.347L-37.7585 630.588L-123.582 618.521ZM-38.0525 631.872L-45.6942 705.041C-46.2821 705.041 -47.1638 705.298 -47.7517 705.555C-47.7517 705.555 -48.0456 705.555 -48.0456 705.812L-125.051 621.602C-124.463 621.089 -124.17 620.319 -123.876 619.805L-38.0525 631.872ZM-74.204 605.941L-123.582 616.724C-123.582 616.468 -123.582 616.468 -123.876 616.211C-124.17 615.697 -124.757 615.184 -125.345 614.67L-83.6093 555.365L-38.0525 595.159C-38.9342 596.186 -39.2281 597.212 -39.2281 598.496L-74.204 605.941ZM-114.176 532.515C-113.295 532.515 -112.707 532.258 -111.825 532.002C-111.531 531.745 -111.237 531.745 -110.943 531.488L-84.491 554.594L-126.521 614.157C-126.815 614.157 -127.109 613.9 -127.403 613.9L-114.176 532.515ZM-129.754 613.9L-149.152 571.539L-116.822 532.002C-116.528 532.258 -115.94 532.258 -115.646 532.515L-128.578 613.9C-128.872 613.643 -129.46 613.9 -129.754 613.9ZM-110.062 530.718C-109.18 529.691 -108.886 528.15 -109.18 526.867L-53.3361 507.612C-53.0421 507.868 -52.4543 508.125 -51.8665 508.125L-83.6093 553.311L-110.062 530.718ZM-82.7275 554.338L-50.3969 508.382C-50.103 508.382 -49.8091 508.382 -49.5151 508.382L-35.1133 593.361C-35.4073 593.361 -35.7012 593.618 -35.9951 593.618C-36.289 593.875 -36.5829 593.875 -36.8768 594.132L-82.7275 554.338ZM-33.9376 593.361L-43.343 536.88L-48.0456 508.125C-48.0456 508.125 -48.0456 508.125 -47.7517 508.125C-47.1638 507.869 -46.8699 507.612 -46.576 507.355L14.8522 548.946L-30.4107 594.132C-31.8802 593.618 -32.762 593.361 -33.9376 593.361ZM-109.768 525.84C-110.355 525.07 -110.943 524.556 -111.825 524.043L-98.0111 492.208L-55.6874 504.531C-55.6874 505.044 -55.3935 505.558 -55.0995 506.071C-54.8056 506.328 -54.8056 506.585 -54.5117 506.842L-109.768 525.84ZM-97.4233 490.924L-81.5519 453.954C-80.6701 454.211 -79.7884 454.211 -78.9066 453.954L-53.3361 500.166C-54.5117 500.937 -55.3935 501.963 -55.6874 503.247L-97.4233 490.924ZM-51.8665 499.653L-77.437 453.697C-76.2614 453.184 -75.3796 452.157 -75.0857 451.13L-2.48877 463.71L-47.1638 500.423C-48.6334 499.653 -50.3969 499.14 -51.8665 499.653ZM-195.885 464.223C-195.885 463.967 -195.591 463.967 -195.591 463.71L-99.1868 491.951L-113.001 523.786C-114.176 523.529 -115.352 523.529 -116.528 524.043C-116.822 524.3 -117.116 524.3 -117.409 524.556L-195.885 464.223ZM-197.354 465.25C-197.06 465.25 -197.06 464.994 -196.767 464.994L-118.585 525.327C-119.761 526.61 -119.761 528.407 -118.879 529.948C-118.585 530.461 -118.291 530.975 -117.703 531.231L-149.74 569.998L-197.354 465.25ZM-214.989 647.789L-197.354 468.331L-150.622 571.539L-213.814 648.303C-214.107 648.046 -214.695 647.789 -214.989 647.789ZM-212.638 648.816L-150.034 572.566L-131.223 614.414C-133.281 615.441 -134.457 617.751 -133.575 619.548L-211.756 649.843C-212.05 649.33 -212.344 649.073 -212.638 648.816ZM-211.168 653.181C-210.874 652.411 -210.874 651.64 -211.168 650.87L-132.987 620.575C-131.517 622.629 -128.578 623.399 -126.227 622.372C-126.227 622.372 -125.933 622.372 -125.933 622.116L-48.9273 706.325C-49.2212 706.582 -49.5152 706.838 -49.8091 707.352L-211.168 653.181ZM-43.049 713.514C-42.1673 713.257 -41.5795 712.487 -40.9916 711.973L-13.0697 723.269L-44.2247 773.59C-44.5186 773.59 -45.1064 773.333 -45.4003 773.333L-44.8125 714.027C-44.2247 714.027 -43.6369 713.77 -43.049 713.514ZM-66.8561 776.671C-67.444 775.644 -68.3257 775.13 -69.2074 774.617L-46.2821 714.027L-45.9882 714.027L-46.576 773.333C-47.1638 773.333 -47.7517 773.59 -48.3395 773.846C-50.103 774.617 -50.9847 775.9 -51.2786 777.441L-66.2683 777.954C-66.5622 777.441 -66.5622 776.927 -66.8561 776.671ZM-67.444 781.292C-66.8561 780.521 -66.5622 779.751 -66.2683 778.981L-51.2786 778.468C-51.2786 778.981 -50.9847 779.238 -50.6908 779.751C-50.103 780.778 -48.9273 781.548 -47.7517 782.062L-50.9847 795.412L-67.444 781.292ZM-43.9308 781.805C-43.6369 781.805 -43.6369 781.805 -43.9308 781.805L34.2506 869.609L-50.103 796.439L-46.576 782.319C-45.6942 782.319 -44.8125 782.319 -43.9308 781.805ZM10.4435 840.598L-42.4612 781.035C-41.8734 780.521 -41.2855 779.751 -40.9916 778.981L55.7064 787.453L41.5985 871.919C40.7167 871.919 39.835 872.176 39.2471 872.433C39.2471 872.433 38.9532 872.433 38.9532 872.69L10.4435 840.598ZM-62.1535 840.854L-70.0892 783.089C-69.7952 783.089 -69.5014 782.832 -68.9135 782.832C-68.6196 782.575 -68.3257 782.575 -68.0318 782.319L-50.9847 796.953L-61.5657 840.854C-62.1535 840.854 -62.1535 840.854 -62.1535 840.854ZM-57.1569 846.246C-56.863 845.219 -57.1569 844.192 -57.7448 843.165C-58.3326 842.138 -59.5083 841.368 -60.6839 840.854L-50.3969 797.723L37.1897 873.46C36.8958 873.716 36.8958 873.973 36.6019 874.23L-57.1569 846.246ZM36.308 875.514C36.0141 876.541 36.308 877.567 36.8958 878.594C37.4837 879.621 38.3654 880.392 39.5411 880.648L35.7202 892.972L-55.3934 848.043L36.308 875.514ZM100.381 923.266C100.088 923.266 100.088 923.523 99.7936 923.523L45.4194 879.108C45.7133 878.594 46.0072 878.081 46.3011 877.311L115.959 881.675L103.614 923.01C102.733 922.753 101.557 922.753 100.381 923.266ZM43.6558 880.392C43.9498 880.135 44.2437 880.135 44.5376 879.878L98.6179 924.293L36.308 893.485L40.4228 880.905C41.5985 880.905 42.7741 880.905 43.6558 880.392ZM-58.3326 848.3L-58.0387 848.043L35.1323 893.999L24.8454 925.834C23.9636 925.577 22.7879 925.834 21.6123 926.347C21.3183 926.347 21.3183 926.604 21.0244 926.604L-58.3326 848.3ZM28.9601 929.685C28.9601 929.171 28.6662 928.915 28.3723 928.401C27.7844 927.374 26.9027 926.604 25.7271 926.347L36.0141 894.769L98.0301 925.32C97.7362 925.834 97.4423 926.347 97.4423 926.861L28.9601 929.685ZM105.084 931.482C105.672 931.225 106.26 930.968 106.554 930.455L146.232 954.075L141.823 966.911L130.361 965.884C130.361 963.831 128.597 962.034 126.246 961.777C123.895 961.263 121.837 962.29 120.662 963.831L105.378 930.969L105.084 931.482ZM141.529 968.195L134.182 989.761C133.888 989.761 133.594 989.761 133.3 989.761L127.128 970.506C128.597 969.992 129.773 968.709 130.067 967.425L141.529 968.195ZM124.188 970.506C124.776 970.506 125.364 970.763 125.952 970.506L130.949 985.91L124.188 970.506C124.188 970.506 123.895 970.506 124.188 970.506ZM136.827 990.788C136.533 990.531 135.945 990.274 135.651 990.018L142.999 968.452L168.57 970.506C168.57 971.019 168.864 971.276 169.157 971.789L147.702 984.626L136.827 990.788ZM168.57 969.222L143.587 967.168L147.702 954.845L169.157 967.682C168.57 968.195 168.57 968.709 168.57 969.222ZM68.9326 1030.07L122.425 970.249L131.536 989.761L131.243 989.761C128.891 990.788 128.009 993.099 128.597 995.152L68.9326 1030.07C68.9326 1030.07 68.9326 1030.33 68.9326 1030.07ZM23.6696 1114.02L33.0749 1096.05L63.3482 1037.51C63.6421 1037.51 63.936 1037.77 64.2299 1037.77C65.9934 1038.03 67.463 1037.77 68.9326 1036.74L103.321 1065.5L24.5514 1114.53C24.2575 1114.53 23.9636 1114.28 23.6696 1114.02ZM25.7271 1115.56L104.202 1066.27L154.756 1108.63C154.462 1109.14 154.168 1109.66 153.874 1110.43C153.874 1110.68 153.874 1110.94 153.874 1111.2L26.6088 1117.1C26.021 1116.33 26.021 1115.82 25.7271 1115.56ZM156.225 1155.61L153.286 1230.84C152.404 1230.84 151.523 1231.35 150.641 1231.61L82.7465 1171.27L155.343 1114.53C155.931 1115.05 156.813 1115.3 157.695 1115.56L157.989 1115.56L156.225 1155.61ZM158.87 1120.18L170.039 1223.13L157.107 1232.12C156.519 1231.61 155.637 1231.09 154.756 1230.84L154.462 1230.84L158.87 1120.18ZM163.573 1112.22C163.867 1111.2 163.573 1110.17 162.985 1109.14L175.036 1101.95L211.775 1186.93L161.516 1114.53C162.691 1114.02 163.279 1113.25 163.573 1112.22ZM162.397 1108.12C161.81 1107.35 160.928 1106.83 159.752 1106.83C159.458 1106.83 158.871 1106.83 158.577 1106.83L149.465 1042.65L174.742 1100.93L162.397 1108.12ZM25.7271 1120.7C26.021 1120.18 26.3149 1119.67 26.3149 1119.16C26.3149 1118.64 26.6089 1118.13 26.3149 1117.87L153.286 1111.97C153.286 1112.48 153.58 1113.25 154.168 1113.76L81.8648 1170.5L25.7271 1120.7ZM54.5307 1189.5C53.649 1189.24 53.0611 1189.24 52.1794 1189.5L23.9636 1122.24C24.2575 1121.98 24.5514 1121.98 24.8454 1121.72L80.6892 1171.53L56.2942 1190.53C56.0003 1190.01 55.1186 1189.5 54.5307 1189.5ZM57.4699 1191.3L81.8648 1172.3L149.759 1232.63L149.465 1232.89L118.016 1219.8L58.3516 1195.15C58.3516 1194.89 58.3516 1194.89 58.3516 1194.64C58.6455 1193.61 58.3516 1192.33 57.4699 1191.3ZM101.557 1282.95L88.6248 1258.82L149.171 1237.51C149.465 1237.77 149.465 1238.02 149.759 1238.28L105.966 1283.47C105.378 1283.21 104.79 1282.95 104.202 1282.95C103.321 1282.7 102.439 1282.7 101.557 1282.95ZM88.037 1257.79L55.7064 1197.72C56.2942 1197.46 56.882 1196.95 57.4699 1196.43L117.428 1221.08L148.583 1233.92L148.583 1234.17C148.29 1234.94 148.29 1235.71 148.583 1236.23L88.037 1257.79ZM-8.66098 1288.6L2.21384 1190.27L48.0646 1193.87C48.0646 1195.15 48.9463 1196.43 50.122 1197.2L-7.7792 1288.6C-8.07315 1288.6 -8.36703 1288.6 -8.66098 1288.6ZM-6.6036 1289.37L51.2977 1197.97C51.5916 1197.97 51.8855 1198.23 52.1794 1198.23C53.0611 1198.49 53.9429 1198.49 54.8247 1198.23L86.8614 1258.31L-5.42788 1290.65C-5.72183 1290.14 -6.30966 1289.63 -6.6036 1289.37ZM-67.15 1331.48C-67.15 1331.22 -67.15 1331.22 -67.15 1330.96C-66.8561 1329.94 -67.15 1328.91 -67.4439 1327.88L-13.6575 1295.79C-13.0697 1296.56 -12.188 1297.07 -11.0123 1297.07C-10.4245 1297.33 -9.54269 1297.33 -8.95486 1297.07L11.0313 1361.77C10.1496 1362.03 9.26786 1362.8 8.68003 1363.57L-67.15 1331.48ZM-39.2281 1450.6L-16.0088 1483.46L-55.0995 1502.98C-55.6873 1502.21 -56.2752 1501.69 -57.1569 1501.43L-43.049 1451.88C-41.8733 1451.88 -40.4037 1451.63 -39.2281 1450.6ZM-38.3463 1449.83C-38.0524 1449.32 -37.7585 1448.8 -37.7585 1448.29C-37.7585 1448.03 -37.7585 1447.78 -37.7585 1447.26L18.3792 1463.44C18.0853 1464.21 18.3792 1465.24 18.6731 1466.01L-15.1271 1482.69L-38.3463 1449.83ZM-43.049 1442.9L-59.5082 1376.92L8.09214 1367.68C8.38608 1368.45 8.97391 1369.22 9.85569 1369.99L-23.9445 1418.51L-40.9916 1443.16C-40.9916 1443.16 -40.9916 1443.16 -41.2855 1443.16C-42.1672 1442.9 -42.4612 1442.9 -43.049 1442.9ZM11.0313 1370.24C11.3252 1370.24 11.6192 1370.5 11.9131 1370.5C12.207 1370.5 12.5009 1370.5 12.7948 1370.5L18.9671 1426.47L-39.2281 1443.67C-39.522 1443.41 -39.8159 1443.41 -40.1099 1443.16L11.0313 1370.24ZM18.9671 1428.01L22.494 1460.1C21.0245 1460.36 19.8488 1461.38 18.9671 1462.41L-37.7585 1445.98C-37.7585 1445.47 -38.0524 1445.21 -38.3463 1444.7L18.9671 1428.01ZM27.7845 1461.9L97.1484 1406.96C97.4423 1407.21 97.7362 1407.47 98.3241 1407.47L82.1587 1450.6L28.6662 1462.67C28.3723 1462.41 28.0784 1462.15 27.7845 1461.9ZM26.9028 1460.87C26.3149 1460.36 25.7271 1460.1 24.8454 1459.84C24.5514 1459.84 24.2575 1459.84 23.6697 1459.84L20.1427 1427.5L95.6788 1405.16C95.6788 1405.42 95.9728 1405.67 95.9728 1405.67L26.9028 1460.87ZM20.1427 1426.47L14.2644 1370.76C15.44 1370.5 16.6158 1369.73 17.4975 1368.96L50.122 1382.82L95.6788 1402.08C95.6788 1402.33 95.6788 1402.33 95.6788 1402.59C95.3849 1403.11 95.3849 1403.88 95.6788 1404.39L20.1427 1426.47ZM49.8281 1381.28L17.7914 1367.68C17.7914 1367.42 17.7914 1367.42 17.7914 1367.16C18.0853 1365.88 17.7914 1364.34 16.9096 1363.31L39.835 1343.29L96.5605 1400.28C96.2666 1400.54 96.2666 1400.54 95.9728 1400.79L49.8281 1381.28ZM16.0279 1362.54C15.4401 1362.28 14.8522 1361.77 13.9705 1361.77C13.3827 1361.77 12.7948 1361.51 12.207 1361.77L-7.7792 1297.07C-7.48532 1296.82 -7.19137 1296.82 -6.89749 1296.56L39.2472 1342.52L16.0279 1362.54ZM-67.7378 1332.5L8.09214 1364.85C8.09214 1365.11 8.09214 1365.11 8.09214 1365.36C8.09214 1365.62 8.09214 1366.14 8.09214 1366.39L-59.8021 1375.63L-70.0891 1334.3C-69.2074 1334.04 -68.3256 1333.27 -67.7378 1332.5ZM-161.203 1388.73L-75.6735 1333.27C-75.0857 1333.79 -74.2039 1334.3 -73.0283 1334.56C-72.4405 1334.56 -71.8526 1334.81 -71.5587 1334.56L-61.2717 1375.89L-160.909 1389.5C-160.909 1389.24 -161.203 1388.98 -161.203 1388.73ZM-160.615 1391.81C-160.615 1391.55 -160.615 1391.04 -160.615 1390.78L-60.9778 1377.17L-44.5186 1443.16C-45.4003 1443.41 -46.2821 1443.93 -46.8699 1444.7L-160.909 1392.32C-160.909 1392.32 -160.909 1392.07 -160.615 1391.81ZM-162.085 1393.86C-161.791 1393.61 -161.791 1393.61 -161.497 1393.35L-47.4577 1445.72C-47.4577 1445.98 -47.7516 1445.98 -47.7516 1446.24C-47.7516 1446.49 -47.7516 1446.75 -47.7516 1447.01L-109.768 1450.34L-162.085 1393.86ZM-123.876 1447.52C-125.051 1447.26 -125.933 1447.52 -127.109 1447.78L-160.909 1397.2L-111.237 1450.34L-120.055 1450.86C-120.349 1449.32 -121.818 1447.78 -123.876 1447.52ZM-47.7516 1448.29C-47.4577 1449.83 -46.2821 1451.11 -44.8125 1451.63L-58.6265 1501.18C-60.0961 1500.92 -61.2717 1501.18 -62.4474 1501.69L-108.886 1451.63L-47.7516 1448.29ZM-120.936 1454.45C-120.643 1453.94 -120.349 1453.43 -120.055 1452.91C-120.055 1452.66 -120.055 1452.4 -120.055 1452.14L-110.355 1451.63L-66.2682 1499.38L-120.936 1454.45ZM-175.311 1597.2L-126.227 1456.25C-124.757 1456.51 -123.288 1455.99 -122.112 1455.22L-63.9169 1502.72C-64.2109 1503.23 -64.5047 1503.75 -64.7987 1504.26C-65.0926 1505.8 -64.7987 1507.08 -63.623 1508.11L-173.547 1597.97C-173.841 1597.71 -174.429 1597.2 -175.311 1597.2ZM-62.7413 1509.14C-62.4473 1509.14 -62.4474 1509.39 -62.1535 1509.39L-99.7746 1578.46L-113.295 1603.36C-113.589 1603.36 -113.589 1603.36 -113.882 1603.36C-116.528 1602.85 -119.467 1604.39 -120.055 1606.7L-172.078 1601.82C-172.078 1600.79 -172.372 1599.76 -172.959 1598.99L-62.7413 1509.14ZM-57.7447 1509.65L-22.7689 1580.77L-109.768 1605.67C-110.062 1604.9 -110.943 1604.39 -111.531 1603.87L-83.6092 1552.27L-75.3796 1537.12L-60.6839 1509.91C-59.8021 1509.91 -58.6265 1509.91 -57.7447 1509.65ZM4.85912 1713.76L7.79827 1788.47L7.50439 1788.47L-19.2418 1725.82C-18.0662 1725.31 -16.8906 1724.28 -16.5966 1722.74C-16.0088 1720.69 -17.1845 1718.63 -19.2418 1717.86L4.85912 1713.76ZM-19.5358 1716.84L1.62609 1635.19L4.56524 1712.47L-19.5358 1716.84ZM-153.267 1651.88L-141.51 1638.53L-97.4232 1683.2C-97.7171 1683.46 -98.011 1683.72 -98.011 1683.97L-151.797 1656.76C-151.797 1656.5 -151.797 1656.5 -151.504 1656.25C-151.21 1654.71 -151.797 1652.91 -153.267 1651.88ZM-218.81 1655.73L-234.681 1563.56C-234.388 1563.56 -234.094 1563.31 -233.506 1563.31L-159.733 1652.4C-160.321 1652.91 -160.909 1653.68 -161.203 1654.71C-161.203 1654.96 -161.203 1654.96 -161.203 1655.22L-218.81 1655.73ZM-157.676 1650.85L-175.017 1605.41C-174.723 1605.41 -174.723 1605.16 -174.429 1605.16L-142.392 1637.76L-154.443 1651.37C-154.737 1651.37 -155.031 1651.11 -155.324 1651.11C-156.206 1650.85 -157.088 1650.85 -157.676 1650.85ZM-235.857 1763.05C-235.857 1764.33 -235.269 1765.62 -234.094 1766.64L-254.668 1794.37L-306.103 1757.91C-305.809 1757.66 -305.809 1757.14 -305.515 1756.89L-235.857 1763.05ZM-289.35 1756.89L-232.624 1758.94C-234.094 1759.45 -234.975 1760.48 -235.563 1761.76L-289.35 1756.89ZM-225.57 1764.33C-225.57 1764.08 -225.57 1763.82 -225.57 1763.56L-165.024 1762.02C-164.73 1763.05 -164.142 1764.08 -163.26 1764.85L-180.601 1789.75L-226.158 1765.1C-225.864 1764.85 -225.57 1764.59 -225.57 1764.33ZM-225.57 1762.28C-225.864 1760.99 -226.746 1759.97 -228.215 1759.2L-178.544 1760.99L-225.57 1762.28ZM-305.221 1755.35C-305.221 1754.83 -305.515 1754.32 -305.515 1753.81L-215.577 1702.2C-214.989 1702.97 -213.814 1703.49 -212.932 1703.74C-211.756 1704 -210.287 1703.74 -209.405 1703.23L-163.554 1757.91C-164.142 1758.43 -164.73 1759.2 -165.024 1760.22L-165.024 1760.48L-305.221 1755.35ZM-339.609 1662.41L-322.856 1716.58L-356.362 1721.97C-356.95 1720.69 -357.832 1719.66 -359.301 1719.15L-341.079 1662.15C-340.491 1662.41 -340.197 1662.41 -339.609 1662.41ZM-322.856 1717.86L-312.569 1751.5C-313.157 1751.75 -314.038 1752.27 -314.332 1752.78L-356.95 1726.08C-356.656 1725.82 -356.656 1725.31 -356.362 1725.05C-356.362 1724.54 -356.362 1724.28 -356.362 1723.77L-322.856 1717.86ZM-309.336 1750.98C-309.924 1750.98 -310.511 1750.73 -311.099 1750.98L-321.386 1717.61L-216.753 1700.66C-216.753 1700.92 -216.459 1701.18 -216.459 1701.18L-306.397 1752.78C-307.278 1752.01 -308.16 1751.24 -309.336 1750.98ZM-158.558 1693.99L-160.615 1756.89C-161.203 1756.89 -162.084 1757.14 -162.672 1757.4L-208.817 1702.46C-208.229 1701.95 -207.641 1701.18 -207.347 1700.15C-207.347 1699.89 -207.347 1699.38 -207.347 1699.12L-158.558 1693.99ZM-207.053 1698.09C-207.347 1697.58 -207.347 1697.07 -207.935 1696.55L-160.027 1658.81C-159.439 1659.33 -158.558 1659.58 -157.97 1659.84L-157.676 1659.84L-158.851 1692.7L-207.053 1698.09ZM-156.206 1758.17L-95.9537 1690.14C-95.3658 1690.39 -95.0719 1690.65 -94.4841 1690.65C-93.0145 1690.91 -91.8388 1690.65 -90.6632 1690.14L-52.4542 1730.19L-155.324 1759.45C-155.618 1758.94 -155.912 1758.43 -156.206 1758.17ZM-89.7814 1689.37L-89.4875 1689.11L-26.2958 1720.43C-26.2958 1720.69 -26.5897 1720.94 -26.5897 1721.2C-26.8836 1721.71 -26.8836 1722.48 -26.5897 1723L-50.9847 1729.93L-89.7814 1689.37ZM-97.1293 1689.37L-157.382 1757.4C-157.97 1757.14 -158.264 1756.89 -158.851 1756.89L-159.145 1756.89L-157.088 1693.73L-98.5989 1687.31C-98.3049 1688.08 -97.7171 1688.85 -97.1293 1689.37ZM-157.088 1692.45L-156.206 1659.58C-154.737 1659.33 -153.267 1658.81 -152.385 1657.53L-98.5989 1684.74C-98.5989 1684.74 -98.5989 1684.74 -98.5989 1685C-98.5989 1685.26 -98.5989 1685.77 -98.5989 1686.03L-157.088 1692.45ZM-160.909 1658.04L-208.817 1695.78C-209.405 1695.27 -210.287 1695.01 -210.874 1694.76C-211.168 1694.76 -211.756 1694.76 -212.05 1694.76L-218.516 1657.02L-161.497 1656.25C-161.497 1656.76 -161.203 1657.27 -160.909 1658.04ZM-213.52 1694.76C-214.989 1695.01 -215.871 1695.78 -216.753 1697.07L-335.2 1659.07C-335.2 1658.81 -335.2 1658.81 -335.2 1658.56L-220.28 1657.02L-213.52 1694.76ZM-217.047 1698.09C-217.047 1698.61 -217.047 1698.86 -217.047 1699.38L-321.68 1716.32L-338.433 1662.15C-337.258 1661.89 -336.376 1661.12 -335.788 1660.1L-217.047 1698.09ZM-343.136 1661.64L-411.03 1784.1C-411.324 1784.1 -411.324 1784.1 -411.618 1784.1C-411.618 1784.1 -411.618 1784.1 -411.912 1784.1L-405.152 1687.31L-344.606 1660.61C-344.018 1660.87 -343.724 1661.38 -343.136 1661.64ZM-343.136 1664.21L-360.771 1719.15C-363.416 1718.89 -366.061 1720.17 -366.649 1722.48C-366.943 1724.02 -366.355 1725.82 -365.18 1726.85L-408.385 1781.79L-343.136 1664.21ZM-357.832 1726.59L-314.92 1753.55C-315.214 1753.81 -315.214 1754.32 -315.214 1754.58C-315.508 1755.35 -315.508 1755.86 -315.214 1756.63L-341.96 1765.1L-358.714 1727.62C-358.42 1727.11 -358.126 1726.85 -357.832 1726.59ZM-314.92 1757.66C-314.332 1758.68 -313.157 1759.71 -311.393 1759.97C-311.099 1759.97 -310.805 1759.97 -310.511 1759.97L-302.576 1853.42C-302.576 1853.42 -302.576 1853.42 -302.87 1853.42L-341.666 1766.13L-314.92 1757.66ZM-300.518 1853.68C-300.812 1853.68 -301.106 1853.68 -301.4 1853.68L-309.63 1759.97C-308.748 1759.71 -307.866 1759.45 -306.985 1758.94L-255.255 1795.14L-299.343 1853.93C-299.637 1853.68 -299.931 1853.68 -300.518 1853.68ZM-253.492 1794.88L-232.624 1767.16C-232.33 1767.41 -232.036 1767.41 -231.448 1767.41C-230.861 1767.67 -229.979 1767.67 -229.391 1767.41L-208.817 1824.41C-209.405 1824.66 -209.699 1824.92 -210.287 1825.18L-253.492 1794.88ZM-205.878 1824.41C-206.466 1824.15 -207.347 1824.15 -207.935 1824.41L-228.509 1767.41C-227.628 1767.16 -227.04 1766.64 -226.452 1766.13L-181.189 1790.52L-204.996 1824.66C-205.29 1824.66 -205.584 1824.41 -205.878 1824.41ZM-179.425 1790.26L-162.085 1765.36C-161.791 1765.36 -161.497 1765.62 -161.203 1765.62C-160.321 1765.87 -159.733 1765.87 -158.851 1765.62L-139.453 1809.77C-140.041 1810.03 -140.629 1810.54 -140.923 1810.8L-179.425 1790.26ZM-135.926 1809.52C-136.808 1809.26 -137.396 1809.26 -138.277 1809.52L-156.5 1767.93L-127.403 1812.08L-132.399 1812.86C-132.693 1811.06 -134.163 1809.77 -135.926 1809.52ZM-156.794 1764.85C-155.912 1764.33 -155.324 1763.56 -155.031 1762.79L3.38958 1792.57L3.68347 1792.83L3.68347 1793.09L-125.639 1811.57L-156.794 1764.85ZM-154.737 1761.76C-154.737 1761.25 -154.737 1760.99 -154.737 1760.48L-51.2786 1730.96L5.15301 1789.75C4.56518 1790.26 4.2713 1790.78 3.97741 1791.29L-154.737 1761.76ZM-50.1029 1730.7L-26.0019 1723.77C-25.4141 1725.05 -24.2384 1725.82 -22.4749 1726.34C-21.5932 1726.59 -21.0054 1726.59 -20.1236 1726.34L-12.7758 1743.79L6.32873 1788.98C6.32873 1788.98 6.03478 1788.98 6.03478 1789.24L-50.1029 1730.7ZM-25.4141 1719.15L-88.6058 1687.82C-88.6058 1687.57 -88.3118 1687.31 -88.3118 1687.05C-88.0179 1686.03 -88.3119 1684.74 -88.8997 1683.97L-64.5048 1669.85L-24.8263 1718.63C-25.1202 1718.89 -25.4141 1718.89 -25.4141 1719.15ZM-89.7814 1682.95C-90.3692 1682.43 -91.251 1681.92 -92.4267 1681.66C-93.0145 1681.66 -93.6023 1681.41 -94.1901 1681.66L-113.001 1611.83C-112.707 1611.83 -112.707 1611.57 -112.413 1611.57L-65.6804 1669.08L-89.7814 1682.95ZM-115.94 1612.09C-115.352 1612.09 -114.764 1612.34 -114.176 1612.09L-95.6597 1682.18C-95.9536 1682.18 -96.2475 1682.43 -96.5415 1682.43L-140.923 1637.5L-117.703 1611.32C-116.822 1611.57 -116.234 1611.83 -115.94 1612.09ZM-141.51 1636.73L-173.253 1604.64C-172.665 1604.13 -172.372 1603.62 -172.078 1602.85L-119.761 1607.72C-119.761 1609.01 -119.173 1610.03 -118.291 1610.8L-141.51 1636.73ZM-232.624 1562.28L-181.189 1598.99C-181.483 1599.51 -181.777 1599.76 -181.777 1600.28C-182.365 1602.59 -180.601 1605.16 -177.956 1605.67C-177.368 1605.67 -176.78 1605.93 -176.192 1605.67L-158.851 1651.37L-232.624 1562.28C-232.624 1562.28 -232.918 1562.28 -232.624 1562.28ZM-336.376 1654.96L-239.384 1562.79C-238.796 1563.05 -238.208 1563.31 -237.621 1563.56C-237.327 1563.56 -236.739 1563.56 -236.445 1563.56L-220.28 1655.73L-335.2 1657.27C-335.2 1656.5 -335.788 1655.73 -336.376 1654.96ZM-397.216 1629.29L-344.9 1656.25C-344.9 1656.5 -345.193 1656.76 -345.193 1657.02C-345.487 1657.79 -345.193 1658.56 -345.193 1659.33L-404.858 1685.77L-401.037 1631.34C-399.568 1631.34 -398.098 1630.57 -397.216 1629.29ZM-524.775 1738.4L-404.564 1630.32C-403.976 1630.83 -403.095 1631.09 -402.507 1631.34L-406.328 1686.54L-524.481 1738.66C-524.481 1738.4 -524.481 1738.4 -524.775 1738.4ZM-523.894 1742.51L-523.894 1742.25C-523.6 1741.48 -523.894 1740.46 -524.188 1739.69L-406.622 1687.82L-413.382 1783.84C-415.145 1783.84 -416.615 1784.61 -417.496 1785.9L-523.894 1742.51ZM-409.267 1784.87L-363.71 1727.62C-363.416 1727.88 -362.828 1727.88 -362.534 1728.13C-361.653 1728.39 -360.771 1728.39 -360.183 1728.13L-343.43 1765.62L-408.091 1786.41C-408.385 1785.64 -408.679 1785.38 -409.267 1784.87ZM-408.091 1790.52C-407.797 1790.26 -407.797 1789.75 -407.503 1789.49C-407.209 1788.72 -407.209 1788.21 -407.503 1787.44L-342.842 1766.64L-304.045 1853.93C-304.633 1854.19 -304.927 1854.45 -305.221 1854.7L-408.091 1790.52ZM-212.05 1829.8L-296.991 1855.99C-297.285 1855.47 -297.579 1854.96 -298.167 1854.7L-254.374 1796.17L-211.462 1826.72C-211.756 1827.23 -212.05 1827.49 -212.05 1828C-212.05 1828.52 -212.05 1829.03 -212.05 1829.8ZM-202.057 1827.23C-202.351 1826.46 -202.939 1825.95 -203.526 1825.44L-179.719 1791.29L-141.51 1812.08C-141.51 1812.34 -141.804 1812.6 -141.804 1812.86C-141.804 1813.37 -142.098 1813.88 -141.804 1814.4L-202.057 1827.23ZM-133.575 1817.22C-132.987 1816.71 -132.399 1815.94 -132.105 1814.91C-132.105 1814.65 -132.105 1814.14 -132.105 1813.88L-126.815 1813.11L-87.1362 1873.19L-133.575 1817.22ZM-81.8457 1878.07L-125.051 1812.6L3.97741 1794.11C4.2713 1794.63 4.56518 1795.4 5.15301 1795.91L-76.8492 1878.32C-77.437 1878.07 -78.0248 1877.81 -78.6127 1877.55C-79.7883 1877.55 -80.964 1877.81 -81.8457 1878.07ZM-76.2614 1879.35L5.7409 1796.94C6.32873 1797.19 6.62268 1797.45 7.21051 1797.45L-3.66443 1864.46L-75.3796 1880.63C-75.3796 1880.12 -75.6735 1879.61 -76.2614 1879.35ZM-14.2453 1903.23L-75.0857 1883.2C-75.0857 1882.69 -74.7917 1882.17 -75.0857 1881.66L-3.95831 1865.49L-9.83661 1900.66C-11.6001 1900.92 -13.3636 1901.69 -14.2453 1903.23ZM52.7673 1853.93L-6.30963 1901.94C-6.89746 1901.43 -7.48529 1901.17 -8.367 1901.17L-2.48871 1865.49L52.1794 1853.16C52.4733 1853.42 52.4734 1853.68 52.7673 1853.93ZM51.8855 1850.34C51.8855 1850.85 51.5916 1851.37 51.8855 1851.88L-2.19483 1864.2L8.3861 1798.48L53.3551 1848.28C52.7673 1848.8 52.1794 1849.57 51.8855 1850.34ZM56.5881 1846.74C55.7064 1846.74 55.1186 1847 54.5308 1847.26L9.56176 1797.19C11.6192 1796.94 13.3827 1795.65 13.9705 1793.86C14.5583 1792.06 13.6766 1790.26 11.9131 1789.24L61.8786 1705.8L56.5881 1846.74ZM10.4435 1788.72C10.1496 1788.72 10.1496 1788.72 9.85571 1788.47C9.56176 1788.47 9.56176 1788.47 9.26788 1788.47L6.32873 1713.5L61.2908 1704L10.4435 1788.72ZM61.2908 1702.97L6.32873 1712.47L3.38958 1635.19C3.9774 1635.19 4.56523 1634.94 4.85912 1634.68L61.2908 1702.97ZM0.450427 1634.94L-21.0054 1717.35C-21.8871 1717.35 -23.0628 1717.35 -23.9445 1717.86L-63.623 1669.34L-1.60695 1633.65C-1.01912 1634.17 -0.431347 1634.68 0.450427 1634.94ZM-2.48872 1632.63L-64.5048 1668.31L-111.531 1610.8C-110.943 1610.29 -110.355 1609.78 -110.062 1609.01L-3.07655 1630.32C-3.07655 1631.09 -2.78267 1632.11 -2.48872 1632.63ZM-2.48872 1629.29L-109.474 1607.98C-109.474 1607.47 -109.474 1607.21 -109.474 1606.7L-22.181 1581.79L-0.137403 1626.98C-1.31306 1627.49 -2.19484 1628.26 -2.48872 1629.29ZM38.3654 1566.9L3.9774 1626.47C3.68346 1626.47 3.68346 1626.47 3.38957 1626.21C2.5078 1625.95 1.62603 1625.95 0.744311 1626.21L-21.2993 1581.28L36.308 1564.85C36.8959 1565.62 37.4837 1566.39 38.3654 1566.9ZM36.0141 1562.02C35.7202 1562.54 35.7202 1563.31 36.0141 1563.82L-21.8871 1580.25L-56.863 1508.88C-56.569 1508.62 -55.9812 1508.37 -55.6873 1508.11L-38.9342 1517.87L36.308 1561C36.308 1561.51 36.308 1561.77 36.0141 1562.02ZM37.1897 1560.23L-37.1707 1517.35L-54.8056 1507.34C-54.8056 1507.08 -54.5116 1506.83 -54.5116 1506.57C-54.2177 1505.8 -54.5117 1504.77 -54.8056 1504L-15.421 1484.49L37.7776 1559.71C37.4837 1559.71 37.4837 1559.97 37.1897 1560.23ZM38.9532 1558.94L-14.2453 1483.72L19.5549 1467.03C20.1427 1467.8 21.3183 1468.57 22.494 1468.83C22.7879 1468.83 23.3758 1468.83 23.6697 1468.83L39.5411 1558.69C39.5411 1558.94 39.2472 1558.94 38.9532 1558.94ZM41.0107 1558.69L25.1393 1468.83C26.9028 1468.32 28.3723 1467.29 28.9601 1465.49C28.9601 1464.98 29.2541 1464.46 28.9601 1463.95L81.8648 1451.88L41.8924 1558.69C41.3046 1558.69 41.3046 1558.69 41.0107 1558.69ZM187.968 1428.78L43.6559 1556.38L83.0404 1451.37L187.38 1427.75C187.674 1428.27 187.674 1428.52 187.968 1428.78ZM187.086 1426.72L83.6283 1450.34L99.4997 1407.98C101.851 1408.5 104.202 1407.21 105.084 1405.42L187.086 1425.7C187.086 1425.95 187.086 1426.21 187.086 1426.72ZM189.144 1422.62C188.556 1423.13 187.968 1423.64 187.38 1424.41L105.378 1404.13C105.672 1401.82 104.202 1399.51 101.557 1399L101.263 1399L103.908 1291.68C104.496 1291.68 104.79 1291.43 105.378 1291.43L189.144 1422.62ZM102.145 1291.68L102.439 1291.68L99.7936 1399C98.9119 1399 98.3241 1399.25 97.4423 1399.77L40.7167 1342.77L99.7936 1290.91C100.675 1291.17 101.263 1291.43 102.145 1291.68ZM99.2058 1289.88L40.1289 1341.75L-5.72183 1295.79C-5.134 1295.28 -4.84005 1294.76 -4.84005 1293.99C-4.84005 1293.74 -4.84005 1293.22 -4.84005 1292.97L98.0301 1288.09C98.324 1288.6 98.618 1289.37 99.2058 1289.88ZM98.3241 1286.29C98.3241 1286.55 98.3241 1286.8 98.3241 1287.06L-4.54611 1291.94L-4.54611 1291.68L87.7431 1259.33L100.675 1283.47C99.4997 1283.98 98.618 1285.01 98.3241 1286.29ZM169.158 1246.5C168.864 1247.01 168.57 1247.27 168.57 1247.78C168.276 1248.81 168.57 1249.83 168.864 1250.6L107.142 1284.24C107.142 1284.24 107.141 1284.24 106.848 1283.98L150.641 1238.79C151.229 1239.05 151.816 1239.31 152.404 1239.31C154.168 1239.56 155.931 1239.05 157.107 1238.02L169.158 1246.5ZM170.039 1245.47L157.989 1237.51C158.283 1237 158.577 1236.74 158.577 1236.23C158.871 1234.94 158.577 1233.92 157.989 1232.89L170.333 1224.42L172.391 1244.44C171.509 1244.44 170.627 1244.96 170.039 1245.47ZM211.775 1196.18L175.624 1244.7C175.33 1244.44 175.036 1244.44 174.448 1244.44C174.154 1244.44 173.86 1244.44 173.566 1244.44L171.215 1223.9L211.775 1196.18C211.775 1195.92 211.775 1195.92 211.775 1196.18ZM210.306 1191.56C210.012 1192.84 210.306 1193.87 210.893 1194.89L171.509 1222.36L159.752 1115.56C160.046 1115.56 160.34 1115.3 160.634 1115.3L212.069 1189.24C211.187 1189.76 210.599 1190.53 210.306 1191.56ZM210.306 1083.98C210.599 1083.98 210.599 1083.98 210.893 1083.98L214.42 1188.22L214.126 1188.22L176.505 1101.18L207.66 1082.44C208.248 1083.21 209.13 1083.73 210.306 1083.98ZM206.779 1077.31C206.485 1077.56 206.485 1078.08 206.191 1078.59C205.897 1079.62 206.191 1080.65 206.779 1081.67L175.918 1100.16L150.641 1042.13C151.229 1041.88 151.816 1041.62 152.11 1041.36L206.779 1077.31ZM147.408 1042.39C147.702 1042.39 147.702 1042.39 147.996 1042.39L157.107 1106.83C156.519 1107.09 155.637 1107.35 155.05 1107.6L104.79 1065.5L144.175 1040.59C145.35 1041.62 146.232 1042.13 147.408 1042.39ZM143.587 1038.28C143.587 1038.8 143.881 1039.31 143.881 1039.82L104.202 1064.73L69.5204 1035.72C69.8143 1035.2 70.1082 1034.69 70.1082 1034.18C70.1082 1033.92 70.1082 1033.66 70.1082 1033.66L143.587 1038.28ZM146.526 1033.92C145.056 1034.43 143.881 1035.72 143.587 1037L70.4021 1032.38C70.4021 1031.87 70.1082 1031.61 69.8143 1031.1L129.185 996.436C130.361 998.233 133.006 998.747 135.063 998.233L146.526 1033.92ZM149.171 1033.41L149.759 1033.66C149.171 1033.66 148.583 1033.41 147.996 1033.66L136.239 997.976C138.296 996.693 139.178 994.125 138.003 992.072C138.003 991.815 137.709 991.815 137.709 991.815L148.583 985.396L169.745 973.073C170.039 973.33 170.039 973.33 170.333 973.587C170.627 973.843 170.627 973.843 170.921 974.1L149.171 1033.41ZM170.039 888.607L172.684 965.114C172.097 965.114 171.509 965.371 171.215 965.628C170.627 965.885 170.039 966.141 169.745 966.655L147.996 953.561L170.039 888.607ZM168.57 888.35L146.82 953.048L107.435 929.428C108.023 928.144 108.317 926.604 107.435 925.32L167.394 887.58C167.688 887.837 167.982 888.094 168.57 888.35ZM165.631 884.756C165.631 885.27 165.924 885.783 166.218 886.296C166.218 886.553 166.512 886.553 166.512 886.81L106.848 924.293C106.554 923.78 105.966 923.523 105.378 923.266L117.722 881.675L165.631 884.756ZM149.465 817.491L169.157 879.621C168.864 879.621 168.57 879.878 168.276 879.878C166.806 880.648 165.631 881.932 165.631 883.216L118.016 880.392L142.411 798.493C142.705 798.493 142.999 798.493 143.587 798.493L149.465 817.491ZM140.942 798.493L116.547 880.392L46.595 876.027C46.595 875.514 46.3011 874.743 46.0072 874.23C46.0072 873.973 45.7133 873.716 45.7133 873.716L139.472 797.979C139.766 798.236 140.354 798.493 140.942 798.493ZM136.827 794.642C136.827 795.155 137.121 795.669 137.415 796.182C137.709 796.696 138.003 796.953 138.296 797.209L44.5376 872.946C43.9498 872.433 43.362 872.176 42.4802 872.176L56.5881 787.71L136.827 794.642ZM137.121 792.331C137.121 792.588 136.827 793.102 136.827 793.358L56.882 786.426L61.5847 758.186C62.4664 758.186 63.0542 757.929 63.936 757.672C64.8177 757.415 65.4055 756.902 65.6995 756.388L137.121 792.331ZM57.176 755.618C57.7638 756.902 59.2333 757.672 60.409 757.929L55.7064 786.426L-40.9916 777.954C-40.9916 777.697 -40.9916 777.697 -40.9916 777.441L-7.1914 769.739L56.882 755.361C57.1759 755.361 57.176 755.361 57.176 755.618ZM56.882 752.024C56.5881 752.537 56.5881 753.307 56.5881 754.078L-7.77922 768.712L-41.2855 776.157C-41.2855 776.157 -41.2855 775.9 -41.5795 775.9C-41.8734 775.13 -42.4612 774.617 -43.049 774.36L-11.894 724.04L56.882 752.024ZM-11.3062 722.756L36.014 645.992C36.6019 646.249 37.1898 646.249 38.0715 646.249L60.409 749.2C60.1151 749.2 59.8212 749.457 59.5272 749.457C58.6455 749.713 58.0577 750.483 57.4699 750.997L-11.3062 722.756ZM103.908 727.634L65.6995 750.483C64.5238 749.457 63.0543 748.943 61.5847 748.943L39.2471 645.992C39.541 645.992 39.541 645.735 39.835 645.735L103.908 727.634ZM34.8384 645.479L-12.4819 722.243L-40.4038 710.946C-40.1099 709.919 -40.1099 708.636 -40.6977 707.609C-40.6977 707.352 -40.9916 707.095 -40.9916 707.095L34.8384 645.479C34.8384 645.479 34.5445 645.479 34.8384 645.479ZM33.0749 643.681C33.3688 643.938 33.3688 644.195 33.6628 644.452L-41.8734 705.812C-42.4612 705.298 -43.3429 705.041 -43.9308 704.785L-36.289 631.615L32.781 641.371C32.4871 642.398 32.4871 643.168 33.0749 643.681ZM33.0749 639.83C32.781 640.087 32.781 640.344 32.781 640.857L-36.289 631.101L-33.3498 602.604C-32.762 602.604 -31.8803 602.347 -31.2924 602.09C-30.7046 601.834 -30.1168 601.577 -29.8229 601.063L33.0749 639.83ZM53.9429 580.011C54.5307 581.038 55.4124 581.808 56.5881 582.065L38.6593 637.006C37.4836 636.75 36.6019 637.006 35.4262 637.52C34.8384 637.776 34.2506 638.29 33.9567 638.547L-28.9411 599.78C-28.3533 599.009 -28.3533 597.983 -28.3533 597.212L53.9429 579.498C53.6489 579.754 53.6489 580.011 53.9429 580.011ZM53.355 578.471L-28.9411 596.185C-28.9411 595.929 -28.9411 595.929 -29.235 595.672C-29.529 595.415 -29.8229 594.902 -30.1168 594.645L15.44 549.46L53.9429 575.647C53.355 576.674 53.0611 577.701 53.355 578.471ZM84.2161 482.708L58.9394 573.593C58.0577 573.593 56.882 573.593 56.0002 574.106C55.4124 574.363 55.1185 574.62 54.8246 574.876L16.3218 548.689L83.0404 482.195C83.6282 482.452 83.9222 482.708 84.2161 482.708ZM81.5709 480.654C81.8647 480.911 82.1587 481.425 82.1587 481.681L15.44 548.176L-45.9882 506.328C-45.4004 505.558 -45.1064 504.531 -45.4004 503.761L80.983 480.141C81.2769 480.141 81.2769 480.398 81.5709 480.654ZM80.983 478.344C80.983 478.601 80.983 478.857 80.983 479.114L-45.4004 502.734C-45.4004 502.477 -45.6942 502.477 -45.6942 502.22C-45.6942 501.964 -45.9882 501.707 -45.9882 501.707L-0.725344 464.48L80.983 478.344ZM77.75 476.547L0.156431 463.197L6.62256 457.805C8.0921 458.832 10.4435 459.089 12.207 458.318C13.0887 457.805 13.9705 457.291 14.5583 456.265L77.75 476.547ZM4.85907 454.467C4.85907 454.981 5.15301 455.751 5.4469 456.265C5.4469 456.521 5.74084 456.778 5.74084 456.778L-1.31311 462.683L-70.3831 450.616L4.85907 454.467ZM7.21045 450.36C5.74084 451.13 4.85907 452.157 4.85907 453.441L-74.7918 449.333C-74.7918 448.819 -75.0858 448.049 -75.3797 447.536C-76.2614 446.252 -77.437 445.482 -78.9066 445.225L-60.0961 314.29C-59.5083 314.29 -58.9204 314.29 -58.0387 314.033L7.21045 450.36ZM-61.5657 314.033L-80.3762 445.225C-80.6701 445.225 -80.964 445.225 -80.964 445.225L-102.714 371.028L-110.649 344.071C-110.649 344.071 -110.356 344.071 -110.356 343.814C-107.71 342.787 -106.829 339.963 -108.004 337.91L-64.2109 312.493C-63.6231 313.263 -62.7413 313.776 -61.5657 314.033ZM-64.7987 311.466L-108.592 336.883C-109.474 336.112 -110.649 335.342 -112.119 335.342L-113.295 302.223L-65.0927 309.155C-65.3866 309.925 -65.0926 310.696 -64.7987 311.466ZM11.6191 308.642L-55.0996 309.155C-55.0996 308.642 -55.3935 308.128 -55.6874 307.615C-56.863 305.304 -60.0961 304.534 -62.7413 305.561C-63.3291 305.817 -63.917 306.074 -64.2109 306.588L-110.943 281.171L11.6191 308.642ZM12.5008 306.588C12.207 306.845 12.207 307.101 11.913 307.358L-110.356 279.887C-110.356 279.117 -110.356 278.09 -110.943 277.32C-110.943 277.063 -111.237 277.063 -111.237 276.807L-67.7379 244.201L12.5008 306.588ZM23.3757 178.99L16.3218 304.534C15.7339 304.534 15.1461 304.791 14.2643 305.047C13.9704 305.304 13.6766 305.304 13.0887 305.561L-66.5622 243.688L21.0244 177.963C21.6122 178.477 22.494 178.733 23.3757 178.99ZM19.5548 176.68C19.5548 176.936 19.8487 176.936 19.8487 177.193L-67.7379 242.917L-100.656 217.244C-99.7746 216.217 -99.4807 214.933 -99.7746 213.65L19.5548 176.68C19.5548 176.423 19.5548 176.423 19.5548 176.68ZM19.2609 175.396L-100.362 212.623C-100.656 212.109 -100.95 211.852 -101.244 211.596L-33.056 139.71L19.5548 172.315C19.2609 173.085 18.967 174.369 19.2609 175.396ZM89.2126 164.613L29.254 173.085C29.254 172.829 28.9601 172.572 28.9601 172.315C28.3722 171.545 27.7844 171.031 27.1966 170.518L53.9429 116.603L90.9761 160.762C89.8005 161.789 89.2126 163.329 89.2126 164.613ZM107.729 9.03122L94.5031 159.735C93.6214 159.735 93.0335 159.992 92.1518 160.249L54.5307 115.577L107.435 9.03122C107.435 8.77451 107.435 9.03122 107.729 9.03122ZM104.202 6.46396C104.79 7.2341 105.378 7.74765 106.26 8.26108L53.6489 114.293L-11.8941 36.5021C-10.7184 35.4751 -10.1306 34.1914 -10.4245 32.651L103.908 6.20725C103.908 6.46396 103.908 6.46396 104.202 6.46396Z" fill="url(#paint0_linear_216_8468)" fill-opacity="0.3"/>
<defs>
<linearGradient id="paint0_linear_216_8468" x1="-156.756" y1="1520.28" x2="-156.756" y2="246.905" gradientUnits="userSpaceOnUse">
<stop stop-color="#202932" stop-opacity="0"/>
<stop offset="0.1801" stop-color="#425667"/>
<stop offset="0.486" stop-color="#FEBA00"/>
<stop offset="0.784108" stop-color="#425667"/>
<stop offset="0.810151" stop-color="#425667"/>
<stop offset="0.9994" stop-color="#425667" stop-opacity="0"/>
</linearGradient>
</defs>
</svg>
