<svg width="70" height="70" viewBox="0 0 70 70" fill="none" xmlns="http://www.w3.org/2000/svg">
<path d="M60.1256 18.0513L65.3667 21.0942C60.3545 18.1842 49.7723 14.0376 37.5614 21.0809L32.3203 18.038C44.5312 10.9947 55.1134 15.1413 60.1256 18.0513Z" fill="white"/>
<path d="M37.5609 21.081C51.2111 13.2075 62.8259 19.3171 66.8999 22.0513C67.8231 22.6721 67.8281 24.4435 66.9114 26.1255C62.8663 33.5428 51.324 53.0094 37.6738 60.8829C24.0238 68.7562 12.4087 62.6468 8.34082 59.9091C7.41169 59.2918 7.40666 57.5204 8.32926 55.8349C12.3683 48.4211 23.9109 28.9543 37.5609 21.081Z" fill="#E6E6E6"/>
<path d="M66.9094 26.1276C62.8658 33.5382 51.3209 53.0122 37.6753 60.8872C24.0204 68.7529 12.4105 62.6423 8.33895 59.9121C7.40941 59.2899 7.40941 57.5162 8.32964 55.8353C10.2352 52.3529 13.7862 46.1959 18.4525 39.8438C21.8266 43.6327 26.7439 46.0194 32.219 46.0194C42.3789 46.0194 50.6238 37.7915 50.6238 27.632C50.6238 23.8802 49.4991 20.3977 47.5749 17.491C56.6753 16.1259 63.8698 20.017 66.9003 22.0508C67.8203 22.6729 67.8298 24.4467 66.9094 26.1276Z" fill="white"/>
<path d="M65.3661 21.4367C65.3071 21.4367 65.2481 21.4219 65.1939 21.3904L65.1778 21.3811C60.0575 18.4114 49.6964 14.4761 37.7322 21.3784C37.6263 21.4394 37.4942 21.4394 37.3883 21.3777L32.1475 18.3344C32.0416 18.2727 31.9766 18.1595 31.9766 18.0368C31.9766 17.9148 32.0422 17.8016 32.1481 17.7399C44.424 10.6614 55.0532 14.71 60.2968 17.754L65.5303 20.792C65.533 20.794 65.5357 20.7953 65.5383 20.7967C65.7025 20.8918 65.7582 21.1023 65.663 21.2658C65.5993 21.3757 65.484 21.4367 65.3661 21.4367ZM33.01 18.0415L37.5619 20.6847C46.1739 15.7843 53.9655 16.3473 59.638 18.1675C54.4963 15.2662 44.5272 11.6747 33.01 18.0415Z" fill="black"/>
<path d="M9.8924 60.8771L4.65129 57.8342C4.05315 57.4869 3.53402 57.157 3.10058 56.8652C2.17145 56.2479 2.16643 54.4765 3.08902 52.791C7.12807 45.3773 18.6706 25.9105 32.3207 18.0371L37.5618 21.08C23.9117 28.9534 12.3692 48.4202 8.33012 55.8339C7.40752 57.5194 7.41255 59.2908 8.34168 59.9081C8.77512 60.1999 9.29425 60.5298 9.8924 60.8771Z" fill="#454544"/>
<path d="M9.89177 61.2201C9.83279 61.2201 9.77381 61.2053 9.71953 61.1738L4.47864 58.1312C3.93445 57.8155 3.40634 57.4851 2.90839 57.15C1.82335 56.4289 1.77108 54.4833 2.78775 52.6262C7.07496 44.7562 18.5185 25.6015 32.1488 17.7395C32.256 17.6792 32.388 17.6792 32.4926 17.7402L37.7335 20.7835C37.8394 20.8452 37.9044 20.9584 37.9044 21.0811C37.9044 21.203 37.8387 21.3163 37.7328 21.378C24.2553 29.1515 12.8915 48.1782 8.63114 55.998C7.81351 57.4905 7.76928 59.1163 8.53128 59.623C9.01717 59.9494 9.5312 60.2711 10.062 60.5787L10.064 60.58C10.2282 60.6752 10.2838 60.8857 10.1887 61.0492C10.125 61.1591 10.0097 61.2201 9.89177 61.2201ZM32.3203 18.4338C18.9165 26.271 7.63122 45.169 3.39026 52.9553C2.57262 54.4478 2.52839 56.073 3.28973 56.5797C3.77695 56.9074 4.29233 57.2298 4.82312 57.5374L7.38727 59.0259C7.16074 58.1064 7.37118 56.8692 8.02864 55.6689C12.2629 47.8967 23.4772 29.1193 36.881 21.0824L32.3203 18.4338Z" fill="black"/>
<path d="M23.8358 65.1202C16.5702 65.1209 10.9065 62.0494 8.14862 60.1937C7.06358 59.4719 7.01131 57.5263 8.02799 55.6692C12.3159 47.7992 23.7614 28.6445 37.389 20.7831C51.0937 12.8803 62.7255 18.8376 67.0905 21.7656C68.1702 22.4915 68.2224 24.4363 67.2125 26.2894C62.9172 34.1642 51.4576 53.3276 37.8447 61.1802C32.8069 64.0855 28.0513 65.1202 23.8358 65.1202ZM37.7321 21.3783C24.2553 29.1518 12.8909 48.1785 8.63049 55.9983C7.81286 57.4908 7.76862 59.1167 8.53063 59.6233C12.783 62.4857 24.1159 68.3077 37.5016 60.5851C50.9644 52.8202 62.3422 33.7848 66.61 25.961C67.4216 24.4712 67.4658 22.8446 66.7078 22.3353C62.4508 19.479 51.1038 13.6651 37.7321 21.3783Z" fill="black"/>
<path d="M39.1408 29.2519C45.2184 25.7424 50.1605 28.5555 50.1803 35.5366C50.2001 42.5214 45.2901 51.0237 39.2125 54.5333C33.1383 58.0409 28.1995 55.2259 28.1797 48.241C28.16 41.2599 33.0667 32.7595 39.1408 29.2519Z" fill="#FFE49C"/>
<path d="M50.1807 35.5373C50.2014 42.5203 45.292 51.0228 39.2148 54.5323C33.1375 58.0419 28.1971 55.225 28.1817 48.242C28.1765 46.6035 28.4453 44.8824 28.931 43.1612C29.7372 43.4558 30.6002 43.6109 31.4994 43.6109C35.9591 43.6109 39.5714 39.7653 39.5714 35.0205C39.5714 33.1287 38.9978 31.3817 38.0211 29.9654C38.388 29.707 38.7652 29.4693 39.1425 29.2522C45.2197 25.7426 50.16 28.5544 50.1807 35.5373Z" fill="#FFD971"/>
<path d="M34.2765 56.3905C33.1687 56.3905 32.1433 56.1311 31.2359 55.6091C29.0531 54.3531 27.8461 51.7367 27.836 48.2417C27.8159 41.1631 32.8095 32.511 38.9685 28.9549C42.0286 27.1883 44.9238 26.9102 47.1234 28.1748C49.3055 29.4308 50.5125 32.0445 50.5226 35.5362C50.542 42.6161 45.5451 51.2716 39.3834 54.8303C37.5886 55.8671 35.8501 56.3905 34.2765 56.3905ZM39.3117 29.5487C33.3429 32.9955 28.5028 41.3803 28.5223 48.2403C28.531 51.4793 29.6167 53.8853 31.5783 55.0146C33.5534 56.1506 36.2033 55.8738 39.0402 54.2365C45.0123 50.787 49.8551 42.3989 49.8363 35.5375C49.8269 32.3019 48.7419 29.8979 46.7809 28.77C44.8052 27.6326 42.1533 27.9094 39.3117 29.5487Z" fill="black"/>
<path d="M42.2999 41.0083C42.5925 41.2549 42.739 41.7179 42.7409 42.3965C42.7425 42.9519 42.6141 43.5285 42.3556 44.128C42.0986 44.7267 41.7296 45.2996 41.2532 45.8407C40.7767 46.3836 40.2245 46.8572 39.5963 47.2617L39.5995 48.376C39.5999 48.5113 39.5609 48.6468 39.4842 48.7798C39.4074 48.9145 39.3048 49.0172 39.1765 49.0913C39.0587 49.1594 38.9604 49.1744 38.8831 49.1356C38.8059 49.0967 38.7663 49.0031 38.7659 48.8573L38.7627 47.7431C37.7794 48.2379 36.859 48.5225 36.0031 48.5978C35.8942 48.6085 35.8018 48.5749 35.729 48.497C35.6561 48.4191 35.6195 48.3116 35.6191 48.1762C35.6186 47.9975 35.6696 47.8133 35.7749 47.6221C35.8787 47.4318 36.013 47.2882 36.1761 47.194C36.2682 47.1408 36.3543 47.112 36.436 47.1065C37.1755 47.0567 37.9493 46.8202 38.7589 46.3945L38.7486 42.7844C38.1289 42.9544 37.6074 43.0505 37.1839 43.076C36.7604 43.0997 36.4062 42.9931 36.1226 42.7535C35.8391 42.5139 35.6972 42.0848 35.6954 41.4669C35.6939 40.9236 35.8087 40.3549 36.04 39.7589C36.2697 39.1655 36.6145 38.584 37.0743 38.0143C37.5325 37.4472 38.0847 36.944 38.7308 36.5083L38.7277 35.4096C38.7274 35.2743 38.7663 35.137 38.8431 34.9971C38.9198 34.8589 39.0178 34.7554 39.1356 34.6873C39.2549 34.6184 39.3547 34.6077 39.4366 34.6544C39.5199 34.7019 39.561 34.7929 39.5614 34.9283L39.5644 36.0113C40.4556 35.5384 41.2489 35.2541 41.9414 35.1568C42.1954 35.1161 42.3244 35.2503 42.3253 35.5644C42.3257 35.731 42.2764 35.9125 42.1756 36.1064C42.0763 36.301 41.945 36.4446 41.7804 36.5397C41.7261 36.571 41.6536 36.5921 41.5628 36.601C40.9429 36.7086 40.278 36.95 39.5682 37.3286L39.5787 41.0637C40.2347 40.864 40.7789 40.7427 41.2114 40.7033C41.6439 40.6622 42.0072 40.7636 42.2999 41.0083ZM39.5925 45.9131C40.8743 45.0668 41.5145 44.1009 41.5114 43.0126C41.5102 42.6048 41.3478 42.3822 41.0239 42.3432C40.7001 42.3059 40.2193 42.3697 39.5829 42.539L39.5925 45.9131ZM38.7445 41.3091L38.7347 37.8586C38.1898 38.2567 37.7524 38.7006 37.4255 39.1866C37.0986 39.6744 36.9366 40.159 36.938 40.6398C36.9393 41.0998 37.0928 41.3675 37.3986 41.443C37.7044 41.5168 38.152 41.4739 38.7445 41.3091Z" fill="black"/>
<path d="M39.1394 29.2503C42.2 27.4838 44.9728 27.3227 46.975 28.485L43.8452 26.661C41.849 25.4987 39.076 25.6655 36.0155 27.432C34.0582 28.561 32.2258 30.2134 30.6367 32.1623L33.7607 33.983C35.3498 32.0341 37.1821 30.3812 39.1394 29.2503Z" fill="white"/>
<path d="M33.76 34.3269C33.7011 34.3269 33.6414 34.3115 33.5871 34.28L30.4634 32.459C30.3769 32.4088 30.3166 32.323 30.2985 32.2238C30.2804 32.1253 30.3072 32.0234 30.3702 31.9457C32.0363 29.9029 33.9283 28.2395 35.843 27.1351C38.9172 25.3604 41.8197 25.0856 44.0173 26.365L47.1451 28.1879C47.1457 28.1879 47.1457 28.1886 47.1464 28.1886L47.1471 28.1893C47.3106 28.2844 47.3662 28.4942 47.2711 28.6577C47.1752 28.8219 46.9648 28.8762 46.8019 28.7824L46.8013 28.7817C44.8202 27.631 42.1582 27.9038 39.3106 29.5477C37.4669 30.6127 35.6393 32.2218 34.0261 34.2009C33.9591 34.2826 33.8599 34.3269 33.76 34.3269ZM31.159 32.0703L33.681 33.5407C35.3008 31.6012 37.1237 30.0189 38.9674 28.954C40.9002 27.8381 42.7654 27.3214 44.4355 27.4031L43.6715 26.9575C41.6978 25.8088 39.0391 26.0822 36.1861 27.7295C34.4396 28.7368 32.7078 30.2327 31.159 32.0703Z" fill="black"/>
<path d="M30.6374 32.1631C27.2944 36.2631 25.0411 41.6903 25.0567 46.4212C25.0625 49.891 26.2878 52.3307 28.2612 53.4815L31.3908 55.2998C29.4118 54.1547 28.1921 51.7092 28.1805 48.2396C28.165 43.5086 30.4183 38.084 33.7613 33.9838L30.6374 32.1631Z" fill="black"/>
<path d="M31.3901 55.6425C31.3318 55.6425 31.2721 55.6277 31.2185 55.5962C31.2125 55.5929 31.2058 55.5895 31.2004 55.5862L28.088 53.778C25.9166 52.5113 24.7183 49.8989 24.713 46.422C24.6976 41.793 26.865 36.2458 30.3707 31.9459C30.4773 31.8165 30.6636 31.7817 30.8097 31.8668L33.9334 33.6877C34.0199 33.738 34.0802 33.8238 34.0983 33.923C34.1157 34.0215 34.0896 34.1227 34.0266 34.2011C30.6173 38.3824 28.5083 43.7613 28.523 48.2382C28.5337 51.4638 29.6067 53.8611 31.5449 54.9924L31.5623 55.0024C31.7265 55.0976 31.7821 55.3074 31.687 55.4716C31.6233 55.5815 31.508 55.6425 31.3901 55.6425ZM30.7192 32.608C27.4172 36.7565 25.3845 42.0229 25.3992 46.42C25.4039 49.6443 26.4816 52.0469 28.4332 53.1849L29.1898 53.6239C28.3126 52.2473 27.8441 50.4143 27.8367 48.2409C27.822 43.7238 29.8868 38.3328 33.2438 34.0798L30.7192 32.608Z" fill="#454544"/>
<path d="M42.9787 10.1417C42.9593 10.1417 42.9399 10.1404 42.9204 10.137C42.7334 10.1049 42.6081 9.92792 42.6396 9.74094L43.4211 5.16488C43.4532 4.9779 43.6369 4.85526 43.8171 4.88407C44.0041 4.91624 44.1294 5.09317 44.0979 5.28016L43.3165 9.85621C43.2877 10.0238 43.1429 10.1417 42.9787 10.1417Z" fill="black"/>
<path d="M23.8066 19.3779C23.7872 19.3779 23.7677 19.3765 23.7483 19.3732L18.9263 18.5468C18.7393 18.5147 18.614 18.3371 18.6455 18.1507C18.6776 17.9631 18.8546 17.8391 19.0416 17.8699L23.8636 18.6963C24.0506 18.7284 24.1759 18.906 24.1444 19.0924C24.1156 19.2599 23.9701 19.3779 23.8066 19.3779Z" fill="black"/>
<path d="M32.105 11.9715C31.9535 11.9715 31.8155 11.871 31.7739 11.7182L30.5609 7.242C30.5113 7.05904 30.6192 6.87072 30.8022 6.82112C30.9878 6.77287 31.1734 6.8801 31.223 7.06239L32.4361 11.5386C32.4857 11.7216 32.3778 11.9099 32.1948 11.9595C32.1646 11.9675 32.1345 11.9715 32.105 11.9715Z" fill="black"/>
</svg>
