<svg width="348" height="335" viewBox="0 0 348 335" fill="none" xmlns="http://www.w3.org/2000/svg">
<g clip-path="url(#clip0_216_7256)">
<rect width="346.666" height="334.807" transform="translate(0.707031)" fill="url(#paint0_linear_216_7256)"/>
<g clip-path="url(#clip1_216_7256)">
<path d="M24.4263 190.597V-27.1631M47.2333 190.597V-27.1631M70.0403 190.597V-27.1631M92.8473 190.597V-27.1631M115.654 190.597V-27.1631M138.461 190.597V-27.1631M161.268 190.597V-27.1631M184.075 190.597V-27.1631M161.268 201.485V-16.2751M229.689 190.597V-27.1631M252.496 190.597V-27.1631M275.303 190.597V-27.1631M298.11 190.597V-27.1631M320.917 190.597V-27.1631M345.549 156.119H0.707039M345.549 133.435H0.707038M345.549 110.752H0.707037M345.549 88.0684H0.707036M345.549 65.3851H0.707035M345.549 42.7017H0.707034M345.549 20.0183H0.707033M345.549 -2.66504H0.707032M345.549 -25.3484L0.707031 -25.3484" stroke="url(#paint1_linear_216_7256)" stroke-opacity="0.15" stroke-width="0.91228" stroke-dasharray="0.9 0.9"/>
<g style="mix-blend-mode:plus-lighter">
<path d="M356.172 366.735L356.816 367.38L723.553 0.643555L722.908 -0.000976562L356.172 366.735ZM350.708 366.735L351.353 367.38L718.089 0.643555L717.444 -0.000976562L350.708 366.735ZM345.246 366.735L345.891 367.38L712.627 0.643555L711.982 -0.000976562L345.246 366.735ZM339.783 366.735L340.428 367.38L707.164 0.643555L706.52 -0.000976562L339.783 366.735ZM334.321 366.735L334.966 367.38L701.702 0.643555L701.058 -0.000976562L334.321 366.735ZM328.859 366.735L329.504 367.38L696.24 0.643555L695.596 -0.000976562L328.859 366.735ZM323.397 366.735L324.042 367.38L690.778 0.643555L690.134 -0.000976562L323.397 366.735ZM317.936 366.735L318.58 367.38L685.316 0.643555L684.672 -0.000976562L317.936 366.735ZM312.473 366.735L313.117 367.38L679.854 0.643555L679.209 -0.000976562L312.473 366.735ZM307.011 366.735L307.655 367.38L674.392 0.643555L673.747 -0.000976562L307.011 366.735ZM301.548 366.735L302.192 367.38L668.929 0.643555L668.284 -0.000976562L301.548 366.735ZM296.085 366.735L296.729 367.38L663.466 0.643555L662.821 -0.000976562L296.085 366.735ZM290.622 366.735L291.267 367.38L658.003 0.643555L657.358 -0.000976562L290.622 366.735ZM285.16 366.735L285.805 367.38L652.541 0.643555L651.896 -0.000976562L285.16 366.735ZM279.699 366.735L280.344 367.38L647.08 0.643555L646.436 -0.000976562L279.699 366.735ZM274.236 366.735L274.881 367.38L641.617 0.643555L640.973 -0.000976562L274.236 366.735ZM268.774 366.735L269.419 367.38L636.155 0.643555L635.511 -0.000976562L268.774 366.735ZM263.312 366.735L263.956 367.38L630.692 0.643555L630.048 -0.000976562L263.312 366.735ZM257.85 366.735L258.494 367.38L625.23 0.643555L624.586 -0.000976562L257.85 366.735ZM252.388 366.735L253.032 367.38L619.769 0.643555L619.124 -0.000976562L252.388 366.735ZM246.924 366.735L247.568 367.38L614.305 0.643555L613.66 -0.000976562L246.924 366.735ZM241.462 366.735L242.106 367.38L608.843 0.643555L608.198 -0.000976562L241.462 366.735ZM235.999 366.735L236.644 367.38L603.38 0.643555L602.735 -0.000976562L235.999 366.735ZM230.538 366.735L231.183 367.38L597.919 0.643555L597.274 -0.000976562L230.538 366.735ZM225.076 366.735L225.721 367.38L592.457 0.643555L591.812 -0.000976562L225.076 366.735ZM219.613 366.735L220.258 367.38L586.994 0.643555L586.35 -0.000976562L219.613 366.735ZM214.15 366.735L214.795 367.38L581.531 0.643555L580.887 -0.000976562L214.15 366.735ZM208.688 366.735L209.333 367.38L576.069 0.643555L575.425 -0.000976562L208.688 366.735ZM203.227 366.735L203.871 367.38L570.607 0.643555L569.963 -0.000976562L203.227 366.735ZM197.765 366.735L198.409 367.38L565.146 0.643555L564.501 -0.000976562L197.765 366.735ZM192.301 366.735L192.945 367.38L559.682 0.643555L559.037 -0.000976562L192.301 366.735ZM186.84 366.735L187.484 367.38L554.221 0.643555L553.576 -0.000976562L186.84 366.735ZM181.377 366.735L182.021 367.38L548.758 0.643555L548.113 -0.000976562L181.377 366.735ZM175.915 366.735L176.56 367.38L543.296 0.643555L542.651 -0.000976562L175.915 366.735ZM170.453 366.735L171.098 367.38L537.834 0.643555L537.189 -0.000976562L170.453 366.735ZM164.99 366.735L165.635 367.38L532.371 0.643555L531.727 -0.000976562L164.99 366.735ZM159.527 366.735L160.172 367.38L526.908 0.643555L526.264 -0.000976562L159.527 366.735ZM154.065 366.735L154.71 367.38L521.446 0.643555L520.802 -0.000976562L154.065 366.735ZM148.604 366.735L149.248 367.38L515.984 0.643555L515.34 -0.000976562L148.604 366.735ZM143.142 366.735L143.786 367.38L510.522 0.643555L509.878 -0.000976562L143.142 366.735ZM137.679 366.735L138.323 367.38L505.06 0.643555L504.415 -0.000976562L137.679 366.735ZM132.217 366.735L132.861 367.38L499.598 0.643555L498.953 -0.000976562L132.217 366.735ZM126.754 366.735L127.398 367.38L494.135 0.643555L493.49 -0.000976562L126.754 366.735ZM121.292 366.735L121.937 367.38L488.673 0.643555L488.028 -0.000976562L121.292 366.735ZM115.83 366.735L116.475 367.38L483.211 0.643555L482.566 -0.000976562L115.83 366.735ZM110.366 366.735L111.011 367.38L477.747 0.643555L477.103 -0.000976562L110.366 366.735ZM104.904 366.735L105.549 367.38L472.285 0.643555L471.641 -0.000976562L104.904 366.735ZM99.4424 366.735L100.087 367.38L466.823 0.643555L466.179 -0.000976562L99.4424 366.735ZM93.9814 366.735L94.626 367.38L461.362 0.643555L460.718 -0.000976562L93.9814 366.735ZM88.5186 366.735L89.1631 367.38L455.899 0.643555L455.255 -0.000976562L88.5186 366.735ZM83.0557 366.735L83.7002 367.38L450.437 0.643555L449.792 -0.000976562L83.0557 366.735ZM77.5938 366.735L78.2383 367.38L444.975 0.643555L444.33 -0.000976562L77.5938 366.735ZM72.1309 366.735L72.7754 367.38L439.512 0.643555L438.867 -0.000976562L72.1309 366.735ZM66.6689 366.735L67.3135 367.38L434.05 0.643555L433.405 -0.000976562L66.6689 366.735ZM61.2061 366.735L61.8506 367.38L428.587 0.643555L427.942 -0.000976562L61.2061 366.735ZM55.7432 366.735L56.3877 367.38L423.124 0.643555L422.479 -0.000976562L55.7432 366.735ZM50.2822 366.735L50.9268 367.38L417.663 0.643555L417.019 -0.000976562L50.2822 366.735ZM44.8203 366.735L45.4648 367.38L412.201 0.643555L411.557 -0.000976562L44.8203 366.735ZM39.3584 366.735L40.0029 367.38L406.739 0.643555L406.095 -0.000976562L39.3584 366.735ZM33.8945 366.735L34.5391 367.38L401.275 0.643555L400.631 -0.000976562L33.8945 366.735ZM28.4326 366.735L29.0771 367.38L395.813 0.643555L395.169 -0.000976562L28.4326 366.735ZM22.9707 366.735L23.6152 367.38L390.352 0.643555L389.707 -0.000976562L22.9707 366.735ZM17.5078 366.735L18.1523 367.38L384.889 0.643555L384.244 -0.000976562L17.5078 366.735ZM12.0459 366.735L12.6904 367.38L379.427 0.643555L378.782 -0.000976562L12.0459 366.735ZM6.58203 366.735L7.22656 367.38L373.963 0.643555L373.318 -0.000976562L6.58203 366.735ZM1.12109 366.735L1.76562 367.38L368.502 0.643555L367.857 -0.000976562L1.12109 366.735ZM-4.34082 366.735L-3.69629 367.38L363.04 0.643555L362.396 -0.000976562L-4.34082 366.735ZM-9.80273 366.735L-9.1582 367.38L357.578 0.643555L356.934 -0.000976562L-9.80273 366.735ZM-15.2646 366.735L-14.6201 367.38L352.116 0.643555L351.472 -0.000976562L-15.2646 366.735ZM-20.7285 366.735L-20.084 367.38L346.652 0.643555L346.008 -0.000976562L-20.7285 366.735ZM-26.1904 366.735L-25.5459 367.38L341.19 0.643555L340.546 -0.000976562L-26.1904 366.735ZM-31.6523 366.735L-31.0078 367.38L335.729 0.643555L335.084 -0.000976562L-31.6523 366.735ZM-37.1152 366.735L-36.4707 367.38L330.266 0.643555L329.621 -0.000976562L-37.1152 366.735ZM-42.5762 366.735L-41.9316 367.38L324.805 0.643555L324.16 -0.000976562L-42.5762 366.735ZM-48.04 366.735L-47.3955 367.38L319.341 0.643555L318.696 -0.000976562L-48.04 366.735ZM-53.502 366.735L-52.8574 367.38L313.879 0.643555L313.234 -0.000976562L-53.502 366.735ZM-58.9639 366.735L-58.3193 367.38L308.417 0.643555L307.772 -0.000976562L-58.9639 366.735ZM-64.4258 366.735L-63.7812 367.38L302.955 0.643555L302.311 -0.000976562L-64.4258 366.735ZM-69.8887 366.735L-69.2441 367.38L297.492 0.643555L296.848 -0.000976562L-69.8887 366.735ZM-75.3516 366.735L-74.707 367.38L292.029 0.643555L291.385 -0.000976562L-75.3516 366.735ZM-80.8135 366.735L-80.1689 367.38L286.567 0.643555L285.923 -0.000976562L-80.8135 366.735ZM-86.2754 366.735L-85.6309 367.38L281.105 0.643555L280.461 -0.000976562L-86.2754 366.735ZM-91.7363 366.735L-91.0918 367.38L275.645 0.643555L275 -0.000976562L-91.7363 366.735ZM-97.1992 366.735L-96.5547 367.38L270.182 0.643555L269.537 -0.000976562L-97.1992 366.735ZM-102.663 366.735L-102.019 367.38L264.718 0.643555L264.073 -0.000976562L-102.663 366.735ZM-108.125 366.735L-107.48 367.38L259.256 0.643555L258.611 -0.000976562L-108.125 366.735ZM-113.587 366.735L-112.942 367.38L253.794 0.643555L253.149 -0.000976562L-113.587 366.735ZM-119.049 366.735L-118.404 367.38L248.332 0.643555L247.688 -0.000976562L-119.049 366.735ZM-124.512 366.735L-123.867 367.38L242.869 0.643555L242.225 -0.000976562L-124.512 366.735ZM-129.975 366.735L-129.33 367.38L237.406 0.643555L236.762 -0.000976562L-129.975 366.735ZM-135.436 366.735L-134.791 367.38L231.945 0.643555L231.301 -0.000976562L-135.436 366.735ZM-140.897 366.735L-140.253 367.38L226.483 0.643555L225.839 -0.000976562L-140.897 366.735ZM-146.36 366.735L-145.716 367.38L221.021 0.643555L220.376 -0.000976562L-146.36 366.735ZM-151.823 366.735L-151.179 367.38L215.558 0.643555L214.913 -0.000976562L-151.823 366.735ZM-157.286 366.735L-156.642 367.38L210.095 0.643555L209.45 -0.000976562L-157.286 366.735ZM-162.748 366.735L-162.104 367.38L204.633 0.643555L203.988 -0.000976562L-162.748 366.735ZM-168.21 366.735L-167.565 367.38L199.171 0.643555L198.526 -0.000976562L-168.21 366.735ZM-173.673 366.735L-173.028 367.38L193.708 0.643555L193.063 -0.000976562L-173.673 366.735ZM-179.136 366.735L-178.491 367.38L188.245 0.643555L187.601 -0.000976562L-179.136 366.735ZM-184.597 366.735L-183.952 367.38L182.784 0.643555L182.14 -0.000976562L-184.597 366.735ZM-190.059 366.735L-189.414 367.38L177.322 0.643555L176.678 -0.000976562L-190.059 366.735ZM-195.521 366.735L-194.876 367.38L171.86 0.643555L171.216 -0.000976562L-195.521 366.735ZM-200.983 366.735L-200.339 367.38L166.397 0.643555L165.753 -0.000976562L-200.983 366.735ZM-206.446 366.735L-205.802 367.38L160.935 0.643555L160.29 -0.000976562L-206.446 366.735ZM-211.909 366.735L-211.265 367.38L155.472 0.643555L154.827 -0.000976562L-211.909 366.735ZM-217.371 366.735L-216.727 367.38L150.01 0.643555L149.365 -0.000976562L-217.371 366.735ZM-222.833 366.735L-222.188 367.38L144.548 0.643555L143.903 -0.000976562L-222.833 366.735ZM-228.294 366.735L-227.649 367.38L139.087 0.643555L138.442 -0.000976562L-228.294 366.735ZM-233.758 366.735L-233.113 367.38L133.623 0.643555L132.979 -0.000976562L-233.758 366.735ZM-239.22 366.735L-238.575 367.38L128.161 0.643555L127.517 -0.000976562L-239.22 366.735ZM-244.682 366.735L-244.037 367.38L122.699 0.643555L122.055 -0.000976562L-244.682 366.735ZM-250.145 366.735L-249.5 367.38L117.236 0.643555L116.592 -0.000976562L-250.145 366.735ZM-255.606 366.735L-254.962 367.38L111.774 0.643555L111.13 -0.000976562L-255.606 366.735ZM-261.07 366.735L-260.426 367.38L106.311 0.643555L105.666 -0.000976562L-261.07 366.735ZM-266.532 366.735L-265.888 367.38L100.849 0.643555L100.204 -0.000976562L-266.532 366.735ZM-271.992 366.735L-271.348 367.38L95.3887 0.643555L94.7441 -0.000976562L-271.992 366.735ZM-277.455 366.735L-276.811 367.38L89.9258 0.643555L89.2812 -0.000976562L-277.455 366.735ZM-282.917 366.735L-282.272 367.38L84.4639 0.643555L83.8193 -0.000976562L-282.917 366.735ZM-288.381 366.735L-287.736 367.38L79 0.643555L78.3555 -0.000976562L-288.381 366.735ZM-293.843 366.735L-293.198 367.38L73.5381 0.643555L72.8936 -0.000976562L-293.843 366.735ZM-299.306 366.735L-298.661 367.38L68.0752 0.643555L67.4307 -0.000976562L-299.306 366.735ZM-304.768 366.735L-304.123 367.38L62.6133 0.643555L61.9688 -0.000976562L-304.768 366.735ZM-310.23 366.735L-309.586 367.38L57.1504 0.643555L56.5059 -0.000976562L-310.23 366.735ZM-315.693 366.735L-315.049 367.38L51.6875 0.643555L51.043 -0.000976562L-315.693 366.735ZM-321.153 366.735L-320.509 367.38L46.2275 0.643555L45.583 -0.000976562L-321.153 366.735ZM-326.616 366.735L-325.972 367.38L40.7646 0.643555L40.1201 -0.000976562L-326.616 366.735ZM-332.078 366.735L-331.434 367.38L35.3027 0.643555L34.6582 -0.000976562L-332.078 366.735ZM-337.542 366.735L-336.897 367.38L29.8389 0.643555L29.1943 -0.000976562L-337.542 366.735ZM-343.004 366.735L-342.359 367.38L24.377 0.643555L23.7324 -0.000976562L-343.004 366.735ZM-348.466 366.735L-347.821 367.38L18.915 0.643555L18.2705 -0.000976562L-348.466 366.735ZM-353.929 366.735L-353.284 367.38L13.4521 0.643555L12.8076 -0.000976562L-353.929 366.735ZM-359.391 366.735L-358.746 367.38L7.99023 0.643555L7.3457 -0.000976562L-359.391 366.735ZM-364.853 366.735L-364.208 367.38L2.52832 0.643555L1.88379 -0.000976562L-364.853 366.735ZM-370.314 366.735L-369.67 367.38L-2.93359 0.643555L-3.57812 -0.000976562L-370.314 366.735ZM-375.776 366.735L-375.132 367.38L-8.39551 0.643555L-9.04004 -0.000976562L-375.776 366.735Z" fill="url(#paint2_linear_216_7256)" fill-opacity="0.2"/>
</g>
<g clip-path="url(#clip2_216_7256)">
<rect x="54.5977" y="165.671" width="33.8777" height="112.375" rx="5.784" fill="url(#paint3_linear_216_7256)"/>
<g style="mix-blend-mode:plus-lighter">
<path d="M237.2 472.276L237.784 472.86L569.951 140.693L569.367 140.109L237.2 472.276ZM232.254 472.276L232.838 472.86L565.005 140.693L564.421 140.109L232.254 472.276ZM227.306 472.276L227.89 472.86L560.057 140.693L559.473 140.109L227.306 472.276ZM222.358 472.276L222.942 472.86L555.109 140.693L554.525 140.109L222.358 472.276ZM217.41 472.276L217.994 472.86L550.161 140.693L549.577 140.109L217.41 472.276ZM212.465 472.276L213.049 472.86L545.216 140.693L544.632 140.109L212.465 472.276ZM207.516 472.276L208.1 472.86L540.267 140.693L539.683 140.109L207.516 472.276ZM202.57 472.276L203.154 472.86L535.321 140.693L534.737 140.109L202.57 472.276ZM197.623 472.276L198.207 472.86L530.374 140.693L529.79 140.109L197.623 472.276ZM192.674 472.276L193.258 472.86L525.425 140.693L524.841 140.109L192.674 472.276ZM187.729 472.276L188.312 472.86L520.479 140.693L519.896 140.109L187.729 472.276ZM182.779 472.276L183.363 472.86L515.53 140.693L514.946 140.109L182.779 472.276ZM177.832 472.276L178.416 472.86L510.583 140.693L509.999 140.109L177.832 472.276ZM172.884 472.276L173.468 472.86L505.635 140.693L505.051 140.109L172.884 472.276ZM167.938 472.276L168.521 472.86L500.688 140.693L500.104 140.109L167.938 472.276ZM162.99 472.276L163.574 472.86L495.741 140.693L495.157 140.109L162.99 472.276ZM158.042 472.276L158.626 472.86L490.793 140.693L490.209 140.109L158.042 472.276ZM153.096 472.276L153.68 472.86L485.847 140.693L485.263 140.109L153.096 472.276ZM148.147 472.276L148.731 472.86L480.898 140.693L480.314 140.109L148.147 472.276ZM143.199 472.276L143.783 472.86L475.95 140.693L475.366 140.109L143.199 472.276ZM138.254 472.276L138.838 472.86L471.005 140.693L470.421 140.109L138.254 472.276ZM133.306 472.276L133.89 472.86L466.057 140.693L465.473 140.109L133.306 472.276ZM128.358 472.276L128.942 472.86L461.109 140.693L460.525 140.109L128.358 472.276ZM123.41 472.276L123.994 472.86L456.161 140.693L455.577 140.109L123.41 472.276ZM118.464 472.276L119.048 472.86L451.215 140.693L450.631 140.109L118.464 472.276ZM113.516 472.276L114.1 472.86L446.267 140.693L445.683 140.109L113.516 472.276ZM108.568 472.276L109.152 472.86L441.319 140.693L440.735 140.109L108.568 472.276ZM103.622 472.276L104.206 472.86L436.373 140.693L435.789 140.109L103.622 472.276ZM98.6738 472.276L99.2578 472.86L431.425 140.693L430.841 140.109L98.6738 472.276ZM93.7275 472.276L94.3115 472.86L426.479 140.693L425.895 140.109L93.7275 472.276ZM88.7793 472.276L89.3633 472.86L421.53 140.693L420.946 140.109L88.7793 472.276ZM83.832 472.276L84.416 472.86L416.583 140.693L415.999 140.109L83.832 472.276ZM78.8838 472.276L79.4678 472.86L411.635 140.693L411.051 140.109L78.8838 472.276ZM73.9375 472.276L74.5215 472.86L406.688 140.693L406.104 140.109L73.9375 472.276ZM68.9893 472.276L69.5732 472.86L401.74 140.693L401.156 140.109L68.9893 472.276ZM64.042 472.276L64.626 472.86L396.793 140.693L396.209 140.109L64.042 472.276ZM59.0938 472.276L59.6777 472.86L391.845 140.693L391.261 140.109L59.0938 472.276ZM54.1475 472.276L54.7314 472.86L386.898 140.693L386.314 140.109L54.1475 472.276ZM49.2002 472.276L49.7842 472.86L381.951 140.693L381.367 140.109L49.2002 472.276ZM44.252 472.276L44.8359 472.86L377.003 140.693L376.419 140.109L44.252 472.276ZM39.3057 472.276L39.8896 472.86L372.057 140.693L371.473 140.109L39.3057 472.276ZM34.3584 472.276L34.9424 472.86L367.109 140.693L366.525 140.109L34.3584 472.276ZM29.4102 472.276L29.9941 472.86L362.161 140.693L361.577 140.109L29.4102 472.276ZM24.4629 472.276L25.0469 472.86L357.214 140.693L356.63 140.109L24.4629 472.276ZM19.5137 472.276L20.0977 472.86L352.265 140.693L351.681 140.109L19.5137 472.276ZM14.5684 472.276L15.1523 472.86L347.319 140.693L346.735 140.109L14.5684 472.276ZM9.61914 472.276L10.2031 472.86L342.37 140.693L341.786 140.109L9.61914 472.276ZM4.67285 472.276L5.25684 472.86L337.424 140.693L336.84 140.109L4.67285 472.276ZM-0.272461 472.276L0.311523 472.86L332.479 140.693L331.895 140.109L-0.272461 472.276ZM-5.22266 472.276L-4.63867 472.86L327.528 140.693L326.944 140.109L-5.22266 472.276ZM-10.168 472.276L-9.58398 472.86L322.583 140.693L321.999 140.109L-10.168 472.276ZM-15.1172 472.276L-14.5332 472.86L317.634 140.693L317.05 140.109L-15.1172 472.276ZM-20.0645 472.276L-19.4805 472.86L312.687 140.693L312.103 140.109L-20.0645 472.276ZM-25.0127 472.276L-24.4287 472.86L307.738 140.693L307.154 140.109L-25.0127 472.276ZM-29.958 472.276L-29.374 472.86L302.793 140.693L302.209 140.109L-29.958 472.276ZM-34.9053 472.276L-34.3213 472.86L297.846 140.693L297.262 140.109L-34.9053 472.276ZM-39.8535 472.276L-39.2695 472.86L292.897 140.693L292.313 140.109L-39.8535 472.276ZM-44.8018 472.276L-44.2178 472.86L287.949 140.693L287.365 140.109L-44.8018 472.276ZM-49.748 472.276L-49.1641 472.86L283.003 140.693L282.419 140.109L-49.748 472.276ZM-54.6963 472.276L-54.1123 472.86L278.055 140.693L277.471 140.109L-54.6963 472.276ZM-59.6436 472.276L-59.0596 472.86L273.107 140.693L272.523 140.109L-59.6436 472.276ZM-64.5918 472.276L-64.0078 472.86L268.159 140.693L267.575 140.109L-64.5918 472.276ZM-69.5381 472.276L-68.9541 472.86L263.213 140.693L262.629 140.109L-69.5381 472.276ZM-74.4863 472.276L-73.9023 472.86L258.265 140.693L257.681 140.109L-74.4863 472.276ZM-79.4336 472.276L-78.8496 472.86L253.317 140.693L252.733 140.109L-79.4336 472.276ZM-84.3809 472.276L-83.7969 472.86L248.37 140.693L247.786 140.109L-84.3809 472.276ZM-89.3281 472.276L-88.7441 472.86L243.423 140.693L242.839 140.109L-89.3281 472.276ZM-94.2764 472.276L-93.6924 472.86L238.475 140.693L237.891 140.109L-94.2764 472.276ZM-99.2227 472.276L-98.6387 472.86L233.528 140.693L232.944 140.109L-99.2227 472.276ZM-104.17 472.276L-103.586 472.86L228.581 140.693L227.997 140.109L-104.17 472.276ZM-109.118 472.276L-108.534 472.86L223.633 140.693L223.049 140.109L-109.118 472.276ZM-114.063 472.276L-113.479 472.86L218.688 140.693L218.104 140.109L-114.063 472.276ZM-119.013 472.276L-118.429 472.86L213.738 140.693L213.154 140.109L-119.013 472.276ZM-123.958 472.276L-123.374 472.86L208.793 140.693L208.209 140.109L-123.958 472.276ZM-128.908 472.276L-128.324 472.86L203.843 140.693L203.259 140.109L-128.908 472.276ZM-133.854 472.276L-133.27 472.86L198.897 140.693L198.313 140.109L-133.854 472.276ZM-138.802 472.276L-138.218 472.86L193.949 140.693L193.365 140.109L-138.802 472.276ZM-143.75 472.276L-143.166 472.86L189.001 140.693L188.417 140.109L-143.75 472.276ZM-148.696 472.276L-148.112 472.86L184.055 140.693L183.471 140.109L-148.696 472.276ZM-153.645 472.276L-153.061 472.86L179.106 140.693L178.522 140.109L-153.645 472.276ZM-158.592 472.276L-158.008 472.86L174.159 140.693L173.575 140.109L-158.592 472.276ZM-163.538 472.276L-162.954 472.86L169.213 140.693L168.629 140.109L-163.538 472.276ZM-168.488 472.276L-167.904 472.86L164.263 140.693L163.679 140.109L-168.488 472.276ZM-173.434 472.276L-172.85 472.86L159.317 140.693L158.733 140.109L-173.434 472.276ZM-178.383 472.276L-177.799 472.86L154.368 140.693L153.784 140.109L-178.383 472.276ZM-183.328 472.276L-182.744 472.86L149.423 140.693L148.839 140.109L-183.328 472.276ZM-188.277 472.276L-187.693 472.86L144.474 140.693L143.89 140.109L-188.277 472.276ZM-193.225 472.276L-192.641 472.86L139.526 140.693L138.942 140.109L-193.225 472.276ZM-198.168 472.276L-197.584 472.86L134.583 140.693L133.999 140.109L-198.168 472.276ZM-203.118 472.276L-202.534 472.86L129.633 140.693L129.049 140.109L-203.118 472.276ZM-208.063 472.276L-207.479 472.86L124.688 140.693L124.104 140.109L-208.063 472.276ZM-213.013 472.276L-212.429 472.86L119.738 140.693L119.154 140.109L-213.013 472.276ZM-217.96 472.276L-217.376 472.86L114.791 140.693L114.207 140.109L-217.96 472.276ZM-222.908 472.276L-222.324 472.86L109.843 140.693L109.259 140.109L-222.908 472.276ZM-227.854 472.276L-227.271 472.86L104.896 140.693L104.312 140.109L-227.854 472.276ZM-232.802 472.276L-232.218 472.86L99.9492 140.693L99.3652 140.109L-232.802 472.276ZM-237.75 472.276L-237.166 472.86L95.001 140.693L94.417 140.109L-237.75 472.276ZM-242.698 472.276L-242.114 472.86L90.0527 140.693L89.4688 140.109L-242.698 472.276ZM-247.645 472.276L-247.061 472.86L85.1064 140.693L84.5225 140.109L-247.645 472.276ZM-252.593 472.276L-252.009 472.86L80.1582 140.693L79.5742 140.109L-252.593 472.276ZM-257.54 472.276L-256.956 472.86L75.2109 140.693L74.627 140.109L-257.54 472.276ZM-262.488 472.276L-261.904 472.86L70.2627 140.693L69.6787 140.109L-262.488 472.276ZM-267.436 472.276L-266.852 472.86L65.3154 140.693L64.7314 140.109L-267.436 472.276ZM-272.383 472.276L-271.799 472.86L60.3682 140.693L59.7842 140.109L-272.383 472.276ZM-277.328 472.276L-276.744 472.86L55.4229 140.693L54.8389 140.109L-277.328 472.276ZM-282.276 472.276L-281.692 472.86L50.4746 140.693L49.8906 140.109L-282.276 472.276ZM-287.223 472.276L-286.639 472.86L45.5283 140.693L44.9443 140.109L-287.223 472.276ZM-292.173 472.276L-291.589 472.86L40.5781 140.693L39.9941 140.109L-292.173 472.276ZM-297.118 472.276L-296.534 472.86L35.6328 140.693L35.0488 140.109L-297.118 472.276ZM-302.064 472.276L-301.48 472.86L30.6865 140.693L30.1025 140.109L-302.064 472.276ZM-307.013 472.276L-306.429 472.86L25.7383 140.693L25.1543 140.109L-307.013 472.276ZM-311.96 472.276L-311.376 472.86L20.791 140.693L20.207 140.109L-311.96 472.276ZM-316.909 472.276L-316.325 472.86L15.8418 140.693L15.2578 140.109L-316.909 472.276ZM-321.855 472.276L-321.271 472.86L10.8955 140.693L10.3115 140.109L-321.855 472.276ZM-326.805 472.276L-326.221 472.86L5.94629 140.693L5.3623 140.109L-326.805 472.276ZM-331.75 472.276L-331.166 472.86L1.00098 140.693L0.416992 140.109L-331.75 472.276ZM-336.698 472.276L-336.114 472.86L-3.94727 140.693L-4.53125 140.109L-336.698 472.276ZM-341.646 472.276L-341.062 472.86L-8.89551 140.693L-9.47949 140.109L-341.646 472.276ZM-346.594 472.276L-346.01 472.86L-13.8428 140.693L-14.4268 140.109L-346.594 472.276ZM-351.542 472.276L-350.958 472.86L-18.791 140.693L-19.375 140.109L-351.542 472.276ZM-356.488 472.276L-355.904 472.86L-23.7373 140.693L-24.3213 140.109L-356.488 472.276ZM-361.436 472.276L-360.852 472.86L-28.6846 140.693L-29.2686 140.109L-361.436 472.276ZM-366.383 472.276L-365.799 472.86L-33.6318 140.693L-34.2158 140.109L-366.383 472.276ZM-371.328 472.276L-370.744 472.86L-38.5771 140.693L-39.1611 140.109L-371.328 472.276ZM-376.277 472.276L-375.693 472.86L-43.5264 140.693L-44.1104 140.109L-376.277 472.276ZM-381.224 472.276L-380.64 472.86L-48.4727 140.693L-49.0566 140.109L-381.224 472.276ZM-386.173 472.276L-385.589 472.86L-53.4219 140.693L-54.0059 140.109L-386.173 472.276ZM-391.12 472.276L-390.536 472.86L-58.3691 140.693L-58.9531 140.109L-391.12 472.276ZM-396.068 472.276L-395.484 472.86L-63.3174 140.693L-63.9014 140.109L-396.068 472.276ZM-401.015 472.276L-400.431 472.86L-68.2637 140.693L-68.8477 140.109L-401.015 472.276ZM-405.962 472.276L-405.378 472.86L-73.2109 140.693L-73.7949 140.109L-405.962 472.276ZM-410.91 472.276L-410.326 472.86L-78.1592 140.693L-78.7432 140.109L-410.91 472.276ZM-415.856 472.276L-415.272 472.86L-83.1055 140.693L-83.6895 140.109L-415.856 472.276ZM-420.805 472.276L-420.221 472.86L-88.0537 140.693L-88.6377 140.109L-420.805 472.276ZM-425.752 472.276L-425.168 472.86L-93.001 140.693L-93.585 140.109L-425.752 472.276Z" fill="url(#paint4_linear_216_7256)" fill-opacity="0.3"/>
</g>
</g>
<rect x="55.0538" y="166.127" width="32.9654" height="111.463" rx="5.32786" stroke="url(#paint5_linear_216_7256)" stroke-opacity="0.2" stroke-width="0.91228"/>
<g clip-path="url(#clip3_216_7256)">
<rect x="105.002" y="115.268" width="33.8777" height="162.778" rx="5.784" fill="url(#paint6_linear_216_7256)"/>
<g style="mix-blend-mode:plus-lighter">
<path d="M287.606 447.435L288.19 448.019L620.357 115.852L619.773 115.268L287.606 447.435ZM282.658 447.435L283.242 448.019L615.409 115.852L614.825 115.268L282.658 447.435ZM277.712 447.435L278.296 448.019L610.463 115.852L609.879 115.268L277.712 447.435ZM272.765 447.435L273.349 448.019L605.516 115.852L604.932 115.268L272.765 447.435ZM267.816 447.435L268.4 448.019L600.567 115.852L599.983 115.268L267.816 447.435ZM262.869 447.435L263.453 448.019L595.62 115.852L595.036 115.268L262.869 447.435ZM257.921 447.435L258.505 448.019L590.672 115.852L590.088 115.268L257.921 447.435ZM252.975 447.435L253.559 448.019L585.726 115.852L585.142 115.268L252.975 447.435ZM248.027 447.435L248.611 448.019L580.778 115.852L580.194 115.268L248.027 447.435ZM243.077 447.435L243.661 448.019L575.828 115.852L575.244 115.268L243.077 447.435ZM238.132 447.435L238.716 448.019L570.883 115.852L570.299 115.268L238.132 447.435ZM233.183 447.435L233.767 448.019L565.934 115.852L565.35 115.268L233.183 447.435ZM228.237 447.435L228.821 448.019L560.988 115.852L560.404 115.268L228.237 447.435ZM223.287 447.435L223.871 448.019L556.038 115.852L555.454 115.268L223.287 447.435ZM218.341 447.435L218.925 448.019L551.092 115.852L550.508 115.268L218.341 447.435ZM213.396 447.435L213.979 448.019L546.146 115.852L545.562 115.268L213.396 447.435ZM208.445 447.435L209.029 448.019L541.196 115.852L540.612 115.268L208.445 447.435ZM203.502 447.435L204.086 448.019L536.253 115.852L535.669 115.268L203.502 447.435ZM198.552 447.435L199.136 448.019L531.303 115.852L530.719 115.268L198.552 447.435ZM193.605 447.435L194.189 448.019L526.356 115.852L525.772 115.268L193.605 447.435ZM188.658 447.435L189.242 448.019L521.409 115.852L520.825 115.268L188.658 447.435ZM183.71 447.435L184.294 448.019L516.461 115.852L515.877 115.268L183.71 447.435ZM178.764 447.435L179.348 448.019L511.515 115.852L510.931 115.268L178.764 447.435ZM173.815 447.435L174.399 448.019L506.566 115.852L505.982 115.268L173.815 447.435ZM168.867 447.435L169.451 448.019L501.618 115.852L501.034 115.268L168.867 447.435ZM163.921 447.435L164.505 448.019L496.672 115.852L496.088 115.268L163.921 447.435ZM158.973 447.435L159.557 448.019L491.724 115.852L491.14 115.268L158.973 447.435ZM154.027 447.435L154.611 448.019L486.778 115.852L486.194 115.268L154.027 447.435ZM149.077 447.435L149.661 448.019L481.828 115.852L481.244 115.268L149.077 447.435ZM144.131 447.435L144.715 448.019L476.882 115.852L476.298 115.268L144.131 447.435ZM139.183 447.435L139.767 448.019L471.934 115.852L471.35 115.268L139.183 447.435ZM134.235 447.435L134.819 448.019L466.986 115.852L466.402 115.268L134.235 447.435ZM129.287 447.435L129.871 448.019L462.038 115.852L461.454 115.268L129.287 447.435ZM124.341 447.435L124.925 448.019L457.092 115.852L456.508 115.268L124.341 447.435ZM119.396 447.435L119.979 448.019L452.146 115.852L451.562 115.268L119.396 447.435ZM114.447 447.435L115.031 448.019L447.198 115.852L446.614 115.268L114.447 447.435ZM109.5 447.435L110.084 448.019L442.251 115.852L441.667 115.268L109.5 447.435ZM104.552 447.435L105.136 448.019L437.303 115.852L436.719 115.268L104.552 447.435ZM99.6055 447.435L100.189 448.019L432.356 115.852L431.772 115.268L99.6055 447.435ZM94.6553 447.435L95.2393 448.019L427.406 115.852L426.822 115.268L94.6553 447.435ZM89.71 447.435L90.2939 448.019L422.461 115.852L421.877 115.268L89.71 447.435ZM84.7627 447.435L85.3467 448.019L417.514 115.852L416.93 115.268L84.7627 447.435ZM79.8154 447.435L80.3994 448.019L412.566 115.852L411.982 115.268L79.8154 447.435ZM74.8672 447.435L75.4512 448.019L407.618 115.852L407.034 115.268L74.8672 447.435ZM69.9189 447.435L70.5029 448.019L402.67 115.852L402.086 115.268L69.9189 447.435ZM64.9727 447.435L65.5566 448.019L397.724 115.852L397.14 115.268L64.9727 447.435ZM60.0244 447.435L60.6084 448.019L392.775 115.852L392.191 115.268L60.0244 447.435ZM55.0771 447.435L55.6611 448.019L387.828 115.852L387.244 115.268L55.0771 447.435ZM50.1309 447.435L50.7148 448.019L382.882 115.852L382.298 115.268L50.1309 447.435ZM45.1807 447.435L45.7646 448.019L377.932 115.852L377.348 115.268L45.1807 447.435ZM40.2373 447.435L40.8213 448.019L372.988 115.852L372.404 115.268L40.2373 447.435ZM35.2871 447.435L35.8711 448.019L368.038 115.852L367.454 115.268L35.2871 447.435ZM30.3418 447.435L30.9258 448.019L363.093 115.852L362.509 115.268L30.3418 447.435ZM25.3926 447.435L25.9766 448.019L358.144 115.852L357.56 115.268L25.3926 447.435ZM20.4453 447.435L21.0293 448.019L353.196 115.852L352.612 115.268L20.4453 447.435ZM15.5 447.435L16.084 448.019L348.251 115.852L347.667 115.268L15.5 447.435ZM10.5508 447.435L11.1348 448.019L343.302 115.852L342.718 115.268L10.5508 447.435ZM5.60352 447.435L6.1875 448.019L338.354 115.852L337.771 115.268L5.60352 447.435ZM0.655273 447.435L1.23926 448.019L333.406 115.852L332.822 115.268L0.655273 447.435ZM-4.29102 447.435L-3.70703 448.019L328.46 115.852L327.876 115.268L-4.29102 447.435ZM-9.23926 447.435L-8.65527 448.019L323.512 115.852L322.928 115.268L-9.23926 447.435ZM-14.1855 447.435L-13.6016 448.019L318.565 115.852L317.981 115.268L-14.1855 447.435ZM-19.1328 447.435L-18.5488 448.019L313.618 115.852L313.034 115.268L-19.1328 447.435ZM-24.0811 447.435L-23.4971 448.019L308.67 115.852L308.086 115.268L-24.0811 447.435ZM-29.0293 447.435L-28.4453 448.019L303.722 115.852L303.138 115.268L-29.0293 447.435ZM-33.9756 447.435L-33.3916 448.019L298.775 115.852L298.191 115.268L-33.9756 447.435ZM-38.9238 447.435L-38.3398 448.019L293.827 115.852L293.243 115.268L-38.9238 447.435ZM-43.8691 447.435L-43.2852 448.019L288.882 115.852L288.298 115.268L-43.8691 447.435ZM-48.8174 447.435L-48.2334 448.019L283.934 115.852L283.35 115.268L-48.8174 447.435ZM-53.7646 447.435L-53.1807 448.019L278.986 115.852L278.402 115.268L-53.7646 447.435ZM-58.7129 447.435L-58.1289 448.019L274.038 115.852L273.454 115.268L-58.7129 447.435ZM-63.6602 447.435L-63.0762 448.019L269.091 115.852L268.507 115.268L-63.6602 447.435ZM-68.6084 447.435L-68.0244 448.019L264.143 115.852L263.559 115.268L-68.6084 447.435ZM-73.5547 447.435L-72.9707 448.019L259.196 115.852L258.612 115.268L-73.5547 447.435ZM-78.5049 447.435L-77.9209 448.019L254.246 115.852L253.662 115.268L-78.5049 447.435ZM-83.4502 447.435L-82.8662 448.019L249.301 115.852L248.717 115.268L-83.4502 447.435ZM-88.3965 447.435L-87.8125 448.019L244.354 115.852L243.771 115.268L-88.3965 447.435ZM-93.3447 447.435L-92.7607 448.019L239.406 115.852L238.822 115.268L-93.3447 447.435ZM-98.291 447.435L-97.707 448.019L234.46 115.852L233.876 115.268L-98.291 447.435ZM-103.24 447.435L-102.656 448.019L229.511 115.852L228.927 115.268L-103.24 447.435ZM-108.186 447.435L-107.602 448.019L224.565 115.852L223.981 115.268L-108.186 447.435ZM-113.134 447.435L-112.55 448.019L219.617 115.852L219.033 115.268L-113.134 447.435ZM-118.083 447.435L-117.499 448.019L214.668 115.852L214.084 115.268L-118.083 447.435ZM-123.029 447.435L-122.445 448.019L209.722 115.852L209.138 115.268L-123.029 447.435ZM-127.977 447.435L-127.393 448.019L204.774 115.852L204.19 115.268L-127.977 447.435ZM-132.923 447.435L-132.339 448.019L199.828 115.852L199.244 115.268L-132.923 447.435ZM-137.871 447.435L-137.287 448.019L194.88 115.852L194.296 115.268L-137.871 447.435ZM-142.818 447.435L-142.234 448.019L189.933 115.852L189.349 115.268L-142.818 447.435ZM-147.765 447.435L-147.181 448.019L184.986 115.852L184.402 115.268L-147.765 447.435ZM-152.715 447.435L-152.131 448.019L180.036 115.852L179.452 115.268L-152.715 447.435ZM-157.66 447.435L-157.076 448.019L175.091 115.852L174.507 115.268L-157.66 447.435ZM-162.609 447.435L-162.025 448.019L170.142 115.852L169.558 115.268L-162.609 447.435ZM-167.557 447.435L-166.973 448.019L165.194 115.852L164.61 115.268L-167.557 447.435ZM-172.505 447.435L-171.921 448.019L160.246 115.852L159.662 115.268L-172.505 447.435ZM-177.451 447.435L-176.867 448.019L155.3 115.852L154.716 115.268L-177.451 447.435ZM-182.396 447.435L-181.812 448.019L150.354 115.852L149.771 115.268L-182.396 447.435ZM-187.347 447.435L-186.763 448.019L145.404 115.852L144.82 115.268L-187.347 447.435ZM-192.293 447.435L-191.709 448.019L140.458 115.852L139.874 115.268L-192.293 447.435ZM-197.241 447.435L-196.657 448.019L135.51 115.852L134.926 115.268L-197.241 447.435ZM-202.188 447.435L-201.604 448.019L130.563 115.852L129.979 115.268L-202.188 447.435ZM-207.136 447.435L-206.552 448.019L125.615 115.852L125.031 115.268L-207.136 447.435ZM-212.081 447.435L-211.497 448.019L120.67 115.852L120.086 115.268L-212.081 447.435ZM-217.029 447.435L-216.445 448.019L115.722 115.852L115.138 115.268L-217.029 447.435ZM-221.977 447.435L-221.393 448.019L110.774 115.852L110.19 115.268L-221.977 447.435ZM-226.925 447.435L-226.341 448.019L105.826 115.852L105.242 115.268L-226.925 447.435ZM-231.871 447.435L-231.287 448.019L100.88 115.852L100.296 115.268L-231.871 447.435ZM-236.819 447.435L-236.235 448.019L95.9316 115.852L95.3477 115.268L-236.819 447.435ZM-241.768 447.435L-241.184 448.019L90.9834 115.852L90.3994 115.268L-241.768 447.435ZM-246.715 447.435L-246.131 448.019L86.0361 115.852L85.4521 115.268L-246.715 447.435ZM-251.661 447.435L-251.077 448.019L81.0898 115.852L80.5059 115.268L-251.661 447.435ZM-256.609 447.435L-256.025 448.019L76.1416 115.852L75.5576 115.268L-256.609 447.435ZM-261.557 447.435L-260.973 448.019L71.1943 115.852L70.6104 115.268L-261.557 447.435ZM-266.505 447.435L-265.921 448.019L66.2461 115.852L65.6621 115.268L-266.505 447.435ZM-271.451 447.435L-270.867 448.019L61.2998 115.852L60.7158 115.268L-271.451 447.435ZM-276.401 447.435L-275.817 448.019L56.3496 115.852L55.7656 115.268L-276.401 447.435ZM-281.347 447.435L-280.763 448.019L51.4043 115.852L50.8203 115.268L-281.347 447.435ZM-286.293 447.435L-285.709 448.019L46.458 115.852L45.874 115.268L-286.293 447.435ZM-291.241 447.435L-290.657 448.019L41.5098 115.852L40.9258 115.268L-291.241 447.435ZM-296.187 447.435L-295.603 448.019L36.5645 115.852L35.9805 115.268L-296.187 447.435ZM-301.136 447.435L-300.552 448.019L31.6152 115.852L31.0312 115.268L-301.136 447.435ZM-306.081 447.435L-305.497 448.019L26.6699 115.852L26.0859 115.268L-306.081 447.435ZM-311.031 447.435L-310.447 448.019L21.7197 115.852L21.1357 115.268L-311.031 447.435ZM-315.978 447.435L-315.394 448.019L16.7734 115.852L16.1895 115.268L-315.978 447.435ZM-320.925 447.435L-320.341 448.019L11.8262 115.852L11.2422 115.268L-320.925 447.435ZM-325.873 447.435L-325.289 448.019L6.87793 115.852L6.29395 115.268L-325.873 447.435ZM-330.819 447.435L-330.235 448.019L1.93164 115.852L1.34766 115.268L-330.819 447.435ZM-335.768 447.435L-335.184 448.019L-3.0166 115.852L-3.60059 115.268L-335.768 447.435ZM-340.716 447.435L-340.132 448.019L-7.96484 115.852L-8.54883 115.268L-340.716 447.435ZM-345.663 447.435L-345.079 448.019L-12.9121 115.852L-13.4961 115.268L-345.663 447.435ZM-350.611 447.435L-350.027 448.019L-17.8604 115.852L-18.4443 115.268L-350.611 447.435ZM-355.557 447.435L-354.973 448.019L-22.8057 115.852L-23.3896 115.268L-355.557 447.435ZM-360.507 447.435L-359.923 448.019L-27.7559 115.852L-28.3398 115.268L-360.507 447.435ZM-365.453 447.435L-364.869 448.019L-32.7021 115.852L-33.2861 115.268L-365.453 447.435ZM-370.4 447.435L-369.816 448.019L-37.6494 115.852L-38.2334 115.268L-370.4 447.435ZM-375.347 447.435L-374.763 448.019L-42.5957 115.852L-43.1797 115.268L-375.347 447.435Z" fill="url(#paint7_linear_216_7256)" fill-opacity="0.3"/>
</g>
</g>
<rect x="105.458" y="115.724" width="32.9654" height="161.866" rx="5.32786" stroke="url(#paint8_linear_216_7256)" stroke-opacity="0.2" stroke-width="0.91228"/>
<g clip-path="url(#clip4_216_7256)">
<rect x="155.404" y="76.4326" width="37.1829" height="201.614" rx="6.61029" fill="url(#paint9_linear_216_7256)"/>
<g style="mix-blend-mode:plus-lighter">
<path d="M339.659 407.774L340.243 408.358L672.41 76.1914L671.826 75.6074L339.659 407.774ZM334.712 407.774L335.296 408.358L667.463 76.1914L666.879 75.6074L334.712 407.774ZM329.766 407.774L330.35 408.358L662.517 76.1914L661.933 75.6074L329.766 407.774ZM324.818 407.774L325.402 408.358L657.569 76.1914L656.985 75.6074L324.818 407.774ZM319.871 407.774L320.455 408.358L652.622 76.1914L652.038 75.6074L319.871 407.774ZM314.924 407.774L315.508 408.358L647.675 76.1914L647.091 75.6074L314.924 407.774ZM309.976 407.774L310.56 408.358L642.727 76.1914L642.143 75.6074L309.976 407.774ZM305.029 407.774L305.613 408.358L637.78 76.1914L637.196 75.6074L305.029 407.774ZM300.082 407.774L300.666 408.358L632.833 76.1914L632.249 75.6074L300.082 407.774ZM295.134 407.774L295.718 408.358L627.885 76.1914L627.301 75.6074L295.134 407.774ZM290.188 407.774L290.771 408.358L622.938 76.1914L622.354 75.6074L290.188 407.774ZM285.239 407.774L285.823 408.358L617.99 76.1914L617.406 75.6074L285.239 407.774ZM280.292 407.774L280.876 408.358L613.043 76.1914L612.459 75.6074L280.292 407.774ZM275.343 407.774L275.927 408.358L608.094 76.1914L607.51 75.6074L275.343 407.774ZM270.397 407.774L270.981 408.358L603.148 76.1914L602.564 75.6074L270.397 407.774ZM265.449 407.774L266.033 408.358L598.2 76.1914L597.616 75.6074L265.449 407.774ZM260.501 407.774L261.085 408.358L593.252 76.1914L592.668 75.6074L260.501 407.774ZM255.554 407.774L256.138 408.358L588.305 76.1914L587.721 75.6074L255.554 407.774ZM250.605 407.774L251.189 408.358L583.356 76.1914L582.772 75.6074L250.605 407.774ZM245.66 407.774L246.244 408.358L578.411 76.1914L577.827 75.6074L245.66 407.774ZM240.712 407.774L241.296 408.358L573.463 76.1914L572.879 75.6074L240.712 407.774ZM235.764 407.774L236.348 408.358L568.515 76.1914L567.931 75.6074L235.764 407.774ZM230.818 407.774L231.402 408.358L563.569 76.1914L562.985 75.6074L230.818 407.774ZM225.869 407.774L226.453 408.358L558.62 76.1914L558.036 75.6074L225.869 407.774ZM220.924 407.774L221.508 408.358L553.675 76.1914L553.091 75.6074L220.924 407.774ZM215.975 407.774L216.559 408.358L548.726 76.1914L548.142 75.6074L215.975 407.774ZM211.027 407.774L211.611 408.358L543.778 76.1914L543.194 75.6074L211.027 407.774ZM206.079 407.774L206.663 408.358L538.83 76.1914L538.246 75.6074L206.079 407.774ZM201.133 407.774L201.717 408.358L533.884 76.1914L533.3 75.6074L201.133 407.774ZM196.188 407.774L196.771 408.358L528.938 76.1914L528.354 75.6074L196.188 407.774ZM191.237 407.774L191.821 408.358L523.988 76.1914L523.404 75.6074L191.237 407.774ZM186.291 407.774L186.875 408.358L519.042 76.1914L518.458 75.6074L186.291 407.774ZM181.343 407.774L181.927 408.358L514.094 76.1914L513.51 75.6074L181.343 407.774ZM176.396 407.774L176.979 408.358L509.146 76.1914L508.562 75.6074L176.396 407.774ZM171.449 407.774L172.033 408.358L504.2 76.1914L503.616 75.6074L171.449 407.774ZM166.501 407.774L167.085 408.358L499.252 76.1914L498.668 75.6074L166.501 407.774ZM161.554 407.774L162.138 408.358L494.305 76.1914L493.721 75.6074L161.554 407.774ZM156.607 407.774L157.191 408.358L489.358 76.1914L488.774 75.6074L156.607 407.774ZM151.658 407.774L152.242 408.358L484.409 76.1914L483.825 75.6074L151.658 407.774ZM146.712 407.774L147.296 408.358L479.463 76.1914L478.879 75.6074L146.712 407.774ZM141.764 407.774L142.348 408.358L474.515 76.1914L473.931 75.6074L141.764 407.774ZM136.816 407.774L137.4 408.358L469.567 76.1914L468.983 75.6074L136.816 407.774ZM131.869 407.774L132.453 408.358L464.62 76.1914L464.036 75.6074L131.869 407.774ZM126.923 407.774L127.507 408.358L459.674 76.1914L459.09 75.6074L126.923 407.774ZM121.975 407.774L122.559 408.358L454.726 76.1914L454.142 75.6074L121.975 407.774ZM117.027 407.774L117.611 408.358L449.778 76.1914L449.194 75.6074L117.027 407.774ZM112.078 407.774L112.662 408.358L444.829 76.1914L444.245 75.6074L112.078 407.774ZM107.133 407.774L107.717 408.358L439.884 76.1914L439.3 75.6074L107.133 407.774ZM102.186 407.774L102.77 408.358L434.937 76.1914L434.353 75.6074L102.186 407.774ZM97.2373 407.774L97.8213 408.358L429.988 76.1914L429.404 75.6074L97.2373 407.774ZM92.29 407.774L92.874 408.358L425.041 76.1914L424.457 75.6074L92.29 407.774ZM87.3408 407.774L87.9248 408.358L420.092 76.1914L419.508 75.6074L87.3408 407.774ZM82.3955 407.774L82.9795 408.358L415.146 76.1914L414.562 75.6074L82.3955 407.774ZM77.4473 407.774L78.0312 408.358L410.198 76.1914L409.614 75.6074L77.4473 407.774ZM72.502 407.774L73.0859 408.358L405.253 76.1914L404.669 75.6074L72.502 407.774ZM67.5537 407.774L68.1377 408.358L400.305 76.1914L399.721 75.6074L67.5537 407.774ZM62.6055 407.774L63.1895 408.358L395.356 76.1914L394.772 75.6074L62.6055 407.774ZM57.6582 407.774L58.2422 408.358L390.409 76.1914L389.825 75.6074L57.6582 407.774ZM52.71 407.774L53.2939 408.358L385.461 76.1914L384.877 75.6074L52.71 407.774ZM47.7637 407.774L48.3477 408.358L380.515 76.1914L379.931 75.6074L47.7637 407.774ZM42.8154 407.774L43.3994 408.358L375.566 76.1914L374.982 75.6074L42.8154 407.774ZM37.8682 407.774L38.4521 408.358L370.619 76.1914L370.035 75.6074L37.8682 407.774ZM32.9219 407.774L33.5059 408.358L365.673 76.1914L365.089 75.6074L32.9219 407.774ZM27.9727 407.774L28.5566 408.358L360.724 76.1914L360.14 75.6074L27.9727 407.774ZM23.0273 407.774L23.6113 408.358L355.778 76.1914L355.194 75.6074L23.0273 407.774ZM18.0771 407.774L18.6611 408.358L350.828 76.1914L350.244 75.6074L18.0771 407.774ZM13.1309 407.774L13.7148 408.358L345.882 76.1914L345.298 75.6074L13.1309 407.774ZM8.18262 407.774L8.7666 408.358L340.934 76.1914L340.35 75.6074L8.18262 407.774ZM3.23535 407.774L3.81934 408.358L335.986 76.1914L335.402 75.6074L3.23535 407.774ZM-1.70801 407.774L-1.12402 408.358L331.043 76.1914L330.459 75.6074L-1.70801 407.774ZM-6.6582 407.774L-6.07422 408.358L326.093 76.1914L325.509 75.6074L-6.6582 407.774ZM-11.6045 407.774L-11.0205 408.358L321.146 76.1914L320.562 75.6074L-11.6045 407.774ZM-16.5527 407.774L-15.9688 408.358L316.198 76.1914L315.614 75.6074L-16.5527 407.774ZM-21.5 407.774L-20.916 408.358L311.251 76.1914L310.667 75.6074L-21.5 407.774ZM-26.4482 407.774L-25.8643 408.358L306.303 76.1914L305.719 75.6074L-26.4482 407.774ZM-31.3945 407.774L-30.8105 408.358L301.356 76.1914L300.772 75.6074L-31.3945 407.774ZM-36.3428 407.774L-35.7588 408.358L296.408 76.1914L295.824 75.6074L-36.3428 407.774ZM-41.29 407.774L-40.7061 408.358L291.461 76.1914L290.877 75.6074L-41.29 407.774ZM-46.2383 407.774L-45.6543 408.358L286.513 76.1914L285.929 75.6074L-46.2383 407.774ZM-51.1846 407.774L-50.6006 408.358L281.566 76.1914L280.982 75.6074L-51.1846 407.774ZM-56.1328 407.774L-55.5488 408.358L276.618 76.1914L276.034 75.6074L-56.1328 407.774ZM-61.0811 407.774L-60.4971 408.358L271.67 76.1914L271.086 75.6074L-61.0811 407.774ZM-66.0273 407.774L-65.4434 408.358L266.724 76.1914L266.14 75.6074L-66.0273 407.774ZM-70.9746 407.774L-70.3906 408.358L261.776 76.1914L261.192 75.6074L-70.9746 407.774ZM-75.9229 407.774L-75.3389 408.358L256.828 76.1914L256.244 75.6074L-75.9229 407.774ZM-80.8691 407.774L-80.2852 408.358L251.882 76.1914L251.298 75.6074L-80.8691 407.774ZM-85.8174 407.774L-85.2334 408.358L246.934 76.1914L246.35 75.6074L-85.8174 407.774ZM-90.7627 407.774L-90.1787 408.358L241.988 76.1914L241.404 75.6074L-90.7627 407.774ZM-95.7129 407.774L-95.1289 408.358L237.038 76.1914L236.454 75.6074L-95.7129 407.774ZM-100.658 407.774L-100.074 408.358L232.093 76.1914L231.509 75.6074L-100.658 407.774ZM-105.604 407.774L-105.021 408.358L227.146 76.1914L226.562 75.6074L-105.604 407.774ZM-110.555 407.774L-109.971 408.358L222.196 76.1914L221.612 75.6074L-110.555 407.774ZM-115.5 407.774L-114.916 408.358L217.251 76.1914L216.667 75.6074L-115.5 407.774ZM-120.449 407.774L-119.865 408.358L212.302 76.1914L211.718 75.6074L-120.449 407.774ZM-125.395 407.774L-124.811 408.358L207.356 76.1914L206.772 75.6074L-125.395 407.774ZM-130.343 407.774L-129.759 408.358L202.408 76.1914L201.824 75.6074L-130.343 407.774ZM-135.291 407.774L-134.707 408.358L197.46 76.1914L196.876 75.6074L-135.291 407.774ZM-140.238 407.774L-139.654 408.358L192.513 76.1914L191.929 75.6074L-140.238 407.774ZM-145.187 407.774L-144.603 408.358L187.564 76.1914L186.98 75.6074L-145.187 407.774ZM-150.133 407.774L-149.549 408.358L182.618 76.1914L182.034 75.6074L-150.133 407.774ZM-155.081 407.774L-154.497 408.358L177.67 76.1914L177.086 75.6074L-155.081 407.774ZM-160.029 407.774L-159.445 408.358L172.722 76.1914L172.138 75.6074L-160.029 407.774ZM-164.975 407.774L-164.391 408.358L167.776 76.1914L167.192 75.6074L-164.975 407.774ZM-169.923 407.774L-169.339 408.358L162.828 76.1914L162.244 75.6074L-169.923 407.774ZM-174.869 407.774L-174.285 408.358L157.882 76.1914L157.298 75.6074L-174.869 407.774ZM-179.817 407.774L-179.233 408.358L152.934 76.1914L152.35 75.6074L-179.817 407.774ZM-184.765 407.774L-184.181 408.358L147.986 76.1914L147.402 75.6074L-184.765 407.774ZM-189.713 407.774L-189.129 408.358L143.038 76.1914L142.454 75.6074L-189.713 407.774ZM-194.659 407.774L-194.075 408.358L138.092 76.1914L137.508 75.6074L-194.659 407.774ZM-199.606 407.774L-199.022 408.358L133.145 76.1914L132.561 75.6074L-199.606 407.774ZM-204.555 407.774L-203.971 408.358L128.196 76.1914L127.612 75.6074L-204.555 407.774ZM-209.502 407.774L-208.918 408.358L123.249 76.1914L122.665 75.6074L-209.502 407.774ZM-214.45 407.774L-213.866 408.358L118.301 76.1914L117.717 75.6074L-214.45 407.774ZM-219.396 407.774L-218.812 408.358L113.354 76.1914L112.771 75.6074L-219.396 407.774ZM-224.345 407.774L-223.761 408.358L108.406 76.1914L107.822 75.6074L-224.345 407.774ZM-229.292 407.774L-228.708 408.358L103.459 76.1914L102.875 75.6074L-229.292 407.774ZM-234.24 407.774L-233.656 408.358L98.5107 76.1914L97.9268 75.6074L-234.24 407.774ZM-239.187 407.774L-238.603 408.358L93.5645 76.1914L92.9805 75.6074L-239.187 407.774ZM-244.134 407.774L-243.55 408.358L88.6172 76.1914L88.0332 75.6074L-244.134 407.774ZM-249.079 407.774L-248.495 408.358L83.6719 76.1914L83.0879 75.6074L-249.079 407.774ZM-254.027 407.774L-253.443 408.358L78.7236 76.1914L78.1396 75.6074L-254.027 407.774ZM-258.976 407.774L-258.392 408.358L73.7754 76.1914L73.1914 75.6074L-258.976 407.774ZM-263.923 407.774L-263.339 408.358L68.8281 76.1914L68.2441 75.6074L-263.923 407.774ZM-268.87 407.774L-268.286 408.358L63.8809 76.1914L63.2969 75.6074L-268.87 407.774ZM-273.818 407.774L-273.234 408.358L58.9326 76.1914L58.3486 75.6074L-273.818 407.774ZM-278.765 407.774L-278.181 408.358L53.9863 76.1914L53.4023 75.6074L-278.765 407.774ZM-283.715 407.774L-283.131 408.358L49.0361 76.1914L48.4521 75.6074L-283.715 407.774ZM-288.66 407.774L-288.076 408.358L44.0908 76.1914L43.5068 75.6074L-288.66 407.774ZM-293.609 407.774L-293.025 408.358L39.1416 76.1914L38.5576 75.6074L-293.609 407.774ZM-298.557 407.774L-297.973 408.358L34.1943 76.1914L33.6104 75.6074L-298.557 407.774ZM-303.502 407.774L-302.918 408.358L29.249 76.1914L28.665 75.6074L-303.502 407.774ZM-308.451 407.774L-307.867 408.358L24.2998 76.1914L23.7158 75.6074L-308.451 407.774ZM-313.396 407.774L-312.812 408.358L19.3545 76.1914L18.7705 75.6074L-313.396 407.774ZM-318.347 407.774L-317.763 408.358L14.4043 76.1914L13.8203 75.6074L-318.347 407.774ZM-323.293 407.774L-322.709 408.358L9.45801 76.1914L8.87402 75.6074L-323.293 407.774Z" fill="url(#paint10_linear_216_7256)" fill-opacity="0.7"/>
</g>
</g>
<rect x="155.86" y="76.8888" width="36.2706" height="200.701" rx="6.15415" stroke="url(#paint11_linear_216_7256)" stroke-opacity="0.2" stroke-width="0.91228"/>
<g clip-path="url(#clip5_216_7256)">
<rect x="209.113" y="115.268" width="33.8777" height="162.778" rx="5.784" fill="url(#paint12_linear_216_7256)"/>
<g style="mix-blend-mode:plus-lighter">
<path d="M391.718 447.435L392.302 448.019L724.469 115.852L723.885 115.268L391.718 447.435ZM386.77 447.435L387.354 448.019L719.521 115.852L718.937 115.268L386.77 447.435ZM381.822 447.435L382.406 448.019L714.573 115.852L713.989 115.268L381.822 447.435ZM376.874 447.435L377.458 448.019L709.625 115.852L709.041 115.268L376.874 447.435ZM371.929 447.435L372.513 448.019L704.68 115.852L704.096 115.268L371.929 447.435ZM366.981 447.435L367.565 448.019L699.732 115.852L699.148 115.268L366.981 447.435ZM362.034 447.435L362.618 448.019L694.785 115.852L694.201 115.268L362.034 447.435ZM357.086 447.435L357.67 448.019L689.837 115.852L689.253 115.268L357.086 447.435ZM352.14 447.435L352.724 448.019L684.891 115.852L684.307 115.268L352.14 447.435ZM347.191 447.435L347.775 448.019L679.942 115.852L679.358 115.268L347.191 447.435ZM342.244 447.435L342.828 448.019L674.995 115.852L674.411 115.268L342.244 447.435ZM337.295 447.435L337.879 448.019L670.046 115.852L669.462 115.268L337.295 447.435ZM332.35 447.435L332.934 448.019L665.101 115.852L664.517 115.268L332.35 447.435ZM327.402 447.435L327.986 448.019L660.153 115.852L659.569 115.268L327.402 447.435ZM322.454 447.435L323.038 448.019L655.205 115.852L654.621 115.268L322.454 447.435ZM317.508 447.435L318.092 448.019L650.259 115.852L649.675 115.268L317.508 447.435ZM312.558 447.435L313.142 448.019L645.309 115.852L644.725 115.268L312.558 447.435ZM307.612 447.435L308.196 448.019L640.363 115.852L639.779 115.268L307.612 447.435ZM302.663 447.435L303.247 448.019L635.414 115.852L634.83 115.268L302.663 447.435ZM297.716 447.435L298.3 448.019L630.467 115.852L629.883 115.268L297.716 447.435ZM292.77 447.435L293.354 448.019L625.521 115.852L624.937 115.268L292.77 447.435ZM287.822 447.435L288.406 448.019L620.573 115.852L619.989 115.268L287.822 447.435ZM282.876 447.435L283.46 448.019L615.627 115.852L615.043 115.268L282.876 447.435ZM277.928 447.435L278.512 448.019L610.679 115.852L610.095 115.268L277.928 447.435ZM272.981 447.435L273.565 448.019L605.732 115.852L605.148 115.268L272.981 447.435ZM268.033 447.435L268.617 448.019L600.784 115.852L600.2 115.268L268.033 447.435ZM263.085 447.435L263.669 448.019L595.836 115.852L595.252 115.268L263.085 447.435ZM258.14 447.435L258.724 448.019L590.891 115.852L590.307 115.268L258.14 447.435ZM253.189 447.435L253.773 448.019L585.94 115.852L585.356 115.268L253.189 447.435ZM248.243 447.435L248.827 448.019L580.994 115.852L580.41 115.268L248.243 447.435ZM243.295 447.435L243.879 448.019L576.046 115.852L575.462 115.268L243.295 447.435ZM238.348 447.435L238.932 448.019L571.099 115.852L570.515 115.268L238.348 447.435ZM233.399 447.435L233.983 448.019L566.15 115.852L565.566 115.268L233.399 447.435ZM228.453 447.435L229.037 448.019L561.204 115.852L560.62 115.268L228.453 447.435ZM223.506 447.435L224.09 448.019L556.257 115.852L555.673 115.268L223.506 447.435ZM218.558 447.435L219.142 448.019L551.309 115.852L550.725 115.268L218.558 447.435ZM213.611 447.435L214.195 448.019L546.362 115.852L545.778 115.268L213.611 447.435ZM208.663 447.435L209.247 448.019L541.414 115.852L540.83 115.268L208.663 447.435ZM203.718 447.435L204.302 448.019L536.469 115.852L535.885 115.268L203.718 447.435ZM198.77 447.435L199.354 448.019L531.521 115.852L530.937 115.268L198.77 447.435ZM193.822 447.435L194.406 448.019L526.573 115.852L525.989 115.268L193.822 447.435ZM188.874 447.435L189.458 448.019L521.625 115.852L521.041 115.268L188.874 447.435ZM183.927 447.435L184.511 448.019L516.678 115.852L516.094 115.268L183.927 447.435ZM178.979 447.435L179.563 448.019L511.73 115.852L511.146 115.268L178.979 447.435ZM174.031 447.435L174.615 448.019L506.782 115.852L506.198 115.268L174.031 447.435ZM169.085 447.435L169.669 448.019L501.836 115.852L501.252 115.268L169.085 447.435ZM164.138 447.435L164.722 448.019L496.889 115.852L496.305 115.268L164.138 447.435ZM159.189 447.435L159.773 448.019L491.94 115.852L491.356 115.268L159.189 447.435ZM154.243 447.435L154.827 448.019L486.994 115.852L486.41 115.268L154.243 447.435ZM149.295 447.435L149.879 448.019L482.046 115.852L481.462 115.268L149.295 447.435ZM144.348 447.435L144.932 448.019L477.099 115.852L476.515 115.268L144.348 447.435ZM139.398 447.435L139.982 448.019L472.149 115.852L471.565 115.268L139.398 447.435ZM134.453 447.435L135.037 448.019L467.204 115.852L466.62 115.268L134.453 447.435ZM129.506 447.435L130.09 448.019L462.257 115.852L461.673 115.268L129.506 447.435ZM124.558 447.435L125.142 448.019L457.309 115.852L456.725 115.268L124.558 447.435ZM119.612 447.435L120.196 448.019L452.363 115.852L451.779 115.268L119.612 447.435ZM114.662 447.435L115.246 448.019L447.413 115.852L446.829 115.268L114.662 447.435ZM109.717 447.435L110.301 448.019L442.468 115.852L441.884 115.268L109.717 447.435ZM104.768 447.435L105.352 448.019L437.519 115.852L436.935 115.268L104.768 447.435ZM99.8203 447.435L100.404 448.019L432.571 115.852L431.987 115.268L99.8203 447.435ZM94.874 447.435L95.458 448.019L427.625 115.852L427.041 115.268L94.874 447.435ZM89.9258 447.435L90.5098 448.019L422.677 115.852L422.093 115.268L89.9258 447.435ZM84.9795 447.435L85.5635 448.019L417.73 115.852L417.146 115.268L84.9795 447.435ZM80.0312 447.435L80.6152 448.019L412.782 115.852L412.198 115.268L80.0312 447.435ZM75.083 447.435L75.667 448.019L407.834 115.852L407.25 115.268L75.083 447.435ZM70.1367 447.435L70.7207 448.019L402.888 115.852L402.304 115.268L70.1367 447.435ZM65.1885 447.435L65.7725 448.019L397.939 115.852L397.355 115.268L65.1885 447.435ZM60.2422 447.435L60.8262 448.019L392.993 115.852L392.409 115.268L60.2422 447.435ZM55.293 447.435L55.877 448.019L388.044 115.852L387.46 115.268L55.293 447.435ZM50.3457 447.435L50.9297 448.019L383.097 115.852L382.513 115.268L50.3457 447.435ZM45.3975 447.435L45.9814 448.019L378.148 115.852L377.564 115.268L45.3975 447.435ZM40.4521 447.435L41.0361 448.019L373.203 115.852L372.619 115.268L40.4521 447.435ZM35.5039 447.435L36.0879 448.019L368.255 115.852L367.671 115.268L35.5039 447.435ZM30.5576 447.435L31.1416 448.019L363.309 115.852L362.725 115.268L30.5576 447.435ZM25.6104 447.435L26.1943 448.019L358.361 115.852L357.777 115.268L25.6104 447.435ZM20.6621 447.435L21.2461 448.019L353.413 115.852L352.829 115.268L20.6621 447.435ZM15.7158 447.435L16.2998 448.019L348.467 115.852L347.883 115.268L15.7158 447.435ZM10.7676 447.435L11.3516 448.019L343.519 115.852L342.935 115.268L10.7676 447.435ZM5.82031 447.435L6.4043 448.019L338.571 115.852L337.987 115.268L5.82031 447.435ZM0.87207 447.435L1.45605 448.019L333.623 115.852L333.039 115.268L0.87207 447.435ZM-4.07422 447.435L-3.49023 448.019L328.677 115.852L328.093 115.268L-4.07422 447.435ZM-9.02246 447.435L-8.43848 448.019L323.729 115.852L323.145 115.268L-9.02246 447.435ZM-13.9688 447.435L-13.3848 448.019L318.782 115.852L318.198 115.268L-13.9688 447.435ZM-18.917 447.435L-18.333 448.019L313.834 115.852L313.25 115.268L-18.917 447.435ZM-23.8652 447.435L-23.2812 448.019L308.886 115.852L308.302 115.268L-23.8652 447.435ZM-28.8125 447.435L-28.2285 448.019L303.938 115.852L303.354 115.268L-28.8125 447.435ZM-33.7607 447.435L-33.1768 448.019L298.99 115.852L298.406 115.268L-33.7607 447.435ZM-38.707 447.435L-38.123 448.019L294.044 115.852L293.46 115.268L-38.707 447.435ZM-43.6523 447.435L-43.0684 448.019L289.099 115.852L288.515 115.268L-43.6523 447.435ZM-48.6025 447.435L-48.0186 448.019L284.148 115.852L283.564 115.268L-48.6025 447.435ZM-53.5479 447.435L-52.9639 448.019L279.203 115.852L278.619 115.268L-53.5479 447.435ZM-58.4971 447.435L-57.9131 448.019L274.254 115.852L273.67 115.268L-58.4971 447.435ZM-63.4424 447.435L-62.8584 448.019L269.309 115.852L268.725 115.268L-63.4424 447.435ZM-68.3926 447.435L-67.8086 448.019L264.358 115.852L263.774 115.268L-68.3926 447.435ZM-73.3389 447.435L-72.7549 448.019L259.412 115.852L258.828 115.268L-73.3389 447.435ZM-78.2842 447.435L-77.7002 448.019L254.467 115.852L253.883 115.268L-78.2842 447.435ZM-83.2344 447.435L-82.6504 448.019L249.517 115.852L248.933 115.268L-83.2344 447.435ZM-88.1797 447.435L-87.5957 448.019L244.571 115.852L243.987 115.268L-88.1797 447.435ZM-93.1289 447.435L-92.5449 448.019L239.622 115.852L239.038 115.268L-93.1289 447.435ZM-98.0762 447.435L-97.4922 448.019L234.675 115.852L234.091 115.268L-98.0762 447.435ZM-103.023 447.435L-102.439 448.019L229.728 115.852L229.144 115.268L-103.023 447.435ZM-107.971 447.435L-107.387 448.019L224.78 115.852L224.196 115.268L-107.971 447.435ZM-112.917 447.435L-112.333 448.019L219.834 115.852L219.25 115.268L-112.917 447.435ZM-117.865 447.435L-117.281 448.019L214.886 115.852L214.302 115.268L-117.865 447.435ZM-122.812 447.435L-122.229 448.019L209.938 115.852L209.354 115.268L-122.812 447.435ZM-127.759 447.435L-127.175 448.019L204.992 115.852L204.408 115.268L-127.759 447.435ZM-132.707 447.435L-132.123 448.019L200.044 115.852L199.46 115.268L-132.707 447.435ZM-137.652 447.435L-137.068 448.019L195.099 115.852L194.515 115.268L-137.652 447.435ZM-142.603 447.435L-142.019 448.019L190.148 115.852L189.564 115.268L-142.603 447.435ZM-147.549 447.435L-146.965 448.019L185.202 115.852L184.618 115.268L-147.549 447.435ZM-152.497 447.435L-151.913 448.019L180.254 115.852L179.67 115.268L-152.497 447.435ZM-157.444 447.435L-156.86 448.019L175.307 115.852L174.723 115.268L-157.444 447.435ZM-162.393 447.435L-161.809 448.019L170.358 115.852L169.774 115.268L-162.393 447.435ZM-167.339 447.435L-166.755 448.019L165.412 115.852L164.828 115.268L-167.339 447.435ZM-172.289 447.435L-171.705 448.019L160.462 115.852L159.878 115.268L-172.289 447.435ZM-177.234 447.435L-176.65 448.019L155.517 115.852L154.933 115.268L-177.234 447.435ZM-182.182 447.435L-181.598 448.019L150.569 115.852L149.985 115.268L-182.182 447.435ZM-187.13 447.435L-186.546 448.019L145.621 115.852L145.037 115.268L-187.13 447.435ZM-192.076 447.435L-191.492 448.019L140.675 115.852L140.091 115.268L-192.076 447.435ZM-197.025 447.435L-196.441 448.019L135.726 115.852L135.142 115.268L-197.025 447.435ZM-201.971 447.435L-201.387 448.019L130.78 115.852L130.196 115.268L-201.971 447.435ZM-206.919 447.435L-206.335 448.019L125.832 115.852L125.248 115.268L-206.919 447.435ZM-211.864 447.435L-211.28 448.019L120.887 115.852L120.303 115.268L-211.864 447.435ZM-216.812 447.435L-216.229 448.019L115.938 115.852L115.354 115.268L-216.812 447.435ZM-221.761 447.435L-221.177 448.019L110.99 115.852L110.406 115.268L-221.761 447.435ZM-226.707 447.435L-226.123 448.019L106.044 115.852L105.46 115.268L-226.707 447.435ZM-231.655 447.435L-231.071 448.019L101.096 115.852L100.512 115.268L-231.655 447.435ZM-236.603 447.435L-236.019 448.019L96.1484 115.852L95.5645 115.268L-236.603 447.435ZM-241.55 447.435L-240.966 448.019L91.2012 115.852L90.6172 115.268L-241.55 447.435ZM-246.499 447.435L-245.915 448.019L86.252 115.852L85.668 115.268L-246.499 447.435ZM-251.444 447.435L-250.86 448.019L81.3066 115.852L80.7227 115.268L-251.444 447.435ZM-256.395 447.435L-255.811 448.019L76.3564 115.852L75.7725 115.268L-256.395 447.435ZM-261.34 447.435L-260.756 448.019L71.4111 115.852L70.8271 115.268L-261.34 447.435ZM-266.289 447.435L-265.705 448.019L66.4619 115.852L65.8779 115.268L-266.289 447.435ZM-271.236 447.435L-270.652 448.019L61.5146 115.852L60.9307 115.268L-271.236 447.435Z" fill="url(#paint13_linear_216_7256)" fill-opacity="0.3"/>
</g>
</g>
<rect x="209.569" y="115.724" width="32.9654" height="161.866" rx="5.32786" stroke="url(#paint14_linear_216_7256)" stroke-opacity="0.2" stroke-width="0.91228"/>
<g clip-path="url(#clip6_216_7256)">
<rect x="259.518" y="165.671" width="33.8777" height="112.375" rx="5.784" fill="url(#paint15_linear_216_7256)"/>
<g style="mix-blend-mode:plus-lighter">
<path d="M442.118 472.276L442.702 472.86L774.869 140.693L774.285 140.109L442.118 472.276ZM437.173 472.276L437.757 472.86L769.924 140.693L769.34 140.109L437.173 472.276ZM432.225 472.276L432.809 472.86L764.976 140.693L764.392 140.109L432.225 472.276ZM427.278 472.276L427.862 472.86L760.029 140.693L759.445 140.109L427.278 472.276ZM422.33 472.276L422.914 472.86L755.081 140.693L754.497 140.109L422.33 472.276ZM417.383 472.276L417.967 472.86L750.134 140.693L749.55 140.109L417.383 472.276ZM412.437 472.276L413.021 472.86L745.188 140.693L744.604 140.109L412.437 472.276ZM407.488 472.276L408.072 472.86L740.239 140.693L739.655 140.109L407.488 472.276ZM402.541 472.276L403.125 472.86L735.292 140.693L734.708 140.109L402.541 472.276ZM397.593 472.276L398.177 472.86L730.344 140.693L729.76 140.109L397.593 472.276ZM392.646 472.276L393.23 472.86L725.397 140.693L724.813 140.109L392.646 472.276ZM387.697 472.276L388.281 472.86L720.448 140.693L719.864 140.109L387.697 472.276ZM382.751 472.276L383.335 472.86L715.502 140.693L714.918 140.109L382.751 472.276ZM377.803 472.276L378.387 472.86L710.554 140.693L709.97 140.109L377.803 472.276ZM372.855 472.276L373.439 472.86L705.606 140.693L705.022 140.109L372.855 472.276ZM367.907 472.276L368.491 472.86L700.658 140.693L700.074 140.109L367.907 472.276ZM362.961 472.276L363.545 472.86L695.712 140.693L695.128 140.109L362.961 472.276ZM358.014 472.276L358.598 472.86L690.765 140.693L690.181 140.109L358.014 472.276ZM353.065 472.276L353.649 472.86L685.816 140.693L685.232 140.109L353.065 472.276ZM348.12 472.276L348.704 472.86L680.871 140.693L680.287 140.109L348.12 472.276ZM343.173 472.276L343.757 472.86L675.924 140.693L675.34 140.109L343.173 472.276ZM338.225 472.276L338.809 472.86L670.976 140.693L670.392 140.109L338.225 472.276ZM333.278 472.276L333.862 472.86L666.029 140.693L665.445 140.109L333.278 472.276ZM328.328 472.276L328.912 472.86L661.079 140.693L660.495 140.109L328.328 472.276ZM323.383 472.276L323.967 472.86L656.134 140.693L655.55 140.109L323.383 472.276ZM318.433 472.276L319.017 472.86L651.184 140.693L650.6 140.109L318.433 472.276ZM313.486 472.276L314.07 472.86L646.237 140.693L645.653 140.109L313.486 472.276ZM308.541 472.276L309.125 472.86L641.292 140.693L640.708 140.109L308.541 472.276ZM303.591 472.276L304.175 472.86L636.342 140.693L635.758 140.109L303.591 472.276ZM298.646 472.276L299.229 472.86L631.396 140.693L630.812 140.109L298.646 472.276ZM293.696 472.276L294.28 472.86L626.447 140.693L625.863 140.109L293.696 472.276ZM288.749 472.276L289.333 472.86L621.5 140.693L620.916 140.109L288.749 472.276ZM283.801 472.276L284.385 472.86L616.552 140.693L615.968 140.109L283.801 472.276ZM278.854 472.276L279.438 472.86L611.605 140.693L611.021 140.109L278.854 472.276ZM273.909 472.276L274.493 472.86L606.66 140.693L606.076 140.109L273.909 472.276ZM268.961 472.276L269.545 472.86L601.712 140.693L601.128 140.109L268.961 472.276ZM264.013 472.276L264.597 472.86L596.764 140.693L596.18 140.109L264.013 472.276ZM259.066 472.276L259.65 472.86L591.817 140.693L591.233 140.109L259.066 472.276ZM254.118 472.276L254.702 472.86L586.869 140.693L586.285 140.109L254.118 472.276ZM249.171 472.276L249.755 472.86L581.922 140.693L581.338 140.109L249.171 472.276ZM244.223 472.276L244.807 472.86L576.974 140.693L576.39 140.109L244.223 472.276ZM239.276 472.276L239.86 472.86L572.027 140.693L571.443 140.109L239.276 472.276ZM234.328 472.276L234.912 472.86L567.079 140.693L566.495 140.109L234.328 472.276ZM229.381 472.276L229.965 472.86L562.132 140.693L561.548 140.109L229.381 472.276ZM224.433 472.276L225.017 472.86L557.184 140.693L556.6 140.109L224.433 472.276ZM219.486 472.276L220.07 472.86L552.237 140.693L551.653 140.109L219.486 472.276ZM214.539 472.276L215.123 472.86L547.29 140.693L546.706 140.109L214.539 472.276ZM209.591 472.276L210.175 472.86L542.342 140.693L541.758 140.109L209.591 472.276ZM204.645 472.276L205.229 472.86L537.396 140.693L536.812 140.109L204.645 472.276ZM199.696 472.276L200.28 472.86L532.447 140.693L531.863 140.109L199.696 472.276ZM194.749 472.276L195.333 472.86L527.5 140.693L526.916 140.109L194.749 472.276ZM189.801 472.276L190.385 472.86L522.552 140.693L521.968 140.109L189.801 472.276ZM184.855 472.276L185.439 472.86L517.606 140.693L517.022 140.109L184.855 472.276ZM179.907 472.276L180.491 472.86L512.658 140.693L512.074 140.109L179.907 472.276ZM174.961 472.276L175.545 472.86L507.712 140.693L507.128 140.109L174.961 472.276ZM170.013 472.276L170.597 472.86L502.764 140.693L502.18 140.109L170.013 472.276ZM165.064 472.276L165.648 472.86L497.815 140.693L497.231 140.109L165.064 472.276ZM160.118 472.276L160.702 472.86L492.869 140.693L492.285 140.109L160.118 472.276ZM155.17 472.276L155.754 472.86L487.921 140.693L487.337 140.109L155.17 472.276ZM150.223 472.276L150.807 472.86L482.974 140.693L482.39 140.109L150.223 472.276ZM145.276 472.276L145.86 472.86L478.027 140.693L477.443 140.109L145.276 472.276ZM140.326 472.276L140.91 472.86L473.077 140.693L472.493 140.109L140.326 472.276ZM135.381 472.276L135.965 472.86L468.132 140.693L467.548 140.109L135.381 472.276ZM130.432 472.276L131.016 472.86L463.183 140.693L462.599 140.109L130.432 472.276ZM125.486 472.276L126.07 472.86L458.237 140.693L457.653 140.109L125.486 472.276ZM120.536 472.276L121.12 472.86L453.287 140.693L452.703 140.109L120.536 472.276ZM115.59 472.276L116.174 472.86L448.341 140.693L447.757 140.109L115.59 472.276ZM110.645 472.276L111.229 472.86L443.396 140.693L442.812 140.109L110.645 472.276ZM105.696 472.276L106.28 472.86L438.447 140.693L437.863 140.109L105.696 472.276ZM100.751 472.276L101.335 472.86L433.502 140.693L432.918 140.109L100.751 472.276ZM95.8008 472.276L96.3848 472.86L428.552 140.693L427.968 140.109L95.8008 472.276ZM90.8535 472.276L91.4375 472.86L423.604 140.693L423.021 140.109L90.8535 472.276ZM85.9053 472.276L86.4893 472.86L418.656 140.693L418.072 140.109L85.9053 472.276ZM80.959 472.276L81.543 472.86L413.71 140.693L413.126 140.109L80.959 472.276ZM76.0117 472.276L76.5957 472.86L408.763 140.693L408.179 140.109L76.0117 472.276ZM71.0645 472.276L71.6484 472.86L403.815 140.693L403.231 140.109L71.0645 472.276ZM66.1162 472.276L66.7002 472.86L398.867 140.693L398.283 140.109L66.1162 472.276ZM61.1699 472.276L61.7539 472.86L393.921 140.693L393.337 140.109L61.1699 472.276ZM56.2217 472.276L56.8057 472.86L388.973 140.693L388.389 140.109L56.2217 472.276ZM51.2744 472.276L51.8584 472.86L384.025 140.693L383.441 140.109L51.2744 472.276ZM46.3262 472.276L46.9102 472.86L379.077 140.693L378.493 140.109L46.3262 472.276ZM41.3799 472.276L41.9639 472.86L374.131 140.693L373.547 140.109L41.3799 472.276ZM36.4316 472.276L37.0156 472.86L369.183 140.693L368.599 140.109L36.4316 472.276ZM31.4844 472.276L32.0684 472.86L364.235 140.693L363.651 140.109L31.4844 472.276ZM26.5371 472.276L27.1211 472.86L359.288 140.693L358.704 140.109L26.5371 472.276ZM21.5908 472.276L22.1748 472.86L354.342 140.693L353.758 140.109L21.5908 472.276ZM16.6406 472.276L17.2246 472.86L349.392 140.693L348.808 140.109L16.6406 472.276ZM11.6953 472.276L12.2793 472.86L344.446 140.693L343.862 140.109L11.6953 472.276ZM6.74902 472.276L7.33301 472.86L339.5 140.693L338.916 140.109L6.74902 472.276ZM1.80078 472.276L2.38477 472.86L334.552 140.693L333.968 140.109L1.80078 472.276ZM-3.14648 472.276L-2.5625 472.86L329.604 140.693L329.021 140.109L-3.14648 472.276ZM-8.0957 472.276L-7.51172 472.86L324.655 140.693L324.071 140.109L-8.0957 472.276ZM-13.041 472.276L-12.457 472.86L319.71 140.693L319.126 140.109L-13.041 472.276ZM-17.9912 472.276L-17.4072 472.86L314.76 140.693L314.176 140.109L-17.9912 472.276ZM-22.9355 472.276L-22.3516 472.86L309.815 140.693L309.231 140.109L-22.9355 472.276ZM-27.8838 472.276L-27.2998 472.86L304.867 140.693L304.283 140.109L-27.8838 472.276ZM-32.832 472.276L-32.248 472.86L299.919 140.693L299.335 140.109L-32.832 472.276ZM-37.7793 472.276L-37.1953 472.86L294.972 140.693L294.388 140.109L-37.7793 472.276ZM-42.7275 472.276L-42.1436 472.86L290.023 140.693L289.439 140.109L-42.7275 472.276ZM-47.6738 472.276L-47.0898 472.86L285.077 140.693L284.493 140.109L-47.6738 472.276ZM-52.6221 472.276L-52.0381 472.86L280.129 140.693L279.545 140.109L-52.6221 472.276ZM-57.5693 472.276L-56.9854 472.86L275.182 140.693L274.598 140.109L-57.5693 472.276ZM-62.5146 472.276L-61.9307 472.86L270.236 140.693L269.652 140.109L-62.5146 472.276ZM-67.4639 472.276L-66.8799 472.86L265.287 140.693L264.703 140.109L-67.4639 472.276ZM-72.4092 472.276L-71.8252 472.86L260.342 140.693L259.758 140.109L-72.4092 472.276ZM-77.3594 472.276L-76.7754 472.86L255.392 140.693L254.808 140.109L-77.3594 472.276ZM-82.3057 472.276L-81.7217 472.86L250.445 140.693L249.861 140.109L-82.3057 472.276ZM-87.251 472.276L-86.667 472.86L245.5 140.693L244.916 140.109L-87.251 472.276ZM-92.2012 472.276L-91.6172 472.86L240.55 140.693L239.966 140.109L-92.2012 472.276ZM-97.1465 472.276L-96.5625 472.86L235.604 140.693L235.021 140.109L-97.1465 472.276ZM-102.096 472.276L-101.512 472.86L230.655 140.693L230.071 140.109L-102.096 472.276ZM-107.043 472.276L-106.459 472.86L225.708 140.693L225.124 140.109L-107.043 472.276ZM-111.991 472.276L-111.407 472.86L220.76 140.693L220.176 140.109L-111.991 472.276ZM-116.938 472.276L-116.354 472.86L215.813 140.693L215.229 140.109L-116.938 472.276ZM-121.886 472.276L-121.302 472.86L210.865 140.693L210.281 140.109L-121.886 472.276ZM-126.832 472.276L-126.248 472.86L205.919 140.693L205.335 140.109L-126.832 472.276ZM-131.78 472.276L-131.196 472.86L200.971 140.693L200.387 140.109L-131.78 472.276ZM-136.726 472.276L-136.142 472.86L196.025 140.693L195.441 140.109L-136.726 472.276ZM-141.674 472.276L-141.09 472.86L191.077 140.693L190.493 140.109L-141.674 472.276ZM-146.621 472.276L-146.037 472.86L186.13 140.693L185.546 140.109L-146.621 472.276ZM-151.569 472.276L-150.985 472.86L181.182 140.693L180.598 140.109L-151.569 472.276ZM-156.516 472.276L-155.932 472.86L176.235 140.693L175.651 140.109L-156.516 472.276ZM-161.464 472.276L-160.88 472.86L171.287 140.693L170.703 140.109L-161.464 472.276ZM-166.411 472.276L-165.827 472.86L166.34 140.693L165.756 140.109L-166.411 472.276ZM-171.359 472.276L-170.775 472.86L161.392 140.693L160.808 140.109L-171.359 472.276ZM-176.306 472.276L-175.722 472.86L156.445 140.693L155.861 140.109L-176.306 472.276ZM-181.256 472.276L-180.672 472.86L151.495 140.693L150.911 140.109L-181.256 472.276ZM-186.201 472.276L-185.617 472.86L146.55 140.693L145.966 140.109L-186.201 472.276ZM-191.147 472.276L-190.563 472.86L141.604 140.693L141.02 140.109L-191.147 472.276ZM-196.096 472.276L-195.512 472.86L136.655 140.693L136.071 140.109L-196.096 472.276ZM-201.043 472.276L-200.459 472.86L131.708 140.693L131.124 140.109L-201.043 472.276ZM-205.992 472.276L-205.408 472.86L126.759 140.693L126.175 140.109L-205.992 472.276ZM-210.938 472.276L-210.354 472.86L121.813 140.693L121.229 140.109L-210.938 472.276ZM-215.887 472.276L-215.303 472.86L116.864 140.693L116.28 140.109L-215.887 472.276ZM-220.832 472.276L-220.248 472.86L111.919 140.693L111.335 140.109L-220.832 472.276Z" fill="url(#paint16_linear_216_7256)" fill-opacity="0.3"/>
</g>
</g>
<rect x="259.974" y="166.127" width="32.9654" height="111.463" rx="5.32786" stroke="url(#paint17_linear_216_7256)" stroke-opacity="0.2" stroke-width="0.91228"/>
<path opacity="0.5" d="M173.765 85.5737C178.804 85.5737 182.888 81.4893 182.888 76.4509C182.888 71.4125 178.804 67.3281 173.765 67.3281C168.727 67.3281 164.643 71.4125 164.643 76.4509C164.643 81.4893 168.727 85.5737 173.765 85.5737Z" fill="#FEBA00"/>
<path d="M173.755 80.0883C175.77 80.0883 177.404 78.4545 177.404 76.4392C177.404 74.4238 175.77 72.79 173.755 72.79C171.739 72.79 170.105 74.4238 170.105 76.4392C170.105 78.4545 171.739 80.0883 173.755 80.0883Z" fill="white"/>
</g>
</g>
<defs>
<linearGradient id="paint0_linear_216_7256" x1="173.333" y1="0" x2="173.333" y2="334.807" gradientUnits="userSpaceOnUse">
<stop stop-color="#191201"/>
<stop offset="1" stop-color="#191201" stop-opacity="0"/>
</linearGradient>
<linearGradient id="paint1_linear_216_7256" x1="-65.4332" y1="-127.877" x2="171.424" y2="202.706" gradientUnits="userSpaceOnUse">
<stop stop-color="#FEBA00" stop-opacity="0"/>
<stop offset="0.457113" stop-color="#FEBA00"/>
<stop offset="0.757594" stop-color="#FEBA00" stop-opacity="0"/>
</linearGradient>
<linearGradient id="paint2_linear_216_7256" x1="539.339" y1="-82.5622" x2="29.5009" y2="343.233" gradientUnits="userSpaceOnUse">
<stop stop-color="white"/>
<stop offset="0.7583" stop-color="white" stop-opacity="0"/>
</linearGradient>
<linearGradient id="paint3_linear_216_7256" x1="71.5365" y1="165.671" x2="71.5365" y2="278.046" gradientUnits="userSpaceOnUse">
<stop stop-color="#3E2E03"/>
<stop offset="1" stop-color="#3E2E03" stop-opacity="0"/>
</linearGradient>
<linearGradient id="paint4_linear_216_7256" x1="301.78" y1="-125.541" x2="-58.8701" y2="451.17" gradientUnits="userSpaceOnUse">
<stop stop-color="white"/>
<stop offset="0.685982" stop-color="white" stop-opacity="0"/>
</linearGradient>
<linearGradient id="paint5_linear_216_7256" x1="71.5365" y1="165.671" x2="71.5365" y2="278.046" gradientUnits="userSpaceOnUse">
<stop stop-color="#FEBA00"/>
<stop offset="1" stop-color="#FEBA00" stop-opacity="0"/>
</linearGradient>
<linearGradient id="paint6_linear_216_7256" x1="121.941" y1="115.268" x2="121.941" y2="278.046" gradientUnits="userSpaceOnUse">
<stop stop-color="#3E2E03"/>
<stop offset="1" stop-color="#3E2E03" stop-opacity="0"/>
</linearGradient>
<linearGradient id="paint7_linear_216_7256" x1="352.186" y1="-150.383" x2="-8.46392" y2="426.328" gradientUnits="userSpaceOnUse">
<stop stop-color="white"/>
<stop offset="0.685982" stop-color="white" stop-opacity="0"/>
</linearGradient>
<linearGradient id="paint8_linear_216_7256" x1="121.941" y1="115.268" x2="121.941" y2="278.046" gradientUnits="userSpaceOnUse">
<stop stop-color="#FEBA00"/>
<stop offset="1" stop-color="#FEBA00" stop-opacity="0"/>
</linearGradient>
<linearGradient id="paint9_linear_216_7256" x1="173.996" y1="76.4326" x2="173.996" y2="278.046" gradientUnits="userSpaceOnUse">
<stop stop-color="#FEBA00"/>
<stop offset="1" stop-color="#3E2E03"/>
</linearGradient>
<linearGradient id="paint10_linear_216_7256" x1="404.239" y1="-190.043" x2="43.5889" y2="386.668" gradientUnits="userSpaceOnUse">
<stop stop-color="white"/>
<stop offset="0.685982" stop-color="white" stop-opacity="0"/>
</linearGradient>
<linearGradient id="paint11_linear_216_7256" x1="173.996" y1="76.4326" x2="173.996" y2="278.046" gradientUnits="userSpaceOnUse">
<stop stop-color="white"/>
<stop offset="1" stop-color="white" stop-opacity="0"/>
</linearGradient>
<linearGradient id="paint12_linear_216_7256" x1="226.052" y1="115.268" x2="226.052" y2="278.046" gradientUnits="userSpaceOnUse">
<stop stop-color="#3E2E03"/>
<stop offset="1" stop-color="#3E2E03" stop-opacity="0"/>
</linearGradient>
<linearGradient id="paint13_linear_216_7256" x1="456.298" y1="-150.383" x2="95.6473" y2="426.329" gradientUnits="userSpaceOnUse">
<stop stop-color="white"/>
<stop offset="0.685982" stop-color="white" stop-opacity="0"/>
</linearGradient>
<linearGradient id="paint14_linear_216_7256" x1="226.052" y1="115.268" x2="226.052" y2="278.046" gradientUnits="userSpaceOnUse">
<stop stop-color="#FEBA00"/>
<stop offset="1" stop-color="#FEBA00" stop-opacity="0"/>
</linearGradient>
<linearGradient id="paint15_linear_216_7256" x1="276.456" y1="165.671" x2="276.456" y2="278.046" gradientUnits="userSpaceOnUse">
<stop stop-color="#3E2E03"/>
<stop offset="1" stop-color="#3E2E03" stop-opacity="0"/>
</linearGradient>
<linearGradient id="paint16_linear_216_7256" x1="506.699" y1="-125.541" x2="146.048" y2="451.169" gradientUnits="userSpaceOnUse">
<stop stop-color="white"/>
<stop offset="0.685982" stop-color="white" stop-opacity="0"/>
</linearGradient>
<linearGradient id="paint17_linear_216_7256" x1="276.456" y1="165.671" x2="276.456" y2="278.046" gradientUnits="userSpaceOnUse">
<stop stop-color="#FEBA00"/>
<stop offset="1" stop-color="#FEBA00" stop-opacity="0"/>
</linearGradient>
<clipPath id="clip0_216_7256">
<rect width="346.666" height="334.807" fill="white" transform="translate(0.707031)"/>
</clipPath>
<clipPath id="clip1_216_7256">
<rect width="346.666" height="334.807" fill="white" transform="translate(0.707031)"/>
</clipPath>
<clipPath id="clip2_216_7256">
<rect x="54.5977" y="165.671" width="33.8777" height="112.375" rx="5.784" fill="white"/>
</clipPath>
<clipPath id="clip3_216_7256">
<rect x="105.002" y="115.268" width="33.8777" height="162.778" rx="5.784" fill="white"/>
</clipPath>
<clipPath id="clip4_216_7256">
<rect x="155.404" y="76.4326" width="37.1829" height="201.614" rx="6.61029" fill="white"/>
</clipPath>
<clipPath id="clip5_216_7256">
<rect x="209.113" y="115.268" width="33.8777" height="162.778" rx="5.784" fill="white"/>
</clipPath>
<clipPath id="clip6_216_7256">
<rect x="259.518" y="165.671" width="33.8777" height="112.375" rx="5.784" fill="white"/>
</clipPath>
</defs>
</svg>
