<svg width="347" height="336" viewBox="0 0 347 336" fill="none" xmlns="http://www.w3.org/2000/svg">
<g clip-path="url(#clip0_216_7124)">
<rect width="346.666" height="334.807" transform="translate(0.154297 0.714844)" fill="url(#paint0_linear_216_7124)"/>
<path d="M23.8736 191.312V-26.4482M46.6806 191.312V-26.4482M69.4875 191.312V-26.4482M92.2945 191.312V-26.4482M115.102 191.312V-26.4482M137.908 191.312V-26.4482M160.715 191.312V-26.4482M183.522 191.312V-26.4482M160.715 202.2V-15.5602M229.136 191.312V-26.4482M251.943 191.312V-26.4482M274.75 191.312V-26.4482M297.557 191.312V-26.4482M320.364 191.312V-26.4482M344.996 156.833H0.154305M344.996 134.15H0.154304M344.996 111.467H0.154303M344.996 88.7833H0.154302M344.996 66.0999H0.154301M344.996 43.4165H0.1543M344.996 20.7332H0.154299M344.996 -1.9502H0.154298M344.996 -24.6336L0.154297 -24.6336" stroke="url(#paint1_linear_216_7124)" stroke-opacity="0.15" stroke-width="0.91228" stroke-dasharray="0.9 0.9"/>
<path d="M256.587 78.7319C245.97 58.4507 225.816 44.3999 204.083 39.0755C183.351 33.9963 158.393 34.2463 142.787 50.9719C132.511 61.9847 128.397 77.3171 119.328 89.2091C114.82 95.1199 109.179 97.8239 103.273 101.961C88.8791 112.045 78.2927 128.272 80.6127 146.624C84.4915 177.309 112.482 193.789 140.613 195.64C177.788 198.086 204.301 193.114 226.822 178.722C238.519 171.248 250.184 162.378 257.325 150.101C268.123 131.535 267.679 108.122 260.694 88.1867C259.545 84.9079 258.169 81.7531 256.587 78.7319Z" fill="#FEBA00"/>
<path opacity="0.8" d="M256.587 78.7319C245.97 58.4507 225.816 44.3999 204.083 39.0755C183.351 33.9963 158.393 34.2463 142.787 50.9719C132.511 61.9847 128.397 77.3171 119.328 89.2091C114.82 95.1199 109.179 97.8239 103.273 101.961C88.8791 112.045 78.2927 128.272 80.6127 146.624C84.4915 177.309 112.482 193.789 140.613 195.64C177.788 198.086 204.301 193.114 226.822 178.722C238.519 171.248 250.184 162.378 257.325 150.101C268.123 131.535 267.679 108.122 260.694 88.1867C259.545 84.9079 258.169 81.7531 256.587 78.7319Z" fill="white"/>
<path d="M171.439 213.52H167.621V47.336C167.621 46.2816 168.476 45.4268 169.53 45.4268C170.585 45.4268 171.439 46.2816 171.439 47.336V213.52Z" fill="#FEBA00" stroke="#263238" stroke-miterlimit="10" stroke-linecap="round" stroke-linejoin="round"/>
<path d="M167.513 67.5625H134.037V79.3497H167.513V67.5625Z" fill="#263238" stroke="#263238" stroke-miterlimit="10" stroke-linecap="round" stroke-linejoin="round"/>
<path d="M204.98 54.9277H171.504V66.7149H204.98V54.9277Z" fill="#263238" stroke="#263238" stroke-miterlimit="10" stroke-linecap="round" stroke-linejoin="round"/>
<path d="M171.504 87.4108L190.197 89.7856V73.248L171.504 75.6232V87.4108Z" fill="#263238" stroke="#263238" stroke-miterlimit="10" stroke-linecap="round" stroke-linejoin="round"/>
<path d="M186.429 81.8328L182.304 77.2832V79.2672L173.688 79.606V83.9276L182.304 84.3556V86.3396L186.429 81.8328Z" fill="#FEBA00" stroke="#263238" stroke-miterlimit="10" stroke-linecap="round" stroke-linejoin="round"/>
<path d="M199.877 59.9648L193.515 56.292V57.9012H176.744V62.0288H193.515V63.638L199.877 59.9648Z" fill="#FEBA00" stroke="#263238" stroke-miterlimit="10" stroke-linecap="round" stroke-linejoin="round"/>
<path d="M139.404 73.5429L145.766 69.8701V71.4793H162.537V75.6069H145.766V77.2157L139.404 73.5429Z" fill="#FEBA00" stroke="#263238" stroke-miterlimit="10" stroke-linecap="round" stroke-linejoin="round"/>
<path d="M221.537 79.392C229.197 79.392 235.408 73.1818 235.408 65.5212C235.408 57.8606 229.197 51.6504 221.537 51.6504C213.876 51.6504 207.666 57.8606 207.666 65.5212C207.666 73.1818 213.876 79.392 221.537 79.392Z" stroke="#263238" stroke-miterlimit="10" stroke-linecap="round" stroke-linejoin="round"/>
<path d="M230.658 74.6797C229.733 75.6013 228.669 76.3837 227.5 76.9925" stroke="#263238" stroke-miterlimit="10" stroke-linecap="round" stroke-linejoin="round"/>
<path d="M225.652 77.7783C224.359 78.2119 222.976 78.4467 221.537 78.4467C214.399 78.4467 208.611 72.6595 208.611 65.5207C208.611 58.3819 214.399 52.5947 221.537 52.5947C228.676 52.5947 234.463 58.3819 234.463 65.5207C234.463 67.9351 233.801 70.1951 232.649 72.1287" stroke="#263238" stroke-miterlimit="10" stroke-linecap="round" stroke-linejoin="round"/>
<path d="M221.537 66.5452C222.103 66.5452 222.561 66.087 222.561 65.5216C222.561 64.9563 222.103 64.498 221.537 64.498C220.972 64.498 220.514 64.9563 220.514 65.5216C220.514 66.087 220.972 66.5452 221.537 66.5452Z" fill="#263238" stroke="#263238" stroke-miterlimit="10" stroke-linecap="round" stroke-linejoin="round"/>
<path d="M223.01 71.2687L221.537 65.5211L230.128 59.6367" stroke="#263238" stroke-miterlimit="10" stroke-linecap="round" stroke-linejoin="round"/>
<path d="M130.379 101.51V122.005H115.115" stroke="#263238" stroke-miterlimit="10" stroke-linecap="round" stroke-linejoin="round"/>
<path d="M102.594 118.787V95.9209H130.379V99.7045" stroke="#263238" stroke-miterlimit="10" stroke-linecap="round" stroke-linejoin="round"/>
<path d="M112.923 122.006H102.594V120.335" stroke="#263238" stroke-miterlimit="10" stroke-linecap="round" stroke-linejoin="round"/>
<path d="M106.995 102.342H104.283V105.054H106.995V102.342Z" stroke="#263238" stroke-miterlimit="10" stroke-linecap="round" stroke-linejoin="round"/>
<path d="M110.61 102.342H107.898V105.054H110.61V102.342Z" stroke="#263238" stroke-miterlimit="10" stroke-linecap="round" stroke-linejoin="round"/>
<path d="M114.228 102.342H111.516V105.054H114.228V102.342Z" stroke="#263238" stroke-miterlimit="10" stroke-linecap="round" stroke-linejoin="round"/>
<path d="M117.843 102.342H115.131V105.054H117.843V102.342Z" stroke="#263238" stroke-miterlimit="10" stroke-linecap="round" stroke-linejoin="round"/>
<path d="M121.458 102.342H118.746V105.054H121.458V102.342Z" stroke="#263238" stroke-miterlimit="10" stroke-linecap="round" stroke-linejoin="round"/>
<path d="M125.075 102.342H122.363V105.054H125.075V102.342Z" stroke="#263238" stroke-miterlimit="10" stroke-linecap="round" stroke-linejoin="round"/>
<path d="M128.691 102.342H125.979V105.054H128.691V102.342Z" stroke="#263238" stroke-miterlimit="10" stroke-linecap="round" stroke-linejoin="round"/>
<path d="M106.995 106.621H104.283V109.333H106.995V106.621Z" stroke="#263238" stroke-miterlimit="10" stroke-linecap="round" stroke-linejoin="round"/>
<path d="M110.61 106.621H107.898V109.333H110.61V106.621Z" stroke="#263238" stroke-miterlimit="10" stroke-linecap="round" stroke-linejoin="round"/>
<path d="M114.228 106.621H111.516V109.333H114.228V106.621Z" stroke="#263238" stroke-miterlimit="10" stroke-linecap="round" stroke-linejoin="round"/>
<path d="M117.843 106.621H115.131V109.333H117.843V106.621Z" stroke="#263238" stroke-miterlimit="10" stroke-linecap="round" stroke-linejoin="round"/>
<path d="M121.458 106.621H118.746V109.333H121.458V106.621Z" stroke="#263238" stroke-miterlimit="10" stroke-linecap="round" stroke-linejoin="round"/>
<path d="M125.075 106.621H122.363V109.333H125.075V106.621Z" stroke="#263238" stroke-miterlimit="10" stroke-linecap="round" stroke-linejoin="round"/>
<path d="M128.691 106.621H125.979V109.333H128.691V106.621Z" stroke="#263238" stroke-miterlimit="10" stroke-linecap="round" stroke-linejoin="round"/>
<path d="M106.995 110.901H104.283V113.613H106.995V110.901Z" stroke="#263238" stroke-miterlimit="10" stroke-linecap="round" stroke-linejoin="round"/>
<path d="M110.61 110.901H107.898V113.613H110.61V110.901Z" stroke="#263238" stroke-miterlimit="10" stroke-linecap="round" stroke-linejoin="round"/>
<path d="M114.228 110.901H111.516V113.613H114.228V110.901Z" stroke="#263238" stroke-miterlimit="10" stroke-linecap="round" stroke-linejoin="round"/>
<path d="M117.843 110.901H115.131V113.613H117.843V110.901Z" stroke="#263238" stroke-miterlimit="10" stroke-linecap="round" stroke-linejoin="round"/>
<path d="M121.458 110.901H118.746V113.613H121.458V110.901Z" stroke="#263238" stroke-miterlimit="10" stroke-linecap="round" stroke-linejoin="round"/>
<path d="M125.075 110.901H122.363V113.613H125.075V110.901Z" stroke="#263238" stroke-miterlimit="10" stroke-linecap="round" stroke-linejoin="round"/>
<path d="M128.691 110.901H125.979V113.613H128.691V110.901Z" stroke="#263238" stroke-miterlimit="10" stroke-linecap="round" stroke-linejoin="round"/>
<path d="M106.995 115.181H104.283V117.893H106.995V115.181Z" stroke="#263238" stroke-miterlimit="10" stroke-linecap="round" stroke-linejoin="round"/>
<path d="M110.61 115.181H107.898V117.893H110.61V115.181Z" stroke="#263238" stroke-miterlimit="10" stroke-linecap="round" stroke-linejoin="round"/>
<path d="M114.228 115.181H111.516V117.893H114.228V115.181Z" stroke="#263238" stroke-miterlimit="10" stroke-linecap="round" stroke-linejoin="round"/>
<path d="M117.843 115.181H115.131V117.893H117.843V115.181Z" stroke="#263238" stroke-miterlimit="10" stroke-linecap="round" stroke-linejoin="round"/>
<path d="M121.458 115.181H118.746V117.893H121.458V115.181Z" stroke="#263238" stroke-miterlimit="10" stroke-linecap="round" stroke-linejoin="round"/>
<path d="M125.075 115.181H122.363V117.893H125.075V115.181Z" stroke="#263238" stroke-miterlimit="10" stroke-linecap="round" stroke-linejoin="round"/>
<path d="M128.691 115.181H125.979V117.893H128.691V115.181Z" stroke="#263238" stroke-miterlimit="10" stroke-linecap="round" stroke-linejoin="round"/>
<path d="M107.509 97.7622H106.312V93.373H107.51L107.509 97.7622ZM112.298 93.373H111.101V97.7622H112.298V93.373ZM117.086 93.373H115.889V97.7622H117.086V93.373ZM121.874 93.373H120.677V97.7622H121.874V93.373ZM126.662 93.373H125.465V97.7622H126.662V93.373Z" fill="#263238" stroke="#263238" stroke-miterlimit="10" stroke-linecap="round" stroke-linejoin="round"/>
<path d="M116.487 139.54C110.633 139.54 105.889 144.285 105.889 150.138C105.889 155.991 110.633 160.736 116.487 160.736C122.34 160.736 127.085 155.991 127.085 150.138C127.085 144.285 122.34 139.54 116.487 139.54ZM116.487 156.843C112.784 156.843 109.782 153.841 109.782 150.138C109.782 146.435 112.784 143.433 116.487 143.433C120.189 143.433 123.191 146.435 123.191 150.138C123.192 153.841 120.19 156.843 116.487 156.843Z" stroke="#263238" stroke-miterlimit="10" stroke-linecap="round" stroke-linejoin="round"/>
<path d="M116.703 139.546V143.444C120.305 143.559 123.192 146.508 123.192 150.138C123.192 151.974 122.452 153.636 121.258 154.847L124.315 157.281C126.035 155.397 127.085 152.891 127.085 150.138C127.085 144.358 122.456 139.661 116.703 139.546Z" stroke="#263238" stroke-miterlimit="10" stroke-linecap="round" stroke-linejoin="round"/>
<path d="M112.594 149.706H120.164" stroke="#263238" stroke-miterlimit="10" stroke-linecap="round" stroke-linejoin="round"/>
<path d="M112.594 151.652H120.164" stroke="#263238" stroke-miterlimit="10" stroke-linecap="round" stroke-linejoin="round"/>
<path d="M212.627 102.563H233.246" stroke="#263238" stroke-miterlimit="10" stroke-linecap="round" stroke-linejoin="round"/>
<path d="M204.41 102.563H206.533" stroke="#263238" stroke-miterlimit="10" stroke-linecap="round" stroke-linejoin="round"/>
<path d="M219.494 105.835H233.247" stroke="#263238" stroke-miterlimit="10" stroke-linecap="round" stroke-linejoin="round"/>
<path d="M204.41 105.835H206.701" stroke="#263238" stroke-miterlimit="10" stroke-linecap="round" stroke-linejoin="round"/>
<path d="M226.109 109.106H233.247" stroke="#263238" stroke-miterlimit="10" stroke-linecap="round" stroke-linejoin="round"/>
<path d="M204.41 109.106H206.533" stroke="#263238" stroke-miterlimit="10" stroke-linecap="round" stroke-linejoin="round"/>
<path d="M231.971 112.378H233.247" stroke="#263238" stroke-miterlimit="10" stroke-linecap="round" stroke-linejoin="round"/>
<path d="M204.41 112.378H206.533" stroke="#263238" stroke-miterlimit="10" stroke-linecap="round" stroke-linejoin="round"/>
<path d="M231.971 116.185H233.247" stroke="#263238" stroke-miterlimit="10" stroke-linecap="round" stroke-linejoin="round"/>
<path d="M204.41 116.185H206.533" stroke="#263238" stroke-miterlimit="10" stroke-linecap="round" stroke-linejoin="round"/>
<path d="M231.971 119.992H233.247" stroke="#263238" stroke-miterlimit="10" stroke-linecap="round" stroke-linejoin="round"/>
<path d="M204.41 119.992H206.533" stroke="#263238" stroke-miterlimit="10" stroke-linecap="round" stroke-linejoin="round"/>
<path d="M211.857 100.299H207.076V120.34H211.857V100.299Z" stroke="#263238" stroke-miterlimit="10" stroke-linecap="round" stroke-linejoin="round"/>
<path d="M218.4 104.073H213.619V120.34H218.4V104.073Z" stroke="#263238" stroke-miterlimit="10" stroke-linecap="round" stroke-linejoin="round"/>
<path d="M224.941 107.597H220.16V120.341H224.941V107.597Z" stroke="#263238" stroke-miterlimit="10" stroke-linecap="round" stroke-linejoin="round"/>
<path d="M231.485 112.126H226.703V120.34H231.485V112.126Z" stroke="#263238" stroke-miterlimit="10" stroke-linecap="round" stroke-linejoin="round"/>
<path d="M123.503 55.3485C121.545 53.8873 119.117 53.0225 116.486 53.0225C110 53.0225 104.742 58.2805 104.742 64.7665C104.742 71.2525 110 76.5105 116.486 76.5105C122.972 76.5105 128.23 71.2525 128.23 64.7665C128.23 61.6741 127.035 58.8613 125.082 56.7637" stroke="#263238" stroke-miterlimit="10" stroke-linecap="round" stroke-linejoin="round"/>
<path d="M110.955 70.1472C112.357 71.5884 114.318 72.484 116.487 72.484C120.75 72.484 124.205 69.0288 124.205 64.7664C124.205 60.504 120.75 57.0488 116.487 57.0488C112.225 57.0488 108.77 60.504 108.77 64.7664C108.77 66.336 109.238 67.796 110.043 69.014" stroke="#263238" stroke-miterlimit="10" stroke-linecap="round" stroke-linejoin="round"/>
<path d="M116.485 68.7921C118.709 68.7921 120.512 66.9894 120.512 64.7657C120.512 62.5419 118.709 60.7393 116.485 60.7393C114.262 60.7393 112.459 62.5419 112.459 64.7657C112.459 66.9894 114.262 68.7921 116.485 68.7921Z" stroke="#263238" stroke-miterlimit="10" stroke-linecap="round" stroke-linejoin="round"/>
<path d="M218.955 144.873C220.248 145.056 220.841 146.06 220.841 147.49V147.779H219.731V147.414C219.731 146.471 219.35 145.893 218.498 145.893C217.662 145.893 217.282 146.471 217.282 147.414C217.282 149.803 220.857 149.818 220.857 152.815C220.857 154.245 220.248 155.264 218.955 155.447V156.253H217.982V155.447C216.658 155.264 216.064 154.26 216.064 152.815V152.161H217.175V152.891C217.175 153.849 217.571 154.397 218.422 154.397C219.29 154.397 219.67 153.849 219.67 152.891C219.67 150.517 216.11 150.487 216.11 147.49C216.11 146.03 216.704 145.071 217.982 144.873V144.021H218.955V144.873H218.955Z" fill="#263238"/>
<path d="M222.354 159.145C223.107 158.819 223.812 158.402 224.453 157.906" stroke="#263238" stroke-miterlimit="10" stroke-linecap="round" stroke-linejoin="round"/>
<path d="M214.991 140.958C211.285 142.36 208.65 145.941 208.65 150.137C208.65 155.556 213.043 159.948 218.461 159.948C219.142 159.948 219.806 159.878 220.448 159.746" stroke="#263238" stroke-miterlimit="10" stroke-linecap="round" stroke-linejoin="round"/>
<path d="M225.687 156.772C227.292 155.026 228.271 152.696 228.271 150.138C228.271 144.719 223.879 140.327 218.461 140.327C217.63 140.327 216.823 140.43 216.053 140.625" stroke="#263238" stroke-miterlimit="10" stroke-linecap="round" stroke-linejoin="round"/>
<path d="M223.929 156.029C227.188 153.01 227.383 147.921 224.364 144.662C221.345 141.403 216.255 141.209 212.996 144.228C209.738 147.247 209.543 152.336 212.562 155.595C215.581 158.854 220.67 159.048 223.929 156.029Z" stroke="#263238" stroke-miterlimit="10" stroke-linecap="round" stroke-linejoin="round"/>
<path d="M179.153 117.927C179.153 117.927 179.251 117.915 179.428 117.894C180.588 117.751 185.134 117.141 187.737 116.112C190.738 114.926 197.577 115.554 197.577 115.554L200.578 117.717L197.158 119.951C197.158 119.951 192.343 118.345 188.994 118.485C185.644 118.625 184.039 119.601 181.945 119.462C179.852 119.322 177.27 117.927 177.27 117.927H179.153Z" fill="#263238" stroke="#263238" stroke-miterlimit="10" stroke-linecap="round" stroke-linejoin="round"/>
<path d="M166.33 111.136V115.627H173.73V110.427L166.33 111.136Z" fill="white" stroke="#263238" stroke-miterlimit="10" stroke-linecap="round" stroke-linejoin="round"/>
<path d="M164.31 106.778C164.31 106.778 162.556 105.609 163.141 107.655C163.725 109.7 164.31 110.479 165.186 110.382C166.063 110.285 166.55 109.992 166.258 109.213C165.966 108.434 164.31 106.778 164.31 106.778Z" fill="white" stroke="#263238" stroke-miterlimit="10" stroke-linecap="round" stroke-linejoin="round"/>
<path d="M176.02 106.778C176.02 106.778 177.773 105.609 177.188 107.655C176.604 109.7 176.02 110.479 175.143 110.382C174.266 110.285 173.779 109.992 174.071 109.213C174.364 108.434 176.02 106.778 176.02 106.778Z" fill="white" stroke="#263238" stroke-miterlimit="10" stroke-linecap="round" stroke-linejoin="round"/>
<path d="M168.108 97.4272C168.108 97.4272 165.186 98.4012 164.212 101.128C163.238 103.856 164.114 107.167 164.601 108.531C165.088 109.894 167.426 112.524 167.426 112.524H172.686C172.686 112.524 174.634 110.674 175.705 108.239C176.777 105.804 176.777 102.395 176.777 102.395C176.777 102.395 177.654 102.687 177.654 101.518C177.654 100.349 174.926 98.1088 174.926 98.1088C174.926 98.1088 176.193 97.622 175.316 96.94C174.439 96.258 171.322 96.5504 171.322 96.5504C171.322 96.5504 170.932 94.5052 168.108 97.4272Z" fill="#263238" stroke="#263238" stroke-miterlimit="10" stroke-linecap="round" stroke-linejoin="round"/>
<path d="M179.63 209.327L180.43 209.827C180.43 209.827 181.33 209.827 181.83 210.327C182.33 210.827 182.144 213.312 182.144 213.312C182.144 213.312 181.745 213.606 179.845 213.606C177.945 213.606 173.761 214.071 173.361 213.371C172.961 212.671 173.43 209.728 173.43 209.728L179.63 209.327Z" fill="#858585" stroke="#263238" stroke-miterlimit="10" stroke-linecap="round" stroke-linejoin="round"/>
<path d="M157.731 146.427C157.731 146.427 157.131 150.827 157.131 151.727C157.131 152.627 156.931 160.427 156.931 160.427C156.931 160.427 157.031 180.927 157.031 181.327C157.031 181.727 155.331 187.327 155.931 191.127C156.531 194.927 157.731 209.527 157.731 209.527C157.731 209.527 157.331 212.727 157.631 213.027C157.931 213.327 161.631 213.727 162.431 213.327C163.231 212.927 162.731 209.027 162.731 209.027C162.731 209.027 163.231 207.327 163.231 206.127C163.231 204.927 163.231 203.927 163.231 202.927C163.231 201.927 163.731 193.027 164.231 189.527C164.731 186.027 165.031 181.327 165.031 181.327L167.131 159.727L168.731 159.627C168.731 159.627 170.731 182.827 170.831 184.527C170.931 186.227 170.531 189.627 171.431 193.527C172.331 197.427 172.831 208.027 172.831 208.027C172.831 208.027 172.631 209.027 172.831 209.427C173.031 209.827 173.531 211.027 173.531 211.027C173.531 211.027 174.331 211.127 175.631 211.027C176.727 210.942 177.388 210.83 178.848 210.151C179.561 209.493 179.874 208.593 179.496 207.668C178.897 206.205 178.631 205.927 178.631 205.927C178.631 205.927 179.531 193.327 179.531 190.227C179.531 187.127 179.031 183.327 179.031 183.027C179.031 182.727 179.631 160.227 179.631 157.927C179.631 155.627 179.431 149.427 178.431 146.727C177.431 144.027 161.431 144.727 159.831 144.827C158.231 144.927 157.731 146.427 157.731 146.427Z" fill="#263238" stroke="#263238" stroke-miterlimit="10" stroke-linecap="round" stroke-linejoin="round"/>
<path d="M163.631 159.576L172.231 159.176" stroke="#757575" stroke-miterlimit="10" stroke-linecap="round" stroke-linejoin="round"/>
<path d="M168.631 115.427L163.231 116.727C163.231 116.727 155.431 120.527 153.731 121.527C152.031 122.527 145.331 136.027 145.631 136.727C145.931 137.427 147.231 138.327 148.531 138.527C149.831 138.727 156.431 131.227 156.431 131.227C156.431 131.227 158.331 140.627 158.331 141.027C158.331 141.427 157.231 146.227 157.731 147.027C158.231 147.827 177.431 147.027 177.431 147.027C177.431 147.027 178.831 147.127 179.031 145.827C179.231 144.527 178.631 140.727 178.631 140.727L180.831 129.227C180.831 129.227 185.033 135.601 185.975 136.627C187.613 138.41 189.645 137.663 190.731 136.327C191.676 135.162 190.831 132.927 190.531 132.227C190.231 131.527 184.931 119.627 183.331 119.127C181.731 118.627 175.031 116.227 175.031 116.227L168.631 115.427Z" fill="white" stroke="#263238" stroke-miterlimit="10" stroke-linecap="round" stroke-linejoin="round"/>
<path d="M163.23 116.727C163.23 116.727 169.84 116.591 170.94 116.591C172.04 116.591 176.055 116.557 176.055 116.557L175.04 114.391C175.04 114.391 172.94 113.791 169.74 113.791C166.54 113.791 164.14 114.791 164.14 114.791L163.23 116.727Z" fill="white" stroke="#263238" stroke-miterlimit="10" stroke-linecap="round" stroke-linejoin="round"/>
<path d="M154.398 125.954L156.432 131.227L152.932 127.727" stroke="#263238" stroke-miterlimit="10" stroke-linecap="round" stroke-linejoin="round"/>
<path d="M153.73 124.228L153.973 124.857" stroke="#263238" stroke-miterlimit="10" stroke-linecap="round" stroke-linejoin="round"/>
<path d="M164.986 140.155C164.64 140.443 164.288 140.702 163.932 140.927" stroke="#263238" stroke-miterlimit="10" stroke-linecap="round" stroke-linejoin="round"/>
<path d="M174.131 125.027C174.131 125.027 170.474 135.022 165.578 139.629" stroke="#263238" stroke-miterlimit="10" stroke-linecap="round" stroke-linejoin="round"/>
<path d="M183.13 123.527L180.83 129.227L184.53 125.227" stroke="#263238" stroke-miterlimit="10" stroke-linecap="round" stroke-linejoin="round"/>
<path d="M144.73 139.227C144.73 139.227 145.43 141.527 147.63 143.227C149.83 144.927 155.73 150.527 155.73 150.527C155.73 150.527 155.63 150.927 155.73 151.427C155.83 151.927 157.43 153.227 157.43 153.227V152.227L157.83 151.427L158.23 150.427C158.23 150.427 159.23 150.027 159.53 149.827C159.83 149.627 160.03 149.327 160.03 149.327C160.03 149.327 161.13 149.527 161.83 149.527C162.53 149.527 163.53 148.827 162.93 148.627C162.33 148.427 161.73 148.627 160.93 148.227C160.13 147.827 159.73 147.427 158.93 147.427C158.13 147.427 156.83 147.427 156.83 147.427L151.33 138.427L144.73 139.227Z" fill="white" stroke="#263238" stroke-miterlimit="10" stroke-linecap="round" stroke-linejoin="round"/>
<path d="M147.098 133.081C147.098 133.081 145.931 133.428 145.631 133.728C145.331 134.028 143.831 136.328 144.131 137.528C144.431 138.728 144.831 140.428 147.431 140.928C150.031 141.428 151.431 140.328 151.631 140.028C151.831 139.728 152.324 136.19 151.924 136.19C151.524 136.19 150.431 137.528 150.431 137.528C150.431 137.528 147.452 136.853 146.852 136.353C146.252 135.853 147.098 133.081 147.098 133.081Z" fill="white" stroke="#263238" stroke-miterlimit="10" stroke-linecap="round" stroke-linejoin="round"/>
<path d="M192.976 139.227C192.976 139.227 192.276 141.527 190.076 143.227C187.876 144.927 181.976 150.527 181.976 150.527C181.976 150.527 182.076 150.927 181.976 151.427C181.876 151.927 179.673 153.466 179.673 153.466V152.008L179.519 151.088L179.476 150.428C179.476 150.428 178.476 150.028 178.176 149.828C177.876 149.628 177.676 149.328 177.676 149.328C177.676 149.328 176.576 149.528 175.876 149.528C175.176 149.528 174.176 148.828 174.776 148.628C175.376 148.428 175.976 148.628 176.776 148.228C177.576 147.828 177.976 147.428 178.776 147.428C179.576 147.428 180.876 147.428 180.876 147.428L186.376 138.428L192.976 139.227Z" fill="white" stroke="#263238" stroke-miterlimit="10" stroke-linecap="round" stroke-linejoin="round"/>
<path d="M191.026 133.572C191.026 133.572 191.776 133.428 192.076 133.728C192.376 134.028 193.876 136.328 193.576 137.528C193.276 138.728 192.876 140.428 190.276 140.928C187.676 141.428 186.276 140.328 186.076 140.028C185.876 139.728 185.714 136.325 185.976 136.628C186.445 137.171 187.276 137.528 187.276 137.528C187.276 137.528 190.376 137.37 190.862 135.617C191.071 134.864 191.026 133.572 191.026 133.572Z" fill="white" stroke="#263238" stroke-miterlimit="10" stroke-linecap="round" stroke-linejoin="round"/>
<path d="M162.431 213.327C163.063 213.012 162.884 210.516 162.781 209.479C162.265 209.72 161.475 210.016 160.531 210.127C158.831 210.327 157.731 209.527 157.731 209.527C157.731 209.527 157.41 212.986 157.681 213.312C157.977 213.665 161.631 213.727 162.431 213.327Z" fill="#858585" stroke="#263238" stroke-miterlimit="10" stroke-linecap="round" stroke-linejoin="round"/>
<path d="M263.096 213.6H265.8" stroke="#263238" stroke-miterlimit="10" stroke-linecap="round" stroke-linejoin="round"/>
<path d="M120.154 213.6H259.404" stroke="#263238" stroke-miterlimit="10" stroke-linecap="round" stroke-linejoin="round"/>
<path d="M89 213.6H116.464" stroke="#263238" stroke-miterlimit="10" stroke-linecap="round" stroke-linejoin="round"/>
</g>
<defs>
<linearGradient id="paint0_linear_216_7124" x1="173.333" y1="0" x2="173.333" y2="334.807" gradientUnits="userSpaceOnUse">
<stop stop-color="#191201"/>
<stop offset="1" stop-color="#191201" stop-opacity="0"/>
</linearGradient>
<linearGradient id="paint1_linear_216_7124" x1="172.575" y1="-70.386" x2="171.17" y2="202.193" gradientUnits="userSpaceOnUse">
<stop stop-color="#FEBA00" stop-opacity="0"/>
<stop offset="0.457113" stop-color="#FEBA00"/>
<stop offset="0.757594" stop-color="#FEBA00" stop-opacity="0"/>
</linearGradient>
<clipPath id="clip0_216_7124">
<rect width="346.666" height="334.807" fill="white" transform="translate(0.154297 0.714844)"/>
</clipPath>
</defs>
</svg>
