<svg width="70" height="70" viewBox="0 0 70 70" fill="none" xmlns="http://www.w3.org/2000/svg">
<path d="M66.3349 27.6927C68.4624 28.9211 68.4794 30.9136 66.3599 32.1453L32.3633 51.9019C30.2438 53.1336 26.804 53.1303 24.6764 51.902L3.67961 39.7795C1.54629 38.5478 1.5351 36.5586 3.65457 35.3269L37.6512 15.5703C39.7706 14.3386 43.2047 14.3386 45.3381 15.5702L47.42 16.7722L5.76156 40.9815L11.9848 44.5745L53.6433 20.3652L66.3349 27.6927Z" fill="white"/>
<path d="M9.41792 38.8504L5.76345 40.9813L3.68402 39.7769C1.54276 38.5519 1.53246 36.5549 3.65311 35.3299L5.04291 34.5166C6.24725 36.1019 7.71923 37.5637 9.41792 38.8504Z" fill="#E9EDF4"/>
<path d="M66.3644 32.1488L32.3629 51.9032C30.2425 53.1386 26.8041 53.1282 24.6732 51.9032L11.9805 44.5738L15.6246 42.4533C19.7732 44.2444 24.5807 45.2635 29.7072 45.2635C45.3954 45.2635 58.1085 35.7209 58.1085 23.9445C58.1085 23.6047 58.0982 23.2547 58.0673 22.915L66.3335 27.6915C68.4644 28.9165 68.4747 30.9135 66.3644 32.1488Z" fill="#E9EDF4"/>
<path d="M53.6434 20.3655L11.985 44.5747L5.76172 40.9817L47.4202 16.7725L53.6434 20.3655Z" fill="#454544"/>
<path d="M11.9845 44.9865C11.9136 44.9865 11.8422 44.9674 11.7784 44.9312L5.55519 41.3383C5.42802 41.2649 5.34961 41.1292 5.34961 40.9824C5.34911 40.8346 5.42752 40.6989 5.55419 40.6255L47.2127 16.4163C47.3404 16.3419 47.4972 16.3419 47.6259 16.4153L53.8491 20.0092C53.9762 20.0825 54.0547 20.2183 54.0547 20.365C54.0552 20.5128 53.9767 20.6485 53.8501 20.7219L12.1916 44.9302C12.1272 44.9674 12.0559 44.9865 11.9845 44.9865ZM6.58259 40.9804L11.984 44.0988L52.8217 20.367L47.4203 17.2476L6.58259 40.9804Z" fill="black"/>
<path d="M67.9386 29.9336L67.9207 37.2387C67.9207 38.0428 67.3936 38.8379 66.3483 39.4544L32.3451 59.2076C30.2276 60.4405 26.7881 60.4405 24.6617 59.2076L3.66656 47.0841C2.59451 46.4676 2.05859 45.6546 2.05859 44.8416L2.07648 37.5544C2.07648 38.3584 2.61239 39.1715 3.68444 39.779L24.6796 51.9026C26.806 53.1265 30.2455 53.1355 32.363 51.9026L66.3573 32.1492C67.4114 31.5328 67.9386 30.7377 67.9386 29.9336Z" fill="#454544"/>
<path d="M28.5062 60.5365C27.0405 60.5365 25.5733 60.2118 24.4549 59.5634L3.46002 47.4407C2.29087 46.7682 1.64648 45.8453 1.64648 44.842L1.66458 37.5567C1.66458 37.5567 1.66458 37.5557 1.66458 37.5547C1.66508 37.3275 1.84905 37.1425 2.07624 37.1425C2.30344 37.1436 2.48791 37.3275 2.48791 37.5547C2.48791 38.2363 2.99809 38.9169 3.88726 39.4205L24.8852 51.5453C26.9007 52.7064 30.1619 52.7074 32.1554 51.5463L66.1501 31.7934C67.0342 31.2767 67.5228 30.6193 67.5268 29.9417V29.9326C67.5273 29.7055 67.7113 29.5215 67.9385 29.5215C68.1657 29.5225 68.3502 29.7065 68.3502 29.9337V29.9437L68.3321 37.2401C68.3321 38.2202 67.7017 39.133 66.5577 39.8096L32.5515 59.5634C31.4376 60.2118 29.9724 60.5365 28.5062 60.5365ZM2.48338 39.3823L2.46981 44.843C2.46981 45.5377 2.96743 46.2072 3.87118 46.7269L24.8676 58.8507C26.8761 60.0168 30.1383 60.0158 32.1378 58.8517L66.1415 39.0988C67.0222 38.5781 67.5087 37.9176 67.5087 37.2391L67.5223 31.7753C67.2609 32.0407 66.9402 32.285 66.5648 32.5052L32.5695 52.258C30.3504 53.5508 26.7188 53.5528 24.4735 52.259L3.47811 40.1353C3.08857 39.9141 2.75431 39.6598 2.48338 39.3823Z" fill="black"/>
<path d="M28.3148 52.8124C26.9953 52.7818 25.6891 52.4839 24.6795 51.9029L3.68444 39.7793C2.61243 39.1718 2.07643 38.3588 2.07643 37.5547L2.05859 44.8419C2.05859 45.6549 2.59459 46.4679 3.6666 47.0844L24.6617 59.2079C25.6757 59.7959 26.9893 60.0948 28.3148 60.1219V52.8124Z" fill="#454544"/>
<path d="M28.3142 60.5335C28.3112 60.5335 28.3086 60.5335 28.3056 60.5335C26.8485 60.5034 25.4808 60.1586 24.4549 59.5634L3.46002 47.4407C2.29087 46.7682 1.64648 45.8443 1.64648 44.841L1.66458 37.5537C1.66508 37.3265 1.84905 37.1426 2.07624 37.1426C2.30344 37.1436 2.48791 37.3276 2.48791 37.5547C2.48791 38.2363 2.99809 38.9169 3.88726 39.4206L24.8852 51.5453C25.7904 52.067 27.0118 52.3706 28.3237 52.4008C28.5474 52.4058 28.7258 52.5878 28.7258 52.812V60.1214C28.7258 60.232 28.6816 60.3385 28.6022 60.4159C28.5253 60.4913 28.4217 60.5335 28.3142 60.5335ZM2.48338 39.3824L2.46981 44.8421C2.46981 45.5377 2.96743 46.2072 3.87118 46.727L24.8676 58.8507C25.6783 59.3212 26.7434 59.6147 27.9025 59.6911V53.206C26.6067 53.1246 25.4019 52.7929 24.4735 52.259L3.47811 40.1353C3.08857 39.9141 2.75431 39.6598 2.48338 39.3824Z" fill="black"/>
<path d="M28.5249 53.2284C27.0587 53.2284 25.5905 52.9047 24.4701 52.2584L3.47319 40.1366C2.30505 39.4611 1.66116 38.5412 1.66016 37.545C1.65865 36.5558 2.29349 35.642 3.44705 34.9715L37.4438 15.2146C39.7077 13.8997 43.2649 13.8977 45.5439 15.2136L47.6253 16.4149C47.753 16.4883 47.8314 16.624 47.8314 16.7708C47.8319 16.9186 47.7535 17.0543 47.6268 17.1277L6.58254 40.9801L11.9839 44.0984L53.4359 20.0098C53.564 19.9344 53.7209 19.9354 53.849 20.0088L66.5407 27.3363C67.7064 28.0099 68.3498 28.9287 68.3513 29.9259C68.3528 30.9161 67.7189 31.831 66.5664 32.5015L32.5702 52.2573C31.4573 52.9047 29.9921 53.2284 28.5249 53.2284ZM12.8058 44.5729L24.8822 51.5446C26.8953 52.7067 30.159 52.7077 32.156 51.5456L66.1522 31.7897C67.0404 31.273 67.5289 30.6115 67.5279 29.9269C67.5264 29.2363 67.0298 28.5698 66.1291 28.0501L53.6434 20.8412L12.8058 44.5729ZM41.489 15.0558C40.1721 15.0558 38.8572 15.3463 37.858 15.9263L3.86123 35.6832C2.97206 36.1999 2.48298 36.8604 2.48349 37.544C2.48449 38.2346 2.98211 38.9011 3.88536 39.4229L5.76021 40.5056L46.5979 16.7728L45.1322 15.9274C44.1259 15.3463 42.8065 15.0558 41.489 15.0558Z" fill="black"/>
<path d="M48.584 28.0174L48.5687 33.4156C48.5623 35.6679 47.0804 37.9165 44.1223 39.6355C38.1695 43.0949 28.4948 43.0985 22.497 39.6357C19.4819 37.8949 17.976 35.6101 17.9824 33.3288L17.9977 27.9307C17.9913 30.2119 19.4972 32.4967 22.5123 34.2375C28.5101 37.7004 38.1848 37.6967 44.1376 34.2374C47.0957 32.5183 48.5776 30.2697 48.584 28.0174Z" fill="#FFD63C"/>
<path d="M33.3232 42.631C29.3327 42.631 25.3382 41.7514 22.2907 39.9922C19.2396 38.2299 17.5628 35.8624 17.5703 33.3271L17.5854 27.9287C17.5859 27.7015 17.7704 27.5176 17.9971 27.5176C18.2248 27.5186 18.4092 27.7036 18.4087 27.9308C18.4032 30.1605 19.9333 32.2736 22.7174 33.88C28.5857 37.2678 38.1018 37.2688 43.9299 33.881C46.6593 32.2947 48.1657 30.2117 48.1717 28.0162C48.1722 27.789 48.3567 27.605 48.5834 27.605C48.7643 27.602 48.9955 27.79 48.995 28.0182L48.98 33.4166C48.9729 35.9177 47.3207 38.252 44.329 39.9912C41.3006 41.7514 37.3136 42.631 33.3232 42.631ZM18.4007 30.9265L18.3937 33.3291C18.3876 35.5578 19.9177 37.671 22.7028 39.2784C28.5697 42.6662 38.0862 42.6672 43.9148 39.2794C46.6437 37.6931 48.1501 35.6101 48.1566 33.4146L48.1632 31.0069C47.3916 32.349 46.0983 33.5734 44.3441 34.5928C38.2873 38.1133 28.4008 38.1123 22.3057 34.5938C20.5028 33.5533 19.1798 32.3007 18.4007 30.9265Z" fill="black"/>
<path d="M44.0676 21.7107C50.0654 25.1735 50.0908 30.7775 44.138 34.2369C38.1851 37.6963 28.5104 37.6999 22.5126 34.2371C16.5209 30.7777 16.4892 25.1702 22.4421 21.7108C28.3949 18.2514 38.0758 18.2514 44.0676 21.7107Z" fill="white"/>
<path d="M33.3388 37.2324C29.3483 37.2324 25.3533 36.3528 22.3058 34.5936C19.2658 32.8383 17.5895 30.4799 17.5859 27.9527C17.5824 25.4425 19.2331 23.0991 22.2344 21.355C28.2912 17.8345 38.1767 17.8355 44.2727 21.354C47.3142 23.1102 48.9916 25.4676 48.9951 27.9939C48.9991 30.5041 47.3469 32.8474 44.3441 34.5926C41.3157 36.3528 37.3292 37.2324 33.3388 37.2324ZM33.2392 19.5264C29.3985 19.5264 25.5629 20.3728 22.6486 22.0667C19.9117 23.6571 18.4063 25.7471 18.4093 27.9517C18.4123 30.1723 19.9423 32.2774 22.7179 33.8798C28.5853 37.2676 38.1018 37.2686 43.9299 33.8808C46.6683 32.2895 48.1748 30.1995 48.1717 27.9949C48.1687 25.7752 46.6377 23.6701 43.8606 22.0677C40.9272 20.3738 37.0804 19.5264 33.2392 19.5264Z" fill="black"/>
<path d="M48.584 18.7654L48.5687 24.1636C48.5623 26.4159 47.0804 28.6645 44.1223 30.3836C38.1695 33.843 28.4948 33.8466 22.497 30.3837C19.4819 28.643 17.976 26.3582 17.9824 24.0769L17.9977 18.6787C17.9913 20.96 19.4972 23.2448 22.5123 24.9856C28.5101 28.4484 38.1848 28.4448 44.1376 24.9854C47.0957 23.2663 48.5776 21.0177 48.584 18.7654Z" fill="#FFD63C"/>
<path d="M33.3232 33.3791C29.3327 33.3791 25.3382 32.4994 22.2907 30.7402C19.2396 28.9779 17.5628 26.6105 17.5703 24.0751L17.5854 18.6778C17.5859 18.4506 17.7704 18.2666 17.9971 18.2666C18.2248 18.2676 18.4092 18.4526 18.4087 18.6798C18.4032 20.9085 19.9333 23.0216 22.7174 24.628C28.5857 28.0169 38.1018 28.0159 43.9299 24.6291C46.6593 23.0427 48.1657 20.9598 48.1717 18.7642C48.1722 18.537 48.3567 18.3531 48.5834 18.3531C48.8111 18.3541 48.9955 18.539 48.995 18.7662L48.98 24.1646C48.9729 26.6658 47.3207 29 44.329 30.7392C41.3006 32.4994 37.3136 33.3791 33.3232 33.3791ZM18.4007 21.6745L18.3937 24.0771C18.3876 26.3059 19.9177 28.419 22.7028 30.0264C28.5697 33.4142 38.0862 33.4152 43.9148 30.0274C46.6437 28.4411 48.1501 26.3581 48.1566 24.1626L48.1632 21.7549C47.3916 23.097 46.0983 24.3214 44.3441 25.3408C38.2873 28.8613 28.4008 28.8603 22.3057 25.3418C20.5028 24.3013 19.1798 23.0487 18.4007 21.6745Z" fill="black"/>
<path d="M44.0676 12.4587C50.0654 15.9216 50.0908 21.5256 44.138 24.985C38.1851 28.4444 28.5104 28.448 22.5126 24.9851C16.5209 21.5258 16.4892 15.9182 22.4421 12.4588C28.3949 8.99942 38.0758 8.99941 44.0676 12.4587Z" fill="white"/>
<path d="M44.1397 24.9837C38.1793 28.4425 28.513 28.4528 22.5117 24.9837C18.2086 22.5028 16.9837 18.8999 18.8367 15.791C19.6396 20.8969 25.7955 24.8601 33.2793 24.8601C40.7529 24.8601 46.9087 20.9072 47.7323 15.8116C49.6057 18.9205 48.4013 22.5028 44.1397 24.9837Z" fill="#E9EDF4"/>
<path d="M33.3388 27.9805C29.3483 27.9805 25.3533 27.1009 22.3058 25.3416C19.2658 23.5864 17.5895 21.228 17.5859 18.7007C17.5824 16.1905 19.2331 13.8472 22.2344 12.103C28.2912 8.58251 38.1767 8.58352 44.2727 12.102C47.3142 13.8582 48.9916 16.2156 48.9951 18.7419C48.9991 21.2521 47.3469 23.5954 44.3441 25.3406C41.3157 27.1009 37.3292 27.9805 33.3388 27.9805ZM33.2392 10.2744C29.3985 10.2744 25.5629 11.1209 22.6486 12.8148C19.9117 14.4051 18.4063 16.4951 18.4093 18.6997C18.4123 20.9204 19.9423 23.0254 22.7179 24.6279C28.5853 28.0167 38.1018 28.0157 43.9299 24.6289C46.6683 23.0375 48.1748 20.9475 48.1717 18.7429C48.1687 16.5233 46.6377 14.4182 43.8606 12.8158C40.9272 11.1219 37.0804 10.2744 33.2392 10.2744Z" fill="black"/>
<path d="M40.0482 14.7947C43.8087 16.9658 43.8246 20.4794 40.0923 22.6483C36.36 24.8173 30.2942 24.8196 26.5337 22.6484C22.777 20.4795 22.7571 16.9637 26.4894 14.7947C30.2217 12.6257 36.2915 12.6257 40.0482 14.7947Z" fill="white"/>
<path d="M33.3218 24.6778C30.7915 24.6778 28.2591 24.1198 26.327 23.005C24.3717 21.876 23.2935 20.35 23.291 18.7094C23.2885 17.0778 24.3506 15.5619 26.2817 14.439C30.1224 12.2072 36.3899 12.2062 40.2537 14.4379C42.21 15.5679 43.2892 17.0939 43.2912 18.7345C43.2932 20.3651 42.2306 21.8821 40.2989 23.004C38.3788 24.1198 35.8516 24.6778 33.3218 24.6778ZM33.2589 13.5764C30.8784 13.5764 28.5019 14.1012 26.6959 15.1507C25.0292 16.1198 24.1123 17.3824 24.1143 18.7084C24.1164 20.0434 25.0483 21.3161 26.7391 22.2912C30.3753 24.3923 36.2728 24.3913 39.8848 22.2922C41.552 21.3231 42.4693 20.0605 42.4678 18.7355C42.4658 17.4015 41.5334 16.1278 39.8415 15.1517C38.0235 14.1012 35.6394 13.5764 33.2589 13.5764Z" fill="black"/>
<path d="M33.3004 20.8562C33.3558 20.8242 33.4218 20.8005 33.493 20.784C34.1451 20.6397 34.7282 20.4305 35.2459 20.1563L33.3356 19.0461C32.8577 19.2069 32.43 19.3285 32.054 19.41C31.6798 19.4924 31.2989 19.5213 30.9128 19.4976C30.5268 19.4739 30.1697 19.3656 29.8434 19.176C29.556 19.009 29.3613 18.8131 29.2576 18.5895C29.1575 18.3658 29.1677 18.1256 29.2883 17.871C29.409 17.6143 29.6507 17.3618 30.0133 17.1154L29.4316 16.7773C29.3588 16.7351 29.3235 16.6856 29.3202 16.63C29.3188 16.5732 29.3529 16.5248 29.4261 16.4826C29.4975 16.4413 29.5848 16.4197 29.6844 16.4197C29.7841 16.4197 29.8694 16.4403 29.9422 16.4825L30.5151 16.8155C31.0844 16.5135 31.6605 16.2857 32.2451 16.1352C32.4554 16.0775 32.6439 16.096 32.8106 16.1929C32.8993 16.2445 32.9488 16.3084 32.9608 16.3857C32.9693 16.463 32.9262 16.531 32.8262 16.5887C32.7923 16.6083 32.7352 16.6269 32.6586 16.6464C32.1453 16.7887 31.6655 16.9794 31.2122 17.2206L33.1899 18.3699C33.6856 18.1926 34.1205 18.0607 34.4965 17.971C34.8725 17.8834 35.2588 17.8514 35.6555 17.8752C36.054 17.8999 36.4324 18.0164 36.7925 18.2256C37.0852 18.3957 37.2709 18.5967 37.3497 18.8266C37.432 19.0564 37.3933 19.2966 37.2424 19.5481C37.0915 19.7996 36.8338 20.0429 36.4713 20.2769L37.062 20.6201C37.1329 20.6613 37.17 20.7098 37.1679 20.7644C37.1694 20.8191 37.1282 20.8696 37.0514 20.9139C36.9782 20.9562 36.898 20.9778 36.8054 20.9799C36.7147 20.9809 36.6294 20.9603 36.5513 20.9149L35.9607 20.5717C35.32 20.8964 34.6281 21.1458 33.8815 21.32C33.7888 21.3427 33.6856 21.3489 33.5789 21.3365C33.4686 21.3262 33.3798 21.2994 33.3071 21.2571C33.2131 21.2025 33.1636 21.1365 33.1587 21.0592C33.1538 20.9819 33.2005 20.9139 33.3004 20.8562ZM35.7565 19.8615C36.487 19.376 36.5641 18.9657 35.9876 18.6307C35.773 18.506 35.5063 18.4648 35.1893 18.5101C34.8723 18.5555 34.4677 18.6596 33.9703 18.8235L35.7565 19.8615ZM30.7264 17.5298C30.4368 17.7483 30.2701 17.9617 30.2281 18.1689C30.1842 18.3771 30.2917 18.5554 30.5454 18.7028C30.7902 18.8451 31.071 18.9007 31.3915 18.8698C31.712 18.8389 32.0986 18.7472 32.5551 18.5926L30.7264 17.5298Z" fill="black"/>
</svg>
