<svg width="347" height="336" viewBox="0 0 347 336" fill="none" xmlns="http://www.w3.org/2000/svg">
<g clip-path="url(#clip0_216_6560)">
<rect width="346.666" height="334.807" transform="translate(0 0.714844)" fill="url(#paint0_linear_216_6560)"/>
<g clip-path="url(#clip1_216_6560)">
<path d="M4.11681 -88.5029H-17.2949V-66.2281M4.11681 -88.5029V-66.2281M4.11681 -88.5029H25.5285M4.11681 -66.2281H-17.2949M4.11681 -66.2281H25.5285M4.11681 -66.2281V-43.9533M-17.2949 -66.2281V-43.9533M25.5285 -88.5029V-66.2281M25.5285 -88.5029H46.9403M25.5285 -66.2281H46.9403M25.5285 -66.2281V-43.9533M46.9403 -88.5029V-66.2281M46.9403 -88.5029H68.352M46.9403 -66.2281H68.352M46.9403 -66.2281V-43.9533M68.352 -88.5029V-66.2281M68.352 -88.5029H89.7638M68.352 -66.2281H89.7638M68.352 -66.2281V-43.9533M89.7638 -88.5029V-66.2281M89.7638 -88.5029H111.175M89.7638 -66.2281H111.175M89.7638 -66.2281V-43.9533M111.175 -88.5029V-66.2281M111.175 -88.5029H132.587M111.175 -66.2281H132.587M111.175 -66.2281V-43.9533M132.587 -88.5029V-66.2281M132.587 -88.5029H153.999M132.587 -66.2281H153.999M132.587 -66.2281V-43.9533M153.999 -88.5029V-66.2281M153.999 -88.5029H175.411M153.999 -66.2281H175.411M153.999 -66.2281V-43.9533M175.411 -88.5029V-66.2281M175.411 -88.5029H196.822M175.411 -66.2281H196.822M175.411 -66.2281V-43.9533M196.822 -88.5029V-66.2281M196.822 -88.5029H218.234M196.822 -66.2281H218.234M196.822 -66.2281V-43.9533M218.234 -88.5029V-66.2281M218.234 -88.5029H239.646M218.234 -66.2281H239.646M218.234 -66.2281V-43.9533M239.646 -88.5029V-66.2281M239.646 -88.5029H261.058M239.646 -66.2281H261.058M239.646 -66.2281V-43.9533M261.058 -88.5029V-66.2281M261.058 -88.5029H282.469M261.058 -66.2281H282.469M261.058 -66.2281V-43.9533M282.469 -88.5029V-66.2281M282.469 -88.5029H303.881M282.469 -66.2281H303.881M282.469 -66.2281V-43.9533M303.881 -88.5029V-66.2281M303.881 -88.5029H325.293M303.881 -66.2281H325.293M303.881 -66.2281V-43.9533M325.293 -88.5029V-66.2281M325.293 -88.5029H346.705V-66.2281M325.293 -66.2281H346.705M325.293 -66.2281V-43.9533M346.705 -66.2281V-43.9533M4.11681 -43.9533H-17.2949M4.11681 -43.9533H25.5285M4.11681 -43.9533V-21.6785M-17.2949 -43.9533V-21.6785M25.5285 -43.9533H46.9403M25.5285 -43.9533V-21.6785M46.9403 -43.9533H68.352M46.9403 -43.9533V-21.6785M68.352 -43.9533H89.7638M68.352 -43.9533V-21.6785M89.7638 -43.9533H111.175M89.7638 -43.9533V-21.6785M111.175 -43.9533H132.587M111.175 -43.9533V-21.6785M132.587 -43.9533H153.999M132.587 -43.9533V-21.6785M153.999 -43.9533H175.411M153.999 -43.9533V-21.6785M175.411 -43.9533H196.822M175.411 -43.9533V-21.6785M196.822 -43.9533H218.234M196.822 -43.9533V-21.6785M218.234 -43.9533H239.646M218.234 -43.9533V-21.6785M239.646 -43.9533H261.058M239.646 -43.9533V-21.6785M261.058 -43.9533H282.469M261.058 -43.9533V-21.6785M282.469 -43.9533H303.881M282.469 -43.9533V-21.6785M303.881 -43.9533H325.293M303.881 -43.9533V-21.6785M325.293 -43.9533H346.705M325.293 -43.9533V-21.6785M346.705 -43.9533V-21.6785M4.11681 -21.6785H-17.2949M4.11681 -21.6785H25.5285M4.11681 -21.6785V0.596367M-17.2949 -21.6785V0.596367M25.5285 -21.6785H46.9403M25.5285 -21.6785V0.596367M46.9403 -21.6785H68.352M46.9403 -21.6785V0.596367M68.352 -21.6785H89.7638M68.352 -21.6785V0.596367M89.7638 -21.6785H111.175M89.7638 -21.6785V0.596367M111.175 -21.6785H132.587M111.175 -21.6785V0.596367M132.587 -21.6785H153.999M132.587 -21.6785V0.596367M153.999 -21.6785H175.411M153.999 -21.6785V0.596367M175.411 -21.6785H196.822M175.411 -21.6785V0.596367M196.822 -21.6785H218.234M196.822 -21.6785V0.596367M218.234 -21.6785H239.646M218.234 -21.6785V0.596367M239.646 -21.6785H261.058M239.646 -21.6785V0.596367M261.058 -21.6785H282.469M261.058 -21.6785V0.596367M282.469 -21.6785H303.881M282.469 -21.6785V0.596367M303.881 -21.6785H325.293M303.881 -21.6785V0.596367M325.293 -21.6785H346.705M325.293 -21.6785V0.596367M346.705 -21.6785V0.596367M4.11681 0.596367H-17.2949M4.11681 0.596367H25.5285M4.11681 0.596367V22.8712M-17.2949 0.596367V22.8712M25.5285 0.596367H46.9403M25.5285 0.596367V22.8712M46.9403 0.596367H68.352M46.9403 0.596367V22.8712M68.352 0.596367H89.7638M68.352 0.596367V22.8712M89.7638 0.596367H111.175M89.7638 0.596367V22.8712M111.175 0.596367H132.587M111.175 0.596367V22.8712M132.587 0.596367H153.999M132.587 0.596367V22.8712M153.999 0.596367H175.411M153.999 0.596367V22.8712M175.411 0.596367H196.822M175.411 0.596367V22.8712M196.822 0.596367H218.234M196.822 0.596367V22.8712M218.234 0.596367H239.646M218.234 0.596367V22.8712M239.646 0.596367H261.058M239.646 0.596367V22.8712M261.058 0.596367H282.469M261.058 0.596367V22.8712M282.469 0.596367H303.881M282.469 0.596367V22.8712M303.881 0.596367H325.293M303.881 0.596367V22.8712M325.293 0.596367H346.705M325.293 0.596367V22.8712M346.705 0.596367V22.8712M4.11681 22.8712H-17.2949M4.11681 22.8712H25.5285M4.11681 22.8712V45.146M-17.2949 22.8712V45.146M25.5285 22.8712H46.9403M25.5285 22.8712V45.146M46.9403 22.8712H68.352M46.9403 22.8712V45.146M68.352 22.8712H89.7638M68.352 22.8712V45.146M89.7638 22.8712H111.175M89.7638 22.8712V45.146M111.175 22.8712H132.587M111.175 22.8712V45.146M132.587 22.8712H153.999M132.587 22.8712V45.146M153.999 22.8712H175.411M153.999 22.8712V45.146M175.411 22.8712H196.822M175.411 22.8712V45.146M196.822 22.8712H218.234M196.822 22.8712V45.146M218.234 22.8712H239.646M218.234 22.8712V45.146M239.646 22.8712H261.058M239.646 22.8712V45.146M261.058 22.8712H282.469M261.058 22.8712V45.146M282.469 22.8712H303.881M282.469 22.8712V45.146M303.881 22.8712H325.293M303.881 22.8712V45.146M325.293 22.8712H346.705M325.293 22.8712V45.146M346.705 22.8712V45.146M4.11681 45.146H-17.2949M4.11681 45.146H25.5285M4.11681 45.146V67.4208M-17.2949 45.146V67.4208M25.5285 45.146H46.9403M25.5285 45.146V67.4208M46.9403 45.146H68.352M46.9403 45.146V67.4208M68.352 45.146H89.7638M68.352 45.146V67.4208M89.7638 45.146H111.175M89.7638 45.146V67.4208M111.175 45.146H132.587M111.175 45.146V67.4208M132.587 45.146H153.999M132.587 45.146V67.4208M153.999 45.146H175.411M153.999 45.146V67.4208M175.411 45.146H196.822M175.411 45.146V67.4208M196.822 45.146H218.234M196.822 45.146V67.4208M218.234 45.146H239.646M218.234 45.146V67.4208M239.646 45.146H261.058M239.646 45.146V67.4208M261.058 45.146H282.469M261.058 45.146V67.4208M282.469 45.146H303.881M282.469 45.146V67.4208M303.881 45.146H325.293M303.881 45.146V67.4208M325.293 45.146H346.705M325.293 45.146V67.4208M346.705 45.146V67.4208M4.11681 67.4208H-17.2949M4.11681 67.4208H25.5285M4.11681 67.4208V89.6957M-17.2949 67.4208V89.6957M25.5285 67.4208H46.9403M25.5285 67.4208V89.6957M46.9403 67.4208H68.352M46.9403 67.4208V89.6957M68.352 67.4208H89.7638M68.352 67.4208V89.6957M89.7638 67.4208H111.175M89.7638 67.4208V89.6957M111.175 67.4208H132.587M111.175 67.4208V89.6957M132.587 67.4208H153.999M132.587 67.4208V89.6957M153.999 67.4208H175.411M153.999 67.4208V89.6957M175.411 67.4208H196.822M175.411 67.4208V89.6957M196.822 67.4208H218.234M196.822 67.4208V89.6957M218.234 67.4208H239.646M218.234 67.4208V89.6957M239.646 67.4208H261.058M239.646 67.4208V89.6957M261.058 67.4208H282.469M261.058 67.4208V89.6957M282.469 67.4208H303.881M282.469 67.4208V89.6957M303.881 67.4208H325.293M303.881 67.4208V89.6957M325.293 67.4208H346.705M325.293 67.4208V89.6957M346.705 67.4208V89.6957M4.11681 89.6957H-17.2949M4.11681 89.6957H25.5285M4.11681 89.6957V111.97M-17.2949 89.6957V111.97M25.5285 89.6957H46.9403M25.5285 89.6957V111.97M46.9403 89.6957H68.352M46.9403 89.6957V111.97M68.352 89.6957H89.7638M68.352 89.6957V111.97M89.7638 89.6957H111.175M89.7638 89.6957V111.97M111.175 89.6957H132.587M111.175 89.6957V111.97M132.587 89.6957H153.999M132.587 89.6957V111.97M153.999 89.6957H175.411M153.999 89.6957V111.97M175.411 89.6957H196.822M175.411 89.6957V111.97M196.822 89.6957H218.234M196.822 89.6957V111.97M218.234 89.6957H239.646M218.234 89.6957V111.97M239.646 89.6957H261.058M239.646 89.6957V111.97M261.058 89.6957H282.469M261.058 89.6957V111.97M282.469 89.6957H303.881M282.469 89.6957V111.97M303.881 89.6957H325.293M303.881 89.6957V111.97M325.293 89.6957H346.705M325.293 89.6957V111.97M346.705 89.6957V111.97M4.11681 111.97H-17.2949M4.11681 111.97H25.5285M4.11681 111.97V134.245M-17.2949 111.97V134.245M25.5285 111.97H46.9403M25.5285 111.97V134.245M46.9403 111.97H68.352M46.9403 111.97V134.245M68.352 111.97H89.7638M68.352 111.97V134.245M89.7638 111.97H111.175M89.7638 111.97V134.245M111.175 111.97H132.587M111.175 111.97V134.245M132.587 111.97H153.999M132.587 111.97V134.245M153.999 111.97H175.411M153.999 111.97V134.245M175.411 111.97H196.822M175.411 111.97V134.245M196.822 111.97H218.234M196.822 111.97V134.245M218.234 111.97H239.646M218.234 111.97V134.245M239.646 111.97H261.058M239.646 111.97V134.245M261.058 111.97H282.469M261.058 111.97V134.245M282.469 111.97H303.881M282.469 111.97V134.245M303.881 111.97H325.293M303.881 111.97V134.245M325.293 111.97H346.705M325.293 111.97V134.245M346.705 111.97V134.245M4.11681 134.245H-17.2949M4.11681 134.245H25.5285M4.11681 134.245V156.52M-17.2949 134.245V156.52M25.5285 134.245H46.9403M25.5285 134.245V156.52M46.9403 134.245H68.352M46.9403 134.245V156.52M68.352 134.245H89.7638M68.352 134.245V156.52M89.7638 134.245H111.175M89.7638 134.245V156.52M111.175 134.245H132.587M111.175 134.245V156.52M132.587 134.245H153.999M132.587 134.245V156.52M153.999 134.245H175.411M153.999 134.245V156.52M175.411 134.245H196.822M175.411 134.245V156.52M196.822 134.245H218.234M196.822 134.245V156.52M218.234 134.245H239.646M218.234 134.245V156.52M239.646 134.245H261.058M239.646 134.245V156.52M261.058 134.245H282.469M261.058 134.245V156.52M282.469 134.245H303.881M282.469 134.245V156.52M303.881 134.245H325.293M303.881 134.245V156.52M325.293 134.245H346.705M325.293 134.245V156.52M346.705 134.245V156.52M4.11681 156.52H-17.2949M4.11681 156.52H25.5285M4.11681 156.52V178.795M-17.2949 156.52V178.795H4.11681M25.5285 156.52H46.9403M25.5285 156.52V178.795M46.9403 156.52H68.352M46.9403 156.52V178.795M68.352 156.52H89.7638M68.352 156.52V178.795M89.7638 156.52H111.175M89.7638 156.52V178.795M111.175 156.52H132.587M111.175 156.52V178.795M132.587 156.52H153.999M132.587 156.52V178.795M153.999 156.52H175.411M153.999 156.52V178.795M175.411 156.52H196.822M175.411 156.52V178.795M196.822 156.52H218.234M196.822 156.52V178.795M218.234 156.52H239.646M218.234 156.52V178.795M239.646 156.52H261.058M239.646 156.52V178.795M261.058 156.52H282.469M261.058 156.52V178.795M282.469 156.52H303.881M282.469 156.52V178.795M303.881 156.52H325.293M303.881 156.52V178.795M325.293 156.52H346.705M325.293 156.52V178.795M346.705 156.52V178.795H325.293M4.11681 178.795H25.5285M25.5285 178.795H46.9403M46.9403 178.795H68.352M68.352 178.795H89.7638M89.7638 178.795H111.175M111.175 178.795H132.587M132.587 178.795H153.999M153.999 178.795H175.411M175.411 178.795H196.822M196.822 178.795H218.234M218.234 178.795H239.646M239.646 178.795H261.058M261.058 178.795H282.469M282.469 178.795H303.881M303.881 178.795H325.293" stroke="url(#paint1_radial_216_6560)" stroke-opacity="0.1" stroke-width="0.91228"/>
</g>
<path d="M123.143 25.3129L121.959 26.6081C121.388 27.207 120.455 27.2488 119.856 26.6917L118.561 25.4939C117.962 24.9368 117.92 24.0036 118.477 23.4047L119.675 22.1094C120.232 21.4966 121.165 21.4688 121.778 22.0259L123.059 23.2237C123.672 23.7808 123.7 24.714 123.143 25.3129Z" fill="#FEBA00"/>
<path d="M286.406 220.972H77.6131C77.3903 220.972 77.1953 220.777 77.1953 220.554C77.1953 220.317 77.3903 220.122 77.6131 220.122H286.406C286.643 220.122 286.838 220.317 286.838 220.554C286.838 220.777 286.643 220.972 286.406 220.972Z" fill="#030047"/>
<path d="M220.516 170.584C220.516 198.198 198.13 220.584 170.516 220.584H157.143C129.528 220.584 107.143 198.198 107.143 170.584V55.404C107.143 52.0665 107.278 48.6362 108.766 45.6489C112.078 39.0009 118.462 35.9698 120.374 35.9698L216.308 35.0645C218.627 35.0645 220.516 36.9487 220.516 39.2795V170.584Z" fill="white"/>
<path fill-rule="evenodd" clip-rule="evenodd" d="M220.557 221.003H106.85C106.613 221.003 106.418 220.822 106.418 220.585V52.5308C106.418 42.8788 114.273 35.0234 123.925 35.0234H203.467C213.12 35.0234 220.975 42.8788 220.975 52.5308V220.585C220.975 220.822 220.794 221.003 220.557 221.003ZM107.268 220.153H220.125V52.5308C220.125 43.3523 212.66 35.873 203.467 35.873H123.925C114.747 35.873 107.268 43.3523 107.268 52.5308V220.153Z" fill="#030047"/>
<path d="M153.648 44.4101C153.648 45.9282 152.409 47.1678 150.891 47.1678C149.372 47.1678 148.133 45.9282 148.133 44.4101C148.133 42.878 149.372 41.6523 150.891 41.6523C152.409 41.6523 153.648 42.878 153.648 44.4101Z" fill="#030047"/>
<path d="M179.261 44.2579C179.261 44.9125 178.996 45.5114 178.564 45.9432C178.147 46.3749 177.548 46.6396 176.879 46.6396H158.327C157.004 46.6396 155.932 45.5671 155.932 44.2579C155.932 43.5894 156.21 42.9905 156.642 42.5587C157.074 42.1269 157.673 41.8623 158.327 41.8623H176.879C178.202 41.8623 179.261 42.9348 179.261 44.2579Z" fill="#030047"/>
<path d="M255.877 117.419C254.526 120.511 246.629 128.283 244.972 130.664L217.673 165.79C210.375 174.44 196.739 173.339 190.917 163.646L179.26 144.202L204.386 128.547L210.765 140.288L230.124 115.274L228.495 101.75C228.425 100.079 229.707 98.658 231.378 98.5605C231.434 98.5605 231.489 98.5605 231.545 98.5605C232.924 98.5605 234.136 99.4798 234.484 100.831L236.058 106.736C236.058 105.928 234.484 102.864 237.938 101.068C239.665 100.162 244.972 99.3962 247.771 100.566C251.922 102.307 257.618 113.394 255.877 117.419Z" fill="white"/>
<path fill-rule="evenodd" clip-rule="evenodd" d="M205.109 172.072C204.645 172.072 204.176 172.053 203.703 172.016C198.201 171.571 193.41 168.604 190.555 163.854L178.897 144.425C178.772 144.23 178.841 143.965 179.036 143.84L204.162 128.185C204.26 128.129 204.385 128.116 204.496 128.143C204.608 128.171 204.705 128.241 204.761 128.352L210.82 139.509L229.678 115.149L228.076 101.792C227.979 99.8698 229.455 98.2402 231.349 98.1427C231.405 98.1334 231.47 98.1334 231.544 98.1427C233.118 98.1427 234.497 99.2012 234.901 100.719L235.514 103.017C235.806 102.182 236.461 101.36 237.742 100.692C239.525 99.7583 244.929 98.9227 247.938 100.176C250.667 101.318 253.704 105.942 255.291 109.912C256.071 111.834 257.214 115.385 256.252 117.586C255.389 119.592 252.018 123.31 249.052 126.597C247.366 128.45 245.918 130.051 245.319 130.915L218.006 166.055C214.733 169.927 210.095 172.072 205.109 172.072ZM179.83 144.342L191.279 163.423C193.981 167.921 198.535 170.749 203.772 171.181C209.009 171.598 213.953 169.537 217.338 165.526L244.637 130.414C245.263 129.522 246.726 127.893 248.425 126.026C251.211 122.948 254.665 119.132 255.486 117.252C256.099 115.845 255.737 113.282 254.511 110.232C252.757 105.859 249.79 101.875 247.617 100.956C244.915 99.828 239.706 100.622 238.132 101.444C235.597 102.753 236.071 104.786 236.35 105.998C236.419 106.291 236.475 106.541 236.475 106.736C236.475 106.945 236.322 107.126 236.113 107.154C235.904 107.168 235.695 107.043 235.639 106.834L234.079 100.942C233.773 99.7862 232.742 98.9784 231.544 98.9784C231.503 98.9784 231.461 98.9784 231.419 98.9923C229.971 99.0619 228.856 100.288 228.912 101.722L230.542 115.232C230.556 115.344 230.528 115.455 230.458 115.539L211.098 140.539C211.015 140.651 210.875 140.72 210.722 140.706C210.583 140.692 210.458 140.609 210.388 140.483L204.232 129.146L179.83 144.342Z" fill="#030047"/>
<path d="M229.525 90.622L242.2 120.943C243.049 123.339 245.292 124.843 247.715 124.815C248.314 124.815 248.913 124.704 249.512 124.509C252.841 123.38 254.401 119.564 252.813 116.416L248.579 108.115C248.579 108.115 248.579 108.111 248.579 108.101L247.924 106.82L247.395 105.789L240.055 88.7139L230.57 90.4131L229.525 90.622Z" fill="#FEBA00"/>
<path d="M244.247 98.4495L240.055 88.7139L230.57 90.3991C230.556 91.3184 229.525 90.803 229.539 90.817C229.706 91.0537 238.523 91.8198 244.247 98.4495Z" fill="black"/>
<path d="M263.927 93.8384C263.927 93.8384 251.406 90.621 245.681 90.7603C238.954 90.9135 233.118 92.1113 226.001 93.7409C225.514 93.8523 224.998 93.9637 224.497 94.0891C221.656 94.7437 218.814 94.2423 216.461 92.8774C214.107 91.5264 212.254 89.2979 211.391 86.5123C209.775 81.2058 212.31 75.5232 217.338 73.1973C218.23 72.7794 219.149 72.3477 220.096 71.902C225.096 69.5342 230.542 66.8044 233.773 64.7709C240.946 60.2443 250.069 48.8652 250.069 48.8652L263.927 93.8384Z" fill="#FEBA00"/>
<path d="M226.001 93.7413C225.514 93.8527 224.998 93.9641 224.497 94.0895C221.656 94.7441 218.814 94.2427 216.461 92.8777C214.107 91.5267 212.254 89.2983 211.391 86.5127C209.775 81.2062 212.31 75.5236 217.338 73.1976C218.23 72.7798 219.149 72.348 220.096 71.9023C219.107 74.8272 216.795 84.6603 226.001 93.7413Z" fill="#030047"/>
<path d="M277.618 64.4797C281.407 77.5162 277.409 90.3298 268.69 93.0876C259.958 95.8453 249.818 87.5025 246.016 74.4521C242.227 61.4156 246.225 48.6019 254.958 45.8442C263.676 43.0865 273.83 51.4293 277.618 64.4797Z" fill="#030047"/>
<path d="M246.712 65.3572C246.74 66.7639 246.88 68.2263 247.116 69.7027C247.325 71.0537 247.646 72.4325 248.05 73.8114C248.635 75.8449 249.401 77.753 250.306 79.48C250.988 80.845 251.754 82.0985 252.576 83.2406C256.657 88.9092 262.2 91.8898 267.103 90.3716C274.29 88.1571 277.41 77.168 274.067 65.8168C270.724 54.4516 262.186 47.042 255.013 49.2565C249.651 50.9 246.559 57.4322 246.712 65.3572Z" fill="#FEBA00"/>
<path d="M246.045 67.7109C246.254 69.1176 246.588 70.5801 247.034 72.0564C247.424 73.4074 247.925 74.7863 248.51 76.1651C249.388 78.1986 250.404 80.1067 251.532 81.8338L256.282 79.8003C259.221 78.5608 260.99 75.4966 260.711 72.3071C260.697 72.0146 260.655 71.7222 260.6 71.4297C259.736 67.0424 255.335 64.4518 251.24 65.8864L246.045 67.7109Z" fill="#030047"/>
<path d="M245.597 100.052C245.597 100.052 241.614 102.935 240.834 104.035C240.054 105.122 236.725 110.122 240.945 110.679C240.945 110.679 240.109 114.175 243.104 113.645C243.104 113.645 242.923 115.846 245.402 115.916C245.402 115.916 244.901 117.448 245.653 118.325C246.405 119.217 247.7 118.813 248.271 118.423C249.107 117.866 250.249 115.47 250.249 115.47L255.709 116.528" fill="white"/>
<path d="M246.85 119.286C246.307 119.286 245.749 119.105 245.318 118.603C244.719 117.893 244.774 116.89 244.872 116.291C244.217 116.194 243.688 115.929 243.312 115.497C242.894 115.038 242.755 114.495 242.699 114.118C241.975 114.146 241.418 113.951 241.014 113.534C240.345 112.823 240.373 111.653 240.457 111.026C239.538 110.818 238.925 110.358 238.618 109.662C237.824 107.809 239.663 104.94 240.499 103.784C241.306 102.656 245.178 99.8285 245.346 99.7031C245.527 99.5638 245.791 99.6056 245.93 99.8006C246.07 99.9817 246.028 100.246 245.833 100.386C244.747 101.179 241.794 103.436 241.181 104.271C240.039 105.859 238.883 108.143 239.398 109.327C239.621 109.843 240.136 110.149 241 110.26C241.125 110.274 241.223 110.344 241.292 110.442C241.362 110.539 241.39 110.664 241.362 110.776C241.265 111.194 241.111 112.405 241.641 112.949C241.905 113.241 242.379 113.339 243.02 113.227C243.159 113.199 243.284 113.241 243.382 113.325C243.479 113.408 243.535 113.547 243.521 113.673C243.521 113.673 243.479 114.411 243.939 114.94C244.259 115.288 244.761 115.469 245.415 115.497C245.541 115.497 245.666 115.567 245.749 115.678C245.819 115.776 245.847 115.915 245.805 116.054C245.68 116.417 245.485 117.489 245.972 118.06C246.543 118.729 247.616 118.353 248.034 118.074C248.577 117.712 249.44 116.18 249.858 115.288C249.942 115.107 250.137 115.024 250.332 115.052L255.791 116.11C256.014 116.166 256.167 116.389 256.126 116.612C256.084 116.848 255.861 116.988 255.624 116.946L250.485 115.943C250.137 116.639 249.259 118.269 248.507 118.77C248.103 119.049 247.49 119.286 246.85 119.286Z" fill="#030047"/>
<path d="M240.945 110.678L243.383 106.054C243.564 105.72 243.856 105.441 244.218 105.288L249.01 103.115" fill="white"/>
<path d="M240.945 111.11C240.88 111.11 240.815 111.092 240.75 111.054C240.541 110.943 240.458 110.692 240.569 110.483L243.02 105.859C243.243 105.441 243.605 105.093 244.037 104.898L248.828 102.725C249.051 102.628 249.302 102.725 249.399 102.934C249.497 103.157 249.399 103.408 249.19 103.505L244.385 105.678C244.121 105.79 243.898 105.999 243.759 106.263L241.321 110.873C241.238 111.027 241.098 111.11 240.945 111.11Z" fill="#030047"/>
<path d="M243.104 113.645L246.182 108.951C246.46 108.534 246.906 108.241 247.407 108.185L252.129 107.559" fill="white"/>
<path d="M243.103 114.063C243.019 114.063 242.936 114.035 242.866 113.994C242.671 113.868 242.615 113.604 242.741 113.409L245.819 108.715C246.167 108.186 246.724 107.838 247.351 107.754L252.072 107.141C252.295 107.099 252.504 107.267 252.546 107.503C252.574 107.74 252.407 107.949 252.184 107.977L247.462 108.604C247.086 108.645 246.738 108.868 246.529 109.189L243.451 113.868C243.368 113.994 243.228 114.063 243.103 114.063Z" fill="#030047"/>
<path d="M245.402 115.916L247.519 112.573C248.077 111.709 249.107 111.278 250.11 111.487L253.453 112.197" fill="white"/>
<path d="M245.402 116.333C245.318 116.333 245.235 116.319 245.165 116.278C244.97 116.152 244.914 115.888 245.04 115.693L247.171 112.35C247.811 111.333 249.023 110.832 250.193 111.069L253.536 111.779C253.758 111.835 253.912 112.058 253.856 112.28C253.814 112.503 253.591 112.656 253.355 112.615L250.026 111.904C249.19 111.723 248.327 112.085 247.881 112.81L245.75 116.138C245.68 116.264 245.541 116.333 245.402 116.333Z" fill="#030047"/>
<path d="M168.812 113.018L188.702 114.856C193.284 114.355 197.727 116.597 200.025 120.58L210.178 135.219L186.181 155.163L168.812 113.018Z" fill="#FEBA00"/>
<g opacity="0.4">
<path d="M193.799 149.259C193.674 149.259 193.562 149.203 193.479 149.106C192.504 147.978 191.975 146.529 191.975 145.039C191.975 141.585 194.788 138.771 198.242 138.771C200.15 138.771 201.919 139.621 203.117 141.084C203.27 141.265 203.242 141.543 203.061 141.682C202.88 141.836 202.602 141.808 202.462 141.627C201.418 140.345 199.886 139.621 198.242 139.621C195.262 139.621 192.824 142.058 192.824 145.039C192.824 146.334 193.284 147.574 194.12 148.563C194.273 148.744 194.259 149.008 194.078 149.162C193.994 149.231 193.897 149.259 193.799 149.259Z" fill="white"/>
</g>
<path d="M186.18 155.595C186.143 155.595 186.111 155.591 186.083 155.581C185.943 155.554 185.846 155.47 185.79 155.345L172.796 126.166C172.698 125.957 172.796 125.706 173.018 125.609C173.227 125.511 173.478 125.609 173.576 125.831L186.333 154.481L209.607 135.135L199.676 120.817C199.551 120.636 199.593 120.372 199.788 120.232C199.983 120.107 200.247 120.149 200.373 120.344L210.526 134.982C210.652 135.163 210.624 135.4 210.443 135.539L186.445 155.498C186.375 155.554 186.278 155.595 186.18 155.595Z" fill="#030047"/>
<path d="M132.239 220.904L130.08 177.825L188.424 181.628L193.675 220.904H132.239Z" fill="#030047"/>
<path d="M159.468 111.917C153.646 111.764 136.264 114.118 136.264 114.118C132.768 114.745 130.164 117.697 129.982 121.249L128.812 185.805L190.583 185.234L185.819 121.806C185.555 118.171 182.755 115.232 179.134 114.786C179.134 114.786 164.44 112.043 159.468 111.917Z" fill="#FEBA00"/>
<g opacity="0.4">
<path d="M189.691 173.911C189.673 173.911 189.649 173.906 189.622 173.897C187.518 173.507 185.986 171.668 185.986 169.523C185.986 167.629 187.184 165.944 188.981 165.331C189.245 165.248 189.538 165.456 189.538 165.735C189.538 165.944 189.399 166.111 189.218 166.153C187.797 166.654 186.836 168.005 186.836 169.523C186.836 171.264 188.076 172.755 189.775 173.075C189.998 173.117 190.151 173.34 190.109 173.562C190.081 173.771 189.9 173.911 189.691 173.911Z" fill="white"/>
</g>
<path d="M190.583 185.651C190.36 185.651 190.179 185.484 190.165 185.261L185.987 129.745C185.973 129.508 186.154 129.313 186.391 129.285C186.614 129.271 186.823 129.452 186.837 129.675L191.001 185.205C191.015 185.442 190.848 185.637 190.611 185.651C190.602 185.651 190.593 185.651 190.583 185.651Z" fill="#030047"/>
<path d="M94.4801 166.765C95.1486 168.66 96.1097 170.414 97.3075 171.988C98.5192 173.548 99.9816 174.927 101.639 176.055L132.42 196.376L146.334 207.24C146.96 207.602 147.726 207.56 148.339 207.323C148.771 207.17 149.147 206.892 149.398 206.502C150.094 205.499 149.913 204.092 148.938 203.382L145.749 200.819L151.71 205.555C152.378 206.098 153.312 206.293 154.133 205.986C154.143 205.977 154.147 205.972 154.147 205.972C154.579 205.819 154.955 205.541 155.22 205.151C155.888 204.162 155.707 202.755 154.746 202.045L148.687 197.17L157.768 204.412C158.395 204.775 159.161 204.733 159.774 204.496C160.206 204.343 160.568 204.064 160.833 203.674C161.515 202.671 161.292 201.334 160.331 200.61L151.64 193.479L158.005 198.605C158.632 198.967 159.398 198.925 160.025 198.674C160.443 198.521 160.819 198.242 161.083 197.852C161.752 196.864 161.529 195.513 160.582 194.802L149.774 185.972L155.735 187.267C156.153 187.309 156.543 187.267 156.933 187.128C157.587 186.877 158.144 186.32 158.381 185.596C158.841 184.189 157.963 182.685 156.501 182.406L143.311 176.961L119.898 160.804L130.358 147.726L115.177 130.706L98.742 147.573C93.7837 152.642 92.1402 160.08 94.4801 166.765Z" fill="white"/>
<path fill-rule="evenodd" clip-rule="evenodd" d="M147.378 207.936C146.932 207.936 146.5 207.825 146.124 207.616C146.106 207.607 146.092 207.593 146.082 207.574L132.154 196.71L101.402 176.404C99.7164 175.262 98.2261 173.869 96.9726 172.239C95.733 170.637 94.758 168.841 94.0895 166.905C91.68 160.01 93.3374 152.489 98.435 147.266L114.87 130.4C114.953 130.316 115.065 130.288 115.176 130.274C115.302 130.274 115.413 130.33 115.483 130.414L130.678 147.448C130.817 147.601 130.817 147.824 130.692 147.991L120.511 160.707L143.534 176.599L156.626 181.989C157.42 182.17 158.116 182.671 158.534 183.381C158.952 184.092 159.035 184.941 158.785 185.735C158.506 186.543 157.879 187.212 157.085 187.518C156.621 187.685 156.157 187.741 155.693 187.685L151.403 186.766L160.846 194.468C161.974 195.318 162.239 196.905 161.431 198.089C161.138 198.535 160.707 198.883 160.177 199.078C159.908 199.18 159.639 199.245 159.37 199.273L160.609 200.276C161.737 201.126 162.002 202.727 161.18 203.911C160.874 204.371 160.428 204.705 159.927 204.886C159.091 205.206 158.227 205.165 157.559 204.789C157.54 204.779 157.522 204.765 157.503 204.747L156.041 203.577C156.096 204.19 155.943 204.844 155.567 205.388C155.275 205.819 154.857 206.154 154.342 206.362C154.332 206.362 154.328 206.362 154.328 206.362C153.353 206.739 152.266 206.544 151.445 205.889L150.233 204.914C150.289 205.541 150.135 206.181 149.745 206.739C149.467 207.184 149.021 207.518 148.492 207.713C148.13 207.867 147.754 207.936 147.378 207.936ZM146.57 206.892C147.015 207.142 147.614 207.156 148.185 206.934C148.566 206.794 148.854 206.571 149.049 206.265C149.62 205.429 149.453 204.287 148.687 203.716L145.483 201.14C145.302 201 145.274 200.736 145.428 200.555C145.567 200.373 145.832 200.346 146.013 200.485L151.974 205.22C152.545 205.694 153.297 205.833 153.952 205.61C153.97 205.601 153.989 205.592 154.007 205.583C154.369 205.443 154.662 205.22 154.857 204.914C155.428 204.092 155.261 202.95 154.495 202.379L148.422 197.49C148.241 197.351 148.199 197.087 148.353 196.905C148.492 196.724 148.756 196.683 148.951 196.836L158.005 204.064C158.45 204.301 159.049 204.315 159.634 204.092C159.982 203.967 160.275 203.744 160.484 203.424C161.041 202.63 160.86 201.529 160.08 200.945L151.375 193.813C151.194 193.66 151.166 193.396 151.305 193.215C151.458 193.033 151.723 193.006 151.904 193.159L158.241 198.256C158.687 198.493 159.286 198.507 159.871 198.284C160.233 198.145 160.526 197.922 160.721 197.616C161.278 196.808 161.111 195.722 160.317 195.137L149.495 186.306C149.355 186.181 149.3 185.972 149.383 185.791C149.467 185.61 149.662 185.526 149.857 185.554L155.832 186.85C156.124 186.891 156.459 186.85 156.793 186.724C157.336 186.515 157.782 186.042 157.977 185.457C158.158 184.914 158.102 184.301 157.796 183.799C157.503 183.284 157.002 182.936 156.417 182.81C156.389 182.81 156.361 182.806 156.333 182.796L143.157 177.365C143.102 177.337 143.055 177.309 143.018 177.281L119.661 161.153C119.564 161.083 119.494 160.985 119.48 160.86C119.466 160.749 119.494 160.623 119.564 160.54L129.801 147.74L115.162 131.319L99.0339 147.865C94.1731 152.852 92.5853 160.038 94.8834 166.626C95.538 168.479 96.4572 170.192 97.6411 171.724C98.8389 173.27 100.26 174.607 101.875 175.707L132.656 196.028L146.57 206.892Z" fill="#030047"/>
<path d="M138.102 113.798L131.111 115.107C128.395 115.608 125.915 116.987 124.049 119.007L110.859 133.269L128.172 153.283L145.47 136.709L138.102 113.798Z" fill="#FEBA00"/>
<path d="M128.172 153.7C128.163 153.7 128.153 153.7 128.144 153.7C128.033 153.7 127.921 153.645 127.852 153.561L110.539 133.547C110.4 133.38 110.414 133.143 110.553 132.976L123.743 118.714C123.896 118.546 124.161 118.533 124.328 118.7C124.509 118.853 124.523 119.117 124.356 119.299L111.431 133.282L128.2 152.67L141.139 140.274C141.32 140.107 141.584 140.107 141.738 140.288C141.905 140.455 141.905 140.72 141.738 140.887L128.464 153.589C128.381 153.659 128.283 153.7 128.172 153.7Z" fill="#030047"/>
<path d="M210.765 140.289L208.996 144.203L210.765 140.289Z" fill="white"/>
<path d="M208.996 144.62C208.941 144.62 208.88 144.611 208.815 144.592C208.606 144.495 208.509 144.244 208.606 144.021L210.375 140.107C210.473 139.898 210.723 139.801 210.932 139.898C211.155 139.996 211.239 140.247 211.155 140.455L209.386 144.369C209.317 144.536 209.15 144.62 208.996 144.62Z" fill="#030047"/>
<path d="M151.543 95.4261V111.972C162.267 125.051 173.465 114.159 173.479 114.131L168.242 92.2227L151.543 95.4261Z" fill="white"/>
<path fill-rule="evenodd" clip-rule="evenodd" d="M163.159 118.839C158.813 118.839 154.802 116.625 151.209 112.237C151.153 112.168 151.111 112.07 151.111 111.973V95.4265C151.111 95.2315 151.265 95.0504 151.46 95.0087L168.159 91.8052C168.382 91.7635 168.591 91.9027 168.647 92.1256L173.883 114.034C173.911 114.132 173.897 114.229 173.856 114.327C173.744 114.563 169.886 118.157 164.635 118.756C164.143 118.811 163.651 118.839 163.159 118.839ZM151.961 111.82C155.192 115.719 158.786 117.795 162.63 117.976C167.978 118.24 172.142 114.772 173.006 113.992L167.922 92.7106L151.961 95.7747V111.82Z" fill="#030047"/>
<path d="M151.933 97.4887C145.972 89.0066 144.119 75.0648 144.119 75.0648L164.44 63.2539C164.955 63.5882 179.134 67.5576 181.321 83.4076C183.284 97.5165 179.593 107.238 159.76 103.728" fill="white"/>
<path d="M167.171 104.871C164.943 104.871 162.45 104.634 159.692 104.147C159.455 104.105 159.302 103.882 159.344 103.659C159.385 103.422 159.608 103.269 159.845 103.311C168.425 104.829 174.26 103.952 177.687 100.651C181.015 97.4472 182.06 91.8342 180.904 83.4636C179.637 74.313 173.898 67.3351 164.734 63.8253C164.622 63.7881 164.534 63.7556 164.469 63.7278L144.58 75.2879C144.873 77.2935 146.906 89.6058 152.282 97.2522C152.421 97.4472 152.366 97.7118 152.171 97.8372C151.99 97.9764 151.725 97.9347 151.586 97.7397C145.639 89.2715 143.717 75.274 143.703 75.1208C143.675 74.9536 143.758 74.7865 143.911 74.7029L164.232 62.8921C164.372 62.8085 164.539 62.8085 164.678 62.906C164.72 62.9199 164.845 62.9617 165.04 63.0453C174.497 66.6665 180.43 73.8812 181.754 83.3382C182.951 92.0014 181.809 97.865 178.272 101.263C175.765 103.673 172.102 104.871 167.171 104.871Z" fill="#030047"/>
<path d="M155.945 59.7723C155.945 59.7723 149.246 57.126 146.015 59.6191C142.783 62.1122 146.419 68.0176 146.419 68.0176C146.419 68.0176 140.861 67.1123 138.076 73.4495C135.304 79.8006 145.388 88.5752 145.388 88.5752C145.388 88.5752 151.21 84.7729 151.238 84.7589C151.126 84.8286 151.586 85.1211 151.614 85.135C152.129 85.3161 153.034 84.4804 153.299 84.1322C153.773 83.4915 153.884 82.5583 154.204 81.8062C154.58 80.9149 155.054 80.0653 155.597 79.2853C157.77 76.1933 161.182 73.9509 164.929 73.4217C167.143 73.1152 169.414 73.3381 171.6 72.9342C174.344 72.4188 176.879 70.8589 178.592 68.6583C180.291 66.4438 181.155 63.6025 180.974 60.8308C180.862 59.2013 180.375 57.5439 179.261 56.36C177.687 54.6608 175.208 54.2151 172.91 53.8808C169.567 53.3655 166.113 52.8641 162.84 53.6719C159.553 54.4936 156.433 56.945 155.917 60.2877" fill="#030047"/>
<path d="M174.288 82.1401C174.706 83.0175 175.514 83.4911 176.099 83.2125C176.684 82.934 176.809 82.0147 176.405 81.1373C175.987 80.2737 175.18 79.7863 174.595 80.0648C174.01 80.3434 173.87 81.2766 174.288 82.1401Z" fill="#030047"/>
<path d="M175.096 78.0455C173.856 78.0037 172.686 78.7976 172.129 80.0651L175.096 78.0455Z" fill="white"/>
<path d="M172.129 80.4831C172.073 80.4831 172.017 80.4691 171.962 80.4413C171.753 80.3577 171.655 80.107 171.739 79.8842C172.366 78.4774 173.689 77.5861 175.095 77.6139C175.332 77.6278 175.513 77.8089 175.513 78.0457C175.513 78.2825 175.318 78.4635 175.095 78.4635C175.068 78.4635 175.04 78.4635 175.026 78.4635C173.967 78.4635 172.992 79.146 172.519 80.2324C172.449 80.3856 172.296 80.4831 172.129 80.4831Z" fill="#030047"/>
<path d="M165.108 86.5125C165.526 87.3761 166.334 87.8496 166.919 87.571C167.504 87.3064 167.643 86.3732 167.225 85.4958C166.807 84.6323 166 84.1587 165.415 84.4373C164.83 84.7019 164.704 85.6351 165.108 86.5125Z" fill="#030047"/>
<path d="M165.918 82.405C164.678 82.3772 163.508 83.171 162.951 84.4246L165.918 82.405Z" fill="white"/>
<path d="M162.951 84.8424C162.895 84.8424 162.84 84.8332 162.784 84.8146C162.575 84.7171 162.478 84.4664 162.561 84.2575C163.188 82.8368 164.511 81.9454 165.918 81.9733C166.154 81.9872 166.349 82.1822 166.336 82.4051C166.336 82.6418 166.141 82.8229 165.904 82.8229C164.831 82.809 163.829 83.4914 163.341 84.5917C163.271 84.7449 163.118 84.8424 162.951 84.8424Z" fill="#030047"/>
<path d="M151.543 84.8571C151.543 84.8571 145.233 80.6509 142.49 82.2805C139.746 83.8961 142.935 94.0635 146.626 94.342C150.317 94.6206 152.852 92.6707 152.852 92.6707" fill="white"/>
<path d="M147.352 94.8022C147.101 94.8022 146.846 94.793 146.586 94.7744C144.218 94.5933 142.171 91.0417 141.377 87.6433C140.708 84.7881 141.043 82.6432 142.282 81.905C145.207 80.164 151.503 84.3285 151.781 84.5095C151.976 84.6349 152.018 84.8995 151.893 85.0945C151.767 85.2895 151.503 85.3452 151.308 85.2059C149.608 84.0778 144.762 81.4175 142.714 82.6432C141.837 83.1585 141.642 85.0388 142.199 87.4483C142.923 90.5125 144.789 93.7855 146.656 93.9248C150.152 94.1894 152.575 92.3649 152.603 92.337C152.784 92.1977 153.049 92.2395 153.188 92.4206C153.341 92.6016 153.299 92.8663 153.118 93.0195C153.007 93.0891 150.75 94.8022 147.352 94.8022Z" fill="#030047"/>
<path d="M146.084 89.7871C145.944 89.7871 145.819 89.7174 145.735 89.606C145.276 88.9792 144.956 88.255 144.788 87.5029C144.649 86.8622 144.719 86.3747 144.997 86.0265C145.234 85.7201 145.638 85.5391 146.07 85.5391C146.376 85.553 146.697 85.6087 147.045 85.7898C147.504 86.0126 147.908 86.3329 148.229 86.709C148.368 86.8901 148.354 87.1547 148.173 87.3079C147.992 87.4611 147.727 87.4333 147.574 87.2522C147.337 86.9597 147.017 86.7229 146.683 86.5419C146.446 86.4304 146.251 86.3608 146.07 86.3747C145.903 86.3747 145.749 86.4444 145.666 86.5419C145.554 86.6951 145.527 86.9458 145.61 87.3218C145.763 87.9625 146.042 88.5753 146.418 89.1185C146.557 89.2996 146.515 89.5642 146.32 89.7035C146.251 89.7592 146.167 89.7871 146.084 89.7871Z" fill="#030047"/>
<path d="M170.861 83.5332C171.446 84.7867 173.145 88.1851 173.73 89.4386C174.079 90.2047 174.441 90.9846 174.371 91.8064C174.315 92.6142 173.675 93.4499 172.7 93.6031" fill="white"/>
<path d="M172.7 94.0351C172.505 94.0351 172.324 93.8819 172.282 93.6729C172.254 93.4362 172.408 93.2272 172.644 93.1855C173.424 93.0601 173.912 92.3637 173.954 91.7648C174.023 91.0545 173.661 90.2885 173.341 89.6199C173.048 88.9932 172.477 87.8371 171.92 86.6672C171.349 85.5112 170.778 84.3412 170.472 83.7145C170.374 83.5056 170.472 83.2549 170.68 83.1435C170.889 83.046 171.14 83.1435 171.238 83.3524C171.544 83.9791 172.101 85.1351 172.672 86.2912C173.243 87.4611 173.814 88.631 174.107 89.2578C174.469 90.0238 174.873 90.9013 174.803 91.8345C174.72 92.7815 173.995 93.8401 172.77 94.0211C172.751 94.0304 172.728 94.0351 172.7 94.0351Z" fill="#030047"/>
<path d="M168.814 97.0158C167.964 97.0158 167.143 96.8208 166.39 96.4169C165.221 95.7901 164.329 94.7037 163.939 93.4224C163.87 93.1995 163.995 92.9627 164.218 92.8931C164.441 92.8374 164.677 92.9488 164.747 93.1717C165.067 94.2441 165.819 95.1494 166.794 95.6787C167.769 96.194 168.939 96.3194 169.998 95.999C170.221 95.9294 170.457 96.0687 170.527 96.2915C170.597 96.5143 170.471 96.7511 170.248 96.8208C169.775 96.9461 169.287 97.0158 168.814 97.0158Z" fill="#030047"/>
<path d="M96.9874 131L95.3578 132.769C94.5918 133.59 93.2965 133.646 92.4747 132.88L90.7059 131.25C89.8842 130.484 89.8424 129.203 90.5945 128.381L92.224 126.598C92.9901 125.777 94.2714 125.735 95.1071 126.487L96.8759 128.131C97.6977 128.883 97.7534 130.178 96.9874 131Z" fill="#FEBA00"/>
<path d="M268.118 132.628L266.935 133.924C266.364 134.523 265.43 134.564 264.818 134.007L263.536 132.81C262.923 132.252 262.896 131.319 263.453 130.706L264.637 129.411C265.194 128.812 266.141 128.77 266.74 129.328L268.035 130.525C268.648 131.082 268.676 132.03 268.118 132.628Z" fill="#FEBA00"/>
<path d="M239.178 52.307L237.994 53.6023C237.423 54.2012 236.49 54.243 235.891 53.6859L234.596 52.4881C233.997 51.9449 233.955 50.9978 234.512 50.3989L235.71 49.1036C236.267 48.4907 237.2 48.4629 237.813 49.02L239.108 50.2178C239.707 50.7749 239.735 51.7081 239.178 52.307Z" fill="#FEBA00"/>
<g opacity="0.4">
<path fill-rule="evenodd" clip-rule="evenodd" d="M128.811 142.532C126.959 142.532 125.469 141.042 125.469 139.189C125.469 137.351 126.959 135.86 128.811 135.86C130.65 135.86 132.14 137.351 132.14 139.189C132.14 141.042 130.65 142.532 128.811 142.532ZM128.811 136.71C127.433 136.71 126.318 137.824 126.318 139.189C126.318 140.568 127.433 141.682 128.811 141.682C130.176 141.682 131.291 140.568 131.291 139.189C131.291 137.824 130.176 136.71 128.811 136.71Z" fill="white"/>
</g>
<g opacity="0.4">
<path fill-rule="evenodd" clip-rule="evenodd" d="M130.316 131.097C127.74 131.097 125.65 128.993 125.65 126.417C125.65 123.84 127.74 121.751 130.316 121.751C132.893 121.751 134.996 123.84 134.996 126.417C134.996 128.993 132.893 131.097 130.316 131.097ZM130.316 122.601C128.213 122.601 126.5 124.314 126.5 126.417C126.5 128.534 128.213 130.247 130.316 130.247C132.433 130.247 134.146 128.534 134.146 126.417C134.146 124.314 132.433 122.601 130.316 122.601Z" fill="white"/>
</g>
<g opacity="0.4">
<path fill-rule="evenodd" clip-rule="evenodd" d="M148.995 137.1C146.641 137.1 144.719 135.178 144.719 132.824C144.719 130.456 146.641 128.534 148.995 128.534C151.362 128.534 153.284 130.456 153.284 132.824C153.284 135.178 151.362 137.1 148.995 137.1ZM148.995 129.384C147.1 129.384 145.568 130.93 145.568 132.824C145.568 134.718 147.1 136.25 148.995 136.25C150.889 136.25 152.435 134.718 152.435 132.824C152.435 130.93 150.889 129.384 148.995 129.384Z" fill="white"/>
</g>
<g opacity="0.4">
<path fill-rule="evenodd" clip-rule="evenodd" d="M151.989 166.167C150.986 166.167 150.039 165.818 149.259 165.164C148.382 164.439 147.839 163.409 147.741 162.267C147.63 161.125 147.978 160.024 148.702 159.147C149.44 158.255 150.471 157.726 151.613 157.615C153.953 157.406 156.042 159.133 156.265 161.487C156.474 163.841 154.733 165.93 152.393 166.139C152.254 166.157 152.119 166.167 151.989 166.167ZM152.003 158.45C151.901 158.45 151.794 158.455 151.683 158.464C150.777 158.548 149.942 158.98 149.357 159.676C148.772 160.386 148.493 161.278 148.577 162.197C148.66 163.102 149.092 163.938 149.802 164.523C150.513 165.108 151.404 165.387 152.309 165.303C154.204 165.122 155.596 163.451 155.415 161.57C155.262 159.788 153.758 158.45 152.003 158.45Z" fill="white"/>
</g>
<g opacity="0.4">
<path fill-rule="evenodd" clip-rule="evenodd" d="M171.879 155.595C169.608 155.595 167.756 153.743 167.756 151.459C167.756 149.188 169.608 147.336 171.879 147.336C174.163 147.336 176.015 149.188 176.015 151.459C176.015 153.743 174.163 155.595 171.879 155.595ZM171.879 148.186C170.068 148.186 168.605 149.648 168.605 151.459C168.605 153.269 170.068 154.746 171.879 154.746C173.689 154.746 175.166 153.269 175.166 151.459C175.166 149.648 173.689 148.186 171.879 148.186Z" fill="white"/>
</g>
<g opacity="0.4">
<path fill-rule="evenodd" clip-rule="evenodd" d="M173.632 175.318C172.378 175.318 171.361 174.301 171.361 173.048C171.361 171.794 172.378 170.777 173.632 170.777C174.899 170.777 175.916 171.794 175.916 173.048C175.916 174.301 174.899 175.318 173.632 175.318ZM173.632 171.613C172.852 171.613 172.211 172.254 172.211 173.048C172.211 173.841 172.852 174.482 173.632 174.482C174.425 174.482 175.066 173.841 175.066 173.048C175.066 172.254 174.425 171.613 173.632 171.613Z" fill="white"/>
</g>
<g opacity="0.4">
<path d="M131.207 166.556C130.441 166.556 129.675 166.375 128.979 166.041C128.77 165.93 128.686 165.679 128.798 165.47C128.895 165.261 129.146 165.178 129.355 165.275C129.926 165.568 130.566 165.707 131.207 165.707C133.505 165.707 135.385 163.84 135.385 161.542C135.385 159.244 133.505 157.364 131.207 157.364C130.608 157.364 130.037 157.489 129.508 157.74C129.299 157.838 129.048 157.754 128.937 157.531C128.839 157.322 128.937 157.072 129.146 156.974C129.786 156.668 130.483 156.528 131.207 156.528C133.979 156.528 136.221 158.771 136.221 161.542C136.221 164.314 133.979 166.556 131.207 166.556Z" fill="white"/>
</g>
<g opacity="0.4">
<path fill-rule="evenodd" clip-rule="evenodd" d="M196.474 131.667C194.983 131.667 193.758 130.455 193.758 128.965C193.758 127.461 194.983 126.249 196.474 126.249C197.964 126.249 199.19 127.461 199.19 128.965C199.19 130.455 197.964 131.667 196.474 131.667ZM196.474 127.099C195.443 127.099 194.607 127.934 194.607 128.965C194.607 129.982 195.443 130.831 196.474 130.831C197.504 130.831 198.34 129.982 198.34 128.965C198.34 127.934 197.504 127.099 196.474 127.099Z" fill="white"/>
</g>
<g opacity="0.4">
<path fill-rule="evenodd" clip-rule="evenodd" d="M163.701 144.621C162.239 144.621 161.041 143.437 161.041 141.974C161.041 140.512 162.239 139.328 163.701 139.328C165.164 139.328 166.348 140.512 166.348 141.974C166.348 143.437 165.164 144.621 163.701 144.621ZM163.701 140.178C162.698 140.178 161.891 140.986 161.891 141.974C161.891 142.977 162.698 143.785 163.701 143.785C164.69 143.785 165.498 142.977 165.498 141.974C165.498 140.986 164.69 140.178 163.701 140.178Z" fill="white"/>
</g>
<g opacity="0.4">
<path fill-rule="evenodd" clip-rule="evenodd" d="M171.779 131.152C169.913 131.152 168.395 129.62 168.395 127.754C168.395 125.888 169.913 124.355 171.779 124.355C173.659 124.355 175.177 125.888 175.177 127.754C175.177 129.62 173.659 131.152 171.779 131.152ZM171.779 125.205C170.386 125.205 169.244 126.347 169.244 127.754C169.244 129.161 170.386 130.303 171.779 130.303C173.186 130.303 174.328 129.161 174.328 127.754C174.328 126.347 173.186 125.205 171.779 125.205Z" fill="white"/>
</g>
<g opacity="0.4">
<path fill-rule="evenodd" clip-rule="evenodd" d="M161.474 177.408C160.081 177.408 158.967 176.293 158.967 174.901C158.967 173.522 160.081 172.394 161.474 172.394C162.853 172.394 163.981 173.522 163.981 174.901C163.981 176.293 162.853 177.408 161.474 177.408ZM161.474 173.243C160.555 173.243 159.802 173.981 159.802 174.901C159.802 175.82 160.555 176.572 161.474 176.572C162.393 176.572 163.131 175.82 163.131 174.901C163.131 173.981 162.393 173.243 161.474 173.243Z" fill="white"/>
</g>
<path d="M227.59 180.345C227.59 190.61 232.548 199.719 240.195 205.401C240.213 205.42 240.232 205.434 240.25 205.443C245.431 209.287 251.852 211.557 258.802 211.557C267.577 211.557 275.516 207.936 281.17 202.1C286.644 196.473 290.001 188.813 290.001 180.345C290.001 163.116 276.031 149.146 258.802 149.146C241.559 149.146 227.59 163.116 227.59 180.345Z" fill="white"/>
<path d="M270.35 166.848C270.35 166.848 272.509 161.235 277.606 161.583C282.704 161.931 284.153 171.639 275.782 172.711C267.397 173.798 270.35 166.848 270.35 166.848Z" fill="#030047"/>
<path d="M260.406 165.553C260.406 165.553 251.506 170.121 250.225 174.87C248.93 179.62 253.721 180.344 253.192 181.751C252.662 183.158 250.072 184.355 251.284 187.336C252.495 190.303 260.81 192.656 265.741 192.392C270.657 192.127 260.406 165.553 260.406 165.553Z" fill="#030047"/>
<path d="M240.197 205.399C240.216 205.418 240.234 205.432 240.253 205.441C245.434 209.285 251.855 211.556 258.805 211.556C267.579 211.556 275.518 207.934 281.173 202.099C280.532 199.007 278.276 196.402 275.142 195.525C275.003 195.487 274.864 195.455 274.724 195.427C274.724 195.427 274.543 195.371 274.195 195.288C273.847 195.19 273.346 195.065 272.747 194.912C271.939 194.703 270.936 194.438 269.864 194.174C268.847 193.923 267.761 193.658 266.702 193.407C264.669 192.934 262.746 192.53 261.59 192.391C260.532 192.251 258.526 192.07 256.465 191.903C253.192 191.639 249.78 191.402 249.78 191.402C248.944 191.388 248.122 191.472 247.342 191.667C247.203 191.704 247.064 191.741 246.924 191.778C243.972 192.655 241.827 195.246 241.339 198.296L240.197 205.399Z" fill="#FEBA00"/>
<path d="M269.515 181.526L266.701 193.407L269.863 194.173C269.863 194.173 264.319 201.29 258.149 200.05C252.495 198.908 253.553 191.722 253.553 191.722L256.464 191.903L258.846 182.947L269.515 181.526Z" fill="white"/>
<path fill-rule="evenodd" clip-rule="evenodd" d="M259.639 200.607C259.124 200.607 258.608 200.565 258.065 200.454C252.09 199.256 253.121 191.735 253.135 191.651C253.176 191.429 253.357 191.275 253.58 191.289L256.143 191.456L258.441 182.835C258.483 182.668 258.622 182.543 258.789 182.529L269.458 181.108C269.597 181.094 269.737 181.136 269.834 181.247C269.918 181.345 269.96 181.484 269.932 181.623L267.202 193.1L269.96 193.769C270.099 193.796 270.21 193.894 270.266 194.033C270.308 194.172 270.294 194.326 270.196 194.437C269.987 194.702 265.308 200.607 259.639 200.607ZM253.929 192.167C253.803 193.629 253.706 198.713 258.246 199.632C263.121 200.607 267.703 195.997 269.096 194.423L266.589 193.824C266.366 193.769 266.227 193.532 266.283 193.309L268.957 182.027L259.193 183.323L256.867 192.014C256.812 192.209 256.631 192.334 256.436 192.334L253.929 192.167Z" fill="#030047"/>
<path d="M269.223 181.526C273.262 177 270.671 171.888 270.671 171.888C266.368 168.406 262.008 164.367 258.22 166.972C257.997 167.167 252.955 171.206 253.359 178.866C253.874 188.839 258.387 189.047 264.78 186.554" fill="white"/>
<path d="M259.236 188.31C258.149 188.31 257.105 188.073 256.213 187.502C254.249 186.22 253.163 183.407 252.926 178.88C252.536 171.554 257.021 167.418 257.926 166.666C257.926 166.652 257.968 166.624 257.982 166.624C261.743 164.033 265.907 167.446 269.946 170.76C270.271 171.03 270.601 171.299 270.935 171.568C270.982 171.605 271.019 171.647 271.047 171.694C271.074 171.749 273.721 177.111 269.542 181.805C269.389 181.986 269.124 182 268.943 181.847C268.776 181.68 268.748 181.415 268.916 181.248C272.453 177.265 270.615 172.794 270.322 172.153C270.016 171.912 269.709 171.666 269.403 171.415C265.447 168.156 261.701 165.092 258.456 167.32C257.62 168.017 253.414 171.916 253.776 178.839C253.999 183.073 254.946 185.677 256.673 186.791C258.33 187.85 260.782 187.655 264.626 186.165C264.849 186.067 265.085 186.179 265.183 186.401C265.266 186.61 265.155 186.861 264.932 186.945C263.177 187.627 261.13 188.31 259.236 188.31Z" fill="#030047"/>
<path d="M256.324 176.722C256.296 177.181 256.017 177.544 255.711 177.516C255.391 177.502 255.168 177.098 255.196 176.638C255.237 176.179 255.516 175.817 255.822 175.83C256.129 175.858 256.366 176.248 256.324 176.722Z" fill="#030047"/>
<path d="M255.029 175.093C255.559 174.786 256.227 174.856 256.756 175.26L255.029 175.093Z" fill="white"/>
<path d="M256.756 175.678C256.672 175.678 256.575 175.65 256.505 175.594C256.115 175.288 255.614 175.232 255.251 175.455C255.043 175.566 254.792 175.496 254.666 175.302C254.555 175.093 254.625 174.842 254.82 174.717C255.488 174.327 256.352 174.41 257.02 174.925C257.201 175.065 257.243 175.329 257.09 175.51C257.006 175.622 256.881 175.678 256.756 175.678Z" fill="#030047"/>
<path d="M261.548 177.696C261.45 178.155 261.13 178.476 260.824 178.406C260.517 178.35 260.35 177.932 260.434 177.473C260.531 177.013 260.851 176.693 261.158 176.762C261.464 176.818 261.631 177.236 261.548 177.696Z" fill="#030047"/>
<path d="M260.211 176.024C260.726 175.704 261.409 175.746 261.938 176.136L260.211 176.024Z" fill="white"/>
<path d="M261.937 176.553C261.854 176.553 261.77 176.526 261.701 176.47C261.297 176.191 260.795 176.15 260.433 176.372C260.238 176.498 259.973 176.442 259.848 176.247C259.723 176.038 259.792 175.787 259.987 175.662C260.642 175.244 261.506 175.3 262.188 175.787C262.383 175.927 262.425 176.191 262.286 176.386C262.202 176.498 262.077 176.553 261.937 176.553Z" fill="#030047"/>
<path d="M268.873 176.122C268.873 176.122 260.642 175.607 257.438 169.966C256.31 167.974 257.466 165.467 259.695 164.98C261.436 164.59 261.463 165.049 265.154 165.063C274.57 165.077 276.492 173.782 274.082 177.696C271.673 181.624 274.166 181.22 275.127 182.292C276.102 183.351 280.907 185.356 280.294 188.629C279.667 191.916 267.076 191.401 267.076 191.401L269.263 181.345L268.873 176.122Z" fill="#030047"/>
<path d="M267.662 177.014C267.662 177.014 270.447 174.633 271.854 175.259C273.261 175.886 272.314 180.956 270.559 181.29C268.804 181.638 267.467 180.844 267.467 180.844" fill="white"/>
<path d="M269.668 181.805C268.275 181.805 267.3 181.234 267.258 181.207C267.049 181.095 266.994 180.831 267.105 180.636C267.23 180.427 267.481 180.371 267.69 180.482C267.704 180.496 268.916 181.193 270.476 180.872C271.172 180.747 271.896 179.285 272.077 177.697C272.203 176.527 271.98 175.775 271.687 175.649C270.838 175.273 268.93 176.485 267.927 177.335C267.76 177.488 267.481 177.474 267.342 177.293C267.189 177.112 267.203 176.847 267.384 176.694C267.69 176.429 270.42 174.159 272.022 174.869C272.76 175.204 273.094 176.262 272.913 177.794C272.718 179.507 271.924 181.457 270.643 181.708C270.295 181.778 269.974 181.805 269.668 181.805Z" fill="#030047"/>
<path d="M269.529 177.836C269.641 177.655 269.794 177.501 269.975 177.376C270.086 177.306 270.212 177.251 270.351 177.237C270.476 177.223 270.63 177.251 270.727 177.348C270.852 177.487 270.866 177.696 270.852 177.877C270.811 178.226 270.713 178.56 270.546 178.866" fill="white"/>
<path d="M270.531 179.298C270.466 179.298 270.401 179.279 270.336 179.242C270.128 179.13 270.058 178.866 270.169 178.657C270.309 178.406 270.392 178.128 270.42 177.835C270.448 177.682 270.42 177.64 270.42 177.64C270.35 177.654 270.281 177.682 270.211 177.738C270.086 177.821 269.96 177.933 269.877 178.058C269.751 178.253 269.487 178.309 269.292 178.183C269.097 178.058 269.041 177.793 269.167 177.598C269.32 177.376 269.515 177.167 269.752 177.027C269.933 176.902 270.114 176.832 270.309 176.805C270.573 176.777 270.838 176.874 271.019 177.041C271.228 177.25 271.311 177.543 271.27 177.919C271.228 178.323 271.103 178.727 270.908 179.075C270.838 179.214 270.685 179.298 270.531 179.298Z" fill="#030047"/>
<path d="M258.011 177.695C257.797 178.336 257.588 178.977 257.384 179.617C257.259 179.993 257.12 180.397 257.203 180.787C257.287 181.177 257.635 181.539 258.108 181.553" fill="white"/>
<path d="M258.108 181.985C258.099 181.985 258.094 181.985 258.094 181.985C257.384 181.958 256.896 181.4 256.785 180.871C256.687 180.37 256.84 179.882 256.98 179.478L257.606 177.57C257.69 177.347 257.927 177.222 258.15 177.292C258.372 177.375 258.484 177.612 258.414 177.835L257.788 179.743C257.676 180.077 257.565 180.425 257.62 180.704C257.662 180.899 257.843 181.122 258.122 181.136C258.359 181.136 258.54 181.345 258.526 181.568C258.526 181.804 258.331 181.985 258.108 181.985Z" fill="#030047"/>
<path d="M262.02 181.847C261.894 182.418 261.532 182.933 261.045 183.267C260.557 183.588 259.93 183.699 259.359 183.588" fill="white"/>
<path d="M259.806 184.047C259.63 184.047 259.453 184.033 259.277 184.005C259.054 183.949 258.901 183.727 258.942 183.504C258.998 183.267 259.221 183.128 259.444 183.169C259.903 183.267 260.419 183.169 260.809 182.905C261.213 182.654 261.505 182.222 261.603 181.763C261.644 181.526 261.867 181.373 262.104 181.428C262.327 181.484 262.48 181.707 262.424 181.93C262.285 182.612 261.867 183.225 261.282 183.615C260.837 183.908 260.321 184.047 259.806 184.047Z" fill="#030047"/>
<path d="M282.858 190.663C282.802 190.663 282.751 190.658 282.705 190.649C282.412 190.566 282.231 190.259 282.301 189.953C282.649 188.643 282.51 187.181 281.953 185.955C281.396 184.716 280.379 183.657 279.167 183.058C279.009 182.984 278.851 182.91 278.694 182.836C278.039 182.543 277.315 182.209 276.841 181.54C276.214 180.649 276.228 179.368 276.869 178.017C277.008 177.71 277.175 177.404 277.343 177.111C277.677 176.512 277.997 175.941 278.123 175.328C278.276 174.562 278.109 173.699 277.663 173.044C277.217 172.39 276.493 171.93 275.699 171.791C275.393 171.735 275.184 171.443 275.239 171.136C275.295 170.83 275.588 170.635 275.894 170.677C276.98 170.858 277.969 171.498 278.596 172.418C279.223 173.323 279.446 174.479 279.223 175.565C279.056 176.331 278.694 177.014 278.331 177.654C278.178 177.933 278.025 178.212 277.886 178.504C277.677 178.964 277.217 180.12 277.76 180.9C278.053 181.317 278.596 181.554 279.153 181.805C279.33 181.888 279.501 181.967 279.669 182.042C281.131 182.78 282.301 183.992 282.983 185.482C283.652 186.972 283.805 188.657 283.401 190.245C283.332 190.496 283.109 190.663 282.858 190.663Z" fill="#030047"/>
<g opacity="0.4">
<path d="M264.024 205.332C263.95 205.332 263.88 205.309 263.815 205.263C263.606 205.151 263.55 204.887 263.662 204.692L264.79 202.825C264.915 202.63 265.166 202.561 265.375 202.686C265.57 202.811 265.639 203.062 265.514 203.271L264.386 205.123C264.316 205.263 264.177 205.332 264.024 205.332Z" fill="white"/>
</g>
<g opacity="0.4">
<path d="M262.45 207.755C262.338 207.755 262.213 207.713 262.13 207.616L261.767 207.184C261.614 207.017 261.628 206.738 261.809 206.585C261.976 206.432 262.241 206.46 262.394 206.627L262.77 207.059C262.923 207.226 262.91 207.504 262.728 207.657C262.645 207.727 262.547 207.755 262.45 207.755Z" fill="white"/>
</g>
<g opacity="0.4">
<path d="M267.242 200.04C267.061 200.04 266.88 199.915 266.838 199.72C266.769 199.497 266.908 199.26 267.131 199.205C267.535 199.093 267.897 198.87 268.175 198.564C268.329 198.383 268.607 198.369 268.774 198.536C268.955 198.689 268.955 198.954 268.802 199.135C268.426 199.553 267.911 199.873 267.354 200.026C267.317 200.036 267.279 200.04 267.242 200.04Z" fill="white"/>
</g>
<g opacity="0.4">
<path d="M276.407 203.355C276.309 203.355 276.198 203.313 276.114 203.229L274.707 201.837C274.54 201.669 274.54 201.405 274.707 201.238C274.875 201.071 275.139 201.071 275.306 201.238L276.713 202.63C276.88 202.798 276.88 203.062 276.713 203.229C276.629 203.313 276.518 203.355 276.407 203.355Z" fill="white"/>
</g>
<g opacity="0.4">
<path d="M274.08 207.95C273.968 207.95 273.857 207.908 273.773 207.824C273.62 207.657 273.62 207.393 273.773 207.226L275.291 205.707C275.458 205.54 275.723 205.54 275.89 205.707C276.057 205.875 276.057 206.139 275.89 206.306L274.372 207.824C274.302 207.908 274.191 207.95 274.08 207.95Z" fill="white"/>
</g>
<g opacity="0.4">
<path d="M244.26 199.301C244.148 199.301 244.037 199.259 243.953 199.176C243.786 199.009 243.786 198.744 243.953 198.577L246.043 196.488C246.21 196.321 246.474 196.321 246.642 196.488C246.809 196.655 246.809 196.919 246.642 197.087L244.552 199.176C244.469 199.259 244.357 199.301 244.26 199.301Z" fill="white"/>
</g>
<g opacity="0.4">
<path d="M249.261 205.304C249.149 205.304 249.038 205.262 248.954 205.178L247.631 203.855C247.464 203.688 247.464 203.423 247.631 203.256C247.798 203.089 248.063 203.089 248.23 203.256L249.553 204.593C249.72 204.746 249.72 205.025 249.553 205.178C249.47 205.262 249.372 205.304 249.261 205.304Z" fill="white"/>
</g>
<path fill-rule="evenodd" clip-rule="evenodd" d="M258.802 211.975C251.963 211.975 245.473 209.844 239.999 205.791L239.916 205.722C231.824 199.705 227.172 190.457 227.172 180.345C227.172 162.907 241.364 148.715 258.802 148.715C276.24 148.715 290.432 162.907 290.432 180.345C290.432 188.632 287.257 196.46 281.477 202.393C275.474 208.577 267.423 211.975 258.802 211.975ZM240.501 205.109C245.821 209.05 252.145 211.126 258.802 211.126C267.187 211.126 275.028 207.825 280.878 201.808C286.491 196.028 289.583 188.409 289.583 180.345C289.583 163.381 275.766 149.564 258.802 149.564C241.824 149.564 228.021 163.381 228.021 180.345C228.021 190.178 232.548 199.19 240.445 205.067L240.25 205.443L240.501 205.109Z" fill="#030047"/>
<path d="M121.778 83.6998C121.778 89.6888 120.163 95.2739 117.308 100.079C117.076 100.478 116.834 100.868 116.583 101.249C113.951 105.274 110.455 108.686 106.346 111.193C105.608 111.639 104.856 112.071 104.076 112.447C104.062 112.461 104.034 112.475 104.007 112.489C100.162 114.411 95.8866 115.595 91.36 115.831C90.775 115.869 90.19 115.887 89.6051 115.887C87.7387 115.887 85.9003 115.72 84.1175 115.414C80.6773 114.829 77.4182 113.687 74.4515 112.085C64.312 106.681 57.4316 95.9842 57.4316 83.6998C57.4316 65.9278 71.8331 51.5264 89.6051 51.5264C107.377 51.5264 121.778 65.9278 121.778 83.6998Z" fill="white"/>
<path d="M116.585 101.25C113.952 105.275 110.457 108.688 106.348 111.195L96.9883 96.487L108.618 91.1387C108.757 91.1944 113.66 97.0162 116.585 101.25Z" fill="white"/>
<path fill-rule="evenodd" clip-rule="evenodd" d="M106.347 111.612C106.208 111.612 106.069 111.542 105.985 111.417L96.6258 96.7093C96.5562 96.6118 96.5422 96.4864 96.5701 96.3611C96.6119 96.2496 96.6954 96.1522 96.8069 96.0964L108.437 90.7481C108.548 90.7064 108.687 90.7064 108.799 90.7481C109.161 90.9153 114.342 97.2664 116.933 101.013C117.03 101.152 117.03 101.347 116.933 101.487C114.286 105.553 110.707 109.035 106.556 111.556C106.491 111.594 106.422 111.612 106.347 111.612ZM97.6008 96.6675L106.473 110.609C110.275 108.228 113.576 105.01 116.069 101.264C113.451 97.5032 109.426 92.6702 108.52 91.6534L97.6008 96.6675Z" fill="#030047"/>
<path d="M96.9727 84.5625L101.249 84.9803C102.405 85.0918 103.505 85.5374 104.41 86.2617L110.845 91.2757L102.864 103.602L93.4629 93.7688L96.9727 84.5625Z" fill="#FEBA00"/>
<path d="M102.864 104.02C102.753 104.02 102.641 103.978 102.558 103.895L93.1562 94.0618C93.003 93.8946 93.003 93.63 93.1701 93.4629C93.3373 93.3096 93.6158 93.3097 93.769 93.4768L102.794 102.92L110.274 91.3737L104.145 86.5964C103.964 86.4571 103.922 86.1925 104.076 86.0114C104.215 85.8164 104.48 85.7886 104.661 85.9279L111.095 90.9419C111.276 91.0673 111.318 91.318 111.193 91.499L103.212 103.825C103.142 103.937 103.031 104.006 102.906 104.02C102.887 104.02 102.873 104.02 102.864 104.02Z" fill="#030047"/>
<path d="M104.076 112.448C104.057 112.466 104.034 112.48 104.006 112.489C100.176 114.411 95.8862 115.595 91.3596 115.832C90.7747 115.86 90.1897 115.888 89.6047 115.888C87.7384 115.888 85.8999 115.721 84.1171 115.414C80.6769 114.829 77.4178 113.687 74.4512 112.085L74.5626 88.0319C74.5626 86.8759 75.3565 85.8731 76.4846 85.5945C80.1895 84.7032 86.2481 83.6446 88.3234 83.7004C96.5408 83.9371 99.4378 85.0514 101.388 85.8452C102.293 86.2074 102.906 87.0709 102.948 88.0598L104.076 112.448Z" fill="#FEBA00"/>
<g opacity="0.6">
<path d="M86.6948 101.917L86.4023 101.43L87.9762 100.469L88.2687 100.942L86.6948 101.917Z" fill="white"/>
</g>
<g opacity="0.6">
<path d="M96.681 102.544L96.291 102.154L97.9624 100.469L98.3663 100.873L96.681 102.544Z" fill="white"/>
</g>
<g opacity="0.6">
<path d="M96.9865 95.1072H95.3848V94.5361H96.9865V95.1072Z" fill="white"/>
</g>
<g opacity="0.6">
<path d="M100.859 89.8981L99.0488 88.0875L99.4527 87.6836L101.263 89.4942L100.859 89.8981Z" fill="white"/>
</g>
<g opacity="0.6">
<path d="M91.9584 93.1572L90.0781 91.277L90.4681 90.873L92.3623 92.7533L91.9584 93.1572Z" fill="white"/>
</g>
<path d="M103.589 112.504L102.768 96.2918L103.603 96.25L104.439 112.462L103.589 112.504Z" fill="#030047"/>
<path d="M93.0311 84.1741L92.8361 74.0625H83.9083C83.9083 74.0625 83.7969 84.1045 83.7969 84.1602C88.0449 87.3776 91.2344 87.7118 93.0311 84.1741Z" fill="white"/>
<path fill-rule="evenodd" clip-rule="evenodd" d="M89.4375 87.1267C87.808 87.1267 85.8581 86.2632 83.546 84.5083C83.4485 84.4247 83.3789 84.3133 83.3789 84.1879C83.3789 84.1183 83.4346 78.6446 83.4764 74.0624C83.4764 73.8395 83.6714 73.6445 83.9082 73.6445H92.8359C93.0727 73.6445 93.2538 73.8256 93.2677 74.0624L93.4627 84.1601C93.4627 84.2344 93.4441 84.304 93.407 84.369C92.6549 85.8454 91.6381 86.7367 90.3846 87.0153C90.0782 87.0896 89.7625 87.1267 89.4375 87.1267ZM84.2285 83.9512C86.6798 85.7897 88.6854 86.5418 90.1896 86.1936C91.1785 85.9707 91.9724 85.2743 92.6131 84.0765L92.432 74.4941H84.326C84.2842 77.6558 84.2424 82.8509 84.2285 83.9512Z" fill="#030047"/>
<path d="M83.9913 76.206C82.0831 72.1391 82.3199 66.0526 82.3199 66.0526L91.8744 62.501C92.0694 62.682 98.0166 65.4398 97.5988 72.3619C97.181 79.2841 92.4733 81.9861 86.8743 79.4512" fill="white"/>
<path d="M90.8308 80.8021C89.5355 80.8021 88.1428 80.4818 86.7082 79.8271C86.4853 79.7296 86.4018 79.4789 86.4993 79.27C86.5828 79.0611 86.8335 78.9636 87.0564 79.0611C89.6191 80.2171 92.0286 80.2589 93.8532 79.1586C95.8031 77.9887 96.973 75.5652 97.168 72.3339C97.4048 68.448 95.5106 65.1193 91.8476 62.9883C91.8383 62.979 91.8336 62.9744 91.8336 62.9744L82.7387 66.3449C82.7248 67.5706 82.7527 72.5846 84.3822 76.0248C84.4797 76.2337 84.3822 76.4844 84.1733 76.5819C83.9644 76.6794 83.7137 76.5959 83.6162 76.387C81.6663 72.2782 81.8891 66.2753 81.9031 66.0246C81.9031 65.8575 82.0145 65.7043 82.1677 65.6485L91.7362 62.1109C91.8754 62.0552 92.0565 62.083 92.1679 62.1944C92.154 62.1805 92.2097 62.2084 92.2793 62.2501C96.2349 64.5622 98.2683 68.1556 98.0176 72.3896C97.8087 75.8995 96.4856 78.5597 94.285 79.8828C93.2682 80.4957 92.0983 80.8021 90.8308 80.8021Z" fill="#030047"/>
<path d="M95.4264 70.385C95.5239 70.7889 95.8164 71.0675 96.095 71.0118C96.3735 70.9421 96.5128 70.5661 96.4153 70.1622C96.3317 69.7583 96.0393 69.4797 95.7607 69.5354C95.4821 69.605 95.3429 69.9811 95.4264 70.385Z" fill="#030047"/>
<path d="M96.3597 68.7694C95.8583 68.5744 95.2594 68.7276 94.8555 69.1454L96.3597 68.7694Z" fill="white"/>
<path d="M94.8567 69.5772C94.7452 69.5772 94.6477 69.5354 94.5642 69.4519C94.397 69.2986 94.3831 69.034 94.5502 68.8669C95.0795 68.3098 95.8455 68.1148 96.5141 68.3794C96.723 68.463 96.8344 68.6997 96.7509 68.9226C96.6673 69.1315 96.4166 69.2429 96.2077 69.1594C95.8595 69.034 95.4556 69.1315 95.1631 69.4379C95.0795 69.5354 94.9681 69.5772 94.8567 69.5772Z" fill="#030047"/>
<path d="M84.6475 70.7062C84.6475 70.7062 84.6614 71.2076 85.4692 70.6644C86.277 70.1212 87.3355 65.539 88.2548 65.0933C89.1601 64.6615 93.617 63.1851 95.5669 66.0821C95.5669 66.0821 98.9375 64.4804 99.2717 60.6503C99.606 56.8062 96.6951 53.2824 92.7535 54.4663C88.798 55.6502 88.5055 60.3856 88.5055 60.3856C88.5055 60.3856 85.8452 58.77 84.2714 59.5917C82.7115 60.4135 83.8257 63.1991 83.8257 63.1991C83.8257 63.1991 81.5137 62.4052 79.8563 64.9122C78.1988 67.4192 81.8619 71.904 81.8619 71.904L84.6475 70.7062Z" fill="#030047"/>
<path fill-rule="evenodd" clip-rule="evenodd" d="M90.9685 73.2962C90.3974 73.2962 89.8403 73.0316 89.3946 72.558C88.9211 72.0566 88.6147 71.3602 88.545 70.5942C88.3779 68.9786 89.2971 67.5719 90.5785 67.4465C91.2192 67.3769 91.8459 67.6415 92.3473 68.1708C92.8209 68.6722 93.1134 69.3686 93.1969 70.1346C93.3501 71.7502 92.4448 73.1569 91.1635 73.2823C91.0985 73.2916 91.0335 73.2962 90.9685 73.2962ZM89.3807 70.5106C89.4503 71.0817 89.6592 71.6109 90.0074 71.9731C90.3278 72.3213 90.7038 72.4884 91.0799 72.4466C91.8877 72.3631 92.4588 71.3602 92.3473 70.2182C92.2916 69.6332 92.0688 69.1179 91.7345 68.7418C91.4142 68.4075 91.0381 68.2404 90.6621 68.2822C89.8403 68.3657 89.2693 69.3686 89.3807 70.5106Z" fill="#FEBA00"/>
<path fill-rule="evenodd" clip-rule="evenodd" d="M96.0243 72.9622C95.4533 72.9622 94.8962 72.6976 94.4505 72.2241C93.9769 71.7227 93.6845 71.0263 93.6009 70.2602C93.4477 68.6446 94.353 67.2379 95.6344 67.1125C96.275 67.0429 96.9157 67.3075 97.4032 67.8368C97.8767 68.3382 98.1692 69.0346 98.2528 69.8006C98.406 71.4162 97.5007 72.823 96.2193 72.9483C96.1543 72.9576 96.0893 72.9622 96.0243 72.9622ZM95.8293 67.9482C95.7922 67.9482 95.7551 67.9482 95.7179 67.9482C94.9101 68.0318 94.3251 69.0346 94.4505 70.1767C94.5062 70.7477 94.729 71.277 95.0633 71.6391C95.3837 71.9873 95.7597 72.1544 96.1358 72.1126C96.9436 72.0291 97.5285 71.0263 97.4032 69.8842C97.3475 69.3131 97.1246 68.7839 96.7904 68.4217C96.4979 68.1014 96.1636 67.9482 95.8293 67.9482Z" fill="#FEBA00"/>
<path d="M90.3848 70.7758C90.3987 71.1936 90.6215 71.5279 90.914 71.5279C91.1926 71.514 91.4154 71.1797 91.4015 70.7619C91.3876 70.344 91.1647 70.0098 90.8862 70.0098C90.6076 70.0237 90.3848 70.358 90.3848 70.7758Z" fill="#030047"/>
<path d="M91.4442 69.2984C90.9567 69.0617 90.3578 69.1731 89.9121 69.5631L91.4442 69.2984Z" fill="white"/>
<path d="M89.912 69.9952C89.8006 69.9813 89.6752 69.9395 89.5917 69.842C89.4385 69.6749 89.4524 69.4103 89.6334 69.2431C90.2045 68.7417 90.9844 68.6025 91.6251 68.9228C91.834 69.0203 91.9176 69.271 91.8201 69.4799C91.7226 69.6888 91.4719 69.7863 91.263 69.6749C90.9287 69.5217 90.5109 69.5913 90.1906 69.8838C90.107 69.9535 90.0095 69.9813 89.912 69.9813V69.9952Z" fill="#030047"/>
<path d="M83.1419 70.6079C82.9608 70.6079 82.7937 70.4825 82.738 70.3015C82.6684 70.0786 82.7937 69.8419 83.0166 69.7722C85.05 69.1455 88.8523 69.5912 89.0055 69.6051C89.2423 69.6329 89.4095 69.8558 89.3816 70.0786C89.3537 70.3154 89.1309 70.4686 88.9081 70.4547C88.8663 70.4408 85.1197 70.009 83.2673 70.58C83.2301 70.5986 83.1883 70.6079 83.1419 70.6079Z" fill="#FEBA00"/>
<path d="M84.759 70.7747C84.759 70.7747 82.3774 68.5045 81.096 69.0059C79.8007 69.4934 80.3996 74.0757 81.9595 74.4656C83.5194 74.8556 84.7451 74.2149 84.7451 74.2149" fill="white"/>
<path d="M82.9894 75.0094C82.6412 75.0094 82.2651 74.9815 81.8612 74.8701C80.6913 74.5776 80.0645 72.7809 79.981 71.221C79.8974 69.8282 80.2456 68.8672 80.942 68.6025C82.4323 68.0315 84.7861 70.2182 85.0507 70.4689C85.2318 70.636 85.2318 70.9007 85.0646 71.0678C84.9114 71.2349 84.6468 71.2489 84.4657 71.0817C83.5604 70.2182 81.9587 69.1318 81.2484 69.3964C80.9977 69.4939 80.7609 70.1485 80.8166 71.1792C80.9002 72.5859 81.4712 73.9091 82.0701 74.0484C83.4351 74.3966 84.5354 73.8394 84.5493 73.8394C84.7582 73.728 85.0089 73.8116 85.1204 74.0205C85.2318 74.2294 85.1482 74.4801 84.9393 74.5915C84.8975 74.6055 84.1175 75.0094 82.9894 75.0094Z" fill="#030047"/>
<path d="M82.0983 72.7251C81.9451 72.7251 81.7919 72.6276 81.7223 72.4744C81.5552 72.154 81.4577 71.7919 81.4437 71.4159C81.4252 71.063 81.518 70.7938 81.7223 70.608C81.9033 70.4548 82.168 70.3852 82.4187 70.427C82.5858 70.4548 82.7529 70.5291 82.9201 70.6498C83.1151 70.7891 83.2961 70.9841 83.4215 71.2069C83.5329 71.4019 83.4633 71.6666 83.2683 71.778C83.0594 71.9033 82.8087 71.8337 82.6833 71.6248C82.6137 71.5134 82.5301 71.4159 82.4187 71.3323C82.363 71.2905 82.3212 71.2627 82.2933 71.2627C82.2933 71.2766 82.2933 71.3184 82.2933 71.3741C82.3073 71.6248 82.363 71.8894 82.4744 72.1123C82.5858 72.3212 82.4883 72.5719 82.2794 72.6694C82.2237 72.7065 82.1633 72.7251 82.0983 72.7251Z" fill="#030047"/>
<path d="M92.5579 69.7168C92.4186 69.7168 92.2654 69.6332 92.1958 69.5078C92.0704 69.2989 92.1401 69.0482 92.3351 68.9229C93.0454 68.505 94.0761 68.7418 94.1875 68.7697C94.4242 68.8254 94.5635 69.0482 94.5078 69.2711C94.4521 69.5078 94.2153 69.6332 93.9925 69.5914C93.7836 69.5357 93.129 69.4521 92.7668 69.6471C92.7018 69.6935 92.6322 69.7168 92.5579 69.7168Z" fill="#FEBA00"/>
<path d="M93.3664 71.8477C93.5243 72.4326 93.6822 73.0176 93.84 73.6026C93.9375 73.9508 94.035 74.3129 93.9375 74.6472C93.8539 74.9954 93.5197 75.3018 93.0879 75.3018" fill="white"/>
<path d="M93.1017 75.7197C93.0924 75.7197 93.0878 75.7197 93.0878 75.7197C92.851 75.7197 92.6699 75.5247 92.6699 75.2879C92.6699 75.0651 92.8649 74.884 93.1017 74.8701C93.3245 74.898 93.4917 74.703 93.5335 74.5498C93.5892 74.313 93.5056 74.0066 93.422 73.7141L92.9485 71.9592C92.8928 71.7363 93.0181 71.4996 93.2549 71.4438C93.4777 71.3881 93.7006 71.5135 93.7702 71.7363L94.2438 73.4912C94.3413 73.8534 94.4666 74.2991 94.3413 74.7587C94.202 75.3158 93.6867 75.7197 93.1017 75.7197Z" fill="#030047"/>
<path d="M91.6101 77.5297C91.0669 77.5297 90.5376 77.3347 90.1059 77.0004C89.6045 76.6104 89.2702 76.0255 89.1866 75.3848C89.1588 75.148 89.3259 74.9391 89.5627 74.9112C89.7855 74.8834 89.9944 75.0505 90.0223 75.2734C90.078 75.6912 90.3009 76.0812 90.6212 76.3319C90.9555 76.5965 91.3872 76.7219 91.7911 76.6662C92.0279 76.6383 92.2368 76.8054 92.2647 77.0422C92.2926 77.2651 92.1254 77.4879 91.8886 77.5158C91.7958 77.525 91.7029 77.5297 91.6101 77.5297Z" fill="#030047"/>
<path d="M90.9563 115.845C90.5106 115.873 90.0603 115.887 89.6053 115.887C87.739 115.887 85.9005 115.72 84.1177 115.413C80.775 114.842 77.6134 113.756 74.7164 112.238C74.605 111.95 74.5121 111.658 74.4379 111.36L70.5938 96.2208L82.14 93.7695L85.4409 108.84L90.9563 115.845Z" fill="white"/>
<path fill-rule="evenodd" clip-rule="evenodd" d="M89.605 116.305C87.7247 116.305 85.8584 116.137 84.0477 115.831C80.719 115.26 77.5016 114.174 74.5211 112.6C74.4236 112.558 74.3539 112.488 74.3261 112.391C74.2007 112.098 74.1032 111.778 74.0197 111.458L70.1756 96.3319C70.1477 96.2205 70.1616 96.0951 70.2313 95.9976C70.287 95.9001 70.3845 95.8305 70.4959 95.8166L82.0561 93.3513C82.2789 93.2956 82.5017 93.4488 82.5575 93.6717L85.8444 108.658L91.2902 115.594C91.3877 115.72 91.4156 115.887 91.346 116.026C91.2763 116.165 91.137 116.263 90.9838 116.277C90.5289 116.295 90.0692 116.305 89.605 116.305ZM75.0503 111.931C77.9195 113.421 80.9975 114.452 84.187 114.995C86.1091 115.33 88.1147 115.483 90.1064 115.455L85.1202 109.104C85.0738 109.057 85.0459 109.002 85.0366 108.937L81.8193 94.2706L71.1087 96.5408L74.8414 111.249C74.9064 111.481 74.976 111.708 75.0503 111.931Z" fill="#030047"/>
<path d="M69.5611 93.1156L70.6754 101.403L72.3049 100.887L77.8343 99.1045L84.6868 96.9179L81.5391 84.5499C80.6616 84.3688 76.929 85.4134 73.7116 86.4162C70.8564 87.3076 69.1015 90.1489 69.5611 93.0877C69.5611 93.097 69.5611 93.1063 69.5611 93.1156Z" fill="#FEBA00"/>
<g opacity="0.6">
<path d="M80.3561 94.299L79.3672 92.0288L79.8825 91.792L80.8714 94.0762L80.3561 94.299Z" fill="white"/>
</g>
<g opacity="0.6">
<path d="M78.852 97.503L78.6152 96.9877L80.3562 96.2217L80.5791 96.737L78.852 97.503Z" fill="white"/>
</g>
<g opacity="0.6">
<path d="M77.3051 95.4549L76.8594 95.1067L78.0293 93.6025L78.475 93.9507L77.3051 95.4549Z" fill="white"/>
</g>
<g opacity="0.6">
<path d="M74.436 95.9014L73.8789 94.634L74.4082 94.4111L74.9514 95.6786L74.436 95.9014Z" fill="white"/>
</g>
<g opacity="0.6">
<path d="M76.2053 91.3882L75.9824 90.8729L78.1552 89.9258L78.378 90.4411L76.2053 91.3882Z" fill="white"/>
</g>
<g opacity="0.6">
<path d="M74.5891 89.049L73.9902 87.684L74.5056 87.4473L75.1045 88.8261L74.5891 89.049Z" fill="white"/>
</g>
<g opacity="0.6">
<path d="M71.9572 91.1792L71.5254 90.2043L72.0407 89.9814L72.4725 90.9564L71.9572 91.1792Z" fill="white"/>
</g>
<path d="M70.6755 101.834C70.5919 101.834 70.5223 101.806 70.4526 101.765C70.3412 101.695 70.2716 101.584 70.2576 101.458L69.1573 93.4497C69.1295 93.2268 69.2966 93.004 69.5195 92.9761C69.7562 92.9483 69.9652 93.1154 70.0069 93.3383L71.0237 100.845L84.1577 96.6392L81.5949 88.6306C81.5253 88.4078 81.6506 88.171 81.8735 88.0874C82.0963 88.0317 82.3331 88.1432 82.4028 88.366L85.0908 96.7784C85.1605 97.0013 85.0351 97.2381 84.8123 97.3077L70.8008 101.806C70.7637 101.825 70.7219 101.834 70.6755 101.834Z" fill="#030047"/>
<path fill-rule="evenodd" clip-rule="evenodd" d="M89.6052 116.305C87.7249 116.305 85.8586 116.138 84.048 115.832C80.7192 115.261 77.5019 114.174 74.5213 112.6C74.4377 112.559 74.3402 112.517 74.2427 112.461C63.6157 106.778 57 95.7475 57 83.6999C57 65.719 71.6243 51.0947 89.6052 51.0947C107.586 51.0947 122.21 65.719 122.21 83.6999C122.21 96.0818 115.33 107.252 104.271 112.837C104.243 112.851 104.202 112.865 104.16 112.879C100.19 114.871 95.8867 116.013 91.374 116.263H91.2487C91.1558 116.273 91.063 116.277 90.9701 116.277C90.5244 116.291 90.0648 116.305 89.6052 116.305ZM89.6052 51.9443C72.0978 51.9443 57.8496 66.1926 57.8496 83.6999C57.8496 95.4411 64.2843 106.18 74.6466 111.723C74.7302 111.769 74.8184 111.811 74.9113 111.848C77.8222 113.38 80.942 114.439 84.1872 114.996C86.3878 115.372 88.686 115.525 90.9423 115.428C91.0398 115.428 91.1233 115.428 91.2069 115.414H91.3462C95.7195 115.177 99.9258 114.063 103.826 112.113L104.076 112.447L103.881 112.071C114.661 106.639 121.361 95.7615 121.361 83.6999C121.361 66.1926 107.113 51.9443 89.6052 51.9443Z" fill="#030047"/>
<path d="M97.6131 192.866C97.6131 199.928 91.8888 205.666 84.8134 205.666C77.752 205.666 72.0137 199.928 72.0137 192.866C72.0137 185.791 77.752 180.066 84.8134 180.066C91.8888 180.066 97.6131 185.791 97.6131 192.866Z" fill="#030047"/>
<path d="M89.1863 194.398L84.2837 197.699C83.0441 198.52 81.3867 197.643 81.3867 196.153V189.565C81.3867 188.088 83.0441 187.197 84.2837 188.033L89.1863 191.32C90.2727 192.058 90.2727 193.673 89.1863 194.398Z" fill="white"/>
<path d="M200.373 39.1018C201.877 47.4446 209.872 53.0018 218.229 51.4976C226.572 49.9934 232.129 41.9988 230.625 33.642C229.12 25.2853 221.126 19.742 212.769 21.2462C204.412 22.7504 198.869 30.745 200.373 39.1018Z" fill="#FEBA00"/>
<path d="M203.506 44.951L203.144 49.1154C203.005 50.6754 204.453 51.8871 205.971 51.4832L209.997 50.3968C210.568 50.2436 210.721 49.5194 210.275 49.1572L204.676 44.4635C204.23 44.0875 203.548 44.38 203.506 44.951Z" fill="#FEBA00"/>
<path d="M207.727 34.9502C208.104 40.5771 216.251 43.9337 216.251 43.9337C216.251 43.9337 223.856 39.5046 223.466 33.8778C223.285 31.12 220.903 29.0448 218.146 29.2258C217.073 29.3094 216.098 29.7133 215.318 30.354C214.469 29.8247 213.452 29.5462 212.365 29.6298C209.622 29.8108 207.532 32.1925 207.727 34.9502Z" fill="white"/>
</g>
<defs>
<linearGradient id="paint0_linear_216_6560" x1="173.333" y1="0" x2="173.333" y2="334.807" gradientUnits="userSpaceOnUse">
<stop stop-color="#1A1301"/>
<stop offset="1" stop-color="#00041F" stop-opacity="0"/>
</linearGradient>
<radialGradient id="paint1_radial_216_6560" cx="0" cy="0" r="1" gradientUnits="userSpaceOnUse" gradientTransform="translate(114.986 -15.5206) rotate(75.6275) scale(200.299 289.242)">
<stop stop-color="#FEBA00"/>
<stop offset="0.883515" stop-color="#E698FF" stop-opacity="0"/>
</radialGradient>
<clipPath id="clip0_216_6560">
<rect width="346.666" height="334.807" fill="white" transform="translate(0 0.714844)"/>
</clipPath>
<clipPath id="clip1_216_6560">
<rect width="346.666" height="276.421" fill="white" transform="translate(0 0.714844)"/>
</clipPath>
</defs>
</svg>
