<svg width="46" height="46" viewBox="0 0 46 46" fill="none" xmlns="http://www.w3.org/2000/svg">
<g clip-path="url(#clip0_216_8416)">
<path d="M2.66257 3.05222H10.6503V0.389648H0V11.0399H2.66257V3.05222Z" fill="white"/>
<path d="M34.791 0.389648V3.05222H42.7787V11.0399H45.4413V0.389648H34.791Z" fill="white"/>
<path d="M42.7787 43.1684H34.791V45.8309H45.4413V35.1807H42.7787V43.1684Z" fill="white"/>
<path d="M2.66257 35.1807H0V45.8309H10.6503V43.1684H2.66257V35.1807Z" fill="white"/>
<path d="M5.41406 5.71484V19.0277H18.7269V11.04H21.3895V8.37741H18.7269V5.71484H5.41406ZM16.0643 16.3651H8.07663V8.37741H16.0643V16.3651Z" fill="white"/>
<path d="M40.0281 40.328V27.0151H34.703V24.3525H32.0404V27.0151H24.0527V29.6777H26.7153V32.3402H24.0527V35.0028H26.7153V40.328H40.0281ZM29.3779 29.6777H37.3656V37.6654H29.3779V29.6777Z" fill="white"/>
<path d="M13.4018 24.353H18.7269V21.6904H5.41406V24.353H10.7392V27.0156H8.07663V29.6781H10.7392V35.0033H8.07663V37.6658H10.7392V40.3284H24.052V37.6658H21.3895V35.0033H18.7269V37.6658H13.4018V35.0033H16.0643V32.3407H13.4018V24.353Z" fill="white"/>
<path d="M10.7383 11.04H13.4009V13.7026H10.7383V11.04Z" fill="white"/>
<path d="M32.0391 11.04H34.7016V13.7026H32.0391V11.04Z" fill="white"/>
<path d="M34.7025 19.0277H40.0277V5.71484H26.7148V19.0277H32.04V21.6903H34.7025V19.0277ZM29.3774 16.3651V8.37741H37.3651V16.3651H29.3774Z" fill="white"/>
<path d="M40.0283 24.353V21.6904C39.3841 21.6904 35.3518 21.6904 34.7031 21.6904V24.353H40.0283Z" fill="white"/>
<path d="M32.0391 32.3408H34.7016V35.0034H32.0391V32.3408Z" fill="white"/>
<path d="M21.3887 29.6777H24.0512V32.3403H21.3887V29.6777Z" fill="white"/>
<path d="M16.0645 32.3408H18.727C18.727 31.6966 18.727 27.6643 18.727 27.0156H16.0645V32.3408Z" fill="white"/>
<path d="M18.7266 24.3525H21.3891V27.0151H18.7266V24.3525Z" fill="white"/>
<path d="M8.07663 29.6777H5.41406V35.0029H8.07663C8.07663 34.3587 8.07663 30.3264 8.07663 29.6777Z" fill="white"/>
<path d="M5.41406 37.666H8.07663V40.3286H5.41406V37.666Z" fill="white"/>
<path d="M21.3887 5.71484H24.0512V8.37741H21.3887V5.71484Z" fill="white"/>
<path d="M21.3887 16.3652H24.0512C24.0512 15.721 24.0512 11.6887 24.0512 11.04H21.3887V16.3652Z" fill="white"/>
<path d="M24.0512 21.6899V19.0273H21.3887V24.3525H32.0389V21.6899H24.0512Z" fill="white"/>
</g>
<defs>
<clipPath id="clip0_216_8416">
<rect width="45.4412" height="45.4412" fill="white" transform="translate(0 0.389648)"/>
</clipPath>
</defs>
</svg>
