<svg width="90" height="141" viewBox="0 0 90 141" fill="none" xmlns="http://www.w3.org/2000/svg">
<g clip-path="url(#clip0_274_138)">
<g clip-path="url(#clip1_274_138)">
<path fill-rule="evenodd" clip-rule="evenodd" d="M80.474 114.334C86.5444 109.487 90.2002 100.828 90.2002 89.0714C90.2002 62.5298 71.5666 30.2555 48.5809 16.9847C36.4815 9.99913 25.588 9.67163 17.9834 14.7995L17.981 14.7957L17.8169 14.913C17.6301 15.0417 17.4454 15.1738 17.2627 15.3091L9.91479 20.5609L11.1009 22.4845C8.44872 27.2773 6.96167 33.5157 6.96167 41.0136C6.96167 67.5552 25.5953 99.829 48.5809 113.1C56.5621 117.708 64.0185 119.419 70.3524 118.578L71.6432 120.672L80.4966 114.37L80.474 114.334Z" fill="#F3BB2B"/>
<path d="M80.474 114.334L80.0061 113.748L79.4828 114.165L79.8388 114.732L80.474 114.334ZM17.9834 14.7995L17.3482 15.1982L17.7602 15.8546L18.4027 15.4213L17.9834 14.7995ZM17.981 14.7957L18.6163 14.3969L18.1928 13.7224L17.5449 14.1855L17.981 14.7957ZM17.8169 14.913L18.2425 15.5307L18.253 15.5232L17.8169 14.913ZM17.2627 15.3091L17.6989 15.9194L17.7092 15.9117L17.2627 15.3091ZM9.91479 20.5609L9.47869 19.9508L8.90869 20.3582L9.27639 20.9546L9.91479 20.5609ZM11.1009 22.4845L11.7571 22.8476L11.9694 22.464L11.7393 22.0909L11.1009 22.4845ZM70.3524 118.578L70.9908 118.185L70.7356 117.771L70.2537 117.835L70.3524 118.578ZM71.6432 120.672L71.0048 121.065L71.4253 121.747L72.0781 121.283L71.6432 120.672ZM80.4966 114.37L80.9315 114.981L81.508 114.57L81.1318 113.971L80.4966 114.37ZM89.4502 89.0714C89.4502 100.686 85.84 109.09 80.0061 113.748L80.942 114.92C87.2489 109.884 90.9502 100.969 90.9502 89.0714H89.4502ZM48.2059 17.6342C59.5579 24.1883 69.8775 35.4652 77.3607 48.4265C84.8439 61.3878 89.4502 75.9632 89.4502 89.0714H90.9502C90.9502 75.638 86.2397 60.8054 78.6597 47.6765C71.0797 34.5476 60.5896 23.0519 48.9559 16.3352L48.2059 17.6342ZM18.4027 15.4213C25.6837 10.5117 36.2502 10.7316 48.2059 17.6342L48.9559 16.3352C36.7128 9.26671 25.4924 8.83151 17.5641 14.1776L18.4027 15.4213ZM18.6186 14.4007L18.6163 14.3969L17.3458 15.1944L17.3482 15.1982L18.6186 14.4007ZM17.5449 14.1855L17.3807 14.3029L18.253 15.5232L18.4172 15.4059L17.5449 14.1855ZM17.7092 15.9117C17.885 15.7815 18.0628 15.6545 18.2425 15.5307L17.3912 14.2955C17.1974 14.4291 17.0058 14.5661 16.8162 14.7065L17.7092 15.9117ZM16.8266 14.6989L9.47869 19.9508L10.3509 21.1711L17.6989 15.9194L16.8266 14.6989ZM9.27639 20.9546L10.4625 22.8781L11.7393 22.0909L10.5532 20.1673L9.27639 20.9546ZM7.71167 41.0136C7.71167 33.6107 9.18029 27.5043 11.7571 22.8476L10.4446 22.1214C7.71716 27.0504 6.21167 33.4207 6.21167 41.0136H7.71167ZM48.9559 112.451C37.6039 105.897 27.2844 94.6198 19.8012 81.6585C12.318 68.6972 7.71167 54.1218 7.71167 41.0136H6.21167C6.21167 54.447 10.9222 69.2796 18.5022 82.4085C26.0821 95.5374 36.5723 107.033 48.2059 113.75L48.9559 112.451ZM70.2537 117.835C64.1281 118.648 56.8381 117.002 48.9559 112.451L48.2059 113.75C56.286 118.415 63.9089 120.19 70.4511 119.322L70.2537 117.835ZM69.714 118.972L71.0048 121.065L72.2815 120.278L70.9908 118.185L69.714 118.972ZM72.0781 121.283L80.9315 114.981L80.0616 113.759L71.2082 120.061L72.0781 121.283ZM81.1318 113.971L81.1092 113.935L79.8388 114.732L79.8614 114.768L81.1318 113.971Z" fill="#060606"/>
<mask id="mask0_274_138" style="mask-type:alpha" maskUnits="userSpaceOnUse" x="6" y="10" width="85" height="112">
<path fill-rule="evenodd" clip-rule="evenodd" d="M80.474 114.326C86.5444 109.479 90.2002 100.82 90.2002 89.0636C90.2002 62.522 71.5666 30.2477 48.5809 16.9769C36.4815 9.99132 25.588 9.66382 17.9834 14.7917L17.981 14.7879L17.8169 14.9052C17.6301 15.0339 17.4454 15.166 17.2627 15.3013L9.91479 20.5531L11.1009 22.4767C8.44872 27.2695 6.96167 33.5079 6.96167 41.0058C6.96167 67.5474 25.5953 99.822 48.5809 113.092C56.5621 117.7 64.0185 119.411 70.3524 118.57L71.6432 120.664L80.4966 114.362L80.474 114.326Z" fill="#B0F127"/>
<path d="M80.474 114.326L80.0061 113.74L79.4828 114.158L79.8388 114.725L80.474 114.326ZM17.9834 14.7917L17.3482 15.1904L17.7602 15.8468L18.4027 15.4135L17.9834 14.7917ZM17.981 14.7879L18.6163 14.3891L18.1928 13.7146L17.5449 14.1777L17.981 14.7879ZM17.8169 14.9052L18.2425 15.5229L18.253 15.5154L17.8169 14.9052ZM17.2627 15.3013L17.6989 15.9116L17.7092 15.9039L17.2627 15.3013ZM9.91479 20.5531L9.47869 19.943L8.90869 20.3504L9.27639 20.9468L9.91479 20.5531ZM11.1009 22.4767L11.7571 22.8398L11.9694 22.4562L11.7393 22.083L11.1009 22.4767ZM70.3524 118.57L70.9908 118.177L70.7356 117.763L70.2537 117.827L70.3524 118.57ZM71.6432 120.664L71.0048 121.057L71.4253 121.739L72.0781 121.275L71.6432 120.664ZM80.4966 114.362L80.9315 114.973L81.508 114.562L81.1318 113.963L80.4966 114.362ZM89.4502 89.0636C89.4502 100.678 85.84 109.082 80.0061 113.74L80.942 114.912C87.2489 109.877 90.9502 100.961 90.9502 89.0636H89.4502ZM48.2059 17.6264C59.5579 24.1805 69.8775 35.4574 77.3607 48.4187C84.8439 61.38 89.4502 75.9554 89.4502 89.0636H90.9502C90.9502 75.6302 86.2397 60.7976 78.6597 47.6687C71.0797 34.5398 60.5896 23.0441 48.9559 16.3274L48.2059 17.6264ZM18.4027 15.4135C25.6837 10.5039 36.2502 10.7238 48.2059 17.6264L48.9559 16.3274C36.7128 9.25883 25.4924 8.82373 17.5641 14.1698L18.4027 15.4135ZM18.6186 14.3929L18.6163 14.3891L17.3458 15.1866L17.3482 15.1904L18.6186 14.3929ZM17.5449 14.1777L17.3807 14.2951L18.253 15.5154L18.4172 15.398L17.5449 14.1777ZM17.7092 15.9039C17.885 15.7737 18.0628 15.6467 18.2425 15.5229L17.3912 14.2877C17.1974 14.4212 17.0058 14.5582 16.8162 14.6987L17.7092 15.9039ZM16.8266 14.6911L9.47869 19.943L10.3509 21.1633L17.6989 15.9116L16.8266 14.6911ZM9.27639 20.9468L10.4625 22.8703L11.7393 22.083L10.5532 20.1595L9.27639 20.9468ZM7.71167 41.0058C7.71167 33.6029 9.18029 27.4965 11.7571 22.8398L10.4446 22.1135C7.71716 27.0425 6.21167 33.4128 6.21167 41.0058H7.71167ZM48.9559 112.443C37.6039 105.889 27.2844 94.612 19.8012 81.6507C12.318 68.6894 7.71167 54.114 7.71167 41.0058H6.21167C6.21167 54.4392 10.9222 69.2718 18.5022 82.4007C26.0821 95.5296 36.5723 107.025 48.2059 113.742L48.9559 112.443ZM70.2537 117.827C64.1281 118.64 56.8381 116.994 48.9559 112.443L48.2059 113.742C56.286 118.407 63.9089 120.182 70.4511 119.314L70.2537 117.827ZM69.714 118.964L71.0048 121.057L72.2815 120.27L70.9908 118.177L69.714 118.964ZM72.0781 121.275L80.9315 114.973L80.0616 113.751L71.2082 120.053L72.0781 121.275ZM81.1318 113.963L81.1092 113.927L79.8388 114.725L79.8614 114.761L81.1318 113.963Z" fill="#060606"/>
</mask>
<g mask="url(#mask0_274_138)">
<path d="M139.91 62.543L51.8679 113.374L51.8679 157.087L139.91 106.256L139.91 62.543Z" fill="#F3BB2B"/>
</g>
<path d="M80.474 114.334L80.0061 113.748L79.4828 114.165L79.8388 114.732L80.474 114.334ZM17.9834 14.7995L17.3482 15.1982L17.7602 15.8546L18.4027 15.4213L17.9834 14.7995ZM17.981 14.7957L18.6163 14.3969L18.1928 13.7224L17.5449 14.1855L17.981 14.7957ZM17.8169 14.913L18.2425 15.5307L18.253 15.5232L17.8169 14.913ZM17.2627 15.3091L17.6989 15.9194L17.7092 15.9117L17.2627 15.3091ZM9.91479 20.5609L9.47869 19.9508L8.90869 20.3582L9.27639 20.9546L9.91479 20.5609ZM11.1009 22.4845L11.7571 22.8476L11.9694 22.464L11.7393 22.0909L11.1009 22.4845ZM70.3524 118.578L70.9908 118.185L70.7356 117.771L70.2537 117.835L70.3524 118.578ZM71.6432 120.672L71.0048 121.065L71.4253 121.747L72.0781 121.283L71.6432 120.672ZM80.4966 114.37L80.9315 114.981L81.508 114.57L81.1318 113.971L80.4966 114.37ZM89.4502 89.0714C89.4502 100.686 85.84 109.09 80.0061 113.748L80.942 114.92C87.2489 109.884 90.9502 100.969 90.9502 89.0714H89.4502ZM48.2059 17.6342C59.5579 24.1883 69.8775 35.4652 77.3607 48.4265C84.8439 61.3878 89.4502 75.9632 89.4502 89.0714H90.9502C90.9502 75.638 86.2397 60.8054 78.6597 47.6765C71.0797 34.5476 60.5896 23.0519 48.9559 16.3352L48.2059 17.6342ZM18.4027 15.4213C25.6837 10.5117 36.2502 10.7316 48.2059 17.6342L48.9559 16.3352C36.7128 9.26671 25.4924 8.83151 17.5641 14.1776L18.4027 15.4213ZM18.6186 14.4007L18.6163 14.3969L17.3458 15.1944L17.3482 15.1982L18.6186 14.4007ZM17.5449 14.1855L17.3807 14.3029L18.253 15.5232L18.4172 15.4059L17.5449 14.1855ZM17.7092 15.9117C17.885 15.7815 18.0628 15.6545 18.2425 15.5307L17.3912 14.2955C17.1974 14.4291 17.0058 14.5661 16.8162 14.7065L17.7092 15.9117ZM16.8266 14.6989L9.47869 19.9508L10.3509 21.1711L17.6989 15.9194L16.8266 14.6989ZM9.27639 20.9546L10.4625 22.8781L11.7393 22.0909L10.5532 20.1673L9.27639 20.9546ZM7.71167 41.0136C7.71167 33.6107 9.18029 27.5043 11.7571 22.8476L10.4446 22.1214C7.71716 27.0504 6.21167 33.4207 6.21167 41.0136H7.71167ZM48.9559 112.451C37.6039 105.897 27.2844 94.6198 19.8012 81.6585C12.318 68.6972 7.71167 54.1218 7.71167 41.0136H6.21167C6.21167 54.447 10.9222 69.2796 18.5022 82.4085C26.0821 95.5374 36.5723 107.033 48.2059 113.75L48.9559 112.451ZM70.2537 117.835C64.1281 118.648 56.8381 117.002 48.9559 112.451L48.2059 113.75C56.286 118.415 63.9089 120.19 70.4511 119.322L70.2537 117.835ZM69.714 118.972L71.0048 121.065L72.2815 120.278L70.9908 118.185L69.714 118.972ZM72.0781 121.283L80.9315 114.981L80.0616 113.759L71.2082 120.061L72.0781 121.283ZM81.1318 113.971L81.1092 113.935L79.8388 114.732L79.8614 114.768L81.1318 113.971Z" fill="#060606"/>
<path d="M40.9218 118.555C63.9075 131.826 82.5411 121.068 82.5411 94.5264C82.5411 67.9848 63.9075 35.7105 40.9218 22.4397C17.9361 9.16893 -0.697449 19.927 -0.69745 46.4686C-0.69745 73.0102 17.9361 105.285 40.9218 118.555Z" fill="white"/>
<path d="M40.9218 118.555C63.9075 131.826 82.5411 121.068 82.5411 94.5264C82.5411 67.9848 63.9075 35.7105 40.9218 22.4397C17.9361 9.16893 -0.697449 19.927 -0.69745 46.4686C-0.69745 73.0102 17.9361 105.285 40.9218 118.555Z" stroke="#060606" stroke-width="1.5"/>
<path d="M44.09 66.8546L45.3483 61.4964L53.8056 63.4826L55.723 55.3185L32.6933 49.9099L30.7759 58.0741L39.2343 60.0605L37.9769 65.4148C30.9953 64.2581 25.3633 65.0163 24.8083 67.3796C24.2534 69.7422 28.9611 72.9295 35.7249 75.0035L31.694 92.1674L37.8096 93.6037L41.8408 76.439C48.8105 77.592 54.4317 76.8322 54.9862 74.4712C55.5407 72.1102 50.8453 68.9276 44.0911 66.8574M42.1825 74.984L42.1834 74.98C42.0073 74.9555 41.1027 74.8241 39.1284 74.3605C37.5502 73.9898 36.4551 73.6642 36.0709 73.5428L36.0692 73.55C30.0876 71.7339 25.9138 69.1374 26.3444 67.3038C26.7751 65.4703 31.668 65.0047 37.8329 66.0405L36.4277 72.0238C36.8162 72.1564 37.9312 72.5213 39.5011 72.89C41.3871 73.3329 42.3622 73.442 42.5417 73.4596L43.9469 67.4764C49.9159 69.2911 54.0789 71.8868 53.6498 73.714C53.2206 75.5411 48.3356 76.0127 42.1844 74.981" fill="#060606"/>
</g>
</g>
<defs>
<clipPath id="clip0_274_138">
<rect width="89.98" height="140.31" fill="white"/>
</clipPath>
<clipPath id="clip1_274_138">
<rect width="93" height="145" fill="white" transform="translate(-1.51001 -2.34497)"/>
</clipPath>
</defs>
</svg>
