<svg width="200" height="336" viewBox="0 0 200 336" fill="none" xmlns="http://www.w3.org/2000/svg">
<g clip-path="url(#clip0_46_1483)">
<path d="M188.927 109.177C188.927 169.418 146.634 242.672 94.4635 272.792C42.2927 302.913 1.32716e-06 278.495 0 218.254C-1.32715e-06 158.012 42.2927 84.759 94.4635 54.6382C146.634 24.5174 188.927 48.9352 188.927 109.177ZM23.6159 204.619C23.6159 249.8 55.3354 268.114 94.4635 245.523C133.592 222.932 165.311 167.993 165.311 122.811C165.311 77.6302 133.592 59.3169 94.4635 81.9075C55.3354 104.498 23.6159 159.438 23.6159 204.619Z" fill="#060606"/>
<mask id="mask0_46_1483" style="mask-type:luminance" maskUnits="userSpaceOnUse" x="10" y="49" width="190" height="245">
<path d="M199.245 116.91C199.245 177.152 156.953 250.405 104.782 280.526C52.6111 310.647 10.3184 286.229 10.3184 225.987C10.3184 165.746 52.6111 92.4923 104.782 62.3715C156.953 32.2507 199.245 56.6685 199.245 116.91ZM33.9342 212.353C33.9342 257.534 65.6538 275.847 104.782 253.256C143.91 230.666 175.629 175.726 175.629 130.545C175.629 85.3635 143.91 67.0502 104.782 89.6408C65.6538 112.231 33.9342 167.171 33.9342 212.353Z" fill="white"/>
</mask>
<g mask="url(#mask0_46_1483)">
<path d="M199.245 116.91C199.245 177.152 156.953 250.405 104.782 280.526C52.6111 310.647 10.3184 286.229 10.3184 225.987C10.3184 165.746 52.6111 92.4923 104.782 62.3715C156.953 32.2507 199.245 56.6685 199.245 116.91ZM33.9342 212.353C33.9342 257.534 65.6538 275.847 104.782 253.256C143.91 230.666 175.629 175.726 175.629 130.545C175.629 85.3635 143.91 67.0502 104.782 89.6408C65.6538 112.231 33.9342 167.171 33.9342 212.353Z" fill="#141414" stroke="#060606" stroke-width="3"/>
</g>
<path d="M195.612 148.968C201.025 123.961 200.376 101.047 193.755 83.4359C187.134 65.8243 174.874 54.3968 158.69 50.7536C142.507 47.1105 123.211 51.4342 103.505 63.1192C83.7985 74.8042 64.6692 93.2653 48.7957 115.917C32.9221 138.569 21.0993 164.277 14.9829 189.442C8.86646 214.606 8.76277 237.966 14.6863 256.25C20.6099 274.535 32.264 286.828 48.0167 291.408C63.7694 295.988 82.8316 292.626 102.534 281.793L103.096 254.207C88.3192 262.332 74.0225 264.853 62.208 261.418C50.3935 257.983 41.6529 248.763 37.2102 235.05C32.7675 221.337 32.8453 203.817 37.4326 184.943C42.0199 166.07 50.8871 146.789 62.7922 129.8C74.6974 112.811 89.0443 98.9653 103.824 90.2016C118.603 81.4378 133.075 78.195 145.213 80.9274C157.351 83.6598 166.546 92.2304 171.512 105.439C176.477 118.648 176.964 135.833 172.905 154.588L195.612 148.968Z" fill="white" stroke="#060606" stroke-width="1.5"/>
<path d="M25.7309 157.375C14.9419 182.648 9.58134 208.206 10.3999 230.471C11.2184 252.735 18.1751 270.591 30.2956 281.537C42.4162 292.483 59.0936 295.972 77.9924 291.514C96.8911 287.057 117.065 274.876 135.688 256.679C154.311 238.481 170.451 215.178 181.848 190.033C193.245 164.887 199.328 139.158 199.244 116.45C199.161 93.7416 192.916 75.1906 181.384 63.395C169.852 51.5993 153.61 47.1498 134.933 50.6695L127.395 80.8643C141.403 78.2245 153.584 81.5617 162.233 90.4084C170.883 99.2551 175.566 113.168 175.629 130.2C175.691 147.231 171.129 166.527 162.582 185.387C154.034 204.246 141.929 221.723 127.961 235.371C113.994 249.02 98.8638 258.155 84.6897 261.498C70.5157 264.841 58.0076 262.225 48.9172 254.015C39.8268 245.805 34.6093 232.413 33.9954 215.715C33.3815 199.017 37.4019 179.848 45.4936 160.893L25.7309 157.375Z" fill="#8F6B0D"/>
<path d="M25.7309 157.375C15.0453 182.406 9.68204 207.723 10.3785 229.845C11.075 251.967 17.7971 269.808 29.6206 280.915C41.444 292.022 57.7881 295.849 76.4057 291.871C95.0233 287.893 115 276.304 133.589 258.698L126.388 236.886C112.446 250.09 97.4629 258.782 83.4997 261.765C69.5366 264.749 57.2785 261.879 48.4109 253.548C39.5433 245.218 34.5017 231.837 33.9794 215.246C33.457 198.654 37.4794 179.666 45.4936 160.893L25.7309 157.375Z" fill="#F3BB2B"/>
<path d="M199.245 116.91C199.245 177.152 156.953 250.405 104.782 280.526C52.6111 310.647 10.3184 286.229 10.3184 225.987C10.3184 165.746 52.6111 92.4923 104.782 62.3715C156.953 32.2507 199.245 56.6685 199.245 116.91ZM33.9342 212.353C33.9342 257.534 65.6538 275.847 104.782 253.256C143.91 230.666 175.629 175.726 175.629 130.545C175.629 85.3635 143.91 67.0502 104.782 89.6408C65.6538 112.231 33.9342 167.171 33.9342 212.353Z" stroke="#060606" stroke-width="1.5"/>
</g>
<g clip-path="url(#clip1_46_1483)">
<path fill-rule="evenodd" clip-rule="evenodd" d="M74.1003 207.859C68.8796 203.691 65.7358 196.244 65.7358 186.134C65.7358 163.31 81.7598 135.556 101.526 124.144C111.931 118.137 121.299 117.855 127.838 122.265L127.841 122.261L128.021 122.39C128.155 122.483 128.288 122.578 128.419 122.675L134.777 127.219L133.757 128.874C136.037 132.995 137.316 138.36 137.316 144.808C137.316 167.632 121.292 195.386 101.526 206.798C94.6629 210.76 88.2509 212.231 82.8042 211.508L81.6945 213.308L74.0811 207.889L74.1003 207.859Z" fill="#F3BB2B"/>
<path d="M74.1003 207.858L74.3987 207.485L74.7322 207.751L74.5052 208.113L74.1003 207.858ZM127.838 122.265L128.243 122.519L127.981 122.938L127.571 122.661L127.838 122.265ZM127.841 122.261L127.436 122.007L127.706 121.577L128.119 121.872L127.841 122.261ZM128.021 122.39L127.748 122.783L127.743 122.779L128.021 122.39ZM128.419 122.674L128.141 123.064L128.135 123.059L128.419 122.674ZM134.777 127.219L135.055 126.83L135.419 127.09L135.184 127.47L134.777 127.219ZM133.757 128.874L133.338 129.105L133.203 128.861L133.35 128.623L133.757 128.874ZM82.8042 211.508L82.3971 211.257L82.5598 210.993L82.8672 211.034L82.8042 211.508ZM81.6945 213.308L82.1016 213.559L81.8335 213.994L81.4172 213.698L81.6945 213.308ZM74.0811 207.888L73.8038 208.278L73.4365 208.017L73.6762 207.634L74.0811 207.888ZM66.2141 186.134C66.2141 196.154 69.3292 203.437 74.3987 207.485L73.8018 208.232C68.4307 203.944 65.2576 196.334 65.2576 186.134H66.2141ZM101.765 124.558C91.9719 130.212 83.0788 139.934 76.6332 151.099C70.1868 162.263 66.2141 174.826 66.2141 186.134H65.2576C65.2576 174.618 69.2966 161.892 75.8048 150.62C82.3121 139.349 91.314 129.488 101.287 123.73L101.765 124.558ZM127.571 122.661C121.238 118.391 112.078 118.604 101.765 124.558L101.287 123.73C111.783 117.67 121.36 117.319 128.106 121.868L127.571 122.661ZM127.433 122.011L127.436 122.007L128.246 122.515L128.243 122.519L127.433 122.011ZM128.119 121.872L128.299 122.001L127.743 122.779L127.563 122.65L128.119 121.872ZM128.135 123.059C128.008 122.965 127.879 122.873 127.748 122.783L128.293 121.997C128.431 122.092 128.567 122.19 128.703 122.289L128.135 123.059ZM128.697 122.285L135.055 126.83L134.499 127.608L128.141 123.064L128.697 122.285ZM135.184 127.47L134.164 129.125L133.35 128.623L134.37 126.968L135.184 127.47ZM136.838 144.807C136.838 138.42 135.571 133.14 133.338 129.105L134.175 128.642C136.504 132.851 137.794 138.299 137.794 144.807H136.838ZM101.287 206.384C111.08 200.729 119.973 191.007 126.419 179.843C132.865 168.678 136.838 156.116 136.838 144.807H137.794C137.794 156.323 133.755 169.05 127.248 180.321C120.74 191.593 111.738 201.454 101.765 207.212L101.287 206.384ZM82.8672 211.034C88.181 211.739 94.4869 210.309 101.287 206.384L101.765 207.212C94.8389 211.211 88.3208 212.723 82.7413 211.982L82.8672 211.034ZM83.2113 211.759L82.1016 213.559L81.2875 213.057L82.3971 211.257L83.2113 211.759ZM81.4172 213.698L73.8038 208.278L74.3585 207.499L81.9719 212.918L81.4172 213.698ZM73.6762 207.634L73.6954 207.604L74.5052 208.113L74.4861 208.143L73.6762 207.634Z" fill="#060606"/>
<mask id="mask1_46_1483" style="mask-type:alpha" maskUnits="userSpaceOnUse" x="65" y="118" width="73" height="96">
<path fill-rule="evenodd" clip-rule="evenodd" d="M74.0997 207.857C68.879 203.689 65.7352 196.242 65.7352 186.133C65.7352 163.309 81.7592 135.555 101.525 124.143C111.93 118.135 121.298 117.854 127.838 122.264L127.84 122.26L128.02 122.389C128.154 122.481 128.287 122.576 128.418 122.673L134.777 127.218L133.756 128.872C136.037 132.994 137.315 138.358 137.315 144.806C137.315 167.63 121.292 195.384 101.525 206.796C94.6622 210.759 88.2503 212.23 82.8036 211.507L81.6939 213.307L74.0805 207.887L74.0997 207.857Z" fill="#B0F127"/>
<path d="M74.0997 207.857L74.3981 207.484L74.7316 207.749L74.5046 208.112L74.0997 207.857ZM127.838 122.264L128.243 122.518L127.98 122.937L127.57 122.66L127.838 122.264ZM127.84 122.26L127.435 122.006L127.705 121.575L128.118 121.871L127.84 122.26ZM128.02 122.389L127.748 122.782L127.742 122.778L128.02 122.389ZM128.418 122.673L128.14 123.062L128.135 123.058L128.418 122.673ZM134.777 127.218L135.055 126.828L135.418 127.088L135.184 127.469L134.777 127.218ZM133.756 128.873L133.338 129.104L133.202 128.859L133.349 128.622L133.756 128.873ZM82.8036 211.507L82.3965 211.256L82.5593 210.992L82.8666 211.033L82.8036 211.507ZM81.6939 213.307L82.101 213.557L81.8329 213.992L81.4166 213.696L81.6939 213.307ZM74.0805 207.887L73.8031 208.277L73.4358 208.015L73.6756 207.633L74.0805 207.887ZM66.2135 186.133C66.2135 196.153 69.3285 203.436 74.3981 207.484L73.8012 208.231C68.4301 203.943 65.257 196.333 65.257 186.133H66.2135ZM101.765 124.557C91.9712 130.211 83.0782 139.933 76.6325 151.097C70.1862 162.262 66.2135 174.825 66.2135 186.133H65.257C65.257 174.617 69.296 161.891 75.8042 150.619C82.3115 139.348 91.3134 129.486 101.286 123.729L101.765 124.557ZM127.57 122.66C121.237 118.39 112.078 118.603 101.765 124.557L101.286 123.729C111.783 117.668 121.359 117.318 128.105 121.867L127.57 122.66ZM127.433 122.009L127.435 122.006L128.245 122.514L128.243 122.518L127.433 122.009ZM128.118 121.871L128.298 122L127.742 122.778L127.562 122.649L128.118 121.871ZM128.135 123.058C128.007 122.964 127.878 122.872 127.748 122.782L128.293 121.996C128.431 122.091 128.567 122.189 128.702 122.288L128.135 123.058ZM128.696 122.284L135.055 126.828L134.498 127.607L128.14 123.062L128.696 122.284ZM135.184 127.469L134.163 129.123L133.349 128.622L134.369 126.967L135.184 127.469ZM136.837 144.806C136.837 138.419 135.57 133.139 133.338 129.104L134.175 128.641C136.503 132.849 137.794 138.298 137.794 144.806H136.837ZM101.286 206.382C111.08 200.728 119.973 191.006 126.419 179.841C132.864 168.677 136.837 156.114 136.837 144.806H137.794C137.794 156.322 133.755 169.048 127.247 180.32C120.739 191.591 111.738 201.452 101.765 207.211L101.286 206.382ZM82.8666 211.033C88.1804 211.738 94.4863 210.308 101.286 206.382L101.765 207.211C94.8383 211.21 88.3202 212.721 82.7407 211.981L82.8666 211.033ZM83.2107 211.758L82.101 213.557L81.2868 213.056L82.3965 211.256L83.2107 211.758ZM81.4166 213.696L73.8031 208.277L74.3579 207.498L81.9713 212.917L81.4166 213.696ZM73.6756 207.633L73.6947 207.603L74.5046 208.112L74.4855 208.142L73.6756 207.633Z" fill="#060606"/>
</mask>
<g mask="url(#mask1_46_1483)">
<path d="M22.9881 163.324L98.6985 207.035L98.6985 244.625L22.9881 200.914L22.9881 163.324Z" fill="#F3BB2B"/>
</g>
<path d="M74.1003 207.858L74.3987 207.485L74.7322 207.751L74.5052 208.113L74.1003 207.858ZM127.838 122.265L128.243 122.519L127.981 122.938L127.571 122.661L127.838 122.265ZM127.841 122.261L127.436 122.007L127.706 121.577L128.119 121.872L127.841 122.261ZM128.021 122.39L127.748 122.783L127.743 122.779L128.021 122.39ZM128.419 122.674L128.141 123.064L128.135 123.059L128.419 122.674ZM134.777 127.219L135.055 126.83L135.419 127.09L135.184 127.47L134.777 127.219ZM133.757 128.874L133.338 129.105L133.203 128.861L133.35 128.623L133.757 128.874ZM82.8042 211.508L82.3971 211.257L82.5598 210.993L82.8672 211.034L82.8042 211.508ZM81.6945 213.308L82.1016 213.559L81.8335 213.994L81.4172 213.698L81.6945 213.308ZM74.0811 207.888L73.8038 208.278L73.4365 208.017L73.6762 207.634L74.0811 207.888ZM66.2141 186.134C66.2141 196.154 69.3292 203.437 74.3987 207.485L73.8018 208.232C68.4307 203.944 65.2576 196.334 65.2576 186.134H66.2141ZM101.765 124.558C91.9719 130.212 83.0788 139.934 76.6332 151.099C70.1868 162.263 66.2141 174.826 66.2141 186.134H65.2576C65.2576 174.618 69.2966 161.892 75.8048 150.62C82.3121 139.349 91.314 129.488 101.287 123.73L101.765 124.558ZM127.571 122.661C121.238 118.391 112.078 118.604 101.765 124.558L101.287 123.73C111.783 117.67 121.36 117.319 128.106 121.868L127.571 122.661ZM127.433 122.011L127.436 122.007L128.246 122.515L128.243 122.519L127.433 122.011ZM128.119 121.872L128.299 122.001L127.743 122.779L127.563 122.65L128.119 121.872ZM128.135 123.059C128.008 122.965 127.879 122.873 127.748 122.783L128.293 121.997C128.431 122.092 128.567 122.19 128.703 122.289L128.135 123.059ZM128.697 122.285L135.055 126.83L134.499 127.608L128.141 123.064L128.697 122.285ZM135.184 127.47L134.164 129.125L133.35 128.623L134.37 126.968L135.184 127.47ZM136.838 144.807C136.838 138.42 135.571 133.14 133.338 129.105L134.175 128.642C136.504 132.851 137.794 138.299 137.794 144.807H136.838ZM101.287 206.384C111.08 200.729 119.973 191.007 126.419 179.843C132.865 168.678 136.838 156.116 136.838 144.807H137.794C137.794 156.323 133.755 169.05 127.248 180.321C120.74 191.593 111.738 201.454 101.765 207.212L101.287 206.384ZM82.8672 211.034C88.181 211.739 94.4869 210.309 101.287 206.384L101.765 207.212C94.8389 211.211 88.3208 212.723 82.7413 211.982L82.8672 211.034ZM83.2113 211.759L82.1016 213.559L81.2875 213.057L82.3971 211.257L83.2113 211.759ZM81.4172 213.698L73.8038 208.278L74.3585 207.499L81.9719 212.918L81.4172 213.698ZM73.6762 207.634L73.6954 207.604L74.5052 208.113L74.4861 208.143L73.6762 207.634Z" fill="#060606"/>
<path d="M108.113 211.492C88.3471 222.904 72.3233 213.653 72.3233 190.829C72.3233 168.004 88.3471 140.25 108.113 128.838C127.88 117.426 143.903 126.678 143.903 149.502C143.903 172.326 127.88 200.08 108.113 211.492Z" fill="white" stroke="#060606" stroke-width="0.956521"/>
<mask id="mask2_46_1483" style="mask-type:alpha" maskUnits="userSpaceOnUse" x="71" y="123" width="74" height="94">
<path d="M108.112 211.492C88.3457 222.904 72.322 213.653 72.322 190.829C72.322 168.004 88.3457 140.25 108.112 128.838C127.878 117.426 143.902 126.678 143.902 149.502C143.902 172.326 127.878 200.08 108.112 211.492Z" fill="#B0F127" stroke="#060606" stroke-width="0.956521"/>
</mask>
<g mask="url(#mask2_46_1483)">
<path d="M108.112 211.492C88.3457 222.904 72.322 213.653 72.322 190.829C72.322 168.004 88.3457 140.25 108.112 128.838C127.878 117.426 143.902 126.678 143.902 149.502C143.902 172.326 127.878 200.08 108.112 211.492Z" stroke="#060606" stroke-width="0.956521"/>
</g>
<path d="M118.302 171.301C118.13 171.204 117.894 171.226 117.644 171.371L94.9486 184.473C94.5338 184.713 94.3264 185.404 94.6197 185.569L99.1029 188.094C99.2745 188.191 99.5105 188.169 99.7607 188.024L122.456 174.921C122.871 174.682 123.078 173.991 122.785 173.826L118.302 171.301Z" fill="#060606"/>
<path d="M118.302 152.236C118.123 152.143 117.887 152.165 117.644 152.306L94.9486 165.409C94.5338 165.648 94.3264 166.339 94.6197 166.504L99.1029 169.029C99.2745 169.126 99.5105 169.104 99.7607 168.959L122.456 155.856C122.871 155.617 123.078 154.926 122.785 154.761L118.302 152.236Z" fill="#060606"/>
<path d="M99.1029 172.806C99.2745 172.511 99.5105 172.26 99.7607 172.116L122.456 159.013C122.871 158.773 123.078 159.225 122.785 159.728L118.302 167.43C118.13 167.725 117.894 167.976 117.644 168.12L94.9486 181.223C94.5338 181.462 94.3264 181.012 94.6197 180.508L99.1029 172.806Z" fill="#060606"/>
</g>
<defs>
<clipPath id="clip0_46_1483">
<rect width="200" height="336" fill="white"/>
</clipPath>
<clipPath id="clip1_46_1483">
<rect width="79.7101" height="124.348" fill="white" transform="matrix(-1 0 0 1 144.86 108.175)"/>
</clipPath>
</defs>
</svg>
