<svg width="123" height="194" viewBox="0 0 123 194" fill="none" xmlns="http://www.w3.org/2000/svg">
<g clip-path="url(#clip0_46_1100)">
<g clip-path="url(#clip1_46_1100)">
<g clip-path="url(#clip2_46_1100)">
<path fill-rule="evenodd" clip-rule="evenodd" d="M109.617 155.638C117.804 149.103 122.734 137.425 122.734 121.571C122.734 85.7783 97.6056 42.255 66.6085 24.3588C50.2917 14.9383 35.6012 14.4967 25.3461 21.4121L25.3423 21.406L25.0597 21.608C24.8497 21.7536 24.6416 21.9023 24.4354 22.0542L14.4646 29.1807L16.0648 31.7759C12.4884 38.2392 10.4832 46.6517 10.4832 56.7628C10.4832 92.5552 35.6113 136.078 66.6085 153.975C77.3712 160.188 87.4263 162.496 95.9677 161.362L97.7079 164.184L109.647 155.686L109.617 155.638Z" fill="#F3BB2B"/>
<mask id="mask0_46_1100" style="mask-type:alpha" maskUnits="userSpaceOnUse" x="10" y="16" width="113" height="149">
<path fill-rule="evenodd" clip-rule="evenodd" d="M109.618 155.636C117.805 149.101 122.735 137.423 122.735 121.569C122.735 85.7762 97.6066 42.253 66.6094 24.3568C50.2927 14.9363 35.6022 14.4947 25.3471 21.4101L25.3432 21.404L25.0606 21.6059C24.8507 21.7516 24.6426 21.9003 24.4364 22.0521L14.4656 29.1787L16.0658 31.7738C12.4894 38.2371 10.4841 46.6496 10.4841 56.7607C10.4841 92.5531 35.6123 136.076 66.6094 153.973C77.3721 160.187 87.4273 162.494 95.9687 161.36L97.7088 164.182L109.648 155.684L109.618 155.636Z" fill="#B0F127"/>
</mask>
<g mask="url(#mask0_46_1100)">
<path d="M189.77 85.8004L71.0427 154.348L71.0427 213.296L189.77 144.749L189.77 85.8004Z" fill="#F3BB2B"/>
</g>
<path d="M56.2783 161.336C87.2755 179.232 112.404 164.725 112.404 128.932C112.404 93.1398 87.2755 49.6166 56.2783 31.7204C25.2812 13.8241 0.153076 28.3319 0.153075 64.1243C0.153074 99.9167 25.2812 143.44 56.2783 161.336Z" fill="white"/>
<mask id="mask1_46_1100" style="mask-type:alpha" maskUnits="userSpaceOnUse" x="0" y="24" width="113" height="146">
<path d="M56.2803 161.336C87.2774 179.232 112.406 164.725 112.406 128.932C112.406 93.1398 87.2774 49.6166 56.2803 31.7204C25.2832 13.8241 0.155029 28.3319 0.155028 64.1243C0.155027 99.9167 25.2832 143.44 56.2803 161.336Z" fill="#B0F127"/>
</mask>
<g mask="url(#mask1_46_1100)">
<path d="M56.2743 63.6306L55.8923 64.9091V108.408L56.2743 109.069L73.7607 107.229L56.2743 63.6306Z" fill="#060606"/>
<path d="M56.2763 63.6309L38.7898 87.0379L56.2762 109.069V87.9561L56.2763 63.6309Z" fill="#060606"/>
<path d="M56.2755 112.895L56.0603 113.074V128.569L56.2755 129.419L73.7724 111.068L56.2755 112.895Z" fill="#060606"/>
<path d="M56.2762 129.414L56.2763 112.89L38.7898 90.8652L56.2762 129.414Z" fill="#060606"/>
<path d="M56.2761 109.072L73.7623 107.232L56.2761 87.959V109.072Z" fill="#060606"/>
<path d="M38.7898 87.0388L56.276 109.07V87.9568L38.7898 87.0388Z" fill="#060606"/>
</g>
<path d="M56.2783 161.336C87.2755 179.232 112.404 164.725 112.404 128.932C112.404 93.1398 87.2755 49.6166 56.2783 31.7204C25.2812 13.8241 0.153076 28.3319 0.153075 64.1243C0.153074 99.9167 25.2812 143.44 56.2783 161.336Z" stroke="#060606" stroke-width="1.5"/>
</g>
</g>
</g>
<defs>
<clipPath id="clip0_46_1100">
<rect width="122.98" height="193.42" fill="white"/>
</clipPath>
<clipPath id="clip1_46_1100">
<rect width="122.98" height="193.42" fill="white"/>
</clipPath>
<clipPath id="clip2_46_1100">
<rect width="124" height="195" fill="white" transform="translate(-0.51001 -0.790039)"/>
</clipPath>
</defs>
</svg>
