<svg width="830" height="560" viewBox="0 0 830 560" fill="none" xmlns="http://www.w3.org/2000/svg">
<g clip-path="url(#clip0_46_1484)">
<g clip-path="url(#clip1_46_1484)">
<path d="M34.6989 277.084C15.5352 266.02 15.5352 248.082 34.6989 237.017L263.305 105.032C276.772 97.257 298.605 97.257 312.072 105.032L800.514 387.034C816.57 396.304 816.57 411.333 800.514 420.603L566.28 555.838C552.814 563.613 530.981 563.613 517.514 555.838L34.6989 277.084Z" fill="#E7E7E7"/>
<mask id="mask0_46_1484" style="mask-type:alpha" maskUnits="userSpaceOnUse" x="20" y="99" width="793" height="463">
<path d="M34.6989 277.083C15.5352 266.019 15.5352 248.081 34.6989 237.016L263.305 105.031C276.772 97.256 298.605 97.256 312.072 105.031L800.514 387.033C816.57 396.303 816.57 411.332 800.514 420.602L566.281 555.837C552.814 563.612 530.981 563.612 517.514 555.837L34.6989 277.083Z" fill="white"/>
</mask>
<g mask="url(#mask0_46_1484)">
<path d="M288.451 58.7222H10.5996V519.873H288.451V58.7222Z" fill="white"/>
</g>
<path d="M34.6989 277.084C15.5352 266.02 15.5352 248.082 34.6989 237.017L263.305 105.032C276.772 97.257 298.605 97.257 312.072 105.032L800.514 387.034C816.57 396.304 816.57 411.333 800.514 420.603L566.28 555.838C552.814 563.613 530.981 563.613 517.514 555.838L34.6989 277.084Z" stroke="#060606" stroke-width="1.5"/>
<mask id="mask1_46_1484" style="mask-type:alpha" maskUnits="userSpaceOnUse" x="111" y="155" width="704" height="407">
<path d="M359.269 160.994L121.309 298.381C107.842 306.156 107.842 318.761 121.309 326.536L517.581 555.324C531.047 563.099 552.881 563.099 566.347 555.324L804.307 417.937C817.773 410.162 817.773 397.557 804.307 389.782L408.035 160.994C394.569 153.219 372.735 153.219 359.269 160.994Z" fill="#C0C0C0"/>
</mask>
<g mask="url(#mask1_46_1484)">
<path d="M412.343 447.352L622.936 325.766C623.972 325.168 624.812 325.652 624.812 326.849V569.36C624.812 570.556 623.972 572.011 622.936 572.609L414.218 693.112C413.183 693.71 412.343 693.225 412.343 692.029V447.352Z" fill="white"/>
<path d="M415.123 449.185L232.686 343.855C231.65 343.257 230.811 343.741 230.811 344.938V570.209C230.811 571.405 231.65 572.859 232.686 573.457L413.247 677.704C414.283 678.302 415.123 677.818 415.123 676.621V449.185Z" fill="#C0C0C0"/>
<path d="M426.035 225.994L237.193 335.022C228.906 339.807 228.906 347.564 237.193 352.348L400.607 446.696C408.894 451.48 422.33 451.48 430.617 446.696L619.459 337.667C627.746 332.883 627.746 325.126 619.459 320.341L456.045 225.994C447.758 221.209 434.322 221.209 426.035 225.994Z" fill="#F3BB2B" stroke="#060606" stroke-width="1.5"/>
<path d="M541.296 448.63L644.045 389.307C645.081 388.709 645.921 389.194 645.921 390.39V525.482C645.921 526.678 645.081 528.133 644.045 528.731L543.172 586.971C542.136 587.569 541.296 587.084 541.296 585.888V448.63Z" fill="white"/>
<path d="M541.296 450.689L516.849 436.574C515.813 435.976 514.974 436.461 514.974 437.657V571.268C514.974 572.464 515.813 573.919 516.849 574.517L539.42 587.548C540.456 588.146 541.296 587.661 541.296 586.465V450.689Z" fill="#C0C0C0"/>
<path d="M602.197 380.803L522.465 426.836C512.457 432.615 512.457 441.984 522.465 447.762C532.474 453.541 548.701 453.541 558.71 447.762L638.442 401.729C648.45 395.951 648.45 386.582 638.442 380.803C628.433 375.025 612.206 375.025 602.197 380.803Z" fill="#060606"/>
<path d="M552.335 435.517L545.898 431.801L543.434 433.223L542.056 432.427L548.46 428.73L549.838 429.526L547.374 430.948L553.811 434.665L552.335 435.517ZM556.606 433.051L550.745 429.667L552.047 428.915L553.48 429.742L553.155 429.717C553.028 429.556 552.945 429.391 552.905 429.222C552.865 429.053 552.883 428.883 552.959 428.714C553.013 428.583 553.1 428.455 553.22 428.332C553.335 428.207 553.477 428.09 553.643 427.981C553.806 427.87 553.987 427.77 554.186 427.68L555.564 428.476C555.351 428.541 555.145 428.641 554.946 428.777C554.747 428.908 554.602 429.048 554.511 429.197C554.417 429.343 554.377 429.489 554.392 429.635C554.403 429.779 554.468 429.922 554.587 430.061C554.703 430.199 554.873 430.333 555.097 430.463L558.093 432.192L556.606 433.051ZM562.754 429.689C562.334 429.932 561.898 430.092 561.446 430.169C560.993 430.242 560.557 430.245 560.138 430.178C559.718 430.107 559.345 429.978 559.02 429.79C558.748 429.633 558.542 429.466 558.401 429.288C558.26 429.111 558.197 428.92 558.211 428.715C558.226 428.506 558.332 428.277 558.531 428.029C558.669 427.857 558.857 427.667 559.096 427.459C559.335 427.25 559.617 427.02 559.942 426.769C560.264 426.516 560.619 426.239 561.006 425.936L560.767 426.412C560.42 426.211 560.082 426.112 559.752 426.114C559.423 426.116 559.063 426.23 558.672 426.456C558.455 426.581 558.282 426.742 558.151 426.938C558.021 427.135 558.043 427.337 558.217 427.546L556.458 428.073C556.122 427.707 556.006 427.319 556.111 426.907C556.216 426.496 556.621 426.086 557.327 425.679C557.844 425.38 558.383 425.161 558.944 425.021C559.505 424.881 560.084 424.864 560.68 424.971C561.013 425.029 561.299 425.115 561.538 425.228C561.777 425.34 562.03 425.474 562.298 425.629L565.88 427.697L564.588 428.442L563.383 427.747L563.817 427.784C563.926 428.177 563.902 428.521 563.747 428.815C563.591 429.106 563.26 429.397 562.754 429.689ZM561.907 428.837C562.178 428.68 562.359 428.522 562.45 428.361C562.54 428.196 562.578 428.047 562.564 427.913C562.553 427.777 562.526 427.674 562.482 427.603C562.399 427.467 562.258 427.335 562.059 427.208C561.86 427.076 561.69 426.97 561.549 426.888L562.092 426.7C561.726 426.995 561.433 427.235 561.212 427.421C560.988 427.605 560.813 427.756 560.686 427.875C560.559 427.994 560.456 428.104 560.377 428.204C560.29 428.321 560.235 428.426 560.214 428.518C560.192 428.605 560.199 428.685 560.235 428.756C560.275 428.825 560.344 428.887 560.442 428.944C560.576 429.021 560.724 429.069 560.887 429.088C561.05 429.102 561.218 429.089 561.391 429.047C561.565 429.005 561.737 428.935 561.907 428.837ZM569.831 425.604C569.292 425.915 568.684 426.109 568.007 426.186C567.331 426.264 566.645 426.233 565.95 426.095C565.259 425.956 564.621 425.716 564.035 425.378C563.438 425.033 563.021 424.661 562.786 424.262C562.551 423.859 562.508 423.46 562.656 423.066C562.804 422.671 563.159 422.311 563.72 421.988C564.277 421.666 564.881 421.474 565.532 421.411C566.184 421.348 566.84 421.395 567.502 421.552C568.165 421.709 568.789 421.956 569.375 422.295C569.961 422.633 570.388 422.995 570.656 423.379C570.927 423.761 571.003 424.143 570.883 424.526C570.764 424.908 570.413 425.267 569.831 425.604ZM568.756 424.707C569.085 424.517 569.273 424.323 569.32 424.125C569.371 423.924 569.306 423.721 569.125 423.517C568.944 423.312 568.676 423.107 568.322 422.903C567.967 422.698 567.613 422.543 567.258 422.439C566.904 422.334 566.556 422.295 566.216 422.32C565.88 422.343 565.558 422.443 565.25 422.621C564.921 422.811 564.731 423.014 564.68 423.232C564.63 423.445 564.689 423.659 564.859 423.874C565.026 424.087 565.272 424.288 565.598 424.476C565.927 424.666 566.276 424.811 566.645 424.911C567.01 425.009 567.374 425.046 567.736 425.021C568.098 424.996 568.438 424.891 568.756 424.707ZM571.253 424.595L567.236 422.276L567.052 422.382L563.253 420.189L564.74 419.331L572.555 423.843L571.253 424.595ZM576.962 421.486C576.361 421.833 575.703 422.065 574.986 422.182C574.27 422.295 573.555 422.296 572.843 422.185C572.13 422.07 571.48 421.844 570.894 421.505C570.254 421.135 569.823 420.741 569.603 420.321C569.382 419.901 569.364 419.487 569.548 419.08C569.729 418.671 570.109 418.299 570.688 417.964C571.303 417.609 571.971 417.391 572.691 417.31C573.411 417.228 574.136 417.279 574.867 417.463C575.598 417.647 576.287 417.961 576.935 418.406L575.475 419.249L574.932 418.936C574.335 418.591 573.81 418.399 573.358 418.359C572.906 418.315 572.465 418.418 572.034 418.666C571.531 418.957 571.314 419.26 571.383 419.575C571.452 419.886 571.784 420.214 572.381 420.559C572.928 420.874 573.469 421.051 574.004 421.088C574.54 421.122 575.037 421.006 575.496 420.741C575.786 420.574 575.97 420.394 576.05 420.202C576.13 420.01 576.104 419.813 575.974 419.613L577.874 419.005C578.188 419.441 578.255 419.883 578.074 420.33C577.897 420.775 577.526 421.16 576.962 421.486ZM572.338 421.06L571.242 420.427L575.127 418.184L576.224 418.817L572.338 421.06ZM582.851 417.898L575.036 413.386L578.162 411.581C578.719 411.26 579.282 411.064 579.85 410.995C580.414 410.924 580.944 410.94 581.44 411.042C581.936 411.145 582.356 411.295 582.699 411.494C583.137 411.746 583.401 412.014 583.492 412.296C583.586 412.576 583.51 412.843 583.264 413.098L582.992 412.941C583.582 412.718 584.174 412.637 584.767 412.7C585.364 412.761 585.879 412.916 586.314 413.167C586.78 413.436 587.104 413.723 587.285 414.028C587.47 414.331 587.488 414.643 587.339 414.962C587.187 415.28 586.845 415.592 586.314 415.899L582.851 417.898ZM582.96 416.231L584.772 415.185C584.971 415.07 585.107 414.943 585.179 414.806C585.248 414.666 585.25 414.527 585.185 414.389C585.12 414.247 584.982 414.115 584.772 413.994C584.588 413.887 584.385 413.814 584.165 413.775C583.944 413.735 583.714 413.736 583.475 413.778C583.236 413.815 583.003 413.9 582.775 414.032L580.963 415.078L582.96 416.231ZM579.584 414.282L581.19 413.355C581.357 413.259 581.476 413.156 581.549 413.048C581.621 412.939 581.636 412.828 581.592 412.716C581.545 412.601 581.426 412.488 581.234 412.377C580.995 412.239 580.72 412.166 580.409 412.158C580.098 412.15 579.801 412.227 579.519 412.39L577.913 413.317L579.584 414.282ZM583.195 409.991L581.893 409.239L583.369 408.387L584.672 409.139L583.195 409.991ZM589.871 413.845L584.01 410.461L585.486 409.609L591.347 412.993L589.871 413.845ZM596.491 410.023C596.161 410.301 595.796 410.55 595.394 410.769C595 410.988 594.586 411.15 594.152 411.255C593.717 411.355 593.278 411.369 592.833 411.295C592.42 411.224 592.073 411.112 591.791 410.957C591.505 410.8 591.187 410.621 590.836 410.418L585.832 407.529L587.308 406.677L592.225 409.516C592.453 409.647 592.661 409.765 592.849 409.87C593.037 409.97 593.22 410.032 593.397 410.055C593.734 410.099 594.054 410.043 594.358 409.889C594.662 409.734 594.964 409.543 595.264 409.315L596.491 410.023ZM587.601 409.704L586.461 409.046L590.629 406.639L591.769 407.297L587.601 409.704ZM600.225 408.055C599.617 408.406 598.96 408.629 598.255 408.723C597.549 408.817 596.847 408.796 596.149 408.66C595.451 408.524 594.809 408.287 594.223 407.949C593.629 407.606 593.219 407.231 592.991 406.824C592.766 406.415 592.739 406.006 592.909 405.599C593.079 405.192 593.463 404.816 594.06 404.471C594.751 404.072 595.505 403.839 596.323 403.772C597.141 403.701 597.917 403.802 598.651 404.076L597.566 405.154C597.175 405.029 596.786 404.979 596.399 405.007C596.015 405.032 595.688 405.123 595.417 405.279C595.105 405.459 594.926 405.65 594.879 405.853C594.829 406.053 594.886 406.256 595.053 406.461C595.216 406.663 595.46 406.858 595.786 407.046C596.296 407.341 596.822 407.515 597.365 407.57C597.908 407.62 598.401 407.516 598.846 407.26C599.179 407.067 599.357 406.877 599.378 406.689C599.4 406.501 599.313 406.301 599.118 406.088L600.941 405.398C601.397 405.854 601.562 406.312 601.435 406.774C601.309 407.235 600.905 407.663 600.225 408.055ZM606.448 404.462C605.858 404.803 605.209 405.025 604.5 405.13C603.791 405.234 603.08 405.225 602.367 405.102C601.654 404.974 600.996 404.736 600.392 404.387C599.78 404.034 599.37 403.651 599.16 403.237C598.946 402.822 598.932 402.41 599.116 402.003C599.301 401.595 599.682 401.225 600.261 400.89C600.851 400.55 601.501 400.327 602.21 400.223C602.922 400.116 603.637 400.126 604.353 400.251C605.066 400.374 605.725 400.61 606.329 400.959C606.937 401.31 607.347 401.694 607.561 402.109C607.774 402.521 607.789 402.932 607.604 403.344C607.42 403.751 607.034 404.124 606.448 404.462ZM605.07 403.666C605.544 403.393 605.737 403.097 605.65 402.78C605.564 402.458 605.269 402.152 604.766 401.862C604.245 401.561 603.709 401.39 603.159 401.348C602.613 401.304 602.107 401.417 601.64 401.686C601.318 401.872 601.126 402.066 601.065 402.269C601.003 402.472 601.05 402.676 601.206 402.883C601.365 403.088 601.615 403.288 601.955 403.485C602.479 403.788 603.015 403.961 603.561 404.005C604.107 404.045 604.61 403.932 605.07 403.666ZM603.886 398.046L602.584 397.294L604.06 396.441L605.362 397.193L603.886 398.046ZM610.561 401.9L604.7 398.516L606.176 397.663L612.038 401.047L610.561 401.9ZM617.659 397.802L614.891 396.204C614.757 396.127 614.58 396.033 614.359 395.922C614.135 395.809 613.88 395.714 613.594 395.637C613.308 395.559 613.008 395.53 612.693 395.549C612.382 395.566 612.069 395.665 611.754 395.847C611.628 395.92 611.512 396.01 611.407 396.116C611.302 396.223 611.244 396.346 611.233 396.486C611.219 396.624 611.28 396.78 611.418 396.956C611.559 397.129 611.812 397.321 612.178 397.532L610.929 397.789C610.466 397.522 610.126 397.217 609.909 396.874C609.692 396.532 609.647 396.18 609.773 395.818C609.904 395.455 610.256 395.107 610.832 394.775C611.291 394.51 611.743 394.338 612.188 394.261C612.633 394.184 613.055 394.168 613.453 394.214C613.855 394.258 614.22 394.335 614.549 394.446C614.875 394.555 615.152 394.666 615.38 394.781C615.608 394.896 615.77 394.982 615.868 395.038L619.157 396.937L617.659 397.802ZM613.654 400.114L607.793 396.73L609.106 395.972L611.049 397.094L611.233 396.987L615.152 399.249L613.654 400.114Z" fill="white"/>
</g>
<path d="M55.7418 251.225C56.3592 250.869 57.0564 250.633 57.8334 250.519C58.6148 250.402 59.407 250.41 60.21 250.545C61.0086 250.677 61.7469 250.939 62.4246 251.33L65.1314 252.893C65.8653 253.317 66.3575 253.765 66.6079 254.239C66.8539 254.71 66.8626 255.178 66.6338 255.645C66.4006 256.108 65.9344 256.542 65.235 256.946C64.7817 257.207 64.2831 257.418 63.7392 257.577C63.1952 257.732 62.593 257.818 61.9325 257.835V256.385C62.2433 256.385 62.5434 256.351 62.8326 256.284C63.1262 256.214 63.3787 256.118 63.5902 255.996C63.927 255.802 64.1407 255.588 64.2313 255.357C64.322 255.12 64.309 254.891 64.1925 254.669C64.0759 254.442 63.8752 254.246 63.5902 254.082L62.2045 253.282L62.8261 253.297C62.8348 253.606 62.7355 253.905 62.5282 254.194C62.3167 254.481 62.0231 254.732 61.6476 254.949C61.0604 255.288 60.4107 255.511 59.6984 255.618C58.9904 255.723 58.2803 255.717 57.5679 255.6C56.8599 255.48 56.2124 255.251 55.6253 254.912C55.0382 254.573 54.6582 254.181 54.4856 253.738C54.3086 253.292 54.328 252.847 54.5438 252.403C54.7554 251.957 55.1547 251.564 55.7418 251.225ZM57.4255 252.197C57.1578 252.352 56.9765 252.531 56.8815 252.736C56.7909 252.938 56.7887 253.141 56.8751 253.345C56.9657 253.547 57.1449 253.725 57.4125 253.88C57.6802 254.034 57.991 254.139 58.345 254.194C58.6947 254.246 59.0465 254.247 59.4005 254.198C59.7502 254.145 60.0589 254.042 60.3265 253.887C60.5942 253.733 60.7734 253.555 60.864 253.353C60.9547 253.146 60.9547 252.941 60.864 252.74C60.7734 252.533 60.5942 252.352 60.3265 252.197C60.0675 252.048 59.7632 251.947 59.4135 251.895C59.0638 251.842 58.712 251.841 58.358 251.891C58.004 251.941 57.6931 252.043 57.4255 252.197ZM69.743 253.221L67.9816 252.204L69.743 251.187L71.5043 252.204L69.743 253.221ZM66.0778 251.09L64.3164 250.073L66.0778 249.056L67.8391 250.073L66.0778 251.09ZM78.1149 249.285L76.6643 248.448L72.6106 250.788L70.9658 249.838L67.6762 244.544L69.6966 243.378L72.9862 248.672L75.0195 247.498L72.6883 246.152L74.4756 245.12L76.8068 246.466L77.6357 245.988L79.2805 246.937L78.4516 247.416L79.9021 248.253L78.1149 249.285ZM83.5963 246.12L76.1882 241.843L75.5147 243.473L73.5721 242.352L74.2714 240.737L76.0716 239.697L85.3965 245.081L83.5963 246.12Z" fill="#060606"/>
<path opacity="0.35" d="M274.754 125.014L287.706 117.536C289.03 116.772 291.177 116.772 292.501 117.536L296.31 119.736C297.635 120.5 297.635 121.74 296.31 122.504L283.359 129.982C282.035 130.746 279.888 130.746 278.564 129.982L274.754 127.782C273.43 127.018 273.43 125.778 274.754 125.014Z" stroke="#060606" stroke-width="1.5"/>
<path opacity="0.4" d="M294.674 117.162L297.889 119.018C298.264 118.487 298.051 117.879 297.349 117.474C296.647 117.068 295.593 116.945 294.674 117.162Z" fill="#060606"/>
<path d="M275.629 127.278C274.788 126.792 274.788 126.004 275.629 125.518L288.58 118.041C289.422 117.555 290.786 117.555 291.628 118.041L295.437 120.24C296.278 120.726 296.278 121.514 295.437 121.999L282.486 129.477C281.644 129.963 280.28 129.963 279.438 129.477L275.629 127.278Z" fill="#060606"/>
<path fill-rule="evenodd" clip-rule="evenodd" d="M261.981 134.795C263.861 133.71 266.405 133.092 269.088 133.069C269.293 133.069 269.456 132.974 269.453 132.855L269.423 131.706C269.422 131.646 269.379 131.589 269.305 131.546C269.23 131.504 269.13 131.48 269.026 131.48C261.955 131.525 256.316 134.78 256.238 138.863C256.238 138.923 256.28 138.981 256.353 139.024C256.427 139.067 256.527 139.091 256.63 139.092L258.621 139.109C258.826 139.111 258.991 139.017 258.991 138.899C259.032 137.349 260.102 135.88 261.981 134.795ZM265.121 136.577C266.153 135.98 267.54 135.632 269.013 135.598C269.217 135.597 269.378 135.501 269.376 135.383L269.345 134.235C269.344 134.175 269.3 134.117 269.225 134.074C269.15 134.031 269.048 134.007 268.944 134.008C264.4 134.076 260.791 136.159 260.674 138.783C260.673 138.843 260.714 138.901 260.788 138.945C260.862 138.988 260.963 139.013 261.067 139.014L263.056 139.032C263.26 139.033 263.425 138.94 263.428 138.823C263.486 137.973 264.089 137.172 265.121 136.577ZM269.146 136.6C269.222 136.642 269.265 136.7 269.266 136.761L269.317 138.746C269.318 138.804 269.279 138.86 269.209 138.901C269.138 138.942 269.042 138.964 268.941 138.963L265.502 138.934C265.397 138.934 265.296 138.909 265.223 138.865C265.149 138.821 265.11 138.761 265.114 138.701C265.262 137.537 266.846 136.622 268.862 136.537C268.967 136.535 269.069 136.557 269.146 136.6Z" fill="#060606"/>
<path d="M243.632 145.751C243.212 145.508 243.212 145.114 243.632 144.871L244.394 144.431C244.815 144.188 245.497 144.188 245.918 144.431L252.013 147.95C252.433 148.193 252.433 148.587 252.013 148.83L251.251 149.269C250.83 149.512 250.148 149.512 249.727 149.269L243.632 145.751Z" fill="#060606"/>
<path d="M245.918 142.672C245.497 142.429 245.497 142.035 245.918 141.792L246.68 141.352C247.1 141.109 247.783 141.109 248.203 141.352L255.822 145.751C256.242 145.993 256.242 146.387 255.822 146.63L255.06 147.07C254.639 147.313 253.957 147.313 253.536 147.07L245.918 142.672Z" fill="#060606"/>
<path d="M242.49 149.489C242.069 149.246 242.069 148.852 242.49 148.61L243.251 148.17C243.672 147.927 244.354 147.927 244.775 148.17L248.203 150.149C248.624 150.392 248.624 150.786 248.203 151.029L247.442 151.469C247.021 151.711 246.339 151.711 245.918 151.469L242.49 149.489Z" fill="#060606"/>
<path d="M240.585 152.788C240.164 152.545 240.164 152.151 240.585 151.908L241.347 151.469C241.768 151.226 242.45 151.226 242.871 151.469L244.394 152.348C244.815 152.591 244.815 152.985 244.394 153.228L243.632 153.668C243.212 153.911 242.529 153.911 242.109 153.668L240.585 152.788Z" fill="#060606"/>
<path d="M188.465 171.113L147.528 194.749C142.582 197.605 142.582 202.234 147.528 205.09C152.474 207.946 160.493 207.946 165.439 205.09L206.376 181.454C211.323 178.599 211.323 173.969 206.376 171.113C201.43 168.258 193.411 168.258 188.465 171.113Z" fill="#060606"/>
<path d="M160.752 201.508C163.106 200.15 163.106 197.947 160.752 196.588C158.399 195.23 154.584 195.23 152.231 196.588C149.878 197.947 149.878 200.15 152.231 201.508C154.584 202.867 158.399 202.867 160.752 201.508Z" fill="white"/>
<path opacity="0.4" d="M440.473 187.446L237.291 304.753C231.075 308.342 231.075 314.159 237.291 317.748L343.51 379.074C349.725 382.662 359.802 382.662 366.018 379.074L569.2 261.766C575.415 258.178 575.415 252.36 569.2 248.772L462.98 187.446C456.765 183.857 446.688 183.857 440.473 187.446Z" fill="#060606"/>
<path d="M444.356 158.259L226.586 283.989C220.371 287.577 220.371 293.395 226.586 296.984L342.389 363.842C348.604 367.431 358.681 367.431 364.896 363.842L582.666 238.113C588.882 234.524 588.882 228.706 582.666 225.118L466.864 158.259C460.648 154.671 450.571 154.671 444.356 158.259Z" fill="#F3BB2B" stroke="#060606" stroke-width="1.5"/>
<path d="M252.585 289.335L246.851 286.025L249.144 284.7C249.553 284.464 249.966 284.321 250.383 284.271C250.797 284.218 251.186 284.23 251.55 284.305C251.913 284.38 252.221 284.49 252.473 284.636C252.795 284.822 252.988 285.018 253.055 285.225C253.124 285.43 253.068 285.626 252.888 285.813L252.688 285.698C253.121 285.534 253.555 285.475 253.991 285.521C254.429 285.566 254.807 285.68 255.126 285.864C255.468 286.062 255.706 286.272 255.838 286.496C255.974 286.718 255.987 286.947 255.878 287.181C255.767 287.414 255.516 287.643 255.126 287.869L252.585 289.335ZM252.665 288.112L253.995 287.344C254.141 287.26 254.24 287.167 254.293 287.066C254.344 286.964 254.345 286.862 254.297 286.76C254.249 286.656 254.149 286.56 253.995 286.471C253.859 286.393 253.711 286.339 253.549 286.31C253.387 286.281 253.218 286.281 253.043 286.312C252.868 286.34 252.696 286.402 252.529 286.498L251.199 287.266L252.665 288.112ZM250.188 286.682L251.366 286.002C251.489 285.931 251.576 285.856 251.629 285.776C251.682 285.697 251.693 285.616 251.661 285.533C251.627 285.448 251.539 285.366 251.398 285.284C251.223 285.183 251.021 285.13 250.793 285.124C250.565 285.117 250.347 285.174 250.14 285.294L248.961 285.974L250.188 286.682ZM252.838 283.534L251.882 282.982L252.965 282.357L253.921 282.908L252.838 283.534ZM257.736 286.362L253.435 283.879L254.518 283.253L258.819 285.736L257.736 286.362ZM262.593 283.557C262.352 283.761 262.083 283.944 261.789 284.104C261.499 284.265 261.195 284.384 260.877 284.461C260.558 284.534 260.236 284.544 259.909 284.491C259.606 284.439 259.352 284.356 259.145 284.242C258.935 284.127 258.701 283.996 258.444 283.847L254.772 281.727L255.855 281.102L259.463 283.185C259.63 283.281 259.783 283.368 259.921 283.445C260.059 283.518 260.193 283.563 260.323 283.58C260.57 283.612 260.805 283.572 261.028 283.458C261.251 283.345 261.473 283.205 261.693 283.038L262.593 283.557ZM256.07 283.323L255.234 282.84L258.292 281.074L259.129 281.557L256.07 283.323ZM265.333 282.113C264.887 282.371 264.405 282.534 263.888 282.603C263.37 282.672 262.855 282.657 262.343 282.557C261.83 282.457 261.359 282.283 260.929 282.035C260.493 281.784 260.192 281.509 260.025 281.21C259.86 280.909 259.84 280.61 259.965 280.311C260.09 280.012 260.371 279.736 260.809 279.483C261.316 279.19 261.87 279.019 262.47 278.97C263.07 278.918 263.639 278.993 264.178 279.193L263.382 279.984C263.095 279.892 262.81 279.856 262.526 279.876C262.244 279.895 262.004 279.961 261.805 280.076C261.577 280.208 261.445 280.348 261.411 280.497C261.374 280.644 261.416 280.793 261.538 280.943C261.658 281.092 261.837 281.235 262.076 281.373C262.45 281.589 262.836 281.717 263.235 281.757C263.633 281.794 263.995 281.718 264.322 281.529C264.566 281.388 264.696 281.249 264.712 281.111C264.728 280.973 264.664 280.826 264.521 280.669L265.859 280.164C266.193 280.498 266.314 280.834 266.221 281.173C266.128 281.512 265.832 281.825 265.333 282.113ZM269.9 279.477C269.467 279.727 268.99 279.89 268.47 279.967C267.95 280.043 267.428 280.036 266.905 279.946C266.382 279.852 265.899 279.678 265.455 279.422C265.007 279.163 264.705 278.881 264.552 278.578C264.395 278.273 264.384 277.971 264.52 277.672C264.655 277.373 264.935 277.101 265.36 276.856C265.793 276.606 266.269 276.443 266.789 276.366C267.312 276.288 267.837 276.295 268.362 276.387C268.885 276.477 269.369 276.65 269.812 276.906C270.258 277.164 270.559 277.445 270.716 277.75C270.873 278.052 270.883 278.354 270.748 278.656C270.612 278.955 270.33 279.229 269.9 279.477ZM268.888 278.893C269.236 278.692 269.378 278.475 269.314 278.242C269.25 278.006 269.034 277.782 268.665 277.569C268.283 277.348 267.89 277.222 267.486 277.192C267.086 277.159 266.714 277.242 266.371 277.44C266.135 277.576 265.994 277.719 265.949 277.867C265.904 278.016 265.939 278.166 266.053 278.318C266.17 278.468 266.353 278.615 266.602 278.759C266.987 278.982 267.38 279.109 267.781 279.141C268.182 279.17 268.551 279.088 268.888 278.893ZM268.02 274.768L267.064 274.217L268.147 273.591L269.103 274.143L268.02 274.768ZM272.918 277.596L268.617 275.113L269.7 274.488L274.001 276.971L272.918 277.596ZM278.126 274.59L276.095 273.417C275.996 273.36 275.866 273.291 275.704 273.21C275.54 273.127 275.353 273.058 275.143 273.001C274.933 272.944 274.713 272.923 274.482 272.937C274.254 272.949 274.024 273.022 273.793 273.155C273.7 273.209 273.615 273.274 273.538 273.353C273.461 273.431 273.419 273.521 273.411 273.624C273.4 273.725 273.445 273.84 273.546 273.969C273.65 274.096 273.835 274.237 274.104 274.392L273.188 274.58C272.848 274.384 272.598 274.16 272.439 273.909C272.28 273.658 272.247 273.399 272.339 273.134C272.435 272.868 272.694 272.612 273.116 272.369C273.453 272.174 273.785 272.048 274.112 271.992C274.438 271.935 274.747 271.923 275.039 271.957C275.334 271.989 275.602 272.046 275.844 272.127C276.083 272.207 276.286 272.289 276.453 272.373C276.62 272.458 276.74 272.52 276.811 272.562L279.225 273.955L278.126 274.59ZM275.187 276.286L270.886 273.803L271.85 273.247L273.275 274.07L273.411 273.992L276.286 275.652L275.187 276.286ZM281.852 272.438L276.118 269.127L278.412 267.803C278.821 267.567 279.233 267.424 279.65 267.373C280.064 267.321 280.453 267.332 280.817 267.407C281.181 267.483 281.489 267.593 281.741 267.739C282.062 267.924 282.256 268.12 282.322 268.327C282.391 268.532 282.336 268.729 282.155 268.916L281.956 268.801C282.389 268.637 282.823 268.578 283.258 268.624C283.696 268.668 284.074 268.782 284.393 268.966C284.735 269.164 284.973 269.375 285.106 269.599C285.241 269.821 285.255 270.049 285.146 270.284C285.034 270.517 284.783 270.746 284.393 270.971L281.852 272.438ZM281.932 271.215L283.262 270.447C283.408 270.363 283.508 270.27 283.561 270.169C283.611 270.066 283.613 269.964 283.565 269.863C283.517 269.759 283.416 269.662 283.262 269.573C283.127 269.495 282.978 269.441 282.816 269.412C282.654 269.383 282.486 269.384 282.31 269.415C282.135 269.442 281.964 269.504 281.797 269.601L280.467 270.369L281.932 271.215ZM279.455 269.785L280.634 269.104C280.756 269.034 280.844 268.959 280.897 268.879C280.95 268.799 280.96 268.718 280.929 268.635C280.894 268.551 280.806 268.468 280.666 268.387C280.49 268.286 280.289 268.232 280.06 268.226C279.832 268.22 279.614 268.277 279.407 268.396L278.229 269.077L279.455 269.785ZM288.238 268.889C287.93 269.067 287.61 269.184 287.278 269.241C286.946 269.295 286.626 269.297 286.318 269.248C286.01 269.196 285.737 269.101 285.498 268.963C285.299 268.848 285.147 268.725 285.044 268.595C284.94 268.465 284.894 268.325 284.904 268.174C284.915 268.021 284.993 267.853 285.139 267.671C285.24 267.545 285.378 267.406 285.554 267.252C285.729 267.099 285.936 266.931 286.175 266.747C286.411 266.561 286.671 266.357 286.955 266.135L286.78 266.485C286.525 266.337 286.277 266.265 286.035 266.266C285.794 266.268 285.53 266.351 285.243 266.517C285.084 266.609 284.956 266.727 284.861 266.871C284.765 267.015 284.781 267.164 284.908 267.317L283.618 267.703C283.371 267.435 283.286 267.15 283.363 266.848C283.44 266.546 283.738 266.245 284.255 265.947C284.635 265.727 285.031 265.566 285.442 265.464C285.854 265.361 286.278 265.349 286.716 265.427C286.961 265.47 287.17 265.533 287.346 265.615C287.521 265.698 287.707 265.796 287.903 265.91L290.531 267.427L289.584 267.974L288.699 267.464L289.018 267.492C289.098 267.78 289.08 268.032 288.966 268.248C288.852 268.461 288.609 268.675 288.238 268.889ZM287.616 268.264C287.815 268.149 287.948 268.033 288.015 267.915C288.081 267.793 288.109 267.684 288.098 267.586C288.09 267.486 288.07 267.41 288.038 267.358C287.977 267.259 287.874 267.162 287.728 267.068C287.582 266.972 287.457 266.894 287.354 266.834L287.752 266.696C287.484 266.912 287.269 267.088 287.107 267.225C286.942 267.36 286.813 267.471 286.72 267.558C286.627 267.646 286.552 267.726 286.493 267.8C286.43 267.885 286.39 267.962 286.374 268.03C286.358 268.094 286.363 268.152 286.39 268.204C286.419 268.255 286.469 268.301 286.541 268.342C286.639 268.399 286.748 268.434 286.868 268.448C286.987 268.459 287.111 268.449 287.238 268.418C287.365 268.387 287.492 268.336 287.616 268.264ZM291.646 266.783L285.793 263.404L286.876 262.778L292.73 266.158L291.646 266.783ZM295.237 264.848C294.93 265.026 294.61 265.143 294.278 265.2C293.946 265.253 293.626 265.256 293.318 265.207C293.01 265.155 292.737 265.059 292.498 264.922C292.299 264.807 292.147 264.684 292.044 264.554C291.94 264.423 291.894 264.283 291.904 264.133C291.915 263.98 291.993 263.812 292.139 263.629C292.24 263.504 292.378 263.364 292.553 263.211C292.729 263.058 292.936 262.889 293.175 262.705C293.411 262.52 293.671 262.316 293.955 262.094L293.78 262.443C293.525 262.296 293.277 262.223 293.035 262.225C292.794 262.226 292.53 262.31 292.243 262.475C292.084 262.567 291.956 262.685 291.861 262.829C291.765 262.973 291.781 263.122 291.908 263.275L290.618 263.662C290.371 263.393 290.286 263.108 290.363 262.806C290.44 262.504 290.738 262.204 291.255 261.905C291.635 261.686 292.031 261.525 292.442 261.422C292.853 261.32 293.278 261.307 293.716 261.386C293.961 261.428 294.17 261.491 294.345 261.574C294.521 261.657 294.707 261.755 294.903 261.868L297.531 263.386L296.583 263.933L295.699 263.423L296.018 263.45C296.098 263.738 296.08 263.99 295.966 264.207C295.852 264.42 295.609 264.633 295.237 264.848ZM294.616 264.223C294.815 264.108 294.948 263.991 295.014 263.873C295.081 263.752 295.109 263.642 295.098 263.544C295.09 263.445 295.07 263.369 295.038 263.317C294.977 263.217 294.874 263.121 294.728 263.027C294.582 262.931 294.457 262.852 294.353 262.793L294.752 262.655C294.484 262.871 294.268 263.047 294.107 263.183C293.942 263.318 293.813 263.429 293.72 263.517C293.627 263.604 293.552 263.685 293.493 263.758C293.43 263.844 293.39 263.921 293.374 263.988C293.358 264.052 293.363 264.111 293.39 264.163C293.419 264.213 293.469 264.259 293.541 264.301C293.639 264.357 293.748 264.393 293.868 264.407C293.987 264.417 294.111 264.407 294.238 264.377C294.365 264.346 294.491 264.295 294.616 264.223ZM301.498 261.096L299.467 259.923C299.368 259.867 299.238 259.798 299.076 259.716C298.912 259.634 298.725 259.564 298.515 259.507C298.305 259.45 298.085 259.429 297.854 259.443C297.626 259.455 297.396 259.528 297.165 259.661C297.072 259.715 296.987 259.781 296.91 259.859C296.833 259.937 296.791 260.027 296.783 260.13C296.772 260.231 296.817 260.346 296.918 260.475C297.022 260.602 297.207 260.743 297.476 260.898L296.56 261.087C296.22 260.89 295.97 260.667 295.811 260.415C295.652 260.164 295.619 259.906 295.711 259.64C295.807 259.374 296.066 259.119 296.488 258.875C296.825 258.68 297.157 258.554 297.483 258.498C297.81 258.441 298.119 258.43 298.411 258.463C298.706 258.495 298.974 258.552 299.216 258.633C299.455 258.713 299.658 258.795 299.825 258.879C299.992 258.964 300.112 259.027 300.183 259.068L302.597 260.461L301.498 261.096ZM298.559 262.793L294.258 260.309L295.222 259.753L296.647 260.576L296.783 260.498L299.658 262.158L298.559 262.793ZM305.567 258.884C305.121 259.142 304.639 259.305 304.122 259.374C303.604 259.443 303.089 259.428 302.577 259.328C302.064 259.228 301.593 259.054 301.163 258.806C300.727 258.555 300.426 258.279 300.259 257.981C300.094 257.68 300.074 257.381 300.199 257.082C300.324 256.783 300.605 256.507 301.043 256.254C301.55 255.961 302.104 255.79 302.704 255.741C303.304 255.689 303.873 255.763 304.412 255.964L303.616 256.755C303.329 256.663 303.044 256.627 302.76 256.647C302.478 256.666 302.238 256.732 302.039 256.847C301.811 256.979 301.679 257.119 301.645 257.268C301.608 257.415 301.65 257.564 301.772 257.714C301.892 257.863 302.071 258.006 302.31 258.144C302.684 258.36 303.07 258.488 303.469 258.528C303.867 258.565 304.229 258.489 304.556 258.3C304.8 258.159 304.93 258.02 304.946 257.882C304.962 257.744 304.898 257.597 304.755 257.44L306.093 256.935C306.427 257.269 306.548 257.605 306.455 257.944C306.362 258.283 306.066 258.596 305.567 258.884ZM310.197 256.211C309.757 256.465 309.273 256.635 308.748 256.721C308.222 256.804 307.698 256.805 307.175 256.724C306.652 256.639 306.175 256.473 305.745 256.225C305.275 255.953 304.959 255.664 304.797 255.356C304.636 255.048 304.622 254.744 304.758 254.445C304.89 254.145 305.169 253.872 305.594 253.627C306.045 253.366 306.535 253.206 307.063 253.146C307.592 253.086 308.124 253.124 308.66 253.259C309.196 253.394 309.702 253.624 310.177 253.951L309.106 254.569L308.708 254.339C308.27 254.087 307.885 253.946 307.553 253.916C307.221 253.884 306.897 253.959 306.581 254.142C306.212 254.355 306.053 254.577 306.104 254.808C306.154 255.037 306.398 255.277 306.836 255.53C307.237 255.762 307.634 255.891 308.027 255.919C308.42 255.943 308.785 255.858 309.122 255.664C309.334 255.541 309.47 255.409 309.528 255.268C309.587 255.127 309.568 254.983 309.473 254.836L310.866 254.39C311.097 254.71 311.146 255.035 311.014 255.363C310.884 255.689 310.611 255.972 310.197 256.211ZM306.804 255.898L306 255.434L308.851 253.788L309.656 254.252L306.804 255.898Z" fill="#060606"/>
<path d="M274.686 298.283C273.648 298.883 272.522 299.282 271.308 299.48C270.095 299.679 268.881 299.679 267.668 299.48C266.454 299.282 265.328 298.883 264.29 298.283L260.085 295.855C259.046 295.256 258.355 294.606 258.011 293.905C257.667 293.205 257.667 292.504 258.011 291.803C258.355 291.103 259.046 290.453 260.085 289.853C261.123 289.254 262.249 288.855 263.462 288.656C264.676 288.457 265.89 288.457 267.103 288.656C268.317 288.855 269.443 289.254 270.481 289.853L274.686 292.281C275.724 292.88 276.415 293.53 276.759 294.231C277.103 294.932 277.103 295.632 276.759 296.333C276.415 297.034 275.724 297.684 274.686 298.283ZM272.175 296.833C272.642 296.563 272.953 296.256 273.109 295.911C273.265 295.567 273.265 295.222 273.109 294.877C272.953 294.533 272.642 294.225 272.175 293.956L267.561 291.292C267.093 291.022 266.561 290.842 265.964 290.752C265.367 290.662 264.77 290.662 264.173 290.752C263.576 290.842 263.044 291.022 262.577 291.292C262.109 291.562 261.798 291.869 261.642 292.214C261.486 292.558 261.486 292.903 261.642 293.248C261.798 293.592 262.109 293.9 262.577 294.169L267.191 296.833C267.658 297.103 268.19 297.283 268.787 297.373C269.384 297.463 269.981 297.463 270.578 297.373C271.175 297.283 271.707 297.103 272.175 296.833ZM282.743 293.294L280.095 291.766L282.743 290.237L285.39 291.766L282.743 293.294ZM288.141 290.155L285.844 288.829L286.506 282.422C286.558 281.942 286.503 281.551 286.341 281.247C286.178 280.944 285.948 280.706 285.649 280.533C285.221 280.286 284.754 280.118 284.248 280.028C283.735 279.934 283.226 279.925 282.72 280C282.207 280.071 281.736 280.23 281.308 280.477C280.86 280.736 280.568 281.024 280.432 281.343C280.296 281.654 280.302 281.961 280.451 282.264C280.594 282.564 280.867 282.823 281.269 283.04L278.544 284.614C277.583 284.059 276.963 283.458 276.684 282.81C276.405 282.161 276.451 281.509 276.821 280.854C277.19 280.198 277.875 279.582 278.874 279.005C279.79 278.477 280.808 278.121 281.931 277.937C283.054 277.746 284.18 277.737 285.309 277.909C286.438 278.081 287.473 278.439 288.414 278.982C289.108 279.383 289.589 279.773 289.855 280.151C290.114 280.526 290.247 280.936 290.254 281.382C290.254 281.824 290.218 282.347 290.147 282.95L289.679 287.064L288.881 286.85L295.462 283.051L297.954 284.49L288.141 290.155ZM299.891 283.371L297.594 282.045L298.256 275.638C298.308 275.159 298.252 274.767 298.09 274.464C297.928 274.16 297.698 273.922 297.399 273.75C296.971 273.503 296.503 273.334 295.997 273.244C295.485 273.15 294.975 273.141 294.469 273.216C293.956 273.287 293.486 273.446 293.058 273.694C292.61 273.952 292.318 274.241 292.181 274.559C292.045 274.87 292.052 275.177 292.201 275.481C292.344 275.781 292.616 276.039 293.019 276.256L290.293 277.83C289.333 277.276 288.713 276.674 288.434 276.026C288.155 275.378 288.2 274.726 288.57 274.07C288.94 273.415 289.625 272.798 290.624 272.221C291.539 271.693 292.558 271.337 293.681 271.153C294.803 270.962 295.929 270.953 297.058 271.125C298.187 271.298 299.223 271.655 300.164 272.199C300.858 272.6 301.338 272.989 301.604 273.368C301.864 273.742 301.997 274.153 302.003 274.599C302.003 275.041 301.968 275.563 301.896 276.167L301.429 280.28L300.631 280.067L307.211 276.268L309.703 277.706L299.891 283.371ZM314.483 274.969L303.347 268.54L302.335 270.99L299.414 269.304L300.466 266.876L303.172 265.314L317.189 273.407L314.483 274.969ZM321.591 270.865L314.777 261.491L308.781 264.953L306.289 263.514L315.127 258.411L317.619 259.85L324.453 269.213L321.591 270.865ZM336.404 262.313L334.224 261.054L328.13 264.572L325.658 263.145L320.713 255.187L323.75 253.433L328.695 261.391L331.751 259.626L328.247 257.603L330.934 256.052L334.438 258.075L335.684 257.356L338.157 258.783L336.911 259.503L339.091 260.762L336.404 262.313ZM347.856 256.038C346.928 256.574 345.877 256.93 344.703 257.106C343.534 257.278 342.35 257.265 341.15 257.067C339.943 256.864 338.83 256.469 337.811 255.881L333.742 253.532C332.639 252.895 331.902 252.222 331.532 251.514C331.156 250.802 331.143 250.098 331.493 249.401C331.837 248.7 332.535 248.047 333.586 247.44C334.267 247.046 335.017 246.73 335.835 246.49C336.652 246.25 337.558 246.121 338.551 246.102V248.283C338.083 248.283 337.632 248.333 337.197 248.434C336.763 248.535 336.383 248.68 336.059 248.867C335.552 249.159 335.231 249.483 335.095 249.839C334.959 250.188 334.978 250.532 335.153 250.873C335.328 251.207 335.63 251.497 336.059 251.744L338.142 252.947L337.207 252.925C337.201 252.456 337.353 252.009 337.665 251.582C337.976 251.147 338.414 250.767 338.979 250.441C339.861 249.931 340.835 249.598 341.899 249.44C342.97 249.279 344.037 249.289 345.102 249.468C346.172 249.644 347.149 249.987 348.032 250.497C348.914 251.006 349.489 251.597 349.755 252.267C350.014 252.934 349.985 253.603 349.667 254.274C349.343 254.94 348.739 255.529 347.856 256.038ZM345.326 254.577C345.728 254.345 345.997 254.077 346.133 253.773C346.276 253.466 346.279 253.161 346.143 252.857C346.013 252.55 345.747 252.28 345.345 252.048C344.943 251.816 344.479 251.66 343.953 251.582C343.421 251.499 342.892 251.497 342.366 251.576C341.834 251.651 341.367 251.804 340.965 252.037C340.562 252.269 340.293 252.541 340.157 252.852C340.02 253.155 340.02 253.462 340.157 253.773C340.293 254.077 340.562 254.345 340.965 254.577C341.354 254.802 341.811 254.954 342.337 255.032C342.863 255.111 343.392 255.113 343.924 255.038C344.456 254.963 344.923 254.809 345.326 254.577Z" fill="#060606"/>
<path d="M308.304 293.097L286.201 305.859C282.577 307.951 282.577 311.342 286.201 313.434C289.824 315.526 295.699 315.526 299.322 313.434L321.425 300.673C325.049 298.581 325.049 295.189 321.425 293.097C317.802 291.005 311.927 291.005 308.304 293.097Z" fill="#060606"/>
<path d="M299.959 307.92L296.614 305.989L296.31 306.725L295.433 306.218L295.749 305.489L296.562 305.02L300.772 307.451L299.959 307.92ZM301.761 306.873L301.071 306.475L301.27 304.55C301.285 304.406 301.269 304.289 301.22 304.197C301.171 304.106 301.102 304.035 301.012 303.983C300.884 303.909 300.743 303.858 300.591 303.831C300.437 303.803 300.284 303.8 300.132 303.823C299.978 303.844 299.837 303.892 299.708 303.966C299.574 304.044 299.486 304.13 299.445 304.226C299.404 304.319 299.406 304.412 299.451 304.503C299.494 304.593 299.576 304.671 299.697 304.736L298.878 305.209C298.59 305.042 298.403 304.861 298.32 304.667C298.236 304.472 298.249 304.276 298.361 304.079C298.472 303.882 298.677 303.697 298.977 303.524C299.252 303.365 299.558 303.258 299.896 303.203C300.233 303.146 300.571 303.143 300.91 303.195C301.249 303.246 301.56 303.354 301.843 303.517C302.051 303.638 302.196 303.755 302.276 303.868C302.354 303.981 302.393 304.104 302.395 304.238C302.395 304.371 302.385 304.528 302.363 304.709L302.223 305.945L301.983 305.88L303.96 304.739L304.708 305.171L301.761 306.873ZM305.542 304.697L304.746 304.238L305.542 303.779L306.337 304.238L305.542 304.697ZM308.59 303.025C308.379 303.146 308.137 303.238 307.862 303.3C307.585 303.361 307.299 303.388 307.002 303.381C306.708 303.373 306.426 303.326 306.157 303.241L306.725 302.677C306.919 302.742 307.119 302.765 307.324 302.746C307.529 302.725 307.701 302.674 307.841 302.593C307.962 302.523 308.043 302.442 308.084 302.351C308.127 302.259 308.128 302.167 308.087 302.076C308.048 301.984 307.968 301.903 307.847 301.833C307.666 301.728 307.449 301.675 307.195 301.673C306.942 301.668 306.719 301.722 306.526 301.833C306.467 301.867 306.42 301.904 306.382 301.946C306.344 301.987 306.313 302.03 306.292 302.076L305.309 301.921L305.538 300.506L305.766 300.57L303.812 301.698L303.064 301.266L305.695 299.747L306.444 300.179L306.409 301.36L306.181 301.235C306.459 301.117 306.748 301.049 307.046 301.029C307.344 301.008 307.633 301.028 307.912 301.09C308.19 301.15 308.438 301.242 308.654 301.367C308.919 301.52 309.091 301.697 309.169 301.897C309.245 302.096 309.234 302.296 309.137 302.496C309.037 302.696 308.855 302.872 308.59 303.025ZM312.454 300.706L311.799 300.328L309.969 301.385L309.226 300.956L307.741 298.566L308.653 298.039L310.139 300.429L311.057 299.899L310.004 299.291L310.811 298.825L311.864 299.433L312.238 299.217L312.98 299.646L312.606 299.862L313.261 300.24L312.454 300.706ZM314.982 299.247H313.929V294.993L314.988 294.996L314.982 299.247ZM317.876 297.677C317.683 297.788 317.46 297.863 317.207 297.901C316.953 297.937 316.7 297.937 316.447 297.901C316.191 297.864 315.966 297.789 315.771 297.677C315.58 297.567 315.453 297.437 315.391 297.289C315.329 297.14 315.33 296.992 315.394 296.845C315.458 296.697 315.584 296.569 315.771 296.461C315.964 296.35 316.188 296.276 316.444 296.239C316.697 296.2 316.95 296.2 317.204 296.239C317.457 296.275 317.681 296.349 317.876 296.461C318.071 296.574 318.201 296.704 318.265 296.851C318.329 296.997 318.329 297.143 318.265 297.29C318.199 297.437 318.069 297.565 317.876 297.677ZM317.204 297.289C317.272 297.249 317.317 297.203 317.338 297.15C317.362 297.096 317.363 297.043 317.341 296.99C317.318 296.936 317.272 296.889 317.204 296.85C317.136 296.81 317.056 296.784 316.964 296.772C316.871 296.759 316.777 296.759 316.683 296.772C316.592 296.784 316.512 296.81 316.444 296.85C316.375 296.889 316.33 296.936 316.306 296.99C316.285 297.043 316.286 297.096 316.309 297.15C316.331 297.203 316.375 297.249 316.444 297.289C316.512 297.328 316.593 297.354 316.686 297.368C316.778 297.38 316.87 297.38 316.961 297.368C317.055 297.354 317.136 297.328 317.204 297.289ZM313.14 297.778C312.947 297.89 312.724 297.964 312.47 298.003C312.215 298.04 311.96 298.04 311.707 298.004C311.454 297.966 311.23 297.891 311.035 297.778C310.844 297.668 310.717 297.538 310.654 297.39C310.592 297.241 310.593 297.093 310.657 296.946C310.722 296.798 310.847 296.671 311.035 296.563C311.228 296.451 311.451 296.378 311.704 296.342C311.958 296.303 312.212 296.303 312.467 296.34C312.721 296.376 312.945 296.45 313.14 296.563C313.335 296.675 313.464 296.805 313.529 296.953C313.591 297.099 313.59 297.246 313.526 297.393C313.461 297.538 313.333 297.667 313.14 297.778ZM312.467 297.39C312.535 297.35 312.58 297.304 312.602 297.251C312.625 297.197 312.626 297.144 312.605 297.091C312.581 297.037 312.535 296.99 312.467 296.951C312.399 296.912 312.319 296.886 312.227 296.873C312.134 296.86 312.04 296.86 311.947 296.873C311.855 296.886 311.775 296.912 311.707 296.951C311.639 296.99 311.593 297.037 311.57 297.091C311.548 297.144 311.549 297.197 311.573 297.251C311.594 297.304 311.639 297.35 311.707 297.39C311.775 297.429 311.856 297.456 311.95 297.469C312.041 297.482 312.133 297.482 312.225 297.469C312.318 297.456 312.399 297.429 312.467 297.39Z" fill="white"/>
<mask id="mask2_46_1484" style="mask-type:luminance" maskUnits="userSpaceOnUse" x="288" y="306" width="10" height="7">
<path d="M293.103 306.923L288.632 309.504L293.103 312.086L297.575 309.504L293.103 306.923Z" fill="white"/>
</mask>
<g mask="url(#mask2_46_1484)">
<path d="M293.103 311.227L293.094 308.122" stroke="white" stroke-width="0.84403" stroke-linecap="square"/>
<path d="M295.914 309.405L293.104 307.783L290.293 309.405" stroke="white" stroke-width="0.84403" stroke-linecap="square"/>
</g>
<path d="M139.211 284.784C143.301 282.423 143.301 278.595 139.211 276.234C135.122 273.872 128.491 273.872 124.401 276.234C120.311 278.595 120.311 282.423 124.401 284.784C128.491 287.145 135.122 287.145 139.211 284.784Z" stroke="#060606" stroke-width="1.5" stroke-linecap="round" stroke-linejoin="round"/>
<path d="M142.279 280.509H149.789" stroke="#060606" stroke-width="1.5" stroke-linecap="square" stroke-linejoin="round"/>
<path d="M304.369 161.461L326.234 148.837" stroke="#060606" stroke-width="1.5"/>
<path d="M311.999 165.865L333.864 153.241" stroke="#060606" stroke-width="1.5"/>
<path d="M328.929 164.9L341.491 157.647" stroke="#060606" stroke-width="1.5"/>
<path d="M539.686 317.899L408.968 393.369C401.93 397.432 401.93 404.02 408.968 408.084C416.006 412.147 427.417 412.147 434.454 408.084L565.172 332.614C572.21 328.55 572.21 321.962 565.172 317.899C558.134 313.836 546.724 313.836 539.686 317.899Z" fill="white" stroke="#060606" stroke-width="1.5"/>
<path d="M543.605 321.388L416.263 394.91C412.253 397.225 412.253 400.978 416.263 403.293L416.263 403.293C420.273 405.608 426.774 405.608 430.783 403.293L558.126 329.772C562.135 327.457 562.135 323.703 558.126 321.388C554.116 319.073 547.615 319.073 543.605 321.388Z" fill="#060606"/>
<path d="M416.263 394.91L543.605 321.388C547.615 319.073 554.116 319.073 558.126 321.388L558.126 321.388C562.135 323.703 562.135 327.457 558.126 329.772L430.783 403.293C426.774 405.608 420.273 405.608 416.263 403.293L416.263 403.293C412.253 400.978 412.253 397.225 416.263 394.91Z" stroke="#060606" stroke-width="1.5"/>
<mask id="mask3_46_1484" style="mask-type:alpha" maskUnits="userSpaceOnUse" x="422" y="185" width="129" height="222">
<path d="M550.712 185.046L422.65 258.982L422.65 406.855L550.712 332.919L550.712 185.046Z" fill="#D9D9D9"/>
</mask>
<g mask="url(#mask3_46_1484)">
<path fill-rule="evenodd" clip-rule="evenodd" d="M439.506 399.672C431.404 393.205 426.525 381.647 426.525 365.957C426.525 330.536 451.393 287.463 482.069 269.752C498.217 260.429 512.756 259.992 522.905 266.836L522.908 266.831L523.12 266.983C523.373 267.158 523.624 267.337 523.872 267.52L533.673 274.526L532.09 277.093C535.629 283.489 537.613 291.815 537.613 301.821C537.613 337.242 512.745 380.315 482.069 398.026C471.418 404.175 461.467 406.459 453.015 405.337L451.292 408.131L439.476 399.72L439.506 399.672Z" fill="#060606"/>
<mask id="mask4_46_1484" style="mask-type:alpha" maskUnits="userSpaceOnUse" x="426" y="262" width="112" height="147">
<path fill-rule="evenodd" clip-rule="evenodd" d="M439.506 399.67C431.404 393.202 426.525 381.644 426.525 365.954C426.525 330.533 451.393 287.46 482.069 269.749C498.217 260.426 512.756 259.989 522.905 266.833L522.908 266.828L523.12 266.98C523.373 267.155 523.624 267.334 523.872 267.517L533.673 274.523L532.09 277.09C535.629 283.486 537.613 291.812 537.613 301.818C537.613 337.239 512.745 380.312 482.069 398.023C471.418 404.172 461.467 406.456 453.015 405.334L451.292 408.128L439.476 399.718L439.506 399.67Z" fill="#B0F127"/>
</mask>
<g mask="url(#mask4_46_1484)">
<path d="M360.183 330.559L477.682 398.397L477.682 456.735L360.183 388.897L360.183 330.559Z" fill="#060606"/>
</g>
<path d="M439.506 399.671L439.974 399.085L440.497 399.503L440.141 400.07L439.506 399.671ZM522.905 266.835L523.54 267.234L523.128 267.89L522.485 267.457L522.905 266.835ZM522.908 266.83L522.273 266.432L522.696 265.757L523.344 266.22L522.908 266.83ZM523.12 266.982L522.695 267.6L522.684 267.592L523.12 266.982ZM523.872 267.519L523.436 268.13L523.425 268.122L523.872 267.519ZM533.673 274.525L534.109 273.914L534.679 274.322L534.311 274.918L533.673 274.525ZM532.09 277.092L531.433 277.455L531.221 277.072L531.451 276.698L532.09 277.092ZM453.015 405.336L452.376 404.942L452.631 404.528L453.113 404.592L453.015 405.336ZM451.292 408.13L451.93 408.524L451.509 409.206L450.857 408.741L451.292 408.13ZM439.476 399.719L439.041 400.33L438.465 399.92L438.841 399.321L439.476 399.719ZM427.275 365.956C427.275 381.505 432.109 392.806 439.974 399.085L439.038 400.258C430.7 393.601 425.775 381.788 425.775 365.956H427.275ZM482.444 270.401C467.247 279.175 453.446 294.261 443.443 311.587C433.44 328.913 427.275 348.408 427.275 365.956H425.775C425.775 348.083 432.044 328.331 442.144 310.837C452.244 293.344 466.215 278.038 481.694 269.102L482.444 270.401ZM522.485 267.457C512.66 260.831 498.449 261.161 482.444 270.401L481.694 269.102C497.986 259.696 512.851 259.151 523.324 266.214L522.485 267.457ZM522.27 266.437L522.273 266.432L523.543 267.229L523.54 267.234L522.27 266.437ZM523.344 266.22L523.556 266.372L522.684 267.592L522.472 267.441L523.344 266.22ZM523.425 268.122C523.184 267.943 522.941 267.769 522.695 267.6L523.545 266.364C523.806 266.544 524.064 266.728 524.318 266.917L523.425 268.122ZM524.308 266.909L534.109 273.914L533.237 275.135L523.436 268.13L524.308 266.909ZM534.311 274.918L532.728 277.486L531.451 276.698L533.034 274.131L534.311 274.918ZM536.863 301.82C536.863 291.909 534.897 283.715 531.433 277.455L532.746 276.729C536.36 283.261 538.363 291.718 538.363 301.82H536.863ZM481.694 397.375C496.891 388.601 510.692 373.515 520.695 356.189C530.698 338.863 536.863 319.368 536.863 301.82H538.363C538.363 319.693 532.094 339.445 521.994 356.939C511.894 374.432 497.923 389.738 482.444 398.674L481.694 397.375ZM453.113 404.592C461.358 405.686 471.142 403.468 481.694 397.375L482.444 398.674C471.694 404.881 461.577 407.229 452.916 406.079L453.113 404.592ZM453.653 405.729L451.93 408.524L450.653 407.736L452.376 404.942L453.653 405.729ZM450.857 408.741L439.041 400.33L439.911 399.108L451.726 407.519L450.857 408.741ZM438.841 399.321L438.871 399.273L440.141 400.07L440.111 400.118L438.841 399.321Z" fill="#060606"/>
<path d="M492.293 405.309C461.617 423.02 436.749 408.663 436.749 373.241C436.749 337.819 461.617 294.747 492.293 277.036C522.969 259.325 547.837 273.682 547.837 309.104C547.837 344.526 522.969 387.598 492.293 405.309Z" fill="white"/>
<mask id="mask5_46_1484" style="mask-type:alpha" maskUnits="userSpaceOnUse" x="436" y="269" width="112" height="144">
<path d="M492.293 405.309C461.617 423.02 436.749 408.663 436.749 373.241C436.749 337.819 461.617 294.747 492.293 277.036C522.969 259.325 547.837 273.682 547.837 309.104C547.837 344.526 522.969 387.598 492.293 405.309Z" fill="white"/>
</mask>
<g mask="url(#mask5_46_1484)">
<path d="M433.755 377.142L551.254 309.304L551.254 236.548L433.755 304.386L433.755 377.142Z" fill="white"/>
<path d="M510.326 323.581C511.046 317.607 507.381 316.735 502.37 317.635L503.995 309.168L500.027 310.318L498.444 318.562C497.401 318.864 496.329 319.199 495.264 319.533L496.858 311.234L492.892 312.382L491.265 320.848C490.401 321.119 489.554 321.384 488.731 321.623L488.735 321.597L483.262 323.179L482.206 328.683C482.206 328.683 485.151 327.762 485.089 327.846C486.696 327.382 486.987 328.442 486.938 329.444L485.086 339.09C485.197 339.059 485.341 339.023 485.499 339.004C485.367 339.043 485.225 339.083 485.08 339.126L482.484 352.64C482.288 353.317 481.789 354.451 480.666 354.778C480.705 354.822 477.781 355.612 477.781 355.612L475.811 361.996L480.975 360.501C481.936 360.224 482.878 359.971 483.805 359.71L482.162 368.273L486.126 367.127L487.753 358.654C488.836 358.368 489.887 358.074 490.916 357.775L489.295 366.21L493.264 365.06L494.906 356.512C501.674 354.083 506.763 350.549 508.905 342.244C510.631 335.557 508.819 333.32 505.258 333.235C507.851 331.048 509.804 327.95 510.326 323.581ZM501.258 343.499C500.031 349.898 491.733 351.612 489.043 352.394L491.222 341.048C493.912 340.27 502.54 336.824 501.258 343.499ZM502.485 328.025C501.366 333.848 494.46 335.205 492.219 335.854L494.195 325.564C496.435 324.915 503.651 321.953 502.485 328.025Z" fill="#060606"/>
</g>
<path d="M492.293 405.309C461.617 423.02 436.749 408.663 436.749 373.241C436.749 337.819 461.617 294.747 492.293 277.036C522.969 259.325 547.837 273.682 547.837 309.104C547.837 344.526 522.969 387.598 492.293 405.309Z" stroke="#060606" stroke-width="1.5"/>
</g>
</g>
</g>
<path d="M254.76 25.1462L233.912 13.1095C233.658 12.9631 233.453 13.0818 233.453 13.3747V96.0935C233.453 96.3864 233.658 96.7426 233.912 96.889L254.76 108.926C255.014 109.072 255.219 108.953 255.219 108.661V25.9417C255.219 25.6488 255.014 25.2927 254.76 25.1462Z" fill="#404040" stroke="#060606" stroke-width="1.22381" stroke-linejoin="round"/>
<path d="M276.527 13.1099L255.679 25.1466C255.425 25.293 255.22 25.6492 255.22 25.9421V108.661C255.22 108.954 255.425 109.073 255.679 108.926L276.527 96.8894C276.781 96.7429 276.986 96.3868 276.986 96.0939V13.375C276.986 13.0821 276.781 12.9634 276.527 13.1099Z" fill="#DC3A3A" stroke="#060606" stroke-width="1.22381" stroke-linejoin="round"/>
<path d="M254.76 0.54249L233.912 12.5792C233.658 12.7256 233.658 12.9631 233.912 13.1095L254.76 25.1462C255.014 25.2927 255.425 25.2927 255.679 25.1462L276.527 13.1095C276.78 12.9631 276.78 12.7256 276.527 12.5792L255.679 0.542492C255.425 0.396048 255.014 0.396047 254.76 0.54249Z" fill="#DC3A3A" stroke="#060606" stroke-width="1.22381" stroke-linejoin="round"/>
<path d="M221.745 68.9237L200.897 56.887C200.643 56.7405 200.438 56.8593 200.438 57.1521V114.548C200.438 114.841 200.643 115.197 200.897 115.344L221.745 127.38C221.999 127.527 222.204 127.408 222.204 127.115V69.7192C222.204 69.4263 221.999 69.0701 221.745 68.9237Z" fill="#404040" stroke="#060606" stroke-width="1.22381" stroke-linejoin="round"/>
<path d="M243.51 56.8873L222.662 68.924C222.409 69.0705 222.203 69.4266 222.203 69.7195V127.304C222.203 127.597 222.409 127.716 222.662 127.569L243.51 115.533C243.764 115.386 243.97 115.03 243.97 114.737V57.1525C243.97 56.8596 243.764 56.7409 243.51 56.8873Z" fill="#E7E7E7" stroke="#060606" stroke-width="1.22381" stroke-linejoin="round"/>
<path d="M221.745 44.32L200.897 56.3567C200.643 56.5031 200.643 56.7405 200.897 56.887L221.745 68.9237C221.999 69.0701 222.41 69.0701 222.664 68.9237L243.512 56.887C243.766 56.7405 243.766 56.5031 243.512 56.3567L222.664 44.32C222.41 44.1735 221.999 44.1735 221.745 44.32Z" fill="white" stroke="#060606" stroke-width="1.22381" stroke-linejoin="round"/>
<path d="M190.288 104.755L169.44 92.7178C169.186 92.5714 168.981 92.6901 168.981 92.983V134.484C168.981 134.777 169.186 135.133 169.44 135.28L190.288 147.316C190.542 147.463 190.747 147.344 190.747 147.051V105.55C190.747 105.257 190.542 104.901 190.288 104.755Z" fill="#404040" stroke="#060606" stroke-width="1.22381" stroke-linejoin="round"/>
<path d="M212.053 92.7181L191.205 104.755C190.951 104.901 190.746 105.257 190.746 105.55V147.051C190.746 147.344 190.951 147.463 191.205 147.317L212.053 135.28C212.307 135.133 212.513 134.777 212.513 134.484V92.9833C212.513 92.6904 212.307 92.5717 212.053 92.7181Z" fill="#30A255" stroke="#060606" stroke-width="1.22381" stroke-linejoin="round"/>
<path d="M190.288 80.1508L169.44 92.1875C169.186 92.3339 169.186 92.5714 169.44 92.7178L190.288 104.755C190.542 104.901 190.953 104.901 191.207 104.755L212.055 92.7178C212.309 92.5714 212.309 92.3339 212.055 92.1875L191.207 80.1508C190.953 80.0043 190.542 80.0043 190.288 80.1508Z" fill="#30A255" stroke="#060606" stroke-width="1.22381" stroke-linejoin="round"/>
<path d="M156.672 60.2762L135.824 48.2395C135.57 48.0931 135.365 48.2118 135.365 48.5047V153.848C135.365 154.141 135.57 154.497 135.824 154.644L156.672 166.68C156.926 166.827 157.131 166.708 157.131 166.415V61.0717C157.131 60.7788 156.926 60.4227 156.672 60.2762Z" fill="#404040" stroke="#060606" stroke-width="1.22381" stroke-linejoin="round"/>
<path d="M178.436 48.2399L157.587 60.2766C157.334 60.423 157.128 60.7792 157.128 61.0721V166.415C157.128 166.708 157.334 166.827 157.587 166.681L178.436 154.644C178.689 154.497 178.895 154.141 178.895 153.848V48.505C178.895 48.2122 178.689 48.0934 178.436 48.2399Z" fill="#E7E7E7" stroke="#060606" stroke-width="1.22381" stroke-linejoin="round"/>
<path d="M156.672 35.6725L135.824 47.7092C135.57 47.8556 135.57 48.0931 135.824 48.2395L156.672 60.2762C156.926 60.4227 157.337 60.4227 157.59 60.2762L178.439 48.2395C178.692 48.0931 178.692 47.8557 178.439 47.7092L157.59 35.6725C157.337 35.5261 156.926 35.5261 156.672 35.6725Z" fill="white" stroke="#060606" stroke-width="1.22381" stroke-linejoin="round"/>
<path d="M123.655 101.994L102.807 89.9578C102.554 89.8113 102.348 89.9301 102.348 90.2229V172.942C102.348 173.235 102.554 173.591 102.807 173.737L123.655 185.774C123.909 185.92 124.115 185.802 124.115 185.509V102.79C124.115 102.497 123.909 102.141 123.655 101.994Z" fill="#404040" stroke="#060606" stroke-width="1.22381" stroke-linejoin="round"/>
<path d="M145.422 89.9581L124.574 101.995C124.321 102.141 124.115 102.497 124.115 102.79V185.509C124.115 185.802 124.321 185.921 124.574 185.774L145.422 173.738C145.676 173.591 145.882 173.235 145.882 172.942V90.2233C145.882 89.9304 145.676 89.8117 145.422 89.9581Z" fill="#E7E7E7" stroke="#060606" stroke-width="1.22381" stroke-linejoin="round"/>
<path d="M123.655 77.3908L102.807 89.4275C102.554 89.5739 102.554 89.8113 102.807 89.9578L123.655 101.994C123.909 102.141 124.32 102.141 124.574 101.994L145.422 89.9578C145.676 89.8113 145.676 89.5739 145.422 89.4275L124.574 77.3908C124.32 77.2443 123.909 77.2443 123.655 77.3908Z" fill="white" stroke="#060606" stroke-width="1.22381" stroke-linejoin="round"/>
<path d="M90.6407 162.731L69.7925 150.695C69.5389 150.548 69.3333 150.667 69.3333 150.96V191.788C69.3333 192.081 69.5389 192.438 69.7925 192.584L90.6407 204.621C90.8944 204.767 91.1 204.648 91.1 204.356V163.527C91.1 163.234 90.8944 162.878 90.6407 162.731Z" fill="#404040" stroke="#060606" stroke-width="1.22381" stroke-linejoin="round"/>
<path d="M112.406 150.695L91.5574 162.732C91.3038 162.878 91.0981 163.234 91.0981 163.527V204.356C91.0981 204.649 91.3038 204.767 91.5574 204.621L112.406 192.584C112.659 192.438 112.865 192.082 112.865 191.789V150.96C112.865 150.667 112.659 150.549 112.406 150.695Z" fill="#E7E7E7" stroke="#060606" stroke-width="1.22381" stroke-linejoin="round"/>
<path d="M90.6407 138.128L69.7925 150.164C69.5389 150.311 69.5389 150.548 69.7925 150.695L90.6407 162.731C90.8944 162.878 91.3056 162.878 91.5592 162.731L112.407 150.695C112.661 150.548 112.661 150.311 112.407 150.164L91.5592 138.128C91.3056 137.981 90.8944 137.981 90.6407 138.128Z" fill="white" stroke="#060606" stroke-width="1.22381" stroke-linejoin="round"/>
<path d="M57.6226 89.9093L36.7745 77.8726C36.5208 77.7261 36.3152 77.8449 36.3152 78.1377V211.147C36.3152 211.439 36.5208 211.796 36.7745 211.942L57.6226 223.979C57.8763 224.125 58.0819 224.006 58.0819 223.714V90.7048C58.0819 90.4119 57.8763 90.0557 57.6226 89.9093Z" fill="#404040" stroke="#060606" stroke-width="1.22381" stroke-linejoin="round"/>
<path d="M79.3912 77.8729L58.543 89.9096C58.2894 90.0561 58.0837 90.4122 58.0837 90.7051V223.714C58.0837 224.007 58.2894 224.126 58.543 223.979L79.3912 211.942C79.6448 211.796 79.8505 211.44 79.8505 211.147V78.1381C79.8505 77.8452 79.6448 77.7265 79.3912 77.8729Z" fill="#30A255" stroke="#060606" stroke-width="1.22381" stroke-linejoin="round"/>
<path d="M57.6226 65.3056L36.7745 77.3423C36.5208 77.4887 36.5208 77.7261 36.7745 77.8726L57.6226 89.9093C57.8763 90.0557 58.2875 90.0557 58.5412 89.9093L79.3894 77.8726C79.643 77.7261 79.643 77.4887 79.3894 77.3423L58.5412 65.3056C58.2875 65.1591 57.8763 65.1591 57.6226 65.3056Z" fill="#30A255" stroke="#060606" stroke-width="1.22381" stroke-linejoin="round"/>
<path d="M24.6073 209.535L3.75907 197.498C3.50543 197.352 3.2998 197.47 3.2998 197.763V230.215C3.2998 230.508 3.50543 230.864 3.75907 231.01L24.6073 243.047C24.8609 243.193 25.0665 243.075 25.0665 242.782V210.33C25.0665 210.037 24.8609 209.681 24.6073 209.535Z" fill="#404040" stroke="#060606" stroke-width="1.22381" stroke-linejoin="round"/>
<path d="M46.3717 197.498L25.5235 209.535C25.2698 209.682 25.0642 210.038 25.0642 210.331V242.782C25.0642 243.075 25.2698 243.194 25.5235 243.047L46.3717 231.011C46.6253 230.864 46.8309 230.508 46.8309 230.215V197.764C46.8309 197.471 46.6253 197.352 46.3717 197.498Z" fill="#E7E7E7" stroke="#060606" stroke-width="1.22381" stroke-linejoin="round"/>
<path d="M24.6073 184.931L3.75907 196.968C3.50543 197.114 3.50543 197.352 3.75907 197.498L24.6073 209.535C24.8609 209.681 25.2721 209.681 25.5258 209.535L46.374 197.498C46.6276 197.352 46.6276 197.114 46.374 196.968L25.5258 184.931C25.2721 184.785 24.8609 184.785 24.6073 184.931Z" fill="white" stroke="#060606" stroke-width="1.22381" stroke-linejoin="round"/>
<path d="M812.475 240.033C812.475 236.242 809.812 231.63 806.528 229.734L582.793 100.56C579.509 98.6644 576.847 100.201 576.847 103.993V265.732C576.847 269.524 579.509 274.134 582.793 276.03L806.528 405.205C809.812 407.101 812.475 405.564 812.475 401.772V240.033Z" fill="#F3BB2B" fill-opacity="0.1"/>
<path d="M812.475 240.033C812.475 236.242 809.812 231.63 806.528 229.734L582.793 100.56C579.509 98.6644 576.847 100.201 576.847 103.993V265.732C576.847 269.524 579.509 274.134 582.793 276.03L806.528 405.205C809.812 407.101 812.475 405.564 812.475 401.772V240.033Z" fill="#F3BB2B" fill-opacity="0.1"/>
<path d="M560.923 189.146L579.33 178.519C579.554 178.39 579.735 178.495 579.735 178.753V251.784C579.735 252.043 579.554 252.357 579.33 252.487L560.923 263.114C560.699 263.243 560.518 263.138 560.518 262.88V189.849C560.518 189.59 560.699 189.276 560.923 189.146Z" fill="#060606" stroke="#060606" stroke-width="1.08048" stroke-linejoin="round"/>
<path d="M541.706 178.519L560.112 189.147C560.336 189.276 560.518 189.59 560.518 189.849V262.88C560.518 263.139 560.336 263.243 560.112 263.114L541.706 252.487C541.482 252.358 541.3 252.043 541.3 251.785V178.754C541.3 178.495 541.482 178.39 541.706 178.519Z" fill="#E7E7E7" stroke="#060606" stroke-width="1.08048" stroke-linejoin="round"/>
<path d="M560.923 167.424L579.33 178.051C579.554 178.18 579.554 178.39 579.33 178.519L560.923 189.146C560.699 189.276 560.336 189.276 560.112 189.146L541.706 178.519C541.482 178.39 541.482 178.18 541.706 178.051L560.112 167.424C560.336 167.295 560.699 167.295 560.923 167.424Z" fill="white" stroke="#060606" stroke-width="1.08048" stroke-linejoin="round"/>
<path d="M590.071 227.797L608.478 217.17C608.702 217.04 608.883 217.145 608.883 217.404V268.078C608.883 268.336 608.702 268.651 608.478 268.78L590.071 279.407C589.847 279.536 589.666 279.432 589.666 279.173V228.499C589.666 228.24 589.847 227.926 590.071 227.797Z" fill="#060606" stroke="#060606" stroke-width="1.08048" stroke-linejoin="round"/>
<path d="M570.855 217.17L589.262 227.797C589.486 227.926 589.667 228.241 589.667 228.499V279.34C589.667 279.599 589.486 279.704 589.262 279.574L570.855 268.947C570.632 268.818 570.45 268.503 570.45 268.245V217.404C570.45 217.146 570.632 217.041 570.855 217.17Z" fill="#E7E7E7" stroke="#060606" stroke-width="1.08048" stroke-linejoin="round"/>
<path d="M590.071 206.074L608.478 216.701C608.702 216.831 608.702 217.04 608.478 217.17L590.071 227.797C589.847 227.926 589.484 227.926 589.26 227.797L570.854 217.17C570.63 217.04 570.63 216.831 570.854 216.701L589.26 206.074C589.484 205.945 589.847 205.945 590.071 206.074Z" fill="white" stroke="#060606" stroke-width="1.08048" stroke-linejoin="round"/>
<path d="M617.844 259.431L636.251 248.804C636.475 248.675 636.656 248.78 636.656 249.038V285.679C636.656 285.938 636.475 286.252 636.251 286.381L617.844 297.008C617.62 297.138 617.439 297.033 617.439 296.774V260.134C617.439 259.875 617.62 259.56 617.844 259.431Z" fill="#060606" stroke="#060606" stroke-width="1.08048" stroke-linejoin="round"/>
<path d="M598.628 248.804L617.035 259.431C617.259 259.561 617.44 259.875 617.44 260.134V296.774C617.44 297.033 617.259 297.138 617.035 297.008L598.628 286.381C598.404 286.252 598.223 285.938 598.223 285.679V249.039C598.223 248.78 598.404 248.675 598.628 248.804Z" fill="#E7E7E7" stroke="#060606" stroke-width="1.08048" stroke-linejoin="round"/>
<path d="M617.844 237.709L636.251 248.336C636.475 248.465 636.475 248.675 636.251 248.804L617.844 259.431C617.62 259.56 617.257 259.56 617.033 259.431L598.627 248.804C598.403 248.675 598.403 248.465 598.627 248.336L617.033 237.709C617.257 237.58 617.62 237.58 617.844 237.709Z" fill="white" stroke="#060606" stroke-width="1.08048" stroke-linejoin="round"/>
<path d="M647.524 220.162L665.93 209.535C666.154 209.406 666.336 209.51 666.336 209.769V302.775C666.336 303.033 666.154 303.348 665.93 303.477L647.524 314.104C647.3 314.234 647.118 314.129 647.118 313.87V220.864C647.118 220.606 647.3 220.291 647.524 220.162Z" fill="#060606" stroke="#060606" stroke-width="1.08048" stroke-linejoin="round"/>
<path d="M628.309 209.535L646.715 220.162C646.939 220.292 647.121 220.606 647.121 220.865V313.871C647.121 314.129 646.939 314.234 646.715 314.105L628.309 303.478C628.085 303.348 627.903 303.034 627.903 302.775V209.769C627.903 209.511 628.085 209.406 628.309 209.535Z" fill="#E7E7E7" stroke="#060606" stroke-width="1.08048" stroke-linejoin="round"/>
<path d="M647.524 198.44L665.93 209.067C666.154 209.196 666.154 209.406 665.93 209.535L647.524 220.162C647.3 220.291 646.937 220.291 646.713 220.162L628.306 209.535C628.082 209.406 628.082 209.196 628.306 209.067L646.713 198.44C646.937 198.31 647.3 198.31 647.524 198.44Z" fill="white" stroke="#060606" stroke-width="1.08048" stroke-linejoin="round"/>
<path d="M676.673 256.994L695.08 246.367C695.304 246.238 695.485 246.343 695.485 246.601V319.632C695.485 319.891 695.304 320.205 695.08 320.335L676.673 330.962C676.45 331.091 676.268 330.986 676.268 330.728V257.696C676.268 257.438 676.45 257.123 676.673 256.994Z" fill="#060606" stroke="#060606" stroke-width="1.08048" stroke-linejoin="round"/>
<path d="M657.456 246.368L675.862 256.995C676.086 257.124 676.268 257.438 676.268 257.697V330.728C676.268 330.987 676.086 331.091 675.862 330.962L657.456 320.335C657.232 320.206 657.05 319.891 657.05 319.633V246.602C657.05 246.343 657.232 246.238 657.456 246.368Z" fill="#E7E7E7" stroke="#060606" stroke-width="1.08048" stroke-linejoin="round"/>
<path d="M676.673 235.272L695.08 245.899C695.304 246.028 695.304 246.238 695.08 246.367L676.673 256.994C676.45 257.123 676.086 257.123 675.863 256.994L657.456 246.367C657.232 246.238 657.232 246.028 657.456 245.899L675.863 235.272C676.086 235.143 676.45 235.143 676.673 235.272Z" fill="white" stroke="#060606" stroke-width="1.08048" stroke-linejoin="round"/>
<path d="M705.822 310.618L724.228 299.991C724.452 299.861 724.634 299.966 724.634 300.225V336.272C724.634 336.53 724.452 336.845 724.228 336.974L705.822 347.601C705.598 347.73 705.416 347.626 705.416 347.367V311.32C705.416 311.061 705.598 310.747 705.822 310.618Z" fill="#060606" stroke="#060606" stroke-width="1.08048" stroke-linejoin="round"/>
<path d="M686.606 299.991L705.012 310.618C705.236 310.747 705.418 311.062 705.418 311.321V347.368C705.418 347.626 705.236 347.731 705.012 347.602L686.606 336.975C686.382 336.845 686.2 336.531 686.2 336.272V300.225C686.2 299.967 686.382 299.862 686.606 299.991Z" fill="#E7E7E7" stroke="#060606" stroke-width="1.08048" stroke-linejoin="round"/>
<path d="M705.822 288.895L724.228 299.522C724.452 299.652 724.452 299.861 724.228 299.991L705.822 310.618C705.598 310.747 705.235 310.747 705.011 310.618L686.604 299.991C686.38 299.861 686.38 299.652 686.604 299.522L705.011 288.895C705.235 288.766 705.598 288.766 705.822 288.895Z" fill="white" stroke="#060606" stroke-width="1.08048" stroke-linejoin="round"/>
<path d="M734.973 246.324L753.379 235.697C753.603 235.568 753.785 235.673 753.785 235.932V353.363C753.785 353.621 753.603 353.936 753.379 354.065L734.973 364.692C734.749 364.822 734.567 364.717 734.567 364.458V247.027C734.567 246.768 734.749 246.454 734.973 246.324Z" fill="#060606" stroke="#060606" stroke-width="1.08048" stroke-linejoin="round"/>
<path d="M715.754 235.698L734.16 246.325C734.384 246.454 734.566 246.768 734.566 247.027V364.458C734.566 364.717 734.384 364.822 734.16 364.692L715.754 354.065C715.53 353.936 715.348 353.622 715.348 353.363V235.932C715.348 235.673 715.53 235.568 715.754 235.698Z" fill="#F3BB2B" stroke="#060606" stroke-width="1.08048" stroke-linejoin="round"/>
<path d="M734.973 224.602L753.379 235.229C753.603 235.359 753.603 235.568 753.379 235.697L734.973 246.324C734.749 246.454 734.386 246.454 734.162 246.324L715.755 235.697C715.531 235.568 715.531 235.359 715.755 235.229L734.162 224.602C734.386 224.473 734.749 224.473 734.973 224.602Z" fill="#D0A945" stroke="#060606" stroke-width="1.08048" stroke-linejoin="round"/>
<path d="M764.121 351.94L782.528 341.313C782.752 341.184 782.933 341.288 782.933 341.547V370.198C782.933 370.456 782.752 370.771 782.528 370.9L764.121 381.527C763.897 381.657 763.716 381.552 763.716 381.293V352.642C763.716 352.384 763.897 352.069 764.121 351.94Z" fill="#060606" stroke="#060606" stroke-width="1.08048" stroke-linejoin="round"/>
<path d="M744.906 341.313L763.313 351.94C763.536 352.07 763.718 352.384 763.718 352.643V381.293C763.718 381.552 763.536 381.657 763.313 381.527L744.906 370.9C744.682 370.771 744.501 370.457 744.501 370.198V341.547C744.501 341.289 744.682 341.184 744.906 341.313Z" fill="#E7E7E7" stroke="#060606" stroke-width="1.08048" stroke-linejoin="round"/>
<path d="M764.121 330.218L782.528 340.845C782.752 340.974 782.752 341.184 782.528 341.313L764.121 351.94C763.897 352.069 763.534 352.069 763.31 351.94L744.904 341.313C744.68 341.184 744.68 340.974 744.904 340.845L763.31 330.218C763.534 330.088 763.897 330.088 764.121 330.218Z" fill="white" stroke="#060606" stroke-width="1.08048" stroke-linejoin="round"/>
<path d="M591.187 128.349V122.729L593.134 123.853C593.48 124.054 593.761 124.296 593.975 124.581C594.179 124.844 594.337 125.138 594.445 125.453C594.544 125.752 594.594 126.026 594.594 126.272C594.594 126.588 594.532 126.813 594.408 126.95C594.284 127.087 594.118 127.13 593.904 127.076V126.882C594.198 127.117 594.432 127.419 594.587 127.763C594.74 128.104 594.817 128.431 594.817 128.743C594.817 129.079 594.763 129.343 594.655 129.535C594.547 129.727 594.386 129.836 594.168 129.855C593.949 129.875 593.674 129.785 593.343 129.594L591.187 128.349V128.349ZM592.119 127.889L593.248 128.54C593.372 128.612 593.483 128.646 593.579 128.642C593.676 128.638 593.752 128.593 593.806 128.515C593.86 128.437 593.891 128.321 593.891 128.17C593.89 128.035 593.866 127.901 593.82 127.774C593.77 127.638 593.697 127.513 593.603 127.403C593.509 127.286 593.39 127.186 593.248 127.105L592.119 126.453V127.889ZM592.119 125.461L593.12 126.038C593.224 126.098 593.316 126.131 593.397 126.136C593.478 126.141 593.543 126.115 593.59 126.056C593.637 125.998 593.661 125.896 593.661 125.758C593.661 125.586 593.615 125.415 593.522 125.245C593.429 125.074 593.296 124.939 593.12 124.837L592.119 124.259V125.461ZM596.505 131.537C596.251 131.392 596.026 131.204 595.839 130.98C595.665 130.77 595.525 130.533 595.426 130.278C595.334 130.03 595.288 129.788 595.288 129.554C595.288 129.359 595.314 129.196 595.366 129.064C595.41 128.941 595.499 128.84 595.616 128.783C595.731 128.727 595.889 128.712 596.086 128.742C596.25 128.77 596.412 128.812 596.569 128.868L597.205 129.11L597.985 129.424L597.654 129.443C597.654 129.194 597.602 128.98 597.499 128.803C597.395 128.626 597.221 128.468 596.978 128.327C596.843 128.25 596.702 128.206 596.556 128.197C596.41 128.188 596.306 128.262 596.248 128.421L595.416 127.637C595.509 127.341 595.682 127.158 595.937 127.086C596.192 127.014 596.538 127.105 596.978 127.359C597.294 127.54 597.583 127.765 597.836 128.027C598.086 128.286 598.276 128.593 598.404 128.948C598.471 129.122 598.514 129.305 598.533 129.49L598.553 130.025V132.6L597.749 132.136V131.27L597.863 131.515C597.686 131.696 597.493 131.791 597.286 131.798C597.079 131.806 596.82 131.717 596.505 131.535V131.537ZM596.701 130.814C596.87 130.912 597.012 130.96 597.127 130.958C597.242 130.957 597.337 130.93 597.404 130.881C597.472 130.831 597.521 130.785 597.546 130.74C597.593 130.653 597.62 130.535 597.627 130.389L597.641 130.014L597.911 130.248L597.248 129.999L596.839 129.857C596.736 129.825 596.645 129.804 596.565 129.792C596.475 129.782 596.402 129.785 596.346 129.802C596.296 129.815 596.253 129.845 596.225 129.888C596.197 129.941 596.184 129.999 596.187 130.058C596.187 130.155 596.207 130.249 596.248 130.343C596.293 130.439 596.354 130.526 596.427 130.603C596.508 130.687 596.6 130.758 596.701 130.816V130.814ZM599.499 133.148V127.411L600.419 127.941V133.679L599.499 133.148ZM602.446 134.967C602.193 134.822 601.967 134.634 601.78 134.41C601.606 134.2 601.467 133.963 601.368 133.708C601.276 133.46 601.229 133.218 601.229 132.984C601.229 132.789 601.255 132.625 601.307 132.494C601.351 132.371 601.441 132.27 601.557 132.213C601.673 132.157 601.831 132.142 602.027 132.171C602.192 132.2 602.353 132.242 602.511 132.298L603.146 132.54L603.927 132.854L603.596 132.874C603.596 132.624 603.544 132.411 603.44 132.234C603.336 132.057 603.163 131.898 602.92 131.758C602.791 131.682 602.646 131.637 602.497 131.627C602.35 131.618 602.248 131.693 602.189 131.852L601.358 131.067C601.45 130.772 601.624 130.589 601.878 130.517C602.133 130.445 602.48 130.536 602.92 130.79C603.242 130.976 603.528 131.198 603.778 131.458C604.03 131.721 604.224 132.035 604.346 132.379C604.412 132.553 604.456 132.735 604.474 132.921L604.495 133.456V136.032L603.69 135.567V134.701L603.805 134.947C603.627 135.127 603.434 135.222 603.227 135.23C603.02 135.237 602.761 135.149 602.446 134.967ZM602.642 134.244C602.811 134.342 602.953 134.39 603.068 134.389C603.183 134.388 603.278 134.361 603.345 134.311C603.413 134.262 603.462 134.216 603.487 134.171C603.535 134.083 603.562 133.966 603.569 133.82L603.582 133.445L603.852 133.679L603.19 133.429L602.781 133.287C602.691 133.259 602.6 133.238 602.507 133.223C602.417 133.213 602.343 133.216 602.287 133.233C602.232 133.249 602.193 133.277 602.166 133.318C602.139 133.37 602.126 133.429 602.129 133.488C602.129 133.584 602.149 133.679 602.189 133.773C602.234 133.869 602.295 133.956 602.368 134.033C602.449 134.117 602.541 134.188 602.642 134.246V134.244ZM607.861 137.976V135.985L607.847 135.61C607.836 135.441 607.808 135.273 607.763 135.109C607.714 134.926 607.635 134.753 607.53 134.595C607.414 134.424 607.259 134.282 607.077 134.182C606.997 134.136 606.912 134.101 606.824 134.078C606.734 134.055 606.649 134.062 606.57 134.1C606.49 134.137 606.425 134.217 606.374 134.345C606.323 134.474 606.299 134.672 606.299 134.934L605.772 134.341C605.772 134.008 605.831 133.73 605.948 133.506C606.065 133.282 606.241 133.148 606.475 133.104C606.709 133.06 607.009 133.143 607.368 133.35C607.654 133.515 607.887 133.705 608.067 133.921C608.238 134.123 608.38 134.347 608.486 134.589C608.582 134.802 608.655 135.024 608.703 135.253C608.745 135.462 608.772 135.646 608.781 135.805L608.794 136.149V138.513L607.861 137.976ZM605.367 136.536V132.321L606.184 132.793V134.19L606.299 134.256V137.073L605.367 136.535V136.536ZM611.214 140.029C610.836 139.811 610.505 139.52 610.241 139.174C609.972 138.825 609.762 138.435 609.619 138.019C609.476 137.614 609.403 137.188 609.402 136.758C609.402 136.332 609.477 135.994 609.625 135.743C609.774 135.493 609.988 135.353 610.261 135.318C610.533 135.282 610.855 135.372 611.227 135.587C611.657 135.835 612.018 136.17 612.309 136.59C612.6 137.011 612.789 137.459 612.87 137.941L611.951 137.692C611.9 137.45 611.804 137.221 611.666 137.016C611.534 136.818 611.383 136.669 611.214 136.571C611.02 136.459 610.861 136.422 610.737 136.46C610.613 136.498 610.522 136.589 610.463 136.743C610.404 136.897 610.376 137.086 610.376 137.32C610.372 137.67 610.443 138.016 610.585 138.335C610.715 138.63 610.935 138.876 611.214 139.038C611.421 139.157 611.579 139.194 611.687 139.147C611.795 139.1 611.876 138.991 611.93 138.819L612.87 139.588C612.766 139.975 612.57 140.207 612.282 140.282C611.994 140.357 611.638 140.274 611.214 140.029ZM615.144 142.298C614.765 142.078 614.429 141.79 614.153 141.449C613.869 141.098 613.647 140.712 613.484 140.294C613.321 139.875 613.244 139.452 613.244 139.031C613.244 138.571 613.323 138.216 613.481 137.966C613.638 137.715 613.856 137.577 614.133 137.55C614.41 137.523 614.729 137.609 615.09 137.818C615.473 138.039 615.805 138.337 616.067 138.694C616.337 139.061 616.539 139.475 616.661 139.915C616.79 140.366 616.835 140.836 616.797 141.324L615.887 140.799V140.409C615.887 139.979 615.828 139.636 615.708 139.38C615.588 139.124 615.399 138.917 615.13 138.762C614.817 138.581 614.586 138.558 614.437 138.694C614.288 138.829 614.218 139.109 614.218 139.539C614.218 139.932 614.291 140.278 614.437 140.579C614.58 140.871 614.807 141.114 615.09 141.275C615.27 141.379 615.424 141.423 615.553 141.406C615.682 141.388 615.779 141.314 615.847 141.181L616.766 142.017C616.629 142.322 616.412 142.496 616.114 142.538C615.816 142.579 615.495 142.5 615.144 142.298ZM613.934 139.671V138.883L616.354 140.28V141.068L613.934 139.671ZM594.138 152.685C593.257 152.176 592.486 151.519 591.825 150.711C591.168 149.909 590.646 149.005 590.28 148.035C589.915 147.08 589.727 146.066 589.726 145.044V140.923C589.726 139.905 589.911 139.121 590.28 138.571C590.446 138.308 590.674 138.09 590.943 137.935C591.212 137.779 591.514 137.692 591.825 137.679C592.485 137.634 593.257 137.866 594.138 138.375C595.023 138.887 595.808 139.556 596.452 140.35C597.109 141.152 597.631 142.056 597.997 143.026C598.362 143.981 598.55 144.995 598.551 146.017V150.138C598.551 151.156 598.366 151.94 597.997 152.49C597.628 153.04 597.113 153.337 596.452 153.382C595.792 153.426 595.02 153.194 594.138 152.685ZM594.138 150.224C594.535 150.453 594.893 150.551 595.213 150.52C595.533 150.488 595.785 150.342 595.972 150.081C596.16 149.821 596.253 149.461 596.253 149.003V144.481C596.253 144.023 596.16 143.556 595.972 143.079C595.785 142.601 595.532 142.163 595.213 141.762C594.894 141.361 594.535 141.047 594.138 140.818C593.741 140.589 593.384 140.491 593.064 140.522C592.744 140.554 592.492 140.7 592.305 140.961C592.117 141.221 592.024 141.581 592.024 142.039V146.561C592.024 147.018 592.117 147.486 592.305 147.963C592.492 148.44 592.745 148.879 593.064 149.28C593.383 149.68 593.742 149.995 594.138 150.224ZM601.224 156.49V153.896L603.472 155.193V157.788L601.224 156.49ZM605.823 159.126V156.875L610.814 154.642C611.189 154.477 611.453 154.271 611.607 154.022C611.76 153.78 611.841 153.498 611.839 153.211C611.838 152.786 611.762 152.365 611.616 151.966C611.47 151.556 611.258 151.172 610.987 150.831C610.728 150.494 610.405 150.21 610.037 149.996C609.657 149.777 609.322 149.684 609.03 149.72C608.894 149.732 608.764 149.774 608.648 149.844C608.532 149.915 608.433 150.011 608.36 150.125C608.201 150.357 608.126 150.667 608.137 151.055L605.823 149.719C605.823 148.777 606.003 148.067 606.36 147.587C606.718 147.107 607.217 146.863 607.856 146.857C608.494 146.851 609.239 147.092 610.087 147.582C610.864 148.03 611.558 148.628 612.169 149.376C612.783 150.115 613.274 150.95 613.623 151.847C613.975 152.75 614.152 153.662 614.152 154.584C614.152 155.265 614.069 155.783 613.904 156.14C613.739 156.489 613.494 156.761 613.169 156.955C612.844 157.143 612.445 157.338 611.971 157.542L608.749 158.944L608.566 158.267L614.152 161.492V163.934L605.823 159.126ZM615.796 164.884V162.633L620.787 160.4C621.161 160.235 621.426 160.028 621.58 159.78C621.733 159.538 621.813 159.256 621.811 158.969C621.81 158.544 621.735 158.123 621.588 157.724C621.44 157.307 621.23 156.929 620.961 156.589C620.701 156.252 620.378 155.968 620.01 155.754C619.63 155.534 619.294 155.442 619.002 155.477C618.716 155.509 618.493 155.644 618.333 155.883C618.173 156.115 618.099 156.425 618.109 156.813L615.796 155.477C615.796 154.536 615.976 153.825 616.333 153.345C616.691 152.865 617.19 152.622 617.829 152.615C618.468 152.609 619.211 152.85 620.06 153.341C620.836 153.789 621.53 154.386 622.142 155.134C622.756 155.874 623.247 156.708 623.596 157.605C623.949 158.508 624.125 159.421 624.125 160.343C624.125 161.024 624.042 161.542 623.877 161.898C623.72 162.238 623.464 162.523 623.141 162.714C622.754 162.932 622.354 163.128 621.943 163.3L618.721 164.703L618.539 164.026L624.125 167.251V169.693L615.796 164.884ZM628.165 172.045V161.13L625.935 161.426V158.564L628.165 158.306L630.462 159.632V173.371L628.165 172.045ZM634.198 175.528L638.197 166.54L633.108 163.602V161.16L640.61 165.491V167.934L636.628 176.93L634.198 175.528ZM646.772 182.787V180.65L641.6 177.664V175.24L645.351 168.228L647.928 169.716L644.177 176.729L646.772 178.226V174.792L649.052 176.109V179.543L650.11 180.154V182.577L649.052 181.966V184.103L646.772 182.787ZM656.244 188.542C655.456 188.087 654.749 187.466 654.121 186.677C653.499 185.891 653.005 185.015 652.642 184.049C652.279 183.075 652.097 182.09 652.097 181.091V177.103C652.097 176.022 652.279 175.195 652.642 174.623C653.005 174.044 653.518 173.735 654.178 173.697C654.84 173.652 655.616 173.888 656.508 174.403C657.107 174.752 657.662 175.172 658.161 175.653C658.684 176.152 659.163 176.763 659.599 177.485L657.996 178.41C657.803 178.075 657.573 177.763 657.31 177.48C657.051 177.203 656.784 176.985 656.508 176.826C656.079 176.579 655.705 176.48 655.385 176.53C655.071 176.579 654.826 176.739 654.65 177.012C654.479 177.283 654.393 177.628 654.393 178.048V180.089L654.014 179.393C654.355 179.189 654.749 179.111 655.195 179.159C655.647 179.203 656.112 179.364 656.591 179.641C657.34 180.074 657.999 180.647 658.566 181.363C659.135 182.075 659.587 182.874 659.904 183.729C660.229 184.591 660.392 185.454 660.392 186.319C660.392 187.184 660.202 187.857 659.822 188.337C659.442 188.811 658.938 189.073 658.31 189.124C657.682 189.168 656.993 188.975 656.244 188.542ZM656.244 186.062C656.586 186.259 656.897 186.343 657.178 186.315C657.464 186.289 657.69 186.162 657.855 185.933C658.026 185.707 658.111 185.397 658.111 185.003C658.106 184.584 658.022 184.169 657.864 183.781C657.698 183.356 657.475 182.966 657.194 182.613C656.914 182.253 656.602 181.975 656.261 181.778C655.919 181.58 655.606 181.498 655.319 181.53C655.184 181.542 655.054 181.583 654.937 181.65C654.82 181.718 654.719 181.811 654.641 181.921C654.476 182.15 654.393 182.462 654.393 182.856C654.393 183.238 654.476 183.639 654.641 184.058C654.807 184.477 655.03 184.868 655.31 185.227C655.591 185.587 655.903 185.864 656.244 186.062Z" fill="white"/>
<defs>
<clipPath id="clip0_46_1484">
<rect width="830" height="480" fill="white" transform="translate(0 90.2974)"/>
</clipPath>
<clipPath id="clip1_46_1484">
<rect width="830" height="480" fill="white" transform="translate(0 90.2974)"/>
</clipPath>
</defs>
</svg>
