<svg width="104" height="163" viewBox="0 0 104 163" fill="none" xmlns="http://www.w3.org/2000/svg">
<g clip-path="url(#clip0_46_90)">
<g clip-path="url(#clip1_46_90)">
<g clip-path="url(#clip2_46_90)">
<path fill-rule="evenodd" clip-rule="evenodd" d="M92.0172 130.365C98.8442 124.915 102.955 115.176 102.955 101.954C102.955 72.1051 82.0003 35.8088 56.1499 20.8843C42.5424 13.028 30.2912 12.6598 21.7389 18.4271L21.7364 18.4231L21.5666 18.5444C21.3468 18.6957 21.1295 18.851 20.9147 19.0103L12.665 24.9068L13.9988 27.07C11.0164 32.4601 9.34424 39.4756 9.34424 47.9076C9.34417 77.7568 30.2998 114.053 56.1499 128.978C65.1253 134.16 73.511 136.084 80.634 135.138L82.0857 137.493L92.0426 130.405L92.0172 130.365Z" fill="#F3BB2B"/>
<path d="M92.0172 130.364L91.7915 130.082L91.5389 130.283L91.7104 130.557L92.0172 130.364ZM21.7389 18.4268L21.4325 18.6192L21.6313 18.9358L21.9412 18.7268L21.7389 18.4268ZM21.7364 18.4228L22.0428 18.2304L21.8385 17.905L21.526 18.1284L21.7364 18.4228ZM21.5666 18.5442L21.7718 18.8423L21.777 18.8386L21.5666 18.5442ZM20.9147 19.0101L21.1252 19.3045L21.1304 19.3006L20.9147 19.0101ZM12.665 24.9065L12.4546 24.6121L12.1796 24.8087L12.357 25.0964L12.665 24.9065ZM13.9988 27.0698L14.3154 27.245L14.4178 27.0599L14.3068 26.8799L13.9988 27.0698ZM80.6341 135.138L80.9416 134.948L80.8186 134.748L80.5863 134.779L80.6341 135.138ZM82.0857 137.493L81.7774 137.682L81.9808 138.011L82.2956 137.787L82.0857 137.493ZM92.0426 130.405L92.2524 130.7L92.5303 130.502L92.3487 130.213L92.0426 130.405ZM102.594 101.954C102.594 115.108 98.5041 124.723 91.7915 130.082L92.2423 130.647C99.1837 125.106 103.317 115.244 103.317 101.954H102.594ZM55.969 21.1974C68.8261 28.6204 80.4864 41.3728 88.933 56.0031C97.3803 70.6334 102.594 87.1077 102.594 101.954H103.317C103.317 86.9506 98.0533 70.3525 89.5597 55.6413C81.0661 40.9301 69.3238 28.0722 56.3308 20.5706L55.969 21.1974ZM21.9412 18.7268C30.3374 13.0648 42.4308 13.3811 55.969 21.1974L56.3308 20.5706C42.654 12.6743 30.245 12.2543 21.5366 18.1268L21.9412 18.7268ZM22.0454 18.2344L22.0428 18.2304L21.43 18.6152L21.4325 18.6192L22.0454 18.2344ZM21.526 18.1284L21.3562 18.2498L21.777 18.8386L21.9468 18.7172L21.526 18.1284ZM21.1304 19.3006C21.3417 19.1438 21.5555 18.9911 21.7718 18.8423L21.3615 18.2461C21.1382 18.3997 20.9174 18.5576 20.6991 18.7195L21.1304 19.3006ZM20.7044 18.7157L12.4546 24.6121L12.8754 25.2008L21.1252 19.3045L20.7044 18.7157ZM12.357 25.0964L13.6909 27.2597L14.3068 26.8799L12.973 24.7166L12.357 25.0964ZM9.70608 47.9073C9.70608 39.5211 11.3694 32.5693 14.3154 27.245L13.6822 26.8946C10.6635 32.3503 8.98242 39.4295 8.98242 47.9073H9.70608ZM56.3308 128.664C43.4738 121.241 31.8135 108.488 23.3666 93.858C14.9198 79.2277 9.70601 62.7533 9.70608 47.9073H8.98242C8.98235 62.9103 14.2464 79.5085 22.7399 94.2198C31.2334 108.931 42.976 121.789 55.969 129.291L56.3308 128.664ZM80.5863 134.779C73.5639 135.711 65.2585 133.819 56.3308 128.664L55.969 129.291C64.9922 134.5 73.4575 136.456 80.6811 135.497L80.5863 134.779ZM80.3258 135.327L81.7774 137.682L82.394 137.303L80.9416 134.948L80.3258 135.327ZM82.2956 137.787L92.2524 130.7L91.8327 130.11L81.8759 137.198L82.2956 137.787ZM92.3487 130.213L92.3234 130.172L91.7104 130.557L91.7357 130.598L92.3487 130.213Z" fill="#060606"/>
<mask id="mask0_46_90" style="mask-type:alpha" maskUnits="userSpaceOnUse" x="8" y="14" width="96" height="125">
<path fill-rule="evenodd" clip-rule="evenodd" d="M92.0172 130.365C98.8442 124.915 102.955 115.176 102.955 101.954C102.955 72.1051 82.0003 35.8088 56.1499 20.8843C42.5424 13.028 30.2912 12.6598 21.7389 18.4271L21.7364 18.4231L21.5666 18.5444C21.3468 18.6957 21.1295 18.851 20.9147 19.0103L12.665 24.9068L13.9988 27.07C11.0164 32.4601 9.34424 39.4756 9.34424 47.9076C9.34417 77.7568 30.2998 114.053 56.1499 128.978C65.1253 134.16 73.511 136.084 80.634 135.138L82.0857 137.493L92.0426 130.405L92.0172 130.365Z" fill="#B0F127"/>
<path d="M92.0172 130.364L91.7915 130.082L91.5389 130.283L91.7104 130.557L92.0172 130.364ZM21.7389 18.4268L21.4325 18.6192L21.6313 18.9358L21.9412 18.7268L21.7389 18.4268ZM21.7364 18.4228L22.0428 18.2304L21.8385 17.905L21.526 18.1284L21.7364 18.4228ZM21.5666 18.5442L21.7718 18.8423L21.777 18.8386L21.5666 18.5442ZM20.9147 19.0101L21.1252 19.3045L21.1304 19.3006L20.9147 19.0101ZM12.665 24.9065L12.4546 24.6121L12.1796 24.8087L12.357 25.0964L12.665 24.9065ZM13.9988 27.0698L14.3154 27.245L14.4178 27.0599L14.3068 26.8799L13.9988 27.0698ZM80.6341 135.138L80.9416 134.948L80.8186 134.748L80.5863 134.779L80.6341 135.138ZM82.0857 137.493L81.7774 137.682L81.9808 138.011L82.2956 137.787L82.0857 137.493ZM92.0426 130.405L92.2524 130.7L92.5303 130.502L92.3487 130.213L92.0426 130.405ZM102.594 101.954C102.594 115.108 98.5041 124.723 91.7915 130.082L92.2423 130.647C99.1837 125.106 103.317 115.244 103.317 101.954H102.594ZM55.969 21.1974C68.8261 28.6204 80.4864 41.3728 88.933 56.0031C97.3803 70.6334 102.594 87.1077 102.594 101.954H103.317C103.317 86.9506 98.0533 70.3525 89.5597 55.6413C81.0661 40.9301 69.3238 28.0722 56.3308 20.5706L55.969 21.1974ZM21.9412 18.7268C30.3374 13.0648 42.4308 13.3811 55.969 21.1974L56.3308 20.5706C42.654 12.6743 30.245 12.2543 21.5366 18.1268L21.9412 18.7268ZM22.0454 18.2344L22.0428 18.2304L21.43 18.6152L21.4325 18.6192L22.0454 18.2344ZM21.526 18.1284L21.3562 18.2498L21.777 18.8386L21.9468 18.7172L21.526 18.1284ZM21.1304 19.3006C21.3417 19.1438 21.5555 18.9911 21.7718 18.8423L21.3615 18.2461C21.1382 18.3997 20.9174 18.5576 20.6991 18.7195L21.1304 19.3006ZM20.7044 18.7157L12.4546 24.6121L12.8754 25.2008L21.1252 19.3045L20.7044 18.7157ZM12.357 25.0964L13.6909 27.2597L14.3068 26.8799L12.973 24.7166L12.357 25.0964ZM9.70608 47.9073C9.70608 39.5211 11.3694 32.5693 14.3154 27.245L13.6822 26.8946C10.6635 32.3503 8.98242 39.4295 8.98242 47.9073H9.70608ZM56.3308 128.664C43.4738 121.241 31.8135 108.488 23.3666 93.858C14.9198 79.2277 9.70601 62.7533 9.70608 47.9073H8.98242C8.98235 62.9103 14.2464 79.5085 22.7399 94.2198C31.2334 108.931 42.976 121.789 55.969 129.291L56.3308 128.664ZM80.5863 134.779C73.5639 135.711 65.2585 133.819 56.3308 128.664L55.969 129.291C64.9922 134.5 73.4575 136.456 80.6811 135.497L80.5863 134.779ZM80.3258 135.327L81.7774 137.682L82.394 137.303L80.9416 134.948L80.3258 135.327ZM82.2956 137.787L92.2524 130.7L91.8327 130.11L81.8759 137.198L82.2956 137.787ZM92.3487 130.213L92.3234 130.172L91.7104 130.557L91.7357 130.598L92.3487 130.213Z" fill="#060606"/>
</mask>
<g mask="url(#mask0_46_90)">
<path d="M158.86 72.1267L59.847 129.292L59.847 178.452L158.86 121.287L158.86 72.1267Z" fill="#F3BB2B"/>
</g>
<path d="M92.0172 130.364L91.7915 130.082L91.5389 130.283L91.7104 130.557L92.0172 130.364ZM21.7389 18.4268L21.4325 18.6192L21.6313 18.9358L21.9412 18.7268L21.7389 18.4268ZM21.7364 18.4228L22.0428 18.2304L21.8385 17.905L21.526 18.1284L21.7364 18.4228ZM21.5666 18.5442L21.7718 18.8423L21.777 18.8386L21.5666 18.5442ZM20.9147 19.0101L21.1252 19.3045L21.1304 19.3006L20.9147 19.0101ZM12.665 24.9065L12.4546 24.6121L12.1796 24.8087L12.357 25.0964L12.665 24.9065ZM13.9988 27.0698L14.3154 27.245L14.4178 27.0599L14.3068 26.8799L13.9988 27.0698ZM80.6341 135.138L80.9416 134.948L80.8186 134.748L80.5863 134.779L80.6341 135.138ZM82.0857 137.493L81.7774 137.682L81.9808 138.011L82.2956 137.787L82.0857 137.493ZM92.0426 130.405L92.2524 130.7L92.5303 130.502L92.3487 130.213L92.0426 130.405ZM102.594 101.954C102.594 115.108 98.5041 124.723 91.7915 130.082L92.2423 130.647C99.1837 125.106 103.317 115.244 103.317 101.954H102.594ZM55.969 21.1974C68.8261 28.6204 80.4864 41.3728 88.933 56.0031C97.3803 70.6334 102.594 87.1077 102.594 101.954H103.317C103.317 86.9506 98.0533 70.3525 89.5597 55.6413C81.0661 40.9301 69.3238 28.0722 56.3308 20.5706L55.969 21.1974ZM21.9412 18.7268C30.3374 13.0648 42.4308 13.3811 55.969 21.1974L56.3308 20.5706C42.654 12.6743 30.245 12.2543 21.5366 18.1268L21.9412 18.7268ZM22.0454 18.2344L22.0428 18.2304L21.43 18.6152L21.4325 18.6192L22.0454 18.2344ZM21.526 18.1284L21.3562 18.2498L21.777 18.8386L21.9468 18.7172L21.526 18.1284ZM21.1304 19.3006C21.3417 19.1438 21.5555 18.9911 21.7718 18.8423L21.3615 18.2461C21.1382 18.3997 20.9174 18.5576 20.6991 18.7195L21.1304 19.3006ZM20.7044 18.7157L12.4546 24.6121L12.8754 25.2008L21.1252 19.3045L20.7044 18.7157ZM12.357 25.0964L13.6909 27.2597L14.3068 26.8799L12.973 24.7166L12.357 25.0964ZM9.70608 47.9073C9.70608 39.5211 11.3694 32.5693 14.3154 27.245L13.6822 26.8946C10.6635 32.3503 8.98242 39.4295 8.98242 47.9073H9.70608ZM56.3308 128.664C43.4738 121.241 31.8135 108.488 23.3666 93.858C14.9198 79.2277 9.70601 62.7533 9.70608 47.9073H8.98242C8.98235 62.9103 14.2464 79.5085 22.7399 94.2198C31.2334 108.931 42.976 121.789 55.969 129.291L56.3308 128.664ZM80.5863 134.779C73.5639 135.711 65.2585 133.819 56.3308 128.664L55.969 129.291C64.9922 134.5 73.4575 136.456 80.6811 135.497L80.5863 134.779ZM80.3258 135.327L81.7774 137.682L82.394 137.303L80.9416 134.948L80.3258 135.327ZM82.2956 137.787L92.2524 130.7L91.8327 130.11L81.8759 137.198L82.2956 137.787ZM92.3487 130.213L92.3234 130.172L91.7104 130.557L91.7357 130.598L92.3487 130.213Z" fill="#060606"/>
<path d="M47.5338 135.116C73.3839 150.04 94.3395 137.942 94.3395 108.093C94.3395 78.2435 73.3839 41.9473 47.5338 27.0228C21.6838 12.0982 0.728149 24.197 0.728148 54.0461C0.728148 83.8951 21.6838 120.191 47.5338 135.116Z" fill="white" stroke="#060606" stroke-width="0.723661"/>
<mask id="mask1_46_90" style="mask-type:alpha" maskUnits="userSpaceOnUse" x="0" y="20" width="95" height="122">
<path d="M47.5338 135.116C73.3839 150.04 94.3395 137.942 94.3395 108.093C94.3395 78.2435 73.3839 41.9473 47.5338 27.0228C21.6838 12.0982 0.728149 24.197 0.728148 54.0461C0.728148 83.8951 21.6838 120.191 47.5338 135.116Z" fill="#B0F127" stroke="#060606" stroke-width="0.723661"/>
</mask>
<g mask="url(#mask1_46_90)">
<path d="M62.6753 85.9828C63.4192 80.6704 59.633 75.3978 54.4559 70.3495L56.1352 63.5408L52.0349 59.9936L50.3999 66.6229C49.322 65.6904 48.2148 64.7585 47.1147 63.8335L48.7614 57.1609L44.6634 53.615L42.9829 60.4204C42.0906 59.6706 41.2147 58.9329 40.3646 58.198L40.3692 58.1764L34.7144 53.2812L33.6237 57.7085C33.6237 57.7085 36.6659 60.27 36.6018 60.2828C38.2624 61.7203 38.5626 63.1626 38.5124 64.1396L36.5994 71.8963C36.7138 71.9961 36.8621 72.1302 37.0257 72.3001C36.889 72.1822 36.743 72.0548 36.5924 71.9259L33.911 82.7907C33.7078 83.256 33.1927 83.8328 32.0319 82.8305C32.0728 82.9231 29.0515 80.2514 29.0515 80.2514L27.016 84.4956L32.3519 89.1119C33.3446 89.9723 34.3174 90.8349 35.2751 91.6707L33.5781 98.5586L37.6738 102.103L39.3543 95.2898C40.4731 96.2862 41.5593 97.2371 42.622 98.1555L40.9473 104.935L45.0477 108.483L46.7445 101.61C53.7365 107.175 58.9942 109.594 61.2072 103.57C62.9906 98.7199 61.1185 94.2477 57.4398 89.9115C60.1189 90.7452 62.1369 89.8753 62.6753 85.9828ZM53.3067 95.7435C52.0396 100.892 43.4664 92.7635 40.6869 90.3616L42.9385 81.2392C45.718 83.6446 54.631 90.3761 53.3067 95.7435ZM54.575 81.2211C53.4188 85.9017 46.2832 79.0653 43.9685 77.0622L46.01 68.7879C48.3246 70.7905 55.7791 76.3378 54.575 81.2211Z" fill="#060606"/>
<path d="M47.5338 135.116C73.3839 150.04 94.3395 137.942 94.3395 108.093C94.3395 78.2435 73.3839 41.9473 47.5338 27.0228C21.6838 12.0982 0.728149 24.197 0.728148 54.0461C0.728148 83.8951 21.6838 120.191 47.5338 135.116Z" stroke="#060606" stroke-width="0.723661"/>
</g>
</g>
</g>
</g>
<defs>
<clipPath id="clip0_46_90">
<rect width="103.492" height="162.824" fill="white"/>
</clipPath>
<clipPath id="clip1_46_90">
<rect width="103.492" height="162.824" fill="white"/>
</clipPath>
<clipPath id="clip2_46_90">
<rect width="103.484" height="162.824" fill="white" transform="translate(0.0045166)"/>
</clipPath>
</defs>
</svg>
