<svg width="261" height="261" viewBox="0 0 261 261" fill="none" xmlns="http://www.w3.org/2000/svg">
<g clip-path="url(#clip0_46_60)">
<rect width="260.847" height="260.847" rx="13.7288" fill="white" fill-opacity="0.01"/>
<g clip-path="url(#clip1_46_60)">
<g clip-path="url(#clip2_46_60)">
<g clip-path="url(#clip3_46_60)">
<path d="M260.085 0.762695H0.762695V260.085H260.085V0.762695Z" fill="#141414"/>
<path d="M1.14844 104.915H259.489" stroke="#2F2F2F" stroke-width="0.505105" stroke-dasharray="5.89 5.89"/>
<path d="M1.14844 145.275H259.489" stroke="#2F2F2F" stroke-width="0.505105" stroke-dasharray="5.89 5.89"/>
<path d="M1.14844 185.633H259.489" stroke="#2F2F2F" stroke-width="0.505105" stroke-dasharray="5.89 5.89"/>
<path d="M1.14844 225.991H259.489" stroke="#2F2F2F" stroke-width="0.505105" stroke-dasharray="5.89 5.89"/>
<path d="M54.4883 225.991V104.914" stroke="#2F2F2F" stroke-width="0.505105"/>
<path d="M130.424 225.991V104.914" stroke="#2F2F2F" stroke-width="0.505105"/>
<path d="M206.36 225.991V104.914" stroke="#2F2F2F" stroke-width="0.505105"/>
<path d="M45.385 38.8307C45.385 32.3093 40.0984 27.0227 33.577 27.0227C27.0557 27.0227 21.769 32.3093 21.769 38.8307C21.769 45.3521 27.0557 50.6387 33.577 50.6387C40.0984 50.6387 45.385 45.3521 45.385 38.8307Z" stroke="white" stroke-width="0.503095"/>
<path d="M38.2411 37.6499C38.4307 36.3828 37.4659 35.7015 36.1466 35.2471L36.5745 33.5306L35.5297 33.2702L35.1131 34.9415C34.8384 34.8731 34.5562 34.8085 34.2759 34.7445L34.6955 33.0621L33.6513 32.8018L33.223 34.5177C32.9957 34.4659 32.7724 34.4147 32.5558 34.3609L32.557 34.3555L31.116 33.9957L30.8381 35.1117C30.8381 35.1117 31.6133 35.2894 31.5969 35.3004C32.0201 35.406 32.0966 35.6861 32.0838 35.9081L31.5963 37.8636C31.6255 37.871 31.6633 37.8817 31.705 37.8984C31.6702 37.8898 31.6329 37.8802 31.5946 37.871L30.9112 40.6104C30.8595 40.739 30.7283 40.9318 30.4325 40.8586C30.4429 40.8738 29.6729 40.6691 29.6729 40.6691L29.1543 41.8651L30.514 42.2041C30.7669 42.2675 31.0148 42.3338 31.2589 42.3963L30.8265 44.1325L31.8701 44.3928L32.2984 42.6752C32.5835 42.7525 32.8603 42.8239 33.131 42.8912L32.7043 44.6009L33.7491 44.8613L34.1816 43.1284C35.9633 43.4656 37.3031 43.3296 37.867 41.7181C38.3215 40.4205 37.8444 39.6721 36.907 39.184C37.5897 39.0266 38.1039 38.5775 38.2411 37.6499ZM35.8538 40.9976C35.5309 42.2951 33.3462 41.5937 32.6379 41.4178L33.2117 39.1177C33.92 39.2944 36.1913 39.6444 35.8538 40.9976ZM36.177 37.6311C35.8823 38.8114 34.064 38.2118 33.4742 38.0648L33.9944 35.9786C34.5842 36.1256 36.4838 36.4 36.177 37.6311Z" fill="#F4F4F4"/>
<path d="M53.3762 36.1235V28.879H56.2489C56.7385 28.879 57.1393 28.9779 57.4513 29.1757C57.7666 29.3703 57.9997 29.6202 58.1506 29.9254C58.3049 30.2305 58.382 30.5458 58.382 30.8712C58.382 31.2703 58.2864 31.6091 58.0952 31.8875C57.9074 32.1658 57.6509 32.3537 57.3255 32.4509V32.1994C57.7817 32.3033 58.1271 32.5196 58.3619 32.8483C58.6 33.177 58.7191 33.551 58.7191 33.9702C58.7191 34.3996 58.6369 34.7752 58.4726 35.0972C58.3082 35.4192 58.0634 35.6707 57.7381 35.8518C57.416 36.0329 57.017 36.1235 56.5406 36.1235H53.3762ZM54.6038 34.9815H56.3897C56.6011 34.9815 56.7906 34.9395 56.9582 34.8557C57.1259 34.7685 57.2567 34.6477 57.3507 34.4934C57.4479 34.3359 57.4966 34.1497 57.4966 33.9351C57.4966 33.7405 57.4546 33.5661 57.3708 33.4118C57.2869 33.2576 57.1645 33.1351 57.0035 33.0446C56.8425 32.9506 56.6497 32.9037 56.4249 32.9037H54.6038V34.9815ZM54.6038 31.7717H56.2338C56.4082 31.7717 56.5641 31.7382 56.7017 31.6712C56.8392 31.604 56.9482 31.5051 57.0286 31.3743C57.1092 31.2435 57.1494 31.0825 57.1494 30.8913C57.1494 30.6398 57.0689 30.4301 56.9079 30.2625C56.747 30.0947 56.5222 30.0109 56.2338 30.0109H54.6038V31.7717ZM59.8245 29.865V28.7532H61.0369V29.865H59.8245ZM59.8245 36.1235V30.6901H61.0369V36.1235H59.8245ZM65.7285 36.1235C65.3696 36.1906 65.0175 36.2191 64.672 36.2091C64.3299 36.2023 64.0231 36.1403 63.7514 36.0229C63.4797 35.9021 63.2734 35.7126 63.1326 35.4544C63.0084 35.2196 62.9431 34.9798 62.9363 34.7349C62.9297 34.4901 62.9262 34.2134 62.9262 33.9049V29.1808H64.1337V33.8344C64.1337 34.0524 64.1354 34.2436 64.1388 34.408C64.1454 34.5723 64.1806 34.7064 64.2444 34.8104C64.3651 35.0116 64.558 35.124 64.8229 35.1475C65.0879 35.171 65.3897 35.1576 65.7285 35.1072V36.1235ZM61.9402 31.6409V30.6901H65.7285V31.6409H61.9402ZM68.9813 36.2744C68.4211 36.2744 67.9432 36.1504 67.5474 35.9021C67.1517 35.6506 66.8481 35.3085 66.6368 34.8758C66.4289 34.4432 66.3232 33.9535 66.3199 33.4068C66.3232 32.85 66.4323 32.357 66.6469 31.9277C66.8649 31.495 67.1734 31.1563 67.5726 30.9115C67.9717 30.6633 68.4463 30.5392 68.9964 30.5392C69.6135 30.5392 70.135 30.6951 70.561 31.007C70.9902 31.3156 71.2703 31.7382 71.4011 32.2748L70.1937 32.6018C70.0998 32.3101 69.9439 32.0836 69.7259 31.9227C69.5078 31.7584 69.2596 31.6762 68.9813 31.6762C68.666 31.6762 68.4061 31.7516 68.2015 31.9026C67.9969 32.0501 67.8459 32.2547 67.7486 32.5163C67.6514 32.7779 67.6028 33.0748 67.6028 33.4068C67.6028 33.9233 67.7185 34.3409 67.9499 34.6595C68.1813 34.9781 68.5251 35.1374 68.9813 35.1374C69.3032 35.1374 69.5565 35.0636 69.741 34.9161C69.9288 34.7685 70.0696 34.5555 70.1635 34.2771L71.4011 34.5539C71.2334 35.1072 70.94 35.5332 70.5207 35.8317C70.1015 36.1269 69.5883 36.2744 68.9813 36.2744ZM74.6616 36.2744C74.1183 36.2744 73.6438 36.152 73.2379 35.9072C72.832 35.6624 72.5168 35.3252 72.2921 34.8959C72.0708 34.4633 71.9601 33.9669 71.9601 33.4068C71.9601 32.8366 72.0741 32.3369 72.3022 31.9076C72.5302 31.4783 72.8472 31.1429 73.253 30.9014C73.6588 30.6599 74.1284 30.5392 74.6616 30.5392C75.2083 30.5392 75.6847 30.6615 76.0905 30.9064C76.4963 31.1512 76.8116 31.49 77.036 31.9227C77.2612 32.352 77.3734 32.8467 77.3734 33.4068C77.3734 33.9702 77.2589 34.4683 77.0315 34.901C76.8063 35.3303 76.4913 35.6674 76.0854 35.9122C75.6796 36.1537 75.205 36.2744 74.6616 36.2744ZM74.6616 35.1374C75.1446 35.1374 75.5035 34.9764 75.7383 34.6545C75.9731 34.3325 76.0905 33.9166 76.0905 33.4068C76.0905 32.8802 75.9714 32.4609 75.7333 32.1491C75.4951 31.8338 75.138 31.6762 74.6616 31.6762C74.3363 31.6762 74.068 31.7499 73.8567 31.8975C73.6488 32.0417 73.4945 32.2446 73.3938 32.5062C73.2932 32.7645 73.2429 33.0647 73.2429 33.4068C73.2429 33.9334 73.362 34.3543 73.6002 34.6696C73.8417 34.9815 74.1955 35.1374 74.6616 35.1374ZM78.5821 29.865V28.7532H79.7945V29.865H78.5821ZM78.5821 36.1235V30.6901H79.7945V36.1235H78.5821ZM85.0598 36.1235V33.5074C85.0598 33.3363 85.0485 33.1469 85.025 32.9389C85.0015 32.731 84.9461 32.5314 84.8589 32.3402C84.7747 32.1457 84.6473 31.9864 84.4767 31.8623C84.3084 31.7382 84.0809 31.6762 83.792 31.6762C83.6381 31.6762 83.485 31.7013 83.3341 31.7516C83.1832 31.802 83.0459 31.8892 82.9216 32.0132C82.801 32.134 82.704 32.3016 82.6304 32.5163C82.5561 32.7276 82.5197 32.9993 82.5197 33.3313L81.8001 33.0244C81.8001 32.5616 81.8888 32.1423 82.0663 31.7667C82.2475 31.3911 82.5129 31.0925 82.8617 30.8712C83.2105 30.6465 83.6396 30.5342 84.1492 30.5342C84.5518 30.5342 84.8839 30.6012 85.1455 30.7354C85.4071 30.8695 85.6149 31.0406 85.7696 31.2485C85.9235 31.4565 86.038 31.6778 86.1115 31.9126C86.1851 32.1474 86.2321 32.3704 86.2526 32.5817C86.2761 32.7896 86.2874 32.959 86.2874 33.0898V36.1235H85.0598ZM81.2921 36.1235V30.6901H82.3733V32.3754H82.5197V36.1235H81.2921Z" fill="white"/>
<path d="M53.2352 48.6776V42.882H55.4931C55.8392 42.882 56.1344 42.9531 56.3786 43.0953C56.6254 43.2375 56.8133 43.4253 56.942 43.6588C57.0735 43.8895 57.1392 44.1391 57.1392 44.4074C57.1392 44.7213 57.0587 44.9963 56.8977 45.2324C56.7368 45.4686 56.5194 45.6309 56.2457 45.7195L56.2377 45.5223C56.6107 45.6215 56.9005 45.8039 57.107 46.0696C57.3136 46.3353 57.417 46.6518 57.417 47.0194C57.417 47.3575 57.3472 47.65 57.2076 47.8969C57.0708 48.1437 56.8723 48.3355 56.612 48.4724C56.3544 48.6092 56.0486 48.6776 55.6944 48.6776H53.2352ZM53.9597 47.9935H55.5575C55.7722 47.9935 55.964 47.9545 56.133 47.8767C56.3021 47.7963 56.4349 47.6835 56.5315 47.5387C56.6308 47.3938 56.6804 47.2194 56.6804 47.0154C56.6804 46.8195 56.6361 46.6438 56.5476 46.4882C56.4617 46.3325 56.3397 46.2092 56.1813 46.1179C56.0257 46.024 55.8446 45.9771 55.638 45.9771H53.9597V47.9935ZM53.9597 45.3008H55.485C55.6568 45.3008 55.8111 45.2647 55.9479 45.1922C56.0875 45.117 56.1974 45.0124 56.2779 44.8783C56.3611 44.7441 56.4027 44.5872 56.4027 44.4074C56.4027 44.1579 56.3182 43.9539 56.1491 43.7956C55.9801 43.6373 55.7588 43.5582 55.485 43.5582H53.9597V45.3008ZM59.5549 48.6776V43.5622H57.5788V42.882H62.2475V43.5622H60.2713V48.6776H59.5549ZM65.271 48.7984C64.6942 48.7984 64.2045 48.671 63.802 48.416C63.3995 48.1611 63.0923 47.8069 62.8803 47.3535C62.671 46.9001 62.5663 46.3755 62.5663 45.7798C62.5663 45.1841 62.671 44.6596 62.8803 44.2062C63.0923 43.7527 63.3995 43.3985 63.802 43.1436C64.2045 42.8887 64.6942 42.7612 65.271 42.7612C65.9418 42.7612 66.4932 42.9316 66.9252 43.2724C67.3599 43.6131 67.6591 44.0719 67.8227 44.6489L67.0942 44.842C66.9762 44.41 66.7655 44.0693 66.4623 43.8197C66.1592 43.5702 65.762 43.4455 65.271 43.4455C64.8391 43.4455 64.4795 43.5434 64.1923 43.7393C63.9053 43.9352 63.6893 44.2088 63.5444 44.5603C63.3995 44.9091 63.3257 45.3156 63.323 45.7798C63.3204 46.2413 63.3915 46.6478 63.5364 46.9993C63.6812 47.3481 63.8986 47.6219 64.1883 47.8204C64.4781 48.0162 64.8391 48.1142 65.271 48.1142C65.762 48.1142 66.1592 47.9894 66.4623 47.7399C66.7655 47.4876 66.9762 47.1469 67.0942 46.7176L67.8227 46.9108C67.6591 47.485 67.3599 47.9438 66.9252 48.2872C66.4932 48.628 65.9418 48.7984 65.271 48.7984Z" fill="#939393"/>
<path d="M138.595 38.4451V36.8731H140V38.4451H138.595ZM138.595 27.6762V26.0974H140V27.6762H138.595ZM139.368 37.3098C138.696 37.3098 138.096 37.1888 137.567 36.947C137.039 36.7051 136.605 36.3625 136.265 35.9191C135.929 35.4712 135.709 34.9428 135.606 34.3337L136.996 34.112C137.131 34.6852 137.418 35.1421 137.856 35.4824C138.295 35.8183 138.821 35.9863 139.436 35.9863C140.045 35.9863 140.539 35.8407 140.92 35.5496C141.305 35.2585 141.497 34.8868 141.497 34.4345C141.497 34.112 141.4 33.85 141.202 33.6485C141.01 33.4469 140.694 33.2767 140.255 33.1379L137.984 32.4392C136.641 32.0227 135.969 31.2165 135.969 30.0207C135.969 29.4564 136.103 28.966 136.372 28.5494C136.645 28.1329 137.028 27.8105 137.52 27.5821C138.013 27.3537 138.589 27.2395 139.247 27.2395C139.878 27.2484 140.439 27.3648 140.926 27.5888C141.419 27.8127 141.827 28.1352 142.149 28.5562C142.476 28.9772 142.702 29.4833 142.828 30.0744L141.397 30.3297C141.334 29.9849 141.202 29.6803 141.001 29.4161C140.804 29.1519 140.553 28.9459 140.248 28.798C139.948 28.6502 139.61 28.5741 139.234 28.5696C138.88 28.5607 138.562 28.6166 138.28 28.7376C138.002 28.854 137.78 29.0197 137.614 29.2347C137.454 29.4452 137.373 29.6848 137.373 29.9535C137.373 30.2491 137.487 30.4999 137.715 30.7059C137.944 30.912 138.304 31.0889 138.797 31.2367L140.578 31.754C141.393 31.9958 141.981 32.3205 142.344 32.7281C142.707 33.1357 142.888 33.6776 142.888 34.3539C142.888 34.945 142.741 35.4623 142.445 35.9057C142.154 36.3446 141.744 36.6894 141.215 36.9403C140.687 37.1866 140.071 37.3098 139.368 37.3098ZM148.42 37.1082V35.422H144.053V34.0918L147.198 27.4343H148.803L145.659 34.0918H148.42V31.4718H149.845V34.0918H150.806V35.422H149.845V37.1082H148.42ZM155.515 37.3098C154.884 37.3098 154.324 37.1843 153.836 36.9335C153.352 36.6783 152.971 36.3244 152.694 35.8721C152.421 35.4197 152.283 34.8957 152.283 34.3001C152.283 33.7448 152.414 33.2364 152.673 32.7751C152.933 32.3138 153.321 31.951 153.836 31.6868L153.809 32.1705C153.397 31.9152 153.079 31.5972 152.854 31.2165C152.635 30.8313 152.525 30.4014 152.525 29.9267C152.525 29.3758 152.653 28.8988 152.908 28.4958C153.164 28.0927 153.516 27.7814 153.963 27.5619C154.416 27.3425 154.933 27.2327 155.515 27.2327C156.097 27.2327 156.612 27.3425 157.06 27.5619C157.508 27.7814 157.86 28.0927 158.115 28.4958C158.37 28.8988 158.498 29.3758 158.498 29.9267C158.498 30.4014 158.393 30.8291 158.182 31.2098C157.972 31.5905 157.649 31.9107 157.215 32.1705L157.195 31.7002C157.705 31.951 158.092 32.3093 158.357 32.7751C158.621 33.2364 158.753 33.7448 158.753 34.3001C158.753 34.8957 158.614 35.4197 158.337 35.8721C158.059 36.3244 157.676 36.6783 157.188 36.9335C156.7 37.1843 156.142 37.3098 155.515 37.3098ZM155.515 35.9729C156.035 35.9729 156.455 35.8318 156.778 35.5496C157.101 35.263 157.262 34.8465 157.262 34.3001C157.262 33.7537 157.101 33.3372 156.778 33.0505C156.46 32.7594 156.039 32.6138 155.515 32.6138C154.991 32.6138 154.568 32.7594 154.245 33.0505C153.927 33.3372 153.768 33.7537 153.768 34.3001C153.768 34.8465 153.93 35.263 154.252 35.5496C154.575 35.8318 154.996 35.9729 155.515 35.9729ZM155.515 31.2703C155.959 31.2703 156.317 31.1606 156.59 30.941C156.868 30.7171 157.007 30.379 157.007 29.9267C157.007 29.4743 156.868 29.1362 156.59 28.9123C156.317 28.6838 155.959 28.5696 155.515 28.5696C155.072 28.5696 154.711 28.6838 154.434 28.9123C154.156 29.1362 154.017 29.4743 154.017 29.9267C154.017 30.379 154.156 30.7171 154.434 30.941C154.711 31.1606 155.072 31.2703 155.515 31.2703ZM160.366 38.7138L160.454 38.089C160.646 38.1025 160.796 38.0666 160.904 37.9816C161.011 37.8965 161.083 37.7777 161.119 37.6255C161.154 37.4732 161.161 37.3008 161.139 37.1082H160.366V35.4892H161.851V37.2426C161.851 37.7711 161.724 38.1697 161.468 38.4383C161.217 38.7071 160.85 38.7989 160.366 38.7138ZM164.902 37.1082L168.301 28.7712H163.995V27.4343H169.813V28.7712L166.42 37.1082H164.902ZM174.575 27.2395C175.197 27.2395 175.759 27.3895 176.261 27.6896C176.762 27.9852 177.161 28.3927 177.457 28.9123C177.752 29.4317 177.9 30.0252 177.9 30.6925V33.7693C177.9 34.477 177.752 35.0973 177.457 35.6302C177.165 36.1587 176.758 36.5708 176.234 36.8663C175.714 37.162 175.114 37.3098 174.434 37.3098C173.923 37.3098 173.444 37.2135 172.996 37.0209C172.548 36.8283 172.159 36.5416 171.827 36.161L172.862 35.2003C173.045 35.4376 173.276 35.628 173.553 35.7713C173.831 35.9146 174.125 35.9863 174.434 35.9863C174.832 35.9863 175.183 35.89 175.488 35.6974C175.798 35.5048 176.037 35.2541 176.207 34.945C176.378 34.636 176.463 34.3046 176.463 33.9508V32.1772L176.745 32.4862C176.467 32.849 176.122 33.1357 175.71 33.3461C175.298 33.5566 174.857 33.6619 174.386 33.6619C173.782 33.6619 173.245 33.523 172.774 33.2454C172.304 32.9677 171.932 32.5893 171.659 32.11C171.386 31.6308 171.249 31.0889 171.249 30.4843C171.249 29.8796 171.401 29.3332 171.706 28.8451C172.011 28.3569 172.414 27.9673 172.915 27.6762C173.417 27.385 173.97 27.2395 174.575 27.2395ZM174.575 28.5965C174.225 28.5965 173.905 28.6816 173.614 28.8518C173.327 29.0175 173.099 29.2437 172.928 29.5303C172.759 29.8169 172.674 30.1349 172.674 30.4843C172.674 30.8336 172.759 31.1538 172.928 31.4449C173.099 31.7316 173.327 31.96 173.614 32.1301C173.9 32.3004 174.219 32.3854 174.568 32.3854C174.917 32.3854 175.235 32.3004 175.522 32.1301C175.808 31.96 176.037 31.7316 176.207 31.4449C176.378 31.1538 176.463 30.8336 176.463 30.4843C176.463 30.1394 176.378 29.8237 176.207 29.537C176.042 29.2504 175.815 29.022 175.528 28.8518C175.242 28.6816 174.924 28.5965 174.575 28.5965ZM182.873 37.3098C182.241 37.3098 181.682 37.1843 181.193 36.9335C180.71 36.6783 180.329 36.3244 180.051 35.8721C179.778 35.4197 179.641 34.8957 179.641 34.3001C179.641 33.7448 179.771 33.2364 180.031 32.7751C180.291 32.3138 180.678 31.951 181.193 31.6868L181.166 32.1705C180.754 31.9152 180.437 31.5972 180.212 31.2165C179.993 30.8313 179.883 30.4014 179.883 29.9267C179.883 29.3758 180.01 28.8988 180.266 28.4958C180.522 28.0927 180.873 27.7814 181.321 27.5619C181.773 27.3425 182.291 27.2327 182.873 27.2327C183.455 27.2327 183.97 27.3425 184.417 27.5619C184.866 27.7814 185.217 28.0927 185.472 28.4958C185.728 28.8988 185.855 29.3758 185.855 29.9267C185.855 30.4014 185.75 30.8291 185.54 31.2098C185.329 31.5905 185.007 31.9107 184.572 32.1705L184.552 31.7002C185.063 31.951 185.45 32.3093 185.714 32.7751C185.979 33.2364 186.111 33.7448 186.111 34.3001C186.111 34.8957 185.972 35.4197 185.694 35.8721C185.417 36.3244 185.034 36.6783 184.546 36.9335C184.057 37.1843 183.5 37.3098 182.873 37.3098ZM182.873 35.9729C183.392 35.9729 183.813 35.8318 184.135 35.5496C184.458 35.263 184.619 34.8465 184.619 34.3001C184.619 33.7537 184.458 33.3372 184.135 33.0505C183.818 32.7594 183.397 32.6138 182.873 32.6138C182.349 32.6138 181.925 32.7594 181.603 33.0505C181.285 33.3372 181.126 33.7537 181.126 34.3001C181.126 34.8465 181.287 35.263 181.61 35.5496C181.932 35.8318 182.353 35.9729 182.873 35.9729ZM182.873 31.2703C183.316 31.2703 183.674 31.1606 183.947 30.941C184.225 30.7171 184.364 30.379 184.364 29.9267C184.364 29.4743 184.225 29.1362 183.947 28.9123C183.674 28.6838 183.316 28.5696 182.873 28.5696C182.429 28.5696 182.068 28.6838 181.791 28.9123C181.513 29.1362 181.375 29.4743 181.375 29.9267C181.375 30.379 181.513 30.7171 181.791 30.941C182.068 31.1606 182.429 31.2703 182.873 31.2703ZM188.1 37.1082V35.6236H189.585V37.1082H188.1ZM191.434 37.1015L191.44 35.8519L195.653 32.0765C195.994 31.7763 196.224 31.4897 196.345 31.2165C196.471 30.9433 196.533 30.6701 196.533 30.3969C196.533 30.0521 196.457 29.743 196.305 29.4698C196.152 29.1921 195.942 28.9727 195.673 28.8115C195.404 28.6502 195.095 28.5696 194.746 28.5696C194.388 28.5696 194.068 28.6547 193.786 28.8249C193.507 28.9906 193.29 29.2123 193.134 29.49C192.977 29.7677 192.901 30.0678 192.905 30.3902H191.468C191.468 29.7632 191.609 29.2146 191.891 28.7443C192.177 28.2696 192.569 27.9001 193.067 27.6358C193.563 27.3671 194.132 27.2327 194.773 27.2327C195.382 27.2327 195.928 27.3716 196.412 27.6492C196.896 27.9224 197.277 28.2987 197.554 28.7779C197.836 29.2571 197.977 29.8035 197.977 30.4171C197.977 30.8604 197.919 31.2367 197.803 31.5457C197.686 31.8547 197.512 32.1414 197.279 32.4056C197.046 32.6699 196.755 32.9565 196.405 33.2655L193.154 36.1677L192.999 35.7646H197.977V37.1015H191.434ZM202.295 37.2896C201.816 37.2896 201.367 37.2 200.946 37.0209C200.524 36.8372 200.159 36.5775 199.85 36.2416C199.546 35.9057 199.324 35.5093 199.185 35.0525L200.542 34.6763C200.672 35.0928 200.899 35.4131 201.221 35.637C201.543 35.8564 201.902 35.9639 202.295 35.9595C202.65 35.955 202.961 35.8721 203.23 35.7108C203.498 35.5496 203.709 35.3324 203.861 35.0592C204.014 34.7815 204.089 34.4636 204.089 34.1052C204.089 33.5678 203.922 33.1244 203.586 32.7751C203.254 32.4258 202.82 32.2511 202.283 32.2511C202.13 32.2511 201.973 32.2734 201.812 32.3183C201.655 32.3631 201.508 32.4213 201.369 32.493L200.711 31.3845L204.123 28.3681L204.271 28.7712H199.568V27.4343H205.386V28.7712L202.551 31.4987L202.537 31.0418C203.147 31.0418 203.675 31.1785 204.123 31.4517C204.571 31.7204 204.916 32.0876 205.158 32.5534C205.404 33.0147 205.527 33.532 205.527 34.1052C205.527 34.7233 205.382 35.272 205.09 35.7512C204.804 36.2304 204.416 36.6066 203.928 36.8798C203.445 37.153 202.901 37.2896 202.295 37.2896ZM216.513 37.3098C215.757 37.3098 215.086 37.1552 214.505 36.8462C213.927 36.5327 213.474 36.096 213.148 35.5362C212.821 34.9719 212.657 34.309 212.657 33.5477V27.441L214.081 27.4343V33.4738C214.081 33.8858 214.151 34.2485 214.289 34.5621C214.428 34.8756 214.614 35.1376 214.847 35.3481C215.08 35.5586 215.34 35.7176 215.626 35.8251C215.917 35.9325 216.213 35.9863 216.513 35.9863C216.817 35.9863 217.113 35.9325 217.4 35.8251C217.691 35.7131 217.953 35.5519 218.186 35.3414C218.419 35.1308 218.602 34.8689 218.737 34.5553C218.875 34.2419 218.945 33.8813 218.945 33.4738V27.4343H220.369V33.5477C220.369 34.3046 220.206 34.9652 219.879 35.5295C219.552 36.0938 219.098 36.5327 218.515 36.8462C217.937 37.1552 217.27 37.3098 216.513 37.3098ZM225.349 37.3098C224.655 37.3098 224.028 37.1911 223.467 36.9537C222.912 36.7119 222.453 36.3692 222.09 35.9259C221.732 35.478 221.499 34.9473 221.392 34.3337L222.856 34.112C223.004 34.7032 223.313 35.1644 223.784 35.4959C224.254 35.8228 224.802 35.9863 225.429 35.9863C225.819 35.9863 226.177 35.9259 226.504 35.8049C226.831 35.6795 227.093 35.5026 227.29 35.2742C227.491 35.0413 227.592 34.7636 227.592 34.4411C227.592 34.2665 227.561 34.112 227.498 33.9776C227.44 33.8433 227.357 33.7268 227.25 33.6283C227.147 33.5252 227.019 33.438 226.867 33.3663C226.719 33.2901 226.556 33.2252 226.377 33.1714L223.897 32.4392C223.655 32.3675 223.41 32.2757 223.159 32.1637C222.908 32.0473 222.677 31.8973 222.466 31.7136C222.261 31.5256 222.093 31.2949 221.963 31.0217C221.833 30.7441 221.768 30.4081 221.768 30.014C221.768 29.4183 221.921 28.9145 222.225 28.5024C222.534 28.0859 222.95 27.7724 223.474 27.5619C223.998 27.3469 224.585 27.2395 225.234 27.2395C225.888 27.2484 226.473 27.3648 226.988 27.5888C227.507 27.8127 227.937 28.1352 228.278 28.5562C228.623 28.9727 228.86 29.4788 228.99 30.0744L227.485 30.3297C227.418 29.967 227.275 29.6557 227.055 29.396C226.836 29.1317 226.567 28.9302 226.249 28.7913C225.931 28.648 225.586 28.5741 225.214 28.5696C224.856 28.5607 224.527 28.6144 224.226 28.7308C223.931 28.8473 223.694 29.0108 223.514 29.2213C223.34 29.4317 223.253 29.6736 223.253 29.9468C223.253 30.2156 223.331 30.4327 223.488 30.5985C223.645 30.7641 223.837 30.8963 224.066 30.9948C224.298 31.0889 224.529 31.1672 224.757 31.2299L226.544 31.7338C226.768 31.7965 227.021 31.8816 227.303 31.9891C227.59 32.0921 227.866 32.2377 228.13 32.4258C228.398 32.6138 228.62 32.8647 228.795 33.1782C228.97 33.4872 229.057 33.8768 229.057 34.3471C229.057 34.8353 228.959 35.2652 228.761 35.637C228.564 36.0042 228.294 36.3133 227.949 36.564C227.608 36.8104 227.214 36.9962 226.766 37.1216C226.318 37.247 225.846 37.3098 225.349 37.3098ZM230.489 37.1082V27.4343H233.519C233.608 27.4343 233.773 27.4366 234.015 27.441C234.262 27.4455 234.497 27.4634 234.721 27.4947C235.478 27.5888 236.114 27.8597 236.629 28.3076C237.148 28.7555 237.54 29.3243 237.804 30.014C238.069 30.6992 238.201 31.4517 238.201 32.2712C238.201 33.0953 238.069 33.8522 237.804 34.5419C237.54 35.2271 237.148 35.7937 236.629 36.2416C236.114 36.685 235.478 36.9537 234.721 37.0478C234.497 37.0791 234.262 37.097 234.015 37.1015C233.773 37.1059 233.608 37.1082 233.519 37.1082H230.489ZM231.926 35.7713H233.519C233.67 35.7713 233.852 35.7669 234.062 35.7579C234.273 35.7489 234.459 35.731 234.62 35.7042C235.113 35.6101 235.511 35.3974 235.816 35.0659C236.125 34.73 236.352 34.318 236.495 33.8298C236.638 33.3417 236.709 32.8221 236.709 32.2712C236.709 31.7025 236.636 31.1762 236.488 30.6925C236.34 30.2043 236.112 29.7968 235.803 29.4698C235.498 29.1384 235.104 28.9279 234.62 28.8383C234.459 28.807 234.271 28.7891 234.056 28.7846C233.846 28.7756 233.667 28.7712 233.519 28.7712H231.926V35.7713Z" fill="white"/>
<path d="M138.062 47.9593L141.291 44.7297L144.521 47.9593" stroke="#F3BB2B" stroke-width="0.916089" stroke-linecap="square"/>
<path d="M141.291 44.9983V51.6014" stroke="#F3BB2B" stroke-width="0.916089" stroke-linecap="square"/>
<path d="M150.821 51.5774V50.2827H147.587V49.457L149.907 44.5418H150.894L148.573 49.457H150.821V47.4782H151.7V49.457H152.434V50.2827H151.7V51.5774H150.821ZM153.569 51.5774V50.6198H154.526V51.5774H153.569ZM158.445 51.724C157.998 51.724 157.593 51.6165 157.228 51.4016C156.866 51.1865 156.578 50.8934 156.364 50.5221C156.152 50.1475 156.046 49.7257 156.046 49.2566V46.9164C156.046 46.4245 156.152 45.9897 156.364 45.6119C156.578 45.2308 156.872 44.9344 157.243 44.7226C157.618 44.5076 158.044 44.4002 158.523 44.4002C158.911 44.4002 159.271 44.48 159.603 44.6396C159.938 44.7959 160.22 45.0223 160.448 45.3187L159.798 45.8952C159.658 45.6901 159.475 45.5272 159.251 45.4066C159.026 45.2861 158.783 45.2259 158.523 45.2259C158.214 45.2259 157.938 45.3008 157.697 45.4506C157.459 45.5972 157.272 45.7926 157.135 46.037C156.998 46.2779 156.93 46.5385 156.93 46.8186V48.2307L156.74 48.0157C156.945 47.7225 157.205 47.488 157.521 47.3121C157.838 47.1363 158.18 47.0483 158.547 47.0483C158.984 47.0483 159.375 47.1509 159.72 47.3561C160.068 47.5613 160.342 47.8398 160.541 48.1916C160.742 48.5401 160.843 48.9326 160.843 49.369C160.843 49.8055 160.735 50.2013 160.516 50.5563C160.298 50.9114 160.006 51.1947 159.641 51.4064C159.281 51.6181 158.881 51.724 158.445 51.724ZM158.445 50.8836C158.725 50.8836 158.98 50.8169 159.212 50.6834C159.443 50.5465 159.626 50.3641 159.759 50.1361C159.895 49.9049 159.964 49.6492 159.964 49.369C159.964 49.0889 159.895 48.8332 159.759 48.602C159.626 48.3707 159.443 48.1883 159.212 48.0547C158.984 47.918 158.73 47.8496 158.45 47.8496C158.17 47.8496 157.913 47.918 157.682 48.0547C157.455 48.1883 157.272 48.3707 157.135 48.602C156.998 48.8332 156.93 49.0889 156.93 49.369C156.93 49.6459 156.997 49.8999 157.13 50.1312C157.267 50.3592 157.449 50.5417 157.678 50.6784C157.909 50.8152 158.164 50.8836 158.445 50.8836ZM164.196 51.724C163.835 51.724 163.498 51.6491 163.185 51.4992C162.875 51.3494 162.61 51.1442 162.389 50.8836C162.17 50.6198 162.014 50.3169 161.919 49.9749L162.755 49.7501C162.813 49.9814 162.918 50.1817 163.067 50.3511C163.217 50.5172 163.392 50.6475 163.59 50.742C163.792 50.8332 164.002 50.8788 164.221 50.8788C164.507 50.8788 164.765 50.8104 164.992 50.6736C165.224 50.5335 165.406 50.3495 165.54 50.1215C165.673 49.8902 165.74 49.6377 165.74 49.3642C165.74 49.0808 165.67 48.8251 165.53 48.5971C165.394 48.3658 165.209 48.1834 164.978 48.0499C164.747 47.9164 164.494 47.8496 164.221 47.8496C163.911 47.8496 163.646 47.9147 163.424 48.045C163.206 48.172 163.033 48.3284 162.907 48.514L162.135 48.2209L162.349 44.5418H166.126V45.3676H162.769L163.155 45.006L162.975 47.9521L162.784 47.703C162.979 47.4945 163.213 47.3333 163.483 47.2193C163.757 47.1053 164.035 47.0483 164.318 47.0483C164.755 47.0483 165.146 47.1509 165.491 47.3561C165.836 47.558 166.11 47.8349 166.312 48.1867C166.514 48.5352 166.614 48.9277 166.614 49.3642C166.614 49.7974 166.504 50.1932 166.282 50.5514C166.061 50.9064 165.766 51.1915 165.398 51.4064C165.033 51.6181 164.633 51.724 164.196 51.724ZM168.565 51.5774L167.978 50.9911L174.438 44.5418L175.024 45.1282L168.565 51.5774ZM173.558 51.724C173.235 51.724 172.941 51.6458 172.674 51.4895C172.41 51.3299 172.198 51.1181 172.039 50.8544C171.879 50.5872 171.799 50.2908 171.799 49.9652C171.799 49.6459 171.88 49.3528 172.043 49.0857C172.206 48.8186 172.422 48.6052 172.689 48.4456C172.956 48.286 173.245 48.2062 173.558 48.2062C173.881 48.2062 174.176 48.286 174.443 48.4456C174.709 48.602 174.921 48.8137 175.078 49.0808C175.237 49.3446 175.317 49.6394 175.317 49.9652C175.317 50.2908 175.237 50.5872 175.078 50.8544C174.921 51.1181 174.709 51.3299 174.443 51.4895C174.176 51.6458 173.881 51.724 173.558 51.724ZM173.558 50.9569C173.737 50.9569 173.902 50.9114 174.052 50.8202C174.204 50.7289 174.325 50.6085 174.413 50.4586C174.505 50.3088 174.55 50.1443 174.55 49.9652C174.55 49.786 174.505 49.6215 174.413 49.4717C174.325 49.3186 174.204 49.198 174.052 49.1101C173.902 49.0189 173.737 48.9733 173.558 48.9733C173.379 48.9733 173.215 49.0189 173.065 49.1101C172.915 49.198 172.794 49.3186 172.703 49.4717C172.612 49.6215 172.567 49.786 172.567 49.9652C172.567 50.1443 172.612 50.3088 172.703 50.4586C172.794 50.6085 172.915 50.7289 173.065 50.8202C173.215 50.9114 173.379 50.9569 173.558 50.9569ZM169.444 47.9131C169.122 47.9131 168.827 47.8349 168.56 47.6786C168.293 47.519 168.079 47.3073 167.92 47.0434C167.764 46.7763 167.686 46.4799 167.686 46.1542C167.686 45.835 167.767 45.5418 167.93 45.2748C168.093 45.0076 168.308 44.7943 168.574 44.6347C168.842 44.4751 169.132 44.3953 169.444 44.3953C169.767 44.3953 170.06 44.4751 170.324 44.6347C170.591 44.7911 170.804 45.0028 170.964 45.2698C171.124 45.5337 171.203 45.8284 171.203 46.1542C171.203 46.4799 171.124 46.7763 170.964 47.0434C170.804 47.3073 170.591 47.519 170.324 47.6786C170.06 47.8349 169.767 47.9131 169.444 47.9131ZM169.444 47.146C169.624 47.146 169.788 47.1004 169.938 47.0092C170.091 46.918 170.212 46.7975 170.299 46.6477C170.39 46.4978 170.436 46.3334 170.436 46.1542C170.436 45.975 170.39 45.8105 170.299 45.6607C170.212 45.5076 170.091 45.3871 169.938 45.2992C169.788 45.208 169.624 45.1624 169.444 45.1624C169.265 45.1624 169.101 45.208 168.951 45.2992C168.801 45.3871 168.681 45.5076 168.59 45.6607C168.498 45.8105 168.452 45.975 168.452 46.1542C168.452 46.3334 168.498 46.4978 168.59 46.6477C168.681 46.7975 168.801 46.918 168.951 47.0092C169.101 47.1004 169.265 47.146 169.444 47.146Z" fill="#939393"/>
<path d="M1.72681 225.888L10.9371 206.079C11.4894 204.892 12.6805 204.132 13.9905 204.132H30.4687C31.3486 204.132 32.1934 203.788 32.8226 203.172L49.0558 187.304C50.3644 186.025 52.455 186.025 53.7635 187.304L68.1689 201.386C68.798 202 69.643 202.345 70.5228 202.345H78.4221C79.3024 202.345 80.1471 202 80.7765 201.386L96.5541 185.963C97.1827 185.348 98.0282 185.003 98.9078 185.003H115.213C116.329 185.003 117.372 184.451 117.998 183.529L127.463 169.601C128.845 167.567 131.87 167.653 133.135 169.761L151.712 200.711C152.321 201.724 153.416 202.345 154.599 202.345H164.213C165.46 202.345 166.605 201.655 167.188 200.553L189.161 159.049C189.744 157.946 190.89 157.256 192.137 157.256H206.585C207.465 157.256 208.31 156.912 208.939 156.297L232.243 133.517C232.872 132.902 233.717 132.557 234.597 132.557H241.076C242.273 132.557 243.38 131.922 243.984 130.889L259.226 104.811" stroke="#F3BB2B" stroke-width="0.505105" stroke-linecap="round"/>
<path d="M130.318 170.499C131.711 170.499 132.841 169.37 132.841 167.977C132.841 166.584 131.711 165.454 130.318 165.454C128.925 165.454 127.796 166.584 127.796 167.977C127.796 169.37 128.925 170.499 130.318 170.499Z" fill="#F3BB2B"/>
<path d="M15.8702 243.289V238.057L14.7295 238.747V237.909L15.8702 237.228H16.6321V243.289H15.8702ZM18.2337 243.289V237.228H20.1025C20.1643 237.228 20.2723 237.229 20.4267 237.232C20.581 237.235 20.7283 237.246 20.8687 237.266C21.3373 237.327 21.7288 237.498 22.043 237.779C22.3601 238.057 22.5986 238.411 22.7585 238.84C22.9185 239.269 22.9985 239.742 22.9985 240.259C22.9985 240.775 22.9185 241.247 22.7585 241.676C22.5986 242.106 22.3601 242.461 22.043 242.742C21.7288 243.019 21.3373 243.189 20.8687 243.251C20.7283 243.268 20.5796 243.279 20.4224 243.285C20.2681 243.288 20.1615 243.289 20.1025 243.289H18.2337ZM19.004 242.573H20.1025C20.2092 242.573 20.3285 242.57 20.4604 242.565C20.5922 242.557 20.7073 242.544 20.8055 242.527C21.1366 242.465 21.4046 242.326 21.6095 242.11C21.8143 241.894 21.9644 241.625 22.0599 241.302C22.1553 240.98 22.203 240.632 22.203 240.259C22.203 239.876 22.1538 239.525 22.0556 239.202C21.9603 238.879 21.8101 238.611 21.6052 238.398C21.4004 238.185 21.1338 238.048 20.8055 237.99C20.7073 237.97 20.5909 237.957 20.4561 237.952C20.3214 237.946 20.2036 237.944 20.1025 237.944H19.004V242.573Z" fill="#939393"/>
<path d="M57.8753 243.289L60.0557 237.947H57.3029V237.228H60.8597V237.947L58.6835 243.289H57.8753ZM61.8715 243.289V237.228H63.7404C63.8021 237.228 63.9102 237.229 64.0645 237.232C64.2189 237.235 64.3662 237.246 64.5065 237.266C64.9751 237.327 65.3666 237.498 65.6809 237.779C65.998 238.057 66.2364 238.411 66.3964 238.84C66.5563 239.269 66.6363 239.742 66.6363 240.259C66.6363 240.775 66.5563 241.247 66.3964 241.676C66.2364 242.106 65.998 242.461 65.6809 242.742C65.3666 243.019 64.9751 243.189 64.5065 243.251C64.3662 243.268 64.2174 243.279 64.0603 243.285C63.9059 243.288 63.7993 243.289 63.7404 243.289H61.8715ZM62.6418 242.573H63.7404C63.847 242.573 63.9663 242.57 64.0982 242.565C64.2301 242.557 64.3451 242.544 64.4433 242.527C64.7744 242.465 65.0425 242.326 65.2473 242.11C65.4522 241.894 65.6023 241.625 65.6977 241.302C65.7931 240.98 65.8408 240.632 65.8408 240.259C65.8408 239.876 65.7917 239.525 65.6934 239.202C65.5981 238.879 65.4479 238.611 65.2431 238.398C65.0382 238.185 64.7716 238.048 64.4433 237.99C64.3451 237.97 64.2286 237.957 64.094 237.952C63.9592 237.946 63.8414 237.944 63.7404 237.944H62.6418V242.573Z" fill="#939393"/>
<path d="M102.6 243.289V238.057L101.458 238.747V237.909L102.6 237.228H103.361V243.289H102.6ZM104.963 243.289V237.228H105.645L107.935 242.056L110.212 237.228H110.902V243.285H110.191V238.873L108.133 243.289H107.732L105.674 238.873V243.289H104.963Z" fill="#939393"/>
<path d="M147.967 243.407C147.667 243.407 147.388 243.352 147.13 243.243C146.872 243.131 146.649 242.973 146.461 242.771C146.276 242.567 146.139 242.324 146.052 242.043L146.772 241.836C146.865 242.118 147.019 242.331 147.235 242.476C147.451 242.623 147.694 242.694 147.964 242.691C148.21 242.686 148.424 242.63 148.603 242.523C148.786 242.413 148.926 242.265 149.024 242.077C149.125 241.889 149.175 241.671 149.175 241.424C149.175 241.049 149.063 240.744 148.839 240.511C148.614 240.275 148.32 240.158 147.955 240.158C147.854 240.158 147.747 240.171 147.635 240.199C147.525 240.227 147.423 240.267 147.327 240.317L146.966 239.724L149.213 237.691L149.31 237.944H146.292V237.228H149.866V237.947L147.951 239.782L147.942 239.518C148.343 239.49 148.695 239.556 148.995 239.716C149.295 239.876 149.528 240.104 149.693 240.401C149.861 240.699 149.946 241.04 149.946 241.424C149.946 241.811 149.859 242.154 149.685 242.451C149.511 242.749 149.275 242.983 148.978 243.154C148.68 243.323 148.343 243.407 147.967 243.407ZM151.041 243.289V237.228H151.722L154.012 242.056L156.289 237.228H156.979V243.285H156.268V238.873L154.21 243.289H153.81L151.752 238.873V243.289H151.041Z" fill="#939393"/>
<path d="M194.124 243.415C193.739 243.415 193.39 243.323 193.075 243.138C192.764 242.953 192.515 242.699 192.33 242.38C192.148 242.057 192.057 241.694 192.057 241.29V239.274C192.057 238.85 192.148 238.475 192.33 238.15C192.515 237.821 192.768 237.566 193.088 237.383C193.411 237.198 193.778 237.106 194.19 237.106C194.525 237.106 194.835 237.175 195.121 237.312C195.41 237.447 195.653 237.642 195.849 237.897L195.289 238.394C195.168 238.217 195.012 238.076 194.818 237.972C194.624 237.869 194.415 237.817 194.19 237.817C193.924 237.817 193.687 237.881 193.479 238.01C193.274 238.137 193.113 238.305 192.995 238.516C192.877 238.723 192.819 238.947 192.819 239.189V240.406L192.654 240.221C192.831 239.968 193.055 239.766 193.327 239.614C193.6 239.463 193.895 239.387 194.212 239.387C194.588 239.387 194.924 239.475 195.222 239.652C195.522 239.829 195.758 240.069 195.929 240.372C196.103 240.673 196.19 241.011 196.19 241.386C196.19 241.762 196.096 242.103 195.908 242.409C195.72 242.715 195.469 242.959 195.155 243.141C194.843 243.324 194.5 243.415 194.124 243.415ZM194.124 242.691C194.365 242.691 194.585 242.633 194.784 242.519C194.983 242.401 195.14 242.244 195.256 242.047C195.373 241.848 195.432 241.628 195.432 241.386C195.432 241.145 195.373 240.925 195.256 240.726C195.14 240.526 194.983 240.369 194.784 240.254C194.588 240.136 194.369 240.077 194.127 240.077C193.886 240.077 193.666 240.136 193.467 240.254C193.271 240.369 193.113 240.526 192.995 240.726C192.877 240.925 192.819 241.145 192.819 241.386C192.819 241.625 192.876 241.844 192.991 242.043C193.109 242.24 193.266 242.397 193.462 242.514C193.662 242.633 193.882 242.691 194.124 242.691ZM197.286 243.289V237.228H197.967L200.257 242.056L202.534 237.228H203.224V243.285H202.513V238.873L200.455 243.289H200.055L197.997 238.873V243.289H197.286Z" fill="#939393"/>
<path d="M239.665 243.289V238.057L238.525 238.747V237.909L239.665 237.228H240.427V243.289H239.665ZM243.481 243.289V240.767L241.439 237.228H242.311L243.86 239.909L245.404 237.228H246.276L244.239 240.767V243.289H243.481Z" fill="#939393"/>
<path d="M145.468 137.63H115.485C109.922 137.63 105.413 142.14 105.413 147.703C105.413 153.265 109.922 157.775 115.485 157.775H145.468C151.031 157.775 155.541 153.265 155.541 147.703C155.541 142.14 151.031 137.63 145.468 137.63Z" fill="white"/>
<path d="M116.741 152.505V151.316H117.951V152.505H116.741ZM116.741 144.472V143.282H117.951V144.472H116.741ZM117.374 151.657C116.865 151.657 116.41 151.564 116.008 151.376C115.607 151.188 115.277 150.924 115.019 150.582C114.764 150.241 114.602 149.836 114.531 149.368L115.727 149.177C115.821 149.588 116.021 149.917 116.329 150.161C116.641 150.402 117.012 150.523 117.444 150.523C117.859 150.523 118.201 150.425 118.468 150.231C118.736 150.033 118.87 149.784 118.87 149.483C118.87 149.272 118.807 149.102 118.679 148.97C118.553 148.837 118.348 148.726 118.066 148.639L116.325 148.097C115.31 147.782 114.803 147.167 114.803 146.249C114.803 145.821 114.905 145.448 115.109 145.13C115.317 144.808 115.608 144.562 115.983 144.391C116.358 144.218 116.799 144.132 117.309 144.135C117.781 144.139 118.201 144.224 118.569 144.391C118.941 144.559 119.249 144.8 119.493 145.115C119.741 145.429 119.917 145.808 120.02 146.249L118.78 146.475C118.733 146.238 118.641 146.028 118.504 145.848C118.367 145.667 118.194 145.526 117.987 145.426C117.779 145.325 117.548 145.272 117.294 145.265C117.049 145.262 116.83 145.3 116.636 145.381C116.442 145.457 116.288 145.568 116.174 145.712C116.06 145.852 116.003 146.012 116.003 146.189C116.003 146.386 116.082 146.555 116.239 146.696C116.4 146.837 116.652 146.957 116.997 147.057L118.298 147.434C118.924 147.615 119.374 147.861 119.648 148.173C119.926 148.481 120.065 148.891 120.065 149.403C120.065 149.851 119.953 150.244 119.729 150.582C119.505 150.921 119.19 151.185 118.785 151.376C118.38 151.564 117.909 151.657 117.374 151.657ZM123.655 151.657C123.183 151.657 122.758 151.547 122.379 151.326C122.005 151.101 121.707 150.792 121.485 150.397C121.265 150.002 121.154 149.548 121.154 149.036V146.837C121.154 146.288 121.263 145.811 121.481 145.406C121.702 145.001 122.009 144.688 122.404 144.466C122.802 144.246 123.265 144.135 123.791 144.135C124.155 144.135 124.502 144.197 124.83 144.321C125.158 144.441 125.449 144.635 125.704 144.904L124.83 145.752C124.703 145.601 124.547 145.482 124.363 145.396C124.182 145.309 123.991 145.265 123.791 145.265C123.509 145.265 123.263 145.332 123.052 145.466C122.841 145.596 122.677 145.769 122.56 145.983C122.446 146.197 122.389 146.426 122.389 146.671V147.871L122.169 147.63C122.376 147.389 122.625 147.201 122.917 147.068C123.208 146.931 123.512 146.862 123.831 146.862C124.286 146.862 124.688 146.966 125.036 147.173C125.384 147.377 125.658 147.659 125.859 148.017C126.06 148.371 126.16 148.776 126.16 149.232C126.16 149.684 126.045 150.094 125.814 150.462C125.586 150.827 125.284 151.119 124.905 151.336C124.527 151.55 124.11 151.657 123.655 151.657ZM123.655 150.498C123.889 150.498 124.104 150.442 124.298 150.331C124.492 150.218 124.646 150.065 124.76 149.874C124.876 149.68 124.935 149.466 124.935 149.232C124.935 148.998 124.879 148.783 124.765 148.589C124.65 148.395 124.496 148.241 124.302 148.127C124.112 148.01 123.899 147.951 123.665 147.951C123.43 147.951 123.217 148.01 123.022 148.127C122.828 148.241 122.674 148.395 122.56 148.589C122.446 148.783 122.389 148.998 122.389 149.232C122.389 149.459 122.445 149.67 122.555 149.864C122.669 150.055 122.821 150.209 123.012 150.326C123.206 150.441 123.42 150.498 123.655 150.498ZM127.291 152.787L127.361 152.265C127.516 152.278 127.638 152.251 127.728 152.185C127.818 152.121 127.879 152.028 127.909 151.908C127.942 151.791 127.95 151.657 127.934 151.507H127.291V150.216H128.531V151.557C128.531 151.995 128.428 152.326 128.22 152.551C128.012 152.775 127.703 152.854 127.291 152.787ZM132.51 151.642C132.149 151.642 131.807 151.572 131.486 151.431C131.165 151.291 130.885 151.091 130.647 150.833C130.413 150.576 130.244 150.272 130.14 149.92L131.31 149.604C131.394 149.892 131.546 150.114 131.767 150.272C131.992 150.425 132.237 150.501 132.505 150.498C132.743 150.498 132.955 150.442 133.143 150.331C133.331 150.221 133.478 150.072 133.585 149.885C133.692 149.694 133.746 149.481 133.746 149.247C133.746 148.888 133.63 148.589 133.399 148.348C133.168 148.107 132.871 147.987 132.505 147.987C132.395 147.987 132.286 148.001 132.179 148.032C132.075 148.062 131.975 148.104 131.878 148.158L131.325 147.203L133.755 145.125L133.861 145.416H130.421V144.276H134.855V145.421L132.902 147.298L132.892 146.942C133.331 146.972 133.704 147.094 134.012 147.309C134.323 147.523 134.561 147.799 134.724 148.137C134.892 148.475 134.975 148.845 134.975 149.247C134.975 149.702 134.864 150.111 134.64 150.472C134.418 150.833 134.12 151.12 133.746 151.331C133.374 151.539 132.962 151.642 132.51 151.642ZM139.279 151.507V150.312H136.076V149.182L138.391 144.276H139.771L137.456 149.182H139.279V147.298H140.505V149.182H141.183V150.312H140.505V151.507H139.279ZM144.531 151.657C144.162 151.657 143.82 151.582 143.501 151.431C143.184 151.277 142.909 151.066 142.678 150.799C142.45 150.531 142.287 150.219 142.186 149.864L143.351 149.553C143.397 149.748 143.483 149.914 143.607 150.055C143.734 150.196 143.881 150.305 144.049 150.381C144.219 150.459 144.395 150.498 144.576 150.498C144.81 150.498 145.025 150.441 145.219 150.326C145.413 150.212 145.567 150.061 145.68 149.87C145.794 149.676 145.851 149.461 145.851 149.227C145.851 148.992 145.793 148.78 145.676 148.589C145.562 148.395 145.408 148.242 145.213 148.133C145.019 148.018 144.807 147.961 144.576 147.961C144.298 147.961 144.067 148.012 143.883 148.112C143.702 148.213 143.563 148.32 143.466 148.434L142.432 148.102L142.653 144.276H146.58V145.41H143.3L143.752 144.984L143.591 147.645L143.371 147.374C143.558 147.203 143.776 147.076 144.024 146.992C144.272 146.909 144.51 146.867 144.742 146.867C145.194 146.867 145.593 146.971 145.942 147.178C146.293 147.383 146.568 147.662 146.766 148.017C146.966 148.371 147.067 148.775 147.067 149.227C147.067 149.679 146.949 150.089 146.715 150.457C146.48 150.822 146.171 151.113 145.786 151.331C145.404 151.548 144.986 151.657 144.531 151.657Z" fill="#141414"/>
</g>
</g>
</g>
</g>
<rect x="0.381356" y="0.381356" width="260.085" height="260.085" rx="13.3475" stroke="#2F2F2F" stroke-width="0.762712"/>
<defs>
<clipPath id="clip0_46_60">
<rect width="260.847" height="260.847" rx="13.7288" fill="white"/>
</clipPath>
<clipPath id="clip1_46_60">
<rect width="259.322" height="259.322" fill="white" transform="translate(0.762695 0.762695)"/>
</clipPath>
<clipPath id="clip2_46_60">
<rect width="259.322" height="259.322" fill="white" transform="translate(0.762695 0.762695)"/>
</clipPath>
<clipPath id="clip3_46_60">
<rect width="259.322" height="259.322" fill="white" transform="translate(0.762695 0.762695)"/>
</clipPath>
</defs>
</svg>
