<svg width="24" height="24" viewBox="0 0 24 24" fill="none" xmlns="http://www.w3.org/2000/svg">
<path d="M4.08222 16.2262L11.9997 20.0826L19.9171 16.2262V3.72163H4.08222V16.2262ZM21.6548 16.4082L21.6511 16.5119C21.6144 17.0245 21.3078 17.4829 20.8411 17.7103L12.6342 21.7072L12.4805 21.7713C12.1695 21.8809 11.8299 21.8809 11.5188 21.7713L11.3651 21.7072L3.15819 17.7103C2.69156 17.4829 2.38491 17.0245 2.34826 16.5119L2.34448 16.4082V3.43216C2.34448 2.68228 2.9144 2.06558 3.64472 1.99143L3.79276 1.98389H20.2065C21.0064 1.98389 21.6548 2.6323 21.6548 3.43216V16.4082Z" fill="white"/>
<path d="M9.68234 14.2121H14.3167V11.1222H9.68234V14.2121ZM16.0553 14.5016L16.0478 14.6496C15.9737 15.3799 15.3568 15.9497 14.6071 15.9498H9.39285L9.24479 15.9423C8.56313 15.873 8.02125 15.3313 7.95212 14.6496L7.94458 14.5016V10.8328C7.94458 10.0829 8.51451 9.4662 9.24479 9.39205L9.39285 9.38452H14.6071C15.4068 9.38469 16.0553 10.033 16.0553 10.8328V14.5016Z" fill="white"/>
<path d="M13.1579 9.92917V8.91836C13.1579 8.13837 12.5829 7.6126 12.0001 7.61247C11.4172 7.61247 10.8422 8.13827 10.8422 8.91836V9.92917C10.8422 10.4091 10.4528 10.7985 9.97289 10.7985C9.49298 10.7985 9.10352 10.4091 9.10352 9.92917V8.91836C9.10352 7.29591 10.344 5.87378 12.0001 5.87378C13.6561 5.87391 14.8957 7.29599 14.8957 8.91836V9.92917C14.8957 10.4089 14.507 10.7982 14.0272 10.7985C13.5473 10.7985 13.1579 10.4091 13.1579 9.92917Z" fill="white"/>
</svg>
