<svg width="176" height="318" viewBox="0 0 176 318" fill="none" xmlns="http://www.w3.org/2000/svg">
<g clip-path="url(#clip0_46_114)">
<g clip-path="url(#clip1_46_114)">
<path fill-rule="evenodd" clip-rule="evenodd" d="M2.64336 89.9945C0.454818 88.7309 0.454816 86.6823 2.64336 85.4187L34.7182 66.9003C36.9067 65.6367 40.455 65.6367 42.6436 66.9003L43.1518 67.1938C43.4289 67.311 43.7117 67.4522 43.9989 67.6181L170.533 140.672C174.034 142.694 176.873 147.61 176.873 151.654V206.891C176.881 207.04 176.886 207.193 176.886 207.349V257.354C176.886 267.968 169.434 280.874 160.242 286.181L134.174 301.232C124.982 306.539 117.53 302.237 117.53 291.623V241.618C117.53 237.792 120.072 233.183 123.313 230.986L43.9989 185.194C40.4971 183.173 37.6585 178.256 37.6585 174.213V110.211L2.64336 89.9945Z" fill="#F3BB2B"/>
<mask id="mask0_46_114" style="mask-type:luminance" maskUnits="userSpaceOnUse" x="1" y="65" width="176" height="239">
<path fill-rule="evenodd" clip-rule="evenodd" d="M2.64336 89.9945C0.454818 88.7309 0.454816 86.6823 2.64336 85.4187L34.7182 66.9003C36.9067 65.6367 40.455 65.6367 42.6436 66.9003L43.1518 67.1938C43.4289 67.311 43.7117 67.4522 43.9989 67.6181L170.533 140.672C174.034 142.694 176.873 147.61 176.873 151.654V206.891C176.881 207.04 176.886 207.193 176.886 207.349V257.354C176.886 267.968 169.434 280.874 160.242 286.181L134.174 301.232C124.982 306.539 117.53 302.237 117.53 291.623V241.618C117.53 237.792 120.072 233.183 123.313 230.986L43.9989 185.194C40.4971 183.173 37.6585 178.256 37.6585 174.213V110.211L2.64336 89.9945Z" fill="white"/>
</mask>
<g mask="url(#mask0_46_114)">
<path d="M43.1519 67.1939L42.6943 67.9864L42.7433 68.0146L42.7953 68.0366L43.1519 67.1939ZM176.873 206.891H175.958V206.917L175.959 206.942L176.873 206.891ZM123.313 230.986L123.826 231.744L125.035 230.924L123.771 230.193L123.313 230.986ZM37.6586 110.211H38.5738V109.682L38.1162 109.418L37.6586 110.211ZM2.1859 84.6263C0.924902 85.3543 0.0869132 86.4365 0.0869141 87.7067C0.0869148 88.9769 0.924902 90.0591 2.1859 90.7872L3.10105 89.202C2.1735 88.6665 1.91722 88.0926 1.91722 87.7067C1.91722 87.3209 2.1735 86.7469 3.10105 86.2114L2.1859 84.6263ZM34.2608 66.1079L2.1859 84.6263L3.10105 86.2114L35.1759 67.693L34.2608 66.1079ZM43.1013 66.1079C41.8352 65.3768 40.2333 65.0376 38.681 65.0376C37.1288 65.0376 35.5269 65.3768 34.2608 66.1079L35.1759 67.693C36.0983 67.1604 37.3649 66.8679 38.681 66.8679C39.9972 66.8679 41.2638 67.1604 42.1862 67.693L43.1013 66.1079ZM43.6095 66.4013L43.1013 66.1079L42.1862 67.693L42.6943 67.9864L43.6095 66.4013ZM44.4566 66.8255C44.139 66.6422 43.8226 66.4839 43.5086 66.351L42.7953 68.0366C43.0354 68.1382 43.2845 68.2623 43.5414 68.4107L44.4566 66.8255ZM170.99 139.88L44.4566 66.8255L43.5414 68.4107L170.075 141.465L170.99 139.88ZM177.788 151.654C177.788 149.434 177.015 147.037 175.809 144.947C174.602 142.858 172.913 140.99 170.99 139.88L170.075 141.465C171.654 142.377 173.135 143.977 174.224 145.862C175.312 147.748 175.958 149.83 175.958 151.654H177.788ZM177.788 206.891V151.654H175.958V206.891H177.788ZM175.959 206.942C175.966 207.074 175.971 207.209 175.971 207.349H177.801C177.801 207.176 177.796 207.006 177.786 206.84L175.959 206.942ZM175.971 207.349V257.354H177.801V207.349H175.971ZM175.971 257.354C175.971 262.462 174.172 268.186 171.218 273.301C168.265 278.414 164.208 282.835 159.784 285.389L160.7 286.974C165.468 284.221 169.732 279.535 172.803 274.216C175.875 268.896 177.801 262.86 177.801 257.354H175.971ZM159.784 285.389L133.716 300.439L134.632 302.024L160.7 286.974L159.784 285.389ZM133.716 300.439C129.287 302.996 125.492 303.123 122.863 301.605C120.234 300.087 118.445 296.738 118.445 291.623H116.615C116.615 297.122 118.552 301.23 121.948 303.19C125.343 305.151 129.869 304.774 134.632 302.024L133.716 300.439ZM118.445 291.623V241.618H116.615V291.623H118.445ZM118.445 241.618C118.445 239.894 119.024 237.936 120.009 236.13C120.995 234.325 122.35 232.745 123.826 231.744L122.8 230.229C121.035 231.424 119.499 233.246 118.403 235.252C117.309 237.257 116.615 239.516 116.615 241.618H118.445ZM43.5414 185.987L122.855 231.778L123.771 230.193L44.4566 184.402L43.5414 185.987ZM36.7435 174.213C36.7435 176.433 37.5167 178.83 38.7231 180.919C39.9296 183.008 41.6187 184.877 43.5414 185.987L44.4566 184.402C42.8776 183.49 41.3966 181.889 40.3082 180.004C39.2199 178.119 38.5738 176.036 38.5738 174.213H36.7435ZM36.7435 110.211V174.213H38.5738V110.211H36.7435ZM2.1859 90.7872L37.2011 111.003L38.1162 109.418L3.10105 89.202L2.1859 90.7872Z" fill="#060606"/>
</g>
<mask id="mask1_46_114" style="mask-type:alpha" maskUnits="userSpaceOnUse" x="0" y="66" width="177" height="237">
<path fill-rule="evenodd" clip-rule="evenodd" d="M2.5501 93.1278L37.6582 113.397V174.216C37.6582 178.259 40.4968 183.176 43.9986 185.197L123.313 230.99C120.074 233.187 117.532 237.796 117.532 241.621V290.757C117.532 301.371 124.984 305.673 134.175 300.366L160.243 285.316C169.435 280.009 176.887 267.102 176.887 256.488V207.352C176.887 207.186 176.882 207.022 176.873 206.864V151.657C176.873 147.614 174.034 142.697 170.532 140.675L43.9986 67.6213C41.7725 66.3361 39.8143 66.5303 38.6831 67.8811C38.2158 68.0268 37.7769 68.2136 37.3821 68.4415L2.5501 88.5518C0.361555 89.8153 0.361556 91.864 2.5501 93.1278Z" fill="#141414"/>
<mask id="mask2_46_114" style="mask-type:alpha" maskUnits="userSpaceOnUse" x="0" y="66" width="177" height="237">
<path fill-rule="evenodd" clip-rule="evenodd" d="M2.5501 93.1278L37.6582 113.397V174.216C37.6582 178.259 40.4968 183.176 43.9986 185.197L123.313 230.99C120.074 233.187 117.532 237.796 117.532 241.621V290.757C117.532 301.371 124.984 305.673 134.175 300.366L160.243 285.316C169.435 280.009 176.887 267.102 176.887 256.488V207.352C176.887 207.186 176.882 207.022 176.873 206.864V151.657C176.873 147.614 174.034 142.697 170.532 140.675L43.9986 67.6213C41.7725 66.3361 39.8143 66.5303 38.6831 67.8811C38.2158 68.0268 37.7769 68.2136 37.3821 68.4415L2.5501 88.5518C0.361555 89.8153 0.361556 91.864 2.5501 93.1278Z" fill="white"/>
</mask>
<g mask="url(#mask2_46_114)">
<path d="M37.6583 113.397H38.5735V112.868L38.1159 112.605L37.6583 113.397ZM123.314 230.99L123.827 231.747L125.036 230.927L123.771 230.197L123.314 230.99ZM176.873 206.864H175.958V206.891L175.959 206.918L176.873 206.864ZM38.6832 67.8811L38.9556 68.7548L39.2122 68.6747L39.3848 68.4686L38.6832 67.8811ZM38.1159 112.605L3.00779 92.3352L2.09264 93.9203L37.2008 114.19L38.1159 112.605ZM38.5735 174.216V113.397H36.7432V174.216H38.5735ZM44.4562 184.405C42.8772 183.493 41.3963 181.892 40.3079 180.008C39.2196 178.122 38.5735 176.039 38.5735 174.216H36.7432C36.7432 176.436 37.5164 178.832 38.7228 180.923C39.9293 183.012 41.6184 184.88 43.5411 185.99L44.4562 184.405ZM123.771 230.197L44.4562 184.405L43.5411 185.99L122.856 231.782L123.771 230.197ZM118.447 241.621C118.447 239.898 119.025 237.939 120.011 236.134C120.996 234.329 122.351 232.749 123.827 231.747L122.8 230.233C121.037 231.429 119.5 233.25 118.405 235.256C117.31 237.26 116.617 239.519 116.617 241.621H118.447ZM118.447 290.757V241.621H116.617V290.757H118.447ZM133.718 299.574C129.289 302.131 125.493 302.257 122.864 300.74C120.235 299.221 118.447 295.872 118.447 290.757H116.617C116.617 296.256 118.554 300.364 121.949 302.325C125.344 304.285 129.871 303.909 134.633 301.159L133.718 299.574ZM159.786 284.523L133.718 299.574L134.633 301.159L160.701 286.108L159.786 284.523ZM175.972 256.488C175.972 261.597 174.172 267.32 171.22 272.435C168.267 277.549 164.21 281.969 159.786 284.523L160.701 286.108C165.469 283.355 169.734 278.669 172.805 273.35C175.876 268.031 177.803 261.994 177.803 256.488H175.972ZM175.972 207.352V256.488H177.803V207.352H175.972ZM175.959 206.918C175.968 207.058 175.972 207.203 175.972 207.352H177.803C177.803 207.167 177.797 206.986 177.786 206.809L175.959 206.918ZM175.958 151.657V206.864H177.788V151.657H175.958ZM170.075 141.468C171.654 142.379 173.134 143.981 174.223 145.866C175.312 147.751 175.958 149.834 175.958 151.657H177.788C177.788 149.437 177.015 147.04 175.808 144.951C174.601 142.861 172.913 140.993 170.99 139.883L170.075 141.468ZM43.5411 68.4138L170.075 141.468L170.99 139.883L44.4562 66.8287L43.5411 68.4138ZM39.3848 68.4686C40.1234 67.5867 41.5343 67.2552 43.5411 68.4138L44.4562 66.8287C42.0109 65.4168 39.5055 65.4737 37.9816 67.2935L39.3848 68.4686ZM37.8398 69.234C38.1685 69.0442 38.544 68.8831 38.9556 68.7548L38.4108 67.0074C37.8878 67.1704 37.3854 67.3829 36.9247 67.6489L37.8398 69.234ZM3.00779 89.3443L37.8398 69.234L36.9247 67.6489L2.09264 87.7592L3.00779 89.3443ZM3.00779 92.3352C2.08024 91.799 1.82395 91.2254 1.82395 90.8396C1.82395 90.4538 2.08024 89.8798 3.00779 89.3443L2.09264 87.7592C0.831641 88.4872 -0.00634783 89.5694 -0.00634766 90.8396C-0.00634747 92.1101 0.831642 93.1918 2.09264 93.9203L3.00779 92.3352Z" fill="#060606"/>
</g>
</mask>
<g mask="url(#mask1_46_114)">
<path d="M117.534 185.482C117.534 181.438 120.373 176.522 123.875 174.5L183.071 140.323C186.572 138.301 189.411 139.94 189.411 143.983V257.479C189.411 268.092 181.959 280.999 172.767 286.306L134.177 308.586C124.986 313.893 117.534 309.591 117.534 298.977V185.482Z" fill="#141414"/>
</g>
<mask id="mask3_46_114" style="mask-type:luminance" maskUnits="userSpaceOnUse" x="1" y="65" width="176" height="239">
<path fill-rule="evenodd" clip-rule="evenodd" d="M2.64336 89.9945C0.454818 88.7309 0.454816 86.6823 2.64336 85.4187L34.7182 66.9003C36.9067 65.6367 40.455 65.6367 42.6436 66.9003L43.1518 67.1938C43.4289 67.311 43.7117 67.4522 43.9989 67.6181L170.533 140.672C174.034 142.694 176.873 147.61 176.873 151.654V206.891C176.881 207.04 176.886 207.193 176.886 207.349V257.354C176.886 267.968 169.434 280.874 160.242 286.181L134.174 301.232C124.982 306.539 117.53 302.237 117.53 291.623V241.618C117.53 237.792 120.072 233.183 123.313 230.986L43.9989 185.194C40.4971 183.173 37.6585 178.256 37.6585 174.213V110.211L2.64336 89.9945Z" fill="white"/>
</mask>
<g mask="url(#mask3_46_114)">
<path d="M43.1519 67.1939L42.6943 67.9864L42.7433 68.0146L42.7953 68.0366L43.1519 67.1939ZM176.873 206.891H175.958V206.917L175.959 206.942L176.873 206.891ZM123.313 230.986L123.826 231.744L125.035 230.924L123.771 230.193L123.313 230.986ZM37.6586 110.211H38.5738V109.682L38.1162 109.418L37.6586 110.211ZM2.1859 84.6263C0.924902 85.3543 0.0869132 86.4365 0.0869141 87.7067C0.0869148 88.9769 0.924902 90.0591 2.1859 90.7872L3.10105 89.202C2.1735 88.6665 1.91722 88.0926 1.91722 87.7067C1.91722 87.3209 2.1735 86.7469 3.10105 86.2114L2.1859 84.6263ZM34.2608 66.1079L2.1859 84.6263L3.10105 86.2114L35.1759 67.693L34.2608 66.1079ZM43.1013 66.1079C41.8352 65.3768 40.2333 65.0376 38.681 65.0376C37.1288 65.0376 35.5269 65.3768 34.2608 66.1079L35.1759 67.693C36.0983 67.1604 37.3649 66.8679 38.681 66.8679C39.9972 66.8679 41.2638 67.1604 42.1862 67.693L43.1013 66.1079ZM43.6095 66.4013L43.1013 66.1079L42.1862 67.693L42.6943 67.9864L43.6095 66.4013ZM44.4566 66.8255C44.139 66.6422 43.8226 66.4839 43.5086 66.351L42.7953 68.0366C43.0354 68.1382 43.2845 68.2623 43.5414 68.4107L44.4566 66.8255ZM170.99 139.88L44.4566 66.8255L43.5414 68.4107L170.075 141.465L170.99 139.88ZM177.788 151.654C177.788 149.434 177.015 147.037 175.809 144.947C174.602 142.858 172.913 140.99 170.99 139.88L170.075 141.465C171.654 142.377 173.135 143.977 174.224 145.862C175.312 147.748 175.958 149.83 175.958 151.654H177.788ZM177.788 206.891V151.654H175.958V206.891H177.788ZM175.959 206.942C175.966 207.074 175.971 207.209 175.971 207.349H177.801C177.801 207.176 177.796 207.006 177.786 206.84L175.959 206.942ZM175.971 207.349V257.354H177.801V207.349H175.971ZM175.971 257.354C175.971 262.462 174.172 268.186 171.218 273.301C168.265 278.414 164.208 282.835 159.784 285.389L160.7 286.974C165.468 284.221 169.732 279.535 172.803 274.216C175.875 268.896 177.801 262.86 177.801 257.354H175.971ZM159.784 285.389L133.716 300.439L134.632 302.024L160.7 286.974L159.784 285.389ZM133.716 300.439C129.287 302.996 125.492 303.123 122.863 301.605C120.234 300.087 118.445 296.738 118.445 291.623H116.615C116.615 297.122 118.552 301.23 121.948 303.19C125.343 305.151 129.869 304.774 134.632 302.024L133.716 300.439ZM118.445 291.623V241.618H116.615V291.623H118.445ZM118.445 241.618C118.445 239.894 119.024 237.936 120.009 236.13C120.995 234.325 122.35 232.745 123.826 231.744L122.8 230.229C121.035 231.424 119.499 233.246 118.403 235.252C117.309 237.257 116.615 239.516 116.615 241.618H118.445ZM43.5414 185.987L122.855 231.778L123.771 230.193L44.4566 184.402L43.5414 185.987ZM36.7435 174.213C36.7435 176.433 37.5167 178.83 38.7231 180.919C39.9296 183.008 41.6187 184.877 43.5414 185.987L44.4566 184.402C42.8776 183.49 41.3966 181.889 40.3082 180.004C39.2199 178.119 38.5738 176.036 38.5738 174.213H36.7435ZM36.7435 110.211V174.213H38.5738V110.211H36.7435ZM2.1859 90.7872L37.2011 111.003L38.1162 109.418L3.10105 89.202L2.1859 90.7872Z" fill="#060606"/>
</g>
<path d="M6.34031 86.8455L136.436 161.956C139.719 163.852 142.38 168.461 142.38 172.251V280.072C142.38 300.037 128.364 308.128 111.074 298.146L19.021 244.999C8.73484 239.06 0.396239 224.617 0.39624 212.739L0.396243 90.2773C0.396243 86.4866 3.0575 84.9502 6.34031 86.8455Z" fill="#F4F4F4" stroke="#060606" stroke-width="0.91515"/>
<mask id="mask4_46_114" style="mask-type:alpha" maskUnits="userSpaceOnUse" x="-1" y="85" width="144" height="218">
<path d="M6.34031 86.8421L136.436 161.953C139.719 163.849 142.38 168.457 142.38 172.249V280.068C142.38 300.033 128.364 308.125 111.074 298.142L19.021 244.995C8.73484 239.057 0.396239 224.614 0.39624 212.736L0.396243 90.2739C0.396243 86.4832 3.0575 84.9468 6.34031 86.8421Z" fill="#B0F127" stroke="#060606" stroke-width="0.91515"/>
</mask>
<g mask="url(#mask4_46_114)">
<path d="M176.889 184.852L-19.134 71.6777L-19.134 130.826L176.889 244L176.889 184.852Z" fill="white"/>
</g>
<path d="M6.34031 86.8455L136.436 161.956C139.719 163.852 142.38 168.461 142.38 172.251V280.072C142.38 300.037 128.364 308.128 111.074 298.146L19.021 244.999C8.73484 239.06 0.396239 224.617 0.39624 212.739L0.396243 90.2773C0.396243 86.4866 3.0575 84.9502 6.34031 86.8455Z" stroke="#060606" stroke-width="0.91515"/>
<path d="M66.2207 241.425C86.1224 252.915 102.256 243.601 102.256 220.62C102.256 197.64 86.1224 169.696 66.2207 158.205C46.319 146.715 30.1855 156.03 30.1855 179.01C30.1855 201.991 46.319 229.935 66.2207 241.425Z" fill="#939393" stroke="#060606" stroke-width="0.91515"/>
<mask id="mask5_46_114" style="mask-type:alpha" maskUnits="userSpaceOnUse" x="29" y="152" width="74" height="95">
<path d="M66.2207 241.425C86.1224 252.915 102.256 243.601 102.256 220.62C102.256 197.64 86.1224 169.696 66.2207 158.205C46.319 146.715 30.1855 156.03 30.1855 179.01C30.1855 201.991 46.319 229.935 66.2207 241.425Z" fill="#939393" stroke="#060606" stroke-width="0.91515"/>
</mask>
<g mask="url(#mask5_46_114)">
<path d="M179.671 186.546L-16.3513 73.3726L-16.3513 132.661L179.671 245.835L179.671 186.546Z" fill="#E7E7E7"/>
</g>
<path d="M66.2207 241.425C86.1224 252.915 102.256 243.601 102.256 220.62C102.256 197.64 86.1224 169.696 66.2207 158.205C46.319 146.715 30.1855 156.03 30.1855 179.01C30.1855 201.991 46.319 229.935 66.2207 241.425Z" stroke="#060606" stroke-width="0.91515"/>
<path d="M66.2225 232.5C81.8539 241.524 94.5258 234.208 94.5258 216.159C94.5258 198.109 81.8539 176.161 66.2225 167.136C50.591 158.111 37.9192 165.427 37.9192 183.477C37.9192 201.526 50.591 223.475 66.2225 232.5Z" fill="#060606" stroke="#060606" stroke-width="0.91515"/>
<path d="M68.2996 231.302C82.784 239.665 94.5259 232.886 94.5259 216.16C94.5259 199.435 82.784 179.098 68.2996 170.735C53.8152 162.372 42.0732 169.152 42.0732 185.877C42.0732 202.602 53.8152 222.94 68.2996 231.302Z" fill="white" stroke="#060606" stroke-width="0.91515"/>
<path d="M70.1538 193.651C70.1538 191.142 68.3928 188.092 66.2204 186.838C64.0479 185.584 62.2869 186.6 62.2869 189.109L62.2869 208.382C62.2869 210.891 64.0479 213.941 66.2204 215.195C68.3928 216.45 70.1538 215.433 70.1538 212.924L70.1538 193.651Z" fill="#060606" stroke="#060606" stroke-width="0.91515"/>
<path d="M30.2046 41.1236L30.389 88.4894C30.389 90.1332 31.4734 91.7772 33.6424 93.0227C36.066 94.2444 38.7462 94.8722 41.4613 94.8539C44.1763 94.8365 46.848 94.1739 49.2554 92.9202C51.4244 91.6545 52.4884 89.9902 52.4781 88.3464L52.3043 41.0011C52.3043 32.7409 54.596 26.6453 58.6783 24.2765C62.7606 21.9078 69.2269 22.8879 76.4093 26.9925L88.6253 33.9661C107.758 44.9014 123.985 72.7144 124.067 94.7075L124.241 142.073C124.241 143.717 125.335 145.361 127.504 146.607C130.65 148.235 134.231 148.829 137.736 148.301C139.642 148.082 141.486 147.485 143.158 146.545C143.699 146.238 144.203 145.872 144.662 145.453C145.179 145.027 145.6 144.497 145.897 143.897C146.193 143.296 146.358 142.64 146.381 141.971L146.207 94.626C146.146 80.2394 141.317 64.0662 132.579 49.1081C123.842 34.1499 112.116 21.969 99.6242 14.8217L87.4182 7.8379C81.175 4.11618 74.1902 1.80545 66.9556 1.06845C60.2038 0.418769 53.4155 1.86277 47.5161 5.20361C41.7004 8.67093 37.0982 13.8447 34.3381 20.0188C31.4246 26.6657 30.0134 33.8711 30.2046 41.1236Z" fill="#1F1F1F" stroke="#060606" stroke-width="0.91515" stroke-linecap="round" stroke-linejoin="round"/>
</g>
</g>
<defs>
<clipPath id="clip0_46_114">
<rect width="177.539" height="317.56" fill="white"/>
</clipPath>
<clipPath id="clip1_46_114">
<rect width="177.539" height="317.557" fill="white" transform="translate(0 0.00146484)"/>
</clipPath>
</defs>
</svg>
