<svg width="123" height="115" viewBox="0 0 123 115" fill="none" xmlns="http://www.w3.org/2000/svg">
<g clip-path="url(#clip0_1_1814)">
<g clip-path="url(#clip1_1_1814)">
<g clip-path="url(#clip2_1_1814)">
<mask id="mask0_1_1814" style="mask-type:luminance" maskUnits="userSpaceOnUse" x="0" y="0" width="123" height="115">
<path d="M122.162 0H0V114.595H122.162V0Z" fill="white"/>
</mask>
<g mask="url(#mask0_1_1814)">
<path d="M60.9206 114.223C90.7739 114.223 114.975 90.022 114.975 60.1688C114.975 30.3156 90.7739 6.11475 60.9206 6.11475C31.0674 6.11475 6.86658 30.3156 6.86658 60.1688C6.86658 90.022 31.0674 114.223 60.9206 114.223Z" fill="#141414"/>
<path d="M60.9206 114.223C90.7739 114.223 114.975 90.022 114.975 60.1688C114.975 30.3156 90.7739 6.11475 60.9206 6.11475C31.0674 6.11475 6.86658 30.3156 6.86658 60.1688C6.86658 90.022 31.0674 114.223 60.9206 114.223Z" fill="#141414"/>
<path d="M92.1821 109.05L64.3676 61.0194C63.9947 60.3755 64.2575 59.7922 64.7837 60.0959L77.3575 67.3554C77.6834 67.5435 77.9474 67.3911 77.9474 67.0149V34.6608C77.9474 34.2847 78.2115 34.1323 78.5372 34.3203L106.586 50.5142C106.912 50.7023 107.176 51.1597 107.176 51.5358V83.8899C107.176 84.2661 107.44 84.7234 107.766 84.9115L120.413 92.2132C120.938 92.517 121.201 93.4039 120.829 93.6173L93.0143 109.532C92.7841 109.663 92.4121 109.448 92.1821 109.05Z" fill="#060606" stroke="#060606" stroke-width="1.62162" stroke-linecap="round" stroke-linejoin="round"/>
<path d="M77.2163 33.4701L70.3358 37.4426C70.0081 37.6318 70.0081 37.9385 70.3358 38.1278L76.4462 41.6556C76.7739 41.8448 77.3052 41.8448 77.633 41.6556L84.5134 37.6831C84.8412 37.4939 84.8412 37.1871 84.5134 36.9979L78.4031 33.4701C78.0754 33.2809 77.544 33.2809 77.2163 33.4701Z" fill="#060606"/>
<path d="M63.4726 59.2113L56.5921 63.1838C56.2644 63.373 56.2644 63.6798 56.5921 63.869L72.3934 72.9919C72.7212 73.1811 73.2525 73.1811 73.5802 72.9919L80.4607 69.0194C80.7884 68.8302 80.7884 68.5234 80.4607 68.3342L64.6594 59.2113C64.3317 59.0221 63.8003 59.0221 63.4726 59.2113Z" fill="#060606"/>
<path d="M84.8256 113.139L57.0111 65.1073C56.6383 64.4634 56.9012 63.8801 57.4272 64.1838L70.0011 71.4433C70.3269 71.6314 70.5909 71.4789 70.5909 71.1028V38.7487C70.5909 38.3726 70.855 38.2201 71.1808 38.4082L99.2295 54.6021C99.5552 54.7901 99.8194 55.2476 99.8194 55.6238V87.9778C99.8194 88.3539 100.083 88.8113 100.409 88.9994L113.056 96.3012C113.583 96.605 113.845 97.4919 113.472 97.7052L85.6578 113.619C85.4277 113.751 85.0557 113.536 84.8256 113.139Z" fill="white" stroke="#060606" stroke-width="1.62162" stroke-linecap="round" stroke-linejoin="round"/>
<path d="M57.5929 55.9036L64.6912 51.6745L35.6341 2.33936L27.6256 6.92171L57.5929 55.9036Z" fill="#060606" stroke="#060606" stroke-width="1.62162" stroke-linecap="round" stroke-linejoin="round"/>
<path d="M8.62961 19.3533L21.2905 26.663C21.6183 26.8523 21.8839 27.3124 21.8839 27.6909V59.9673C21.8839 60.3512 22.157 60.8179 22.4894 61.002L50.528 76.5327C50.8509 76.7116 51.1094 76.5563 51.1094 76.1833V44.5642C51.1094 44.1857 51.375 44.0324 51.7028 44.2216L64.2817 51.4841C64.8114 51.7899 65.0758 51.2018 64.6998 50.5538L36.7679 2.41873C36.5359 2.01894 36.1614 1.80354 35.9303 1.93698L8.21 17.9412C7.83617 18.1571 8.10094 19.0481 8.62961 19.3533Z" fill="#060606" stroke="#060606" stroke-width="1.62162" stroke-linecap="round"/>
<path d="M1.43261 23.6349L14.0935 30.9448C14.4212 31.134 14.6869 31.5942 14.6869 31.9726V64.2632C14.6869 64.6415 14.9525 65.1018 15.2803 65.2909L43.3189 81.479C43.6467 81.6682 43.9123 81.5149 43.9123 81.1365V48.8459C43.9123 48.4675 44.178 48.3141 44.5057 48.5033L57.0847 55.7658C57.6145 56.0716 57.8787 55.4835 57.5027 54.8355L29.5709 6.70047C29.3389 6.30067 28.9644 6.08528 28.7333 6.21872L1.01301 22.2231C0.63918 22.4388 0.903941 23.3298 1.43261 23.6349Z" fill="#F3BB2B" stroke="#060606" stroke-width="1.62162" stroke-linecap="round"/>
<path d="M51.3217 69.4173L44.392 73.4181C44.0643 73.6074 43.7986 74.0675 43.7986 74.446L43.7986 82.1256C43.7986 82.5041 44.0643 82.6574 44.392 82.4682L51.3217 78.4673C51.6495 78.2781 51.9152 77.818 51.9152 77.4395L51.9152 69.7599C51.9152 69.3814 51.6495 69.228 51.3217 69.4173Z" fill="#060606"/>
</g>
</g>
</g>
</g>
<defs>
<clipPath id="clip0_1_1814">
<rect width="122.162" height="114.595" fill="white"/>
</clipPath>
<clipPath id="clip1_1_1814">
<rect width="122.162" height="114.595" fill="white"/>
</clipPath>
<clipPath id="clip2_1_1814">
<rect width="122.162" height="114.595" fill="white"/>
</clipPath>
</defs>
</svg>
